<svg width="1000" height="1000" viewBox="0 0 1000 1000" fill="none" xmlns="http://www.w3.org/2000/svg">
<path d="M467.495 604.375C448.745 591.25 444.162 565.208 457.287 546.25C470.412 527.5 496.454 522.916 515.412 536.041L607.495 600.624C626.245 613.749 630.829 639.791 617.704 658.75C609.579 670.416 596.662 676.458 583.537 676.458C575.204 676.458 566.87 673.958 559.579 668.958L467.495 604.375ZM543.745 710.416C541.454 707.708 538.745 705.208 535.62 703.125L377.912 592.708C359.162 579.583 333.12 584.166 319.787 602.916C306.662 621.666 311.245 647.708 329.995 661.041L483.329 768.333L633.745 941.041C642.079 950.833 653.745 956.041 665.62 956.041C674.995 956.041 684.578 952.916 692.287 946.25C709.995 931.458 712.287 905.208 697.495 887.5L543.745 710.416ZM201.662 163.958C241.037 191.458 289.787 182.708 317.287 143.333C344.787 103.958 336.245 54.7912 296.87 27.2912C257.495 -0.417116 208.329 8.12455 180.829 47.4995C153.329 86.8745 162.287 136.25 201.662 163.958ZM913.953 678.125L665.62 365.625C668.329 350.208 662.287 333.958 648.537 324.375L546.245 252.708C542.287 250 537.912 247.916 533.329 246.666L349.579 196.666C349.37 196.666 349.162 196.666 348.954 196.458C348.537 196.25 348.12 196.25 347.704 196.25C346.87 196.041 346.037 195.833 345.204 195.833C344.787 195.833 344.37 195.625 343.954 195.625C343.12 195.416 342.287 195.416 341.245 195.416C340.829 195.416 340.62 195.416 340.204 195.416C338.954 195.416 337.704 195.416 336.662 195.416C336.245 195.416 336.037 195.416 335.62 195.416C334.787 195.416 333.745 195.625 332.912 195.625C332.495 195.625 332.079 195.833 331.662 195.833C330.829 196.041 329.995 196.041 329.162 196.25C328.745 196.25 328.329 196.458 327.912 196.458C326.87 196.666 325.829 197.083 324.995 197.291C324.787 197.291 324.579 197.291 324.579 197.5L207.079 240.208C196.662 243.958 188.329 251.666 183.537 261.666C183.329 262.083 183.329 262.5 183.12 262.708L112.079 364.166C107.079 371.25 104.579 379.583 104.579 388.125V531.666C104.579 550 116.454 565.416 132.704 571.041L197.912 942.291C199.787 952.499 208.537 959.583 218.329 959.583C219.579 959.583 220.829 959.374 221.87 959.166C233.12 957.083 240.829 946.458 238.745 934.999L173.329 563.124C182.079 555.416 187.704 544.375 187.704 531.875V401.458L209.787 370L267.495 528.75C271.245 539.166 278.954 547.5 288.954 552.291C294.579 554.791 300.62 556.25 306.662 556.25C311.454 556.25 316.245 555.416 320.829 553.749L438.12 511.041C459.787 503.125 470.829 479.375 463.12 457.708L405.204 297.916L504.37 325L600.829 392.5C612.079 400.416 626.037 401.875 638.12 397.708L881.245 704.166C885.412 709.375 891.453 712.083 897.495 712.083C902.078 712.083 906.662 710.625 910.412 707.5C919.578 700.208 921.037 687.083 913.953 678.125ZM827.703 768.75C793.12 768.75 765.203 796.666 765.203 831.25C765.203 865.833 793.12 893.75 827.703 893.75C862.287 893.75 890.203 865.833 890.203 831.25C890.203 796.666 862.078 768.75 827.703 768.75Z" fill="black"/>
</svg>
