<svg width="1000" height="1000" viewBox="0 0 1000 1000" fill="none" xmlns="http://www.w3.org/2000/svg">
<path d="M587.502 827.085C579.377 813.126 575.835 797.918 572.71 785.418C571.46 780.626 570.418 776.043 569.377 773.126C563.96 757.293 561.668 743.126 562.293 730.001C563.335 708.543 572.502 689.793 588.543 676.043C599.793 666.46 611.877 661.668 620.627 658.335C623.127 657.293 626.668 656.043 628.335 655.21C629.168 653.96 630.627 651.668 631.668 650.001C636.252 642.918 642.293 633.126 652.918 624.585C665.835 613.96 680.21 609.168 691.46 605.21C696.668 603.543 701.877 601.668 704.585 600.001C705.21 599.585 705.835 599.168 706.668 598.751C716.043 592.918 731.877 583.335 751.46 583.335C764.168 583.335 775.835 587.501 785.21 595.21C791.252 591.043 797.918 588.335 804.377 587.293C807.293 586.668 810.21 586.46 813.127 586.46C818.752 586.46 826.877 587.501 835.418 592.085C904.585 428.543 891.668 240.835 807.502 80.4181C803.96 73.5431 797.085 68.7514 789.377 67.7097C570.627 37.9181 350.002 121.46 221.46 305.001C92.9183 488.543 89.7933 724.376 192.293 919.793C195.835 926.668 202.71 931.46 210.418 932.501C351.46 951.668 493.335 923.543 610.835 851.876C601.668 846.043 593.752 837.71 587.502 827.085ZM502.502 641.668C516.668 651.668 520.002 671.043 510.21 685.21C504.168 693.96 494.377 698.543 484.585 698.543C478.335 698.543 472.085 696.668 466.668 692.918L423.96 663.126L394.168 705.835C388.127 714.585 378.335 719.168 368.543 719.168C362.293 719.168 356.043 717.293 350.627 713.543C336.46 703.543 333.127 684.168 342.918 670.001L372.918 627.085L330.21 597.293C316.043 587.293 312.71 567.918 322.502 553.751C332.502 539.585 351.877 536.251 366.043 546.043L408.752 575.835L456.46 507.501L413.752 477.71C399.585 467.71 396.252 448.335 406.043 434.168C416.043 420.001 435.418 416.668 449.585 426.46L492.293 456.251L540.002 387.918L497.502 358.335C483.335 348.335 480.002 328.96 489.793 314.793C499.793 300.626 519.168 297.293 533.335 307.085L576.043 336.876L605.835 294.168C615.835 280.001 635.21 276.668 649.377 286.46C663.543 296.46 666.877 315.835 657.085 330.001L627.085 372.918L669.793 402.71C683.96 412.71 687.293 432.085 677.502 446.251C671.46 455.001 661.668 459.585 651.877 459.585C645.627 459.585 639.377 457.71 633.96 453.96L591.252 424.168L543.543 492.501L586.252 522.293C600.418 532.293 603.752 551.668 593.96 565.835C587.918 574.585 578.127 579.168 568.335 579.168C562.085 579.168 555.835 577.293 550.418 573.543L507.71 543.751L460.002 612.085L502.502 641.668ZM875.627 812.293C872.918 820.001 871.877 828.126 868.127 835.418C857.918 856.043 827.293 865.21 807.502 853.96C799.168 849.168 792.71 841.876 785.627 835.626C777.085 828.126 768.127 821.043 758.96 813.96C747.502 805.001 736.46 796.876 721.252 797.501C696.252 798.335 676.668 817.71 651.877 820.418C617.918 824.168 616.877 782.918 609.168 759.793C603.127 741.876 600.002 721.46 616.043 707.71C627.502 697.918 643.96 696.668 655.627 687.085C665.627 678.751 669.377 665.21 679.377 656.876C692.293 646.251 711.668 644.376 726.252 635.835C735.418 630.418 753.335 617.71 762.085 630.626C765.002 634.793 763.752 640.626 763.335 645.626C761.668 660.626 776.668 664.793 787.293 670.835C800.835 678.543 803.335 653.335 803.752 644.793C803.96 638.96 805.21 629.585 812.293 628.126C822.293 626.251 828.335 649.793 831.877 656.043C839.793 670.835 849.585 685.001 860.835 697.501C872.918 711.043 887.085 723.96 893.96 741.043C898.96 753.335 894.377 765.418 889.793 777.293C885.002 789.168 879.793 800.418 875.627 812.293ZM838.752 914.376C827.293 911.876 817.71 898.96 816.668 887.71C815.418 872.71 832.085 877.293 841.252 876.043C846.877 875.21 852.293 871.46 857.085 876.251C860.835 880.001 860.835 887.085 860.002 891.668C858.335 902.085 851.252 917.293 838.752 914.376Z" fill="black"/>
</svg>
