<svg width="1000" height="1000" viewBox="0 0 1000 1000" fill="none" xmlns="http://www.w3.org/2000/svg">
<path d="M250 583.333C203.958 583.333 166.667 546.042 166.667 500C166.667 453.958 203.958 416.667 250 416.667C296.042 416.667 333.333 453.958 333.333 500C333.333 546.042 296.042 583.333 250 583.333ZM842.917 386.667C808.333 436.042 760.208 471.875 707.292 487.292C688.333 492.917 669.583 495.625 651.458 495.625C624.583 495.625 598.75 489.583 575.833 477.5L371.25 769.792C377.708 780 377.708 793.75 370.417 804.167L286.667 923.542C276.667 937.708 257.292 941.042 243.125 931.25L226.042 919.375C211.875 909.375 208.542 890 218.333 875.833L302.083 756.458C310.208 744.792 325 740.417 337.917 744.792L541.667 453.75C509.792 424.375 490.625 382.5 487.5 333.542C483.958 278.542 501.042 221.042 535.833 171.667C570.417 122.292 618.542 86.4584 671.458 71.0417C726.042 55.0001 778.958 62.2917 820.833 91.6667C862.5 120.833 887.5 168.333 891.25 225C894.583 279.583 877.5 337.083 842.917 386.667ZM849.583 227.292C846.875 183.542 828.125 147.292 796.875 125.417C776.667 111.458 752.917 104.167 727.083 104.167C712.917 104.167 698.125 106.25 683.125 110.625C639.375 123.542 598.958 153.542 569.792 195.208C540.625 236.875 526.042 285 528.958 330.625C531.667 374.375 550.417 410.625 581.667 432.5C612.917 454.375 653.333 459.583 695.417 447.083C739.167 434.167 779.583 404.167 808.75 362.5C837.917 320.833 852.5 272.917 849.583 227.292Z" fill="black"/>
</svg>
