<svg width="1000" height="1000" viewBox="0 0 1000 1000" fill="none" xmlns="http://www.w3.org/2000/svg">
<path d="M931.667 157.708L664.792 539.167C664.583 539.583 664.167 540.208 663.958 540.625C660.208 545.833 656.667 551.042 653.125 556.042L511.458 758.542C473.333 813.125 430.208 849.167 383.542 865.417C365.208 871.875 346.042 875 325.625 875C275.625 875 219.375 855.625 155 816.458C154.375 816.042 153.75 815.625 153.333 815.208L91.6666 769.375C83.5416 763.333 81.0416 752.5 85.6249 743.333L127.292 660C130 654.792 134.792 650.833 140.417 649.167C146.042 647.708 152.292 648.542 157.292 651.667C159.167 652.917 160.208 653.958 162.917 656.458C195.417 687.5 280.417 759.375 368.75 757.292C410.833 756.25 449.167 737.917 482.5 702.917C482.708 702.708 482.917 702.5 483.125 702.292C483.542 701.875 533.958 652.083 619.375 531.667L897.917 133.75C904.583 124.375 917.5 122.083 926.875 128.542C935.833 135.417 938.125 148.333 931.667 157.708ZM791.667 708.333C745.625 708.333 708.333 745.625 708.333 791.667C708.333 837.708 745.625 875 791.667 875C837.708 875 875 837.708 875 791.667C875 745.625 837.708 708.333 791.667 708.333Z" fill="black"/>
</svg>
