<svg width="1000" height="1000" viewBox="0 0 1000 1000" fill="none" xmlns="http://www.w3.org/2000/svg">
<path fill-rule="evenodd" clip-rule="evenodd" d="M256.044 431.667C218.335 405.209 166.46 414.376 140.002 452.084C113.544 489.792 122.71 541.667 160.419 568.126C198.127 594.584 250.002 585.417 276.46 547.709C302.919 510.001 293.752 458.126 256.044 431.667ZM191.252 488.126C180.419 503.542 165.835 514.792 149.377 521.251C146.877 514.584 145.627 507.292 145.627 500.209C156.669 495.001 166.46 486.876 173.96 476.251C181.46 465.626 185.627 453.542 186.877 441.459C193.544 438.959 200.835 437.709 207.919 437.709C207.502 455.001 202.085 472.709 191.252 488.126ZM242.502 523.959C235.002 534.584 230.835 546.667 229.585 558.959C222.919 561.459 215.627 562.709 208.544 562.709C209.169 545.209 214.585 527.501 225.419 512.084C236.252 496.667 250.835 485.417 267.085 478.959C269.585 485.626 270.835 492.917 270.835 500.001C259.794 505.209 250.002 513.126 242.502 523.959ZM387.919 750.001C390.002 749.792 392.085 749.792 394.169 749.792C410.627 749.792 425.627 753.334 439.377 758.126L484.794 693.334C492.085 682.917 492.085 669.584 486.044 659.376L649.794 593.542C669.585 592.917 690.002 589.584 710.627 583.542C775.627 564.584 834.794 520.417 877.502 459.584C920.002 398.751 941.252 328.126 936.877 260.417C932.502 191.042 902.085 133.334 851.044 97.709C800.002 61.8756 735.419 53.1256 668.752 72.709C603.752 91.6673 544.585 135.834 501.877 196.667C459.377 257.501 438.127 328.126 442.502 395.834C443.96 417.292 447.71 437.501 453.96 456.459L448.127 632.917C436.46 630.626 423.752 635.209 416.46 645.626L332.71 765.001C332.502 765.417 332.294 765.834 332.085 766.042C348.127 757.917 366.669 751.042 387.919 750.001ZM490.419 612.501L493.335 526.876C503.544 538.751 515.21 549.376 528.335 558.542C541.46 567.709 555.419 575.001 570.002 580.626L490.419 612.501ZM536.044 220.417C587.919 146.251 665.627 104.167 736.669 104.167C769.169 104.167 800.419 112.917 827.085 131.667C867.294 159.792 891.46 206.459 895.21 262.917C898.96 321.042 880.419 382.292 843.335 435.417C792.294 508.334 716.252 550.209 646.252 551.667C645.835 551.667 645.627 551.667 645.21 551.667C611.669 552.084 579.585 543.334 552.294 524.167C525.002 505.001 505.835 477.917 494.794 446.251C494.585 445.834 494.585 445.417 494.377 445.209C471.669 378.959 485.002 293.334 536.044 220.417ZM83.3352 916.667C77.5019 916.667 71.8769 914.376 67.7102 909.584C60.0019 901.042 60.8352 887.709 69.5852 880.209C72.2935 877.917 74.7935 875.626 77.5019 873.126C103.335 850.001 132.502 823.959 171.669 816.667C193.752 812.501 216.252 819.792 237.919 826.876C255.002 832.292 272.502 838.126 286.252 836.459C297.919 835.209 311.46 826.667 325.627 817.709C344.169 806.042 365.419 792.709 390.002 791.459C412.919 790.209 434.169 800.209 454.585 809.792C471.044 817.501 486.46 824.792 499.794 824.792C513.127 824.792 528.752 817.501 545.002 809.792C565.419 800.209 586.669 790.209 609.585 791.459C634.169 792.709 655.21 806.042 673.96 817.709C688.127 826.667 701.669 835.001 713.335 836.459C727.085 838.126 744.794 832.292 761.669 826.876C783.335 819.792 805.835 812.709 827.919 816.667C867.294 823.959 899.794 853.126 923.544 874.376C925.835 876.459 927.919 878.334 930.002 880.001C938.544 887.709 939.377 900.834 931.877 909.376C924.169 917.917 911.044 918.751 902.502 911.251C900.419 909.376 898.127 907.292 895.835 905.417C875.835 887.501 848.335 862.709 820.419 857.709C808.544 855.626 792.085 860.834 774.377 866.459C753.127 873.334 731.044 880.417 708.544 877.709C687.502 875.209 669.169 863.959 651.669 852.917C635.835 843.126 621.044 833.751 607.294 832.917C594.794 832.292 579.169 839.584 562.71 847.292C542.919 856.667 522.294 866.251 499.794 866.251C477.085 866.251 456.669 856.667 436.877 847.292C420.419 839.584 404.794 832.292 392.294 832.917C378.544 833.751 363.544 842.917 347.919 852.917C330.419 863.959 312.085 875.417 291.044 877.709C268.335 880.209 246.46 873.126 225.21 866.459C207.71 860.834 191.044 855.417 179.169 857.709C151.669 862.709 128.127 883.751 105.21 904.167C102.502 906.667 99.7935 908.959 97.0852 911.459C93.1269 915.001 88.3352 916.667 83.3352 916.667Z" fill="black"/>
</svg>
