<svg width="1000" height="1000" viewBox="0 0 1000 1000" fill="none" xmlns="http://www.w3.org/2000/svg">
<path d="M652.927 498.333L645.01 380.625C645.01 380.208 644.802 379.791 644.802 379.166C625.218 314.583 565.427 267.708 494.593 267.708H488.552C408.135 267.708 351.052 330.416 347.093 409.583C346.885 415.208 347.302 420.625 348.135 426.25L360.843 495.833C361.26 497.916 362.718 499.791 365.01 500.416L617.718 579.791C620.843 580.833 623.969 579.166 625.219 576.041L652.718 500.416C652.927 500 652.927 499.166 652.927 498.333ZM629.802 493.541L485.01 456.666C480.218 455.208 476.468 451.666 474.802 446.875L458.968 397.916C456.885 388.541 463.968 379.791 473.552 379.791H624.177C627.302 379.791 630.01 382.291 630.218 385.416L637.302 487.291C637.51 491.458 633.76 494.583 629.802 493.541ZM937.51 824.999C938.135 836.458 929.177 846.249 917.718 846.874C842.927 850.624 802.302 828.958 766.677 809.999C732.718 791.874 700.635 774.791 637.093 777.916C573.76 781.041 543.552 801.458 511.468 822.916C477.718 845.416 439.593 871.041 364.802 874.791C290.01 878.541 249.385 856.874 213.76 837.916C179.802 819.791 147.718 802.708 84.1768 805.833C72.7185 806.458 62.9268 797.499 62.3018 786.041C61.6768 774.583 70.6352 764.791 82.0935 764.166C156.885 760.416 197.51 782.083 233.135 801.041C267.093 819.166 299.177 836.249 362.718 833.124C426.052 829.999 456.26 809.583 488.343 788.124C522.093 765.624 560.218 739.999 635.01 736.249C709.802 732.499 750.427 754.166 786.052 773.124C820.01 791.249 852.093 808.333 915.635 805.208C927.093 804.791 936.885 813.541 937.51 824.999ZM374.802 790.416C372.718 790.624 370.843 790.833 368.76 791.041C370.635 790.833 372.718 790.624 374.802 790.416ZM398.76 786.458C400.427 786.041 402.093 785.624 403.76 785.208C402.302 785.624 400.635 786.041 398.76 786.458ZM338.968 791.666C337.927 791.666 337.093 791.666 336.052 791.458C337.093 791.458 338.135 791.666 338.968 791.666ZM311.468 788.333C310.635 788.124 309.802 787.916 308.968 787.708C309.802 787.916 310.635 788.124 311.468 788.333ZM393.552 787.499C395.427 787.083 397.093 786.666 398.76 786.249C397.093 786.874 395.218 787.291 393.552 787.499ZM387.302 788.749C385.427 788.958 383.552 789.374 381.677 789.583C383.552 789.374 385.427 788.958 387.302 788.749ZM387.51 788.749C389.385 788.541 391.052 788.124 392.718 787.708C391.052 788.124 389.385 788.333 387.51 788.749ZM340.01 791.666C341.26 791.666 342.302 791.666 343.552 791.666C342.302 791.666 341.052 791.666 340.01 791.666ZM318.552 789.583C319.385 789.791 320.218 789.791 321.052 789.999C320.218 789.791 319.385 789.791 318.552 789.583ZM317.718 789.583C316.885 789.374 316.052 789.374 315.218 789.166C316.052 789.166 316.885 789.374 317.718 789.583ZM335.01 791.458C334.177 791.458 333.135 791.249 332.302 791.249C333.343 791.249 334.177 791.458 335.01 791.458ZM314.593 788.958C313.76 788.749 312.927 788.541 312.093 788.541C312.927 788.541 313.76 788.749 314.593 788.958ZM331.26 791.249C330.427 791.249 329.593 791.041 328.76 791.041C329.593 791.041 330.427 791.041 331.26 791.249ZM327.718 790.833C326.885 790.833 326.052 790.624 325.218 790.624C326.052 790.624 326.885 790.833 327.718 790.833ZM321.885 790.208C322.718 790.416 323.552 790.416 324.385 790.624C323.552 790.416 322.718 790.208 321.885 790.208ZM380.635 789.791C378.76 789.999 376.885 790.208 375.01 790.416C376.885 790.208 378.76 789.999 380.635 789.791ZM821.052 744.374C822.718 745.208 824.385 746.041 825.843 746.874C824.385 746.041 822.718 745.208 821.052 744.374ZM461.677 756.041C460.635 756.666 459.593 757.291 458.552 758.124C459.593 757.291 460.635 756.666 461.677 756.041ZM455.218 760.208C456.26 759.583 457.093 758.958 458.135 758.333C457.093 758.958 456.052 759.583 455.218 760.208ZM830.843 749.166C829.177 748.333 827.51 747.708 826.052 746.874C827.718 747.708 829.177 748.541 830.843 749.166ZM445.01 766.666C446.052 766.041 447.093 765.416 448.135 764.791C447.093 765.416 446.052 766.041 445.01 766.666ZM841.052 753.541C839.385 752.916 837.718 752.291 836.052 751.458C837.718 752.291 839.385 752.916 841.052 753.541ZM404.177 784.999C405.843 784.583 407.51 783.958 408.968 783.541C407.51 783.958 405.843 784.583 404.177 784.999ZM835.844 751.458C834.177 750.833 832.51 750 830.843 749.375C832.51 750 834.177 750.833 835.844 751.458ZM413.343 782.083C414.385 781.666 415.635 781.249 416.677 780.833C415.635 781.249 414.593 781.666 413.343 782.083ZM417.093 780.833C420.843 779.374 424.385 777.916 427.718 776.249C424.385 777.916 420.843 779.374 417.093 780.833ZM412.927 782.291C411.677 782.708 410.427 783.124 409.177 783.541C410.427 783.124 411.677 782.708 412.927 782.291ZM444.593 767.083C443.552 767.708 442.718 768.333 441.677 768.749C442.718 768.124 443.552 767.5 444.593 767.083ZM428.135 776.041C429.177 775.624 430.218 774.999 431.26 774.583C430.218 774.999 429.177 775.624 428.135 776.041ZM431.468 774.375C434.802 772.708 438.135 770.833 441.26 768.958C438.135 770.833 434.802 772.708 431.468 774.375ZM448.135 764.791C450.218 763.333 452.51 762.083 454.593 760.624C452.51 762.083 450.427 763.333 448.135 764.791ZM297.302 784.583C298.135 784.791 298.968 785.208 299.802 785.416C298.968 784.999 298.135 784.791 297.302 784.583ZM248.552 761.875C248.552 761.875 248.343 761.874 248.343 761.666C248.343 761.874 248.552 761.875 248.552 761.875ZM268.343 772.291C266.677 771.458 265.01 770.624 263.343 769.791C265.01 770.624 266.677 771.458 268.343 772.291ZM268.552 772.291C275.218 775.625 282.093 778.749 288.968 781.458C281.885 778.958 275.218 775.833 268.552 772.291ZM257.51 766.666C256.26 766.041 254.802 765.208 253.552 764.583C254.802 765.208 256.26 766.041 257.51 766.666ZM300.01 785.416C300.843 785.624 301.677 785.833 302.51 786.249C301.677 785.833 300.843 785.624 300.01 785.416ZM895.843 763.958H906.052C904.385 763.958 902.718 763.958 901.052 763.958C875.843 763.958 857.718 759.791 841.26 753.333C856.468 759.583 873.343 763.541 895.843 763.958ZM288.968 781.666C290.635 782.291 292.51 782.916 294.177 783.541C292.51 782.916 290.635 782.291 288.968 781.666ZM360.635 791.458C362.927 791.249 365.01 791.249 367.093 791.041C365.01 791.249 362.927 791.458 360.635 791.458C356.26 791.666 351.885 791.874 347.927 791.874C346.468 791.874 345.218 791.874 343.76 791.874C345.01 791.874 346.468 791.874 347.718 791.874C352.093 791.874 356.26 791.666 360.635 791.458ZM294.385 783.541C295.218 783.749 296.052 784.166 296.885 784.374C296.052 784.166 295.218 783.958 294.385 783.541ZM805.843 736.458C811.052 739.166 816.052 741.874 821.052 744.374C816.052 741.874 811.052 739.374 805.843 736.458C770.635 717.708 726.677 694.166 651.885 694.166C645.843 694.166 639.385 694.374 633.135 694.583C546.677 698.958 501.677 729.166 465.427 753.541C464.177 754.375 463.135 754.999 461.885 755.833C462.927 754.999 464.177 754.375 465.427 753.541C501.677 729.166 546.885 698.958 633.135 694.583C639.593 694.166 645.843 694.166 651.885 694.166C726.677 694.166 770.635 717.708 805.843 736.458ZM305.427 786.874C304.593 786.666 303.76 786.458 302.927 786.249C303.76 786.458 304.593 786.666 305.427 786.874ZM263.135 769.583C261.468 768.749 259.802 767.916 258.343 767.083C260.01 767.916 261.677 768.749 263.135 769.583ZM306.052 787.083C306.885 787.291 307.718 787.499 308.552 787.708C307.718 787.499 306.885 787.291 306.052 787.083ZM80.0102 722.499C73.9685 722.708 67.9268 723.958 62.5102 726.041V592.291C62.5102 583.124 70.0102 575.624 79.1768 575.624H155.427C155.635 575.624 155.635 575.624 155.843 575.624C156.885 575.624 157.927 575.624 158.968 575.624H161.677C445.427 577.708 708.344 635.624 926.26 733.124C933.76 736.458 937.302 742.916 937.718 749.583V749.791C937.718 750.208 937.718 750.833 937.718 751.249V763.958H923.552C921.468 763.75 919.177 763.541 917.094 763.541C916.052 763.541 915.01 763.541 913.969 763.541C911.26 763.749 908.76 763.749 906.26 763.749H895.843C873.343 763.333 856.469 759.374 841.052 753.333C839.385 752.708 837.718 752.083 836.052 751.249C834.385 750.624 832.718 749.791 831.052 749.166C831.052 749.166 831.052 749.166 830.843 749.166C829.177 748.333 827.51 747.708 826.052 746.874C824.385 746.041 822.719 745.208 821.26 744.374C816.26 741.874 811.26 739.166 806.052 736.458C770.843 717.708 726.885 694.166 652.093 694.166C646.052 694.166 639.593 694.374 633.343 694.583C546.885 698.958 501.885 729.166 465.635 753.541C464.385 754.375 463.343 754.999 462.093 755.833C462.093 755.833 461.885 755.833 461.885 756.041C460.843 756.666 459.802 757.291 458.76 758.124C458.552 758.333 458.343 758.333 458.135 758.541C457.093 759.166 456.26 759.791 455.218 760.416C455.01 760.416 455.01 760.624 454.802 760.624C452.51 762.083 450.427 763.541 448.343 764.791C448.343 764.791 448.343 764.791 448.135 764.791C447.093 765.416 446.052 766.041 445.01 766.666C444.802 766.666 444.802 766.874 444.593 766.874C443.552 767.499 442.718 768.124 441.677 768.541C441.468 768.541 441.468 768.749 441.26 768.749C437.927 770.624 434.802 772.499 431.468 774.166C431.26 774.166 431.26 774.375 431.052 774.375C430.01 774.791 428.968 775.416 427.927 775.833C427.718 775.833 427.718 776.041 427.51 776.041C424.177 777.708 420.635 779.166 416.885 780.624C416.677 780.624 416.677 780.624 416.468 780.833C415.427 781.249 414.177 781.666 413.135 782.083C412.927 782.083 412.718 782.291 412.718 782.291C411.468 782.708 410.218 783.124 408.968 783.541C407.302 783.958 405.843 784.583 404.177 784.999C403.968 784.999 403.968 784.999 403.76 785.208C402.093 785.624 400.427 786.041 398.76 786.458C397.093 786.874 395.218 787.291 393.552 787.708C393.343 787.708 393.135 787.708 392.718 787.916C391.052 788.333 389.177 788.541 387.51 788.958H387.302C385.427 789.166 383.552 789.583 381.677 789.791C381.26 789.791 380.843 789.791 380.635 789.999C378.76 790.208 376.885 790.416 375.01 790.624H374.802C372.718 790.833 370.843 791.041 368.76 791.249C368.343 791.249 367.718 791.249 367.302 791.458C365.218 791.666 363.135 791.666 360.843 791.874C356.468 792.083 352.093 792.291 348.135 792.291C346.677 792.291 345.427 792.291 344.177 792.291C343.968 792.291 343.968 792.291 343.76 792.291C342.51 792.291 341.468 792.291 340.218 792.291C339.802 792.291 339.593 792.291 339.177 792.291C338.135 792.291 337.302 792.291 336.26 792.083C335.843 792.083 335.635 792.083 335.218 792.083C334.385 792.083 333.343 791.874 332.51 791.874C332.093 791.874 331.677 791.874 331.468 791.874C330.635 791.874 329.802 791.666 328.968 791.666C328.552 791.666 328.343 791.666 327.927 791.458C327.093 791.458 326.26 791.249 325.427 791.249C325.01 791.249 324.802 791.249 324.385 791.041C323.552 791.041 322.718 790.833 321.885 790.624C321.677 790.624 321.26 790.624 321.052 790.416C320.218 790.208 319.385 790.208 318.552 789.999C318.343 789.999 317.927 789.999 317.718 789.791C316.885 789.583 316.052 789.583 315.218 789.374C315.01 789.374 314.802 789.374 314.593 789.166C313.76 788.958 312.927 788.749 312.093 788.749C311.885 788.749 311.677 788.749 311.468 788.541C310.635 788.333 309.802 788.124 308.968 787.916C308.76 787.916 308.552 787.916 308.343 787.708C307.51 787.499 306.677 787.291 305.843 787.083C305.635 787.083 305.427 787.083 305.427 786.874C304.593 786.666 303.76 786.458 302.927 786.249C302.718 786.249 302.718 786.249 302.51 786.249C301.677 786.041 300.843 785.833 300.01 785.416C299.802 785.416 299.802 785.416 299.593 785.416C298.76 785.208 297.927 784.999 297.093 784.583H296.885C296.052 784.374 295.218 783.958 294.385 783.749C294.385 783.749 294.385 783.749 294.177 783.749C292.302 783.124 290.635 782.499 288.968 781.874C281.885 779.166 275.218 776.041 268.552 772.708C266.885 771.874 265.218 771.041 263.552 770.208C263.552 770.208 263.343 770.208 263.343 769.999C261.677 769.166 260.01 768.333 258.552 767.499C258.343 767.291 258.135 767.291 257.718 767.083C256.468 766.458 255.01 765.625 253.76 765C253.552 765 253.343 764.791 253.135 764.791C251.677 763.958 250.218 763.333 248.76 762.499C248.76 762.499 248.552 762.499 248.552 762.291C213.968 743.958 170.635 722.499 99.1768 722.499C92.7185 721.874 86.4685 722.083 80.0102 722.499ZM441.677 768.749C441.468 768.749 441.468 768.958 441.26 768.958C441.468 768.749 441.677 768.749 441.677 768.749ZM445.01 766.666C444.802 766.666 444.802 766.874 444.593 766.874C444.802 766.874 445.01 766.874 445.01 766.666ZM417.093 780.833C416.885 780.833 416.885 780.833 416.677 781.041C416.885 780.833 416.885 780.833 417.093 780.833ZM257.51 766.666C257.718 766.874 257.927 766.875 258.343 767.083C258.135 766.875 257.718 766.874 257.51 766.666ZM252.927 764.166C253.135 764.374 253.343 764.374 253.552 764.374C253.343 764.374 253.135 764.374 252.927 764.166C251.468 763.333 250.01 762.708 248.552 761.875C250.01 762.708 251.468 763.541 252.927 764.166ZM428.135 776.041C427.927 776.041 427.927 776.249 427.718 776.249C427.927 776.249 427.927 776.041 428.135 776.041ZM431.052 774.583C431.26 774.583 431.26 774.375 431.468 774.375C431.468 774.375 431.26 774.374 431.052 774.583ZM831.052 749.375C831.052 749.166 830.843 749.166 831.052 749.375C830.843 749.166 831.052 749.166 831.052 749.375ZM836.052 751.458C836.052 751.458 835.843 751.458 836.052 751.458C835.843 751.458 836.052 751.458 836.052 751.458ZM455.218 760.208C455.01 760.208 455.01 760.416 454.802 760.416C455.01 760.416 455.01 760.416 455.218 760.208ZM458.135 758.333C458.343 758.124 458.552 758.124 458.76 757.916C458.343 758.124 458.135 758.333 458.135 758.333ZM916.885 763.749C919.177 763.749 921.26 763.958 923.344 764.166H905.843C908.343 764.166 911.052 763.958 913.552 763.958C914.802 763.75 915.843 763.749 916.885 763.749ZM461.885 755.833C461.677 755.833 461.677 756.041 461.885 755.833C461.677 756.041 461.677 755.833 461.885 755.833ZM374.802 790.416H375.01C374.802 790.416 374.802 790.416 374.802 790.416ZM332.51 791.249C332.093 791.249 331.677 791.249 331.468 791.249C331.677 791.249 332.093 791.249 332.51 791.249ZM302.718 786.041C302.927 786.041 302.927 786.041 303.135 786.041C302.927 786.249 302.718 786.249 302.718 786.041ZM300.01 785.416C299.802 785.416 299.802 785.416 299.593 785.416C299.802 785.416 300.01 785.416 300.01 785.416ZM327.718 790.833C328.135 790.833 328.343 790.833 328.76 791.041C328.552 790.833 328.135 790.833 327.718 790.833ZM335.01 791.458C335.427 791.458 335.635 791.458 336.052 791.458C335.843 791.458 335.427 791.458 335.01 791.458ZM338.968 791.666C339.385 791.666 339.593 791.666 340.01 791.666C339.593 791.666 339.385 791.666 338.968 791.666ZM413.343 782.083C413.135 782.083 412.927 782.291 412.927 782.291C413.135 782.291 413.135 782.291 413.343 782.083ZM314.593 788.958C314.802 788.958 315.01 788.958 315.218 789.166C315.01 788.958 314.802 788.958 314.593 788.958ZM317.718 789.583C317.927 789.583 318.343 789.583 318.552 789.791C318.343 789.583 318.135 789.583 317.718 789.583ZM297.302 784.583H297.093C297.093 784.374 297.093 784.374 297.302 784.583ZM308.552 787.708C308.76 787.708 308.968 787.708 309.177 787.916C308.76 787.708 308.76 787.708 308.552 787.708ZM306.052 787.083C305.843 787.083 305.635 787.083 305.635 786.874C305.635 786.874 305.843 787.083 306.052 787.083ZM321.885 790.208C321.677 790.208 321.26 790.208 321.052 789.999C321.26 789.999 321.677 789.999 321.885 790.208ZM324.385 790.416C324.802 790.416 325.01 790.416 325.427 790.624C325.01 790.624 324.593 790.416 324.385 790.416ZM268.343 772.291C268.552 772.291 268.552 772.291 268.343 772.291C268.552 772.291 268.552 772.291 268.343 772.291ZM343.552 791.666C343.76 791.666 343.76 791.666 343.968 791.666C343.76 791.874 343.552 791.874 343.552 791.666ZM403.76 785.208C403.968 785.208 403.968 785.208 404.177 784.999C404.177 784.999 403.968 784.999 403.76 785.208ZM263.135 769.583C263.343 769.791 263.343 769.791 263.135 769.583C263.343 769.791 263.343 769.791 263.135 769.583ZM392.718 787.708C392.927 787.708 393.135 787.708 393.552 787.499C393.343 787.708 392.927 787.708 392.718 787.708ZM311.468 788.333C311.677 788.333 311.885 788.333 312.093 788.541C311.885 788.333 311.677 788.333 311.468 788.333ZM367.093 791.041C367.51 791.041 368.135 791.041 368.552 790.833C368.135 791.041 367.718 791.041 367.093 791.041ZM294.177 783.541C294.385 783.541 294.385 783.541 294.177 783.541C294.385 783.541 294.385 783.541 294.177 783.541C294.177 783.541 294.385 783.541 294.177 783.541ZM380.635 789.791C381.052 789.791 381.468 789.791 381.677 789.583C381.468 789.583 381.052 789.583 380.635 789.791ZM387.51 788.749C387.51 788.749 387.302 788.749 387.51 788.749C387.302 788.749 387.51 788.749 387.51 788.749Z" fill="black"/>
</svg>
