<svg width="1000" height="1000" viewBox="0 0 1000 1000" fill="none" xmlns="http://www.w3.org/2000/svg">
<path fill-rule="evenodd" clip-rule="evenodd" d="M583.343 255.833C567.301 212.083 590.009 163.541 633.759 147.708C677.509 131.666 726.051 154.375 741.884 198.125C757.926 241.875 735.218 290.416 691.468 306.25C647.717 322.291 599.176 299.583 583.343 255.833ZM918.551 470.625C906.676 438.125 870.843 421.458 838.343 433.333C805.843 445.208 789.176 481.041 801.051 513.541C812.926 546.041 848.759 562.708 881.259 550.833C913.551 538.75 930.426 502.916 918.551 470.625ZM772.926 456.666L656.051 374.791C656.051 374.791 655.843 374.791 655.843 374.583L556.051 304.583C537.301 291.458 511.259 296.041 497.926 314.791L353.343 521.25C340.218 540 344.801 566.041 363.551 579.375C374.384 587.083 385.426 594.583 396.259 602.291C415.218 615.625 434.176 628.333 447.718 647.5C459.176 663.75 466.884 682.708 470.009 702.5C473.134 722.291 471.676 742.708 465.843 761.666C461.884 774.375 455.843 786.458 448.134 797.5C428.134 826.041 398.343 845 364.176 851.041C330.009 857.083 295.426 849.375 266.884 829.375C238.343 809.375 219.384 779.583 213.343 745.416C207.301 711.25 215.009 676.666 235.009 648.125C247.301 630.625 263.134 616.875 281.884 607.083C302.301 596.458 310.426 571.458 299.801 551.041C289.176 530.625 264.176 522.5 243.759 533.125C213.134 548.958 186.467 572.083 166.676 600.416C133.967 647.083 121.467 703.75 131.259 760C141.259 816.25 172.301 865.208 218.967 897.916C255.218 923.333 297.509 936.666 341.051 936.666C353.551 936.666 366.051 935.625 378.551 933.333C434.801 923.333 483.759 892.291 516.468 845.625C561.884 780.625 566.051 699.166 534.593 632.083L647.509 470.833L748.759 541.666C759.593 549.166 772.509 550.833 784.176 547.5C778.968 540.416 774.801 532.708 771.676 524.166C763.759 501.875 764.176 478.125 772.926 456.666Z" fill="black"/>
</svg>
