<svg width="1000" height="1000" viewBox="0 0 1000 1000" fill="none" xmlns="http://www.w3.org/2000/svg">
<path d="M936.875 284.583C931.875 206.667 897.708 141.667 840.625 101.667C783.542 61.6666 710.833 51.6666 635.833 73.75C562.5 95.2083 495.833 144.792 447.708 213.542C399.583 282.083 375.833 361.875 380.833 438.125C382.917 470.625 390 500.625 401.875 527.709L362.083 744.375C350 741.459 336.875 746.042 329.375 756.875L245.625 876.25C235.625 890.417 239.167 909.792 253.333 919.792L270.417 931.667C284.583 941.667 303.958 938.125 313.958 923.959L397.708 804.584C405.208 793.75 405 780 398.333 769.584L590.625 659.792C595.417 660 600.417 660.209 605.208 660.209C630.208 660.209 656.042 656.459 682.083 648.75C755.417 627.292 822.083 577.709 870.208 508.958C917.917 440.625 941.667 360.833 936.875 284.583ZM409.792 715L434.375 581.459C446.667 596.459 461.042 609.792 477.292 621.042C493.125 632.292 510.417 641.042 528.542 647.5L409.792 715ZM835.833 485.208C793.125 546.042 734.375 590 670.208 608.958C607.708 627.292 547.708 619.375 501.042 586.875C403.542 518.542 395 361.875 481.875 237.5C524.583 176.667 583.333 132.708 647.5 113.75C669.583 107.292 691.458 103.958 712.5 103.958C750.833 103.958 786.667 114.792 816.667 135.833C863.125 168.333 891.042 222.083 895.208 287.292C899.583 353.958 878.333 424.375 835.833 485.208ZM276.458 547.5C302.917 509.792 293.75 457.917 256.042 431.458C241.458 421.25 224.792 416.458 208.333 416.458C182.083 416.458 156.25 428.75 140 452.083C113.542 489.792 122.708 541.667 160.417 568.125C175 578.334 191.667 583.125 208.125 583.125C234.375 582.917 260.208 570.625 276.458 547.5ZM242.292 523.542C234.583 534.584 221.667 541.25 208.125 541.25C199.583 541.25 191.25 538.542 184.375 533.75C165.625 520.625 161.042 494.583 174.167 475.625C181.875 464.583 194.792 457.917 208.333 457.917C216.875 457.917 225.208 460.625 232.083 465.417C250.833 478.75 255.417 504.792 242.292 523.542Z" fill="black"/>
</svg>
