<svg width="1000" height="1000" viewBox="0 0 1000 1000" fill="none" xmlns="http://www.w3.org/2000/svg">
<path d="M782.912 128.751C773.537 122.084 760.412 124.376 753.954 133.959L519.995 468.125L373.12 537.5C373.12 537.5 373.12 537.5 372.912 537.5C372.495 537.709 372.079 537.917 371.662 538.125C371.454 538.125 371.454 538.334 371.245 538.334L195.412 644.167C190.62 647.084 187.079 651.875 185.829 657.5C184.579 663.125 185.62 668.75 188.745 673.542L287.495 823.125C287.704 823.334 287.704 823.542 287.912 823.75C288.12 823.959 288.12 824.167 288.329 824.167L288.537 824.375C288.537 824.584 288.745 824.584 288.745 824.792C288.954 825 289.162 825.417 289.37 825.625C289.579 825.834 289.579 825.834 289.787 826.042L289.995 826.25C289.995 826.25 289.995 826.25 290.204 826.459C290.412 826.667 290.62 826.875 291.037 827.084C291.245 827.292 291.454 827.5 291.662 827.709C291.662 827.709 291.87 827.709 291.87 827.917C291.87 827.917 292.079 827.917 292.079 828.125C292.287 828.334 292.495 828.334 292.495 828.542C292.704 828.75 292.912 828.959 293.329 829.167C293.537 829.167 293.537 829.375 293.745 829.375C293.954 829.584 294.162 829.584 294.37 829.792C294.579 830 294.787 830 294.995 830.209C295.204 830.417 295.412 830.417 295.62 830.625C295.829 830.625 296.037 830.834 296.245 830.834C296.454 830.834 296.662 831.042 296.662 831.042C297.079 831.25 297.287 831.25 297.704 831.459C297.912 831.459 298.12 831.667 298.12 831.667C298.329 831.667 298.329 831.667 298.537 831.875C298.954 832.084 299.37 832.084 299.787 832.292C299.995 832.292 300.204 832.5 300.412 832.5H300.62L474.787 874.167C476.454 874.584 477.912 874.792 479.579 874.792C483.537 874.792 487.495 873.75 490.829 871.459C495.62 868.334 498.954 863.542 499.995 857.917L539.37 656.459C539.37 656.25 539.37 656.042 539.37 655.834C539.37 655.417 539.579 655 539.579 654.584V654.375L554.37 492.709L788.12 157.917C794.787 148.334 792.495 135.417 782.912 128.751ZM482.912 726.042L359.579 770L403.537 707.292L491.662 681.459L482.912 726.042ZM363.329 591.667L369.162 683.334L325.412 745.834L324.787 614.792L363.329 591.667ZM403.745 568.959L471.87 536.876L407.495 628.75L403.745 568.959ZM283.329 639.792L283.745 741.667L235.412 668.542L283.329 639.792ZM378.12 807.5L473.537 773.542L462.912 827.917L378.12 807.5ZM499.162 635.834L441.662 652.709L506.037 560.834L499.162 635.834ZM839.37 860C801.662 886.459 749.787 877.292 723.329 839.584C696.87 801.875 706.037 750 743.745 723.542C781.454 697.084 833.329 706.25 859.787 743.959C886.245 781.667 877.079 833.542 839.37 860Z" fill="black"/>
</svg>
