<svg width="1000" height="1000" viewBox="0 0 1000 1000" fill="none" xmlns="http://www.w3.org/2000/svg">
<path d="M243.953 577.709L220.62 569.793L262.703 509.793L278.12 528.959C291.245 553.126 271.245 581.876 243.953 577.709ZM194.786 425.209L164.37 432.293L168.328 463.126L139.37 468.126L144.578 497.084L114.37 503.959L118.12 534.793L199.995 562.709L248.953 492.709L194.786 425.209ZM854.786 418.751C804.786 490.001 740.828 553.126 679.161 591.876C652.495 608.543 626.87 620.418 602.286 627.501L384.786 782.293C385.828 789.793 384.161 797.918 379.578 804.584L295.828 924.376C285.828 938.543 266.453 941.876 252.286 932.084L235.203 920.209C221.036 910.209 217.703 890.834 227.495 876.667L311.245 757.293C317.911 747.709 329.161 743.126 339.995 744.168L409.37 496.668C406.87 470.209 408.953 440.834 415.62 408.334C430.203 337.918 467.703 254.584 515.828 185.834C566.661 113.126 609.995 76.2509 656.453 65.8342C701.453 55.8342 749.161 70.6259 811.245 114.168C874.161 158.126 905.828 198.126 914.161 243.334C923.536 291.876 904.578 347.709 854.786 418.751ZM387.286 729.584L523.328 632.709C504.578 628.959 486.87 621.668 470.62 610.209C454.786 599.168 441.87 585.417 432.078 569.376L387.286 729.584ZM873.536 250.626C867.286 216.876 840.828 185.418 787.703 148.126C744.995 118.126 712.703 104.376 684.37 104.376C678.12 104.376 671.87 105.001 665.828 106.459C630.828 114.376 593.953 147.084 550.203 209.793C494.578 289.376 443.536 406.251 450.828 491.251C451.453 493.543 451.87 496.043 451.661 498.543C455.828 531.043 469.161 558.126 494.786 576.043C546.245 612.084 611.453 585.418 657.078 556.668C713.328 521.251 774.578 460.834 820.828 394.793C863.536 333.543 880.411 287.709 873.536 250.626Z" fill="black"/>
</svg>
