<svg width="1000" height="1000" viewBox="0 0 1000 1000" fill="none" xmlns="http://www.w3.org/2000/svg">
<path d="M645.832 950.833C645.207 950.833 644.582 950.833 643.957 950.833C621.04 949.792 603.124 930.417 604.165 907.292L611.04 754.167L532.707 675C516.457 658.542 516.665 632.292 533.124 616.042C549.582 599.792 575.832 600 592.082 616.458L683.124 708.542C691.249 716.875 695.624 728.125 695.207 739.792L687.499 911.25C686.457 933.333 667.915 950.833 645.832 950.833ZM393.957 927.083L478.332 658.125C485.207 636.25 472.915 612.708 451.04 605.833C429.165 598.958 405.624 611.25 398.749 633.125L314.374 902.083C307.499 923.958 319.79 947.5 341.665 954.375C345.832 955.625 349.999 956.25 354.165 956.25C371.874 956.25 388.332 944.792 393.957 927.083ZM547.707 34.5834C508.332 7.08341 459.165 15.6251 431.665 55.0001C404.165 94.3751 413.124 143.75 452.499 171.25C491.874 198.75 540.624 190 568.124 150.625C595.624 111.25 587.082 62.0834 547.707 34.5834ZM802.915 77.9167C788.124 60.2084 761.874 57.9167 744.166 72.7084L556.665 229.167H440.207L249.374 95.4167C230.624 82.2917 204.582 86.8751 191.249 105.625C178.124 124.375 182.707 150.417 201.457 163.75L395.832 300V520.833C395.832 543.75 414.582 562.5 437.499 562.5H562.499C585.415 562.5 604.165 543.75 604.165 520.833V297.917L797.499 136.667C815.207 121.875 817.499 95.6251 802.915 77.9167Z" fill="black"/>
</svg>
