<svg width="1000" height="1000" viewBox="0 0 1000 1000" fill="none" xmlns="http://www.w3.org/2000/svg">
<path d="M298.544 530.209C279.169 554.167 244.586 560.417 218.128 544.792C197.294 532.292 186.461 510.209 187.503 487.917H60.6277C57.5027 487.917 55.0027 485.417 55.0027 482.292V466.875C55.0027 455.209 64.3777 445.834 76.0444 445.834H149.169L89.3777 404.167C79.586 397.292 77.5027 383.334 85.0027 373.75C92.086 365 104.794 363.75 113.961 370.209L173.128 411.667L148.128 342.917C144.169 332.084 149.794 320 160.628 316.042L175.003 310.834C177.919 309.792 181.044 311.25 182.086 314.167L225.419 433.334C244.586 425.417 267.294 427.084 285.419 439.792C315.211 460.417 321.461 501.875 298.544 530.209ZM844.378 99.5837C726.669 17.292 543.128 76.4587 434.169 232.084C339.794 366.875 332.503 529.792 408.961 624.375C413.544 630.209 413.961 638.334 409.586 644.375L242.294 883.334C237.086 890.834 238.753 901.25 246.461 906.459L287.503 935.209C295.003 940.417 305.419 938.75 310.628 931.042L477.294 692.917C481.669 686.667 489.586 684.167 496.669 686.875C612.086 728.959 765.003 666.459 860.419 530.209C969.169 374.792 962.086 182.084 844.378 99.5837Z" fill="black"/>
</svg>
