<svg width="1000" height="1000" viewBox="0 0 1000 1000" fill="none" xmlns="http://www.w3.org/2000/svg">
<path fill-rule="evenodd" clip-rule="evenodd" d="M936.875 371.875C932.5 302.5 902.083 244.792 851.042 209.167C800.208 173.542 735.417 164.583 668.75 184.167C603.75 203.125 544.583 247.292 501.875 308.125C459.375 368.958 438.125 439.583 442.5 507.292C443.958 528.75 447.708 548.958 453.958 567.917L448.125 744.375C436.458 742.083 423.75 746.667 416.458 757.083L332.708 876.458C322.708 890.625 326.25 910 340.417 920L357.5 931.875C371.667 941.875 391.042 938.333 401.042 924.167L484.792 804.792C492.083 794.375 492.083 781.042 486.042 770.833L649.792 705C669.583 704.375 690 701.042 710.625 695C775.625 676.042 834.792 631.875 877.5 571.042C920.208 510 941.25 439.375 936.875 371.875ZM493.542 638.333C503.75 650.208 515.417 660.833 528.542 670C541.667 679.167 555.625 686.458 570.208 692.083L490.625 724.167L493.542 638.333ZM843.542 547.083C792.5 620 716.458 661.875 646.458 663.333C646.042 663.333 645.833 663.333 645.417 663.333C611.875 663.75 579.792 655 552.5 635.833C525.208 616.667 506.042 589.583 495 557.917C494.792 557.5 494.792 557.083 494.583 556.875C471.875 490.625 485.208 405 536.458 332.083C588.333 257.917 666.042 215.833 737.083 215.833C769.583 215.833 800.833 224.583 827.5 243.333C867.708 271.458 891.875 318.125 895.625 374.583C899.167 432.708 880.625 493.958 843.542 547.083ZM687.5 79.1667V136.875C677.5 138.75 667.292 141.042 657.292 144.167C583.333 165.833 516.042 215.625 468.125 284.167C426.458 343.75 403.125 411.875 400.833 479.167H331.667C321.667 420.208 270.208 375 208.333 375C146.458 375 95 420.208 85 479.167H79.1667C70 479.167 62.5 471.667 62.5 462.5V79.1667C62.5 70 70 62.5 79.1667 62.5H670.833C680 62.5 687.5 70 687.5 79.1667ZM256.042 431.667C218.333 405.208 166.458 414.375 140 452.083C113.542 489.792 122.708 541.667 160.417 568.125C198.125 594.583 250 585.417 276.458 547.708C302.917 510 293.75 458.125 256.042 431.667ZM191.042 488.125C180.208 503.542 165.625 514.792 149.167 521.25C146.667 514.583 145.417 507.292 145.417 500.208C156.458 495 166.25 486.875 173.75 476.25C181.25 465.625 185.417 453.542 186.667 441.458C193.333 438.958 200.625 437.708 207.708 437.708C207.292 455 201.875 472.708 191.042 488.125ZM242.292 523.958C234.792 534.583 230.625 546.667 229.375 558.958C222.708 561.458 215.417 562.708 208.333 562.708C208.958 545.208 214.375 527.5 225.208 512.083C236.042 496.667 250.625 485.417 266.875 478.958C269.375 485.625 270.625 492.917 270.625 500C259.583 505.208 249.792 513.125 242.292 523.958Z" fill="black"/>
</svg>
