<svg width="1000" height="1000" viewBox="0 0 1000 1000" fill="none" xmlns="http://www.w3.org/2000/svg">
<path fill-rule="evenodd" clip-rule="evenodd" d="M382.706 322.5C382.706 357.5 354.164 386.042 319.164 386.042C284.164 386.042 255.622 357.5 255.622 322.5C255.622 287.5 284.164 258.958 319.164 258.958C354.164 258.958 382.706 287.5 382.706 322.5ZM419.789 650.833C401.039 637.708 374.997 642.292 361.664 661.042L281.664 775.417L94.9972 873.542C72.4972 878.75 58.5389 901.042 63.7472 923.542C68.1222 942.917 85.4139 955.833 104.372 955.833C107.497 955.833 110.622 955.417 113.747 954.792L316.039 853.125C327.706 846.458 334.997 844.792 340.831 836.458L429.997 708.958C443.122 690.208 438.539 664.167 419.789 650.833ZM872.706 125H710.831C719.372 87.9167 751.039 62.5 791.872 62.5C832.706 62.5 864.164 87.9167 872.706 125ZM687.497 670.833L688.331 914.375C688.331 937.292 669.581 956.042 646.664 956.042C623.747 956.042 604.997 937.292 604.997 914.375L604.164 698.125L406.456 611.667C385.414 602.5 375.831 577.917 384.997 556.875C394.164 535.833 418.747 526.25 439.789 535.417L662.497 632.708C677.706 639.375 687.497 654.375 687.497 670.833ZM872.914 166.667C864.372 203.75 833.122 229.167 792.289 229.167C751.456 229.167 719.581 203.75 710.831 166.667H872.914ZM828.122 557.708C830.622 580.625 814.372 601.25 791.456 603.75C789.789 603.958 788.331 603.958 786.664 603.958C765.831 603.958 747.706 588.333 745.414 567.083L729.372 426.458L646.872 544.583C638.956 556.042 626.039 562.292 612.706 562.292C607.289 562.292 601.664 561.25 596.456 558.958L478.747 509.167C467.081 504.167 458.331 494.375 454.997 482.292C451.456 470.208 453.747 457.292 460.831 446.875L579.372 277.917L519.789 251.25L408.747 294.167C398.956 262.917 373.122 238.75 340.831 231.042L505.831 167.083C516.247 163.125 527.706 163.333 537.914 167.917L775.414 274.375C775.414 274.375 775.622 274.375 775.622 274.583C787.706 280 796.872 292.083 799.372 305C799.372 305.208 799.372 305.625 799.581 305.833C799.581 306.25 799.581 306.458 799.789 306.875C799.789 307.292 799.997 307.5 799.997 307.917L828.122 557.708Z" fill="black"/>
</svg>
