<svg width="1000" height="1000" viewBox="0 0 1000 1000" fill="none" xmlns="http://www.w3.org/2000/svg">
<path fill-rule="evenodd" clip-rule="evenodd" d="M936.875 287.292C932.5 217.917 902.083 160.208 851.042 124.583C800.208 88.9583 735.417 80 668.75 99.5833C603.75 118.542 544.583 162.708 501.875 223.542C459.375 284.375 438.125 355 442.5 422.708C443.958 444.167 447.708 464.375 453.958 483.333L448.125 659.792C436.458 657.5 423.75 662.083 416.458 672.5L332.708 791.875C322.708 806.042 326.25 825.417 340.417 835.417L357.5 847.292C371.667 857.292 391.042 853.75 401.042 839.583L484.792 720.208C492.083 709.792 492.083 696.458 486.042 686.25L649.792 620.417C669.583 619.792 690 616.458 710.625 610.417C775.625 591.458 834.792 547.292 877.5 486.458C920.208 425.625 941.25 355 936.875 287.292ZM493.542 553.75C503.75 565.625 515.417 576.25 528.542 585.417C541.667 594.583 555.625 601.875 570.208 607.5L490.625 639.583L493.542 553.75ZM843.542 462.708C792.5 535.625 716.458 577.5 646.458 578.958C646.042 578.958 645.833 578.958 645.417 578.958C611.875 579.375 579.792 570.625 552.5 551.458C525.208 532.292 506.042 505.208 495 473.542C494.792 473.125 494.792 472.708 494.583 472.5C471.875 406.25 485.208 320.625 536.458 247.708C588.333 173.333 665.833 131.25 736.875 131.25C769.375 131.25 800.625 140 827.292 158.75C867.5 186.875 891.667 233.542 895.417 290C899.167 348.125 880.625 409.583 843.542 462.708ZM916.667 937.5H83.3333C71.875 937.5 62.5 928.125 62.5 916.667C62.5 905.208 71.875 895.833 83.3333 895.833H916.667C928.125 895.833 937.5 905.208 937.5 916.667C937.5 928.125 928.125 937.5 916.667 937.5ZM648.333 62.5C577.917 85.4167 513.958 133.958 467.917 199.792C420 268.333 396.25 348.542 401.042 425.417C402.292 443.958 405 461.875 409.375 479.167H331.25C321.25 420.208 269.792 375 207.917 375C146.042 375 94.5833 420.208 84.5833 479.167H79.1667C70 479.167 62.5 471.667 62.5 462.5V79.1667C62.5 70 70 62.5 79.1667 62.5H648.333ZM208.333 583.333C162.292 583.333 125 546.042 125 500C125 453.958 162.292 416.667 208.333 416.667C254.375 416.667 291.667 453.958 291.667 500C291.667 546.042 254.375 583.333 208.333 583.333Z" fill="black"/>
</svg>
