<svg width="1000" height="1000" viewBox="0 0 1000 1000" fill="none" xmlns="http://www.w3.org/2000/svg">
<path fill-rule="evenodd" clip-rule="evenodd" d="M167.083 755.414C171.25 732.498 190.208 726.664 210 721.873C281.042 704.789 355 688.123 412.292 639.998C475.208 586.873 728.958 217.706 789.167 133.331C796.667 122.706 812.708 124.789 823.542 126.873C840.417 130.206 855 138.748 866.25 151.664C871.458 157.706 878.958 169.373 873.75 177.498C868.75 185.206 856.875 183.748 849.167 182.914C829.375 180.623 806.25 181.873 793.958 199.373L507.083 608.956C481.875 644.789 466.458 684.998 456.042 727.498C448.958 756.039 444.167 785.206 431.667 812.081C377.917 928.956 146.667 866.873 167.083 755.414ZM291.667 499.998C291.667 453.956 254.375 416.664 208.333 416.664C162.292 416.664 125 453.956 125 499.998C125 546.039 162.292 583.331 208.333 583.331C254.375 583.331 291.667 546.039 291.667 499.998Z" fill="black"/>
</svg>
