<svg width="1000" height="1000" viewBox="0 0 1000 1000" fill="none" xmlns="http://www.w3.org/2000/svg">
<path d="M883.54 211.876L918.749 239.793C926.249 245.626 927.29 256.668 920.832 263.959C884.165 305.418 773.749 434.168 769.999 483.751C766.249 531.251 816.249 556.043 810.207 607.084C804.374 655.626 765.624 696.668 729.165 724.584C643.749 789.793 520.207 836.459 412.499 834.376C292.499 832.084 172.707 777.709 81.0403 702.293C66.2486 690.209 80.2069 666.668 97.9152 673.959C114.374 680.626 169.582 703.334 186.665 708.543C298.54 742.501 383.54 724.793 486.04 664.168C575.832 610.834 640.207 525.209 700.624 442.084C754.999 367.501 806.665 291.043 859.582 215.418C864.999 207.501 876.04 206.043 883.54 211.876ZM291.665 500.001C291.665 453.959 254.374 416.668 208.332 416.668C162.29 416.668 124.999 453.959 124.999 500.001C124.999 546.043 162.29 583.334 208.332 583.334C254.374 583.334 291.665 546.043 291.665 500.001Z" fill="black"/>
</svg>
