<svg width="1000" height="1000" viewBox="0 0 1000 1000" fill="none" xmlns="http://www.w3.org/2000/svg">
<path fill-rule="evenodd" clip-rule="evenodd" d="M105.205 691.043C147.913 691.46 219.371 681.252 284.996 620.418C291.663 614.168 302.08 614.377 308.538 621.044C334.788 648.335 366.038 670.21 400.83 684.585C411.871 689.168 414.788 703.335 406.246 711.877C394.371 723.543 377.496 738.543 354.996 753.96C397.705 777.918 447.08 791.668 499.996 791.668C552.913 791.668 602.288 777.71 644.996 753.96C622.496 738.543 605.621 723.752 593.746 711.877C585.205 703.543 588.121 689.168 599.163 684.585C633.746 670.21 665.205 648.335 691.455 621.044C697.705 614.377 708.121 614.168 714.996 620.418C780.621 681.252 852.08 691.668 894.788 691.043C909.58 690.835 917.913 707.502 908.955 718.752L832.288 817.085C828.121 822.502 820.621 825.21 813.538 823.752C778.955 816.46 748.746 806.46 722.288 795.418C669.163 856.877 589.371 895.835 499.996 895.835C410.621 895.835 330.83 856.877 277.705 795.627C251.246 806.668 220.83 816.668 186.455 823.96C179.58 825.418 172.08 822.71 167.705 817.293L91.0379 718.96C82.0796 707.502 90.4129 691.043 105.205 691.043ZM750.621 374.585C750.621 381.252 750.413 387.919 749.996 394.585V396.044C748.955 410.21 746.871 424.169 743.955 437.71C740.83 452.085 736.663 466.044 731.455 479.377C725.83 493.96 718.955 507.919 711.246 521.044C702.288 536.044 692.08 550.002 680.83 562.71C669.371 575.419 656.871 587.085 643.538 597.085C602.705 627.71 553.33 645.835 499.996 645.835C429.163 645.835 365.205 613.96 319.58 562.502C308.33 549.794 298.121 535.835 289.371 520.835C281.663 507.71 274.788 493.752 269.163 479.169C263.955 465.835 259.788 451.877 256.663 437.502C253.746 423.96 251.663 410.002 250.621 395.835C250.205 388.96 249.788 381.877 249.788 374.794C249.788 374.794 249.788 374.794 249.788 374.585C249.788 374.585 249.788 374.585 249.788 374.377C249.788 367.502 249.996 360.835 250.413 353.96C251.455 339.794 253.33 325.835 256.246 312.294C259.371 297.919 263.538 283.96 268.746 270.627C274.371 256.044 281.038 242.085 288.746 228.96C290.621 225.835 292.288 222.919 294.371 220.002C301.871 208.335 309.996 197.502 318.955 187.294C364.371 135.627 428.538 103.544 499.788 103.544H499.996H500.205C571.455 103.544 635.621 135.627 681.246 187.294C692.496 200.002 702.705 213.96 711.455 228.96C719.163 242.085 725.83 256.044 731.455 270.627C736.663 283.96 740.83 297.919 743.955 312.294C746.871 325.835 748.955 339.794 749.788 353.96V354.377C750.413 361.252 750.621 367.919 750.621 374.585ZM708.121 395.835H520.83V437.502H701.038C704.58 424.169 706.871 410.21 708.121 395.835ZM686.038 479.169H520.83V520.835H660.83C670.621 508.127 678.955 494.169 686.038 479.169ZM479.163 602.502V562.502H381.038C409.371 584.377 442.913 598.544 479.163 602.502ZM339.788 520.835H479.163V479.169H314.788C321.663 494.169 330.205 508.127 339.788 520.835ZM299.58 437.502H479.163V395.835H292.496C293.746 410.21 296.246 424.169 299.58 437.502ZM292.496 354.169H479.163V312.502H299.371C296.038 325.835 293.746 339.794 292.496 354.169ZM314.371 270.835H479.163V229.169H339.163C329.58 241.877 321.246 255.835 314.371 270.835ZM661.455 229.169H520.83V270.835H686.455C679.58 255.835 671.038 241.877 661.455 229.169ZM620.83 187.502C592.08 165.002 557.913 150.419 520.83 146.46V187.502H620.83ZM479.163 146.46C442.496 150.627 408.538 165.002 379.788 187.502H479.163V146.46ZM520.83 602.502C557.288 598.544 591.038 584.377 619.58 562.502H520.83V602.502ZM708.121 354.169C706.871 339.794 704.58 325.835 701.246 312.502H520.83V354.169H708.121Z" fill="black"/>
</svg>
