<svg width="1000" height="1000" viewBox="0 0 1000 1000" fill="none" xmlns="http://www.w3.org/2000/svg">
<path fill-rule="evenodd" clip-rule="evenodd" d="M214.789 579.998C187.289 619.373 138.539 628.331 99.1638 600.623C59.7888 572.915 50.6221 523.748 78.3305 484.373C106.039 444.998 154.997 436.248 194.372 463.956C233.747 491.665 242.497 540.623 214.789 579.998ZM600.622 901.04L662.497 812.706L904.164 770.206C926.872 766.248 941.872 744.581 937.914 721.873C933.956 699.165 912.289 684.165 889.581 688.123L631.039 733.748C620.206 735.623 610.414 741.873 604.164 750.831L532.497 853.123C519.372 871.873 523.955 897.915 542.706 911.248C549.997 916.248 558.331 918.748 566.664 918.748C579.581 918.748 592.497 912.498 600.622 901.04ZM698.331 955.831L816.039 935.415C838.747 931.456 853.956 909.998 849.997 887.29C846.039 864.581 824.581 849.373 801.872 853.331L684.164 873.748C661.456 877.706 646.247 899.165 650.206 921.873C653.747 942.081 671.247 956.456 691.247 956.456C693.331 956.456 695.831 956.248 698.331 955.831ZM679.372 29.3732C523.956 29.3732 398.122 155.207 398.122 310.623C398.122 373.54 418.747 431.456 453.539 478.331L546.664 439.998C556.872 435.831 567.497 433.748 578.331 433.748C612.289 433.748 642.497 453.956 655.414 485.415C663.956 506.04 663.956 528.748 655.206 549.165C648.747 564.581 638.122 577.498 624.372 586.665C642.081 590.206 660.414 592.081 679.164 592.081C834.581 592.081 960.414 466.248 960.414 310.831C960.622 155.206 834.581 29.3732 679.372 29.3732ZM616.872 501.04C608.122 479.79 583.747 469.581 562.497 478.331L389.58 549.581L389.164 549.373L420.83 504.165C420.622 503.748 420.414 503.54 419.997 503.123C401.456 478.123 386.664 451.04 376.247 422.498L296.872 535.831L225.205 638.123C218.955 647.081 216.455 658.331 218.33 669.165C220.205 679.998 226.455 689.79 235.414 696.04L440.205 839.373C447.289 844.373 455.622 846.873 464.164 846.873C466.664 846.873 468.956 846.665 471.456 846.248C482.289 844.373 492.08 838.123 498.33 829.165L569.997 726.873C576.247 717.915 578.747 706.665 576.872 695.831C574.997 684.998 568.747 675.206 559.789 668.956L470.622 606.456L594.372 555.415C615.414 546.665 625.622 522.29 616.872 501.04Z" fill="black"/>
</svg>
