<svg width="1000" height="1000" viewBox="0 0 1000 1000" fill="none" xmlns="http://www.w3.org/2000/svg">
<path fill-rule="evenodd" clip-rule="evenodd" d="M817.083 524.581L910.625 600.831C914.583 603.956 916.667 608.748 916.667 613.748V837.498C916.667 846.664 909.167 854.164 900 854.164H875V941.664C875 950.831 867.5 958.331 858.333 958.331H808.333C799.167 958.331 791.667 950.831 791.667 941.664V854.164H769.583C761.042 854.164 754.375 848.956 751.667 841.039C749.167 833.331 745.208 826.248 740.208 819.789C726.25 801.664 704.375 791.664 681.458 791.664L99.9999 790.831C90.8333 790.831 83.3333 783.331 83.3333 774.164V537.498C83.3333 528.331 90.8333 520.831 99.9999 520.831H806.458C810.208 520.831 813.958 522.081 817.083 524.581ZM245 479.164L263.333 432.289C265.833 426.039 263.958 418.748 258.75 414.581L173.542 344.789C178.958 296.664 197.5 252.498 225.208 215.623L298.125 214.998C303.958 214.998 309.375 211.664 312.083 206.248L353.125 123.123C379.583 114.164 407.917 109.373 437.5 109.373C467.083 109.373 495.417 114.164 521.875 123.123L562.917 206.248C565.417 211.456 570.833 214.998 576.875 214.998L649.792 215.623C677.5 252.498 695.833 296.664 701.458 344.789L616.25 414.581C611.042 418.956 609.167 426.039 611.667 432.289L630 479.164H732.292C743.75 446.664 750 411.664 750 375.206C750 202.706 610 62.7061 437.5 62.7061C265 62.7061 125 202.706 125 375.206C125 411.664 131.25 446.664 142.708 479.164H245ZM427.292 472.498C433.333 476.873 441.667 476.873 447.708 472.498L535.208 408.956C541.25 404.581 543.75 396.664 541.458 389.581L508.125 286.664C505.833 279.581 499.167 274.789 491.667 274.789H383.333C375.833 274.789 369.167 279.581 366.875 286.664L333.542 389.581C331.25 396.664 333.75 404.581 339.792 408.956L427.292 472.498Z" fill="black"/>
</svg>
