<svg width="1000" height="1000" viewBox="0 0 1000 1000" fill="none" xmlns="http://www.w3.org/2000/svg">
<path fill-rule="evenodd" clip-rule="evenodd" d="M491.25 763.334C465.833 767.709 439.792 777.292 414.583 791.875C410.208 794.375 407.292 798.959 406.875 803.959C406.042 812.709 403.542 821.25 398.125 828.959L339.375 912.709C321.25 938.542 284.375 944.584 257.708 925.834C231.042 907.084 223.958 870.625 242.292 844.584L301.042 760.834C306.458 753.334 313.542 747.917 321.458 744.167C326.042 741.875 329.583 737.709 330.417 732.5C335.208 706.25 335.625 680.625 332.083 657.084C330.833 649.167 339.792 643.959 346.25 648.334L493.75 752.084C498.333 755.209 496.667 762.292 491.25 763.334ZM824.792 117.292C676.042 12.9171 462.083 61.2504 347.292 225C283.125 316.667 263.75 424.792 285 520.834C286.667 528.125 290.833 534.375 297.083 538.75L609.583 757.917C615 761.667 621.458 763.334 628.125 762.5C726.042 750 821.875 695 886.458 602.917C1001.04 439.167 973.542 221.667 824.792 117.292ZM229.167 500C229.167 453.959 191.875 416.667 145.833 416.667C99.7917 416.667 62.5 453.959 62.5 500C62.5 546.042 99.7917 583.334 145.833 583.334C191.875 583.334 229.167 546.042 229.167 500Z" fill="black"/>
</svg>
