<svg width="1000" height="1000" viewBox="0 0 1000 1000" fill="none" xmlns="http://www.w3.org/2000/svg">
<path fill-rule="evenodd" clip-rule="evenodd" d="M236.465 181.665C198.756 155.207 146.881 164.373 120.423 202.082C93.9646 239.79 103.131 291.665 140.84 318.123C178.548 344.582 230.423 335.415 256.881 297.707C283.34 259.998 274.173 208.123 236.465 181.665ZM171.673 238.123C160.84 253.54 146.256 264.79 129.798 271.248C127.298 264.582 126.048 257.29 126.048 250.207C137.09 244.998 146.881 236.873 154.381 226.248C161.881 215.623 166.048 203.54 167.298 191.457C174.173 188.748 181.256 187.498 188.548 187.498C187.923 204.998 182.506 222.707 171.673 238.123ZM222.715 273.957C215.215 284.582 211.048 296.665 209.798 308.957C203.131 311.457 195.84 312.707 188.756 312.707C189.381 295.207 194.798 277.498 205.631 262.082C216.465 246.665 231.048 235.415 247.298 228.957C249.798 235.623 251.048 242.915 251.048 249.998C240.215 255.207 230.215 263.123 222.715 273.957ZM811.256 919.582L770.84 333.332C770.84 184.165 649.59 63.1232 500.006 63.1232C411.881 63.1232 333.34 105.207 283.965 170.415C301.881 192.082 312.715 219.79 312.715 249.998C312.715 305.415 276.673 352.29 226.673 368.748L188.756 919.582C188.131 929.165 195.631 937.498 205.423 937.498H794.798C804.381 937.498 811.881 929.373 811.256 919.582ZM270.84 812.498C247.923 812.498 229.173 793.748 229.173 770.832C229.173 747.915 247.923 729.165 270.84 729.165C293.756 729.165 312.506 747.915 312.506 770.832C312.506 793.748 293.756 812.498 270.84 812.498ZM291.673 541.665C269.381 541.665 251.256 524.165 250.006 502.082C250.006 501.457 249.798 500.623 249.798 499.998C249.798 477.082 268.548 458.332 291.465 458.332C314.381 458.332 333.131 477.082 333.131 499.998C333.34 522.915 314.798 541.665 291.673 541.665ZM666.673 499.998C666.673 477.082 685.423 458.332 708.34 458.332C731.256 458.332 750.006 477.082 750.006 499.998C750.006 522.915 731.256 541.665 708.34 541.665C685.423 541.665 666.673 522.915 666.673 499.998ZM729.173 812.498C706.256 812.498 687.506 793.748 687.506 770.832C687.506 747.915 706.256 729.165 729.173 729.165C752.09 729.165 770.84 747.915 770.84 770.832C770.84 793.748 752.09 812.498 729.173 812.498Z" fill="black"/>
</svg>
