<svg width="1000" height="1000" viewBox="0 0 1000 1000" fill="none" xmlns="http://www.w3.org/2000/svg">
<path d="M500 83.3334C269.792 83.3334 83.3333 269.792 83.3333 500C83.3333 730.208 269.792 916.667 500 916.667C730.208 916.667 916.667 730.208 916.667 500C916.667 269.792 730.208 83.3334 500 83.3334ZM249.583 249.583C313.958 185.208 398.958 148.542 489.583 146.042C447.083 147.292 406.25 156.042 368.75 171.042C290 250.417 243.542 358.542 243.542 474.583C243.542 491.458 244.792 508.125 246.667 524.583C239.583 523.75 232.5 522.292 225.625 521.042C223.958 520.625 222.5 520.417 220.833 520C219.167 519.583 217.292 519.375 215.625 518.958C212.708 518.542 209.792 517.917 207.083 517.292C198.125 515.208 189.375 512.5 180.417 509.583C176.458 508.333 172.292 507.083 168.333 505.625C160.833 502.917 153.333 500 145.833 496.875C146.667 403.542 183.333 315.833 249.583 249.583ZM494.375 145.833C493.333 145.833 492.083 145.833 491.042 145.833C492.083 145.833 493.333 145.833 494.375 145.833ZM750.417 750.417C683.542 817.292 594.583 854.167 500 854.167C405.417 854.167 316.458 817.292 249.583 750.417C192.083 692.917 156.875 619.375 148.125 539.792C148.958 547.5 150.208 555.208 151.458 562.917C153.333 563.542 155.208 564.167 157.083 564.792C158.542 565.208 160 565.625 161.25 566.25C163.125 566.875 164.792 567.5 166.667 568.125C169.792 569.167 172.917 570.208 176.042 571.042C176.875 571.25 177.5 571.458 178.333 571.667C178.75 571.875 179.375 571.875 179.792 572.083C181.042 572.5 182.5 572.708 183.75 572.917C184.583 573.125 185.625 573.333 186.458 573.542C193.75 575.417 201.042 577.083 208.333 578.542C209.375 578.75 210.417 578.958 211.458 579.375C213.125 579.792 214.792 580.208 216.458 580.417C216.875 580.417 217.083 580.625 217.5 580.625H217.917H218.333H218.542C220.208 580.833 221.875 581.042 223.333 581.25C224.583 581.458 225.833 581.458 226.875 581.667C236.25 583.125 245.417 584.375 255 585.208C255.417 585.208 256.042 585.208 256.458 585.417C256.875 585.417 257.5 585.625 257.917 585.625C268.542 586.458 279.167 587.083 290.208 587.292C290.417 587.292 290.833 587.292 291.042 587.292C291.458 587.292 291.667 587.292 292.083 587.292C334.375 587.292 376.25 580.208 416.458 567.917C416.667 567.917 416.667 567.917 416.875 567.917H417.292C417.708 567.917 418.333 567.708 418.75 567.5C420 567.083 421.25 566.667 422.292 566.25C422.917 566.042 423.75 565.625 424.375 565.417C436.875 561.25 449.375 556.875 461.458 551.667C462.292 551.25 463.125 551.042 463.958 550.625C465 550.208 466.042 550 466.875 549.583C468.75 548.75 470.833 547.708 472.708 546.667C474.375 545.833 475.833 545 477.5 544.167C480 542.917 482.5 541.875 485 540.833C489.375 538.958 493.75 537.083 497.708 534.792C503.958 538.542 510.208 542.5 516.042 546.667C517.5 547.708 518.958 548.542 520.417 549.583C523.958 551.875 527.5 554.375 530.833 556.875C535.625 560.625 540.208 564.583 544.792 568.75C546.458 570.208 548.333 571.875 550 573.333C576.042 596.458 598.958 622.5 617.708 651.875C617.917 652.292 618.125 652.5 618.333 652.708L618.542 653.125L618.75 653.333L618.958 653.542C605.417 664.167 591.25 674.375 575.833 683.125C456.042 752.292 308.958 749.167 192.917 677.292C215.625 716.25 245.417 750.417 280.417 778.125C388.333 806.458 505.208 792.708 605.625 734.792C620.417 726.25 634.167 716.875 647.5 707.083C650.417 713.958 652.708 721.042 655.208 728.125C655.625 729.375 656.042 730.625 656.458 731.875C656.875 733.333 657.5 734.792 658.125 736.25C659.167 739.167 660.208 742.083 661.042 745C663.75 753.958 665.833 762.917 667.708 771.875C668.542 776.042 669.583 780 670.417 784.167C671.875 792.083 673.125 800 673.958 807.917C693.333 796.875 711.458 784.167 728.333 770C727.917 768.125 727.5 766.458 727.083 764.583C726.667 763.125 726.458 761.458 726.042 760C725.625 758.125 725.417 756.458 725 754.583C724.375 751.25 723.75 747.917 722.917 744.792C722.5 743.542 722.292 742.292 721.875 741.042C721.667 739.792 721.25 738.75 720.833 737.5C720.417 736.458 720.208 735.417 719.792 734.375C717.708 727.083 715.417 720 713.125 712.917C712.708 711.667 712.292 710.417 712.083 709.375C711.667 707.917 711.25 706.667 710.833 705.208C710.625 704.792 710.625 704.583 710.417 704.167C710.208 703.75 710.208 703.542 710 703.125C709.375 701.667 708.75 700.208 708.125 698.75C707.708 697.5 707.083 696.458 706.667 695.208C703.333 686.458 699.792 677.708 695.625 669.167C695.417 668.75 695.208 668.333 695 667.917C694.792 667.292 694.583 666.875 694.375 666.25C689.792 656.667 685.208 647.083 679.792 637.708C679.583 637.5 679.583 637.292 679.375 636.875C679.167 636.458 678.958 636.042 678.75 635.833C657.5 599.167 630.625 566.667 600 537.708C599.792 537.5 599.375 537.083 599.167 536.875C598.958 536.667 598.542 536.25 598.333 536.042C597.292 535 596.042 533.958 594.792 532.917C594.375 532.5 593.958 532.292 593.542 531.875C583.75 523.125 573.75 514.583 563.125 506.667C562.292 506.042 561.667 505.417 561.042 504.792C560.208 504.167 559.375 503.542 558.542 502.917C556.667 501.667 554.792 500.417 552.917 499.375C551.458 498.542 549.792 497.5 548.333 496.458C546.042 494.792 543.75 493.333 541.458 491.667C537.708 488.958 533.958 486.25 530 483.75C530.208 476.458 530.417 469.167 531.042 461.875C531.25 459.792 531.25 457.917 531.458 455.833C531.667 451.875 532.083 447.708 532.5 443.75C533.333 437.083 534.792 430.625 536.042 424.167C536.458 422.5 536.667 420.625 537.083 418.958C543.958 385 555.208 352.083 571.25 321.25C571.458 320.833 571.667 320.417 571.875 320C572.083 319.792 572.083 319.375 572.292 319.167C588.333 325.625 604.167 332.917 619.583 341.667C739.375 410.833 810.208 539.792 806.042 676.25C828.125 638.125 843.125 595.625 849.583 550.417C820.208 442.708 749.792 348.125 649.375 290.208C634.792 281.667 619.583 274.375 604.375 267.917C608.75 262.292 613.333 256.875 617.917 251.458C618.958 250.208 620 248.958 621.25 247.708C622.5 246.25 623.75 244.792 624.792 243.542C626.667 241.458 628.542 239.167 630.417 237.083C636.875 230.417 643.542 224.167 650.417 217.917L651.667 216.667C654.375 214.167 657.083 211.667 659.792 209.375C665.833 204.167 672.083 199.167 678.542 194.375C659.583 183.125 639.583 173.75 618.542 166.25C617.292 167.5 615.833 168.75 614.583 169.792C613.333 170.833 612.083 172.083 610.833 173.125C609.375 174.375 607.917 175.833 606.458 177.083C603.958 179.167 601.667 181.25 599.375 183.542C598.542 184.375 597.5 185.417 596.667 186.25C595.625 187.083 594.792 188.125 593.958 189.167C593.333 190 592.5 190.625 591.875 191.458C586.667 196.875 581.667 202.292 576.667 207.917C575.833 208.75 575 209.792 574.167 210.625C573.125 211.667 572.083 212.708 571.042 213.958C570.833 214.167 570.625 214.375 570.417 214.792C570.208 215 570 215.417 569.792 215.625C568.75 216.875 567.708 218.125 566.875 219.375C566.042 220.417 565.417 221.458 564.583 222.292C558.75 229.583 552.917 237.083 547.5 244.792C547.292 245.208 546.875 245.625 546.667 245.833C546.25 246.25 546.042 246.667 545.625 247.292C539.583 256.042 533.75 265 528.125 274.167C527.917 274.583 527.708 274.792 527.5 275.208L527.292 275.417C527.292 275.625 527.083 275.625 527.083 275.833C505.833 312.5 491.25 352.083 481.667 393.125C481.667 393.542 481.458 393.75 481.458 394.167C481.25 394.583 481.25 394.792 481.25 395.208C481.042 396.458 480.625 397.917 480.417 399.167C480.208 399.792 480.208 400.625 480 401.25C477.292 414.167 475 427.083 473.333 440.208C473.125 441.042 473.125 441.875 472.917 442.917C472.708 443.958 472.5 445 472.5 446.042C472.292 448.333 472.292 450.417 472.083 452.708C472.083 454.375 472.083 456.25 471.875 457.917C471.667 460.833 471.25 463.542 471.042 466.458C470.625 471.042 470 475.625 470 480.208C463.542 483.75 457.083 487.083 450.625 490.208C448.75 491.042 446.875 492.083 445 492.917C441.458 494.583 437.708 496.458 434.167 497.917C428.125 500.417 422.083 502.5 415.833 504.375C413.958 505 412.083 505.625 410.208 506.25C377.292 517.292 343.125 523.958 308.542 525.417C308.125 525.417 307.708 525.417 307.5 525.417C307.083 525.417 306.667 525.417 306.458 525.417C303.958 508.333 302.292 491.042 302.292 473.125C302.292 334.792 378.542 208.958 498.958 144.375C499.167 144.375 499.167 144.375 499.375 144.375C593.958 144.375 682.917 181.25 749.792 248.125C816.667 315 854.167 405.417 854.167 500C854.167 594.583 817.292 683.542 750.417 750.417ZM145.833 508.333C145.833 509.583 145.833 510.833 146.042 511.875C146.042 510.833 146.042 509.583 145.833 508.333ZM146.25 516.667C146.25 518.333 146.458 520 146.458 521.458C146.458 519.792 146.25 518.333 146.25 516.667ZM146.667 524.792C146.875 526.667 146.875 528.75 147.083 530.625C147.083 528.542 146.875 526.667 146.667 524.792ZM147.292 532.5C147.5 534.792 147.708 537.083 147.917 539.583C147.708 537.083 147.5 534.792 147.292 532.5Z" fill="black"/>
</svg>
