<svg width="1000" height="1000" viewBox="0 0 1000 1000" fill="none" xmlns="http://www.w3.org/2000/svg">
<path d="M437.505 813.128L225.838 665.003C218.338 659.795 207.922 661.462 202.713 669.17L169.172 716.878C153.338 739.587 158.755 770.628 181.463 786.462L338.547 896.462C361.255 912.295 392.297 906.879 408.13 884.17L441.672 836.462C446.88 828.962 445.005 818.545 437.505 813.128Z" fill="black"/>
<path d="M774.171 311.876L547.712 153.126C547.296 152.918 547.087 152.71 546.671 152.501C495.837 117.085 431.254 114.376 387.712 145.001L338.754 179.376C310.004 199.585 271.879 206.251 233.129 198.126C188.962 188.751 146.879 203.335 124.796 235.626C45.629 350.835 91.254 520.21 226.879 615.21L235.629 621.251L235.837 621.46L277.087 577.501C278.754 575.626 280.212 573.543 280.837 571.043C281.462 568.96 281.462 566.668 281.046 564.585L240.421 334.168C238.962 325.835 244.379 318.126 252.712 316.668L390.837 292.293C399.171 290.835 406.879 296.251 408.337 304.585L416.462 351.043C418.546 362.71 432.712 367.71 441.462 359.585L475.837 328.543C493.129 312.918 518.962 311.46 537.921 324.793L723.546 454.793C745.004 469.793 751.254 498.96 737.712 521.46L637.921 688.543C635.837 691.876 632.712 694.376 628.962 695.418L498.129 731.876C493.754 733.126 490.212 736.668 488.754 741.043L474.379 787.71C540.421 825.626 628.337 843.335 697.087 829.376C755.421 817.501 806.879 786.668 841.046 737.918L874.171 690.418C954.379 576.043 909.587 406.668 774.171 311.876Z" fill="black"/>
<path d="M309.378 624.794C303.128 620.419 302.295 611.461 307.503 606.044C314.17 598.961 318.753 590.836 321.045 581.877C323.128 573.961 323.545 565.419 322.086 557.294L288.961 369.377C287.295 360.211 293.336 351.669 302.503 350.002L355.628 340.627C364.795 338.961 373.336 345.002 375.003 354.169L375.628 358.127C380.42 385.419 403.961 405.211 431.669 405.211C445.628 405.211 459.169 400.002 469.586 390.627L503.961 359.586C505.836 357.919 508.128 357.502 509.586 357.502C510.836 357.502 512.503 357.711 514.378 358.961L700.003 488.961C703.544 491.461 704.586 496.252 702.295 500.002L611.253 652.086C608.961 655.836 605.628 658.544 601.461 659.586L487.086 691.252C475.628 694.377 465.836 701.044 458.753 710.002C453.128 716.877 443.336 718.544 436.045 713.336L309.378 624.794Z" fill="black"/>
</svg>
