<svg width="1000" height="1000" viewBox="0 0 1000 1000" fill="none" xmlns="http://www.w3.org/2000/svg">
<path fill-rule="evenodd" clip-rule="evenodd" d="M622.921 327.917L690.004 376.667C694.587 380 701.046 380 705.629 376.667L772.712 327.917C777.296 324.583 779.379 318.542 777.504 313.125L752.087 234.167C750.212 228.75 745.212 225 739.379 225H656.462C650.629 225 645.629 228.75 643.754 234.167L618.129 313.125C616.462 318.542 618.337 324.583 622.921 327.917Z" fill="black"/>
<path d="M197.918 937.5C272.707 937.5 333.335 876.872 333.335 802.083C333.335 727.295 272.707 666.667 197.918 666.667C123.13 666.667 62.5016 727.295 62.5016 802.083C62.5016 876.872 123.13 937.5 197.918 937.5Z" fill="black"/>
<path fill-rule="evenodd" clip-rule="evenodd" d="M825.003 833.96H937.503V791.46H791.462C806.045 802.502 817.712 817.085 825.003 833.96Z" fill="black"/>
<path fill-rule="evenodd" clip-rule="evenodd" d="M374.588 791.46C374.796 795.002 375.004 798.543 375.004 802.085C375.004 812.918 373.963 823.752 372.088 833.96H633.338C640.629 817.085 652.296 802.293 666.88 791.46H374.588Z" fill="black"/>
<path fill-rule="evenodd" clip-rule="evenodd" d="M166.045 627.917C176.462 626.042 187.087 625 197.92 625C241.253 625 281.045 640.625 311.878 666.667H608.337C617.503 666.667 625.003 659.167 625.003 650V600C625.003 590.833 617.503 583.333 608.337 583.333H257.295L235.837 478.958H375.003C381.878 478.958 388.545 475.417 392.295 469.792L433.962 407.5C440.42 397.917 437.712 385 428.128 378.542C418.545 372.083 405.628 374.792 399.17 384.375L363.753 437.5H227.295L161.462 117.292C159.795 109.583 154.587 104.167 148.545 104.167H75.8366C67.0866 104.167 60.6283 115.417 62.9199 126.667L166.045 627.917Z" fill="black"/>
<path fill-rule="evenodd" clip-rule="evenodd" d="M920.838 708.333H348.129C356.254 721.25 362.713 735.417 367.296 750.417H937.504V725C937.504 715.833 930.004 708.333 920.838 708.333Z" fill="black"/>
<path fill-rule="evenodd" clip-rule="evenodd" d="M359.169 875.207C352.294 890.207 343.336 904.165 332.711 916.665H633.753C628.128 903.957 625.003 889.998 625.003 875.207H359.169Z" fill="black"/>
<path fill-rule="evenodd" clip-rule="evenodd" d="M824.588 916.665H920.838C930.005 916.665 937.505 909.165 937.505 899.998V875.207H833.338C833.338 889.998 830.213 903.957 824.588 916.665Z" fill="black"/>
<path d="M729.168 937.5C763.686 937.5 791.668 909.518 791.668 875C791.668 840.482 763.686 812.5 729.168 812.5C694.65 812.5 666.668 840.482 666.668 875C666.668 909.518 694.65 937.5 729.168 937.5Z" fill="black"/>
<path fill-rule="evenodd" clip-rule="evenodd" d="M697.918 541.667C830.21 541.667 937.502 434.375 937.502 302.083C937.502 169.792 830.21 62.5 697.918 62.5C565.627 62.5 458.335 169.792 458.335 302.083C458.335 434.375 565.627 541.667 697.918 541.667ZM535.21 179.792L591.252 179.375C595.835 179.375 599.793 176.667 601.877 172.708L633.335 108.958C653.752 102.083 675.418 98.3333 697.918 98.3333C720.418 98.3333 742.293 102.083 762.502 108.958L793.96 172.708C796.043 176.875 800.002 179.375 804.585 179.375L860.627 179.792C881.877 207.917 896.043 241.875 900.21 278.75L835.002 332.292C831.043 335.625 829.585 341.042 831.46 346.042L861.877 423.125C837.918 455.625 804.377 480.833 765.418 494.375L704.168 458.333C700.418 456.042 695.835 456.042 692.085 458.333L630.835 494.375C592.085 480.625 558.543 455.625 534.377 423.125L564.793 346.042C566.668 341.25 565.21 335.625 561.252 332.292L496.043 278.75C499.793 241.875 513.96 207.917 535.21 179.792Z" fill="black"/>
</svg>
