<svg width="1000" height="1000" viewBox="0 0 1000 1000" fill="none" xmlns="http://www.w3.org/2000/svg">
<path d="M418.75 163.129C452.917 186.879 495 179.379 518.75 145.212C542.709 111.254 535.209 68.7542 501.042 45.0042C466.875 21.2542 424.375 28.7542 400.625 62.7125C376.875 96.6708 384.792 139.379 418.75 163.129Z" fill="black"/>
<path d="M958.122 530.001C945.83 539.167 931.664 545.626 916.039 548.751C910.414 610.001 858.747 658.334 795.831 658.334C729.164 658.334 674.997 604.167 674.997 537.501C674.997 500.417 691.664 467.292 717.914 445.209L788.122 547.709C792.08 553.542 798.747 556.667 805.414 556.667C809.372 556.667 813.539 555.417 817.081 552.917C826.664 546.459 828.956 533.542 822.497 523.959L753.956 423.959C766.872 419.167 781.039 416.459 795.622 416.459H795.831C800.414 401.459 808.122 387.709 818.539 376.459C811.039 375.417 803.539 374.792 795.622 374.792C772.289 374.792 749.997 379.792 729.789 388.751L654.789 279.167C675.831 274.167 689.789 253.751 686.247 232.084C683.747 216.667 673.122 204.584 659.372 199.584L692.914 151.876C699.581 142.501 697.289 129.376 687.706 122.917C678.331 116.251 665.206 118.542 658.747 128.126L606.456 202.917L440.206 229.584L385.622 191.459C366.872 178.334 340.831 182.917 327.706 201.667L178.956 413.334C142.289 465.834 158.331 540.626 214.789 580.209C222.081 585.209 230.414 587.709 238.747 587.709C251.872 587.709 264.789 581.459 272.914 570.001L454.164 311.459L609.372 286.667L694.372 410.626C657.289 440.417 633.331 486.251 633.331 537.501C633.331 627.084 706.247 700.001 795.831 700.001C885.414 700.001 958.331 627.084 958.331 537.501C958.331 535.001 958.33 532.501 958.122 530.001Z" fill="black"/>
<path d="M204.792 631.044C115.209 631.044 42.2922 703.96 42.2922 793.544C42.2922 883.127 115.209 956.044 204.792 956.044C294.376 956.044 367.292 883.127 367.292 793.544C367.292 703.96 294.376 631.044 204.792 631.044ZM204.792 914.377C138.126 914.377 83.9589 860.21 83.9589 793.544C83.9589 726.877 138.126 672.71 204.792 672.71C271.459 672.71 325.626 726.877 325.626 793.544C325.626 860.21 271.459 914.377 204.792 914.377Z" fill="black"/>
<path d="M655.001 736.044L604.376 704.794L604.167 518.336C604.167 499.794 591.875 483.544 574.167 478.336L449.167 441.669C427.084 435.211 403.959 447.919 397.5 470.003C391.042 492.086 403.75 515.211 425.834 521.669L520.834 549.586V653.336L376.042 563.961C356.459 551.878 330.834 557.919 318.75 577.503C306.667 597.086 312.709 622.711 332.292 634.794L611.251 806.877C618.126 811.044 625.626 813.127 633.126 813.127C647.084 813.127 660.834 806.044 668.542 793.336C680.626 773.752 674.584 748.127 655.001 736.044Z" fill="black"/>
<path d="M895.831 508.962C930.348 508.962 958.331 480.98 958.331 446.462C958.331 411.944 930.348 383.962 895.831 383.962C861.313 383.962 833.331 411.944 833.331 446.462C833.331 480.98 861.313 508.962 895.831 508.962Z" fill="black"/>
</svg>
