<svg width="1000" height="1000" viewBox="0 0 1000 1000" fill="none" xmlns="http://www.w3.org/2000/svg">
<path fill-rule="evenodd" clip-rule="evenodd" d="M638.604 519.063C640.139 523.689 640.158 528.684 638.659 533.322C637.161 537.961 634.222 542 630.271 544.854L513.604 629.604C509.675 632.482 504.932 634.033 500.062 634.033C495.193 634.033 490.449 632.482 486.521 629.604L369.854 544.854C365.918 541.987 362.991 537.947 361.494 533.313C359.997 528.68 360.006 523.691 361.521 519.063L406.062 381.875C407.572 377.243 410.51 373.207 414.455 370.348C418.4 367.489 423.149 365.952 428.021 365.958H572.271C577.136 365.961 581.876 367.501 585.812 370.36C589.748 373.219 592.68 377.249 594.187 381.875L638.604 519.063ZM916.667 500C916.667 730.083 730.083 916.667 500 916.667C269.917 916.667 83.3333 730.083 83.3333 500C83.3333 269.917 269.875 83.3334 500 83.3334C730.125 83.3334 916.667 269.875 916.667 500ZM738.292 552.417L851.854 459.396C844.678 396.894 820.896 337.453 782.979 287.25L685.667 286.5C681.806 286.48 678.028 285.38 674.759 283.326C671.49 281.272 668.86 278.345 667.167 274.875L612.5 164.146C539.487 139.73 460.513 139.73 387.5 164.146L332.875 274.875C331.17 278.336 328.538 281.255 325.271 283.307C322.005 285.36 318.233 286.465 314.375 286.5L217.021 287.25C179.101 337.459 155.319 396.907 148.146 459.417L261.708 552.417C265.132 555.203 267.582 559.004 268.705 563.273C269.828 567.541 269.567 572.056 267.958 576.167L215.229 710.292C257.472 767.41 315.845 810.575 382.833 834.229L489.458 771.458C492.665 769.567 496.319 768.57 500.042 768.57C503.764 768.57 507.419 769.567 510.625 771.458L617.229 834.25C684.229 810.596 742.611 767.423 784.854 710.292L732.083 576.167C730.47 572.061 730.202 567.548 731.318 563.28C732.434 559.012 734.876 555.208 738.292 552.417V552.417Z" fill="black"/>
</svg>
