<svg width="1000" height="1000" viewBox="0 0 1000 1000" fill="none" xmlns="http://www.w3.org/2000/svg">
<path fill-rule="evenodd" clip-rule="evenodd" d="M936.878 371.874C932.503 302.499 902.087 244.79 851.045 209.165C800.212 173.54 735.42 164.582 668.753 184.165C603.753 203.124 544.587 247.29 501.878 308.124C459.378 368.957 438.128 439.582 442.503 507.29C443.962 528.749 447.712 548.957 453.962 567.915L448.128 744.374C436.462 742.082 423.753 746.665 416.462 757.082L332.712 876.457C322.712 890.624 326.253 909.999 340.42 919.999L357.503 931.874C371.67 941.874 391.045 938.332 401.045 924.165L484.795 804.79C492.087 794.374 492.087 781.04 486.045 770.832L649.795 704.999C669.587 704.374 690.003 701.04 710.628 694.999C775.628 676.04 834.795 631.874 877.503 571.04C920.212 509.999 941.253 439.374 936.878 371.874ZM490.628 723.957L493.545 638.332C503.753 650.207 515.42 660.832 528.545 669.999C541.67 679.165 555.628 686.457 570.212 692.082L490.628 723.957ZM843.545 547.082C792.503 619.999 716.462 661.874 646.462 663.332C646.045 663.332 645.837 663.332 645.42 663.332C611.878 663.749 579.795 654.999 552.503 635.832C525.212 616.665 506.045 589.582 495.003 557.915C494.795 557.499 494.795 557.082 494.587 556.874C471.878 490.624 485.212 404.999 536.462 332.082C588.337 257.915 666.045 215.832 737.087 215.832C769.587 215.832 800.837 224.582 827.503 243.332C867.712 271.457 891.878 318.124 895.628 374.582C899.17 432.707 880.628 493.957 843.545 547.082Z" fill="black"/>
<path fill-rule="evenodd" clip-rule="evenodd" d="M400.833 479.167C403.125 411.875 426.458 343.75 468.125 284.167C516.042 215.625 583.333 165.833 657.292 144.167C667.292 141.25 677.5 138.75 687.5 136.875V79.1667C687.5 70 680 62.5 670.833 62.5H79.1667C70 62.5 62.5 70 62.5 79.1667V270.833V462.5C62.5 471.667 70 479.167 79.1667 479.167H85C95 420.208 146.458 375 208.333 375C270.208 375 321.667 420.208 331.667 479.167H400.833ZM104.167 120.833C104.167 111.667 111.667 104.167 120.833 104.167H162.5L104.167 187.292V120.833ZM104.167 365.833V293.125L236.458 104.167H287.5L104.167 365.833Z" fill="black"/>
<path fill-rule="evenodd" clip-rule="evenodd" d="M256.041 431.665C218.332 405.207 166.457 414.374 139.999 452.082C113.541 489.791 122.707 541.665 160.416 568.124C198.124 594.582 249.999 585.415 276.457 547.707C302.916 509.999 293.749 458.124 256.041 431.665ZM191.041 488.124C180.207 503.54 165.624 514.79 149.166 521.249C146.666 514.582 145.416 507.29 145.416 500.207C156.457 494.999 166.249 486.874 173.749 476.249C181.249 465.624 185.416 453.54 186.666 441.457C193.332 438.957 200.624 437.707 207.707 437.707C207.291 454.999 201.874 472.707 191.041 488.124ZM270.624 499.79C259.582 504.999 249.791 513.124 242.291 523.749C234.791 534.374 230.624 546.457 229.374 558.749C222.707 561.249 215.416 562.499 208.332 562.499C208.957 544.999 214.374 527.29 225.207 511.874C236.041 496.457 250.624 485.207 266.874 478.749C269.374 485.624 270.624 492.707 270.624 499.79Z" fill="black"/>
</svg>
