<svg width="1000" height="1000" viewBox="0 0 1000 1000" fill="none" xmlns="http://www.w3.org/2000/svg">
<path fill-rule="evenodd" clip-rule="evenodd" d="M468.125 284.167C426.458 343.75 403.125 411.875 400.833 479.167H331.667C321.667 420.208 270.208 375 208.333 375C146.458 375 95 420.208 85 479.167H79.1667C70 479.167 62.5 471.667 62.5 462.5V79.1667C62.5 70 70 62.5 79.1667 62.5H670.833C680 62.5 687.5 70 687.5 79.1667V136.875C677.5 138.75 667.292 141.25 657.292 144.167C583.333 165.833 516.042 215.625 468.125 284.167ZM120.833 104.167C111.667 104.167 104.167 111.667 104.167 120.833V187.292L162.5 104.167H120.833ZM104.167 293.125V365.833L287.5 104.167H236.458L104.167 293.125Z" fill="black"/>
<path fill-rule="evenodd" clip-rule="evenodd" d="M851.045 209.165C902.087 244.79 932.503 302.499 936.878 371.874C941.253 439.374 920.212 509.999 877.503 571.04C834.795 631.874 775.628 676.04 710.628 694.999C690.003 701.04 669.587 704.374 649.795 704.999L486.045 770.832C492.087 781.04 492.087 794.374 484.795 804.79L401.045 924.165C391.045 938.332 371.67 941.874 357.503 931.874L340.42 919.999C326.253 909.999 322.712 890.624 332.712 876.457L416.462 757.082C423.753 746.665 436.462 742.082 448.128 744.374L453.962 567.915C447.712 548.957 443.962 528.749 442.503 507.29C438.128 439.582 459.378 368.957 501.878 308.124C544.587 247.29 603.753 203.124 668.753 184.165C735.42 164.582 800.212 173.54 851.045 209.165ZM493.545 638.332L490.628 723.957L570.212 692.082C555.628 686.457 541.67 679.165 528.545 669.999C515.42 660.832 503.753 650.207 493.545 638.332ZM646.462 663.332C716.462 661.874 792.503 619.999 843.545 547.082C880.628 493.957 899.17 432.707 895.628 374.582C891.878 318.124 867.712 271.457 827.503 243.332C800.837 224.582 769.587 215.832 737.087 215.832C666.045 215.832 588.337 257.915 536.462 332.082C485.212 404.999 471.878 490.624 494.587 556.874C494.704 556.991 494.755 557.173 494.814 557.385C494.861 557.55 494.912 557.733 495.003 557.915C506.045 589.582 525.212 616.665 552.503 635.832C579.795 654.999 611.878 663.749 645.42 663.332H646.462Z" fill="black"/>
<path d="M290.6 486.653C297.973 532.083 267.122 574.889 221.692 582.262C176.262 589.635 133.457 558.783 126.084 513.353C118.711 467.923 149.562 425.118 194.992 417.745C240.422 410.372 283.227 441.224 290.6 486.653Z" fill="black"/>
</svg>
