<svg width="1000" height="1000" viewBox="0 0 1000 1000" fill="none" xmlns="http://www.w3.org/2000/svg">
<path d="M936.881 371.874C932.506 302.499 902.089 244.79 851.047 209.165C800.214 173.54 735.422 164.582 668.756 184.165C603.756 203.124 544.589 247.29 501.881 308.124C459.381 368.957 438.131 439.582 442.506 507.29C443.964 528.749 447.714 548.957 453.964 567.915L448.131 744.374C436.464 742.082 423.756 746.665 416.464 757.082L332.714 876.457C322.714 890.624 326.256 909.999 340.422 919.999L357.506 931.874C371.672 941.874 391.047 938.332 401.047 924.165L484.797 804.79C492.089 794.374 492.089 781.04 486.047 770.832L649.797 704.999C669.589 704.374 690.006 701.04 710.631 694.999C775.631 676.04 834.797 631.874 877.506 571.04C920.214 509.999 941.256 439.374 936.881 371.874ZM490.631 723.957L493.547 638.332C503.756 650.207 515.422 660.832 528.547 669.999C541.672 679.165 555.631 686.457 570.214 692.082L490.631 723.957ZM843.547 547.082C792.506 619.999 716.464 661.874 646.464 663.332C646.047 663.332 645.839 663.332 645.422 663.332C611.881 663.749 579.797 654.999 552.506 635.832C525.214 616.665 506.047 589.582 495.006 557.915C494.797 557.499 494.797 557.082 494.589 556.874C471.881 490.624 485.214 404.999 536.464 332.082C588.339 257.915 666.047 215.832 737.089 215.832C769.589 215.832 800.839 224.582 827.506 243.332C867.714 271.457 891.881 318.124 895.631 374.582C899.172 432.707 880.631 493.957 843.547 547.082Z" fill="black"/>
<path d="M601.048 166.667C615.423 159.375 630.215 152.917 645.423 147.917L553.548 66.6667C550.423 63.9583 546.673 62.5 542.506 62.5H70.8398C63.3398 62.5 59.5898 71.4583 65.0064 76.6667L166.673 166.667H601.048Z" fill="black"/>
<path d="M400.836 479.167C403.127 411.875 426.461 343.75 468.127 284.167C488.336 255.417 511.877 229.792 537.919 208.333H166.669V382.083C179.794 377.5 193.752 375 208.336 375C270.211 375 321.669 420.208 331.669 479.167H400.836Z" fill="black"/>
<path d="M208.336 416.667C193.127 416.667 178.961 420.833 166.669 427.917C141.669 442.292 125.002 469.167 125.002 500C125.002 546.042 162.294 583.333 208.336 583.333C254.377 583.333 291.669 546.042 291.669 500C291.669 492.708 290.836 485.833 288.961 479.167C279.794 443.125 247.086 416.667 208.336 416.667Z" fill="black"/>
</svg>
