<svg width="1000" height="1000" viewBox="0 0 1000 1000" fill="none" xmlns="http://www.w3.org/2000/svg">
<path fill-rule="evenodd" clip-rule="evenodd" d="M780.624 561.249C732.291 601.874 667.291 596.457 626.666 548.124C586.041 499.79 591.249 433.957 639.791 393.332C688.124 352.707 753.541 358.332 794.166 406.874C834.791 455.207 828.957 520.624 780.624 561.249ZM268.749 633.124L394.582 527.499L429.791 569.374L219.999 745.415C219.374 745.832 218.957 746.457 218.332 746.874C231.041 752.499 242.291 758.54 252.916 764.165C281.874 779.582 304.582 791.665 347.916 791.665C352.082 791.665 356.249 791.457 360.624 791.249C412.499 788.749 434.582 773.749 465.207 753.332C501.457 728.957 546.666 698.749 632.916 694.374C639.374 693.957 645.624 693.957 651.666 693.957C661.041 693.957 669.999 694.374 678.333 694.999L654.374 666.665L443.124 414.999C423.749 391.874 389.166 388.749 366.041 408.332L198.124 549.165C174.999 568.54 171.874 603.124 191.457 626.249C211.041 649.374 245.624 652.499 268.749 633.124ZM915.833 805.415C852.499 808.54 820.416 791.457 786.249 773.332C750.416 754.165 709.999 732.707 635.207 736.457C560.416 740.207 522.291 765.832 488.541 788.332C456.457 809.79 426.249 829.999 362.916 833.332C299.582 836.457 267.499 819.374 233.332 801.249C197.499 782.082 157.082 760.624 82.2908 764.374C70.8325 764.999 62.0825 774.79 62.4991 786.249C63.1241 797.707 72.9158 806.457 84.3741 806.04C147.707 802.915 179.791 819.999 213.957 838.124C249.791 857.29 290.207 878.749 364.999 874.999C439.791 871.249 477.916 845.624 511.666 823.124C543.749 801.665 573.957 781.457 637.291 778.124C700.624 774.999 732.707 792.082 766.874 810.207C802.707 829.374 843.124 850.832 917.916 847.082C929.374 846.457 938.124 836.666 937.707 825.207C936.874 813.54 927.083 804.79 915.833 805.415Z" fill="black"/>
</svg>
