<svg width="1000" height="1000" viewBox="0 0 1000 1000" fill="none" xmlns="http://www.w3.org/2000/svg">
<path fill-rule="evenodd" clip-rule="evenodd" d="M824.167 118.331C636.25 -12.7106 453.542 102.706 341.458 262.914C268.75 366.664 240.833 437.498 300.417 539.373C324.792 581.039 396.667 631.664 365.625 682.081L238.333 863.956C227.708 878.956 231.458 899.789 246.458 910.414L277.083 931.873C292.083 942.498 312.917 938.748 323.542 923.748L446.25 748.539C447.083 747.498 447.917 746.456 448.75 744.998C484.375 694.164 558.333 746.873 607.5 754.373C724.167 772.29 780.625 725.206 853.333 621.248C965.625 461.248 1029.17 261.456 824.167 118.331ZM470.833 658.956L325.417 866.873C320.208 874.373 309.792 876.248 302.292 871.039L295.625 866.248C288.125 861.039 286.25 850.623 291.458 843.123L436.875 635.206C442.083 627.706 452.5 625.831 460 631.039L466.667 635.831C474.375 641.039 476.042 651.456 470.833 658.956ZM145.833 583.331C99.7917 583.331 62.5 546.039 62.5 499.998C62.5 453.956 99.7917 416.664 145.833 416.664C191.875 416.664 229.167 453.956 229.167 499.998C229.167 546.039 191.875 583.331 145.833 583.331Z" fill="black"/>
</svg>
