<svg width="1000" height="1000" viewBox="0 0 1000 1000" fill="none" xmlns="http://www.w3.org/2000/svg">
<path d="M467.501 655.419L262.71 512.086C243.96 498.961 217.918 503.544 204.585 522.294C191.46 541.044 196.043 567.086 214.793 580.419L402.501 711.877L408.543 899.377C409.376 921.877 427.71 939.586 450.21 939.586C450.626 939.586 451.043 939.586 451.668 939.586C474.585 938.752 492.71 919.585 491.876 896.669L485.001 688.544C484.793 675.211 478.335 662.919 467.501 655.419Z" fill="black"/>
<path d="M245 655.837C222.5 650.629 200.208 664.587 195 686.879L143.541 905.421C138.333 927.921 152.291 950.212 174.583 955.421C177.708 956.254 181.041 956.463 184.166 956.463C203.125 956.463 220.208 943.546 224.791 924.379L276.041 705.837C281.249 683.546 267.291 661.045 245 655.837Z" fill="black"/>
<path d="M536.25 194.794C575.625 222.294 624.375 213.544 651.875 174.169C679.375 134.794 670.833 85.6277 631.458 58.1277C592.083 30.6277 542.916 39.1694 515.416 78.5444C487.916 117.919 496.875 167.294 536.25 194.794Z" fill="black"/>
<path d="M730.623 407.508L690.415 401.466L587.706 283.341C587.498 283.133 587.29 282.925 587.29 282.925C587.081 282.716 586.665 282.3 586.456 281.883C586.248 281.675 586.04 281.466 585.623 281.258C585.623 281.258 585.623 281.258 585.415 281.258C584.998 280.841 584.581 280.425 583.956 280.008C583.748 279.8 583.54 279.591 583.331 279.383C583.123 279.175 582.706 278.966 582.498 278.758C581.873 278.341 581.248 277.716 580.623 277.3C580.415 277.091 580.206 277.091 579.998 276.883L375.206 133.55C360.415 123.341 340.831 123.55 326.456 134.175L220.831 212.3C202.29 226.05 198.54 252.091 212.29 270.633C226.04 289.175 252.081 292.925 270.623 279.175L352.29 218.55L396.04 249.175L276.456 419.8C270.206 428.758 267.706 440.008 269.581 450.841C271.456 461.675 277.706 471.466 286.665 477.716L389.165 549.383C396.248 554.383 404.581 556.883 413.123 556.883C415.623 556.883 417.915 556.675 420.415 556.258C431.248 554.383 441.04 548.133 447.29 539.175L559.998 378.133L637.706 467.508C644.165 475.008 653.123 480.008 663.123 481.466L755.206 495.216C757.29 495.425 759.373 495.633 761.456 495.633C780.623 495.633 797.498 482.3 801.873 463.55C770.415 456.675 744.165 435.633 730.623 407.508Z" fill="black"/>
<path d="M824.166 424.371C858.684 424.371 886.666 396.388 886.666 361.871C886.666 327.353 858.684 299.371 824.166 299.371C789.649 299.371 761.666 327.353 761.666 361.871C761.666 396.388 789.649 424.371 824.166 424.371Z" fill="black"/>
</svg>
