<svg width="1000" height="1000" viewBox="0 0 1000 1000" fill="none" xmlns="http://www.w3.org/2000/svg">
<path d="M225.002 604.171H296.044C341.252 564.588 378.96 562.504 433.752 562.504H456.46L555.419 485.629C568.544 475.213 585.002 469.588 601.669 469.588C621.669 469.588 640.419 477.296 654.377 491.463C680.835 517.921 683.544 559.796 660.835 589.379L636.044 625.213C638.752 625.213 641.669 625.421 644.377 625.421C665.627 626.046 687.502 626.671 706.46 626.671C736.252 626.671 745.21 625.213 747.294 624.588C747.502 624.588 747.919 624.379 748.335 624.379C809.377 581.254 860.002 522.713 895.419 453.963C898.127 448.754 898.127 442.296 895.419 437.088C818.752 288.13 670.419 187.088 500.002 187.088C329.585 187.088 181.252 288.13 104.377 437.088C101.669 442.296 101.669 448.754 104.377 453.963C134.585 512.504 175.835 563.754 225.002 604.171ZM305.835 317.713C328.544 310.213 351.669 303.963 375.002 299.171V270.838C375.002 259.38 384.377 250.005 395.835 250.005C407.294 250.005 416.669 259.38 416.669 270.838V292.088C437.502 289.171 458.335 287.505 479.169 286.88V250.005C479.169 238.546 488.544 229.171 500.002 229.171C511.46 229.171 520.835 238.546 520.835 250.005V286.88C541.669 287.505 562.502 289.38 583.335 292.088V270.838C583.335 259.38 592.71 250.005 604.169 250.005C615.627 250.005 625.002 259.38 625.002 270.838V299.171C648.335 303.963 671.46 310.213 694.169 317.713C705.002 321.255 711.044 333.13 707.294 343.963C703.752 354.796 691.877 360.838 681.044 357.088C662.71 351.046 643.96 345.838 625.21 341.671V395.838C625.21 407.296 615.835 416.671 604.377 416.671C592.919 416.671 583.544 407.296 583.544 395.838V334.171C562.919 331.254 541.877 329.171 521.044 328.546V395.838C521.044 407.296 511.669 416.671 500.21 416.671C488.752 416.671 479.377 407.296 479.377 395.838V328.546C458.544 329.38 437.502 331.254 416.877 334.171V395.838C416.877 407.296 407.502 416.671 396.044 416.671C384.585 416.671 375.21 407.296 375.21 395.838V341.88C356.252 346.046 337.71 351.254 319.377 357.296C317.294 357.921 315.002 358.338 312.71 358.338C303.96 358.338 295.835 352.713 292.919 344.171C288.96 333.13 295.002 321.463 305.835 317.713Z" fill="black"/>
<path d="M312.498 645.84H142.082C132.915 645.84 125.415 653.34 125.415 662.506V795.839C125.415 805.006 132.915 812.506 142.082 812.506L517.915 812.298C519.79 812.298 521.873 811.881 523.54 811.256L748.748 750.214C749.582 750.006 750.415 749.589 751.248 749.381C763.54 743.756 858.123 699.173 903.332 677.923C917.082 671.465 924.373 655.84 920.415 641.048C915.832 623.756 898.123 613.548 880.832 618.756C840.207 630.84 789.165 657.715 756.665 665.214C724.165 672.714 607.498 663.756 568.957 666.673C563.748 667.09 560.623 661.464 563.332 657.09L627.082 564.798C637.707 551.673 636.665 532.715 624.79 521.048C612.915 509.173 594.165 508.131 581.04 518.548L475.415 600.631C472.498 602.923 468.748 604.381 464.998 604.381H434.165C377.707 604.173 352.498 605.84 312.498 645.84Z" fill="black"/>
</svg>
