<svg width="1000" height="1000" viewBox="0 0 1000 1000" fill="none" xmlns="http://www.w3.org/2000/svg">
<path fill-rule="evenodd" clip-rule="evenodd" d="M813.132 395.829C813.132 418.745 794.382 437.495 771.466 437.495H678.132C669.591 437.495 661.257 434.787 654.174 429.995L600.632 392.495L481.257 563.12C475.007 572.079 465.216 578.329 454.382 580.204C451.882 580.62 449.591 580.829 447.091 580.829C438.549 580.829 430.216 578.329 423.132 573.329L320.841 501.662C311.882 495.412 305.632 485.62 303.757 474.787C301.882 463.954 304.382 452.704 310.632 443.745L429.591 273.745L242.716 191.662C221.674 182.495 212.091 157.912 221.257 136.662C230.424 115.62 255.007 106.037 276.257 115.204L470.841 200.62C473.341 201.662 475.841 203.12 477.924 204.579L511.882 228.329L691.257 353.954H771.257C794.382 354.162 813.132 372.912 813.132 395.829ZM513.549 690.62C510.632 686.454 507.299 682.912 503.132 680.204L296.882 535.829C278.132 522.704 252.091 527.287 238.757 546.037C225.632 564.787 230.216 590.829 248.966 604.162L448.966 744.37L581.257 938.12C589.382 949.787 602.299 956.245 615.632 956.245C623.757 956.245 632.091 953.954 639.174 948.954C658.132 935.829 662.924 909.995 649.799 891.037L513.549 690.62ZM287.716 680.204C266.674 670.829 242.091 680.412 232.716 701.454L191.882 802.287L76.8823 878.954C57.7156 891.662 52.5073 917.495 65.424 936.662C73.549 948.745 86.674 955.204 100.216 955.204C108.132 955.204 116.257 952.912 123.341 948.12L248.341 864.787C255.007 860.412 260.216 854.162 263.341 847.079L308.966 734.995C318.132 714.162 308.757 689.579 287.716 680.204ZM570.424 218.537C609.799 246.037 658.549 237.287 686.049 197.912C713.549 158.537 705.007 109.37 665.632 81.8704C626.257 54.3704 577.091 62.9121 549.591 102.287C521.882 141.662 531.049 191.037 570.424 218.537ZM958.341 354.162H885.007C867.716 354.162 853.757 368.12 853.757 385.412V395.829H989.591V385.412C989.591 368.12 975.424 354.162 958.341 354.162Z" fill="black"/>
</svg>
