<svg width="1000" height="1000" viewBox="0 0 1000 1000" fill="none" xmlns="http://www.w3.org/2000/svg">
<path d="M625 312.5C452.292 312.5 312.5 452.292 312.5 625C312.5 797.5 452.292 937.5 625 937.5C797.5 937.5 937.5 797.5 937.5 625C937.5 452.292 797.5 312.5 625 312.5ZM715 505.417C703.333 498.958 691.667 493.333 679.583 488.542C679.375 488.75 679.375 488.958 679.167 489.167C678.958 489.583 678.958 489.792 678.75 490C666.667 513.125 658.333 537.917 653.125 563.333C652.708 564.583 652.708 566.042 652.292 567.292C651.458 572.083 650.208 577.083 649.583 582.083C649.167 585 648.958 588.125 648.75 591.25C648.542 592.917 648.542 594.167 648.333 595.833C647.917 601.25 647.708 606.667 647.5 612.292C650.417 614.167 653.333 616.25 656.042 618.333C657.708 619.583 659.375 620.625 661.042 621.875C662.083 622.708 663.333 623.542 664.375 623.958C665.833 624.792 667.292 625.625 668.542 626.667C669.167 627.083 669.792 627.5 670.417 628.125C670.833 628.542 671.25 628.958 672.083 629.583C680 635.625 687.5 641.875 694.792 648.542C695.208 648.75 695.417 648.958 695.833 649.375C696.667 650.208 697.708 651.042 698.542 651.667C698.75 651.875 698.958 652.083 699.167 652.292C699.375 652.5 699.583 652.708 699.792 652.917C722.708 674.583 742.917 698.958 758.75 726.458C758.958 726.667 758.958 726.875 759.167 727.292C759.375 727.708 759.375 727.708 759.583 727.917C763.542 735 767.083 742.083 770.417 749.375C770.625 749.792 770.625 750.208 770.833 750.625C771.042 751.042 771.25 751.25 771.25 751.458C774.375 757.917 777.083 764.375 779.583 771.042C779.792 772.083 780.417 772.708 780.625 773.75C781.042 774.792 781.458 776.042 782.083 777.083C782.292 777.292 782.292 777.5 782.292 777.917C782.5 778.125 782.5 778.333 782.708 778.75C782.917 779.792 783.333 780.833 783.542 781.875C783.75 782.708 783.958 783.542 784.375 784.583C786.042 790 787.917 795.208 789.375 800.625C789.792 801.458 789.792 802.292 790.208 802.917C790.625 803.75 790.833 804.583 791.042 805.625C791.458 806.667 791.458 807.5 791.875 808.542C792.5 810.833 792.917 813.333 793.542 815.833C793.958 817.292 793.958 818.542 794.375 820C794.792 821.042 794.792 822.292 795.208 823.333C795.625 824.792 795.833 826.042 796.042 827.292C783.333 837.917 769.792 847.5 755.208 855.833C754.583 849.792 753.542 843.958 752.5 837.917C751.875 834.792 751.042 831.875 750.417 828.75C748.958 822.083 747.5 815.417 745.417 808.542C744.792 806.25 743.958 804.167 743.125 801.875C742.708 800.833 742.292 799.583 741.875 798.542C741.458 797.708 741.25 796.667 741.042 795.625C739.167 790.417 737.5 785 735.208 779.792C725.208 787.083 714.792 794.167 703.75 800.625C629.167 843.75 541.458 853.958 460.417 832.917C434.167 812.083 411.875 786.458 394.792 757.292C481.875 811.25 592.083 813.542 681.875 761.667C693.542 755 704.167 747.5 714.167 739.375L713.542 738.75C713.333 738.542 713.125 738.333 713.125 738.125C698.958 716.042 681.875 696.667 662.292 679.167C661.042 678.125 659.583 676.875 658.333 675.833C654.792 672.708 651.458 669.792 647.917 666.875C645.417 665 642.708 663.125 640 661.458C638.958 660.625 637.708 660 636.667 659.167C632.292 656.042 627.5 653.125 622.917 650.208C620 651.875 616.667 653.333 613.333 654.792C611.458 655.625 609.583 656.458 607.708 657.292C606.458 657.917 605.417 658.542 604.167 659.167C602.708 660 601.25 660.833 599.792 661.458C599.167 661.667 598.333 661.875 597.708 662.292C597.083 662.5 596.458 662.708 595.833 663.125C586.875 667.083 577.5 670.208 568.125 673.333C567.708 673.542 567.083 673.75 566.458 673.958C565.625 674.167 564.792 674.583 563.75 674.792C563.542 675 562.917 675 562.708 675H562.292C562.083 675 562.083 675 561.875 675C531.667 684.167 500.208 689.583 468.542 689.583C468.125 689.583 468.125 689.583 467.708 689.583C467.5 689.583 467.292 689.583 467.083 689.583C458.75 689.375 450.833 688.958 442.917 688.333C442.5 688.333 442.083 688.125 441.875 688.125C441.458 687.917 441.042 687.917 440.833 687.917C433.75 687.292 426.667 686.25 419.792 685.208C418.958 685 418.125 685 417.083 685C416.042 684.792 414.792 684.792 413.542 684.583H412.5C412.292 684.583 412.083 684.375 411.667 684.375C410.417 684.167 409.167 683.958 407.917 683.542C407.083 683.333 406.25 683.125 405.625 682.917C400.208 681.875 394.792 680.625 389.167 679.167C388.542 678.958 387.708 678.75 387.083 678.75C386.042 678.542 385 678.542 384.167 678.125C383.75 677.917 383.333 677.917 383.125 677.917C382.5 677.708 382.083 677.5 381.458 677.5C379.167 676.875 376.875 676.042 374.375 675.208C372.917 674.792 371.667 674.375 370.208 673.75C369.375 673.333 368.125 672.917 367.083 672.708C365.625 672.292 364.375 671.875 362.917 671.25C360 656.042 358.75 640.208 358.75 624.167C358.75 623.333 358.75 622.5 358.75 621.875C364.375 624.167 370 626.458 375.625 628.333C378.542 629.375 381.667 630.417 384.792 631.25C391.458 633.542 398.125 635.417 404.792 637.083C406.875 637.5 408.958 637.917 411.25 638.333C412.5 638.75 413.958 638.75 415.208 639.167C416.458 639.583 417.5 639.583 418.75 640C423.958 640.833 429.167 642.083 434.583 642.708C433.125 630.417 432.292 617.917 432.292 605.208C432.292 518.125 467.083 437.083 526.25 377.5C556.458 365.417 589.792 358.542 624.375 358.542C534.167 406.875 476.875 501.458 476.875 605.208C476.875 618.542 478.125 631.667 480 644.375C480.208 644.375 480.417 644.375 480.833 644.375C481.042 644.375 481.25 644.375 481.667 644.375C507.708 643.333 533.333 638.333 557.917 630C559.375 629.583 560.625 629.167 562.083 628.542C566.667 627.083 571.25 625.625 575.833 623.75C578.542 622.708 581.25 621.25 583.958 620C585.417 619.375 586.875 618.542 588.125 617.917C592.917 615.625 597.708 613.125 602.708 610.417C602.708 607.083 603.125 603.542 603.542 600.208C603.75 597.917 603.958 596.042 604.167 593.75C604.375 592.5 604.375 591.042 604.375 589.792C604.583 588.125 604.583 586.458 604.792 584.792C604.792 583.958 605 583.125 605 582.5C605 581.875 605.208 581.042 605.417 580.417C606.667 570.625 608.333 560.833 610.417 551.25C610.625 550.833 610.625 550.208 610.625 549.583C610.833 548.542 611.042 547.5 611.25 546.667C611.25 546.458 611.25 546.25 611.458 545.833C611.667 545.417 611.875 545.417 611.875 545C619.167 514.167 630 484.583 645.833 457.083C645.833 456.875 646.042 456.875 646.042 456.875L646.25 456.667C646.458 456.25 646.458 456.25 646.667 455.833C650.833 448.958 655.208 442.292 659.792 435.625C660.208 435.208 660.208 434.792 660.625 434.583C660.833 434.375 661.042 434.167 661.25 433.75C665.208 427.917 669.792 422.292 673.958 416.875C674.583 416.25 675 415.417 675.625 414.583C676.25 413.75 677.083 412.708 677.708 411.667C677.917 411.458 678.125 411.25 678.125 411.042C678.333 410.625 678.333 410.625 678.542 410.417C679.375 409.583 680.208 408.75 680.833 407.917C681.458 407.292 682.083 406.458 682.708 405.833C686.458 401.667 690.208 397.5 694.167 393.542C694.583 392.917 695.208 392.5 695.833 391.875C696.458 391.042 697.292 390.208 697.917 389.583C698.542 388.958 699.375 388.125 700 387.5C701.667 385.833 703.542 384.167 705.208 382.708C706.25 381.875 707.5 380.625 708.542 379.792C709.583 378.958 710.417 378.125 711.25 377.292C712.083 376.458 713.333 375.625 714.167 374.583C730 380.208 745 387.292 759.167 395.625C754.583 399.167 749.792 402.917 744.583 405.833C742.5 407.5 740.625 409.375 738.542 411.25L737.708 412.083C732.5 416.667 727.5 421.458 722.708 426.458C721.25 428.125 719.792 429.792 718.542 431.25C717.708 432.083 716.875 433.333 715.833 434.375C714.792 435.208 714.167 436.25 713.333 437.083C709.792 441.25 706.458 445.208 703.125 449.375C714.583 454.167 726.042 459.583 736.875 466.042C812.083 509.375 865 580.417 887.083 661.25C882.292 695.208 871.042 727.083 854.375 755.625C857.917 653.958 804.792 557.292 715 505.417Z" fill="black"/>
<path d="M487.083 298.75C530.833 280.208 577.083 270.833 625 270.833C646.25 270.833 667.083 272.708 687.5 276.25V79.1667C687.5 70 680 62.5 670.833 62.5H79.1667C70 62.5 62.5 70 62.5 79.1667V462.5C62.5 471.667 70 479.167 79.1667 479.167H302.083C319.792 440.208 343.958 405 374.583 374.583C407.083 342.083 445 316.458 487.083 298.75Z" fill="black"/>
</svg>
