<svg width="1000" height="1000" viewBox="0 0 1000 1000" fill="none" xmlns="http://www.w3.org/2000/svg">
<path d="M347.916 791.882C337.499 791.882 328.124 791.257 319.582 789.799C239.791 733.132 187.499 640.007 187.499 534.59C187.499 362.09 327.499 222.09 499.999 222.09C672.499 222.09 812.499 362.09 812.499 534.59C812.499 600.84 791.874 662.299 756.666 712.924C731.249 702.924 700.207 695.215 660.207 694.382C659.999 693.549 659.582 692.715 659.374 691.674C659.166 690.632 658.749 689.59 658.332 688.549C658.332 688.34 658.124 688.132 658.124 687.715C658.124 687.507 657.916 687.299 657.916 686.882C657.499 685.84 657.082 684.59 656.457 683.549C656.041 682.715 655.624 681.882 655.416 681.049C652.916 674.382 650.208 667.924 647.291 661.465C647.083 661.257 647.083 660.84 646.874 660.632C646.666 660.215 646.457 659.799 646.457 659.382C643.124 652.09 639.582 645.007 635.624 637.924C635.624 637.715 635.416 637.507 635.416 637.299C635.207 637.09 635.207 636.674 634.999 636.465C619.166 608.965 598.957 584.59 575.832 562.924C575.624 562.715 575.416 562.507 575.207 562.299C574.999 562.09 574.791 561.882 574.582 561.674C573.749 560.84 572.916 560.215 571.874 559.382C571.666 559.174 571.249 558.965 571.041 558.549C563.749 551.882 556.249 545.632 548.332 539.59C547.707 539.174 547.291 538.757 546.666 538.34C546.041 537.924 545.416 537.299 544.791 536.882C543.541 535.84 542.082 535.007 540.624 534.174C539.582 533.549 538.332 532.715 537.291 532.09C535.624 530.84 533.957 529.59 532.291 528.549C529.374 526.465 526.666 524.382 523.749 522.507C523.957 517.09 524.166 511.465 524.582 506.049C524.791 504.59 524.791 502.924 524.999 501.465C525.207 498.549 525.416 495.424 525.832 492.507C526.457 487.507 527.499 482.715 528.541 477.924C528.749 476.674 529.166 475.215 529.374 473.965C534.582 448.549 542.916 423.757 554.999 400.632C555.207 400.424 555.207 400.007 555.416 399.799C555.416 399.59 555.624 399.382 555.624 399.174C567.707 403.965 579.582 409.382 591.041 416.049C680.832 467.924 733.957 564.59 730.832 667.09C747.291 638.549 758.749 606.674 763.541 572.715C741.457 491.882 688.749 421.049 613.332 377.507C602.291 371.257 591.041 365.632 579.582 360.84C582.916 356.465 586.249 352.507 589.791 348.549C590.624 347.715 591.457 346.674 592.291 345.84C593.124 344.799 594.166 343.757 594.999 342.715C596.457 341.049 597.707 339.382 599.166 337.924C603.957 332.924 609.166 328.132 614.166 323.549L615.207 322.715C617.291 320.84 619.166 318.965 621.249 317.299C625.833 313.34 630.624 309.59 635.416 306.049C621.249 297.715 606.249 290.632 590.416 284.799C589.374 285.632 588.332 286.674 587.499 287.507C586.457 288.34 585.624 289.174 584.582 290.007C583.541 291.049 582.291 292.09 581.249 292.924C579.374 294.59 577.707 296.049 575.832 297.715C575.207 298.34 574.374 299.174 573.749 299.799C573.124 300.424 572.291 301.257 571.666 301.882C571.249 302.507 570.624 302.924 569.999 303.549C566.041 307.507 562.291 311.674 558.541 315.84C557.916 316.465 557.291 317.299 556.666 317.924C555.832 318.757 554.999 319.59 554.374 320.424C554.166 320.632 554.166 320.84 553.957 321.049C553.749 321.257 553.541 321.465 553.332 321.674C552.499 322.507 551.874 323.549 551.041 324.59C550.416 325.424 549.999 326.049 549.374 326.882C544.999 332.299 540.624 337.924 536.457 343.757C536.249 343.965 536.041 344.382 535.832 344.59C535.624 345.007 535.207 345.215 534.999 345.632C530.416 352.299 526.041 358.965 521.874 365.84C521.666 366.049 521.457 366.465 521.457 366.674L521.249 366.882C521.249 366.882 521.041 367.09 521.041 367.299C505.207 394.799 494.166 424.59 486.874 455.424C486.874 455.632 486.666 456.049 486.666 456.257C486.666 456.465 486.457 456.882 486.457 457.09C486.249 458.132 486.041 459.174 485.832 460.007C485.832 460.424 485.624 461.049 485.624 461.465C483.541 471.049 481.874 480.84 480.624 490.84C480.624 491.465 480.416 492.09 480.207 492.715C479.999 493.549 479.999 494.382 479.791 495.007C479.582 496.674 479.582 498.34 479.582 500.007C479.582 501.257 479.582 502.715 479.374 503.965C479.166 506.049 478.957 508.132 478.749 510.215C478.332 513.757 477.916 517.09 477.916 520.632C473.124 523.34 468.332 525.84 463.332 528.132C461.874 528.757 460.624 529.382 459.166 530.215C456.457 531.465 453.749 532.924 451.041 533.965C446.457 535.84 441.874 537.299 437.291 538.965C435.832 539.382 434.582 539.799 433.124 540.424C408.541 548.549 382.916 553.757 356.874 554.799C356.666 554.799 356.249 554.799 356.041 554.799C355.832 554.799 355.416 554.799 355.207 554.799C353.332 541.882 352.082 528.965 352.082 515.632C352.082 411.882 409.166 317.507 499.582 269.174C464.999 269.174 431.666 275.84 401.457 288.132C342.499 347.715 307.499 428.757 307.499 515.84C307.499 528.549 308.332 541.049 309.791 553.34C304.374 552.715 299.166 551.674 293.958 550.632C292.708 550.424 291.666 550.215 290.416 550.007C289.166 549.799 287.707 549.59 286.457 549.174C284.374 548.757 282.082 548.34 279.999 547.924C273.332 546.257 266.666 544.174 259.999 542.09C256.874 541.257 253.957 540.215 251.041 539.174C245.416 537.09 239.791 535.007 234.166 532.507C234.166 533.34 234.166 533.965 234.166 534.799C234.166 550.84 235.624 566.674 238.332 582.09C239.791 582.507 241.249 582.924 242.499 583.549C243.541 583.965 244.582 584.174 245.624 584.59C247.082 585.007 248.332 585.424 249.791 586.049C252.082 586.882 254.374 587.715 256.874 588.34C257.499 588.549 257.916 588.549 258.541 588.757C258.957 588.757 259.374 588.965 259.791 588.965C260.832 589.174 261.874 589.382 262.916 589.59C263.541 589.799 264.374 589.799 264.999 590.007C270.416 591.466 275.832 592.507 281.457 593.757C282.291 593.965 283.124 594.174 283.749 594.382C284.999 594.59 286.249 595.007 287.499 595.216C287.707 595.216 288.124 595.215 288.332 595.424H288.957C290.207 595.632 291.457 595.84 292.707 595.84C293.541 595.84 294.582 596.049 295.416 596.257C302.291 597.299 309.374 598.34 316.457 598.965C316.874 598.965 317.291 598.965 317.707 599.174C318.124 599.174 318.541 599.382 318.957 599.382C326.874 600.007 334.999 600.424 343.124 600.632C343.332 600.632 343.541 600.632 343.749 600.632C343.957 600.632 344.166 600.632 344.582 600.632C376.249 600.632 407.707 595.424 437.916 586.257C438.124 586.257 438.124 586.257 438.332 586.257H438.541C438.957 586.257 439.374 586.049 439.582 586.049C440.416 585.84 441.457 585.424 442.291 585.007C442.916 584.799 443.332 584.59 443.957 584.382C453.332 581.257 462.707 577.924 471.874 574.174C472.499 573.965 473.124 573.757 473.749 573.549C474.582 573.34 475.207 573.132 476.041 572.715C477.499 572.09 478.957 571.257 480.416 570.424C481.666 569.799 482.707 569.174 483.957 568.549C485.832 567.715 487.707 566.882 489.582 566.049C492.916 564.59 496.041 563.132 499.166 561.465C503.957 564.382 508.541 567.299 512.916 570.424C513.957 571.257 515.207 571.882 516.249 572.715C518.957 574.59 521.666 576.257 524.166 578.34C527.707 581.049 531.249 584.174 534.582 587.09C535.832 588.34 537.082 589.382 538.541 590.632C557.916 607.924 575.207 627.507 589.166 649.59C589.374 649.799 589.374 650.007 589.582 650.215L590.207 650.84C579.999 658.757 569.374 666.465 557.916 673.132C468.124 725.007 357.916 722.715 270.624 668.757C287.499 697.924 309.999 723.549 336.249 744.382C380.416 756.049 426.457 758.132 471.457 750.632C469.374 751.882 467.499 753.34 465.624 754.59C434.999 775.007 412.916 789.799 361.041 792.507C356.249 791.674 352.082 791.882 347.916 791.882ZM915.833 805.424C852.499 808.549 820.416 791.465 786.249 773.34C750.416 754.174 709.999 732.715 635.207 736.465C560.416 740.215 522.291 765.84 488.541 788.34C456.457 809.799 426.249 830.007 362.916 833.34C299.582 836.465 267.499 819.382 233.332 801.257C197.499 782.09 157.082 760.632 82.2908 764.382C70.8325 765.007 62.0825 774.799 62.4991 786.257C63.1241 797.715 72.9158 806.465 84.3741 806.049C147.707 802.924 179.791 820.007 213.957 838.132C249.791 857.299 290.207 878.757 364.999 875.007C439.791 871.257 477.916 845.632 511.666 823.132C543.749 801.674 573.957 781.465 637.291 778.132C700.624 775.007 732.707 792.09 766.874 810.215C802.707 829.382 843.124 850.84 917.916 847.09C929.374 846.465 938.124 836.674 937.707 825.215C936.874 813.549 927.083 804.799 915.833 805.424Z" fill="black"/>
</svg>
