<svg width="1000" height="1000" viewBox="0 0 1000 1000" fill="none" xmlns="http://www.w3.org/2000/svg">
<path d="M481.568 219.767C528.153 218.565 564.943 179.825 563.74 133.24C562.538 86.6551 523.798 49.8653 477.213 51.0678C430.628 52.2703 393.838 91.0097 395.041 137.595C396.243 184.18 434.983 220.97 481.568 219.767Z" fill="black"/>
<path fill-rule="evenodd" clip-rule="evenodd" d="M846.672 352.072L727.714 268.739C720.631 263.739 712.297 261.239 703.756 261.239H562.297C562.089 261.239 561.881 261.239 561.672 261.239H436.672C436.464 261.239 436.256 261.239 436.047 261.239H292.506L246.047 191.655C237.297 193.947 228.547 195.197 219.381 195.197C191.881 195.197 166.047 184.155 146.881 165.822C143.339 177.28 144.797 190.405 152.089 201.239L235.422 326.239C243.131 337.905 256.256 344.78 270.006 344.78H394.797V553.114C394.797 576.03 413.547 594.78 436.464 594.78H500.422C572.297 594.78 630.631 653.114 630.631 724.989C630.631 796.864 572.297 855.197 500.422 855.197C428.547 855.197 370.214 796.864 370.214 724.989C370.214 703.53 375.214 683.322 385.006 664.572C395.631 644.155 387.922 618.947 367.506 608.322C347.089 597.697 321.881 605.405 311.256 625.822C295.214 656.239 286.881 690.614 286.881 725.197C286.881 842.905 382.714 938.739 500.422 938.739C618.131 938.739 713.964 842.905 713.964 725.197C713.964 644.572 669.172 574.364 603.131 538.114V345.197H690.422L798.756 421.03C806.047 426.03 814.381 428.53 822.714 428.53C835.839 428.53 848.756 422.28 856.881 410.822C870.006 391.239 865.422 365.197 846.672 352.072Z" fill="black"/>
<path d="M222.723 153.455C257.192 151.613 283.642 122.177 281.801 87.7074C279.959 53.2379 250.523 26.7879 216.053 28.6297C181.584 30.4715 155.134 59.9076 156.976 94.3771C158.817 128.847 188.254 155.297 222.723 153.455Z" fill="black"/>
</svg>
