<svg xmlns="http://www.w3.org/2000/svg" width="1000pt" height="1000pt" viewBox="0 0 1000 1000"><path d="M 587.578125 826.992188 C 579.507812 813.097656 575.816406 797.742188 572.851562 785.40625 C 571.699219 780.613281 570.609375 776.082031 569.617188 773.167969 C 564.214844 757.261719 561.929688 743.144531 562.617188 730.011719 C 563.746094 708.511719 572.789062 689.886719 588.765625 676.152344 C 599.996094 666.496094 612.023438 661.832031 620.804688 658.425781 C 623.398438 657.421875 626.835938 656.085938 628.464844 655.230469 C 629.347656 654.035156 630.777344 651.761719 631.871094 650.027344 C 636.367188 642.878906 642.527344 633.089844 653.042969 624.582031 C 666.058594 614.042969 680.234375 609.15625 691.628906 605.226562 C 696.746094 603.460938 702.042969 601.632812 704.660156 600.070312 C 705.285156 599.695312 705.957031 599.285156 706.671875 598.847656 C 716.132812 593.042969 731.964844 583.332031 751.394531 583.332031 C 764.054688 583.332031 775.796875 587.5 785.242188 595.105469 C 791.339844 590.890625 798.015625 588.292969 804.488281 587.097656 C 807.335938 586.574219 810.246094 586.308594 813.136719 586.308594 C 818.710938 586.308594 826.894531 587.316406 835.515625 591.832031 C 904.652344 428.21875 891.691406 240.527344 807.515625 80.199219 C 803.898438 73.300781 797.027344 68.492188 789.304688 67.449219 C 570.703125 37.894531 350.074219 121.503906 221.566406 305.03125 C 93.054688 488.558594 89.949219 724.484375 192.484375 919.796875 C 196.105469 926.695312 202.976562 931.503906 210.699219 932.546875 C 351.730469 951.613281 493.605469 923.566406 611.046875 851.980469 C 601.730469 846.03125 593.761719 837.644531 587.578125 826.992188 Z M 502.539062 641.660156 C 516.675781 651.558594 520.113281 671.042969 510.214844 685.179688 C 504.136719 693.863281 494.441406 698.507812 484.589844 698.507812 C 478.398438 698.507812 472.144531 696.675781 466.691406 692.855469 L 424.027344 662.980469 L 394.152344 705.644531 C 388.074219 714.324219 378.378906 718.972656 368.527344 718.972656 C 362.335938 718.972656 356.085938 717.140625 350.628906 713.320312 C 336.492188 703.417969 333.054688 683.933594 342.953125 669.792969 L 372.832031 627.128906 L 330.167969 597.253906 C 316.027344 587.351562 312.59375 567.867188 322.492188 553.730469 C 332.394531 539.589844 351.882812 536.15625 366.015625 546.054688 L 408.679688 575.929688 L 456.476562 507.667969 L 413.8125 477.792969 C 399.671875 467.890625 396.234375 448.410156 406.136719 434.269531 C 416.035156 420.132812 435.519531 416.695312 449.660156 426.59375 L 492.324219 456.472656 L 540.121094 388.207031 L 497.457031 358.328125 C 483.320312 348.429688 479.882812 328.945312 489.78125 314.808594 C 499.679688 300.667969 519.164062 297.234375 533.304688 307.132812 L 575.972656 337.007812 L 605.84375 294.339844 C 615.742188 280.203125 635.226562 276.769531 649.367188 286.667969 C 663.503906 296.570312 666.945312 316.050781 657.042969 330.191406 L 627.167969 372.855469 L 669.832031 402.730469 C 683.96875 412.628906 687.40625 432.113281 677.507812 446.25 C 671.425781 454.929688 661.734375 459.578125 651.882812 459.578125 C 645.691406 459.578125 639.441406 457.742188 633.984375 453.921875 L 591.320312 424.050781 L 543.519531 492.316406 L 586.183594 522.191406 C 600.324219 532.089844 603.761719 551.574219 593.859375 565.710938 C 587.785156 574.390625 578.085938 579.039062 568.234375 579.039062 C 562.042969 579.039062 555.792969 577.207031 550.335938 573.386719 L 507.671875 543.511719 L 459.875 611.773438 Z M 893.691406 741.21875 C 886.816406 724.035156 872.5625 711.109375 860.503906 697.574219 C 849.265625 684.957031 839.578125 670.972656 831.585938 656.089844 C 828.144531 649.679688 821.992188 626.246094 812.023438 628.082031 C 804.9375 629.386719 803.691406 638.839844 803.449219 644.667969 C 803.09375 653.171875 800.542969 678.378906 787.050781 670.75 C 776.457031 664.761719 761.457031 660.53125 763.027344 645.605469 C 763.566406 640.496094 764.730469 634.855469 761.847656 630.585938 C 753.144531 617.730469 735.191406 630.367188 726.027344 635.84375 C 711.570312 644.480469 692.265625 646.441406 679.253906 656.972656 C 669.113281 665.179688 665.394531 678.765625 655.457031 687.097656 C 643.886719 696.800781 627.425781 697.867188 615.925781 707.753906 C 599.945312 721.492188 602.992188 741.871094 609.074219 759.773438 C 616.921875 782.898438 617.929688 824.210938 651.859375 820.476562 C 676.511719 817.765625 696.277344 798.34375 721.175781 797.464844 C 736.429688 796.929688 747.496094 804.996094 758.910156 813.945312 C 767.914062 821.007812 776.90625 828.097656 785.515625 835.636719 C 792.6875 841.925781 798.996094 849.273438 807.425781 854.027344 C 827.277344 865.238281 857.925781 856.160156 868.085938 835.523438 C 871.691406 828.210938 872.839844 820.007812 875.523438 812.382812 C 879.695312 800.515625 884.980469 789.105469 889.511719 777.378906 C 894.046875 765.640625 898.648438 753.613281 893.691406 741.21875 Z M 841.304688 876.058594 C 832.121094 877.253906 815.464844 872.777344 816.730469 887.691406 C 817.6875 898.996094 827.222656 911.871094 838.722656 914.429688 C 851.253906 917.210938 858.238281 902.054688 860.078125 891.820312 C 860.925781 887.105469 860.910156 880.015625 857.167969 876.347656 C 852.261719 871.539062 846.992188 875.320312 841.304688 876.058594 Z M 841.304688 876.058594"/></svg>