<svg xmlns="http://www.w3.org/2000/svg" width="1000pt" height="1000pt" viewBox="0 0 1000 1000"><path d="M 689.292969 278.523438 C 638.25 234.855469 572.210938 208.316406 500.003906 208.316406 C 427.792969 208.316406 361.753906 234.855469 310.753906 278.523438 C 351.25 342.691406 375.003906 418.484375 375.003906 499.980469 C 375.003906 581.523438 351.253906 657.316406 310.753906 721.480469 C 361.75 765.148438 427.792969 791.648438 500.003906 791.648438 C 572.210938 791.648438 638.25 765.148438 689.292969 721.480469 C 648.707031 657.316406 625 581.523438 625 499.980469 C 625 418.484375 648.707031 342.691406 689.292969 278.523438 Z M 266.277344 326.253906 C 230.070312 374.878906 208.320312 434.878906 208.320312 500.003906 C 208.320312 565.128906 230.070312 625.128906 266.277344 673.753906 C 295.445312 622.292969 312.484375 563.210938 312.484375 500.003906 C 312.484375 436.792969 295.445312 377.667969 266.277344 326.253906 Z M 733.726562 326.246094 C 704.601562 377.664062 687.515625 436.789062 687.515625 499.996094 C 687.515625 563.203125 704.601562 622.328125 733.726562 673.742188 C 769.933594 625.117188 791.683594 565.160156 791.683594 499.996094 C 791.683594 434.871094 769.933594 374.871094 733.726562 326.246094 Z M 500 83.332031 C 269.875 83.332031 83.332031 269.875 83.332031 500 C 83.332031 730.082031 269.875 916.667969 500 916.667969 C 730.082031 916.667969 916.667969 730.082031 916.667969 500 C 916.667969 269.875 730.082031 83.332031 500 83.332031 Z M 500 854.167969 C 304.707031 854.167969 145.832031 695.292969 145.832031 500 C 145.832031 304.707031 304.707031 145.832031 500 145.832031 C 695.292969 145.832031 854.167969 304.707031 854.167969 500 C 854.167969 695.292969 695.292969 854.167969 500 854.167969 Z M 500 854.167969"/></svg>