<svg xmlns="http://www.w3.org/2000/svg" width="1000pt" height="1000pt" viewBox="0 0 1000 1000"><path d="M 145.835938 582.734375 C 191.859375 582.734375 229.167969 545.421875 229.167969 499.398438 C 229.167969 453.375 191.859375 416.066406 145.835938 416.066406 C 99.8125 416.066406 62.503906 453.375 62.503906 499.398438 C 62.503906 545.421875 99.8125 582.734375 145.835938 582.734375 Z M 920.984375 346.71875 C 927.3125 339.554688 926.339844 328.550781 918.847656 322.617188 L 883.578125 294.679688 C 876.058594 288.726562 865.078125 290.328125 859.574219 298.183594 C 806.652344 373.765625 754.992188 450.261719 700.664062 524.847656 C 640.222656 607.824219 575.890625 693.648438 486.105469 746.878906 C 383.652344 807.617188 298.539062 825.296875 186.703125 791.316406 C 169.601562 786.117188 114.417969 763.492188 97.863281 756.75 C 80.160156 749.535156 66.304688 772.929688 81.058594 785.089844 C 172.710938 860.625 292.5 914.875 412.507812 917.191406 C 520.398438 919.273438 643.886719 872.601562 729.273438 807.394531 C 765.679688 779.597656 804.484375 738.386719 810.285156 689.941406 C 816.417969 638.726562 766.519531 614.003906 770.171875 566.523438 C 773.984375 516.957031 884.316406 388.246094 920.984375 346.71875 Z M 442.179688 525.746094 L 400.640625 496.660156 L 338.089844 580.023438 L 385.113281 612.949219 Z M 462.976562 493.964844 C 493.722656 450.175781 532.464844 412.796875 576.511719 384.433594 L 693.433594 309.136719 L 693.410156 309.121094 C 711.738281 298.488281 728.453125 283.453125 741.796875 264.398438 C 786.089844 201.140625 776.3125 118.109375 719.597656 80.457031 C 666.59375 45.273438 590.246094 63.292969 546.703125 121.300781 C 531.542969 141.496094 522.113281 163.925781 518.105469 186.367188 L 518.078125 186.351562 L 487.609375 321.601562 C 476.015625 373.058594 453.988281 422.605469 423.085938 466.738281 L 413.148438 479.980469 L 453.589844 508.300781 Z M 331.421875 639.570312 C 342.289062 647.175781 356.925781 655.117188 365.617188 642.738281 L 373.699219 630.390625 L 325.578125 596.699219 L 316.722656 608.503906 C 308.039062 620.90625 320.546875 631.953125 331.421875 639.570312 Z M 331.421875 639.570312"/></svg>