<svg xmlns="http://www.w3.org/2000/svg" width="1000pt" height="1000pt" viewBox="0 0 1000 1000"><path d="M 930.464844 880.226562 C 928.410156 878.410156 926.269531 876.488281 924.050781 874.5 C 900.285156 853.195312 867.730469 824.023438 828.429688 816.761719 C 806.292969 812.671875 783.828125 819.914062 762.101562 826.90625 C 745.054688 832.394531 727.4375 838.066406 713.683594 836.511719 C 701.957031 835.179688 688.488281 826.738281 674.226562 817.804688 C 655.585938 806.121094 634.457031 792.882812 609.882812 791.554688 C 586.917969 790.304688 565.765625 800.230469 545.304688 809.820312 C 528.878906 817.519531 513.363281 824.792969 500.003906 824.792969 C 486.640625 824.792969 471.128906 817.519531 454.703125 809.820312 C 434.242188 800.230469 413.089844 790.304688 390.128906 791.554688 C 365.550781 792.882812 344.421875 806.121094 325.777344 817.804688 C 311.515625 826.738281 298.042969 835.179688 286.316406 836.511719 C 272.570312 838.058594 254.941406 832.394531 237.898438 826.90625 C 216.167969 819.914062 193.703125 812.675781 171.566406 816.761719 C 132.5625 823.964844 103.300781 850.101562 77.488281 873.15625 C 74.824219 875.539062 72.183594 877.894531 69.566406 880.199219 C 60.929688 887.804688 60.097656 900.972656 67.703125 909.605469 C 71.820312 914.277344 77.566406 916.667969 83.34375 916.667969 C 88.234375 916.667969 93.148438 914.953125 97.105469 911.464844 C 99.792969 909.097656 102.503906 906.679688 105.238281 904.234375 C 128.035156 883.871094 151.609375 862.820312 179.132812 857.738281 C 190.9375 855.550781 207.542969 860.90625 225.121094 866.570312 C 246.371094 873.410156 268.347656 880.484375 291.015625 877.914062 C 312.148438 875.511719 330.324219 864.125 347.898438 853.109375 C 363.660156 843.234375 378.546875 833.90625 392.378906 833.160156 C 404.851562 832.496094 420.492188 839.800781 437.019531 847.546875 C 456.851562 856.84375 477.359375 866.457031 500.003906 866.457031 C 522.644531 866.457031 543.152344 856.84375 562.988281 847.546875 C 579.511719 839.800781 595.105469 832.496094 607.632812 833.160156 C 621.457031 833.90625 636.339844 843.234375 652.101562 853.109375 C 669.679688 864.121094 687.855469 875.511719 708.988281 877.914062 C 731.65625 880.480469 753.628906 873.410156 774.875 866.566406 C 792.460938 860.902344 809.074219 855.546875 820.863281 857.734375 C 848.644531 862.867188 876.15625 887.523438 896.242188 905.527344 C 898.539062 907.582031 900.746094 909.566406 902.871094 911.441406 C 911.492188 919.058594 924.65625 918.25 932.277344 909.632812 C 939.894531 901.011719 939.082031 887.847656 930.464844 880.226562 Z M 153.246094 375.21875 C 160.296875 375.617188 167.179688 376.628906 173.871094 378.152344 L 185.800781 291.667969 L 303.824219 291.667969 L 287.15625 395.832031 L 215.078125 395.832031 C 231.132812 406.503906 244.574219 420.78125 254.269531 437.5 L 280.488281 437.5 L 271.007812 496.769531 L 263.734375 542.210938 L 237.890625 703.738281 C 237.644531 705.289062 237.585938 706.824219 237.679688 708.332031 L 128.328125 708.332031 L 139.847656 624.835938 C 132.792969 624.488281 125.902344 623.527344 119.199219 622.050781 C 112.242188 620.519531 105.507812 618.410156 99.035156 615.769531 L 83.789062 726.316406 C 82.964844 732.28125 84.765625 738.3125 88.71875 742.851562 C 92.675781 747.390625 98.402344 749.996094 104.425781 749.996094 L 708.589844 749.996094 L 708.878906 749.984375 C 709.371094 749.976562 709.859375 749.957031 710.34375 749.917969 C 710.613281 749.894531 710.882812 749.855469 711.148438 749.824219 C 711.457031 749.785156 711.769531 749.746094 712.078125 749.695312 C 712.382812 749.644531 712.6875 749.578125 712.992188 749.511719 C 713.253906 749.457031 713.511719 749.394531 713.769531 749.332031 C 714.089844 749.25 714.410156 749.160156 714.726562 749.0625 L 715.050781 748.96875 L 923.382812 681.035156 C 934.148438 677.523438 940.136719 666.058594 936.871094 655.214844 L 801.691406 206.679688 L 812.566406 127.847656 C 813.386719 121.882812 811.585938 115.851562 807.632812 111.308594 C 803.675781 106.769531 797.949219 104.164062 791.925781 104.164062 L 187.761719 104.164062 C 177.355469 104.164062 168.542969 111.84375 167.121094 122.152344 L 132.136719 375.800781 C 136.722656 375.289062 141.371094 375.003906 146.089844 375.003906 C 148.492188 375.003906 150.878906 375.085938 153.246094 375.21875 Z M 371.660156 708.332031 L 279.351562 708.332031 L 299.351562 583.332031 L 391.664062 583.332031 Z M 306.019531 541.667969 L 322.683594 437.5 L 414.996094 437.5 L 398.328125 541.667969 Z M 506.167969 708.332031 L 413.855469 708.332031 L 433.859375 583.332031 L 526.167969 583.332031 Z M 440.523438 541.667969 L 457.191406 437.5 L 549.503906 437.5 L 532.835938 541.667969 Z M 690.433594 708.332031 L 548.363281 708.332031 L 568.363281 583.332031 L 707.679688 583.332031 Z M 713.425781 541.667969 L 575.027344 541.667969 L 591.695312 437.5 L 727.792969 437.5 Z M 788.027344 305.734375 L 891.101562 647.738281 L 733.777344 699.039062 L 775.265625 398.277344 Z M 638.363281 145.832031 L 768.023438 145.832031 L 759.800781 205.457031 L 759.792969 205.488281 L 753.652344 250 L 621.699219 250 Z M 615.03125 291.667969 L 747.90625 291.667969 L 733.539062 395.832031 L 598.363281 395.832031 Z M 503.859375 145.832031 L 596.167969 145.832031 L 579.503906 250 L 487.191406 250 Z M 480.523438 291.667969 L 572.835938 291.667969 L 556.167969 395.832031 L 463.855469 395.832031 Z M 368.617188 150.425781 C 368.863281 148.875 368.921875 147.339844 368.828125 145.832031 L 461.664062 145.832031 L 444.996094 250 L 352.683594 250 Z M 346.019531 291.667969 L 438.332031 291.667969 L 421.664062 395.832031 L 329.351562 395.832031 Z M 205.917969 145.832031 L 327.160156 145.832031 L 310.492188 250 L 191.550781 250 Z M 105.007812 572.488281 C 111.195312 576.007812 117.871094 578.765625 124.917969 580.609375 C 131.519531 582.335938 138.441406 583.273438 145.574219 583.316406 L 146.089844 583.332031 C 192.113281 583.332031 229.421875 546.023438 229.421875 500 C 229.421875 475.101562 218.488281 452.769531 201.175781 437.5 C 191.800781 429.230469 180.554688 423.042969 168.148438 419.640625 C 161.5625 417.839844 154.652344 416.824219 147.523438 416.707031 C 147.046875 416.699219 146.570312 416.667969 146.089844 416.667969 C 139.222656 416.667969 132.550781 417.515625 126.167969 419.082031 C 125.925781 419.144531 125.679688 419.191406 125.433594 419.253906 C 89.40625 428.441406 62.761719 461.109375 62.761719 500 C 62.761719 531.078125 79.789062 558.164062 105.007812 572.488281 Z M 105.007812 572.488281"/></svg>