<svg xmlns="http://www.w3.org/2000/svg" width="1000pt" height="1000pt" viewBox="0 0 1000 1000"><path d="M 160.542969 568.265625 C 198.242188 594.664062 250.203125 585.496094 276.601562 547.800781 C 303 510.097656 293.835938 458.136719 256.136719 431.738281 C 218.4375 405.339844 166.476562 414.503906 140.078125 452.203125 C 113.679688 489.902344 122.839844 541.863281 160.542969 568.265625 Z M 225.351562 511.910156 C 236.152344 496.484375 250.800781 485.328125 267.101562 478.785156 C 269.535156 485.550781 270.789062 492.691406 270.804688 499.882812 C 259.773438 505.113281 249.902344 513.164062 242.414062 523.859375 C 234.917969 534.566406 230.730469 546.601562 229.589844 558.765625 C 222.828125 561.210938 215.691406 562.480469 208.5 562.511719 C 209.066406 544.941406 214.539062 527.347656 225.351562 511.910156 Z M 145.816406 500.082031 C 156.851562 494.851562 166.722656 486.800781 174.210938 476.101562 C 181.699219 465.414062 185.886719 453.394531 187.03125 441.242188 C 193.792969 438.796875 200.933594 437.535156 208.125 437.503906 C 207.550781 455.050781 202.078125 472.628906 191.277344 488.054688 C 180.46875 503.488281 165.808594 514.644531 149.503906 521.1875 C 147.078125 514.417969 145.828125 507.273438 145.816406 500.082031 Z M 394.042969 749.785156 C 410.414062 749.785156 425.535156 753.300781 439.308594 758.082031 L 484.746094 693.191406 C 492.054688 682.757812 492.074219 669.421875 485.914062 659.164062 L 649.648438 593.320312 C 669.519531 592.65625 689.929688 589.347656 710.519531 583.308594 C 775.488281 564.261719 834.730469 520.265625 877.328125 459.421875 C 919.929688 398.582031 941.011719 327.867188 936.691406 260.304688 C 932.257812 190.996094 901.796875 133.214844 850.921875 97.589844 C 800.054688 61.96875 735.332031 53.109375 668.691406 72.648438 C 603.722656 91.699219 544.484375 135.695312 501.882812 196.535156 C 459.285156 257.371094 438.203125 328.089844 442.523438 395.652344 C 443.894531 417.078125 447.761719 437.394531 453.941406 456.304688 L 448.066406 632.660156 C 436.320312 630.375 423.792969 634.957031 416.488281 645.390625 L 332.839844 764.851562 C 332.585938 765.21875 332.371094 765.601562 332.136719 765.976562 C 348.109375 757.917969 366.71875 751.089844 387.890625 749.949219 C 389.917969 749.839844 391.992188 749.785156 394.042969 749.785156 Z M 490.421875 612.4375 L 493.273438 526.753906 C 503.542969 538.625 515.238281 549.230469 528.285156 558.363281 C 541.335938 567.503906 555.308594 574.855469 569.984375 580.441406 Z M 536.011719 220.433594 C 587.953125 146.253906 665.632812 104.226562 736.636719 104.226562 C 769.210938 104.226562 800.386719 113.074219 827.023438 131.722656 C 867.320312 159.9375 891.496094 206.546875 895.105469 262.960938 C 898.824219 321.121094 880.390625 382.402344 843.195312 435.523438 C 792.121094 508.464844 716.167969 550.3125 646.140625 551.691406 C 645.785156 551.679688 645.429688 551.691406 645.074219 551.699219 C 611.589844 552.164062 579.5 543.359375 552.183594 524.234375 C 524.890625 505.121094 505.652344 478.007812 494.632812 446.421875 C 494.507812 446.046875 494.386719 445.675781 494.238281 445.3125 C 471.597656 379.039062 484.945312 293.363281 536.011719 220.433594 Z M 930.464844 880.226562 C 928.410156 878.410156 926.269531 876.488281 924.050781 874.5 C 900.285156 853.195312 867.730469 824.023438 828.429688 816.761719 C 806.292969 812.671875 783.828125 819.910156 762.097656 826.90625 C 745.050781 832.394531 727.433594 838.078125 713.683594 836.511719 C 701.957031 835.179688 688.488281 826.738281 674.226562 817.804688 C 655.585938 806.121094 634.457031 792.882812 609.882812 791.554688 C 586.917969 790.316406 565.765625 800.230469 545.304688 809.820312 C 528.878906 817.519531 513.363281 824.792969 500.003906 824.792969 C 486.640625 824.792969 471.128906 817.519531 454.703125 809.820312 C 434.242188 800.230469 413.089844 790.320312 390.125 791.554688 C 365.550781 792.882812 344.421875 806.121094 325.777344 817.800781 C 311.515625 826.738281 298.046875 835.179688 286.3125 836.511719 C 272.5625 838.066406 254.941406 832.394531 237.898438 826.910156 C 216.164062 819.910156 193.699219 812.675781 171.566406 816.761719 C 132.5625 823.964844 103.300781 850.101562 77.488281 873.152344 C 74.824219 875.539062 72.183594 877.890625 69.566406 880.199219 C 60.929688 887.804688 60.097656 900.972656 67.703125 909.605469 C 71.820312 914.277344 77.566406 916.667969 83.34375 916.667969 C 88.234375 916.667969 93.148438 914.953125 97.105469 911.464844 C 99.792969 909.097656 102.507812 906.675781 105.242188 904.230469 C 128.039062 883.871094 151.609375 862.820312 179.132812 857.738281 C 190.941406 855.550781 207.542969 860.90625 225.121094 866.570312 C 246.371094 873.410156 268.347656 880.484375 291.011719 877.914062 C 312.148438 875.511719 330.324219 864.121094 347.902344 853.109375 C 363.660156 843.234375 378.546875 833.90625 392.375 833.160156 C 404.835938 832.492188 420.488281 839.800781 437.019531 847.546875 C 456.855469 856.84375 477.359375 866.457031 500.003906 866.457031 C 522.644531 866.457031 543.152344 856.84375 562.988281 847.546875 C 579.511719 839.800781 595.078125 832.496094 607.632812 833.160156 C 621.457031 833.90625 636.339844 843.234375 652.101562 853.109375 C 669.679688 864.121094 687.855469 875.511719 708.988281 877.914062 C 731.644531 880.480469 753.625 873.410156 774.875 866.566406 C 792.457031 860.902344 809.066406 855.546875 820.863281 857.734375 C 848.644531 862.867188 876.15625 887.523438 896.242188 905.527344 C 898.539062 907.582031 900.746094 909.566406 902.871094 911.441406 C 911.492188 919.058594 924.65625 918.253906 932.277344 909.632812 C 939.894531 901.011719 939.085938 887.847656 930.464844 880.226562 Z M 930.464844 880.226562"/></svg>