<svg xmlns="http://www.w3.org/2000/svg" width="1000pt" height="1000pt" viewBox="0 0 1000 1000"><path d="M 278.191406 528.921875 L 262.714844 509.695312 L 220.632812 569.796875 L 243.988281 577.765625 C 271.160156 581.796875 291.269531 553.078125 278.191406 528.921875 Z M 194.703125 425.214844 L 164.371094 432.210938 L 168.320312 462.957031 L 139.277344 468.050781 L 144.394531 497.066406 L 114.183594 503.886719 L 117.984375 534.78125 L 200.101562 562.792969 L 249.113281 492.796875 Z M 914.480469 243.019531 C 906.148438 197.753906 874.378906 157.917969 811.472656 113.871094 C 749.386719 70.402344 701.660156 55.511719 656.714844 65.585938 C 610.242188 76.011719 566.839844 113.046875 515.988281 185.675781 C 467.800781 254.492188 430.316406 337.664062 415.714844 408.15625 C 409.015625 440.511719 406.9375 470.039062 409.378906 496.429688 L 340.097656 743.863281 C 329.199219 742.753906 318.039062 747.402344 311.308594 757.015625 L 227.664062 876.476562 C 217.765625 890.613281 221.199219 910.097656 235.335938 919.996094 L 252.402344 931.945312 C 266.539062 941.847656 286.027344 938.410156 295.925781 924.269531 L 379.574219 804.8125 C 384.3125 798.042969 385.964844 790.046875 384.878906 782.460938 L 602.363281 627.585938 C 626.832031 620.546875 652.527344 608.679688 679.183594 591.945312 C 740.867188 553.214844 804.886719 490.097656 854.824219 418.78125 C 904.53125 347.792969 923.484375 291.945312 914.480469 243.019531 Z M 387.382812 729.527344 L 432.242188 569.308594 C 442.101562 585.34375 454.980469 599.019531 470.855469 610.136719 C 487.046875 621.476562 504.652344 628.953125 523.472656 632.617188 Z M 820.691406 394.886719 C 774.515625 460.828125 713.332031 521.304688 657.023438 556.660156 C 611.351562 585.335938 546.117188 611.96875 494.753906 576.003906 C 469.15625 558.078125 455.863281 530.84375 451.652344 498.445312 C 451.835938 495.917969 451.535156 493.4375 450.84375 491.089844 C 443.503906 406.101562 494.417969 289.121094 550.113281 209.574219 C 593.964844 146.949219 630.734375 114.117188 665.832031 106.246094 C 671.84375 104.898438 677.96875 104.207031 684.285156 104.207031 C 712.609375 104.207031 744.757812 118.023438 787.570312 148.003906 C 840.800781 185.277344 867.304688 216.90625 873.5 250.5625 C 880.355469 287.785156 863.574219 333.640625 820.691406 394.886719 Z M 820.691406 394.886719"/></svg>