<svg xmlns="http://www.w3.org/2000/svg" width="1000pt" height="1000pt" viewBox="0 0 1000 1000"><path d="M 937.335938 557.867188 C 937.328125 547.851562 933.417969 538.433594 926.328125 531.359375 C 919.246094 524.292969 909.84375 520.402344 899.839844 520.402344 L 899.796875 520.402344 L 99.796875 521.269531 C 89.777344 521.277344 80.367188 525.191406 73.292969 532.28125 C 66.214844 539.371094 62.328125 548.792969 62.335938 558.808594 L 62.726562 917.136719 C 62.738281 928.636719 72.058594 937.949219 83.558594 937.949219 L 83.582031 937.949219 C 95.085938 937.933594 104.402344 928.597656 104.390625 917.089844 L 104.324219 854.167969 L 895.992188 854.167969 L 896.058594 916.238281 C 896.070312 927.738281 905.394531 937.050781 916.890625 937.046875 L 916.914062 937.046875 C 928.417969 937.035156 937.738281 927.699219 937.726562 916.191406 Z M 375.011719 562.636719 L 479.167969 562.527344 L 479.167969 666.667969 L 375.011719 666.667969 Z M 229.167969 562.796875 L 333.347656 562.683594 L 333.347656 666.667969 L 229.167969 666.667969 Z M 104.011719 562.933594 L 187.5 562.839844 L 187.5 666.667969 L 104.121094 666.667969 Z M 104.277344 812.5 L 104.167969 708.332031 L 187.5 708.332031 L 187.5 812.457031 L 187.503906 812.5 Z M 229.164062 812.5 L 229.167969 812.457031 L 229.167969 708.332031 L 333.347656 708.332031 L 333.347656 812.5 Z M 375.011719 812.5 L 375.011719 708.332031 L 479.167969 708.332031 L 479.167969 812.5 Z M 520.832031 812.5 L 520.832031 708.332031 L 625 708.332031 L 625 812.457031 L 625.003906 812.5 Z M 625 562.496094 L 625 666.667969 L 520.832031 666.667969 L 520.832031 562.480469 L 625.007812 562.367188 Z M 666.664062 812.5 L 666.667969 812.457031 L 666.667969 708.332031 L 770.863281 708.332031 L 770.863281 812.457031 L 770.867188 812.5 Z M 770.863281 562.496094 L 770.863281 666.667969 L 666.667969 666.667969 L 666.667969 562.496094 L 666.660156 562.324219 L 770.878906 562.210938 Z M 895.675781 562.074219 L 895.789062 666.667969 L 812.527344 666.667969 L 812.527344 562.496094 L 812.511719 562.164062 Z M 812.527344 812.5 L 812.527344 708.332031 L 895.832031 708.332031 L 895.949219 812.5 Z M 554.109375 274.480469 L 445.921875 274.480469 C 438.414062 274.480469 431.765625 279.292969 429.445312 286.421875 L 396.039062 389.308594 C 393.71875 396.441406 396.246094 404.230469 402.304688 408.660156 L 489.824219 472.222656 C 495.878906 476.652344 504.117188 476.652344 510.179688 472.222656 L 597.660156 408.660156 C 603.753906 404.230469 606.28125 396.441406 603.960938 389.308594 L 570.554688 286.421875 C 568.234375 279.292969 561.585938 274.480469 554.109375 274.480469 Z M 307.433594 479.167969 L 325.929688 432.136719 C 328.398438 425.824219 326.523438 418.636719 321.273438 414.324219 L 236.097656 344.566406 C 241.609375 296.480469 260.011719 252.253906 287.753906 215.445312 L 360.773438 214.878906 C 366.648438 214.847656 372.023438 211.472656 374.648438 206.160156 L 415.628906 123.109375 C 442.144531 114.203125 470.519531 109.378906 500 109.378906 C 529.480469 109.378906 557.855469 114.203125 584.371094 123.109375 L 625.378906 206.160156 C 627.972656 211.472656 633.347656 214.847656 639.253906 214.878906 L 712.246094 215.445312 C 739.984375 252.253906 758.390625 296.476562 763.902344 344.566406 L 678.722656 414.324219 C 673.472656 418.636719 671.597656 425.824219 674.066406 432.136719 L 692.558594 479.167969 L 794.703125 479.167969 C 806.222656 446.582031 812.511719 411.535156 812.511719 375.011719 C 812.511719 202.410156 672.570312 62.5 500 62.5 C 327.398438 62.5 187.488281 202.410156 187.488281 375.011719 C 187.488281 411.535156 193.777344 446.582031 205.292969 479.167969 Z M 307.433594 479.167969"/></svg>