<svg xmlns="http://www.w3.org/2000/svg" width="1000pt" height="1000pt" viewBox="0 0 1000 1000"><path d="M 202.015625 707.847656 C 202.839844 707.894531 203.675781 707.921875 204.515625 707.921875 L 393.714844 707.921875 C 404.027344 707.921875 406.558594 693.625 396.890625 690.027344 L 396.367188 689.832031 C 322.316406 662.246094 250.953125 626.476562 184.261719 583.503906 C 183.1875 582.8125 182.121094 582.121094 181.0625 581.433594 C 174.855469 577.398438 166.667969 581.859375 166.667969 589.257812 L 166.667969 669.214844 C 166.667969 689.300781 181.960938 706.65625 202.015625 707.847656 Z M 935.042969 589.644531 C 922.792969 554.402344 887.445312 529.128906 848.121094 529.128906 C 660.441406 529.128906 504.238281 395.554688 468.722656 218.3125 L 468.648438 217.945312 C 464.933594 200.078125 448.820312 187.5 430.570312 187.5 L 207.941406 187.5 C 185.144531 187.5 166.667969 205.980469 166.667969 228.773438 L 166.667969 512.613281 C 166.667969 518.070312 169.335938 523.167969 173.808594 526.292969 C 184.238281 533.59375 195.238281 541.007812 206.828125 548.476562 C 271.972656 590.445312 364.089844 639.171875 479.167969 673.320312 L 479.167969 770.832031 L 84.046875 770.832031 C 72.953125 770.832031 63.261719 779.207031 62.546875 790.28125 C 61.757812 802.414062 71.367188 812.5 83.332031 812.5 L 916.667969 812.5 C 928.171875 812.5 937.5 803.171875 937.5 791.667969 L 937.5 604.527344 C 937.5 599.464844 936.703125 594.425781 935.042969 589.644531 Z M 895.832031 754.167969 C 895.832031 763.371094 888.371094 770.832031 879.167969 770.832031 L 520.832031 770.832031 L 520.832031 684.769531 C 554.128906 693.175781 589.132812 700.277344 625.785156 705.613281 C 636.425781 707.164062 647.179688 707.917969 657.933594 707.917969 L 879.167969 707.917969 C 888.371094 707.917969 895.832031 715.378906 895.832031 724.582031 Z M 895.832031 754.167969"/></svg>