<svg xmlns="http://www.w3.org/2000/svg" width="1000pt" height="1000pt" viewBox="0 0 1000 1000"><path d="M 936.960938 371.824219 C 932.527344 302.519531 902.070312 244.734375 851.195312 209.113281 C 800.328125 173.488281 735.605469 164.632812 668.964844 184.171875 C 603.996094 203.21875 544.757812 247.214844 502.15625 308.054688 C 459.554688 368.894531 438.476562 439.609375 442.796875 507.171875 C 444.167969 528.597656 448.035156 548.917969 454.210938 567.824219 L 448.335938 744.179688 C 436.589844 741.894531 424.066406 746.480469 416.761719 756.910156 L 333.113281 876.371094 C 323.214844 890.507812 326.648438 909.996094 340.789062 919.894531 L 357.855469 931.84375 C 371.992188 941.742188 391.476562 938.308594 401.378906 924.167969 L 485.023438 804.707031 C 492.328125 794.273438 492.351562 780.9375 486.191406 770.679688 L 649.925781 704.832031 C 669.796875 704.171875 690.207031 700.863281 710.796875 694.824219 C 775.765625 675.777344 835.007812 631.78125 877.605469 570.941406 C 920.203125 510.105469 941.285156 439.386719 936.960938 371.824219 Z M 490.699219 723.957031 L 493.550781 638.273438 C 503.820312 650.144531 515.511719 660.746094 528.5625 669.886719 C 541.613281 679.023438 555.585938 686.371094 570.257812 691.960938 Z M 843.472656 547.046875 C 792.394531 619.984375 716.441406 661.832031 646.414062 663.210938 C 646.058594 663.199219 645.703125 663.210938 645.347656 663.222656 C 611.867188 663.683594 579.773438 654.882812 552.457031 635.753906 C 525.164062 616.640625 505.925781 589.527344 494.902344 557.941406 C 494.777344 557.566406 494.660156 557.195312 494.511719 556.832031 C 471.867188 490.558594 485.214844 404.882812 536.285156 331.953125 C 588.230469 257.773438 665.90625 215.746094 736.910156 215.746094 C 769.488281 215.746094 800.664062 224.59375 827.296875 243.242188 C 867.59375 271.457031 891.769531 318.066406 895.382812 374.484375 C 899.101562 432.640625 880.664062 493.925781 843.472656 547.046875 Z M 400.769531 479.167969 C 403.003906 411.871094 426.363281 343.652344 468.023438 284.160156 C 516.03125 215.597656 583.230469 165.886719 657.242188 144.1875 C 667.324219 141.230469 677.425781 138.828125 687.507812 136.972656 L 687.507812 79.167969 C 687.507812 69.960938 680.042969 62.5 670.839844 62.5 L 79.171875 62.5 C 69.964844 62.5 62.507812 69.960938 62.507812 79.167969 L 62.507812 462.5 C 62.507812 471.703125 69.964844 479.167969 79.171875 479.167969 L 85.097656 479.167969 C 95.046875 420.121094 146.507812 374.992188 208.332031 374.992188 C 270.160156 374.992188 321.617188 420.121094 331.570312 479.167969 Z M 255.972656 431.734375 C 218.273438 405.335938 166.308594 414.503906 139.914062 452.199219 C 134.015625 460.621094 129.902344 469.761719 127.476562 479.164062 C 119.046875 511.847656 131.101562 547.761719 160.378906 568.261719 C 198.078125 594.660156 250.039062 585.496094 276.4375 547.796875 C 290.980469 527.027344 294.710938 501.933594 288.839844 479.167969 C 284.054688 460.609375 272.902344 443.589844 255.972656 431.734375 Z M 196.628906 479.167969 C 194.976562 482.195312 193.136719 485.160156 191.113281 488.050781 C 180.304688 503.488281 165.648438 514.644531 149.339844 521.1875 C 146.914062 514.417969 145.664062 507.273438 145.652344 500.082031 C 155.597656 495.367188 164.582031 488.335938 171.746094 479.167969 C 172.53125 478.164062 173.308594 477.15625 174.046875 476.101562 C 181.535156 465.414062 185.722656 453.390625 186.867188 441.242188 C 193.628906 438.796875 200.769531 437.535156 207.960938 437.503906 C 207.492188 451.761719 203.792969 466.039062 196.628906 479.167969 Z M 242.25 523.859375 C 234.753906 534.5625 230.566406 546.601562 229.425781 558.765625 C 222.664062 561.210938 215.523438 562.476562 208.332031 562.507812 C 208.902344 544.941406 214.371094 527.347656 225.183594 511.910156 C 235.792969 496.757812 250.125 485.753906 266.070312 479.167969 C 266.359375 479.046875 266.640625 478.902344 266.933594 478.785156 L 267.054688 479.167969 C 269.398438 485.820312 270.621094 492.824219 270.640625 499.882812 C 259.609375 505.113281 249.738281 513.164062 242.25 523.859375 Z M 242.25 523.859375"/></svg>