<svg xmlns="http://www.w3.org/2000/svg" width="1000pt" height="1000pt" viewBox="0 0 1000 1000"><path d="M 366.117188 331.867188 C 365.835938 331.6875 365.578125 331.503906 365.320312 331.316406 L 364.980469 331.070312 L 364.726562 330.894531 L 364.523438 330.761719 C 354.542969 342.796875 345.003906 355.378906 336.527344 369.117188 C 316.871094 401.039062 303.054688 435.332031 294.933594 470.582031 C 297.714844 473.480469 300.753906 476.089844 304.179688 478.285156 C 329.640625 494.609375 380.382812 470.550781 447.949219 410.429688 C 445.25 406.871094 442.433594 403.421875 439.574219 400.011719 C 438.226562 398.40625 436.882812 396.796875 435.550781 395.175781 C 415.339844 371.054688 392.179688 349.574219 366.117188 331.867188 Z M 189.230469 290.394531 C 218.746094 299.519531 238.710938 330.316406 250.261719 354.542969 C 255.964844 366.507812 260.027344 379.699219 263.644531 392.910156 C 271.222656 375.074219 280.191406 357.648438 290.570312 340.796875 C 298.652344 327.683594 307.542969 315.429688 316.796875 303.636719 C 310.632812 300.804688 304.34375 298.480469 298.015625 296.144531 C 296.878906 295.726562 295.738281 295.304688 294.597656 294.882812 C 293.265625 294.382812 291.9375 293.859375 290.605469 293.332031 C 288.007812 292.304688 285.394531 291.273438 282.742188 290.425781 C 274.730469 287.742188 266.628906 285.695312 258.484375 283.691406 C 254.804688 282.753906 251.128906 281.820312 247.414062 280.992188 C 240.257812 279.476562 233.097656 278.195312 225.929688 277.167969 C 236.375 259.941406 248.386719 243.789062 261.765625 228.890625 C 263.390625 229.285156 265.015625 229.691406 266.640625 230.097656 C 268.027344 230.449219 269.421875 230.796875 270.820312 231.136719 C 272.417969 231.527344 274.015625 231.886719 275.613281 232.246094 C 278.589844 232.917969 281.566406 233.589844 284.519531 234.4375 C 285.640625 234.769531 286.804688 235.144531 287.925781 235.515625 C 289 235.808594 290.039062 236.179688 291.078125 236.558594 C 292.003906 236.890625 292.929688 237.226562 293.882812 237.5 C 300.398438 239.539062 306.796875 241.796875 313.152344 244.132812 C 314.234375 244.53125 315.328125 244.882812 316.421875 245.234375 C 317.683594 245.640625 318.949219 246.046875 320.191406 246.523438 C 320.492188 246.648438 320.777344 246.777344 321.070312 246.910156 C 321.359375 247.039062 321.644531 247.171875 321.945312 247.292969 C 323.292969 247.824219 324.613281 248.445312 325.941406 249.070312 C 326.964844 249.554688 327.992188 250.042969 329.035156 250.484375 C 336.914062 253.804688 344.675781 257.238281 352.390625 261.085938 C 352.757812 261.265625 353.128906 261.429688 353.503906 261.59375 C 353.976562 261.800781 354.453125 262.011719 354.925781 262.253906 C 363.492188 266.617188 372.058594 271.132812 380.417969 276.203125 C 380.632812 276.328125 380.851562 276.4375 381.070312 276.550781 C 381.421875 276.726562 381.769531 276.902344 382.089844 277.121094 C 414.734375 297.246094 443.605469 322.519531 468.945312 351.089844 C 469.183594 351.363281 469.433594 351.617188 469.679688 351.867188 C 469.921875 352.113281 470.160156 352.355469 470.378906 352.605469 C 471.308594 353.648438 472.179688 354.757812 473.046875 355.867188 C 473.335938 356.238281 473.625 356.605469 473.917969 356.976562 C 478.480469 362.332031 482.917969 367.769531 487.222656 373.320312 C 524.1875 336.523438 560.234375 295.886719 589.96875 261.027344 C 526.886719 197.15625 440.164062 160.253906 348.535156 160.496094 C 383.597656 141.546875 422.511719 128.945312 463.691406 124.191406 C 524.160156 142.515625 579.503906 175.167969 624.734375 219.628906 C 628.523438 215.054688 632.09375 210.738281 635.394531 206.746094 C 646.511719 193.300781 655.289062 182.679688 660.925781 176.335938 C 679.296875 155.664062 697.921875 141.039062 715.933594 132.699219 C 657.742188 92.285156 587.554688 67.730469 511.453125 65.566406 C 353.628906 61.078125 215.664062 154.117188 155.324219 290.027344 C 166.742188 286.851562 178.089844 286.953125 189.230469 290.394531 Z M 891.507812 459.160156 C 886.730469 452.714844 881.566406 449.28125 875.257812 448.351562 C 854.832031 445.371094 824.210938 468.132812 803.957031 483.222656 C 797.882812 487.746094 792.144531 492.019531 787.042969 495.417969 C 769.097656 507.363281 751.011719 519.875 733.523438 531.972656 C 712.140625 546.765625 690.035156 562.058594 667.816406 576.582031 C 660.589844 581.304688 650.90625 579.273438 646.1875 572.050781 C 641.464844 564.828125 643.492188 555.144531 650.714844 550.425781 L 650.746094 550.402344 C 688.363281 525.804688 722.230469 492.300781 754.984375 459.894531 L 758.683594 456.238281 C 798.199219 417.179688 842.980469 372.917969 858.722656 322.609375 C 864.144531 305.285156 859.378906 283.921875 842.027344 278.160156 C 812.917969 268.488281 789.765625 292.332031 760.246094 327.066406 C 754.417969 333.925781 748.914062 340.402344 743.429688 346.164062 C 672.902344 420.289062 599.609375 475.230469 596.519531 477.535156 C 590.054688 482.363281 580.964844 481.46875 575.566406 475.46875 C 570.160156 469.46875 570.222656 460.339844 575.699219 454.410156 C 623.808594 402.335938 698.199219 317.308594 718.070312 293.824219 L 721.976562 289.230469 C 741.203125 266.652344 786.226562 213.789062 781.359375 181.050781 C 780.121094 172.71875 775.585938 166.300781 767.089844 160.855469 C 737.183594 141.679688 696.148438 183.742188 684.285156 197.097656 C 679.015625 203.023438 670.394531 213.453125 659.480469 226.65625 C 622.277344 271.660156 553.023438 355.425781 484.097656 419.761719 C 393.917969 503.9375 329.546875 531.691406 287.304688 504.585938 C 255.390625 484.117188 245.421875 446.246094 236.621094 412.835938 C 232.300781 396.425781 228.21875 380.929688 222.050781 367.992188 C 209.523438 341.714844 194.589844 324.761719 180.003906 320.253906 C 171.535156 317.640625 162.65625 319.132812 152.855469 324.828125 C 132.378906 336.734375 135.214844 377.273438 137.289062 406.871094 C 137.914062 415.753906 138.496094 424.140625 138.503906 431.46875 C 138.519531 450.527344 137.808594 471.207031 137.0625 493.101562 C 134.253906 575.253906 130.757812 677.492188 169.816406 710.304688 C 175.894531 715.410156 177.175781 724.261719 172.804688 730.882812 L 120.472656 810.09375 L 193.082031 865.832031 C 205.792969 828.492188 233.886719 797.476562 270.230469 781.488281 C 275.347656 779.238281 281.277344 779.894531 285.777344 783.203125 L 421.992188 883.386719 C 464.566406 897.488281 545.359375 874.984375 644.359375 821.316406 C 710.8125 785.292969 800.863281 724.195312 823.832031 694.125 C 824.363281 693.425781 824.957031 692.773438 825.601562 692.171875 C 825.851562 691.933594 854.203125 664.804688 841.292969 644.195312 C 824.207031 616.902344 783.042969 634.230469 717.726562 673.394531 C 703.339844 682.015625 690.917969 689.464844 681.101562 693.652344 C 673.574219 696.863281 664.847656 693.722656 661.089844 686.457031 C 657.332031 679.191406 659.820312 670.257812 666.789062 665.972656 C 724.027344 630.777344 783.222656 594.386719 834.054688 549.292969 C 837.335938 546.386719 841.082031 543.226562 845.046875 539.882812 C 879.519531 510.820312 909.011719 482.785156 891.507812 459.160156 Z M 219.878906 885.277344 L 219.648438 886.21875 L 326.308594 968.089844 L 391.203125 899.53125 L 274.878906 813.976562 C 247.519531 828.773438 227.242188 854.863281 219.878906 885.277344 Z M 219.878906 885.277344"/></svg>