<svg xmlns="http://www.w3.org/2000/svg" width="1000pt" height="1000pt" viewBox="0 0 1000 1000"><path d="M 319.113281 386.015625 C 354.148438 386.015625 382.652344 357.511719 382.652344 322.472656 C 382.652344 287.4375 354.148438 258.929688 319.113281 258.929688 C 284.074219 258.929688 255.570312 287.4375 255.570312 322.472656 C 255.570312 357.511719 284.074219 386.015625 319.113281 386.015625 Z M 419.753906 650.925781 C 400.898438 637.726562 374.921875 642.308594 361.722656 661.160156 L 281.679688 775.464844 L 94.972656 873.546875 C 72.539062 878.6875 58.527344 901.039062 63.667969 923.46875 C 68.089844 942.765625 85.253906 955.835938 104.246094 955.835938 C 107.328125 955.835938 110.457031 955.488281 113.589844 954.769531 L 315.929688 853.109375 C 327.589844 846.425781 334.832031 844.851562 340.75 836.398438 L 429.984375 708.957031 C 443.183594 690.109375 438.601562 664.125 419.753906 650.925781 Z M 791.816406 62.539062 C 751.019531 62.539062 719.460938 87.933594 710.835938 125 L 872.785156 125 C 864.164062 87.933594 832.613281 62.539062 791.816406 62.539062 Z M 662.539062 632.707031 L 439.960938 535.292969 C 418.886719 526.066406 394.308594 535.679688 385.085938 556.761719 C 375.859375 577.839844 385.472656 602.410156 406.550781 611.636719 L 604.167969 698.125 L 605.089844 914.394531 C 605.089844 937.410156 623.742188 956.0625 646.757812 956.0625 C 669.769531 956.0625 688.421875 937.410156 688.421875 914.394531 L 687.5 670.878906 C 687.5 654.324219 677.703125 639.34375 662.539062 632.707031 Z M 710.851562 166.667969 C 719.550781 203.753906 751.441406 229.128906 792.261719 229.128906 C 833.082031 229.128906 864.324219 203.753906 872.828125 166.667969 Z M 799.675781 307.871094 C 799.636719 307.519531 799.554688 307.1875 799.507812 306.839844 C 799.460938 306.523438 799.441406 306.199219 799.386719 305.882812 C 799.339844 305.597656 799.292969 305.316406 799.238281 305.039062 C 796.839844 292.082031 787.53125 280.148438 775.527344 274.671875 L 775.3125 274.558594 L 537.867188 168.179688 C 527.71875 163.628906 516.164062 163.332031 505.792969 167.351562 L 340.695312 231.261719 C 372.871094 238.875 398.699219 263.09375 408.546875 294.355469 L 519.664062 251.339844 L 579.238281 278.03125 L 460.769531 447.074219 C 453.546875 457.378906 451.367188 470.386719 454.835938 482.480469 C 458.308594 494.574219 467.054688 504.449219 478.636719 509.355469 L 596.328125 559.203125 C 601.597656 561.433594 607.113281 562.507812 612.5625 562.507812 C 625.839844 562.507812 638.726562 556.148438 646.722656 544.722656 L 729.324219 426.65625 L 745.320312 567.214844 C 747.738281 588.480469 765.761719 604.175781 786.667969 604.175781 C 788.238281 604.175781 789.832031 604.085938 791.429688 603.902344 C 814.296875 601.300781 830.722656 580.660156 828.117188 557.792969 Z M 799.675781 307.871094"/></svg>