<svg xmlns="http://www.w3.org/2000/svg" width="1000pt" height="1000pt" viewBox="0 0 1000 1000"><path d="M 351.429688 435.957031 C 494.242188 422.734375 629.269531 383.480469 751.449219 323.019531 C 782.652344 307.574219 774.425781 261.945312 739.71875 257.527344 C 603.097656 240.164062 474.15625 198.859375 357.511719 138.046875 C 346.445312 132.277344 333.214844 140.378906 333.214844 152.855469 L 333.214844 419.34375 C 333.214844 429.160156 341.660156 436.863281 351.429688 435.957031 Z M 500 708.332031 C 422.121094 708.332031 350.132812 716.472656 291.667969 730.257812 L 291.667969 83.332031 C 291.667969 71.828125 282.339844 62.5 270.835938 62.5 C 259.332031 62.5 250.003906 71.828125 250.003906 83.332031 L 250 741.757812 L 250 785.808594 C 250 797.3125 240.671875 806.640625 229.167969 806.640625 L 162.464844 806.640625 C 153.480469 806.640625 145.871094 813.769531 145.832031 822.75 L 145.832031 822.917969 C 145.832031 886.199219 304.398438 937.5 500 937.5 C 695.601562 937.5 854.167969 886.199219 854.167969 822.917969 C 854.167969 759.632812 695.601562 708.332031 500 708.332031 Z M 500 708.332031"/></svg>