<svg xmlns="http://www.w3.org/2000/svg" width="1000pt" height="1000pt" viewBox="0 0 1000 1000"><path d="M 355.019531 210.910156 L 500.136719 210.910156 L 383.066406 285.300781 C 373.527344 291.363281 366.863281 301.039062 364.597656 312.109375 C 362.328125 323.175781 364.652344 334.695312 371.042969 344.015625 L 418.03125 412.601562 C 426.085938 424.363281 439.132812 430.722656 452.441406 430.722656 C 460.089844 430.722656 467.832031 428.617188 474.75 424.222656 L 666.046875 302.683594 L 725.242188 370.046875 L 707.449219 433.496094 C 701.238281 455.65625 714.160156 478.652344 736.316406 484.867188 C 740.078125 485.921875 743.863281 486.425781 747.589844 486.425781 C 765.800781 486.425781 782.527344 474.394531 787.683594 456 L 811.585938 370.777344 C 815.394531 357.199219 812.074219 342.613281 802.765625 332.019531 L 635.542969 141.738281 C 627.632812 132.734375 616.226562 127.574219 604.242188 127.574219 L 409.007812 127.574219 L 350.90625 210.699219 C 352.257812 210.832031 353.632812 210.910156 355.019531 210.910156 Z M 86.316406 363.796875 L 195.636719 440.136719 C 203.179688 445.402344 213.566406 443.5625 218.839844 436.015625 L 235.546875 412.109375 C 240.824219 404.5625 238.976562 394.167969 231.425781 388.894531 L 193.855469 362.664062 L 384.734375 89.570312 C 391.328125 80.140625 389.027344 67.152344 379.59375 60.558594 C 370.164062 53.964844 357.171875 56.269531 350.582031 65.703125 L 159.695312 338.808594 L 122.109375 312.5625 C 114.566406 307.292969 104.175781 309.136719 98.902344 316.679688 L 82.195312 340.585938 C 76.921875 348.132812 78.765625 358.527344 86.316406 363.796875 Z M 720.160156 171.792969 C 754.238281 195.621094 796.386719 187.964844 820.253906 153.9375 C 844.117188 119.910156 836.621094 77.480469 802.542969 53.652344 C 768.460938 29.824219 725.953125 37.300781 702.089844 71.328125 C 678.226562 105.359375 686.074219 147.964844 720.160156 171.792969 Z M 204.261719 854.492188 C 293.863281 854.492188 366.761719 781.597656 366.761719 691.992188 C 366.761719 602.390625 293.863281 529.492188 204.261719 529.492188 C 114.65625 529.492188 41.761719 602.390625 41.761719 691.992188 C 41.761719 781.597656 114.660156 854.492188 204.261719 854.492188 Z M 204.261719 571.160156 C 270.886719 571.160156 325.09375 625.367188 325.09375 691.992188 C 325.09375 758.621094 270.886719 812.828125 204.261719 812.828125 C 137.632812 812.828125 83.425781 758.621094 83.425781 691.992188 C 83.425781 625.367188 137.632812 571.160156 204.261719 571.160156 Z M 633.425781 691.992188 C 633.425781 781.597656 706.324219 854.492188 795.925781 854.492188 C 885.53125 854.492188 958.425781 781.597656 958.425781 691.992188 C 958.425781 602.390625 885.53125 529.492188 795.925781 529.492188 C 706.324219 529.492188 633.425781 602.390625 633.425781 691.992188 Z M 916.761719 691.992188 C 916.761719 758.621094 862.554688 812.828125 795.925781 812.828125 C 729.300781 812.828125 675.09375 758.621094 675.09375 691.992188 C 675.09375 625.367188 729.300781 571.160156 795.925781 571.160156 C 862.554688 571.160156 916.761719 625.367188 916.761719 691.992188 Z M 629.738281 515.679688 L 567.867188 449.960938 C 552.101562 433.207031 525.726562 432.410156 508.96875 448.183594 C 492.214844 463.957031 491.417969 490.328125 507.195312 507.082031 L 545.550781 547.828125 L 485.855469 631.0625 L 391.535156 442.285156 C 381.246094 421.703125 356.230469 413.347656 335.636719 423.636719 C 315.050781 433.921875 306.703125 458.945312 316.988281 479.535156 L 441.945312 729.636719 L 441.996094 729.742188 L 483.652344 813.113281 C 490.953125 827.722656 505.667969 836.167969 520.957031 836.167969 C 527.214844 836.167969 533.570312 834.75 539.550781 831.765625 C 560.136719 821.476562 568.484375 796.453125 558.199219 775.867188 L 527.957031 715.339844 L 633.257812 568.527344 C 644.871094 552.335938 643.394531 530.1875 629.738281 515.679688 Z M 916.667969 895.832031 L 83.332031 895.832031 C 71.828125 895.832031 62.5 905.164062 62.5 916.667969 C 62.5 928.171875 71.828125 937.5 83.332031 937.5 L 916.667969 937.5 C 928.171875 937.5 937.5 928.171875 937.5 916.667969 C 937.5 905.164062 928.171875 895.832031 916.667969 895.832031 Z M 916.667969 895.832031"/></svg>