<svg xmlns="http://www.w3.org/2000/svg" width="1000pt" height="1000pt" viewBox="0 0 1000 1000"><path d="M 866.515625 151.503906 C 855.292969 138.546875 840.789062 130.152344 823.878906 126.746094 C 812.878906 124.53125 796.921875 122.578125 789.398438 133.140625 C 729.222656 217.695312 475.527344 586.804688 412.542969 639.886719 C 355.277344 688.148438 281.164062 704.832031 210.183594 721.820312 C 190.328125 726.570312 171.367188 732.59375 167.171875 755.421875 C 146.683594 866.898438 377.980469 928.988281 431.746094 812.019531 C 444.117188 785.105469 449.011719 755.949219 456.023438 727.433594 C 466.480469 684.929688 482.011719 644.773438 507.152344 608.871094 L 794.070312 199.109375 C 806.347656 181.578125 829.519531 180.226562 849.355469 182.609375 C 857.152344 183.550781 868.949219 184.910156 873.941406 177.277344 C 879.273438 169.140625 871.820312 157.632812 866.515625 151.503906 Z M 291.667969 500 C 291.667969 453.972656 254.359375 416.660156 208.332031 416.660156 C 162.308594 416.660156 125 453.972656 125 500 C 125 546.027344 162.308594 583.339844 208.332031 583.339844 C 254.359375 583.339844 291.667969 546.027344 291.667969 500 Z M 291.667969 500"/></svg>