<svg xmlns="http://www.w3.org/2000/svg" width="1000pt" height="1000pt" viewBox="0 0 1000 1000"><path d="M 926.730469 128.769531 C 917.3125 122.171875 904.316406 124.460938 897.714844 133.886719 L 466.675781 748.773438 C 461.980469 755.476562 453.117188 757.777344 445.757812 754.214844 L 130.332031 601.457031 C 124.667969 598.710938 118.066406 598.679688 112.367188 601.363281 C 106.675781 604.046875 102.5 609.160156 101.011719 615.277344 L 63.089844 724.132812 C 60.59375 734.390625 66.164062 744.894531 76.054688 748.582031 L 411.355469 873.582031 C 413.738281 874.472656 416.195312 874.898438 418.628906 874.898438 C 425.277344 874.898438 431.710938 871.703125 435.699219 866.011719 L 931.847656 157.78125 C 938.449219 148.359375 936.15625 135.367188 926.730469 128.769531 Z M 843.75 812.5 L 739.585938 812.5 C 722.328125 812.5 708.335938 826.492188 708.335938 843.75 C 708.335938 861.007812 722.328125 875 739.585938 875 L 843.75 875 C 861.011719 875 875 861.007812 875 843.75 C 875 826.492188 861.011719 812.5 843.75 812.5 Z M 843.75 812.5"/></svg>