<svg xmlns="http://www.w3.org/2000/svg" width="1000pt" height="1000pt" viewBox="0 0 1000 1000"><path d="M 836.242188 201.371094 C 817.390625 188.171875 791.410156 192.757812 778.214844 211.605469 L 706.519531 313.996094 L 569.863281 218.3125 L 569.855469 218.304688 L 535.859375 194.503906 C 517.015625 181.304688 491.042969 185.878906 477.839844 204.71875 L 334.382812 409.417969 C 328.039062 418.472656 325.550781 429.671875 327.464844 440.554688 C 329.382812 451.4375 335.546875 461.117188 344.597656 467.457031 L 447.058594 539.230469 C 454.113281 544.167969 462.464844 546.769531 470.964844 546.769531 C 473.371094 546.769531 475.792969 546.558594 478.195312 546.136719 C 489.082031 544.21875 498.757812 538.054688 505.097656 529 L 624.589844 358.355469 L 692.855469 406.152344 C 699.90625 411.089844 708.261719 413.691406 716.753906 413.691406 C 719.164062 413.691406 721.585938 413.480469 723.988281 413.054688 C 734.871094 411.136719 744.546875 404.972656 750.886719 395.921875 L 846.480469 259.394531 C 859.675781 240.550781 855.09375 214.570312 836.242188 201.371094 Z M 549.769531 666.996094 C 546.710938 661.589844 542.484375 656.933594 537.394531 653.367188 L 320.769531 501.6875 C 301.917969 488.484375 275.9375 493.070312 262.742188 511.917969 C 249.542969 530.769531 254.121094 556.753906 272.972656 569.949219 L 481.867188 716.214844 L 605.667969 935.265625 C 613.328125 948.820312 627.445312 956.4375 641.980469 956.4375 C 648.921875 956.433594 655.964844 954.699219 662.441406 951.035156 C 682.476562 939.710938 689.539062 914.292969 678.210938 894.261719 Z M 317.332031 651.878906 C 298.480469 638.679688 272.496094 643.261719 259.300781 662.113281 L 99.058594 890.992188 C 85.859375 909.847656 90.441406 935.828125 109.292969 949.023438 C 116.566406 954.113281 124.902344 956.558594 133.152344 956.558594 C 146.289062 956.558594 159.21875 950.363281 167.324219 938.789062 L 327.566406 709.910156 C 340.765625 691.054688 336.183594 665.074219 317.332031 651.878906 Z M 594.300781 184.472656 C 633.679688 212.046875 682.375 203.1875 709.949219 163.808594 C 737.523438 124.429688 728.867188 75.328125 689.488281 47.753906 C 650.109375 20.179688 601 28.832031 573.425781 68.210938 C 545.851562 107.589844 554.921875 156.898438 594.300781 184.472656 Z M 594.300781 184.472656"/></svg>