<svg xmlns="http://www.w3.org/2000/svg" width="1000pt" height="1000pt" viewBox="0 0 1000 1000"><path d="M 894.777344 691.097656 C 852.003906 691.519531 780.546875 681.222656 714.960938 620.371094 C 708.246094 614.148438 697.839844 614.402344 691.496094 621.003906 C 665.210938 648.351562 633.957031 670.136719 599.273438 684.585938 C 588.261719 689.171875 585.359375 703.382812 593.800781 711.800781 C 605.585938 723.566406 622.472656 738.445312 645.007812 753.808594 C 602.34375 777.671875 552.925781 791.566406 500.003906 791.566406 C 447.078125 791.566406 397.660156 777.671875 354.992188 753.804688 C 377.527344 738.4375 394.414062 723.554688 406.203125 711.792969 C 414.644531 703.375 411.738281 689.171875 400.734375 684.589844 C 366.035156 670.144531 334.78125 648.363281 308.515625 621.015625 C 302.171875 614.410156 291.753906 614.148438 285.039062 620.382812 C 219.457031 681.222656 148.007812 691.519531 105.230469 691.09375 C 90.378906 690.957031 82.066406 707.464844 90.957031 718.863281 L 167.710938 817.296875 C 172.011719 822.789062 179.457031 825.429688 186.429688 823.933594 C 220.914062 816.554688 251.253906 806.652344 277.734375 795.539062 C 330.789062 856.792969 410.640625 895.832031 500.007812 895.832031 C 589.378906 895.832031 669.234375 856.789062 722.246094 795.527344 C 748.734375 806.648438 779.085938 816.554688 813.578125 823.9375 C 820.554688 825.433594 827.996094 822.789062 832.261719 817.296875 L 909.019531 718.867188 C 917.941406 707.464844 909.632812 690.957031 894.777344 691.097656 Z M 250.746094 395.832031 C 251.757812 410.058594 253.789062 423.976562 256.746094 437.5 C 259.886719 451.863281 264.078125 465.789062 269.230469 479.167969 C 274.847656 493.742188 281.59375 507.679688 289.367188 520.832031 C 298.210938 535.792969 308.378906 549.742188 319.679688 562.5 C 365.171875 613.859375 429.140625 645.832031 500 645.832031 C 553.265625 645.832031 602.636719 627.757812 643.191406 596.96875 C 656.675781 586.8125 669.195312 575.261719 680.566406 562.5 C 691.929688 549.746094 702.152344 535.800781 711.046875 520.832031 C 718.863281 507.679688 725.65625 493.746094 731.304688 479.167969 C 736.488281 465.789062 740.699219 451.867188 743.859375 437.5 C 746.835938 423.976562 748.886719 410.058594 749.90625 395.832031 L 750 395.832031 L 750 394.460938 C 750.441406 387.882812 750.675781 381.234375 750.675781 374.535156 C 750.675781 367.832031 750.441406 361.183594 750 354.605469 L 750 354.167969 L 749.972656 354.167969 C 748.996094 339.945312 747 326.027344 744.070312 312.5 C 740.960938 298.136719 736.789062 284.214844 731.660156 270.832031 C 726.070312 256.261719 719.351562 242.324219 711.597656 229.167969 C 702.792969 214.214844 692.675781 200.261719 681.414062 187.5 C 635.828125 135.847656 571.554688 103.671875 500.339844 103.671875 L 500 103.671875 C 428.910156 103.671875 364.753906 135.847656 319.230469 187.5 C 310.269531 197.667969 302.042969 208.601562 294.617188 220.183594 C 292.71875 223.136719 290.867188 226.128906 289.078125 229.167969 C 281.328125 242.324219 274.605469 256.261719 269.019531 270.832031 C 263.890625 284.214844 259.714844 298.136719 256.605469 312.5 C 253.675781 326.027344 251.679688 339.945312 250.703125 354.167969 C 250.238281 360.890625 250 367.679688 250 374.53125 L 250.003906 374.640625 L 250 374.753906 C 250 381.847656 250.253906 388.875 250.746094 395.832031 Z M 520.832031 146.480469 C 557.824219 150.460938 592.019531 165.050781 620.820312 187.5 L 520.832031 187.5 Z M 520.832031 229.167969 L 661.550781 229.167969 C 671.140625 241.972656 679.488281 255.933594 686.398438 270.832031 L 520.832031 270.832031 Z M 520.832031 312.5 L 701.238281 312.5 C 704.679688 325.929688 707.023438 339.863281 708.175781 354.167969 L 520.832031 354.167969 Z M 520.832031 395.832031 L 708.101562 395.832031 C 706.894531 410.140625 704.5 424.074219 701.003906 437.5 L 520.832031 437.5 Z M 520.832031 479.167969 L 685.964844 479.167969 C 678.96875 494.078125 670.523438 508.039062 660.839844 520.832031 L 520.832031 520.832031 Z M 520.832031 562.5 L 619.59375 562.5 C 591.050781 584.414062 557.300781 598.660156 520.832031 602.585938 Z M 479.167969 602.515625 C 442.960938 598.480469 409.449219 584.277344 381.082031 562.5 L 479.167969 562.5 Z M 479.167969 520.832031 L 339.835938 520.832031 C 330.152344 508.039062 321.710938 494.078125 314.710938 479.167969 L 479.167969 479.167969 Z M 479.167969 437.5 L 299.675781 437.5 C 296.179688 424.074219 293.785156 410.140625 292.578125 395.832031 L 479.167969 395.832031 Z M 479.167969 146.550781 L 479.167969 187.5 L 379.855469 187.5 C 408.480469 165.191406 442.4375 150.640625 479.167969 146.550781 Z M 339.128906 229.167969 L 479.167969 229.167969 L 479.167969 270.832031 L 314.277344 270.832031 C 321.191406 255.933594 329.539062 241.972656 339.128906 229.167969 Z M 299.4375 312.5 L 479.167969 312.5 L 479.167969 354.167969 L 292.5 354.167969 C 293.652344 339.863281 295.996094 325.929688 299.4375 312.5 Z M 299.4375 312.5"/></svg>