<svg xmlns="http://www.w3.org/2000/svg" width="1000pt" height="1000pt" viewBox="0 0 1000 1000"><path d="M 85.679688 540.847656 C 81.492188 541.71875 77.570312 542.566406 73.96875 543.382812 C 65.753906 545.242188 60.226562 552.902344 61.027344 561.292969 C 69.238281 647.359375 109.007812 814.425781 292.464844 843.296875 C 311.402344 845.660156 330.558594 847.046875 349.636719 847.597656 C 394.582031 848.890625 439.050781 845.570312 478.988281 839.507812 C 515.265625 833.996094 558.976562 828.722656 559.660156 782.472656 C 559.898438 766.257812 560.257812 748.253906 560.792969 731.855469 L 246.703125 512.332031 C 200.285156 520.148438 128.777344 531.863281 85.679688 540.847656 Z M 963.136719 360.664062 L 711.535156 184.503906 C 697.917969 174.96875 681.695312 169.855469 665.074219 169.851562 C 662.980469 169.851562 660.996094 168.929688 659.738281 167.261719 L 615.324219 108.265625 C 608.554688 101.410156 596.878906 106.203125 596.878906 115.835938 L 596.878906 155.800781 C 596.878906 163.863281 590.949219 170.699219 582.964844 171.839844 L 403.972656 197.410156 C 395.511719 198.617188 394.445312 210.410156 402.550781 213.113281 L 465.265625 241.226562 C 472.296875 244.378906 471.371094 254.644531 463.890625 256.484375 L 431.535156 264.453125 C 423.445312 266.070312 422.660156 277.328125 430.449219 280.046875 L 447.261719 294.714844 C 450.367188 297.425781 450.945312 302.027344 448.582031 305.402344 C 434.273438 325.863281 385.582031 395.496094 344.757812 453.773438 L 580.425781 618.492188 C 594.863281 560.222656 611.609375 488.914062 621.273438 447.421875 C 594.933594 429.175781 568.929688 403.28125 550.757812 366.691406 C 546.777344 358.675781 550.046875 348.949219 558.066406 344.972656 C 566.082031 340.988281 575.808594 344.261719 579.785156 352.277344 C 592.910156 378.710938 611.226562 398.679688 630.519531 413.695312 C 668.886719 439.039062 754.246094 425.878906 790.738281 418.65625 C 802.34375 416.359375 814.351562 417.355469 825.453125 421.4375 C 862.695312 435.128906 908.59375 450.316406 940.703125 425.304688 C 953.390625 415.421875 982.855469 374.46875 963.136719 360.664062 Z M 830.992188 755.847656 L 807.1875 738.988281 C 799.675781 733.667969 789.269531 735.449219 783.953125 742.964844 L 757.484375 780.378906 L 123.320312 337.132812 C 113.929688 330.484375 100.929688 332.703125 94.28125 342.097656 C 87.628906 351.484375 89.851562 364.488281 99.242188 371.136719 L 733.421875 814.390625 L 706.949219 851.816406 C 701.632812 859.324219 703.414062 869.726562 710.921875 875.042969 L 734.726562 891.894531 C 742.238281 897.214844 752.644531 895.433594 757.960938 887.921875 L 834.96875 779.074219 C 840.28125 771.558594 838.503906 761.160156 830.992188 755.847656 Z M 830.992188 755.847656"/></svg>