<svg xmlns="http://www.w3.org/2000/svg" width="1000pt" height="1000pt" viewBox="0 0 1000 1000"><path d="M 914.511719 494.203125 C 903.410156 478.355469 881.476562 474.597656 865.71875 485.949219 C 850.1875 497.140625 847.324219 518.929688 858.066406 534.777344 C 874.628906 559.199219 869.300781 592.054688 845.984375 608.382812 C 822.4375 624.871094 789.332031 618.355469 772.179688 593.863281 L 385.53125 70.222656 C 379.75 62.476562 368.859375 60.730469 360.945312 66.269531 C 353.027344 71.816406 350.949219 82.640625 356.246094 90.726562 L 715.25 633.726562 C 739.492188 668.347656 778.101562 686.960938 817.027344 686.960938 C 840.929688 686.960938 864.949219 679.949219 885.847656 665.316406 C 940.785156 626.847656 953.640625 550.085938 914.511719 494.203125 Z M 654.621094 719.910156 C 654.621094 680.703125 621.234375 653.503906 586.160156 644.121094 C 540.824219 631.992188 494.449219 623.597656 449.992188 608.308594 C 405.839844 593.128906 361.390625 572.328125 339.792969 528.546875 C 322.539062 493.578125 312.722656 391.714844 309.546875 343.226562 L 309.507812 342.871094 C 309.789062 335.675781 306.507812 328.726562 299.585938 326.734375 C 275.445312 319.789062 253.269531 337.988281 253.269531 361.117188 L 253.269531 364.703125 C 253.269531 372.632812 246.84375 379.058594 238.917969 379.058594 L 134.183594 379.058594 C 97.355469 379.058594 66.507812 406.941406 62.792969 443.582031 L 62.609375 733.191406 C 62.496094 759.121094 73.640625 775.789062 89.941406 784.449219 C 72.964844 800.589844 62.351562 823.363281 62.351562 848.578125 C 62.351562 897.402344 102.070312 937.121094 150.890625 937.121094 C 199.714844 937.121094 239.433594 897.402344 239.433594 848.578125 C 239.433594 835.695312 236.644531 823.460938 231.675781 812.410156 L 231.777344 812.503906 L 267.164062 793.429688 C 269.476562 792.273438 272.027344 791.671875 274.617188 791.671875 L 434.640625 791.671875 C 436.433594 791.671875 438.214844 791.960938 439.914062 792.523438 L 476.933594 811.441406 C 471.597656 822.824219 468.601562 835.511719 468.601562 848.890625 C 468.601562 897.714844 508.320312 937.433594 557.140625 937.433594 C 605.964844 937.433594 645.683594 897.714844 645.683594 848.890625 C 645.683594 823.683594 635.078125 800.921875 618.113281 784.78125 C 643.738281 772.441406 654.621094 745.457031 654.621094 719.910156 Z M 150.894531 895.449219 C 125.046875 895.449219 104.019531 874.421875 104.019531 848.574219 C 104.019531 822.730469 125.046875 801.699219 150.894531 801.699219 C 176.738281 801.699219 197.769531 822.730469 197.769531 848.574219 C 197.769531 874.421875 176.738281 895.449219 150.894531 895.449219 Z M 489.136719 792.261719 L 489.433594 791.667969 L 489.652344 791.667969 C 489.484375 791.867188 489.304688 792.058594 489.136719 792.261719 Z M 557.144531 895.761719 C 531.296875 895.761719 510.269531 874.734375 510.269531 848.886719 C 510.269531 823.042969 531.296875 802.011719 557.144531 802.011719 C 582.988281 802.011719 604.019531 823.042969 604.019531 848.886719 C 604.019531 874.734375 582.988281 895.761719 557.144531 895.761719 Z M 557.144531 895.761719"/></svg>