<svg xmlns="http://www.w3.org/2000/svg" width="1000pt" height="1000pt" viewBox="0 0 1000 1000"><path d="M 936.429688 292.535156 C 929.53125 232.175781 890.550781 179.023438 813.761719 125.253906 C 736.710938 71.300781 673.339844 52.804688 614.335938 67.027344 C 560.984375 79.894531 511.996094 120.355469 460.179688 194.359375 C 391.347656 292.664062 347.773438 395.066406 340.304688 445.414062 C 332.433594 498.515625 346.65625 691.570312 350.738281 743.941406 C 339.421875 742.289062 327.613281 746.902344 320.605469 756.910156 L 236.960938 876.371094 C 227.0625 890.507812 230.496094 909.992188 244.636719 919.894531 L 261.703125 931.84375 C 275.839844 941.742188 295.324219 938.304688 305.226562 924.167969 L 388.871094 804.707031 C 395.929688 794.628906 396.175781 781.84375 390.632812 771.738281 C 441.527344 757.640625 627.675781 705.199219 674.847656 679.660156 C 719.601562 655.425781 800.925781 579.453125 869.757812 481.148438 C 921.507812 407.238281 942.695312 347.304688 936.429688 292.535156 Z M 391.320312 728.304688 C 388.460938 690.550781 384.804688 636.796875 382.339844 585.988281 L 528.269531 688.171875 C 479.632812 703.199219 427.8125 718.109375 391.320312 728.304688 Z M 835.625 457.246094 C 779.070312 538.019531 701.417969 617.882812 655.003906 643.015625 C 641.511719 650.324219 612.890625 660.824219 578.207031 672.269531 L 380.246094 533.652344 C 379.171875 497.171875 379.269531 466.703125 381.519531 451.523438 C 389.265625 399.308594 437.753906 299.027344 494.3125 218.257812 C 539.960938 153.0625 581.203125 117.878906 624.105469 107.53125 C 633.453125 105.277344 643.042969 104.140625 652.949219 104.140625 C 692.355469 104.140625 736.679688 122.144531 789.867188 159.386719 C 856.167969 205.8125 889.585938 249.625 895.035156 297.265625 C 900.074219 341.332031 881.195312 392.167969 835.625 457.246094 Z M 145.835938 416.660156 C 99.804688 416.660156 62.492188 453.972656 62.492188 500 C 62.492188 546.027344 99.804688 583.339844 145.835938 583.339844 C 191.863281 583.339844 229.175781 546.027344 229.175781 500 C 229.175781 453.972656 191.863281 416.660156 145.835938 416.660156 Z M 145.835938 416.660156"/></svg>