<svg xmlns="http://www.w3.org/2000/svg" width="1000pt" height="1000pt" viewBox="0 0 1000 1000"><path d="M 390.957031 226.949219 C 430.335938 254.523438 479.035156 245.664062 506.609375 206.285156 C 534.183594 166.90625 525.527344 117.804688 486.148438 90.230469 C 446.769531 62.660156 397.660156 71.308594 370.085938 110.691406 C 342.511719 150.070312 351.578125 199.375 390.957031 226.949219 Z M 983.15625 555.394531 L 818.691406 555.394531 C 811.882812 555.394531 805.769531 551.265625 803.230469 544.945312 C 793.191406 519.957031 772.421875 473.929688 739.773438 427.671875 C 673.703125 334.050781 590.792969 284.570312 500 284.570312 C 499.511719 284.570312 499.027344 284.601562 498.539062 284.617188 L 145.847656 284.578125 C 122.324219 284.578125 103.355469 304.0625 104.195312 327.769531 C 104.996094 350.351562 124.242188 367.925781 146.839844 367.925781 L 177.925781 367.925781 L 644.050781 694.3125 C 646.824219 694.25 649.582031 694.203125 652.292969 694.203125 C 727.070312 694.203125 771.003906 717.65625 806.304688 736.5 C 830.058594 749.179688 849.710938 759.660156 880.035156 762.984375 C 879.125 759.144531 876.878906 755.605469 873.390625 753.164062 L 781.730469 688.980469 C 750.820312 667.335938 712.578125 658.855469 675.414062 665.402344 L 250.574219 367.933594 L 466.460938 367.945312 C 472.398438 367.945312 477.886719 371.105469 480.867188 376.238281 L 568.042969 540.183594 L 686.214844 622.105469 C 690.84375 621.753906 695.480469 621.578125 700.105469 621.578125 C 738.050781 621.578125 774.539062 633.082031 805.625 654.851562 L 843.546875 681.402344 C 898.078125 653.992188 951.160156 620.722656 993.925781 585.070312 C 1005.992188 575.015625 998.875 555.394531 983.15625 555.394531 Z M 916.175781 805.382812 C 852.804688 808.558594 820.683594 791.414062 786.683594 773.261719 C 750.933594 754.179688 710.414062 732.550781 635.554688 736.304688 C 560.695312 740.058594 522.542969 765.632812 488.882812 788.191406 C 456.863281 809.652344 426.621094 829.925781 363.246094 833.101562 C 299.878906 836.277344 267.761719 819.136719 233.761719 800.984375 C 198.011719 781.902344 157.496094 760.269531 82.636719 764.023438 C 71.1875 764.597656 62.367188 774.347656 62.945312 785.796875 C 63.515625 797.25 73.265625 806.066406 84.714844 805.492188 C 148.085938 802.316406 180.203125 819.460938 214.203125 837.613281 C 249.953125 856.695312 290.472656 878.324219 365.324219 874.574219 C 440.183594 870.820312 478.339844 845.246094 511.996094 822.683594 C 544.015625 801.222656 574.261719 780.953125 637.632812 777.773438 C 701.007812 774.597656 733.128906 791.738281 767.132812 809.890625 C 802.878906 828.972656 843.394531 850.605469 918.257812 846.851562 C 929.707031 846.277344 938.523438 836.527344 937.949219 825.078125 C 937.378906 813.625 927.628906 804.808594 916.175781 805.382812 Z M 518.628906 722.105469 C 536.171875 713.710938 556.546875 706.261719 581.195312 701.167969 L 372.964844 555.367188 L 16.84375 555.394531 C 1.125 555.394531 -5.992188 575.015625 6.074219 585.070312 C 78.023438 645.054688 159.347656 691.351562 250 722.105469 Z M 518.628906 722.105469"/></svg>