<svg xmlns="http://www.w3.org/2000/svg" width="1000pt" height="1000pt" viewBox="0 0 1000 1000"><path d="M 807.511719 80.203125 C 803.894531 73.304688 797.023438 68.496094 789.300781 67.453125 C 570.699219 37.898438 350.070312 121.507812 221.558594 305.035156 C 93.050781 488.5625 89.949219 724.484375 192.484375 919.796875 C 196.105469 926.695312 202.976562 931.503906 210.699219 932.546875 C 429.296875 962.101562 649.929688 878.492188 778.441406 694.964844 C 906.945312 511.4375 910.050781 275.515625 807.511719 80.203125 Z M 677.507812 446.261719 C 671.425781 454.941406 661.734375 459.589844 651.882812 459.589844 C 645.691406 459.589844 639.441406 457.753906 633.984375 453.933594 L 591.320312 424.058594 L 543.519531 492.328125 L 586.183594 522.199219 C 600.324219 532.101562 603.761719 551.582031 593.859375 565.722656 C 587.785156 574.402344 578.085938 579.050781 568.234375 579.050781 C 562.042969 579.050781 555.792969 577.214844 550.335938 573.394531 L 507.671875 543.519531 L 459.875 611.785156 L 502.539062 641.660156 C 516.675781 651.558594 520.113281 671.042969 510.214844 685.179688 C 504.136719 693.863281 494.441406 698.507812 484.589844 698.507812 C 478.398438 698.507812 472.144531 696.675781 466.691406 692.855469 L 424.027344 662.980469 L 394.152344 705.644531 C 388.074219 714.324219 378.378906 718.972656 368.527344 718.972656 C 362.335938 718.972656 356.085938 717.140625 350.628906 713.320312 C 336.492188 703.417969 333.054688 683.933594 342.953125 669.792969 L 372.832031 627.128906 L 330.167969 597.253906 C 316.027344 587.355469 312.59375 567.871094 322.492188 553.730469 C 332.394531 539.589844 351.882812 536.160156 366.015625 546.058594 L 408.679688 575.929688 L 456.476562 507.667969 L 413.8125 477.792969 C 399.671875 467.894531 396.234375 448.410156 406.136719 434.269531 C 416.035156 420.132812 435.519531 416.695312 449.660156 426.597656 L 492.324219 456.472656 L 540.121094 388.207031 L 497.457031 358.332031 C 483.320312 348.433594 479.882812 328.949219 489.78125 314.808594 C 499.679688 300.671875 519.164062 297.234375 533.304688 307.136719 L 575.972656 337.011719 L 605.84375 294.34375 C 615.742188 280.203125 635.226562 276.773438 649.367188 286.667969 C 663.503906 296.570312 666.945312 316.050781 657.042969 330.191406 L 627.167969 372.859375 L 669.832031 402.730469 C 683.96875 412.636719 687.40625 432.121094 677.507812 446.261719 Z M 677.507812 446.261719"/></svg>