<svg xmlns="http://www.w3.org/2000/svg" width="1000pt" height="1000pt" viewBox="0 0 1000 1000"><path d="M 606.027344 612.824219 C 668.203125 589.214844 722.398438 596.421875 750.828125 603.429688 C 761.234375 606.054688 771.734375 599.128906 770.769531 589.773438 C 760.316406 490.757812 679.894531 333.136719 612.996094 216.289062 C 605.617188 203.390625 583.332031 208.289062 583.332031 222.699219 L 583.332031 600.722656 C 583.332031 610.875 595.390625 616.886719 606.027344 612.824219 Z M 177.621094 578.078125 C 333.273438 552.199219 485.519531 598.503906 529.199219 613.550781 C 535.394531 615.699219 541.667969 611.164062 541.667969 604.753906 L 541.667969 54.660156 C 541.667969 47.53125 533.730469 42.636719 527.417969 46.214844 C 330.722656 157.695312 193.574219 487.703125 167.136719 566.613281 C 164.953125 573.179688 170.699219 579.191406 177.621094 578.078125 Z M 752.566406 666.667969 L 247.429688 666.667969 C 236.992188 666.667969 229.070312 676.160156 231.035156 686.40625 C 240.257812 734.496094 282.550781 770.832031 333.332031 770.832031 L 438.046875 770.832031 C 447.050781 765.757812 455.726562 759.945312 465.222656 753.582031 C 501.488281 729.273438 546.621094 699.019531 633.007812 694.6875 C 639.367188 694.367188 645.699219 694.207031 651.828125 694.207031 C 697.519531 694.207031 731.679688 702.964844 759.410156 714.078125 C 763.789062 705.535156 767.039062 696.320312 768.921875 686.609375 C 770.929688 676.285156 763.085938 666.667969 752.566406 666.667969 Z M 915.714844 805.382812 C 852.34375 808.554688 820.226562 791.414062 786.222656 773.261719 C 750.476562 754.179688 709.953125 732.550781 635.097656 736.300781 C 560.234375 740.054688 522.082031 765.628906 488.421875 788.191406 C 456.402344 809.652344 426.160156 829.925781 362.789062 833.101562 C 299.417969 836.277344 267.300781 819.136719 233.300781 800.984375 C 197.550781 781.898438 157.035156 760.269531 82.175781 764.023438 C 70.726562 764.597656 61.910156 774.347656 62.484375 785.796875 C 63.054688 797.246094 72.804688 806.066406 84.257812 805.492188 C 147.628906 802.316406 179.742188 819.460938 213.742188 837.613281 C 249.492188 856.695312 290.011719 878.324219 364.863281 874.570312 C 439.726562 870.816406 477.878906 845.242188 511.539062 822.683594 C 543.554688 801.222656 573.800781 780.949219 637.171875 777.769531 C 700.546875 774.597656 732.667969 791.738281 766.671875 809.890625 C 802.417969 828.972656 842.933594 850.601562 917.796875 846.851562 C 929.246094 846.273438 938.066406 836.523438 937.488281 825.074219 C 936.914062 813.625 927.167969 804.808594 915.714844 805.382812 Z M 915.714844 805.382812"/></svg>