<svg xmlns="http://www.w3.org/2000/svg" width="1000pt" height="1000pt" viewBox="0 0 1000 1000"><path d="M 433.417969 631.410156 C 414.566406 618.207031 388.585938 622.792969 375.390625 641.640625 L 320.375 720.207031 L 202.515625 674.675781 C 181.046875 666.382812 156.925781 677.0625 148.632812 698.523438 C 140.339844 719.992188 151.019531 744.117188 172.484375 752.410156 L 320.777344 809.699219 C 325.679688 811.59375 330.761719 812.503906 335.78125 812.503906 C 349.074219 812.503906 361.949219 806.125 369.925781 794.734375 L 443.652344 689.441406 C 456.851562 670.585938 452.269531 644.605469 433.417969 631.410156 Z M 788.453125 269.574219 L 686.058594 197.875 L 685.972656 197.820312 C 684.980469 197.132812 683.96875 196.511719 682.945312 195.921875 C 682.128906 195.453125 681.292969 195.035156 680.449219 194.617188 C 679.914062 194.359375 679.386719 194.066406 678.847656 193.828125 C 678.011719 193.460938 677.152344 193.160156 676.292969 192.851562 C 675.878906 192.699219 675.464844 192.519531 675.050781 192.382812 C 674.269531 192.128906 673.46875 191.933594 672.671875 191.726562 C 672.148438 191.589844 671.632812 191.425781 671.105469 191.308594 C 670.433594 191.164062 669.75 191.070312 669.070312 190.957031 C 668.398438 190.84375 667.730469 190.707031 667.058594 190.628906 C 666.515625 190.5625 665.960938 190.550781 665.410156 190.503906 C 664.601562 190.445312 663.792969 190.363281 662.984375 190.347656 C 662.523438 190.335938 662.066406 190.375 661.605469 190.382812 C 660.710938 190.394531 659.816406 190.394531 658.925781 190.464844 C 658.210938 190.519531 657.496094 190.640625 656.789062 190.734375 C 655.996094 190.835938 655.207031 190.9375 654.425781 191.085938 C 653.242188 191.308594 652.054688 191.570312 650.875 191.902344 L 650.773438 191.925781 L 397.519531 263.835938 C 393.25 265.046875 389.335938 266.894531 385.832031 269.226562 L 447.820312 336.179688 L 560.742188 304.117188 L 531.671875 345.597656 L 456.511719 345.570312 L 413.914062 345.550781 L 413.671875 345.292969 L 368.027344 295.992188 L 349.964844 276.484375 C 346.058594 272.035156 342.289062 267.691406 338.65625 263.480469 C 336.238281 260.667969 333.878906 257.914062 331.585938 255.222656 C 327.007812 249.839844 322.6875 244.703125 318.652344 239.855469 C 316.636719 237.433594 314.691406 235.082031 312.820312 232.808594 C 293.167969 208.949219 281.675781 193.703125 281.464844 193.429688 L 281.132812 192.992188 C 252.8125 157.296875 266.835938 128.882812 303.179688 76.859375 C 306.652344 71.886719 307.792969 65.566406 306.292969 59.691406 C 303.628906 49.253906 296.851562 45.542969 268.578125 31.5 C 267.910156 31.167969 267.226562 30.882812 266.535156 30.628906 C 266.335938 30.554688 266.136719 30.492188 265.9375 30.421875 C 265.421875 30.25 264.902344 30.097656 264.378906 29.960938 C 264.175781 29.914062 263.972656 29.859375 263.765625 29.816406 C 263.117188 29.671875 262.460938 29.554688 261.800781 29.476562 L 261.648438 29.449219 C 260.933594 29.367188 260.214844 29.332031 259.503906 29.328125 L 258.957031 29.335938 C 258.398438 29.347656 257.847656 29.378906 257.292969 29.433594 C 257.089844 29.453125 256.890625 29.472656 256.691406 29.496094 C 256.035156 29.582031 255.375 29.691406 254.726562 29.835938 L 254.574219 29.867188 C 253.875 30.027344 253.1875 30.238281 252.507812 30.472656 L 251.972656 30.675781 C 251.460938 30.867188 250.960938 31.078125 250.460938 31.3125 L 249.90625 31.578125 C 249.289062 31.890625 248.683594 32.226562 248.101562 32.597656 L 248.023438 32.640625 C 247.414062 33.035156 246.832031 33.464844 246.261719 33.925781 L 245.789062 34.328125 C 245.371094 34.683594 244.964844 35.058594 244.574219 35.453125 L 244.121094 35.914062 C 243.613281 36.453125 243.121094 37.019531 242.664062 37.625 C 215.984375 73.078125 166.328125 139.058594 227.308594 205.253906 L 318.746094 304.09375 C 327.160156 313.667969 322.457031 308.652344 330.320312 317.199219 C 330.847656 317.769531 331.425781 318.398438 332.070312 319.097656 C 333.242188 320.375 334.542969 321.476562 335.933594 322.390625 L 365.414062 354.289062 C 356.613281 361.109375 350.597656 371.351562 349.4375 383.042969 C 349.300781 384.410156 349.226562 385.792969 349.226562 387.191406 C 349.214844 410.203125 367.863281 428.867188 390.875 428.875 L 391.792969 428.875 L 434.359375 428.890625 L 475.3125 473.207031 C 478.726562 476.894531 483.160156 479.070312 487.777344 479.699219 C 488.632812 479.816406 489.492188 479.863281 490.355469 479.871094 C 490.839844 479.882812 491.328125 479.863281 491.8125 479.835938 C 492 479.824219 492.1875 479.828125 492.378906 479.808594 C 493.070312 479.753906 493.765625 479.660156 494.453125 479.53125 L 494.878906 479.429688 C 495.421875 479.316406 495.964844 479.191406 496.496094 479.035156 C 496.738281 478.960938 496.976562 478.875 497.21875 478.792969 C 497.652344 478.648438 498.082031 478.492188 498.507812 478.320312 C 498.765625 478.214844 499.015625 478.101562 499.269531 477.984375 C 499.675781 477.800781 500.078125 477.597656 500.476562 477.382812 C 500.71875 477.253906 500.960938 477.121094 501.203125 476.980469 C 501.621094 476.734375 502.027344 476.460938 502.433594 476.179688 C 502.632812 476.042969 502.835938 475.914062 503.035156 475.769531 C 503.621094 475.328125 504.199219 474.859375 504.753906 474.351562 C 508.976562 470.445312 511.214844 465.195312 511.421875 459.867188 C 511.574219 455.871094 510.589844 451.832031 508.433594 448.277344 C 507.714844 447.097656 506.871094 445.964844 505.894531 444.910156 L 491.085938 428.914062 L 524.144531 428.925781 L 533.070312 428.929688 C 538.304688 436.296875 541.386719 444.683594 542.335938 453.261719 C 543.960938 467.949219 539.347656 483.144531 528.679688 494.570312 L 597.246094 542.601562 C 604.300781 547.542969 612.65625 550.140625 621.152344 550.140625 C 623.5625 550.140625 625.980469 549.929688 628.386719 549.507812 C 639.269531 547.589844 648.945312 541.425781 655.285156 532.371094 L 798.679688 327.601562 C 805.019531 318.546875 807.5 307.347656 805.582031 296.464844 C 803.664062 285.585938 797.503906 275.910156 788.453125 269.574219 Z M 874.773438 81.152344 C 847.199219 41.773438 798.089844 33.121094 758.710938 60.695312 C 719.332031 88.269531 710.671875 137.371094 738.246094 176.75 C 765.824219 216.128906 814.519531 224.988281 853.898438 197.414062 C 893.277344 169.835938 902.347656 120.53125 874.773438 81.152344 Z M 655.347656 634.234375 L 503.105469 527.363281 C 484.269531 514.136719 458.285156 518.695312 445.066406 537.523438 C 431.839844 556.359375 436.394531 582.347656 455.226562 595.566406 L 583.339844 685.503906 L 522.371094 903.46875 C 516.171875 925.632812 529.113281 948.621094 551.273438 954.820312 C 555.027344 955.867188 558.804688 956.367188 562.519531 956.367188 C 580.742188 956.367188 597.476562 944.324219 602.625 925.917969 L 671.535156 679.558594 C 676.292969 662.546875 669.808594 644.386719 655.347656 634.234375 Z M 655.347656 634.234375"/></svg>