<svg xmlns="http://www.w3.org/2000/svg" width="1000pt" height="1000pt" viewBox="0 0 1000 1000"><path d="M 126.410156 589.789062 L 141.375 645.128906 L 270.617188 542.480469 L 270.617188 706.175781 C 270.617188 729.183594 289.269531 747.839844 312.285156 747.839844 L 437.285156 747.851562 C 448.335938 747.851562 458.933594 743.460938 466.746094 735.648438 C 474.5625 727.832031 478.953125 717.234375 478.953125 706.183594 L 478.953125 581.003906 L 529.1875 647.871094 C 537.058594 658.347656 549.398438 664.507812 562.5 664.507812 L 667.570312 664.507812 L 639.910156 602.332031 C 636.851562 595.453125 635.425781 588.257812 635.433594 581.175781 L 583.3125 581.175781 L 470.597656 431.144531 C 470.304688 430.757812 469.996094 430.386719 469.691406 430.007812 L 469.296875 429.515625 C 468.554688 428.621094 467.769531 427.765625 466.957031 426.941406 L 466.464844 426.457031 C 465.621094 425.628906 464.753906 424.824219 463.839844 424.070312 L 463.613281 423.890625 C 462.765625 423.199219 461.878906 422.542969 460.972656 421.917969 C 460.761719 421.769531 460.554688 421.617188 460.339844 421.476562 C 459.425781 420.871094 458.488281 420.304688 457.53125 419.773438 C 457.234375 419.609375 456.933594 419.449219 456.632812 419.292969 C 455.679688 418.792969 454.710938 418.316406 453.71875 417.890625 C 453.445312 417.769531 453.164062 417.671875 452.886719 417.558594 C 452.046875 417.21875 451.191406 416.910156 450.324219 416.621094 C 450.007812 416.515625 449.691406 416.402344 449.367188 416.304688 C 448.328125 415.992188 447.269531 415.726562 446.199219 415.488281 C 445.871094 415.417969 445.542969 415.351562 445.210938 415.285156 C 444.085938 415.070312 442.953125 414.890625 441.796875 414.765625 C 441.570312 414.738281 441.339844 414.722656 441.113281 414.703125 C 439.851562 414.589844 438.578125 414.511719 437.285156 414.511719 L 312.285156 414.511719 C 310.972656 414.511719 309.675781 414.585938 308.394531 414.707031 C 307.902344 414.753906 307.414062 414.832031 306.925781 414.894531 C 306.148438 414.992188 305.382812 415.105469 304.621094 415.246094 C 304.035156 415.355469 303.453125 415.484375 302.871094 415.621094 C 302.226562 415.769531 301.589844 415.933594 300.957031 416.113281 C 300.347656 416.285156 299.734375 416.460938 299.136719 416.664062 C 298.539062 416.863281 297.957031 417.082031 297.375 417.308594 C 296.78125 417.535156 296.183594 417.757812 295.601562 418.011719 C 294.980469 418.285156 294.378906 418.589844 293.773438 418.890625 C 293.261719 419.144531 292.742188 419.378906 292.242188 419.652344 C 291.179688 420.234375 290.148438 420.863281 289.144531 421.535156 C 288.769531 421.785156 288.417969 422.070312 288.050781 422.332031 C 287.488281 422.734375 286.917969 423.121094 286.371094 423.550781 L 109.84375 563.761719 C 117.667969 570.414062 123.585938 579.363281 126.410156 589.789062 Z M 737.183594 844.582031 C 727.753906 837.992188 714.765625 840.296875 708.175781 849.730469 L 662.785156 914.691406 L 250.097656 914.753906 C 238.589844 914.753906 229.265625 924.082031 229.265625 935.589844 C 229.269531 947.09375 238.597656 956.421875 250.105469 956.417969 L 673.648438 956.355469 C 680.453125 956.355469 686.828125 953.027344 690.722656 947.453125 L 742.328125 873.597656 C 748.917969 864.164062 746.617188 851.171875 737.183594 844.582031 Z M 322.871094 349.304688 C 362.25 376.878906 410.945312 368.019531 438.519531 328.640625 C 466.097656 289.261719 457.441406 240.164062 418.058594 212.585938 C 378.679688 185.015625 329.570312 193.667969 301.996094 233.046875 C 274.421875 272.425781 283.488281 321.734375 322.871094 349.304688 Z M 118.285156 679.449219 L 96.242188 597.945312 C 96.066406 597.300781 95.859375 596.675781 95.628906 596.0625 C 95.554688 595.867188 95.472656 595.683594 95.394531 595.492188 C 95.226562 595.078125 95.046875 594.667969 94.851562 594.265625 C 94.75 594.054688 94.640625 593.851562 94.535156 593.644531 C 94.335938 593.273438 94.132812 592.910156 93.917969 592.554688 C 93.796875 592.359375 93.675781 592.164062 93.550781 591.972656 C 93.3125 591.605469 93.058594 591.253906 92.800781 590.90625 L 92.441406 590.429688 C 92.070312 589.960938 91.683594 589.511719 91.277344 589.082031 L 91.214844 589.015625 C 90.785156 588.558594 90.332031 588.132812 89.863281 587.726562 L 89.425781 587.363281 C 89.089844 587.085938 88.757812 586.820312 88.410156 586.566406 C 88.222656 586.429688 88.03125 586.300781 87.84375 586.171875 C 87.515625 585.949219 87.183594 585.734375 86.84375 585.53125 C 86.640625 585.410156 86.441406 585.292969 86.234375 585.175781 C 85.878906 584.980469 85.515625 584.796875 85.148438 584.621094 C 84.953125 584.527344 84.761719 584.425781 84.566406 584.339844 L 84.152344 584.164062 L 84.140625 584.171875 C 83.808594 584.03125 83.476562 583.890625 83.136719 583.769531 L 82.835938 583.65625 C 82.257812 583.457031 81.667969 583.289062 81.070312 583.144531 C 80.871094 583.097656 80.671875 583.0625 80.472656 583.019531 C 80.058594 582.929688 79.644531 582.851562 79.226562 582.789062 C 78.988281 582.753906 78.746094 582.726562 78.503906 582.699219 C 78.113281 582.652344 77.722656 582.617188 77.328125 582.597656 C 77.082031 582.582031 76.832031 582.570312 76.585938 582.566406 C 76.296875 582.558594 76.007812 582.570312 75.714844 582.574219 C 75.113281 582.589844 74.511719 582.628906 73.90625 582.695312 C 73.664062 582.722656 73.417969 582.742188 73.171875 582.777344 C 72.347656 582.898438 71.519531 583.054688 70.695312 583.277344 C 59.585938 586.277344 53.019531 597.722656 56.023438 608.828125 L 58.574219 618.253906 L 78.597656 692.296875 L 145.832031 940.925781 C 148.324219 950.136719 156.621094 956.226562 165.714844 956.320312 C 166.367188 956.328125 167.023438 956.265625 167.679688 956.207031 C 167.984375 956.179688 168.289062 956.183594 168.589844 956.144531 C 169.519531 956.023438 170.453125 955.84375 171.382812 955.589844 C 182.488281 952.589844 189.054688 941.148438 186.050781 930.042969 Z M 934.628906 914.753906 L 858.699219 914.753906 L 737.019531 641.230469 L 711.015625 582.777344 L 706.539062 572.710938 C 706.152344 571.847656 705.703125 571.035156 705.214844 570.246094 C 705.09375 570.046875 704.96875 569.851562 704.835938 569.660156 C 704.363281 568.945312 703.863281 568.261719 703.320312 567.621094 L 703.199219 567.476562 C 702.613281 566.800781 701.972656 566.179688 701.308594 565.597656 L 700.804688 565.164062 C 700.195312 564.660156 699.566406 564.1875 698.910156 563.757812 L 698.648438 563.578125 C 697.914062 563.109375 697.140625 562.703125 696.355469 562.332031 C 696.160156 562.242188 695.960938 562.15625 695.761719 562.070312 C 695.070312 561.769531 694.363281 561.507812 693.640625 561.285156 L 693.246094 561.152344 C 692.414062 560.914062 691.5625 560.734375 690.703125 560.601562 C 690.492188 560.566406 690.285156 560.546875 690.074219 560.519531 C 689.335938 560.425781 688.59375 560.371094 687.847656 560.359375 L 687.3125 560.339844 C 686.914062 560.347656 686.507812 560.378906 686.105469 560.402344 C 685.8125 560.421875 685.523438 560.429688 685.230469 560.460938 C 684.816406 560.507812 684.398438 560.585938 683.984375 560.660156 C 683.703125 560.707031 683.421875 560.738281 683.144531 560.796875 C 682.699219 560.894531 682.257812 561.023438 681.8125 561.152344 C 681.566406 561.222656 681.320312 561.277344 681.074219 561.355469 C 680.390625 561.578125 679.707031 561.835938 679.035156 562.136719 C 671.273438 565.585938 666.679688 573.199219 666.675781 581.171875 C 666.671875 584.003906 667.238281 586.882812 668.460938 589.636719 L 701.722656 664.402344 L 826.121094 944.046875 C 829.464844 951.566406 836.929688 956.417969 845.160156 956.417969 L 934.625 956.417969 C 946.128906 956.417969 955.457031 947.085938 955.457031 935.582031 C 955.457031 924.078125 946.132812 914.753906 934.628906 914.753906 Z M 312.285156 789.507812 C 289.269531 789.507812 270.617188 808.164062 270.617188 831.175781 C 270.617188 854.1875 289.269531 872.839844 312.285156 872.839844 L 603.949219 872.839844 C 626.960938 872.839844 645.617188 854.1875 645.617188 831.175781 C 645.617188 808.164062 626.960938 789.507812 603.949219 789.507812 Z M 312.285156 789.507812"/></svg>