<svg xmlns="http://www.w3.org/2000/svg" width="1000pt" height="1000pt" viewBox="0 0 1000 1000"><path d="M 594.070312 381.882812 C 590.976562 372.378906 582.113281 365.960938 572.144531 365.960938 L 427.90625 365.960938 C 417.890625 365.960938 409.027344 372.375 405.933594 381.882812 L 361.394531 519.0625 C 358.300781 528.570312 361.671875 538.957031 369.746094 544.867188 L 486.433594 629.613281 C 494.511719 635.519531 505.496094 635.519531 513.574219 629.613281 L 630.210938 544.867188 C 638.332031 538.957031 641.703125 528.574219 638.609375 519.0625 Z M 500 83.335938 C 269.875 83.335938 83.332031 269.875 83.332031 500 C 83.332031 730.082031 269.875 916.667969 500 916.667969 C 730.082031 916.667969 916.667969 730.082031 916.667969 500 C 916.667969 269.875 730.082031 83.335938 500 83.335938 Z M 732.082031 576.164062 L 784.816406 710.289062 C 742.976562 766.8125 684.734375 810.496094 617.183594 834.246094 L 510.578125 771.457031 C 504.035156 767.582031 495.949219 767.582031 489.410156 771.457031 L 382.785156 834.238281 C 315.246094 810.484375 257.011719 766.804688 215.175781 710.285156 L 267.914062 576.164062 C 271.203125 567.746094 268.703125 558.160156 261.703125 552.414062 L 148.144531 459.410156 C 155.492188 395.296875 180.03125 336.332031 217.019531 287.253906 L 314.371094 286.496094 C 322.207031 286.457031 329.371094 281.957031 332.871094 274.871094 L 387.507812 164.144531 C 422.867188 152.273438 460.695312 145.835938 500.003906 145.835938 C 539.304688 145.835938 577.136719 152.273438 612.496094 164.144531 L 667.164062 274.871094 C 670.621094 281.957031 677.789062 286.457031 685.664062 286.496094 L 782.984375 287.253906 C 819.972656 336.332031 844.507812 395.289062 851.855469 459.402344 L 738.289062 552.414062 C 731.289062 558.160156 728.789062 567.746094 732.082031 576.164062 Z M 732.082031 576.164062"/></svg>