<svg xmlns="http://www.w3.org/2000/svg" width="1000pt" height="1000pt" viewBox="0 0 1000 1000"><path d="M 780.628906 561.164062 C 829.046875 520.539062 834.761719 455.234375 794.132812 406.816406 C 753.507812 358.394531 688.191406 352.671875 639.773438 393.300781 C 591.355469 433.929688 586.09375 499.636719 626.722656 548.054688 C 667.351562 596.476562 732.210938 601.792969 780.628906 561.164062 Z M 268.832031 633.046875 L 394.730469 527.402344 L 429.929688 569.351562 L 220.082031 745.289062 C 219.484375 745.789062 218.945312 746.328125 218.375 746.847656 C 231.058594 752.554688 242.386719 758.59375 252.9375 764.226562 C 281.820312 779.644531 304.625 791.816406 347.945312 791.816406 C 352.050781 791.816406 356.351562 791.703125 360.714844 791.488281 C 412.570312 788.890625 434.660156 774.078125 465.238281 753.582031 C 501.507812 729.273438 546.640625 699.019531 633.023438 694.6875 C 639.386719 694.367188 645.714844 694.207031 651.847656 694.207031 C 661.242188 694.207031 670.144531 694.582031 678.613281 695.265625 L 654.757812 666.835938 L 654.734375 666.808594 L 549.09375 540.910156 L 549.074219 540.890625 L 443.453125 415.011719 C 424.003906 391.832031 389.445312 388.816406 366.273438 408.257812 L 198.410156 549.113281 C 175.234375 568.5625 172.210938 603.117188 191.65625 626.292969 C 211.101562 649.46875 245.664062 652.492188 268.832031 633.046875 Z M 915.730469 805.382812 C 852.359375 808.554688 820.238281 791.414062 786.238281 773.261719 C 750.488281 754.179688 709.96875 732.550781 635.109375 736.300781 C 560.25 740.054688 522.097656 765.628906 488.4375 788.191406 C 456.417969 809.652344 426.175781 829.925781 362.800781 833.101562 C 299.429688 836.277344 267.316406 819.136719 233.316406 800.984375 C 197.566406 781.898438 157.050781 760.269531 82.191406 764.023438 C 70.742188 764.597656 61.921875 774.347656 62.496094 785.796875 C 63.070312 797.246094 72.820312 806.066406 84.269531 805.492188 C 147.640625 802.316406 179.757812 819.460938 213.757812 837.613281 C 249.507812 856.695312 290.023438 878.324219 364.878906 874.570312 C 439.738281 870.816406 477.894531 845.242188 511.550781 822.683594 C 543.570312 801.222656 573.816406 780.949219 637.1875 777.769531 C 700.5625 774.597656 732.679688 791.738281 766.683594 809.890625 C 802.433594 828.972656 842.949219 850.601562 917.808594 846.851562 C 929.261719 846.273438 938.078125 836.523438 937.503906 825.074219 C 936.929688 813.625 927.179688 804.808594 915.730469 805.382812 Z M 915.730469 805.382812"/></svg>