<svg xmlns="http://www.w3.org/2000/svg" width="1000pt" height="1000pt" viewBox="0 0 1000 1000"><path d="M 559.710938 668.976562 L 354.921875 525.582031 C 336.070312 512.378906 310.089844 516.964844 296.894531 535.8125 C 283.695312 554.664062 288.273438 580.644531 307.125 593.839844 L 477.800781 713.347656 L 358.386719 884.066406 C 345.195312 902.925781 349.789062 928.902344 368.644531 942.09375 C 375.917969 947.179688 384.246094 949.621094 392.492188 949.621094 C 405.636719 949.621094 418.566406 943.417969 426.671875 931.832031 L 569.957031 726.988281 C 583.140625 708.136719 578.554688 682.167969 559.710938 668.976562 Z M 351.488281 675.773438 C 332.636719 662.574219 306.660156 667.15625 293.460938 686.003906 L 150.066406 890.792969 C 136.867188 909.644531 141.449219 935.628906 160.296875 948.824219 C 167.574219 953.917969 175.90625 956.363281 184.160156 956.363281 C 197.296875 956.363281 210.222656 950.164062 218.328125 938.589844 L 361.722656 733.800781 C 374.921875 714.953125 370.339844 688.972656 351.488281 675.773438 Z M 628.457031 208.367188 C 667.835938 235.941406 716.53125 227.082031 744.105469 187.703125 C 771.679688 148.324219 763.023438 99.222656 723.644531 71.648438 C 684.265625 44.074219 635.152344 52.726562 607.582031 92.105469 C 580.007812 131.484375 589.078125 180.792969 628.457031 208.367188 Z M 754.59375 518.511719 L 695.972656 501.074219 L 690.152344 322.867188 C 690.144531 322.578125 690.097656 322.296875 690.082031 322.007812 C 690.066406 321.683594 690.078125 321.359375 690.050781 321.035156 C 690.015625 320.597656 689.941406 320.167969 689.894531 319.734375 C 689.824219 319.078125 689.746094 318.421875 689.644531 317.773438 C 689.605469 317.53125 689.59375 317.289062 689.550781 317.042969 L 689.542969 316.992188 C 689.476562 316.609375 689.363281 316.238281 689.289062 315.855469 C 689.136719 315.125 688.984375 314.394531 688.792969 313.671875 C 688.738281 313.457031 688.699219 313.238281 688.640625 313.023438 C 688.550781 312.699219 688.421875 312.386719 688.328125 312.070312 L 688.320312 312.050781 C 688.085938 311.28125 687.847656 310.515625 687.570312 309.761719 C 687.492188 309.554688 687.429688 309.351562 687.351562 309.144531 C 687.25 308.882812 687.117188 308.628906 687.011719 308.367188 L 687 308.34375 C 686.679688 307.570312 686.351562 306.792969 685.984375 306.035156 C 685.886719 305.828125 685.792969 305.617188 685.6875 305.410156 L 685.410156 304.917969 L 685.296875 304.714844 C 684.898438 303.964844 684.492188 303.21875 684.046875 302.492188 C 683.917969 302.28125 683.796875 302.070312 683.664062 301.863281 L 683.464844 301.578125 L 683.253906 301.273438 C 682.769531 300.539062 682.277344 299.816406 681.746094 299.113281 C 681.601562 298.921875 681.460938 298.726562 681.3125 298.539062 L 681.066406 298.246094 L 680.929688 298.089844 C 680.332031 297.347656 679.714844 296.613281 679.0625 295.910156 L 678.660156 295.464844 L 678.324219 295.144531 C 677.570312 294.367188 676.792969 293.621094 675.976562 292.910156 L 675.695312 292.652344 L 675.433594 292.445312 C 674.542969 291.691406 673.617188 290.972656 672.660156 290.289062 L 672.519531 290.179688 L 672.410156 290.097656 L 570.015625 218.398438 C 568.972656 217.667969 567.898438 217.015625 566.816406 216.390625 C 566.578125 216.257812 566.339844 216.113281 566.101562 215.984375 C 565.085938 215.425781 564.054688 214.917969 563.011719 214.457031 C 562.683594 214.3125 562.351562 214.175781 562.019531 214.039062 C 561.683594 213.902344 561.359375 213.753906 561.023438 213.625 L 400.597656 152.160156 C 382.746094 145.320312 362.527344 151.507812 351.558594 167.167969 L 255.964844 303.695312 C 242.765625 322.546875 247.347656 348.527344 266.195312 361.722656 C 273.472656 366.816406 281.804688 369.261719 290.058594 369.261719 C 303.195312 369.261719 316.121094 363.066406 324.226562 351.492188 L 401.164062 241.613281 L 481.355469 272.339844 L 368.535156 433.320312 C 368.105469 433.933594 367.734375 434.582031 367.339844 435.222656 C 364.339844 433.882812 361.289062 432.621094 358.105469 431.554688 C 317.972656 418.109375 276.433594 437.226562 244.695312 456.796875 C 244.332031 456.945312 243.972656 457.101562 243.613281 457.273438 C 158.261719 497.671875 95.328125 462.664062 92.792969 461.214844 C 85.351562 456.832031 75.96875 457.5 69.222656 462.894531 C 62.472656 468.289062 59.753906 477.292969 62.386719 485.519531 L 79.128906 537.835938 C 80.644531 542.566406 83.792969 546.597656 88.015625 549.207031 C 100.816406 557.117188 115.757812 561.183594 131.757812 561.183594 C 135.636719 561.183594 139.578125 560.945312 143.566406 560.460938 C 145.886719 560.183594 148.234375 559.820312 150.539062 559.378906 C 180.007812 553.777344 204.703125 535.640625 226.484375 519.640625 C 232.292969 515.375 237.777344 511.347656 243.1875 507.65625 C 269.167969 489.933594 312.644531 460.269531 344.863281 471.0625 C 355.207031 474.527344 364.976562 481.121094 375.089844 488.445312 C 376.257812 489.476562 377.464844 490.457031 378.753906 491.359375 L 481.210938 563.128906 C 488.265625 568.070312 496.621094 570.667969 505.117188 570.667969 C 507.527344 570.667969 509.945312 570.457031 512.351562 570.035156 C 523.234375 568.113281 532.910156 561.953125 539.25 552.898438 L 610.949219 450.511719 L 613.667969 533.804688 C 614.253906 551.730469 626.242188 567.269531 643.429688 572.386719 L 769.726562 609.949219 C 773.6875 611.128906 777.6875 611.691406 781.621094 611.691406 C 799.570312 611.691406 816.140625 599.996094 821.53125 581.921875 C 813.945312 578.648438 806.648438 574.671875 799.726562 570.003906 C 780.207031 556.855469 764.890625 539.050781 754.59375 518.511719 Z M 887.035156 440.429688 C 885.949219 439.695312 884.847656 438.988281 883.742188 438.300781 C 883.398438 438.085938 883.046875 437.890625 882.703125 437.683594 C 881.9375 437.21875 881.171875 436.753906 880.394531 436.3125 C 879.980469 436.078125 879.5625 435.859375 879.144531 435.628906 C 878.429688 435.234375 877.714844 434.835938 876.992188 434.460938 C 876.550781 434.230469 876.097656 434.015625 875.652344 433.792969 C 874.953125 433.441406 874.253906 433.085938 873.550781 432.753906 C 873.078125 432.53125 872.605469 432.324219 872.128906 432.109375 C 871.441406 431.796875 870.753906 431.476562 870.0625 431.179688 C 869.578125 430.972656 869.085938 430.78125 868.597656 430.578125 C 867.914062 430.296875 867.226562 430.015625 866.535156 429.75 C 866.039062 429.558594 865.539062 429.382812 865.042969 429.199219 C 864.351562 428.945312 863.660156 428.691406 862.964844 428.453125 C 862.464844 428.277344 861.960938 428.121094 861.457031 427.957031 C 860.761719 427.730469 860.066406 427.503906 859.367188 427.292969 C 858.855469 427.140625 858.34375 426.992188 857.832031 426.847656 C 857.136719 426.648438 856.441406 426.453125 855.742188 426.269531 C 855.226562 426.132812 854.703125 426.003906 854.179688 425.878906 C 853.484375 425.707031 852.789062 425.539062 852.089844 425.382812 C 851.566406 425.261719 851.035156 425.152344 850.507812 425.042969 C 849.8125 424.898438 849.117188 424.757812 848.417969 424.628906 C 847.882812 424.523438 847.347656 424.429688 846.808594 424.339844 C 846.117188 424.222656 845.421875 424.109375 844.726562 424.003906 C 844.183594 423.921875 843.644531 423.847656 843.105469 423.773438 C 842.410156 423.679688 841.710938 423.59375 841.015625 423.511719 C 840.472656 423.453125 839.929688 423.394531 839.382812 423.339844 C 838.683594 423.273438 837.988281 423.210938 837.289062 423.152344 C 836.742188 423.109375 836.199219 423.074219 835.652344 423.039062 C 834.953125 422.992188 834.25 422.957031 833.546875 422.925781 C 833.003906 422.898438 832.457031 422.882812 831.914062 422.863281 C 831.210938 422.847656 830.511719 422.832031 829.808594 422.828125 C 829.359375 422.824219 828.90625 422.824219 828.457031 422.824219 C 826.382812 422.832031 824.304688 422.898438 822.230469 423.027344 C 821.933594 423.042969 821.640625 423.066406 821.339844 423.082031 C 819.273438 423.226562 817.207031 423.425781 815.140625 423.683594 C 814.84375 423.722656 814.546875 423.761719 814.246094 423.800781 C 812.183594 424.078125 810.125 424.410156 808.074219 424.800781 C 807.785156 424.855469 807.5 424.914062 807.214844 424.972656 C 805.152344 425.382812 803.097656 425.84375 801.050781 426.371094 C 800.789062 426.4375 800.523438 426.511719 800.261719 426.582031 C 798.199219 427.128906 796.140625 427.726562 794.105469 428.390625 C 793.875 428.464844 793.644531 428.542969 793.417969 428.621094 C 791.347656 429.308594 789.289062 430.050781 787.246094 430.855469 L 786.726562 431.070312 C 784.636719 431.910156 782.5625 432.800781 780.511719 433.765625 L 780.210938 433.914062 C 778.089844 434.914062 775.992188 435.976562 773.917969 437.113281 C 772.664062 437.800781 771.800781 439.078125 771.632812 440.503906 C 766.921875 480.789062 783.019531 521.074219 817.183594 544.097656 C 818.269531 544.828125 819.367188 545.535156 820.472656 546.222656 C 820.855469 546.460938 821.246094 546.679688 821.636719 546.914062 C 822.359375 547.351562 823.082031 547.792969 823.816406 548.207031 C 824.273438 548.472656 824.738281 548.710938 825.199219 548.964844 C 825.867188 549.332031 826.535156 549.703125 827.207031 550.054688 C 827.707031 550.3125 828.210938 550.554688 828.714844 550.804688 C 829.359375 551.128906 829.996094 551.453125 830.644531 551.761719 C 831.171875 552.007812 831.703125 552.238281 832.230469 552.480469 C 832.863281 552.765625 833.488281 553.054688 834.128906 553.328125 C 834.667969 553.558594 835.210938 553.777344 835.753906 553.996094 C 836.386719 554.257812 837.015625 554.519531 837.648438 554.761719 C 838.203125 554.976562 838.753906 555.171875 839.308594 555.375 C 839.941406 555.605469 840.570312 555.839844 841.207031 556.058594 C 841.769531 556.253906 842.328125 556.429688 842.894531 556.613281 C 843.527344 556.820312 844.160156 557.023438 844.800781 557.21875 C 845.367188 557.390625 845.941406 557.550781 846.511719 557.714844 C 847.144531 557.894531 847.777344 558.074219 848.417969 558.242188 C 848.992188 558.394531 849.574219 558.539062 850.152344 558.679688 C 850.789062 558.835938 851.425781 558.988281 852.0625 559.132812 C 852.644531 559.265625 853.234375 559.390625 853.820312 559.511719 C 854.457031 559.640625 855.097656 559.773438 855.738281 559.894531 C 856.324219 560.003906 856.910156 560.105469 857.496094 560.203125 C 858.140625 560.316406 858.785156 560.421875 859.429688 560.515625 C 860.019531 560.605469 860.609375 560.6875 861.203125 560.765625 C 861.847656 560.855469 862.488281 560.933594 863.136719 561.007812 C 863.730469 561.078125 864.324219 561.136719 864.917969 561.199219 C 865.566406 561.261719 866.210938 561.320312 866.855469 561.371094 C 867.453125 561.417969 868.046875 561.460938 868.644531 561.496094 C 869.292969 561.539062 869.941406 561.570312 870.589844 561.601562 C 871.183594 561.628906 871.78125 561.648438 872.378906 561.667969 C 873.027344 561.683594 873.675781 561.695312 874.328125 561.703125 C 874.820312 561.707031 875.308594 561.707031 875.800781 561.707031 C 877.851562 561.699219 879.90625 561.632812 881.953125 561.507812 C 882.273438 561.484375 882.597656 561.464844 882.917969 561.445312 C 884.960938 561.304688 887.007812 561.105469 889.050781 560.851562 C 889.367188 560.808594 889.691406 560.765625 890.007812 560.722656 C 892.050781 560.449219 894.089844 560.121094 896.121094 559.734375 C 896.425781 559.675781 896.734375 559.609375 897.042969 559.550781 C 899.085938 559.144531 901.121094 558.683594 903.148438 558.164062 C 903.429688 558.089844 903.710938 558.015625 903.992188 557.941406 C 906.039062 557.394531 908.082031 556.800781 910.105469 556.144531 C 910.347656 556.066406 910.585938 555.980469 910.828125 555.902344 C 912.886719 555.214844 914.941406 554.480469 916.96875 553.675781 L 917.507812 553.457031 C 919.59375 552.617188 921.664062 551.726562 923.710938 550.765625 L 924.015625 550.617188 C 926.136719 549.617188 928.234375 548.554688 930.304688 547.417969 C 931.558594 546.730469 932.421875 545.453125 932.585938 544.027344 C 937.296875 503.734375 921.199219 463.449219 887.035156 440.429688 Z M 897.839844 525.503906 C 895.816406 528.410156 892.578125 529.960938 889.289062 529.960938 C 887.230469 529.960938 885.152344 529.355469 883.339844 528.089844 L 810.472656 477.292969 C 805.753906 474.003906 804.597656 467.507812 807.886719 462.789062 C 811.171875 458.066406 817.667969 456.910156 822.386719 460.203125 L 895.253906 511.003906 C 899.972656 514.289062 901.128906 520.785156 897.839844 525.503906 Z M 897.839844 525.503906"/></svg>