<svg xmlns="http://www.w3.org/2000/svg" width="1000pt" height="1000pt" viewBox="0 0 1000 1000"><path d="M 467.507812 655.445312 L 262.714844 512.050781 C 243.863281 498.851562 217.882812 503.433594 204.6875 522.285156 C 191.488281 541.136719 196.070312 567.117188 214.917969 580.3125 L 402.640625 711.757812 L 408.761719 899.160156 C 409.496094 921.695312 427.992188 939.46875 450.382812 939.464844 C 450.839844 939.464844 451.300781 939.460938 451.765625 939.445312 C 474.765625 938.695312 492.800781 919.441406 492.050781 896.441406 L 485.253906 688.214844 C 484.824219 675.109375 478.25 662.96875 467.507812 655.445312 Z M 244.898438 655.808594 C 222.496094 650.554688 200.074219 664.457031 194.820312 686.863281 L 143.585938 905.320312 C 138.332031 927.722656 152.234375 950.144531 174.636719 955.398438 C 177.835938 956.148438 181.035156 956.507812 184.1875 956.507812 C 203.09375 956.507812 220.210938 943.546875 224.714844 924.347656 L 275.949219 705.890625 C 281.207031 683.484375 267.300781 661.066406 244.898438 655.808594 Z M 536.25 194.835938 C 575.628906 222.410156 624.324219 213.550781 651.898438 174.171875 C 679.476562 134.792969 670.816406 85.691406 631.4375 58.117188 C 592.058594 30.546875 542.949219 39.195312 515.375 78.574219 C 487.800781 117.953125 496.871094 167.261719 536.25 194.835938 Z M 730.53125 407.441406 L 690.289062 401.472656 L 587.769531 283.382812 L 587.285156 282.878906 C 587.003906 282.570312 586.742188 282.242188 586.453125 281.941406 C 586.226562 281.703125 585.972656 281.484375 585.734375 281.253906 L 585.585938 281.113281 C 585.128906 280.660156 584.667969 280.207031 584.183594 279.773438 C 583.949219 279.558594 583.734375 279.332031 583.492188 279.125 C 583.210938 278.886719 582.90625 278.675781 582.617188 278.441406 C 582.019531 277.953125 581.414062 277.476562 580.785156 277.015625 C 580.585938 276.875 580.40625 276.707031 580.207031 276.566406 L 375.417969 133.171875 C 360.722656 122.886719 341.101562 123.152344 326.695312 133.835938 L 220.867188 212.332031 C 202.386719 226.042969 198.515625 252.136719 212.226562 270.621094 C 225.9375 289.109375 252.027344 292.976562 270.515625 279.265625 L 352.222656 218.660156 L 395.867188 249.222656 L 276.332031 419.789062 C 269.988281 428.839844 267.503906 440.039062 269.417969 450.921875 C 271.335938 461.808594 277.496094 471.488281 286.550781 477.828125 L 389.011719 549.597656 C 396.066406 554.539062 404.417969 557.136719 412.917969 557.136719 C 415.324219 557.136719 417.742188 556.925781 420.148438 556.503906 C 431.035156 554.582031 440.707031 548.421875 447.046875 539.367188 L 559.832031 378.304688 L 637.476562 467.738281 C 643.996094 475.246094 652.988281 480.179688 662.828125 481.636719 L 754.988281 495.304688 C 757.058594 495.613281 759.113281 495.761719 761.148438 495.761719 C 780.324219 495.761719 797.238281 482.5 801.648438 463.601562 C 770.328125 456.660156 744.265625 435.597656 730.53125 407.441406 Z M 824.210938 299.433594 C 789.695312 299.433594 761.710938 327.414062 761.710938 361.933594 C 761.710938 396.449219 789.695312 424.433594 824.210938 424.433594 C 858.730469 424.433594 886.710938 396.449219 886.710938 361.933594 C 886.710938 327.414062 858.730469 299.433594 824.210938 299.433594 Z M 824.210938 299.433594"/></svg>