<svg xmlns="http://www.w3.org/2000/svg" width="1000pt" height="1000pt" viewBox="0 0 1000 1000"><path d="M 420.09375 215.097656 C 459.472656 242.667969 508.167969 233.808594 535.746094 194.429688 C 563.320312 155.050781 554.664062 105.949219 515.285156 78.378906 C 475.902344 50.804688 426.792969 59.457031 399.222656 98.835938 C 371.644531 138.214844 380.710938 187.523438 420.09375 215.097656 Z M 812.367188 270.574219 L 812.328125 270.574219 L 562.457031 270.832031 L 437.601562 270.832031 C 437.355469 270.832031 437.113281 270.867188 436.863281 270.871094 C 436.054688 270.886719 435.253906 270.933594 434.453125 270.992188 C 433.796875 271.042969 433.136719 271.101562 432.476562 271.183594 C 431.832031 271.261719 431.195312 271.367188 430.558594 271.476562 C 429.757812 271.613281 428.953125 271.769531 428.144531 271.953125 C 427.910156 272.007812 427.671875 272.035156 427.4375 272.09375 L 290.710938 306.484375 L 225.886719 197.636719 C 206.988281 216.769531 180.769531 228.652344 151.816406 228.652344 C 150.300781 228.652344 148.796875 228.601562 147.296875 228.539062 L 234.988281 375.777344 C 242.625 388.601562 256.347656 396.132812 270.785156 396.132812 C 274.15625 396.132812 277.570312 395.71875 280.953125 394.867188 L 395.910156 365.953125 L 395.832031 520.792969 C 395.828125 531.847656 400.214844 542.449219 408.027344 550.265625 C 415.839844 558.085938 426.441406 562.476562 437.496094 562.480469 L 562.484375 562.5 L 562.492188 562.5 C 573.542969 562.5 584.140625 558.113281 591.953125 550.300781 C 599.769531 542.484375 604.160156 531.886719 604.160156 520.835938 L 604.164062 354.125 L 812.414062 353.910156 C 835.425781 353.882812 854.058594 335.210938 854.035156 312.199219 C 854.011719 289.199219 835.363281 270.574219 812.367188 270.574219 Z M 640.414062 625.285156 C 633.015625 612.230469 619.167969 604.167969 604.167969 604.167969 L 437.5 604.167969 C 414.488281 604.167969 395.832031 622.820312 395.832031 645.832031 C 395.832031 668.847656 414.488281 687.5 437.5 687.5 L 579.894531 687.5 L 714.585938 925.082031 C 722.257812 938.609375 736.355469 946.207031 750.871094 946.207031 C 757.835938 946.203125 764.894531 944.457031 771.386719 940.777344 C 791.402344 929.429688 798.429688 904.003906 787.082031 883.980469 Z M 477.636719 759.640625 C 471.453125 737.476562 448.476562 724.519531 426.308594 730.699219 C 404.140625 736.878906 391.183594 759.859375 397.363281 782.023438 L 413.835938 841.09375 L 339.734375 911.898438 C 323.097656 927.796875 322.496094 954.171875 338.394531 970.808594 C 346.582031 979.378906 357.542969 983.695312 368.523438 983.691406 C 378.871094 983.691406 389.234375 979.859375 397.304688 972.148438 L 489.464844 884.085938 C 500.582031 873.460938 504.945312 857.578125 500.8125 842.769531 Z M 200.742188 163.351562 C 209.230469 152.679688 214.320312 139.179688 214.320312 124.484375 C 214.320312 123.402344 214.292969 122.332031 214.238281 121.265625 C 214.128906 119.136719 213.914062 117.035156 213.597656 114.964844 C 209.015625 84.964844 183.097656 61.984375 151.820312 61.984375 C 120.535156 61.984375 94.621094 84.964844 90.039062 114.964844 C 89.726562 117.035156 89.507812 119.136719 89.398438 121.265625 C 89.347656 122.332031 89.320312 123.402344 89.320312 124.484375 C 89.320312 154.207031 110.074219 179.066406 137.878906 185.402344 C 142.363281 186.425781 147.027344 186.984375 151.820312 186.984375 C 171.640625 186.984375 189.292969 177.746094 200.742188 163.351562 Z M 200.742188 163.351562"/></svg>