<svg xmlns="http://www.w3.org/2000/svg" width="1000pt" height="1000pt" viewBox="0 0 1000 1000"><path d="M 870.398438 225.269531 C 851.546875 212.066406 825.570312 216.652344 812.367188 235.5 L 740.671875 337.894531 L 672.425781 290.105469 L 672.410156 290.09375 L 595.605469 236.316406 L 467.617188 146.699219 C 458.566406 140.359375 447.367188 137.882812 436.484375 139.796875 C 425.601562 141.714844 415.925781 147.882812 409.589844 156.933594 L 313.992188 293.457031 C 300.792969 312.308594 305.375 338.292969 324.226562 351.488281 C 343.078125 364.691406 369.058594 360.105469 382.253906 341.257812 L 453.949219 238.863281 L 488.070312 262.753906 L 368.535156 433.316406 C 362.191406 442.367188 359.703125 453.570312 361.617188 464.453125 C 363.535156 475.339844 369.699219 485.015625 378.75 491.355469 L 481.210938 563.125 C 488.265625 568.066406 496.617188 570.664062 505.117188 570.664062 C 507.523438 570.664062 509.945312 570.453125 512.347656 570.03125 C 523.234375 568.113281 532.910156 561.949219 539.246094 552.894531 L 658.738281 382.253906 L 727.003906 430.050781 C 734.277344 435.144531 742.613281 437.589844 750.867188 437.589844 C 764.003906 437.589844 776.929688 431.394531 785.035156 419.820312 L 880.632812 283.296875 C 893.832031 264.449219 889.25 238.46875 870.398438 225.269531 Z M 559.710938 668.976562 L 354.921875 525.582031 C 336.070312 512.378906 310.089844 516.964844 296.894531 535.8125 C 283.695312 554.664062 288.273438 580.644531 307.125 593.839844 L 477.800781 713.347656 L 358.386719 884.066406 C 345.195312 902.925781 349.789062 928.902344 368.644531 942.09375 C 375.917969 947.179688 384.246094 949.621094 392.492188 949.621094 C 405.636719 949.621094 418.566406 943.417969 426.671875 931.832031 L 569.957031 726.988281 C 583.140625 708.136719 578.554688 682.167969 559.710938 668.976562 Z M 351.488281 675.773438 C 332.636719 662.574219 306.660156 667.15625 293.460938 686.003906 L 150.066406 890.792969 C 136.867188 909.644531 141.449219 935.628906 160.296875 948.824219 C 167.574219 953.917969 175.90625 956.363281 184.160156 956.363281 C 197.296875 956.363281 210.222656 950.164062 218.328125 938.589844 L 361.722656 733.800781 C 374.921875 714.953125 370.339844 688.972656 351.488281 675.773438 Z M 628.457031 208.367188 C 667.835938 235.941406 716.53125 227.082031 744.105469 187.703125 C 771.679688 148.324219 763.023438 99.222656 723.644531 71.648438 C 684.265625 44.074219 635.152344 52.726562 607.582031 92.105469 C 580.007812 131.484375 589.078125 180.792969 628.457031 208.367188 Z M 628.457031 208.367188"/></svg>