<svg xmlns="http://www.w3.org/2000/svg" width="1000pt" height="1000pt" viewBox="0 0 1000 1000"><path d="M 177.039062 571.109375 C 188.746094 579.308594 204.882812 576.460938 213.078125 564.757812 L 257.605469 501.164062 L 278.796875 516 L 204.558594 621.929688 C 200.617188 627.550781 199.074219 634.507812 200.261719 641.269531 C 201.453125 648.027344 205.28125 654.042969 210.902344 657.980469 L 274.539062 702.554688 C 278.917969 705.625 284.109375 707.238281 289.382812 707.238281 C 290.878906 707.238281 292.382812 707.109375 293.871094 706.84375 C 300.632812 705.652344 306.644531 701.828125 310.582031 696.203125 L 384.796875 590.226562 L 427.191406 619.910156 C 431.710938 623.074219 436.886719 624.589844 442.011719 624.589844 C 450.167969 624.589844 458.199219 620.742188 463.234375 613.554688 L 522.605469 528.765625 C 530.804688 517.054688 527.957031 500.921875 516.25 492.722656 C 504.542969 484.523438 488.410156 487.371094 480.207031 499.078125 L 435.679688 562.671875 L 393.292969 532.992188 L 393.285156 532.984375 L 347.582031 500.984375 L 266.097656 443.925781 C 260.472656 439.988281 253.519531 438.449219 246.757812 439.640625 C 240 440.832031 233.992188 444.660156 230.054688 450.277344 L 170.683594 535.070312 C 162.484375 546.777344 165.332031 562.914062 177.039062 571.109375 Z M 323.292969 768.289062 L 196.105469 679.234375 C 184.394531 671.035156 168.261719 673.882812 160.0625 685.585938 C 151.863281 697.292969 154.710938 713.429688 166.417969 721.628906 L 272.417969 795.851562 L 198.253906 901.878906 C 190.058594 913.589844 192.914062 929.726562 204.625 937.917969 C 209.140625 941.078125 214.316406 942.59375 219.433594 942.59375 C 227.597656 942.59375 235.628906 938.742188 240.664062 931.546875 L 329.652344 804.324219 C 337.84375 792.613281 334.996094 776.484375 323.292969 768.289062 Z M 193.972656 772.511719 C 182.261719 764.316406 166.128906 767.164062 157.929688 778.867188 L 68.871094 906.054688 C 60.671875 917.761719 63.519531 933.898438 75.226562 942.097656 C 79.746094 945.261719 84.921875 946.777344 90.046875 946.777344 C 98.203125 946.777344 106.234375 942.929688 111.265625 935.742188 L 200.324219 808.554688 C 208.523438 796.847656 205.675781 780.707031 193.972656 772.511719 Z M 353.019531 410.015625 C 335.894531 434.472656 341.527344 465.097656 365.988281 482.222656 C 390.445312 499.347656 420.6875 493.84375 437.816406 469.386719 C 454.941406 444.929688 449.566406 414.433594 425.105469 397.308594 C 400.644531 380.183594 370.148438 385.554688 353.019531 410.015625 Z M 607.441406 823.816406 L 688.929688 707.433594 C 698.914062 693.179688 695.449219 673.53125 681.191406 663.550781 L 620.5 621.054688 C 606.242188 611.070312 586.597656 614.535156 576.613281 628.792969 C 566.632812 643.046875 570.097656 662.695312 584.351562 672.679688 L 619.230469 697.101562 L 578.210938 755.675781 L 526.289062 634.605469 C 523.113281 627.191406 517.410156 621.65625 510.632812 618.496094 L 497.359375 637.453125 C 490.105469 647.816406 480.183594 655.757812 468.886719 660.660156 L 562.902344 879.882812 C 568.023438 891.824219 579.65625 898.980469 591.878906 898.980469 C 596.023438 898.980469 600.234375 898.160156 604.285156 896.421875 C 620.277344 889.558594 627.683594 871.035156 620.824219 855.039062 Z M 811.261719 422.929688 C 794.191406 447.308594 799.804688 477.832031 824.179688 494.898438 C 848.558594 511.96875 878.703125 506.488281 895.773438 482.109375 C 912.839844 457.730469 907.484375 427.335938 883.105469 410.265625 C 858.730469 393.199219 828.328125 398.550781 811.261719 422.929688 Z M 373.066406 679.609375 L 351.03125 711.074219 C 354.324219 710.722656 357.664062 710.535156 361.046875 710.535156 C 412.707031 710.535156 454.734375 752.5625 454.734375 804.222656 C 454.734375 855.882812 412.707031 897.910156 361.046875 897.910156 C 346.828125 897.910156 333.34375 894.710938 321.261719 889.015625 L 303.011719 915.105469 C 320.371094 924.226562 340.109375 929.417969 361.042969 929.417969 C 430.078125 929.417969 486.242188 873.253906 486.242188 804.21875 C 486.242188 739.238281 436.480469 685.679688 373.066406 679.609375 Z M 812.300781 679.019531 C 806.230469 679.019531 800.265625 679.480469 794.421875 680.316406 L 780.9375 662.347656 L 780.9375 489.460938 C 780.9375 472.058594 766.832031 457.949219 749.425781 457.949219 L 539.160156 457.949219 C 539.484375 458.171875 539.828125 458.363281 540.152344 458.59375 C 570.65625 479.949219 578.097656 522.148438 556.738281 552.65625 L 534.742188 584.066406 L 717.914062 584.066406 L 717.914062 672.855469 C 717.914062 679.675781 720.128906 686.3125 724.222656 691.769531 L 734.863281 705.953125 C 705.804688 728.898438 687.101562 764.40625 687.101562 804.222656 C 687.101562 873.257812 743.265625 929.421875 812.300781 929.421875 C 881.335938 929.421875 937.5 873.257812 937.5 804.222656 C 937.5 735.183594 881.335938 679.019531 812.300781 679.019531 Z M 812.300781 897.90625 C 760.640625 897.90625 718.613281 855.878906 718.613281 804.21875 C 718.613281 774.691406 732.359375 748.328125 753.769531 731.144531 L 785.050781 772.832031 C 791.246094 781.082031 800.703125 785.433594 810.28125 785.433594 C 816.863281 785.433594 823.503906 783.378906 829.171875 779.125 C 843.089844 768.679688 845.90625 748.925781 835.460938 735.007812 L 817.191406 710.660156 C 866.585938 713.214844 905.984375 754.199219 905.984375 804.21875 C 905.988281 855.878906 863.960938 897.90625 812.300781 897.90625 Z M 664.273438 170.347656 C 690.882812 148.019531 694.023438 112.128906 671.695312 85.515625 C 649.363281 58.902344 613.46875 55.761719 586.859375 78.089844 C 560.246094 100.421875 557.355469 136.53125 579.683594 163.140625 C 602.015625 189.753906 637.664062 192.675781 664.273438 170.347656 Z M 382.992188 209.851562 L 452.183594 151.792969 L 471.527344 174.847656 L 356.199219 271.542969 C 354.167969 273.238281 352.417969 275.164062 350.945312 277.246094 C 365.796875 284.378906 380.914062 289.289062 404.300781 289.289062 C 407.269531 289.289062 410.375 289.210938 413.53125 289.050781 C 450.996094 287.175781 466.960938 276.472656 489.058594 261.664062 C 512.089844 246.226562 540.078125 227.476562 588.890625 221.035156 L 478.960938 90.019531 C 468.269531 77.285156 449.277344 75.621094 436.542969 86.308594 L 344.285156 163.722656 C 331.546875 174.410156 329.886719 193.402344 340.574219 206.140625 C 351.261719 218.878906 370.257812 220.539062 382.992188 209.851562 Z M 213.773438 299.175781 C 259.5625 296.878906 282.769531 309.269531 307.339844 322.382812 C 333.171875 336.171875 362.449219 351.800781 416.542969 349.089844 C 470.636719 346.378906 498.203125 327.898438 522.527344 311.597656 C 545.664062 296.085938 567.515625 281.4375 613.308594 279.144531 C 659.105469 276.847656 682.316406 289.238281 706.886719 302.355469 C 732.714844 316.140625 761.996094 331.769531 816.089844 329.058594 C 824.363281 328.644531 830.734375 321.601562 830.320312 313.324219 C 829.90625 305.050781 822.859375 298.679688 814.585938 299.09375 C 768.792969 301.390625 745.585938 289 721.011719 275.882812 C 695.179688 262.09375 665.902344 246.464844 611.808594 249.175781 C 557.714844 251.890625 530.144531 270.367188 505.824219 286.671875 C 482.6875 302.179688 460.832031 316.828125 415.039062 319.121094 C 369.246094 321.421875 346.042969 309.027344 321.472656 295.914062 C 295.640625 282.125 266.359375 266.496094 212.269531 269.207031 C 203.992188 269.621094 197.621094 276.667969 198.039062 284.941406 C 198.453125 293.214844 205.496094 299.589844 213.773438 299.175781 Z M 213.773438 299.175781"/></svg>