<svg xmlns="http://www.w3.org/2000/svg" width="1000pt" height="1000pt" viewBox="0 0 1000 1000"><path d="M 500 83.332031 C 269.875 83.332031 83.332031 269.875 83.332031 500 C 83.332031 730.082031 269.875 916.667969 500 916.667969 C 730.082031 916.667969 916.667969 730.082031 916.667969 500 C 916.667969 269.875 730.082031 83.332031 500 83.332031 Z M 620.527344 342.042969 C 605.152344 333.207031 589.277344 325.957031 573.234375 319.5 C 573.105469 319.765625 572.984375 320.035156 572.863281 320.300781 C 572.679688 320.699219 572.503906 321.101562 572.277344 321.5 C 556.277344 352.335938 545.027344 385.292969 538.113281 419.25 C 537.757812 421.007812 537.394531 422.757812 537.027344 424.507812 C 535.683594 430.984375 534.339844 437.449219 533.484375 444.042969 C 532.960938 448.027344 532.691406 452.054688 532.421875 456.066406 C 532.289062 458.089844 532.152344 460.109375 531.984375 462.121094 C 531.402344 469.414062 531.070312 476.707031 530.902344 484.042969 C 534.871094 486.472656 538.644531 489.226562 542.417969 491.984375 L 542.421875 491.984375 L 542.421875 491.988281 C 544.664062 493.625 546.910156 495.265625 549.191406 496.832031 C 550.640625 497.835938 552.160156 498.757812 553.675781 499.679688 C 555.5625 500.828125 557.453125 501.976562 559.234375 503.292969 C 560.066406 503.882812 560.851562 504.550781 561.636719 505.226562 L 561.640625 505.226562 C 562.351562 505.835938 563.066406 506.445312 563.816406 507 C 574.398438 514.917969 584.398438 523.417969 594.191406 532.25 C 594.585938 532.582031 594.984375 532.914062 595.382812 533.246094 L 595.386719 533.246094 C 596.578125 534.238281 597.773438 535.230469 598.898438 536.292969 C 599.167969 536.542969 599.429688 536.808594 599.691406 537.085938 L 599.695312 537.085938 C 599.960938 537.363281 600.234375 537.648438 600.523438 537.917969 C 631.234375 566.753906 658.191406 599.375 679.359375 636 C 679.585938 636.359375 679.769531 636.746094 679.957031 637.140625 C 680.074219 637.386719 680.1875 637.636719 680.316406 637.878906 C 685.648438 647.253906 690.359375 656.835938 694.898438 666.417969 C 695.152344 666.949219 695.371094 667.484375 695.582031 668.007812 C 695.753906 668.425781 695.921875 668.84375 696.109375 669.253906 C 700.109375 677.878906 703.648438 686.546875 707.066406 695.335938 C 707.523438 696.503906 708.023438 697.648438 708.523438 698.796875 C 709.171875 700.273438 709.820312 701.753906 710.359375 703.253906 C 710.484375 703.585938 710.617188 703.910156 710.753906 704.234375 C 710.886719 704.554688 711.023438 704.882812 711.148438 705.214844 C 711.636719 706.597656 712.046875 708.003906 712.453125 709.410156 C 712.804688 710.628906 713.160156 711.847656 713.566406 713.046875 C 715.941406 720.128906 718.230469 727.257812 720.273438 734.507812 C 720.546875 735.566406 720.886719 736.597656 721.226562 737.621094 L 721.226562 737.625 C 721.605469 738.785156 721.984375 739.941406 722.273438 741.132812 C 722.648438 742.382812 723.023438 743.675781 723.359375 744.921875 C 724.199219 748.207031 724.847656 751.507812 725.492188 754.8125 C 725.839844 756.585938 726.1875 758.359375 726.566406 760.132812 C 726.898438 761.683594 727.238281 763.230469 727.582031 764.773438 C 727.980469 766.578125 728.378906 768.378906 728.757812 770.183594 C 711.914062 784.464844 693.726562 797.207031 674.40625 808.183594 C 673.496094 800.246094 672.308594 792.308594 670.863281 784.375 C 670.070312 780.25 669.152344 776.167969 668.234375 772.082031 C 666.277344 763.042969 664.277344 754.042969 661.570312 745.128906 C 660.714844 742.175781 659.660156 739.265625 658.609375 736.363281 C 658.074219 734.878906 657.535156 733.398438 657.027344 731.917969 C 656.597656 730.648438 656.167969 729.375 655.738281 728.105469 C 653.363281 721.058594 651.003906 714.054688 648.070312 707.167969 C 634.777344 717.003906 620.984375 726.417969 606.277344 734.917969 C 505.835938 792.894531 389.027344 806.609375 281.121094 778.273438 C 245.964844 750.5625 216.164062 716.339844 193.558594 677.449219 C 309.695312 749.390625 456.695312 752.507812 576.492188 683.359375 C 591.910156 674.445312 606.074219 664.320312 619.660156 653.695312 L 619.519531 653.46875 L 619.332031 653.179688 L 619.078125 652.796875 C 618.878906 652.507812 618.679688 652.214844 618.492188 651.902344 C 599.785156 622.609375 576.828125 596.398438 550.867188 573.359375 C 549.121094 571.84375 547.390625 570.308594 545.664062 568.773438 C 541.113281 564.738281 536.558594 560.699219 531.703125 556.984375 C 528.335938 554.355469 524.761719 551.980469 521.179688 549.601562 C 519.710938 548.621094 518.242188 547.644531 516.785156 546.652344 C 510.785156 542.484375 504.660156 538.527344 498.367188 534.734375 C 494.21875 537.007812 489.898438 538.914062 485.570312 540.824219 C 483.078125 541.921875 480.582031 543.023438 478.117188 544.195312 C 476.480469 544.976562 474.882812 545.851562 473.289062 546.730469 C 471.394531 547.769531 469.503906 548.8125 467.535156 549.695312 C 466.578125 550.117188 465.585938 550.453125 464.601562 550.792969 L 464.597656 550.792969 C 463.734375 551.089844 462.871094 551.386719 462.035156 551.734375 C 449.867188 556.984375 437.496094 561.402344 424.914062 565.484375 C 424.199219 565.734375 423.480469 565.992188 422.765625 566.253906 L 422.761719 566.257812 L 422.757812 566.257812 C 421.554688 566.695312 420.347656 567.136719 419.121094 567.527344 C 418.660156 567.6875 418.167969 567.777344 417.683594 567.871094 L 417.332031 567.933594 L 416.914062 568.023438 C 376.621094 580.273438 334.832031 587.320312 292.539062 587.320312 C 292.203125 587.320312 291.871094 587.296875 291.550781 587.273438 L 291.546875 587.273438 C 291.238281 587.253906 290.929688 587.234375 290.621094 587.234375 C 279.746094 587.105469 269.082031 586.441406 258.414062 585.609375 L 258.414062 585.566406 C 257.894531 585.542969 257.382812 585.472656 256.871094 585.398438 C 256.363281 585.328125 255.851562 585.253906 255.332031 585.234375 C 245.914062 584.355469 236.582031 583.105469 227.289062 581.648438 C 226.082031 581.472656 224.867188 581.339844 223.652344 581.207031 C 222.019531 581.027344 220.390625 580.851562 218.789062 580.566406 L 218.515625 580.519531 L 218.203125 580.46875 L 217.835938 580.414062 C 217.46875 580.355469 217.109375 580.300781 216.75 580.234375 C 215.070312 579.953125 213.457031 579.550781 211.835938 579.144531 L 211.832031 579.144531 C 210.800781 578.886719 209.765625 578.628906 208.707031 578.402344 C 201.375 576.945312 194.082031 575.359375 186.832031 573.484375 C 185.917969 573.265625 184.984375 573.074219 184.050781 572.878906 C 182.695312 572.597656 181.332031 572.3125 180 571.945312 C 179.488281 571.808594 178.972656 571.683594 178.453125 571.5625 C 177.703125 571.386719 176.949219 571.207031 176.210938 570.984375 C 173.03125 570.117188 169.929688 569.050781 166.835938 567.988281 C 165.019531 567.363281 163.207031 566.738281 161.378906 566.152344 C 159.957031 565.691406 158.535156 565.238281 157.113281 564.789062 C 155.21875 564.183594 153.324219 563.582031 151.4375 562.957031 C 147.753906 542.511719 145.832031 521.476562 145.832031 500 C 145.832031 498.988281 145.835938 497.976562 145.847656 496.964844 C 153.1875 500.121094 160.675781 503.066406 168.269531 505.773438 C 172.230469 507.191406 176.269531 508.4375 180.3125 509.691406 C 189.105469 512.519531 197.894531 515.230469 206.894531 517.398438 C 209.734375 518.066406 212.609375 518.578125 215.472656 519.089844 C 217.230469 519.402344 218.988281 519.714844 220.730469 520.066406 C 222.328125 520.375 223.925781 520.691406 225.519531 521.007812 C 232.488281 522.390625 239.445312 523.765625 246.5625 524.648438 C 244.691406 508.191406 243.4375 491.566406 243.4375 474.605469 C 243.4375 358.496094 290.058594 250.382812 368.707031 171.054688 C 409.222656 154.828125 453.410156 145.878906 499.644531 145.835938 C 379.191406 210.414062 302.964844 336.238281 302.964844 474.574219 C 302.964844 492.363281 304.632812 509.699219 307.085938 526.824219 C 307.464844 526.800781 307.828125 526.769531 308.191406 526.738281 C 308.554688 526.707031 308.921875 526.675781 309.296875 526.65625 C 343.960938 525.074219 378.085938 518.363281 410.960938 507.40625 C 412.816406 506.777344 414.671875 506.164062 416.527344 505.550781 C 422.675781 503.515625 428.808594 501.484375 434.796875 498.988281 C 438.484375 497.476562 442.078125 495.710938 445.675781 493.941406 L 445.679688 493.941406 C 447.535156 493.027344 449.386719 492.117188 451.257812 491.238281 C 457.839844 488.113281 464.296875 484.78125 470.714844 481.238281 C 470.84375 476.585938 471.34375 471.992188 471.839844 467.398438 L 471.839844 467.394531 C 472.144531 464.582031 472.453125 461.773438 472.671875 458.945312 C 472.800781 457.222656 472.839844 455.472656 472.882812 453.722656 L 472.882812 453.71875 C 472.929688 451.492188 472.980469 449.261719 473.214844 447.070312 C 473.328125 446.003906 473.527344 444.949219 473.726562 443.902344 L 473.726562 443.898438 C 473.894531 443.023438 474.058594 442.152344 474.171875 441.277344 C 475.757812 428.113281 478.089844 415.152344 480.839844 402.238281 C 480.96875 401.554688 481.085938 400.863281 481.207031 400.171875 C 481.433594 398.84375 481.664062 397.511719 481.964844 396.199219 C 482.046875 395.84375 482.164062 395.480469 482.273438 395.113281 C 482.390625 394.746094 482.503906 394.382812 482.585938 394.027344 C 492.171875 352.988281 506.921875 313.277344 528.085938 276.652344 L 528.363281 276.242188 L 528.535156 275.992188 C 528.769531 275.648438 529.007812 275.304688 529.210938 274.945312 C 534.710938 265.652344 540.628906 256.738281 546.671875 247.988281 C 547 247.496094 547.355469 247.039062 547.714844 246.578125 C 547.996094 246.226562 548.273438 245.867188 548.546875 245.488281 C 553.960938 237.78125 559.710938 230.363281 565.628906 223.03125 C 566.402344 222.058594 567.140625 221.054688 567.875 220.050781 L 567.875 220.046875 C 568.835938 218.734375 569.796875 217.425781 570.835938 216.195312 C 571.082031 215.90625 571.316406 215.605469 571.542969 215.3125 C 571.742188 215.054688 571.933594 214.804688 572.128906 214.574219 C 573.113281 213.402344 574.160156 212.316406 575.199219 211.230469 C 576.054688 210.339844 576.902344 209.453125 577.710938 208.53125 C 582.671875 202.863281 587.710938 197.40625 592.921875 192.03125 C 593.632812 191.300781 594.316406 190.542969 595.003906 189.78125 L 595.007812 189.78125 C 595.890625 188.800781 596.773438 187.820312 597.710938 186.90625 C 598.585938 185.988281 599.503906 185.03125 600.421875 184.113281 C 602.730469 181.855469 605.136719 179.753906 607.542969 177.652344 C 609.039062 176.347656 610.535156 175.039062 612.007812 173.699219 C 613.265625 172.5625 614.519531 171.421875 615.773438 170.277344 L 615.785156 170.269531 C 617.109375 169.066406 618.429688 167.863281 619.757812 166.667969 C 640.707031 174.21875 660.746094 183.691406 679.660156 194.867188 C 673.257812 199.636719 667.023438 204.632812 660.890625 209.804688 C 658.121094 212.175781 655.449219 214.640625 652.761719 217.117188 L 651.472656 218.304688 C 644.679688 224.472656 637.847656 230.722656 631.472656 237.472656 C 629.523438 239.542969 627.691406 241.722656 625.847656 243.910156 C 624.648438 245.328125 623.453125 246.742188 622.222656 248.140625 C 621.148438 249.378906 620.070312 250.613281 618.988281 251.847656 C 614.335938 257.175781 609.675781 262.507812 605.347656 268.222656 C 620.554688 274.761719 635.597656 282.054688 650.265625 290.511719 C 750.847656 348.582031 821.183594 443.023438 850.535156 550.820312 C 844.007812 596.074219 828.890625 638.585938 806.894531 676.648438 C 811.140625 540.085938 740.320312 411.226562 620.527344 342.042969 Z M 620.527344 342.042969"/></svg>