<svg xmlns="http://www.w3.org/2000/svg" width="1000pt" height="1000pt" viewBox="0 0 1000 1000"><path d="M 508.238281 214.605469 C 552.027344 198.667969 574.601562 150.25 558.667969 106.460938 C 542.730469 62.671875 494.308594 40.097656 450.519531 56.035156 C 406.730469 71.972656 384.15625 120.390625 400.09375 164.175781 C 416.027344 207.964844 464.449219 230.542969 508.238281 214.605469 Z M 846.578125 352.101562 L 727.566406 268.769531 C 720.5625 263.863281 712.21875 261.234375 703.667969 261.234375 L 562.101562 261.234375 C 561.910156 261.230469 561.726562 261.203125 561.535156 261.203125 L 436.535156 261.203125 C 436.34375 261.203125 436.160156 261.230469 435.972656 261.234375 L 292.355469 261.234375 L 239.832031 182.453125 C 233.121094 183.960938 226.277344 184.726562 219.378906 184.726562 C 193.289062 184.726562 168.914062 173.769531 151.546875 155.597656 C 143.007812 169.082031 142.625 186.871094 152.050781 201.011719 L 235.386719 326.015625 C 243.113281 337.605469 256.121094 344.570312 270.054688 344.570312 L 394.871094 344.570312 L 394.871094 552.871094 C 394.871094 575.886719 413.523438 594.539062 436.539062 594.539062 L 500.550781 594.539062 C 572.335938 594.539062 630.738281 652.941406 630.738281 724.722656 C 630.738281 796.507812 572.335938 854.90625 500.550781 854.90625 C 428.769531 854.90625 370.367188 796.507812 370.367188 724.722656 C 370.367188 703.328125 375.375 682.964844 385.253906 664.203125 C 395.972656 643.839844 388.152344 618.640625 367.789062 607.921875 C 347.421875 597.203125 322.226562 605.023438 311.511719 625.386719 C 295.496094 655.808594 287.035156 690.160156 287.035156 724.722656 C 287.035156 842.457031 382.820312 938.238281 500.550781 938.238281 C 618.285156 938.238281 714.070312 842.457031 714.070312 724.722656 C 714.070312 644.171875 669.230469 573.90625 603.203125 537.550781 L 603.203125 344.566406 L 690.53125 344.566406 L 798.78125 420.363281 C 806.054688 425.457031 814.390625 427.902344 822.644531 427.902344 C 835.777344 427.902344 848.707031 421.707031 856.808594 410.132812 C 870.011719 391.28125 865.429688 365.300781 846.578125 352.101562 Z M 162.335938 116.476562 C 162.472656 116.78125 162.609375 117.082031 162.746094 117.382812 C 163.363281 118.703125 164.007812 120 164.703125 121.257812 L 164.980469 121.730469 C 165.628906 122.882812 166.316406 124.003906 167.027344 125.097656 C 167.179688 125.335938 167.332031 125.578125 167.492188 125.8125 C 168.28125 126.988281 169.105469 128.136719 169.964844 129.246094 C 170.125 129.453125 170.289062 129.648438 170.453125 129.855469 C 171.253906 130.859375 172.078125 131.839844 172.933594 132.789062 L 173.335938 133.246094 C 174.289062 134.277344 175.273438 135.273438 176.285156 136.234375 C 176.496094 136.433594 176.714844 136.632812 176.929688 136.832031 L 177.472656 137.304688 C 178.308594 138.058594 179.148438 138.816406 180.023438 139.523438 L 180.148438 139.625 C 181.242188 140.507812 182.378906 141.339844 183.527344 142.144531 C 183.773438 142.316406 184.023438 142.488281 184.269531 142.65625 C 185.425781 143.4375 186.597656 144.191406 187.796875 144.894531 L 188.097656 145.058594 C 189.230469 145.710938 190.386719 146.324219 191.554688 146.90625 C 191.8125 147.035156 192.070312 147.164062 192.328125 147.289062 C 193.566406 147.882812 194.820312 148.441406 196.097656 148.953125 C 196.316406 149.042969 196.539062 149.121094 196.753906 149.203125 C 197.914062 149.65625 199.082031 150.070312 200.261719 150.449219 C 200.492188 150.523438 200.722656 150.605469 200.953125 150.675781 C 202.261719 151.078125 203.585938 151.441406 204.921875 151.761719 C 205.210938 151.828125 205.5 151.890625 205.789062 151.957031 C 207.046875 152.238281 208.308594 152.484375 209.582031 152.691406 L 210 152.761719 C 211.371094 152.972656 212.753906 153.121094 214.140625 153.238281 C 214.460938 153.269531 214.785156 153.292969 215.105469 153.3125 C 216.507812 153.410156 217.917969 153.476562 219.328125 153.476562 L 219.371094 153.476562 C 219.710938 153.476562 220.050781 153.460938 220.390625 153.453125 L 220.390625 153.449219 C 220.988281 153.441406 221.585938 153.4375 222.183594 153.410156 C 222.464844 153.394531 222.746094 153.371094 223.023438 153.355469 C 223.707031 153.316406 224.390625 153.269531 225.074219 153.207031 C 225.441406 153.171875 225.804688 153.128906 226.171875 153.085938 C 226.773438 153.019531 227.378906 152.949219 227.980469 152.867188 C 228.371094 152.8125 228.761719 152.746094 229.152344 152.683594 C 229.734375 152.59375 230.316406 152.492188 230.898438 152.382812 C 231.292969 152.304688 231.691406 152.230469 232.082031 152.148438 C 232.671875 152.023438 233.257812 151.890625 233.847656 151.75 C 234.230469 151.660156 234.609375 151.570312 234.992188 151.46875 C 235.628906 151.304688 236.261719 151.121094 236.894531 150.933594 C 237.222656 150.839844 237.546875 150.753906 237.878906 150.648438 C 238.832031 150.351562 239.789062 150.035156 240.738281 149.691406 C 241.753906 149.320312 242.753906 148.929688 243.734375 148.515625 C 245.699219 147.683594 247.601562 146.761719 249.4375 145.757812 C 250.355469 145.257812 251.257812 144.734375 252.140625 144.191406 C 270.71875 132.773438 281.839844 112.480469 281.878906 91.074219 C 281.894531 83.941406 280.675781 76.679688 278.09375 69.585938 C 277.578125 68.171875 277.003906 66.796875 276.398438 65.445312 C 276.261719 65.140625 276.125 64.832031 275.984375 64.527344 C 275.371094 63.214844 274.726562 61.925781 274.035156 60.667969 L 273.738281 60.164062 C 273.097656 59.027344 272.421875 57.921875 271.71875 56.835938 C 271.554688 56.589844 271.398438 56.339844 271.234375 56.09375 C 270.449219 54.925781 269.628906 53.789062 268.773438 52.683594 C 268.605469 52.464844 268.429688 52.253906 268.261719 52.039062 C 267.472656 51.046875 266.660156 50.082031 265.816406 49.148438 L 265.386719 48.664062 C 264.441406 47.636719 263.460938 46.648438 262.457031 45.695312 C 262.238281 45.484375 262.011719 45.277344 261.785156 45.070312 C 260.792969 44.152344 259.78125 43.265625 258.734375 42.417969 L 258.578125 42.289062 C 257.488281 41.410156 256.363281 40.582031 255.214844 39.785156 C 254.964844 39.605469 254.710938 39.429688 254.453125 39.257812 C 253.304688 38.476562 252.136719 37.726562 250.941406 37.027344 L 250.617188 36.847656 C 249.492188 36.199219 248.347656 35.589844 247.183594 35.015625 C 246.925781 34.886719 246.667969 34.753906 246.402344 34.628906 C 245.167969 34.035156 243.914062 33.476562 242.640625 32.964844 C 242.421875 32.878906 242.199219 32.796875 241.976562 32.710938 C 240.824219 32.265625 239.65625 31.851562 238.476562 31.46875 C 238.242188 31.394531 238.011719 31.3125 237.78125 31.242188 C 236.472656 30.835938 235.144531 30.480469 233.808594 30.160156 C 233.523438 30.089844 233.238281 30.027344 232.949219 29.964844 C 231.691406 29.683594 230.421875 29.433594 229.144531 29.230469 L 228.738281 29.160156 C 227.363281 28.949219 225.980469 28.796875 224.589844 28.679688 C 224.269531 28.652344 223.949219 28.632812 223.632812 28.609375 C 222.230469 28.511719 220.820312 28.449219 219.40625 28.445312 C 218.453125 28.445312 217.5 28.46875 216.546875 28.511719 C 216.273438 28.523438 216.003906 28.546875 215.730469 28.5625 C 215.035156 28.605469 214.339844 28.648438 213.644531 28.710938 C 213.292969 28.746094 212.941406 28.789062 212.589844 28.828125 C 211.96875 28.894531 211.351562 28.96875 210.730469 29.054688 C 210.355469 29.109375 209.984375 29.167969 209.609375 29.226562 C 209.003906 29.324219 208.398438 29.425781 207.796875 29.542969 C 207.421875 29.613281 207.046875 29.683594 206.675781 29.761719 C 206.058594 29.890625 205.445312 30.03125 204.832031 30.179688 C 204.472656 30.265625 204.117188 30.347656 203.757812 30.441406 C 203.097656 30.613281 202.429688 30.804688 201.769531 30.996094 C 201.464844 31.085938 201.164062 31.167969 200.863281 31.261719 C 199.902344 31.5625 198.945312 31.878906 197.988281 32.226562 C 165.558594 44.03125 148.835938 79.894531 160.640625 112.332031 C 161.152344 113.746094 161.734375 115.121094 162.335938 116.476562 Z M 162.335938 116.476562"/></svg>