<svg width="1000" height="1000" viewBox="0 0 1000 1000" fill="none" xmlns="http://www.w3.org/2000/svg">
<path fill-rule="evenodd" clip-rule="evenodd" d="M895.417 368.125C909.167 409.583 916.667 453.958 916.667 500C916.667 730 730 916.667 500 916.667C269.792 916.667 83.3333 730 83.3333 500C83.3333 269.792 269.792 83.3334 500 83.3334C546.042 83.3334 590.208 90.8334 631.667 104.583C595.625 133.958 570.833 176.458 564.167 224.583C558.75 231.25 553.542 238.125 548.542 245.208C548.333 245.625 547.917 246.042 547.708 246.25C547.292 246.667 547.083 247.083 546.667 247.708C540.625 256.458 534.792 265.417 529.167 274.583C528.958 275 528.75 275.208 528.542 275.625L528.333 275.833C528.333 276.042 528.125 276.042 528.125 276.25C506.875 312.917 492.292 352.5 482.708 393.542C482.708 393.958 482.5 394.167 482.292 394.583C482.083 395 482.083 395.417 482.083 395.625C481.875 396.875 481.458 398.333 481.25 399.583C481.042 400.208 481.042 401.042 480.833 401.667C478.125 414.583 475.833 427.5 474.167 440.625C473.958 441.458 473.958 442.292 473.75 443.333C473.542 444.375 473.333 445.417 473.333 446.458C473.125 448.75 473.125 450.833 472.917 453.125C472.917 454.792 472.917 456.667 472.708 458.333C472.5 461.25 472.083 463.958 471.875 466.875C471.458 471.458 470.833 476.042 470.833 480.625C464.375 484.167 457.917 487.5 451.458 490.625C449.583 491.458 447.708 492.5 445.833 493.333C442.292 495 438.542 496.875 435 498.333C428.958 500.833 422.917 502.917 416.667 504.792C414.792 505.417 412.917 506.042 411.042 506.667C378.125 517.708 343.958 524.375 309.375 525.833C308.958 525.833 308.542 525.833 308.333 525.833C307.917 525.833 307.5 525.833 307.292 525.833C304.792 508.75 303.125 491.458 303.125 473.542C303.125 335.208 379.375 209.375 499.792 144.792C453.542 144.792 409.375 153.75 368.958 170C290.208 249.375 243.75 357.5 243.75 473.542C243.75 490.417 245 507.083 246.875 523.542C239.792 522.708 232.708 521.25 225.833 520C224.167 519.583 222.708 519.375 221.042 518.958C219.375 518.542 217.5 518.333 215.833 517.917C212.917 517.5 210 516.875 207.292 516.25C198.333 514.167 189.583 511.458 180.625 508.542C176.667 507.292 172.5 506.042 168.542 504.583C161.042 501.875 153.542 498.958 146.042 495.833C146.042 496.875 146.042 497.917 146.042 498.958C146.042 520.417 147.917 541.458 151.667 561.875C153.542 562.5 155.417 563.125 157.292 563.75C158.75 564.167 160.208 564.583 161.458 565.208C163.333 565.833 165 566.458 166.875 567.083C170 568.125 173.125 569.167 176.25 570C177.083 570.208 177.708 570.417 178.542 570.625C178.958 570.833 179.583 570.833 180 571.042C181.25 571.458 182.708 571.667 183.958 571.875C184.792 572.083 185.833 572.292 186.667 572.5C193.958 574.375 201.25 576.042 208.542 577.5C209.583 577.708 210.625 577.917 211.667 578.333C213.333 578.75 215 579.167 216.667 579.375C217.083 579.375 217.292 579.583 217.708 579.583H218.125H218.542H218.75C220.417 579.792 222.083 580 223.542 580.208C224.792 580.417 226.042 580.417 227.083 580.625C236.458 582.083 245.625 583.333 255.208 584.167C255.625 584.167 256.25 584.167 256.667 584.375C257.083 584.375 257.708 584.583 258.125 584.583C268.75 585.417 279.375 586.042 290.417 586.25C290.625 586.25 291.042 586.25 291.25 586.25C291.667 586.25 291.875 586.25 292.292 586.25C334.583 586.25 376.458 579.167 416.667 566.875C416.875 566.875 416.875 566.875 417.083 566.875H417.5C417.917 566.875 418.542 566.667 418.958 566.458C420.208 566.042 421.458 565.625 422.5 565.208C423.125 565 423.958 564.792 424.583 564.375C437.083 560.208 449.583 555.833 461.667 550.625C462.5 550.208 463.333 550 464.167 549.583C465.208 549.167 466.25 548.958 467.083 548.542C468.958 547.708 471.042 546.667 472.917 545.625C474.583 544.792 476.042 543.958 477.708 543.125C480.208 541.875 482.708 540.833 485.208 539.792C489.583 537.917 493.958 536.042 497.917 533.75C504.167 537.5 510.417 541.458 516.25 545.625C517.708 546.667 519.167 547.5 520.625 548.542C524.167 550.833 527.708 553.333 531.042 555.833C535.833 559.583 540.417 563.542 545 567.708C546.667 569.167 548.542 570.833 550.208 572.292C576.25 595.417 599.167 621.458 617.917 650.833C618.125 651.042 618.333 651.458 618.542 651.667L618.75 652.083L618.958 652.292L619.167 652.5C605.625 663.125 591.458 673.333 576.042 682.083C456.25 751.25 309.167 748.125 193.125 676.25C215.833 715.208 245.625 749.375 280.625 777.083C388.542 805.417 505.417 791.667 605.833 733.75C620.625 725.208 634.375 715.833 647.708 706.042C650.625 712.917 652.917 720 655.417 727.083C655.833 728.333 656.25 729.583 656.667 730.833C657.083 732.292 657.708 733.75 658.333 735.208C659.375 738.125 660.417 741.042 661.25 743.958C663.958 752.917 666.042 761.875 667.917 770.833C668.75 775 669.792 778.958 670.625 783.125C672.083 791.042 673.333 798.958 674.167 806.875C693.542 795.833 711.667 783.125 728.542 768.958C728.125 767.083 727.708 765.417 727.292 763.542C726.875 762.083 726.667 760.417 726.25 758.958C725.833 757.083 725.625 755.417 725.208 753.542C724.583 750.208 723.958 746.875 723.125 743.75C722.708 742.5 722.5 741.25 722.083 740C721.875 738.75 721.458 737.708 721.042 736.458C720.625 735.417 720.417 734.375 720 733.333C717.917 726.042 715.625 718.958 713.333 711.875C712.917 710.625 712.5 709.375 712.292 708.333C711.875 706.875 711.458 705.625 711.042 704.167C710.833 703.75 710.833 703.542 710.625 703.125C710.417 702.708 710.417 702.5 710.208 702.083C709.583 700.625 708.958 699.167 708.333 697.708C707.917 696.458 707.292 695.417 706.875 694.167C703.542 685.417 700 676.667 695.833 668.125C695.625 667.708 695.417 667.292 695.208 666.875C695 666.25 694.792 665.833 694.583 665.208C690 655.625 685.417 646.042 680 636.667C679.792 636.458 679.792 636.25 679.583 635.833C679.375 635.417 679.167 635 678.958 634.792C657.708 598.125 630.833 565.625 600.208 536.667C600 536.458 599.583 536.042 599.375 535.833C599.167 535.625 598.75 535.208 598.542 535C597.5 533.958 596.25 532.917 595 531.875C594.583 531.458 594.167 531.25 593.75 530.833C583.958 522.083 573.958 513.542 563.333 505.625C562.5 505 561.875 504.375 561.25 503.75C560.417 503.125 559.583 502.5 558.75 501.875C556.875 500.625 555 499.375 553.125 498.333C551.667 497.5 550 496.458 548.542 495.417C546.25 493.75 543.958 492.292 541.875 490.625C538.125 487.917 534.375 485.208 530.417 482.708C530.625 475.417 530.833 468.125 531.458 460.833C531.667 458.75 531.667 456.875 531.875 454.792C532.083 450.833 532.5 446.667 532.917 442.708C533.75 436.042 535.208 429.583 536.458 423.125C536.875 421.458 537.083 419.583 537.5 417.917C544.375 383.958 555.625 351.042 571.667 320.208C571.875 319.792 572.083 319.375 572.292 318.958C572.5 318.75 572.5 318.333 572.708 318.125C573.75 318.542 574.792 318.958 575.833 319.375C601.042 382.292 659.375 428.542 729.167 436.25C781.042 503.75 809.167 587.917 806.458 675.208C828.542 637.083 843.542 594.583 850 549.375C838.542 507.5 821.042 467.708 797.917 431.25C836.667 420.833 870.625 398.542 895.417 368.125ZM750 193.125C734.583 193.125 723.958 205 723.958 221.458C723.958 238.125 734.792 249.792 750 249.792C765.417 249.792 776.458 238.125 776.458 221.458C776.25 205 765.417 193.125 750 193.125ZM895.833 250C895.833 330.625 830.625 395.833 750 395.833C669.375 395.833 604.167 330.625 604.167 250C604.167 169.375 669.375 104.167 750 104.167C830.625 104.167 895.833 169.375 895.833 250ZM810.833 222.083C810.833 186.25 782.917 165.625 749.792 165.625C715 165.625 690 188.542 690 222.708C690 254.792 711.875 277.083 742.708 277.083C747.292 277.083 751.667 276.25 755.833 275.208L715.417 334.583H750.833L789.375 277.5C803.75 256.042 810.625 239.583 810.833 222.083Z" fill="black"/>
</svg>
