<svg width="1000" height="1000" viewBox="0 0 1000 1000" fill="none" xmlns="http://www.w3.org/2000/svg">
<path d="M880.21 363.335C880.21 360.21 880.21 357.085 880.002 353.96C880.002 353.543 880.002 352.918 880.002 352.502C878.752 307.918 872.502 263.335 861.252 219.377V219.168C860.21 215.418 859.377 211.668 858.335 207.918C858.335 207.71 858.127 207.293 858.127 207.085C857.085 203.335 856.044 199.585 854.794 195.627C854.794 195.627 854.794 195.627 854.794 195.418C852.502 187.502 850.002 179.793 847.294 172.085C847.085 171.668 847.085 171.46 846.877 171.043C845.835 167.71 844.585 164.377 843.335 161.043C843.127 160.21 842.71 159.377 842.502 158.752C841.46 155.835 840.419 152.918 839.169 150.002C838.96 149.168 838.544 148.335 838.335 147.502C837.085 144.168 835.835 141.043 834.377 137.71C834.169 137.293 834.169 136.877 833.96 136.668C832.502 132.918 830.835 129.377 829.377 125.627C829.169 125.002 828.96 124.585 828.752 123.96C827.502 121.043 826.252 117.918 824.794 115.002C824.377 113.96 823.752 112.71 823.335 111.668C822.294 109.168 821.044 106.877 820.002 104.377C819.377 103.127 818.96 101.877 818.335 100.835C817.085 98.335 816.044 96.0433 814.794 93.5433C814.169 92.5017 813.752 91.46 813.127 90.21C811.46 86.6683 809.585 83.335 807.919 80.0017C807.502 79.1683 806.877 78.335 806.46 77.5017C802.71 71.8767 796.46 68.1267 789.794 67.2933C785.835 66.6683 781.877 66.2517 778.127 65.835C776.877 65.6267 775.627 65.6267 774.585 65.4183C771.877 65.21 768.96 64.7933 766.252 64.585C765.002 64.3767 763.544 64.3767 762.294 64.1683C759.585 63.96 756.669 63.7517 753.96 63.5433C752.71 63.5433 751.669 63.335 750.419 63.335C742.502 62.71 734.794 62.2933 726.877 62.085C725.627 62.085 724.585 62.085 723.335 61.8767C720.627 61.8767 717.71 61.6683 715.002 61.6683C713.752 61.6683 712.502 61.6683 711.044 61.6683C708.127 61.6683 705.419 61.6683 702.502 61.6683C701.46 61.6683 700.21 61.6683 699.169 61.6683C691.252 61.6683 683.544 61.8767 675.627 62.2933C674.585 62.2933 673.335 62.5017 672.294 62.5017C669.377 62.71 666.669 62.71 663.752 62.9183C662.502 62.9183 661.252 63.1267 660.002 63.1267C657.085 63.335 654.169 63.5433 651.46 63.7517C650.419 63.7517 649.377 63.96 648.335 63.96C640.627 64.585 632.71 65.4183 625.002 66.46C623.96 66.6683 622.919 66.6683 621.877 66.8767C618.96 67.2933 616.252 67.71 613.335 68.1267C612.085 68.335 611.044 68.5433 609.794 68.7517C606.877 69.1683 603.96 69.585 601.252 70.21C600.21 70.4183 599.377 70.6267 598.335 70.6267C570.002 75.4183 542.085 82.2933 514.794 91.0433C489.585 99.1683 464.794 108.96 440.835 120.418C440.627 120.418 440.419 120.627 440.21 120.627C437.085 122.085 433.752 123.752 430.627 125.21C430.419 125.418 430.21 125.418 430.002 125.627C426.669 127.293 423.544 128.96 420.21 130.627C420.21 130.627 420.21 130.627 420.002 130.627C406.669 137.71 393.752 145.21 380.835 153.335C380.419 153.543 380.21 153.752 379.794 153.96C377.085 155.627 374.377 157.502 371.669 159.168C371.044 159.585 370.627 159.793 370.002 160.21C367.502 161.877 365.002 163.543 362.502 165.418C361.877 165.835 361.252 166.252 360.627 166.668C358.127 168.335 355.627 170.21 353.127 172.085C352.71 172.502 352.085 172.71 351.669 173.127C348.752 175.21 346.044 177.293 343.127 179.377C342.919 179.377 342.919 179.585 342.71 179.585C336.669 184.168 330.835 188.752 325.002 193.543C324.585 193.752 324.169 194.168 323.96 194.377C321.46 196.46 319.169 198.335 316.669 200.418C316.044 201.043 315.21 201.668 314.585 202.293C312.502 203.96 310.419 205.835 308.544 207.71C307.71 208.543 306.877 209.168 306.044 210.002C304.169 211.668 302.294 213.335 300.419 215.21C299.585 216.043 298.752 216.877 297.919 217.71C296.044 219.377 294.169 221.252 292.294 222.918C291.46 223.752 290.627 224.585 289.794 225.21C287.71 227.085 285.835 229.168 283.752 231.252C283.127 231.877 282.502 232.502 281.877 233.127C276.669 238.335 271.669 243.752 266.46 249.377C265.835 250.21 265.002 251.043 264.377 251.668C262.71 253.543 260.835 255.627 259.169 257.502C258.335 258.543 257.502 259.585 256.46 260.627C255.002 262.502 253.335 264.168 251.877 266.043C251.044 267.085 250.002 268.335 249.169 269.377C247.71 271.043 246.252 272.918 244.794 274.793C243.96 276.043 242.919 277.085 242.085 278.335C240.627 280.21 239.169 282.085 237.71 283.752C236.877 284.793 236.044 286.043 235.002 287.085C233.544 289.168 231.877 291.043 230.419 293.127C229.794 294.168 228.96 295.002 228.335 296.043C226.044 299.168 223.96 302.085 221.669 305.21C219.585 308.335 217.294 311.46 215.21 314.585C214.585 315.627 213.96 316.668 213.127 317.71C211.669 319.793 210.419 321.877 208.96 323.96C208.127 325.21 207.502 326.46 206.669 327.502C205.419 329.377 204.169 331.46 202.919 333.335C202.085 334.585 201.46 335.835 200.627 337.085C199.377 338.96 198.335 341.043 197.085 342.918C196.252 344.168 195.627 345.418 194.794 346.668C193.544 348.752 192.502 350.835 191.252 352.918C190.627 354.168 190.002 355.21 189.377 356.46C188.127 358.752 186.877 361.043 185.627 363.335C185.21 364.168 184.585 365.21 184.169 366.043C180.627 372.71 177.294 379.377 174.169 386.043C173.752 386.877 173.335 387.71 173.127 388.335C171.877 390.835 170.835 393.543 169.585 396.043C169.169 397.085 168.752 398.127 168.127 399.168C167.085 401.46 166.044 403.96 165.002 406.252C164.585 407.293 164.169 408.335 163.544 409.585C162.502 411.877 161.669 414.377 160.627 416.668C160.21 417.71 159.794 418.752 159.377 419.793C158.335 422.293 157.502 424.793 156.46 427.293C156.044 428.127 155.835 429.168 155.419 430.002C154.377 432.918 153.335 435.835 152.294 438.752C152.085 439.168 151.877 439.585 151.877 440.21C149.377 447.293 147.085 454.585 144.794 461.668C144.794 461.877 144.794 462.085 144.585 462.085C143.544 465.418 142.502 468.752 141.669 472.085C141.46 472.71 141.252 473.335 141.252 473.96C140.419 476.877 139.585 479.793 138.752 482.918C138.544 483.543 138.335 484.377 138.127 485.002C137.294 487.918 136.669 490.835 135.835 493.752C135.627 494.377 135.419 495.002 135.419 495.627C134.585 498.752 133.96 501.877 133.335 505.002C133.335 505.418 133.127 505.835 133.127 506.252C130.002 521.043 127.294 535.835 125.21 550.627V550.835C124.794 554.377 124.169 558.127 123.752 561.668C123.752 561.877 123.752 562.085 123.752 562.502C123.335 566.043 122.919 569.585 122.71 573.127C122.71 573.335 122.71 573.543 122.71 573.752C120.21 600.21 119.377 626.668 120.419 653.127C121.46 681.668 124.794 710.21 129.794 738.543C130.002 739.585 130.21 740.627 130.419 741.46C131.044 744.377 131.46 747.085 132.085 750.002C132.294 751.252 132.502 752.502 132.919 753.543C133.544 756.252 134.169 758.96 134.794 761.877C135.002 762.918 135.21 763.96 135.419 765.002C137.085 772.502 138.96 780.21 141.044 787.71C141.252 788.752 141.669 789.793 141.877 790.835C142.71 793.543 143.335 796.252 144.169 798.96C144.585 800.21 144.794 801.46 145.21 802.71C146.044 805.418 146.877 808.127 147.71 810.835C148.127 811.877 148.335 812.918 148.752 814.168C151.044 821.668 153.544 828.96 156.252 836.46C156.669 837.502 157.085 838.543 157.502 839.585C158.544 842.293 159.377 844.793 160.419 847.502C160.835 848.752 161.252 850.002 161.877 851.252C162.919 853.752 163.96 856.46 165.002 858.96C165.419 860.002 165.835 861.252 166.252 862.293C167.71 865.835 169.169 869.585 170.627 873.127C172.085 876.668 173.752 880.418 175.419 883.96C175.835 885.002 176.46 886.043 176.877 887.293C178.127 889.793 179.169 892.293 180.419 894.793C181.044 896.043 181.669 897.293 182.085 898.543C183.335 901.043 184.585 903.543 185.627 906.043C186.252 907.085 186.669 908.127 187.294 909.377C188.96 912.918 190.835 916.46 192.71 920.002C193.127 920.835 193.752 921.668 194.169 922.502C197.502 927.293 202.502 930.835 208.127 932.293C208.96 932.502 210.002 932.71 211.044 932.918C214.794 933.335 218.752 933.96 222.502 934.377C223.752 934.585 224.794 934.585 226.044 934.793C228.752 935.002 231.46 935.418 234.169 935.627C235.419 935.835 236.877 935.835 238.127 936.043C240.835 936.252 243.544 936.46 246.252 936.668C247.502 936.668 248.752 936.877 249.794 936.877C253.127 937.085 256.252 937.293 259.585 937.502C260.21 937.502 260.835 937.502 261.252 937.71C265.21 937.918 269.169 938.127 273.127 938.335C273.544 938.335 273.96 938.335 274.377 938.335C277.919 938.543 281.46 938.543 284.794 938.543C285.627 938.543 286.46 938.543 287.502 938.543C290.627 938.543 293.752 938.543 296.877 938.543C297.71 938.543 298.544 938.543 299.377 938.543C302.919 938.543 306.46 938.543 310.002 938.335C310.419 938.335 310.627 938.335 311.044 938.335C319.169 938.127 327.294 937.71 335.627 937.293C335.627 937.293 335.627 937.293 335.835 937.293C339.794 937.085 343.752 936.668 347.71 936.46C348.127 936.46 348.335 936.46 348.752 936.46C352.71 936.043 356.46 935.835 360.419 935.418H360.627C377.085 933.752 393.335 931.46 409.377 928.543C437.502 923.335 465.21 916.46 492.085 907.502C492.502 907.293 492.919 907.293 493.544 907.085C496.46 906.043 499.585 905.002 502.502 903.96C503.544 903.543 504.377 903.335 505.419 902.918C507.919 902.085 510.419 901.043 512.919 900.21C513.96 899.793 515.002 899.377 516.252 898.96C518.544 898.127 521.044 897.085 523.335 896.252C524.377 895.835 525.419 895.418 526.669 895.002C529.169 893.96 531.46 893.127 533.96 892.085C535.002 891.668 535.835 891.252 536.877 890.835C539.794 889.585 542.502 888.335 545.419 887.085C545.835 886.877 546.46 886.668 546.877 886.46C550.21 885.002 553.752 883.335 557.085 881.877C557.294 881.877 557.294 881.668 557.502 881.668C560.627 880.21 563.752 878.752 566.877 877.085C567.71 876.668 568.544 876.252 569.585 875.835C571.877 874.585 574.377 873.543 576.669 872.293C577.71 871.668 578.752 871.252 579.794 870.627C582.085 869.377 584.169 868.335 586.252 867.085C587.294 866.46 588.335 865.835 589.585 865.21C591.669 863.96 593.96 862.71 596.044 861.668C597.085 861.043 598.127 860.418 599.169 860.002C601.46 858.543 603.96 857.293 606.252 855.835C607.085 855.418 607.919 855.002 608.544 854.377C614.794 850.627 621.044 846.668 627.294 842.71C628.127 842.085 628.96 841.668 629.585 841.043C631.877 839.585 633.96 838.127 636.252 836.668C637.294 836.043 638.335 835.21 639.377 834.585C641.46 833.127 643.335 831.877 645.419 830.418C646.46 829.585 647.502 828.96 648.544 828.127C650.419 826.668 652.294 825.418 654.377 823.96C655.419 823.127 656.46 822.502 657.502 821.668C659.585 820.21 661.46 818.543 663.544 817.085C664.377 816.46 665.419 815.627 666.252 815.002C668.752 813.127 671.252 811.043 673.752 809.168C674.169 808.752 674.585 808.543 675.002 808.335C677.919 806.043 680.627 803.543 683.544 801.252C684.169 800.627 684.794 800.002 685.627 799.585C687.71 797.71 689.794 796.043 691.877 794.168C692.919 793.335 693.752 792.502 694.794 791.668C696.669 790.002 698.335 788.543 700.21 786.877C701.252 785.835 702.294 785.002 703.335 783.96C705.002 782.293 706.669 780.835 708.335 779.168C709.377 778.127 710.419 777.293 711.46 776.252C713.127 774.585 714.794 772.918 716.669 771.252C717.502 770.418 718.544 769.377 719.377 768.543C721.252 766.668 723.127 764.585 725.002 762.71C725.627 762.085 726.46 761.252 727.085 760.627C729.585 757.918 732.085 755.21 734.585 752.502C735.002 752.085 735.419 751.46 736.044 751.043C738.127 748.752 740.002 746.46 742.085 744.168C742.919 743.127 743.752 742.293 744.585 741.252C746.252 739.377 747.71 737.502 749.377 735.627C750.21 734.585 751.252 733.335 752.085 732.293C753.544 730.418 755.002 728.752 756.46 726.877C757.294 725.627 758.335 724.585 759.169 723.335C760.627 721.46 762.085 719.585 763.544 717.71C764.377 716.668 765.21 715.418 766.252 714.377C767.71 712.293 769.377 710.21 770.835 708.335C771.669 707.293 772.294 706.46 773.127 705.418C775.419 702.293 777.502 699.377 779.794 696.252C781.877 693.127 784.169 690.002 786.252 686.877C786.877 685.835 787.71 684.793 788.335 683.752C789.794 681.668 791.044 679.585 792.502 677.293C793.335 676.043 793.96 674.793 794.794 673.543C796.044 671.46 797.294 669.585 798.544 667.502C799.377 666.252 800.002 665.002 800.835 663.752C802.085 661.668 803.127 659.793 804.377 657.71C805.21 656.46 805.835 655.21 806.46 653.96C807.71 651.877 808.96 649.793 810.002 647.502C810.627 646.46 811.252 645.21 811.877 644.168C813.335 641.46 814.794 638.752 816.252 636.252C816.669 635.627 816.877 635.002 817.294 634.377C818.96 631.043 820.627 627.71 822.294 624.377C822.71 623.543 823.127 622.71 823.544 621.668C824.794 619.168 826.044 616.668 827.085 614.377C827.71 613.127 828.127 611.877 828.752 610.835C829.794 608.752 830.835 606.46 831.669 604.377C832.294 603.127 832.919 601.877 833.335 600.418C834.169 598.335 835.21 596.252 836.044 593.96C836.669 592.71 837.085 591.46 837.71 590.002C838.544 587.71 839.585 585.627 840.419 583.335C840.835 582.085 841.46 581.043 841.877 579.793C842.919 577.293 843.96 574.585 844.794 572.085C845.21 571.252 845.419 570.418 845.835 569.585C847.085 566.043 848.335 562.71 849.585 559.168C849.794 558.752 850.002 558.127 850.002 557.71C851.044 554.793 852.085 551.668 852.919 548.752C853.335 547.71 853.544 546.668 853.96 545.418C854.794 542.918 855.419 540.627 856.252 538.127C856.669 536.877 857.085 535.627 857.294 534.377C857.919 532.085 858.544 529.793 859.377 527.502C859.794 526.252 860.002 525.002 860.419 523.752C861.044 521.46 861.669 519.168 862.294 516.668C862.71 515.418 862.919 514.377 863.127 513.127C863.752 510.418 864.377 507.918 865.002 505.21C865.21 504.377 865.419 503.335 865.627 502.502C867.294 495.418 868.752 488.127 870.21 481.043C870.419 480.21 870.627 479.377 870.627 478.335C871.044 475.627 871.669 472.918 872.085 470.21C872.294 468.96 872.502 467.918 872.71 466.668C873.127 464.168 873.544 461.668 873.96 459.377C874.169 458.127 874.377 456.877 874.585 455.627C875.002 453.127 875.21 450.627 875.627 448.335C875.835 447.085 876.044 446.043 876.044 444.793C876.46 442.085 876.669 439.585 877.085 436.877C877.294 435.835 877.294 435.002 877.502 433.96C877.919 430.418 878.335 426.877 878.544 423.543V423.335C878.96 419.585 879.169 415.835 879.377 412.085C879.377 411.46 879.377 411.043 879.377 410.418C879.585 407.293 879.794 404.168 880.002 401.252C880.002 400.21 880.002 399.168 880.21 398.127C880.419 395.418 880.419 392.918 880.627 390.21C880.627 388.96 880.627 387.918 880.627 386.668C880.627 384.168 880.835 381.668 880.835 378.96C880.835 377.918 880.835 376.668 880.835 375.627C880.835 372.918 880.835 370.418 880.835 367.71C880.21 365.418 880.21 364.377 880.21 363.335ZM397.919 866.252H397.71C383.335 868.96 368.752 870.835 354.169 872.293H353.96C350.627 872.71 347.085 872.918 343.544 873.335H343.127H342.71C339.794 873.543 337.294 873.752 334.585 873.96C302.919 830.002 256.877 797.71 204.794 783.127C204.585 782.502 204.377 782.085 204.377 781.46C203.752 778.96 202.919 776.46 202.294 774.168L201.877 772.71C201.669 772.293 201.669 771.668 201.46 771.252C199.585 764.585 197.919 757.71 196.46 750.835C196.252 750.21 196.252 749.585 196.044 748.96L195.835 747.918C195.21 745.418 194.794 742.918 194.169 740.418C193.96 739.377 193.752 738.335 193.544 737.085C193.127 734.585 192.502 732.085 192.085 729.377L191.877 728.127C191.877 727.71 191.669 727.293 191.669 726.668C191.044 722.918 190.419 718.96 189.794 715.002L202.085 717.502C282.71 734.377 353.752 784.168 397.085 853.96L403.752 864.585C401.46 865.627 399.794 866.043 397.919 866.252ZM677.71 445.835C671.669 454.585 661.877 459.168 652.085 459.168C645.835 459.168 639.585 457.293 634.169 453.543L591.46 423.752L543.752 491.877L586.46 521.668C600.627 531.668 603.96 551.043 594.169 565.21C588.127 573.96 578.335 578.543 568.544 578.543C562.294 578.543 556.044 576.668 550.627 572.918L507.919 543.127L460.21 611.46L502.919 641.252C517.085 651.252 520.419 670.627 510.627 684.793C504.585 693.543 494.794 698.127 485.002 698.127C478.752 698.127 472.502 696.252 467.085 692.502L424.169 662.502L394.377 705.21C388.335 713.96 378.544 718.543 368.752 718.543C362.502 718.543 356.252 716.668 350.835 712.918C336.669 702.918 333.335 683.543 343.127 669.377L372.919 626.668L330.21 596.877C316.044 586.877 312.71 567.502 322.502 553.335C332.294 539.168 351.877 535.835 366.044 545.627L408.752 575.418L456.46 507.085L413.752 477.293C399.585 467.293 396.252 447.918 406.044 433.752C415.835 419.585 435.419 416.252 449.585 426.043L492.294 455.835L540.002 387.502L497.294 357.71C483.127 347.71 479.794 328.335 489.585 314.168C499.377 300.002 518.96 296.668 533.127 306.46L575.835 336.252L605.627 293.543C615.627 279.377 635.002 276.043 649.169 285.835C663.335 295.835 666.669 315.21 656.877 329.377L627.085 372.085L669.794 401.877C684.169 412.085 687.502 431.668 677.71 445.835ZM798.544 280.835C717.919 263.96 646.877 214.168 603.544 144.377L596.877 133.752C600.627 132.918 604.585 132.293 608.544 131.668C608.96 131.668 609.377 131.46 609.794 131.46L611.044 131.252C613.544 130.835 616.252 130.418 618.752 130.002C619.794 129.793 620.835 129.585 621.877 129.585C624.377 129.168 626.877 128.96 629.585 128.543L630.835 128.335C631.46 128.335 631.877 128.127 632.502 128.127C639.377 127.293 646.46 126.46 653.335 125.835C653.752 125.835 654.377 125.835 654.794 125.627L656.044 125.418C658.544 125.21 661.252 125.002 663.752 124.793C664.377 124.793 664.794 124.793 665.419 124.585C697.085 168.543 743.127 200.835 795.21 215.418C795.835 217.918 796.669 220.418 797.502 223.335L797.71 223.752V224.168C798.752 227.502 799.585 231.043 800.419 234.377V234.585C804.585 250.627 807.919 266.877 810.419 283.127L798.544 280.835Z" fill="black"/>
</svg>
