<svg width="1000" height="1000" viewBox="0 0 1000 1000" fill="none" xmlns="http://www.w3.org/2000/svg">
<path fill-rule="evenodd" clip-rule="evenodd" d="M233.337 899.791L199.17 875.833C152.087 842.916 140.629 777.916 173.545 730.833C186.67 712.083 212.712 707.5 231.67 720.625L368.129 816.25C386.879 829.375 391.462 855.416 378.337 874.375C345.42 921.25 280.42 932.708 233.337 899.791ZM417.92 393.333L305.837 314.791L269.17 467.083L355.42 527.5L417.92 393.333ZM717.295 297.916L600.42 216.041C579.17 201.25 549.795 209.166 538.754 232.5L470.42 379.166L608.337 475.833L722.921 361.458C741.254 343.125 738.545 312.708 717.295 297.916ZM452.504 417.708L390.004 551.875L473.754 610.625L578.545 505.833L452.504 417.708ZM443.754 640.416L372.087 590.208L313.129 716.666C311.045 721.25 312.504 726.666 316.67 729.583L331.879 740.208C336.045 743.125 341.67 742.708 345.212 738.958L443.754 640.416ZM767.921 375.416L643.129 500.208L762.504 583.75L898.129 493.75C922.504 477.5 923.129 441.666 898.962 424.791L821.254 370.833C804.796 359.166 782.296 361.041 767.921 375.416ZM337.295 566.041L258.545 510.833L223.545 656.25C222.504 660.416 224.17 664.791 227.712 667.291L264.587 693.125C269.795 696.875 277.295 694.791 280.004 688.958L337.295 566.041ZM725.212 608.541L613.129 530L508.337 634.791L594.587 695.208L725.212 608.541ZM478.545 664.791L382.504 760.625C377.92 765.208 378.545 772.708 383.962 776.458L420.837 802.291C424.379 804.791 428.962 804.791 432.504 802.5L557.087 719.791L478.545 664.791ZM435.629 355L510.42 195C518.962 176.666 513.129 154.791 496.462 143.333L418.754 88.9579C394.795 72.0829 361.254 84.7913 354.379 113.333L316.254 271.458L435.629 355Z" fill="black"/>
</svg>
