<svg width="1000" height="1000" viewBox="0 0 1000 1000" fill="none" xmlns="http://www.w3.org/2000/svg">
<path d="M229.167 499.375C229.167 545.417 191.875 582.709 145.833 582.709C99.7917 582.709 62.5 545.417 62.5 499.375C62.5 453.334 99.7917 416.042 145.833 416.042C191.875 416.042 229.167 453.334 229.167 499.375ZM859.583 298.125C806.667 373.75 755 450.209 700.625 524.792C640.208 607.709 575.833 693.542 486.042 746.875C383.542 807.709 298.542 825.209 186.667 791.25C169.583 786.042 114.375 763.334 97.9167 756.667C80.2083 749.375 66.4583 772.917 81.0417 785C172.708 860.625 292.5 914.792 412.5 917.084C520.417 919.167 643.958 872.5 729.167 807.292C765.625 779.584 804.375 738.334 810.208 689.792C816.25 638.542 766.458 613.959 770 566.459C773.75 516.875 884.167 388.125 920.833 346.667C927.083 339.584 926.25 328.542 918.75 322.5L883.542 294.584C876.042 288.75 865 290.417 859.583 298.125ZM385.208 612.917L442.292 525.625L400.833 496.459L338.333 579.792L385.208 612.917ZM719.583 80.4171C666.667 45.2087 590.208 63.3337 546.667 121.25C531.458 141.459 522.083 163.959 518.125 186.25L487.708 321.459C476.042 372.917 454.167 422.5 423.125 466.667L413.125 480L453.542 508.334L462.917 493.959C493.75 450.209 532.5 412.709 576.458 384.375L693.333 309.167C711.667 298.542 728.333 283.542 741.667 264.375C786.042 201.042 776.25 118.125 719.583 80.4171ZM325.625 596.667L316.667 608.542C307.917 621.042 320.417 632.084 331.458 639.584C342.292 647.292 356.875 655.209 365.625 642.709L373.75 630.417L325.625 596.667Z" fill="black"/>
</svg>
