<svg width="1000" height="1000" viewBox="0 0 1000 1000" fill="none" xmlns="http://www.w3.org/2000/svg">
<path fill-rule="evenodd" clip-rule="evenodd" d="M603.957 451.667C606.249 458.75 603.749 466.667 597.707 471.042L510.207 534.583C504.166 538.958 495.832 538.958 489.791 534.583L402.291 471.042C396.249 466.667 393.749 458.75 396.041 451.667L429.374 348.75C431.666 341.667 438.332 336.875 445.832 336.875H554.166C561.666 336.875 568.332 341.667 570.624 348.75L603.957 451.667ZM812.499 437.292C812.499 609.792 672.499 749.792 499.999 749.792C327.499 749.792 187.499 609.792 187.499 437.292C187.499 264.792 327.499 124.792 499.999 124.792C672.499 124.792 812.499 264.792 812.499 437.292ZM678.749 476.667L763.957 406.875C758.541 358.75 739.999 314.583 712.291 277.708L639.374 277.083C633.541 277.083 628.124 273.75 625.416 268.333L584.374 185.417C557.916 176.458 529.582 171.667 499.999 171.667C470.416 171.667 442.082 176.458 415.624 185.417L374.582 268.541C371.874 273.958 366.666 277.292 360.624 277.292L287.707 277.916C259.999 314.792 241.666 358.958 236.041 407.083L321.249 476.875C326.457 481.25 328.332 488.333 325.832 494.583L286.249 595.208C317.707 637.5 361.249 670.417 411.874 688.125L491.874 641.042C496.874 638.125 502.916 638.125 507.707 641.042L587.707 688.125C638.332 670.208 682.082 637.5 713.332 595.208L673.749 494.583C671.666 488.125 673.541 481.042 678.749 476.667ZM97.0824 911.458C99.7907 909.167 102.499 906.667 105.207 904.167C127.916 883.75 151.666 862.708 179.166 857.708C191.041 855.625 207.499 860.833 225.207 866.458C246.457 873.333 268.332 880.417 291.041 877.708C312.082 875.208 330.416 863.958 347.916 852.917C363.749 843.125 378.541 833.75 392.291 832.917C404.791 832.292 420.416 839.583 436.874 847.292C456.666 856.667 477.291 866.25 499.791 866.25C522.291 866.25 542.916 856.667 562.707 847.292C579.166 839.583 594.791 832.292 607.291 832.917C621.041 833.75 636.041 842.917 651.666 852.917C669.166 863.958 687.499 875.417 708.541 877.708C731.249 880.208 753.124 873.125 774.374 866.458C791.874 860.833 808.541 855.417 820.416 857.708C848.124 862.917 875.624 887.5 895.832 905.417C898.124 907.5 900.416 909.375 902.499 911.25C911.041 918.958 924.374 918.125 931.874 909.375C939.582 900.833 938.749 887.5 929.999 880C927.916 878.125 925.832 876.25 923.541 874.375C899.791 853.125 867.291 823.958 827.916 816.667C805.832 812.5 783.332 819.792 761.666 826.875C744.582 832.292 727.082 838.125 713.332 836.458C701.666 835.208 688.124 826.667 673.957 817.708C655.416 806.042 634.166 792.708 609.582 791.458C586.666 790.208 565.416 800.208 544.999 809.792C528.541 817.5 513.124 824.792 499.791 824.792C486.457 824.792 470.832 817.5 454.582 809.792C434.166 800.208 412.916 790.208 389.999 791.458C365.416 792.708 344.374 806.042 325.624 817.708C311.457 826.667 297.916 835 286.249 836.458C272.499 837.917 254.791 832.292 237.916 826.875C216.249 819.792 193.749 812.708 171.666 816.667C132.707 823.958 103.332 850 77.499 873.125C74.7907 875.417 72.2907 877.917 69.5824 880.208C61.0407 887.917 60.2074 901.042 67.7074 909.583C71.874 914.167 77.499 916.667 83.3324 916.667C88.3324 916.667 93.124 915 97.0824 911.458Z" fill="black"/>
</svg>
