<svg width="1000" height="1000" viewBox="0 0 1000 1000" fill="none" xmlns="http://www.w3.org/2000/svg">
<path d="M500.002 750C672.502 750 812.502 610 812.502 437.5C812.502 265 672.502 125 500.002 125C327.502 125 187.502 265 187.502 437.5C187.502 610 327.502 750 500.002 750ZM234.377 437.5C234.377 429.583 234.794 421.875 235.419 414.167H358.127C353.127 358.333 331.044 307.292 296.877 266.667C307.086 254.583 318.127 243.542 330.211 233.542C372.711 282.708 399.794 345.417 405.002 414.167H476.669V172.917C484.377 172.292 492.294 171.875 500.211 171.875C508.127 171.875 515.836 172.292 523.752 172.917V414.167H595.419C600.627 345.417 627.711 282.708 670.211 233.542C682.294 243.542 693.336 254.583 703.544 266.667C669.377 307.292 647.294 358.333 642.294 414.167H764.586C765.211 421.875 765.627 429.792 765.627 437.5C765.627 445.417 765.211 453.125 764.586 461.042H641.877C646.877 516.875 668.961 567.917 703.127 608.542C692.919 620.625 681.877 631.667 669.794 641.667C627.294 592.5 600.211 529.792 595.002 461.042H523.336V702.083C515.627 702.708 507.711 703.125 499.794 703.125C491.877 703.125 484.169 702.708 476.252 702.083V460.833H404.586C399.377 529.583 372.294 592.292 329.794 641.458C317.711 631.458 306.669 620.417 296.461 608.333C330.627 567.708 352.711 516.667 357.711 460.833H235.419C234.794 453.125 234.377 445.417 234.377 437.5ZM932.294 909.583C924.586 918.125 911.461 918.958 902.919 911.458C900.836 909.583 898.544 907.5 896.252 905.625C876.252 887.708 848.752 862.917 820.836 857.917C808.961 855.833 792.502 861.042 774.794 866.667C753.544 873.542 731.669 880.625 708.961 877.917C687.919 875.417 669.586 864.167 652.086 853.125C636.252 843.333 621.461 833.958 607.711 833.125C595.211 832.5 579.586 839.792 563.127 847.5C543.336 856.875 522.711 866.458 500.211 866.458C477.711 866.458 457.086 856.875 437.294 847.5C420.836 839.792 405.211 832.5 392.711 833.125C378.961 833.958 363.961 843.125 348.336 853.125C330.836 864.167 312.502 875.625 291.461 877.917C268.752 880.417 246.877 873.333 225.627 866.667C208.127 861.042 191.461 855.625 179.586 857.917C152.086 862.917 128.544 883.958 105.627 904.375C102.919 906.875 100.211 909.167 97.5023 911.667C93.544 915.208 88.544 916.875 83.7523 916.875C77.919 916.875 72.294 914.583 68.1273 909.792C60.419 901.25 61.4607 887.917 70.0023 880.417C72.7107 878.125 75.2107 875.833 77.919 873.333C103.336 850 132.502 823.958 171.669 816.667C193.752 812.5 216.252 819.792 237.919 826.875C255.002 832.292 272.502 838.125 286.252 836.458C297.919 835.208 311.461 826.667 325.627 817.708C344.169 806.042 365.419 792.708 390.002 791.458C412.919 790.208 434.169 800.208 454.586 809.792C471.044 817.5 486.461 824.792 499.794 824.792C513.127 824.792 528.752 817.5 545.002 809.792C565.419 800.208 586.669 790.208 609.586 791.458C634.169 792.708 655.211 806.042 673.961 817.708C688.127 826.667 701.669 835 713.336 836.458C727.086 837.917 744.794 832.292 761.669 826.875C783.336 819.792 805.836 812.708 827.919 816.667C867.294 823.958 899.794 853.125 923.544 874.375C925.835 876.458 927.919 878.333 930.002 880C939.169 887.917 940.002 901.042 932.294 909.583Z" fill="black"/>
</svg>
