<svg width="1000" height="1000" viewBox="0 0 1000 1000" fill="none" xmlns="http://www.w3.org/2000/svg">
<path fill-rule="evenodd" clip-rule="evenodd" d="M813.124 395.834C813.124 418.75 794.374 437.5 771.457 437.5H678.124C669.582 437.5 661.249 434.792 654.166 430L600.624 392.5L481.249 563.125C474.999 572.084 465.207 578.334 454.374 580.209C451.874 580.625 449.582 580.834 447.082 580.834C438.541 580.834 430.207 578.334 423.124 573.334L320.832 501.667C311.874 495.417 305.624 485.625 303.749 474.792C301.874 463.959 304.374 452.709 310.624 443.75L429.582 273.75L242.707 191.667C221.666 182.5 212.082 157.917 221.249 136.667C230.416 115.625 254.999 106.042 276.249 115.209L470.832 200.625C473.332 201.667 475.832 203.125 477.916 204.584L511.874 228.334L550.207 255.209L691.249 353.959H771.249C794.374 354.167 813.124 372.917 813.124 395.834ZM570.416 218.542C609.791 246.042 658.541 237.292 686.041 197.917C713.541 158.542 704.999 109.375 665.624 81.8754C626.249 54.3754 577.082 62.9171 549.582 102.292C521.874 141.667 531.041 191.042 570.416 218.542ZM958.332 354.167H884.999C867.707 354.167 853.749 368.125 853.749 385.417V395.834H989.582V385.417C989.582 368.125 975.416 354.167 958.332 354.167ZM250.624 787.292C260.832 790.625 274.791 795 281.249 795.209C282.291 794.792 283.541 794.375 284.999 793.542L308.749 735.209C318.124 714.167 308.541 689.584 287.499 680.209C266.457 670.834 241.874 680.417 232.499 701.459L202.707 775.209C220.207 777.5 236.041 782.5 250.624 787.292ZM438.332 802.5C422.916 795.834 406.874 790.625 389.999 791.667C365.416 792.917 344.374 806.25 325.624 817.917C311.457 826.875 297.916 835.209 286.249 836.667C272.499 838.125 254.791 832.5 237.916 827.084C216.249 820 193.749 812.917 171.666 816.875C132.707 824.167 103.332 850.209 77.499 873.334C74.7907 875.625 72.2907 878.125 69.5824 880.417C61.0407 888.125 60.2074 901.25 67.7074 909.792C71.874 914.375 77.499 916.875 83.3324 916.875C88.124 916.875 93.124 915.209 97.0824 911.667C99.7907 909.375 102.499 906.875 105.207 904.375C127.916 883.959 151.666 862.917 179.166 857.917C191.041 855.834 207.499 861.042 225.207 866.667C246.457 873.542 268.332 880.625 291.041 877.917C312.082 875.417 330.416 864.167 347.916 853.125C363.749 843.334 378.541 833.959 392.291 833.125C404.791 832.5 420.416 839.792 436.874 847.5C450.832 854.167 465.207 860.834 480.416 864.167L438.332 802.5ZM930.416 880.209C928.332 878.334 926.249 876.459 923.957 874.584C900.207 853.334 867.707 824.167 828.332 816.875C806.249 812.709 783.749 820 762.082 827.084C744.999 832.5 727.499 838.334 713.749 836.667C702.082 835.417 688.541 826.875 674.374 817.917C662.916 810.834 650.624 803.125 637.082 797.917L684.374 867.292C685.624 868.959 686.666 870.834 687.707 872.709C694.374 875.417 701.457 877.292 708.957 878.125C731.666 880.625 753.541 873.542 774.791 866.875C792.291 861.25 808.957 855.834 820.832 858.125C848.541 863.334 876.041 887.917 896.249 905.834C898.541 907.917 900.832 909.792 902.916 911.667C911.457 919.375 924.791 918.542 932.291 909.792C939.999 901.042 939.166 887.917 930.416 880.209ZM513.541 690.625C510.624 686.459 507.291 682.917 503.124 680.209L296.874 535.834C278.124 522.709 252.082 527.292 238.749 546.042C225.624 564.792 230.207 590.834 248.957 604.167L448.957 744.375L581.249 938.125C589.374 949.792 602.291 956.25 615.624 956.25C623.749 956.25 632.082 953.959 639.166 948.959C658.124 935.834 662.916 910 649.791 891.042L513.541 690.625Z" fill="black"/>
</svg>
