<svg width="1000" height="1000" viewBox="0 0 1000 1000" fill="none" xmlns="http://www.w3.org/2000/svg">
<path fill-rule="evenodd" clip-rule="evenodd" d="M634.789 208.75C620.622 200.417 605.622 193.333 589.789 187.5C588.747 188.333 587.705 189.375 586.872 190.208C585.83 191.042 584.997 191.875 583.955 192.708C582.914 193.75 581.664 194.792 580.622 195.625C578.747 197.292 577.08 198.75 575.205 200.417C574.58 201.042 573.747 201.875 573.122 202.5C572.497 203.125 571.664 203.958 571.039 204.583C570.622 205.208 569.997 205.625 569.372 206.25C565.414 210.208 561.664 214.375 557.914 218.542C557.289 219.167 556.664 220 556.039 220.625C555.205 221.458 554.372 222.292 553.747 223.125C553.539 223.333 553.539 223.542 553.33 223.75C553.122 223.958 552.914 224.167 552.705 224.375C551.872 225.208 551.247 226.25 550.414 227.292C549.789 228.125 549.372 228.75 548.747 229.583C544.372 235 539.997 240.625 536.039 246.458C535.83 246.667 535.622 247.083 535.414 247.292C535.205 247.708 534.789 247.917 534.58 248.333C529.997 255 525.622 261.667 521.455 268.542C521.247 268.75 521.039 269.167 521.039 269.375L520.622 269.792C504.789 297.292 493.747 327.083 486.455 357.917C486.455 358.125 486.247 358.542 486.247 358.75C486.247 358.958 486.039 359.375 486.039 359.583C485.83 360.625 485.622 361.667 485.414 362.5C485.414 362.917 485.205 363.542 485.205 363.958C483.122 373.542 481.455 383.333 480.205 393.333C480.205 393.958 479.997 394.583 479.789 395.208C479.58 396.042 479.58 396.875 479.372 397.5C479.164 399.167 479.164 400.833 479.164 402.5C479.164 403.75 479.164 405.208 478.955 406.458C478.747 408.542 478.539 410.625 478.33 412.708C477.914 416.25 477.497 419.583 477.497 423.125C472.705 425.833 467.914 428.333 462.914 430.625C461.455 431.25 460.205 431.875 458.747 432.708C456.039 433.958 453.33 435.417 450.622 436.458C446.039 438.333 441.455 439.792 436.872 441.458C435.414 441.875 434.164 442.292 432.705 442.917C408.122 451.042 382.497 456.25 356.455 457.292C356.247 457.292 355.83 457.292 355.622 457.292C355.414 457.292 354.997 457.292 354.789 457.292C352.914 444.375 351.664 431.458 351.664 418.125C351.664 314.375 408.747 220 499.164 171.667C464.58 171.667 431.247 178.333 401.039 190.625C342.08 250.208 307.08 331.25 307.08 418.333C307.08 431.042 307.914 443.542 309.372 455.833C303.955 455.208 298.747 454.167 293.539 453.125C292.289 452.917 291.247 452.708 289.997 452.5C288.747 452.292 287.289 452.083 286.039 451.667C283.955 451.25 281.664 450.833 279.58 450.417C272.914 448.75 266.247 446.667 259.58 444.583C256.455 443.75 253.539 442.708 250.622 441.667C244.997 439.583 239.372 437.5 233.747 435C233.747 435.833 233.747 436.458 233.747 437.292C233.747 453.333 235.205 469.167 237.914 484.583C239.372 485 240.83 485.417 242.08 486.042C243.122 486.458 244.164 486.667 245.205 487.083C246.664 487.5 247.914 487.917 249.372 488.542C251.664 489.375 253.955 490.208 256.455 490.833C257.08 491.042 257.497 491.042 258.122 491.25C258.539 491.25 258.955 491.458 259.372 491.458C260.414 491.667 261.455 491.875 262.497 492.083C263.122 492.292 263.955 492.292 264.58 492.5C269.997 493.958 275.414 495 281.039 496.25C281.872 496.458 282.705 496.667 283.33 496.875C284.58 497.083 285.83 497.5 287.08 497.708C287.289 497.708 287.705 497.708 287.914 497.917H288.539C289.789 498.125 291.039 498.333 292.289 498.333C293.122 498.333 294.164 498.542 294.997 498.75C301.872 499.792 308.955 500.833 316.039 501.458C316.455 501.458 316.872 501.458 317.289 501.667C317.705 501.667 318.122 501.875 318.539 501.875C326.455 502.5 334.58 502.917 342.705 503.125C342.914 503.125 343.122 503.125 343.33 503.125C343.539 503.125 343.747 503.125 344.164 503.125C375.83 503.125 407.289 497.917 437.497 488.75C437.497 488.75 437.705 488.75 437.914 488.75H438.122C438.539 488.75 438.955 488.542 439.164 488.542C439.997 488.333 441.039 487.917 441.872 487.5C442.497 487.292 442.914 487.083 443.539 486.875C452.914 483.75 462.289 480.417 471.455 476.667C472.08 476.458 472.705 476.25 473.33 476.042C474.164 475.833 474.789 475.625 475.622 475.208C477.08 474.583 478.539 473.75 479.997 472.917C481.247 472.292 482.289 471.667 483.539 471.042C485.414 470.208 487.289 469.375 489.164 468.542C492.497 467.083 495.622 465.625 498.747 463.958C503.539 466.875 508.122 469.792 512.497 472.917C513.539 473.75 514.789 474.375 515.83 475.208C518.539 477.083 521.247 478.75 523.747 480.833C527.289 483.542 530.83 486.667 534.164 489.583C535.414 490.833 536.664 491.875 538.122 493.125C557.497 510.417 574.789 530 588.747 552.083C588.955 552.292 588.955 552.5 589.164 552.708L589.789 553.333C579.58 561.25 568.955 568.958 557.497 575.625C467.705 627.5 357.497 625.208 270.205 571.25C287.08 600.417 309.58 626.042 335.83 646.875C416.664 668.125 504.372 657.917 579.789 614.375C590.83 607.917 601.247 600.833 611.039 593.542C613.33 598.75 614.997 603.958 616.872 609.167C617.289 610.208 617.497 611.042 617.914 612.083C618.33 613.125 618.747 614.375 619.164 615.417C619.997 617.5 620.83 619.792 621.455 622.083C623.539 628.75 624.997 635.625 626.455 642.292C627.08 645.417 627.914 648.333 628.33 651.458C629.372 657.5 630.205 663.333 631.039 669.375C645.622 661.042 659.164 651.667 671.872 640.833C671.664 639.375 671.247 638.125 671.039 636.875C670.83 635.625 670.622 634.583 670.205 633.333C669.997 632.083 669.58 630.625 669.372 629.375C668.955 626.875 668.33 624.375 667.705 621.875C667.497 621.042 667.08 620 666.872 618.958C666.664 618.125 666.455 617.292 666.039 616.25C665.83 615.417 665.622 614.792 665.414 613.958C663.955 608.542 662.08 603.125 660.414 597.917C660.205 597.083 659.789 596.042 659.58 595.208C659.372 594.167 658.955 593.125 658.539 592.083C658.539 591.875 658.33 591.667 658.33 591.25C658.33 591.042 658.122 590.833 658.122 590.417C657.705 589.375 657.289 588.125 656.664 587.083C656.247 586.25 655.83 585.417 655.622 584.583C653.122 577.917 650.414 571.458 647.497 565C647.289 564.792 647.289 564.375 647.08 564.167C646.872 563.75 646.664 563.333 646.664 562.917C643.33 555.625 639.789 548.542 635.83 541.458C635.83 541.25 635.622 541.042 635.622 540.833C635.414 540.625 635.414 540.208 635.205 540C619.372 512.5 599.164 488.125 576.039 466.458C575.83 466.25 575.622 466.042 575.414 465.833C575.205 465.625 574.997 465.417 574.789 465.208C573.955 464.375 573.122 463.75 572.08 462.917C571.872 462.708 571.455 462.5 571.247 462.083C563.955 455.417 556.455 449.167 548.539 443.125C547.914 442.708 547.497 442.292 546.872 441.875C546.247 441.458 545.622 440.833 544.997 440.417C543.747 439.375 542.289 438.542 540.83 437.708C539.789 437.083 538.539 436.25 537.497 435.625C535.83 434.375 534.164 433.125 532.497 432.083C529.58 430 526.872 427.917 523.955 426.042C524.164 420.625 524.372 415 524.789 409.583C524.997 408.125 524.997 406.458 525.205 405C525.414 402.083 525.622 398.958 526.039 396.042C526.664 391.042 527.705 386.25 528.747 381.458C528.955 380.208 529.372 378.75 529.58 377.5C534.789 352.083 543.122 327.292 555.205 304.167C555.414 303.958 555.414 303.542 555.622 303.333C555.622 303.125 555.83 302.917 555.83 302.708C567.914 307.5 579.789 312.917 591.247 319.583C681.039 371.458 734.164 468.125 731.039 570.625C747.497 542.083 758.955 510.208 763.747 476.25C741.664 395.417 688.955 324.583 613.539 281.042C602.497 274.792 591.247 269.167 579.789 264.375C583.122 260 586.455 256.042 589.997 252.083C590.83 251.25 591.664 250.208 592.497 249.375C593.33 248.333 594.372 247.292 595.205 246.25C596.664 244.583 597.914 242.917 599.372 241.458C604.164 236.458 609.372 231.667 614.372 227.083L615.414 226.25C617.497 224.375 619.372 222.5 621.455 220.833C625.205 216.042 629.997 212.292 634.789 208.75ZM187.497 437.5C187.497 265 327.497 125 499.997 125C672.497 125 812.497 265 812.497 437.5C812.497 610 672.497 750 499.997 750C327.497 750 187.497 610 187.497 437.5Z" fill="black"/>
<path d="M83.3302 916.875C77.4969 916.875 71.8719 914.583 67.7052 909.792C59.9969 901.25 61.0386 887.917 69.5802 880.417C72.2886 878.125 74.7885 875.833 77.4969 873.333C103.33 850.208 132.497 824.167 171.664 816.875C193.747 812.708 216.247 820 237.914 827.083C254.997 832.5 272.497 838.333 286.247 836.667C297.914 835.417 311.455 826.875 325.622 817.917C344.164 806.25 365.414 792.917 389.997 791.667C412.914 790.417 434.163 800.416 454.58 810C471.038 817.708 486.455 825 499.788 825C513.122 825 528.747 817.708 544.997 810C565.413 800.416 586.664 790.417 609.58 791.667C634.163 792.917 655.205 806.25 673.955 817.917C688.122 826.875 701.663 835.208 713.33 836.667C727.08 838.125 744.788 832.5 761.663 827.083C783.33 820 805.83 812.917 827.913 816.875C867.288 824.167 899.788 853.333 923.538 874.583C925.83 876.667 927.913 878.542 929.997 880.208C938.538 887.917 939.372 901.042 931.872 909.583C924.163 918.125 911.039 918.958 902.497 911.458C900.414 909.583 898.122 907.5 895.83 905.625C875.83 887.708 848.33 862.917 820.413 857.917C808.538 855.625 792.08 861.042 774.372 866.667C753.122 873.542 731.247 880.625 708.538 877.917C687.497 875.417 669.163 864.167 651.663 853.125C635.83 843.333 621.038 833.958 607.288 833.125C594.788 832.5 579.163 839.792 562.705 847.5C542.914 856.875 522.288 866.458 499.788 866.458C477.288 866.458 456.663 856.875 436.872 847.5C420.413 839.792 404.789 832.5 392.289 833.125C378.539 833.958 363.539 843.125 347.914 853.125C330.414 864.167 312.08 875.625 291.039 877.917C268.33 880.417 246.455 873.333 225.205 866.667C207.705 861.042 191.039 855.625 179.164 857.917C151.664 862.917 128.122 883.958 105.205 904.375C102.497 906.875 99.7885 909.167 97.0802 911.667C93.1219 915 88.3302 916.875 83.3302 916.875Z" fill="black"/>
</svg>
