<svg width="1000" height="1000" viewBox="0 0 1000 1000" fill="none" xmlns="http://www.w3.org/2000/svg">
<path d="M734.581 229.791C731.456 191.249 763.54 159.374 801.873 162.499C832.081 164.791 856.665 189.374 859.165 219.791C862.29 258.333 830.206 290.208 791.873 287.083C761.665 284.583 737.081 259.999 734.581 229.791ZM439.79 406.874C479.373 434.999 528.54 426.458 556.248 386.666C582.706 348.958 573.956 297.499 536.248 270.833C496.873 242.916 447.498 251.458 419.79 291.041C393.331 328.958 402.29 379.999 439.79 406.874ZM246.456 423.749L395.415 528.124V750.624C395.415 761.666 399.79 772.291 407.706 779.999C408.748 781.041 409.998 782.083 411.04 783.124C431.456 776.249 446.873 766.041 465.206 753.749C497.081 732.291 536.04 706.249 603.748 697.499V538.333L704.165 528.541C710.623 527.916 716.665 525.833 722.081 522.499L833.331 453.333C852.498 441.458 859.581 416.249 848.331 396.666C836.456 376.041 810.206 369.583 790.206 382.083L686.456 446.666L560.206 459.166H442.081L312.498 368.124V246.041C312.498 223.541 294.998 204.166 272.29 203.333C248.54 202.499 229.165 221.458 229.165 244.999V245.208V388.749V393.749C229.165 394.583 229.165 395.624 229.373 396.458C231.248 407.291 237.29 417.291 246.456 423.749ZM915.206 805.416C852.081 808.541 820.206 791.458 786.248 773.333C750.415 754.166 709.998 732.708 635.206 736.458C623.956 737.083 613.54 738.124 603.956 739.583C549.165 747.916 517.29 769.166 488.54 788.333C486.665 789.583 484.581 791.041 482.706 792.291C452.706 812.291 422.498 830.208 362.915 833.333C299.581 836.458 267.498 819.374 233.331 801.249C197.706 782.291 157.29 760.624 83.123 764.166C72.0813 764.791 62.7063 773.541 62.498 784.791C62.2897 796.874 72.498 806.458 84.373 805.833C147.706 802.708 179.79 819.791 213.956 837.916C249.79 857.083 290.206 878.541 364.998 874.791C439.79 871.041 477.915 845.416 511.665 822.916C528.748 811.458 545.206 800.416 566.248 792.083C571.665 789.999 577.498 787.916 583.748 786.249C598.748 782.083 616.248 778.958 637.29 777.916C700.623 774.791 732.706 791.874 766.873 809.999C802.706 829.166 843.123 850.624 917.915 846.874C929.79 846.249 938.956 835.624 937.498 823.541C936.04 812.708 926.248 804.791 915.206 805.416Z" fill="black"/>
</svg>
