<svg width="1000" height="1000" viewBox="0 0 1000 1000" fill="none" xmlns="http://www.w3.org/2000/svg">
<path fill-rule="evenodd" clip-rule="evenodd" d="M634.583 166.875C620.417 158.333 605.417 151.458 589.583 145.833C588.542 146.667 587.5 147.708 586.667 148.542C585.625 149.375 584.792 150.208 583.75 151.042C582.708 151.875 581.667 153.125 580.417 153.958C578.542 155.625 576.875 157.083 575.208 158.75C574.583 159.375 573.75 160.208 573.125 160.833C572.5 161.458 571.667 162.292 571.042 163.125C570.625 163.75 570 164.167 569.375 164.792C565.417 168.958 561.667 172.917 557.917 177.083C557.292 177.708 556.667 178.542 556.042 179.167C555.208 180 554.375 180.833 553.75 181.667C553.542 181.875 553.542 181.875 553.333 182.292C553.125 182.5 552.917 182.708 552.917 182.917C552.083 183.958 551.25 184.792 550.833 185.833C550.208 186.667 549.792 187.5 549.167 188.125C544.792 193.542 540.417 199.167 536.458 205C536.25 205.417 536.042 205.625 535.833 205.833C535.417 206.25 535.417 206.458 535 206.875C530.417 213.333 526.042 220.208 521.875 227.083C521.667 227.292 521.667 227.5 521.458 227.917L521.25 228.125C521.25 228.333 521.042 228.333 521.042 228.333C505.208 255.833 494.167 285.625 486.875 316.25C486.875 316.667 486.667 316.667 486.667 317.083C486.458 317.5 486.458 317.708 486.458 317.917C486.25 318.958 486.042 320 485.833 320.833C485.625 321.25 485.625 321.875 485.625 322.5C483.542 332.083 481.875 341.875 480.625 351.667C480.417 352.292 480.417 352.917 480.417 353.75C480.208 354.583 480.208 355.417 480.208 356.042C480 357.708 480 359.375 479.792 361.042C479.792 362.292 479.792 363.75 479.583 365C479.375 367.292 479.167 369.167 478.958 371.458C478.75 374.792 478.125 378.333 478.125 381.667C473.333 384.375 468.542 386.875 463.542 389.167C462.083 389.792 460.625 390.625 459.375 391.25C456.667 392.5 453.958 393.958 451.25 395C446.667 396.875 442.083 398.333 437.5 399.792C436.042 400.208 434.792 400.625 433.333 401.25C408.542 409.583 383.125 414.583 357.083 415.625C356.875 415.625 356.458 415.625 356.25 415.625C356.042 415.625 355.625 415.625 355.417 415.625C353.542 402.917 352.292 389.792 352.292 376.458C352.292 272.708 409.583 178.333 499.792 129.792C465.208 129.792 431.875 136.458 401.667 148.75C342.708 208.333 307.708 289.375 307.708 376.458C307.708 389.167 308.542 401.667 310 413.958C304.583 413.333 299.375 412.292 294.167 411.25C292.917 411.042 291.875 410.833 290.625 410.417C289.375 410.208 287.917 410 286.667 409.583C284.375 409.375 282.292 408.75 280.208 408.333C273.542 406.667 266.875 404.792 260.208 402.5C257.292 401.458 254.167 400.625 251.042 399.583C245.417 397.5 239.792 395.417 234.167 393.125C234.167 393.958 234.167 394.792 234.167 395.417C234.167 411.458 235.625 427.292 238.333 442.708C239.792 443.125 241.25 443.75 242.5 444.167C243.542 444.583 244.583 444.792 245.625 445.208C247.083 445.625 248.333 446.042 249.583 446.667C251.875 447.5 254.167 448.333 256.667 448.958C257.292 449.167 257.708 449.375 258.333 449.375C258.75 449.583 259.167 449.583 259.375 449.792C260.208 450.208 261.458 450.208 262.292 450.417C262.917 450.625 263.75 450.833 264.375 450.833C269.792 452.292 275.208 453.542 280.833 454.583C281.667 454.792 282.5 455 283.125 455.208C284.375 455.625 285.625 455.833 286.875 456.042C287.292 456.042 287.292 456.25 287.708 456.25H288.125H288.333H288.542C289.792 456.458 291.042 456.667 292.083 456.667C292.917 456.875 293.958 456.875 294.792 457.083C301.875 458.125 308.75 459.167 315.833 459.792C316.042 459.792 316.667 459.792 316.875 460C317.083 460 317.708 460.208 317.917 460.208C325.833 460.833 333.958 461.25 342.083 461.458C342.292 461.458 342.5 461.458 342.708 461.458C342.917 461.458 343.125 461.458 343.542 461.458C375.208 461.458 406.667 456.042 436.875 446.875C437.083 446.875 437.083 446.875 437.083 446.875H437.5C437.708 446.875 438.333 446.667 438.542 446.458C439.375 446.042 440.417 445.833 441.25 445.417C441.667 445.208 442.292 445 442.917 444.792C452.292 441.667 461.667 438.333 470.833 434.375C471.458 433.958 472.083 433.958 472.708 433.542C473.542 433.125 474.375 433.125 475 432.708C476.458 432.083 477.917 431.25 479.375 430.625C480.625 430 481.667 429.375 482.917 428.75C484.792 427.708 486.667 427.083 488.542 426.25C491.875 424.792 495 423.542 498.125 421.667C502.708 424.375 507.5 427.5 511.875 430.625C512.917 431.458 513.958 432.083 515.208 432.708C517.917 434.375 520.625 436.25 523.125 438.125C526.667 440.833 530.208 443.958 533.542 447.083C534.792 448.125 536.25 449.375 537.5 450.625C557.083 467.917 574.167 487.5 588.333 509.583C588.542 509.792 588.75 510 588.75 510.208L588.958 510.625L589.167 510.833L589.375 511.042C579.167 518.958 568.542 526.667 557.083 533.333C467.292 585.208 356.875 582.917 269.792 528.958C286.875 558.125 309.167 583.75 335.417 604.583C416.458 625.833 503.958 615.417 579.375 572.083C590.417 565.625 600.833 558.542 610.833 551.25C612.917 556.458 614.792 561.667 616.667 567.083C617.083 568.125 617.292 568.958 617.708 570C618.125 571.042 618.542 572.083 618.958 573.333C619.792 575.417 620.625 577.708 621.042 579.792C623.125 586.458 624.583 593.333 626.042 600C626.667 603.125 627.5 606.042 628.125 609.167C629.167 615 630.208 621.042 630.833 626.875C645.417 618.542 658.958 609.167 671.667 598.333C671.458 596.875 671.042 595.625 670.625 594.375C670.417 593.333 670.208 592.083 669.792 590.833C669.583 589.375 669.375 588.125 668.958 586.667C668.542 584.167 668.125 581.667 667.292 579.375C667.083 578.333 666.875 577.5 666.458 576.458C666.25 575.625 666.042 574.792 665.625 573.75C665.417 572.917 665.208 572.083 664.792 571.458C663.125 566.042 661.458 560.625 659.792 555.417C659.375 554.583 659.167 553.542 658.958 552.708C658.542 551.667 658.333 550.625 657.917 549.583C657.708 549.167 657.708 549.167 657.5 548.75C657.292 548.333 657.292 548.333 657.292 547.917C656.875 546.875 656.25 545.833 655.833 544.583C655.417 543.542 655 542.917 654.792 541.875C652.292 535.208 649.583 528.75 646.458 522.292C646.25 521.875 646.042 521.667 646.042 521.458C645.833 521.042 645.833 520.625 645.625 520.208C642.083 512.917 638.75 505.833 634.792 498.75C634.583 498.542 634.583 498.333 634.375 498.125C634.167 497.708 634.167 497.5 633.958 497.292C617.917 469.792 597.917 445.417 574.792 423.75C574.583 423.542 574.375 423.333 574.167 423.125C573.958 422.917 573.75 422.708 573.542 422.5C572.708 421.667 571.875 420.833 570.833 420.208C570.625 419.792 570.208 419.792 570 419.375C562.708 412.708 555.208 406.458 547.083 400.417C546.458 400 546.042 399.583 545.417 398.958C544.792 398.542 544.167 397.917 543.542 397.5C542.083 396.667 540.833 395.625 539.375 394.792C538.333 394.167 537.083 393.333 535.833 392.5C534.167 391.25 532.5 390.208 530.833 388.958C528.125 386.875 525.208 384.792 522.292 382.917C522.5 377.5 522.5 372.083 523.125 366.458C523.333 364.792 523.333 363.542 523.333 361.875C523.542 358.958 523.75 355.833 524.167 352.917C524.792 347.917 525.833 343.125 526.875 338.125C527.292 336.875 527.292 335.417 527.708 334.167C532.917 308.75 541.25 283.958 553.333 260.833C553.542 260.625 553.75 260.208 553.75 259.792C553.958 259.583 553.958 259.375 553.958 259.167C566.042 263.958 577.917 269.583 589.375 276.042C679.167 327.917 732.292 424.583 729.167 526.875C745.625 498.333 756.875 466.458 761.875 432.5C739.792 351.667 687.083 280.833 611.667 237.292C600.833 230.833 589.375 225.417 577.917 220.625C581.25 216.458 584.583 212.292 588.125 208.333C588.958 207.5 589.792 206.458 590.625 205.417C591.667 204.375 592.5 203.333 593.333 202.292C594.792 200.625 596.042 198.958 597.5 197.5C602.292 192.5 607.292 187.917 612.5 183.125L613.542 182.083C615.625 180.208 617.5 178.333 619.583 176.667C625.208 174.375 630 170.625 634.583 166.875ZM187.5 395.833C187.5 223.125 327.292 83.3334 500 83.3334C672.5 83.3334 812.5 223.125 812.5 395.833C812.5 568.333 672.5 708.333 500 708.333C327.292 708.333 187.5 568.333 187.5 395.833ZM937.5 741.667V904.167C937.5 922.5 922.5 937.5 904.167 937.5H95.8333C77.5 937.5 62.5 922.5 62.5 904.167V741.667C62.5 723.333 77.5 708.333 95.8333 708.333H121.875C151.667 708.333 181.042 717.5 204.792 735.625C247.292 768.333 363.333 791.667 500 791.667C636.667 791.667 752.708 768.333 795.208 735.625C818.958 717.5 848.333 708.333 878.125 708.333H904.167C922.5 708.333 937.5 723.333 937.5 741.667Z" fill="black"/>
</svg>
