<svg width="1000" height="1000" viewBox="0 0 1000 1000" fill="none" xmlns="http://www.w3.org/2000/svg">
<path d="M500 145.833C594.583 145.833 683.542 182.708 750.417 249.583C817.292 316.458 854.167 405.417 854.167 500C854.167 594.583 817.292 683.542 750.417 750.417C683.542 817.292 594.583 854.167 500 854.167C405.417 854.167 316.458 817.292 249.583 750.417C182.708 683.542 145.833 594.583 145.833 500C145.833 405.417 182.708 316.458 249.583 249.583C316.458 182.708 405.417 145.833 500 145.833ZM500 83.3334C269.792 83.3334 83.3333 269.792 83.3333 500C83.3333 730.208 269.792 916.667 500 916.667C730.208 916.667 916.667 730.208 916.667 500C916.667 269.792 730.208 83.3334 500 83.3334ZM500 208.333C338.958 208.333 208.333 338.958 208.333 500C208.333 661.042 338.958 791.667 500 791.667C661.042 791.667 791.667 661.042 791.667 500C791.667 338.958 661.042 208.333 500 208.333ZM309.167 541.667C286.25 541.667 267.5 522.917 267.5 500C267.5 477.083 286.25 458.333 309.167 458.333C332.083 458.333 350.833 477.083 350.833 500C350.833 522.917 332.292 541.667 309.167 541.667ZM392.5 416.667C369.583 416.667 350.833 397.917 350.833 375C350.833 352.083 369.583 333.333 392.5 333.333C415.417 333.333 434.167 352.083 434.167 375C434.167 397.917 415.625 416.667 392.5 416.667ZM475.833 541.667C452.917 541.667 434.167 522.917 434.167 500C434.167 477.083 452.917 458.333 475.833 458.333C498.75 458.333 517.5 477.083 517.5 500C517.5 522.917 498.958 541.667 475.833 541.667Z" fill="black"/>
</svg>
