<svg width="1000" height="1000" viewBox="0 0 1000 1000" fill="none" xmlns="http://www.w3.org/2000/svg">
<path d="M650.413 822.499L603.538 802.916C590.621 797.499 580.83 786.666 576.663 773.332C572.705 761.041 574.163 747.707 580.205 736.457L574.371 724.791C566.871 709.999 567.496 692.707 576.246 678.541C584.996 664.374 599.996 656.041 616.663 656.041C617.08 656.041 617.496 656.041 617.913 656.041L632.496 656.457L634.788 653.541C640.621 646.041 648.121 640.624 656.871 637.707C657.496 627.916 661.038 618.332 667.496 610.416C676.455 599.374 689.996 592.916 704.371 592.916H704.58L710.413 583.957C719.163 570.624 733.955 562.499 749.996 562.499C766.038 562.499 780.83 570.416 789.58 583.957L795.413 592.916H795.621C808.121 592.916 819.996 597.916 828.955 606.457C829.58 605.207 829.996 603.957 830.621 602.707C831.246 601.457 831.871 600.207 832.288 598.749C833.121 596.666 834.163 594.582 834.996 592.291C835.621 591.041 836.038 589.791 836.663 588.332C837.496 586.041 838.538 583.957 839.371 581.666C839.788 580.416 840.413 579.374 840.83 578.124C841.871 575.624 842.913 572.916 843.746 570.416C844.163 569.582 844.371 568.749 844.788 567.916C846.038 564.374 847.288 561.041 848.538 557.499C848.746 557.082 848.955 556.457 848.955 556.041C849.996 553.124 851.038 549.999 851.871 547.082C852.288 546.041 852.496 544.999 852.913 543.749C853.746 541.249 854.371 538.957 855.205 536.457C855.621 535.207 856.038 533.957 856.246 532.707C856.871 530.416 857.496 528.124 858.33 525.832C858.746 524.582 858.955 523.332 859.371 522.082C859.996 519.791 860.621 517.499 861.246 514.999C861.663 513.749 861.871 512.707 862.08 511.457C862.705 508.749 863.33 506.249 863.955 503.541C864.163 502.707 864.371 501.666 864.58 500.832C866.246 493.749 867.705 486.457 869.163 479.374C869.371 478.541 869.58 477.707 869.58 476.666C869.996 473.957 870.621 471.249 871.038 468.541C871.246 467.291 871.455 466.249 871.663 464.999C872.08 462.499 872.496 459.999 872.913 457.707C873.121 456.457 873.33 455.207 873.538 453.957C873.955 451.457 874.163 448.957 874.58 446.666C874.788 445.416 874.996 444.374 874.996 443.124C875.413 440.416 875.621 437.916 876.038 435.207C876.246 434.166 876.246 433.332 876.455 432.291C876.871 428.749 877.288 425.207 877.496 421.874V421.666C877.913 417.916 878.121 414.166 878.33 410.416C878.33 409.791 878.33 409.374 878.33 408.749C878.538 405.624 878.746 402.499 878.955 399.582C878.955 398.541 878.955 397.499 879.163 396.457C879.371 393.749 879.371 391.249 879.58 388.541C879.58 387.291 879.58 386.249 879.58 384.999C879.58 382.499 879.788 379.999 879.788 377.291C879.788 376.249 879.788 374.999 879.788 373.957C879.788 371.249 879.788 368.749 879.788 366.041C879.788 364.999 879.788 363.957 879.788 363.124C879.788 359.999 879.788 356.874 879.58 353.749C879.58 353.332 879.58 352.707 879.58 352.291C878.33 307.707 872.08 263.124 860.83 219.166V218.957C859.788 215.207 858.955 211.457 857.913 207.707C857.913 207.499 857.705 207.082 857.705 206.874C856.663 203.124 855.621 199.374 854.371 195.416C854.371 195.416 854.371 195.416 854.371 195.207C852.08 187.291 849.58 179.582 846.871 171.874C846.663 171.457 846.663 171.249 846.455 170.832C845.413 167.499 844.163 164.166 842.913 160.832C842.705 159.999 842.288 159.166 842.08 158.541C841.038 155.624 839.996 152.707 838.746 149.791C838.538 148.957 838.121 148.124 837.913 147.291C836.663 143.957 835.413 140.832 833.955 137.499C833.746 137.082 833.746 136.666 833.538 136.457C832.08 132.707 830.413 129.166 828.955 125.416C828.746 124.791 828.538 124.374 828.33 123.749C827.08 120.832 825.83 117.707 824.371 114.791C823.955 113.749 823.33 112.499 822.913 111.457C821.871 108.957 820.621 106.666 819.58 104.166C818.955 102.916 818.538 101.666 817.913 100.624C816.663 98.1241 815.621 95.8324 814.371 93.3324C813.746 92.2907 813.33 91.2491 812.705 89.9991C811.038 86.4574 809.163 83.1241 807.496 79.7907C807.08 78.9574 806.455 78.1241 806.038 77.2907C802.288 71.6657 796.038 67.9157 789.371 67.0824C785.413 66.4574 781.455 66.0407 777.705 65.6241C776.455 65.4157 775.205 65.4157 774.163 65.2074C771.455 64.9991 768.538 64.5824 765.83 64.3741C764.58 64.1657 763.121 64.1657 761.871 63.9574C759.163 63.7491 756.246 63.5407 753.538 63.3324C752.288 63.3324 751.246 63.1241 749.996 63.1241C742.08 62.4991 734.371 62.0824 726.455 61.8741C725.205 61.8741 724.163 61.8741 722.913 61.6657C720.205 61.6657 717.288 61.4574 714.58 61.4574C713.33 61.4574 712.08 61.4574 710.621 61.4574C707.705 61.4574 704.996 61.4574 702.08 61.4574C701.038 61.4574 699.788 61.4574 698.746 61.4574C690.83 61.4574 683.121 61.6657 675.205 62.0824C674.163 62.0824 672.913 62.2907 671.871 62.2907C668.955 62.4991 666.246 62.4991 663.33 62.7074C662.08 62.7074 660.83 62.9157 659.58 62.9157C656.663 63.1241 653.746 63.3324 651.038 63.5407C649.996 63.5407 648.955 63.7491 647.913 63.7491C640.205 64.3741 632.288 65.2074 624.58 66.2491C623.538 66.4574 622.496 66.4574 621.455 66.6657C618.538 67.0824 615.83 67.4991 612.913 67.9157C611.663 68.1241 610.621 68.3324 609.371 68.5407C606.455 68.9574 603.538 69.3741 600.83 69.9991C599.788 70.2074 598.955 70.4157 597.913 70.4157C569.58 75.2074 541.663 82.0824 514.371 90.8324C489.163 98.9574 464.371 108.749 440.413 120.207C440.205 120.207 439.996 120.416 439.788 120.416C436.663 121.874 433.33 123.541 430.205 124.999C429.996 125.207 429.788 125.207 429.58 125.416C426.246 127.082 423.121 128.749 419.788 130.416C419.788 130.416 419.788 130.416 419.58 130.416C406.246 137.499 393.33 144.999 380.413 153.124C379.996 153.332 379.788 153.541 379.371 153.749C376.663 155.416 373.955 157.291 371.246 158.957C370.621 159.374 370.205 159.582 369.58 159.999C367.08 161.666 364.58 163.332 362.08 165.207C361.455 165.624 360.83 166.041 360.205 166.457C357.705 168.124 355.205 169.999 352.705 171.874C352.288 172.291 351.663 172.499 351.246 172.916C348.33 174.999 345.621 177.082 342.705 179.166C342.496 179.166 342.496 179.374 342.288 179.374C336.246 183.957 330.413 188.541 324.58 193.332C324.163 193.541 323.746 193.957 323.538 194.166C321.038 196.249 318.746 198.124 316.246 200.207C315.621 200.832 314.788 201.457 314.163 202.082C312.08 203.749 309.996 205.624 308.121 207.499C307.288 208.332 306.455 208.957 305.621 209.791C303.746 211.457 301.871 213.124 299.996 214.999C299.163 215.832 298.33 216.666 297.496 217.499C295.621 219.166 293.746 221.041 291.871 222.707C291.038 223.541 290.205 224.374 289.371 224.999C287.288 226.874 285.413 228.957 283.33 231.041C282.705 231.666 282.08 232.291 281.455 232.916C276.246 238.124 271.246 243.541 266.038 249.166C265.413 249.999 264.58 250.832 263.955 251.457C262.288 253.332 260.413 255.416 258.746 257.291C257.913 258.332 257.08 259.374 256.038 260.416C254.58 262.291 252.913 263.957 251.455 265.832C250.621 266.874 249.58 268.124 248.746 269.166C247.288 270.832 245.83 272.707 244.371 274.582C243.538 275.832 242.496 276.874 241.663 278.124C240.205 279.999 238.746 281.874 237.288 283.541C236.455 284.582 235.621 285.832 234.58 286.874C233.121 288.957 231.455 290.832 229.996 292.916C229.371 293.957 228.538 294.791 227.913 295.832C225.621 298.957 223.538 301.874 221.246 304.999C219.163 308.124 216.871 311.249 214.788 314.374C214.163 315.416 213.538 316.457 212.705 317.499C211.246 319.582 209.996 321.666 208.538 323.749C207.705 324.999 207.08 326.249 206.246 327.291C204.996 329.166 203.746 331.249 202.496 333.124C201.663 334.374 201.038 335.624 200.205 336.874C198.955 338.749 197.913 340.832 196.663 342.707C195.83 343.957 195.205 345.207 194.371 346.457C193.121 348.541 192.08 350.624 190.83 352.707C190.205 353.957 189.58 354.999 188.955 356.249C187.705 358.541 186.455 360.832 185.205 363.124C184.788 363.957 184.163 364.999 183.746 365.832C180.205 372.499 176.871 379.166 173.746 385.832C173.33 386.666 172.913 387.499 172.705 388.124C171.455 390.624 170.413 393.332 169.163 395.832C168.746 396.874 168.33 397.916 167.705 398.957C166.663 401.249 165.621 403.749 164.58 406.041C164.163 407.082 163.746 408.124 163.121 409.374C162.08 411.666 161.246 414.166 160.205 416.457C159.788 417.499 159.371 418.541 158.955 419.582C157.913 422.082 157.08 424.582 156.038 427.082C155.621 427.916 155.413 428.957 154.996 429.791C153.955 432.707 152.913 435.624 151.871 438.541C151.663 438.957 151.455 439.374 151.455 439.999C148.955 447.082 146.663 454.374 144.371 461.457C144.371 461.666 144.371 461.874 144.163 461.874C143.121 465.207 142.08 468.541 141.246 471.874C141.038 472.499 140.83 473.124 140.83 473.749C139.996 476.666 139.163 479.582 138.33 482.707C138.121 483.332 137.913 484.166 137.705 484.791C136.871 487.707 136.246 490.624 135.413 493.541C135.205 494.166 134.996 494.791 134.996 495.416C134.163 498.541 133.538 501.666 132.913 504.791C132.913 505.207 132.705 505.624 132.705 506.041C129.58 520.832 126.871 535.624 124.788 550.416V550.624C124.371 554.166 123.746 557.916 123.33 561.457C123.33 561.666 123.33 561.874 123.33 562.291C122.913 565.832 122.496 569.374 122.288 572.916C122.288 573.124 122.288 573.332 122.288 573.541C119.788 599.999 118.955 626.457 119.996 652.916C121.038 681.457 124.371 709.999 129.371 738.332C129.58 739.374 129.788 740.416 129.996 741.249C130.621 744.166 131.038 746.874 131.663 749.791C131.871 751.041 132.08 752.291 132.496 753.332C133.121 756.041 133.746 758.749 134.371 761.666C134.58 762.707 134.788 763.749 134.996 764.791C136.663 772.291 138.538 779.999 140.621 787.499C140.83 788.541 141.246 789.582 141.455 790.624C142.288 793.332 142.913 796.041 143.746 798.749C144.163 799.999 144.371 801.249 144.788 802.499C145.621 805.207 146.455 807.916 147.288 810.624C147.705 811.666 147.913 812.707 148.33 813.957C150.621 821.457 153.121 828.749 155.83 836.249C156.246 837.291 156.663 838.332 157.08 839.374C158.121 842.082 158.955 844.582 159.996 847.291C160.413 848.541 160.83 849.791 161.455 851.041C162.496 853.541 163.538 856.249 164.58 858.749C164.996 859.791 165.413 861.041 165.83 862.082C167.288 865.624 168.746 869.374 170.205 872.916C171.663 876.457 173.33 880.207 174.996 883.749C175.413 884.791 176.038 885.832 176.455 887.082C177.705 889.582 178.746 892.082 179.996 894.582C180.621 895.832 181.246 897.082 181.663 898.332C182.913 900.832 184.163 903.332 185.205 905.832C185.83 906.874 186.246 907.916 186.871 909.166C188.538 912.707 190.413 916.249 192.288 919.791C192.705 920.624 193.33 921.457 193.746 922.291C197.08 927.082 202.08 930.624 207.705 932.082C208.538 932.291 209.58 932.499 210.621 932.707C214.371 933.124 218.33 933.749 222.08 934.166C223.33 934.374 224.371 934.374 225.621 934.582C228.33 934.791 231.038 935.207 233.746 935.416C234.996 935.624 236.455 935.624 237.705 935.832C240.413 936.041 243.121 936.249 245.83 936.457C247.08 936.457 248.33 936.666 249.371 936.666C252.705 936.874 255.83 937.082 259.163 937.291C259.788 937.291 260.413 937.291 260.83 937.499C264.788 937.707 268.746 937.916 272.705 938.124C273.121 938.124 273.538 938.124 273.955 938.124C277.496 938.332 281.038 938.332 284.371 938.332C285.205 938.332 286.038 938.332 287.08 938.332C290.205 938.332 293.33 938.332 296.455 938.332C297.288 938.332 298.121 938.332 298.955 938.332C302.496 938.332 306.038 938.332 309.58 938.124C309.996 938.124 310.205 938.124 310.621 938.124C318.746 937.916 326.871 937.499 335.205 937.082C335.205 937.082 335.205 937.082 335.413 937.082C339.371 936.874 343.33 936.457 347.288 936.249C347.705 936.249 347.913 936.249 348.33 936.249C352.288 935.832 356.038 935.624 359.996 935.207H360.205C376.663 933.541 392.913 931.249 408.955 928.332C437.08 923.124 464.788 916.249 491.663 907.291C492.08 907.082 492.496 907.082 493.121 906.874C496.038 905.832 499.163 904.791 502.08 903.749C503.121 903.332 503.955 903.124 504.996 902.707C507.496 901.874 509.996 900.832 512.496 899.999C513.538 899.582 514.58 899.166 515.83 898.749C518.121 897.916 520.621 896.874 522.913 896.041C523.955 895.624 524.996 895.207 526.246 894.791C528.746 893.749 531.038 892.916 533.538 891.874C534.58 891.457 535.413 891.041 536.455 890.624C539.371 889.374 542.08 888.124 544.996 886.874C545.413 886.666 546.038 886.457 546.455 886.249C549.788 884.791 553.33 883.124 556.663 881.666C556.871 881.666 556.871 881.457 557.08 881.457C560.205 879.999 563.33 878.541 566.455 876.874C567.288 876.457 568.121 876.041 569.163 875.624C571.455 874.374 573.955 873.332 576.246 872.082C577.288 871.457 578.33 871.041 579.371 870.416C581.663 869.166 583.746 868.124 585.83 866.874C586.871 866.249 587.913 865.624 589.163 864.999C591.246 863.749 593.538 862.499 595.621 861.457C596.663 860.832 597.705 860.207 598.746 859.791C601.038 858.332 603.538 857.082 605.83 855.624C606.663 855.207 607.496 854.791 608.121 854.166C614.371 850.416 620.621 846.457 626.871 842.499C627.705 841.874 628.538 841.457 629.163 840.832C631.455 839.374 633.538 837.916 635.83 836.457C636.871 835.832 637.913 834.999 638.955 834.374C641.038 832.916 642.913 831.666 644.996 830.207C646.038 829.374 647.08 828.749 648.121 827.916C649.163 827.291 649.996 826.457 650.83 825.832C650.621 824.166 650.413 823.332 650.413 822.499ZM608.538 131.666C608.955 131.666 609.371 131.457 609.788 131.457L611.038 131.249C613.538 130.832 616.246 130.416 618.746 129.999C619.788 129.791 620.83 129.582 621.871 129.582C624.371 129.166 626.871 128.957 629.58 128.541L630.83 128.332C631.455 128.332 631.871 128.124 632.496 128.124C639.371 127.291 646.455 126.457 653.33 125.832C653.746 125.832 654.371 125.832 654.788 125.624L656.038 125.416C658.538 125.207 661.246 124.999 663.746 124.791C664.371 124.791 664.788 124.791 665.413 124.582C697.08 168.541 743.121 200.832 795.205 215.416C795.83 217.916 796.663 220.416 797.496 223.332L797.705 223.749V224.166C798.746 227.499 799.58 231.041 800.413 234.374V234.582C804.58 250.624 807.913 266.874 810.413 283.124L798.33 280.624C717.705 263.749 646.663 213.957 603.33 144.166L596.663 133.541C600.83 132.916 604.788 132.291 608.538 131.666ZM397.913 866.249H397.705C383.33 868.957 368.746 870.832 354.163 872.291H353.955C350.621 872.707 347.08 872.916 343.538 873.332H343.121H342.705C339.788 873.541 337.288 873.749 334.58 873.957C302.913 829.999 256.871 797.707 204.788 783.124C204.58 782.499 204.371 782.082 204.371 781.457C203.746 778.957 202.913 776.457 202.288 774.166L201.871 772.707C201.663 772.291 201.663 771.666 201.455 771.249C199.58 764.582 197.913 757.707 196.455 750.832C196.246 750.207 196.246 749.582 196.038 748.957L195.83 747.916C195.205 745.416 194.788 742.916 194.163 740.416C193.955 739.374 193.746 738.332 193.538 737.082C193.121 734.582 192.496 732.082 192.08 729.374L191.871 728.124C191.871 727.707 191.663 727.291 191.663 726.666C191.038 722.916 190.413 718.957 189.788 714.999L202.08 717.499C282.705 734.374 353.746 784.166 397.08 853.957L403.746 864.582C401.455 865.624 399.788 866.041 397.913 866.249ZM568.33 578.541C562.08 578.541 555.83 576.666 550.413 572.916L507.705 543.124L459.996 611.457L502.705 641.249C516.871 651.249 520.205 670.624 510.413 684.791C504.371 693.541 494.58 698.124 484.788 698.124C478.538 698.124 472.288 696.249 466.871 692.499L424.163 662.499L394.371 705.207C388.33 713.957 378.538 718.541 368.746 718.541C362.496 718.541 356.246 716.666 350.83 712.916C336.663 702.916 333.33 683.541 343.121 669.374L372.913 626.666L330.205 596.874C316.038 586.874 312.705 567.499 322.496 553.332C332.288 539.166 351.871 535.832 366.038 545.624L408.746 575.416L456.455 507.082L413.746 477.291C399.58 467.291 396.246 447.916 406.038 433.749C415.83 419.582 435.413 416.249 449.58 426.041L492.288 455.832L539.996 387.499L497.288 357.707C483.121 347.707 479.788 328.332 489.58 314.166C499.371 299.999 518.955 296.666 533.121 306.457L575.83 336.249L605.621 293.541C615.621 279.374 634.996 276.041 649.163 285.832C663.33 295.832 666.663 315.207 656.871 329.374L627.08 372.082L669.788 401.874C683.955 411.874 687.288 431.249 677.496 445.416C671.455 454.166 661.663 458.749 651.871 458.749C645.621 458.749 639.371 456.874 633.955 453.124L591.246 423.332L543.746 491.874L586.455 521.666C600.621 531.666 603.955 551.041 594.163 565.207C587.913 573.957 578.33 578.541 568.33 578.541ZM749.996 604.166C751.871 604.166 753.746 604.999 754.788 606.874L773.121 634.582H795.83C799.58 634.582 802.288 637.916 801.455 641.457L784.163 725.624L823.33 678.749C824.58 677.291 826.038 676.666 827.705 676.666C829.371 676.666 831.038 677.499 832.288 678.957L847.496 698.541L883.121 697.499H883.33C887.705 697.499 890.413 702.082 888.538 705.832L872.08 738.541L882.913 755.832C884.788 758.957 883.538 762.916 880.205 764.166L802.288 796.874L807.705 821.666C808.538 825.416 805.621 828.749 802.08 828.749C801.871 828.749 801.455 828.749 801.246 828.749L766.455 823.124C766.038 823.124 765.621 822.916 765.205 822.916H759.788V886.041C759.788 891.457 755.413 895.624 750.205 895.624C744.996 895.624 740.621 891.249 740.621 886.041V822.916H735.205C734.788 822.916 734.371 822.916 733.955 823.124L699.371 828.749C698.955 828.749 698.746 828.749 698.538 828.749C694.996 828.749 692.08 825.416 692.913 821.666L698.33 796.874L620.413 764.166C617.08 762.707 615.83 758.749 617.705 755.832L628.538 738.541L612.08 705.832C610.205 701.874 612.913 697.499 617.288 697.499H617.496L653.121 698.541L668.33 678.957C669.58 677.499 671.246 676.666 672.913 676.666C674.58 676.666 676.246 677.291 677.288 678.749L716.455 725.624L699.163 641.457C698.33 637.916 701.246 634.582 704.788 634.582H727.496L745.83 606.874C746.246 604.999 748.121 604.166 749.996 604.166Z" fill="black"/>
</svg>
