<svg width="1000" height="1000" viewBox="0 0 1000 1000" fill="none" xmlns="http://www.w3.org/2000/svg">
<g clip-path="url(#clip0)">
<path d="M688.547 334.167C692.297 328.958 692.713 321.875 689.38 316.458C675.213 292.5 675.422 261.667 692.297 237.292L772.297 122.917C777.505 115.417 787.922 113.542 795.422 118.75L887.505 183.333C895.005 188.542 896.88 198.958 891.672 206.458L811.88 320.833C795.005 345 766.047 355.833 738.755 350.625C732.505 349.375 726.047 352.292 722.505 357.5L492.922 684.792C489.172 690 488.755 697.083 492.088 702.5C497.297 711.042 500.422 720.625 501.672 730.417C488.13 737.917 476.255 746.042 465.213 753.333C434.588 773.75 412.505 788.542 360.63 791.25C356.255 791.458 351.88 791.667 347.921 791.667C332.088 791.667 318.755 790 307.088 787.083L369.588 697.708C386.463 673.542 415.421 662.708 442.713 667.917C448.963 669.167 455.422 666.25 458.963 661.042L688.547 334.167ZM62.5046 270.833C62.5046 155.833 155.838 62.5 270.838 62.5C385.838 62.5 479.172 155.833 479.172 270.833C479.172 385.833 385.838 479.167 270.838 479.167C155.838 479.167 62.5046 385.833 62.5046 270.833ZM330.421 347.083C323.755 352.292 316.463 357.5 308.755 361.875C248.755 396.458 175.213 395 117.296 358.958C128.546 378.333 143.546 395.625 161.046 409.375C215.005 423.542 273.338 416.667 323.546 387.708C330.838 383.333 337.713 378.75 344.38 373.75C345.838 377.292 346.88 380.833 348.338 384.375C348.546 385 348.755 385.625 348.963 386.25C349.171 387.083 349.38 387.708 349.796 388.542C350.213 390 350.838 391.458 351.255 392.917C352.713 397.292 353.755 401.875 354.588 406.25C355.005 408.333 355.421 410.208 355.838 412.292C356.671 416.25 357.296 420.208 357.713 424.167C367.296 418.75 376.463 412.292 385.005 405.208C384.796 404.375 384.588 403.333 384.38 402.5C384.171 401.667 383.963 400.833 383.963 400.208C383.755 399.375 383.546 398.542 383.546 397.5C383.13 395.833 382.921 394.167 382.505 392.5C382.296 391.875 382.088 391.25 382.088 390.625C381.88 390 381.671 389.375 381.671 388.75C381.463 388.333 381.255 387.708 381.255 387.083C380.213 383.333 378.963 380 377.921 376.458C377.713 375.833 377.505 375.208 377.505 374.583C377.296 373.75 377.088 373.333 376.88 372.5C376.88 372.292 376.88 372.292 376.671 372.083C376.463 371.875 376.463 371.875 376.463 371.667C376.255 370.833 375.838 370.208 375.63 369.375C375.421 368.75 375.213 368.125 375.005 367.708C373.338 363.333 371.463 358.958 369.38 354.792C369.171 354.583 369.171 354.375 369.171 354.167C368.963 353.75 368.963 353.75 368.755 353.333C366.463 348.542 364.171 343.75 361.463 339.167C361.463 338.958 361.463 338.958 361.255 338.75C361.046 338.542 361.046 338.333 360.838 338.333C350.213 320 336.88 303.75 321.463 289.167C321.255 288.958 321.046 288.75 321.046 288.75C320.838 288.542 320.63 288.333 320.63 288.333C320.213 287.917 319.588 287.292 318.963 286.667C318.755 286.458 318.546 286.458 318.338 286.25C313.546 281.875 308.338 277.708 303.13 273.75C302.713 273.333 302.505 273.125 302.088 272.708C301.671 272.5 301.255 272.083 300.838 271.875C299.796 271.25 298.963 270.625 297.921 270.208C297.296 269.792 296.255 269.167 295.63 268.75C294.38 267.917 293.338 267.083 292.296 266.458C290.421 265.208 288.546 263.75 286.463 262.5C286.463 258.75 286.671 255.208 286.88 251.667C286.88 250.625 286.88 249.583 287.088 248.542C287.088 246.667 287.505 244.583 287.505 242.5C287.921 239.167 288.546 236.042 289.171 232.708C289.38 231.875 289.38 230.833 289.588 230.208C292.921 213.125 298.546 196.667 306.671 181.458C306.88 181.25 306.88 181.042 307.088 180.833C307.088 180.625 307.088 180.417 307.296 180.417C315.421 183.542 323.338 187.292 331.046 191.667C391.046 226.25 426.463 290.833 424.38 358.958C435.421 339.792 442.922 318.542 446.047 296.042C431.255 242.083 396.255 194.792 345.838 165.833C338.546 161.667 331.046 157.917 323.338 154.792C325.63 151.875 327.921 149.167 330.005 146.667C330.421 146.042 331.046 145.417 331.671 144.792C332.296 144.167 332.921 143.333 333.546 142.708C334.38 141.667 335.421 140.417 336.255 139.375C339.38 136.042 342.921 132.917 346.255 129.792L346.88 129.167C348.338 127.917 349.588 126.667 350.838 125.417C354.38 123.542 357.505 121.042 360.63 118.75C351.255 113.125 341.255 108.542 330.63 104.583C330.005 105.208 329.38 105.833 328.755 106.458C328.13 107.083 327.505 107.5 326.88 108.125C326.046 108.75 325.421 109.583 324.588 110.208C323.338 111.25 322.088 112.292 321.046 113.333C320.63 113.75 320.005 114.375 319.588 114.792C319.171 115.208 318.755 115.625 318.338 116.25C317.921 116.667 317.505 117.083 317.296 117.5C314.796 120.208 312.296 122.917 309.588 125.625C309.171 126.042 308.755 126.458 308.338 126.875C307.921 127.292 307.296 127.917 306.671 128.542C306.463 128.75 306.463 128.75 306.255 128.958C306.255 129.167 306.046 129.375 305.838 129.375C305.421 130 304.796 130.625 304.38 131.25C303.963 131.667 303.546 132.292 303.13 132.708C300.213 136.458 297.296 140.208 294.588 143.958C294.588 144.167 294.171 144.375 294.171 144.375C293.963 144.583 293.963 144.792 293.755 145C290.838 149.375 287.921 153.75 285.005 158.333C284.796 158.542 284.796 158.75 284.796 158.75L284.588 158.958C284.588 159.167 284.38 159.167 284.38 159.167C273.755 177.5 266.463 197.292 261.671 217.708C261.671 217.917 261.463 218.125 261.463 218.125C261.255 218.333 261.255 218.542 261.255 218.542C261.255 219.167 261.046 220 260.838 220.417C260.63 220.833 260.63 221.25 260.63 221.458C259.171 227.917 258.13 234.375 257.296 241.042C257.088 241.458 257.088 241.875 257.088 242.292C257.088 242.708 256.88 243.333 256.88 243.958C256.671 245.208 256.671 246.25 256.671 247.292C256.671 248.125 256.671 249.167 256.463 249.792C256.463 251.25 256.255 252.708 256.046 254.167C255.838 256.458 255.63 258.75 255.63 261.042C252.296 262.708 249.171 264.375 246.046 266.042C245.005 266.458 244.171 266.875 243.13 267.292C241.463 268.125 239.38 269.167 237.713 269.792C234.796 271.042 231.671 272.083 228.546 272.917C227.713 273.333 226.671 273.542 225.838 273.958C209.38 279.375 192.296 282.708 175.005 283.542C174.796 283.542 174.588 283.542 174.588 283.542C174.38 283.542 174.171 283.542 174.171 283.542C172.921 275 172.088 266.458 172.088 257.292C172.088 188.125 210.213 125.208 270.421 92.9167C247.296 92.9167 225.213 97.2917 205.005 105.625C165.63 145.417 142.296 199.375 142.296 257.292C142.296 265.833 142.921 274.167 143.963 282.292C140.421 281.875 136.88 281.25 133.338 280.625C132.505 280.417 131.671 280.208 131.046 280.208C130.213 280 129.171 279.792 128.546 279.792C127.088 279.583 125.63 279.375 124.171 278.958C119.796 277.917 115.421 276.667 110.838 275.208C108.755 274.583 106.671 273.958 104.796 273.333C101.046 271.875 97.2963 270.417 93.5463 268.958C93.5463 269.375 93.5463 270 93.5463 270.625C93.5463 281.25 94.588 291.875 96.2546 302.083C97.2963 302.292 98.1296 302.708 99.1713 302.917C99.7963 303.125 100.63 303.333 101.255 303.542C102.088 303.958 102.921 304.167 103.963 304.583C105.63 305 107.088 305.625 108.546 306.042C108.963 306.25 109.171 306.25 109.796 306.25C110.005 306.458 110.213 306.458 110.421 306.458C111.046 306.667 111.88 306.667 112.505 306.875C112.921 307.083 113.546 307.083 113.963 307.083C117.713 308.125 121.255 308.958 124.796 309.583C125.213 309.583 125.838 309.792 126.463 310C127.296 310.208 128.13 310.417 128.963 310.417C129.171 310.417 129.38 310.625 129.38 310.625H129.588H129.796H130.005C130.838 310.625 131.671 310.833 132.505 310.833C133.13 311.042 133.755 311.042 134.171 311.042C138.755 311.667 143.338 312.292 148.338 312.708C148.546 312.708 148.755 312.708 149.171 312.917C149.38 312.917 149.588 313.125 149.796 313.125C155.213 313.542 160.421 313.75 166.046 313.958C166.255 313.958 166.463 313.958 166.463 313.958C166.671 313.958 166.88 313.958 166.88 313.958C188.13 313.958 208.963 310.417 228.963 304.375C229.171 304.375 229.171 304.375 229.171 304.375H229.38C229.588 304.375 229.796 304.167 230.213 304.167C230.838 303.958 231.463 303.75 231.88 303.542C232.296 303.542 232.505 303.333 232.921 303.125C239.171 301.042 245.421 298.75 251.463 296.25C251.88 296.042 252.296 296.042 252.713 295.833C253.13 295.625 253.755 295.625 254.171 295.417C255.005 295 256.046 294.583 257.088 293.958C257.921 293.542 258.755 293.125 259.588 292.708C260.838 292.083 262.088 291.458 263.338 291.042C265.63 290.208 267.713 289.167 269.796 288.125C272.921 290 276.046 291.875 278.963 293.958C279.588 294.375 280.421 294.792 281.046 295.417C282.921 296.667 284.588 297.917 286.255 299.167C288.755 301.042 290.838 303.125 293.338 305.208C294.171 306.042 295.005 306.875 295.838 307.5C308.755 318.958 320.421 332.083 329.588 346.667C329.796 346.875 329.796 347.083 329.796 347.083L330.005 347.292L330.421 347.083ZM983.13 555.417H634.588L537.922 693.542C536.463 695.625 536.255 698.333 537.088 700.625C538.546 704.583 539.797 708.542 540.838 712.708C548.547 709.792 556.672 707.292 565.422 705H565.63C567.297 704.583 568.963 704.167 570.838 703.75C570.838 703.75 570.838 703.75 571.047 703.75C576.255 702.5 581.672 701.25 587.088 700.417C587.297 700.417 587.713 700.208 587.922 700.208C589.172 700 590.422 699.792 591.672 699.583C592.505 699.375 593.547 699.375 594.38 699.167C595.422 698.958 596.672 698.75 597.922 698.542C598.963 698.333 600.005 698.125 601.255 698.125C602.297 697.917 603.547 697.917 604.588 697.708C605.838 697.5 607.088 697.5 608.338 697.292C609.38 697.083 610.422 697.083 611.463 696.875C612.922 696.667 614.172 696.667 615.63 696.458C616.672 696.458 617.505 696.25 618.547 696.25C620.213 696.042 621.672 696.042 623.338 695.833C624.172 695.833 625.005 695.625 625.838 695.625C628.338 695.417 630.838 695.208 633.338 695.208C639.797 694.792 646.047 694.792 652.088 694.792C654.797 694.792 657.505 694.792 660.213 695C661.047 695 661.88 695 662.713 695C664.588 695 666.672 695.208 668.547 695.208C669.38 695.208 670.213 695.208 670.838 695.417C673.13 695.625 675.422 695.625 677.713 695.833C677.922 695.833 678.338 695.833 678.547 695.833C681.047 696.042 683.547 696.25 686.047 696.458C686.672 696.458 687.505 696.667 688.13 696.667C690.005 696.875 691.672 697.083 693.338 697.292C693.963 697.292 694.797 697.5 695.422 697.5C697.297 697.708 699.38 698.125 701.255 698.333C701.672 698.333 702.088 698.542 702.297 698.542C704.588 698.958 706.88 699.375 708.963 699.792C709.588 700 710.005 700 710.63 700.208C712.297 700.625 713.963 700.833 715.63 701.25C716.255 701.458 716.88 701.458 717.505 701.667C719.172 702.083 720.838 702.5 722.505 702.917C722.922 702.917 723.338 703.125 723.755 703.125C725.838 703.542 727.922 704.167 729.797 704.792C730.213 705 730.63 705 731.047 705.208C732.713 705.625 734.172 706.042 735.838 706.667C736.463 706.875 736.88 707.083 737.505 707.083C738.963 707.5 740.63 708.125 742.088 708.542C742.505 708.75 742.922 708.75 743.13 708.958C745.005 709.583 746.88 710.208 748.755 710.833C748.963 710.833 749.172 711.042 749.38 711.042C751.047 711.667 752.505 712.292 754.172 712.708C754.588 712.917 755.005 713.125 755.422 713.125C756.88 713.75 758.338 714.167 759.588 714.792C760.005 715 760.213 715 760.63 715.208C762.297 715.833 764.172 716.667 765.838 717.292C849.588 686.667 926.672 641.667 993.963 585.625C1006.05 575 998.963 555.417 983.13 555.417ZM301.88 722.292L335.63 673.958C357.088 643.333 392.088 625.208 429.588 625.208C432.088 625.208 434.38 623.958 435.838 622.083L482.505 555.417H470.005H16.8796C1.25459 555.417 -6.03708 575 6.04626 585C77.9213 645 161.046 692.083 251.671 722.917L301.88 722.292ZM915.838 805.417C852.505 808.542 820.422 791.458 786.255 773.333C750.422 754.167 710.005 732.708 635.213 736.458C560.422 740.208 522.297 765.833 488.547 788.333C456.463 809.792 426.255 830 362.921 833.333C299.588 836.458 267.505 819.375 233.338 801.25C197.505 782.083 157.088 760.625 82.2963 764.375C70.838 765 62.088 774.792 62.5046 786.25C63.1296 797.708 72.9213 806.458 84.3796 806.042C147.713 802.917 179.796 820 213.963 838.125C249.796 857.292 290.213 878.75 365.005 875C439.796 871.25 477.922 845.625 511.672 823.125C543.755 801.667 573.963 781.458 637.297 778.125C700.63 775 732.713 792.083 766.88 810.208C802.713 829.375 843.13 850.833 917.922 847.083C929.38 846.458 938.13 836.667 937.713 825.208C936.88 813.542 927.088 804.792 915.838 805.417Z" fill="black"/>
</g>
<defs>
<clipPath id="clip0">
<rect width="1000" height="1000" fill="white"/>
</clipPath>
</defs>
</svg>
