<svg width="1000" height="1000" viewBox="0 0 1000 1000" fill="none" xmlns="http://www.w3.org/2000/svg">
<path fill-rule="evenodd" clip-rule="evenodd" d="M937.504 79.1667V882.5C937.504 898.958 916.045 905.417 906.879 891.667L793.129 721.25C826.67 719.375 856.045 697.5 867.295 665.625C874.587 644.583 873.337 622.083 863.754 601.875C854.17 581.875 837.295 566.667 816.254 559.375L649.795 501.042C648.337 500.417 646.67 500 645.212 499.583L604.17 438.542L481.254 232.292C480.004 230.208 478.337 228.333 476.254 226.875L275.004 93.125C261.254 83.9583 267.712 62.5 284.17 62.5H920.837C930.004 62.5 937.504 70 937.504 79.1667ZM505.212 528.958L444.795 486.667L508.337 426.042C525.004 410.208 525.629 383.75 509.795 367.083C493.962 350.417 467.504 349.792 450.837 365.625L375.004 437.917L334.379 409.583L430.004 273.125C443.129 254.375 438.545 228.333 419.795 215C401.045 201.875 375.004 206.458 361.67 225.208L242.295 395.833L170.629 498.125C157.504 516.875 162.087 542.917 180.837 556.25L385.629 699.583C392.712 704.583 401.045 707.083 409.587 707.083C412.087 707.083 414.379 706.875 416.879 706.458C427.712 704.583 437.504 698.333 443.754 689.375L515.42 587.083C528.545 568.125 523.962 542.292 505.212 528.958ZM184.379 406.042C211.879 366.667 203.337 317.5 163.962 290C124.587 262.5 75.4204 271.042 47.9204 310.417C20.4204 349.792 29.3787 399.167 68.7537 426.667C107.92 454.375 156.67 445.417 184.379 406.042ZM861.67 880.417L662.295 740.625C643.545 727.5 617.504 732.083 604.17 750.833C591.045 769.583 595.629 795.625 614.379 808.958L813.754 948.75C821.045 953.75 829.379 956.25 837.712 956.25C850.837 956.25 863.754 950 871.879 938.542C885.004 919.583 880.42 893.542 861.67 880.417ZM775.004 677.708C796.67 685.417 820.42 673.958 828.129 652.083C835.837 630.208 824.379 606.667 802.504 598.958L636.045 540.625C618.337 534.375 598.754 540.833 588.129 556.042L477.92 713.333C464.795 732.083 469.379 758.125 488.129 771.458C495.42 776.458 503.754 778.958 512.087 778.958C525.212 778.958 538.129 772.708 546.254 761.25L638.337 629.792L775.004 677.708Z" fill="black"/>
</svg>
