<svg width="1000" height="1000" viewBox="0 0 1000 1000" fill="none" xmlns="http://www.w3.org/2000/svg">
<path fill-rule="evenodd" clip-rule="evenodd" d="M476.46 835.626C485.835 842.292 488.127 855.209 481.669 864.584L457.71 898.751C444.585 917.501 418.544 922.084 399.585 908.959L126.669 717.917C107.919 704.792 103.335 678.751 116.46 659.792L140.419 625.626C147.085 616.251 160.002 613.959 169.377 620.417L476.46 835.626ZM814.585 207.709C918.335 280.209 943.544 423.126 870.835 526.876L763.335 680.417C684.169 793.542 528.335 821.042 415.21 741.876L381.669 718.334L238.335 617.917C128.544 541.042 101.877 389.792 178.752 280.209L230.835 205.834C254.794 171.667 295.627 149.584 329.794 173.334L346.877 185.417C365.627 198.542 370.21 224.584 357.085 243.334L273.544 363.542C267.085 372.917 269.377 385.626 278.544 392.084C287.919 398.542 300.627 396.251 307.085 387.084L450.627 182.084C503.335 106.667 638.752 85.0006 714.169 137.709L814.585 207.709ZM671.46 613.126C682.71 611.042 690.419 600.417 688.335 588.959C686.252 577.709 675.627 570.001 664.169 572.084L602.71 582.917L591.877 521.459C589.794 510.209 579.169 502.501 567.71 504.584C556.46 506.667 548.752 517.292 550.835 528.751L561.669 590.209L500.21 601.042C488.96 603.126 481.252 613.751 483.335 625.209C485.21 635.417 493.96 642.501 503.752 642.501C505.002 642.501 506.252 642.292 507.294 642.084L568.752 631.251L579.585 692.709C581.46 702.917 590.21 710.001 600.002 710.001C601.252 710.001 602.502 709.792 603.544 709.584C614.794 707.501 622.502 696.876 620.419 685.417L609.585 623.959L671.46 613.126ZM791.044 442.501C802.294 440.417 810.002 429.792 807.919 418.334C805.835 407.084 795.21 399.376 783.752 401.459L722.294 412.292L711.46 350.834C709.377 339.584 698.752 331.876 687.294 333.959C676.044 336.042 668.335 346.667 670.419 358.126L681.252 419.584L619.794 430.417C608.544 432.501 600.835 443.126 602.919 454.584C604.794 464.792 613.544 471.876 623.335 471.876C624.585 471.876 625.835 471.667 626.877 471.459L688.335 460.626L699.169 522.084C701.044 532.292 709.794 539.376 719.585 539.376C720.835 539.376 722.085 539.167 723.127 538.959C734.377 536.876 742.085 526.251 740.002 514.792L729.169 453.334L791.044 442.501Z" fill="black"/>
</svg>
