<svg width="1000" height="1000" viewBox="0 0 1000 1000" fill="none" xmlns="http://www.w3.org/2000/svg">
<path d="M791.667 331.458V187.5C791.667 164.583 772.917 145.833 750 145.833H271.875C249.375 145.833 230 163.333 229.167 186.042C228.333 209.792 247.292 229.167 270.833 229.167H691.667C700.833 229.167 708.333 236.667 708.333 245.833V312.917C704.792 312.708 302.083 312.708 302.083 312.708C169.792 312.708 62.5 420 62.5 552.292C62.5 684.583 169.792 791.875 302.083 791.875H697.917C830.208 791.875 937.5 684.583 937.5 552.292C937.5 453.125 877.292 368.125 791.667 331.458Z" fill="black"/>
</svg>
