<svg width="1000" height="1000" viewBox="0 0 1000 1000" fill="none" xmlns="http://www.w3.org/2000/svg">
<path d="M806.042 245.208C830 211.249 872.5 203.749 906.458 227.499C940.625 251.249 948.125 293.749 924.167 327.708C900.208 361.666 858.125 369.374 824.167 345.624C790.208 321.874 782.292 279.374 806.042 245.208ZM366.667 793.541C366.667 883.124 293.75 956.041 204.167 956.041C114.583 956.041 41.6667 883.124 41.6667 793.541C41.6667 703.958 114.583 631.041 204.167 631.041C293.75 631.041 366.667 703.958 366.667 793.541ZM325 793.541C325 726.874 270.833 672.708 204.167 672.708C137.5 672.708 83.3334 726.874 83.3334 793.541C83.3334 860.207 137.5 914.374 204.167 914.374C270.833 914.374 325 860.207 325 793.541ZM958.333 793.541C958.333 883.124 885.417 956.041 795.833 956.041C706.25 956.041 633.333 883.124 633.333 793.541C633.333 734.999 664.375 683.541 711.042 654.999L693.333 625.208C689.583 618.749 687.5 611.458 687.5 603.958V478.958H312.5C289.583 478.958 270.833 460.208 270.833 437.291C270.833 368.333 326.875 312.291 395.833 312.291H729.167C752.083 312.291 770.833 331.041 770.833 353.958V437.291V592.499L793.75 631.041C794.375 631.041 795.208 631.041 795.833 631.041C885.417 631.041 958.333 703.958 958.333 793.541ZM916.667 793.541C916.667 735.207 875 686.249 819.792 675.208L848.125 722.916C859.792 742.708 853.333 768.332 833.542 779.999C826.875 783.957 819.583 785.833 812.292 785.833C798.125 785.833 784.167 778.541 776.458 765.416L732.292 690.833C697.917 712.291 675 750.207 675 793.541C675 860.207 729.167 914.374 795.833 914.374C862.5 914.374 916.667 860.207 916.667 793.541ZM629.375 617.083L550.625 534.374C534.792 517.708 508.333 517.083 491.667 532.916C475 548.749 474.375 575.208 490.208 591.874L545.208 649.583L485.625 732.708L391.25 543.958C381.042 523.333 356.042 514.999 335.417 525.208C314.792 535.416 306.458 560.416 316.667 581.041L441.667 831.041V831.249L483.333 914.582C490.625 929.166 505.417 937.707 520.625 937.707C526.875 937.707 533.333 936.249 539.167 933.332C559.792 923.124 568.125 898.124 557.917 877.499L527.708 816.874L632.917 669.999C644.792 653.749 643.333 631.666 629.375 617.083Z" fill="black"/>
</svg>
