<svg width="1000" height="1000" viewBox="0 0 1000 1000" fill="none" xmlns="http://www.w3.org/2000/svg">
<path d="M811.458 472.291L787.5 557.5C782.292 575.833 765.625 587.916 747.5 587.916C743.75 587.916 740 587.5 736.25 586.458C714.167 580.208 701.25 557.291 707.292 535L725 471.458L666.042 404.375L474.792 525.833C467.917 530.208 460.208 532.291 452.5 532.291C439.167 532.291 426.25 525.833 418.125 514.166L371.042 445.416C364.583 436.041 362.292 424.583 364.583 413.541C366.875 402.5 373.542 392.708 383.125 386.666L500 312.5H354.792C353.333 312.5 352.083 312.5 350.625 312.291L408.75 229.166H604.167C616.25 229.166 627.5 234.375 635.417 243.333L802.708 433.541C811.875 444.166 815.208 458.75 811.458 472.291ZM379.583 162.083C370.208 155.416 357.083 157.708 350.625 167.291L159.583 440.416L122.083 414.166C114.583 408.958 104.167 410.833 98.9584 418.333L82.2917 442.291C77.0834 449.791 78.9584 460.208 86.4584 465.416L195.625 541.666C203.125 546.875 213.542 545 218.75 537.5L235.417 513.541C240.625 506.041 238.75 495.625 231.25 490.416L193.75 464.166L384.583 191.041C391.25 181.666 388.958 168.75 379.583 162.083ZM802.5 155.208C768.333 131.458 725.833 138.958 702.083 172.916C678.125 206.875 686.042 249.583 720.208 273.333C754.375 297.083 796.458 289.583 820.208 255.416C843.958 221.25 836.458 179.166 802.5 155.208ZM366.667 793.541C366.667 883.125 293.75 956.041 204.167 956.041C114.583 956.041 41.6667 883.125 41.6667 793.541C41.6667 703.958 114.583 631.041 204.167 631.041C293.75 631.041 366.667 703.958 366.667 793.541ZM325 793.541C325 726.875 270.833 672.708 204.167 672.708C137.5 672.708 83.3334 726.875 83.3334 793.541C83.3334 860.208 137.5 914.375 204.167 914.375C270.833 914.375 325 860.208 325 793.541ZM958.333 793.541C958.333 883.125 885.417 956.041 795.833 956.041C706.25 956.041 633.333 883.125 633.333 793.541C633.333 703.958 706.25 631.041 795.833 631.041C885.417 631.041 958.333 703.958 958.333 793.541ZM916.667 793.541C916.667 726.875 862.5 672.708 795.833 672.708C729.167 672.708 675 726.875 675 793.541C675 860.208 729.167 914.375 795.833 914.375C862.5 914.375 916.667 860.208 916.667 793.541ZM629.583 617.291L567.708 551.666C551.875 535 525.625 534.166 508.75 549.791C492.083 565.625 491.25 591.875 506.875 608.75L545.208 649.583L485.417 732.916L391.042 544.166C380.833 523.541 355.833 515.208 335.208 525.416C314.583 535.625 306.25 560.625 316.458 581.25L441.458 831.25V831.458L483.125 914.791C490.417 929.375 505.208 937.916 520.417 937.916C526.667 937.916 533.125 936.458 538.958 933.541C559.583 923.333 567.917 898.333 557.708 877.708L527.5 817.083L632.708 670.208C644.792 653.958 643.333 631.875 629.583 617.291Z" fill="black"/>
</svg>
