<svg width="1000" height="1000" viewBox="0 0 1000 1000" fill="none" xmlns="http://www.w3.org/2000/svg">
<path d="M721.042 721.042C703.958 738.125 685.208 753.125 665.208 765.625L527.5 605L531.667 600L584.792 537.917C586.458 535.833 588.125 533.75 589.583 531.458L737.083 703.542C731.875 709.583 726.667 715.417 721.042 721.042ZM584.792 462.083C586.458 464.167 588.125 466.25 589.583 468.542L737.083 296.458C731.875 290.417 726.667 284.792 721.042 279.167C703.958 262.083 685.208 247.083 665.208 234.583L527.5 395.208L531.667 400.208L584.792 462.083ZM262.917 703.75C268.125 709.792 273.333 715.417 278.958 721.042C296.042 738.125 314.792 753.125 334.792 765.625L500 572.917L553.125 510.833C558.542 504.583 558.542 495.417 553.125 489.167L500 427.083L335 234.583C315 247.083 296.25 261.875 279.167 279.167C273.542 284.792 268.125 290.625 263.125 296.458L428.333 489.167C433.75 495.417 433.75 504.583 428.333 510.833L262.917 703.75ZM500 145.833C405.417 145.833 316.458 182.708 249.583 249.583C182.708 316.458 145.833 405.417 145.833 500C145.833 594.583 182.708 683.542 249.583 750.417C316.458 817.292 405.417 854.167 500 854.167C594.583 854.167 683.542 817.292 750.417 750.417C817.292 683.542 854.167 594.583 854.167 500C854.167 405.417 817.292 316.458 750.417 249.583C683.542 182.708 594.583 145.833 500 145.833ZM500 83.3334C730.208 83.3334 916.667 269.792 916.667 500C916.667 730.208 730.208 916.667 500 916.667C269.792 916.667 83.3333 730.208 83.3333 500C83.3333 269.792 269.792 83.3334 500 83.3334Z" fill="black"/>
</svg>
