<svg width="1000" height="1000" viewBox="0 0 1000 1000" fill="none" xmlns="http://www.w3.org/2000/svg">
<path d="M467.7 654.584L262.908 511.251C244.158 498.126 218.117 502.709 204.783 521.459C191.658 540.209 196.242 566.251 214.992 579.584L385.617 699.168L265.825 870.418C252.7 889.376 257.283 915.21 276.033 928.543C283.325 933.543 291.658 936.043 299.783 936.043C312.908 936.043 325.825 929.793 333.95 918.335L477.492 712.918C491.242 693.751 486.658 667.918 467.7 654.584Z" fill="black"/>
<path d="M259.579 661.461C240.83 648.336 214.788 652.919 201.455 671.669L48.1213 891.044C34.9963 909.794 39.5797 935.836 58.3296 949.169C65.6213 954.169 73.9546 956.669 82.288 956.669C95.4129 956.669 108.33 950.419 116.455 938.961L269.788 719.586C282.913 700.628 278.329 674.586 259.579 661.461Z" fill="black"/>
<path d="M536.456 193.96C575.832 221.46 624.582 212.71 652.082 173.335C679.582 133.96 671.04 84.7935 631.665 57.2935C592.29 29.7935 543.123 38.3352 515.623 77.7101C488.123 117.085 497.081 166.46 536.456 193.96Z" fill="black"/>
<path d="M962.704 447.919L749.162 447.502C745.62 425.627 730.62 407.502 710.412 399.585C699.37 395.21 687.495 403.335 687.495 415.002V418.544H635.62L602.495 302.919C599.787 293.752 594.162 285.627 586.245 280.21L580.62 276.252C580.412 276.044 580.412 276.044 580.204 275.835L477.912 204.169C477.287 203.752 476.662 203.335 476.037 203.127L443.745 180.627C436.662 175.835 428.329 173.127 419.995 173.127H312.704V61.8769C312.704 38.9602 293.954 20.2102 271.037 20.2102C248.12 20.2102 229.37 38.9602 229.37 61.8769V214.377C229.37 237.294 247.912 256.044 271.037 256.044H390.62L276.454 418.96C270.204 427.919 267.704 439.169 269.579 450.002C271.454 460.835 277.704 470.627 286.662 476.877L389.162 548.752C396.245 553.752 404.579 556.252 413.12 556.252C415.62 556.252 417.912 556.044 420.412 555.627C431.245 553.752 441.037 547.502 447.287 538.544L543.954 400.419L564.37 471.669C569.579 489.585 585.829 501.877 604.37 501.877H687.704C687.704 512.502 698.12 520.002 708.329 516.46C729.37 509.169 745.204 490.835 749.162 468.335L962.704 468.752C968.537 468.752 973.121 464.169 973.121 458.335C973.121 452.71 968.537 447.919 962.704 447.919Z" fill="black"/>
</svg>
