<svg width="1000" height="1000" viewBox="0 0 1000 1000" fill="none" xmlns="http://www.w3.org/2000/svg">
<path d="M83.337 812.5H479.17H500.004H520.837H916.67C928.129 812.5 937.504 803.125 937.504 791.667V707.917V618.542V615.625V609.792V604.375C937.504 599.375 936.67 594.375 935.004 589.583C922.712 554.375 887.504 529.167 848.129 529.167C660.42 529.167 504.17 395.625 468.754 218.333C468.754 218.125 468.754 218.125 468.754 217.917C465.004 200 448.754 187.5 430.629 187.5H229.17H208.337H207.92C185.212 187.5 166.67 206.042 166.67 228.75V229.167V250V512.708C166.67 518.125 169.379 523.333 173.754 526.458C184.17 533.75 195.212 541.25 206.67 548.542C271.879 590.417 363.962 639.167 478.962 673.333V716.875V770.833H83.962C72.9203 770.833 63.1286 779.167 62.5036 790.208C61.6703 802.5 71.462 812.5 83.337 812.5ZM520.837 727.917V684.792C554.17 693.125 589.17 700.208 625.837 705.625C636.462 707.083 647.295 707.917 657.92 707.917H748.754H848.337H876.254H879.17C888.337 707.917 895.837 715.417 895.837 724.583V754.167C895.837 763.333 888.337 770.833 879.17 770.833H520.837V727.917ZM396.879 690C406.462 693.542 403.962 707.917 393.754 707.917H204.587C203.754 707.917 202.92 707.917 202.087 707.917C182.087 706.667 166.67 689.375 166.67 669.375V589.375C166.67 581.875 174.795 577.5 181.045 581.458C182.087 582.083 183.129 582.917 184.17 583.542C250.837 626.458 322.295 662.292 396.254 689.792C396.462 690 396.67 690 396.879 690Z" fill="black"/>
</svg>
