<svg width="1000" height="1000" viewBox="0 0 1000 1000" fill="none" xmlns="http://www.w3.org/2000/svg">
<path d="M357.292 56.2493C384.792 16.8743 433.958 8.12433 473.333 35.8327C512.708 63.3327 521.458 112.499 493.75 151.874C466.042 191.249 417.5 200.208 378.125 172.499C338.75 144.791 329.583 95.6243 357.292 56.2493ZM757.5 231.249L645.833 268.541L533.958 231.249C533.75 231.249 533.542 231.249 533.542 231.041C532.917 230.833 532.083 230.624 531.458 230.416C530.833 230.208 530.208 229.999 529.583 229.999C528.958 229.791 528.333 229.791 527.708 229.583C526.875 229.374 526.25 229.374 525.417 229.166C525 229.166 524.375 229.166 523.958 228.958C523.125 228.958 522.292 228.749 521.458 228.749H521.25H400.417L229.583 194.583V87.7077L236.042 86.666C258.75 82.916 274.167 61.666 270.625 38.9577C266.875 16.2493 245.625 0.832663 222.917 4.37433L180.833 11.2493C160.625 14.3743 145.833 31.8743 145.833 52.291V229.166C145.833 248.958 159.792 266.041 179.375 269.999L354.167 304.999V478.749C354.167 489.791 358.542 500.416 366.458 508.124C374.375 516.041 384.792 520.416 395.833 520.416H520.833C531.875 520.416 542.5 516.041 550.208 508.124C558.125 500.208 562.5 489.791 562.5 478.749V328.541L632.708 351.874C637.083 353.333 641.458 353.958 645.833 353.958C650.208 353.958 654.792 353.333 658.958 351.874L783.958 310.208C805.833 302.916 817.5 279.374 810.208 257.499C802.917 235.833 779.375 223.958 757.5 231.249ZM603.958 562.499H396.042C373.125 562.499 354.375 581.249 354.375 604.166C354.375 627.083 373.125 645.833 396.042 645.833H542.5L482.292 796.249C473.75 817.708 484.167 841.874 505.417 850.416C510.417 852.499 515.833 853.333 520.833 853.333C537.292 853.333 552.917 843.333 559.583 827.083L642.708 619.583C647.917 606.666 646.25 592.291 638.542 580.833C630.833 569.374 617.917 562.499 603.958 562.499ZM395.833 674.374C372.917 674.374 354.167 693.124 354.167 716.041V794.583L279.792 888.958C265.625 907.083 268.75 933.333 286.667 947.499C294.375 953.541 303.333 956.458 312.5 956.458C324.792 956.458 337.083 951.041 345.208 940.624L428.542 834.791C434.375 827.499 437.5 818.333 437.5 808.958V716.041C437.5 693.124 418.75 674.374 395.833 674.374ZM791.875 20.2077C757.292 20.2077 729.375 48.1243 729.375 82.7077C729.375 117.291 757.292 145.208 791.875 145.208C826.458 145.208 854.375 117.291 854.375 82.7077C854.375 48.1243 826.25 20.2077 791.875 20.2077Z" fill="black"/>
</svg>
