<svg width="1000" height="1000" viewBox="0 0 1000 1000" fill="none" xmlns="http://www.w3.org/2000/svg">
<path d="M569.997 727.084L426.664 931.876C418.539 943.542 405.622 949.584 392.497 949.584C384.164 949.584 375.831 947.084 368.747 942.084C349.789 928.959 345.206 902.917 358.539 883.959L477.914 713.334L307.081 593.751C288.331 580.626 283.747 554.584 296.872 535.626C309.997 516.876 336.039 512.292 354.997 525.417L559.789 668.751C578.539 682.084 583.122 708.126 569.997 727.084ZM351.456 675.834C332.706 662.709 306.664 667.292 293.331 686.042L149.997 890.834C136.872 909.584 141.456 935.626 160.206 948.959C167.497 953.959 175.831 956.459 184.164 956.459C197.289 956.459 210.206 950.209 218.331 938.751L361.664 733.959C374.997 715.001 370.414 688.959 351.456 675.834ZM723.539 71.6674C684.164 44.1674 634.997 52.7091 607.497 92.0841C579.997 131.459 588.956 180.834 628.331 208.334C667.706 235.834 716.456 227.084 743.956 187.709C771.456 148.334 763.122 99.1674 723.539 71.6674ZM870.414 225.209C851.664 212.084 825.622 216.667 812.289 235.417L740.622 337.709L673.122 290.417C672.914 290.209 672.706 290.001 672.289 289.792L569.997 218.126C569.789 217.917 569.581 217.709 569.164 217.709L467.497 146.459C458.539 140.209 447.289 137.709 436.456 139.584C425.622 141.459 415.831 147.709 409.581 156.667L276.872 346.251C263.747 365.001 268.331 391.042 287.081 404.376C305.831 417.501 331.872 412.917 345.206 394.167L360.206 372.709C367.706 391.667 380.622 408.334 398.539 420.417C432.706 443.334 476.039 443.334 511.664 423.751C512.914 423.126 513.747 421.876 513.956 420.417C518.747 380.209 502.497 339.792 468.331 316.876C451.039 305.209 431.456 299.584 411.664 299.376L453.956 239.167L488.122 263.126L473.539 283.959C477.706 286.251 481.872 288.542 485.831 291.251C528.539 320.001 551.247 371.042 544.997 424.376C543.747 435.834 536.872 446.042 526.664 451.459C504.997 463.334 480.831 469.584 456.664 469.584C429.372 469.584 403.331 461.667 381.039 446.667C375.831 443.126 370.831 439.167 366.247 435.001C363.539 433.751 361.039 432.709 358.122 431.876C317.914 418.334 276.456 437.501 244.789 457.084C244.372 457.292 244.164 457.292 243.747 457.501C158.331 497.917 95.4141 462.917 92.9141 461.459C85.4141 457.084 76.0391 457.709 69.3724 463.126C62.7058 468.542 59.9974 477.501 62.4974 485.834L79.1641 538.126C80.6224 542.917 83.7474 546.876 88.1224 549.584C100.831 557.501 115.831 561.459 131.872 561.459C135.831 561.459 139.789 561.251 143.747 560.834C146.039 560.626 148.331 560.209 150.622 559.792C179.997 554.167 204.789 536.042 226.664 520.001C232.497 515.834 237.914 511.667 243.331 507.917C269.372 490.209 312.706 460.626 344.997 471.251C355.414 474.792 365.206 481.459 375.414 488.751C376.456 489.792 377.706 490.626 378.747 491.459L481.247 563.126C488.331 568.126 496.664 570.626 505.206 570.626C507.706 570.626 509.997 570.417 512.497 570.001C523.331 568.126 533.122 561.876 539.372 552.917L658.747 382.292L727.081 430.209C734.372 435.209 742.706 437.709 751.039 437.709C764.164 437.709 777.081 431.459 785.206 420.001L880.831 283.542C893.747 264.376 889.164 238.542 870.414 225.209Z" fill="black"/>
</svg>
