<svg width="1000" height="1000" viewBox="0 0 1000 1000" fill="none" xmlns="http://www.w3.org/2000/svg">
<path d="M910.834 128.75C901.459 122.083 888.334 124.583 881.876 133.958L531.876 635.833C531.876 636.041 531.668 636.041 531.668 636.25C531.459 636.458 531.251 636.875 531.043 637.083C522.918 643.75 478.959 653.75 409.168 647.916C364.793 644.166 280.001 631.458 208.334 587.083C168.751 562.708 138.126 568.541 119.584 577.916C89.1676 593.125 66.8759 629.791 62.9176 671.666C58.3343 718.958 85.2093 767.5 134.793 801.458C147.918 810.416 194.168 831.666 252.084 848.75C292.293 860.625 347.293 873.125 400.834 873.125C415.209 873.125 429.584 872.291 443.543 870.208C485.209 864.166 515.001 839.375 529.584 798.541C529.793 797.916 530.001 797.5 530.001 796.875C530.626 794.583 562.293 678.541 568.126 656.666L916.043 157.708C922.501 148.333 920.209 135.416 910.834 128.75ZM517.084 685.625L509.376 714.166C507.709 720 506.251 725.625 505.001 730.625C496.251 734.791 471.668 739.583 433.959 739.375L446.043 691.666C473.543 691.666 497.918 689.583 517.084 685.625ZM367.709 830C345.626 827.916 323.126 823.958 301.876 818.958L315.001 767.291C337.918 772.083 360.209 775.625 381.043 777.708L367.709 830ZM357.501 732.708C348.126 731.25 337.293 729.375 325.418 726.875L337.501 679.791C360.001 684.375 382.501 687.5 403.751 689.375L391.668 736.875C380.834 735.833 369.376 734.583 357.501 732.708ZM296.876 670L285.001 717.083C265.626 711.666 244.584 704.791 222.918 696.041L235.209 648.125C255.001 656.666 275.834 663.958 296.876 670ZM138.126 615.416C142.918 612.916 148.334 611.666 153.959 611.666C163.751 611.666 174.584 615.416 186.459 622.708C189.793 624.791 193.334 626.875 196.668 628.75L183.959 678.541C161.251 667.291 138.334 653.75 116.043 637.708C122.293 627.708 129.793 619.583 138.126 615.416ZM104.168 680.208C126.668 695.416 150.001 708.541 173.543 719.791L161.043 768.75C160.001 768.125 158.959 767.5 158.334 767.083C131.043 748.333 103.334 716.041 104.168 680.208ZM199.793 786.458L212.501 736.666C233.334 744.791 254.168 751.666 274.584 757.291L261.668 808.125C238.126 801.25 216.876 793.541 199.793 786.458ZM490.418 784.375C481.043 810.416 463.751 825 437.501 828.958C428.751 830.208 419.584 831.041 410.418 831.25L423.334 780.625C428.334 780.833 433.126 780.833 437.918 780.833C456.459 780.833 472.918 779.791 486.459 777.708C488.543 777.5 490.418 777.083 492.501 776.666C491.668 780.208 491.043 782.5 490.418 784.375ZM791.668 875C745.626 875 708.334 837.708 708.334 791.666C708.334 745.625 745.626 708.333 791.668 708.333C837.709 708.333 875.001 745.625 875.001 791.666C875.001 837.708 837.709 875 791.668 875Z" fill="black"/>
</svg>
