<svg width="1000" height="1000" viewBox="0 0 1000 1000" fill="none" xmlns="http://www.w3.org/2000/svg">
<path fill-rule="evenodd" clip-rule="evenodd" d="M942.709 400.209L939.376 550.418C938.959 573.126 920.209 591.043 897.709 591.043C897.293 591.043 897.084 591.043 896.668 591.043C873.751 590.418 855.418 571.459 856.043 548.334L858.959 420.418L808.959 385.418L689.376 556.251C683.126 565.209 673.334 571.459 662.501 573.334C660.001 573.751 657.709 573.959 655.209 573.959C646.668 573.959 638.334 571.459 631.251 566.459L528.751 494.584C519.793 488.334 513.543 478.543 511.668 467.709C509.793 456.876 512.293 445.626 518.543 436.668L608.751 307.918L517.709 356.876C497.501 367.709 472.084 360.209 461.251 340.001C450.418 319.793 457.918 294.376 478.126 283.543L642.084 195.209C656.043 187.709 672.918 188.751 685.626 197.709L925.001 365.209C936.459 373.126 943.126 386.459 942.709 400.209ZM607.501 600.626L436.876 481.251C422.918 471.459 404.376 471.251 390.209 480.418L202.501 603.334C183.334 615.834 177.918 641.668 190.418 661.043C198.334 673.334 211.668 680.001 225.418 680.001C233.334 680.001 241.251 677.709 248.126 673.126L412.293 565.626L559.793 668.959C578.543 682.084 604.584 677.501 617.918 658.751C631.043 639.793 626.459 613.959 607.501 600.626ZM501.876 678.959C483.126 665.834 457.084 670.418 443.751 689.168L302.501 890.834C289.376 909.584 293.959 935.626 312.709 948.959C320.001 953.959 328.334 956.459 336.668 956.459C349.793 956.459 362.709 950.209 370.834 938.751L512.084 737.084C525.209 718.126 520.626 692.084 501.876 678.959ZM778.543 211.251C817.918 238.751 866.668 230.001 894.168 190.626C921.668 151.251 913.126 102.084 873.751 74.5843C834.376 47.0843 785.209 55.6259 757.709 95.0009C730.001 134.376 739.168 183.751 778.543 211.251ZM141.668 440.834C107.084 440.834 79.1677 468.751 79.1677 503.334C79.1677 537.918 107.084 565.834 141.668 565.834C176.251 565.834 204.168 537.918 204.168 503.334C204.168 468.751 176.043 440.834 141.668 440.834Z" fill="black"/>
</svg>
