<svg width="1000" height="1000" viewBox="0 0 1000 1000" fill="none" xmlns="http://www.w3.org/2000/svg">
<path d="M281.666 320.626C266.666 303.126 268.541 276.876 286.041 261.876L416.457 149.167C430.832 136.667 451.874 135.626 467.499 146.667L578.332 224.376L672.291 290.209L766.249 356.042L848.332 366.667C871.249 369.584 887.291 390.417 884.374 413.334C881.666 434.376 863.749 449.584 843.124 449.584C841.249 449.584 839.582 449.376 837.707 449.167L745.624 437.292C738.957 436.459 732.499 433.959 727.082 430.001L658.749 382.292L539.166 552.917C532.916 561.876 523.124 568.126 512.291 570.001C509.791 570.417 507.499 570.626 504.999 570.626C496.457 570.626 488.124 568.126 481.041 563.126L378.541 491.459C369.582 485.209 363.332 475.417 361.457 464.584C359.582 453.751 362.082 442.501 368.332 433.542L487.916 262.917L446.249 233.751L340.416 325.001C323.124 340.001 296.666 338.126 281.666 320.626ZM628.541 208.334C667.916 235.834 716.666 227.084 744.166 187.709C771.666 148.334 763.124 99.1674 723.749 71.6674C684.374 44.1674 635.207 52.7091 607.707 92.0841C580.207 131.459 589.166 180.834 628.541 208.334ZM893.541 681.042C893.541 646.459 865.624 618.542 831.041 618.542C796.457 618.542 768.541 646.459 768.541 681.042C768.541 715.626 796.457 743.542 831.041 743.542C865.624 743.542 893.541 715.417 893.541 681.042ZM281.249 795.209C285.833 793.751 296.457 787.084 303.541 782.501C314.374 775.626 327.499 767.501 342.499 761.042L361.666 733.751C374.791 715.001 370.207 688.959 351.457 675.626C332.707 662.501 306.666 667.084 293.333 685.834L227.291 780.001C235.416 782.084 243.124 784.584 250.416 787.084C260.833 790.626 274.791 795.001 281.249 795.209ZM499.999 824.792C486.666 824.792 471.041 817.501 454.791 809.792C434.374 800.209 413.124 790.209 390.207 791.459C365.624 792.709 344.582 806.042 325.832 817.709C311.666 826.667 298.124 835.001 286.458 836.459C272.708 838.126 254.999 832.292 238.124 826.876C216.458 819.792 193.958 812.709 171.874 816.667C132.916 823.959 103.541 850.001 77.7075 873.126C74.9992 875.417 72.4992 877.917 69.7909 880.209C61.2492 887.917 60.4159 901.042 67.9159 909.584C72.0825 914.167 77.7075 916.667 83.5409 916.667C88.3325 916.667 93.3325 915.001 97.2909 911.459C99.9992 909.167 102.708 906.667 105.416 904.167C128.124 883.751 151.874 862.709 179.374 857.709C191.249 855.626 207.708 860.834 225.416 866.459C246.666 873.334 268.541 880.417 291.249 877.709C312.291 875.209 330.624 863.959 348.124 852.917C363.957 843.126 378.749 833.751 392.499 832.917C404.999 832.292 420.624 839.584 437.082 847.292C456.874 856.667 477.499 866.251 499.999 866.251C522.499 866.251 543.124 856.667 562.916 847.292C570.207 843.959 577.082 840.626 583.749 838.126L543.957 810.417C528.124 817.917 512.916 824.792 499.999 824.792ZM930.416 880.209C928.332 878.334 926.249 876.459 923.957 874.584C900.207 853.334 867.707 824.167 828.332 816.876C821.874 815.626 815.416 815.417 808.957 815.834C809.582 818.334 810.207 820.834 810.624 823.334C812.707 834.792 812.291 846.459 809.582 857.501C813.541 857.084 817.291 857.084 820.832 857.709C848.541 862.917 876.041 887.501 896.249 905.417C898.541 907.501 900.832 909.376 902.916 911.251C911.457 918.959 924.791 918.126 932.291 909.376C939.999 901.042 939.166 887.917 930.416 880.209ZM752.499 803.751L559.582 668.959L354.791 525.626C336.041 512.501 309.999 517.084 296.666 535.834C283.541 554.584 288.124 580.626 306.874 593.959L511.666 737.292L704.582 872.084C711.874 877.084 720.207 879.584 728.332 879.584C741.457 879.584 754.374 873.334 762.499 861.876C776.041 842.917 771.457 817.084 752.499 803.751Z" fill="black"/>
</svg>
