<svg width="1000" height="1000" viewBox="0 0 1000 1000" fill="none" xmlns="http://www.w3.org/2000/svg">
<path fill-rule="evenodd" clip-rule="evenodd" d="M439.58 400C442.496 403.333 445.205 406.875 447.913 410.416C380.413 470.625 329.58 494.583 304.163 478.333C300.83 476.041 297.705 473.541 294.996 470.625C303.121 435.416 316.871 401.041 336.663 369.166C345.205 355.416 354.58 342.916 364.58 330.833L364.788 331.041L364.996 331.25L365.413 331.458C365.621 331.666 365.83 331.875 366.246 332.083C392.288 349.791 415.413 371.25 435.621 395.416C436.871 396.875 438.121 398.333 439.58 400ZM189.163 290.416C218.746 299.583 238.746 330.416 250.205 354.583C255.83 366.458 259.996 379.791 263.538 392.916C271.038 375 279.996 357.708 290.413 340.833C298.538 327.708 307.288 315.416 316.663 303.75C310.413 300.833 304.163 298.541 297.913 296.25C296.871 295.833 295.621 295.416 294.58 295C293.33 294.583 291.871 293.958 290.621 293.541C288.121 292.5 285.413 291.458 282.705 290.625C274.788 287.916 266.663 285.833 258.538 283.958C254.788 283.125 251.246 282.083 247.496 281.25C240.413 279.791 233.121 278.541 226.038 277.5C236.455 260.208 248.538 244.166 261.871 229.166C263.538 229.583 265.205 230 266.663 230.416C268.121 230.833 269.371 231.041 270.83 231.458C272.496 231.875 273.955 232.291 275.621 232.5C278.538 233.125 281.663 233.75 284.58 234.791C285.621 235.208 286.871 235.416 287.913 235.833C288.955 236.041 289.996 236.458 291.038 236.875C291.871 237.291 292.913 237.5 293.746 237.916C300.205 240 306.663 242.291 313.121 244.583C314.163 245 315.205 245.416 316.455 245.625C317.705 246.041 318.955 246.458 320.205 246.875C320.413 247.083 320.83 247.083 321.038 247.291C321.246 247.5 321.663 247.5 321.871 247.708C323.121 248.333 324.58 248.958 325.83 249.583C326.871 250 327.913 250.625 328.955 251.041C336.871 254.375 344.58 257.708 352.288 261.666C352.705 261.875 353.121 262.083 353.33 262.083C353.746 262.291 354.371 262.5 354.788 262.708C363.33 267.083 371.871 271.666 380.205 276.666C380.413 276.875 380.621 276.875 380.83 277.083C381.246 277.291 381.455 277.5 381.871 277.708C414.58 297.916 443.33 323.125 468.746 351.666C468.955 351.875 469.163 352.291 469.58 352.5C469.788 352.708 469.996 352.916 470.205 353.333C471.038 354.375 472.08 355.416 472.913 356.666C473.121 357.083 473.538 357.5 473.746 357.708C478.33 363.125 482.705 368.541 487.08 373.958C523.955 337.083 559.996 296.458 589.788 261.666C526.871 197.083 440.205 160.208 348.538 160.416C383.538 141.458 422.496 128.958 463.746 124.166C524.163 142.5 579.58 175.208 624.788 219.583C628.538 215 632.08 210.625 635.413 206.666C646.455 193.125 655.205 182.5 661.038 176.25C679.371 155.625 698.121 141.041 716.038 132.708C657.913 92.2914 587.705 67.7081 511.455 65.6247C353.538 61.0414 215.621 154.166 155.413 290C166.663 286.875 178.121 286.875 189.163 290.416ZM891.455 459.166C886.663 452.708 881.455 449.375 875.205 448.333C854.788 445.416 824.163 468.125 803.955 483.125C797.913 487.708 792.08 491.875 787.08 495.416C769.163 507.291 751.038 519.791 733.538 531.875C712.288 546.458 690.413 561.666 668.33 576.041C661.246 580.625 651.246 579.166 646.455 572.291C641.455 565 643.33 555 650.621 550.208C688.33 525.625 722.08 492.083 754.788 459.791L758.538 456.041C798.121 417.083 842.913 372.708 858.538 322.5C863.955 305.208 859.163 283.75 841.871 278.125C812.705 268.541 789.58 292.291 759.996 327.083C754.163 333.958 748.746 340.416 743.121 346.25C672.496 420.416 599.371 475.416 596.246 477.708C589.163 482.916 578.955 481.458 573.955 473.958C569.788 467.916 570.83 459.583 575.83 454.375C623.955 402.291 698.121 317.5 717.913 294.166L721.871 289.583C741.038 267.083 786.038 214.166 781.246 181.458C779.996 173.125 775.413 166.666 767.08 161.25C737.08 142.083 696.038 184.166 684.371 197.5C679.163 203.333 670.413 213.958 659.58 227.083C622.288 272.083 553.121 355.833 484.163 420.208C393.955 504.375 329.58 532.083 287.288 505C255.413 484.583 245.413 446.666 236.663 413.333C232.288 396.875 228.33 381.458 222.08 368.541C209.58 342.291 194.58 325.208 179.996 320.833C171.455 318.125 162.705 319.791 152.913 325.416C132.496 337.291 135.205 377.916 137.288 407.5C137.913 416.458 138.538 424.791 138.538 432.083C138.538 451.041 137.913 471.875 137.08 493.75C134.371 575.833 130.83 678.125 169.788 711.041C175.83 716.25 177.08 725 172.705 731.666L128.955 797.916C124.163 805.208 125.83 815 132.705 820.416L192.913 866.666C205.621 829.375 233.746 798.333 269.996 782.291C275.205 780 281.038 780.625 285.621 783.958L421.871 884.166C464.371 898.333 545.205 875.833 644.163 822.083C710.621 786.041 800.621 725 823.538 694.791C824.163 694.166 824.58 693.541 825.205 692.916C825.413 692.708 853.746 665.625 840.83 645C823.746 617.708 782.496 635 717.288 674.166C703.33 682.5 691.038 689.791 681.455 694.166C674.371 697.291 666.038 695.208 661.663 688.958C656.663 681.458 658.955 671.458 666.455 666.875C723.746 631.666 782.913 595.208 833.746 550.208C837.08 547.291 840.83 544.166 844.788 540.833C879.58 510.833 908.955 482.708 891.455 459.166ZM219.788 885.208L219.58 886.25L314.371 958.958C321.246 964.166 330.83 963.333 336.663 957.291L391.246 899.583L274.996 813.958C247.496 828.75 227.288 854.791 219.788 885.208Z" fill="black"/>
</svg>
