<svg width="1000" height="1000" viewBox="0 0 1000 1000" fill="none" xmlns="http://www.w3.org/2000/svg">
<path d="M751.459 323.125C629.375 383.542 494.167 422.917 351.459 436.042C341.667 436.875 333.334 429.167 333.334 419.375V152.917C333.334 140.417 346.667 132.292 357.709 138.125C474.375 198.958 603.334 240.208 740 257.708C774.375 261.875 782.709 307.5 751.459 323.125ZM145.833 822.917C145.833 886.25 304.375 937.5 500 937.5C695.625 937.5 854.167 886.25 854.167 822.917C854.167 759.583 695.625 708.333 500 708.333C422.084 708.333 350.209 716.458 291.667 730.208V83.3333C291.667 71.875 282.292 62.5 270.834 62.5C259.375 62.5 250 71.875 250 83.3333V741.667V785.625C250 797.083 240.625 806.458 229.167 806.458H162.5C153.542 806.667 145.833 813.75 145.833 822.917C145.833 822.917 145.833 822.708 145.833 822.917Z" fill="black"/>
</svg>
