<svg width="1000" height="1000" viewBox="0 0 1000 1000" fill="none" xmlns="http://www.w3.org/2000/svg">
<path d="M500 145.833C594.584 145.833 683.542 182.708 750.417 249.583C817.292 316.458 854.167 405.417 854.167 500C854.167 594.583 817.292 683.542 750.417 750.417C683.542 817.292 594.584 854.167 500 854.167C405.417 854.167 316.459 817.292 249.584 750.417C182.709 683.542 145.834 594.583 145.834 500C145.834 405.417 182.709 316.458 249.584 249.583C316.459 182.708 405.417 145.833 500 145.833ZM500 83.3334C269.792 83.3334 83.3335 269.792 83.3335 500C83.3335 730.208 269.792 916.667 500 916.667C730.209 916.667 916.667 730.208 916.667 500C916.667 269.792 730.209 83.3334 500 83.3334ZM431.667 284.375C459.167 245 508.334 236.25 547.709 263.958C587.084 291.458 595.834 340.625 568.125 380C540.625 419.375 491.875 428.333 452.5 400.625C413.125 373.125 404.167 323.75 431.667 284.375ZM788.542 402.5C779.792 381.25 755.417 371.042 734.167 379.792L506.25 473.125C502.292 474.792 497.709 474.792 493.542 473.125L265.625 379.792C244.375 371.042 220 381.25 211.25 402.5C202.5 423.75 212.709 448.125 233.959 456.875L395.417 523.125V794.792C428.542 806.458 463.542 812.5 499.584 812.5C535.625 812.5 570.834 806.458 603.75 794.792V523.125L765.209 456.875C787.084 448.125 797.292 423.958 788.542 402.5Z" fill="black"/>
</svg>
