<svg width="1000" height="1000" viewBox="0 0 1000 1000" fill="none" xmlns="http://www.w3.org/2000/svg">
<path d="M473.043 956.502C465.998 956.494 459.071 954.7 452.908 951.288C446.745 947.875 441.548 942.956 437.802 936.99C434.057 931.024 431.885 924.206 431.49 917.173C431.094 910.139 432.489 903.121 435.543 896.773L505.897 750.398L521.313 639.523C521.963 634.017 523.706 628.695 526.438 623.871C529.171 619.047 532.839 614.816 537.227 611.428C541.616 608.039 546.636 605.56 551.995 604.137C557.353 602.713 562.942 602.373 568.434 603.137C573.925 603.901 579.209 605.754 583.976 608.586C588.742 611.418 592.896 615.173 596.193 619.63C599.49 624.088 601.864 629.159 603.176 634.546C604.488 639.933 604.712 645.527 603.834 651.002L587.501 768.314C586.902 772.593 585.644 776.754 583.772 780.648L510.626 932.877C507.225 939.957 501.892 945.931 495.242 950.111C488.593 954.291 480.897 956.507 473.043 956.502V956.502ZM868.355 375.252L697.709 255.71C694.069 253.166 690.046 251.218 685.793 249.939L570.688 215.377L558.772 211.481C556.905 210.883 554.997 210.424 553.063 210.106L447.147 178.314L416.668 126.273C409.323 138.762 399.176 149.373 387.028 157.27C374.88 165.166 361.063 170.131 346.668 171.773L383.584 234.627C388.922 243.673 397.479 250.37 407.543 253.377L492.793 278.981L428.209 475.564C426.503 480.765 425.839 486.251 426.254 491.709C426.669 497.167 428.155 502.489 430.628 507.372C433.1 512.255 436.511 516.603 440.664 520.168C444.818 523.733 449.633 526.444 454.834 528.148L573.584 567.085C577.774 568.457 582.154 569.16 586.563 569.169C595.342 569.166 603.896 566.392 611.004 561.24C618.113 556.088 623.412 548.823 626.147 540.481L688.251 350.898L820.438 443.439C829.495 449.537 840.584 451.836 851.318 449.842C862.053 447.847 871.576 441.719 877.839 432.776C884.101 423.832 886.603 412.788 884.806 402.018C883.009 391.249 877.057 381.615 868.23 375.189L868.355 375.252ZM724.168 80.4603C718.535 64.968 708.435 51.4942 695.144 41.743C681.853 31.9919 665.969 26.4016 649.501 25.6792C633.033 24.9569 616.72 29.1349 602.626 37.6849C588.533 46.2349 577.291 58.7726 570.324 73.7122C563.358 88.6518 560.978 105.322 563.486 121.614C565.995 137.907 573.279 153.089 584.418 165.241C595.556 177.392 610.048 185.968 626.061 189.882C642.074 193.797 658.888 192.874 674.376 187.231C695.133 179.669 712.037 164.174 721.374 144.153C730.711 124.131 731.715 101.222 724.168 80.4603V80.4603ZM220.251 788.648L331.772 629.398L433.855 645.502C444.773 647.22 455.927 644.531 464.862 638.026C473.797 631.521 479.783 621.732 481.501 610.814C483.219 599.896 480.53 588.743 474.025 579.807C467.52 570.872 457.731 564.887 446.813 563.169L318.959 543.044C311.252 541.827 303.357 542.798 296.175 545.848C288.993 548.898 282.811 553.903 278.334 560.294L152.084 740.856C148.826 745.332 146.493 750.412 145.22 755.8C143.947 761.188 143.761 766.775 144.672 772.236C145.583 777.696 147.574 782.921 150.526 787.603C153.479 792.286 157.336 796.333 161.871 799.509C166.406 802.684 171.528 804.924 176.938 806.098C182.348 807.272 187.938 807.355 193.381 806.344C198.824 805.333 204.011 803.247 208.639 800.209C213.267 797.17 217.243 793.24 220.334 788.648H220.251ZM394.626 57.3978C390.402 45.7792 382.827 35.6743 372.859 28.3612C362.892 21.0482 350.979 16.8554 338.628 16.3133C326.278 15.7712 314.043 18.9041 303.473 25.3157C292.903 31.7273 284.472 41.1296 279.246 52.3333C274.02 63.5371 272.234 76.0391 274.115 88.2579C275.995 100.477 281.456 111.864 289.808 120.978C298.16 130.093 309.028 136.526 321.037 139.463C333.045 142.401 345.655 141.711 357.272 137.481C364.994 134.674 372.087 130.373 378.144 124.822C384.202 119.271 389.106 112.58 392.576 105.133C396.045 97.6848 398.012 89.626 398.364 81.4173C398.716 73.2085 397.445 65.011 394.626 57.2936V57.3978Z" fill="black"/>
</svg>
