<svg width="1000" height="1000" viewBox="0 0 1000 1000" fill="none" xmlns="http://www.w3.org/2000/svg">
<path d="M811.667 370.833L787.708 456.042C782.5 474.375 765.833 486.458 747.708 486.458C743.958 486.458 740.208 486.042 736.458 485C714.375 478.75 701.458 455.833 707.5 433.542L725.208 370L666.25 302.917L475 424.375C468.125 428.75 460.417 430.833 452.708 430.833C439.375 430.833 426.458 424.375 418.333 412.708L371.25 343.958C364.792 334.583 362.5 323.125 364.792 312.083C367.083 301.042 373.75 291.25 383.333 285.208L500.417 210.833H355.208C353.75 210.833 352.5 210.833 351.042 210.625L409.167 127.5H604.167C616.25 127.5 627.5 132.708 635.417 141.667L802.708 331.875C812.083 342.708 815.417 357.292 811.667 370.833ZM379.583 60.625C370.208 53.9583 357.083 56.25 350.625 65.8333L159.792 338.75L122.292 312.5C114.792 307.292 104.375 309.167 99.1667 316.667L82.5001 340.625C77.2917 348.125 79.1667 358.542 86.6667 363.75L196.042 440C203.542 445.208 213.958 443.333 219.167 435.833L235.833 411.875C241.042 404.375 239.167 393.958 231.667 388.75L194.167 362.5L384.792 89.5833C391.25 80.2083 388.958 67.0833 379.583 60.625ZM802.5 53.75C768.333 30 725.833 37.5 702.083 71.4583C678.125 105.417 686.042 148.125 720.208 171.875C754.375 195.625 796.458 188.125 820.208 153.958C844.167 120 836.667 77.5 802.5 53.75ZM441.875 729.583C441.875 729.583 442.083 729.792 441.875 729.583L483.542 813.125C490.833 827.708 505.625 836.25 520.833 836.25C527.083 836.25 533.542 834.792 539.375 831.875C560 821.667 568.333 796.667 558.125 776.042L527.917 715.417L633.125 568.542C644.792 552.292 643.333 530.208 629.583 515.625L567.917 450C552.083 433.333 525.833 432.5 508.958 448.125C492.292 463.958 491.458 490.208 507.083 507.083L545.417 547.917L485.625 631.25L391.25 442.5C381.042 421.875 356.042 413.542 335.417 423.75C314.792 433.958 306.458 458.958 316.667 479.583L441.875 729.583ZM41.6667 692.083C41.6667 602.5 114.583 529.583 204.167 529.583C293.75 529.583 366.667 602.5 366.667 692.083C366.667 781.667 293.75 854.583 204.167 854.583C114.583 854.583 41.6667 781.667 41.6667 692.083ZM83.3334 692.083C83.3334 758.75 137.5 812.917 204.167 812.917C270.833 812.917 325 758.75 325 692.083C325 625.417 270.833 571.25 204.167 571.25C137.5 571.25 83.3334 625.417 83.3334 692.083ZM633.333 692.083C633.333 602.5 706.25 529.583 795.833 529.583C885.417 529.583 958.333 602.5 958.333 692.083C958.333 781.667 885.417 854.583 795.833 854.583C706.25 854.583 633.333 781.667 633.333 692.083ZM675 692.083C675 758.75 729.167 812.917 795.833 812.917C862.5 812.917 916.667 758.75 916.667 692.083C916.667 625.417 862.5 571.25 795.833 571.25C729.167 571.25 675 625.417 675 692.083ZM916.667 895.833H83.3334C71.8751 895.833 62.5001 905.208 62.5001 916.667C62.5001 928.125 71.8751 937.5 83.3334 937.5H916.667C928.125 937.5 937.5 928.125 937.5 916.667C937.5 905.208 928.125 895.833 916.667 895.833Z" fill="black"/>
</svg>
