<svg width="1000" height="1000" viewBox="0 0 1000 1000" fill="none" xmlns="http://www.w3.org/2000/svg">
<path d="M352.292 873.127C323.542 873.127 294.792 864.794 269.792 847.085C203.958 801.044 188.542 708.96 235.417 641.877C248.75 622.919 275 618.335 293.958 631.877C312.5 645.21 316.042 671.46 303.125 690.419C283.333 719.794 289.583 759.168 317.708 778.752C346.042 798.543 385.625 790.627 406.25 761.252L869.792 133.543C876.667 124.168 889.792 122.085 899.167 128.752C908.75 135.418 911.25 148.335 904.792 158.127L474.375 809.377C445.417 850.835 398.958 873.127 352.292 873.127ZM62.5 500.002C62.5 546.044 99.7917 583.335 145.833 583.335C191.875 583.335 229.167 546.044 229.167 500.002C229.167 453.96 191.875 416.668 145.833 416.668C99.7917 416.668 62.5 453.96 62.5 500.002Z" fill="black"/>
</svg>
