<svg width="1000" height="1000" viewBox="0 0 1000 1000" fill="none" xmlns="http://www.w3.org/2000/svg">
<path fill-rule="evenodd" clip-rule="evenodd" d="M836.045 201.248C808.545 240.623 759.795 249.581 720.42 221.873C681.045 194.373 671.879 144.998 699.587 105.623C727.087 66.2477 776.254 57.4977 815.629 85.206C855.004 112.706 863.754 161.873 836.045 201.248ZM488.129 915.623L597.295 686.873C606.045 668.539 600.212 646.456 583.545 634.789L447.087 539.164C428.337 526.039 402.295 530.623 388.962 549.373C375.837 568.123 380.42 594.164 399.17 607.498L506.879 682.914L412.92 879.789C402.92 900.623 411.879 925.414 432.504 935.414C438.337 938.123 444.379 939.581 450.42 939.581C466.045 939.373 480.837 930.623 488.129 915.623ZM213.962 943.539L381.254 771.248C388.754 763.539 392.92 753.123 392.92 742.289V675.623C392.92 652.706 374.17 633.956 351.254 633.956C328.337 633.956 309.587 652.706 309.587 675.623V725.206L154.17 885.623C138.129 902.081 138.545 928.539 155.004 944.581C163.129 952.498 173.545 956.248 183.962 956.248C195.004 956.248 205.837 952.081 213.962 943.539ZM782.087 337.498C782.087 336.664 782.087 335.831 782.087 334.998C782.087 334.373 781.879 333.748 781.879 333.123C781.879 332.498 781.67 331.664 781.67 331.039V330.831C781.462 329.998 781.254 329.164 781.045 328.331C781.045 327.914 780.837 327.498 780.837 327.081C780.837 327.081 780.837 327.081 780.837 326.873C780.629 325.831 780.212 324.998 779.795 323.956C779.587 323.539 779.587 323.123 779.379 322.914C779.17 322.289 778.754 321.664 778.545 321.039C776.045 315.206 772.295 310.206 767.712 306.248C767.504 306.039 767.504 306.039 767.295 305.831C766.462 304.998 765.42 304.373 764.587 303.748L662.295 232.081C661.879 231.873 661.462 231.664 661.045 231.248C660.42 230.831 659.795 230.414 658.962 229.998C658.337 229.789 657.92 229.373 657.295 229.164C656.67 228.748 656.045 228.539 655.212 228.123C654.587 227.914 653.962 227.706 653.337 227.498C652.712 227.289 652.087 226.873 651.254 226.664C650.629 226.456 650.004 226.248 649.379 226.039C648.754 225.831 648.129 225.623 647.295 225.414C646.67 225.206 646.045 225.206 645.212 224.998C644.587 224.789 643.962 224.789 643.129 224.581C642.504 224.581 641.67 224.373 640.837 224.373C640.212 224.373 639.587 224.164 638.962 224.164C638.129 224.164 637.295 224.164 636.462 224.164C636.045 224.164 635.629 224.164 635.212 224.164L369.17 241.039C349.379 242.289 333.545 257.289 330.629 276.039C365.629 276.456 396.67 294.581 415.212 321.664L554.17 312.914L526.254 352.706L433.337 377.914C433.337 378.748 433.337 379.373 433.337 380.206C433.337 409.998 420.837 436.664 400.837 455.623C408.129 461.248 417.087 464.581 426.462 464.581C430.004 464.581 433.754 464.164 437.504 463.123L454.587 458.539C452.712 464.789 452.295 471.248 453.337 477.706C455.212 488.539 461.462 498.331 470.42 504.581L572.92 576.248C580.004 581.248 588.337 583.748 596.879 583.748C599.379 583.748 601.67 583.539 604.17 583.123C615.004 581.248 624.795 574.998 631.045 566.039L774.379 361.248C774.587 360.831 775.004 360.414 775.212 359.789C775.629 359.164 776.045 358.539 776.462 357.914C776.879 357.289 777.087 356.664 777.295 356.248C777.712 355.623 777.92 354.998 778.129 354.373C778.337 353.748 778.545 353.123 778.754 352.706C778.962 352.081 779.379 351.248 779.587 350.623C779.795 349.998 779.795 349.581 780.004 348.956C780.212 348.123 780.42 347.498 780.629 346.664C780.837 346.248 780.837 345.623 780.837 345.206C781.045 344.373 781.254 343.539 781.254 342.498C781.254 342.081 781.254 341.664 781.462 341.248C781.462 340.414 781.67 339.373 781.67 338.539C782.087 338.539 782.087 337.914 782.087 337.498ZM329.379 317.914C294.795 317.914 266.879 345.831 266.879 380.414C266.879 414.998 294.795 442.914 329.379 442.914C363.962 442.914 391.879 414.998 391.879 380.414C391.879 345.831 363.962 317.914 329.379 317.914Z" fill="black"/>
</svg>
