<svg width="1000" height="1000" viewBox="0 0 1000 1000" fill="none" xmlns="http://www.w3.org/2000/svg">
<path fill-rule="evenodd" clip-rule="evenodd" d="M929.168 432.916L605.626 206.457C588.126 194.166 567.084 187.499 545.834 187.707C543.126 187.707 540.626 186.458 538.959 184.166L482.084 108.332C473.334 99.5825 458.334 105.624 458.334 118.124V169.583C458.334 179.999 450.626 188.749 440.418 190.208L210.418 222.916C199.584 224.374 198.126 239.582 208.543 243.124L289.168 279.166C298.126 283.124 297.084 296.457 287.501 298.749L245.834 308.958C235.418 311.041 234.376 325.416 244.376 328.957L266.043 347.707C270.001 351.249 270.834 357.083 267.709 361.458C245.001 393.958 154.793 522.916 99.5842 601.666C75.8342 635.624 74.1675 680.416 95.8342 715.624C140.626 788.541 291.251 847.916 362.918 872.499C385.626 880.416 410.418 867.291 416.668 844.166C436.459 771.041 472.084 619.583 489.793 544.374C455.834 520.833 422.501 487.708 399.168 440.624C393.959 430.416 398.334 417.916 408.543 412.708C418.751 407.499 431.251 411.874 436.459 422.083C453.334 456.041 476.876 481.666 501.668 501.041C551.043 533.541 660.626 516.666 707.501 507.499C722.501 504.583 737.918 505.833 752.293 511.041C800.209 528.541 859.168 548.124 900.418 516.041C916.668 503.333 954.584 450.624 929.168 432.916Z" fill="black"/>
</svg>
