<svg width="1000" height="1000" viewBox="0 0 1000 1000" fill="none" xmlns="http://www.w3.org/2000/svg">
<path d="M926.67 128.748C917.295 122.081 904.17 124.373 897.711 133.956L466.67 748.748C461.878 755.415 453.128 757.706 445.836 754.165L130.42 601.456C124.795 598.748 118.128 598.748 112.503 601.456C106.878 604.165 102.711 609.165 101.045 615.415L63.1279 724.373C60.6279 734.582 66.2529 745.206 76.0445 748.748L411.253 873.748C413.545 874.582 416.045 874.998 418.545 874.998C425.211 874.998 431.67 871.873 435.628 866.04L931.878 157.706C938.545 148.331 936.253 135.415 926.67 128.748Z" fill="black"/>
<path d="M843.751 812.499H739.584C722.292 812.499 708.334 826.457 708.334 843.749C708.334 861.04 722.292 874.999 739.584 874.999H843.751C861.042 874.999 875.001 861.04 875.001 843.749C875.001 826.457 861.042 812.499 843.751 812.499Z" fill="black"/>
</svg>
