<svg width="1000" height="1000" viewBox="0 0 1000 1000" fill="none" xmlns="http://www.w3.org/2000/svg">
<path d="M935.005 479.376L919.589 416.251C918.13 410.209 913.964 405.001 908.13 402.292C902.505 399.584 895.839 399.584 890.214 402.292L645.422 520.834L329.38 71.8755C322.714 62.5005 309.797 60.2089 300.422 66.8755C291.047 73.5422 288.755 86.4589 295.422 95.8339L643.755 590.834C647.714 596.459 654.172 599.584 660.839 599.584C663.339 599.584 665.63 599.167 668.13 598.334L922.089 503.751C931.88 500.001 937.505 489.584 935.005 479.376ZM678.13 795.625C671.047 793.334 666.255 787.084 666.255 779.792V719.792C666.255 680.626 632.922 653.334 597.714 643.959C552.297 631.876 511.88 623.334 467.505 608.125C423.339 592.917 378.964 572.084 357.297 528.334C340.005 493.334 330.214 391.459 327.089 342.917C327.089 342.709 327.089 342.709 327.089 342.501C327.922 336.042 325.63 329.376 319.38 327.084C294.38 318.334 270.839 336.876 270.839 360.626V364.167C270.839 372.084 264.38 378.542 256.464 378.542H154.589C117.714 378.542 86.8805 406.459 83.1305 443.126L82.9221 714.792C82.7138 755.417 110.005 773.334 141.672 773.334L151.255 773.75C99.3805 777.709 75.2138 815.417 63.3388 843.126C59.1721 852.501 66.2555 863.125 76.4638 863.125H83.3388C83.3388 863.75 83.3388 864.376 83.3388 865.001C83.3388 905.209 116.047 937.917 156.255 937.917C196.464 937.917 229.172 905.209 229.172 865.001C229.172 864.376 229.172 863.75 229.172 863.125H250.005C250.005 863.75 250.005 864.376 250.005 865.001C250.005 905.209 282.714 937.917 322.922 937.917C363.13 937.917 395.839 905.209 395.839 865.001C395.839 864.376 395.839 863.75 395.839 863.125H416.672C416.672 863.75 416.672 864.376 416.672 865.001C416.672 905.209 449.38 937.917 489.589 937.917C529.797 937.917 562.505 905.209 562.505 865.001C562.505 864.376 562.505 863.75 562.505 863.125H564.797H583.547C583.547 863.75 583.547 864.376 583.547 865.001C583.547 906.876 619.172 940.834 661.672 937.709C697.505 935.209 726.672 906.042 729.172 870.001C731.255 835.417 709.172 805.417 678.13 795.625ZM156.047 896.251C138.755 896.251 124.797 882.292 124.797 865.001C124.797 864.376 124.797 863.75 124.797 863.125H187.089C187.089 863.75 187.089 864.376 187.089 865.001C187.297 882.292 173.339 896.251 156.047 896.251ZM322.714 896.251C305.422 896.251 291.464 882.292 291.464 865.001C291.464 864.376 291.464 863.75 291.464 863.125H353.755C353.755 863.75 353.755 864.376 353.755 865.001C353.964 882.292 340.005 896.251 322.714 896.251ZM489.38 896.251C472.089 896.251 458.13 882.292 458.13 865.001C458.13 864.376 458.13 863.75 458.13 863.125H520.422C520.422 863.75 520.422 864.376 520.422 865.001C520.63 882.292 506.672 896.251 489.38 896.251ZM603.964 775.417C603.964 784.584 596.464 792.084 587.297 792.084H224.797C215.63 792.084 208.13 784.584 208.13 775.417V767.084C208.13 757.917 215.63 750.417 224.797 750.417H587.297C596.464 750.417 603.964 757.917 603.964 767.084V775.417ZM656.255 896.251C638.964 896.251 625.005 882.292 625.005 865.001C625.005 864.376 625.005 863.542 625.005 862.917L687.297 862.709C687.297 863.334 687.505 864.167 687.505 864.792C687.505 882.292 673.339 896.251 656.255 896.251Z" fill="black"/>
</svg>
