<svg width="1000" height="1000" viewBox="0 0 1000 1000" fill="none" xmlns="http://www.w3.org/2000/svg">
<path fill-rule="evenodd" clip-rule="evenodd" d="M846.458 259.373L750.833 395.831C744.583 404.789 734.792 411.039 723.958 412.914C721.458 413.331 719.167 413.539 716.667 413.539C708.125 413.539 699.792 411.039 692.708 406.039L624.583 358.331L505 528.956C498.75 537.914 488.958 544.164 478.125 546.039C475.625 546.456 473.333 546.664 470.833 546.664C462.292 546.664 453.958 544.164 446.875 539.164L344.375 467.289C335.417 461.039 329.167 451.248 327.292 440.414C325.417 429.581 327.917 418.331 334.167 409.373L477.708 204.581C490.833 185.831 516.875 181.248 535.625 194.373L569.583 218.123L706.25 313.748L777.917 211.456C791.042 192.706 817.083 188.123 836.042 201.248C855 214.581 859.583 240.623 846.458 259.373ZM549.792 667.081C546.667 661.664 542.5 657.081 537.5 653.539L320.833 501.873C302.083 488.748 276.042 493.331 262.708 512.081C249.583 530.831 254.167 556.873 272.917 570.206L481.875 716.456L605.625 935.414C613.333 948.956 627.5 956.664 641.875 956.664C648.75 956.664 655.833 954.998 662.292 951.248C682.292 939.998 689.375 914.581 678.125 894.373L549.792 667.081ZM317.292 651.873C298.542 638.748 272.5 643.331 259.167 662.081L98.9585 891.039C85.8335 909.789 90.4168 935.831 109.167 949.164C116.458 954.164 124.792 956.664 133.125 956.664C146.25 956.664 159.167 950.414 167.292 938.956L327.5 709.998C340.833 691.039 336.25 664.998 317.292 651.873ZM594.375 184.373C633.75 211.873 682.5 203.123 710 163.748C737.5 124.373 728.958 75.206 689.583 47.706C650.208 20.206 601.042 28.7476 573.542 68.1226C545.833 107.498 555 156.873 594.375 184.373Z" fill="black"/>
</svg>
