<svg width="1000" height="1000" viewBox="0 0 1000 1000" fill="none" xmlns="http://www.w3.org/2000/svg">
<path fill-rule="evenodd" clip-rule="evenodd" d="M208.333 416.668C254.375 416.668 291.667 453.96 291.667 500.001C291.667 546.043 254.375 583.335 208.333 583.335C162.292 583.335 125 546.043 125 500.001C125 453.96 162.292 416.668 208.333 416.668ZM893.958 268.543C893.958 269.168 893.75 269.793 893.75 270.21C889.583 295.835 879.792 321.043 863.75 343.751C838.333 380.21 804.583 400.626 757.917 407.918C755.208 408.335 752.917 409.793 751.25 412.085C750.625 412.918 750.208 413.543 749.792 414.585C747.708 419.376 745.417 424.376 742.708 429.376C737.708 439.168 732.083 448.96 726.458 457.085C726.042 457.71 725.625 458.335 725.208 458.96C711.042 479.168 688.958 494.376 660.417 503.751C658.542 504.376 656.667 505.001 654.583 505.418C654.167 505.626 653.542 505.835 653.125 505.835C645.625 507.918 637.917 509.585 629.792 511.043C628.333 511.251 626.875 511.46 625.417 511.668C625.208 511.668 624.792 511.668 624.583 511.876C621.458 512.293 618.542 512.71 615.208 512.918C614.792 512.918 614.583 512.918 614.167 512.918C612.5 513.126 611.042 513.126 609.375 513.335H609.167C607.708 513.543 606.042 513.543 604.583 513.751C604.167 513.751 603.958 513.751 603.542 513.751C601.875 513.751 600.417 513.96 598.75 513.96C598.542 513.96 598.333 513.96 598.333 513.96C596.875 513.96 595.417 513.96 593.958 514.168C593.542 514.168 593.333 514.168 592.917 514.168C591.25 514.168 589.792 514.168 588.333 514.168H588.125C587.917 514.168 587.5 514.168 587.292 514.168C586.25 514.168 585.208 514.168 584.375 514.168C583.958 514.168 583.542 514.168 582.917 514.168C582.083 514.168 581.042 514.168 580.208 514.168C579.792 514.168 579.375 514.168 578.75 514.168C577.708 514.168 576.875 514.168 575.833 513.96C575.417 513.96 575.208 513.96 574.792 513.96C573.542 513.96 572.292 513.751 571.042 513.751C570.625 513.751 570.208 513.751 569.792 513.751C568.958 513.751 568.125 513.543 567.292 513.543C566.875 513.543 566.25 513.543 565.833 513.335C565 513.335 564.375 513.126 563.542 513.126C563.125 513.126 562.708 513.126 562.083 512.918C561.25 512.71 560.417 512.71 559.375 512.501C559.167 512.501 558.75 512.501 558.542 512.293C557.5 512.085 556.25 511.876 555.208 511.668C554.792 511.668 554.375 511.46 553.958 511.46C553.542 511.46 553.125 511.251 552.708 511.251L261.25 928.543C257.292 934.376 250.833 937.501 244.167 937.501C240 937.501 235.833 936.251 232.292 933.751C222.917 927.085 220.625 914.168 227.083 904.793L519.167 487.71C510.208 472.71 502.292 451.46 497.083 432.293C496.667 430.418 496.042 428.543 495.625 426.668C487.708 393.126 483.542 345.418 509.583 308.543C518.333 295.835 531.25 281.251 542.917 270.418C545 268.335 546.25 265.835 546.458 263.126C546.458 262.293 546.458 261.46 546.25 260.626C543.958 248.96 542.708 237.918 542.708 227.085C542.292 203.126 547.292 181.043 557.917 160.001C557.917 160.001 557.917 159.793 558.125 159.793C558.333 159.376 558.542 159.168 558.542 158.96C561.875 152.293 566.042 145.626 570.417 139.168C574.375 133.543 578.75 128.126 583.125 123.126C632.708 67.0847 712.083 48.5431 780.625 74.5847C794.167 79.7931 807.292 86.6681 819.583 95.2097C870 130.626 896.667 187.293 895.833 244.793V245.001C895.833 252.501 895.208 260.626 893.958 268.543ZM837.083 308.126C868.75 251.46 856.042 180.001 807.083 137.71C805.625 136.46 803.958 135.001 802.292 133.751C802.083 133.543 801.875 133.335 801.667 133.126C799.792 131.668 797.917 130.21 796.042 128.96C794.167 127.71 792.083 126.251 790.208 125.001C790 124.793 789.583 124.585 789.375 124.585C787.708 123.543 786.042 122.501 784.167 121.46C784.167 121.46 783.958 121.46 783.958 121.251C727.5 89.7931 656.042 102.501 613.542 151.46C612.292 153.126 610.833 154.585 609.583 156.251C609.375 156.46 609.167 156.668 609.167 156.876C607.708 158.751 606.25 160.626 605 162.501C600.417 168.96 596.667 175.626 593.75 182.293C584.375 203.335 582.5 225.626 587.708 252.085C588.125 253.96 588.333 255.835 588.542 257.71C589.792 273.543 583.958 289.168 571.875 300.418C562.292 309.376 551.458 321.668 544.167 332.085C544.167 332.085 544.167 332.085 544.167 332.293C543.333 333.543 542.5 334.793 541.667 336.043C541.458 336.46 541.25 337.085 540.833 337.501C540.417 338.335 539.792 339.168 539.375 340.21C539.167 340.835 538.75 341.251 538.542 341.876C538.125 342.71 537.708 343.543 537.5 344.376C537.292 345.001 537.083 345.626 536.875 346.251C536.458 347.085 536.25 347.918 536.042 348.751C535.833 349.376 535.625 350.001 535.417 350.626C535.208 351.46 535 352.293 534.583 353.335C534.375 353.96 534.167 354.585 534.167 355.21C533.958 356.043 533.75 357.085 533.542 357.918C533.333 358.543 533.333 359.168 533.125 359.793C532.917 360.835 532.708 361.668 532.708 362.71C532.708 363.335 532.5 363.96 532.5 364.585C532.292 365.835 532.292 367.085 532.083 368.335C532.083 368.751 532.083 369.168 531.875 369.585C531.667 371.251 531.667 372.918 531.667 374.376C531.667 374.793 531.667 375.418 531.667 375.835C531.667 377.085 531.667 378.126 531.667 379.376C531.667 380.001 531.667 380.626 531.667 381.251C531.667 382.293 531.667 383.335 531.667 384.376C531.667 385.001 531.667 385.835 531.875 386.46C531.875 387.501 532.083 388.335 532.083 389.376C532.083 390.001 532.292 390.835 532.292 391.46C532.292 392.501 532.5 393.335 532.5 394.376C532.5 395.001 532.708 395.835 532.708 396.46C532.917 397.501 532.917 398.335 533.125 399.376C533.125 400.001 533.333 400.835 533.333 401.46C533.542 402.501 533.75 403.543 533.75 404.585C533.958 405.21 533.958 405.835 534.167 406.46C534.375 407.501 534.583 408.751 534.792 409.793C534.792 410.21 535 410.835 535 411.251C535.417 412.918 535.625 414.376 536.042 416.043C536.042 416.251 536.25 416.668 536.25 416.876C536.667 418.126 536.875 419.585 537.292 420.835C537.5 421.46 537.5 421.876 537.708 422.501C537.917 423.543 538.333 424.585 538.542 425.418C538.75 426.043 538.958 426.668 538.958 427.293C539.167 428.126 539.583 429.168 539.792 430.001C540 430.626 540.208 431.251 540.417 431.876C540.625 432.71 541.042 433.543 541.25 434.376C541.458 435.001 541.667 435.626 541.875 436.043C542.083 436.876 542.5 437.71 542.708 438.543C542.917 439.168 543.125 439.585 543.333 440.21C543.542 441.043 543.958 441.876 544.167 442.71C544.375 443.126 544.583 443.751 544.792 444.168C545.208 445.001 545.417 445.835 545.833 446.668C546.042 447.085 546.25 447.501 546.25 447.918C546.667 448.96 547.083 450.21 547.708 451.251V451.46C548.125 452.71 548.75 453.751 549.167 454.793C549.375 455.21 549.375 455.418 549.583 455.835C550 456.668 550.208 457.293 550.625 457.918C550.833 458.335 551.042 458.751 551.25 458.96C551.458 459.585 551.875 460.21 552.083 460.626C552.292 461.043 552.5 461.251 552.708 461.668C552.917 462.085 553.125 462.293 553.333 462.71C555.833 467.293 560.417 470.418 565.625 471.251C565.833 471.251 566.042 471.251 566.25 471.251C566.458 471.251 566.667 471.251 567.083 471.251C567.708 471.251 568.542 471.46 569.167 471.46C569.375 471.46 569.792 471.46 570 471.46C570.833 471.46 571.875 471.668 572.917 471.668H573.125C574.167 471.668 575.208 471.876 576.458 471.876C576.667 471.876 577.083 471.876 577.292 471.876C578.125 471.876 579.167 471.876 580 472.085C580.417 472.085 580.625 472.085 581.042 472.085C582.083 472.085 583.125 472.085 584.167 472.085C584.375 472.085 584.583 472.085 584.792 472.085C586.042 472.085 587.5 472.085 588.75 472.085C588.958 472.085 589.375 472.085 589.583 472.085C590.625 472.085 591.667 472.085 592.917 472.085C593.333 472.085 593.75 472.085 594.167 472.085C595.208 472.085 596.25 472.085 597.5 472.085C597.917 472.085 598.125 472.085 598.542 472.085C600 472.085 601.458 471.876 602.917 471.876C603.125 471.876 603.333 471.876 603.542 471.876C604.792 471.876 606.042 471.668 607.5 471.668C607.917 471.668 608.542 471.668 608.958 471.46C610 471.251 611.25 471.251 612.292 471.043C612.708 471.043 613.333 471.043 613.75 470.835C615.417 470.626 616.875 470.418 618.542 470.21C620 470.001 621.875 469.793 623.542 469.376C643.958 466.043 675.625 457.085 691.458 434.376C698.75 424.168 706.667 409.585 711.667 397.71C712.083 396.668 712.5 395.626 713.125 394.585C713.75 393.126 714.583 391.876 715.417 390.418C723.333 377.71 736.042 368.751 751.042 366.251C751.25 366.251 751.458 366.251 751.667 366.043C752.5 365.835 753.542 365.626 754.375 365.626C755.625 365.418 756.875 365.21 758.125 365.001C758.333 365.001 758.542 364.793 758.958 364.793C760.833 364.376 762.708 363.96 764.375 363.543C766.458 363.126 768.333 362.501 770.417 361.876C771.25 361.668 772.083 361.46 772.708 361.043C773.75 360.626 775 360.418 776.042 360.001C776.458 359.793 776.875 359.793 777.083 359.585C799.167 351.876 815.833 338.751 829.792 318.96C831.042 317.085 832.5 315.001 833.75 313.126C833.958 312.918 833.958 312.71 834.167 312.501C835 311.668 836.042 310.001 837.083 308.126ZM771.875 163.126C728.75 132.918 668.958 143.335 638.75 186.668C626.458 204.168 623.542 220.418 628.125 244.585C634.375 276.46 623.75 308.96 599.792 331.251C592.292 338.126 583.333 348.543 577.917 356.251C572.292 364.168 571.458 381.043 575.417 401.46C576.667 407.918 578.333 414.168 580.208 419.585C582.5 426.876 589.375 431.668 596.875 431.251C601.667 431.043 606.875 430.626 612.292 429.793C633.542 426.876 651.042 419.585 656.875 411.46C662.292 403.543 668.958 391.668 672.917 382.293C685.625 352.085 712.5 331.043 744.792 326.043C768.958 322.293 783.125 313.96 795.417 296.251C825.417 253.126 815 193.543 771.875 163.126Z" fill="black"/>
</svg>
