<svg width="1000" height="1000" viewBox="0 0 1000 1000" fill="none" xmlns="http://www.w3.org/2000/svg">
<path fill-rule="evenodd" clip-rule="evenodd" d="M729.167 520.831C614.167 520.831 520.834 614.164 520.834 729.164C520.834 844.164 614.167 937.498 729.167 937.498C844.167 937.498 937.501 844.164 937.501 729.164C937.501 614.164 844.167 520.831 729.167 520.831ZM789.167 649.581C781.459 645.206 773.542 641.456 765.417 638.331C765.209 638.539 765.209 638.539 765.209 638.748C765.209 638.956 765.001 639.164 765.001 639.373C756.876 654.789 751.251 671.248 747.917 688.331C747.709 689.164 747.709 690.206 747.501 690.831C746.876 693.956 746.251 697.289 745.626 700.623C745.417 702.706 745.209 704.789 745.209 706.664C745.209 707.706 745.209 708.539 745.001 709.581C744.584 713.331 744.584 716.873 744.584 720.414C746.459 721.664 748.542 722.914 750.417 724.373C751.459 725.206 752.501 726.039 753.751 726.873C754.584 727.289 755.417 727.914 756.042 728.331C757.084 728.748 757.917 729.373 758.959 730.206C759.376 730.414 759.792 730.831 760.209 731.039C760.417 731.248 760.834 731.664 761.251 732.081C766.459 736.039 771.459 740.414 776.459 744.581C776.667 744.789 776.876 744.998 777.084 744.998C777.709 745.414 778.334 746.039 778.959 746.664C778.959 746.873 779.167 746.873 779.376 747.081C779.584 747.081 779.584 747.289 779.792 747.498C795.001 762.081 808.542 778.331 819.167 796.664C819.167 796.664 819.376 796.873 819.376 797.081C819.376 797.289 819.376 797.289 819.584 797.498C822.292 802.081 824.584 807.081 826.876 811.873C826.876 812.081 827.084 812.289 827.084 812.706C827.084 812.914 827.292 813.123 827.292 813.331C829.376 817.498 831.042 821.873 832.709 826.248C832.917 826.873 833.126 827.289 833.542 828.123C833.751 828.956 834.167 829.581 834.376 830.206C834.584 830.414 834.584 830.414 834.584 830.623C834.792 830.831 834.792 830.831 834.792 831.039C835.001 831.873 835.209 832.289 835.417 833.123C835.417 833.539 835.626 834.373 835.834 834.998C836.876 838.539 838.126 842.081 839.167 845.623C839.376 846.039 839.376 846.664 839.584 847.289C839.792 847.914 840.001 848.539 840.001 849.164C840.209 849.789 840.209 850.414 840.417 851.039C840.834 852.706 841.251 854.373 841.459 856.039C841.667 857.081 841.667 857.914 841.876 858.748C842.084 859.581 842.084 860.414 842.292 861.039C842.501 861.873 842.709 862.914 842.917 863.748C834.584 870.831 825.417 877.289 815.834 882.706C815.417 878.748 814.792 874.789 813.959 870.831C813.542 868.748 812.917 866.664 812.709 864.581C811.667 860.206 810.626 855.623 809.376 851.248C808.959 849.789 808.334 848.331 807.917 846.873C807.709 846.039 807.292 845.414 807.084 844.581C806.876 843.956 806.667 843.331 806.459 842.706C805.209 839.164 803.959 835.623 802.501 832.289C795.834 837.081 788.959 841.873 781.459 846.039C731.251 874.998 672.917 881.873 618.959 867.706C601.459 853.956 586.459 836.664 575.209 817.289C633.334 853.123 706.667 854.789 766.667 820.206C774.376 815.831 781.459 810.831 788.334 805.414L788.126 805.206V804.998C788.126 804.998 787.917 804.789 787.917 804.581C778.542 789.789 767.084 776.873 754.167 765.206C753.334 764.373 752.292 763.539 751.667 762.914C749.376 760.831 747.084 758.748 744.584 756.873C742.917 755.623 741.042 754.373 739.376 753.123C738.542 752.706 737.917 752.081 737.084 751.664C734.167 749.581 731.042 747.498 727.917 745.623C725.834 746.873 723.751 747.706 721.459 748.748C720.209 749.164 718.959 749.789 717.709 750.414C716.876 750.831 716.042 751.248 715.417 751.664C714.376 752.081 713.334 752.706 712.501 753.123C712.084 753.331 711.667 753.331 711.042 753.539C710.626 753.748 710.209 753.748 709.792 753.956C703.751 756.456 697.501 758.748 691.251 760.831C691.042 761.039 690.417 761.039 690.209 761.248C689.792 761.456 689.167 761.664 688.334 761.873C688.126 762.081 687.917 762.081 687.501 762.081H687.292C687.084 762.081 687.084 762.081 687.084 762.081C667.084 768.331 646.042 771.664 624.792 771.664C624.584 771.664 624.584 771.664 624.376 771.664C624.376 771.664 624.167 771.664 623.959 771.664C618.334 771.664 613.126 771.248 607.709 770.831C607.501 770.831 607.292 770.831 606.876 770.831C606.667 770.623 606.459 770.623 606.042 770.623C601.251 770.206 596.667 769.581 591.876 768.748C591.459 768.748 590.834 768.748 590.001 768.539C589.167 768.539 588.334 768.331 587.709 768.331H587.501H587.292C587.084 768.331 587.084 768.331 586.876 768.331C586.042 768.123 585.209 768.123 584.376 767.914C583.959 767.706 583.334 767.706 582.709 767.498C578.959 766.873 575.417 765.831 571.876 764.998C571.459 764.998 570.834 764.789 570.417 764.789C569.792 764.581 569.167 764.581 568.542 764.373C568.334 764.373 568.126 764.373 567.709 764.164C567.292 764.164 566.876 763.956 566.667 763.956C565.001 763.539 563.542 763.123 562.084 762.498C561.042 762.289 560.209 761.873 559.376 761.456C558.751 761.248 558.126 761.039 557.292 760.623C556.459 760.414 555.417 759.998 554.376 759.789C552.501 749.581 551.667 738.956 551.667 728.331C551.667 727.914 551.667 727.289 551.667 726.664C555.417 728.331 559.167 729.581 562.917 731.039C565.001 731.664 567.084 732.289 568.959 732.914C573.334 734.373 577.709 735.831 582.292 736.873C583.751 737.081 585.209 737.498 586.667 737.706C587.501 737.914 588.542 737.914 589.167 738.123C589.792 738.331 590.834 738.331 591.459 738.539C594.792 739.164 598.542 739.789 601.876 740.414C601.042 732.081 600.209 723.748 600.209 715.414C600.209 657.289 623.542 603.331 662.917 563.539C683.126 555.414 705.209 551.039 728.334 551.039C668.126 583.331 630.001 646.248 630.001 715.414C630.001 724.373 630.834 733.123 632.084 741.664C632.084 741.664 632.292 741.664 632.501 741.664C632.501 741.664 632.709 741.664 632.917 741.664C650.209 740.831 667.292 737.498 683.751 732.081C684.584 731.873 685.626 731.456 686.667 731.039C689.792 730.206 692.709 729.164 695.834 727.914C697.709 727.081 699.584 726.248 701.251 725.414C702.084 724.998 703.126 724.581 703.959 724.164C707.292 722.498 710.417 721.039 713.751 719.164C713.751 716.873 713.959 714.581 714.167 712.289C714.167 710.831 714.376 709.373 714.584 708.123C714.792 707.289 714.792 706.248 714.792 705.623C714.792 704.581 714.792 703.539 715.001 702.289C715.001 701.873 715.209 701.248 715.209 700.623C715.209 699.998 715.209 699.581 715.417 699.373C716.251 692.914 717.292 686.456 718.751 679.789C718.751 679.581 718.751 678.956 718.959 678.748C719.167 678.123 719.167 677.498 719.376 676.873C719.376 676.664 719.376 676.456 719.376 676.456C719.584 676.248 719.584 676.039 719.584 676.039C724.376 655.414 731.667 635.623 742.292 617.289C742.292 617.289 742.501 617.289 742.501 617.081V616.873C742.709 616.664 742.709 616.664 742.917 616.456C745.626 611.873 748.751 607.289 751.667 603.123C751.876 602.914 751.876 602.706 752.084 602.289C752.292 602.289 752.292 602.081 752.501 601.873C755.209 597.914 758.126 594.373 761.042 590.623C761.459 590.206 761.876 589.581 762.084 589.164C762.501 588.539 763.126 587.914 763.542 587.289C763.542 587.081 763.751 587.081 763.751 586.873C763.751 586.664 763.959 586.664 763.959 586.456C764.376 585.831 765.001 585.206 765.626 584.789C766.042 584.373 766.459 583.956 766.876 583.539C769.376 580.623 771.876 578.123 774.376 575.206C774.584 574.789 775.209 574.581 775.417 574.164C775.834 573.748 776.251 573.123 776.667 572.706C777.084 572.289 777.501 571.873 777.917 571.456C778.959 570.414 780.209 569.373 781.459 568.331C782.292 567.706 782.917 566.873 783.751 566.248C784.376 565.831 785.001 565.206 785.626 564.581C786.251 564.164 786.876 563.331 787.501 562.706C797.917 566.456 808.126 571.039 817.501 576.873C814.376 579.164 811.251 581.873 807.917 583.748C806.667 584.789 805.209 586.039 803.959 587.498L803.334 588.123C800.001 591.248 796.667 594.373 793.334 597.706C792.292 598.748 791.459 599.789 790.417 600.831C790.001 601.456 789.167 602.289 788.542 602.914C787.917 603.539 787.292 604.164 786.876 604.789C784.584 607.498 782.292 610.206 780.209 612.914C787.917 616.039 795.417 619.789 802.709 624.164C852.917 653.123 888.126 700.414 902.709 754.164C899.584 776.873 892.084 798.123 881.042 817.081C884.584 748.539 849.167 684.164 789.167 649.581ZM529.792 565.206C549.376 552.498 566.459 536.664 586.042 524.164C602.501 513.539 620.001 504.581 638.334 497.498C642.084 496.039 680.417 483.539 680.417 483.748C680.417 482.914 680.209 482.081 680.209 481.248C680.001 478.748 680.001 476.456 680.001 473.956C680.001 473.539 680.001 473.123 680.001 472.706C680.001 470.206 680.001 467.706 680.001 465.206C680.001 109.789 473.126 66.0394 412.292 63.1227C402.917 62.7061 396.876 62.7061 395.834 62.7061C394.792 62.7061 388.751 62.7061 379.376 63.1227C318.542 66.0394 111.667 109.581 111.667 465.206C111.667 527.498 95.4172 579.789 67.9172 607.914C56.4589 619.789 64.5839 639.581 81.2506 639.998C125.001 640.623 183.126 630.623 230.209 583.539C237.292 576.456 244.167 570.414 251.042 564.789C257.917 559.373 267.501 559.373 274.376 564.581C308.959 591.456 350.834 607.081 396.042 607.081C443.334 607.289 490.209 591.039 529.792 565.206ZM395.834 559.998C304.584 559.998 230.417 474.998 230.417 370.623C230.417 319.164 248.334 272.498 277.501 238.331C286.876 227.498 304.167 230.414 309.584 243.748C327.917 289.164 382.292 358.748 542.709 369.164C553.334 369.789 561.459 379.164 560.417 389.789C552.084 484.998 481.459 559.998 395.834 559.998Z" fill="black"/>
</svg>
