<svg width="1000" height="1000" viewBox="0 0 1000 1000" fill="none" xmlns="http://www.w3.org/2000/svg">
<path d="M916.46 704.792L894.585 376.875C894.585 375.625 894.169 374.375 893.96 373.125C839.377 193.333 672.502 62.5 475.002 62.5H458.336C234.377 62.5 75.4189 237.292 63.9606 457.917C63.1272 473.333 64.3772 488.958 67.0856 504.167L102.294 698.333C103.336 704.375 107.711 709.375 113.752 711.25L818.127 932.708C826.669 935.417 835.835 930.833 838.752 922.5L915.419 711.667C916.252 709.375 916.669 707.083 916.46 704.792ZM851.877 691.875L448.544 589.375C435.211 585.625 424.586 575.417 420.419 562.292L376.044 425.833C370.211 399.792 390.002 375.208 416.669 375.208H836.252C845.002 375.208 852.294 382.083 852.919 390.625L872.502 674.792C873.335 686.042 862.919 694.792 851.877 691.875Z" fill="black"/>
</svg>
