<svg width="1000" height="1000" viewBox="0 0 1000 1000" fill="none" xmlns="http://www.w3.org/2000/svg">
<path d="M875.623 812.294C872.915 820.002 871.873 828.127 868.123 835.419C857.915 856.044 827.29 865.211 807.498 853.961C799.165 849.169 792.707 841.877 785.623 835.627C777.082 828.127 768.123 821.044 758.957 813.961C747.498 805.002 736.457 796.877 721.248 797.502C696.248 798.336 676.665 817.711 651.873 820.419C617.915 824.169 616.873 782.919 609.165 759.794C603.123 741.877 599.998 721.461 616.04 707.711C627.498 697.919 643.957 696.669 655.623 687.086C665.623 678.752 669.373 665.211 679.373 656.877C692.29 646.252 711.665 644.377 726.248 635.836C735.415 630.419 753.332 617.711 762.082 630.627C764.998 634.794 763.748 640.627 763.332 645.627C761.665 660.627 776.665 664.794 787.29 670.836C800.832 678.544 803.332 653.336 803.748 644.794C803.957 638.961 805.207 629.586 812.29 628.127C822.29 626.252 828.332 649.794 831.873 656.044C839.79 670.836 849.582 685.002 860.832 697.502C872.915 711.044 887.082 723.961 893.957 741.044C898.957 753.336 894.373 765.419 889.79 777.294C884.998 789.169 879.79 800.419 875.623 812.294ZM838.748 914.377C827.29 911.877 817.707 898.961 816.665 887.711C815.415 872.711 832.082 877.294 841.248 876.044C846.873 875.211 852.29 871.461 857.082 876.252C860.832 880.002 860.832 887.086 859.998 891.669C858.332 902.086 851.248 917.294 838.748 914.377ZM559.79 668.961L354.998 525.627C336.248 512.502 310.207 517.086 296.873 535.836C283.748 554.586 288.332 580.627 307.082 593.961L477.707 713.544L358.332 883.961C345.207 902.919 349.79 928.752 368.54 942.086C375.832 947.086 384.165 949.586 392.29 949.586C405.415 949.586 418.332 943.336 426.457 931.877L569.79 727.086C583.123 708.127 578.54 682.086 559.79 668.961ZM361.665 733.752L218.332 938.544C210.207 950.211 197.29 956.252 184.165 956.252C175.832 956.252 167.498 953.752 160.207 948.752C141.457 935.627 136.873 909.586 149.998 890.627L293.332 685.836C306.457 667.086 332.498 662.502 351.457 675.627C370.415 688.961 374.998 715.002 361.665 733.752ZM880.623 283.336L784.998 419.794C776.873 431.461 763.957 437.502 750.832 437.502C742.498 437.502 734.165 435.002 726.873 430.002L658.54 382.086L539.165 552.711C532.915 561.669 523.123 567.919 512.29 569.794C509.79 570.211 507.498 570.419 504.998 570.419C496.457 570.419 488.123 567.919 481.04 562.919L378.54 491.252C377.29 490.419 376.248 489.586 375.207 488.544C364.998 481.252 355.207 474.586 344.79 471.044C312.498 460.211 269.165 490.002 243.123 507.711C237.707 511.461 232.29 515.419 226.457 519.794C204.582 535.836 179.998 553.961 150.415 559.586C148.123 560.002 145.832 560.419 143.54 560.627C139.582 561.044 135.623 561.252 131.665 561.252C115.623 561.252 100.623 557.086 87.915 549.377C83.7483 546.669 80.6233 542.711 78.9566 537.919L62.29 485.627C59.5816 477.502 62.29 468.336 69.165 462.919C75.8316 457.502 85.2066 456.877 92.7066 461.252C95.2066 462.711 158.123 497.711 243.54 457.294C243.957 457.086 244.165 456.877 244.582 456.877C276.248 437.294 317.915 418.127 357.915 431.669C376.04 437.711 391.04 448.752 404.165 458.336L406.248 459.794C422.082 466.044 439.165 469.377 456.457 469.377C480.623 469.377 504.79 463.127 526.457 451.252C536.665 445.627 543.332 435.627 544.79 424.169C551.04 370.836 528.332 319.794 485.623 291.044C481.665 288.336 477.498 285.836 473.332 283.752L487.915 262.919L453.748 238.961L411.457 299.169C431.248 299.377 450.832 305.211 468.123 316.669C502.29 339.586 518.332 380.002 513.748 420.211C513.54 421.669 512.707 422.919 511.457 423.544C475.832 443.127 432.498 443.336 398.332 420.211C380.415 408.127 367.707 391.461 359.998 372.502L344.998 393.961C331.873 412.711 305.832 417.294 286.873 404.169C268.123 391.044 263.54 365.002 276.665 346.044L409.373 156.461C422.498 137.711 448.54 133.127 467.498 146.252L569.165 217.502C569.373 217.711 569.79 217.711 569.998 217.919L672.29 289.586C672.498 289.794 672.707 290.002 673.123 290.211L740.623 337.502L812.29 235.211C825.415 216.461 851.457 211.877 870.415 225.002C889.165 238.336 893.748 264.377 880.623 283.336ZM607.498 92.0856C634.998 52.7106 684.165 43.9606 723.54 71.6689C762.915 99.1689 771.665 148.336 743.957 187.711C716.248 227.086 667.707 236.044 628.332 208.336C588.957 180.627 579.998 131.461 607.498 92.0856Z" fill="black"/>
</svg>
