<svg width="1000" height="1000" viewBox="0 0 1000 1000" fill="none" xmlns="http://www.w3.org/2000/svg">
<path fill-rule="evenodd" clip-rule="evenodd" d="M256.042 431.667C218.333 405.208 166.458 414.375 140 452.083C113.542 489.792 122.708 541.667 160.417 568.125C198.125 594.584 250 585.417 276.458 547.708C302.917 510 293.75 458.125 256.042 431.667ZM191.25 488.125C180.417 503.542 165.833 514.792 149.375 521.25C146.875 514.583 145.625 507.292 145.625 500.208C156.667 495 166.458 486.875 173.958 476.25C181.458 465.625 185.625 453.542 186.875 441.458C193.542 438.958 200.833 437.708 207.917 437.708C207.5 455 202.083 472.708 191.25 488.125ZM242.5 523.958C235 534.583 230.833 546.667 229.583 558.958C222.917 561.458 215.625 562.708 208.542 562.708C209.167 545.208 214.583 527.5 225.417 512.083C236.25 496.667 250.833 485.417 267.083 478.958C269.583 485.625 270.833 492.917 270.833 500C259.792 505.208 250 513.125 242.5 523.958ZM931.667 272.083C917.709 216.458 878.75 165.833 815.834 121.667C752.917 77.5 692.083 58.3334 635 64.1667C568.125 71.25 507.5 112.708 455 187.708C401.875 263.75 372.917 350.208 373.75 431.458C374.167 466.667 380 499.375 391.042 528.125L351.458 743.75C339.375 740.834 326.25 745.417 318.75 756.25L235 875.625C225 889.792 228.542 909.167 242.708 919.167L259.792 931.042C273.958 941.042 293.333 937.5 303.333 923.334L387.083 803.959C394.583 793.125 394.375 779.375 387.708 768.959L579.167 659.792C610 660.209 642.708 654.792 676.042 642.917C752.709 615.833 824.167 559.167 877.292 483.333C929.584 408.333 947.917 337.292 931.667 272.083ZM582.292 527.708C569.167 546.458 543.125 551.042 524.167 537.917C505.417 524.792 500.833 498.75 513.958 479.792C527.083 460.833 553.125 456.458 572.084 469.583C590.834 482.917 595.417 508.958 582.292 527.708ZM495.417 262.5C508.542 243.75 534.584 239.167 553.542 252.292C572.292 265.417 576.875 291.458 563.75 310.417C550.625 329.375 524.583 333.75 505.625 320.625C486.875 307.292 482.292 281.458 495.417 262.5ZM428.542 394.583C441.667 375.833 467.708 371.25 486.667 384.375C505.417 397.5 510 423.542 496.875 442.5C483.75 461.25 457.708 465.833 438.75 452.708C419.792 439.375 415.208 413.542 428.542 394.583ZM399.167 714.375L422.917 585C434.792 599.792 448.542 612.917 464.167 623.958C479.583 634.792 496.25 643.125 513.958 649.167L399.167 714.375ZM596.667 154.375C609.792 135.625 635.833 131.042 654.792 144.167C673.542 157.292 678.125 183.333 665 202.292C651.875 221.042 625.833 225.625 606.875 212.5C587.917 199.375 583.333 173.333 596.667 154.375ZM610 342.708C623.125 323.958 649.167 319.375 668.125 332.5C686.875 345.625 691.459 371.667 678.334 390.625C665.209 409.375 639.167 413.958 620.209 400.833C601.459 387.5 596.875 361.667 610 342.708ZM691.667 578.958C678.542 597.708 652.5 602.292 633.542 589.167C614.792 576.042 610.209 550 623.334 531.042C636.459 512.292 662.5 507.708 681.459 520.833C700.417 534.167 705 560 691.667 578.958ZM706.042 205.625C719.167 186.875 745.208 182.292 764.167 195.417C783.125 208.542 787.5 234.583 774.375 253.542C761.25 272.292 735.208 276.875 716.25 263.75C697.292 250.625 692.917 224.375 706.042 205.625ZM792.917 470.833C779.792 489.583 753.75 494.167 734.792 481.042C716.042 467.917 711.458 441.875 724.583 422.917C737.708 404.167 763.75 399.583 782.709 412.708C801.459 426.042 806.042 451.875 792.917 470.833ZM859.792 338.75C846.667 357.5 820.625 362.083 801.667 348.958C782.917 335.833 778.333 309.792 791.458 290.833C804.584 272.083 830.625 267.5 849.583 280.625C868.542 293.958 873.125 319.792 859.792 338.75Z" fill="black"/>
</svg>
