<svg width="1000" height="1000" viewBox="0 0 1000 1000" fill="none" xmlns="http://www.w3.org/2000/svg">
<path d="M613.758 874.999C583.758 874.999 558.342 852.499 554.8 822.707L535.217 660.624C534.175 652.29 527.092 646.04 518.758 646.04H481.467C473.133 646.04 465.842 652.29 465.008 660.624L445.425 822.707C441.883 852.499 416.467 874.999 386.467 874.999C370.425 874.999 356.258 886.874 354.592 902.707C352.508 921.457 367.3 937.499 385.633 937.499H614.8C633.133 937.499 647.925 921.665 645.842 902.707C643.967 886.874 629.8 874.999 613.758 874.999Z" fill="black"/>
<path d="M395.839 448.749V288.957C395.839 285.624 394.797 282.29 392.922 279.374L312.506 164.582C292.714 136.249 253.756 129.374 225.422 149.165L187.922 175.415C180.422 180.624 178.547 191.04 183.756 198.54L365.422 458.332C374.797 471.665 395.839 464.999 395.839 448.749Z" fill="black"/>
<path d="M812.092 175.631L774.592 149.381C746.259 129.589 707.301 136.464 687.509 164.798L607.301 279.589C605.426 282.298 604.384 285.631 604.384 289.173V448.964C604.384 465.214 625.426 471.881 634.801 458.548L816.467 199.173C821.467 191.256 819.592 180.839 812.092 175.631Z" fill="black"/>
<path d="M437.512 543.961C437.512 544.586 437.512 545.211 437.512 545.836C437.512 546.253 437.512 546.669 437.512 546.878C437.512 547.711 437.721 548.336 437.721 549.169C437.721 549.378 437.721 549.586 437.721 549.794C437.929 550.628 437.929 551.461 438.137 552.294V552.503C438.971 557.503 440.429 562.294 442.512 566.669V566.878C442.929 567.711 443.346 568.544 443.554 569.378C443.554 569.586 443.762 569.794 443.971 570.003C444.387 570.628 444.596 571.253 445.012 571.878C445.221 572.294 445.429 572.503 445.637 572.919C445.846 573.336 446.262 573.961 446.471 574.378C446.679 574.794 447.096 575.211 447.304 575.628C447.512 576.044 447.721 576.461 448.137 576.669C448.137 576.669 448.137 576.878 448.346 576.878L448.554 577.294C448.554 577.503 448.762 577.503 448.762 577.711C448.971 577.919 448.971 578.128 449.179 578.336C449.387 578.544 449.596 578.961 449.804 579.169L450.012 579.378C450.221 579.794 450.637 580.211 450.846 580.419C450.846 580.419 450.846 580.628 451.054 580.628C451.262 580.836 451.471 581.253 451.679 581.461C451.887 581.669 452.096 581.878 452.304 582.294C452.512 582.503 452.721 582.919 452.929 583.128C453.137 583.336 453.346 583.544 453.554 583.961C453.762 584.169 453.971 584.378 454.179 584.586C454.387 585.003 454.804 585.211 455.012 585.419C455.221 585.628 455.429 585.836 455.637 586.044C455.637 586.044 455.846 586.044 455.846 586.253C456.054 586.461 456.054 586.461 456.262 586.669C456.679 587.086 456.887 587.294 457.304 587.711C457.512 587.919 457.512 587.919 457.721 588.128C458.137 588.544 458.554 588.753 458.971 589.169C459.179 589.378 459.387 589.586 459.596 589.794C459.804 589.794 459.804 590.003 460.012 590.003C460.221 590.211 460.637 590.419 460.846 590.628C461.054 590.836 461.262 590.836 461.471 591.044C461.679 591.253 461.887 591.461 462.096 591.669C462.304 591.669 462.304 591.878 462.512 591.878C462.929 592.086 463.346 592.503 463.554 592.711C463.554 592.711 463.762 592.711 463.762 592.919C463.971 593.128 464.179 593.128 464.387 593.336C464.596 593.544 464.804 593.544 465.012 593.753C465.429 593.961 465.846 594.378 466.262 594.586C466.471 594.586 466.471 594.794 466.679 594.794C467.096 595.003 467.304 595.211 467.721 595.419C468.137 595.628 468.762 596.044 469.179 596.253C469.596 596.461 470.221 596.878 470.637 597.086C471.054 597.294 471.262 597.503 471.679 597.711C472.304 598.128 472.929 598.336 473.554 598.544C473.762 598.544 473.971 598.753 474.179 598.753C474.596 598.961 475.221 599.169 475.637 599.378C475.846 599.586 476.262 599.586 476.471 599.794H476.679C476.887 599.794 476.887 599.794 477.096 600.003C477.096 600.003 477.096 600.003 477.304 600.003C478.137 600.211 478.762 600.628 479.596 600.836H479.804C480.012 600.836 480.012 600.836 480.221 601.044C480.846 601.253 481.679 601.461 482.304 601.669C482.512 601.669 482.721 601.878 482.929 601.878C483.554 602.086 484.179 602.294 485.012 602.294C485.012 602.294 485.012 602.294 485.221 602.294C485.429 602.294 485.846 602.503 486.054 602.503C486.679 602.711 487.096 602.711 487.721 602.919H487.929C488.346 602.919 488.554 603.128 488.971 603.128C489.387 603.128 490.012 603.336 490.429 603.336H490.637C490.846 603.336 490.846 603.336 491.054 603.336C491.471 603.336 491.679 603.336 492.096 603.544C492.512 603.544 492.929 603.544 493.346 603.753C493.554 603.753 493.762 603.753 493.971 603.753C494.387 603.753 494.596 603.753 495.012 603.753C495.429 603.753 495.846 603.753 496.054 603.753C496.262 603.753 496.679 603.753 496.887 603.753C497.304 603.753 497.512 603.753 497.929 603.753C498.137 603.753 498.346 603.753 498.346 603.753H498.762C499.179 603.753 499.387 603.753 499.804 603.753C500.012 603.753 500.429 603.753 500.637 603.753C501.054 603.753 501.471 603.753 501.679 603.753C502.096 603.753 502.304 603.753 502.721 603.753C502.929 603.753 503.137 603.753 503.346 603.753C503.762 603.753 504.179 603.753 504.596 603.544C505.012 603.544 505.221 603.544 505.637 603.336C505.846 603.336 505.846 603.336 506.054 603.336H506.262C506.679 603.336 507.304 603.128 507.721 603.128C508.137 603.128 508.346 602.919 508.762 602.919H508.971C509.596 602.919 510.012 602.711 510.637 602.503C510.846 602.503 511.262 602.294 511.471 602.294C511.471 602.294 511.471 602.294 511.679 602.294C512.304 602.086 512.929 602.086 513.762 601.878C513.971 601.878 514.179 601.669 514.387 601.669C515.221 601.461 515.846 601.253 516.679 601.044C516.887 601.044 516.887 601.044 517.096 600.836H517.304C518.137 600.628 518.762 600.419 519.596 600.003C519.596 600.003 519.596 600.003 519.804 600.003C520.012 600.003 520.012 600.003 520.221 599.794H520.429C520.637 599.586 521.054 599.586 521.262 599.378C521.679 599.169 522.304 598.961 522.721 598.753C522.929 598.753 523.137 598.544 523.346 598.544C523.971 598.336 524.596 597.919 525.221 597.711C525.637 597.503 525.846 597.294 526.262 597.086C526.679 596.878 527.304 596.669 527.721 596.253C528.137 596.044 528.762 595.628 529.179 595.419C529.596 595.211 529.804 595.003 530.221 594.794C530.429 594.794 530.429 594.586 530.637 594.586C531.054 594.378 531.471 593.961 531.887 593.753C532.096 593.544 532.304 593.544 532.512 593.336C532.721 593.128 532.929 593.128 533.137 592.919C533.137 592.919 533.346 592.919 533.346 592.711C533.762 592.503 534.179 592.086 534.387 591.878C534.596 591.878 534.596 591.669 534.804 591.669C535.012 591.461 535.221 591.253 535.429 591.044C535.637 590.836 535.846 590.836 536.054 590.628C536.262 590.419 536.679 590.211 536.887 590.003L537.096 589.794C537.304 589.586 537.512 589.378 537.721 589.169C537.929 588.961 538.346 588.753 538.554 588.336C538.762 588.128 538.762 588.128 538.971 587.919C539.179 587.711 539.179 587.711 539.387 587.503C539.804 587.086 540.221 586.878 540.429 586.461C540.637 586.253 540.637 586.253 540.846 586.044C540.846 586.044 541.054 586.044 541.054 585.836C541.262 585.628 541.471 585.419 541.679 585.211C541.887 585.003 542.304 584.586 542.512 584.378C542.721 584.169 542.929 583.961 543.137 583.753C543.346 583.544 543.554 583.336 543.762 582.919C543.971 582.711 544.179 582.294 544.387 582.086C544.596 581.878 544.804 581.669 545.012 581.253C545.221 581.044 545.429 580.628 545.637 580.419C545.637 580.419 545.637 580.211 545.846 580.211C546.054 579.794 546.471 579.378 546.679 579.169L546.887 578.961C547.096 578.753 547.304 578.336 547.512 578.128C547.721 577.919 547.721 577.711 547.929 577.503C547.929 577.294 548.137 577.294 548.137 577.086L548.346 576.669L548.554 576.461C548.762 576.044 548.971 575.628 549.387 575.419C549.596 575.003 550.012 574.586 550.221 574.169C550.429 573.753 550.846 573.128 551.054 572.711C551.262 572.294 551.471 572.086 551.679 571.669C552.096 571.044 552.304 570.419 552.721 569.794C552.929 569.586 552.929 569.378 553.137 569.169C553.554 568.336 553.971 567.503 554.179 566.669V566.461C556.054 562.086 557.512 557.294 558.554 552.294V552.086C558.762 551.253 558.762 550.419 558.971 549.586C558.971 549.378 558.971 549.169 558.971 548.961C558.971 548.336 559.179 547.503 559.179 546.669C559.179 546.253 559.179 545.836 559.179 545.628C559.179 545.003 559.179 544.378 559.179 543.753C559.179 543.336 559.179 542.711 559.179 542.294C559.179 542.086 559.179 541.669 559.179 541.461V126.669C559.179 92.7111 532.512 63.7528 498.346 62.9194C462.929 61.8778 434.179 90.2111 434.179 125.419V541.461C434.179 541.878 434.179 542.086 434.179 542.294C437.512 542.919 437.512 543.336 437.512 543.961Z" fill="black"/>
<path d="M888.967 736.461L760.009 641.877C754.176 637.502 746.051 637.502 740.217 641.877L611.259 736.461C602.092 743.127 602.092 756.877 611.259 763.544L740.426 858.336C746.259 862.711 754.384 862.711 760.217 858.336L889.175 763.544C898.134 756.877 898.134 743.127 888.967 736.461ZM750.009 812.502C715.634 812.502 687.717 784.586 687.509 750.211C690.842 750.002 694.384 750.002 697.717 750.002C736.884 750.002 773.967 759.794 806.467 776.877C796.467 797.919 775.009 812.502 750.009 812.502ZM812.509 751.877C777.926 734.794 738.967 725.002 697.717 725.002C696.051 725.002 694.384 725.002 692.717 725.002C702.301 702.919 724.384 687.502 750.009 687.502C785.217 687.502 813.551 716.461 812.509 751.877Z" fill="black"/>
</svg>
