<svg width="1000" height="1000" viewBox="0 0 1000 1000" fill="none" xmlns="http://www.w3.org/2000/svg">
<path fill-rule="evenodd" clip-rule="evenodd" d="M815.837 121.046C878.754 165.213 917.712 215.838 931.671 271.463C947.921 336.88 929.587 407.921 877.296 482.713C824.171 558.546 752.712 615.213 676.046 642.296C642.712 654.171 610.004 659.588 579.171 659.171L387.712 768.338C394.379 778.755 394.587 792.505 387.087 803.338L303.337 922.713C293.337 936.88 273.962 940.421 259.796 930.421L242.712 918.546C228.546 908.546 225.004 889.171 235.004 875.005L318.754 755.63C326.254 744.796 339.379 740.213 351.462 743.13L391.046 527.505C380.004 498.755 374.171 466.046 373.754 430.838C372.921 349.588 401.879 263.13 455.004 187.088C507.504 112.088 568.129 70.6296 635.004 63.5462C692.087 57.7129 752.921 76.8796 815.837 121.046ZM524.171 537.505C543.129 550.63 569.171 546.046 582.296 527.296C595.421 508.338 590.837 482.505 572.087 469.171C553.129 456.046 527.087 460.421 513.962 479.38C500.837 498.338 505.421 524.38 524.171 537.505ZM553.546 251.88C534.587 238.755 508.546 243.338 495.421 262.088C482.296 280.838 486.879 306.88 505.629 320.213C524.587 333.338 550.629 328.963 563.754 310.005C576.879 291.046 572.296 265.005 553.546 251.88ZM486.671 383.963C467.712 370.838 441.671 375.421 428.546 394.171C415.212 412.921 419.796 438.963 438.754 452.296C457.712 465.421 483.754 460.838 496.879 442.088C510.004 423.13 505.421 397.088 486.671 383.963ZM422.921 584.588L399.171 713.963L513.962 648.755C496.254 642.713 479.587 634.38 464.171 623.546C448.546 612.505 434.796 599.38 422.921 584.588ZM654.796 143.755C635.837 130.63 609.796 135.213 596.671 153.963C583.337 172.713 587.921 198.963 606.879 212.088C625.837 225.213 651.879 220.63 665.004 201.88C678.129 182.921 673.546 156.88 654.796 143.755ZM668.129 332.088C649.171 318.963 623.129 323.546 610.004 342.296C596.879 361.046 601.462 387.088 620.212 400.421C639.171 413.546 665.212 408.963 678.337 390.213C691.462 371.255 686.879 345.213 668.129 332.088ZM633.546 588.755C652.504 601.88 678.546 597.296 691.671 578.546C705.004 559.588 700.421 533.546 681.462 520.421C662.504 507.296 636.462 511.88 623.337 530.63C610.212 549.588 614.796 575.63 633.546 588.755ZM764.171 195.005C745.212 181.88 719.171 186.463 706.046 205.213C692.921 223.963 697.296 250.213 716.254 263.338C735.212 276.463 761.254 271.88 774.379 253.13C787.504 234.171 783.129 208.13 764.171 195.005ZM734.796 480.421C753.754 493.546 779.796 488.963 792.921 470.213C806.046 451.463 801.462 425.421 782.712 412.088C763.754 398.963 737.712 403.546 724.587 422.296C711.462 441.255 716.046 467.296 734.796 480.421ZM801.671 348.546C820.629 361.671 846.671 357.088 859.796 338.338C873.129 319.38 868.546 293.338 849.587 280.213C830.629 267.088 804.587 271.671 791.462 290.421C778.337 309.38 782.921 335.421 801.671 348.546ZM218.894 417.368C264.545 423.204 296.822 464.942 290.986 510.593C285.15 556.244 243.412 588.521 197.761 582.685C152.11 576.849 119.833 535.111 125.669 489.46C131.505 443.809 173.243 411.532 218.894 417.368Z" fill="black"/>
</svg>
