<svg width="1000" height="1000" viewBox="0 0 1000 1000" fill="none" xmlns="http://www.w3.org/2000/svg">
<path d="M246.666 512.292C200.207 520.209 128.749 531.875 85.6241 540.834C81.4574 541.667 77.4991 542.5 73.9574 543.334C65.8324 545.209 60.2074 552.917 61.0407 561.25C69.1657 647.292 108.957 814.376 292.499 843.334C311.458 845.626 330.624 847.084 349.583 847.709C394.583 848.959 438.958 845.626 478.958 839.584C515.208 834.167 558.958 828.751 559.583 782.501C559.791 766.251 560.208 748.334 560.624 731.876L246.666 512.292Z" fill="black"/>
<path d="M963.124 360.621L711.457 184.371C697.915 174.788 681.666 169.788 664.999 169.788C662.916 169.788 660.832 168.955 659.582 167.288L615.415 108.33C608.749 101.455 596.874 106.246 596.874 115.83V155.83C596.874 163.955 591.04 170.83 582.915 171.871L403.957 197.496C395.415 198.746 394.374 210.413 402.499 213.121L465.207 241.246C472.29 244.371 471.249 254.58 463.749 256.455L431.457 264.371C423.332 266.038 422.499 277.288 430.415 279.996L447.29 294.58C450.415 297.288 451.041 301.871 448.541 305.205C434.166 325.621 385.624 395.205 344.79 453.538L580.416 618.33C594.791 559.996 611.666 488.746 621.249 447.288C594.999 428.955 568.957 403.121 550.832 366.455C546.874 358.538 550.207 348.746 558.124 344.788C566.04 340.83 575.832 344.163 579.79 352.08C592.915 378.538 611.249 398.538 630.624 413.538C668.957 438.955 754.374 425.621 790.832 418.538C802.499 416.246 814.374 417.288 825.624 421.246C862.915 434.996 908.749 450.205 940.832 425.205C953.332 415.413 982.915 374.371 963.124 360.621Z" fill="black"/>
<path d="M94.3745 342.078C87.7079 351.453 89.9995 364.37 99.3745 371.037L733.333 814.37L706.875 851.87C701.458 859.37 703.333 869.787 710.833 874.995L734.583 891.87C742.083 897.287 752.5 895.412 757.916 887.912L835 779.162C840.416 771.662 838.541 761.245 831.041 756.037L807.291 739.162C799.791 733.745 789.375 735.62 783.958 743.12L757.5 780.62L123.333 337.078C113.958 330.412 100.833 332.703 94.3745 342.078Z" fill="black"/>
</svg>
