<svg width="1000" height="1000" viewBox="0 0 1000 1000" fill="none" xmlns="http://www.w3.org/2000/svg">
<path fill-rule="evenodd" clip-rule="evenodd" d="M914.582 494.163C903.54 478.33 881.457 474.58 865.832 485.83C850.207 497.08 847.499 518.746 858.124 534.58C874.582 558.955 869.374 591.871 846.04 608.121C822.499 624.58 789.374 618.121 772.29 593.538L385.624 70.2046C379.79 62.4962 368.957 60.6212 361.04 66.2462C353.124 71.8712 351.04 82.7046 356.249 90.6212L715.207 633.538C739.374 668.121 778.124 686.871 817.082 686.871C841.04 686.871 864.999 679.788 885.832 665.205C940.832 626.871 953.54 549.996 914.582 494.163Z" fill="black"/>
<path fill-rule="evenodd" clip-rule="evenodd" d="M654.583 719.996C654.583 680.829 621.25 653.537 586.041 644.162C540.625 632.079 494.375 623.537 449.791 608.329C405.625 593.121 361.25 572.287 339.583 528.537C322.292 493.537 312.5 391.662 309.375 343.121C309.375 342.912 309.375 342.912 309.375 342.704C309.583 335.412 306.458 328.537 299.375 326.662C275.208 319.787 253.125 337.912 253.125 361.037V364.579C253.125 372.496 246.666 378.954 238.75 378.954H134.167C97.2915 378.954 66.4582 406.871 62.7082 443.537L62.4998 733.121C62.2915 758.954 73.5415 775.621 89.7915 784.371C72.9165 800.412 62.2915 823.329 62.2915 848.537C62.2915 897.287 102.083 937.079 150.833 937.079C199.583 937.079 239.375 897.287 239.375 848.537C239.375 835.62 236.666 823.329 231.666 812.287L267.083 793.121C269.375 791.871 271.875 791.454 274.583 791.454H434.583C436.458 791.454 438.125 791.662 439.792 792.287L476.875 811.246C471.458 822.704 468.541 835.412 468.541 848.746C468.541 897.496 508.333 937.287 557.083 937.287C605.833 937.287 645.625 897.496 645.625 848.746C645.625 823.537 635 800.829 618.125 784.579C643.75 772.496 654.583 745.412 654.583 719.996ZM150.833 895.412C125 895.412 103.958 874.37 103.958 848.537C103.958 822.704 125 801.662 150.833 801.662C176.666 801.662 197.708 822.704 197.708 848.537C197.708 874.37 176.666 895.412 150.833 895.412ZM489.167 792.287L489.375 791.662H489.583C489.583 791.87 489.375 792.079 489.167 792.287ZM557.083 895.829C531.25 895.829 510.208 874.787 510.208 848.954C510.208 823.12 531.25 802.079 557.083 802.079C582.916 802.079 603.958 823.12 603.958 848.954C603.958 874.787 582.916 895.829 557.083 895.829Z" fill="black"/>
</svg>
