<svg width="1000" height="1000" viewBox="0 0 1000 1000" fill="none" xmlns="http://www.w3.org/2000/svg">
<path fill-rule="evenodd" clip-rule="evenodd" d="M937.083 266.254C933.541 209.588 908.541 162.088 866.666 132.921C825 103.754 771.875 96.4626 717.291 112.296C664.375 127.713 616.25 163.546 581.666 212.921C547.083 262.296 530 319.796 533.333 374.796C536.458 423.754 555.416 465.629 587.5 495.004L400.833 761.671C388.333 758.129 374.583 762.713 366.875 773.754L283.125 893.129C273.125 907.296 276.666 926.671 290.833 936.671L307.916 948.546C322.083 958.546 341.458 955.004 351.458 940.838L435.208 821.463C442.916 810.421 442.5 795.838 435 785.421L621.666 518.754C644.791 530.629 670.416 536.879 697.291 536.879C715.416 536.879 734.166 534.171 753.125 528.546C806.041 513.129 854.166 477.296 888.75 427.921C923.333 378.546 940.625 321.254 937.083 266.254ZM854.583 404.379C795.208 488.963 693.541 520.421 627.5 474.379C596.25 452.504 577.708 416.463 574.791 372.504C571.875 326.879 586.458 278.754 615.625 237.088C656.458 178.963 717.291 145.838 772.708 145.838C797.916 145.838 822.083 152.713 842.708 167.088C908.541 213.338 913.958 319.588 854.583 404.379Z" fill="black"/>
<path fill-rule="evenodd" clip-rule="evenodd" d="M331.042 479.167H521.667C517.917 472.917 514.583 466.458 511.667 459.792C500.417 434.792 493.75 407.292 491.875 377.917C487.708 313.542 507.5 246.667 547.5 189.375C583.542 137.917 632.708 99.1667 687.5 78.5417C687.083 69.5833 679.792 62.5 670.833 62.5H79.1667C70 62.5 62.5 70 62.5 79.1667V462.5C62.5 471.667 70 479.167 79.1667 479.167H84.5833C94.5833 420.208 146.042 375 207.917 375C269.792 375 321.042 420.208 331.042 479.167Z" fill="black"/>
<path d="M266.63 558.934C299.173 526.39 299.173 473.627 266.63 441.084C234.086 408.541 181.323 408.541 148.78 441.084C116.236 473.627 116.236 526.39 148.78 558.934C181.323 591.477 234.086 591.477 266.63 558.934Z" fill="black"/>
</svg>
