<svg width="1000" height="1000" viewBox="0 0 1000 1000" fill="none" xmlns="http://www.w3.org/2000/svg">
<path fill-rule="evenodd" clip-rule="evenodd" d="M936.454 292.505C929.579 232.088 890.621 178.963 813.746 125.213C736.663 71.2551 673.329 52.7134 614.371 67.0884C561.038 80.0051 512.079 120.422 460.204 194.38C391.454 292.713 347.704 395.005 340.412 445.422C332.496 498.547 346.662 691.672 350.829 743.963C339.579 742.297 327.704 746.88 320.621 756.88L236.871 876.255C226.871 890.422 230.412 909.797 244.579 919.797L261.662 931.672C275.829 941.672 295.204 938.13 305.204 923.963L388.954 804.588C396.038 794.588 396.246 781.672 390.621 771.672C441.454 757.505 627.704 705.213 674.787 679.588C719.579 655.422 800.829 579.38 869.788 481.047C921.454 407.297 942.704 347.297 936.454 292.505ZM391.246 728.338C388.329 690.63 384.788 636.88 382.288 586.047L528.121 688.13C479.579 703.13 427.704 718.13 391.246 728.338ZM835.621 457.297C779.163 538.13 701.454 617.922 654.996 643.13C641.454 650.422 612.913 660.838 578.121 672.297L380.204 533.755C379.163 497.297 379.163 466.88 381.454 451.672C389.163 399.38 437.704 299.172 494.162 218.338C539.787 153.13 581.038 117.922 623.954 107.713C633.329 105.422 642.912 104.38 652.704 104.38C692.079 104.38 736.454 122.297 789.579 159.588C855.829 206.047 889.371 249.797 894.788 297.505C899.996 341.255 881.246 392.088 835.621 457.297Z" fill="black"/>
<path d="M204.752 558.925C237.296 526.382 237.296 473.619 204.752 441.075C172.209 408.532 119.446 408.532 86.9024 441.075C54.359 473.619 54.359 526.382 86.9024 558.925C119.446 591.469 172.209 591.469 204.752 558.925Z" fill="black"/>
</svg>
