<svg width="1000" height="1000" viewBox="0 0 1000 1000" fill="none" xmlns="http://www.w3.org/2000/svg">
<path fill-rule="evenodd" clip-rule="evenodd" d="M916.664 895.833H83.3307C71.8723 895.833 62.4973 905.208 62.4973 916.667C62.4973 928.125 71.8723 937.5 83.3307 937.5H916.664C928.122 937.5 937.497 928.125 937.497 916.667C937.497 905.208 928.122 895.833 916.664 895.833Z" fill="black"/>
<path fill-rule="evenodd" clip-rule="evenodd" d="M502.082 224.79C459.582 285.624 438.332 356.249 442.707 423.957C444.166 445.415 447.916 465.624 454.166 484.582L448.332 661.04C436.666 658.749 423.957 663.332 416.666 673.749L332.916 793.124C322.916 807.29 326.457 826.665 340.624 836.665L357.707 848.54C371.874 858.54 391.249 854.999 401.249 840.832L484.999 721.457C492.291 711.04 492.291 697.707 486.249 687.499L649.999 621.665C669.791 621.04 690.207 617.707 710.832 611.665C775.832 592.707 834.999 548.54 877.707 487.707C920.207 426.874 941.457 356.249 937.082 288.54C932.707 219.165 902.291 161.457 851.249 125.832C800.416 90.207 735.624 81.2486 668.957 100.832C603.957 119.79 544.791 163.957 502.082 224.79ZM490.624 640.624L493.541 554.999C503.749 566.874 515.416 577.499 528.541 586.665C541.666 595.832 555.624 603.124 570.207 608.749L490.624 640.624ZM736.874 132.499C769.374 132.499 800.624 141.249 827.291 159.999C867.499 188.124 891.666 234.79 895.416 291.249C899.166 349.374 880.624 410.624 843.541 463.749C792.499 536.665 716.457 578.54 646.457 579.999C646.041 579.999 645.832 579.999 645.416 579.999C611.874 580.415 579.791 571.665 552.499 552.499C525.207 533.332 506.041 506.249 494.999 474.582C494.791 474.165 494.791 473.749 494.582 473.54C471.874 407.29 485.207 321.665 536.457 248.749C588.332 174.374 665.832 132.499 736.874 132.499Z" fill="black"/>
<path fill-rule="evenodd" clip-rule="evenodd" d="M331.664 479.167H409.372C405.206 462.292 402.289 444.583 401.247 426.458C396.456 352.292 418.331 275.208 462.914 208.333H166.664V381.875C179.789 377.292 193.747 374.792 208.331 374.792C270.206 374.792 321.872 420 331.664 479.167Z" fill="black"/>
<path fill-rule="evenodd" clip-rule="evenodd" d="M166.668 166.667H495.001C521.043 137.083 551.043 112.292 583.543 93.125L553.543 66.6667C550.418 63.9583 546.668 62.5 542.501 62.5H70.8349C63.3349 62.5 59.5849 71.4583 65.0016 76.6667L166.668 166.667Z" fill="black"/>
<path d="M282.9 537.031C303.481 495.868 286.797 445.813 245.633 425.231C204.469 404.65 154.415 421.334 133.833 462.498C113.251 503.662 129.936 553.716 171.1 574.298C212.263 594.88 262.318 578.195 282.9 537.031Z" fill="black"/>
</svg>
