<svg width="1000" height="1000" viewBox="0 0 1000 1000" fill="none" xmlns="http://www.w3.org/2000/svg">
<path d="M936.665 831.039C936.665 827.498 936.665 823.956 936.248 820.414C936.04 818.539 936.04 816.664 935.831 814.789C935.623 811.664 935.206 808.748 934.79 805.831C934.581 804.373 934.373 802.706 933.956 801.248C933.331 798.123 932.915 794.998 932.29 792.081C932.29 791.873 932.29 791.664 932.081 791.664C931.665 789.581 931.248 787.498 930.623 785.414C930.415 784.373 929.998 783.331 929.79 782.289C929.373 781.039 929.165 779.789 928.748 778.539C928.331 777.289 927.915 776.039 927.706 774.789C927.498 773.748 927.081 772.706 926.873 771.664C926.456 770.206 926.04 768.748 925.415 767.289C925.206 766.456 924.79 765.623 924.581 764.581C923.956 762.914 923.54 761.248 922.915 759.581C922.706 758.748 922.498 758.123 922.081 757.289C921.456 755.414 920.831 753.748 919.998 751.873C919.79 751.248 919.581 750.623 919.373 749.998C918.54 748.123 917.915 746.039 917.081 744.164C916.873 743.539 916.665 743.123 916.456 742.498C915.623 740.414 914.79 738.331 913.748 736.248C913.54 735.831 913.331 735.414 913.123 734.998C912.081 732.706 911.248 730.623 910.206 728.331C909.998 727.914 909.998 727.706 909.79 727.289C908.748 724.998 907.706 722.498 906.456 720.206C906.248 719.998 906.248 719.789 906.04 719.581C904.79 717.081 903.748 714.581 902.498 712.081C902.498 711.873 902.29 711.664 902.29 711.664C901.04 709.164 899.79 706.456 898.331 703.956C898.331 703.956 898.331 703.748 898.123 703.748C896.665 701.039 895.415 698.331 893.956 695.623C889.581 687.289 884.998 678.956 879.998 670.414C903.331 618.539 916.248 560.831 916.248 500.206C916.248 269.998 729.79 83.5393 499.581 83.5393C430.206 83.5393 364.581 100.623 307.081 130.623C307.29 130.623 307.29 130.414 307.498 130.414C295.623 124.373 284.165 118.956 272.915 114.164C270.206 112.914 267.498 111.873 264.79 110.623H264.581C261.873 109.581 259.373 108.539 256.665 107.498C256.456 107.498 256.456 107.289 256.248 107.289C253.748 106.248 251.248 105.414 248.748 104.373C248.54 104.373 248.331 104.164 248.123 104.164C245.831 103.331 243.331 102.289 241.04 101.456C240.623 101.248 240.415 101.248 239.998 101.039C237.706 100.206 235.415 99.3726 233.331 98.7476C232.915 98.5393 232.498 98.5393 232.081 98.331C229.998 97.706 227.915 96.8726 225.831 96.2476C225.206 96.0393 224.79 95.831 224.165 95.831C222.29 95.206 220.206 94.581 218.331 94.1643C217.706 93.956 217.081 93.7476 216.456 93.5393C214.581 93.1226 212.915 92.4976 211.04 92.081C210.206 91.8726 209.581 91.6643 208.956 91.456C207.29 91.0393 205.623 90.6226 203.956 90.206C203.123 89.9976 202.29 89.7893 201.456 89.581C199.998 89.1643 198.331 88.956 196.873 88.5393C195.831 88.331 194.998 88.1226 193.956 87.9143C192.498 87.706 191.248 87.2893 189.79 87.081C188.748 86.8726 187.706 86.6643 186.456 86.456C185.206 86.2476 184.165 86.0393 182.915 85.831C180.623 85.4143 178.331 85.206 176.04 84.7893C175.831 84.7893 175.831 84.7893 175.623 84.7893C173.331 84.581 171.248 84.3726 168.956 84.1643C168.748 84.1643 168.54 84.1643 168.331 84.1643C166.04 83.956 163.748 83.7476 161.456 83.7476C161.248 83.7476 161.04 83.7476 160.831 83.7476C158.331 83.5393 156.04 83.5393 153.54 83.5393H153.331C151.873 83.5393 150.206 83.5393 148.748 83.5393C148.331 83.5393 148.123 83.5393 147.706 83.5393C146.456 83.5393 144.998 83.7476 143.748 83.7476C143.54 83.7476 143.123 83.7476 142.915 83.7476C141.456 83.956 139.79 83.956 138.331 84.1643C138.123 84.1643 137.706 84.1643 137.498 84.1643C136.248 84.3726 134.79 84.3726 133.54 84.581C133.123 84.581 132.915 84.581 132.498 84.7893C131.04 84.9976 129.373 85.206 127.915 85.6226C127.706 85.6226 127.498 85.6226 127.498 85.6226C126.04 85.831 124.79 86.2476 123.331 86.456C122.915 86.456 122.706 86.6643 122.29 86.6643C119.165 87.4976 116.04 88.331 113.123 89.1643C112.915 89.3726 112.498 89.581 112.081 89.581C110.831 89.9976 109.373 90.6226 108.123 91.0393C107.915 91.0393 107.706 91.2476 107.498 91.2476C106.04 91.8726 104.581 92.4976 103.123 93.1226C102.706 93.331 102.498 93.5393 102.081 93.5393C100.831 94.1643 99.5814 94.7893 98.3314 95.4143C98.123 95.6226 97.9147 95.831 97.7064 95.831C96.248 96.6643 94.7897 97.4976 93.5397 98.331C93.3314 98.5393 92.9147 98.7476 92.7064 98.7476C91.4564 99.581 90.4147 100.206 89.1647 101.039C88.748 101.248 88.5397 101.456 88.123 101.664C86.873 102.706 85.4147 103.539 84.1647 104.789C83.9564 104.998 83.748 104.998 83.748 105.206C82.498 106.248 81.4564 107.081 80.4147 108.123C79.998 108.331 79.7897 108.748 79.373 108.956C78.123 110.206 76.873 111.456 75.623 112.706C56.0397 133.539 49.998 160.206 50.4147 184.998C50.623 198.123 52.2897 210.623 54.7897 221.664C62.7064 257.706 80.8314 300.206 108.956 347.914C109.581 348.956 110.206 349.998 110.831 350.831C93.123 397.289 83.3314 447.498 83.3314 499.998C83.3314 730.206 269.79 916.664 499.998 916.664C561.04 916.664 619.165 903.539 671.456 879.789C672.498 880.414 673.54 880.831 674.581 881.456C723.748 906.664 767.29 922.498 803.748 928.331C812.706 929.789 822.706 930.831 833.123 930.831C860.206 930.831 889.581 924.164 911.248 901.248C930.415 880.831 936.456 855.414 936.665 831.039C936.665 831.248 936.665 831.248 936.665 831.039ZM625.831 243.956C627.706 241.873 629.581 239.581 631.456 237.498C637.915 230.831 644.581 224.581 651.456 218.331L652.706 217.081C655.415 214.581 658.123 212.081 660.831 209.789C666.665 204.789 673.54 199.373 679.79 194.789C705.206 209.789 728.956 228.123 750.415 249.581C817.29 316.456 854.165 405.414 854.165 499.998C854.165 517.081 852.915 534.164 850.623 550.831C821.04 443.331 750.623 348.539 650.415 290.623C635.831 282.081 620.623 274.789 605.415 268.331C609.79 262.706 614.373 257.289 618.956 251.873C619.998 250.623 621.04 249.373 622.29 248.123C623.54 246.664 624.581 245.414 625.831 243.956ZM193.331 677.289C172.915 641.873 158.748 603.331 151.456 562.914C153.331 563.539 155.206 564.164 157.081 564.789C158.54 565.206 159.998 565.623 161.248 566.248C163.123 566.873 164.79 567.498 166.665 568.123C169.79 569.164 172.915 570.206 176.04 571.039C176.873 571.248 177.498 571.456 178.331 571.664C178.748 571.873 179.373 571.873 179.79 572.081C181.04 572.498 182.498 572.706 183.748 572.914C184.581 573.123 185.623 573.331 186.456 573.539C193.748 575.414 201.04 577.081 208.331 578.539C209.373 578.748 210.415 578.956 211.456 579.373C213.123 579.789 214.79 580.206 216.456 580.414C216.873 580.414 217.081 580.623 217.498 580.623H217.915H218.331H218.54C220.206 580.831 221.873 581.039 223.331 581.248C224.581 581.456 225.831 581.456 226.873 581.664C236.248 583.123 245.415 584.373 254.998 585.206C255.415 585.206 256.04 585.206 256.456 585.414C256.873 585.414 257.498 585.623 257.915 585.623C268.54 586.456 279.165 587.081 290.206 587.289C290.415 587.289 290.831 587.289 291.04 587.289C291.456 587.289 291.665 587.289 292.081 587.289C293.748 587.289 295.206 587.289 296.873 587.289C297.915 588.539 299.165 589.581 300.206 590.831C300.415 591.039 300.831 591.456 301.04 591.664C305.206 595.831 309.373 600.206 313.54 604.373C314.581 605.414 315.623 606.456 316.665 607.706C320.623 611.664 324.79 615.831 328.748 619.789C328.956 619.998 329.165 620.206 329.581 620.623C333.748 624.789 338.123 628.956 342.498 633.123C343.748 634.164 344.79 635.414 346.04 636.456C350.206 640.414 354.581 644.581 358.748 648.539C358.956 648.748 358.956 648.748 359.165 648.956C359.373 649.164 359.373 649.164 359.581 649.373C363.956 653.331 368.123 657.498 372.498 661.456C373.748 662.498 374.79 663.748 376.04 664.789C380.415 668.748 384.79 672.914 389.373 676.873C389.581 677.081 389.998 677.498 390.206 677.706C394.373 681.456 398.748 685.206 402.915 688.956C404.165 689.998 405.206 691.039 406.456 692.081C410.831 696.039 415.415 699.998 419.79 703.748C420.206 703.956 420.415 704.373 420.831 704.581C424.998 708.331 429.373 711.873 433.54 715.414C434.581 716.248 435.623 717.289 436.665 718.123C440.831 721.664 444.998 725.206 449.165 728.539C362.081 742.706 270.623 725.206 193.331 677.289ZM145.831 496.873C146.04 470.206 149.165 443.956 155.206 418.539C158.54 423.123 161.665 427.498 164.998 432.081C165.206 432.498 165.623 432.914 165.831 433.123C169.165 437.498 172.498 442.081 175.831 446.456C179.373 451.039 182.915 455.623 186.456 460.206C186.873 460.623 187.081 461.039 187.498 461.664C191.04 466.039 194.581 470.623 198.123 475.206C201.873 479.789 205.415 484.373 209.165 488.956C209.581 489.581 210.206 490.206 210.623 490.623C214.165 494.998 217.915 499.373 221.665 503.748L221.873 503.956C225.623 508.539 229.581 512.914 233.331 517.498C233.956 518.123 234.581 518.956 235.206 519.581C236.248 520.623 237.29 521.873 238.123 522.914C233.748 522.081 229.373 521.248 224.998 520.414C223.331 519.998 221.873 519.789 220.206 519.373C218.54 518.956 216.665 518.748 214.998 518.331C212.081 517.914 209.165 517.289 206.456 516.664C197.498 514.581 188.748 511.873 179.79 508.956C175.831 507.706 171.665 506.456 167.706 504.998C160.623 503.123 153.123 500.206 145.831 496.873ZM499.998 854.164C419.581 854.164 343.123 827.498 280.831 778.331C354.998 797.289 435.623 797.081 509.581 775.831C510.415 776.456 511.04 776.873 511.873 777.498C512.081 777.706 512.081 777.706 512.29 777.914C516.873 781.248 521.456 784.789 526.04 788.123C526.665 788.539 527.29 788.956 527.915 789.581C532.706 793.123 537.498 796.456 542.081 799.789L542.29 799.998C546.873 803.331 551.665 806.456 556.248 809.789C556.665 810.206 557.29 810.414 557.706 810.831C562.498 814.164 567.29 817.289 571.873 820.623C571.873 820.623 572.081 820.623 572.081 820.831C576.665 823.956 581.248 827.081 586.04 829.998C586.456 830.206 586.873 830.623 587.29 830.831C592.081 833.956 596.665 836.873 601.456 839.789C568.956 849.164 534.79 854.164 499.998 854.164ZM855.206 834.164C855.206 834.164 855.206 834.373 855.206 834.164C855.206 834.789 855.206 835.206 854.998 835.831C854.998 836.039 854.998 836.248 854.998 836.248C854.998 836.664 854.998 837.081 854.79 837.498C854.79 837.706 854.79 837.914 854.79 838.123C854.79 838.539 854.581 838.748 854.581 839.164C854.581 839.373 854.581 839.581 854.373 839.789C854.373 840.206 854.165 840.623 854.165 840.831C854.165 841.248 853.956 841.456 853.956 841.664C853.956 841.873 853.956 841.873 853.748 842.081C853.748 842.289 853.54 842.498 853.54 842.706C853.54 842.914 853.331 842.914 853.331 843.123C853.331 843.331 853.123 843.539 853.123 843.748C853.123 843.748 853.123 843.956 852.915 843.956C852.915 844.164 852.706 844.373 852.706 844.373C852.706 844.373 852.706 844.581 852.498 844.581C852.29 844.789 852.29 844.998 852.081 845.206C851.873 845.414 851.873 845.414 851.665 845.623C851.665 845.623 851.665 845.623 851.456 845.623C851.248 845.831 851.04 845.831 850.831 846.039C850.623 846.248 850.206 846.456 849.998 846.456C849.998 846.456 849.998 846.456 849.79 846.456C849.581 846.664 849.165 846.664 848.748 846.873H848.54C847.706 847.081 846.873 847.498 845.831 847.706H845.623C844.581 847.914 843.331 848.123 842.081 848.331C841.873 848.331 841.873 848.331 841.665 848.331C841.04 848.331 840.415 848.539 839.79 848.539H839.581C838.748 848.539 838.123 848.748 837.29 848.748H837.081C836.456 848.748 835.623 848.748 834.79 848.748C834.581 848.748 834.373 848.748 834.373 848.748C833.748 848.748 833.123 848.748 832.498 848.748C832.081 848.748 831.665 848.748 831.248 848.748C830.623 848.748 829.998 848.748 829.373 848.748C828.956 848.748 828.54 848.748 828.123 848.748C827.498 848.748 826.665 848.748 826.04 848.539C825.623 848.539 825.206 848.539 824.581 848.331C823.748 848.331 823.123 848.123 822.29 848.123C821.873 848.123 821.248 847.914 820.831 847.914C819.998 847.914 819.165 847.706 818.54 847.498C817.915 847.498 817.498 847.289 816.873 847.289C816.04 847.081 815.206 847.081 814.373 846.873C813.748 846.873 813.123 846.664 812.706 846.664C811.873 846.456 811.04 846.248 809.998 846.248C809.373 846.039 808.748 846.039 808.123 845.831C807.29 845.623 806.248 845.414 805.415 845.206C803.331 844.789 801.248 844.164 798.956 843.748C798.748 843.748 798.54 843.539 798.331 843.539C797.29 843.331 796.248 842.914 795.206 842.706C794.373 842.498 793.748 842.289 793.123 842.081C792.081 841.873 791.04 841.456 789.998 841.039C789.165 840.831 788.331 840.623 787.498 840.414C786.456 839.998 785.206 839.789 784.165 839.373C783.331 839.164 782.498 838.748 781.665 838.539C780.623 838.123 779.373 837.706 778.123 837.289C777.29 836.873 776.248 836.664 775.415 836.248C774.165 835.831 773.123 835.414 771.873 834.998C770.831 834.581 769.998 834.373 768.956 833.956C767.706 833.539 766.456 833.123 765.206 832.498C764.165 832.081 763.123 831.664 762.081 831.248C760.831 830.831 759.581 830.206 758.331 829.789C757.498 829.373 756.665 829.164 755.831 828.748C755.415 828.539 755.206 828.539 754.79 828.331C754.165 828.123 753.54 827.706 752.915 827.498C751.04 826.664 749.165 825.831 747.29 824.998C746.873 824.789 746.456 824.581 746.04 824.581C743.748 823.539 741.456 822.498 739.165 821.456C738.54 821.248 737.915 820.831 737.29 820.623C734.998 819.581 732.706 818.539 730.206 817.289C729.998 817.289 729.998 817.081 729.79 817.081C727.29 815.831 724.581 814.581 722.081 813.331C721.456 813.123 721.04 812.706 720.415 812.498C717.706 811.248 714.998 809.789 712.29 808.331C712.081 808.123 711.873 808.123 711.665 807.914C708.54 806.248 705.415 804.789 702.498 803.123C702.081 802.914 701.873 802.706 701.456 802.498C698.331 800.831 695.206 799.164 692.081 797.289C692.081 797.289 692.081 797.289 691.873 797.289C691.873 797.289 691.665 797.289 691.665 797.081C689.165 795.623 686.456 794.164 683.956 792.706C679.998 790.414 676.04 788.123 672.081 785.831C654.373 775.414 636.456 764.164 617.915 751.664C617.706 751.456 617.498 751.456 617.29 751.248C614.79 749.581 612.29 747.914 609.79 746.248C609.373 746.039 608.956 745.623 608.331 745.414C606.04 743.748 603.54 742.289 601.248 740.623C600.623 740.206 599.998 739.789 599.373 739.373C597.081 737.706 594.79 736.248 592.706 734.581C592.081 734.164 591.248 733.539 590.623 733.123C588.331 731.664 586.248 729.998 583.956 728.331C583.123 727.706 582.498 727.289 581.665 726.664C579.581 725.206 577.29 723.539 575.206 721.873C574.373 721.248 573.54 720.623 572.706 719.998C570.623 718.331 568.331 716.873 566.248 715.206C565.415 714.581 564.581 713.956 563.748 713.331C561.665 711.664 559.373 709.998 557.29 708.331C556.456 707.706 555.831 707.289 554.998 706.664C552.706 704.998 550.415 703.331 548.331 701.456C547.915 701.039 547.29 700.623 546.873 700.206C539.373 694.581 532.081 688.748 524.581 682.706C523.54 681.873 522.706 681.248 521.665 680.414C519.998 678.956 518.331 677.706 516.456 676.248C514.998 675.206 513.748 673.956 512.29 672.914C510.623 671.664 509.165 670.206 507.498 668.956C506.04 667.706 504.581 666.456 503.123 665.206C501.665 663.956 499.998 662.706 498.54 661.456C496.873 660.206 495.415 658.748 493.748 657.498C492.29 656.248 490.831 654.998 489.373 653.748C487.706 652.289 486.04 651.039 484.373 649.581C482.915 648.331 481.456 647.081 480.206 646.039C478.54 644.581 476.873 643.123 475.206 641.664C473.748 640.414 472.498 639.373 471.04 638.123C469.373 636.664 467.498 634.998 465.831 633.539C464.581 632.289 463.123 631.248 461.873 629.998C459.998 628.331 458.331 626.873 456.456 625.206C455.206 624.164 453.956 622.914 452.706 621.873C450.831 620.206 448.956 618.539 447.081 616.873C445.831 615.831 444.79 614.789 443.54 613.748C441.456 611.873 439.373 609.998 437.498 608.123C436.456 607.289 435.415 606.248 434.373 605.414C432.081 603.331 429.581 601.039 427.29 598.956C426.665 598.331 425.831 597.706 425.206 597.081C422.081 594.164 418.956 591.248 416.04 588.331C412.915 585.414 409.998 582.498 406.873 579.581C406.248 578.956 405.415 578.331 404.79 577.498C402.498 575.206 400.206 573.123 397.915 570.831C396.873 569.789 395.831 568.956 394.998 567.914C393.123 566.039 391.04 564.164 389.165 562.081C388.123 561.039 386.873 559.789 385.831 558.748C383.956 556.873 382.29 555.206 380.415 553.331C379.165 552.081 378.123 551.039 376.873 549.789C375.206 548.123 373.54 546.456 371.873 544.789C370.623 543.539 369.373 542.289 368.123 541.039C366.456 539.373 364.998 537.706 363.331 536.039C362.081 534.789 360.831 533.331 359.581 532.081C358.123 530.414 356.456 528.956 354.998 527.289C353.748 525.831 352.29 524.581 351.04 523.123C350.415 522.498 349.79 521.664 348.956 521.039C348.123 520.206 347.29 519.373 346.665 518.539C345.415 517.081 343.956 515.623 342.706 514.373C341.248 512.914 339.998 511.456 338.54 509.998C337.081 508.539 335.831 507.081 334.373 505.623C333.123 504.164 331.873 502.914 330.415 501.456C328.956 499.998 327.498 498.331 326.248 496.873C325.206 495.623 323.956 494.373 322.915 493.123C321.456 491.456 319.79 489.789 318.331 488.123C317.498 487.289 316.873 486.456 316.04 485.623C312.081 481.039 307.915 476.664 304.165 472.081C301.873 469.373 299.373 466.664 297.081 463.956C296.665 463.539 296.248 463.123 296.04 462.706C294.165 460.414 292.29 458.331 290.415 456.039C289.79 455.414 289.373 454.789 288.748 454.164C286.873 452.081 285.206 449.998 283.331 447.706C282.706 447.081 282.081 446.248 281.456 445.623C279.79 443.539 277.915 441.456 276.248 439.373C275.623 438.539 274.998 437.914 274.373 437.081C272.706 434.998 270.831 432.914 269.165 430.831C268.54 430.206 267.915 429.373 267.498 428.748C265.831 426.664 263.956 424.373 262.29 422.289C261.873 421.664 261.248 421.039 260.831 420.414C259.165 418.123 257.29 416.039 255.623 413.748C255.206 413.123 254.79 412.706 254.373 412.081C252.915 410.206 251.456 408.331 249.998 406.456C249.581 406.039 249.373 405.623 248.956 405.206C248.748 404.789 248.331 404.373 248.123 404.164C246.248 401.664 244.373 399.373 242.498 396.873C242.29 396.664 242.29 396.664 242.081 396.456C223.54 372.081 206.873 348.331 192.498 325.206C192.498 325.206 192.498 325.206 192.498 324.998C190.623 321.873 188.54 318.748 186.665 315.623C186.456 315.414 186.248 314.998 186.248 314.789C184.373 311.664 182.498 308.539 180.623 305.414L180.415 305.206C178.956 302.498 177.29 299.998 175.831 297.498C175.415 296.873 174.998 296.248 174.79 295.623C173.54 293.331 172.29 291.039 171.04 288.748C170.623 288.123 170.415 287.498 169.998 286.873C169.165 285.206 168.123 283.539 167.29 281.873C166.665 280.831 166.248 279.789 165.623 278.748C164.998 277.706 164.373 276.456 163.956 275.414C162.915 273.331 161.873 271.248 160.831 269.373C160.623 268.748 160.206 268.123 159.998 267.498C159.373 266.039 158.54 264.789 157.915 263.331C157.915 263.331 157.915 263.331 157.915 263.123C154.165 255.206 150.831 247.914 148.123 241.039C148.123 241.039 148.123 240.831 147.915 240.831C147.29 239.164 146.665 237.498 146.04 236.039V235.831C144.998 232.914 143.956 230.206 142.915 227.498C140.623 221.039 138.748 214.998 137.498 209.581C136.873 206.873 136.248 204.373 135.623 201.873C134.998 198.748 134.373 195.623 134.165 192.914C133.956 192.081 133.956 191.039 133.956 190.206V189.998C133.956 189.164 133.748 188.331 133.748 187.498C133.54 185.831 133.54 184.373 133.54 182.914C133.54 181.456 133.54 180.206 133.54 178.956C133.54 178.748 133.54 178.539 133.54 178.539C133.54 178.123 133.54 177.706 133.748 177.081C133.748 176.873 133.748 176.664 133.748 176.456C133.748 176.039 133.748 175.623 133.956 175.206C133.956 174.998 133.956 174.789 133.956 174.581C133.956 174.164 134.165 173.956 134.165 173.539C134.165 173.331 134.165 173.123 134.373 172.914C134.581 172.289 134.581 171.873 134.79 171.456C134.79 171.248 134.998 171.039 134.998 170.831C134.998 170.623 135.206 170.414 135.206 170.206C135.206 169.998 135.415 169.789 135.415 169.581C135.415 169.373 135.623 169.373 135.623 169.164C135.623 168.956 135.831 168.748 135.831 168.748C135.831 168.539 136.04 168.539 136.04 168.331C136.04 168.123 136.248 168.123 136.248 167.914L136.456 167.706C136.665 167.498 136.665 167.289 136.873 167.289C138.54 165.414 144.373 163.123 155.623 163.123C156.456 163.123 157.29 163.123 158.331 163.123C158.54 163.123 158.748 163.123 158.956 163.123C159.79 163.123 160.831 163.123 161.873 163.331C162.915 163.331 163.956 163.539 164.998 163.539C165.206 163.539 165.206 163.539 165.415 163.539C166.456 163.539 167.498 163.748 168.748 163.956C169.998 164.164 171.248 164.373 172.498 164.373H172.706C173.956 164.581 175.206 164.789 176.665 164.998C188.331 169.164 206.248 174.164 229.165 183.331C217.498 193.331 206.248 203.956 195.831 215.414C189.581 213.331 183.956 211.664 178.956 210.206C180.623 215.206 182.498 220.831 185.206 227.081C191.456 242.081 200.831 261.456 214.998 285.414C215.415 286.248 216.04 287.081 216.456 287.706C226.456 274.164 237.706 261.456 249.79 249.373C284.373 214.789 324.998 188.123 369.165 170.623C318.748 221.664 280.831 285.206 260.623 354.373C274.998 374.164 290.831 394.373 307.915 414.998C326.248 300.831 396.873 200.831 499.79 145.623C499.998 145.623 499.998 145.623 500.206 145.623C541.665 145.623 582.081 152.706 620.206 166.248C618.956 167.498 617.29 168.956 616.04 169.998C614.79 171.039 613.54 172.289 612.29 173.331C610.831 174.581 609.373 176.039 607.915 177.289C605.415 179.373 603.123 181.456 600.831 183.748C599.998 184.581 598.956 185.623 598.123 186.456C597.081 187.289 596.248 188.331 595.415 189.373C594.79 190.206 593.956 190.831 593.331 191.664C588.123 197.081 583.123 202.498 578.123 208.123C577.29 208.956 576.456 209.998 575.623 210.831C574.581 211.873 573.54 212.914 572.498 214.164C572.29 214.373 572.081 214.581 571.873 214.998C571.665 215.206 571.456 215.623 571.248 215.831C570.206 217.081 569.165 218.331 568.331 219.581C567.498 220.623 566.873 221.664 566.04 222.498C560.206 229.789 554.373 237.289 548.956 244.998C548.748 245.414 548.331 245.831 548.123 246.039C547.706 246.456 547.498 246.873 547.081 247.498C541.04 256.248 535.206 265.206 529.581 274.373C529.373 274.789 529.165 274.998 528.956 275.414L528.748 275.623C528.748 275.831 528.54 275.831 528.54 276.039C507.29 312.706 492.706 352.289 483.123 393.331C483.123 393.748 482.915 393.956 482.915 394.373C482.706 394.789 482.706 394.998 482.498 395.414C482.29 396.664 481.873 398.123 481.665 399.373C481.456 399.998 481.456 400.831 481.248 401.456C478.54 414.373 476.248 427.289 474.581 440.414C474.373 441.248 474.373 442.081 474.165 443.123C473.956 444.164 473.748 445.206 473.748 446.248C473.54 448.539 473.54 450.623 473.331 452.914C473.331 454.581 473.331 456.456 473.123 458.123C472.915 461.039 472.498 463.748 472.29 466.664C471.873 471.248 471.248 475.831 471.248 480.414C464.79 483.956 458.331 487.289 451.873 490.414C449.998 491.248 448.123 492.289 446.248 493.123C442.706 494.789 438.956 496.664 435.415 498.123C429.373 500.623 423.331 502.706 417.081 504.581C415.206 505.206 413.331 505.831 411.456 506.456C406.456 508.123 401.248 509.789 396.248 511.248C411.665 526.873 427.706 542.706 444.165 558.123C450.415 555.831 456.456 553.331 462.706 550.831C463.54 550.414 464.373 550.206 465.206 549.789C466.248 549.373 467.29 549.164 468.123 548.748C469.998 547.914 472.081 546.873 473.956 545.831C475.623 544.998 477.081 544.164 478.748 543.331C481.248 542.081 483.748 541.039 486.248 539.998C490.623 538.123 494.998 536.248 498.956 533.956C505.206 537.706 511.456 541.664 517.29 545.831C518.748 546.873 520.206 547.706 521.665 548.748C525.206 551.039 528.748 553.539 532.081 556.039C536.873 559.789 541.456 563.748 546.04 567.914C547.706 569.373 549.581 571.039 551.248 572.498C577.29 595.623 600.206 621.664 618.956 651.039C619.165 651.456 619.373 651.664 619.581 651.873L619.79 652.289L619.998 652.498L620.206 652.706C608.956 661.456 597.498 669.789 584.998 677.498C602.498 690.623 619.79 703.123 636.873 714.581C640.831 711.873 644.79 708.956 648.54 706.248C651.456 713.123 653.748 720.206 656.248 727.289C656.248 727.498 656.248 727.498 656.456 727.706C681.248 743.748 705.623 757.914 728.748 769.998C728.956 769.789 729.165 769.581 729.373 769.373C728.956 767.498 728.54 765.831 728.123 763.956C727.706 762.498 727.498 760.831 727.081 759.373C726.665 757.498 726.456 755.831 726.04 753.956C725.415 750.623 724.79 747.289 723.956 744.164C723.54 742.914 723.331 741.664 722.915 740.414C722.706 739.164 722.29 738.123 721.873 736.873C721.456 735.831 721.248 734.789 720.831 733.748C718.748 726.456 716.456 719.373 714.165 712.289C713.748 711.039 713.331 709.789 713.123 708.748C712.706 707.289 712.29 706.039 711.873 704.581C711.665 704.164 711.665 703.956 711.456 703.539C711.248 703.123 711.248 702.914 711.04 702.498C710.415 701.039 709.79 699.581 709.165 698.123C708.748 696.873 708.123 695.831 707.706 694.581C704.373 685.831 700.831 677.081 696.665 668.539C696.456 668.123 696.248 667.706 696.04 667.289C695.831 666.664 695.623 666.248 695.415 665.623C690.831 656.039 686.248 646.456 680.831 637.081C680.623 636.873 680.623 636.664 680.415 636.248C680.206 635.831 679.998 635.414 679.79 635.206C658.54 598.539 631.665 566.039 601.04 537.081C600.831 536.873 600.415 536.456 600.206 536.248C599.998 536.039 599.581 535.623 599.373 535.414C598.331 534.373 597.081 533.331 595.831 532.289C595.415 531.873 594.998 531.664 594.581 531.248C584.79 522.498 574.79 513.956 564.165 506.039C563.331 505.414 562.706 504.789 562.081 504.164C561.248 503.539 560.415 502.914 559.581 502.289C557.706 501.039 555.831 499.789 553.956 498.748C552.498 497.914 550.831 496.873 549.373 495.831C547.081 494.164 544.79 492.706 542.498 491.039C538.748 488.331 534.998 485.623 531.04 483.123C531.248 475.831 531.456 468.539 532.081 461.248C532.29 459.164 532.29 457.289 532.498 455.206C532.706 451.248 533.123 447.081 533.54 443.123C534.373 436.456 535.831 429.998 537.081 423.539C537.498 421.873 537.706 419.998 538.123 418.331C544.998 384.373 556.248 351.456 572.29 320.623C572.498 320.206 572.706 319.789 572.915 319.373C573.123 319.164 573.123 318.748 573.331 318.539C589.373 324.998 605.206 332.289 620.623 341.039C740.415 410.206 811.04 539.581 806.873 676.039C791.456 702.498 772.706 727.081 750.415 749.373C743.331 756.456 735.831 763.331 728.123 769.789C728.956 770.206 729.79 770.623 730.623 771.039C755.415 783.748 774.998 791.873 790.415 797.081C796.873 799.373 802.706 801.039 807.706 802.289C806.248 797.498 804.165 791.873 801.665 785.623C806.04 781.039 810.415 776.248 814.581 771.456L814.79 771.248C816.665 768.956 818.748 766.664 820.623 764.373C821.04 763.956 821.456 763.539 821.665 762.914C823.331 760.831 825.206 758.539 826.873 756.456C827.29 755.831 827.706 755.414 828.123 754.789C829.165 753.331 830.415 751.873 831.456 750.414C848.123 785.414 853.748 809.373 854.79 824.164C854.998 826.039 854.998 827.706 854.998 829.373C855.415 832.081 855.415 833.123 855.206 834.164Z" fill="black"/>
</svg>
