<svg width="1000" height="1000" viewBox="0 0 1000 1000" fill="none" xmlns="http://www.w3.org/2000/svg">
<path fill-rule="evenodd" clip-rule="evenodd" d="M729.166 62.5C614.166 62.5 520.833 155.833 520.833 270.833C520.833 385.833 614.166 479.167 729.166 479.167C844.166 479.167 937.499 385.833 937.499 270.833C937.499 155.833 844.166 62.5 729.166 62.5ZM823.749 286.458C827.083 323.75 841.874 357.708 864.583 384.792C857.916 392.708 850.416 400.208 842.291 406.875C813.958 374.167 795.833 332.292 792.499 286.458H744.791V447.292C739.583 447.708 734.375 447.917 729.166 447.917C723.958 447.917 718.75 447.708 713.541 447.292V286.458H665.833C662.5 332.292 644.166 374.167 616.041 406.875C607.916 400.208 600.625 392.708 593.75 384.792C616.458 357.708 631.25 323.75 634.583 286.458H552.916C552.5 281.25 552.291 276.042 552.291 270.833C552.291 265.625 552.5 260.417 552.916 255.208H634.583C631.25 217.917 616.458 183.958 593.75 156.875C600.416 148.958 607.916 141.458 616.041 134.792C644.375 167.5 662.5 209.375 665.833 255.208H713.541V94.375C718.75 93.9583 723.958 93.75 729.166 93.75C734.375 93.75 739.583 93.9583 744.791 94.375V255.208H792.499C795.833 209.375 814.166 167.5 842.291 134.792C850.416 141.458 857.708 148.958 864.583 156.875C841.874 183.958 827.083 217.917 823.749 255.208H905.416C905.833 260.417 906.041 265.625 906.041 270.833C906.041 276.042 905.833 281.25 905.416 286.458H823.749Z" fill="black"/>
<path fill-rule="evenodd" clip-rule="evenodd" d="M798.543 765.624C794.168 762.499 791.668 757.499 791.668 752.082V666.666C791.668 621.041 752.918 589.582 712.084 578.749C659.376 564.582 605.626 554.999 553.959 537.082C502.709 519.374 451.043 495.207 426.043 444.374C406.043 403.749 394.584 285.416 390.834 229.166C390.834 228.957 390.834 228.957 390.834 228.749C391.251 220.416 387.293 212.291 379.376 209.999C351.251 201.874 325.626 223.124 325.626 249.999V254.166C325.626 263.332 318.126 270.832 308.959 270.832H187.293C144.584 270.832 108.751 303.124 104.376 345.832L104.168 661.249C103.959 708.332 135.626 729.166 172.293 729.166L183.334 729.582C123.126 734.166 98.5427 777.916 84.5844 809.999C79.7927 821.041 87.9177 833.332 99.7927 833.332H103.959C103.959 879.374 141.251 916.666 187.293 916.666C233.334 916.666 270.626 879.374 270.626 833.332H291.459C291.459 879.374 328.751 916.666 374.793 916.666C420.834 916.666 458.126 879.374 458.126 833.332H478.959C478.959 879.374 516.251 916.666 562.293 916.666C608.334 916.666 645.626 879.374 645.626 833.332H666.459C666.459 881.249 707.293 919.999 755.834 916.457C797.084 913.541 830.418 879.791 832.918 838.332C835.001 808.541 820.834 781.666 798.543 765.624ZM187.501 874.999C164.584 874.999 145.834 856.249 145.834 833.332H229.168C229.168 856.249 210.418 874.999 187.501 874.999ZM375.001 874.999C352.084 874.999 333.334 856.249 333.334 833.332H416.668C416.668 856.249 397.918 874.999 375.001 874.999ZM562.501 874.999C539.584 874.999 520.834 856.249 520.834 833.332H604.168C604.168 856.249 585.418 874.999 562.501 874.999ZM266.668 749.999C257.501 749.999 250.001 742.499 250.001 733.332V724.999C250.001 715.832 257.501 708.332 266.668 708.332H712.501C721.668 708.332 729.168 715.832 729.168 724.999V733.332C729.168 742.499 721.668 749.999 712.501 749.999H266.668ZM750.001 874.999C727.084 874.999 708.334 856.249 708.334 833.332H791.668C791.668 856.249 772.918 874.999 750.001 874.999Z" fill="black"/>
</svg>
