<svg width="1000" height="1000" viewBox="0 0 1000 1000" fill="none" xmlns="http://www.w3.org/2000/svg">
<g clip-path="url(#clip0)">
<path d="M370 110.62C397.5 71.2449 446.666 62.4949 486.041 90.2032C525.416 117.703 534.166 166.87 506.458 206.245C478.958 245.62 430.208 254.578 390.833 226.87C351.666 199.37 342.5 149.995 370 110.62ZM983.125 555.412H818.75C811.875 555.412 805.833 551.245 803.333 544.995C793.333 519.995 772.5 473.953 739.791 427.703C673.75 334.162 590.833 284.578 500 284.578C499.583 284.578 498.958 284.578 498.541 284.578H145.833C122.291 284.578 103.333 304.162 104.166 327.703C105 350.203 124.166 367.912 146.875 367.912H177.916L643.958 694.37C646.666 694.37 649.583 694.162 652.291 694.162C727.083 694.162 771.041 717.703 806.25 736.453C830 749.162 849.583 759.578 880 762.912C879.166 759.162 876.875 755.62 873.333 753.12L781.666 688.953C750.833 667.287 712.5 658.745 675.416 665.412L250.625 367.912H466.458C472.291 367.912 477.916 371.037 480.833 376.245L567.916 540.203L686.041 622.078C690.625 621.662 695.208 621.453 700 621.453C737.916 621.453 774.375 632.912 805.625 654.787L843.541 681.245C898.125 653.745 951.25 620.62 993.958 584.995C1006.04 574.995 998.958 555.412 983.125 555.412ZM916.25 805.412C852.916 808.537 820.833 791.453 786.666 773.328C750.833 754.162 710.416 732.703 635.625 736.453C560.833 740.203 522.708 765.828 488.958 788.328C456.875 809.787 426.666 829.995 363.333 833.328C300 836.453 267.916 819.37 233.75 801.245C197.916 782.078 157.5 760.62 82.708 764.37C71.2497 764.995 62.4997 774.787 62.9164 786.245C63.5414 797.703 73.333 806.453 84.7914 806.037C148.125 802.912 180.208 819.995 214.375 838.12C250.208 857.287 290.625 878.745 365.416 874.995C440.208 871.245 478.333 845.62 512.083 823.12C544.166 801.662 574.375 781.453 637.708 778.12C701.041 774.995 733.125 792.078 767.291 810.203C803.125 829.37 843.541 850.828 918.333 847.078C929.791 846.453 938.541 836.662 938.125 825.203C937.291 813.537 927.708 804.787 916.25 805.412ZM372.916 555.412H16.8747C1.24971 555.412 -6.04196 574.995 6.04137 584.995C77.9164 644.995 159.375 691.245 250 722.078H518.541C536.041 713.745 556.458 706.245 581.041 701.037L372.916 555.412Z" fill="black"/>
</g>
<defs>
<clipPath id="clip0">
<rect width="1000" height="1000" fill="white"/>
</clipPath>
</defs>
</svg>
