<svg width="1000" height="1000" viewBox="0 0 1000 1000" fill="none" xmlns="http://www.w3.org/2000/svg">
<path fill-rule="evenodd" clip-rule="evenodd" d="M583.337 600.629V222.712C583.337 208.337 605.629 203.337 612.921 216.254C679.796 333.129 760.212 490.629 770.629 589.796C771.67 599.171 761.045 606.046 750.629 603.546C722.295 596.463 667.92 589.379 605.837 612.921C595.42 616.879 583.337 610.837 583.337 600.629ZM541.671 604.796V54.7958C541.671 47.7125 533.754 42.7125 527.504 46.2541C330.629 157.712 193.546 487.712 167.087 566.671C165.004 573.337 170.629 579.171 177.504 578.129C333.129 552.296 485.421 598.546 529.171 613.546C535.421 615.629 541.671 611.254 541.671 604.796ZM333.337 770.837H438.129C447.087 765.837 455.837 760.004 465.212 753.546C501.462 729.171 546.67 698.962 632.92 694.587C639.379 694.171 645.629 694.171 651.67 694.171C697.295 694.171 731.462 702.921 759.17 713.963C763.545 705.421 766.879 696.254 768.754 686.462C770.837 676.046 762.92 666.462 752.295 666.462H247.504C237.087 666.462 229.171 676.046 231.046 686.254C240.212 734.587 282.504 770.837 333.337 770.837ZM915.629 805.421C852.295 808.546 820.212 791.463 786.045 773.338C750.212 754.171 709.795 732.712 635.004 736.462C560.212 740.212 522.087 765.837 488.337 788.337C456.254 809.796 426.046 830.004 362.712 833.337C299.379 836.462 267.296 819.379 233.129 801.254C197.296 782.087 156.879 760.629 82.0872 764.379C70.6289 765.004 61.8789 774.796 62.2955 786.254C62.9205 797.712 72.7122 806.462 84.1705 806.046C147.504 802.921 179.587 820.004 213.754 838.129C249.587 857.296 290.004 878.754 364.796 875.004C439.587 871.254 477.712 845.629 511.462 823.129C543.546 801.671 573.754 781.462 637.087 778.129C700.42 775.004 732.504 792.087 766.67 810.212C802.504 829.379 842.92 850.837 917.712 847.087C929.17 846.462 937.92 836.671 937.504 825.212C936.879 813.546 927.087 804.796 915.629 805.421Z" fill="black"/>
</svg>
