<svg width="1000" height="1000" viewBox="0 0 1000 1000" fill="none" xmlns="http://www.w3.org/2000/svg">
<path d="M227.29 479.795C254.581 443.545 283.957 408.337 314.582 374.379C290.832 356.879 266.457 340.212 241.456 324.587C211.873 368.129 193.748 418.337 188.748 470.42C201.665 473.754 214.581 476.879 227.29 479.795Z" fill="black"/>
<path d="M499.371 177.919C483.954 177.919 468.746 178.335 453.538 179.169C469.371 191.252 484.788 203.127 500.413 215.419C515.829 203.335 531.454 191.252 547.288 179.377C531.246 178.335 515.413 177.919 499.371 177.919Z" fill="black"/>
<path d="M811.038 470.417C806.038 418.333 787.913 368.333 758.538 325C733.747 340.625 709.372 357.083 685.83 374.583C716.455 408.333 745.622 443.542 772.913 479.792C785.83 476.875 798.538 473.75 811.038 470.417Z" fill="black"/>
<path d="M662.708 766.67C659.792 761.67 657.083 756.67 654.167 751.67C603.125 756.878 551.458 759.587 500 759.587C448.75 759.587 397.083 756.878 346.042 751.878C343.125 756.878 340.208 761.878 337.5 766.879C386.25 796.879 441.875 812.504 500 812.504C558.333 812.504 613.958 796.67 662.708 766.67Z" fill="black"/>
<path d="M500 613.75C536.875 613.75 573.542 612.292 610 609.375C633.958 607.5 657.917 605 681.667 601.667C697.083 599.583 712.292 597.292 727.5 594.792C749.792 591.042 771.875 586.667 793.958 581.667C811.875 577.708 829.792 573.333 847.5 568.542C869.792 562.708 891.875 556.042 913.75 548.958C915.625 532.917 916.667 516.458 916.667 499.792C916.667 493.958 916.458 488.125 916.25 482.292C912.5 390.208 878.75 306.042 824.583 238.75C811.042 221.875 796.25 206.042 780.208 191.667C760.625 202.292 741.458 213.333 722.5 224.792C672.917 255 625 288.333 579.375 325C569.167 315.208 558.958 305.833 548.542 296.458C592.292 261.042 638.125 228.333 685.833 198.75C705.417 186.458 725.417 174.792 745.625 163.542C726.458 149.583 706.042 137.083 684.583 126.458C628.75 98.75 566.25 83.3334 500 83.3334C433.958 83.3334 371.667 98.75 316.25 126.042C294.792 136.667 274.375 148.958 255 162.917C275.208 174.167 295.208 186.042 314.792 198.125C362.5 227.917 408.333 260.625 452.292 296.25C468.542 309.375 484.583 323.125 500.417 337.083C510.833 346.25 521.25 355.833 531.25 365.417C541.458 375 551.667 384.792 561.458 394.792C566.25 399.583 571.042 404.583 575.833 409.375C615.417 450.208 652.292 493.125 686.458 537.917C670.417 540.208 654.583 542.292 638.333 543.958C609.167 507.083 577.917 471.458 544.792 437.5C540.625 433.125 536.25 428.75 531.875 424.375C521.458 413.958 510.833 403.75 500.208 393.542C490 383.958 479.792 374.583 469.375 365.417C453.542 351.458 437.5 337.917 421.25 325C375.625 288.333 327.708 254.792 277.708 224.583C258.75 213.125 239.583 202.083 220 191.458C203.958 206.042 189.167 221.667 175.625 238.542C121.458 305.625 87.4999 390.208 83.7499 482.5C83.5416 488.333 83.3333 494.167 83.3333 500C83.3333 516.667 84.3749 532.917 86.2499 549.167C108.125 556.25 130.208 562.708 152.5 568.75C170.417 573.542 188.333 577.917 206.25 581.875C198.125 594.167 190.208 606.667 182.5 619.167C176.667 617.708 170.625 616.25 164.792 614.792C141.042 608.958 117.5 602.5 94.1666 595.208C99.9999 620.208 108.125 644.167 118.125 667.083C123.333 678.958 129.167 690.625 135.417 701.875C147.083 722.708 160.417 742.5 175.208 761.042C185.417 740.208 196.25 719.792 207.5 699.583C209.375 696.25 211.25 692.708 213.125 689.375C224.167 670 235.625 651.042 247.5 632.292C255.625 619.583 263.958 606.875 272.5 594.375C285.625 575 299.375 556.25 313.542 537.5C347.708 492.708 384.583 449.792 424.375 408.958C434.792 418.125 445.208 427.5 455.208 436.875C422.083 471.042 390.833 506.458 361.458 543.542C346.458 562.5 332.083 581.667 318.333 601.25C309.375 613.958 300.625 626.667 292.292 639.583C280 658.542 268.125 677.708 256.667 697.083C249.375 709.583 242.292 722.083 235.417 734.792C224.792 754.167 214.792 773.958 205.208 793.958C220.417 809.167 236.875 823.333 254.375 836.042C323.542 887.083 408.333 916.667 500 916.667C591.875 916.667 676.667 886.875 745.417 836.667C762.917 823.958 779.375 809.792 794.583 794.583C785 774.583 774.792 754.792 764.375 735.417C757.5 722.708 750.417 710.208 743.125 697.917C757.708 695.417 772.083 692.708 786.667 690C788.542 693.333 790.417 696.667 792.292 700C803.542 720.208 814.375 740.625 824.583 761.458C839.583 742.917 852.917 723.125 864.375 702.083C870.625 690.833 876.25 679.375 881.458 667.708C891.458 644.792 899.583 620.625 905.417 595.833C882.083 602.917 858.542 609.375 834.792 615.417C828.958 616.875 823.125 618.333 817.292 619.583C795.625 624.583 773.958 629.167 752.083 633.125C737.292 635.833 722.292 638.333 707.292 640.625C684.167 644.167 661.042 646.875 637.708 649.167C592.083 653.75 546.042 655.833 499.583 655.833C453.333 655.833 407.292 653.542 361.875 649.167C371.042 635.833 380.417 622.708 390.208 609.792C426.667 612.292 463.333 613.75 500 613.75ZM500.417 255C462.083 223.333 422.083 193.958 380.833 166.458C418.125 153.125 458.125 145.833 500 145.833C542.083 145.833 582.292 153.125 619.792 166.667C578.542 193.958 538.75 223.333 500.417 255ZM624.167 369.375C670.208 332.917 718.542 299.792 769.167 270C822.083 331.875 854.167 412.292 854.167 500C854.167 500.625 854.167 501.25 854.167 501.875C821.667 511.25 788.75 519.167 755.625 525.833C715.625 471.042 671.667 418.75 624.167 369.375ZM244.792 526.042C211.458 519.375 178.542 511.25 145.833 501.875C145.833 501.25 145.833 500.625 145.833 500C145.833 412.083 178.125 331.458 231.25 269.375C281.875 299.167 330.417 332.5 376.458 369.167C328.75 418.75 284.792 471.042 244.792 526.042ZM500.208 481.042C521.875 503.333 542.708 526.25 562.5 549.792C541.667 550.833 520.833 551.25 500 551.25C479.167 551.25 458.542 550.833 437.917 549.792C457.708 526.25 478.542 503.333 500.208 481.042ZM500 717.917C559.375 717.917 618.125 714.375 676.25 707.292C690.625 730.833 704.375 755 717.083 779.375C657.083 826.042 581.667 853.958 499.792 853.958C418.125 853.958 342.708 826.042 282.708 779.583C295.625 755 309.375 730.833 323.75 707.292C382.083 714.375 440.833 717.917 500 717.917Z" fill="black"/>
</svg>
