<svg width="1000" height="1000" viewBox="0 0 1000 1000" fill="none" xmlns="http://www.w3.org/2000/svg">
<path d="M433.328 631.456C414.578 618.331 388.536 622.914 375.203 641.664L320.203 720.206L202.286 674.581C180.828 666.248 156.661 676.873 148.328 698.331C139.994 719.789 150.619 743.956 172.078 752.289L320.411 809.581C325.411 811.456 330.411 812.289 335.411 812.289C348.744 812.289 361.661 805.831 369.578 794.581L443.328 689.373C456.661 670.623 452.078 644.581 433.328 631.456Z" fill="black"/>
<path d="M874.578 81.2474C847.078 41.8724 797.912 33.1224 758.537 60.8307C719.162 88.539 710.412 137.497 738.12 176.872C765.62 216.247 814.37 225.206 853.745 197.497C893.12 169.789 902.078 120.622 874.578 81.2474Z" fill="black"/>
<path d="M788.33 269.58L685.83 197.913C684.788 197.288 683.747 196.663 682.705 196.038C681.872 195.621 681.038 195.205 680.205 194.788C679.58 194.58 679.163 194.163 678.538 193.955C677.705 193.538 676.872 193.33 676.038 192.913C675.622 192.705 675.205 192.496 674.788 192.496C673.955 192.288 673.122 192.08 672.497 191.871C671.872 191.663 671.455 191.663 670.83 191.455C670.205 191.246 669.372 191.246 668.747 191.038C668.122 190.83 667.497 190.83 666.663 190.621C666.038 190.621 665.622 190.621 664.997 190.413C664.163 190.413 663.33 190.205 662.497 190.205C662.08 190.205 661.663 190.205 661.038 190.205C660.205 190.205 659.163 190.205 658.33 190.205C657.705 190.205 656.872 190.413 656.247 190.413C655.413 190.413 654.58 190.621 653.955 190.83C652.705 191.038 651.663 191.246 650.413 191.663L397.08 263.538C396.455 263.746 395.83 263.955 395.205 264.163L458.538 332.705L560.205 303.747L531.038 345.205H413.33L349.372 276.038C307.705 228.538 281.247 193.33 280.83 192.913C280.622 192.705 280.622 192.705 280.413 192.496C252.08 156.871 266.038 128.33 302.497 76.4547C306.038 71.4547 307.08 65.2047 305.622 59.3714C302.913 48.9547 296.247 45.2047 267.913 31.2464C258.955 26.8714 248.122 29.3714 242.08 37.288C215.413 72.7047 165.83 138.746 226.663 204.996L318.122 303.747C327.08 313.955 321.247 307.497 331.455 318.747C332.705 319.997 333.955 321.038 335.413 322.08L364.997 353.955C355.205 361.663 348.747 373.538 348.747 386.872C348.747 409.788 367.288 428.538 390.413 428.538H433.955L474.997 472.913C478.33 476.663 482.913 478.747 487.497 479.372C493.538 480.205 499.788 478.33 504.372 473.955C512.913 466.038 513.33 452.913 505.413 444.58L490.622 428.538H544.997C550.413 438.122 552.913 449.163 552.705 460.413C552.705 460.622 552.705 460.83 552.705 461.038C552.08 475.622 546.663 489.372 536.872 500.205L596.872 542.288C603.955 547.288 612.288 549.788 620.83 549.788C623.33 549.788 625.622 549.58 628.122 549.163C638.955 547.288 648.747 541.038 654.997 532.08L798.33 327.288C804.58 318.33 807.08 307.08 805.205 296.246C803.33 285.413 797.288 275.83 788.33 269.58Z" fill="black"/>
<path d="M655.204 634.161L502.912 527.286C484.162 514.161 458.121 518.536 444.787 537.494C431.662 556.244 436.037 582.286 454.996 595.619L583.121 685.619L522.079 903.536C515.829 925.619 528.746 948.744 551.037 954.786C554.787 955.828 558.537 956.244 562.287 956.244C580.412 956.244 597.288 944.161 602.288 925.828L671.246 679.578C676.038 662.494 669.579 644.369 655.204 634.161Z" fill="black"/>
</svg>
