<svg width="1000" height="1000" viewBox="0 0 1000 1000" fill="none" xmlns="http://www.w3.org/2000/svg">
<path d="M895.417 368.333C909.167 409.792 916.667 453.958 916.667 500C916.667 558.125 904.792 613.542 883.125 663.958C819.583 812.5 671.875 916.667 500 916.667C296.458 916.667 127.083 770.625 90.6249 577.708C85.8333 552.5 83.3333 526.458 83.3333 500C83.3333 269.792 269.792 83.3334 500 83.3334C546.042 83.3334 590.208 90.8334 631.667 104.583C613.958 118.958 598.75 136.667 587.292 156.667C559.375 149.583 530.208 145.833 500 145.833C304.375 145.833 145.833 304.375 145.833 500C145.833 507.292 146.042 514.583 146.458 521.667C157.708 707.292 311.667 854.167 500 854.167C655.208 854.167 786.875 754.375 834.792 615.625C847.292 579.375 854.167 540.625 854.167 500C854.167 469.792 850.417 440.625 843.333 412.708C863.333 401.25 881.042 386.042 895.417 368.333ZM787.917 547.5L689.167 448.75C682.917 442.5 672.708 442.5 666.458 448.75L574.167 508.125C567.917 514.375 557.708 514.375 551.458 508.125L401.667 325.417C395.417 319.167 385.208 319.167 378.958 325.417L208.333 495.417C208.333 496.875 208.333 498.542 208.333 500C208.333 577.917 238.75 651.25 293.75 706.25C348.75 761.25 422.083 791.667 500 791.667C577.917 791.667 651.25 761.25 706.25 706.25C750 662.5 778.125 607.292 787.917 547.5ZM895.833 250C895.833 330.625 830.625 395.833 750 395.833C669.375 395.833 604.167 330.625 604.167 250C604.167 169.375 669.375 104.167 750 104.167C830.625 104.167 895.833 169.375 895.833 250ZM791.458 250L832.292 226.458C842.292 220.625 845.625 207.917 840 197.917C834.167 187.917 821.458 184.583 811.458 190.208L770.625 213.75V166.667C770.625 155.208 761.25 145.833 749.792 145.833C738.333 145.833 728.958 155.208 728.958 166.667V213.958L688.125 190.417C678.125 184.583 665.417 188.125 659.583 198.125C653.75 208.125 657.292 220.833 667.292 226.667L708.125 250.208L667.292 273.75C657.292 279.583 653.958 292.292 659.583 302.292C663.542 308.958 670.417 312.708 677.708 312.708C681.25 312.708 684.792 311.875 688.125 310L728.958 286.458V333.333C728.958 344.792 738.333 354.167 749.792 354.167C761.25 354.167 770.625 344.792 770.625 333.333V286.042L811.458 309.583C814.792 311.458 818.333 312.292 821.875 312.292C829.167 312.292 836.042 308.542 840 301.875C845.833 291.875 842.292 279.167 832.292 273.333L791.458 250Z" fill="black"/>
</svg>
