<svg width="1000" height="1000" viewBox="0 0 1000 1000" fill="none" xmlns="http://www.w3.org/2000/svg">
<path d="M737.084 844.584C727.709 837.917 714.584 840.209 708.125 849.793L662.709 914.793H250C238.542 914.793 229.167 924.168 229.167 935.626C229.167 947.084 238.542 956.459 250 956.459H673.542C680.417 956.459 686.667 953.126 690.625 947.501L742.292 873.543C748.959 864.168 746.667 851.251 737.084 844.584Z" fill="black"/>
<path d="M322.917 349.374C362.292 376.874 411.042 368.124 438.542 328.749C466.042 289.374 457.5 240.207 418.125 212.707C378.75 185.207 329.583 193.749 302.083 233.124C274.375 272.499 283.542 321.665 322.917 349.374Z" fill="black"/>
<path d="M96.2473 597.911C93.3306 586.869 81.8723 580.203 70.6223 583.328C59.5806 586.244 52.9139 597.703 56.0389 608.953L145.831 940.827C148.331 949.994 156.664 956.036 165.622 956.244C167.497 956.244 169.372 956.036 171.247 955.619C182.289 952.702 188.956 941.244 185.831 929.994L96.2473 597.911Z" fill="black"/>
<path d="M136.459 587.079L150.209 638.12L270.625 542.495V706.245C270.625 729.162 289.375 747.912 312.292 747.912H437.292C448.334 747.912 458.959 743.537 466.667 735.62C474.584 727.704 478.959 717.287 478.959 706.245V581.037L529.167 647.912C537.084 658.329 549.375 664.579 562.5 664.579H656.25L630.417 606.662C626.667 598.329 625 589.787 625 581.245H583.334L470.625 431.245C470.417 430.828 470 430.412 469.792 430.203C469.584 429.995 469.584 429.787 469.375 429.787C468.542 428.953 467.917 428.12 467.084 427.287C466.875 427.078 466.667 426.87 466.667 426.87C465.834 426.037 465 425.203 463.959 424.578L463.75 424.37C462.917 423.745 462.084 423.12 461.042 422.495C460.834 422.287 460.625 422.287 460.417 422.078C459.584 421.453 458.542 420.828 457.709 420.412C457.5 420.203 457.084 419.995 456.875 419.995C455.834 419.578 455 418.953 453.959 418.537C453.75 418.328 453.334 418.328 453.125 418.12C452.292 417.703 451.459 417.495 450.625 417.078C450.209 416.87 450 416.87 449.584 416.662C448.542 416.245 447.5 416.037 446.459 415.828C446.042 415.828 445.834 415.62 445.417 415.62C444.375 415.412 443.125 415.203 442.084 415.203C441.875 415.203 441.667 415.203 441.459 415.203C440.209 414.995 438.959 414.995 437.709 414.995H312.709C311.459 414.995 310.209 414.995 308.75 415.203C308.334 415.203 307.709 415.412 307.292 415.412C306.459 415.412 305.834 415.62 305 415.828C304.375 416.037 303.75 416.037 303.334 416.245C302.709 416.453 302.084 416.662 301.459 416.662C300.834 416.87 300.209 417.078 299.584 417.287C298.959 417.495 298.334 417.703 297.917 417.912C297.292 418.12 296.667 418.328 296.042 418.537C295.417 418.745 294.792 419.162 294.167 419.37C293.75 419.578 293.125 419.787 292.709 420.203C291.667 420.828 290.625 421.453 289.584 422.078C289.167 422.287 288.959 422.703 288.542 422.912C287.917 423.328 287.5 423.745 286.875 424.162L118.75 557.704C126.875 564.995 133.334 575.204 136.459 587.079Z" fill="black"/>
<path d="M934.574 914.792H858.74L706.657 572.708C702.074 562.292 689.574 557.5 679.157 562.083C668.741 566.667 663.949 579.167 668.532 589.583L826.24 943.959C829.574 951.459 837.074 956.25 845.199 956.25H934.574C946.032 956.25 955.407 946.875 955.407 935.417C955.407 923.959 946.032 914.792 934.574 914.792Z" fill="black"/>
<path d="M312.284 789.582C289.368 789.582 270.618 808.332 270.618 831.249C270.618 854.165 289.368 872.915 312.284 872.915H603.951C626.868 872.915 645.618 854.165 645.618 831.249C645.618 808.332 626.868 789.582 603.951 789.582H312.284Z" fill="black"/>
</svg>
