<svg width="1000" height="1000" viewBox="0 0 1000 1000" fill="none" xmlns="http://www.w3.org/2000/svg">
<path d="M895.417 368.333C870.625 398.542 836.667 421.042 797.917 431.458C821.042 467.917 838.542 507.708 850 549.583C843.542 594.792 828.542 637.292 806.458 675.417C809.167 588.125 781.042 503.958 729.167 436.458C659.375 428.75 601.042 382.5 575.833 319.583C574.792 319.167 573.75 318.75 572.708 318.333C572.5 318.542 572.5 318.958 572.292 319.167C572.083 319.583 571.875 320 571.667 320.417C555.625 351.25 544.375 384.167 537.5 418.125C537.083 419.792 536.875 421.667 536.458 423.333C535.208 429.792 533.75 436.25 532.917 442.917C532.5 446.875 532.083 451.042 531.875 455C531.667 457.083 531.667 458.958 531.458 461.042C530.833 468.333 530.625 475.625 530.417 482.917C534.375 485.417 538.125 488.125 541.875 490.833C543.958 492.5 546.25 493.958 548.542 495.625C550 496.667 551.667 497.708 553.125 498.542C555 499.583 556.875 500.833 558.75 502.083C559.583 502.708 560.417 503.333 561.25 503.958C561.875 504.583 562.5 505.208 563.333 505.833C573.958 513.75 583.958 522.292 593.75 531.042C594.167 531.458 594.583 531.667 595 532.083C596.25 533.125 597.5 534.167 598.542 535.208C598.75 535.417 599.167 535.833 599.375 536.042C599.583 536.25 600 536.667 600.208 536.875C630.833 565.833 657.708 598.333 678.958 635C679.167 635.208 679.375 635.625 679.583 636.042C679.792 636.458 679.792 636.667 680 636.875C685.417 646.25 690 655.833 694.583 665.417C694.792 666.042 695 666.458 695.208 667.083C695.417 667.5 695.625 667.917 695.833 668.333C700 676.875 703.542 685.625 706.875 694.375C707.292 695.625 707.917 696.667 708.333 697.917C708.958 699.375 709.583 700.833 710.208 702.292C710.417 702.708 710.417 702.917 710.625 703.333C710.833 703.75 710.833 703.958 711.042 704.375C711.458 705.833 711.875 707.083 712.292 708.542C712.5 709.583 712.917 710.833 713.333 712.083C715.625 719.167 717.917 726.25 720 733.542C720.417 734.583 720.625 735.625 721.042 736.667C721.458 737.917 721.875 738.958 722.083 740.208C722.5 741.458 722.708 742.708 723.125 743.958C723.958 747.083 724.583 750.417 725.208 753.75C725.625 755.625 725.833 757.292 726.25 759.167C726.667 760.625 726.875 762.292 727.292 763.75C727.708 765.625 728.125 767.292 728.542 769.167C711.667 783.333 693.542 796.042 674.167 807.083C673.333 799.167 672.083 791.25 670.625 783.333C669.792 779.167 668.75 775.208 667.917 771.042C666.042 762.083 663.958 753.125 661.25 744.167C660.417 741.25 659.375 738.333 658.333 735.417C657.708 733.958 657.083 732.5 656.667 731.042C656.25 729.792 655.833 728.542 655.417 727.292C652.917 720.208 650.625 713.125 647.708 706.25C634.375 716.042 620.625 725.417 605.833 733.958C505.417 791.667 388.542 805.417 280.625 777.083C245.625 749.375 215.833 715.208 193.125 676.25C309.167 748.125 456.25 751.25 576.042 682.083C591.458 673.333 605.625 663.125 619.167 652.5L618.75 652.083L618.542 651.667C618.333 651.458 618.125 651.042 617.917 650.833C599.167 621.458 576.25 595.417 550.208 572.292C548.542 570.833 546.667 569.167 545 567.708C540.417 563.542 535.833 559.583 531.042 555.833C527.708 553.333 524.167 550.833 520.625 548.542C519.167 547.5 517.708 546.667 516.25 545.625C510.417 541.458 504.167 537.5 497.917 533.75C493.958 536.042 489.583 537.917 485.208 539.792C482.708 540.833 480.208 541.875 477.708 543.125C476.042 543.958 474.583 544.792 472.917 545.625C471.042 546.667 468.958 547.708 467.083 548.542C466.25 548.958 465.208 549.167 464.167 549.583C463.333 550 462.5 550.208 461.667 550.625C449.583 555.833 437.083 560.208 424.583 564.375C423.958 564.792 423.125 565 422.5 565.208C421.458 565.625 420.208 566.042 418.958 566.458C418.542 566.667 417.917 566.875 417.5 566.875H417.083C416.875 566.875 416.875 566.875 416.667 566.875C376.458 579.167 334.583 586.25 292.292 586.25C291.875 586.25 291.667 586.25 291.25 586.25C291.042 586.25 290.625 586.25 290.417 586.25C279.375 586.042 268.75 585.417 258.125 584.583C257.708 584.583 257.083 584.375 256.667 584.375C256.25 584.167 255.625 584.167 255.208 584.167C245.625 583.333 236.458 582.083 227.083 580.625C226.042 580.417 224.792 580.417 223.542 580.208C222.083 580 220.417 579.792 218.75 579.583H217.708C217.292 579.583 217.083 579.375 216.667 579.375C215 579.167 213.333 578.75 211.667 578.333C210.625 577.917 209.583 577.708 208.542 577.5C201.25 576.042 193.958 574.375 186.667 572.5C185.833 572.292 184.792 572.083 183.958 571.875C182.708 571.667 181.25 571.458 180 571.042C179.583 570.833 178.958 570.833 178.542 570.625C177.708 570.417 177.083 570.208 176.25 570C173.125 569.167 170 568.125 166.875 567.083C165 566.458 163.333 565.833 161.458 565.208C160.208 564.583 158.75 564.167 157.292 563.75C155.417 563.125 153.542 562.5 151.667 561.875C147.917 541.458 146.042 520.417 146.042 498.958C146.042 497.917 146.042 496.875 146.042 495.833C153.542 498.958 161.042 501.875 168.542 504.583C172.5 506.042 176.667 507.292 180.625 508.542C189.583 511.458 198.333 514.167 207.292 516.25C210 516.875 212.917 517.5 215.833 517.917C217.5 518.333 219.375 518.542 221.042 518.958C222.708 519.375 224.167 519.583 225.833 520C232.708 521.25 239.792 522.708 246.875 523.542C245 507.083 243.75 490.417 243.75 473.542C243.75 357.5 290.208 249.375 368.958 170C409.375 153.75 453.542 144.792 499.792 144.792C379.375 209.375 303.125 335.208 303.125 473.542C303.125 491.458 304.792 508.75 307.292 525.833C307.5 525.833 307.917 525.833 308.333 525.833C308.542 525.833 308.958 525.833 309.375 525.833C343.958 524.375 378.125 517.708 411.042 506.667C412.917 506.042 414.792 505.417 416.667 504.792C422.917 502.917 428.958 500.833 435 498.333C438.542 496.875 442.292 495 445.833 493.333C447.708 492.5 449.583 491.458 451.458 490.625C457.917 487.5 464.375 484.167 470.833 480.625C470.833 476.042 471.458 471.458 471.875 466.875C472.083 463.958 472.5 461.25 472.708 458.333C472.917 456.667 472.917 454.792 472.917 453.125C473.125 450.833 473.125 448.75 473.333 446.458C473.333 445.417 473.542 444.375 473.75 443.333C473.958 442.292 473.958 441.458 474.167 440.625C475.833 427.5 478.125 414.583 480.833 401.667C481.042 401.042 481.042 400.208 481.25 399.583C481.458 398.333 481.875 396.875 482.083 395.625C482.083 395.417 482.083 395 482.292 394.583C482.5 394.167 482.708 393.958 482.708 393.542C492.292 352.5 506.875 312.917 528.125 276.25C528.125 276.042 528.333 276.042 528.333 275.833L528.542 275.625C528.75 275.208 528.958 275 529.167 274.583C534.792 265.417 540.625 256.458 546.667 247.708C547.083 247.083 547.292 246.667 547.708 246.25C547.917 246.042 548.333 245.625 548.542 245.208C553.542 238.125 558.958 231.25 564.167 224.375C570.833 176.25 595.625 133.958 631.667 104.583C590.417 90.8334 546.042 83.3334 500 83.3334C269.792 83.3334 83.3333 269.792 83.3333 500C83.3333 730 269.792 916.667 500 916.667C730 916.667 916.667 730 916.667 500C916.667 453.958 909.167 409.583 895.417 368.333Z" fill="black"/>
<path d="M749.372 395.205C829.996 395.205 895.205 329.996 895.205 249.371C895.205 168.746 829.996 103.538 749.372 103.538C668.747 103.538 603.538 168.746 603.538 249.371C603.538 329.996 668.955 395.205 749.372 395.205ZM666.663 225.83C656.663 219.996 653.33 207.288 658.955 197.288C664.788 187.288 677.496 183.955 687.496 189.58L728.33 213.121V166.038C728.33 154.58 737.705 145.205 749.163 145.205C760.621 145.205 769.997 154.58 769.997 166.038V213.33L810.83 189.788C820.83 183.955 833.538 187.496 839.371 197.496C845.205 207.496 841.663 220.205 831.663 226.038L790.83 249.58L831.663 273.121C841.663 278.955 844.996 291.663 839.371 301.663C835.413 308.33 828.538 312.08 821.246 312.08C817.705 312.08 814.163 311.246 810.83 309.371L769.997 285.413V332.705C769.997 344.163 760.621 353.538 749.163 353.538C737.705 353.538 728.33 344.163 728.33 332.705V285.413L687.496 309.163C684.163 311.038 680.621 311.871 677.08 311.871C669.788 311.871 662.913 308.121 658.955 301.455C653.121 291.455 656.663 278.746 666.663 272.913L707.497 249.371L666.663 225.83Z" fill="black"/>
</svg>
