<svg width="1000" height="1000" viewBox="0 0 1000 1000" fill="none" xmlns="http://www.w3.org/2000/svg">
<path fill-rule="evenodd" clip-rule="evenodd" d="M625 500C625 395.833 663.333 300.833 726.458 227.917C742.5 241.25 757.292 256.042 770.833 272.083C718.75 333.75 687.5 413.333 687.5 500C687.5 586.667 718.958 666.25 770.833 727.917C757.292 743.958 742.5 758.75 726.458 772.083C663.333 699.167 625 604.167 625 500ZM273.542 227.917C257.5 241.25 242.708 256.042 229.167 272.083C281.25 333.75 312.5 413.333 312.5 500C312.5 586.667 281.042 666.25 229.167 727.917C242.708 743.958 257.5 758.75 273.542 772.083C336.667 699.167 375 604.167 375 500C375 395.833 336.667 300.833 273.542 227.917ZM500 916.667C730.208 916.667 916.667 730.208 916.667 500C916.667 269.792 730.208 83.3334 500 83.3334C269.792 83.3334 83.3333 269.792 83.3333 500C83.3333 730.208 269.792 916.667 500 916.667Z" fill="black"/>
</svg>
