<svg width="1000" height="1000" viewBox="0 0 1000 1000" fill="none" xmlns="http://www.w3.org/2000/svg">
<path fill-rule="evenodd" clip-rule="evenodd" d="M934.802 284.586C929.802 206.669 895.636 141.669 838.552 101.669C781.469 61.6692 708.761 51.6692 633.761 73.7525C560.427 95.2109 493.761 144.794 445.636 213.544C397.511 282.086 373.761 361.878 378.761 438.128C380.844 470.628 387.927 500.628 399.802 527.711L360.011 744.377C347.927 741.461 334.802 746.044 327.302 756.877L243.552 876.252C233.552 890.419 237.094 909.794 251.261 919.794L268.344 931.669C282.511 941.669 301.886 938.127 311.886 923.961L395.636 804.586C403.136 793.753 402.927 780.002 396.261 769.586L588.552 659.794C593.344 660.003 598.344 660.211 603.136 660.211C628.136 660.211 653.969 656.461 680.011 648.752C753.344 627.294 820.011 577.711 868.136 508.961C915.844 440.628 939.594 360.836 934.802 284.586ZM407.719 715.002L432.302 581.461C444.594 596.461 458.969 609.794 475.219 621.044C491.052 632.294 508.344 641.044 526.469 647.502L407.719 715.002ZM833.761 485.419C774.177 570.627 685.011 618.752 603.344 618.752C565.844 618.752 529.802 608.544 498.969 587.086C452.511 554.586 424.594 500.836 420.427 435.628C416.261 368.961 437.302 298.544 480.011 237.711C539.594 152.503 628.761 104.378 710.427 104.378C747.927 104.378 783.969 114.586 814.802 136.044C861.261 168.544 889.177 222.294 893.344 287.503C897.511 354.169 876.261 424.378 833.761 485.419Z" fill="black"/>
<path d="M291.385 506.624C295.04 460.748 260.812 420.595 214.936 416.941C169.059 413.286 128.907 447.514 125.252 493.39C121.598 539.267 155.826 579.419 201.702 583.074C247.578 586.728 287.731 552.5 291.385 506.624Z" fill="black"/>
</svg>
