<svg width="1000" height="1000" viewBox="0 0 1000 1000" fill="none" xmlns="http://www.w3.org/2000/svg">
<path fill-rule="evenodd" clip-rule="evenodd" d="M603.333 234.792L573.542 318.125C571.042 327.083 562.708 333.333 553.542 333.333H446.458C437.083 333.333 428.958 327.083 426.458 318.125L396.667 234.792C392.917 221.458 402.917 208.333 416.667 208.333H583.333C597.083 208.333 607.083 221.667 603.333 234.792ZM543.75 393.542C542.708 382.917 533.75 375 523.125 375H477.292C466.667 375 457.708 383.125 456.667 393.542L397.083 707.083C396.458 713.333 398.542 719.583 403.125 723.958L485.417 806.25C493.542 814.375 506.667 814.375 514.792 806.25L597.292 723.75C601.667 719.375 603.958 713.125 603.333 706.875L543.75 393.542ZM500 145.833C304.375 145.833 145.833 304.375 145.833 500C145.833 695.625 304.375 854.167 500 854.167C695.625 854.167 854.167 695.625 854.167 500C854.167 304.375 695.625 145.833 500 145.833ZM500 83.3334C730.208 83.3334 916.667 269.792 916.667 500C916.667 730.208 730.208 916.667 500 916.667C269.792 916.667 83.3333 730.208 83.3333 500C83.3333 269.792 269.792 83.3334 500 83.3334Z" fill="black"/>
</svg>
