<svg width="1000" height="1000" viewBox="0 0 1000 1000" fill="none" xmlns="http://www.w3.org/2000/svg">
<path d="M843.547 494.79C814.797 535.832 771.464 560.624 725.422 567.082C707.089 569.582 692.297 583.124 687.297 600.832C682.089 618.749 673.964 636.249 662.714 652.499C607.089 732.082 496.672 750.415 417.922 692.707C412.089 688.54 406.672 683.957 401.672 679.165L241.464 907.915C237.506 913.749 231.047 916.874 224.381 916.874C220.214 916.874 216.047 915.624 212.506 913.124C203.131 906.457 200.839 893.54 207.297 884.165L731.672 134.999C738.339 125.624 751.256 123.332 760.631 129.79C770.006 136.457 772.297 149.374 765.839 158.749L720.631 223.332C747.506 226.249 773.964 235.415 797.922 251.249C878.964 305.415 899.381 415.415 843.547 494.79ZM647.089 182.707L338.547 623.332C325.214 618.749 312.297 612.29 300.006 604.165C218.756 549.999 198.339 439.999 253.964 360.415C265.214 344.165 278.964 330.624 294.172 319.582C309.172 308.749 316.881 290.207 312.922 272.082C303.131 226.665 311.672 177.499 340.422 136.249C396.047 56.8737 506.256 38.332 585.006 95.832C615.214 118.332 636.256 148.957 647.089 182.707ZM505.214 183.749C488.339 171.874 467.714 168.749 449.172 173.124C450.839 173.957 452.506 174.999 454.172 176.04C475.006 190.624 480.214 219.582 465.422 240.415C450.839 261.249 421.881 266.457 401.047 251.665C399.381 250.624 397.922 249.374 396.464 247.915C398.547 267.082 408.547 285.207 425.631 297.082C457.089 318.957 500.214 311.457 522.089 279.999C544.172 248.957 536.672 205.832 505.214 183.749Z" fill="black"/>
</svg>
