<svg width="1000" height="1000" viewBox="0 0 1000 1000" fill="none" xmlns="http://www.w3.org/2000/svg">
<path d="M628.542 208.336C667.917 235.836 716.667 227.086 744.167 187.711C771.667 148.336 763.126 99.1698 723.751 71.6698C684.375 44.1698 635.209 52.7115 607.709 92.0865C580.209 131.461 589.167 180.836 628.542 208.336Z" fill="black"/>
<path d="M559.793 668.961L355.001 525.627C336.251 512.502 310.21 517.086 296.876 535.836C283.751 554.586 288.335 580.627 307.085 593.961L477.71 713.544L358.335 884.169C345.21 903.127 349.793 928.961 368.543 942.294C375.835 947.294 384.168 949.794 392.293 949.794C405.418 949.794 418.335 943.544 426.46 932.086L569.793 727.294C583.126 708.127 578.543 682.086 559.793 668.961Z" fill="black"/>
<path d="M351.46 675.834C332.71 662.709 306.668 667.292 293.335 686.042L150.001 890.834C136.876 909.584 141.46 935.626 160.21 948.959C167.501 953.959 175.835 956.459 184.168 956.459C197.293 956.459 210.21 950.209 218.335 938.751L361.668 733.959C375.001 715.001 370.418 688.959 351.46 675.834Z" fill="black"/>
<path d="M741.247 514.582L695.831 501.04L689.997 322.915C689.997 322.707 689.997 322.29 689.997 322.082C689.997 321.665 689.997 321.457 689.997 321.04C689.997 320.624 689.789 320.207 689.789 319.79C689.789 319.165 689.581 318.54 689.581 317.915C689.581 317.707 689.581 317.499 689.581 317.29C689.581 316.874 689.372 316.457 689.372 316.249C689.164 315.415 689.164 314.79 688.956 314.165C688.956 313.957 688.956 313.749 688.747 313.54C688.747 313.124 688.539 312.915 688.331 312.499C688.122 311.665 687.914 311.04 687.497 310.207C687.497 309.999 687.289 309.79 687.289 309.582C687.289 309.374 687.081 309.165 686.872 308.749C686.456 307.915 686.247 307.29 685.831 306.457C685.831 306.249 685.622 306.04 685.622 305.832C685.622 305.624 685.414 305.415 685.414 305.415C685.414 305.415 685.414 305.207 685.206 305.207C684.789 304.374 684.372 303.749 683.956 302.915C683.747 302.707 683.747 302.499 683.539 302.29L683.122 301.874C682.706 301.04 682.081 300.415 681.664 299.79C681.456 299.582 681.456 299.374 681.247 299.165L681.039 298.957C681.039 298.957 681.039 298.749 680.831 298.749C680.206 297.915 679.581 297.29 678.956 296.665C678.747 296.457 678.747 296.457 678.539 296.249C678.331 296.04 678.331 296.04 678.122 295.832C677.289 294.999 676.664 294.374 675.831 293.54L675.414 293.124C674.372 292.29 673.539 291.665 672.497 290.832C672.497 290.832 672.497 290.832 672.289 290.832L569.997 219.165C568.956 218.54 567.914 217.707 566.872 217.082C566.664 216.874 566.456 216.874 566.247 216.665C565.206 216.04 564.164 215.624 563.122 215.207C562.706 214.999 562.497 214.999 562.081 214.79C561.664 214.582 561.456 214.582 561.039 214.374L400.622 152.915C382.706 146.04 362.497 152.29 351.664 167.915L256.039 304.374C242.914 323.124 247.497 349.165 266.247 362.499C273.539 367.499 281.872 369.999 290.206 369.999C303.331 369.999 316.247 363.749 324.372 352.29L401.247 242.499L481.456 273.124L368.539 433.332C368.122 433.957 367.706 434.582 367.289 435.207C364.372 433.957 361.247 432.707 358.122 431.457C317.914 417.915 276.456 437.082 244.789 456.665C244.372 456.874 244.164 456.874 243.747 457.082C158.331 497.499 95.4141 462.499 92.9141 461.04C85.4141 456.665 76.0391 457.29 69.3724 462.707C62.7057 468.124 59.9974 477.082 62.4974 485.415L79.1641 537.707C80.6224 542.499 83.7474 546.457 88.1224 549.165C100.831 557.082 115.831 561.04 131.872 561.04C135.831 561.04 139.789 560.832 143.747 560.415C146.039 560.207 148.331 559.79 150.622 559.374C179.997 553.749 204.789 535.624 226.664 519.582C232.497 515.415 237.914 511.249 243.331 507.499C269.372 489.79 312.706 460.207 344.997 470.832C355.414 474.374 365.206 480.832 375.206 488.124C376.456 489.165 377.497 490.207 378.956 491.04L481.456 562.707C488.539 567.707 496.872 570.207 505.414 570.207C507.914 570.207 510.206 569.999 512.706 569.582C523.539 567.707 533.331 561.457 539.581 552.499L611.247 450.207L613.956 533.54C614.581 551.457 626.456 567.082 643.747 572.082L769.997 609.582C773.956 610.832 777.914 611.249 781.872 611.249C796.456 611.249 809.997 603.54 817.497 591.04C809.372 587.499 801.456 583.332 794.164 578.124C770.206 562.707 752.289 540.207 741.247 514.582Z" fill="black"/>
<path d="M887.087 440.421C852.92 417.504 809.587 417.504 773.962 437.087C772.712 437.712 771.878 438.962 771.67 440.421C766.878 480.629 783.128 521.046 817.295 543.962C851.462 566.879 894.795 566.879 930.42 547.296C931.67 546.671 932.503 545.421 932.712 543.962C937.295 503.754 921.253 463.546 887.087 440.421Z" fill="black"/>
</svg>
