<svg width="1000" height="1000" viewBox="0 0 1000 1000" fill="none" xmlns="http://www.w3.org/2000/svg">
<path d="M145.833 583.333C191.857 583.333 229.167 546.023 229.167 499.999C229.167 453.976 191.857 416.666 145.833 416.666C99.8096 416.666 62.5 453.976 62.5 499.999C62.5 546.023 99.8096 583.333 145.833 583.333Z" fill="black"/>
<path d="M936.667 717.712L802.084 271.462C801.875 270.628 801.667 269.587 801.875 268.753L812.292 191.253C812.708 187.92 812.5 184.587 811.459 181.253C808.334 172.503 800.417 167.295 791.667 167.295H187.5C177.083 167.295 168.333 175.003 166.875 185.42L141.458 375.212C142.917 375.212 144.375 375.003 145.833 375.003C158.75 375.003 171.042 376.878 182.708 380.628L186.25 354.17H305.417L256.25 645.837H147.292L150 624.795C148.542 624.795 147.083 625.003 145.625 625.003C132.708 625.003 120.417 623.128 108.75 619.378L83.5418 808.753C83.1251 812.087 83.3335 815.42 84.3751 818.753C87.5001 827.503 95.4168 832.712 104.167 832.712H708.334C708.959 832.712 709.584 832.712 710.417 832.712C710.625 832.712 710.625 832.712 710.834 832.712C711.25 832.712 711.875 832.503 712.292 832.503C712.5 832.503 712.709 832.503 712.917 832.295C713.334 832.087 713.958 832.087 714.375 831.878C714.583 831.878 714.792 831.67 715 831.67C715.417 831.462 715.833 831.462 716.25 831.253H716.458L924.792 743.128C934.584 738.753 939.583 727.92 936.667 717.712ZM231.875 791.045H127.917L141.667 687.503H249.167L231.875 791.045ZM663.542 208.962H767.917L760.625 263.962C760.209 266.253 760.209 266.878 760 268.337L753.75 312.503H646.25L663.542 208.962ZM517.917 208.962H621.25L603.75 312.503H500.417L517.917 208.962ZM596.875 354.17L575.833 479.17H472.5L493.542 354.17H596.875ZM372.084 208.962H475.417L457.917 312.503H354.583L372.084 208.962ZM451.25 354.17L430.208 479.17H326.875L347.917 354.17H451.25ZM191.875 312.503L205.625 208.962H329.792L312.5 312.503H191.875ZM377.709 791.045H274.375L291.667 687.503H395L377.709 791.045ZM298.75 645.837L319.792 520.837H423.125L402.083 645.837H298.75ZM523.333 791.045H420L437.5 687.503H540.834L523.333 791.045ZM444.375 645.837L465.417 520.837H568.75L547.708 645.837H444.375ZM690 791.045H565.417L582.917 687.503H703.75L690 791.045ZM709.375 645.837H590L611.042 520.837H726.042L709.375 645.837ZM618.125 479.17L639.167 354.17H748.125L731.459 479.17H618.125ZM733.75 778.337L788.334 370.003L891.25 711.67L733.75 778.337Z" fill="black"/>
</svg>
