<svg width="1000" height="1000" viewBox="0 0 1000 1000" fill="none" xmlns="http://www.w3.org/2000/svg">
<path fill-rule="evenodd" clip-rule="evenodd" d="M256.042 431.453C218.333 404.995 166.458 414.162 140 451.87C113.542 489.578 122.708 541.453 160.417 567.912C198.125 594.37 250 585.203 276.458 547.495C302.917 509.787 293.75 457.703 256.042 431.453ZM191.25 487.703C180.417 503.12 165.833 514.37 149.375 520.828C146.875 514.162 145.625 506.87 145.625 499.787C156.667 494.578 166.458 486.453 173.958 475.828C181.458 465.203 185.625 453.12 186.875 441.037C193.542 438.537 200.833 437.287 207.917 437.287C207.5 454.578 202.083 472.287 191.25 487.703ZM242.5 523.537C235 534.162 230.833 546.245 229.583 558.537C222.917 561.037 215.625 562.287 208.542 562.287C209.167 544.787 214.583 527.078 225.417 511.662C236.25 496.245 250.833 484.995 267.083 478.537C269.583 485.203 270.833 492.495 270.833 499.578C259.792 504.787 250 512.703 242.5 523.537ZM936.875 284.578C931.875 206.662 897.708 141.662 840.625 101.662C783.542 61.6616 710.833 51.6616 635.833 73.745C562.5 95.2033 495.833 144.787 447.708 213.537C399.583 282.078 375.833 361.87 380.833 438.12C382.917 470.62 390 500.62 401.875 527.703L362.292 743.953C350.625 741.87 338.542 746.453 331.25 756.87L247.5 876.245C237.5 890.412 241.042 909.787 255.208 919.787L272.292 931.662C286.458 941.662 305.833 938.12 315.833 923.953L399.583 804.578C407.292 793.537 406.875 779.162 399.583 768.745L590.625 659.787C595.417 659.995 600.417 660.203 605.208 660.203C630.208 660.203 656.042 656.453 682.083 648.745C755.417 627.287 822.083 577.703 870.208 508.953C917.917 440.62 941.667 360.828 936.875 284.578ZM409.792 714.995L434.375 581.453C446.667 596.453 461.042 609.787 477.292 621.037C493.125 632.287 510.417 641.037 528.542 647.495L409.792 714.995ZM835.833 485.203C793.125 546.037 734.375 589.995 670.208 608.953C607.708 627.287 547.708 619.37 501.042 586.87C403.542 518.537 395 361.87 481.875 237.495C524.583 176.662 583.333 132.703 647.5 113.745C669.583 107.287 691.458 103.953 712.5 103.953C750.833 103.953 786.667 114.787 816.667 135.828C863.125 168.328 891.042 222.078 895.208 287.287C899.583 353.953 878.333 424.37 835.833 485.203Z" fill="black"/>
</svg>
