<svg width="1000" height="1000" viewBox="0 0 1000 1000" fill="none" xmlns="http://www.w3.org/2000/svg">
<path d="M477.707 759.595C471.457 737.511 448.54 724.386 426.457 730.636C404.373 736.886 391.248 759.803 397.498 781.886L413.957 841.053L339.79 911.886C323.123 927.72 322.498 954.178 338.54 970.845C346.665 979.386 357.707 983.761 368.748 983.761C379.165 983.761 389.373 980.011 397.498 972.303L489.582 884.178C500.623 873.553 504.998 857.72 500.832 842.928L477.707 759.595Z" fill="black"/>
<path d="M419.999 215.001C459.374 242.501 508.124 233.751 535.624 194.376C563.124 155.001 554.582 105.834 515.207 78.334C475.832 50.834 426.665 59.3757 399.165 98.7507C371.665 138.126 380.624 187.501 419.999 215.001Z" fill="black"/>
<path d="M812.289 270.637L437.497 270.845C437.289 270.845 437.081 270.845 436.664 270.845C435.831 270.845 434.997 270.845 434.164 271.054C433.539 271.054 432.914 271.262 432.289 271.262C431.664 271.262 431.039 271.47 430.414 271.47C429.581 271.679 428.747 271.679 427.914 271.887C427.706 271.887 427.497 271.887 427.289 272.095L290.622 306.47L225.831 197.72C206.872 216.887 180.622 228.762 151.664 228.762C150.206 228.762 148.747 228.762 147.081 228.554L234.789 375.845C242.497 388.762 256.247 396.262 270.622 396.262C273.956 396.262 277.497 395.845 280.831 395.012L395.831 366.054V520.845C395.831 531.887 400.206 542.512 408.122 550.22C416.039 558.137 426.456 562.512 437.497 562.512H562.497C573.539 562.512 584.164 558.137 591.872 550.22C599.789 542.304 604.164 531.887 604.164 520.845V354.179L812.497 353.97C835.414 353.97 854.164 335.22 854.164 312.304C853.956 289.179 835.414 270.637 812.289 270.637Z" fill="black"/>
<path d="M640.416 625.21C632.916 612.085 619.166 604.168 604.166 604.168H437.499C414.583 604.168 395.833 622.918 395.833 645.835C395.833 668.751 414.583 687.501 437.499 687.501H579.791L714.582 925.001C722.291 938.543 736.249 946.043 750.832 946.043C757.707 946.043 764.791 944.376 771.249 940.626C791.249 929.376 798.332 903.751 786.874 883.751L640.416 625.21Z" fill="black"/>
<path d="M151.876 187.088C186.394 187.088 214.376 159.106 214.376 124.588C214.376 90.0702 186.394 62.088 151.876 62.088C117.358 62.088 89.376 90.0702 89.376 124.588C89.376 159.106 117.358 187.088 151.876 187.088Z" fill="black"/>
</svg>
