<svg width="1000" height="1000" viewBox="0 0 1000 1000" fill="none" xmlns="http://www.w3.org/2000/svg">
<path d="M127.503 494.163C129.169 496.663 130.628 499.163 132.294 501.455C132.503 501.663 132.711 501.872 132.711 502.288C134.169 504.372 135.628 506.455 137.086 508.747C137.503 509.372 137.919 509.997 138.336 510.622C139.586 512.288 140.836 514.163 142.086 515.83C142.503 516.455 143.128 517.08 143.544 517.913C144.794 519.58 146.044 521.247 147.294 523.122C147.711 523.747 148.128 524.372 148.753 524.997C150.211 526.872 151.669 528.747 153.128 530.622C153.544 531.038 153.753 531.455 154.169 531.872C157.711 536.455 161.461 541.038 165.419 545.622C165.628 545.83 165.628 546.038 165.836 546.038C167.503 548.122 169.378 549.997 171.044 552.08C171.461 552.497 171.878 552.913 172.086 553.33C173.544 554.997 175.211 556.872 176.878 558.538C177.294 558.955 177.711 559.372 178.128 559.788C179.794 561.455 181.461 563.33 182.919 564.997C183.336 565.413 183.544 565.622 183.961 566.038C185.836 568.122 187.919 570.205 189.794 572.08C201.044 583.538 212.919 594.163 225.003 604.372H295.836C341.044 564.788 378.753 562.705 433.544 562.705H456.253L555.211 485.83C568.336 475.413 584.794 469.788 601.461 469.788C621.461 469.788 640.211 477.497 654.169 491.663C680.628 518.122 683.336 559.997 660.628 589.58L635.836 625.413C638.544 625.413 641.461 625.622 644.169 625.622C665.419 626.247 687.294 626.871 706.253 626.871C736.044 626.871 745.003 625.413 747.086 624.788C747.294 624.788 747.711 624.58 747.919 624.58C752.294 621.455 756.669 618.33 761.044 614.997C761.044 614.997 761.044 614.997 761.253 614.997C775.003 604.58 787.919 593.33 800.419 581.455C803.544 578.33 806.669 575.413 809.794 572.288C811.878 570.205 813.753 568.33 815.628 566.247C816.044 565.83 816.253 565.622 816.669 565.205C818.336 563.538 820.003 561.663 821.461 559.997C821.878 559.58 822.294 559.163 822.711 558.538C824.378 556.872 825.836 554.997 827.503 553.33C827.919 552.913 828.336 552.497 828.544 552.08C830.211 549.997 832.086 548.122 833.753 546.038C833.961 545.83 833.961 545.622 834.169 545.622C837.919 541.038 841.669 536.663 845.419 531.872C845.836 531.455 846.044 531.038 846.461 530.622C847.919 528.747 849.378 526.872 850.836 524.997C851.253 524.372 851.878 523.747 852.294 523.122C853.544 521.455 854.794 519.788 856.044 518.122C856.461 517.497 857.086 516.663 857.503 516.038C858.753 514.372 860.003 512.497 861.253 510.83C861.669 510.205 862.086 509.58 862.503 508.955C863.961 506.872 865.419 504.788 866.878 502.705C867.086 502.497 867.294 502.288 867.503 501.872C869.169 499.372 870.628 497.08 872.294 494.58C872.503 494.163 872.919 493.747 873.128 493.122C874.378 491.247 875.628 489.163 876.878 487.288C877.294 486.455 877.919 485.622 878.336 484.788C879.378 483.122 880.419 481.455 881.253 479.788C881.878 478.955 882.294 477.913 882.919 477.08C883.753 475.413 884.794 473.955 885.628 472.288C886.253 471.455 886.669 470.413 887.086 469.58C888.128 467.913 888.961 466.038 890.003 464.372C890.419 463.538 890.836 462.705 891.253 461.872C892.711 459.372 893.961 456.872 895.211 454.163C895.836 452.913 896.461 451.455 896.669 449.997C896.878 448.955 897.086 447.913 897.086 446.872C897.294 444.372 896.878 441.663 896.044 439.372C895.836 438.955 895.628 438.538 895.628 438.122C895.419 437.913 895.419 437.497 895.211 437.288C889.378 426.038 883.128 414.997 876.669 404.372C876.253 403.747 875.836 403.122 875.628 402.497C873.128 398.33 870.419 394.372 867.711 390.205C867.711 390.205 867.711 389.997 867.503 389.997C854.794 370.83 840.836 352.913 825.628 335.83C820.211 329.788 814.794 323.955 809.169 318.33C781.044 289.997 749.586 265.622 715.419 245.622C712.503 243.955 709.378 242.08 706.461 240.413C702.086 237.913 697.503 235.622 693.128 233.33C688.753 231.038 684.169 228.747 679.378 226.663C674.794 224.58 670.211 222.497 665.419 220.413C660.836 218.538 656.044 216.455 651.253 214.788C646.461 212.913 641.669 211.247 636.878 209.58C632.086 207.913 627.294 206.455 622.294 204.997C617.503 203.538 612.503 202.08 607.503 200.83C572.919 191.663 536.669 186.872 499.378 186.872C430.211 186.872 364.586 203.538 306.044 233.33C301.461 235.622 297.086 237.913 292.711 240.413C288.336 242.913 283.961 245.413 279.586 247.913C275.211 250.413 271.044 253.122 266.669 255.83C249.586 266.872 233.336 278.955 217.919 292.08C206.253 302.08 195.211 312.497 184.586 323.538C181.044 327.288 177.503 331.038 174.169 334.788C163.961 346.247 154.169 358.122 145.003 370.622C143.544 372.705 141.878 374.788 140.419 376.872C126.878 395.83 114.586 415.83 103.961 436.663C102.503 439.372 101.878 442.288 101.878 445.205C101.878 445.83 101.878 446.663 102.086 447.288C102.294 449.372 102.919 451.663 103.961 453.538C105.211 456.038 106.669 458.747 107.919 461.247C108.336 462.08 108.753 462.913 109.169 463.538C110.211 465.205 111.044 467.08 112.086 468.747C112.503 469.58 113.128 470.622 113.544 471.455C114.378 473.122 115.419 474.788 116.253 476.247C116.878 477.08 117.294 478.122 117.919 478.955C118.961 480.622 120.003 482.288 120.836 483.955C121.253 484.788 121.878 485.622 122.294 486.455C123.544 488.538 124.794 490.413 126.044 492.288C127.086 493.33 127.294 493.747 127.503 494.163ZM770.836 338.955C785.836 353.122 799.586 368.33 812.503 384.788V506.455C799.586 522.705 785.836 538.122 770.836 552.288V338.955ZM305.836 317.497C328.544 309.997 351.669 303.747 375.003 298.955V270.83C375.003 259.372 384.378 249.997 395.836 249.997C407.294 249.997 416.669 259.372 416.669 270.83V291.872C437.503 289.163 458.336 287.288 479.169 286.663V249.997C479.169 238.538 488.544 229.163 500.003 229.163C511.461 229.163 520.836 238.538 520.836 249.997V286.663C541.669 287.288 562.503 289.163 583.336 291.872V270.83C583.336 259.372 592.711 249.997 604.169 249.997C615.628 249.997 625.003 259.372 625.003 270.83V298.955C648.336 303.747 671.461 309.997 694.169 317.497C705.003 321.038 711.044 332.913 707.294 343.747C703.753 354.58 691.878 360.622 681.044 356.872C662.711 350.83 643.961 345.622 625.211 341.455V395.83C625.211 407.288 615.836 416.663 604.378 416.663C592.919 416.663 583.544 407.288 583.544 395.83V333.955C562.919 331.038 541.878 328.955 521.044 328.33V395.83C521.044 407.288 511.669 416.663 500.211 416.663C488.753 416.663 479.378 407.288 479.378 395.83V328.33C458.544 329.163 437.503 331.038 416.878 333.955V395.83C416.878 407.288 407.503 416.663 396.044 416.663C384.586 416.663 375.211 407.288 375.211 395.83V341.455C356.253 345.622 337.711 350.83 319.169 356.872C317.086 357.497 314.794 357.913 312.503 357.913C303.753 357.913 295.628 352.288 292.711 343.747C288.961 332.913 295.003 321.038 305.836 317.497ZM187.503 384.788C200.419 368.538 214.169 353.122 229.169 338.955V552.288C214.169 538.122 200.419 522.913 187.503 506.455V384.788Z" fill="black"/>
<path d="M920.423 641.245C915.84 623.953 898.131 613.745 880.84 618.953C840.215 631.037 789.173 657.912 756.673 665.412C724.173 672.912 607.506 663.953 568.965 666.87C563.756 667.287 560.631 661.662 563.34 657.287L627.09 564.995C637.715 551.87 636.673 532.912 624.798 521.245C612.923 509.37 594.173 508.328 581.048 518.745L475.423 600.828C472.506 603.12 468.756 604.578 465.006 604.578H434.173C377.506 604.578 352.298 606.245 312.298 646.245H142.09C132.923 646.245 125.423 653.745 125.423 662.912V796.245C125.423 805.412 132.923 812.912 142.09 812.912L517.923 812.703C519.798 812.703 521.881 812.287 523.548 811.662L748.756 750.62C749.59 750.412 750.423 749.995 751.256 749.787C763.548 744.162 858.131 699.578 903.34 678.328C917.298 671.453 924.381 655.828 920.423 641.245Z" fill="black"/>
</svg>
