<svg width="1000" height="1000" viewBox="0 0 1000 1000" fill="none" xmlns="http://www.w3.org/2000/svg">
<path fill-rule="evenodd" clip-rule="evenodd" d="M880.624 283.336L784.999 419.795C776.874 431.461 763.957 437.503 750.832 437.503C742.499 437.503 734.166 435.003 726.874 430.003L658.541 382.295L538.957 552.92C532.707 561.878 522.916 568.128 512.082 570.003C509.582 570.42 507.291 570.628 504.791 570.628C496.249 570.628 487.916 568.128 480.832 563.128L378.332 491.461C369.374 485.211 363.124 475.42 361.249 464.586C359.374 453.753 361.874 442.503 368.124 433.545L487.707 262.92L453.541 238.961L381.874 341.253C368.749 360.003 342.707 364.586 323.749 351.461C304.999 338.336 300.416 312.295 313.541 293.336L409.166 156.878C415.416 147.92 425.207 141.67 436.041 139.795C446.874 137.92 458.124 140.42 467.082 146.67L740.207 337.711L811.874 235.42C824.999 216.67 851.041 212.086 869.999 225.211C889.166 238.545 893.749 264.378 880.624 283.336ZM559.791 668.961L354.999 525.628C336.249 512.503 310.207 517.086 296.874 535.836C283.749 554.586 288.332 580.628 307.082 593.961L477.707 713.545L358.332 884.17C345.207 903.128 349.791 928.961 368.541 942.295C375.832 947.295 384.166 949.795 392.291 949.795C405.416 949.795 418.332 943.545 426.457 932.086L569.791 727.295C583.124 708.128 578.541 682.086 559.791 668.961ZM351.457 675.836C332.707 662.711 306.666 667.295 293.332 686.045L149.999 890.836C136.874 909.586 141.457 935.628 160.207 948.961C167.499 953.961 175.832 956.461 184.166 956.461C197.291 956.461 210.207 950.211 218.332 938.753L361.666 733.961C374.999 715.003 370.416 688.961 351.457 675.836ZM628.541 208.336C667.916 235.836 716.666 227.086 744.166 187.711C771.666 148.336 763.124 99.1698 723.749 71.6698C684.374 44.1698 635.207 52.7115 607.707 92.0865C580.207 131.461 589.166 180.836 628.541 208.336Z" fill="black"/>
</svg>
