<svg width="1000" height="1000" viewBox="0 0 1000 1000" fill="none" xmlns="http://www.w3.org/2000/svg">
<path fill-rule="evenodd" clip-rule="evenodd" d="M679.584 194.792C660.625 183.542 640.625 174.167 619.584 166.667C618.334 167.917 616.875 169.167 615.625 170.208C614.375 171.25 613.125 172.5 611.875 173.542C610.417 174.792 608.959 176.25 607.5 177.5C605 179.583 602.709 181.667 600.417 183.958C599.584 184.792 598.542 185.833 597.709 186.667C596.667 187.5 595.834 188.542 595 189.583C594.375 190.417 593.542 191.042 592.917 191.875C587.709 197.292 582.709 202.708 577.709 208.333C576.875 209.167 576.042 210.208 575.209 211.042C574.167 212.083 573.125 213.125 572.084 214.375C571.875 214.583 571.667 214.792 571.458 215.208C571.25 215.417 571.042 215.833 570.834 216.042C569.792 217.292 568.75 218.542 567.917 219.792C567.084 220.833 566.459 221.875 565.625 222.708C559.792 230 553.959 237.5 548.542 245.208C548.334 245.625 547.917 246.042 547.708 246.25C547.292 246.667 547.084 247.083 546.667 247.708C540.625 256.458 534.792 265.417 529.167 274.583C528.959 275 528.75 275.208 528.542 275.625L528.334 275.833C528.334 276.042 528.125 276.042 528.125 276.25C506.875 312.917 492.292 352.5 482.709 393.542C482.709 393.958 482.5 394.167 482.5 394.583C482.292 395 482.292 395.208 482.292 395.625C482.084 396.875 481.667 398.333 481.459 399.583C481.25 400.208 481.25 401.042 481.042 401.667C478.334 414.583 476.042 427.5 474.375 440.625C474.167 441.458 474.167 442.292 473.959 443.333C473.75 444.375 473.542 445.417 473.542 446.458C473.334 448.75 473.334 450.833 473.125 453.125C473.125 454.792 473.125 456.667 472.917 458.333C472.709 461.25 472.292 463.958 472.084 466.875C471.667 471.458 471.042 476.042 471.042 480.625C464.584 484.167 458.125 487.5 451.667 490.625C449.792 491.458 447.917 492.5 446.042 493.333C442.5 495 438.75 496.875 435.208 498.333C429.167 500.833 423.125 502.917 416.875 504.792C415 505.417 413.125 506.042 411.25 506.667C378.333 517.708 344.167 524.375 309.584 525.833C309.167 525.833 308.75 525.833 308.542 525.833C308.125 525.833 307.709 525.833 307.5 525.833C305 508.75 303.334 491.458 303.334 473.542C303.334 335.208 379.584 209.375 500 144.792C453.75 144.792 409.584 153.75 369.167 170C290.417 249.375 243.959 357.5 243.959 473.542C243.959 490.417 245.209 507.083 247.084 523.542C240 522.708 232.917 521.25 226.042 520C224.375 519.583 222.917 519.375 221.25 518.958C219.583 518.542 217.708 518.333 216.042 517.917C213.125 517.5 210.209 516.875 207.5 516.25C198.542 514.167 189.792 511.458 180.834 508.542C176.875 507.292 172.708 506.042 168.75 504.583C161.25 501.875 153.75 498.958 146.25 495.833C146.25 496.875 146.25 497.917 146.25 498.958C146.25 520.417 148.125 541.458 151.875 561.875C153.75 562.5 155.625 563.125 157.5 563.75C158.958 564.167 160.417 564.583 161.667 565.208C163.542 565.833 165.208 566.458 167.083 567.083C170.208 568.125 173.333 569.167 176.458 570C177.292 570.208 177.917 570.417 178.75 570.625C179.167 570.833 179.792 570.833 180.209 571.042C181.459 571.458 182.917 571.667 184.167 571.875C185 572.083 186.042 572.292 186.875 572.5C194.167 574.375 201.458 576.042 208.75 577.5C209.792 577.708 210.833 577.917 211.875 578.333C213.542 578.75 215.208 579.167 216.875 579.375C217.292 579.375 217.5 579.583 217.917 579.583H218.958C220.625 579.792 222.292 580 223.75 580.208C225 580.417 226.25 580.417 227.292 580.625C236.667 582.083 245.834 583.333 255.417 584.167C255.834 584.167 256.459 584.167 256.875 584.375C257.292 584.375 257.917 584.583 258.334 584.583C268.959 585.417 279.583 586.042 290.625 586.25C290.833 586.25 291.25 586.25 291.458 586.25C291.875 586.25 292.084 586.25 292.5 586.25C334.792 586.25 376.667 579.167 416.875 566.875C417.084 566.875 417.084 566.875 417.292 566.875H417.709C418.125 566.875 418.75 566.667 419.167 566.458C420.417 566.042 421.667 565.625 422.708 565.208C423.333 565 424.167 564.583 424.792 564.375C437.292 560.208 449.792 555.833 461.875 550.625C462.709 550.208 463.542 550 464.375 549.583C465.417 549.167 466.459 548.958 467.292 548.542C469.167 547.708 471.25 546.667 473.125 545.625C474.792 544.792 476.25 543.958 477.917 543.125C480.417 541.875 482.917 540.833 485.417 539.792C489.792 537.917 494.167 536.042 498.125 533.75C504.375 537.5 510.625 541.458 516.458 545.625C517.917 546.667 519.375 547.5 520.834 548.542C524.375 550.833 527.917 553.333 531.25 555.833C536.042 559.583 540.625 563.542 545.209 567.708C546.875 569.167 548.75 570.833 550.417 572.292C576.459 595.417 599.375 621.458 618.125 650.833C618.334 651.25 618.542 651.458 618.75 651.667L618.959 652.083L619.375 652.5C605.834 663.125 591.667 673.333 576.25 682.083C456.459 751.25 309.375 748.125 193.334 676.25C216.042 715.208 245.834 749.375 280.834 777.083C388.75 805.417 505.625 791.667 606.042 733.75C620.834 725.208 634.584 715.833 647.917 706.042C650.834 712.917 653.125 720 655.625 727.083C656.042 728.333 656.458 729.583 656.875 730.833C657.292 732.292 657.917 733.75 658.542 735.208C659.584 738.125 660.625 741.042 661.459 743.958C664.167 752.917 666.25 761.875 668.125 770.833C668.959 775 670 778.958 670.834 783.125C672.292 791.042 673.542 798.958 674.375 806.875C693.75 795.833 711.875 783.125 728.75 768.958C728.334 767.083 727.917 765.417 727.5 763.542C727.084 762.083 726.875 760.417 726.459 758.958C726.042 757.083 725.834 755.417 725.417 753.542C724.792 750.208 724.167 746.875 723.334 743.75C722.917 742.5 722.709 741.25 722.292 740C722.084 738.75 721.667 737.708 721.25 736.458C720.834 735.417 720.625 734.375 720.209 733.333C718.125 726.042 715.834 718.958 713.542 711.875C713.125 710.625 712.709 709.375 712.5 708.333C712.084 706.875 711.667 705.625 711.25 704.167C711.042 703.75 711.042 703.542 710.834 703.125C710.625 702.708 710.625 702.5 710.417 702.083C709.792 700.625 709.167 699.167 708.542 697.708C708.125 696.458 707.5 695.417 707.084 694.167C703.75 685.417 700.209 676.667 696.042 668.125C695.834 667.708 695.625 667.292 695.417 666.875C695.208 666.25 695 665.833 694.792 665.208C690.209 655.625 685.625 646.042 680.209 636.667C680 636.458 680 636.25 679.792 635.833C679.583 635.417 679.375 635 679.167 634.792C657.917 598.125 631.042 565.625 600.417 536.667C600.209 536.458 599.792 536.042 599.583 535.833C599.375 535.625 598.959 535.208 598.75 535C597.709 533.958 596.459 532.917 595.209 531.875C594.792 531.458 594.375 531.25 593.959 530.833C584.167 522.083 574.167 513.542 563.542 505.625C562.709 505 562.084 504.375 561.459 503.75C560.625 503.125 559.792 502.5 558.959 501.875C557.084 500.625 555.209 499.375 553.334 498.333C551.875 497.5 550.209 496.458 548.75 495.417C546.459 493.75 544.167 492.292 541.875 490.625C538.125 487.917 534.375 485.208 530.417 482.708C530.625 475.417 530.834 468.125 531.459 460.833C531.667 458.75 531.667 456.875 531.875 454.792C532.084 450.833 532.5 446.667 532.917 442.708C533.75 436.042 535.209 429.583 536.459 423.125C536.875 421.458 537.084 419.583 537.5 417.917C544.375 383.958 555.625 351.042 571.667 320.208C571.875 319.792 572.084 319.375 572.292 318.958C572.5 318.75 572.5 318.333 572.709 318.125C588.75 324.583 604.584 331.875 620 340.625C739.792 409.792 810.625 538.75 806.459 675.208C828.542 637.083 843.542 594.583 850 549.375C820.625 441.667 750.209 347.083 649.792 289.167C635.209 280.625 620 273.333 604.792 266.875C609.167 261.25 613.75 255.833 618.333 250.417C619.375 249.167 620.417 247.917 621.667 246.667C622.917 245.208 624.167 243.75 625.209 242.5C627.084 240.417 628.958 238.125 630.833 236.042C637.292 229.375 643.959 223.125 650.834 216.875L652.084 215.625C654.792 213.125 657.5 210.625 660.209 208.333C667.084 204.583 673.334 199.583 679.584 194.792ZM83.3335 500C83.3335 269.792 269.792 83.3333 500 83.3333C730 83.3333 916.667 269.792 916.667 500C916.667 730 730 916.667 500 916.667C269.792 916.667 83.3335 730 83.3335 500Z" fill="black"/>
</svg>
