<svg width="1000" height="1000" viewBox="0 0 1000 1000" fill="none" xmlns="http://www.w3.org/2000/svg">
<path d="M298.125 366.458C312.083 358.333 326.458 354.167 341.042 354.167C368.75 246.25 466.875 166.458 583.125 166.458C620.208 166.458 655.625 174.583 687.292 189.167V79.1667C687.292 70 679.792 62.5 670.625 62.5H79.1667C70 62.5 62.5 70 62.5 79.1667V462.5C62.5 471.667 70 479.167 79.1667 479.167H257.917C255.625 444.583 254.375 391.875 298.125 366.458Z" fill="black"/>
<path d="M431.877 425.618C439.168 440.826 443.335 456.868 447.293 472.076C452.085 490.409 457.085 509.368 465.21 515.201C465.418 515.201 465.418 515.201 465.627 515.201C470.835 515.201 501.043 511.451 577.085 436.659C626.043 388.534 672.918 331.659 701.043 297.701C710.835 286.034 717.71 277.493 722.71 271.868C724.377 269.993 726.043 268.118 727.71 266.451C690.21 230.201 639.168 208.118 583.127 208.118C485.627 208.118 403.96 274.993 381.043 365.409C398.127 375.201 416.46 393.326 431.877 425.618Z" fill="black"/>
<path fill-rule="evenodd" clip-rule="evenodd" d="M944.79 516.675C916.457 478.55 866.456 526.675 841.248 543.55C808.331 565.425 776.248 588.758 743.123 610.425C775.207 589.383 803.957 561.05 831.04 534.175C864.373 501.258 905.415 461.675 919.79 415.633C926.04 395.425 919.582 370.217 897.707 362.925C856.248 349.175 826.873 397.3 803.123 422.3C744.998 483.342 683.54 529.175 683.54 529.175C723.748 485.633 785.832 414.592 801.248 396.467C824.165 369.383 887.498 298.967 838.748 267.717C808.748 248.342 772.915 278.55 753.957 299.8C718.54 339.8 520.207 600.217 443.332 551.05C409.79 529.592 410.623 478.342 394.165 443.758C379.998 414.175 354.582 381.883 318.957 402.508C289.165 419.8 300.623 473.55 300.623 501.467C300.623 575.842 286.873 687.508 323.123 732.925C327.498 738.55 327.707 746.258 323.748 752.092C314.79 765.842 299.373 788.967 289.79 803.342C284.998 810.633 286.665 820.425 293.54 825.842L457.707 951.883C464.582 957.092 474.165 956.258 479.998 950.217C494.79 934.592 521.873 906.05 534.373 892.717C538.332 888.55 544.373 886.883 549.998 888.133C645.415 909.383 857.081 767.092 888.54 725.842C888.54 725.842 920.207 696.467 903.54 670.008C873.123 621.467 787.915 691.883 755.415 705.842C803.54 676.258 852.707 645.842 895.207 608.342C917.915 588.55 970.623 551.467 944.79 516.675Z" fill="black"/>
</svg>
