<svg width="1000" height="1000" viewBox="0 0 1000 1000" fill="none" xmlns="http://www.w3.org/2000/svg">
<path d="M319.585 789.799C328.126 791.049 337.501 791.882 347.918 791.882C352.085 791.882 356.251 791.674 360.626 791.465C412.501 788.965 434.585 773.965 465.21 753.549C468.96 751.049 472.71 748.549 476.46 746.049V558.132H404.793C399.585 626.882 372.501 689.59 330.001 738.757C317.918 728.757 306.876 717.715 296.668 705.632C330.835 665.007 352.918 613.965 357.918 558.132H235.418C234.793 550.424 234.376 542.507 234.376 534.59C234.376 526.674 234.793 518.965 235.418 511.257H358.126C353.126 455.424 331.043 404.382 296.876 363.757C307.085 351.674 318.126 340.632 330.21 330.632C372.71 379.799 399.793 442.507 405.001 511.257H476.668V270.007C484.376 269.382 492.293 268.965 500.21 268.965C508.126 268.965 515.835 269.382 523.751 270.007V511.257H595.418C600.626 442.507 627.71 379.799 670.21 330.632C682.293 340.632 693.335 351.674 703.543 363.757C669.376 404.382 647.293 455.424 642.293 511.257H764.585C765.21 518.965 765.626 526.882 765.626 534.59C765.626 542.507 765.21 550.215 764.585 558.132H641.876C646.46 610.215 666.043 658.132 696.46 697.299C719.793 700.632 739.376 706.257 756.46 712.924C791.668 662.299 812.293 600.84 812.293 534.59C812.293 362.09 672.293 222.09 499.793 222.09C327.293 222.09 187.293 362.09 187.293 534.59C187.501 640.007 239.585 733.132 319.585 789.799Z" fill="black"/>
<path d="M523.545 558.135V719.802C551.253 707.302 586.045 697.094 633.128 694.802C634.795 694.802 636.461 694.594 638.128 694.594C613.961 654.177 598.753 607.719 595.211 558.135H523.545Z" fill="black"/>
<path d="M915.833 805.424C852.499 808.549 820.416 791.466 786.249 773.341C750.416 754.174 709.999 732.716 635.207 736.466C560.416 740.216 522.291 765.841 488.541 788.341C456.457 809.799 426.249 830.008 362.916 833.341C299.582 836.466 267.499 819.383 233.332 801.258C197.499 782.091 157.082 760.633 82.2908 764.383C70.8325 765.008 62.0825 774.799 62.4991 786.258C63.1241 797.716 72.9158 806.466 84.3741 806.049C147.707 802.924 179.791 820.008 213.957 838.133C249.791 857.299 290.207 878.758 364.999 875.008C439.791 871.258 477.916 845.633 511.666 823.133C543.749 801.674 573.957 781.466 637.291 778.133C700.624 775.008 732.707 792.091 766.874 810.216C802.707 829.383 843.124 850.841 917.916 847.091C929.374 846.466 938.124 836.674 937.707 825.216C936.874 813.549 927.083 804.799 915.833 805.424Z" fill="black"/>
</svg>
