<svg width="1000" height="1000" viewBox="0 0 1000 1000" fill="none" xmlns="http://www.w3.org/2000/svg">
<path fill-rule="evenodd" clip-rule="evenodd" d="M907.083 468.75H854.167V270.833C854.167 224.792 816.875 187.5 770.833 187.5C724.792 187.5 687.5 224.792 687.5 270.833V468.75H312.5V270.833C312.5 224.792 275.208 187.5 229.167 187.5C183.125 187.5 145.833 224.792 145.833 270.833V468.75H93.75C76.4583 468.75 62.5 482.708 62.5 500C62.5 517.292 76.4583 531.25 93.75 531.25H145.833V729.167C145.833 775.208 183.125 812.5 229.167 812.5C275.208 812.5 312.5 775.208 312.5 729.167V531.25H687.5V729.167C687.5 775.208 724.792 812.5 770.833 812.5C816.875 812.5 854.167 775.208 854.167 729.167V531.25H907.083C924.375 531.25 938.333 517.292 938.333 500C938.333 482.708 924.375 468.75 907.083 468.75Z" fill="black"/>
</svg>
