<svg width="1000" height="1000" viewBox="0 0 1000 1000" fill="none" xmlns="http://www.w3.org/2000/svg">
<path fill-rule="evenodd" clip-rule="evenodd" d="M622.084 623.337C621.251 623.337 620.626 623.337 619.792 623.337C603.126 622.712 587.709 615.629 576.251 603.546C564.792 591.254 558.959 575.421 559.584 558.754C560.834 525.004 588.126 498.545 621.876 498.545C622.709 498.545 623.334 498.545 624.167 498.545C658.542 499.795 685.626 528.754 684.376 563.129C683.126 596.879 655.834 623.337 622.084 623.337Z" fill="black"/>
<path d="M669.921 222.715C700.178 187.277 695.977 134.02 660.539 103.763C625.1 73.5064 571.843 77.7071 541.587 113.146C511.33 148.584 515.531 201.841 550.969 232.098C586.408 262.354 639.664 258.154 669.921 222.715Z" fill="black"/>
<path d="M768.328 625.003L667.286 344.17C664.995 337.92 661.245 332.295 656.453 327.712C652.286 322.92 647.078 318.962 640.828 316.462L521.87 268.337C519.578 267.503 517.286 266.67 514.786 266.253H514.578C513.953 266.045 513.328 266.045 512.703 265.837C512.495 265.837 512.286 265.837 512.078 265.628L286.245 232.295C274.578 230.628 262.911 233.753 253.745 241.253C244.578 248.753 239.161 259.587 238.536 271.253L229.578 439.17C228.328 462.087 246.036 481.878 268.953 482.92C291.87 484.17 311.661 466.462 312.703 443.545L319.37 321.253L447.911 340.212L372.911 525.212C364.37 546.462 374.578 570.837 395.828 579.378L460.828 605.628C490.411 619.17 513.745 642.92 526.453 673.128C539.995 705.212 540.411 740.628 527.286 772.712C514.161 805.003 489.37 830.212 457.495 843.753C425.411 857.295 389.995 857.712 357.911 844.587C291.453 817.712 259.161 741.67 286.036 675.003C293.953 655.212 306.245 638.128 322.495 624.378C339.995 609.587 342.286 583.128 327.495 565.628C312.703 548.128 286.245 545.837 268.745 560.628C242.495 582.92 221.87 611.462 208.745 643.545C164.578 752.712 217.495 877.295 326.661 921.462C352.495 931.878 379.578 937.087 406.661 937.087C434.995 937.087 463.12 931.462 489.995 920.003C542.495 897.712 583.12 856.253 604.578 803.545C624.161 755.003 625.411 702.087 608.12 653.128C587.078 650.003 567.911 640.003 553.328 624.378C536.245 606.045 527.286 582.087 528.12 557.087C528.953 532.712 539.161 509.795 556.661 492.92C574.161 476.045 597.286 466.67 621.661 466.67C622.703 466.67 623.953 466.67 624.995 466.67C649.995 467.503 673.12 478.128 690.203 496.462C707.286 514.795 716.245 538.753 715.411 563.753C714.578 588.128 704.37 611.045 686.87 627.92C685.411 629.378 683.953 630.628 682.286 631.878L689.786 652.712C695.828 669.795 711.87 680.212 728.953 680.212C733.536 680.212 738.328 679.378 743.12 677.712C764.995 670.42 776.245 646.67 768.328 625.003Z" fill="black"/>
</svg>
