<svg width="1000" height="1000" viewBox="0 0 1000 1000" fill="none" xmlns="http://www.w3.org/2000/svg">
<path d="M436.097 194.418C469.047 161.467 469.047 108.045 436.096 75.0945C403.146 42.1443 349.724 42.1443 316.773 75.0945C283.823 108.045 283.823 161.467 316.773 194.418C349.724 227.368 403.146 227.368 436.097 194.418Z" fill="black"/>
<path d="M531.043 136.249C530.626 135.208 530.418 134.166 530.001 133.124C524.168 140.208 520.835 149.374 520.835 159.166V224.999L305.626 260.833C305.418 260.833 305.209 260.833 305.001 261.041C303.959 261.249 303.126 261.458 302.085 261.666C301.668 261.666 301.251 261.874 300.834 261.874C299.793 262.083 298.96 262.499 298.126 262.708C297.71 262.916 297.293 262.916 296.876 263.124C296.043 263.541 295.21 263.958 294.376 264.166C293.96 264.374 293.543 264.583 293.126 264.791C292.293 265.208 291.46 265.624 290.835 266.041C290.418 266.249 290.001 266.458 289.585 266.666C288.751 267.083 288.126 267.708 287.293 268.124C286.876 268.333 286.668 268.541 286.251 268.958C285.418 269.583 284.793 270.208 284.168 270.833C283.959 271.041 283.543 271.249 283.334 271.666C282.501 272.291 281.876 273.124 281.251 273.958C281.043 274.166 280.834 274.374 280.626 274.583C280.001 275.416 279.168 276.249 278.543 277.083C278.334 277.291 278.334 277.499 278.126 277.499C277.501 278.541 276.876 279.374 276.251 280.416C276.251 280.624 276.043 280.624 276.043 280.833C275.418 281.874 275.001 282.916 274.376 283.958C274.376 284.166 274.168 284.166 274.168 284.374C273.751 285.416 273.334 286.458 272.918 287.499C272.918 287.708 272.709 287.916 272.709 288.124C272.293 289.166 272.085 290.208 271.876 291.249C271.876 291.458 271.668 291.874 271.668 292.083C271.459 293.124 271.251 293.958 271.043 294.999C271.043 295.416 270.834 295.833 270.834 296.249C270.626 297.083 270.626 298.124 270.626 298.958C270.626 299.374 270.626 299.791 270.626 300.416C270.626 300.833 270.626 301.041 270.626 301.458V551.458C270.626 574.374 289.376 593.124 312.293 593.124H376.251C448.126 593.124 506.46 651.458 506.46 723.333C506.46 795.208 448.126 853.541 376.251 853.541C304.376 853.541 246.043 795.208 246.043 723.333C246.043 701.874 251.043 681.666 260.834 662.916C271.459 642.499 263.751 617.291 243.334 606.666C222.918 596.041 197.709 603.749 187.084 624.166C171.043 654.583 162.709 688.958 162.709 723.541C162.709 841.249 258.543 937.083 376.251 937.083C493.96 937.083 589.793 841.249 589.793 723.541C589.793 643.124 545.001 572.708 478.96 536.458V316.666L569.168 301.666C589.168 298.333 603.96 281.041 603.96 260.624V201.874C571.043 193.541 543.126 169.374 531.043 136.249Z" fill="black"/>
<path d="M652.2 158.618C684.236 145.767 699.788 109.379 686.937 77.3433C674.086 45.3073 637.698 29.7548 605.662 42.6058C573.626 55.4567 558.074 91.8448 570.925 123.881C583.776 155.917 620.164 171.469 652.2 158.618Z" fill="black"/>
</svg>
