<svg width="1000" height="1000" viewBox="0 0 1000 1000" fill="none" xmlns="http://www.w3.org/2000/svg">
<path fill-rule="evenodd" clip-rule="evenodd" d="M858.535 440.632L733.743 522.09C726.868 526.465 718.952 528.965 711.035 528.965C707.493 528.965 703.952 528.548 700.41 527.507C688.952 524.382 679.368 516.674 673.952 506.257L609.577 380.215L505.41 528.965C499.16 537.923 489.368 544.174 478.535 546.049C476.035 546.465 473.743 546.673 471.243 546.673C462.702 546.673 454.368 544.173 447.285 539.173L344.785 467.507C335.827 461.257 329.577 451.465 327.702 440.632C325.827 429.798 328.327 418.549 334.577 409.59L406.243 307.299C457.077 234.59 555.827 215.007 630.41 261.257C639.577 264.799 647.285 271.674 652.077 281.049L726.868 427.299L812.91 371.049C832.077 358.549 857.91 363.965 870.618 383.132C883.118 402.298 877.702 428.132 858.535 440.632ZM542.702 672.09C540.618 661.465 534.577 652.09 525.827 645.84L320.827 501.882C302.077 488.548 276.035 493.132 262.702 512.09C249.368 530.84 253.952 556.882 272.91 570.215L463.952 704.382L505.202 921.674C508.952 941.674 526.452 955.632 546.035 955.632C548.535 955.632 551.243 955.424 553.743 954.799C576.452 950.424 591.243 928.757 586.868 906.049L542.702 672.09ZM294.785 644.382C271.868 644.382 253.118 663.132 253.118 686.048V768.757L108.535 880.84C90.4101 895.007 87.0767 921.048 101.035 939.382C109.16 950.007 121.452 955.424 133.952 955.424C142.91 955.424 151.868 952.507 159.368 946.674L320.202 822.09C330.41 814.174 336.243 802.09 336.243 789.174V686.257C336.452 663.132 317.702 644.382 294.785 644.382ZM662.493 232.924C701.868 260.424 750.618 251.674 778.118 212.299C805.618 172.924 797.077 123.757 757.702 96.2569C718.327 68.7569 669.16 77.2985 641.66 116.674C614.16 156.049 623.118 205.215 662.493 232.924Z" fill="black"/>
</svg>
