<?xml version="1.0" encoding="iso-8859-1"?>
<!-- Generator: Adobe Illustrator 23.0.4, SVG Export Plug-In . SVG Version: 6.00 Build 0)  -->
<svg version="1.1" xmlns="http://www.w3.org/2000/svg" xmlns:xlink="http://www.w3.org/1999/xlink" x="0px" y="0px"
	 viewBox="0 0 480 480" style="enable-background:new 0 0 480 480;" xml:space="preserve">
<g id="Workspace">
	<path d="M429.768,176.709c-11.883,14.587-28.234,25.394-46.952,30.31c11.308,17.689,19.9,37.033,25.439,57.376
		c-3.135,21.722-10.391,42.128-20.947,60.397c1.313-42.237-12.352-82.928-37.608-115.421c-33.128-3.781-60.849-25.617-73.051-55.398
		c-0.498-0.205-0.996-0.412-1.495-0.613c-0.063,0.128-0.121,0.256-0.179,0.384c-0.087,0.192-0.173,0.385-0.281,0.576
		c-7.68,14.8-13.08,30.62-16.4,46.92c-0.17,0.843-0.345,1.684-0.52,2.523v0.001c-0.646,3.109-1.291,6.212-1.7,9.376
		c-0.252,1.914-0.381,3.846-0.51,5.771c-0.064,0.972-0.13,1.942-0.21,2.908c-0.28,3.5-0.44,7-0.521,10.521
		c1.906,1.166,3.718,2.489,5.528,3.812v0.001h0.001l0.001,0.001c1.077,0.786,2.154,1.573,3.25,2.326
		c0.695,0.481,1.423,0.924,2.152,1.366c0.906,0.551,1.814,1.103,2.668,1.734c0.398,0.283,0.775,0.605,1.154,0.929
		c0.342,0.292,0.685,0.585,1.046,0.851c5.08,3.8,9.88,7.88,14.58,12.12c0.189,0.16,0.381,0.318,0.572,0.478l0.001,0.001
		c0.573,0.476,1.146,0.952,1.687,1.462c0.129,0.119,0.253,0.248,0.38,0.38c0.129,0.134,0.259,0.27,0.399,0.399
		c14.74,13.841,27.681,29.5,37.841,47.08c0.11,0.173,0.198,0.359,0.287,0.548c0.056,0.118,0.111,0.237,0.173,0.353
		c2.56,4.5,4.819,9.1,7,13.7c0.122,0.255,0.226,0.511,0.327,0.762c0.082,0.202,0.163,0.402,0.253,0.598
		c1.92,4.141,3.619,8.301,5.26,12.521c0.218,0.559,0.459,1.109,0.7,1.66c0.311,0.71,0.62,1.419,0.88,2.14
		c0.06,0.16,0.125,0.315,0.189,0.47c0.065,0.155,0.13,0.311,0.19,0.471c0.235,0.663,0.431,1.339,0.626,2.013
		c0.17,0.586,0.339,1.171,0.534,1.747c1.14,3.399,2.239,6.82,3.22,10.3c0.132,0.508,0.294,1.003,0.457,1.496v0.001
		c0.183,0.557,0.365,1.111,0.503,1.683c0.18,0.601,0.36,1.221,0.521,1.82c0.403,1.576,0.714,3.16,1.024,4.747
		c0.167,0.851,0.334,1.701,0.515,2.553c0.16,0.745,0.324,1.487,0.487,2.228c0.191,0.866,0.383,1.73,0.566,2.598
		c-8.085,6.855-16.816,12.971-26.089,18.239c-0.436-3.81-1.006-7.619-1.702-11.428c-0.38-1.98-0.819-3.94-1.26-5.9
		c-0.939-4.34-1.899-8.66-3.2-12.939c-0.41-1.416-0.916-2.814-1.42-4.206c-0.259-0.713-0.516-1.424-0.76-2.135
		c-0.207-0.609-0.413-1.22-0.618-1.829c-1.142-3.383-2.275-6.745-3.682-10.051c-6.38,4.721-13,9.24-20.061,13.32
		c-48.211,27.83-104.279,34.413-156.073,20.812c-16.876-13.302-31.18-29.728-42.031-48.397
		c55.745,34.532,126.305,36.028,183.808,2.838c7.399-4.28,14.2-9.14,20.72-14.24l-0.067-0.108l-0.089-0.138l-0.124-0.184
		c-0.095-0.141-0.189-0.28-0.279-0.43c-8.98-14.061-20-26.641-32.461-37.7c-0.838-0.729-1.668-1.465-2.499-2.202
		c-2.183-1.937-4.368-3.876-6.7-5.658c-1.616-1.262-3.333-2.402-5.05-3.544l-0.001-0.001c-0.705-0.469-1.411-0.938-2.109-1.415
		c-2.88-2-5.82-3.9-8.84-5.72c-1.993,1.091-4.066,2.006-6.143,2.922h-0.002c-1.195,0.527-2.393,1.056-3.576,1.618
		c-0.786,0.375-1.552,0.796-2.317,1.217h-0.001v0.001h-0.001c-0.908,0.499-1.816,0.999-2.761,1.422
		c-0.458,0.203-0.934,0.365-1.408,0.528h-0.001c-0.415,0.142-0.829,0.284-1.23,0.452c-5.84,2.52-11.78,4.64-17.82,6.6
		c-0.343,0.119-0.686,0.244-1.029,0.369l-0.002,0.001h-0.002v0.001h-0.001c-0.577,0.21-1.157,0.421-1.745,0.609
		c-0.221,0.077-0.458,0.121-0.689,0.165h-0.001l-0.168,0.031l-0.202,0.043c-19.34,5.88-39.399,9.26-59.7,9.26
		c-0.162,0-0.319-0.01-0.474-0.02h-0.001c-0.149-0.011-0.298-0.02-0.445-0.02c-5.22-0.061-10.34-0.381-15.46-0.78v-0.021
		c-0.25-0.01-0.495-0.045-0.739-0.08c-0.245-0.034-0.49-0.069-0.74-0.079c-4.521-0.421-9-1.021-13.46-1.721
		c-0.58-0.085-1.163-0.148-1.745-0.212h-0.001c-0.784-0.085-1.565-0.17-2.334-0.308l-0.132-0.022l-0.15-0.024l-0.175-0.027h-0.002
		c-0.176-0.027-0.349-0.054-0.521-0.086c-0.805-0.135-1.581-0.328-2.358-0.522h-0.001c-0.497-0.124-0.994-0.249-1.5-0.357
		c-3.521-0.7-7.021-1.46-10.5-2.36c-0.44-0.105-0.888-0.198-1.336-0.291v-0.001h-0.001c-0.65-0.135-1.304-0.271-1.943-0.448
		c-0.245-0.065-0.494-0.124-0.743-0.183c-0.36-0.085-0.722-0.171-1.077-0.277c-1.526-0.416-3.013-0.928-4.5-1.439
		c-0.87-0.3-1.741-0.6-2.62-0.88c-0.681-0.222-1.364-0.439-2.047-0.656c-0.909-0.29-1.818-0.579-2.723-0.879
		C70.922,260.405,70,250.309,70,240c0-0.486,0.002-0.972,0.006-1.457c3.524,1.516,7.119,2.928,10.764,4.228
		c1.9,0.68,3.84,1.279,5.78,1.88c4.22,1.359,8.439,2.66,12.76,3.699c1.363,0.322,2.742,0.568,4.116,0.812
		c0.845,0.15,1.687,0.301,2.523,0.468c0.769,0.149,1.535,0.301,2.301,0.453c3.345,0.663,6.683,1.324,10.1,1.747
		c-0.9-7.9-1.5-15.88-1.5-24.02c0-55.733,22.378-107.627,60.13-145.704c19.447-7.789,40.657-12.085,62.85-12.106
		c-57.819,30.997-94.408,91.393-94.408,157.794c0,8.54,0.8,16.86,1.98,25.08c0.18-0.01,0.354-0.025,0.53-0.04
		c0.175-0.016,0.35-0.03,0.529-0.04c16.641-0.76,33.021-3.98,48.8-9.24c0.891-0.301,1.781-0.596,2.672-0.891
		c2.951-0.977,5.896-1.951,8.769-3.149c1.77-0.726,3.495-1.574,5.223-2.424h0.001c0.89-0.438,1.779-0.875,2.677-1.296
		c3.159-1.5,6.26-3.1,9.34-4.8c0.062-2.234,0.301-4.438,0.54-6.644h0.001v-0.002c0.146-1.349,0.293-2.697,0.398-4.055
		c0.062-0.828,0.081-1.667,0.1-2.508v-0.001c0.024-1.068,0.049-2.14,0.161-3.191c0.054-0.512,0.15-1.019,0.246-1.521v-0.002
		c0.079-0.42,0.159-0.838,0.214-1.257c0.76-6.319,1.88-12.54,3.199-18.739c0.062-0.329,0.119-0.66,0.176-0.992v-0.001h0.001
		c0.109-0.637,0.219-1.276,0.363-1.907c0.04-0.17,0.096-0.345,0.15-0.52v-0.001c0.055-0.175,0.11-0.35,0.15-0.52
		c4.6-19.7,11.68-38.76,21.84-56.34l0.132-0.198l0.081-0.119h0.001c0.114-0.166,0.228-0.331,0.326-0.503
		c2.64-4.46,5.479-8.74,8.38-12.939c0.158-0.237,0.329-0.456,0.502-0.677c0.133-0.17,0.268-0.341,0.397-0.523
		c2.375-3.38,4.888-6.641,7.469-9.863c3.104-23.209,15.084-43.646,32.408-57.775C283.317,43.588,262.078,40,240,40
		C129.54,40,40,129.54,40,240c0,110.44,89.54,200,200,200c110.439,0,200-89.56,200-200C440,217.879,436.401,196.601,429.768,176.709
		z M289.969,119.96c0,38.66,31.34,70,70,70c3.436,0,6.809-0.259,10.111-0.737c21.784-3.152,40.309-16.336,50.762-34.717
		c5.799-10.195,9.127-21.979,9.127-34.546c0-38.66-31.34-70-70-70c-12.582,0-24.379,3.337-34.582,9.147
		c-9.627,5.482-17.824,13.175-23.9,22.396C294.213,92.542,289.969,105.752,289.969,119.96z M358.508,78.895
		c0.46-0.017,0.923-0.028,1.391-0.028c15.898,0,29.336,9.883,29.297,27.07c-0.003,0.287-0.019,0.573-0.029,0.859
		c-0.289,8.12-3.604,15.856-10.244,25.742l-18.516,27.422h-16.992l19.375-28.516c-1.953,0.508-4.062,0.898-6.289,0.898
		c-14.805,0-25.312-10.664-25.312-26.055C331.188,90.304,342.555,79.489,358.508,78.895z M359.977,119.335
		c7.422,0,12.656-5.625,12.656-13.555c0-8.008-5.234-13.711-12.656-13.711c-7.383,0-12.539,5.703-12.539,13.633
		C347.438,113.71,352.594,119.335,359.977,119.335z"/>
</g>
<g id="Layer_3">
</g>
</svg>
