<svg xmlns="http://www.w3.org/2000/svg" width="1000pt" height="1000pt" viewBox="0 0 1000 1000"><path d="M 895.351562 368.144531 C 870.59375 398.535156 836.527344 421.046875 797.535156 431.289062 C 821.089844 468.140625 838.992188 508.441406 850.53125 550.824219 C 844 596.078125 828.882812 638.589844 806.890625 676.648438 C 809.628906 588.65625 781.160156 503.882812 728.542969 436.191406 C 659.523438 428.3125 601.773438 382.820312 576.351562 320.777344 C 575.316406 320.351562 574.277344 319.917969 573.238281 319.5 C 573.105469 319.765625 572.984375 320.035156 572.863281 320.300781 C 572.683594 320.699219 572.503906 321.101562 572.277344 321.5 C 556.277344 352.332031 545.027344 385.292969 538.113281 419.25 C 537.757812 421.007812 537.394531 422.757812 537.027344 424.507812 C 535.683594 430.984375 534.339844 437.449219 533.488281 444.042969 C 532.960938 448.027344 532.695312 452.054688 532.425781 456.066406 C 532.292969 458.089844 532.152344 460.109375 531.988281 462.121094 C 531.402344 469.414062 531.070312 476.707031 530.902344 484.042969 C 534.871094 486.472656 538.648438 489.226562 542.417969 491.984375 L 542.421875 491.984375 L 542.421875 491.988281 C 544.667969 493.625 546.910156 495.265625 549.195312 496.832031 C 550.640625 497.835938 552.160156 498.757812 553.675781 499.679688 C 555.566406 500.828125 557.457031 501.976562 559.234375 503.292969 C 560.066406 503.882812 560.851562 504.550781 561.640625 505.226562 C 562.351562 505.835938 563.066406 506.445312 563.820312 507 C 574.402344 514.917969 584.402344 523.417969 594.195312 532.25 C 594.585938 532.582031 594.988281 532.914062 595.386719 533.246094 C 596.582031 534.238281 597.773438 535.230469 598.902344 536.292969 C 599.171875 536.542969 599.429688 536.808594 599.695312 537.085938 C 599.960938 537.363281 600.234375 537.648438 600.523438 537.917969 C 631.234375 566.753906 658.195312 599.375 679.359375 636 C 679.589844 636.359375 679.773438 636.746094 679.957031 637.140625 C 680.074219 637.386719 680.191406 637.636719 680.320312 637.878906 C 685.652344 647.253906 690.359375 656.835938 694.902344 666.417969 C 695.15625 666.949219 695.371094 667.484375 695.582031 668.007812 C 695.753906 668.425781 695.921875 668.84375 696.109375 669.253906 C 700.109375 677.878906 703.648438 686.546875 707.070312 695.335938 C 707.523438 696.503906 708.023438 697.648438 708.527344 698.796875 C 709.175781 700.273438 709.820312 701.753906 710.359375 703.253906 C 710.484375 703.585938 710.621094 703.910156 710.753906 704.234375 C 710.890625 704.554688 711.023438 704.882812 711.148438 705.214844 C 711.640625 706.597656 712.046875 708.003906 712.453125 709.410156 C 712.808594 710.628906 713.160156 711.847656 713.566406 713.046875 C 715.941406 720.128906 718.230469 727.257812 720.273438 734.507812 C 720.550781 735.566406 720.886719 736.597656 721.226562 737.621094 L 721.226562 737.625 C 721.609375 738.785156 721.988281 739.941406 722.273438 741.132812 C 722.648438 742.382812 723.023438 743.675781 723.359375 744.921875 C 724.199219 748.207031 724.847656 751.507812 725.492188 754.8125 C 725.839844 756.585938 726.191406 758.355469 726.566406 760.132812 C 726.898438 761.683594 727.242188 763.230469 727.582031 764.773438 C 727.980469 766.578125 728.378906 768.378906 728.761719 770.183594 C 711.917969 784.464844 693.726562 797.207031 674.410156 808.183594 C 673.5 800.246094 672.3125 792.308594 670.863281 784.375 C 670.070312 780.25 669.15625 776.167969 668.238281 772.082031 C 666.28125 763.042969 664.28125 754.042969 661.570312 745.128906 C 660.714844 742.175781 659.664062 739.265625 658.613281 736.363281 C 658.074219 734.878906 657.539062 733.398438 657.027344 731.917969 C 656.597656 730.648438 656.167969 729.375 655.742188 728.105469 C 653.363281 721.058594 651.003906 714.054688 648.070312 707.167969 C 634.777344 717.003906 620.988281 726.417969 606.277344 734.917969 C 505.835938 792.894531 389.027344 806.609375 281.125 778.273438 C 245.964844 750.5625 216.167969 716.339844 193.558594 677.449219 C 309.695312 749.390625 456.695312 752.507812 576.492188 683.359375 C 591.910156 674.445312 606.078125 664.320312 619.660156 653.695312 L 619.519531 653.46875 L 619.335938 653.179688 L 619.078125 652.796875 C 618.878906 652.503906 618.683594 652.214844 618.496094 651.902344 C 599.789062 622.609375 576.828125 596.398438 550.867188 573.359375 C 549.121094 571.839844 547.394531 570.308594 545.664062 568.773438 C 541.113281 564.738281 536.5625 560.699219 531.703125 556.984375 C 528.335938 554.355469 524.761719 551.980469 521.183594 549.601562 L 521.179688 549.601562 C 519.710938 548.621094 518.242188 547.644531 516.789062 546.652344 C 510.789062 542.484375 504.664062 538.527344 498.371094 534.734375 C 494.21875 537.007812 489.898438 538.914062 485.574219 540.824219 L 485.570312 540.824219 C 483.078125 541.921875 480.582031 543.023438 478.117188 544.195312 C 476.480469 544.976562 474.886719 545.851562 473.292969 546.730469 L 473.289062 546.730469 C 471.394531 547.769531 469.503906 548.8125 467.535156 549.695312 C 466.582031 550.117188 465.589844 550.453125 464.601562 550.792969 C 463.734375 551.089844 462.871094 551.386719 462.039062 551.734375 C 449.871094 556.984375 437.496094 561.402344 424.914062 565.484375 C 424.199219 565.734375 423.484375 565.992188 422.769531 566.253906 L 422.765625 566.257812 L 422.757812 566.257812 C 421.554688 566.695312 420.347656 567.136719 419.121094 567.527344 C 418.664062 567.6875 418.167969 567.777344 417.6875 567.871094 L 417.683594 567.871094 L 417.335938 567.933594 L 416.914062 568.023438 C 376.621094 580.273438 334.832031 587.316406 292.539062 587.316406 C 292.203125 587.316406 291.875 587.296875 291.550781 587.273438 C 291.238281 587.253906 290.929688 587.234375 290.621094 587.234375 C 279.746094 587.105469 269.082031 586.441406 258.414062 585.609375 L 258.414062 585.566406 C 257.894531 585.542969 257.382812 585.472656 256.875 585.398438 C 256.363281 585.328125 255.855469 585.253906 255.332031 585.234375 C 245.914062 584.355469 236.582031 583.105469 227.292969 581.648438 C 226.082031 581.472656 224.867188 581.339844 223.65625 581.207031 L 223.652344 581.207031 C 222.019531 581.027344 220.394531 580.851562 218.792969 580.566406 L 218.515625 580.519531 L 218.203125 580.46875 L 217.839844 580.414062 L 217.835938 580.414062 C 217.46875 580.355469 217.109375 580.300781 216.75 580.234375 C 215.074219 579.953125 213.457031 579.550781 211.835938 579.144531 C 210.800781 578.886719 209.765625 578.628906 208.710938 578.402344 C 201.375 576.945312 194.082031 575.359375 186.835938 573.484375 C 185.917969 573.265625 184.984375 573.074219 184.050781 572.878906 C 182.695312 572.597656 181.332031 572.3125 180.003906 571.945312 C 179.492188 571.808594 178.972656 571.683594 178.453125 571.5625 C 177.703125 571.386719 176.949219 571.207031 176.210938 570.984375 C 173.03125 570.117188 169.933594 569.050781 166.835938 567.988281 C 165.023438 567.363281 163.207031 566.738281 161.378906 566.152344 C 159.957031 565.691406 158.535156 565.238281 157.113281 564.789062 C 155.21875 564.183594 153.324219 563.582031 151.441406 562.957031 C 147.753906 542.511719 145.832031 521.476562 145.832031 500 C 145.832031 498.988281 145.835938 497.976562 145.847656 496.964844 C 153.1875 500.121094 160.675781 503.066406 168.269531 505.773438 C 172.230469 507.191406 176.269531 508.4375 180.3125 509.691406 C 189.105469 512.519531 197.894531 515.230469 206.894531 517.394531 C 209.734375 518.066406 212.609375 518.578125 215.472656 519.085938 C 217.230469 519.398438 218.984375 519.714844 220.726562 520.0625 C 222.328125 520.371094 223.925781 520.691406 225.519531 521.007812 C 232.488281 522.386719 239.445312 523.765625 246.5625 524.644531 C 244.6875 508.1875 243.4375 491.5625 243.4375 474.605469 C 243.4375 358.492188 290.058594 250.382812 368.707031 171.054688 C 409.222656 154.828125 453.410156 145.878906 499.644531 145.832031 C 379.191406 210.410156 302.960938 336.234375 302.960938 474.570312 C 302.960938 492.363281 304.628906 509.695312 307.085938 526.820312 C 307.460938 526.800781 307.824219 526.769531 308.191406 526.738281 C 308.554688 526.703125 308.921875 526.675781 309.292969 526.652344 C 343.960938 525.070312 378.085938 518.363281 410.960938 507.402344 C 412.816406 506.777344 414.671875 506.164062 416.527344 505.546875 C 422.675781 503.511719 428.808594 501.484375 434.796875 498.988281 C 438.484375 497.476562 442.078125 495.707031 445.675781 493.9375 L 445.679688 493.9375 C 447.535156 493.023438 449.386719 492.113281 451.257812 491.238281 C 457.835938 488.113281 464.296875 484.777344 470.714844 481.238281 C 470.84375 476.582031 471.339844 471.992188 471.839844 467.394531 L 471.839844 467.390625 C 472.144531 464.582031 472.453125 461.773438 472.671875 458.945312 C 472.800781 457.21875 472.839844 455.472656 472.878906 453.71875 L 472.878906 453.714844 C 472.929688 451.492188 472.980469 449.257812 473.214844 447.070312 C 473.328125 446.003906 473.527344 444.945312 473.726562 443.898438 L 473.726562 443.894531 C 473.890625 443.019531 474.058594 442.148438 474.171875 441.277344 C 475.757812 428.113281 478.089844 415.152344 480.835938 402.238281 C 480.964844 401.550781 481.085938 400.863281 481.203125 400.171875 L 481.203125 400.167969 L 481.207031 400.167969 C 481.433594 398.839844 481.664062 397.511719 481.960938 396.195312 C 482.046875 395.839844 482.164062 395.476562 482.273438 395.113281 L 482.273438 395.109375 C 482.390625 394.746094 482.503906 394.382812 482.585938 394.027344 C 492.171875 352.984375 506.921875 313.277344 528.085938 276.652344 L 528.363281 276.238281 L 528.53125 275.992188 L 528.535156 275.992188 C 528.769531 275.644531 529.007812 275.300781 529.210938 274.945312 C 534.710938 265.652344 540.628906 256.734375 546.671875 247.988281 C 547 247.492188 547.355469 247.039062 547.714844 246.578125 C 547.992188 246.222656 548.273438 245.867188 548.542969 245.488281 C 553.492188 238.445312 558.726562 231.652344 564.105469 224.941406 C 570.570312 176.585938 595.527344 134.011719 631.621094 104.574219 C 590.242188 90.808594 545.996094 83.332031 500 83.332031 C 269.875 83.332031 83.332031 269.875 83.332031 500 C 83.332031 730.082031 269.875 916.667969 500 916.667969 C 730.082031 916.667969 916.667969 730.082031 916.667969 500 C 916.667969 453.914062 909.167969 409.585938 895.351562 368.144531 Z M 604.101562 249.917969 C 604.101562 330.457031 669.394531 395.75 749.933594 395.75 C 757.09375 395.75 764.121094 395.210938 771 394.214844 C 816.382812 387.648438 854.976562 360.179688 876.753906 321.886719 C 888.835938 300.648438 895.769531 276.097656 895.769531 249.917969 C 895.769531 169.375 830.476562 104.082031 749.933594 104.082031 C 723.722656 104.082031 699.144531 111.035156 677.890625 123.140625 C 657.832031 134.558594 640.757812 150.585938 628.097656 169.796875 C 612.945312 192.796875 604.101562 220.316406 604.101562 249.917969 Z M 746.890625 164.363281 C 747.851562 164.328125 748.816406 164.304688 749.789062 164.304688 C 782.910156 164.304688 810.90625 184.894531 810.824219 220.703125 C 810.820312 221.300781 810.785156 221.894531 810.765625 222.492188 C 810.164062 239.410156 803.257812 255.523438 789.421875 276.121094 L 750.847656 333.25 L 715.449219 333.25 L 755.8125 273.839844 C 751.742188 274.898438 747.351562 275.710938 742.710938 275.710938 C 711.867188 275.710938 689.976562 253.496094 689.976562 221.429688 C 689.976562 188.132812 713.65625 165.601562 746.890625 164.363281 Z M 749.953125 248.613281 C 765.414062 248.613281 776.320312 236.894531 776.320312 220.375 C 776.320312 203.691406 765.414062 191.808594 749.953125 191.808594 C 734.570312 191.808594 723.828125 203.691406 723.828125 220.210938 C 723.828125 236.894531 734.570312 248.613281 749.953125 248.613281 Z M 749.953125 248.613281"/></svg>