<svg xmlns="http://www.w3.org/2000/svg" viewBox="0 0 480 480"><path d="M268.663,321.108c3.491,2.444,7.492,3.618,11.453,3.618c6.305,0,12.511-2.975,16.401-8.531 c6.335-9.049,4.136-21.52-4.913-27.854l-44.238-30.973c-9.048-6.334-21.52-4.134-27.854,4.913 c-6.335,9.049-4.136,21.52,4.913,27.854L268.663,321.108z M261.045,341.024c-1.125-1.342-2.421-2.529-3.854-3.533l-75.719-53.019 c-9.05-6.337-21.519-4.136-27.854,4.911c-6.336,9.048-4.137,21.52,4.911,27.854l73.559,51.506l72.165,82.879 c3.956,4.719,9.626,7.15,15.337,7.15c4.533,0,9.093-1.533,12.839-4.674c8.464-7.096,9.573-19.711,2.477-28.176L261.045,341.024z M96.786,78.654c18.902,13.235,42.276,8.983,55.513-9.919c13.235-18.902,9.08-42.47-9.822-55.706 c-18.902-13.235-42.475-9.082-55.71,9.82S77.884,65.419,96.786,78.654z M438.708,325.518L319.496,175.461 c1.292-7.407-1.645-15.234-8.211-19.832l-49.149-34.414c-1.889-1.323-3.992-2.309-6.217-2.915l-88.181-24.011 c-0.098-0.026-0.197-0.043-0.296-0.068c-0.2-0.051-0.401-0.094-0.604-0.139c-0.387-0.086-0.775-0.162-1.165-0.225 c-0.216-0.035-0.431-0.069-0.646-0.098c-0.418-0.053-0.837-0.09-1.257-0.116c-0.175-0.011-0.349-0.03-0.523-0.038 c-0.579-0.021-1.158-0.02-1.736,0.01c-0.165,0.008-0.328,0.028-0.493,0.04c-0.431,0.032-0.859,0.073-1.287,0.133 c-0.212,0.03-0.423,0.066-0.634,0.103c-0.396,0.068-0.789,0.148-1.182,0.24c-0.198,0.047-0.396,0.091-0.593,0.144 c-0.485,0.13-0.967,0.279-1.443,0.446l-0.232,0.071l-56.382,20.509c-4.985,1.813-9.046,5.533-11.288,10.341 c-0.08,0.172-0.139,0.351-0.214,0.524L53.644,174.89c-2.354,3.361-3.617,7.367-3.617,11.472v68.907 c0,8.775,5.66,16.213,13.522,18.907L94.95,452.26c0.855,4.852,5.074,8.266,9.836,8.266c0.576,0,1.161-0.051,1.748-0.154 c5.439-0.959,9.07-6.146,8.111-11.584l-31.47-178.474c4.19-3.666,6.851-9.039,6.851-15.045v-62.601l10.6-15.137l27.719,76.163 c1.814,4.984,5.534,9.044,10.341,11.286c2.673,1.246,5.56,1.874,8.453,1.874c2.312,0,4.627-0.4,6.84-1.206l56.335-20.504 c10.377-3.776,15.729-15.248,11.957-25.627l-27.807-76.494l47.583,12.956l46.295,32.415c5.425,3.799,12.073,4.508,17.898,2.534 l116.808,147.03c1.975,2.485,4.892,3.779,7.837,3.779c2.18,0,4.374-0.709,6.214-2.17 C441.423,336.133,442.144,329.842,438.708,325.518z M397.271,368.953c-16.568,0-30,13.432-30,30s13.432,30,30,30s30-13.432,30-30 S413.839,368.953,397.271,368.953z"/></svg>