<svg xmlns="http://www.w3.org/2000/svg" width="1000pt" height="1000pt" viewBox="0 0 1000 1000"><path d="M 559.714844 668.976562 C 566.988281 674.066406 575.324219 676.511719 583.574219 676.511719 C 596.710938 676.511719 609.640625 670.316406 617.742188 658.738281 C 630.941406 639.886719 626.359375 613.90625 607.507812 600.710938 L 515.347656 536.183594 C 496.496094 522.988281 470.511719 527.570312 457.316406 546.417969 C 444.117188 565.269531 448.699219 591.253906 467.550781 604.449219 Z M 543.84375 710.464844 C 541.5 707.671875 538.800781 705.199219 535.816406 703.105469 L 378.066406 592.648438 C 359.210938 579.449219 333.234375 584.035156 320.039062 602.882812 C 306.835938 621.730469 311.417969 647.714844 330.269531 660.910156 L 483.515625 768.214844 L 633.859375 940.878906 C 642.101562 950.710938 653.914062 955.773438 665.8125 955.773438 C 675.257812 955.773438 684.757812 952.582031 692.558594 946.039062 C 710.195312 931.253906 712.503906 904.972656 697.722656 887.335938 Z M 201.636719 163.863281 C 241.015625 191.433594 289.710938 182.578125 317.289062 143.199219 C 344.863281 103.820312 336.207031 54.71875 296.828125 27.144531 C 257.449219 -0.429688 208.335938 8.222656 180.765625 47.601562 C 153.191406 86.980469 162.257812 136.289062 201.636719 163.863281 Z M 913.976562 678.164062 L 665.617188 365.542969 C 668.308594 350.113281 662.191406 333.804688 648.511719 324.226562 L 546.117188 252.53125 C 542.179688 249.773438 537.800781 247.722656 533.164062 246.457031 L 349.453125 196.433594 C 349.25 196.382812 349.042969 196.347656 348.835938 196.292969 C 348.421875 196.1875 348.003906 196.097656 347.578125 196.003906 C 346.773438 195.824219 345.964844 195.667969 345.152344 195.535156 C 344.703125 195.460938 344.253906 195.390625 343.804688 195.332031 C 342.933594 195.222656 342.0625 195.144531 341.1875 195.089844 C 340.824219 195.066406 340.460938 195.027344 340.097656 195.011719 C 338.890625 194.964844 337.683594 194.96875 336.480469 195.03125 C 336.136719 195.046875 335.796875 195.089844 335.453125 195.113281 C 334.554688 195.179688 333.664062 195.265625 332.773438 195.390625 C 332.332031 195.453125 331.890625 195.527344 331.453125 195.605469 C 330.628906 195.746094 329.808594 195.914062 328.988281 196.105469 C 328.578125 196.203125 328.164062 196.296875 327.753906 196.40625 C 326.742188 196.675781 325.738281 196.988281 324.746094 197.335938 L 324.265625 197.484375 L 206.800781 240.210938 C 196.417969 243.988281 187.957031 251.738281 183.285156 261.753906 C 183.117188 262.113281 182.996094 262.484375 182.839844 262.847656 L 111.757812 364.355469 C 106.855469 371.355469 104.222656 379.703125 104.222656 388.253906 L 104.222656 531.808594 C 104.222656 550.089844 116.015625 565.585938 132.394531 571.199219 L 197.8125 942.207031 C 199.59375 952.316406 208.382812 959.429688 218.304688 959.429688 C 219.503906 959.429688 220.722656 959.324219 221.945312 959.109375 C 233.277344 957.109375 240.839844 946.304688 238.84375 934.976562 L 173.28125 563.152344 C 182.011719 555.515625 187.554688 544.324219 187.554688 531.808594 L 187.554688 401.390625 L 209.636719 369.855469 L 267.386719 528.527344 C 271.164062 538.914062 278.914062 547.371094 288.929688 552.042969 C 294.496094 554.636719 300.511719 555.945312 306.539062 555.945312 C 311.355469 555.945312 316.179688 555.113281 320.789062 553.433594 L 438.152344 510.714844 C 459.773438 502.851562 470.921875 478.949219 463.066406 457.328125 L 405.132812 297.964844 L 504.265625 324.957031 L 600.710938 392.488281 C 612.015625 400.402344 625.863281 401.878906 638 397.765625 L 881.351562 704.078125 C 885.464844 709.257812 891.542969 711.953125 897.675781 711.953125 C 902.21875 711.953125 906.789062 710.476562 910.621094 707.429688 C 919.632812 700.277344 921.132812 687.171875 913.976562 678.164062 Z M 827.648438 768.652344 C 793.132812 768.652344 765.148438 796.636719 765.148438 831.152344 C 765.148438 865.667969 793.132812 893.652344 827.648438 893.652344 C 862.164062 893.652344 890.148438 865.667969 890.148438 831.152344 C 890.148438 796.636719 862.164062 768.652344 827.648438 768.652344 Z M 827.648438 768.652344"/></svg>