<svg xmlns="http://www.w3.org/2000/svg" viewBox="0 0 480 480"><path d="M282.037,396.957c-3.873-6.67-5.646-14.04-7.069-19.962c-0.553-2.301-1.076-4.475-1.551-5.875 c-2.593-7.635-3.691-14.41-3.36-20.714c0.542-10.32,4.882-19.26,12.551-25.853c5.391-4.634,11.163-6.873,15.379-8.509 c1.245-0.482,2.895-1.122,3.677-1.534c0.423-0.574,1.109-1.665,1.634-2.497c2.159-3.431,5.116-8.129,10.162-12.213 c6.249-5.059,13.053-7.405,18.521-9.291c2.458-0.848,4.999-1.725,6.256-2.475c0.299-0.18,0.622-0.378,0.965-0.588 c4.541-2.785,12.141-7.446,21.468-7.446c6.076,0,11.713,2,16.247,5.651c2.926-2.024,6.131-3.271,9.237-3.844 c1.368-0.252,2.765-0.379,4.151-0.379c2.677,0,6.605,0.484,10.742,2.651c33.186-78.534,26.964-168.626-13.439-245.583 c-1.737-3.312-5.035-5.62-8.741-6.121c-104.929-14.186-210.832,25.947-272.516,114.04S43.175,347.753,92.393,441.502 c1.738,3.311,5.035,5.62,8.742,6.121c67.696,9.152,135.795-4.312,192.167-38.673C288.831,406.095,285.006,402.07,282.037,396.957z M241.219,307.996c6.786,4.752,8.436,14.105,3.684,20.891c-2.918,4.168-7.572,6.397-12.3,6.397c-2.971,0-5.973-0.879-8.591-2.713 l-20.479-14.341l-14.34,20.479c-2.918,4.167-7.572,6.398-12.3,6.398c-2.971,0-5.971-0.88-8.591-2.714 c-6.786-4.752-8.436-14.105-3.684-20.892l14.341-20.479l-20.479-14.341c-6.786-4.752-8.435-14.104-3.683-20.891 s14.106-8.435,20.89-3.683l20.479,14.339l22.942-32.766l-20.478-14.34c-6.787-4.752-8.437-14.104-3.685-20.891 c4.752-6.786,14.105-8.436,20.892-3.684l20.478,14.341l22.944-32.767l-20.48-14.341c-6.786-4.751-8.436-14.104-3.684-20.89 c4.752-6.787,14.104-8.436,20.891-3.684l20.48,14.34l14.339-20.48c4.752-6.787,14.104-8.434,20.891-3.683 c6.786,4.752,8.437,14.104,3.685,20.89l-14.34,20.48l20.478,14.339c6.786,4.751,8.436,14.104,3.684,20.89 c-2.918,4.167-7.571,6.398-12.3,6.398c-2.972,0-5.972-0.881-8.591-2.715l-20.478-14.339l-22.944,32.768l20.479,14.339 c6.786,4.752,8.436,14.104,3.684,20.89c-2.917,4.167-7.572,6.398-12.3,6.398c-2.972,0-5.972-0.88-8.591-2.714l-20.479-14.34 l-22.943,32.767L241.219,307.996z M428.971,355.785c-3.299-8.249-10.141-14.452-15.929-20.949 c-5.395-6.056-10.044-12.769-13.881-19.913c-1.652-3.076-4.605-14.325-9.389-13.444c-3.402,0.627-4.001,5.165-4.117,7.961 c-0.17,4.083-1.395,16.181-7.871,12.52c-5.085-2.874-12.285-4.905-11.53-12.07c0.258-2.451,0.816-5.16-0.567-7.209 c-4.177-6.171-12.796-0.104-17.194,2.524c-6.94,4.146-16.206,5.087-22.451,10.142c-4.867,3.939-6.652,10.46-11.422,14.46 c-5.554,4.657-13.455,5.17-18.976,9.915c-7.671,6.594-6.207,16.376-3.289,24.97c3.768,11.099,4.251,30.929,20.538,29.137 c11.833-1.302,21.32-10.624,33.272-11.045c7.321-0.257,12.634,3.615,18.112,7.91c4.321,3.389,8.638,6.793,12.77,10.412 c3.443,3.018,6.471,6.545,10.517,8.828c9.529,5.38,24.241,1.022,29.118-8.882c1.729-3.511,2.282-7.448,3.569-11.108 c2.003-5.696,4.54-11.174,6.715-16.802C429.143,367.508,431.351,361.734,428.971,355.785z M403.826,420.508 c-4.407,0.573-12.403-1.575-11.796,5.583c0.46,5.427,5.037,11.608,10.557,12.835c6.015,1.336,9.367-5.939,10.251-10.853 c0.407-2.263,0.398-5.666-1.397-7.426C409.085,418.338,406.556,420.153,403.826,420.508z"/></svg>