<?xml version="1.0" encoding="iso-8859-1"?>
<!-- Generator: Adobe Illustrator 23.0.4, SVG Export Plug-In . SVG Version: 6.00 Build 0)  -->
<svg version="1.1" xmlns="http://www.w3.org/2000/svg" xmlns:xlink="http://www.w3.org/1999/xlink" x="0px" y="0px"
	 viewBox="0 0 480 480" style="enable-background:new 0 0 480 480;" xml:space="preserve">
<g id="Layer_4">
	<path d="M176.679,391.761l-65.532-45.887c-9.048-6.335-21.52-4.136-27.854,4.912c-15.839,22.62-10.342,53.797,12.278,69.636
		l16.383,11.472c22.621,15.839,53.798,10.342,69.637-12.278C187.926,410.567,185.726,398.096,176.679,391.761z M200.558,188.849
		l-53.772-37.651l-17.624,73.114l41.365,28.964L200.558,188.849z M292.017,228.474l54.955-54.939
		c8.794-8.792,7.518-23.394-2.669-30.526l-56.1-39.281c-10.187-7.134-24.345-3.339-29.599,7.933l-32.831,70.431L292.017,228.474z
		 M277.655,242.833l-60.461-42.335l-30.031,64.426l40.223,28.164L277.655,242.833z M150.323,343.955
		c-1.024,2.199-0.323,4.816,1.664,6.208l7.33,5.133c1.987,1.392,4.688,1.155,6.403-0.56l47.302-47.29l-34.439-24.115
		L150.323,343.955z M431.471,204.043l-37.26-26.089c-7.949-5.566-18.748-4.623-25.611,2.238l-59.947,59.93l57.318,40.135
		l65.082-43.163C442.802,229.303,443.018,212.129,431.471,204.043z M109.295,320.27l17.738,12.421
		c2.547,1.783,6.087,0.834,7.4-1.983l27.513-59.024l-37.819-26.481l-16.825,69.801C106.82,317.001,107.611,319.091,109.295,320.27z
		 M244.021,304.736l41.365,28.964l62.677-41.567l-53.772-37.651L244.021,304.736z M183.604,365.137
		c-2.199,2.198-1.88,5.849,0.667,7.632l17.739,12.421c1.684,1.18,3.918,1.207,5.631,0.071l59.837-39.684l-37.819-26.482
		L183.604,365.137z M244.951,93.613c4.101-8.797,1.294-19.267-6.655-24.833l-37.26-26.09c-11.547-8.085-27.611-2.008-30.914,11.696
		l-18.301,75.921l57.317,40.134L244.951,93.613z"/>
</g>
<g id="Layer_3">
</g>
</svg>
