<?xml version="1.0" encoding="iso-8859-1"?>
<!-- Generator: Adobe Illustrator 23.0.4, SVG Export Plug-In . SVG Version: 6.00 Build 0)  -->
<svg version="1.1" xmlns="http://www.w3.org/2000/svg" xmlns:xlink="http://www.w3.org/1999/xlink" x="0px" y="0px"
	 viewBox="0 0 480 480" style="enable-background:new 0 0 480 480;" xml:space="preserve">
<g id="Layer_4">
	<path d="M160.004,240c0-22.094-17.91-40.004-40.004-40.004c-22.093,0-40.003,17.91-40.003,40.004s17.91,40.004,40.003,40.004
		C142.094,280.004,160.004,262.094,160.004,240z M427.748,107.832c-1.741-27.231-13.739-49.957-33.781-63.991
		c-20.045-14.036-45.501-17.534-71.688-9.859c-25.382,7.441-48.512,24.61-65.13,48.345c-16.618,23.732-24.841,51.34-23.152,77.736
		c1.502,23.483,10.637,43.61,25.976,57.708l-97.899,139.814c-6.169-2.127-13.241-0.041-17.17,5.57l-40.15,57.341
		c-4.751,6.785-3.102,16.139,3.684,20.891l8.192,5.735c6.786,4.752,16.139,3.103,20.891-3.684l40.15-57.341
		c3.557-5.08,3.525-11.597,0.439-16.547l98.249-140.314c11.055,5.734,23.37,8.657,36.318,8.657c8.711,0,17.709-1.318,26.79-3.98
		c25.382-7.441,48.512-24.61,65.13-48.345C421.214,161.836,429.436,134.229,427.748,107.832z M388.213,174.098
		c-14.023,20.027-33.334,34.454-54.374,40.623c-20.236,5.932-39.624,3.429-54.589-7.05s-23.948-27.84-25.294-48.886
		c-1.4-21.881,5.552-44.961,19.575-64.988s33.334-34.454,54.374-40.623c7.187-2.106,14.264-3.149,21.075-3.149
		c12.371,0,23.863,3.441,33.515,10.199c14.965,10.479,23.948,27.84,25.294,48.886C409.188,130.99,402.236,154.07,388.213,174.098z"
		/>
</g>
<g id="Guide">
</g>
</svg>
