<svg xmlns="http://www.w3.org/2000/svg" width="1000pt" height="1000pt" viewBox="0 0 1000 1000"><path d="M 333.339844 500 C 333.339844 453.972656 296.027344 416.660156 250 416.660156 C 203.972656 416.660156 166.660156 453.972656 166.660156 500 C 166.660156 546.027344 203.972656 583.339844 250 583.339844 C 296.027344 583.339844 333.339844 546.027344 333.339844 500 Z M 891.140625 224.648438 C 887.515625 167.917969 862.519531 120.574219 820.765625 91.335938 C 779.003906 62.09375 725.972656 54.804688 671.414062 70.796875 C 618.535156 86.296875 570.347656 122.066406 535.726562 171.515625 C 501.105469 220.957031 483.976562 278.472656 487.492188 333.464844 C 490.621094 382.386719 509.652344 424.320312 541.609375 453.691406 L 337.652344 744.96875 C 324.800781 740.539062 310.070312 744.882812 301.882812 756.574219 L 218.238281 876.035156 C 208.339844 890.167969 211.773438 909.65625 225.914062 919.554688 L 242.980469 931.503906 C 257.117188 941.402344 276.601562 937.96875 286.503906 923.828125 L 370.148438 804.367188 C 377.558594 793.785156 377.492188 780.207031 371.0625 769.894531 L 575.746094 477.574219 C 598.777344 489.519531 624.433594 495.609375 651.410156 495.609375 C 669.558594 495.609375 688.304688 492.863281 707.222656 487.320312 C 760.101562 471.816406 808.289062 436.046875 842.910156 386.601562 C 877.527344 337.160156 894.660156 279.644531 891.140625 224.648438 Z M 808.777344 362.703125 C 779.5625 404.425781 739.332031 434.484375 695.496094 447.335938 C 653.339844 459.695312 612.949219 454.480469 581.769531 432.648438 C 550.59375 410.816406 531.878906 374.648438 529.074219 330.800781 C 526.160156 285.214844 540.640625 237.132812 569.855469 195.410156 C 599.070312 153.6875 639.300781 123.632812 683.136719 110.777344 C 698.109375 106.390625 712.851562 104.21875 727.042969 104.21875 C 752.816406 104.21875 776.757812 111.386719 796.863281 125.464844 C 828.042969 147.296875 846.757812 183.464844 849.558594 227.3125 C 852.476562 272.894531 837.992188 320.980469 808.777344 362.703125 Z M 808.777344 362.703125"/></svg>