<svg xmlns="http://www.w3.org/2000/svg" viewBox="0 0 480 480"><path d="M444.721,61.808c-4.523-3.165-10.76-2.065-13.927,2.46L297.133,255.255c-41.068,57.822-65.182,81.667-65.424,81.904 l-0.262,0.265c-15.986,16.82-34.348,25.596-54.573,26.082c-42.379,1.034-83.21-33.484-98.785-48.366 c-1.254-1.198-1.772-1.694-2.675-2.275c-2.389-1.537-5.318-1.986-8.058-1.237c-2.74,0.751-5.031,2.632-6.302,5.173l-20,40 c-2.158,4.317-0.925,9.561,2.932,12.463l29.454,22.161c0.267,0.199,0.542,0.386,0.826,0.559 c30.927,18.762,57.995,28.062,81.949,28.062c9.773,0,19.032-1.55,27.817-4.637c22.366-7.861,43.01-25.133,61.357-51.337 l68.037-97.218c1.703-2.399,3.437-4.856,5.197-7.372c0.155-0.222,0.301-0.447,0.436-0.677l128.12-183.07 C450.347,71.21,449.247,64.975,444.721,61.808z M380,340.001c-22.092,0-40,17.909-40,40c0,22.092,17.908,40,40,40 c22.091,0,40-17.908,40-40C420,357.91,402.09,340.001,380,340.001z"/></svg>