<svg xmlns="http://www.w3.org/2000/svg" width="1000pt" height="1000pt" viewBox="0 0 1000 1000"><path d="M 926.503906 128.765625 C 917.078125 122.171875 904.085938 124.464844 897.488281 133.890625 L 619.027344 531.78125 C 533.46875 652.242188 483.230469 701.921875 482.726562 702.414062 L 482.179688 702.964844 C 448.878906 738.007812 410.621094 756.292969 368.488281 757.304688 C 280.199219 759.457031 195.132812 687.546875 162.683594 656.542969 C 160.074219 654.046875 158.992188 653.011719 157.113281 651.800781 C 152.136719 648.601562 146.035156 647.664062 140.324219 649.226562 C 134.617188 650.789062 129.84375 654.707031 127.195312 660.003906 L 85.527344 743.335938 C 81.035156 752.328125 83.601562 763.253906 91.636719 769.300781 L 153 815.46875 C 153.554688 815.882812 154.128906 816.273438 154.722656 816.632812 C 219.152344 855.722656 275.542969 875.097656 325.449219 875.097656 C 345.808594 875.097656 365.097656 871.867188 383.398438 865.433594 C 429.996094 849.058594 473.003906 813.074219 511.226562 758.484375 L 652.972656 555.945312 C 656.519531 550.949219 660.132812 545.828125 663.796875 540.585938 C 664.121094 540.125 664.425781 539.65625 664.707031 539.175781 L 931.621094 157.78125 C 938.222656 148.355469 935.929688 135.363281 926.503906 128.765625 Z M 791.667969 708.335938 C 745.640625 708.335938 708.332031 745.644531 708.332031 791.667969 C 708.332031 837.695312 745.640625 875.003906 791.667969 875.003906 C 837.691406 875.003906 875 837.695312 875 791.667969 C 875 745.644531 837.6875 708.335938 791.667969 708.335938 Z M 791.667969 708.335938"/></svg>