<?xml version="1.0" encoding="iso-8859-1"?>
<!-- Generator: Adobe Illustrator 23.0.4, SVG Export Plug-In . SVG Version: 6.00 Build 0)  -->
<svg version="1.1" xmlns="http://www.w3.org/2000/svg" xmlns:xlink="http://www.w3.org/1999/xlink" x="0px" y="0px"
	 viewBox="0 0 480 480" style="enable-background:new 0 0 480 480;" xml:space="preserve">
<g id="Workspace">
	<path d="M330.86,133.691c-24.5-20.96-56.199-33.7-90.859-33.7s-66.36,12.74-90.84,33.7c19.439,30.8,30.84,67.181,30.84,106.3
		c0,39.141-11.4,75.521-30.84,106.32c24.479,20.96,56.18,33.68,90.84,33.68s66.359-12.72,90.859-33.68
		C311.38,315.512,300,279.132,300,239.991C300,200.872,311.38,164.491,330.86,133.691z M127.813,156.602
		c-17.38,23.34-27.82,52.14-27.82,83.4c0,31.26,10.44,60.06,27.82,83.399c14-24.7,22.18-53.06,22.18-83.399
		C149.992,209.661,141.813,181.281,127.813,156.602z M352.188,156.598c-13.979,24.68-22.18,53.061-22.18,83.4
		s8.2,58.72,22.18,83.399c17.38-23.34,27.82-52.12,27.82-83.399C380.008,208.738,369.568,179.938,352.188,156.598z M240,40
		C129.54,40,40,129.54,40,240c0,110.44,89.54,200,200,200c110.439,0,200-89.56,200-200C440,129.54,350.44,40,240,40z M240,410
		c-93.74,0-170-76.26-170-170S146.26,70,240,70s170,76.26,170,170S333.74,410,240,410z"/>
</g>
<g id="Guide">
</g>
</svg>
