<?xml version="1.0" encoding="iso-8859-1"?>
<!-- Generator: Adobe Illustrator 23.0.4, SVG Export Plug-In . SVG Version: 6.00 Build 0)  -->
<svg version="1.1" xmlns="http://www.w3.org/2000/svg" xmlns:xlink="http://www.w3.org/1999/xlink" x="0px" y="0px"
	 viewBox="0 0 480 480" style="enable-background:new 0 0 480 480;" xml:space="preserve">
<g id="Workspace">
	<path d="M240,40C129.54,40,40,129.54,40,240c0,110.44,89.54,200,200,200c110.439,0,200-89.56,200-200C440,129.54,350.44,40,240,40z
		 M330.87,255.006c3.15,35.754,17.321,68.383,39.169,94.379c-6.468,7.677-13.602,14.775-21.312,21.206
		c-27.168-31.489-44.599-71.549-47.887-115.595H255v154.348c-4.943,0.435-9.946,0.656-15,0.656c-5.055,0-10.058-0.222-15.001-0.656
		V254.996h-45.84c-3.288,44.046-20.719,84.105-47.887,115.595c-7.709-6.43-14.843-13.528-21.311-21.205
		c21.857-25.995,36.028-58.625,39.18-94.38H70.656C70.222,250.061,70,245.056,70,240c0-5.053,0.222-10.055,0.655-14.996h78.486
		c-3.151-35.757-17.324-68.389-39.185-94.385c6.47-7.679,13.604-14.778,21.315-21.21c27.168,31.488,44.599,71.548,47.887,115.595
		h45.84V70.655C229.943,70.222,234.946,70,240,70c5.054,0,10.057,0.222,15,0.655v154.349h45.84
		c3.288-44.047,20.719-84.106,47.887-115.595c7.712,6.432,14.848,13.532,21.316,21.211c-21.85,25.996-36.022,58.627-39.173,94.384
		h78.475C409.779,229.945,410,234.947,410,240c0,5.056-0.222,10.061-0.656,15.006H330.87z"/>
</g>
<g id="Guide">
</g>
</svg>
