<svg xmlns="http://www.w3.org/2000/svg" width="1000pt" height="1000pt" viewBox="0 0 1000 1000"><path d="M 500 83.332031 C 269.875 83.332031 83.332031 269.875 83.332031 500 C 83.332031 730.082031 269.875 916.667969 500 916.667969 C 730.082031 916.667969 916.667969 730.082031 916.667969 500 C 916.667969 269.875 730.082031 83.332031 500 83.332031 Z M 689.3125 531.261719 C 695.875 605.75 725.398438 673.726562 770.914062 727.886719 C 757.441406 743.878906 742.578125 758.667969 726.515625 772.066406 C 669.914062 706.460938 633.601562 623.003906 626.75 531.242188 L 531.25 531.242188 L 531.25 852.800781 C 520.953125 853.707031 510.527344 854.167969 500 854.167969 C 489.46875 854.167969 479.046875 853.703125 468.746094 852.800781 L 468.746094 531.242188 L 373.246094 531.242188 C 366.398438 623.003906 330.082031 706.460938 273.484375 772.066406 C 257.421875 758.667969 242.558594 743.882812 229.085938 727.886719 C 274.621094 673.730469 304.144531 605.753906 310.710938 531.261719 L 147.199219 531.261719 C 146.296875 520.960938 145.832031 510.535156 145.832031 500 C 145.832031 489.472656 146.296875 479.050781 147.199219 468.757812 L 310.710938 468.757812 C 304.144531 394.265625 274.617188 326.28125 229.074219 272.121094 C 242.554688 256.125 257.417969 241.335938 273.480469 227.933594 C 330.082031 293.535156 366.394531 376.992188 373.246094 468.757812 L 468.746094 468.757812 L 468.746094 147.199219 C 479.046875 146.296875 489.472656 145.832031 500 145.832031 C 510.527344 145.832031 520.953125 146.296875 531.25 147.199219 L 531.25 468.757812 L 626.75 468.757812 C 633.601562 376.992188 669.914062 293.539062 726.515625 227.933594 C 742.582031 241.335938 757.449219 256.128906 770.921875 272.125 C 725.402344 326.285156 695.878906 394.265625 689.3125 468.757812 L 852.800781 468.757812 C 853.707031 479.050781 854.167969 489.472656 854.167969 500 C 854.167969 510.535156 853.703125 520.960938 852.800781 531.261719 Z M 689.3125 531.261719"/></svg>