<?xml version="1.0" encoding="iso-8859-1"?>
<!-- Generator: Adobe Illustrator 23.0.4, SVG Export Plug-In . SVG Version: 6.00 Build 0)  -->
<svg version="1.1" xmlns="http://www.w3.org/2000/svg" xmlns:xlink="http://www.w3.org/1999/xlink" x="0px" y="0px"
	 viewBox="0 0 480 480" style="enable-background:new 0 0 480 480;" xml:space="preserve">
<g id="Workspace">
	<path d="M70.001,279.712c22.092,0,40-17.909,40-40c0-22.092-17.908-40-40-40c-22.091,0-40,17.908-40,40
		C30.001,261.803,47.91,279.712,70.001,279.712z M442.073,166.425c3.037-3.438,2.57-8.72-1.026-11.568l-16.93-13.411
		c-3.609-2.858-8.88-2.089-11.521,1.683c-25.403,36.279-50.2,72.996-76.278,108.798c-29.012,39.828-59.89,81.024-102.988,106.575
		c-49.177,29.155-90.031,37.64-143.712,21.329c-8.209-2.495-34.697-13.354-42.643-16.591c-8.499-3.463-15.148,7.767-8.066,13.604
		C82.902,413.1,140.4,439.14,198.003,440.252c51.788,1,111.062-21.404,152.049-52.703c17.474-13.343,36.1-33.123,38.885-56.378
		c2.944-24.582-21.007-36.449-19.254-59.24C371.512,248.14,424.471,186.358,442.073,166.425z M212.247,252.358l-19.939-13.962
		l-30.024,40.016l22.57,15.804L212.247,252.358z M222.229,237.104c14.757-21.019,33.354-38.961,54.497-52.576l56.122-36.142
		l-0.011-0.008c8.798-5.104,16.821-12.32,23.225-21.467c21.262-30.364,16.568-70.219-10.655-88.291
		c-25.442-16.889-62.088-8.239-82.99,19.605c-7.276,9.693-11.803,20.459-13.727,31.232l-0.012-0.008l-14.626,64.919
		c-5.564,24.7-16.138,48.482-30.971,69.667l-4.77,6.356l19.413,13.593L222.229,237.104z M159.083,306.993
		c5.216,3.651,12.241,7.464,16.413,1.521l3.879-5.927l-23.097-16.172l-4.251,5.666C147.858,298.035,153.862,303.338,159.083,306.993
		z"/>
</g>
<g id="Guide_1_">
</g>
</svg>
