<svg xmlns="http://www.w3.org/2000/svg" width="1000pt" height="1000pt" viewBox="0 0 1000 1000"><path d="M 242.632812 191.652344 L 429.566406 273.671875 L 310.535156 443.648438 C 304.199219 452.703125 301.714844 463.902344 303.632812 474.785156 C 305.550781 485.664062 311.714844 495.339844 320.769531 501.679688 L 423.160156 573.375 C 430.210938 578.3125 438.570312 580.910156 447.058594 580.910156 C 449.472656 580.910156 451.890625 580.699219 454.296875 580.277344 C 465.179688 578.355469 474.855469 572.195312 481.195312 563.140625 L 600.683594 392.46875 L 654.234375 429.960938 C 661.238281 434.867188 669.582031 437.496094 678.132812 437.496094 L 771.371094 437.496094 C 794.382812 437.496094 813.039062 418.839844 813.039062 395.828125 C 813.039062 372.816406 794.382812 354.164062 771.371094 354.164062 L 691.269531 354.164062 L 550.332031 255.484375 L 511.976562 228.625 L 511.890625 228.570312 L 477.828125 204.730469 C 475.582031 203.15625 473.183594 201.808594 470.671875 200.707031 L 276.113281 115.339844 C 255.042969 106.097656 230.460938 115.683594 221.214844 136.753906 C 211.972656 157.828125 221.558594 182.410156 242.632812 191.652344 Z M 281.273438 795.105469 C 282.269531 794.792969 283.570312 794.210938 285.050781 793.472656 L 308.859375 735.175781 C 318.167969 714.132812 308.65625 689.523438 287.613281 680.214844 C 266.5625 670.902344 241.960938 680.417969 232.648438 701.460938 L 202.84375 775.128906 C 220.152344 777.421875 236.132812 782.566406 250.660156 787.242188 C 260.875 790.535156 274.824219 795.023438 281.273438 795.105469 Z M 570.355469 218.53125 C 609.734375 246.105469 658.429688 237.246094 686.007812 197.867188 C 713.582031 158.488281 704.925781 109.386719 665.546875 81.8125 C 626.167969 54.238281 577.054688 62.890625 549.484375 102.269531 C 521.90625 141.648438 530.976562 190.957031 570.355469 218.53125 Z M 958.253906 354.167969 L 884.867188 354.167969 C 867.609375 354.167969 853.617188 368.160156 853.617188 385.417969 L 853.617188 395.832031 L 989.503906 395.832031 L 989.503906 385.417969 C 989.503906 368.160156 975.511719 354.167969 958.253906 354.167969 Z M 438.085938 802.269531 C 437.332031 801.949219 436.578125 801.628906 435.828125 801.316406 C 435.289062 801.09375 434.75 800.875 434.210938 800.660156 C 433.46875 800.355469 432.722656 800.054688 431.976562 799.757812 C 431.425781 799.542969 430.882812 799.335938 430.332031 799.125 C 429.589844 798.839844 428.851562 798.558594 428.109375 798.292969 C 427.546875 798.085938 426.988281 797.886719 426.425781 797.6875 C 425.6875 797.425781 424.945312 797.171875 424.203125 796.921875 C 423.640625 796.730469 423.070312 796.546875 422.503906 796.363281 C 421.765625 796.125 421.019531 795.894531 420.277344 795.671875 C 419.707031 795.496094 419.132812 795.328125 418.558594 795.164062 C 417.8125 794.949219 417.058594 794.746094 416.308594 794.550781 C 415.738281 794.398438 415.164062 794.246094 414.585938 794.105469 C 413.828125 793.917969 413.070312 793.746094 412.304688 793.578125 C 411.734375 793.449219 411.160156 793.320312 410.585938 793.203125 C 409.816406 793.046875 409.042969 792.90625 408.269531 792.769531 C 407.699219 792.667969 407.125 792.558594 406.550781 792.472656 C 405.757812 792.34375 404.960938 792.242188 404.164062 792.140625 C 403.605469 792.066406 403.050781 791.988281 402.488281 791.925781 C 401.65625 791.832031 400.820312 791.769531 399.980469 791.707031 C 399.453125 791.664062 398.921875 791.613281 398.390625 791.582031 C 397.484375 791.527344 396.578125 791.511719 395.671875 791.488281 C 395.195312 791.480469 394.726562 791.453125 394.25 791.453125 C 392.882812 791.449219 391.507812 791.476562 390.125 791.550781 C 365.550781 792.882812 344.421875 806.117188 325.777344 817.800781 C 311.515625 826.738281 298.046875 835.179688 286.3125 836.507812 C 285.484375 836.601562 284.636719 836.667969 283.777344 836.710938 C 283.539062 836.722656 283.296875 836.722656 283.054688 836.730469 C 282.519531 836.746094 281.992188 836.773438 281.449219 836.773438 L 281.265625 836.765625 C 279.847656 836.757812 278.398438 836.683594 276.925781 836.566406 C 276.648438 836.542969 276.371094 836.523438 276.097656 836.5 C 274.644531 836.367188 273.164062 836.183594 271.660156 835.957031 C 271.375 835.914062 271.089844 835.863281 270.800781 835.820312 C 269.863281 835.667969 268.921875 835.503906 267.96875 835.320312 L 267.976562 835.300781 C 267.359375 835.179688 266.757812 835.089844 266.132812 834.960938 C 265.941406 834.921875 265.742188 834.875 265.546875 834.832031 C 263.964844 834.496094 262.371094 834.128906 260.761719 833.726562 L 260.378906 833.632812 C 258.71875 833.214844 257.042969 832.761719 255.363281 832.289062 C 255.085938 832.210938 254.816406 832.136719 254.539062 832.054688 C 252.90625 831.589844 251.265625 831.105469 249.621094 830.609375 C 249.316406 830.515625 249.011719 830.421875 248.707031 830.328125 C 247.058594 829.824219 245.40625 829.308594 243.753906 828.785156 C 243.464844 828.691406 243.179688 828.601562 242.890625 828.507812 C 241.226562 827.976562 239.558594 827.441406 237.898438 826.910156 C 236.714844 826.523438 235.523438 826.144531 234.335938 825.761719 C 233.921875 825.628906 233.503906 825.496094 233.085938 825.363281 C 232.234375 825.089844 231.378906 824.820312 230.523438 824.550781 C 230.050781 824.402344 229.578125 824.253906 229.105469 824.105469 C 228.269531 823.84375 227.429688 823.585938 226.597656 823.328125 C 226.148438 823.195312 225.707031 823.054688 225.261719 822.921875 C 224.046875 822.550781 222.832031 822.191406 221.617188 821.835938 L 221.234375 821.726562 C 220.074219 821.390625 218.914062 821.066406 217.753906 820.742188 C 217.339844 820.632812 216.925781 820.523438 216.511719 820.414062 C 215.648438 820.179688 214.789062 819.953125 213.925781 819.734375 C 213.46875 819.617188 213.011719 819.503906 212.550781 819.390625 C 211.679688 819.171875 210.808594 818.96875 209.933594 818.765625 C 209.527344 818.671875 209.113281 818.574219 208.703125 818.480469 C 207.441406 818.199219 206.175781 817.929688 204.914062 817.679688 L 204.660156 817.636719 C 203.480469 817.410156 202.296875 817.195312 201.117188 817 C 200.710938 816.933594 200.300781 816.871094 199.894531 816.808594 C 199.019531 816.675781 198.144531 816.546875 197.265625 816.429688 C 196.816406 816.371094 196.359375 816.3125 195.910156 816.261719 C 195.023438 816.152344 194.136719 816.066406 193.25 815.980469 C 192.855469 815.945312 192.453125 815.902344 192.054688 815.871094 C 190.789062 815.769531 189.519531 815.683594 188.25 815.636719 L 187.957031 815.632812 C 186.957031 815.597656 185.957031 815.574219 184.957031 815.574219 L 184.449219 815.582031 C 184.039062 815.585938 183.625 815.601562 183.214844 815.609375 C 182.339844 815.628906 181.464844 815.660156 180.585938 815.707031 C 180.136719 815.734375 179.683594 815.761719 179.234375 815.796875 C 178.351562 815.859375 177.464844 815.945312 176.585938 816.042969 C 176.183594 816.085938 175.78125 816.125 175.382812 816.175781 C 174.109375 816.335938 172.839844 816.523438 171.570312 816.757812 C 170.914062 816.882812 170.28125 817.050781 169.628906 817.179688 C 131.605469 824.882812 102.871094 850.484375 77.492188 873.148438 C 74.828125 875.535156 72.183594 877.886719 69.566406 880.195312 C 60.933594 887.800781 60.101562 900.964844 67.703125 909.601562 C 71.824219 914.273438 77.570312 916.664062 83.347656 916.664062 C 88.238281 916.664062 93.148438 914.949219 97.109375 911.460938 C 99.796875 909.09375 102.507812 906.671875 105.246094 904.226562 C 128.039062 883.867188 151.609375 862.816406 179.136719 857.734375 C 179.980469 857.578125 180.859375 857.46875 181.753906 857.386719 C 182.039062 857.359375 182.332031 857.347656 182.625 857.332031 C 183.25 857.289062 183.882812 857.261719 184.53125 857.253906 L 185.023438 857.234375 L 185.429688 857.253906 C 186.640625 857.265625 187.882812 857.320312 189.160156 857.429688 C 189.363281 857.449219 189.570312 857.476562 189.773438 857.492188 C 191.015625 857.617188 192.28125 857.777344 193.574219 857.976562 L 194.050781 858.046875 C 195.421875 858.265625 196.828125 858.539062 198.253906 858.839844 C 198.550781 858.902344 198.847656 858.964844 199.148438 859.03125 C 200.554688 859.339844 201.984375 859.679688 203.441406 860.046875 C 203.710938 860.113281 203.988281 860.191406 204.261719 860.261719 C 205.695312 860.632812 207.140625 861.023438 208.613281 861.445312 L 208.960938 861.542969 C 210.515625 861.988281 212.097656 862.460938 213.6875 862.945312 C 214.015625 863.046875 214.339844 863.144531 214.671875 863.246094 C 216.207031 863.722656 217.757812 864.207031 219.320312 864.703125 C 219.710938 864.828125 220.105469 864.953125 220.492188 865.078125 C 222.027344 865.570312 223.574219 866.066406 225.128906 866.566406 C 226.328125 866.953125 227.53125 867.339844 228.738281 867.726562 C 229.164062 867.863281 229.597656 868.003906 230.023438 868.136719 C 230.84375 868.398438 231.660156 868.660156 232.480469 868.917969 C 232.996094 869.078125 233.515625 869.242188 234.035156 869.402344 C 234.78125 869.636719 235.53125 869.871094 236.28125 870.101562 C 236.816406 870.265625 237.347656 870.429688 237.882812 870.589844 C 238.632812 870.816406 239.386719 871.042969 240.136719 871.265625 C 240.664062 871.421875 241.1875 871.578125 241.714844 871.734375 C 242.515625 871.964844 243.320312 872.195312 244.121094 872.421875 C 244.589844 872.550781 245.058594 872.6875 245.53125 872.816406 C 246.773438 873.160156 248.019531 873.496094 249.269531 873.820312 L 249.671875 873.917969 C 250.820312 874.214844 251.972656 874.496094 253.121094 874.773438 C 253.558594 874.878906 254.003906 874.976562 254.445312 875.074219 C 255.28125 875.269531 256.121094 875.457031 256.960938 875.636719 C 257.464844 875.746094 257.972656 875.847656 258.480469 875.949219 C 259.269531 876.109375 260.058594 876.265625 260.851562 876.414062 C 261.371094 876.511719 261.894531 876.605469 262.417969 876.695312 C 263.207031 876.832031 264 876.960938 264.792969 877.085938 C 265.304688 877.167969 265.816406 877.246094 266.328125 877.320312 C 267.191406 877.445312 268.054688 877.550781 268.917969 877.660156 C 269.355469 877.710938 269.792969 877.773438 270.230469 877.820312 C 271.519531 877.960938 272.816406 878.085938 274.109375 878.179688 L 274.5625 878.207031 C 275.714844 878.285156 276.863281 878.347656 278.019531 878.386719 C 278.476562 878.402344 278.929688 878.40625 279.386719 878.414062 C 280.199219 878.429688 281.011719 878.441406 281.824219 878.4375 C 282.859375 878.429688 283.898438 878.394531 284.933594 878.355469 C 285.429688 878.332031 285.925781 878.324219 286.425781 878.296875 C 287.953125 878.210938 289.484375 878.085938 291.019531 877.914062 C 312.152344 875.511719 330.328125 864.121094 347.910156 853.109375 C 363.667969 843.234375 378.554688 833.90625 392.382812 833.160156 C 392.914062 833.132812 393.453125 833.117188 393.996094 833.117188 L 394.398438 833.132812 C 394.761719 833.136719 395.132812 833.152344 395.496094 833.171875 C 395.921875 833.191406 396.351562 833.210938 396.785156 833.242188 C 397.160156 833.273438 397.539062 833.316406 397.917969 833.359375 C 398.355469 833.402344 398.792969 833.457031 399.234375 833.515625 C 399.621094 833.570312 400.015625 833.636719 400.40625 833.699219 C 400.851562 833.773438 401.296875 833.851562 401.746094 833.941406 C 402.144531 834.015625 402.546875 834.101562 402.949219 834.1875 C 403.40625 834.289062 403.863281 834.390625 404.320312 834.5 C 404.730469 834.601562 405.140625 834.703125 405.550781 834.808594 C 406.019531 834.929688 406.484375 835.058594 406.953125 835.191406 C 407.367188 835.308594 407.785156 835.429688 408.207031 835.554688 C 408.683594 835.699219 409.164062 835.851562 409.640625 836.003906 C 410.066406 836.136719 410.488281 836.273438 410.914062 836.417969 C 411.398438 836.578125 411.886719 836.75 412.378906 836.921875 C 412.804688 837.074219 413.234375 837.226562 413.667969 837.382812 C 414.164062 837.5625 414.664062 837.753906 415.164062 837.941406 C 415.597656 838.105469 416.03125 838.269531 416.464844 838.441406 C 416.976562 838.636719 417.488281 838.839844 417.996094 839.046875 C 418.433594 839.222656 418.867188 839.398438 419.304688 839.578125 C 419.832031 839.792969 420.359375 840.015625 420.890625 840.238281 C 421.320312 840.421875 421.746094 840.601562 422.179688 840.785156 C 422.730469 841.019531 423.285156 841.265625 423.835938 841.507812 C 424.257812 841.691406 424.671875 841.871094 425.097656 842.058594 C 425.683594 842.320312 426.273438 842.585938 426.867188 842.855469 C 427.257812 843.027344 427.640625 843.199219 428.03125 843.378906 C 428.6875 843.675781 429.351562 843.980469 430.011719 844.289062 C 430.339844 844.441406 430.671875 844.589844 431.003906 844.742188 C 431.769531 845.097656 432.542969 845.457031 433.3125 845.816406 C 433.542969 845.925781 433.773438 846.03125 434.007812 846.140625 C 435.007812 846.609375 436.015625 847.078125 437.023438 847.550781 C 451.050781 854.125 465.417969 860.839844 480.636719 864.222656 L 438.433594 802.421875 Z M 930.464844 880.226562 C 928.410156 878.410156 926.269531 876.488281 924.050781 874.5 C 900.285156 853.195312 867.730469 824.023438 828.429688 816.761719 C 827.160156 816.527344 825.890625 816.339844 824.617188 816.175781 C 824.214844 816.128906 823.8125 816.085938 823.410156 816.046875 C 822.527344 815.949219 821.640625 815.863281 820.761719 815.796875 C 820.308594 815.765625 819.863281 815.738281 819.414062 815.710938 C 818.535156 815.664062 817.652344 815.632812 816.769531 815.613281 C 816.363281 815.601562 815.957031 815.589844 815.550781 815.585938 C 814.367188 815.578125 813.179688 815.59375 811.996094 815.636719 L 811.75 815.640625 C 810.480469 815.6875 809.203125 815.769531 807.929688 815.871094 C 807.542969 815.90625 807.152344 815.945312 806.765625 815.980469 C 805.863281 816.066406 804.964844 816.160156 804.0625 816.265625 C 803.621094 816.316406 803.183594 816.371094 802.742188 816.429688 C 801.851562 816.546875 800.960938 816.675781 800.070312 816.816406 C 799.675781 816.878906 799.28125 816.933594 798.886719 817.003906 C 797.675781 817.203125 796.46875 817.417969 795.261719 817.652344 L 795.089844 817.683594 C 793.816406 817.933594 792.542969 818.207031 791.273438 818.488281 C 790.878906 818.578125 790.484375 818.671875 790.09375 818.761719 C 789.203125 818.96875 788.316406 819.179688 787.425781 819.398438 C 786.980469 819.511719 786.53125 819.621094 786.085938 819.734375 C 785.203125 819.957031 784.324219 820.191406 783.445312 820.425781 C 783.050781 820.535156 782.652344 820.636719 782.261719 820.742188 C 781.035156 821.078125 779.8125 821.421875 778.589844 821.777344 L 778.507812 821.800781 C 777.242188 822.167969 775.976562 822.546875 774.714844 822.929688 C 774.292969 823.058594 773.871094 823.1875 773.453125 823.316406 C 772.589844 823.582031 771.734375 823.847656 770.871094 824.117188 C 770.414062 824.261719 769.953125 824.402344 769.492188 824.550781 C 768.613281 824.828125 767.738281 825.105469 766.863281 825.382812 C 766.472656 825.507812 766.082031 825.632812 765.691406 825.757812 C 764.492188 826.140625 763.292969 826.527344 762.097656 826.914062 C 760.421875 827.453125 758.746094 827.992188 757.066406 828.523438 C 756.796875 828.609375 756.527344 828.695312 756.261719 828.78125 C 754.597656 829.308594 752.9375 829.828125 751.277344 830.335938 C 750.980469 830.425781 750.683594 830.519531 750.386719 830.609375 C 748.734375 831.109375 747.085938 831.601562 745.449219 832.066406 C 745.183594 832.140625 744.921875 832.210938 744.660156 832.285156 C 742.964844 832.761719 741.277344 833.21875 739.609375 833.640625 L 739.285156 833.71875 C 737.652344 834.128906 736.03125 834.503906 734.429688 834.84375 L 733.886719 834.964844 C 732.296875 835.296875 730.730469 835.578125 729.183594 835.828125 C 728.910156 835.871094 728.636719 835.917969 728.363281 835.960938 C 726.847656 836.1875 725.359375 836.371094 723.894531 836.507812 C 723.628906 836.535156 723.363281 836.550781 723.101562 836.574219 C 721.617188 836.691406 720.152344 836.765625 718.730469 836.769531 L 718.5625 836.777344 C 718.054688 836.777344 717.5625 836.753906 717.066406 836.738281 C 716.777344 836.730469 716.484375 836.730469 716.199219 836.714844 C 715.347656 836.671875 714.507812 836.605469 713.679688 836.511719 C 701.953125 835.179688 688.480469 826.742188 674.222656 817.804688 C 662.828125 810.667969 650.496094 802.957031 637.027344 797.730469 L 684.40625 867.089844 C 685.617188 868.851562 686.730469 870.652344 687.796875 872.480469 C 694.566406 875.121094 701.585938 877.074219 708.980469 877.914062 C 710.511719 878.089844 712.042969 878.210938 713.570312 878.300781 C 714.070312 878.328125 714.566406 878.335938 715.070312 878.355469 C 716.101562 878.398438 717.136719 878.433594 718.167969 878.441406 C 718.984375 878.445312 719.796875 878.433594 720.613281 878.417969 C 721.066406 878.40625 721.523438 878.40625 721.972656 878.390625 C 723.128906 878.351562 724.28125 878.289062 725.433594 878.207031 L 725.882812 878.179688 C 727.175781 878.085938 728.46875 877.964844 729.757812 877.820312 C 730.207031 877.773438 730.65625 877.710938 731.105469 877.65625 C 731.953125 877.550781 732.804688 877.445312 733.65625 877.324219 C 734.179688 877.25 734.699219 877.167969 735.222656 877.085938 C 736 876.960938 736.777344 876.835938 737.558594 876.699219 C 738.09375 876.605469 738.632812 876.511719 739.164062 876.410156 C 739.933594 876.265625 740.707031 876.113281 741.476562 875.957031 C 742 875.851562 742.523438 875.746094 743.046875 875.636719 C 743.859375 875.460938 744.667969 875.277344 745.480469 875.089844 C 745.949219 874.984375 746.421875 874.878906 746.890625 874.769531 C 747.960938 874.515625 749.027344 874.25 750.089844 873.980469 C 750.421875 873.894531 750.746094 873.808594 751.078125 873.726562 C 752.203125 873.429688 753.324219 873.132812 754.445312 872.820312 C 754.9375 872.6875 755.429688 872.542969 755.921875 872.40625 C 756.703125 872.183594 757.484375 871.960938 758.261719 871.738281 C 758.804688 871.578125 759.347656 871.417969 759.890625 871.257812 C 760.621094 871.042969 761.351562 870.820312 762.082031 870.601562 C 762.636719 870.433594 763.183594 870.265625 763.738281 870.097656 C 764.46875 869.871094 765.195312 869.644531 765.925781 869.417969 C 766.457031 869.25 766.992188 869.082031 767.527344 868.914062 C 768.339844 868.660156 769.148438 868.398438 769.960938 868.140625 C 770.394531 868.003906 770.824219 867.867188 771.257812 867.730469 C 772.460938 867.339844 773.664062 866.957031 774.863281 866.570312 C 776.402344 866.074219 777.933594 865.582031 779.457031 865.097656 C 779.867188 864.964844 780.285156 864.828125 780.699219 864.699219 C 782.242188 864.207031 783.777344 863.726562 785.300781 863.257812 C 785.644531 863.152344 785.988281 863.046875 786.332031 862.945312 C 787.914062 862.464844 789.484375 861.992188 791.027344 861.550781 L 791.390625 861.449219 C 792.855469 861.03125 794.296875 860.640625 795.722656 860.269531 C 796 860.199219 796.28125 860.121094 796.554688 860.054688 C 798.011719 859.683594 799.441406 859.347656 800.851562 859.039062 C 801.144531 858.976562 801.4375 858.914062 801.730469 858.851562 C 803.164062 858.546875 804.574219 858.277344 805.949219 858.050781 L 806.390625 857.988281 C 807.703125 857.78125 808.984375 857.621094 810.238281 857.5 C 810.429688 857.480469 810.628906 857.457031 810.820312 857.441406 C 812.105469 857.328125 813.355469 857.273438 814.574219 857.261719 L 814.964844 857.242188 L 815.445312 857.261719 C 816.105469 857.269531 816.753906 857.296875 817.394531 857.339844 C 817.671875 857.359375 817.957031 857.371094 818.230469 857.394531 C 819.128906 857.476562 820.007812 857.585938 820.855469 857.742188 C 848.640625 862.871094 876.148438 887.53125 896.238281 905.535156 C 898.535156 907.589844 900.742188 909.570312 902.867188 911.449219 C 903.386719 911.90625 903.921875 912.328125 904.472656 912.726562 C 904.660156 912.859375 904.855469 912.976562 905.042969 913.105469 C 905.410156 913.355469 905.777344 913.601562 906.15625 913.824219 C 906.390625 913.957031 906.628906 914.078125 906.867188 914.203125 C 907.214844 914.390625 907.5625 914.578125 907.917969 914.742188 C 908.171875 914.859375 908.433594 914.960938 908.695312 915.070312 C 909.039062 915.210938 909.386719 915.355469 909.738281 915.480469 C 910.007812 915.574219 910.28125 915.65625 910.554688 915.738281 C 910.902344 915.847656 911.253906 915.949219 911.605469 916.039062 C 911.886719 916.105469 912.167969 916.167969 912.449219 916.226562 C 912.800781 916.300781 913.152344 916.363281 913.503906 916.417969 C 913.792969 916.460938 914.074219 916.5 914.363281 916.535156 C 914.714844 916.574219 915.070312 916.597656 915.425781 916.617188 C 915.714844 916.636719 916.003906 916.652344 916.289062 916.660156 C 916.597656 916.664062 916.910156 916.652344 917.21875 916.644531 C 917.617188 916.636719 918.019531 916.617188 918.417969 916.582031 C 918.714844 916.558594 919.011719 916.523438 919.308594 916.484375 C 919.703125 916.4375 920.097656 916.375 920.488281 916.300781 C 920.785156 916.246094 921.078125 916.183594 921.371094 916.117188 C 921.761719 916.027344 922.144531 915.925781 922.527344 915.816406 C 922.816406 915.730469 923.105469 915.644531 923.390625 915.546875 C 923.773438 915.417969 924.148438 915.269531 924.523438 915.117188 C 924.800781 915.003906 925.078125 914.894531 925.351562 914.769531 C 925.726562 914.597656 926.089844 914.402344 926.453125 914.207031 C 926.714844 914.070312 926.980469 913.9375 927.234375 913.789062 C 927.609375 913.570312 927.96875 913.324219 928.328125 913.078125 C 928.558594 912.921875 928.800781 912.773438 929.027344 912.605469 C 929.414062 912.320312 929.785156 912.003906 930.152344 911.691406 L 930.710938 911.222656 C 931.253906 910.726562 931.777344 910.203125 932.273438 909.640625 C 939.894531 901.011719 939.085938 887.847656 930.464844 880.226562 Z M 650.050781 890.652344 L 611.03125 833.527344 L 584.300781 794.394531 L 584.292969 794.386719 L 559.722656 758.417969 L 513.476562 690.714844 C 510.660156 686.632812 507.132812 683.078125 503.070312 680.234375 L 296.816406 535.816406 C 277.964844 522.613281 251.984375 527.199219 238.789062 546.046875 C 225.585938 564.894531 230.167969 590.878906 249.019531 604.074219 L 449.121094 744.191406 L 466.210938 769.214844 L 504.011719 824.566406 L 529.273438 861.554688 L 553.578125 897.144531 L 581.441406 937.949219 C 589.523438 949.675781 602.542969 955.972656 615.785156 955.972656 C 623.933594 955.972656 632.171875 953.585938 639.394531 948.609375 C 654.261719 938.363281 660.351562 920.1875 655.996094 903.675781 C 654.800781 899.144531 652.863281 894.734375 650.050781 890.652344 Z M 650.050781 890.652344"/></svg>