<?xml version="1.0" encoding="iso-8859-1"?>
<!-- Generator: Adobe Illustrator 23.0.4, SVG Export Plug-In . SVG Version: 6.00 Build 0)  -->
<svg version="1.1" xmlns="http://www.w3.org/2000/svg" xmlns:xlink="http://www.w3.org/1999/xlink" x="0px" y="0px"
	 viewBox="0 0 480 480" style="enable-background:new 0 0 480 480;" xml:space="preserve">
<g id="Workspace">
	<path d="M240,360c82.83,0,150-67.17,150-150c0-82.845-67.17-150-150-150c-82.845,0-150,67.155-150,150
		C90,292.83,157.155,360,240,360z M283.029,265.244l-0.067-0.103l-0.093-0.139c-0.071-0.104-0.143-0.21-0.21-0.322
		c-6.735-10.545-15-19.979-24.345-28.274c-0.629-0.546-1.252-1.099-1.875-1.651c-1.637-1.453-3.276-2.907-5.025-4.244
		c-1.212-0.946-2.499-1.802-3.787-2.658h-0.001c-0.528-0.352-1.058-0.704-1.582-1.062c-2.16-1.5-4.364-2.925-6.63-4.29
		c-1.494,0.818-3.049,1.504-4.606,2.191h-0.001c-0.897,0.396-1.795,0.791-2.683,1.214c-0.59,0.28-1.164,0.597-1.738,0.912
		l-0.001,0.001c-0.682,0.374-1.362,0.749-2.07,1.066c-0.344,0.152-0.701,0.274-1.057,0.396v0.001h-0.001
		c-0.312,0.106-0.622,0.213-0.923,0.339c-4.38,1.89-8.835,3.479-13.365,4.949c-0.257,0.09-0.514,0.184-0.772,0.277l-0.001,0.001
		h-0.002v0.001c-0.434,0.157-0.868,0.315-1.31,0.456c-0.165,0.059-0.343,0.092-0.517,0.124l-0.127,0.024l-0.151,0.031
		c-14.505,4.41-29.55,6.945-44.774,6.945c-0.122,0-0.24-0.008-0.356-0.016c-0.112-0.007-0.223-0.015-0.334-0.015
		c-3.915-0.045-7.755-0.284-11.595-0.585v-0.015c-0.188-0.008-0.371-0.034-0.555-0.06c-0.185-0.026-0.368-0.053-0.556-0.061
		c-3.39-0.314-6.75-0.765-10.095-1.29c-0.435-0.063-0.872-0.111-1.309-0.159h-0.001c-0.588-0.063-1.174-0.127-1.75-0.23l-0.1-0.017
		l-0.112-0.019l-0.131-0.021h-0.001c-0.133-0.021-0.262-0.04-0.392-0.064c-0.604-0.101-1.186-0.246-1.77-0.392h-0.001
		c-0.372-0.094-0.745-0.187-1.125-0.269c-2.64-0.524-5.265-1.095-7.875-1.77c-0.33-0.08-0.665-0.149-1.001-0.219l-0.001-0.001
		c-0.488-0.101-0.978-0.202-1.458-0.336c-0.184-0.049-0.37-0.093-0.557-0.137c-0.271-0.064-0.542-0.128-0.808-0.208
		c-1.146-0.312-2.26-0.696-3.375-1.08c-0.653-0.225-1.307-0.449-1.966-0.66c-0.511-0.166-1.022-0.329-1.535-0.492
		c-0.682-0.217-1.363-0.434-2.042-0.658c-1.325-7.356-2.017-14.929-2.017-22.66c0-0.364,0.002-0.729,0.005-1.093
		c2.644,1.137,5.339,2.195,8.072,3.17c1.426,0.511,2.88,0.96,4.335,1.41c3.165,1.021,6.33,1.995,9.57,2.775
		c1.022,0.241,2.057,0.426,3.088,0.609c0.633,0.112,1.265,0.225,1.893,0.351c0.575,0.111,1.15,0.226,1.726,0.34
		c2.508,0.497,5.011,0.993,7.574,1.311c-0.675-5.926-1.125-11.91-1.125-18.016c0-41.8,16.783-80.72,45.098-109.277
		c14.585-5.842,30.492-9.063,47.137-9.08c-43.364,23.248-70.806,68.544-70.806,118.346c0,6.404,0.6,12.645,1.484,18.81
		c0.136-0.008,0.267-0.019,0.398-0.03c0.131-0.011,0.262-0.022,0.397-0.029c12.479-0.57,24.765-2.985,36.6-6.931
		c0.667-0.226,1.336-0.446,2.003-0.668h0.001c2.213-0.732,4.421-1.463,6.576-2.361c1.327-0.545,2.621-1.181,3.917-1.818h0.001
		c0.667-0.328,1.334-0.656,2.007-0.972c2.37-1.125,4.695-2.325,7.005-3.601c0.047-1.675,0.227-3.327,0.406-4.981v-0.003
		c0.109-1.011,0.22-2.022,0.299-3.04c0.046-0.621,0.061-1.251,0.075-1.881v-0.001c0.018-0.802,0.036-1.604,0.12-2.394
		c0.041-0.384,0.112-0.764,0.185-1.142v-0.001c0.06-0.314,0.119-0.629,0.16-0.942c0.57-4.74,1.41-9.405,2.4-14.055
		c0.046-0.247,0.089-0.495,0.132-0.744v-0.001c0.082-0.478,0.164-0.957,0.272-1.43c0.03-0.128,0.071-0.259,0.113-0.391
		c0.041-0.132,0.082-0.263,0.112-0.39c3.45-14.775,8.76-29.07,16.38-42.255l0.099-0.149l0.062-0.089
		c0.086-0.125,0.171-0.248,0.245-0.377c1.979-3.345,4.109-6.555,6.284-9.705c0.119-0.178,0.247-0.342,0.377-0.507
		c0.1-0.128,0.2-0.256,0.299-0.394c1.95-2.774,4.02-5.444,6.149-8.085c0.279-0.351,0.545-0.712,0.809-1.073h0.001
		c0.346-0.473,0.691-0.944,1.065-1.387c0.089-0.104,0.172-0.212,0.254-0.318c0.071-0.092,0.142-0.183,0.211-0.267
		c0.354-0.42,0.731-0.812,1.105-1.203c0.308-0.321,0.614-0.64,0.905-0.972c1.785-2.04,3.6-4.005,5.475-5.939
		c0.256-0.263,0.503-0.536,0.75-0.811h0.001c0.318-0.353,0.637-0.706,0.974-1.035c0.315-0.33,0.646-0.675,0.976-1.005
		c0.832-0.813,1.697-1.569,2.562-2.325c0.539-0.471,1.078-0.941,1.607-1.425c0.454-0.408,0.905-0.819,1.356-1.23l0.004-0.003
		c0.476-0.434,0.951-0.867,1.431-1.297c7.541,2.718,14.755,6.127,21.564,10.151c-2.305,1.717-4.55,3.515-6.758,5.378
		c-0.996,0.854-1.958,1.741-2.926,2.633l-0.464,0.428c-2.445,2.22-4.905,4.47-7.2,6.899c-0.7,0.746-1.362,1.53-2.025,2.317
		c-0.431,0.51-0.862,1.021-1.305,1.522c-0.387,0.446-0.775,0.892-1.164,1.336c-1.675,1.917-3.353,3.837-4.911,5.895
		c5.476,2.355,10.891,4.979,16.17,8.025c36.209,20.905,61.531,54.904,72.098,93.711c-2.351,16.291-7.793,31.596-15.71,45.298
		c1.529-49.162-23.966-95.553-67.091-120.459c-5.535-3.18-11.25-5.79-17.025-8.115c-0.048,0.096-0.091,0.192-0.134,0.288
		c-0.065,0.145-0.13,0.288-0.211,0.432c-5.76,11.101-9.811,22.966-12.3,35.19c-0.128,0.632-0.259,1.263-0.39,1.893v0.001
		c-0.485,2.331-0.969,4.658-1.275,7.031c-0.189,1.436-0.286,2.885-0.383,4.329c-0.049,0.729-0.097,1.457-0.157,2.181
		c-0.21,2.625-0.33,5.25-0.391,7.891c1.43,0.874,2.788,1.867,4.146,2.859h0.001v0.001c0.809,0.59,1.616,1.18,2.438,1.744
		c0.522,0.361,1.067,0.692,1.614,1.025c0.68,0.412,1.361,0.826,2.001,1.3c0.3,0.213,0.582,0.454,0.866,0.696v0.001
		c0.257,0.219,0.514,0.438,0.784,0.638c3.81,2.851,7.41,5.91,10.935,9.09c0.143,0.12,0.286,0.239,0.43,0.358l0.001,0.001
		c0.43,0.356,0.859,0.714,1.265,1.096c0.097,0.09,0.19,0.187,0.285,0.285c0.097,0.101,0.194,0.202,0.3,0.3
		c11.055,10.38,20.76,22.125,28.38,35.311c0.083,0.129,0.149,0.27,0.216,0.41v0.001l0.129,0.264c1.92,3.375,3.615,6.825,5.25,10.275
		c0.092,0.191,0.17,0.383,0.246,0.571c0.062,0.151,0.122,0.302,0.189,0.448c1.439,3.105,2.715,6.225,3.945,9.39
		c0.163,0.42,0.344,0.833,0.524,1.245c0.233,0.533,0.466,1.064,0.66,1.605c0.045,0.12,0.094,0.236,0.143,0.353
		s0.098,0.232,0.143,0.353c0.177,0.497,0.323,1.004,0.47,1.51c0.127,0.439,0.254,0.878,0.4,1.31c0.854,2.551,1.68,5.115,2.415,7.726
		c0.099,0.381,0.221,0.752,0.342,1.122h0.001v0.001c0.137,0.417,0.273,0.833,0.377,1.262c0.135,0.45,0.27,0.915,0.39,1.365
		c0.303,1.182,0.536,2.369,0.77,3.56c0.125,0.639,0.25,1.276,0.386,1.915c0.119,0.559,0.242,1.115,0.365,1.671
		c0.144,0.649,0.287,1.298,0.425,1.948c-6.063,5.142-12.612,9.728-19.566,13.679c-0.327-2.856-0.755-5.714-1.276-8.57
		c-0.285-1.485-0.615-2.955-0.945-4.425c-0.705-3.255-1.425-6.495-2.4-9.705c-0.308-1.062-0.687-2.11-1.065-3.154
		c-0.193-0.534-0.387-1.067-0.569-1.601c-0.155-0.458-0.31-0.915-0.464-1.372c-0.855-2.538-1.706-5.06-2.761-7.538
		c-4.785,3.54-9.75,6.93-15.045,9.99c-36.158,20.872-78.21,25.81-117.056,15.608c-12.656-9.977-23.385-22.296-31.523-36.298
		c41.81,25.898,94.729,27.021,137.855,2.128c5.55-3.21,10.65-6.855,15.54-10.68L283.029,265.244z M446.608,422.56
		c-0.987-0.873-2.016-1.795-3.083-2.752c-11.408-10.224-27.031-24.227-45.895-27.711c-10.625-1.96-21.409,1.512-31.839,4.87
		c-8.182,2.635-16.639,5.356-23.239,4.61c-5.629-0.639-12.096-4.69-18.94-8.979c-8.948-5.607-19.09-11.962-30.886-12.6
		c-11.024-0.6-21.176,4.164-30.997,8.768c-7.884,3.695-15.33,7.186-21.745,7.186c-6.414,0-13.86-3.49-21.744-7.186
		c-9.82-4.604-19.975-9.368-30.996-8.768c-11.796,0.638-21.938,6.992-30.887,12.599c-6.846,4.29-13.312,8.342-18.943,8.98
		c-6.598,0.751-15.059-1.976-23.24-4.61c-10.432-3.358-21.216-6.829-31.839-4.869c-18.723,3.458-32.769,16.003-45.16,27.072
		c-1.278,1.142-2.544,2.272-3.8,3.378c-4.144,3.651-4.544,9.97-0.894,14.114s9.97,4.544,14.114,0.894
		c1.289-1.136,2.589-2.297,3.902-3.47c10.942-9.774,22.257-19.881,35.47-22.32c5.666-1.051,13.635,1.521,22.075,4.239
		c10.2,3.284,20.746,6.676,31.628,5.445c10.145-1.152,18.868-6.619,27.306-11.905c7.565-4.74,14.711-9.218,21.348-9.576
		c5.98-0.325,13.495,3.188,21.428,6.906c9.52,4.462,19.363,9.076,30.232,9.076s20.713-4.614,30.233-9.076
		c7.932-3.718,15.41-7.23,21.429-6.906c6.636,0.358,13.781,4.836,21.346,9.576c8.437,5.286,17.161,10.753,27.305,11.905
		c10.879,1.236,21.427-2.162,31.626-5.446c8.44-2.719,16.415-5.291,22.075-4.239c13.334,2.463,26.538,14.297,36.179,22.938
		c1.103,0.987,2.165,1.939,3.186,2.842c1.902,1.682,4.266,2.508,6.619,2.508c2.767,0,5.52-1.142,7.496-3.377
		C451.135,432.537,450.746,426.218,446.608,422.56z"/>
</g>
<g id="Guide">
</g>
</svg>
