<?xml version="1.0" encoding="iso-8859-1"?>
<!-- Generator: Adobe Illustrator 23.0.4, SVG Export Plug-In . SVG Version: 6.00 Build 0)  -->
<svg version="1.1" xmlns="http://www.w3.org/2000/svg" xmlns:xlink="http://www.w3.org/1999/xlink" x="0px" y="0px"
	 viewBox="0 0 480 480" style="enable-background:new 0 0 480 480;" xml:space="preserve">
<g id="Workspace">
	<path d="M446.623,422.508c-0.986-0.872-2.014-1.793-3.079-2.748c-11.408-10.226-27.033-24.229-45.897-27.715
		c-10.626-1.962-21.41,1.513-31.839,4.87c-8.182,2.635-16.638,5.356-23.239,4.61c-5.629-0.639-12.095-4.69-18.94-8.979
		c-8.948-5.607-19.09-11.962-30.886-12.6c-11.023-0.599-21.176,4.164-30.997,8.768c-7.884,3.695-15.331,7.186-21.745,7.186
		s-13.86-3.49-21.744-7.186c-9.82-4.604-19.973-9.367-30.996-8.768c-11.797,0.638-21.939,6.992-30.888,12.6
		c-6.846,4.289-13.312,8.341-18.942,8.979c-6.597,0.743-15.059-1.976-23.24-4.61c-10.431-3.357-21.214-6.831-31.839-4.869
		c-18.722,3.458-32.767,16.002-45.158,27.069c-1.279,1.143-2.546,2.274-3.803,3.381c-4.144,3.65-4.544,9.97-0.894,14.114
		c1.977,2.243,4.735,3.39,7.508,3.39c2.348,0,4.706-0.822,6.606-2.496c1.29-1.137,2.591-2.298,3.904-3.472
		c10.942-9.773,22.257-19.879,35.469-22.318c5.666-1.05,13.636,1.521,22.075,4.239c10.2,3.284,20.747,6.68,31.628,5.445
		c10.144-1.152,18.868-6.618,27.305-11.905c7.565-4.74,14.711-9.218,21.349-9.576c5.987-0.319,13.495,3.188,21.428,6.906
		c9.52,4.462,19.363,9.076,30.232,9.076s20.713-4.614,30.233-9.076c7.932-3.718,15.417-7.225,21.429-6.906
		c6.636,0.358,13.781,4.836,21.346,9.576c8.437,5.286,17.161,10.753,27.305,11.905c10.881,1.233,21.428-2.161,31.626-5.446
		c8.441-2.718,16.415-5.289,22.075-4.239c13.335,2.463,26.54,14.299,36.182,22.94c1.101,0.986,2.162,1.938,3.182,2.839
		c4.137,3.656,10.456,3.268,14.115-0.869C451.15,432.485,450.76,426.166,446.623,422.508z M73.558,180.105
		c3.384,0.192,6.688,0.676,9.9,1.408L89.185,140h56.65l-8,50h-34.597c7.705,5.121,14.157,11.975,18.812,20h12.585l-4.552,28.449
		l-3.49,21.813l-12.405,77.532c-0.119,0.745-0.146,1.482-0.101,2.205H61.598l5.528-40.077c-3.386-0.167-6.693-0.629-9.91-1.337
		c-3.339-0.735-6.573-1.748-9.679-3.015l-7.319,53.062c-0.395,2.863,0.469,5.758,2.367,7.937c1.899,2.179,4.648,3.43,7.539,3.43h290
		l0.138-0.006c0.236-0.004,0.471-0.014,0.703-0.033c0.129-0.011,0.258-0.029,0.387-0.045c0.148-0.019,0.298-0.037,0.445-0.062
		c0.146-0.024,0.293-0.055,0.439-0.087c0.125-0.026,0.25-0.056,0.374-0.087c0.153-0.039,0.306-0.083,0.458-0.129l0.156-0.045
		l100-32.608c5.167-1.685,8.042-7.188,6.474-12.393L384.811,99.206l5.22-37.84c0.395-2.863-0.469-5.758-2.367-7.937
		c-1.899-2.179-4.648-3.43-7.539-3.43h-290c-4.995,0-9.224,3.686-9.906,8.634L63.426,180.385c2.2-0.246,4.433-0.384,6.698-0.384
		C71.277,180.001,72.421,180.041,73.558,180.105z M178.397,340h-44.309l9.601-60h44.309L178.397,340z M146.889,260l8-50h44.309
		l-8,50H146.889z M242.96,340h-44.309l9.601-60h44.309L242.96,340z M211.452,260l8-50h44.309l-8,50H211.452z M331.409,340h-68.195
		l9.601-60h66.871L331.409,340z M342.444,260h-66.43l8-50h65.326L342.444,260z M378.254,146.753l49.475,164.162l-75.515,24.624
		l19.913-144.365L378.254,146.753z M306.415,70h62.236l-3.947,28.62l-0.003,0.014L361.754,120h-63.339L306.415,70z M295.215,140
		h63.78l-6.896,50h-64.885L295.215,140z M241.852,70h44.309l-8,50h-44.309L241.852,70z M230.652,140h44.309l-8,50h-44.31
		L230.652,140z M176.936,72.205c0.119-0.745,0.146-1.482,0.101-2.205h44.562l-8,50h-44.31L176.936,72.205z M166.089,140h44.31l-8,50
		h-44.31L166.089,140z M98.841,70h58.195l-8,50H91.944L98.841,70z M50.403,274.795c2.971,1.688,6.175,3.012,9.558,3.897
		c3.169,0.83,6.49,1.279,9.915,1.3l0.248,0.007c22.091,0,39.999-17.908,39.999-39.999c0-11.951-5.248-22.67-13.558-30
		c-4.5-3.97-9.898-6.94-15.854-8.572c-3.161-0.865-6.478-1.352-9.899-1.409c-0.23-0.004-0.458-0.018-0.688-0.018
		c-3.298,0-6.499,0.407-9.564,1.159c-0.116,0.029-0.234,0.052-0.351,0.081C42.915,205.652,30.125,221.332,30.125,240
		C30.125,254.918,38.298,267.918,50.403,274.795z"/>
</g>
<g id="Guide">
</g>
</svg>
