<svg xmlns="http://www.w3.org/2000/svg" width="1000pt" height="1000pt" viewBox="0 0 1000 1000"><path d="M 402.308594 471.042969 L 489.824219 534.601562 C 495.882812 539.03125 504.117188 539.03125 510.179688 534.601562 L 597.660156 471.042969 C 603.75 466.609375 606.277344 458.820312 603.957031 451.691406 L 570.550781 348.804688 C 568.234375 341.671875 561.585938 336.863281 554.105469 336.863281 L 445.925781 336.863281 C 438.414062 336.863281 431.765625 341.675781 429.449219 348.804688 L 396.042969 451.691406 C 393.726562 458.820312 396.253906 466.609375 402.308594 471.042969 Z M 500 749.890625 C 672.5625 749.890625 812.5 609.953125 812.5 437.390625 C 812.5 264.796875 672.5625 124.890625 500 124.890625 C 327.40625 124.890625 187.5 264.796875 187.5 437.390625 C 187.5 609.953125 327.40625 749.890625 500 749.890625 Z M 287.765625 277.832031 L 360.777344 277.265625 C 366.652344 277.230469 372.027344 273.859375 374.652344 268.542969 L 415.632812 185.496094 C 442.148438 176.59375 470.523438 171.765625 500 171.765625 C 529.480469 171.765625 557.855469 176.589844 584.371094 185.496094 L 625.371094 268.542969 C 627.964844 273.859375 633.339844 277.230469 639.246094 277.265625 L 712.238281 277.832031 C 739.976562 314.636719 758.378906 358.859375 763.890625 406.945312 L 678.714844 476.699219 C 673.464844 481.011719 671.589844 488.199219 674.058594 494.511719 L 713.613281 595.109375 C 682.234375 637.5 638.550781 670.261719 587.890625 688.074219 L 507.933594 640.984375 C 503.027344 638.074219 496.960938 638.074219 492.058594 640.984375 L 412.089844 688.070312 C 361.433594 670.253906 317.761719 637.492188 286.382812 595.105469 L 325.933594 494.515625 C 328.402344 488.203125 326.527344 481.015625 321.277344 476.703125 L 236.109375 406.949219 C 241.617188 358.863281 260.019531 314.640625 287.765625 277.832031 Z M 930.464844 880.226562 C 928.410156 878.410156 926.269531 876.488281 924.050781 874.5 C 900.285156 853.195312 867.730469 824.023438 828.429688 816.761719 C 806.296875 812.671875 783.828125 819.914062 762.101562 826.90625 C 745.054688 832.394531 727.441406 838.066406 713.683594 836.511719 C 701.957031 835.179688 688.488281 826.738281 674.226562 817.804688 C 655.585938 806.121094 634.457031 792.882812 609.882812 791.554688 C 586.921875 790.304688 565.765625 800.230469 545.304688 809.820312 C 528.878906 817.519531 513.363281 824.792969 500.003906 824.792969 C 486.640625 824.792969 471.128906 817.519531 454.703125 809.820312 C 434.242188 800.230469 413.089844 790.304688 390.128906 791.554688 C 365.550781 792.882812 344.421875 806.121094 325.777344 817.800781 C 311.515625 826.738281 298.046875 835.179688 286.316406 836.511719 C 272.574219 838.058594 254.941406 832.394531 237.898438 826.90625 C 216.167969 819.914062 193.699219 812.675781 171.566406 816.761719 C 132.5625 823.964844 103.300781 850.101562 77.488281 873.15625 C 74.824219 875.539062 72.183594 877.894531 69.566406 880.199219 C 60.929688 887.804688 60.097656 900.972656 67.703125 909.605469 C 71.820312 914.277344 77.566406 916.667969 83.34375 916.667969 C 88.234375 916.667969 93.148438 914.953125 97.105469 911.464844 C 99.792969 909.097656 102.503906 906.679688 105.238281 904.234375 C 128.035156 883.871094 151.609375 862.820312 179.132812 857.738281 C 190.9375 855.550781 207.542969 860.90625 225.121094 866.570312 C 246.371094 873.410156 268.347656 880.484375 291.015625 877.914062 C 312.148438 875.511719 330.324219 864.121094 347.902344 853.109375 C 363.664062 843.234375 378.550781 833.90625 392.378906 833.160156 C 404.84375 832.496094 420.492188 839.800781 437.019531 847.546875 C 456.851562 856.84375 477.359375 866.457031 500.003906 866.457031 C 522.644531 866.457031 543.152344 856.84375 562.988281 847.546875 C 579.515625 839.800781 595.074219 832.496094 607.632812 833.160156 C 621.457031 833.90625 636.339844 843.234375 652.101562 853.109375 C 669.679688 864.121094 687.855469 875.511719 708.988281 877.914062 C 731.648438 880.480469 753.628906 873.410156 774.875 866.566406 C 792.460938 860.902344 809.066406 855.546875 820.863281 857.734375 C 848.644531 862.867188 876.15625 887.523438 896.242188 905.527344 C 898.539062 907.582031 900.746094 909.566406 902.871094 911.441406 C 911.492188 919.058594 924.652344 918.25 932.277344 909.632812 C 939.894531 901.011719 939.082031 887.847656 930.464844 880.226562 Z M 930.464844 880.226562"/></svg>