<svg xmlns="http://www.w3.org/2000/svg" viewBox="0 0 480 480"><path d="M77.06,272.767c18.097,12.671,43.038,8.272,55.709-9.823c12.671-18.097,8.273-43.038-9.823-55.71 c-18.096-12.671-43.038-8.272-55.709,9.823C54.566,235.153,58.964,260.095,77.06,272.767z M108.168,245.717 c5.186-7.405,12.217-12.76,20.04-15.9c1.168,3.247,1.77,6.675,1.778,10.127c-5.295,2.511-10.032,6.375-13.627,11.509 c-3.598,5.138-5.608,10.916-6.155,16.755c-3.246,1.174-6.673,1.782-10.124,1.797C100.352,261.572,102.978,253.127,108.168,245.717z M69.991,240.04c5.297-2.511,10.035-6.375,13.631-11.511c3.593-5.131,5.604-10.9,6.153-16.732 c3.246-1.174,6.674-1.781,10.125-1.795c-0.276,8.423-2.902,16.859-8.087,24.264c-5.188,7.408-12.224,12.764-20.051,15.904 C70.598,246.921,69.997,243.492,69.991,240.04z M189.141,359.896c7.857,0,15.115,1.689,21.728,3.983l21.81-31.147 c3.507-5.008,3.517-11.41,0.559-16.333l78.593-31.606c9.539-0.318,19.336-1.907,29.219-4.805 c31.185-9.143,59.62-30.261,80.068-59.465c20.448-29.203,30.567-63.146,28.493-95.577c-2.128-33.267-16.748-61.003-41.168-78.102 c-24.417-17.099-55.483-21.351-87.471-11.972c-31.185,9.143-59.62,30.261-80.068,59.465 c-20.448,29.202-30.567,63.146-28.492,95.576c0.658,10.284,2.513,20.037,5.479,29.113l-2.82,84.65 c-5.638-1.096-11.65,1.104-15.157,6.112l-40.15,57.34c-0.123,0.177-0.225,0.361-0.339,0.54c7.667-3.868,16.6-7.145,26.762-7.693 C187.161,359.923,188.156,359.896,189.141,359.896z M235.402,293.97l1.37-41.128c4.929,5.698,10.542,10.788,16.805,15.173 c6.265,4.387,12.972,7.915,20.015,10.597L235.402,293.97z M257.285,105.808c24.933-35.606,62.218-55.78,96.3-55.78 c15.637,0,30.601,4.247,43.386,13.199c19.342,13.543,30.947,35.915,32.68,62.995c1.785,27.916-7.063,57.332-24.917,82.83 c-24.516,35.011-60.974,55.098-94.587,55.759c-0.17-0.005-0.341,0.001-0.512,0.005c-16.071,0.223-31.475-4.003-44.587-13.184 c-13.101-9.173-22.335-22.188-27.625-37.35c-0.06-0.18-0.118-0.358-0.188-0.532C226.366,181.939,232.773,140.814,257.285,105.808z M446.623,422.508c-0.986-0.872-2.013-1.793-3.079-2.748c-11.408-10.226-27.033-24.229-45.898-27.715 c-10.626-1.962-21.409,1.512-31.839,4.87c-8.182,2.635-16.639,5.362-23.238,4.61c-5.629-0.639-12.095-4.69-18.94-8.979 c-8.948-5.607-19.09-11.962-30.886-12.6c-11.022-0.595-21.176,4.164-30.997,8.768c-7.884,3.695-15.331,7.186-21.745,7.186 s-13.86-3.49-21.744-7.186c-9.82-4.604-19.974-9.361-30.997-8.768c-11.796,0.638-21.938,6.992-30.886,12.599 c-6.847,4.29-13.312,8.342-18.944,8.98c-6.6,0.747-15.058-1.976-23.239-4.609c-10.432-3.359-21.216-6.832-31.839-4.87 c-18.722,3.458-32.767,16.002-45.157,27.068c-1.279,1.144-2.547,2.274-3.804,3.382c-4.144,3.65-4.544,9.97-0.894,14.114 c1.977,2.243,4.735,3.39,7.508,3.39c2.348,0,4.706-0.822,6.606-2.496c1.29-1.137,2.592-2.299,3.906-3.473 c10.941-9.772,22.255-19.878,35.467-22.317c5.667-1.049,13.636,1.521,22.075,4.239c10.2,3.284,20.748,6.679,31.627,5.445 c10.145-1.152,18.869-6.619,27.307-11.905c7.564-4.74,14.71-9.218,21.347-9.576c5.981-0.321,13.495,3.188,21.429,6.906 c9.521,4.462,19.364,9.076,30.232,9.076c10.869,0,20.713-4.614,30.233-9.076c7.932-3.718,15.404-7.225,21.429-6.906 c6.636,0.358,13.781,4.836,21.346,9.576c8.437,5.286,17.161,10.753,27.305,11.905c10.876,1.233,21.426-2.162,31.626-5.446 c8.439-2.719,16.412-5.289,22.074-4.239c13.336,2.463,26.541,14.299,36.183,22.94c1.102,0.987,2.162,1.938,3.182,2.839 c4.138,3.656,10.456,3.269,14.115-0.869C451.15,432.485,450.761,426.166,446.623,422.508z"/></svg>