<?xml version="1.0" encoding="iso-8859-1"?>
<!-- Generator: Adobe Illustrator 23.0.4, SVG Export Plug-In . SVG Version: 6.00 Build 0)  -->
<svg version="1.1" xmlns="http://www.w3.org/2000/svg" xmlns:xlink="http://www.w3.org/1999/xlink" x="0px" y="0px"
	 viewBox="0 0 480 480" style="enable-background:new 0 0 480 480;" xml:space="preserve">
<g id="Layer_4">
	<path d="M116.463,91.993l89.728,39.369l-57.134,81.59c-3.042,4.345-4.234,9.721-3.313,14.944s3.88,9.868,8.225,12.91l49.148,34.414
		c3.385,2.37,7.396,3.617,11.472,3.617c1.157,0,2.319-0.101,3.474-0.304c5.224-0.922,9.867-3.88,12.91-8.226l57.355-81.922
		l25.705,17.997c3.362,2.354,7.366,3.616,11.471,3.616h44.754c11.046,0,20-8.954,20-20s-8.954-20-20-20h-38.448l-67.651-47.365
		l-18.41-12.893l-0.042-0.026L229.357,98.27c-1.078-0.755-2.229-1.401-3.435-1.931l-93.387-40.975
		c-10.115-4.438-21.913,0.165-26.351,10.278C101.746,75.758,106.349,87.556,116.463,91.993z M135.011,381.65
		c0.478-0.15,1.103-0.428,1.814-0.783l11.427-27.982c4.469-10.102-0.097-21.913-10.198-26.382
		c-10.104-4.47-21.913,0.097-26.382,10.198l-14.307,35.361c8.308,1.101,15.979,3.57,22.952,5.815
		C125.22,379.456,131.915,381.611,135.011,381.65z M273.771,104.895c18.902,13.235,42.276,8.983,55.513-9.919
		c13.235-18.902,9.08-42.47-9.822-55.706c-18.902-13.235-42.475-9.082-55.71,9.82C250.515,67.992,254.868,91.659,273.771,104.895z
		 M459.962,170h-35.226c-8.284,0-15,6.716-15,15v5h65.226v-5C474.962,176.716,468.246,170,459.962,170z M210.281,385.09
		c-0.361-0.154-0.723-0.308-1.084-0.458c-0.258-0.107-0.517-0.212-0.775-0.316c-0.357-0.146-0.715-0.29-1.074-0.432
		c-0.263-0.103-0.525-0.203-0.789-0.304c-0.355-0.136-0.711-0.271-1.067-0.4c-0.269-0.099-0.538-0.194-0.808-0.29
		c-0.354-0.125-0.71-0.248-1.066-0.367c-0.271-0.092-0.544-0.181-0.816-0.269c-0.355-0.114-0.712-0.225-1.069-0.332
		c-0.274-0.083-0.55-0.164-0.825-0.243c-0.358-0.103-0.719-0.2-1.079-0.295c-0.275-0.072-0.551-0.145-0.827-0.213
		c-0.364-0.09-0.729-0.173-1.095-0.254c-0.275-0.062-0.55-0.123-0.826-0.179c-0.37-0.076-0.741-0.143-1.112-0.209
		c-0.274-0.049-0.549-0.1-0.825-0.143c-0.38-0.061-0.762-0.109-1.145-0.159c-0.269-0.035-0.535-0.073-0.805-0.103
		c-0.399-0.044-0.801-0.074-1.203-0.105c-0.254-0.02-0.508-0.045-0.764-0.06c-0.434-0.025-0.869-0.034-1.305-0.044
		c-0.228-0.005-0.453-0.018-0.682-0.018c-0.657-0.002-1.317,0.012-1.98,0.048c-11.796,0.638-21.938,6.992-30.886,12.599
		c-6.847,4.29-13.312,8.342-18.944,8.98c-0.398,0.045-0.805,0.076-1.217,0.097c-0.114,0.006-0.231,0.006-0.346,0.009
		c-0.257,0.009-0.511,0.021-0.771,0.021l-0.089-0.004c-0.68-0.003-1.376-0.038-2.083-0.095c-0.133-0.011-0.265-0.021-0.397-0.032
		c-0.698-0.064-1.408-0.152-2.13-0.261c-0.137-0.021-0.274-0.044-0.412-0.066c-0.45-0.072-0.903-0.152-1.36-0.239l0.004-0.01
		c-0.296-0.057-0.586-0.101-0.885-0.162c-0.093-0.02-0.188-0.042-0.281-0.062c-0.759-0.161-1.524-0.339-2.297-0.531l-0.185-0.045
		c-0.796-0.201-1.6-0.419-2.406-0.646c-0.133-0.037-0.264-0.073-0.396-0.111c-0.784-0.223-1.571-0.456-2.361-0.695
		c-0.146-0.045-0.292-0.089-0.438-0.134c-0.792-0.243-1.585-0.49-2.378-0.742c-0.139-0.044-0.276-0.088-0.414-0.132
		c-0.8-0.255-1.6-0.512-2.396-0.768c-0.569-0.184-1.14-0.367-1.711-0.55c-0.199-0.064-0.399-0.127-0.599-0.191
		c-0.41-0.131-0.82-0.261-1.23-0.39c-0.227-0.072-0.454-0.144-0.682-0.215c-0.401-0.125-0.803-0.249-1.204-0.372
		c-0.214-0.065-0.427-0.132-0.641-0.196c-0.583-0.177-1.166-0.351-1.749-0.521l-0.183-0.053c-0.557-0.16-1.114-0.317-1.672-0.471
		c-0.198-0.054-0.396-0.106-0.596-0.159c-0.413-0.111-0.826-0.22-1.24-0.325c-0.22-0.057-0.44-0.111-0.661-0.166
		c-0.418-0.104-0.836-0.202-1.255-0.299c-0.196-0.046-0.394-0.093-0.591-0.137c-0.606-0.135-1.213-0.265-1.82-0.384l-0.122-0.022
		c-0.566-0.109-1.134-0.211-1.7-0.305c-0.195-0.032-0.391-0.061-0.586-0.091c-0.42-0.065-0.841-0.127-1.262-0.182
		c-0.217-0.029-0.435-0.057-0.651-0.082c-0.426-0.051-0.852-0.094-1.277-0.134c-0.19-0.018-0.382-0.038-0.573-0.053
		c-0.609-0.049-1.218-0.089-1.827-0.112l-0.141-0.003c-0.48-0.017-0.96-0.028-1.44-0.028l-0.244,0.005
		c-0.197,0.001-0.395,0.009-0.592,0.013c-0.42,0.009-0.84,0.023-1.261,0.047c-0.217,0.013-0.434,0.026-0.65,0.042
		c-0.424,0.031-0.848,0.072-1.271,0.119c-0.192,0.021-0.386,0.039-0.578,0.063c-0.61,0.078-1.22,0.168-1.829,0.28
		c-0.315,0.059-0.619,0.14-0.932,0.203c-18.252,3.697-32.044,15.985-44.226,26.865c-1.279,1.144-2.547,2.274-3.804,3.382
		c-4.144,3.65-4.544,9.97-0.894,14.114c1.977,2.243,4.735,3.39,7.508,3.39c2.348,0,4.706-0.822,6.606-2.496
		c1.29-1.137,2.592-2.299,3.906-3.473c10.941-9.772,22.255-19.878,35.467-22.317c0.406-0.075,0.827-0.127,1.256-0.166
		c0.138-0.013,0.279-0.019,0.419-0.027c0.3-0.02,0.604-0.033,0.915-0.037l0.236-0.01l0.195,0.009
		c0.582,0.006,1.177,0.032,1.791,0.086c0.097,0.008,0.197,0.021,0.295,0.03c0.596,0.059,1.203,0.136,1.824,0.232l0.228,0.033
		c0.658,0.106,1.333,0.237,2.017,0.382c0.143,0.029,0.285,0.06,0.43,0.091c0.676,0.148,1.361,0.311,2.06,0.487
		c0.13,0.033,0.263,0.069,0.394,0.103c0.688,0.179,1.383,0.367,2.089,0.568l0.168,0.047c0.746,0.214,1.504,0.441,2.268,0.674
		c0.157,0.048,0.314,0.096,0.473,0.145c0.737,0.228,1.481,0.461,2.231,0.699c0.187,0.06,0.376,0.119,0.563,0.18
		c0.737,0.235,1.479,0.474,2.225,0.714c0.576,0.186,1.153,0.371,1.732,0.557c0.205,0.066,0.412,0.132,0.618,0.197
		c0.393,0.125,0.784,0.25,1.178,0.374c0.248,0.078,0.497,0.156,0.746,0.234c0.359,0.112,0.719,0.224,1.079,0.335
		c0.256,0.079,0.512,0.157,0.769,0.234c0.36,0.109,0.721,0.218,1.082,0.325c0.252,0.074,0.504,0.149,0.757,0.224
		c0.385,0.111,0.77,0.221,1.155,0.33c0.226,0.063,0.451,0.128,0.677,0.19c0.597,0.165,1.194,0.326,1.794,0.481l0.193,0.048
		c0.551,0.142,1.104,0.278,1.656,0.41c0.211,0.05,0.424,0.097,0.635,0.145c0.402,0.093,0.806,0.184,1.209,0.27
		c0.242,0.052,0.485,0.101,0.729,0.15c0.379,0.077,0.758,0.151,1.138,0.222c0.25,0.047,0.5,0.092,0.751,0.136
		c0.38,0.066,0.76,0.128,1.141,0.188c0.245,0.038,0.491,0.077,0.736,0.112c0.414,0.06,0.829,0.111,1.244,0.162
		c0.209,0.025,0.419,0.055,0.629,0.077c0.62,0.068,1.241,0.128,1.863,0.174l0.217,0.012c0.553,0.038,1.105,0.068,1.659,0.087
		c0.219,0.008,0.438,0.009,0.657,0.013c0.39,0.008,0.78,0.013,1.17,0.011c0.497-0.003,0.995-0.021,1.493-0.04
		c0.238-0.01,0.476-0.014,0.715-0.027c0.733-0.042,1.469-0.101,2.205-0.185c10.145-1.152,18.869-6.619,27.307-11.905
		c7.564-4.74,14.71-9.218,21.347-9.576c0.256-0.014,0.515-0.021,0.776-0.021l0.192,0.007c0.175,0.002,0.352,0.011,0.528,0.019
		c0.204,0.009,0.409,0.019,0.617,0.035c0.18,0.015,0.362,0.034,0.545,0.055c0.209,0.022,0.419,0.047,0.631,0.076
		c0.187,0.026,0.375,0.057,0.563,0.088c0.213,0.036,0.427,0.073,0.643,0.115c0.191,0.037,0.385,0.077,0.578,0.119
		c0.219,0.048,0.438,0.098,0.658,0.15c0.196,0.048,0.393,0.097,0.591,0.148c0.224,0.059,0.447,0.12,0.673,0.184
		c0.199,0.057,0.399,0.114,0.601,0.175c0.229,0.069,0.459,0.141,0.689,0.215c0.203,0.064,0.406,0.13,0.61,0.198
		c0.233,0.078,0.468,0.16,0.703,0.242c0.206,0.073,0.412,0.146,0.619,0.221c0.238,0.087,0.479,0.178,0.719,0.269
		c0.208,0.079,0.416,0.157,0.625,0.239c0.244,0.095,0.49,0.193,0.735,0.292c0.209,0.084,0.418,0.168,0.628,0.254
		c0.252,0.104,0.506,0.211,0.76,0.318c0.207,0.087,0.412,0.173,0.62,0.262c0.264,0.113,0.529,0.23,0.795,0.347
		c0.201,0.088,0.401,0.175,0.604,0.265c0.282,0.125,0.566,0.253,0.85,0.381c0.187,0.084,0.372,0.166,0.559,0.251
		c0.315,0.144,0.634,0.29,0.951,0.437c0.158,0.073,0.316,0.145,0.476,0.219c0.368,0.17,0.738,0.342,1.108,0.515
		c0.111,0.052,0.222,0.103,0.333,0.155c0.48,0.225,0.964,0.45,1.448,0.678c6.733,3.155,13.63,6.379,20.935,8.001l-20.257-29.663
		L210.281,385.09z M446.623,422.508c-0.986-0.872-2.013-1.793-3.079-2.748c-11.408-10.226-27.033-24.229-45.898-27.715
		c-0.609-0.112-1.219-0.202-1.829-0.28c-0.193-0.024-0.387-0.043-0.58-0.063c-0.424-0.047-0.849-0.088-1.272-0.119
		c-0.216-0.016-0.431-0.029-0.646-0.041c-0.423-0.023-0.846-0.039-1.269-0.048c-0.195-0.005-0.391-0.011-0.586-0.013
		c-0.568-0.003-1.137,0.004-1.705,0.024l-0.119,0.002c-0.61,0.023-1.222,0.063-1.833,0.112c-0.187,0.016-0.373,0.035-0.56,0.052
		c-0.433,0.04-0.864,0.085-1.297,0.136c-0.211,0.025-0.422,0.052-0.633,0.08c-0.428,0.056-0.855,0.118-1.283,0.185
		c-0.189,0.029-0.379,0.057-0.568,0.089c-0.581,0.096-1.161,0.199-1.741,0.312l-0.082,0.016c-0.611,0.119-1.222,0.25-1.832,0.386
		c-0.189,0.042-0.378,0.087-0.566,0.131c-0.428,0.099-0.854,0.2-1.281,0.306c-0.214,0.053-0.429,0.106-0.643,0.161
		c-0.423,0.107-0.846,0.219-1.268,0.332c-0.189,0.051-0.379,0.101-0.568,0.152c-0.588,0.161-1.175,0.326-1.762,0.496l-0.04,0.012
		c-0.607,0.176-1.214,0.357-1.82,0.541c-0.202,0.062-0.404,0.124-0.606,0.186c-0.413,0.127-0.825,0.255-1.238,0.384
		c-0.221,0.069-0.441,0.138-0.662,0.208c-0.422,0.133-0.843,0.267-1.263,0.4c-0.188,0.06-0.375,0.119-0.562,0.179
		c-0.575,0.185-1.151,0.37-1.725,0.555c-0.804,0.259-1.609,0.518-2.416,0.774c-0.129,0.041-0.257,0.082-0.386,0.123
		c-0.798,0.254-1.595,0.503-2.392,0.747c-0.142,0.043-0.284,0.087-0.427,0.13c-0.793,0.241-1.584,0.476-2.371,0.699
		c-0.127,0.036-0.253,0.071-0.379,0.106c-0.812,0.229-1.622,0.448-2.424,0.65l-0.156,0.038c-0.783,0.196-1.561,0.376-2.329,0.54
		l-0.262,0.058c-0.763,0.159-1.514,0.295-2.256,0.415c-0.132,0.021-0.264,0.043-0.395,0.063c-0.727,0.109-1.441,0.197-2.144,0.263
		c-0.128,0.012-0.255,0.021-0.382,0.031c-0.712,0.057-1.414,0.093-2.098,0.095l-0.08,0.004c-0.243,0-0.48-0.012-0.719-0.019
		c-0.138-0.005-0.278-0.004-0.415-0.011c-0.409-0.021-0.813-0.053-1.21-0.098c-5.629-0.639-12.095-4.69-18.94-8.979
		c-5.469-3.427-11.387-7.127-17.853-9.637l22.742,33.293c0.581,0.845,1.116,1.711,1.627,2.588c3.249,1.267,6.62,2.205,10.168,2.608
		c0.736,0.084,1.471,0.142,2.203,0.185c0.24,0.014,0.479,0.018,0.72,0.027c0.496,0.02,0.992,0.037,1.487,0.04
		c0.392,0.002,0.782-0.003,1.174-0.011c0.218-0.005,0.437-0.005,0.653-0.013c0.555-0.019,1.108-0.049,1.661-0.087l0.216-0.013
		c0.621-0.045,1.241-0.104,1.86-0.173c0.216-0.023,0.431-0.053,0.646-0.079c0.408-0.05,0.816-0.101,1.225-0.159
		c0.251-0.036,0.501-0.076,0.751-0.115c0.374-0.059,0.748-0.119,1.122-0.185c0.257-0.045,0.515-0.091,0.771-0.14
		c0.37-0.068,0.74-0.142,1.11-0.217c0.251-0.051,0.503-0.101,0.753-0.154c0.39-0.084,0.779-0.172,1.168-0.261
		c0.226-0.052,0.452-0.102,0.678-0.154c0.513-0.122,1.025-0.25,1.536-0.38c0.158-0.041,0.315-0.081,0.474-0.122
		c0.539-0.141,1.078-0.284,1.616-0.434c0.236-0.064,0.473-0.133,0.708-0.199c0.375-0.106,0.75-0.213,1.124-0.321
		c0.261-0.076,0.521-0.153,0.781-0.23c0.352-0.104,0.702-0.21,1.053-0.316c0.265-0.08,0.529-0.161,0.794-0.242
		c0.351-0.108,0.7-0.217,1.05-0.326c0.256-0.08,0.513-0.16,0.769-0.241c0.39-0.123,0.779-0.247,1.168-0.371
		c0.208-0.066,0.415-0.132,0.622-0.198c0.579-0.186,1.156-0.371,1.732-0.557c0.739-0.238,1.473-0.474,2.204-0.707
		c0.198-0.063,0.397-0.128,0.596-0.19c0.742-0.236,1.479-0.467,2.21-0.692c0.165-0.051,0.33-0.101,0.495-0.15
		c0.758-0.231,1.512-0.457,2.253-0.67l0.175-0.049c0.702-0.2,1.395-0.388,2.079-0.565c0.133-0.035,0.268-0.071,0.4-0.104
		c0.698-0.178,1.385-0.34,2.061-0.488c0.142-0.03,0.282-0.06,0.423-0.09c0.687-0.145,1.364-0.275,2.024-0.383l0.213-0.031
		c0.629-0.099,1.244-0.176,1.846-0.234c0.093-0.009,0.188-0.021,0.279-0.029c0.618-0.054,1.217-0.08,1.803-0.086l0.188-0.009
		l0.229,0.009c0.317,0.004,0.629,0.018,0.936,0.038c0.134,0.009,0.27,0.015,0.401,0.026c0.431,0.04,0.854,0.092,1.261,0.167
		c13.336,2.463,26.541,14.299,36.183,22.94c1.102,0.987,2.162,1.938,3.182,2.839c0.249,0.22,0.506,0.423,0.77,0.613
		c0.09,0.065,0.184,0.121,0.274,0.183c0.177,0.119,0.353,0.237,0.535,0.345c0.112,0.064,0.227,0.121,0.341,0.182
		c0.167,0.09,0.334,0.179,0.504,0.258c0.123,0.057,0.248,0.106,0.373,0.158c0.166,0.068,0.332,0.137,0.501,0.196
		c0.13,0.046,0.261,0.085,0.392,0.125c0.168,0.052,0.335,0.101,0.504,0.143c0.135,0.033,0.27,0.063,0.405,0.091
		c0.169,0.035,0.338,0.065,0.507,0.092c0.138,0.021,0.274,0.039,0.412,0.055c0.17,0.019,0.34,0.031,0.511,0.041
		c0.138,0.009,0.276,0.017,0.414,0.019c0.148,0.003,0.297-0.002,0.446-0.006c0.192-0.005,0.385-0.014,0.576-0.03
		c0.143-0.012,0.284-0.028,0.427-0.047c0.189-0.023,0.379-0.053,0.567-0.088c0.142-0.026,0.282-0.056,0.423-0.088
		c0.187-0.043,0.371-0.093,0.555-0.146c0.139-0.041,0.277-0.082,0.415-0.129c0.183-0.062,0.363-0.133,0.543-0.206
		c0.133-0.054,0.267-0.106,0.397-0.167c0.18-0.082,0.355-0.175,0.53-0.269c0.126-0.066,0.252-0.13,0.375-0.202
		c0.179-0.105,0.352-0.223,0.524-0.34c0.111-0.076,0.227-0.146,0.336-0.228c0.186-0.137,0.363-0.288,0.54-0.439l0.269-0.225
		c0.26-0.237,0.511-0.489,0.749-0.759C451.15,432.485,450.761,426.166,446.623,422.508z M312.025,427.514l-18.73-27.42
		l-12.831-18.784l-0.003-0.004l-11.794-17.265l-22.198-32.497c-1.353-1.961-3.045-3.666-4.996-5.032l-99.001-69.321
		c-9.049-6.337-21.519-4.136-27.854,4.911c-6.336,9.048-4.137,21.52,4.911,27.854l96.05,67.255l8.203,12.012l18.144,26.569
		l12.125,17.755l11.666,17.083l13.374,19.585c3.881,5.629,10.13,8.652,16.485,8.652c3.913,0,7.867-1.146,11.333-3.535
		c7.137-4.918,10.06-13.642,7.97-21.567C314.304,431.59,313.374,429.473,312.025,427.514z"/>
</g>
<g id="Layer_3">
</g>
</svg>
