<svg xmlns="http://www.w3.org/2000/svg" viewBox="0 0 480 480"><path d="M240,360c82.83,0,150-67.17,150-150c0-82.845-67.17-150-150-150c-82.845,0-150,67.155-150,150 C90,292.83,157.155,360,240,360z M112.5,210c0-3.789,0.166-7.541,0.492-11.247h58.864c-2.363-26.817-12.993-51.291-29.388-70.789 c4.852-5.759,10.203-11.084,15.986-15.907c20.376,23.617,33.449,53.661,35.915,86.696h34.38V82.992 c3.707-0.326,7.46-0.492,11.25-0.492c3.791,0,7.543,0.166,11.251,0.492v115.761h34.38c2.466-33.035,15.539-63.079,35.915-86.696 c5.783,4.824,11.135,10.149,15.987,15.908c-16.388,19.497-27.018,43.971-29.38,70.788h58.855c0.325,3.706,0.491,7.458,0.491,11.247 c0,3.792-0.166,7.546-0.492,11.255h-58.854c2.362,26.815,12.99,51.287,29.377,70.783c-4.852,5.758-10.202,11.082-15.984,15.904 c-20.376-23.616-33.449-53.66-35.915-86.695h-34.38v115.761c-3.708,0.326-7.46,0.492-11.251,0.492c-3.79,0-7.543-0.166-11.25-0.492 V221.247h-34.38c-2.466,33.035-15.539,63.079-35.915,86.695c-5.782-4.822-11.133-10.146-15.983-15.903 c16.394-19.496,27.021-43.969,29.385-70.784h-58.864C112.667,217.546,112.5,213.792,112.5,210z M446.623,422.508 c-0.986-0.872-2.014-1.793-3.079-2.748c-11.408-10.226-27.033-24.229-45.897-27.715c-10.626-1.962-21.41,1.513-31.839,4.87 c-8.182,2.635-16.638,5.356-23.239,4.61c-5.629-0.639-12.095-4.69-18.94-8.979c-8.948-5.607-19.09-11.962-30.886-12.6 c-11.023-0.599-21.176,4.164-30.997,8.768c-7.884,3.695-15.331,7.186-21.745,7.186s-13.86-3.49-21.744-7.186 c-9.82-4.604-19.973-9.367-30.996-8.768c-11.797,0.638-21.939,6.992-30.888,12.6c-6.846,4.289-13.312,8.341-18.942,8.979 c-6.597,0.743-15.059-1.976-23.24-4.61c-10.431-3.357-21.214-6.831-31.839-4.869c-18.722,3.458-32.767,16.002-45.158,27.069 c-1.279,1.143-2.546,2.274-3.803,3.381c-4.144,3.65-4.544,9.97-0.894,14.114c1.977,2.243,4.735,3.39,7.508,3.39 c2.348,0,4.706-0.822,6.606-2.496c1.29-1.137,2.591-2.298,3.904-3.472c10.942-9.773,22.257-19.879,35.469-22.318 c5.666-1.05,13.636,1.521,22.075,4.239c10.2,3.284,20.747,6.68,31.628,5.445c10.144-1.152,18.868-6.618,27.305-11.905 c7.565-4.74,14.711-9.218,21.349-9.576c5.987-0.319,13.495,3.188,21.428,6.906c9.52,4.462,19.363,9.076,30.232,9.076 s20.713-4.614,30.233-9.076c7.932-3.718,15.417-7.225,21.429-6.906c6.636,0.358,13.781,4.836,21.346,9.576 c8.437,5.286,17.161,10.753,27.305,11.905c10.881,1.233,21.428-2.161,31.626-5.446c8.441-2.718,16.415-5.289,22.075-4.239 c13.335,2.463,26.54,14.299,36.182,22.94c1.101,0.986,2.162,1.938,3.182,2.839c4.137,3.656,10.456,3.268,14.115-0.869 C451.15,432.485,450.76,426.166,446.623,422.508z"/></svg>