<svg xmlns="http://www.w3.org/2000/svg" width="1000pt" height="1000pt" viewBox="0 0 1000 1000"><path d="M 500 750 C 672.5625 750 812.5 610.0625 812.5 437.5 C 812.5 264.90625 672.5625 125 500 125 C 327.40625 125 187.5 264.90625 187.5 437.5 C 187.5 610.0625 327.40625 750 500 750 Z M 589.644531 552.589844 L 589.308594 552.085938 C 589.164062 551.871094 589.011719 551.648438 588.871094 551.417969 C 574.839844 529.449219 557.621094 509.792969 538.152344 492.511719 C 536.84375 491.375 535.546875 490.222656 534.246094 489.074219 C 530.835938 486.046875 527.421875 483.015625 523.777344 480.230469 C 521.253906 478.261719 518.574219 476.476562 515.890625 474.695312 L 515.886719 474.695312 C 514.789062 473.960938 513.683594 473.226562 512.589844 472.480469 C 508.089844 469.355469 503.5 466.386719 498.777344 463.542969 C 495.667969 465.246094 492.425781 466.675781 489.183594 468.109375 L 489.179688 468.109375 C 487.3125 468.933594 485.441406 469.757812 483.589844 470.636719 C 482.363281 471.222656 481.167969 471.882812 479.972656 472.539062 L 479.96875 472.539062 C 478.546875 473.320312 477.132812 474.101562 475.65625 474.761719 C 474.941406 475.078125 474.195312 475.332031 473.453125 475.585938 C 472.800781 475.808594 472.15625 476.03125 471.527344 476.292969 C 462.402344 480.230469 453.121094 483.542969 443.683594 486.605469 C 443.148438 486.792969 442.613281 486.988281 442.078125 487.179688 L 442.074219 487.183594 L 442.070312 487.183594 C 441.167969 487.511719 440.261719 487.839844 439.339844 488.136719 C 438.996094 488.257812 438.628906 488.328125 438.265625 488.394531 L 438 488.445312 L 437.683594 488.507812 C 407.464844 497.695312 376.121094 502.976562 344.40625 502.976562 C 344.152344 502.976562 343.90625 502.960938 343.664062 502.945312 C 343.429688 502.929688 343.199219 502.914062 342.96875 502.914062 C 334.8125 502.820312 326.8125 502.320312 318.8125 501.695312 L 318.8125 501.664062 C 318.421875 501.644531 318.039062 501.589844 317.65625 501.539062 C 317.269531 501.484375 316.890625 501.425781 316.496094 501.410156 C 309.433594 500.757812 302.433594 499.816406 295.464844 498.722656 C 294.558594 498.589844 293.648438 498.492188 292.738281 498.390625 C 291.511719 498.261719 290.292969 498.128906 289.089844 497.914062 L 288.882812 497.878906 L 288.648438 497.835938 L 288.378906 497.792969 L 288.375 497.792969 C 288.097656 497.75 287.828125 497.710938 287.558594 497.660156 C 286.300781 497.449219 285.085938 497.148438 283.871094 496.84375 L 283.867188 496.84375 C 283.09375 496.648438 282.316406 496.453125 281.523438 496.285156 C 276.023438 495.191406 270.554688 494.003906 265.117188 492.597656 C 264.429688 492.429688 263.734375 492.285156 263.035156 492.140625 L 263.03125 492.136719 C 262.015625 491.925781 260.992188 491.714844 259.992188 491.4375 C 259.609375 491.335938 259.222656 491.242188 258.832031 491.152344 C 258.269531 491.019531 257.703125 490.886719 257.148438 490.71875 C 254.761719 490.070312 252.441406 489.269531 250.117188 488.46875 C 248.757812 488 247.394531 487.535156 246.023438 487.09375 C 244.957031 486.746094 243.894531 486.410156 242.824219 486.070312 C 241.402344 485.617188 239.984375 485.164062 238.570312 484.699219 C 235.808594 469.371094 234.367188 453.597656 234.367188 437.488281 C 234.367188 436.730469 234.371094 435.972656 234.378906 435.210938 C 239.886719 437.582031 245.503906 439.785156 251.195312 441.816406 C 254.167969 442.882812 257.195312 443.816406 260.226562 444.753906 C 266.820312 446.882812 273.414062 448.910156 280.164062 450.535156 C 282.292969 451.039062 284.449219 451.421875 286.597656 451.804688 C 287.917969 452.039062 289.234375 452.273438 290.542969 452.535156 C 291.738281 452.765625 292.9375 453.007812 294.136719 453.242188 C 299.363281 454.277344 304.578125 455.3125 309.917969 455.976562 C 308.511719 443.628906 307.574219 431.164062 307.574219 418.441406 C 307.574219 331.359375 342.539062 250.273438 401.527344 190.78125 C 431.914062 178.609375 465.050781 171.898438 499.730469 171.863281 C 409.386719 220.296875 352.214844 314.664062 352.214844 418.417969 C 352.214844 431.761719 353.464844 444.761719 355.308594 457.605469 C 355.589844 457.589844 355.863281 457.566406 356.136719 457.542969 C 356.410156 457.519531 356.683594 457.496094 356.964844 457.484375 C 382.960938 456.296875 408.558594 451.265625 433.214844 443.042969 C 434.605469 442.574219 435.996094 442.113281 437.386719 441.652344 L 437.390625 441.652344 C 442 440.128906 446.601562 438.605469 451.089844 436.734375 C 453.855469 435.597656 456.550781 434.273438 459.25 432.945312 L 459.253906 432.945312 C 460.640625 432.261719 462.03125 431.578125 463.433594 430.921875 C 468.371094 428.578125 473.214844 426.078125 478.027344 423.417969 C 478.125 419.929688 478.5 416.488281 478.871094 413.042969 L 478.871094 413.035156 C 479.101562 410.929688 479.332031 408.824219 479.496094 406.703125 C 479.589844 405.410156 479.621094 404.097656 479.652344 402.785156 L 479.652344 402.78125 C 479.691406 401.109375 479.726562 399.441406 479.902344 397.792969 C 479.988281 396.992188 480.136719 396.203125 480.289062 395.414062 C 480.414062 394.757812 480.535156 394.101562 480.621094 393.449219 C 481.808594 383.574219 483.558594 373.855469 485.621094 364.167969 C 485.714844 363.652344 485.804688 363.136719 485.894531 362.617188 C 486.066406 361.621094 486.238281 360.621094 486.460938 359.636719 C 486.523438 359.371094 486.609375 359.097656 486.699219 358.824219 C 486.785156 358.546875 486.867188 358.273438 486.929688 358.011719 C 494.117188 327.230469 505.179688 297.449219 521.054688 269.980469 L 521.261719 269.667969 L 521.390625 269.484375 C 521.570312 269.222656 521.746094 268.964844 521.902344 268.699219 C 526.023438 261.730469 530.460938 255.042969 534.992188 248.480469 C 535.242188 248.109375 535.507812 247.765625 535.777344 247.421875 C 535.988281 247.15625 536.195312 246.890625 536.402344 246.601562 C 540.464844 240.824219 544.777344 235.261719 549.210938 229.757812 C 549.792969 229.027344 550.347656 228.273438 550.898438 227.523438 C 551.621094 226.539062 552.339844 225.554688 553.117188 224.632812 C 553.304688 224.417969 553.476562 224.191406 553.648438 223.972656 C 553.796875 223.777344 553.945312 223.589844 554.085938 223.414062 C 554.824219 222.539062 555.609375 221.722656 556.390625 220.910156 C 557.03125 220.238281 557.667969 219.574219 558.273438 218.882812 C 561.992188 214.632812 565.773438 210.539062 569.679688 206.511719 C 570.214844 205.960938 570.730469 205.394531 571.242188 204.820312 L 571.246094 204.820312 C 571.910156 204.085938 572.574219 203.351562 573.273438 202.664062 C 573.929688 201.976562 574.621094 201.257812 575.308594 200.570312 C 577.042969 198.878906 578.84375 197.300781 580.644531 195.726562 C 581.769531 194.746094 582.890625 193.765625 583.992188 192.757812 C 584.941406 191.910156 585.878906 191.050781 586.820312 190.195312 L 586.828125 190.191406 C 587.820312 189.285156 588.808594 188.382812 589.808594 187.488281 C 605.519531 193.148438 620.546875 200.253906 634.734375 208.636719 C 629.929688 212.210938 625.253906 215.957031 620.652344 219.839844 C 618.578125 221.617188 616.574219 223.464844 614.558594 225.324219 L 613.589844 226.214844 C 608.496094 230.839844 603.371094 235.527344 598.589844 240.589844 C 597.132812 242.144531 595.753906 243.777344 594.371094 245.417969 C 593.476562 246.480469 592.578125 247.542969 591.652344 248.585938 C 590.847656 249.515625 590.039062 250.445312 589.230469 251.371094 C 585.738281 255.363281 582.242188 259.363281 578.996094 263.652344 C 590.40625 268.558594 601.6875 274.023438 612.683594 280.371094 C 688.121094 323.921875 740.875 394.753906 762.890625 475.601562 C 757.992188 509.542969 746.652344 541.425781 730.160156 569.972656 C 733.347656 467.550781 680.230469 370.902344 590.386719 319.015625 C 578.855469 312.390625 566.949219 306.953125 554.917969 302.109375 C 554.820312 302.308594 554.730469 302.511719 554.640625 302.710938 C 554.503906 303.011719 554.367188 303.308594 554.199219 303.609375 C 542.199219 326.738281 533.761719 351.457031 528.574219 376.921875 C 528.308594 378.238281 528.035156 379.554688 527.761719 380.867188 C 526.753906 385.726562 525.742188 390.574219 525.105469 395.515625 C 524.710938 398.507812 524.511719 401.527344 524.308594 404.535156 C 524.207031 406.054688 524.105469 407.570312 523.980469 409.078125 C 523.542969 414.546875 523.292969 420.015625 523.167969 425.519531 C 526.144531 427.339844 528.976562 429.410156 531.804688 431.476562 C 533.492188 432.707031 535.171875 433.933594 536.886719 435.109375 C 537.972656 435.863281 539.109375 436.550781 540.246094 437.246094 C 541.664062 438.105469 543.082031 438.964844 544.417969 439.953125 C 545.042969 440.398438 545.628906 440.898438 546.222656 441.402344 L 546.222656 441.40625 C 546.757812 441.863281 547.292969 442.320312 547.855469 442.734375 C 555.792969 448.675781 563.292969 455.046875 570.636719 461.671875 C 570.933594 461.921875 571.230469 462.171875 571.53125 462.417969 L 571.535156 462.421875 C 572.429688 463.164062 573.324219 463.910156 574.167969 464.703125 C 574.371094 464.890625 574.566406 465.09375 574.761719 465.296875 C 574.964844 465.507812 575.167969 465.71875 575.386719 465.921875 C 598.417969 487.546875 618.636719 512.015625 634.511719 539.488281 C 634.683594 539.757812 634.824219 540.050781 634.960938 540.339844 L 634.960938 540.34375 L 635.230469 540.894531 C 639.230469 547.925781 642.761719 555.113281 646.167969 562.300781 C 646.359375 562.699219 646.523438 563.097656 646.679688 563.488281 C 646.808594 563.804688 646.933594 564.117188 647.074219 564.421875 C 650.074219 570.890625 652.730469 577.390625 655.292969 583.984375 C 655.632812 584.859375 656.011719 585.722656 656.386719 586.578125 C 656.871094 587.691406 657.355469 588.796875 657.761719 589.921875 C 657.855469 590.171875 657.957031 590.414062 658.058594 590.660156 C 658.160156 590.902344 658.261719 591.140625 658.355469 591.394531 C 658.726562 592.429688 659.027344 593.484375 659.335938 594.539062 C 659.601562 595.453125 659.863281 596.367188 660.167969 597.269531 C 661.949219 602.582031 663.667969 607.925781 665.199219 613.363281 C 665.40625 614.160156 665.660156 614.929688 665.914062 615.703125 C 666.199219 616.574219 666.484375 617.441406 666.699219 618.332031 C 666.980469 619.269531 667.261719 620.238281 667.511719 621.175781 C 668.144531 623.640625 668.628906 626.113281 669.117188 628.59375 C 669.378906 629.925781 669.636719 631.253906 669.921875 632.582031 C 670.167969 633.746094 670.425781 634.90625 670.679688 636.066406 C 670.980469 637.417969 671.277344 638.769531 671.566406 640.121094 C 658.933594 650.835938 645.292969 660.390625 630.804688 668.621094 C 630.121094 662.671875 629.230469 656.714844 628.144531 650.765625 C 627.550781 647.671875 626.863281 644.609375 626.175781 641.546875 C 624.707031 634.765625 623.207031 628.015625 621.175781 621.328125 C 620.535156 619.117188 619.746094 616.933594 618.957031 614.757812 C 618.554688 613.644531 618.152344 612.535156 617.773438 611.421875 C 617.449219 610.46875 617.128906 609.515625 616.804688 608.566406 C 615.023438 603.277344 613.253906 598.023438 611.054688 592.859375 C 601.085938 600.234375 590.742188 607.296875 579.710938 613.671875 C 504.382812 657.15625 416.773438 667.445312 335.84375 646.191406 C 309.476562 625.402344 287.125 599.738281 270.171875 570.570312 C 357.273438 624.523438 467.523438 626.863281 557.367188 575.003906 C 568.929688 568.316406 579.554688 560.722656 589.742188 552.753906 Z M 930.433594 880.332031 C 928.378906 878.515625 926.234375 876.59375 924.011719 874.601562 C 900.242188 853.300781 867.695312 824.128906 828.394531 816.867188 C 806.261719 812.785156 783.792969 820.019531 762.066406 827.015625 C 745.019531 832.503906 727.398438 838.171875 713.648438 836.617188 C 701.921875 835.289062 688.449219 826.847656 674.191406 817.914062 C 655.550781 806.230469 634.421875 792.992188 609.847656 791.664062 C 586.878906 790.414062 565.730469 800.335938 545.269531 809.929688 C 528.84375 817.628906 513.332031 824.898438 499.964844 824.898438 C 486.605469 824.898438 471.089844 817.628906 454.667969 809.929688 C 434.207031 800.335938 413.050781 790.414062 390.089844 791.664062 C 365.515625 792.992188 344.386719 806.230469 325.742188 817.910156 C 311.480469 826.847656 298.011719 835.289062 286.277344 836.617188 C 272.535156 838.183594 254.90625 832.503906 237.863281 827.015625 C 216.128906 820.019531 193.664062 812.789062 171.53125 816.871094 C 132.523438 824.074219 103.261719 850.210938 77.449219 873.269531 C 74.785156 875.648438 72.148438 878.003906 69.53125 880.308594 C 60.898438 887.914062 60.066406 901.078125 67.667969 909.710938 C 75.273438 918.347656 88.441406 919.179688 97.074219 911.574219 C 99.757812 909.207031 102.464844 906.789062 105.203125 904.347656 C 127.996094 883.984375 151.570312 862.925781 179.097656 857.847656 C 190.902344 855.65625 207.503906 861.015625 225.085938 866.675781 C 246.335938 873.519531 268.308594 880.585938 290.980469 878.019531 C 312.113281 875.621094 330.289062 864.230469 347.867188 853.21875 C 363.628906 843.34375 378.515625 834.015625 392.339844 833.269531 C 404.800781 832.589844 420.457031 839.910156 436.984375 847.65625 C 456.816406 856.953125 477.324219 866.566406 499.964844 866.566406 C 522.609375 866.566406 543.117188 856.953125 562.953125 847.65625 C 579.476562 839.910156 595.054688 832.59375 607.597656 833.269531 C 621.421875 834.015625 636.304688 843.34375 652.066406 853.21875 C 669.644531 864.230469 687.820312 875.621094 708.953125 878.019531 C 731.617188 880.597656 753.589844 873.515625 774.839844 866.675781 C 792.421875 861.011719 809.039062 855.652344 820.828125 857.84375 C 848.609375 862.976562 876.117188 887.628906 896.203125 905.632812 C 898.5 907.6875 900.710938 909.671875 902.839844 911.550781 C 906.800781 915.054688 911.726562 916.777344 916.628906 916.777344 C 922.394531 916.777344 928.128906 914.398438 932.246094 909.742188 C 939.863281 901.117188 939.054688 887.953125 930.433594 880.332031 Z M 930.433594 880.332031"/></svg>