<?xml version="1.0" encoding="iso-8859-1"?>
<!-- Generator: Adobe Illustrator 23.0.4, SVG Export Plug-In . SVG Version: 6.00 Build 0)  -->
<svg version="1.1" xmlns="http://www.w3.org/2000/svg" xmlns:xlink="http://www.w3.org/1999/xlink" x="0px" y="0px"
	 viewBox="0 0 480 480" style="enable-background:new 0 0 480 480;" xml:space="preserve">
<g id="Workspace">
	<path d="M193.108,226.1l42.007,30.508c2.908,2.127,6.862,2.127,9.771,0l41.99-30.508c2.924-2.127,4.137-5.866,3.023-9.289
		l-16.034-49.384c-1.113-3.424-4.304-5.733-7.894-5.733h-51.926c-3.606,0-6.797,2.31-7.91,5.733l-16.034,49.384
		C188.988,220.233,190.201,223.973,193.108,226.1z M240,359.948c82.83,0,150-67.17,150-150c0-82.846-67.17-150-150-150
		c-82.845,0-150,67.154-150,150C90,292.778,157.155,359.948,240,359.948z M138.127,133.359l35.047-0.272
		c2.82-0.016,5.4-1.635,6.66-4.186l19.669-39.862c12.729-4.274,26.348-6.591,40.497-6.591c14.15,0,27.77,2.316,40.498,6.591
		l19.681,39.862c1.245,2.551,3.825,4.17,6.66,4.186l35.035,0.272c13.315,17.667,22.148,38.894,24.794,61.974l-40.884,33.483
		c-2.521,2.07-3.42,5.52-2.235,8.55l18.986,48.286c-15.063,20.348-36.03,36.074-60.348,44.624l-38.379-22.604
		c-2.355-1.396-5.266-1.396-7.62,0l-38.385,22.601c-24.314-8.551-45.278-24.276-60.339-44.622l18.984-48.284
		c1.186-3.03,0.285-6.479-2.235-8.55l-40.881-33.481C115.977,172.254,124.81,151.027,138.127,133.359z M446.623,422.508
		c-0.986-0.872-2.014-1.793-3.079-2.748c-11.408-10.226-27.033-24.229-45.897-27.715c-10.625-1.962-21.409,1.513-31.839,4.87
		c-8.182,2.635-16.636,5.356-23.239,4.61c-5.629-0.639-12.095-4.69-18.94-8.979c-8.948-5.607-19.09-11.962-30.886-12.6
		c-11.02-0.599-21.176,4.164-30.997,8.768c-7.884,3.695-15.331,7.186-21.745,7.186s-13.86-3.49-21.744-7.186
		c-9.82-4.604-19.974-9.367-30.996-8.768c-11.796,0.638-21.938,6.992-30.887,12.599c-6.846,4.29-13.312,8.342-18.943,8.98
		c-6.596,0.743-15.059-1.976-23.24-4.61c-10.431-3.357-21.216-6.831-31.839-4.869c-18.722,3.458-32.767,16.002-45.158,27.069
		c-1.279,1.143-2.546,2.274-3.803,3.381c-4.144,3.65-4.544,9.97-0.894,14.114c1.977,2.243,4.735,3.39,7.508,3.39
		c2.348,0,4.706-0.822,6.606-2.496c1.29-1.137,2.591-2.298,3.904-3.472c10.942-9.773,22.257-19.879,35.469-22.318
		c5.666-1.05,13.636,1.521,22.075,4.239c10.199,3.284,20.748,6.68,31.628,5.445c10.144-1.152,18.868-6.619,27.306-11.905
		c7.565-4.74,14.711-9.218,21.348-9.576c5.984-0.319,13.495,3.188,21.428,6.906c9.52,4.462,19.363,9.076,30.232,9.076
		s20.713-4.614,30.233-9.076c7.933-3.718,15.401-7.225,21.429-6.906c6.636,0.358,13.781,4.836,21.346,9.576
		c8.437,5.286,17.161,10.753,27.305,11.905c10.878,1.233,21.428-2.161,31.626-5.446c8.441-2.718,16.411-5.289,22.075-4.239
		c13.335,2.463,26.54,14.299,36.182,22.94c1.101,0.986,2.162,1.938,3.182,2.839c4.137,3.656,10.455,3.268,14.115-0.869
		C451.15,432.485,450.76,426.166,446.623,422.508z"/>
</g>
<g id="Guide">
</g>
</svg>
