<svg xmlns="http://www.w3.org/2000/svg" width="1000pt" height="1000pt" viewBox="0 0 1000 1000"><path d="M 791.878906 286.953125 C 830.386719 289.988281 862.285156 258.09375 859.25 219.585938 C 856.863281 189.289062 832.320312 164.746094 802.023438 162.355469 C 763.511719 159.316406 731.613281 191.214844 734.648438 229.726562 C 737.039062 260.023438 761.585938 284.566406 791.878906 286.953125 Z M 439.878906 406.898438 C 479.386719 435.113281 528.527344 426.394531 556.277344 386.765625 C 582.742188 348.972656 573.90625 297.683594 536.253906 271.015625 C 496.800781 243.074219 447.429688 251.640625 419.757812 291.167969 C 393.273438 328.976562 402.308594 380.070312 439.878906 406.898438 Z M 246.550781 423.664062 L 395.570312 528.007812 L 395.476562 750.40625 C 395.472656 761.460938 399.859375 772.0625 407.671875 779.878906 C 408.757812 780.960938 409.910156 781.964844 411.097656 782.917969 C 431.59375 776.125 446.890625 765.878906 465.238281 753.582031 C 497.171875 732.175781 536.003906 706.167969 603.804688 697.300781 L 603.808594 538.226562 L 704.136719 528.347656 C 710.503906 527.722656 716.636719 525.636719 722.070312 522.257812 L 833.308594 453.027344 C 852.496094 441.089844 859.550781 416.003906 848.292969 396.410156 C 836.480469 375.839844 810.085938 369.332031 790.128906 381.75 L 686.292969 446.371094 L 560.109375 458.792969 L 442.007812 458.792969 L 312.5 368.109375 L 312.5 246.117188 C 312.5 223.523438 294.929688 204.28125 272.351562 203.476562 C 248.648438 202.636719 229.167969 221.601562 229.167969 245.117188 L 229.167969 393.710938 C 229.167969 394.617188 229.21875 395.527344 229.371094 396.421875 C 231.203125 407.34375 237.324219 417.203125 246.550781 423.664062 Z M 937.378906 823.601562 C 936.074219 812.734375 926.148438 804.878906 915.21875 805.410156 C 852.183594 808.46875 820.144531 791.367188 786.234375 773.261719 C 750.488281 754.179688 709.964844 732.550781 635.109375 736.304688 C 623.878906 736.867188 613.488281 737.929688 603.800781 739.390625 C 548.917969 747.671875 517.042969 769.015625 488.433594 788.195312 C 486.484375 789.503906 484.539062 790.804688 482.589844 792.101562 C 452.605469 812.0625 422.308594 830.117188 362.800781 833.105469 C 299.429688 836.277344 267.316406 819.136719 233.3125 800.984375 C 197.699219 781.976562 157.355469 760.4375 83.046875 763.984375 C 71.914062 764.515625 62.582031 773.367188 62.46875 784.511719 C 62.347656 796.582031 72.390625 806.089844 84.269531 805.492188 C 147.640625 802.320312 179.757812 819.460938 213.757812 837.613281 C 249.503906 856.695312 290.023438 878.324219 364.878906 874.574219 C 439.738281 870.820312 477.890625 845.246094 511.550781 822.683594 C 528.53125 811.300781 545.015625 800.253906 566.207031 791.914062 C 571.695312 789.753906 577.515625 787.78125 583.730469 786.023438 C 598.746094 781.777344 616.132812 778.828125 637.183594 777.773438 C 700.558594 774.597656 732.675781 791.738281 766.679688 809.890625 C 802.429688 828.976562 842.945312 850.605469 917.804688 846.851562 C 929.75 846.253906 938.828125 835.675781 937.378906 823.601562 Z M 937.378906 823.601562"/></svg>