<svg xmlns="http://www.w3.org/2000/svg" viewBox="0 0 480 480"><path d="M380.102,137.738c18.484,1.457,33.795-13.853,32.338-32.337c-1.146-14.542-12.927-26.323-27.468-27.471 c-18.486-1.458-33.798,13.854-32.34,32.339C353.779,124.812,365.561,136.592,380.102,137.738z M211.141,195.311 c18.965,13.544,42.553,9.359,55.872-9.663c12.704-18.142,8.462-42.759-9.612-55.56c-18.937-13.413-42.634-9.3-55.918,9.672 C188.772,157.909,193.109,182.433,211.141,195.311z M118.345,203.359l71.528,50.085l-0.044,106.751 c-0.002,5.306,2.104,10.395,5.854,14.146c0.521,0.521,1.073,1.003,1.644,1.46c9.838-3.261,17.181-8.18,25.987-14.082 c15.329-10.275,33.967-22.758,66.513-27.014l0.002-76.357l48.156-4.741c3.056-0.301,6.001-1.301,8.608-2.923l53.396-33.23 c9.209-5.73,12.595-17.772,7.192-27.178c-5.67-9.873-18.34-12.997-27.92-7.036l-49.841,31.018l-60.568,5.963h-56.689L150,176.693 v-58.557c0-10.845-8.434-20.081-19.271-20.467C119.351,97.266,110,106.369,110,117.657v71.325c0,0.435,0.025,0.871,0.098,1.3 C110.977,195.525,113.916,200.258,118.345,203.359z M449.942,395.328c-0.626-5.216-5.39-8.987-10.637-8.732 c-30.257,1.469-45.635-6.74-61.912-15.43c-17.159-9.159-36.609-19.541-72.541-17.74c-5.391,0.271-10.378,0.78-15.027,1.481 c-26.345,3.975-41.644,14.22-55.376,23.426c-0.937,0.628-1.87,1.253-2.805,1.875c-14.393,9.582-28.936,18.249-57.5,19.682 c-30.418,1.524-45.833-6.705-62.154-15.418c-17.094-9.124-36.459-19.462-72.128-17.76c-5.344,0.255-9.822,4.504-9.877,9.854 c-0.059,5.793,4.763,10.357,10.464,10.071c30.418-1.524,45.834,6.705,62.154,15.418c17.159,9.159,36.608,19.541,72.538,17.74 c35.933-1.802,54.247-14.077,70.403-24.907c8.151-5.464,16.063-10.766,26.235-14.77c2.635-1.037,5.429-1.983,8.411-2.826 c7.209-2.038,15.553-3.454,25.658-3.961c30.42-1.525,45.837,6.704,62.159,15.417c17.159,9.16,36.607,19.542,72.54,17.74 C446.28,406.201,450.638,401.125,449.942,395.328z"/></svg>