<?xml version="1.0" encoding="iso-8859-1"?>
<!-- Generator: Adobe Illustrator 23.0.4, SVG Export Plug-In . SVG Version: 6.00 Build 0)  -->
<svg version="1.1" xmlns="http://www.w3.org/2000/svg" xmlns:xlink="http://www.w3.org/1999/xlink" x="0px" y="0px"
	 viewBox="0 0 480 480" style="enable-background:new 0 0 480 480;" xml:space="preserve">
<g id="Workspace">
</g>
<g id="Layer_3">
	<path d="M439.551,386.583c-30.419,1.525-45.835-6.704-62.157-15.417c-17.159-9.159-36.609-19.542-72.541-17.74
		c-35.933,1.802-54.246,14.077-70.403,24.906c-15.369,10.302-29.886,20.032-60.305,21.557c-30.418,1.525-45.833-6.704-62.154-15.417
		c-17.159-9.159-36.607-19.542-72.539-17.74c-5.496,0.275-9.729,4.955-9.453,10.451c0.275,5.497,4.955,9.729,10.451,9.454
		c30.418-1.525,45.834,6.704,62.155,15.417c17.159,9.16,36.607,19.542,72.538,17.741c35.932-1.802,54.246-14.077,70.402-24.907
		c15.369-10.302,29.886-20.031,60.306-21.557c30.419-1.525,45.836,6.704,62.158,15.417c17.159,9.159,36.607,19.542,72.54,17.74
		c5.496-0.275,9.729-4.955,9.454-10.451C449.726,390.54,445.047,386.308,439.551,386.583z M47.487,346.526
		c34.32,0,55.104,10.294,71.674,19.104l0.138,0.074c0.71,0.377,1.414,0.753,2.109,1.124c0.094,0.05,0.186,0.099,0.279,0.148
		c0.65,0.348,1.295,0.691,1.935,1.031l0.369,0.196c0.788,0.418,1.569,0.83,2.346,1.234l0.096,0.051
		c0.809,0.421,1.612,0.835,2.414,1.239l0.02,0.01c3.247,1.641,6.461,3.139,9.83,4.433l0.008,0.003
		c0.832,0.319,1.673,0.626,2.525,0.919l0.033,0.012l0.033,0.011c0.401,0.138,0.807,0.272,1.214,0.403l0.142,0.047
		c0.403,0.129,0.811,0.255,1.22,0.378l0.157,0.048c0.404,0.121,0.814,0.238,1.226,0.353l0.177,0.05
		c0.399,0.11,0.803,0.216,1.209,0.32l0.229,0.059c0.397,0.101,0.8,0.197,1.205,0.292l0.253,0.06
		c0.397,0.092,0.801,0.179,1.206,0.264c0.096,0.021,0.191,0.042,0.288,0.062c0.396,0.082,0.799,0.159,1.203,0.235
		c0.108,0.021,0.214,0.042,0.323,0.062c0.392,0.072,0.79,0.14,1.189,0.206c0.126,0.021,0.25,0.044,0.378,0.064
		c0.387,0.062,0.78,0.12,1.175,0.178c0.144,0.021,0.283,0.043,0.428,0.063c0.387,0.054,0.781,0.103,1.176,0.151
		c0.156,0.02,0.311,0.041,0.468,0.06c0.389,0.046,0.784,0.086,1.181,0.127c0.169,0.018,0.335,0.037,0.506,0.054
		c0.395,0.038,0.797,0.071,1.199,0.104c0.178,0.015,0.353,0.031,0.532,0.045c0.417,0.032,0.843,0.058,1.268,0.084
		c0.171,0.011,0.337,0.024,0.51,0.033c0.447,0.025,0.904,0.045,1.361,0.064c0.157,0.006,0.311,0.016,0.469,0.021
		c0.552,0.02,1.113,0.034,1.681,0.046l0.198,0.005c0.642,0.012,1.291,0.019,1.951,0.019c1.971,0,4.033-0.054,6.128-0.158
		c1.062-0.054,2.091-0.121,3.104-0.196c0.228-0.017,0.455-0.033,0.681-0.052c1-0.079,1.982-0.165,2.935-0.265l0.101-0.011
		c0.931-0.099,1.834-0.209,2.723-0.326c0.183-0.024,0.366-0.048,0.547-0.073c0.915-0.126,1.813-0.26,2.686-0.405l0.095-0.017
		c0.858-0.145,1.694-0.301,2.516-0.465c0.121-0.023,0.244-0.048,0.365-0.072c0.854-0.174,1.689-0.357,2.506-0.552l0.045-0.011
		c0.813-0.194,1.606-0.399,2.386-0.613l0.204-0.056c0.798-0.222,1.581-0.453,2.347-0.694l0.039-0.013
		c0.6-0.189,1.188-0.386,1.77-0.587l0.23-0.081c0.544-0.19,1.08-0.386,1.61-0.587l0.165-0.062c1.77-0.676,3.466-1.409,5.112-2.194
		l0.171-0.082c0.493-0.237,0.982-0.479,1.469-0.725l0.169-0.085c1.612-0.822,3.187-1.693,4.749-2.611l0.165-0.098
		c0.46-0.271,0.919-0.547,1.377-0.825l0.218-0.133c0.483-0.296,0.967-0.595,1.451-0.898l0.062-0.039
		c1.043-0.655,2.088-1.33,3.145-2.021l0.207-0.136c0.453-0.298,0.908-0.598,1.366-0.902l0.269-0.178
		c0.481-0.319,0.966-0.643,1.454-0.969l0.084-0.057c0.546-0.364,1.094-0.732,1.65-1.104c17.408-11.668,39.072-26.189,80.537-28.269
		c3.053-0.153,6.092-0.23,9.034-0.23c35.893,0,56.981,11.257,73.927,20.302c2.491,1.33,4.889,2.608,7.266,3.812l0.018,0.009
		c0.783,0.396,1.564,0.785,2.346,1.164l0.041,0.021c0.777,0.377,1.555,0.744,2.334,1.103l0.054,0.024
		c0.78,0.357,1.564,0.705,2.354,1.041l0.046,0.02c0.794,0.339,1.594,0.666,2.402,0.982l0.026,0.01
		c0.475,0.186,0.953,0.366,1.435,0.543c0.213,0.079,0.43,0.153,0.645,0.23c0.268,0.096,0.534,0.192,0.804,0.285
		c0.265,0.091,0.533,0.179,0.8,0.268c0.224,0.073,0.445,0.149,0.67,0.221c0.293,0.095,0.59,0.185,0.887,0.275
		c0.203,0.062,0.404,0.125,0.609,0.186c0.312,0.093,0.627,0.182,0.943,0.271c0.193,0.055,0.387,0.109,0.581,0.162
		c0.331,0.09,0.665,0.177,1,0.263c0.183,0.046,0.366,0.093,0.55,0.139c0.352,0.087,0.705,0.171,1.062,0.253
		c0.173,0.039,0.347,0.079,0.521,0.117c0.373,0.083,0.749,0.164,1.128,0.241c0.159,0.032,0.318,0.064,0.479,0.097
		c0.401,0.078,0.805,0.156,1.214,0.229c0.137,0.024,0.275,0.048,0.414,0.072c0.436,0.075,0.873,0.149,1.317,0.218
		c0.108,0.018,0.218,0.033,0.326,0.049c0.48,0.072,0.965,0.143,1.457,0.207l0.157,0.02c0.803,0.104,1.626,0.194,2.461,0.276
		c0.324,0.032,0.656,0.058,0.985,0.086c0.516,0.045,1.036,0.087,1.565,0.123c0.408,0.028,0.822,0.053,1.239,0.075
		c0.46,0.025,0.928,0.046,1.398,0.064c0.468,0.019,0.935,0.038,1.413,0.051l0.211,0.007h0.29c0.714,0.015,1.424,0.032,2.163,0.032
		c0.784,0,1.591-0.016,2.4-0.032h15.187l-0.005-6.13c0.008-0.229,0.008-0.457-0.001-0.687v-0.091l-0.005-0.001
		c-0.148-3.201-1.87-6.33-5.497-7.947c-104.585-46.812-230.8-74.626-366.981-75.621v-0.014h-1.264
		c-0.49-0.003-0.979-0.014-1.47-0.016l-0.153,0.015l-36.629-0.013c-4.419-0.001-8.003,3.581-8.003,8v64.178
		c2.688-0.941,5.526-1.505,8.45-1.651C41.503,346.604,44.543,346.526,47.487,346.526z M173.226,238.063
		c0.19,1.049,0.946,1.905,1.964,2.226l121.302,38.123c1.465,0.461,3.033-0.313,3.558-1.757l13.206-36.317
		c0.137-0.375,0.193-0.774,0.167-1.173l-3.781-56.469c-0.015-0.222-0.054-0.44-0.118-0.653
		c-9.365-30.957-38.109-53.498-72.123-53.498h-2.87c-38.56,0-65.959,30.112-67.917,68.104c-0.138,2.672,0.065,5.35,0.544,7.982
		L173.226,238.063z M227.357,182.363h72.273c1.509,0,2.76,1.167,2.863,2.672l3.381,48.934c0.135,1.949-1.677,3.461-3.571,2.979
		l-69.457-17.657c-2.295-0.656-4.113-2.411-4.852-4.681l-7.643-23.516C219.356,186.614,222.766,182.363,227.357,182.363z"/>
</g>
<g id="Guide">
</g>
</svg>
