<?xml version="1.0" encoding="iso-8859-1"?>
<!-- Generator: Adobe Illustrator 23.0.4, SVG Export Plug-In . SVG Version: 6.00 Build 0)  -->
<svg version="1.1" xmlns="http://www.w3.org/2000/svg" xmlns:xlink="http://www.w3.org/1999/xlink" x="0px" y="0px"
	 viewBox="0 0 480 480" style="enable-background:new 0 0 480 480;" xml:space="preserve">
<g id="Layer_1" style="display:none;">
	<g style="display:inline;">
		<circle style="fill-rule:evenodd;clip-rule:evenodd;fill:#FFFFFF;" cx="301.635" cy="99.59" r="40.5"/>
		<path style="fill-rule:evenodd;clip-rule:evenodd;fill:#FFFFFF;" d="M342.985,250.54l-67.454-47.232
			c-9.048-6.336-11.247-18.806-4.911-27.855v0c6.336-9.048,18.806-11.247,27.855-4.911l67.454,47.232
			c9.048,6.336,11.247,18.806,4.912,27.855l0,0C364.504,254.677,352.034,256.876,342.985,250.54z"/>
		<g>
			<path style="fill-rule:evenodd;clip-rule:evenodd;fill:#FFFFFF;" d="M396.309,264.272c-15.706,0-29.868-9.919-35.241-24.684
				c-3.426-9.412-2.981-19.595,1.252-28.673c4.232-9.078,11.748-15.965,21.16-19.391c4.138-1.506,8.452-2.27,12.823-2.27
				c15.706,0,29.868,9.919,35.241,24.684c3.426,9.412,2.981,19.595-1.252,28.673c-4.232,9.078-11.748,15.965-21.16,19.391
				C404.994,263.508,400.68,264.272,396.309,264.272z"/>
			<path style="fill:#231F20;" d="M396.304,196.755c12.254,0,23.759,7.565,28.193,19.748c5.667,15.569-2.361,32.785-17.93,38.451
				c-3.387,1.233-6.852,1.817-10.258,1.817c-12.254,0-23.759-7.565-28.193-19.748c-5.667-15.569,2.361-32.785,17.93-38.451
				C389.432,197.34,392.897,196.755,396.304,196.755 M396.304,181.755L396.304,181.755c-5.249,0-10.426,0.916-15.389,2.722
				c-11.295,4.111-20.313,12.375-25.393,23.268c-5.08,10.894-5.613,23.114-1.502,34.409c6.448,17.715,23.442,29.617,42.289,29.617
				c5.249,0,10.426-0.916,15.389-2.722c23.317-8.487,35.382-34.361,26.895-57.677C432.144,193.657,415.15,181.755,396.304,181.755
				L396.304,181.755z"/>
		</g>
		
			<path style="fill-rule:evenodd;clip-rule:evenodd;fill:none;stroke:#FFFFFF;stroke-width:40;stroke-linecap:round;stroke-linejoin:round;stroke-miterlimit:10;" d="
			M109.728,264.298c-11.515,5.928-21.798,14.663-29.743,26.009c-26.13,37.318-17.061,88.753,20.257,114.884
			s88.753,17.061,114.884-20.257s17.061-88.753-20.257-114.884"/>
		<path style="fill-rule:evenodd;clip-rule:evenodd;fill:#FFFFFF;" d="M208.601,304.163l-50.485-35.35
			c-9.048-6.336-11.247-18.806-4.911-27.855l69.403-99.117c6.336-9.048,18.806-11.247,27.855-4.912l50.485,35.35
			c9.048,6.336,11.247,18.806,4.911,27.855l-69.403,99.117C230.12,308.3,217.649,310.499,208.601,304.163z"/>
	</g>
</g>
<g id="Merged">
</g>
<g id="Wheelchair_Template">
	<path d="M331.88,147.002c21.019-7.65,31.855-30.891,24.206-51.91c-7.65-21.019-30.892-31.855-51.91-24.205
		s-31.855,30.891-24.205,51.909C287.62,143.814,310.861,154.651,331.88,147.002z M440.89,225.856
		c-5.667-15.569-22.883-23.597-38.452-17.93s-23.597,22.882-17.93,38.451s22.882,23.597,38.451,17.931
		C438.528,258.642,446.556,241.426,440.89,225.856z M370.999,219.2l-56.132-39.304l-0.085-0.054l-47.928-33.56
		c-9.049-6.335-21.52-4.136-27.854,4.912l-69.403,99.117c-6.336,9.048-4.137,21.519,4.911,27.854
		c5.229,3.661,10.459,7.323,15.688,10.984c9.137,6.397,18.196,12.457,24.731,21.695c5.529,7.815,9.204,16.897,10.705,26.351
		c1.505,9.469,0.819,19.258-2.033,28.413c-1.91,6.129-4.781,11.947-8.463,17.206c-9.574,13.673-23.899,22.799-40.337,25.697
		c-16.438,2.897-33.021-0.778-46.692-10.352c-13.673-9.574-22.799-23.899-25.697-40.337s0.778-33.02,10.352-46.692
		c5.891-8.412,13.465-15.039,22.515-19.699c9.82-5.057,13.683-17.116,8.626-26.937c-5.055-9.819-17.115-13.682-26.937-8.626
		c-14.671,7.554-27.454,18.729-36.97,32.318c-15.702,22.425-21.732,49.622-16.979,76.582c4.754,26.959,19.722,50.454,42.146,66.156
		c17.425,12.201,37.73,18.562,58.567,18.562c5.979,0,12.004-0.524,18.015-1.584c26.959-4.754,50.454-19.722,66.156-42.146
		c21.815-31.156,23.832-70.347,8.709-102.526l54.172-77.366l48.596,34.027c5.159,3.612,11.429,4.44,17.042,2.815
		c-2.486-3.38-4.527-7.136-6.008-11.201C366.564,240.934,366.787,229.549,370.999,219.2z"/>
</g>
<g id="Guides">
</g>
</svg>
