<svg xmlns="http://www.w3.org/2000/svg" width="1000pt" height="1000pt" viewBox="0 0 1000 1000"><path d="M 500 708.332031 C 672.5 708.332031 812.5 568.332031 812.5 395.832031 C 812.5 223.175781 672.5 83.332031 500 83.332031 C 327.34375 83.332031 187.5 223.175781 187.5 395.832031 C 187.5 568.332031 327.34375 708.332031 500 708.332031 Z M 589.0625 509.894531 L 588.90625 509.582031 L 588.4375 508.957031 C 574.375 486.925781 557.1875 467.394531 537.65625 450.054688 C 536.40625 448.960938 535 447.710938 533.75 446.617188 C 530.3125 443.492188 526.875 440.523438 523.28125 437.710938 C 520.785156 435.835938 518.125 433.960938 515.46875 432.242188 C 514.378906 431.460938 513.28125 430.835938 512.191406 430.054688 C 507.8125 426.929688 503.125 423.960938 498.4375 421.148438 C 495.46875 422.867188 492.1875 424.273438 488.90625 425.679688 C 487.035156 426.460938 485.15625 427.242188 483.285156 428.179688 C 482.03125 428.804688 480.941406 429.429688 479.6875 430.054688 C 478.28125 430.835938 476.71875 431.617188 475.3125 432.242188 C 474.6875 432.554688 473.90625 432.710938 473.125 433.023438 C 472.496094 433.335938 471.871094 433.492188 471.25 433.804688 C 462.1875 437.710938 452.8125 440.992188 443.4375 444.117188 C 442.964844 444.429688 442.34375 444.585938 441.875 444.742188 C 441.09375 445.054688 440.15625 445.367188 439.21875 445.679688 C 438.90625 445.835938 438.4375 445.992188 438.125 445.992188 L 437.5 445.992188 C 407.34375 455.210938 375.9375 460.523438 344.222656 460.523438 L 342.8125 460.523438 C 334.53125 460.367188 326.5625 459.898438 318.59375 459.273438 C 318.285156 459.273438 317.8125 459.117188 317.503906 459.117188 C 317.191406 458.960938 316.722656 458.960938 316.410156 458.960938 C 309.222656 458.335938 302.347656 457.398438 295.316406 456.304688 C 294.535156 456.148438 293.597656 456.148438 292.660156 455.992188 C 291.566406 455.835938 290.316406 455.679688 289.066406 455.523438 L 288.285156 455.523438 C 287.972656 455.523438 287.816406 455.367188 287.503906 455.367188 C 286.253906 455.210938 285.003906 454.898438 283.753906 454.585938 C 282.972656 454.273438 282.191406 454.117188 281.410156 453.960938 C 275.941406 452.867188 270.472656 451.617188 265.003906 450.210938 C 264.378906 450.054688 263.597656 449.898438 262.972656 449.742188 C 262.035156 449.585938 260.9375 449.429688 260 449.117188 C 259.691406 448.960938 259.21875 448.960938 258.910156 448.804688 C 258.285156 448.648438 257.816406 448.492188 257.191406 448.335938 C 254.847656 447.710938 252.503906 446.929688 250.160156 446.148438 C 248.753906 445.675781 247.503906 445.210938 246.097656 444.738281 C 245.160156 444.269531 244.066406 443.957031 242.972656 443.648438 C 241.566406 443.175781 240.160156 442.710938 238.753906 442.242188 C 235.941406 426.925781 234.535156 411.144531 234.535156 395.054688 L 234.535156 392.707031 C 240.160156 395.050781 245.785156 397.238281 251.414062 399.269531 C 254.382812 400.363281 257.507812 401.300781 260.476562 402.238281 C 267.195312 404.425781 273.757812 406.457031 280.476562 408.019531 C 282.507812 408.488281 284.695312 408.957031 286.882812 409.269531 C 288.132812 409.582031 289.539062 409.738281 290.789062 410.050781 C 292.039062 410.363281 293.132812 410.519531 294.382812 410.832031 C 299.539062 411.769531 304.851562 412.863281 310.164062 413.488281 C 308.757812 401.144531 307.820312 388.644531 307.820312 375.988281 C 307.820312 288.957031 342.664062 207.863281 401.726562 148.332031 C 432.039062 136.144531 465.164062 129.425781 499.851562 129.425781 C 409.539062 177.863281 352.351562 272.238281 352.351562 375.988281 C 352.351562 389.425781 353.601562 402.398438 355.476562 415.207031 L 357.039062 415.207031 C 382.976562 414.117188 408.601562 409.113281 433.289062 400.835938 C 434.695312 400.363281 436.101562 399.898438 437.507812 399.425781 C 442.195312 398.019531 446.726562 396.457031 451.257812 394.585938 C 453.914062 393.492188 456.726562 392.085938 459.382812 390.832031 C 460.789062 390.207031 462.195312 389.425781 463.601562 388.800781 C 468.445312 386.457031 473.289062 383.957031 478.132812 381.300781 C 478.132812 377.863281 478.601562 374.425781 478.914062 370.988281 C 479.070312 368.800781 479.382812 366.769531 479.539062 364.582031 C 479.695312 363.332031 479.695312 361.925781 479.695312 360.675781 C 479.851562 358.957031 479.851562 357.394531 480.007812 355.675781 C 480.007812 354.894531 480.164062 354.113281 480.320312 353.332031 C 480.472656 352.550781 480.472656 351.925781 480.628906 351.300781 C 481.882812 341.457031 483.597656 331.769531 485.628906 322.082031 C 485.785156 321.613281 485.785156 320.992188 485.941406 320.519531 C 486.097656 319.585938 486.410156 318.488281 486.566406 317.550781 C 486.566406 317.394531 486.566406 317.082031 486.722656 316.769531 C 486.878906 316.460938 487.035156 316.300781 487.035156 315.988281 C 494.222656 285.210938 505.160156 255.523438 521.097656 228.019531 L 521.253906 227.707031 L 521.410156 227.550781 C 521.566406 227.242188 521.722656 227.082031 521.878906 226.769531 C 526.097656 219.894531 530.472656 213.179688 535.003906 206.613281 C 535.316406 206.144531 535.472656 205.832031 535.785156 205.523438 C 535.941406 205.367188 536.253906 205.050781 536.410156 204.742188 C 540.472656 198.960938 544.847656 193.332031 549.222656 187.863281 C 549.847656 187.238281 550.316406 186.457031 550.941406 185.675781 C 551.566406 184.738281 552.347656 183.800781 553.128906 182.863281 L 553.597656 182.238281 C 553.753906 181.925781 553.910156 181.769531 554.066406 181.613281 C 554.847656 180.675781 555.628906 179.894531 556.410156 179.113281 C 557.035156 178.488281 557.664062 177.707031 558.285156 177.082031 C 562.035156 172.863281 565.785156 168.800781 569.691406 164.738281 C 570.160156 164.113281 570.785156 163.644531 571.253906 163.019531 C 571.878906 162.238281 572.660156 161.457031 573.285156 160.832031 C 573.914062 160.207031 574.695312 159.425781 575.320312 158.796875 C 577.039062 157.082031 578.753906 155.519531 580.632812 153.957031 C 581.726562 153.019531 582.820312 151.921875 583.914062 150.984375 C 584.851562 150.203125 585.785156 149.269531 586.726562 148.488281 C 587.664062 147.707031 588.75 146.769531 589.6875 145.832031 C 605.46875 151.457031 620.46875 158.488281 634.691406 166.925781 C 630.003906 170.519531 625.316406 174.269531 620.15625 177.082031 C 618.125 178.800781 616.097656 180.675781 614.0625 182.550781 L 613.125 183.488281 C 607.96875 188.175781 602.96875 192.863281 598.128906 197.863281 C 596.71875 199.425781 595.3125 201.144531 593.910156 202.707031 C 593.128906 203.644531 592.191406 204.738281 591.253906 205.832031 C 590.316406 206.769531 589.535156 207.707031 588.753906 208.644531 C 585.316406 212.707031 581.878906 216.769531 578.597656 220.988281 C 590.003906 225.832031 601.410156 231.300781 612.347656 237.707031 C 687.660156 281.144531 740.472656 352.082031 762.503906 432.863281 C 757.660156 466.769531 746.410156 498.644531 729.847656 527.238281 C 732.972656 424.894531 679.847656 328.175781 590.003906 276.300781 C 578.441406 269.738281 566.566406 264.269531 554.535156 259.425781 L 554.222656 260.050781 C 554.066406 260.363281 553.910156 260.675781 553.753906 260.988281 C 541.722656 284.113281 533.285156 308.800781 528.128906 334.269531 C 527.816406 335.519531 527.660156 336.925781 527.347656 338.175781 C 526.410156 343.019531 525.316406 347.863281 524.691406 352.863281 C 524.378906 355.832031 524.066406 358.957031 523.910156 361.925781 C 523.753906 363.488281 523.753906 364.898438 523.597656 366.460938 C 523.128906 371.929688 522.972656 377.398438 522.816406 382.867188 C 525.785156 384.738281 528.597656 386.773438 531.410156 388.804688 C 532.972656 390.054688 534.691406 391.148438 536.410156 392.398438 C 537.503906 393.179688 538.753906 393.960938 539.847656 394.585938 C 541.253906 395.367188 542.660156 396.304688 544.066406 397.242188 C 544.691406 397.710938 545.316406 398.179688 545.9375 398.648438 C 546.410156 399.117188 546.875 399.585938 547.5 400.054688 C 555.46875 405.992188 562.972656 412.398438 570.3125 418.960938 C 570.625 419.273438 570.9375 419.429688 571.25 419.742188 C 572.1875 420.523438 573.125 421.304688 573.90625 422.085938 L 575.15625 423.335938 C 598.125 445.054688 618.28125 469.429688 634.21875 496.929688 C 634.375 497.085938 634.53125 497.398438 634.691406 497.710938 C 634.847656 498.023438 634.847656 498.179688 635 498.335938 C 639.0625 505.367188 642.503906 512.554688 645.9375 519.742188 C 646.09375 520.210938 646.25 520.523438 646.410156 520.992188 C 646.566406 521.304688 646.71875 521.617188 646.878906 521.929688 C 650.003906 528.335938 652.660156 534.898438 655.160156 541.460938 C 655.472656 542.398438 655.941406 543.179688 656.253906 544.117188 C 656.722656 545.210938 657.191406 546.304688 657.660156 547.398438 C 657.816406 547.710938 657.816406 547.867188 657.972656 548.179688 C 658.128906 548.492188 658.128906 548.648438 658.285156 548.960938 C 658.59375 550.054688 658.910156 550.992188 659.21875 552.085938 C 659.375 552.867188 659.691406 553.804688 660 554.742188 C 661.71875 560.054688 663.4375 565.367188 665 570.835938 C 665.3125 571.617188 665.46875 572.398438 665.78125 573.179688 C 666.09375 574.117188 666.40625 574.898438 666.5625 575.835938 C 666.875 576.769531 667.03125 577.707031 667.34375 578.648438 C 667.96875 580.992188 668.4375 583.492188 668.90625 585.992188 C 669.21875 587.398438 669.375 588.644531 669.6875 590.050781 C 670 591.144531 670.15625 592.394531 670.46875 593.488281 C 670.78125 594.894531 671.09375 596.144531 671.40625 597.550781 C 658.75 608.175781 645.152344 617.707031 630.625 625.988281 C 630 620.050781 629.0625 614.113281 627.96875 608.175781 C 627.34375 605.050781 626.5625 602.082031 625.9375 598.957031 C 624.53125 592.238281 622.96875 585.519531 620.9375 578.800781 C 620.3125 576.613281 619.53125 574.421875 618.75 572.238281 C 618.28125 571.144531 617.816406 570.050781 617.5 568.957031 C 617.1875 568.019531 616.875 567.082031 616.5625 566.144531 C 614.6875 560.832031 612.96875 555.519531 610.78125 550.363281 C 600.78125 557.707031 590.46875 564.738281 579.378906 571.144531 C 504.066406 614.582031 416.40625 624.894531 335.472656 603.644531 C 309.21875 582.863281 286.878906 557.238281 269.847656 528.019531 C 356.875 581.925781 467.191406 584.269531 557.035156 532.394531 C 568.597656 525.835938 579.222656 518.175781 589.378906 510.210938 Z M 904.167969 708.332031 L 878.175781 708.332031 C 848.316406 708.332031 818.945312 717.527344 795.253906 735.707031 C 752.785156 768.285156 636.632812 791.667969 500 791.667969 C 363.367188 791.667969 247.214844 768.285156 204.746094 735.707031 C 181.054688 717.527344 151.683594 708.332031 121.820312 708.332031 L 95.832031 708.332031 C 77.425781 708.332031 62.5 723.257812 62.5 741.667969 L 62.5 904.167969 C 62.5 922.578125 77.425781 937.5 95.832031 937.5 L 904.167969 937.5 C 922.578125 937.5 937.5 922.578125 937.5 904.167969 L 937.5 741.667969 C 937.5 723.257812 922.578125 708.332031 904.167969 708.332031 Z M 904.167969 708.332031"/></svg>