<?xml version="1.0" encoding="iso-8859-1"?>
<!-- Generator: Adobe Illustrator 23.0.4, SVG Export Plug-In . SVG Version: 6.00 Build 0)  -->
<svg version="1.1" xmlns="http://www.w3.org/2000/svg" xmlns:xlink="http://www.w3.org/1999/xlink" x="0px" y="0px"
	 viewBox="0 0 480 480" style="enable-background:new 0 0 480 480;" xml:space="preserve">
<g id="Workspace">
	<path d="M240,340c82.8,0,150-67.2,150-150c0-82.875-67.2-150-150-150c-82.875,0-150,67.125-150,150C90,272.8,157.125,340,240,340z
		 M282.75,244.75l-0.075-0.15l-0.225-0.3c-6.75-10.575-15-19.95-24.375-28.274c-0.6-0.525-1.275-1.125-1.875-1.65
		c-1.65-1.5-3.3-2.925-5.025-4.275c-1.199-0.899-2.475-1.8-3.75-2.625c-0.524-0.375-1.05-0.675-1.574-1.05
		c-2.101-1.5-4.351-2.925-6.601-4.274c-1.425,0.824-3,1.5-4.575,2.175c-0.899,0.375-1.8,0.75-2.699,1.2
		c-0.601,0.3-1.125,0.6-1.726,0.899c-0.675,0.375-1.425,0.75-2.1,1.05c-0.3,0.15-0.675,0.226-1.05,0.375
		c-0.301,0.15-0.601,0.226-0.9,0.375c-4.35,1.875-8.85,3.45-13.35,4.95c-0.226,0.15-0.525,0.226-0.75,0.3
		c-0.375,0.15-0.825,0.301-1.275,0.45c-0.15,0.075-0.375,0.15-0.525,0.15H210c-14.475,4.425-29.55,6.975-44.774,6.975h-0.676
		c-3.975-0.075-7.8-0.3-11.625-0.6c-0.149,0-0.375-0.075-0.524-0.075c-0.15-0.075-0.375-0.075-0.525-0.075
		c-3.45-0.3-6.75-0.75-10.125-1.274c-0.375-0.075-0.825-0.075-1.274-0.15c-0.525-0.075-1.125-0.15-1.726-0.225h-0.375
		c-0.149,0-0.225-0.075-0.375-0.075c-0.6-0.075-1.199-0.226-1.8-0.375c-0.375-0.15-0.75-0.226-1.125-0.3
		c-2.625-0.525-5.25-1.125-7.875-1.801c-0.3-0.074-0.675-0.149-0.975-0.225c-0.45-0.075-0.976-0.15-1.426-0.3
		c-0.149-0.075-0.375-0.075-0.524-0.15c-0.3-0.075-0.525-0.149-0.825-0.225c-1.125-0.3-2.25-0.675-3.375-1.05
		c-0.675-0.226-1.274-0.45-1.95-0.676c-0.449-0.225-0.975-0.375-1.5-0.524c-0.675-0.226-1.35-0.45-2.024-0.675
		c-1.351-7.351-2.025-14.926-2.025-22.65V188.5c2.7,1.125,5.4,2.175,8.101,3.15c1.425,0.524,2.925,0.975,4.35,1.425
		c3.225,1.05,6.375,2.024,9.6,2.774c0.976,0.226,2.025,0.45,3.075,0.601c0.601,0.149,1.275,0.225,1.875,0.375
		c0.601,0.149,1.125,0.225,1.726,0.375c2.475,0.45,5.024,0.975,7.574,1.274c-0.675-5.925-1.125-11.925-1.125-18
		c0-41.774,16.726-80.699,45.075-109.274c14.55-5.851,30.45-9.075,47.101-9.075c-43.351,23.25-70.801,68.55-70.801,118.35
		c0,6.45,0.601,12.676,1.5,18.825h0.75c12.45-0.524,24.75-2.925,36.601-6.899c0.675-0.226,1.35-0.45,2.024-0.676
		c2.25-0.675,4.426-1.425,6.601-2.324c1.274-0.525,2.625-1.2,3.899-1.801c0.676-0.3,1.351-0.675,2.025-0.975
		c2.325-1.125,4.65-2.325,6.975-3.6c0-1.65,0.226-3.301,0.375-4.95c0.075-1.05,0.226-2.025,0.301-3.075
		c0.074-0.6,0.074-1.275,0.074-1.875c0.075-0.825,0.075-1.575,0.15-2.4c0-0.375,0.075-0.75,0.15-1.125
		c0.074-0.375,0.074-0.675,0.149-0.975c0.601-4.725,1.425-9.375,2.4-14.025c0.075-0.225,0.075-0.524,0.149-0.75
		c0.075-0.449,0.226-0.975,0.301-1.425c0-0.075,0-0.225,0.074-0.375c0.075-0.149,0.15-0.225,0.15-0.375
		c3.45-14.774,8.7-29.024,16.35-42.225l0.075-0.15l0.075-0.075c0.075-0.149,0.15-0.225,0.225-0.375
		c2.025-3.3,4.125-6.524,6.301-9.675c0.149-0.225,0.225-0.375,0.375-0.524c0.074-0.075,0.225-0.226,0.3-0.375
		c1.95-2.775,4.05-5.476,6.149-8.101c0.301-0.3,0.525-0.675,0.825-1.05c0.3-0.45,0.675-0.9,1.05-1.35l0.226-0.301
		c0.074-0.149,0.149-0.225,0.225-0.3c0.375-0.45,0.75-0.825,1.125-1.2c0.3-0.3,0.601-0.675,0.9-0.975
		c1.8-2.025,3.6-3.975,5.475-5.925c0.225-0.3,0.525-0.525,0.75-0.825c0.3-0.375,0.675-0.75,0.975-1.05
		c0.301-0.3,0.676-0.675,0.976-0.976c0.825-0.824,1.649-1.574,2.55-2.324c0.525-0.45,1.05-0.976,1.575-1.426
		c0.45-0.375,0.899-0.824,1.35-1.199S282.6,70.45,283.05,70c7.575,2.7,14.775,6.075,21.601,10.125
		c-2.25,1.725-4.5,3.525-6.976,4.875c-0.975,0.825-1.949,1.725-2.925,2.625l-0.45,0.45c-2.475,2.25-4.875,4.5-7.199,6.899
		c-0.676,0.75-1.351,1.575-2.025,2.325c-0.375,0.45-0.825,0.976-1.275,1.5c-0.449,0.45-0.824,0.9-1.199,1.351
		c-1.65,1.949-3.301,3.899-4.875,5.925c5.475,2.325,10.949,4.95,16.199,8.024c36.15,20.851,61.5,54.9,72.075,93.676
		c-2.325,16.274-7.725,31.574-15.675,45.3c1.5-49.125-24-95.55-67.125-120.45c-5.55-3.15-11.25-5.775-17.025-8.1l-0.149,0.3
		c-0.075,0.149-0.15,0.3-0.226,0.45c-5.774,11.1-9.824,22.949-12.3,35.175c-0.149,0.6-0.225,1.274-0.375,1.875
		c-0.45,2.325-0.975,4.649-1.274,7.05c-0.15,1.425-0.301,2.925-0.375,4.35c-0.075,0.75-0.075,1.426-0.15,2.176
		c-0.225,2.625-0.3,5.25-0.375,7.875c1.425,0.899,2.775,1.875,4.125,2.85c0.75,0.6,1.575,1.125,2.4,1.725
		c0.524,0.375,1.125,0.75,1.649,1.051c0.675,0.375,1.351,0.824,2.025,1.274c0.3,0.226,0.6,0.45,0.899,0.675
		c0.226,0.226,0.45,0.45,0.75,0.676c3.825,2.85,7.426,5.925,10.95,9.074c0.15,0.15,0.3,0.226,0.45,0.375
		c0.45,0.375,0.9,0.75,1.275,1.125l0.3,0.301l0.3,0.3c11.025,10.425,20.7,22.125,28.35,35.325c0.075,0.074,0.15,0.225,0.226,0.375
		c0.075,0.149,0.075,0.225,0.149,0.3c1.95,3.375,3.601,6.825,5.25,10.274c0.075,0.226,0.15,0.375,0.226,0.601
		c0.075,0.149,0.149,0.3,0.225,0.45c1.5,3.074,2.775,6.225,3.976,9.375c0.149,0.449,0.375,0.824,0.524,1.274
		c0.226,0.525,0.45,1.05,0.675,1.575c0.075,0.15,0.075,0.225,0.15,0.375s0.075,0.225,0.15,0.375c0.149,0.525,0.3,0.975,0.449,1.5
		c0.075,0.375,0.226,0.825,0.375,1.275c0.825,2.55,1.65,5.1,2.4,7.725c0.15,0.375,0.225,0.75,0.375,1.125
		c0.15,0.45,0.3,0.825,0.375,1.275c0.15,0.449,0.225,0.899,0.375,1.35c0.3,1.125,0.525,2.325,0.75,3.525
		c0.15,0.675,0.225,1.274,0.375,1.949c0.15,0.525,0.225,1.125,0.375,1.65c0.15,0.675,0.3,1.275,0.45,1.95
		c-6.075,5.1-12.601,9.675-19.575,13.649c-0.3-2.85-0.75-5.699-1.275-8.55c-0.3-1.5-0.675-2.925-0.975-4.425
		c-0.675-3.225-1.425-6.45-2.4-9.675c-0.3-1.05-0.675-2.101-1.05-3.15c-0.225-0.524-0.449-1.05-0.6-1.575
		c-0.15-0.449-0.3-0.899-0.45-1.35c-0.9-2.55-1.725-5.1-2.775-7.575c-4.8,3.525-9.75,6.9-15.074,9.976
		c-36.15,20.85-78.226,25.8-117.075,15.6c-12.601-9.975-23.325-22.275-31.5-36.3c41.774,25.875,94.725,27,137.85,2.1
		c5.551-3.149,10.65-6.825,15.525-10.649L282.75,244.75z M434,340h-12.475c-14.333,0-28.432,4.414-39.804,13.139
		C361.337,368.776,305.584,380,240,380s-121.337-11.224-141.721-26.861C86.907,344.414,72.808,340,58.474,340H46
		c-8.836,0-16,7.163-16,16v78c0,8.837,7.164,16,16,16h388c8.837,0,16-7.163,16-16v-78C450,347.163,442.837,340,434,340z"/>
</g>
<g id="Guide">
</g>
</svg>
