<svg xmlns="http://www.w3.org/2000/svg" viewBox="0 0 480 480"><path d="M449.705,136.612c-2.392-37.396-18.808-68.563-46.222-87.76c-27.415-19.196-62.316-23.964-98.276-13.419 c-35.156,10.308-67.223,34.129-90.293,67.077c-23.07,32.947-34.487,71.228-32.148,107.788c0.995,15.555,4.424,30.027,10.054,43.014 l-19.073,103.976c-5.802-1.37-12.109,0.805-15.737,5.985l-40.15,57.34c-4.752,6.786-3.103,16.14,3.684,20.892l8.191,5.735 c6.786,4.752,16.14,3.103,20.891-3.684l40.15-57.341c3.619-5.169,3.516-11.821,0.267-16.801l92.326-52.683 c2.327,0.141,4.668,0.228,7.028,0.228c11.979,0,24.361-1.815,36.868-5.482c35.155-10.308,67.223-34.129,90.292-67.076 C440.626,211.453,452.044,173.173,449.705,136.612z M196.669,343.177l11.768-64.149c5.925,7.214,12.797,13.603,20.551,19.031 c7.647,5.354,15.88,9.577,24.552,12.667L196.669,343.177z M401.173,232.93c-20.476,29.241-48.722,50.321-79.536,59.355 c-30.011,8.801-58.841,5.032-81.179-10.609c-46.834-32.794-50.944-108.021-9.161-167.694 c20.476-29.241,48.723-50.321,79.537-59.355c10.611-3.111,21.071-4.651,31.152-4.651c18.431,0,35.586,5.15,50.025,15.261 c22.337,15.641,35.738,41.442,37.734,72.653C431.796,169.935,421.648,203.688,401.173,232.93z M132.663,262.76 c12.671-18.097,8.273-43.039-9.823-55.71c-6.982-4.889-14.985-7.237-22.908-7.237c-12.609,0-25.019,5.947-32.801,17.061 c-12.671,18.097-8.273,43.038,9.823,55.709c6.982,4.89,14.985,7.237,22.908,7.237C112.473,279.819,124.882,273.873,132.663,262.76z M116.28,251.288c-3.741,5.342-9.879,8.531-16.418,8.531c-4.1,0-8.055-1.252-11.437-3.62c-9.034-6.325-11.237-18.821-4.912-27.854 c3.741-5.343,9.879-8.532,16.418-8.532c4.1,0,8.055,1.252,11.437,3.62C120.402,229.759,122.605,242.254,116.28,251.288z"/></svg>