<svg xmlns="http://www.w3.org/2000/svg" width="1000pt" height="1000pt" viewBox="0 0 1000 1000"><path d="M 500 83.332031 C 269.882812 83.332031 83.332031 269.882812 83.332031 500 C 83.332031 730.117188 269.882812 916.667969 500 916.667969 C 730.117188 916.667969 916.667969 730.117188 916.667969 500 C 916.667969 269.882812 730.117188 83.332031 500 83.332031 Z M 852.429688 535.394531 C 852.253906 537.144531 852.050781 538.886719 851.851562 540.628906 C 851.707031 541.914062 851.570312 543.199219 851.414062 544.484375 C 851.269531 545.617188 851.105469 546.746094 850.953125 547.878906 C 850.695312 549.78125 850.441406 551.683594 850.152344 553.582031 C 850.066406 554.148438 849.972656 554.710938 849.882812 555.273438 C 849.496094 557.746094 849.089844 560.210938 848.65625 562.671875 L 848.640625 562.765625 C 838.023438 622.441406 812.308594 678.109375 773.375 725.203125 C 773.097656 725.539062 772.8125 725.863281 772.539062 726.199219 C 771.070312 727.964844 769.59375 729.722656 768.085938 731.460938 C 766.480469 733.320312 764.851562 735.148438 763.207031 736.976562 C 762.996094 737.207031 762.796875 737.445312 762.582031 737.675781 C 754.710938 746.367188 746.414062 754.667969 737.722656 762.542969 C 737.1875 763.023438 736.644531 763.492188 736.109375 763.972656 C 734.589844 765.332031 733.074219 766.695312 731.527344 768.027344 C 729.488281 769.796875 727.417969 771.539062 725.339844 773.257812 L 725.296875 773.296875 C 671.351562 817.929688 606.140625 845.214844 536.542969 852.304688 L 536.167969 852.347656 C 533.585938 852.609375 530.996094 852.832031 528.398438 853.039062 C 527.964844 853.074219 527.539062 853.113281 527.105469 853.148438 C 524.785156 853.324219 522.457031 853.460938 520.128906 853.589844 C 519.433594 853.632812 518.742188 853.683594 518.046875 853.71875 C 515.847656 853.828125 513.640625 853.898438 511.433594 853.96875 C 510.628906 853.996094 509.828125 854.039062 509.019531 854.058594 C 506.175781 854.128906 503.324219 854.164062 500.46875 854.167969 L 500 854.167969 C 496.980469 854.167969 493.964844 854.125 490.957031 854.050781 C 490.484375 854.039062 490.019531 854.011719 489.546875 854 C 486.988281 853.925781 484.433594 853.835938 481.886719 853.707031 C 481.546875 853.691406 481.210938 853.664062 480.875 853.648438 C 478.171875 853.507812 475.476562 853.339844 472.785156 853.136719 L 472.644531 853.121094 C 388.351562 846.726562 309.96875 810.835938 249.566406 750.433594 C 182.671875 683.542969 145.832031 594.601562 145.832031 500 C 145.832031 405.398438 182.671875 316.457031 249.566406 249.566406 C 309.96875 189.164062 388.351562 153.273438 472.644531 146.878906 L 472.785156 146.863281 C 475.476562 146.660156 478.171875 146.492188 480.875 146.351562 C 481.210938 146.332031 481.546875 146.308594 481.886719 146.292969 C 484.433594 146.164062 486.988281 146.074219 489.546875 146 C 490.019531 145.984375 490.484375 145.957031 490.957031 145.949219 C 493.964844 145.875 496.980469 145.832031 500 145.832031 L 500.019531 145.832031 L 500.472656 145.839844 C 503.328125 145.839844 506.179688 145.878906 509.023438 145.949219 C 509.832031 145.96875 510.632812 146.011719 511.4375 146.039062 C 513.644531 146.105469 515.851562 146.175781 518.050781 146.289062 C 518.746094 146.324219 519.4375 146.375 520.132812 146.417969 C 522.460938 146.546875 524.789062 146.683594 527.109375 146.855469 C 527.542969 146.890625 527.972656 146.933594 528.402344 146.96875 C 530.996094 147.175781 533.589844 147.398438 536.171875 147.660156 L 536.546875 147.699219 C 606.140625 154.789062 671.355469 182.078125 725.300781 226.707031 L 725.347656 226.746094 C 727.421875 228.464844 729.488281 230.207031 731.535156 231.980469 C 733.078125 233.316406 734.597656 234.675781 736.113281 236.035156 C 736.648438 236.511719 737.195312 236.980469 737.726562 237.464844 C 746.417969 245.335938 754.714844 253.640625 762.585938 262.332031 C 762.800781 262.5625 763 262.800781 763.210938 263.03125 C 764.855469 264.855469 766.484375 266.691406 768.089844 268.546875 C 769.597656 270.285156 771.074219 272.042969 772.542969 273.804688 C 772.820312 274.140625 773.105469 274.464844 773.378906 274.804688 C 812.3125 321.894531 838.027344 377.566406 848.644531 437.242188 L 848.660156 437.335938 C 849.097656 439.792969 849.5 442.257812 849.886719 444.730469 C 849.976562 445.296875 850.070312 445.859375 850.160156 446.421875 C 850.445312 448.320312 850.699219 450.226562 850.957031 452.128906 C 851.109375 453.261719 851.273438 454.386719 851.417969 455.523438 C 851.574219 456.804688 851.710938 458.089844 851.855469 459.378906 C 852.054688 461.117188 852.257812 462.859375 852.433594 464.609375 C 852.488281 465.179688 852.53125 465.753906 852.585938 466.324219 C 853.632812 477.414062 854.191406 488.644531 854.191406 500.007812 C 854.191406 511.367188 853.632812 522.601562 852.585938 533.6875 C 852.527344 534.253906 852.488281 534.828125 852.429688 535.394531 Z M 522.503906 209.191406 L 522.433594 209.183594 C 520.183594 209.011719 517.925781 208.875 515.664062 208.753906 C 515.421875 208.742188 515.183594 208.722656 514.945312 208.710938 C 512.835938 208.605469 510.722656 208.53125 508.601562 208.472656 C 508.21875 208.460938 507.84375 208.4375 507.460938 208.425781 C 504.984375 208.367188 502.503906 208.332031 500.007812 208.332031 L 500 208.332031 L 499.53125 208.339844 C 497.210938 208.34375 494.898438 208.371094 492.589844 208.425781 C 491.886719 208.445312 491.179688 208.480469 490.476562 208.503906 C 488.699219 208.558594 486.921875 208.617188 485.148438 208.707031 C 484.554688 208.738281 483.964844 208.785156 483.367188 208.816406 C 481.480469 208.921875 479.589844 209.035156 477.707031 209.175781 C 477.308594 209.207031 476.910156 209.246094 476.511719 209.277344 C 474.414062 209.445312 472.320312 209.625 470.238281 209.835938 L 469.84375 209.882812 C 411.175781 215.910156 357.660156 239.320312 314.539062 274.886719 C 314.269531 275.105469 314.007812 275.332031 313.742188 275.554688 C 312.285156 276.765625 310.835938 277.984375 309.402344 279.222656 C 307.785156 280.628906 306.171875 282.050781 304.578125 283.496094 L 304.300781 283.738281 C 302.332031 285.523438 300.386719 287.347656 298.460938 289.195312 C 297.597656 290.019531 296.746094 290.863281 295.894531 291.699219 C 295.191406 292.390625 294.476562 293.066406 293.777344 293.761719 C 293.503906 294.035156 293.246094 294.320312 292.976562 294.59375 C 291.109375 296.472656 289.277344 298.378906 287.464844 300.304688 C 286.964844 300.835938 286.457031 301.359375 285.957031 301.894531 C 283.660156 304.375 281.394531 306.886719 279.179688 309.449219 C 278.167969 310.621094 277.171875 311.808594 276.179688 312.996094 C 275.730469 313.535156 275.269531 314.066406 274.828125 314.605469 C 243.792969 352.25 222.023438 397.816406 212.992188 447.808594 C 212.949219 448.050781 212.898438 448.292969 212.859375 448.539062 C 212.542969 450.320312 212.257812 452.109375 211.972656 453.898438 C 211.859375 454.609375 211.738281 455.316406 211.628906 456.027344 C 211.433594 457.320312 211.261719 458.617188 211.085938 459.914062 C 210.921875 461.113281 210.746094 462.308594 210.601562 463.511719 C 210.507812 464.261719 210.429688 465.015625 210.339844 465.761719 C 210.136719 467.507812 209.9375 469.246094 209.765625 470.996094 L 209.742188 471.257812 C 208.820312 480.710938 208.332031 490.300781 208.332031 500 C 208.332031 509.699219 208.816406 519.289062 209.742188 528.742188 L 209.765625 529.003906 C 209.941406 530.753906 210.140625 532.492188 210.34375 534.238281 C 210.429688 534.984375 210.507812 535.738281 210.601562 536.488281 C 210.75 537.691406 210.921875 538.882812 211.085938 540.085938 C 211.265625 541.382812 211.433594 542.679688 211.632812 543.972656 C 211.738281 544.683594 211.859375 545.394531 211.972656 546.101562 C 212.257812 547.890625 212.542969 549.683594 212.859375 551.460938 C 212.902344 551.703125 212.953125 551.945312 212.996094 552.191406 C 222.027344 602.183594 243.796875 647.75 274.828125 685.394531 C 275.273438 685.933594 275.734375 686.464844 276.183594 687.003906 C 277.175781 688.191406 278.171875 689.378906 279.183594 690.550781 C 281.394531 693.109375 283.660156 695.625 285.960938 698.105469 C 286.457031 698.640625 286.96875 699.164062 287.46875 699.699219 C 289.277344 701.621094 291.113281 703.527344 292.972656 705.402344 C 293.246094 705.679688 293.503906 705.964844 293.777344 706.238281 C 294.476562 706.933594 295.191406 707.613281 295.894531 708.300781 C 296.75 709.140625 297.597656 709.980469 298.460938 710.804688 C 300.390625 712.652344 302.332031 714.476562 304.300781 716.261719 L 304.582031 716.503906 C 306.175781 717.949219 307.785156 719.371094 309.40625 720.777344 C 310.839844 722.015625 312.289062 723.234375 313.746094 724.445312 C 314.011719 724.667969 314.273438 724.894531 314.539062 725.113281 C 357.660156 760.679688 411.175781 784.09375 469.847656 790.117188 L 470.238281 790.164062 C 472.324219 790.375 474.417969 790.554688 476.511719 790.722656 C 476.910156 790.753906 477.308594 790.792969 477.710938 790.824219 C 479.589844 790.964844 481.480469 791.078125 483.371094 791.183594 C 483.964844 791.214844 484.558594 791.261719 485.152344 791.292969 C 486.921875 791.382812 488.699219 791.4375 490.480469 791.496094 C 491.183594 791.519531 491.886719 791.554688 492.59375 791.574219 C 494.898438 791.628906 497.214844 791.65625 499.535156 791.660156 L 500 791.667969 L 500.007812 791.667969 C 502.503906 791.667969 504.984375 791.632812 507.460938 791.574219 C 507.84375 791.5625 508.21875 791.539062 508.601562 791.527344 C 510.722656 791.46875 512.835938 791.394531 514.945312 791.289062 C 515.183594 791.277344 515.421875 791.257812 515.664062 791.246094 C 517.925781 791.125 520.183594 790.988281 522.433594 790.816406 L 522.503906 790.808594 C 673.070312 779.320312 791.667969 653.511719 791.667969 500 C 791.667969 346.488281 673.070312 220.679688 522.503906 209.191406 Z M 309.179688 541.667969 C 286.167969 541.667969 267.511719 523.011719 267.511719 500 C 267.511719 476.988281 286.167969 458.332031 309.179688 458.332031 C 332.191406 458.332031 350.847656 476.988281 350.847656 500 C 350.847656 523.011719 332.191406 541.667969 309.179688 541.667969 Z M 392.511719 416.667969 C 369.5 416.667969 350.847656 398.011719 350.847656 375 C 350.847656 351.988281 369.5 333.332031 392.511719 333.332031 C 415.523438 333.332031 434.179688 351.988281 434.179688 375 C 434.179688 398.011719 415.523438 416.667969 392.511719 416.667969 Z M 475.847656 541.667969 C 452.832031 541.667969 434.179688 523.011719 434.179688 500 C 434.179688 476.988281 452.832031 458.332031 475.847656 458.332031 C 498.859375 458.332031 517.511719 476.988281 517.511719 500 C 517.511719 523.011719 498.859375 541.667969 475.847656 541.667969 Z M 475.847656 541.667969"/></svg>