<svg xmlns="http://www.w3.org/2000/svg" viewBox="0 0 480 480"><path d="M240,40C129.543,40,40,129.543,40,240s89.543,200,200,200s200-89.543,200-200S350.457,40,240,40z M409.166,256.99 c-0.084,0.84-0.182,1.676-0.277,2.512c-0.07,0.616-0.135,1.234-0.211,1.85c-0.068,0.545-0.147,1.086-0.221,1.629 c-0.123,0.914-0.246,1.828-0.383,2.739c-0.042,0.271-0.088,0.542-0.131,0.812c-0.185,1.187-0.379,2.37-0.588,3.55l-0.008,0.045 c-5.095,28.644-17.438,55.366-36.127,77.97c-0.133,0.161-0.27,0.318-0.402,0.479c-0.705,0.847-1.413,1.69-2.136,2.525 c-0.771,0.892-1.554,1.771-2.343,2.647c-0.101,0.111-0.197,0.225-0.299,0.336c-3.778,4.172-7.762,8.156-11.934,11.936 c-0.256,0.232-0.517,0.456-0.773,0.686c-0.729,0.653-1.458,1.307-2.199,1.947c-0.98,0.85-1.973,1.686-2.97,2.511l-0.022,0.019 c-25.893,21.423-57.195,34.521-90.601,37.924l-0.18,0.02c-1.239,0.125-2.483,0.232-3.729,0.331 c-0.208,0.017-0.414,0.037-0.622,0.054c-1.113,0.083-2.23,0.149-3.348,0.211c-0.334,0.02-0.665,0.045-0.999,0.062 c-1.056,0.053-2.115,0.087-3.175,0.12c-0.387,0.013-0.771,0.033-1.158,0.043c-1.366,0.034-2.734,0.051-4.105,0.052L240.009,410H240 c-1.45,0-2.896-0.02-4.341-0.055c-0.227-0.006-0.45-0.019-0.677-0.025c-1.228-0.035-2.454-0.078-3.677-0.14 c-0.162-0.008-0.323-0.021-0.485-0.029c-1.297-0.068-2.592-0.148-3.883-0.246l-0.067-0.006 c-40.461-3.07-78.085-20.298-107.078-49.291C87.683,328.1,70,285.408,70,240s17.683-88.1,49.792-120.208 c28.993-28.993,66.617-46.221,107.078-49.291l0.067-0.006c1.291-0.098,2.586-0.178,3.883-0.246 c0.162-0.009,0.323-0.021,0.485-0.029c1.223-0.062,2.449-0.104,3.677-0.14c0.227-0.007,0.45-0.02,0.677-0.025 C237.104,70.02,238.55,70,240,70h0.009l0.218,0.003c1.371,0.001,2.739,0.018,4.105,0.052c0.387,0.01,0.771,0.03,1.158,0.043 c1.06,0.033,2.119,0.067,3.175,0.12c0.334,0.017,0.665,0.042,0.999,0.062c1.117,0.062,2.234,0.128,3.348,0.211 c0.208,0.017,0.414,0.037,0.622,0.054c1.245,0.099,2.489,0.206,3.729,0.331l0.18,0.02c33.405,3.403,64.708,16.501,90.601,37.924 l0.022,0.019c0.997,0.825,1.989,1.661,2.97,2.511c0.741,0.641,1.471,1.294,2.199,1.947c0.257,0.229,0.518,0.453,0.773,0.686 c4.172,3.779,8.155,7.764,11.934,11.936c0.102,0.111,0.198,0.225,0.299,0.336c0.789,0.876,1.572,1.756,2.343,2.647 c0.723,0.835,1.431,1.679,2.136,2.525c0.133,0.16,0.27,0.317,0.402,0.479c18.688,22.604,31.032,49.326,36.127,77.97l0.008,0.045 c0.209,1.18,0.403,2.363,0.588,3.55c0.043,0.271,0.089,0.541,0.131,0.812c0.137,0.911,0.26,1.825,0.383,2.739 c0.073,0.543,0.152,1.084,0.221,1.629c0.076,0.615,0.141,1.233,0.211,1.85c0.096,0.836,0.193,1.672,0.277,2.512 c0.027,0.273,0.047,0.549,0.073,0.823c0.502,5.322,0.77,10.713,0.77,16.167s-0.268,10.845-0.77,16.167 C409.213,256.441,409.194,256.717,409.166,256.99z M250.802,100.411l-0.034-0.003c-1.08-0.082-2.164-0.148-3.25-0.206 c-0.115-0.006-0.229-0.016-0.345-0.021c-1.012-0.051-2.027-0.086-3.045-0.115c-0.183-0.005-0.363-0.016-0.546-0.021 c-1.189-0.029-2.381-0.045-3.578-0.045H240l-0.225,0.003c-1.113,0.002-2.224,0.015-3.331,0.042 c-0.339,0.009-0.677,0.026-1.015,0.037c-0.854,0.027-1.707,0.055-2.557,0.098c-0.285,0.014-0.569,0.036-0.855,0.052 c-0.907,0.051-1.814,0.104-2.717,0.172c-0.192,0.015-0.384,0.034-0.575,0.05c-1.006,0.08-2.011,0.166-3.011,0.268l-0.189,0.021 c-28.161,2.893-53.849,14.131-74.547,31.202c-0.128,0.106-0.254,0.215-0.381,0.321c-0.7,0.581-1.396,1.167-2.083,1.761 c-0.778,0.674-1.551,1.357-2.316,2.051l-0.134,0.117c-0.944,0.857-1.878,1.732-2.803,2.618c-0.415,0.396-0.822,0.801-1.232,1.202 c-0.338,0.332-0.681,0.656-1.016,0.991c-0.131,0.131-0.255,0.268-0.385,0.399c-0.895,0.901-1.775,1.816-2.645,2.742 c-0.24,0.254-0.484,0.506-0.723,0.762c-1.103,1.191-2.191,2.397-3.253,3.627c-0.486,0.562-0.964,1.133-1.44,1.703 c-0.217,0.258-0.437,0.513-0.65,0.771c-14.896,18.07-25.345,39.941-29.68,63.938c-0.021,0.117-0.045,0.233-0.065,0.351 c-0.151,0.854-0.289,1.713-0.426,2.572c-0.054,0.341-0.112,0.681-0.164,1.022c-0.094,0.62-0.176,1.244-0.261,1.866 c-0.079,0.576-0.162,1.149-0.233,1.727c-0.045,0.359-0.082,0.721-0.124,1.08c-0.098,0.837-0.194,1.673-0.277,2.512l-0.011,0.125 C100.233,230.742,100,235.344,100,240s0.232,9.258,0.677,13.797l0.011,0.125c0.083,0.839,0.18,1.675,0.277,2.512 c0.042,0.359,0.079,0.721,0.124,1.08c0.071,0.577,0.154,1.15,0.233,1.727c0.085,0.622,0.167,1.246,0.261,1.866 c0.052,0.342,0.11,0.682,0.164,1.022c0.137,0.859,0.274,1.719,0.426,2.572c0.021,0.117,0.044,0.233,0.065,0.351 c4.335,23.997,14.784,45.868,29.68,63.938c0.214,0.259,0.434,0.514,0.65,0.771c0.477,0.57,0.954,1.141,1.44,1.703 c1.062,1.229,2.149,2.436,3.253,3.627c0.238,0.257,0.484,0.508,0.724,0.764c0.869,0.924,1.749,1.838,2.642,2.739 c0.131,0.132,0.255,0.269,0.387,0.4c0.335,0.335,0.678,0.66,1.016,0.991c0.41,0.402,0.817,0.806,1.232,1.202 c0.925,0.886,1.858,1.761,2.803,2.618l0.134,0.117c0.766,0.693,1.538,1.377,2.316,2.051c0.688,0.594,1.383,1.18,2.083,1.761 c0.127,0.106,0.253,0.215,0.381,0.321c20.698,17.071,46.386,28.31,74.547,31.202l0.189,0.021c1,0.102,2.005,0.188,3.011,0.268 c0.191,0.016,0.383,0.035,0.575,0.05c0.902,0.067,1.81,0.121,2.717,0.172c0.286,0.016,0.57,0.038,0.855,0.052 c0.85,0.043,1.703,0.07,2.557,0.098c0.338,0.011,0.676,0.028,1.015,0.037c1.107,0.027,2.218,0.04,3.331,0.042L240,380h0.004 c1.197,0,2.389-0.016,3.578-0.045c0.183-0.005,0.363-0.016,0.546-0.021c1.018-0.029,2.033-0.064,3.045-0.115 c0.115-0.006,0.229-0.016,0.345-0.021c1.086-0.058,2.17-0.124,3.25-0.206l0.034-0.003C323.074,374.074,380,313.686,380,240 S323.074,105.926,250.802,100.411z M148.406,260c-11.046,0-20-8.954-20-20s8.954-20,20-20s20,8.954,20,20S159.452,260,148.406,260z M188.406,200c-11.046,0-20-8.954-20-20s8.954-20,20-20s20,8.954,20,20S199.452,200,188.406,200z M228.406,260 c-11.046,0-20-8.954-20-20s8.954-20,20-20s20,8.954,20,20S239.452,260,228.406,260z"/></svg>