<?xml version="1.0" encoding="iso-8859-1"?>
<!-- Generator: Adobe Illustrator 23.0.4, SVG Export Plug-In . SVG Version: 6.00 Build 0)  -->
<svg version="1.1" xmlns="http://www.w3.org/2000/svg" xmlns:xlink="http://www.w3.org/1999/xlink" x="0px" y="0px"
	 viewBox="0 0 480 480" style="enable-background:new 0 0 480 480;" xml:space="preserve">
<g id="Layer_5_copy">
	
		<path style="display:none;fill:none;stroke:#FFFFFF;stroke-width:20;stroke-linecap:round;stroke-linejoin:round;stroke-miterlimit:10;" d="
		M478.085,196.442L213.08,293.773c-45.366,16.512-96.052-1.745-120.469-43.393l-30.696-52.358l19.453-10.795l27.827,46.133
		c0.522,0.865,1.053,1.724,1.595,2.577c25.239,39.756,64.727,61.746,110.044,48.945c0,0,30.361-4.983,92.596-27.635"/>
	<g style="display:none;">
		
			<polygon style="display:inline;fill:none;stroke:#000000;stroke-width:20;stroke-linecap:round;stroke-linejoin:round;stroke-miterlimit:10;" points="
			256.356,327.312 263.743,247.024 190.824,281.426 94.964,348.59 154.76,402.667 226.028,440.362 		"/>
		
			<polyline style="display:inline;fill:none;stroke:#000000;stroke-width:20;stroke-linecap:round;stroke-linejoin:round;stroke-miterlimit:10;" points="
			408.956,39.638 154.76,402.667 242.571,378.698 		"/>
		
			<line style="display:inline;fill:none;stroke:#000000;stroke-width:20;stroke-linecap:round;stroke-linejoin:round;stroke-miterlimit:10;" x1="147.517" y1="311.769" x2="154.76" y2="402.667"/>
		
			<line style="display:inline;fill:none;stroke:#000000;stroke-width:20;stroke-linecap:round;stroke-linejoin:round;stroke-miterlimit:10;" x1="194.911" y1="345.327" x2="250.62" y2="335.504"/>
		
			<line style="display:inline;fill:none;stroke:#000000;stroke-width:20;stroke-linecap:round;stroke-linejoin:round;stroke-miterlimit:10;" x1="185.088" y1="289.617" x2="194.911" y2="345.327"/>
		<circle style="display:inline;fill-rule:evenodd;clip-rule:evenodd;" cx="100" cy="240" r="40.003"/>
	</g>
	<path d="M375.835,61.831c-4.522-3.169-10.759-2.067-13.927,2.456L249.622,224.658l-70.526,33.271l-0.066,0.036
		c-0.206,0.098-0.404,0.209-0.603,0.321l-0.221,0.118l-84.388,50.78c-2.335,1.405-3.995,3.703-4.597,6.36
		c-0.602,2.658-0.093,5.447,1.41,7.721l47.423,71.77l0.022,0.031c0.062,0.092,0.129,0.18,0.193,0.27l0.173,0.247l0.078,0.091
		l0.129,0.168c0.107,0.131,0.223,0.253,0.336,0.379l0.15,0.169l0.091,0.103l0.061,0.059c0.113,0.114,0.234,0.221,0.354,0.33
		c0.113,0.104,0.225,0.211,0.342,0.31l0.079,0.069l0.08,0.06l0.238,0.178c0.116,0.088,0.23,0.178,0.351,0.261l0.201,0.134
		l0.263,0.159c0.11,0.068,0.219,0.139,0.333,0.202c0.112,0.062,0.229,0.12,0.344,0.18l0.258,0.126l0.241,0.113
		c0.165,0.072,0.334,0.137,0.504,0.2l0.227,0.089l0.161,0.053c0.181,0.06,0.365,0.11,0.551,0.159l0.258,0.075l0.062,0.015
		l0.008,0.002l83.57,19.983c0.768,0.184,1.548,0.274,2.325,0.274c1.902,0,3.783-0.543,5.41-1.59c2.292-1.475,3.883-3.82,4.405-6.495
		l18.858-96.663c0.018-0.092,0.024-0.185,0.039-0.277c0.036-0.212,0.07-0.424,0.092-0.64l0.012-0.082l7.141-77.629L378.291,75.758
		C381.459,71.233,380.359,64.998,375.835,61.831z M113.068,320.943l22.975-13.825l0.21,48.913L113.068,320.943z M226.503,257.679
		L195.61,301.8l-1.835-28.683L226.503,257.679z M155.991,295.114l18.441-11.097l2.815,44.009l-20.986,29.973L155.991,295.114z
		 M222.218,397.371l-40.725-9.738l45.809-16.322L222.218,397.371z M231.754,348.492l-59.188,21.09l21.078-30.104l42.287-12.397
		L231.754,348.492z M239.558,305.176l-27.553,8.078l30.865-44.084L239.558,305.176z M412.738,357.081
		c-12.67-18.095-37.609-22.492-55.704-9.822s-22.492,37.609-9.822,55.704s37.609,22.492,55.704,9.822
		S425.408,375.176,412.738,357.081z"/>
</g>
<g id="Layer_3">
</g>
</svg>
