<?xml version="1.0" encoding="iso-8859-1"?>
<!-- Generator: Adobe Illustrator 23.0.4, SVG Export Plug-In . SVG Version: 6.00 Build 0)  -->
<svg version="1.1" xmlns="http://www.w3.org/2000/svg" xmlns:xlink="http://www.w3.org/1999/xlink" x="0px" y="0px"
	 viewBox="0 0 480 480" style="enable-background:new 0 0 480 480;" xml:space="preserve">
<g id="Layer_4_copy">
	<path d="M289.794,385.354c-6.19-2.596-10.897-7.757-12.915-14.158c-1.863-5.91-1.242-12.268,1.683-17.676l-2.838-5.61
		c-3.6-7.116-3.256-15.421,0.921-22.215c4.178-6.794,11.432-10.85,19.402-10.849c0.196,0,0.394,0.002,0.607,0.008l6.968,0.185
		l1.07-1.382c2.772-3.577,6.446-6.182,10.585-7.598c0.264-4.745,2.013-9.323,5.093-13.103c4.344-5.331,10.78-8.389,17.658-8.389
		h0.108l2.833-4.308c4.227-6.424,11.342-10.259,19.031-10.259c7.69,0,14.805,3.836,19.031,10.26l2.833,4.307h0.108
		c6.031,0,11.723,2.353,15.963,6.526c0.271-0.59,0.545-1.18,0.812-1.771c0.278-0.621,0.553-1.242,0.826-1.864
		c0.448-1.019,0.891-2.04,1.325-3.063c0.264-0.619,0.525-1.238,0.784-1.858c0.441-1.062,0.874-2.128,1.302-3.194
		c0.23-0.575,0.465-1.149,0.691-1.727c0.486-1.236,0.959-2.477,1.426-3.719c0.151-0.401,0.309-0.801,0.457-1.203
		c0.617-1.664,1.217-3.332,1.8-5.005c0.079-0.229,0.154-0.461,0.233-0.691c0.494-1.43,0.977-2.862,1.445-4.3
		c0.172-0.523,0.335-1.049,0.502-1.574c0.368-1.15,0.73-2.301,1.082-3.455c0.183-0.6,0.36-1.199,0.539-1.799
		c0.326-1.098,0.646-2.197,0.958-3.299c0.172-0.607,0.343-1.216,0.511-1.824c0.31-1.124,0.609-2.249,0.905-3.375
		c0.149-0.574,0.303-1.148,0.449-1.723c0.318-1.252,0.625-2.505,0.926-3.76c0.105-0.441,0.217-0.883,0.32-1.324
		c0.805-3.434,1.542-6.88,2.212-10.337c0.082-0.423,0.157-0.847,0.236-1.271c0.245-1.294,0.483-2.589,0.709-3.886
		c0.096-0.553,0.187-1.106,0.279-1.659c0.198-1.181,0.391-2.361,0.572-3.544c0.091-0.585,0.179-1.171,0.265-1.758
		c0.175-1.178,0.34-2.356,0.498-3.536c0.076-0.562,0.152-1.125,0.225-1.688c0.163-1.271,0.314-2.541,0.459-3.812
		c0.053-0.462,0.109-0.924,0.16-1.386c0.183-1.678,0.353-3.356,0.505-5.038l0.015-0.147c0.161-1.794,0.305-3.59,0.432-5.387
		c0.019-0.256,0.031-0.513,0.049-0.769c0.101-1.482,0.191-2.966,0.269-4.45c0.025-0.493,0.045-0.986,0.068-1.479
		c0.059-1.26,0.111-2.521,0.153-3.782c0.019-0.552,0.033-1.104,0.049-1.655c0.033-1.224,0.059-2.447,0.076-3.67
		c0.008-0.549,0.017-1.099,0.021-1.647c0.011-1.274,0.012-2.548,0.005-3.822c-0.002-0.479-0.001-0.959-0.006-1.438
		c-0.016-1.512-0.044-3.024-0.083-4.537c-0.006-0.232-0.008-0.467-0.015-0.699c-0.605-21.419-3.623-42.84-8.956-63.857l-0.028-0.111
		c-0.461-1.812-0.939-3.622-1.435-5.428c-0.041-0.149-0.081-0.298-0.122-0.446c-0.503-1.825-1.021-3.646-1.56-5.464l-0.02-0.066
		c-1.112-3.755-2.3-7.494-3.561-11.215c-0.055-0.162-0.112-0.323-0.167-0.484c-0.544-1.597-1.103-3.189-1.674-4.778
		c-0.136-0.378-0.273-0.755-0.411-1.133c-0.516-1.418-1.043-2.833-1.581-4.244c-0.148-0.392-0.296-0.782-0.446-1.173
		c-0.607-1.577-1.229-3.149-1.863-4.719c-0.07-0.176-0.139-0.352-0.21-0.526c-0.722-1.774-1.461-3.544-2.218-5.308
		c-0.111-0.262-0.228-0.521-0.341-0.781c-0.619-1.435-1.249-2.865-1.892-4.293c-0.239-0.531-0.484-1.062-0.727-1.594
		c-0.536-1.173-1.079-2.343-1.63-3.51c-0.274-0.58-0.549-1.16-0.826-1.738c-0.562-1.172-1.134-2.34-1.711-3.505
		c-0.258-0.521-0.513-1.044-0.774-1.563c-0.828-1.651-1.67-3.297-2.53-4.937l-0.015-0.03c-0.218-0.414-0.459-0.812-0.723-1.192
		c-1.847-2.667-4.777-4.49-8.02-4.929c-1.878-0.254-3.757-0.485-5.635-0.704c-0.577-0.067-1.154-0.128-1.732-0.192
		c-1.325-0.147-2.65-0.287-3.976-0.417c-0.644-0.063-1.287-0.124-1.93-0.183c-1.336-0.123-2.672-0.234-4.008-0.34
		c-0.562-0.045-1.126-0.092-1.689-0.133c-3.764-0.275-7.525-0.48-11.282-0.617c-0.557-0.021-1.113-0.034-1.67-0.051
		c-1.344-0.042-2.688-0.076-4.029-0.1c-0.625-0.011-1.249-0.021-1.873-0.027c-1.358-0.016-2.716-0.021-4.072-0.02
		c-0.532,0.002-1.064-0.001-1.596,0.003c-3.76,0.025-7.513,0.122-11.257,0.286c-0.531,0.023-1.062,0.053-1.593,0.078
		c-1.359,0.067-2.717,0.143-4.073,0.228c-0.595,0.037-1.189,0.076-1.783,0.116c-1.382,0.096-2.761,0.201-4.14,0.314
		c-0.495,0.041-0.99,0.078-1.485,0.122c-3.733,0.326-7.456,0.723-11.164,1.188c-0.509,0.063-1.017,0.134-1.525,0.2
		c-1.359,0.178-2.717,0.363-4.072,0.559c-0.57,0.083-1.141,0.166-1.711,0.252c-1.384,0.209-2.765,0.428-4.144,0.656
		c-0.467,0.076-0.935,0.15-1.401,0.229c-13.636,2.317-27.047,5.585-40.128,9.778h-0.003c-12.133,3.889-23.98,8.576-35.456,14.053
		l-0.271,0.13c-1.533,0.733-3.06,1.481-4.578,2.243c-0.107,0.053-0.214,0.105-0.32,0.16c-1.566,0.787-3.127,1.59-4.679,2.407
		l-0.069,0.036c-6.389,3.369-12.648,6.99-18.766,10.862c-0.17,0.107-0.339,0.217-0.508,0.325c-1.31,0.832-2.611,1.676-3.907,2.531
		c-0.263,0.174-0.525,0.35-0.788,0.524c-1.214,0.808-2.422,1.626-3.624,2.454c-0.284,0.195-0.568,0.391-0.851,0.588
		c-1.214,0.843-2.42,1.697-3.621,2.561c-0.24,0.173-0.482,0.344-0.723,0.518c-1.358,0.984-2.71,1.981-4.051,2.992l-0.191,0.142
		c-2.884,2.177-5.729,4.415-8.531,6.714c-0.181,0.148-0.359,0.3-0.539,0.448c-1.164,0.96-2.322,1.93-3.473,2.91
		c-0.349,0.299-0.695,0.601-1.044,0.901c-0.979,0.845-1.954,1.695-2.922,2.555c-0.406,0.36-0.81,0.723-1.214,1.086
		c-0.912,0.819-1.818,1.646-2.721,2.48c-0.418,0.385-0.835,0.771-1.25,1.16c-0.899,0.842-1.793,1.693-2.683,2.549
		c-0.392,0.377-0.785,0.752-1.175,1.132c-0.968,0.942-1.926,1.896-2.881,2.854c-0.295,0.296-0.594,0.588-0.887,0.886
		c-2.498,2.531-4.95,5.118-7.357,7.763c-0.341,0.373-0.675,0.754-1.013,1.129c-0.846,0.939-1.688,1.883-2.523,2.836
		c-0.425,0.486-0.846,0.979-1.269,1.469c-0.739,0.858-1.477,1.72-2.207,2.589c-0.449,0.534-0.895,1.071-1.34,1.609
		c-0.701,0.848-1.396,1.7-2.089,2.559c-0.444,0.55-0.888,1.102-1.328,1.657c-0.695,0.876-1.384,1.76-2.069,2.646
		c-0.418,0.54-0.838,1.078-1.252,1.622c-0.736,0.967-1.463,1.943-2.188,2.922c-0.35,0.472-0.703,0.938-1.05,1.413
		c-1.062,1.455-2.115,2.921-3.152,4.403h-0.001c-1.037,1.482-2.055,2.974-3.059,4.47c-0.328,0.488-0.646,0.981-0.971,1.472
		c-0.671,1.014-1.339,2.028-1.994,3.049c-0.371,0.578-0.735,1.159-1.102,1.74c-0.598,0.946-1.191,1.893-1.775,2.844
		c-0.371,0.604-0.737,1.208-1.103,1.814c-0.57,0.944-1.134,1.891-1.691,2.841c-0.353,0.601-0.704,1.203-1.053,1.806
		c-0.567,0.985-1.126,1.974-1.68,2.964c-0.315,0.563-0.633,1.125-0.943,1.69c-0.612,1.112-1.212,2.229-1.807,3.349
		c-0.236,0.443-0.478,0.885-0.711,1.33c-1.661,3.166-3.254,6.357-4.778,9.569c-0.18,0.377-0.351,0.757-0.528,1.134
		c-0.575,1.227-1.144,2.456-1.699,3.688c-0.223,0.495-0.439,0.991-0.659,1.486c-0.5,1.13-0.995,2.261-1.479,3.396
		c-0.224,0.523-0.444,1.048-0.664,1.573c-0.474,1.13-0.939,2.263-1.397,3.398c-0.204,0.507-0.408,1.013-0.608,1.521
		c-0.476,1.199-0.939,2.402-1.396,3.607c-0.165,0.434-0.332,0.867-0.494,1.301c-0.527,1.412-1.04,2.826-1.542,4.244
		c-0.08,0.225-0.163,0.448-0.242,0.673c-1.201,3.419-2.331,6.857-3.39,10.312l-0.068,0.227c-0.491,1.607-0.966,3.219-1.426,4.832
		c-0.081,0.283-0.158,0.568-0.238,0.852c-0.401,1.424-0.791,2.85-1.168,4.279c-0.089,0.336-0.176,0.672-0.264,1.008
		c-0.365,1.407-0.72,2.817-1.062,4.229c-0.076,0.313-0.152,0.627-0.228,0.939c-0.36,1.507-0.706,3.016-1.041,4.527
		c-0.043,0.197-0.089,0.394-0.132,0.592c-1.546,7.07-2.809,14.191-3.789,21.348l-0.01,0.076c-0.238,1.738-0.458,3.479-0.662,5.219
		c-0.014,0.121-0.027,0.24-0.041,0.36c-0.195,1.685-0.376,3.37-0.541,5.056c-0.01,0.106-0.021,0.213-0.031,0.318
		c-1.219,12.652-1.572,25.385-1.077,38.112v0.007c0.534,13.724,2.051,27.44,4.535,41.043c0.087,0.478,0.18,0.953,0.27,1.431
		c0.255,1.359,0.519,2.718,0.793,4.075c0.117,0.576,0.235,1.153,0.355,1.73c0.276,1.323,0.562,2.646,0.856,3.967
		c0.115,0.517,0.228,1.033,0.345,1.549c0.83,3.634,1.728,7.257,2.694,10.867c0.134,0.496,0.272,0.992,0.408,1.488
		c0.359,1.315,0.727,2.63,1.105,3.942c0.168,0.584,0.338,1.168,0.51,1.751c0.38,1.29,0.771,2.578,1.168,3.864
		c0.16,0.52,0.318,1.04,0.481,1.56c1.124,3.566,2.314,7.118,3.573,10.652c0.183,0.514,0.371,1.024,0.557,1.537
		c0.458,1.263,0.923,2.523,1.396,3.783c0.225,0.593,0.45,1.186,0.678,1.777c0.477,1.24,0.962,2.477,1.455,3.712
		c0.211,0.529,0.42,1.059,0.634,1.587c0.701,1.729,1.415,3.456,2.149,5.176l0.011,0.024c0.739,1.731,1.499,3.456,2.272,5.177
		c0.233,0.521,0.474,1.039,0.711,1.56c0.552,1.212,1.111,2.423,1.68,3.629c0.277,0.588,0.557,1.176,0.838,1.763
		c0.574,1.197,1.157,2.393,1.747,3.585c0.259,0.522,0.515,1.047,0.776,1.569c0.848,1.688,1.708,3.374,2.588,5.051
		c0.218,0.414,0.459,0.812,0.723,1.193c1.583,2.286,3.962,3.951,6.651,4.657c0.448,0.118,0.905,0.208,1.368,0.271
		c1.849,0.249,3.696,0.479,5.545,0.694c0.57,0.066,1.141,0.126,1.71,0.189c1.3,0.145,2.6,0.283,3.899,0.412
		c0.638,0.062,1.275,0.122,1.912,0.181c1.285,0.119,2.57,0.229,3.854,0.331c0.582,0.047,1.165,0.095,1.747,0.138
		c1.562,0.116,3.122,0.218,4.683,0.31c0.283,0.018,0.566,0.038,0.85,0.054c1.915,0.107,3.83,0.196,5.743,0.268
		c0.195,0.007,0.39,0.011,0.585,0.019c1.683,0.059,3.365,0.104,5.047,0.136c0.425,0.008,0.85,0.013,1.274,0.019
		c1.507,0.022,3.013,0.034,4.518,0.034c0.402,0,0.805,0,1.207-0.001c1.687-0.008,3.372-0.027,5.057-0.062
		c0.173-0.003,0.346-0.004,0.519-0.008c3.928-0.088,7.847-0.252,11.755-0.49l0.067-0.004c1.892-0.116,3.78-0.252,5.666-0.403
		c0.155-0.013,0.312-0.025,0.468-0.038c1.865-0.152,3.728-0.321,5.587-0.508l0.116-0.012c7.854-0.793,15.654-1.895,23.38-3.299
		l0.005-0.001c13.491-2.454,26.756-5.829,39.686-10.126c0.219-0.072,0.436-0.148,0.653-0.222c1.437-0.481,2.869-0.973,4.297-1.476
		c0.455-0.161,0.907-0.326,1.361-0.489c1.196-0.429,2.391-0.864,3.581-1.309c0.518-0.193,1.034-0.39,1.551-0.587
		c1.14-0.434,2.275-0.873,3.409-1.321c0.517-0.204,1.034-0.409,1.551-0.616c1.167-0.47,2.331-0.949,3.491-1.434
		c0.459-0.191,0.918-0.381,1.375-0.574c1.359-0.576,2.713-1.165,4.062-1.762c0.244-0.109,0.491-0.213,0.736-0.322
		c1.641-0.732,3.275-1.479,4.902-2.243l0.188-0.091c1.509-0.709,3.012-1.435,4.509-2.172c0.422-0.208,0.842-0.422,1.263-0.632
		c1.14-0.569,2.276-1.143,3.408-1.727c0.509-0.263,1.015-0.528,1.521-0.794c1.052-0.552,2.1-1.109,3.144-1.674
		c0.523-0.282,1.045-0.566,1.565-0.852c1.047-0.574,2.089-1.158,3.128-1.746c0.49-0.277,0.982-0.554,1.471-0.835
		c1.138-0.653,2.269-1.317,3.396-1.987c0.375-0.223,0.752-0.44,1.126-0.664c3.018-1.812,6.002-3.682,8.951-5.611
		c0.384-0.251,0.764-0.508,1.146-0.761c1.073-0.71,2.143-1.424,3.205-2.148c0.493-0.336,0.982-0.677,1.473-1.017
		c0.955-0.66,1.907-1.326,2.854-2c0.517-0.367,1.031-0.736,1.545-1.107c0.451-0.325,0.897-0.656,1.346-0.984
		c-0.019-0.438-0.044-0.874-0.037-1.312L289.794,385.354z M292.137,63.164c0.209-0.036,0.42-0.07,0.63-0.104l0.623-0.102
		c1.241-0.205,2.484-0.402,3.731-0.591c0.51-0.077,1.02-0.151,1.536-0.226c1.218-0.177,2.437-0.344,3.655-0.502l0.605-0.08
		c0.258-0.034,0.515-0.068,0.77-0.101c3.333-0.418,6.713-0.778,10.046-1.069c0.231-0.021,0.465-0.039,0.697-0.057l0.638-0.053
		c1.242-0.102,2.485-0.197,3.729-0.283c0.263-0.018,0.523-0.034,0.785-0.051c15.179,21.086,37.273,36.556,62.279,43.606
		c0.348,1.198,0.7,2.443,1.072,3.792l0.051,0.187l0.046,0.168c0.451,1.644,0.886,3.289,1.292,4.888l0.025,0.099
		c1.96,7.725,3.551,15.513,4.808,23.322l-5.846-1.222c-38.657-8.077-72.765-31.959-93.575-65.522l-3.155-5.088
		C288.43,63.821,290.282,63.479,292.137,63.164z M191.025,415.85l-0.109,0.021c-6.894,1.251-13.933,2.242-20.922,2.947l-0.102,0.011
		c-1.629,0.163-3.323,0.317-5.036,0.457l-0.189,0.016l-0.228,0.02c-1.365,0.109-2.637,0.199-3.882,0.281
		c-15.177-21.084-37.271-36.554-62.274-43.605c-0.075-0.257-0.15-0.514-0.225-0.77c-0.34-1.181-0.67-2.362-0.993-3.543l-0.179-0.651
		c-0.064-0.234-0.13-0.468-0.19-0.694c-0.863-3.225-1.68-6.516-2.423-9.771c-0.065-0.29-0.13-0.58-0.194-0.871l-0.118-0.535
		c-0.265-1.188-0.521-2.375-0.77-3.564c-0.108-0.519-0.215-1.037-0.319-1.554c-0.247-1.222-0.484-2.444-0.713-3.665l-0.117-0.619
		c-0.042-0.221-0.085-0.44-0.126-0.667c-0.337-1.847-0.647-3.698-0.945-5.554l5.86,1.225c38.657,8.077,72.765,31.959,93.575,65.522
		l3.151,5.082C192.714,415.528,191.871,415.696,191.025,415.85z M272.824,277.719c-2.972,0-5.972-0.88-8.591-2.714l-20.479-14.339
		l-22.943,32.766l20.479,14.34c6.786,4.752,8.436,14.104,3.684,20.891c-2.918,4.167-7.572,6.397-12.3,6.397
		c-2.972,0-5.973-0.88-8.591-2.714l-20.479-14.34l-14.34,20.479c-2.918,4.167-7.572,6.397-12.3,6.397
		c-2.972,0-5.972-0.88-8.591-2.714c-6.786-4.752-8.436-14.104-3.684-20.891l14.34-20.479l-20.479-14.34
		c-6.786-4.752-8.436-14.104-3.684-20.891s14.107-8.436,20.891-3.684l20.479,14.34l22.943-32.766l-20.479-14.34
		c-6.786-4.752-8.436-14.104-3.684-20.891s14.104-8.436,20.891-3.684l20.479,14.34l22.943-32.767l-20.479-14.34
		c-6.786-4.751-8.436-14.104-3.684-20.891s14.104-8.435,20.891-3.684l20.479,14.34l14.34-20.479
		c4.752-6.787,14.104-8.435,20.891-3.684c6.786,4.752,8.436,14.104,3.684,20.891l-14.34,20.479l20.479,14.339
		c6.786,4.751,8.436,14.104,3.684,20.891c-2.918,4.167-7.572,6.397-12.3,6.397c-2.972,0-5.972-0.88-8.591-2.714l-20.479-14.339
		l-22.943,32.767l20.479,14.339c6.786,4.752,8.436,14.104,3.684,20.891C282.206,275.488,277.552,277.719,272.824,277.719z
		 M423.955,334.846l-0.078,0.001l-17.098,0.453l-7.278-9.392c-0.556-0.716-1.376-1.077-2.198-1.077
		c-0.787,0-1.575,0.331-2.132,0.997l-18.797,22.479l8.322-40.397c0.355-1.726-0.962-3.342-2.723-3.342h-10.891l-8.76-13.314
		c-0.549-0.834-1.436-1.252-2.322-1.252s-1.773,0.418-2.323,1.252l-8.759,13.314h-10.892c-1.761,0-3.078,1.616-2.723,3.342
		l8.322,40.397l-18.796-22.479c-0.557-0.666-1.345-0.997-2.132-0.997c-0.822,0-1.644,0.36-2.198,1.077l-7.279,9.392l-17.098-0.453
		l-0.077-0.001c-2.062,0-3.415,2.18-2.477,4.035l7.928,15.671l-5.244,8.312c-0.918,1.453-0.31,3.383,1.275,4.047l37.355,15.666
		l-2.568,11.915c-0.38,1.762,0.98,3.367,2.707,3.367c0.148,0,0.298-0.012,0.45-0.036l16.649-2.668
		c0.209-0.034,0.421-0.051,0.634-0.051h2.61v30.264c0,2.56,2.074,4.634,4.634,4.634c2.559,0,4.634-2.074,4.634-4.634v-30.264h2.612
		c0.211,0,0.421,0.017,0.629,0.05l16.651,2.669c0.152,0.024,0.303,0.036,0.45,0.036c1.727,0,3.088-1.605,2.708-3.367l-2.569-11.915
		l37.355-15.666c1.585-0.664,2.193-2.594,1.276-4.047l-5.244-8.312l7.928-15.671C427.37,337.025,426.015,334.846,423.955,334.846z"
		/>
</g>
<g id="Layer_5">
</g>
</svg>
