<svg xmlns="http://www.w3.org/2000/svg" width="1000pt" height="1000pt" viewBox="0 0 1000 1000"><path d="M 688.503906 334.074219 L 459.175781 661.300781 C 455.503906 666.542969 449.132812 669.359375 442.835938 668.183594 C 415.585938 663.097656 386.628906 673.847656 369.695312 698.03125 L 307.171875 787.324219 C 318.871094 790.167969 332.015625 791.816406 347.941406 791.816406 C 352.046875 791.816406 356.347656 791.703125 360.710938 791.488281 C 412.566406 788.890625 434.65625 774.078125 465.234375 753.582031 C 476.273438 746.183594 488.140625 738.238281 501.734375 730.636719 C 500.476562 720.808594 497.234375 711.253906 492.113281 702.617188 C 488.839844 697.101562 489.308594 690.128906 492.992188 684.871094 L 722.324219 357.640625 C 725.996094 352.398438 732.367188 349.582031 738.660156 350.757812 C 765.90625 355.835938 794.859375 345.085938 811.792969 320.902344 L 891.855469 206.566406 C 897.132812 199.023438 895.300781 188.632812 887.761719 183.351562 L 795.605469 118.824219 C 788.066406 113.542969 777.675781 115.378906 772.394531 122.917969 L 692.332031 237.257812 C 675.363281 261.488281 675.199219 292.441406 689.375 316.324219 C 692.648438 321.84375 692.1875 328.820312 688.503906 334.074219 Z M 270.832031 479.167969 C 385.832031 479.167969 479.167969 385.832031 479.167969 270.832031 C 479.167969 155.730469 385.832031 62.5 270.832031 62.5 C 155.730469 62.5 62.5 155.730469 62.5 270.832031 C 62.5 385.832031 155.730469 479.167969 270.832031 479.167969 Z M 330.3125 346.980469 L 330.207031 346.875 L 330.105469 346.667969 L 329.792969 346.25 C 320.417969 331.5625 308.957031 318.542969 295.9375 306.976562 C 295.105469 306.246094 294.167969 305.414062 293.332031 304.683594 C 291.042969 302.601562 288.753906 300.621094 286.355469 298.746094 C 284.6875 297.496094 282.917969 296.246094 281.144531 295.101562 C 280.417969 294.582031 279.6875 294.164062 278.957031 293.644531 C 276.042969 291.558594 272.917969 289.582031 269.792969 287.703125 C 267.8125 288.851562 265.625 289.789062 263.4375 290.726562 C 262.1875 291.246094 260.9375 291.765625 259.6875 292.390625 C 258.855469 292.808594 258.125 293.226562 257.292969 293.644531 C 256.355469 294.164062 255.3125 294.683594 254.378906 295.101562 C 253.960938 295.308594 253.441406 295.414062 252.917969 295.621094 C 252.503906 295.832031 252.085938 295.933594 251.667969 296.144531 C 245.628906 298.746094 239.378906 300.933594 233.128906 303.019531 C 232.816406 303.226562 232.394531 303.328125 232.085938 303.433594 C 231.566406 303.644531 230.941406 303.851562 230.3125 304.058594 C 230.105469 304.164062 229.792969 304.269531 229.582031 304.269531 L 229.167969 304.269531 C 209.066406 310.414062 188.125 313.957031 166.980469 313.957031 L 166.042969 313.957031 C 160.519531 313.851562 155.207031 313.539062 149.894531 313.121094 C 149.6875 313.121094 149.375 313.019531 149.167969 313.019531 C 148.957031 312.914062 148.644531 312.914062 148.433594 312.914062 C 143.644531 312.496094 139.058594 311.871094 134.371094 311.140625 C 133.851562 311.039062 133.226562 311.039062 132.601562 310.933594 C 131.871094 310.828125 131.039062 310.726562 130.207031 310.621094 L 129.683594 310.621094 C 129.476562 310.621094 129.375 310.515625 129.164062 310.515625 C 128.332031 310.414062 127.496094 310.207031 126.664062 309.996094 C 126.144531 309.789062 125.621094 309.683594 125.101562 309.578125 C 121.457031 308.851562 117.808594 308.015625 114.164062 307.082031 C 113.75 306.976562 113.230469 306.871094 112.8125 306.769531 C 112.1875 306.664062 111.457031 306.558594 110.832031 306.351562 C 110.625 306.246094 110.3125 306.246094 110.105469 306.144531 C 109.6875 306.039062 109.371094 305.933594 108.957031 305.832031 C 107.394531 305.414062 105.832031 304.894531 104.269531 304.371094 C 103.332031 304.0625 102.496094 303.746094 101.558594 303.4375 C 100.933594 303.125 100.207031 302.917969 99.476562 302.707031 C 98.539062 302.394531 97.605469 302.082031 96.664062 301.769531 C 94.789062 291.5625 93.851562 281.042969 93.851562 270.308594 L 93.851562 268.75 C 97.601562 270.3125 101.351562 271.769531 105.101562 273.125 C 107.078125 273.855469 109.164062 274.480469 111.140625 275.105469 C 115.617188 276.5625 119.996094 277.917969 124.472656 278.960938 C 125.828125 279.269531 127.289062 279.585938 128.742188 279.792969 C 129.578125 280.003906 130.515625 280.105469 131.347656 280.3125 C 132.179688 280.523438 132.910156 280.625 133.742188 280.832031 C 137.179688 281.457031 140.722656 282.1875 144.265625 282.605469 C 143.328125 274.378906 142.703125 266.042969 142.703125 257.605469 C 142.707031 199.582031 165.9375 145.519531 205.3125 105.832031 C 225.519531 97.710938 247.605469 93.230469 270.730469 93.230469 C 210.519531 125.519531 172.394531 188.4375 172.394531 257.605469 C 172.394531 266.5625 173.230469 275.207031 174.480469 283.75 L 175.519531 283.75 C 192.8125 283.019531 209.894531 279.6875 226.355469 274.164062 C 227.292969 273.855469 228.226562 273.539062 229.167969 273.230469 C 232.292969 272.292969 235.3125 271.25 238.332031 269.996094 C 240.105469 269.269531 241.980469 268.332031 243.75 267.5 C 244.6875 267.082031 245.625 266.5625 246.566406 266.144531 C 249.792969 264.582031 253.023438 262.917969 256.25 261.144531 C 256.25 258.855469 256.5625 256.566406 256.769531 254.269531 C 256.875 252.8125 257.082031 251.457031 257.1875 250 C 257.292969 249.167969 257.292969 248.230469 257.292969 247.394531 C 257.394531 246.25 257.394531 245.207031 257.503906 244.0625 C 257.503906 243.542969 257.605469 243.019531 257.710938 242.5 C 257.816406 241.980469 257.816406 241.5625 257.917969 241.144531 C 258.753906 234.582031 259.898438 228.125 261.253906 221.667969 C 261.359375 221.355469 261.359375 220.933594 261.460938 220.625 C 261.566406 219.996094 261.773438 219.269531 261.878906 218.644531 C 261.878906 218.542969 261.878906 218.332031 261.984375 218.125 C 262.085938 217.914062 262.195312 217.8125 262.195312 217.605469 C 266.984375 197.082031 274.277344 177.289062 284.898438 158.957031 L 285.003906 158.75 L 285.109375 158.644531 C 285.214844 158.433594 285.320312 158.332031 285.421875 158.125 C 288.234375 153.542969 291.148438 149.058594 294.171875 144.6875 C 294.378906 144.375 294.484375 144.167969 294.691406 143.957031 C 294.796875 143.851562 295.003906 143.644531 295.109375 143.433594 C 297.816406 139.582031 300.734375 135.832031 303.648438 132.1875 C 304.066406 131.769531 304.382812 131.25 304.796875 130.730469 C 305.210938 130.105469 305.734375 129.480469 306.253906 128.855469 L 306.566406 128.441406 C 306.671875 128.230469 306.773438 128.128906 306.878906 128.023438 C 307.398438 127.398438 307.917969 126.878906 308.441406 126.355469 C 308.855469 125.941406 309.273438 125.417969 309.691406 125.003906 C 312.191406 122.191406 314.691406 119.480469 317.292969 116.773438 C 317.605469 116.355469 318.023438 116.042969 318.335938 115.628906 C 318.753906 115.105469 319.273438 114.585938 319.691406 114.167969 C 320.105469 113.753906 320.628906 113.230469 321.042969 112.816406 C 322.191406 111.667969 323.335938 110.628906 324.582031 109.585938 C 325.316406 108.960938 326.042969 108.234375 326.773438 107.609375 C 327.398438 107.085938 328.023438 106.460938 328.644531 105.941406 C 329.269531 105.417969 330 104.792969 330.625 104.167969 C 341.144531 107.917969 351.144531 112.605469 360.625 118.230469 C 357.5 120.628906 354.375 123.128906 350.9375 125.003906 C 349.582031 126.148438 348.230469 127.398438 346.875 128.648438 L 346.25 129.273438 C 342.8125 132.398438 339.480469 135.523438 336.25 138.859375 C 335.3125 139.898438 334.375 141.046875 333.433594 142.085938 C 332.914062 142.710938 332.289062 143.441406 331.664062 144.171875 C 331.039062 144.796875 330.519531 145.421875 329.996094 146.042969 C 327.703125 148.753906 325.414062 151.460938 323.226562 154.273438 C 330.828125 157.503906 338.433594 161.148438 345.726562 165.421875 C 395.933594 194.378906 431.144531 241.671875 445.832031 295.523438 C 442.601562 318.128906 435.105469 339.378906 424.058594 358.441406 C 426.144531 290.210938 390.726562 225.730469 330.832031 191.148438 C 323.125 186.773438 315.207031 183.128906 307.183594 179.898438 L 306.976562 180.316406 C 306.871094 180.523438 306.765625 180.730469 306.664062 180.941406 C 298.644531 196.355469 293.019531 212.816406 289.582031 229.792969 C 289.371094 230.628906 289.269531 231.566406 289.058594 232.398438 C 288.433594 235.628906 287.707031 238.859375 287.289062 242.191406 C 287.078125 244.167969 286.871094 246.253906 286.769531 248.230469 C 286.664062 249.273438 286.664062 250.207031 286.558594 251.25 C 286.246094 254.894531 286.144531 258.542969 286.039062 262.1875 C 288.015625 263.441406 289.894531 264.792969 291.765625 266.144531 C 292.808594 266.980469 293.957031 267.707031 295.101562 268.542969 C 295.832031 269.0625 296.664062 269.582031 297.394531 269.996094 C 298.332031 270.519531 299.269531 271.144531 300.207031 271.769531 C 300.621094 272.082031 301.039062 272.394531 301.457031 272.707031 C 301.769531 273.019531 302.082031 273.332031 302.5 273.644531 C 307.8125 277.601562 312.8125 281.871094 317.707031 286.25 C 317.917969 286.457031 318.125 286.558594 318.332031 286.769531 C 318.960938 287.292969 319.585938 287.8125 320.105469 288.332031 L 320.523438 288.746094 L 320.9375 289.164062 C 336.253906 303.644531 349.691406 319.894531 360.3125 338.226562 C 360.417969 338.332031 360.519531 338.539062 360.625 338.746094 C 360.730469 338.957031 360.730469 339.058594 360.832031 339.164062 C 363.542969 343.851562 365.832031 348.644531 368.125 353.4375 C 368.230469 353.746094 368.332031 353.957031 368.4375 354.269531 C 368.542969 354.480469 368.644531 354.683594 368.746094 354.894531 C 370.832031 359.167969 372.605469 363.539062 374.269531 367.914062 C 374.476562 368.542969 374.789062 369.0625 374.996094 369.6875 C 375.308594 370.417969 375.621094 371.144531 375.933594 371.875 C 376.039062 372.082031 376.039062 372.1875 376.144531 372.394531 C 376.25 372.605469 376.25 372.707031 376.355469 372.917969 C 376.5625 373.644531 376.769531 374.269531 376.980469 375 C 377.082031 375.519531 377.292969 376.144531 377.5 376.769531 C 378.644531 380.3125 379.792969 383.855469 380.832031 387.5 C 381.042969 388.019531 381.144531 388.542969 381.355469 389.0625 C 381.566406 389.6875 381.769531 390.207031 381.875 390.832031 C 382.085938 391.460938 382.1875 392.085938 382.394531 392.707031 C 382.8125 394.269531 383.128906 395.9375 383.4375 397.605469 C 383.648438 398.542969 383.75 399.378906 383.957031 400.316406 C 384.167969 401.042969 384.269531 401.878906 384.480469 402.605469 C 384.691406 403.542969 384.894531 404.378906 385.105469 405.316406 C 376.667969 412.398438 367.605469 418.753906 357.917969 424.273438 C 357.503906 420.316406 356.875 416.355469 356.144531 412.398438 C 355.730469 410.316406 355.207031 408.335938 354.792969 406.253906 C 353.855469 401.773438 352.816406 397.296875 351.457031 392.816406 C 351.042969 391.359375 350.519531 389.902344 350 388.441406 C 349.691406 387.710938 349.375 386.984375 349.167969 386.253906 C 348.957031 385.628906 348.753906 385.003906 348.542969 384.378906 C 347.292969 380.835938 346.148438 377.296875 344.6875 373.859375 C 338.019531 378.753906 331.144531 383.441406 323.75 387.710938 C 273.539062 416.667969 215.105469 423.542969 161.144531 409.378906 C 143.644531 395.523438 128.746094 378.441406 117.394531 358.960938 C 175.417969 394.898438 248.957031 396.460938 308.851562 361.878906 C 316.558594 357.5 323.644531 352.398438 330.417969 347.082031 Z M 983.15625 555.394531 L 634.613281 555.394531 L 537.855469 693.460938 C 536.410156 695.519531 536.128906 698.148438 536.988281 700.515625 C 538.421875 704.464844 539.636719 708.496094 540.644531 712.578125 C 548.332031 709.734375 556.546875 707.121094 565.320312 704.800781 L 565.597656 704.730469 C 567.292969 704.28125 569.007812 703.84375 570.746094 703.421875 L 570.886719 703.386719 C 576.050781 702.132812 581.410156 700.984375 586.984375 699.953125 C 587.261719 699.902344 587.535156 699.847656 587.808594 699.796875 C 589.070312 699.566406 590.351562 699.351562 591.632812 699.136719 C 592.523438 698.984375 593.414062 698.832031 594.320312 698.683594 C 595.460938 698.5 596.617188 698.328125 597.777344 698.15625 C 598.859375 697.992188 599.941406 697.832031 601.035156 697.679688 C 602.121094 697.527344 603.226562 697.382812 604.328125 697.238281 C 605.542969 697.082031 606.765625 696.933594 607.996094 696.785156 C 609.042969 696.660156 610.089844 696.542969 611.148438 696.425781 C 612.507812 696.277344 613.886719 696.136719 615.269531 696.003906 C 616.25 695.910156 617.222656 695.808594 618.214844 695.722656 C 619.796875 695.582031 621.402344 695.457031 623.015625 695.332031 C 623.847656 695.269531 624.667969 695.199219 625.507812 695.140625 C 627.980469 694.96875 630.480469 694.816406 633.023438 694.683594 C 639.382812 694.367188 645.714844 694.207031 651.84375 694.207031 C 654.625 694.207031 657.351562 694.25 660.046875 694.3125 C 660.859375 694.332031 661.652344 694.359375 662.453125 694.386719 C 664.410156 694.445312 666.339844 694.519531 668.25 694.609375 C 669.050781 694.648438 669.855469 694.683594 670.644531 694.730469 C 672.957031 694.859375 675.246094 695.007812 677.496094 695.183594 C 677.761719 695.203125 678.035156 695.21875 678.296875 695.238281 C 680.804688 695.441406 683.269531 695.671875 685.703125 695.925781 C 686.390625 695.996094 687.0625 696.078125 687.742188 696.152344 C 689.535156 696.355469 691.300781 696.566406 693.050781 696.792969 C 693.777344 696.886719 694.507812 696.984375 695.230469 697.082031 C 697.183594 697.351562 699.117188 697.640625 701.019531 697.941406 C 701.394531 698 701.777344 698.054688 702.148438 698.113281 C 704.421875 698.484375 706.652344 698.878906 708.851562 699.292969 C 709.40625 699.394531 709.945312 699.507812 710.496094 699.613281 C 712.167969 699.9375 713.824219 700.273438 715.457031 700.625 C 716.101562 700.761719 716.738281 700.898438 717.371094 701.039062 C 719.085938 701.421875 720.777344 701.8125 722.449219 702.214844 C 722.847656 702.316406 723.253906 702.40625 723.648438 702.503906 C 725.710938 703.015625 727.742188 703.542969 729.742188 704.085938 C 730.152344 704.199219 730.550781 704.316406 730.957031 704.425781 C 732.558594 704.871094 734.140625 705.328125 735.699219 705.792969 C 736.246094 705.953125 736.792969 706.117188 737.335938 706.285156 C 738.882812 706.757812 740.414062 707.238281 741.921875 707.726562 C 742.296875 707.847656 742.671875 707.964844 743.042969 708.085938 C 744.9375 708.710938 746.804688 709.347656 748.640625 709.996094 C 748.863281 710.078125 749.082031 710.160156 749.304688 710.238281 C 750.902344 710.804688 752.476562 711.386719 754.035156 711.976562 C 754.480469 712.140625 754.921875 712.3125 755.363281 712.480469 C 756.796875 713.03125 758.21875 713.585938 759.621094 714.152344 C 759.945312 714.28125 760.273438 714.410156 760.597656 714.542969 C 762.351562 715.253906 764.078125 715.972656 765.777344 716.699219 L 765.78125 716.699219 C 849.621094 685.972656 926.648438 641.160156 993.929688 585.066406 C 1005.992188 575.015625 998.875 555.394531 983.15625 555.394531 Z M 301.773438 722.386719 L 335.5625 674.132812 C 356.980469 643.539062 392.085938 625.277344 429.46875 625.28125 L 429.507812 625.28125 C 432 625.28125 434.347656 624.128906 435.777344 622.089844 L 482.519531 555.394531 L 16.84375 555.394531 C 1.125 555.394531 -5.992188 575.015625 6.074219 585.070312 C 78.023438 645.054688 161.105469 692.171875 251.757812 722.925781 Z M 915.730469 805.382812 C 852.359375 808.558594 820.242188 791.414062 786.238281 773.261719 C 750.488281 754.179688 709.96875 732.550781 635.109375 736.304688 C 560.25 740.058594 522.097656 765.632812 488.4375 788.191406 C 456.421875 809.652344 426.175781 829.925781 362.800781 833.101562 C 299.429688 836.277344 267.316406 819.136719 233.316406 800.984375 C 197.566406 781.902344 157.050781 760.269531 82.191406 764.023438 C 70.742188 764.597656 61.921875 774.347656 62.496094 785.796875 C 63.070312 797.25 72.820312 806.066406 84.269531 805.492188 C 147.640625 802.316406 179.757812 819.460938 213.761719 837.613281 C 249.507812 856.695312 290.023438 878.324219 364.882812 874.574219 C 439.742188 870.820312 477.894531 845.246094 511.550781 822.683594 C 543.570312 801.222656 573.816406 780.949219 637.191406 777.773438 C 700.5625 774.597656 732.679688 791.738281 766.683594 809.890625 C 802.433594 828.972656 842.949219 850.605469 917.808594 846.851562 C 929.261719 846.277344 938.078125 836.527344 937.507812 825.078125 C 936.929688 813.625 927.183594 804.808594 915.730469 805.382812 Z M 915.730469 805.382812"/></svg>