<?xml version="1.0" encoding="iso-8859-1"?>
<!-- Generator: Adobe Illustrator 23.0.4, SVG Export Plug-In . SVG Version: 6.00 Build 0)  -->
<svg version="1.1" xmlns="http://www.w3.org/2000/svg" xmlns:xlink="http://www.w3.org/1999/xlink" x="0px" y="0px"
	 viewBox="0 0 480 480" style="enable-background:new 0 0 480 480;" xml:space="preserve">
<g id="Workspace">
	<path d="M330.482,160.356L220.405,317.424c-1.763,2.516-4.822,3.868-7.843,3.304c-13.08-2.441-26.98,2.718-35.109,14.327
		l-30.011,42.86c5.616,1.366,11.926,2.157,19.569,2.157c1.972,0,4.035-0.054,6.131-0.158c24.889-1.247,35.493-8.356,50.171-18.195
		c5.298-3.551,10.995-7.364,17.52-11.013c-0.604-4.718-2.161-9.305-4.619-13.449c-1.57-2.648-1.345-5.996,0.423-8.519
		l110.079-157.071c1.763-2.515,4.821-3.867,7.841-3.304c13.078,2.438,26.975-2.721,35.103-14.329l38.43-54.883
		c2.534-3.619,1.654-8.607-1.965-11.142l-44.234-30.974c-3.619-2.534-8.607-1.654-11.142,1.965l-38.43,54.883
		c-8.144,11.631-8.223,26.488-1.419,37.953C332.471,154.485,332.25,157.833,330.482,160.356z M130,230c55.2,0,100-44.8,100-100
		c0-55.25-44.8-100-100-100C74.75,30,30,74.75,30,130C30,185.2,74.75,230,130,230z M158.55,166.55l-0.05-0.05l-0.05-0.1l-0.15-0.2
		c-4.5-7.05-10-13.3-16.25-18.851c-0.399-0.35-0.85-0.75-1.25-1.1c-1.1-1-2.199-1.95-3.35-2.85c-0.8-0.601-1.65-1.2-2.5-1.75
		c-0.35-0.25-0.7-0.45-1.05-0.7c-1.4-1-2.9-1.95-4.4-2.851c-0.95,0.551-2,1-3.05,1.45c-0.6,0.25-1.2,0.5-1.8,0.8
		c-0.4,0.2-0.75,0.4-1.15,0.601c-0.45,0.25-0.95,0.5-1.399,0.7c-0.2,0.1-0.45,0.149-0.7,0.25c-0.2,0.1-0.4,0.149-0.601,0.25
		c-2.899,1.25-5.899,2.3-8.899,3.3c-0.15,0.1-0.351,0.149-0.5,0.2c-0.25,0.1-0.55,0.199-0.851,0.3c-0.1,0.05-0.25,0.1-0.35,0.1H110
		c-9.649,2.95-19.7,4.65-29.85,4.65H79.7c-2.65-0.05-5.2-0.2-7.75-0.4c-0.1,0-0.25-0.05-0.35-0.05c-0.101-0.05-0.25-0.05-0.351-0.05
		c-2.3-0.2-4.5-0.5-6.75-0.851c-0.25-0.05-0.55-0.05-0.85-0.1c-0.351-0.05-0.75-0.1-1.15-0.15h-0.25c-0.1,0-0.149-0.05-0.25-0.05
		c-0.399-0.05-0.8-0.149-1.2-0.25c-0.25-0.1-0.5-0.149-0.75-0.2c-1.75-0.35-3.5-0.75-5.25-1.199
		c-0.199-0.051-0.449-0.101-0.649-0.15c-0.3-0.05-0.65-0.1-0.95-0.2c-0.1-0.05-0.25-0.05-0.35-0.1c-0.2-0.05-0.351-0.101-0.551-0.15
		c-0.75-0.2-1.5-0.45-2.25-0.7c-0.449-0.149-0.85-0.3-1.3-0.449c-0.3-0.15-0.649-0.25-1-0.351c-0.45-0.149-0.899-0.3-1.35-0.45
		c-0.9-4.899-1.351-9.949-1.351-15.1V129c1.801,0.75,3.601,1.45,5.4,2.1c0.95,0.351,1.95,0.65,2.9,0.95
		c2.149,0.7,4.25,1.351,6.399,1.851c0.65,0.149,1.351,0.3,2.05,0.399c0.4,0.101,0.851,0.15,1.25,0.25c0.4,0.101,0.75,0.15,1.15,0.25
		c1.65,0.3,3.35,0.65,5.05,0.851c-0.45-3.95-0.75-7.95-0.75-12C68.5,95.8,79.65,69.85,98.55,50.8c9.7-3.899,20.301-6.05,31.4-6.05
		c-28.9,15.5-47.2,45.7-47.2,78.9c0,4.3,0.4,8.449,1,12.55h0.5c8.3-0.351,16.5-1.95,24.4-4.601c0.45-0.149,0.899-0.3,1.35-0.449
		c1.5-0.45,2.95-0.95,4.4-1.551c0.85-0.35,1.75-0.8,2.6-1.199c0.45-0.2,0.9-0.45,1.351-0.65c1.55-0.75,3.1-1.55,4.649-2.4
		c0-1.1,0.15-2.199,0.25-3.3c0.05-0.7,0.15-1.35,0.2-2.05c0.05-0.4,0.05-0.85,0.05-1.25c0.05-0.55,0.05-1.05,0.101-1.6
		c0-0.25,0.05-0.5,0.1-0.75s0.05-0.45,0.1-0.65c0.4-3.15,0.95-6.25,1.601-9.35c0.05-0.15,0.05-0.351,0.1-0.5
		c0.05-0.301,0.15-0.65,0.2-0.95c0-0.05,0-0.15,0.05-0.25c0.05-0.101,0.101-0.15,0.101-0.25c2.3-9.851,5.8-19.351,10.899-28.15
		l0.05-0.1l0.051-0.05c0.05-0.101,0.1-0.15,0.149-0.25c1.351-2.2,2.75-4.351,4.2-6.45c0.1-0.15,0.15-0.25,0.25-0.351
		c0.05-0.05,0.15-0.149,0.2-0.25c1.3-1.85,2.7-3.649,4.1-5.399c0.2-0.2,0.351-0.45,0.55-0.7c0.2-0.3,0.45-0.6,0.7-0.9l0.15-0.199
		c0.05-0.101,0.1-0.15,0.149-0.2c0.25-0.3,0.5-0.55,0.75-0.8c0.2-0.2,0.4-0.45,0.601-0.65c1.2-1.35,2.399-2.65,3.649-3.95
		c0.15-0.2,0.351-0.35,0.5-0.55c0.2-0.25,0.45-0.5,0.65-0.7s0.45-0.45,0.65-0.649c0.55-0.551,1.1-1.051,1.699-1.551
		c0.351-0.3,0.7-0.649,1.051-0.949c0.3-0.25,0.6-0.551,0.899-0.801s0.65-0.55,0.95-0.85c5.05,1.8,9.85,4.05,14.4,6.75
		c-1.5,1.15-3,2.35-4.65,3.25c-0.65,0.55-1.3,1.15-1.95,1.75l-0.3,0.3c-1.65,1.5-3.25,3-4.8,4.601c-0.45,0.5-0.9,1.05-1.351,1.55
		c-0.25,0.3-0.55,0.649-0.85,1c-0.3,0.3-0.55,0.6-0.8,0.899c-1.101,1.301-2.2,2.601-3.25,3.95c3.649,1.55,7.3,3.3,10.8,5.351
		c24.1,13.899,41,36.6,48.05,62.449c-1.55,10.851-5.149,21.051-10.45,30.2c1-32.75-16-63.7-44.75-80.3
		c-3.699-2.1-7.5-3.85-11.35-5.4l-0.1,0.2c-0.051,0.101-0.101,0.2-0.15,0.3c-3.85,7.4-6.55,15.301-8.2,23.45
		c-0.1,0.4-0.149,0.851-0.25,1.25c-0.3,1.55-0.649,3.101-0.85,4.7c-0.101,0.95-0.2,1.95-0.25,2.9c-0.05,0.5-0.05,0.949-0.101,1.449
		c-0.149,1.75-0.199,3.5-0.25,5.25c0.95,0.601,1.851,1.25,2.75,1.9c0.5,0.4,1.051,0.75,1.601,1.15c0.35,0.25,0.75,0.5,1.1,0.699
		c0.45,0.25,0.9,0.551,1.351,0.851c0.199,0.149,0.399,0.3,0.6,0.45c0.15,0.149,0.3,0.3,0.5,0.449c2.55,1.9,4.95,3.95,7.3,6.051
		c0.101,0.1,0.2,0.149,0.3,0.25c0.301,0.25,0.601,0.5,0.851,0.75l0.2,0.199l0.199,0.2c7.351,6.95,13.801,14.75,18.9,23.55
		c0.05,0.051,0.1,0.15,0.15,0.25c0.05,0.101,0.05,0.15,0.1,0.2c1.3,2.25,2.4,4.55,3.5,6.851c0.05,0.149,0.1,0.25,0.15,0.399
		c0.05,0.101,0.1,0.2,0.149,0.3c1,2.051,1.851,4.15,2.65,6.25c0.1,0.301,0.25,0.551,0.35,0.851c0.15,0.35,0.3,0.7,0.45,1.05
		c0.05,0.1,0.05,0.15,0.1,0.25c0.051,0.1,0.051,0.15,0.101,0.25c0.1,0.35,0.2,0.65,0.3,1c0.05,0.25,0.15,0.55,0.25,0.85
		c0.55,1.7,1.1,3.4,1.6,5.15c0.101,0.25,0.15,0.5,0.25,0.75c0.101,0.3,0.2,0.55,0.25,0.85c0.101,0.301,0.15,0.601,0.25,0.9
		c0.2,0.75,0.351,1.55,0.5,2.35c0.101,0.45,0.15,0.851,0.25,1.301c0.101,0.35,0.15,0.75,0.25,1.1c0.101,0.45,0.2,0.85,0.301,1.3
		c-4.051,3.4-8.4,6.45-13.051,9.101c-0.199-1.9-0.5-3.801-0.85-5.7c-0.2-1-0.45-1.95-0.65-2.95c-0.449-2.15-0.949-4.3-1.6-6.45
		c-0.2-0.7-0.45-1.399-0.7-2.1c-0.149-0.351-0.3-0.7-0.399-1.05c-0.101-0.301-0.2-0.601-0.301-0.9c-0.6-1.7-1.149-3.4-1.85-5.05
		c-3.2,2.35-6.5,4.6-10.05,6.649c-24.101,13.9-52.15,17.2-78.05,10.4c-8.4-6.65-15.551-14.85-21-24.2
		c27.85,17.25,63.149,18,91.899,1.4c3.7-2.101,7.101-4.55,10.351-7.101L158.55,166.55z M471.915,266.589H304.614l-46.444,66.272
		c-0.693,0.989-0.829,2.251-0.416,3.387c0.688,1.896,1.272,3.83,1.756,5.79c3.69-1.365,7.632-2.619,11.843-3.733l0.133-0.035
		c0.814-0.215,1.637-0.425,2.472-0.628l0.067-0.016c2.479-0.603,5.052-1.154,7.728-1.649c0.133-0.024,0.263-0.051,0.396-0.075
		c0.604-0.11,1.22-0.213,1.834-0.317c0.429-0.072,0.856-0.146,1.29-0.217c0.548-0.088,1.104-0.17,1.66-0.253
		c0.519-0.078,1.038-0.155,1.564-0.229c0.522-0.072,1.051-0.143,1.58-0.211c0.583-0.075,1.17-0.147,1.762-0.218
		c0.502-0.06,1.004-0.117,1.512-0.173c0.652-0.071,1.314-0.138,1.978-0.202c0.471-0.046,0.938-0.093,1.414-0.135
		c0.76-0.068,1.531-0.128,2.305-0.187c0.399-0.03,0.793-0.064,1.196-0.093c1.187-0.082,2.387-0.156,3.607-0.218
		c3.053-0.153,6.092-0.23,9.034-0.23c1.335,0,2.644,0.021,3.938,0.051c0.389,0.01,0.771,0.023,1.155,0.035
		c0.938,0.028,1.865,0.064,2.782,0.108c0.385,0.019,0.77,0.036,1.149,0.058c1.111,0.062,2.209,0.133,3.289,0.217
		c0.127,0.01,0.258,0.017,0.385,0.026c1.204,0.097,2.387,0.209,3.555,0.331c0.329,0.034,0.652,0.072,0.979,0.109
		c0.859,0.096,1.708,0.197,2.547,0.307c0.35,0.045,0.7,0.091,1.047,0.139c0.938,0.129,1.865,0.267,2.779,0.411
		c0.18,0.029,0.363,0.055,0.542,0.084c1.09,0.177,2.161,0.367,3.217,0.565c0.266,0.05,0.525,0.104,0.789,0.154
		c0.803,0.156,1.598,0.318,2.382,0.486c0.308,0.065,0.614,0.132,0.919,0.199c0.822,0.183,1.634,0.371,2.436,0.565
		c0.192,0.047,0.387,0.091,0.577,0.138c0.99,0.245,1.965,0.498,2.925,0.76c0.196,0.054,0.388,0.109,0.583,0.163
		c0.768,0.214,1.527,0.432,2.276,0.655c0.263,0.078,0.524,0.157,0.785,0.236c0.743,0.227,1.478,0.458,2.202,0.693
		c0.179,0.058,0.36,0.114,0.538,0.173c0.909,0.3,1.806,0.605,2.687,0.917c0.107,0.038,0.211,0.077,0.318,0.115
		c0.768,0.273,1.523,0.552,2.271,0.834c0.213,0.08,0.425,0.162,0.637,0.243c0.689,0.264,1.371,0.531,2.044,0.802
		c0.156,0.062,0.313,0.124,0.469,0.187c0.841,0.342,1.671,0.687,2.487,1.035h0.001c40.243-14.748,77.216-36.258,109.511-63.184
		C482.876,276.007,479.46,266.589,471.915,266.589z M144.851,346.746l16.219-23.162c10.281-14.685,27.132-23.45,45.075-23.449h0.019
		c1.196,0,2.323-0.554,3.01-1.532l22.436-32.014H8.085c-7.545,0-10.961,9.418-5.17,14.245
		c34.536,28.793,74.416,51.408,117.929,66.171L144.851,346.746z M439.551,386.583c-30.419,1.525-45.835-6.704-62.157-15.417
		c-17.159-9.159-36.609-19.542-72.541-17.74c-35.933,1.802-54.246,14.077-70.403,24.906c-15.368,10.302-29.886,20.032-60.305,21.557
		c-30.418,1.525-45.833-6.704-62.153-15.417c-17.16-9.159-36.608-19.542-72.54-17.74c-5.496,0.275-9.729,4.955-9.453,10.451
		c0.275,5.497,4.955,9.729,10.451,9.454c30.418-1.525,45.834,6.704,62.155,15.417c17.158,9.16,36.607,19.542,72.538,17.741
		c35.933-1.802,54.246-14.077,70.402-24.907c15.369-10.302,29.886-20.032,60.306-21.557c30.419-1.525,45.836,6.704,62.158,15.417
		c17.159,9.159,36.607,19.542,72.54,17.74c5.496-0.275,9.729-4.955,9.454-10.451C449.727,390.54,445.048,386.308,439.551,386.583z"
		/>
</g>
<g id="Guide">
</g>
</svg>
