<svg xmlns="http://www.w3.org/2000/svg" viewBox="0 0 480 480"><path d="M413.599,422.594l-95.743-67.06c-9.047-6.334-21.517-4.14-27.855,4.908c-6.336,9.047-4.139,21.519,4.908,27.855 l95.743,67.06c3.492,2.445,7.493,3.62,11.456,3.62c6.304,0,12.508-2.973,16.399-8.528 C424.844,441.402,422.646,428.931,413.599,422.594z M242.48,253.922l-29.042-20.335l30.538-29.11 c7.995-7.621,8.298-20.281,0.677-28.276c-7.622-7.994-20.28-8.299-28.276-0.677l-36.36,34.66l-19.454-13.621l45.866-65.527 c6.334-9.049,4.133-21.52-4.916-27.854c-9.049-6.336-21.52-4.133-27.854,4.916l-57.33,81.905l-0.001,0.001l-34.414,49.148 c-6.336,9.048-4.137,21.52,4.911,27.854l98.298,68.829c3.385,2.37,7.395,3.617,11.472,3.617c1.156,0,2.318-0.101,3.473-0.304 c5.224-0.921,9.868-3.88,12.91-8.225l34.414-49.148C253.728,272.729,251.528,260.257,242.48,253.922z M88.457,194.934 c13.235-18.902,9.08-42.471-9.822-55.706s-42.475-9.083-55.71,9.819s-8.883,42.569,10.02,55.806 C51.847,218.088,75.221,213.836,88.457,194.934z M442,30H136.422c-7.915,0-11.023,10.266-4.438,14.656l96.51,64.34 c0.991,0.661,1.822,1.535,2.433,2.559l59.029,98.977l19.652,29.404c0.749,0.215,1.495,0.443,2.233,0.702l79.947,27.994 c10.084,3.53,18.19,10.777,22.824,20.404c4.633,9.628,5.24,20.483,1.709,30.566c-5.373,15.345-19.518,25.86-35.611,26.722 l54.638,81.754c4.396,6.576,14.651,3.465,14.651-4.445V38C450,33.582,446.418,30,442,30z M371.961,325.26 c10.425,3.65,21.835-1.842,25.485-12.267s-1.841-21.835-12.267-25.485l-79.947-27.994c-8.458-2.963-17.853,0.064-22.992,7.404 l-52.862,75.495c-6.336,9.048-4.137,21.52,4.911,27.854c3.492,2.445,7.492,3.619,11.454,3.619c6.305,0,12.51-2.975,16.4-8.53 l44.171-63.083L371.961,325.26z"/></svg>