<svg xmlns="http://www.w3.org/2000/svg" width="1000pt" height="1000pt" viewBox="0 0 1000 1000"><path d="M 861.664062 880.402344 L 662.199219 740.695312 C 643.351562 727.5 617.371094 732.070312 604.167969 750.921875 C 590.96875 769.769531 595.546875 795.753906 614.394531 808.953125 L 813.859375 948.660156 C 821.132812 953.753906 829.46875 956.203125 837.726562 956.203125 C 850.859375 956.203125 863.785156 950.007812 871.890625 938.433594 C 885.089844 919.585938 880.511719 893.605469 861.664062 880.402344 Z M 505.167969 529.003906 L 444.664062 486.640625 L 508.285156 425.992188 C 524.941406 410.117188 525.570312 383.742188 509.695312 367.085938 C 493.816406 350.429688 467.445312 349.796875 450.785156 365.675781 L 375.035156 437.882812 L 334.507812 409.507812 L 430.058594 272.992188 C 443.257812 254.140625 438.671875 228.160156 419.820312 214.960938 C 400.964844 201.761719 374.984375 206.351562 361.789062 225.203125 L 242.351562 395.839844 L 170.652344 498.234375 C 157.453125 517.082031 162.035156 543.066406 180.886719 556.261719 L 385.671875 699.65625 C 392.726562 704.59375 401.078125 707.191406 409.574219 707.191406 C 411.980469 707.191406 414.402344 706.980469 416.808594 706.558594 C 427.691406 704.640625 437.367188 698.476562 443.703125 689.421875 L 515.398438 587.03125 C 528.601562 568.183594 524.015625 542.203125 505.167969 529.003906 Z M 184.285156 406.113281 C 211.859375 366.734375 203.203125 317.632812 163.824219 290.058594 C 124.445312 262.484375 75.332031 271.136719 47.761719 310.515625 C 20.1875 349.894531 29.253906 399.199219 68.636719 426.777344 C 108.015625 454.351562 156.710938 445.492188 184.285156 406.113281 Z M 920.832031 62.5 L 284.210938 62.5 C 267.722656 62.5 261.246094 83.886719 274.964844 93.035156 L 476.027344 227.074219 C 478.09375 228.453125 479.824219 230.273438 481.097656 232.40625 L 604.074219 438.609375 L 645.015625 499.867188 C 646.578125 500.316406 648.132812 500.789062 649.667969 501.328125 L 816.226562 559.648438 C 837.234375 567.003906 854.121094 582.101562 863.773438 602.160156 C 873.425781 622.214844 874.691406 644.832031 867.335938 665.835938 C 856.140625 697.804688 826.671875 719.710938 793.144531 721.507812 L 906.976562 891.828125 C 916.132812 905.527344 937.496094 899.046875 937.496094 882.570312 L 937.496094 79.167969 C 937.5 69.960938 930.039062 62.5 920.832031 62.5 Z M 774.917969 677.625 C 796.636719 685.230469 820.410156 673.789062 828.011719 652.070312 C 835.617188 630.351562 824.175781 606.578125 802.457031 598.976562 L 635.898438 540.652344 C 618.277344 534.480469 598.707031 540.789062 588 556.078125 L 477.871094 713.359375 C 464.671875 732.210938 469.253906 758.195312 488.101562 771.390625 C 495.378906 776.484375 503.710938 778.929688 511.964844 778.929688 C 525.101562 778.929688 538.027344 772.730469 546.132812 761.160156 L 638.152344 629.734375 Z M 774.917969 677.625"/></svg>