<svg xmlns="http://www.w3.org/2000/svg" width="1000pt" height="1000pt" viewBox="0 0 1000 1000"><path d="M 476.554688 835.699219 L 169.371094 620.605469 C 159.949219 614.007812 146.957031 616.296875 140.359375 625.722656 L 116.457031 659.851562 C 103.257812 678.703125 107.839844 704.683594 126.691406 717.882812 L 399.742188 909.074219 C 418.59375 922.273438 444.574219 917.691406 457.769531 898.84375 L 481.671875 864.707031 C 488.269531 855.289062 485.980469 842.296875 476.554688 835.699219 Z M 814.574219 207.667969 L 714.609375 137.667969 C 639.207031 84.871094 503.839844 106.613281 451.046875 182.015625 L 307.511719 387.003906 C 301.011719 396.289062 288.214844 398.542969 278.929688 392.042969 C 269.675781 385.566406 267.398438 372.820312 273.839844 363.535156 L 357.359375 243.410156 C 370.464844 224.5625 365.855469 198.664062 347.046875 185.496094 L 329.867188 173.464844 C 295.738281 149.566406 254.773438 171.746094 230.875 205.878906 L 178.792969 280.261719 C 101.964844 389.984375 128.628906 541.210938 238.351562 618.039062 L 381.648438 718.378906 L 415.128906 741.820312 C 528.226562 821.015625 684.113281 793.527344 763.308594 680.425781 L 870.855469 526.832031 C 943.449219 423.160156 918.253906 280.261719 814.574219 207.667969 Z M 671.503906 613.0625 L 609.949219 623.914062 L 620.804688 685.464844 C 622.800781 696.796875 615.238281 707.601562 603.90625 709.601562 C 602.683594 709.816406 601.464844 709.921875 600.265625 709.921875 C 590.34375 709.921875 581.554688 702.808594 579.773438 692.699219 L 568.917969 631.144531 L 507.359375 641.996094 C 506.136719 642.210938 504.917969 642.316406 503.71875 642.316406 C 493.796875 642.316406 485.007812 635.203125 483.226562 625.09375 C 481.230469 613.761719 488.796875 602.957031 500.128906 600.957031 L 561.683594 590.105469 L 550.832031 528.5625 C 548.835938 517.234375 556.398438 506.425781 567.730469 504.429688 C 579.066406 502.429688 589.867188 509.996094 591.863281 521.328125 L 602.714844 582.871094 L 664.269531 572.023438 C 675.597656 570.050781 686.40625 577.59375 688.402344 588.921875 C 690.398438 600.257812 682.832031 611.066406 671.503906 613.0625 Z M 791 442.402344 L 729.449219 453.253906 L 740.300781 514.804688 C 742.300781 526.136719 734.734375 536.941406 723.402344 538.941406 C 722.179688 539.15625 720.960938 539.261719 719.761719 539.261719 C 709.839844 539.261719 701.054688 532.148438 699.269531 522.039062 L 688.417969 460.488281 L 626.855469 471.339844 C 625.632812 471.550781 624.414062 471.660156 623.214844 471.660156 C 613.292969 471.660156 604.503906 464.546875 602.722656 454.4375 C 600.726562 443.105469 608.292969 432.300781 619.621094 430.300781 L 681.179688 419.449219 L 670.328125 357.90625 C 668.328125 346.578125 675.894531 335.769531 687.222656 333.773438 C 698.550781 331.777344 709.359375 339.339844 711.355469 350.671875 L 722.210938 412.21875 L 783.765625 401.367188 C 795.097656 399.394531 805.902344 406.941406 807.898438 418.269531 C 809.894531 429.601562 802.328125 440.410156 791 442.402344 Z M 791 442.402344"/></svg>