<?xml version="1.0" encoding="iso-8859-1"?>
<!-- Generator: Adobe Illustrator 23.0.4, SVG Export Plug-In . SVG Version: 6.00 Build 0)  -->
<svg version="1.1" xmlns="http://www.w3.org/2000/svg" xmlns:xlink="http://www.w3.org/1999/xlink" x="0px" y="0px"
	 viewBox="0 0 480 480" style="enable-background:new 0 0 480 480;" xml:space="preserve">
<g id="Layer_2">
	<path d="M228.747,401.135L81.299,297.891c-4.524-3.168-10.759-2.068-13.927,2.456L55.9,316.729
		c-6.336,9.048-4.136,21.52,4.911,27.854l131.065,91.772c9.049,6.336,21.519,4.137,27.854-4.91l11.472-16.385
		C234.37,410.538,233.27,404.303,228.747,401.135z M390.996,99.68l-47.984-33.599c-36.192-25.342-101.168-14.906-126.51,21.287
		l-68.896,98.394c-3.121,4.456-9.263,5.539-13.719,2.419c-4.443-3.11-5.535-9.227-2.443-13.684l40.089-57.66
		c6.291-9.047,4.077-21.479-4.95-27.799l-8.246-5.775c-16.383-11.471-36.046-0.824-47.517,15.559l-25,35.704
		c-36.877,52.666-24.078,125.256,28.588,162.133l68.784,48.162l16.069,11.253c54.288,38.013,129.114,24.819,167.127-29.47
		l51.622-73.724C452.855,203.116,440.761,134.525,390.996,99.68z M322.321,294.27l-29.545,5.208l5.21,29.546
		c0.959,5.438-2.672,10.625-8.111,11.584c-0.587,0.104-1.172,0.154-1.748,0.154c-4.762,0-8.98-3.414-9.836-8.266l-5.21-29.547
		l-29.548,5.209c-0.587,0.103-1.172,0.153-1.748,0.153c-4.762,0-8.981-3.414-9.836-8.266c-0.958-5.439,2.673-10.626,8.112-11.585
		l29.548-5.209l-5.209-29.541c-0.959-5.438,2.672-10.625,8.111-11.584c5.44-0.959,10.625,2.673,11.584,8.111l5.209,29.542
		l29.545-5.208c5.438-0.946,10.626,2.674,11.585,8.112C331.392,288.124,327.76,293.311,322.321,294.27z M379.68,212.354
		l-29.545,5.208l5.21,29.545c0.96,5.438-2.672,10.625-8.111,11.584c-0.587,0.104-1.172,0.154-1.748,0.154
		c-4.762,0-8.98-3.414-9.836-8.266l-5.21-29.545l-29.549,5.209c-0.587,0.102-1.172,0.153-1.748,0.153
		c-4.762,0-8.981-3.414-9.837-8.266c-0.958-5.439,2.674-10.626,8.112-11.585l29.548-5.209l-5.209-29.541
		c-0.96-5.438,2.672-10.625,8.11-11.584c5.438-0.958,10.625,2.673,11.584,8.112l5.21,29.542l29.546-5.208
		c5.439-0.947,10.626,2.674,11.585,8.112C388.75,206.208,385.117,211.396,379.68,212.354z"/>
</g>
<g id="Guides">
</g>
</svg>
