<svg xmlns="http://www.w3.org/2000/svg" viewBox="0 0 480 480"><path d="M133.532,253.882l-7.429-9.228l-20.2,28.849l11.212,3.825C130.157,279.262,139.81,265.477,133.532,253.882z M93.458,204.104l-14.559,3.358l1.894,14.758l-13.939,2.444l2.456,13.928l-14.501,3.274l1.824,14.829l39.416,13.446l23.525-33.598 L93.458,204.104z M438.951,116.65c-3.999-21.729-19.249-40.849-49.444-61.991c-29.801-20.866-52.711-28.014-74.283-23.177 c-22.307,5.004-43.14,22.781-67.55,57.643c-23.13,33.032-41.122,72.954-48.13,106.79c-3.216,15.531-4.214,29.703-3.042,42.372 l-33.255,118.767c-5.231-0.532-10.589,1.7-13.819,6.313l-40.15,57.341c-4.751,6.786-3.103,16.139,3.684,20.891l8.191,5.735 c6.786,4.752,16.14,3.103,20.892-3.684l40.15-57.34c2.275-3.25,3.068-7.088,2.546-10.729l104.394-74.34 c11.745-3.379,24.078-9.075,36.873-17.108c29.609-18.59,60.338-48.886,84.308-83.118 C434.175,166.94,443.273,140.133,438.951,116.65z M185.943,350.173l21.534-76.905c4.732,7.697,10.913,14.262,18.533,19.598 c7.772,5.442,16.223,9.031,25.256,10.79L185.943,350.173z M393.932,189.545c-22.164,31.653-51.532,60.682-78.56,77.651 c-21.924,13.765-53.235,26.549-77.891,9.286c-12.286-8.604-18.667-21.677-20.688-37.229c0.089-1.212-0.057-2.403-0.388-3.53 c-3.524-40.795,20.916-96.945,47.65-135.127c21.048-30.06,38.697-45.819,55.544-49.598c2.886-0.647,5.826-0.978,8.858-0.978 c13.595,0,29.026,6.632,49.576,21.021c25.552,17.892,38.273,33.074,41.247,49.229C422.57,138.136,414.515,160.148,393.932,189.545z"/></svg>