<svg xmlns="http://www.w3.org/2000/svg" width="1000pt" height="1000pt" viewBox="0 0 1000 1000"><path d="M 791.667969 331.542969 L 791.667969 187.398438 C 791.667969 164.386719 773.011719 145.734375 750 145.734375 L 271.832031 145.734375 C 249.238281 145.734375 229.996094 163.304688 229.195312 185.882812 C 228.351562 209.585938 247.316406 229.066406 270.832031 229.066406 L 691.667969 229.066406 C 700.871094 229.066406 708.332031 236.527344 708.332031 245.734375 L 708.332031 312.738281 C 704.878906 312.589844 302.082031 312.5 302.082031 312.5 C 169.765625 312.5 62.5 419.765625 62.5 552.082031 C 62.5 684.402344 169.765625 791.667969 302.082031 791.667969 L 697.917969 791.667969 C 830.234375 791.667969 937.5 684.402344 937.5 552.082031 C 937.5 453.035156 877.390625 368.03125 791.667969 331.542969 Z M 791.667969 331.542969"/></svg>