<?xml version="1.0" encoding="iso-8859-1"?>
<!-- Generator: Adobe Illustrator 23.0.4, SVG Export Plug-In . SVG Version: 6.00 Build 0)  -->
<svg version="1.1" xmlns="http://www.w3.org/2000/svg" xmlns:xlink="http://www.w3.org/1999/xlink" x="0px" y="0px"
	 viewBox="0 0 480 480" style="enable-background:new 0 0 480 480;" xml:space="preserve">
<g id="Shape">
	<path d="M380,159.141V89.952c0-11.046-8.954-20-20-20h-229.52c-10.845,0-20.081,8.434-20.467,19.271
		c-0.404,11.378,8.699,20.729,19.987,20.729h202c4.418,0,8,3.582,8,8v32.163C338.342,150.044,145,150,145,150
		c-63.513,0-115,51.487-115,115s51.487,115,115,115h190c63.513,0,115-51.487,115-115C450,217.457,421.148,176.655,380,159.141z"/>
</g>
<g id="Guide">
</g>
</svg>
