<?xml version="1.0" encoding="iso-8859-1"?>
<!-- Generator: Adobe Illustrator 23.0.4, SVG Export Plug-In . SVG Version: 6.00 Build 0)  -->
<svg version="1.1" xmlns="http://www.w3.org/2000/svg" xmlns:xlink="http://www.w3.org/1999/xlink" x="0px" y="0px"
	 viewBox="0 0 480 480" style="enable-background:new 0 0 480 480;" xml:space="preserve">
<g id="Layer_4">
	
		<polyline style="display:none;fill-rule:evenodd;clip-rule:evenodd;fill:none;stroke:#000000;stroke-width:40;stroke-linecap:round;stroke-linejoin:round;stroke-miterlimit:10;" points="
		170.364,130 289.99,130 370.257,221.337 358.786,262.245 	"/>
	<path d="M170.364,150h69.657l-56.195,35.709c-4.577,2.908-7.777,7.552-8.866,12.864c-1.089,5.313,0.026,10.841,3.091,15.316
		l22.57,32.958c3.866,5.646,10.131,8.702,16.519,8.702c3.674,0,7.388-1.011,10.709-3.121l91.833-58.346l28.389,32.304l-8.541,30.458
		c-2.982,10.636,3.222,21.675,13.856,24.657c1.806,0.507,3.623,0.748,5.411,0.748c8.741,0,16.771-5.775,19.246-14.604l11.472-40.908
		c1.828-6.518,0.235-13.518-4.233-18.603l-80.267-91.337c-3.798-4.321-9.271-6.798-15.023-6.798h-93.713l-27.889,39.9
		C169.039,149.964,169.697,150,170.364,150z M41.386,223.388l52.473,36.642c3.622,2.528,8.607,1.644,11.138-1.977l8.02-11.476
		c2.532-3.622,1.646-8.611-1.977-11.142l-18.035-12.594l91.623-131.084c3.164-4.526,2.06-10.761-2.468-13.925
		c-4.526-3.166-10.762-2.06-13.925,2.468L76.607,211.392l-18.041-12.598c-3.621-2.528-8.606-1.644-11.137,1.977l-8.021,11.476
		C36.877,215.868,37.762,220.857,41.386,223.388z M345.63,131.225c16.359,11.438,36.59,7.763,48.045-8.571
		s7.858-36.699-8.501-48.137c-16.359-11.437-36.761-7.848-48.216,8.485C325.502,99.336,329.271,119.787,345.63,131.225z M98,302.922
		c-43.01,0-78,34.99-78,77.999c0,43.01,34.99,78.001,78,78.001s78-34.991,78-78.001C176,337.912,141.01,302.922,98,302.922z
		 M98,438.922c-31.981,0-58-26.02-58-58.001c0-31.98,26.019-57.999,58-57.999s58,26.019,58,57.999
		C156,412.902,129.982,438.922,98,438.922z M382,302.922c-43.01,0-78,34.99-78,77.999c0,43.01,34.99,78.001,78,78.001
		s78-34.991,78-78.001C460,337.912,425.01,302.922,382,302.922z M382,438.922c-31.981,0-58-26.02-58-58.001
		c0-31.98,26.019-57.999,58-57.999s58,26.019,58,57.999C440,412.902,413.982,438.922,382,438.922z M302.229,296.29l-29.699-31.545
		c-7.571-8.04-20.228-8.425-28.271-0.852c-8.042,7.571-8.424,20.229-0.852,28.271l18.413,19.558l-28.654,39.951l-45.273-90.613
		c-4.938-9.88-16.948-13.891-26.831-8.952c-9.881,4.938-13.889,16.949-8.952,26.831l59.974,120.035l0.043,0.086l19.983,39.997
		c3.504,7.011,10.568,11.065,17.907,11.065c3.003,0,6.054-0.68,8.924-2.113c9.881-4.938,13.889-16.949,8.952-26.831l-14.516-29.054
		l50.543-70.469C309.494,313.885,308.786,303.254,302.229,296.29z"/>
</g>
<g id="Guides">
</g>
</svg>
