<svg xmlns="http://www.w3.org/2000/svg" width="1000pt" height="1000pt" viewBox="0 0 1000 1000"><path d="M 354.925781 312.5 L 500.042969 312.5 L 382.972656 386.894531 C 373.433594 392.953125 366.769531 402.628906 364.5 413.695312 C 362.230469 424.761719 364.554688 436.277344 370.941406 445.601562 L 417.960938 514.265625 C 426.015625 526.027344 439.066406 532.394531 452.375 532.394531 C 460.027344 532.394531 467.765625 530.289062 474.683594 525.890625 L 666.003906 404.335938 L 725.148438 471.636719 L 707.355469 535.089844 C 701.140625 557.25 714.066406 580.246094 736.222656 586.460938 C 739.984375 587.515625 743.769531 588.019531 747.492188 588.019531 C 765.703125 588.019531 782.433594 575.988281 787.589844 557.59375 L 811.488281 472.367188 C 815.296875 458.789062 811.980469 444.207031 802.671875 433.613281 L 635.449219 243.328125 C 627.535156 234.324219 616.132812 229.164062 604.148438 229.164062 L 408.914062 229.164062 L 350.8125 312.289062 C 352.164062 312.425781 353.535156 312.5 354.925781 312.5 Z M 86.222656 465.390625 L 195.539062 541.730469 C 203.085938 546.996094 213.472656 545.152344 218.742188 537.609375 L 235.453125 513.703125 C 240.726562 506.15625 238.882812 495.761719 231.332031 490.488281 L 193.761719 464.253906 L 384.640625 191.160156 C 391.234375 181.730469 388.933594 168.742188 379.5 162.148438 C 370.070312 155.554688 357.078125 157.859375 350.488281 167.292969 L 159.597656 440.398438 L 122.011719 414.152344 C 114.46875 408.886719 104.082031 410.730469 98.808594 418.273438 L 82.101562 442.179688 C 76.828125 449.726562 78.671875 460.117188 86.222656 465.390625 Z M 720.0625 273.386719 C 754.144531 297.214844 796.292969 289.558594 820.15625 255.527344 C 844.019531 221.5 836.527344 179.074219 802.445312 155.242188 C 768.363281 131.417969 725.859375 138.894531 701.996094 172.921875 C 678.128906 206.949219 685.980469 249.554688 720.0625 273.386719 Z M 204.167969 631.085938 C 114.5625 631.085938 41.667969 703.984375 41.667969 793.585938 C 41.667969 883.191406 114.5625 956.085938 204.167969 956.085938 C 293.769531 956.085938 366.667969 883.191406 366.667969 793.585938 C 366.667969 703.984375 293.769531 631.085938 204.167969 631.085938 Z M 204.167969 914.421875 C 137.539062 914.421875 83.332031 860.210938 83.332031 793.585938 C 83.332031 726.960938 137.539062 672.753906 204.167969 672.753906 C 270.792969 672.753906 325 726.960938 325 793.585938 C 325 860.210938 270.796875 914.421875 204.167969 914.421875 Z M 795.832031 631.085938 C 706.230469 631.085938 633.332031 703.984375 633.332031 793.585938 C 633.332031 883.191406 706.230469 956.085938 795.832031 956.085938 C 885.4375 956.085938 958.332031 883.191406 958.332031 793.585938 C 958.332031 703.984375 885.4375 631.085938 795.832031 631.085938 Z M 795.832031 914.421875 C 729.207031 914.421875 675 860.210938 675 793.585938 C 675 726.960938 729.207031 672.753906 795.832031 672.753906 C 862.460938 672.753906 916.667969 726.960938 916.667969 793.585938 C 916.667969 860.210938 862.460938 914.421875 795.832031 914.421875 Z M 629.644531 617.269531 L 567.769531 551.550781 C 551.996094 534.800781 525.628906 534 508.871094 549.777344 C 492.117188 565.550781 491.324219 591.921875 507.097656 608.675781 L 545.457031 649.421875 L 485.761719 732.652344 L 391.445312 543.875 C 381.15625 523.292969 356.136719 514.933594 335.546875 525.226562 C 314.960938 535.511719 306.609375 560.535156 316.894531 581.121094 L 441.839844 831.195312 L 441.929688 831.375 L 483.5625 914.703125 C 490.863281 929.308594 505.578125 937.753906 520.867188 937.753906 C 527.125 937.753906 533.480469 936.335938 539.460938 933.351562 C 560.046875 923.066406 568.394531 898.042969 558.109375 877.453125 L 527.867188 816.925781 L 633.167969 670.113281 C 644.777344 653.925781 643.304688 631.777344 629.644531 617.269531 Z M 629.644531 617.269531"/></svg>