<svg xmlns="http://www.w3.org/2000/svg" width="1000pt" height="1000pt" viewBox="0 0 1000 1000"><path d="M 824.210938 345.761719 C 858.292969 369.589844 900.441406 361.933594 924.304688 327.90625 C 948.167969 293.878906 940.675781 251.449219 906.59375 227.621094 C 872.511719 203.792969 830.007812 211.269531 806.144531 245.296875 C 782.277344 279.328125 790.128906 321.933594 824.210938 345.761719 Z M 204.167969 631.085938 C 114.5625 631.085938 41.667969 703.984375 41.667969 793.585938 C 41.667969 883.191406 114.5625 956.085938 204.167969 956.085938 C 293.769531 956.085938 366.667969 883.191406 366.667969 793.585938 C 366.667969 703.984375 293.769531 631.085938 204.167969 631.085938 Z M 204.167969 914.421875 C 137.539062 914.421875 83.332031 860.210938 83.332031 793.585938 C 83.332031 726.960938 137.539062 672.753906 204.167969 672.753906 C 270.792969 672.753906 325 726.960938 325 793.585938 C 325 860.210938 270.796875 914.421875 204.167969 914.421875 Z M 795.832031 631.085938 C 795.113281 631.085938 794.40625 631.132812 793.691406 631.140625 L 770.832031 592.640625 L 770.832031 354.167969 C 770.832031 331.152344 752.179688 312.5 729.167969 312.5 L 395.921875 312.5 C 326.949219 312.5 270.832031 368.574219 270.832031 437.5 C 270.832031 460.511719 289.488281 479.167969 312.5 479.167969 L 687.5 479.167969 L 687.5 604.074219 C 687.5 611.558594 689.515625 618.910156 693.335938 625.347656 L 710.980469 655.066406 C 664.441406 683.679688 633.332031 735.0625 633.332031 793.585938 C 633.332031 883.191406 706.230469 956.085938 795.832031 956.085938 C 885.4375 956.085938 958.332031 883.191406 958.332031 793.585938 C 958.332031 703.984375 885.4375 631.085938 795.832031 631.085938 Z M 795.832031 914.421875 C 729.207031 914.421875 675 860.210938 675 793.585938 C 675 750.273438 697.917969 712.230469 732.25 690.894531 L 776.464844 765.378906 C 784.253906 778.492188 798.113281 785.777344 812.335938 785.777344 C 819.570312 785.777344 826.894531 783.894531 833.566406 779.933594 C 853.355469 768.1875 859.871094 742.621094 848.125 722.835938 L 819.816406 675.152344 C 874.996094 686.308594 916.667969 735.171875 916.667969 793.585938 C 916.667969 860.210938 862.460938 914.421875 795.832031 914.421875 Z M 629.460938 617.078125 L 550.617188 534.394531 C 534.734375 517.738281 508.363281 517.113281 491.710938 532.992188 C 475.054688 548.871094 474.429688 575.246094 490.308594 591.898438 L 545.328125 649.601562 L 485.761719 732.652344 L 391.441406 543.875 C 381.152344 523.292969 356.132812 514.933594 335.542969 525.226562 C 314.957031 535.511719 306.609375 560.535156 316.894531 581.121094 L 441.839844 831.195312 L 441.929688 831.375 L 483.558594 914.703125 C 490.859375 929.308594 505.578125 937.753906 520.867188 937.753906 C 527.121094 937.753906 533.480469 936.335938 539.457031 933.351562 C 560.042969 923.066406 568.394531 898.042969 558.109375 877.453125 L 527.867188 816.925781 L 633.164062 670.113281 C 644.835938 653.847656 643.28125 631.570312 629.460938 617.078125 Z M 629.460938 617.078125"/></svg>