<?xml version="1.0" encoding="iso-8859-1"?>
<!-- Generator: Adobe Illustrator 23.0.4, SVG Export Plug-In . SVG Version: 6.00 Build 0)  -->
<svg version="1.1" xmlns="http://www.w3.org/2000/svg" xmlns:xlink="http://www.w3.org/1999/xlink" x="0px" y="0px"
	 viewBox="0 0 480 480" style="enable-background:new 0 0 480 480;" xml:space="preserve">
<g id="Layer_4_copy">
	<path d="M395.621,165.966c16.359,11.438,36.59,7.763,48.045-8.571s7.859-36.699-8.501-48.137
		c-16.359-11.437-36.761-7.848-48.216,8.485C375.494,134.077,379.261,154.528,395.621,165.966z M98,302.922
		c-43.01,0-78,34.99-78,77.999c0,43.01,34.99,78.001,78,78.001s78-34.991,78-78.001C176,337.912,141.01,302.922,98,302.922z
		 M98,438.922c-31.981,0-58-26.02-58-58.001c0-31.98,26.019-57.999,58-57.999s58,26.019,58,57.999
		C156,412.902,129.982,438.922,98,438.922z M382,302.922c-0.345,0-0.685,0.021-1.028,0.026L370,284.467V170c0-11.046-8.954-20-20-20
		H190.043C156.936,150,130,176.916,130,210c0,11.046,8.954,20,20,20h180v59.956c0,3.593,0.968,7.12,2.802,10.21l8.469,14.266
		C318.932,328.166,304,352.83,304,380.921c0,43.01,34.99,78.001,78,78.001s78-34.991,78-78.001
		C460,337.912,425.01,302.922,382,302.922z M382,438.922c-31.981,0-58-26.02-58-58.001c0-20.789,11.001-39.05,27.48-49.291
		l21.224,35.751c3.738,6.296,10.391,9.793,17.217,9.793c3.472,0,6.989-0.904,10.191-2.805c9.498-5.639,12.627-17.91,6.988-27.408
		l-13.588-22.888C419.998,329.429,440,352.882,440,380.921C440,412.902,413.982,438.922,382,438.922z M302.142,296.198
		l-37.845-39.689c-7.624-7.994-20.283-8.295-28.276-0.673c-7.994,7.623-8.295,20.282-0.673,28.276l26.409,27.696l-28.592,39.865
		l-45.273-90.613c-4.938-9.88-16.948-13.891-26.831-8.952c-9.881,4.938-13.889,16.949-8.952,26.831l59.974,120.035l0.043,0.086
		l19.983,39.997c3.504,7.011,10.568,11.065,17.907,11.065c3.003,0,6.054-0.68,8.924-2.113c9.881-4.938,13.889-16.949,8.952-26.831
		l-14.516-29.054l50.543-70.469C309.522,313.846,308.775,303.154,302.142,296.198z"/>
</g>
<g id="Layer_4_copy_2" style="display:none;">
	<g style="display:inline;">
		<path d="M239.884,362.207l51.721-73.865c3.043-4.345,4.234-9.721,3.313-14.944c-0.921-5.225-3.88-9.868-8.225-12.91l-38.52-26.971
			c-9.05-6.337-21.519-4.137-27.854,4.911c-6.336,9.049-4.137,21.52,4.911,27.854l22.137,15.5l-26.032,37.176l-32.955-76.841
			c-4.354-10.152-16.112-14.854-26.264-10.498c-10.151,4.354-14.852,16.112-10.498,26.264l60,139.903
			c3.251,7.582,10.633,12.122,18.391,12.122c2.63,0,5.303-0.521,7.873-1.624c10.151-4.354,14.852-16.112,10.498-26.264
			L239.884,362.207z"/>
		<path d="M377.446,153.452c15.472,10.834,34.604,7.353,45.438-8.119c10.834-15.472,7.433-34.763-8.039-45.597
			s-34.767-7.434-45.6,8.038C358.41,123.246,361.974,142.618,377.446,153.452z"/>
		<path d="M83.503,270.309c-43.814,0-79.461,35.646-79.461,79.461s35.646,79.461,79.461,79.461s79.461-35.646,79.461-79.461
			S127.318,270.309,83.503,270.309z M83.503,409.23c-32.787,0-59.461-26.674-59.461-59.461s26.674-59.461,59.461-59.461
			s59.461,26.674,59.461,59.461S116.29,409.23,83.503,409.23z"/>
		<path d="M369.906,270.309c-3.853,0-7.638,0.29-11.346,0.823L350,259.726v-69.682V150c0-11.046-8.954-20-20-20H190.043
			C156.936,130,130,156.936,130,190.044c0,11.046,8.954,20,20,20h160v56.352c0,4.329,1.404,8.542,4.003,12.004l6.755,9.002
			c-18.442,14.564-30.314,37.099-30.314,62.369c0,43.814,35.646,79.461,79.461,79.461s79.461-35.646,79.461-79.461
			S413.72,270.309,369.906,270.309z M369.906,409.23c-32.787,0-59.461-26.674-59.461-59.461c0-18.74,8.723-35.472,22.312-46.379
			l19.855,26.458c3.93,5.237,9.934,7.998,16.013,7.997c4.177,0,8.391-1.304,11.988-4.004c8.835-6.63,10.623-19.167,3.993-28.001
			l-11.595-15.451c31.349,1.621,56.355,27.634,56.355,59.38C429.367,382.557,402.693,409.23,369.906,409.23z"/>
	</g>
</g>
<g id="Guides">
</g>
</svg>
