<svg xmlns="http://www.w3.org/2000/svg" viewBox="0 0 480 480"><path d="M395.621,165.966c16.359,11.438,36.59,7.763,48.045-8.571s7.859-36.699-8.501-48.137 c-16.359-11.437-36.761-7.848-48.216,8.485C375.494,134.077,379.261,154.528,395.621,165.966z M98,302.922 c-43.01,0-78,34.99-78,77.999c0,43.01,34.99,78.001,78,78.001s78-34.991,78-78.001C176,337.912,141.01,302.922,98,302.922z M98,438.922c-31.981,0-58-26.02-58-58.001c0-31.98,26.019-57.999,58-57.999s58,26.019,58,57.999 C156,412.902,129.982,438.922,98,438.922z M382,302.922c-0.345,0-0.685,0.021-1.028,0.026L370,284.467V170c0-11.046-8.954-20-20-20 H190.043C156.936,150,130,176.916,130,210c0,11.046,8.954,20,20,20h180v59.956c0,3.593,0.968,7.12,2.802,10.21l8.469,14.266 C318.932,328.166,304,352.83,304,380.921c0,43.01,34.99,78.001,78,78.001s78-34.991,78-78.001 C460,337.912,425.01,302.922,382,302.922z M382,438.922c-31.981,0-58-26.02-58-58.001c0-20.789,11.001-39.05,27.48-49.291 l21.224,35.751c3.738,6.296,10.391,9.793,17.217,9.793c3.472,0,6.989-0.904,10.191-2.805c9.498-5.639,12.627-17.91,6.988-27.408 l-13.588-22.888C419.998,329.429,440,352.882,440,380.921C440,412.902,413.982,438.922,382,438.922z M302.142,296.198 l-37.845-39.689c-7.624-7.994-20.283-8.295-28.276-0.673c-7.994,7.623-8.295,20.282-0.673,28.276l26.409,27.696l-28.592,39.865 l-45.273-90.613c-4.938-9.88-16.948-13.891-26.831-8.952c-9.881,4.938-13.889,16.949-8.952,26.831l59.974,120.035l0.043,0.086 l19.983,39.997c3.504,7.011,10.568,11.065,17.907,11.065c3.003,0,6.054-0.68,8.924-2.113c9.881-4.938,13.889-16.949,8.952-26.831 l-14.516-29.054l50.543-70.469C309.522,313.846,308.775,303.154,302.142,296.198z"/></svg>