<svg xmlns="http://www.w3.org/2000/svg" width="1000pt" height="1000pt" viewBox="0 0 1000 1000"><path d="M 802.828125 77.992188 C 788.085938 60.324219 761.808594 57.953125 744.140625 72.691406 L 556.597656 229.160156 L 440.089844 229.160156 L 249.164062 95.472656 C 230.3125 82.269531 204.332031 86.855469 191.136719 105.703125 C 177.933594 124.550781 182.515625 150.535156 201.367188 163.730469 L 395.832031 299.894531 L 395.832031 520.824219 C 395.832031 543.835938 414.488281 562.488281 437.5 562.488281 L 562.5 562.488281 C 585.511719 562.488281 604.167969 543.835938 604.167969 520.824219 L 604.167969 297.996094 L 797.523438 136.679688 C 815.195312 121.9375 817.570312 95.664062 802.828125 77.992188 Z M 592.140625 616.367188 C 575.964844 600 549.585938 599.835938 533.214844 616.011719 C 516.847656 632.183594 516.6875 658.566406 532.859375 674.933594 L 611.113281 754.136719 L 604.210938 907.324219 C 603.175781 930.308594 620.972656 949.789062 643.960938 950.824219 C 644.601562 950.851562 645.234375 950.867188 645.867188 950.867188 C 668.015625 950.867188 686.453125 933.425781 687.460938 911.074219 L 695.183594 739.6875 C 695.707031 728.085938 691.363281 716.789062 683.199219 708.527344 Z M 451.007812 605.894531 C 429.054688 599.007812 405.667969 611.222656 398.777344 633.175781 L 314.410156 902.054688 C 307.519531 924.011719 319.738281 947.394531 341.691406 954.285156 C 345.84375 955.585938 350.046875 956.207031 354.179688 956.207031 C 371.902344 956.207031 388.335938 944.808594 393.921875 927.003906 L 478.292969 658.128906 C 485.179688 636.171875 472.964844 612.789062 451.007812 605.894531 Z M 452.542969 171.308594 C 491.921875 198.882812 540.617188 190.023438 568.195312 150.644531 C 595.769531 111.265625 587.113281 62.164062 547.734375 34.589844 C 508.355469 7.015625 459.242188 15.667969 431.667969 55.046875 C 404.09375 94.425781 413.164062 143.734375 452.542969 171.308594 Z M 452.542969 171.308594"/></svg>