<svg xmlns="http://www.w3.org/2000/svg" viewBox="0 0 480 480"><path d="M385.357,37.437c-7.076-8.481-19.688-9.619-28.17-2.545l-90.02,75.104h-55.924l-91.644-64.17 c-9.049-6.337-21.519-4.136-27.854,4.911c-6.336,9.048-4.137,21.52,4.911,27.854L190,143.95v106.045c0,11.046,8.954,20,20,20h60 c11.046,0,20-8.954,20-20V143.039l92.812-77.433C391.294,58.53,392.434,45.918,385.357,37.437z M284.228,295.856 c-7.765-7.856-20.427-7.934-28.284-0.171c-7.857,7.764-7.934,20.427-0.171,28.284l37.562,38.017l-3.313,73.529 c-0.497,11.034,8.045,20.383,19.079,20.88c0.308,0.014,0.611,0.021,0.916,0.021c10.631,0,19.48-8.372,19.964-19.1l3.707-82.266 c0.251-5.569-1.834-10.991-5.752-14.957L284.228,295.856z M216.484,290.83c-10.537-3.307-21.763,2.557-25.07,13.095 l-40.497,129.061c-3.307,10.539,2.557,21.764,13.095,25.071c1.993,0.625,4.011,0.922,5.994,0.922 c8.507,0,16.396-5.471,19.077-14.017l40.497-129.061C232.887,305.362,227.023,294.138,216.484,290.83z M217.221,82.229 c18.902,13.235,42.276,8.983,55.512-9.919s9.081-42.471-9.821-55.706c-18.902-13.236-42.476-9.083-55.711,9.819 C193.965,45.325,198.318,68.992,217.221,82.229z"/></svg>