<?xml version="1.0" encoding="iso-8859-1"?>
<!-- Generator: Adobe Illustrator 23.0.4, SVG Export Plug-In . SVG Version: 6.00 Build 0)  -->
<svg version="1.1" xmlns="http://www.w3.org/2000/svg" xmlns:xlink="http://www.w3.org/1999/xlink" x="0px" y="0px"
	 viewBox="0 0 480 480" style="enable-background:new 0 0 480 480;" xml:space="preserve">
<g id="Workspace">
	<path d="M449.922,267.777c-0.004-4.809-1.881-9.328-5.285-12.725c-3.398-3.392-7.912-5.259-12.713-5.259h-0.021l-384,0.416
		c-4.809,0.005-9.327,1.883-12.723,5.286s-5.263,7.926-5.258,12.733l0.186,171.998c0.006,5.52,4.481,9.989,10,9.989h0.011
		c5.522-0.006,9.995-4.488,9.989-10.011L50.076,410h380l0.032,29.794c0.006,5.52,4.481,9.99,10,9.989h0.011
		c5.522-0.006,9.995-4.488,9.989-10.011L449.922,267.777z M180.006,270.066L230,270.013V320h-49.994V270.066z M110,270.143
		l50.006-0.054V320H110V270.143z M49.925,270.208L90,270.164V320H49.978L49.925,270.208z M50.053,390L50,340h40v49.979L90.001,390
		H50.053z M109.999,390l0.001-0.021V340h50.006v49.979l0.001,0.021H109.999z M180.005,390l0.001-0.021V340H230v49.979l0.001,0.021
		H180.005z M249.999,390l0.001-0.021V340h50v49.979l0.001,0.021H249.999z M300,269.999V320h-50v-50.001l-0.001-0.008l50.004-0.055
		L300,269.999z M319.999,390l0.001-0.021V340h50.015v49.979l0.001,0.021H319.999z M370.014,269.999V320H320v-50.001l-0.004-0.084
		l50.025-0.054L370.014,269.999z M429.924,269.796L429.978,320h-39.964v-50.001l-0.008-0.16L429.924,269.796z M390.013,390
		l0.001-0.021V340H430l0.055,50H390.013z M265.972,131.75h-51.929c-3.605,0-6.796,2.31-7.909,5.732l-16.035,49.386
		c-1.114,3.423,0.1,7.162,3.007,9.289l42.009,30.509c2.907,2.127,6.862,2.127,9.771,0l41.991-30.509
		c2.925-2.127,4.138-5.866,3.024-9.289l-16.035-49.386C272.753,134.06,269.562,131.75,265.972,131.75z M147.569,230l8.877-22.575
		c1.185-3.03,0.285-6.479-2.235-8.55l-40.884-33.483c2.646-23.081,11.479-44.31,24.795-61.978l35.049-0.272
		c2.82-0.015,5.4-1.636,6.661-4.186l19.669-39.864c12.729-4.274,26.349-6.591,40.499-6.591c14.151,0,27.771,2.316,40.499,6.591
		l19.682,39.864c1.245,2.55,3.825,4.171,6.66,4.186l35.037,0.272c13.315,17.668,22.149,38.895,24.795,61.977l-40.886,33.484
		c-2.521,2.07-3.42,5.52-2.235,8.55L332.428,230h49.029c5.529-15.64,8.548-32.464,8.548-49.994C390.006,97.157,322.833,30,240,30
		C157.152,30,89.995,97.157,89.995,180.006c0,17.53,3.018,34.354,8.546,49.994H147.569z"/>
</g>
<g id="Guide">
</g>
</svg>
