<?xml version="1.0" encoding="iso-8859-1"?>
<!-- Generator: Adobe Illustrator 23.0.4, SVG Export Plug-In . SVG Version: 6.00 Build 0)  -->
<svg version="1.1" xmlns="http://www.w3.org/2000/svg" xmlns:xlink="http://www.w3.org/1999/xlink" x="0px" y="0px"
	 viewBox="0 0 480 480" style="enable-background:new 0 0 480 480;" xml:space="preserve">
<g id="Shape">
	<g style="display:none;">
		<g style="display:inline;">
			<path d="M106.56,208.853c-2.627,1.313-5.759,1.09-8.165-0.595L83.173,197.6l-28.474-19.938
				c-4.393-3.076-10.551-2.447-13.904,1.738c-3.675,4.586-2.667,11.243,2.071,14.56l28.757,20.136l15.221,10.658
				c2.378,1.665,3.705,4.493,3.364,7.376c-1.338,11.314,3.827,23.003,14.497,29.359c12.721,7.577,29.367,4.57,38.642-6.971
				c10.982-13.665,7.985-33.525-6.141-43.416C127.863,204.561,116.091,204.088,106.56,208.853z"/>
		</g>
		<g style="display:inline;">
			<path d="M81.703,229.35l-21.091-14.768c-0.451-0.316-0.989-0.486-1.54-0.486l-22.557,0c-5.561,0-10.069,4.508-10.069,10.069
				v7.384c0,1.483,1.202,2.685,2.685,2.685l51.032,0C82.788,234.235,83.854,230.856,81.703,229.35z"/>
		</g>
		<g style="display:inline;">
			<path d="M84.123,149.179l-6.939,2.526c-5.226,1.902-7.92,7.68-6.018,12.906l7.715,21.197c0.188,0.518,0.532,0.965,0.983,1.281
				l21.091,14.768c2.15,1.506,4.961-0.651,4.063-3.118l-17.454-47.955C87.057,149.39,85.517,148.672,84.123,149.179z"/>
		</g>
	</g>
	<path d="M143.346,254.518c10.981-13.665,7.984-33.524-6.141-43.416c-8.75-6.127-19.632-6.929-28.807-3.09l-20.834-57.229
		c-0.507-1.394-2.048-2.111-3.441-1.604l-6.938,2.525c-5.226,1.902-7.92,7.681-6.019,12.906l11.972,32.964l-28.438-19.912
		c-4.394-3.076-10.551-2.447-13.904,1.738c-3.675,4.586-2.666,11.243,2.07,14.56l28.757,20.137H36.516
		c-5.562,0-10.069,4.508-10.069,10.069v7.384c0,1.482,1.202,2.685,2.686,2.685h60.902c-0.504,10.636,4.66,21.292,14.67,27.254
		C117.425,269.065,134.07,266.059,143.346,254.518z M405.325,47.817c-56.462-39.535-144.604-11.072-196.872,63.573
		c-45.307,64.705-48.777,142.864-12.124,188.286c2.231,2.765,2.354,6.675,0.315,9.586l-80.348,114.748
		c-2.534,3.62-1.655,8.608,1.964,11.143l19.66,13.766c3.619,2.534,8.607,1.654,11.142-1.965l80.027-114.291
		c2.072-2.959,5.87-4.165,9.265-2.93c55.437,20.176,128.771-9.772,174.565-75.174C465.187,179.914,461.787,87.352,405.325,47.817z"
		/>
	<g style="display:none;">
		<g style="display:inline;">
			<path d="M1485.414,208.853c-2.627,1.313-5.759,1.09-8.165-0.595l-15.222-10.659l-28.474-19.938
				c-4.393-3.076-10.551-2.447-13.904,1.738c-3.675,4.586-2.667,11.243,2.07,14.56l28.757,20.136l15.221,10.658
				c2.378,1.665,3.705,4.493,3.364,7.376c-1.338,11.314,3.827,23.003,14.497,29.359c12.721,7.577,29.367,4.57,38.642-6.971
				c10.982-13.665,7.985-33.525-6.141-43.416C1506.716,204.561,1494.944,204.088,1485.414,208.853z"/>
		</g>
		<g style="display:inline;">
			<path d="M1488.853,234.235l-28.761-20.138l-44.724,0c-5.561,0-10.069,4.508-10.069,10.069v7.384c0,1.483,1.202,2.685,2.685,2.685
				L1488.853,234.235z"/>
		</g>
		<g style="display:inline;">
			<path d="M1462.976,149.179l-6.939,2.526c-5.226,1.902-7.92,7.68-6.018,12.906l18.458,50.825l19.068-6.618l-21.127-58.034
				C1465.911,149.39,1464.37,148.672,1462.976,149.179z"/>
		</g>
	</g>
</g>
<g id="Guide">
</g>
</svg>
