<svg xmlns="http://www.w3.org/2000/svg" viewBox="0 0 480 480"><path d="M143.346,254.518c10.981-13.665,7.984-33.524-6.141-43.416c-8.75-6.127-19.632-6.929-28.807-3.09l-20.834-57.229 c-0.507-1.394-2.048-2.111-3.441-1.604l-6.938,2.525c-5.226,1.902-7.92,7.681-6.019,12.906l11.972,32.964l-28.438-19.912 c-4.394-3.076-10.551-2.447-13.904,1.738c-3.675,4.586-2.666,11.243,2.07,14.56l28.757,20.137H36.516 c-5.562,0-10.069,4.508-10.069,10.069v7.384c0,1.482,1.202,2.685,2.686,2.685h60.902c-0.504,10.636,4.66,21.292,14.67,27.254 C117.425,269.065,134.07,266.059,143.346,254.518z M405.325,47.817c-56.462-39.535-144.604-11.072-196.872,63.573 c-45.307,64.705-48.777,142.864-12.124,188.286c2.231,2.765,2.354,6.675,0.315,9.586l-80.348,114.748 c-2.534,3.62-1.655,8.608,1.964,11.143l19.66,13.766c3.619,2.534,8.607,1.654,11.142-1.965l80.027-114.291 c2.072-2.959,5.87-4.165,9.265-2.93c55.437,20.176,128.771-9.772,174.565-75.174C465.187,179.914,461.787,87.352,405.325,47.817z"/></svg>