<?xml version="1.0" encoding="iso-8859-1"?>
<!-- Generator: Adobe Illustrator 23.0.4, SVG Export Plug-In . SVG Version: 6.00 Build 0)  -->
<svg version="1.1" xmlns="http://www.w3.org/2000/svg" xmlns:xlink="http://www.w3.org/1999/xlink" x="0px" y="0px"
	 viewBox="0 0 480 480" style="enable-background:new 0 0 480 480;" xml:space="preserve">
<g id="Workspace_copy_4">
	<path d="M280.723,258.222l-25.537,29.794l-2.015,2.351l66.053,77.061c9.618-6.005,18.625-13.144,26.843-21.36
		c2.689-2.689,5.263-5.464,7.72-8.315l-70.801-82.602C282.301,256.206,281.564,257.24,280.723,258.222z M319.223,112.573
		l-66.052,77.061l2.015,2.351l25.537,29.793c0.842,0.981,1.578,2.016,2.263,3.072l70.801-82.601c-2.458-2.852-5.03-5.626-7.72-8.315
		C337.849,125.717,328.842,118.579,319.223,112.573z M265.537,234.793L240,205l-79.223-92.427
		c-9.619,6.006-18.625,13.144-26.843,21.361c-2.689,2.689-5.263,5.464-7.72,8.315l79.324,92.544c2.568,2.996,2.568,7.417,0,10.413
		l-79.324,92.544c2.458,2.853,5.031,5.627,7.72,8.316c8.217,8.217,17.224,15.355,26.843,21.36L240,275l25.537-29.794
		C268.105,242.21,268.105,237.79,265.537,234.793z M240,40C129.543,40,40,129.543,40,240s89.543,200,200,200s200-89.543,200-200
		S350.457,40,240,40z M360.208,360.208C328.1,392.316,285.408,410,240,410c-45.409,0-88.1-17.684-120.208-49.792
		C87.683,328.1,70,285.408,70,240c0-45.409,17.683-88.1,49.792-120.208C151.9,87.683,194.591,70,240,70
		c45.408,0,88.1,17.683,120.208,49.792C392.316,151.9,410,194.591,410,240C410,285.408,392.316,328.1,360.208,360.208z"/>
</g>
<g id="Guide">
	<g id="Layer_4">
	</g>
</g>
</svg>
