<?xml version="1.0" encoding="iso-8859-1"?>
<!-- Generator: Adobe Illustrator 23.0.4, SVG Export Plug-In . SVG Version: 6.00 Build 0)  -->
<svg version="1.1" xmlns="http://www.w3.org/2000/svg" xmlns:xlink="http://www.w3.org/1999/xlink" x="0px" y="0px"
	 viewBox="0 0 480 480" style="enable-background:new 0 0 480 480;" xml:space="preserve">
<g id="Shape">
	<path d="M224.514,314.227l-98.299-68.83c-9.05-6.336-21.519-4.135-27.854,4.912s-4.137,21.52,4.911,27.854l81.924,57.363
		l-57.477,82.243c-6.331,9.052-4.126,21.521,4.925,27.853c3.49,2.441,7.488,3.613,11.446,3.613c6.309,0,12.517-2.978,16.406-8.538
		l68.935-98.624C235.76,333.023,233.559,320.559,224.514,314.227z M124.566,317.49c-9.049-6.336-21.519-4.137-27.854,4.91
		L23.148,427.659c-6.336,9.048-4.137,21.52,4.911,27.854c3.492,2.445,7.492,3.619,11.454,3.619c6.305,0,12.51-2.975,16.4-8.53
		l73.563-105.259C135.813,336.297,133.614,323.824,124.566,317.49z M257.511,93.134c18.902,13.235,42.276,8.983,55.512-9.919
		s9.081-42.47-9.821-55.706c-18.902-13.235-42.476-9.082-55.711,9.82C234.255,56.231,238.608,79.898,257.511,93.134z
		 M462.143,215.011l-102.49-0.21c-1.714-10.527-8.913-19.212-18.574-23.016c-5.259-2.07-10.958,1.788-10.958,7.44v1.651h-24.912
		l-15.856-55.518c-1.262-4.416-4.006-8.266-7.77-10.896l-2.749-1.923l-0.226-0.175l-49.148-34.416
		c-0.281-0.197-0.576-0.361-0.864-0.542L213.098,86.57c-3.355-2.348-7.351-3.607-11.444-3.611l-51.533-0.043V29.715
		c0-11.045-8.954-20-20-20s-20,8.954-20,20v73.184c0,11.039,8.943,19.99,19.982,20l57.426,0.049l-54.779,78.162
		c-3.045,4.346-4.239,9.721-3.319,14.945s3.877,9.871,8.223,12.914l49.18,34.451c3.386,2.371,7.396,3.619,11.475,3.619
		c1.156,0,2.317-0.102,3.471-0.305c5.225-0.92,9.869-3.879,12.912-8.225l46.439-66.316l9.761,34.176
		c2.452,8.586,10.3,14.508,19.23,14.508h40c0,5.113,5.05,8.714,9.877,7.027c10.104-3.53,17.724-12.331,19.597-23.104l102.529,0.21
		h0.01c2.757,0,4.994-2.231,5-4.99C467.139,217.26,464.904,215.017,462.143,215.011z"/>
</g>
<g id="Guide">
</g>
</svg>
