<svg xmlns="http://www.w3.org/2000/svg" width="1000pt" height="1000pt" viewBox="0 0 1000 1000"><path d="M 467.738281 654.640625 L 262.949219 511.242188 C 244.09375 498.042969 218.117188 502.628906 204.917969 521.476562 C 191.722656 540.324219 196.300781 566.308594 215.148438 579.507812 L 385.824219 699.011719 L 266.082031 870.351562 C 252.890625 889.210938 257.484375 915.1875 276.339844 928.378906 C 283.613281 933.464844 291.941406 935.90625 300.1875 935.90625 C 313.332031 935.90625 326.265625 929.703125 334.367188 918.117188 L 477.980469 712.652344 C 491.167969 693.796875 486.582031 667.832031 467.738281 654.640625 Z M 259.511719 661.4375 C 240.660156 648.238281 214.679688 652.820312 201.484375 671.667969 L 48.226562 890.957031 C 35.023438 909.804688 39.605469 935.789062 58.457031 948.984375 C 65.730469 954.078125 74.066406 956.523438 82.320312 956.523438 C 95.453125 956.523438 108.382812 950.328125 116.484375 938.753906 L 269.742188 719.464844 C 282.945312 700.617188 278.363281 674.632812 259.511719 661.4375 Z M 536.480469 194.027344 C 575.859375 221.601562 624.554688 212.742188 652.132812 173.363281 C 679.707031 133.984375 671.050781 84.886719 631.671875 57.308594 C 592.292969 29.738281 543.179688 38.390625 515.605469 77.769531 C 488.03125 117.148438 497.101562 166.453125 536.480469 194.027344 Z M 962.796875 447.941406 L 749.277344 447.503906 C 745.707031 425.570312 730.707031 407.476562 710.582031 399.550781 C 699.625 395.238281 687.753906 403.277344 687.753906 415.050781 L 687.753906 418.492188 L 635.851562 418.492188 L 602.820312 302.828125 C 600.191406 293.628906 594.472656 285.609375 586.632812 280.128906 L 580.902344 276.121094 L 580.433594 275.757812 L 478.042969 204.058594 C 477.457031 203.648438 476.839844 203.304688 476.242188 202.929688 L 443.953125 180.355469 C 436.964844 175.460938 428.640625 172.839844 420.113281 172.832031 L 312.753906 172.742188 L 312.753906 61.90625 C 312.753906 38.894531 294.097656 20.238281 271.085938 20.238281 C 248.074219 20.238281 229.417969 38.894531 229.417969 61.90625 L 229.417969 214.371094 C 229.417969 237.371094 248.050781 256.019531 271.046875 256.039062 L 390.683594 256.140625 L 276.5625 418.980469 C 270.21875 428.035156 267.730469 439.230469 269.648438 450.113281 C 271.566406 460.996094 277.726562 470.679688 286.777344 477.019531 L 389.238281 548.792969 C 396.292969 553.730469 404.644531 556.332031 413.144531 556.332031 C 415.550781 556.332031 417.972656 556.117188 420.375 555.695312 C 431.261719 553.777344 440.933594 547.613281 447.273438 538.558594 L 544.023438 400.402344 L 564.359375 471.601562 C 569.464844 489.488281 585.816406 501.828125 604.421875 501.828125 L 687.753906 501.828125 C 687.753906 512.480469 698.273438 519.980469 708.332031 516.464844 C 729.382812 509.113281 745.257812 490.777344 749.160156 468.332031 L 962.761719 468.769531 L 962.78125 468.769531 C 968.523438 468.769531 973.183594 464.121094 973.199219 458.375 C 973.207031 452.625 968.550781 447.953125 962.796875 447.941406 Z M 962.796875 447.941406"/></svg>