<?xml version="1.0" encoding="iso-8859-1"?>
<!-- Generator: Adobe Illustrator 23.0.4, SVG Export Plug-In . SVG Version: 6.00 Build 0)  -->
<svg version="1.1" id="Workspace" xmlns="http://www.w3.org/2000/svg" xmlns:xlink="http://www.w3.org/1999/xlink" x="0px" y="0px"
	 viewBox="0 0 480 480" style="enable-background:new 0 0 480 480;" xml:space="preserve">
<path d="M96.967,339.766c0.397,0.023,0.798,0.036,1.2,0.036h90.817c4.95,0,6.164-6.862,1.524-8.588l-0.251-0.094
	c-35.545-13.241-69.799-30.412-101.812-51.038c-0.515-0.332-1.026-0.663-1.535-0.994c-2.979-1.936-6.91,0.204-6.91,3.756v38.38
	C80,330.865,87.342,339.195,96.967,339.766z M448.821,283.03c-5.881-16.916-22.847-29.048-41.722-29.048
	c-90.087,0-165.065-64.116-182.112-149.192l-0.036-0.176C223.168,96.038,215.433,90,206.674,90H99.812C88.87,90,80,98.87,80,109.812
	v136.243c0,2.619,1.282,5.065,3.428,6.566c5.007,3.504,10.287,7.063,15.85,10.647c31.268,20.145,75.486,43.534,130.723,59.925V370
	H40.343c-5.326,0-9.977,4.02-10.321,9.335C29.644,385.159,34.257,390,40,390h400c5.523,0,10-4.478,10-10v-89.827
	C450,287.744,449.618,285.324,448.821,283.03z M430,362c0,4.418-3.581,8-8,8H250v-41.31c15.981,4.034,32.784,7.443,50.376,10.005
	c5.108,0.744,10.27,1.106,15.433,1.106l43.552-0.001H422c4.419,0,8,3.582,8,8V362z"/>
</svg>
