<?xml version="1.0" encoding="iso-8859-1"?>
<!-- Generator: Adobe Illustrator 23.0.4, SVG Export Plug-In . SVG Version: 6.00 Build 0)  -->
<svg version="1.1" xmlns="http://www.w3.org/2000/svg" xmlns:xlink="http://www.w3.org/1999/xlink" x="0px" y="0px"
	 viewBox="0 0 480 480" style="enable-background:new 0 0 480 480;" xml:space="preserve">
<g id="Workspace">
	<path d="M181.498,82.759c18.902,13.235,42.276,8.983,55.512-9.919s9.081-42.471-9.821-55.706s-42.476-9.082-55.711,9.82
		S162.596,69.523,181.498,82.759z M363.633,111.022l-53.676,17.892l-53.676-17.892l-0.249-0.069
		c-0.345-0.109-0.691-0.198-1.038-0.289c-0.305-0.078-0.607-0.164-0.915-0.229c-0.304-0.064-0.606-0.106-0.91-0.156
		c-0.359-0.059-0.718-0.122-1.081-0.161c-0.249-0.027-0.496-0.035-0.744-0.053c-0.415-0.028-0.83-0.059-1.249-0.062l-0.138-0.007
		h-57.975L110,93.604V42.132l3.104-0.5c10.905-1.759,18.319-12.024,16.562-22.929c-1.759-10.904-12.028-18.322-22.929-16.562
		l-19.92,3.212C77.125,6.916,70,15.282,70,25.099V110c0,9.534,6.729,17.742,16.079,19.611l83.919,16.779l-0.041,83.409
		c-0.003,5.306,2.103,10.395,5.854,14.147c3.75,3.753,8.838,5.861,14.144,5.862l59.996,0.01h0.003
		c5.304,0,10.391-2.106,14.141-5.856c3.752-3.751,5.859-8.838,5.859-14.143l0.003-72.076l33.677,11.226
		c2.053,0.685,4.188,1.026,6.324,1.026s4.271-0.342,6.324-1.026l60-20c10.479-3.493,16.143-14.819,12.649-25.298
		C385.437,113.191,374.11,107.529,363.633,111.022z M289.913,269.996h-99.809c-11.046,0-20,8.954-20,20s8.954,20,20,20h70.26
		l-28.882,72.15c-4.105,10.255,0.88,21.896,11.135,26c2.438,0.976,4.952,1.438,7.427,1.438c7.936,0,15.444-4.755,18.573-12.572
		l39.863-99.583c2.467-6.162,1.716-13.146-2.005-18.643C302.756,273.289,296.551,269.996,289.913,269.996z M189.971,323.693h-0.004
		c-11.043,0-19.998,8.952-20,19.996l-0.008,37.671l-35.675,45.322c-6.832,8.68-5.334,21.254,3.346,28.086
		c3.666,2.886,8.026,4.285,12.356,4.285c5.921,0,11.783-2.618,15.729-7.631l39.957-50.764c2.774-3.524,4.283-7.88,4.284-12.366
		l0.01-44.596C209.969,332.652,201.017,323.695,189.971,323.693z M380.071,9.748c-16.569,0-30,13.432-30,30
		c0,16.569,13.431,30,30,30c16.568,0,30-13.431,30-30C410.071,23.18,396.64,9.748,380.071,9.748z"/>
</g>
<g id="Guide">
</g>
</svg>
