<svg xmlns="http://www.w3.org/2000/svg" width="1000pt" height="1000pt" viewBox="0 0 1000 1000"><path d="M 378.121094 172.414062 C 417.5 199.988281 466.195312 191.128906 493.769531 151.75 C 521.347656 112.371094 512.691406 63.269531 473.308594 35.695312 C 433.929688 8.121094 384.820312 16.773438 357.246094 56.152344 C 329.671875 95.535156 338.742188 144.839844 378.121094 172.414062 Z M 757.570312 231.296875 L 645.742188 268.570312 L 533.917969 231.296875 L 533.398438 231.152344 C 532.679688 230.925781 531.960938 230.738281 531.238281 230.550781 C 530.601562 230.386719 529.972656 230.207031 529.332031 230.074219 C 528.699219 229.941406 528.070312 229.851562 527.433594 229.746094 C 526.6875 229.625 525.941406 229.492188 525.183594 229.414062 C 524.664062 229.355469 524.148438 229.339844 523.632812 229.300781 C 522.769531 229.242188 521.902344 229.179688 521.03125 229.171875 L 520.742188 229.160156 L 399.960938 229.160156 L 229.167969 195.007812 L 229.167969 87.773438 L 235.632812 86.734375 C 258.351562 83.070312 273.796875 61.683594 270.136719 38.964844 C 266.472656 16.246094 245.078125 0.792969 222.367188 4.460938 L 180.867188 11.152344 C 160.675781 14.410156 145.832031 31.835938 145.832031 52.289062 L 145.832031 229.167969 C 145.832031 249.027344 159.851562 266.128906 179.332031 270.023438 L 354.164062 304.980469 L 354.078125 478.746094 C 354.070312 489.800781 358.457031 500.402344 366.273438 508.222656 C 374.085938 516.039062 384.683594 520.429688 395.738281 520.433594 L 520.730469 520.453125 L 520.738281 520.453125 C 531.789062 520.453125 542.386719 516.066406 550.199219 508.253906 C 558.015625 500.441406 562.402344 489.839844 562.402344 478.789062 L 562.410156 328.632812 L 632.570312 352.019531 C 636.847656 353.445312 641.296875 354.15625 645.746094 354.15625 C 650.195312 354.15625 654.644531 353.445312 658.921875 352.019531 L 783.921875 310.351562 C 805.753906 303.074219 817.550781 279.480469 810.273438 257.648438 C 802.992188 235.816406 779.394531 224.019531 757.570312 231.296875 Z M 603.984375 562.492188 L 396.050781 562.492188 C 373.039062 562.492188 354.382812 581.144531 354.382812 604.160156 C 354.382812 627.171875 373.039062 645.824219 396.050781 645.824219 L 542.425781 645.824219 L 482.253906 796.136719 C 473.703125 817.503906 484.085938 841.753906 505.453125 850.304688 C 510.53125 852.335938 515.769531 853.300781 520.925781 853.300781 C 537.457031 853.300781 553.101562 843.394531 559.617188 827.109375 L 642.667969 619.644531 C 647.804688 606.804688 646.242188 592.257812 638.488281 580.804688 C 630.742188 569.351562 617.816406 562.492188 603.984375 562.492188 Z M 395.773438 674.359375 L 395.765625 674.359375 C 372.757812 674.359375 354.101562 693.011719 354.097656 716.019531 L 354.082031 794.5 L 279.757812 888.921875 C 265.523438 907.003906 268.644531 933.199219 286.730469 947.433594 C 294.367188 953.445312 303.449219 956.359375 312.472656 956.359375 C 324.804688 956.359375 337.019531 950.90625 345.238281 940.460938 L 428.484375 834.703125 C 434.261719 827.363281 437.40625 818.289062 437.410156 808.941406 L 437.429688 716.035156 C 437.433594 693.023438 418.785156 674.363281 395.773438 674.359375 Z M 791.816406 20.308594 C 757.296875 20.308594 729.316406 48.292969 729.316406 82.808594 C 729.316406 117.328125 757.296875 145.308594 791.816406 145.308594 C 826.332031 145.308594 854.316406 117.328125 854.316406 82.808594 C 854.316406 48.292969 826.332031 20.308594 791.816406 20.308594 Z M 791.816406 20.308594"/></svg>