<?xml version="1.0" encoding="iso-8859-1"?>
<!-- Generator: Adobe Illustrator 23.0.4, SVG Export Plug-In . SVG Version: 6.00 Build 0)  -->
<svg version="1.1" xmlns="http://www.w3.org/2000/svg" xmlns:xlink="http://www.w3.org/1999/xlink" x="0px" y="0px"
	 viewBox="0 0 480 480" style="enable-background:new 0 0 480 480;" xml:space="preserve">
<g id="Workspace_copy">
	<path d="M268.662,321.108l-98.299-68.829c-9.05-6.337-21.52-4.136-27.854,4.911c-6.336,9.048-4.137,21.52,4.911,27.854
		l81.924,57.363l-57.319,81.945c-6.331,9.052-4.126,21.521,4.925,27.853c3.49,2.441,7.488,3.613,11.446,3.613
		c6.309,0,12.516-2.977,16.406-8.538l68.777-98.326C279.908,339.906,277.707,327.441,268.662,321.108z M168.715,324.371
		c-9.05-6.336-21.519-4.136-27.854,4.911l-68.829,98.299c-6.336,9.048-4.137,21.52,4.911,27.854
		c3.492,2.445,7.492,3.619,11.454,3.619c6.305,0,12.51-2.975,16.4-8.53l68.829-98.299
		C179.962,343.178,177.763,330.706,168.715,324.371z M301.659,100.016c18.902,13.235,42.276,8.983,55.512-9.919
		s9.081-42.471-9.821-55.706s-42.476-9.082-55.711,9.82S282.757,86.78,301.659,100.016z M417.792,108.129
		c-9.05-6.337-21.519-4.136-27.855,4.911l-34.415,49.149L323.118,139.5c-0.124-0.092-0.237-0.194-0.364-0.283l-49.149-34.414
		c-0.121-0.085-0.249-0.151-0.372-0.233l-48.774-34.152c-4.346-3.043-9.721-4.233-14.944-3.313c-5.224,0.921-9.868,3.88-12.91,8.225
		l-63.694,90.965c-6.336,9.048-4.137,21.52,4.911,27.854c7.836,5.486,18.229,4.562,24.991-1.655
		c1.047-0.963,2.014-2.043,2.863-3.256l7.216-10.306v-0.001c2.663,6.637,6.682,12.695,11.981,17.727
		c0.657,0.623,1.327,1.236,2.022,1.827c1.385,1.175,2.846,2.283,4.383,3.319c0.522,0.352,1.05,0.692,1.581,1.021
		c0.165,0.103,0.333,0.197,0.498,0.297c0.368,0.223,0.736,0.446,1.108,0.658c0.199,0.113,0.4,0.218,0.601,0.328
		c0.343,0.189,0.686,0.38,1.032,0.56c0.213,0.111,0.43,0.214,0.644,0.322c0.336,0.168,0.671,0.338,1.009,0.498
		c0.227,0.107,0.454,0.206,0.682,0.31c0.33,0.15,0.66,0.303,0.992,0.445c0.233,0.1,0.469,0.192,0.703,0.289
		c0.329,0.135,0.659,0.271,0.991,0.398c0.237,0.092,0.477,0.177,0.715,0.265c0.332,0.122,0.664,0.244,0.997,0.358
		c0.241,0.083,0.484,0.16,0.727,0.239c0.332,0.108,0.665,0.216,0.999,0.317c0.246,0.074,0.494,0.145,0.741,0.215
		c0.333,0.095,0.666,0.189,1,0.277c0.249,0.065,0.5,0.127,0.75,0.188c0.334,0.082,0.668,0.163,1.004,0.238
		c0.252,0.058,0.506,0.11,0.759,0.163c0.334,0.069,0.668,0.137,1.003,0.199c0.257,0.049,0.515,0.094,0.772,0.137
		c0.333,0.058,0.667,0.112,1.001,0.162c0.259,0.039,0.519,0.075,0.778,0.11c0.334,0.045,0.668,0.087,1.003,0.126
		c0.261,0.029,0.521,0.057,0.783,0.082c0.335,0.033,0.67,0.063,1.006,0.09c0.262,0.021,0.523,0.039,0.784,0.056
		c0.337,0.021,0.674,0.039,1.011,0.054c0.262,0.012,0.523,0.021,0.785,0.029c0.337,0.009,0.673,0.015,1.01,0.018
		c0.153,0.001,0.306,0.008,0.459,0.008l0.189-0.006c0.997-0.004,1.993-0.037,2.989-0.098c0.142-0.008,0.284-0.018,0.427-0.027
		c0.993-0.068,1.985-0.164,2.976-0.289c0.143-0.018,0.285-0.037,0.429-0.056c0.99-0.133,1.979-0.292,2.964-0.479
		c0.138-0.026,0.275-0.055,0.412-0.082c0.99-0.197,1.976-0.419,2.957-0.671c0.128-0.033,0.255-0.068,0.382-0.103
		c0.99-0.262,1.976-0.549,2.954-0.867c0.11-0.036,0.22-0.074,0.33-0.111c0.994-0.33,1.982-0.686,2.961-1.073l0.251-0.103
		c1.003-0.402,1.998-0.831,2.982-1.294l0.145-0.07c1.018-0.481,2.025-0.991,3.02-1.536c0.603-0.331,1.017-0.945,1.097-1.628
		c0.282-2.417,0.409-4.834,0.383-7.235c-0.188-16.807-7.897-32.82-22.246-42.488c-0.522-0.352-1.049-0.691-1.58-1.021
		c-0.175-0.107-0.352-0.208-0.527-0.314c-0.358-0.216-0.716-0.434-1.078-0.639c-0.212-0.121-0.426-0.232-0.639-0.35
		c-0.329-0.182-0.658-0.364-0.99-0.537c-0.23-0.12-0.464-0.232-0.696-0.348c-0.236-0.119-0.474-0.238-0.712-0.353l-0.243-0.12
		c-0.242-0.115-0.487-0.222-0.73-0.332c-0.313-0.143-0.626-0.286-0.941-0.422c-0.25-0.107-0.502-0.207-0.753-0.31
		c-0.312-0.128-0.625-0.257-0.938-0.378c-0.257-0.099-0.514-0.191-0.771-0.285c-0.312-0.114-0.624-0.229-0.938-0.337
		c-0.261-0.09-0.522-0.173-0.784-0.259c-0.313-0.102-0.626-0.203-0.94-0.299c-0.266-0.08-0.532-0.154-0.799-0.23
		c-0.312-0.09-0.624-0.178-0.938-0.261c-0.271-0.071-0.543-0.138-0.814-0.204c-0.312-0.076-0.623-0.152-0.936-0.223
		c-0.274-0.062-0.55-0.119-0.825-0.177c-0.312-0.064-0.624-0.128-0.938-0.187c-0.276-0.053-0.554-0.101-0.832-0.147
		c-0.312-0.054-0.624-0.104-0.938-0.152c-0.281-0.042-0.562-0.081-0.843-0.119c-0.312-0.041-0.623-0.081-0.935-0.116
		c-0.283-0.033-0.567-0.062-0.851-0.09c-0.312-0.031-0.623-0.059-0.935-0.084c-0.285-0.022-0.57-0.043-0.855-0.061
		c-0.312-0.02-0.623-0.035-0.936-0.05c-0.285-0.013-0.571-0.023-0.856-0.031c-0.228-0.007-0.456-0.009-0.684-0.013l0.003-0.003
		l9.899-14.139l10.364-14.802l16.361,11.456l-6.981,9.962c2.023,1.069,3.998,2.244,5.91,3.533
		c20.5,13.813,31.375,38.301,28.379,63.907c-0.644,5.501-3.928,10.374-8.785,13.037c-10.399,5.7-22.01,8.712-33.576,8.712
		c-8.362,0-16.518-1.571-24.113-4.59c-4.263-1.694-8.351-3.839-12.196-6.43c-2.358-1.589-4.582-3.325-6.68-5.182
		c-0.159-0.142-0.323-0.279-0.481-0.422c-1.252-0.54-2.525-1.051-3.844-1.492c-19.263-6.455-39.201,2.722-54.437,12.115
		c-0.174,0.071-0.346,0.146-0.518,0.229c-40.969,19.391-71.178,2.588-72.394,1.892c-3.573-2.103-8.076-1.783-11.315,0.807
		c-3.24,2.589-4.545,6.91-3.281,10.859l8.037,25.112c0.727,2.27,2.239,4.205,4.266,5.458c6.144,3.798,13.315,5.749,20.996,5.749
		c1.861,0,3.754-0.115,5.668-0.346c1.114-0.134,2.241-0.309,3.346-0.52c14.146-2.689,25.999-11.395,36.455-19.075
		c2.788-2.047,5.42-3.98,8.017-5.752c12.471-8.507,33.34-22.746,48.805-17.565c5.004,1.678,9.727,4.878,14.622,8.425
		c0.523,0.454,1.068,0.887,1.641,1.288l49.181,34.449c3.386,2.372,7.396,3.619,11.475,3.619c1.156,0,2.317-0.101,3.471-0.304
		c5.225-0.921,9.869-3.879,12.912-8.225l57.344-81.89l32.782,22.954c3.492,2.445,7.492,3.619,11.454,3.619
		c6.305-0.001,12.51-2.975,16.4-8.53l45.887-65.532C429.039,126.936,426.84,114.465,417.792,108.129z"/>
</g>
<g id="Guide">
</g>
</svg>
