<svg xmlns="http://www.w3.org/2000/svg" width="1000pt" height="1000pt" viewBox="0 0 1000 1000"><path d="M 910.828125 128.742188 C 901.390625 122.164062 888.402344 124.484375 881.824219 133.921875 L 531.976562 635.886719 L 531.707031 636.316406 C 531.511719 636.609375 531.316406 636.886719 531.136719 637.191406 C 523.035156 643.851562 479.035156 653.882812 409.359375 648.089844 C 365.082031 644.410156 280.097656 631.625 208.449219 587.347656 C 168.898438 562.902344 138.328125 568.839844 119.648438 578.121094 C 89.207031 593.253906 66.964844 630.019531 62.992188 671.800781 C 58.496094 719.089844 85.367188 767.578125 134.882812 801.507812 C 147.984375 810.484375 194.304688 831.726562 252.117188 848.808594 C 292.386719 860.707031 347.300781 873.144531 400.898438 873.144531 C 415.300781 873.144531 429.617188 872.246094 443.515625 870.199219 C 485.136719 864.0625 514.902344 839.289062 529.59375 798.554688 C 529.789062 798.011719 529.960938 797.460938 530.113281 796.902344 C 530.742188 794.585938 562.3125 678.480469 568.222656 656.75 L 916.007812 157.746094 C 922.585938 148.304688 920.269531 135.320312 910.828125 128.742188 Z M 161.207031 768.847656 C 160.082031 768.199219 159.136719 767.617188 158.429688 767.136719 C 131.132812 748.429688 103.234375 716.121094 104.214844 680.25 C 126.632812 695.441406 149.96875 708.597656 173.671875 719.914062 Z M 184.1875 678.628906 C 161.40625 667.339844 138.472656 653.875 116.316406 637.863281 C 122.199219 627.644531 129.785156 619.613281 138.191406 615.433594 C 143.085938 613.003906 148.359375 611.789062 153.996094 611.789062 C 163.796875 611.789062 174.683594 615.460938 186.542969 622.789062 C 189.933594 624.886719 193.371094 626.921875 196.851562 628.910156 Z M 261.5625 808.238281 C 238.039062 801.179688 216.804688 793.472656 199.691406 786.550781 L 212.390625 736.703125 C 233.179688 744.863281 254.007812 751.730469 274.507812 757.425781 Z M 284.828125 716.914062 C 265.402344 711.476562 244.425781 704.574219 222.789062 695.871094 L 234.996094 647.953125 C 255.011719 656.6875 275.804688 663.980469 296.796875 669.921875 Z M 367.753906 829.964844 C 345.601562 827.898438 323.265625 823.949219 301.824219 818.976562 L 314.980469 767.332031 C 337.957031 772.183594 360.164062 775.605469 381.039062 777.800781 Z M 391.449219 736.941406 C 380.753906 735.921875 369.441406 734.539062 357.484375 732.691406 C 348.121094 731.246094 337.265625 729.320312 325.304688 726.808594 L 337.292969 679.742188 C 359.890625 684.359375 382.222656 687.523438 403.558594 689.398438 Z M 490.480469 784.445312 L 490.394531 784.417969 C 480.976562 810.535156 463.652344 825.109375 437.441406 828.972656 C 428.648438 830.269531 419.601562 831.042969 410.390625 831.363281 L 423.300781 780.6875 C 428.273438 780.835938 433.152344 780.929688 437.867188 780.929688 C 456.347656 780.929688 472.769531 779.816406 486.480469 777.828125 C 488.53125 777.53125 490.511719 777.210938 492.445312 776.878906 C 491.585938 780.128906 490.949219 782.582031 490.480469 784.445312 Z M 509.425781 714.171875 C 507.820312 720.09375 506.339844 725.527344 504.976562 730.546875 C 496.3125 734.707031 471.632812 739.523438 433.863281 739.214844 L 446.023438 691.480469 C 473.472656 691.710938 497.910156 689.636719 517.179688 685.652344 Z M 791.667969 708.324219 C 745.640625 708.324219 708.328125 745.636719 708.328125 791.667969 C 708.328125 837.695312 745.640625 875.007812 791.667969 875.007812 C 837.695312 875.007812 875.007812 837.695312 875.007812 791.667969 C 875.007812 745.636719 837.695312 708.324219 791.667969 708.324219 Z M 791.667969 708.324219"/></svg>