<svg xmlns="http://www.w3.org/2000/svg" viewBox="0 0 480 480"><path d="M440,430H40c-5.522,0-10,4.478-10,10s4.478,10,10,10h400c5.522,0,10-4.478,10-10S445.522,430,440,430z M36.96,349.32 l160.944,60c1.143,0.426,2.323,0.631,3.49,0.631c3.192,0,6.281-1.533,8.194-4.266L447.74,65.735 c3.168-4.523,2.068-10.759-2.456-13.927c-4.521-3.167-10.759-2.068-13.927,2.456L224.456,349.412 c-2.252,3.217-6.506,4.322-10.04,2.611L63.012,278.7c-2.719-1.318-5.888-1.333-8.622-0.046c-2.732,1.288-4.737,3.743-5.452,6.68 l-18.201,52.25C29.538,342.508,32.211,347.55,36.96,349.32z M355.454,380c-8.284,0-15,6.716-15,15s6.716,15,15,15h49.999 c8.284,0,15-6.716,15-15s-6.716-15-15-15H355.454z"/></svg>