<?xml version="1.0" encoding="iso-8859-1"?>
<!-- Generator: Adobe Illustrator 23.0.4, SVG Export Plug-In . SVG Version: 6.00 Build 0)  -->
<svg version="1.1" xmlns="http://www.w3.org/2000/svg" xmlns:xlink="http://www.w3.org/1999/xlink" x="0px" y="0px"
	 viewBox="0 0 480 480" style="enable-background:new 0 0 480 480;" xml:space="preserve">
<g id="Layer_5_copy">
	<path d="M437.198,61.796c-4.531-3.157-10.764-2.044-13.922,2.486L255.348,305.225l-0.129,0.207c-0.093,0.14-0.188,0.274-0.274,0.42
		c-3.889,3.196-25.008,8.012-58.452,5.232c-21.254-1.767-62.046-7.904-96.438-29.158c-18.983-11.732-33.658-8.883-42.624-4.427
		c-14.612,7.262-25.287,24.911-27.195,44.966c-2.158,22.698,10.741,45.972,34.507,62.259c6.29,4.309,28.523,14.504,56.273,22.704
		c19.329,5.711,45.688,11.682,71.415,11.681c6.913,0,13.785-0.431,20.457-1.414c19.978-2.945,34.265-14.836,41.317-34.389
		c0.094-0.261,0.177-0.525,0.249-0.793c0.302-1.112,15.456-56.842,18.293-67.273L439.684,75.718
		C442.842,71.187,441.729,64.954,437.198,61.796z M77.379,369.047c-0.54-0.312-0.993-0.59-1.332-0.822
		c-13.103-8.979-26.494-24.486-26.024-41.705c10.761,7.292,21.962,13.606,33.34,19.039L77.379,369.047z M88.41,325.741
		c-10.935-5.418-21.944-11.881-32.578-19.567c2.823-4.905,6.464-8.759,10.499-10.765c2.35-1.168,4.882-1.751,7.588-1.751
		c4.704,0,9.93,1.764,15.622,5.281c1.628,1.006,3.278,1.984,4.947,2.938L88.41,325.741z M125.55,387.955
		c-11.292-3.389-21.484-7.089-29.698-10.41l6.096-23.928c9.979,3.918,19.975,7.213,29.815,9.947L125.55,387.955z M136.717,344.118
		c-9.323-2.61-19.392-5.923-29.778-10.099l5.859-23.001c9.608,4.192,19.589,7.693,29.664,10.545L136.717,344.118z M176.521,398.383
		c-10.633-0.991-21.354-2.887-31.645-5.275l6.314-24.788c11.03,2.329,21.688,3.971,31.708,5.024L176.521,398.383z M187.895,353.731
		c-5.133-0.489-10.564-1.152-16.302-2.039c-4.494-0.694-9.705-1.618-15.447-2.823l5.754-22.592
		c10.847,2.216,21.566,3.735,31.808,4.634L187.895,353.731z M235.43,376.534l-0.04-0.014c-4.521,12.537-12.836,19.532-25.419,21.387
		c-4.219,0.622-8.562,0.993-12.983,1.148l6.196-24.325c2.387,0.071,4.73,0.116,6.993,0.116c8.869,0,16.753-0.534,23.333-1.488
		c0.985-0.143,1.935-0.297,2.864-0.457C235.962,374.461,235.655,375.639,235.43,376.534z M244.525,342.803
		c-0.772,2.842-1.482,5.45-2.137,7.859c-4.158,1.998-16.005,4.309-34.133,4.161l5.836-22.912c13.175,0.11,24.906-0.886,34.156-2.797
		L244.525,342.803z M380,339.996c-22.093,0-40.003,17.91-40.003,40.004s17.91,40.004,40.003,40.004
		c22.094,0,40.004-17.91,40.004-40.004S402.093,339.996,380,339.996z"/>
</g>
<g id="Layer_3">
</g>
</svg>
