<?xml version="1.0" encoding="iso-8859-1"?>
<!-- Generator: Adobe Illustrator 23.0.4, SVG Export Plug-In . SVG Version: 6.00 Build 0)  -->
<svg version="1.1" xmlns="http://www.w3.org/2000/svg" xmlns:xlink="http://www.w3.org/1999/xlink" x="0px" y="0px"
	 viewBox="0 0 480 480" style="enable-background:new 0 0 480 480;" xml:space="preserve">
<g id="Workspace">
</g>
<g id="Layer_3">
	<path d="M163.439,155.999l50.83-43.885l20.005,14.008l-57.377,81.87c-3.045,4.345-4.239,9.721-3.319,14.945
		c0.92,5.226,3.878,9.871,8.223,12.914l49.181,34.449c3.386,2.372,7.396,3.619,11.475,3.619c1.156,0,2.317-0.101,3.471-0.304
		c5.225-0.921,9.869-3.879,12.912-8.225l57.356-81.908l32.767,22.943c2.646,1.854,5.703,3.038,8.907,3.452l44.238,5.719
		c0.871,0.112,1.734,0.167,2.59,0.167c9.903,0,18.506-7.354,19.81-17.438c1.416-10.955-6.316-20.983-17.271-22.399l-39.36-5.088
		l-45.108-31.586l-0.011-0.008l-45.091-31.572l-53.208-37.257c-7.501-5.253-17.61-4.74-24.542,1.244l-62.617,54.061
		c-8.36,7.219-9.286,19.848-2.068,28.209C142.449,162.291,155.079,163.217,163.439,155.999z M135.007,381.675
		c2.178-0.687,7.309-3.9,10.745-6.054c5.221-3.271,11.468-7.172,18.685-10.271l9.189-13.124c6.336-9.048,4.137-21.52-4.911-27.854
		c-9.05-6.336-21.519-4.136-27.854,4.911l-31.677,45.239c3.888,1.046,7.605,2.242,11.143,3.382
		C125.225,379.48,131.917,381.636,135.007,381.675z M301.659,100.016c18.902,13.235,42.276,8.983,55.512-9.919
		s9.081-42.471-9.821-55.706s-42.476-9.082-55.711,9.82S282.757,86.78,301.659,100.016z M428.919,326.86c0-16.568-13.432-30-30-30
		s-30,13.432-30,30c0,16.569,13.432,30,30,30S428.919,343.43,428.919,326.86z M240,395.922c-6.414,0-13.861-3.49-21.745-7.186
		c-0.585-0.274-1.171-0.549-1.758-0.822c-0.225-0.105-0.45-0.209-0.675-0.313c-0.379-0.176-0.758-0.353-1.138-0.527
		c-0.247-0.114-0.496-0.226-0.744-0.339c-0.355-0.162-0.71-0.325-1.066-0.485c-0.265-0.118-0.529-0.235-0.794-0.353
		c-0.344-0.152-0.687-0.305-1.031-0.454c-0.268-0.117-0.537-0.23-0.807-0.346c-0.344-0.147-0.688-0.294-1.033-0.438
		c-0.27-0.112-0.54-0.222-0.811-0.331c-0.345-0.141-0.689-0.279-1.036-0.416c-0.273-0.107-0.548-0.212-0.821-0.316
		c-0.347-0.132-0.692-0.263-1.039-0.39c-0.275-0.102-0.552-0.199-0.828-0.297c-0.349-0.123-0.697-0.243-1.046-0.361
		c-0.277-0.093-0.555-0.184-0.832-0.272c-0.352-0.113-0.704-0.223-1.058-0.329c-0.277-0.084-0.555-0.166-0.834-0.245
		c-0.356-0.102-0.714-0.199-1.071-0.293c-0.277-0.074-0.555-0.146-0.832-0.215c-0.363-0.089-0.728-0.172-1.093-0.253
		c-0.275-0.062-0.551-0.123-0.827-0.18c-0.371-0.075-0.743-0.143-1.116-0.209c-0.272-0.048-0.545-0.099-0.818-0.142
		c-0.384-0.061-0.769-0.111-1.153-0.16c-0.266-0.035-0.531-0.073-0.798-0.103c-0.403-0.044-0.809-0.075-1.214-0.106
		c-0.251-0.02-0.501-0.044-0.753-0.059c-0.44-0.025-0.885-0.035-1.328-0.044c-0.22-0.005-0.438-0.017-0.658-0.018
		c-0.658-0.002-1.318,0.013-1.983,0.048c-11.797,0.638-21.938,6.992-30.887,12.6c-6.09,3.815-11.878,7.437-17.045,8.642
		c-0.642,0.149-1.275,0.269-1.897,0.339c-0.396,0.045-0.798,0.076-1.206,0.097c-0.148,0.008-0.302,0.007-0.452,0.012
		c-0.25,0.007-0.5,0.015-0.755,0.015c-0.689-0.002-1.397-0.039-2.115-0.096c-0.12-0.01-0.239-0.02-0.36-0.03
		c-0.708-0.065-1.429-0.153-2.161-0.265c-0.125-0.02-0.251-0.04-0.377-0.061c-0.748-0.12-1.505-0.258-2.272-0.418l-0.242-0.053
		c-0.772-0.164-1.552-0.345-2.339-0.542l-0.165-0.04c-0.797-0.201-1.602-0.419-2.409-0.646c-0.134-0.037-0.267-0.074-0.4-0.111
		c-0.777-0.222-1.558-0.453-2.341-0.69c-0.161-0.049-0.322-0.099-0.483-0.147c-0.776-0.238-1.555-0.48-2.333-0.729
		c-0.166-0.053-0.332-0.105-0.499-0.158c-0.777-0.248-1.554-0.498-2.328-0.747c-0.561-0.181-1.123-0.361-1.686-0.542
		c-0.222-0.07-0.444-0.142-0.667-0.213c-0.386-0.123-0.772-0.245-1.159-0.367c-0.243-0.077-0.487-0.153-0.73-0.229
		c-0.386-0.12-0.771-0.239-1.156-0.358c-0.226-0.068-0.451-0.139-0.678-0.207c-0.549-0.166-1.099-0.33-1.648-0.49
		c-0.111-0.032-0.222-0.064-0.333-0.096c-0.533-0.154-1.067-0.305-1.603-0.451c-0.209-0.058-0.418-0.113-0.627-0.169
		c-0.401-0.107-0.803-0.213-1.205-0.315c-0.229-0.059-0.458-0.115-0.687-0.172c-0.406-0.101-0.812-0.197-1.219-0.291
		c-0.208-0.048-0.416-0.098-0.624-0.144c-0.602-0.134-1.203-0.263-1.806-0.381l-0.172-0.031c-0.468-0.091-0.936-0.177-1.403-0.257
		l-0.003,0.005l-0.242-0.044c-0.203-0.033-0.406-0.062-0.609-0.095c-0.413-0.063-0.825-0.124-1.238-0.178
		c-0.223-0.029-0.445-0.058-0.668-0.084c-0.418-0.05-0.836-0.093-1.254-0.131c-0.198-0.019-0.396-0.04-0.595-0.056
		c-0.605-0.049-1.211-0.088-1.815-0.111l-0.185-0.004c-0.547-0.019-1.094-0.025-1.641-0.022c-0.203,0.001-0.405,0.009-0.608,0.013
		c-0.415,0.009-0.831,0.023-1.246,0.047c-0.219,0.012-0.437,0.025-0.654,0.042c-0.427,0.031-0.854,0.071-1.279,0.119
		c-0.189,0.021-0.378,0.038-0.567,0.062c-0.611,0.077-1.223,0.168-1.833,0.28c-18.724,3.459-32.769,16.004-45.16,27.072
		c-1.278,1.143-2.544,2.273-3.8,3.379c-4.144,3.651-4.544,9.97-0.894,14.114c1.977,2.244,4.735,3.39,7.508,3.39
		c2.348,0,4.706-0.822,6.606-2.496c1.289-1.137,2.589-2.297,3.902-3.47c9.979-8.913,20.272-18.083,32.026-21.483
		c1.136-0.329,2.279-0.623,3.443-0.838c0.406-0.075,0.827-0.127,1.256-0.166c0.136-0.012,0.276-0.018,0.414-0.027
		c0.304-0.02,0.611-0.033,0.926-0.037c0.138-0.001,0.277-0.001,0.417,0c0.585,0.006,1.185,0.032,1.803,0.086
		c0.092,0.008,0.187,0.02,0.279,0.029c0.603,0.059,1.218,0.137,1.847,0.234l0.212,0.031c0.661,0.107,1.34,0.238,2.028,0.384
		c0.139,0.028,0.277,0.058,0.417,0.089c0.68,0.148,1.369,0.311,2.071,0.489c0.125,0.032,0.252,0.065,0.377,0.099
		c0.696,0.181,1.4,0.371,2.114,0.574l0.148,0.042c0.752,0.216,1.516,0.444,2.285,0.679c0.15,0.046,0.302,0.092,0.452,0.138
		c0.744,0.229,1.494,0.464,2.25,0.704c0.176,0.057,0.353,0.113,0.529,0.17c0.746,0.238,1.496,0.479,2.251,0.722
		c0.579,0.187,1.16,0.374,1.742,0.56c0.183,0.059,0.366,0.117,0.55,0.176c0.423,0.135,0.847,0.27,1.271,0.404
		c0.222,0.069,0.443,0.139,0.664,0.208c0.382,0.119,0.765,0.238,1.146,0.356c0.246,0.075,0.491,0.15,0.737,0.225
		c0.369,0.112,0.738,0.223,1.108,0.332c0.244,0.072,0.487,0.146,0.731,0.217c0.397,0.115,0.796,0.229,1.194,0.341
		c0.214,0.061,0.427,0.122,0.642,0.181c0.597,0.166,1.194,0.326,1.793,0.481l0.185,0.046c0.557,0.144,1.113,0.281,1.672,0.414
		c0.212,0.05,0.425,0.097,0.638,0.146c0.4,0.092,0.802,0.183,1.203,0.269c0.247,0.053,0.494,0.102,0.741,0.152
		c0.372,0.075,0.744,0.148,1.116,0.218c0.143,0.026,0.285,0.057,0.429,0.083c0.114,0.021,0.229,0.036,0.345,0.057
		c0.372,0.064,0.744,0.125,1.117,0.184c0.252,0.039,0.505,0.079,0.758,0.115c0.399,0.058,0.8,0.107,1.2,0.156
		c0.225,0.027,0.449,0.059,0.674,0.083c0.604,0.066,1.21,0.124,1.817,0.169c0.108,0.008,0.218,0.012,0.326,0.02
		c0.525,0.035,1.053,0.064,1.58,0.083c0.229,0.008,0.46,0.009,0.69,0.013c0.379,0.008,0.758,0.013,1.138,0.011
		c0.51-0.003,1.021-0.021,1.532-0.041c0.225-0.009,0.449-0.013,0.675-0.025c0.736-0.042,1.473-0.101,2.212-0.185
		c10.144-1.152,18.868-6.619,27.305-11.906c7.565-4.74,14.711-9.218,21.347-9.576c0.319-0.018,0.645-0.018,0.973-0.014
		c0.172,0.002,0.347,0.011,0.521,0.019c0.206,0.009,0.413,0.019,0.623,0.036c0.181,0.015,0.364,0.034,0.547,0.054
		c0.208,0.022,0.417,0.048,0.628,0.077c0.188,0.026,0.379,0.057,0.569,0.089c0.211,0.034,0.422,0.071,0.635,0.113
		c0.195,0.038,0.393,0.079,0.59,0.122c0.214,0.046,0.429,0.095,0.646,0.146c0.2,0.049,0.401,0.1,0.604,0.152
		c0.218,0.057,0.437,0.117,0.656,0.18c0.206,0.058,0.412,0.117,0.62,0.18c0.221,0.066,0.443,0.137,0.667,0.207
		c0.209,0.067,0.419,0.135,0.631,0.206c0.226,0.075,0.453,0.155,0.682,0.235c0.213,0.074,0.426,0.149,0.641,0.228
		c0.229,0.084,0.462,0.171,0.693,0.259c0.216,0.082,0.432,0.164,0.649,0.248c0.234,0.092,0.471,0.188,0.706,0.281
		c0.219,0.088,0.437,0.176,0.656,0.266c0.242,0.1,0.485,0.203,0.729,0.306c0.217,0.091,0.432,0.181,0.649,0.274
		c0.254,0.109,0.51,0.221,0.766,0.333c0.21,0.093,0.419,0.183,0.631,0.276c0.262,0.117,0.526,0.236,0.79,0.354
		c0.209,0.095,0.417,0.188,0.627,0.282c0.285,0.13,0.572,0.263,0.858,0.395c0.188,0.086,0.373,0.17,0.561,0.257
		c0.34,0.157,0.683,0.317,1.024,0.477c0.14,0.064,0.277,0.129,0.417,0.194c0.479,0.223,0.959,0.448,1.441,0.674
		c9.52,4.462,19.363,9.076,30.232,9.076s20.713-4.614,30.233-9.076c0.496-0.232,0.989-0.464,1.481-0.693h0.001
		c0.482-0.226,0.962-0.449,1.439-0.67l0.201-0.093c0.41-0.189,0.818-0.377,1.225-0.562c0.115-0.053,0.229-0.104,0.343-0.154
		c0.355-0.161,0.711-0.321,1.062-0.478c0.146-0.065,0.291-0.128,0.437-0.192c0.321-0.141,0.643-0.281,0.961-0.418
		c0.159-0.068,0.317-0.135,0.477-0.202c0.301-0.128,0.602-0.255,0.9-0.378c0.171-0.07,0.34-0.138,0.51-0.206
		c0.284-0.114,0.567-0.229,0.849-0.339l0.121-0.048l-19.134-13.378C253.46,392.617,246.24,395.922,240,395.922z M446.623,422.531
		c-0.986-0.872-2.014-1.793-3.08-2.749c-11.409-10.226-27.033-24.229-45.897-27.714c-0.61-0.113-1.222-0.203-1.833-0.281
		c-0.187-0.023-0.375-0.041-0.563-0.062c-0.431-0.048-0.862-0.089-1.294-0.12c-0.209-0.016-0.418-0.029-0.626-0.041
		c-0.433-0.023-0.864-0.039-1.297-0.049c-0.187-0.004-0.372-0.01-0.559-0.012c-0.585-0.004-1.17,0.003-1.755,0.025l-0.072,0.001
		c-0.437,0.017-0.873,0.05-1.31,0.08c0.325,1.19,0.603,2.4,0.82,3.631c0.98,5.538,0.784,11.101-0.505,16.406l0.261-0.027
		c0.094-0.009,0.189-0.021,0.282-0.029c0.617-0.054,1.216-0.081,1.802-0.086c0.14-0.001,0.278-0.001,0.416,0.001
		c0.318,0.004,0.63,0.018,0.937,0.037c0.135,0.009,0.271,0.015,0.402,0.027c0.431,0.039,0.854,0.091,1.261,0.166
		c13.335,2.462,26.54,14.298,36.182,22.939c1.102,0.987,2.163,1.938,3.183,2.84c0.248,0.22,0.506,0.423,0.769,0.613
		c0.091,0.066,0.187,0.122,0.279,0.185c0.175,0.118,0.351,0.236,0.531,0.342c0.112,0.065,0.228,0.122,0.342,0.184
		c0.167,0.089,0.333,0.179,0.503,0.257c0.123,0.057,0.249,0.106,0.373,0.158c0.166,0.068,0.333,0.137,0.501,0.196
		c0.13,0.046,0.261,0.085,0.392,0.125c0.168,0.052,0.336,0.101,0.506,0.143c0.133,0.033,0.267,0.062,0.401,0.091
		c0.17,0.035,0.341,0.065,0.513,0.092c0.135,0.021,0.27,0.039,0.404,0.054c0.174,0.019,0.348,0.032,0.521,0.043
		c0.135,0.008,0.268,0.015,0.402,0.018c0.153,0.003,0.307-0.002,0.46-0.007c0.188-0.005,0.374-0.013,0.561-0.028
		c0.148-0.013,0.295-0.03,0.442-0.049c0.184-0.023,0.367-0.052,0.55-0.086c0.147-0.027,0.294-0.058,0.439-0.091
		c0.181-0.042,0.359-0.09,0.538-0.143c0.144-0.041,0.287-0.084,0.43-0.133c0.178-0.061,0.353-0.129,0.526-0.2
		c0.139-0.056,0.277-0.11,0.413-0.173c0.174-0.08,0.345-0.17,0.515-0.261c0.13-0.069,0.262-0.136,0.39-0.21
		c0.173-0.103,0.341-0.217,0.509-0.33c0.116-0.079,0.235-0.152,0.35-0.237c0.181-0.134,0.354-0.281,0.527-0.429
		c0.093-0.079,0.19-0.151,0.281-0.234c0.259-0.237,0.509-0.488,0.747-0.758C451.15,432.509,450.761,426.189,446.623,422.531z
		 M368.755,395.994c-1.3-3.978-3.832-7.588-7.525-10.17l-8.321-5.817l-84.246-58.898l-98.299-68.829
		c-0.514-0.359-1.041-0.684-1.575-0.988c-0.16-0.092-0.323-0.175-0.484-0.262c-0.39-0.208-0.783-0.403-1.182-0.584
		c-0.175-0.079-0.351-0.159-0.527-0.232c-0.448-0.188-0.9-0.357-1.356-0.51c-0.111-0.037-0.221-0.082-0.332-0.117
		c-0.566-0.179-1.138-0.329-1.712-0.455c-0.146-0.033-0.294-0.055-0.441-0.084c-0.437-0.086-0.874-0.158-1.312-0.215
		c-0.188-0.023-0.378-0.045-0.567-0.062c-0.429-0.043-0.857-0.07-1.287-0.084c-0.16-0.006-0.321-0.017-0.482-0.018
		c-0.55-0.006-1.099,0.012-1.646,0.051c-0.112,0.008-0.224,0.02-0.335,0.029c-0.559,0.051-1.116,0.117-1.668,0.213l-0.047,0.007
		c-0.562,0.1-1.119,0.231-1.672,0.378c-0.111,0.03-0.223,0.059-0.334,0.09c-0.537,0.154-1.069,0.327-1.594,0.525l-0.257,0.104
		c-0.495,0.194-0.983,0.408-1.463,0.643l-0.185,0.087c-0.508,0.255-1.003,0.536-1.489,0.835c-0.102,0.062-0.202,0.126-0.302,0.189
		c-0.483,0.31-0.958,0.636-1.417,0.988l-0.143,0.116c-0.429,0.336-0.845,0.694-1.248,1.069l-0.227,0.207
		c-0.418,0.4-0.82,0.823-1.207,1.265c-0.079,0.091-0.156,0.184-0.234,0.275c-0.393,0.465-0.773,0.943-1.129,1.451
		c-6.336,9.048-4.137,21.52,4.911,27.854l98.311,68.838l17.529,12.256l20.653,14.439l0.002,0.001l54.395,38.028
		c2.126,1.486,4.441,2.496,6.82,3.062l0.028,0.008c1.517,0.358,3.058,0.54,4.594,0.54c3.413,0,6.794-0.879,9.797-2.56l0.004-0.002
		c2.547-1.427,4.823-3.428,6.608-5.98C369.908,408.316,370.641,401.766,368.755,395.994L368.755,395.994z"/>
</g>
<g id="Guide">
</g>
</svg>
