<svg xmlns="http://www.w3.org/2000/svg" width="1000pt" height="1000pt" viewBox="0 0 1000 1000"><path d="M 340.496094 324.996094 L 446.394531 233.570312 L 488.070312 262.753906 L 368.535156 433.316406 C 362.191406 442.367188 359.703125 453.570312 361.621094 464.453125 C 363.539062 475.339844 369.699219 485.015625 378.753906 491.355469 L 481.210938 563.125 C 488.265625 568.066406 496.621094 570.664062 505.117188 570.664062 C 507.527344 570.664062 509.945312 570.453125 512.351562 570.03125 C 523.234375 568.113281 532.910156 561.949219 539.25 552.894531 L 658.742188 382.253906 L 727.007812 430.050781 C 732.519531 433.914062 738.886719 436.382812 745.5625 437.242188 L 837.726562 449.160156 C 839.539062 449.390625 841.335938 449.507812 843.121094 449.507812 C 863.753906 449.507812 881.675781 434.183594 884.390625 413.175781 C 887.339844 390.355469 871.234375 369.460938 848.410156 366.511719 L 766.410156 355.914062 L 672.433594 290.109375 L 672.414062 290.089844 L 578.472656 224.316406 L 467.621094 146.699219 C 451.996094 135.753906 430.933594 136.824219 416.492188 149.289062 L 286.042969 261.917969 C 268.625 276.957031 266.695312 303.265625 281.734375 320.683594 C 296.769531 338.105469 323.082031 340.035156 340.496094 324.996094 Z M 281.265625 795.15625 C 285.800781 793.726562 296.492188 787.03125 303.648438 782.542969 C 314.527344 775.730469 327.542969 767.601562 342.578125 761.144531 L 361.722656 733.804688 C 374.921875 714.953125 370.339844 688.972656 351.488281 675.773438 C 332.636719 662.574219 306.660156 667.160156 293.460938 686.007812 L 227.464844 780.253906 C 235.566406 782.433594 243.308594 784.925781 250.679688 787.300781 C 260.886719 790.582031 274.828125 795.074219 281.265625 795.15625 Z M 628.457031 208.367188 C 667.835938 235.941406 716.53125 227.082031 744.105469 187.703125 C 771.679688 148.324219 763.023438 99.222656 723.644531 71.648438 C 684.265625 44.074219 635.152344 52.726562 607.582031 92.105469 C 580.007812 131.484375 589.078125 180.792969 628.457031 208.367188 Z M 893.582031 680.957031 C 893.582031 646.441406 865.597656 618.457031 831.082031 618.457031 C 796.566406 618.457031 768.582031 646.441406 768.582031 680.957031 C 768.582031 715.476562 796.566406 743.457031 831.082031 743.457031 C 865.597656 743.457031 893.582031 715.480469 893.582031 680.957031 Z M 500 824.835938 C 486.636719 824.835938 471.121094 817.566406 454.699219 809.867188 C 453.480469 809.296875 452.257812 808.722656 451.035156 808.152344 C 450.566406 807.933594 450.097656 807.71875 449.628906 807.503906 C 448.839844 807.136719 448.050781 806.765625 447.257812 806.402344 C 446.742188 806.167969 446.226562 805.933594 445.707031 805.699219 C 444.96875 805.359375 444.230469 805.019531 443.488281 804.6875 C 442.933594 804.441406 442.386719 804.199219 441.832031 803.953125 C 441.117188 803.636719 440.402344 803.316406 439.683594 803.007812 C 439.128906 802.761719 438.566406 802.527344 438.003906 802.285156 C 437.289062 801.980469 436.570312 801.671875 435.851562 801.371094 C 435.289062 801.140625 434.726562 800.910156 434.164062 800.683594 C 433.445312 800.390625 432.726562 800.101562 432.003906 799.816406 C 431.433594 799.59375 430.863281 799.375 430.292969 799.160156 C 429.570312 798.882812 428.851562 798.609375 428.128906 798.347656 C 427.554688 798.132812 426.980469 797.929688 426.402344 797.726562 C 425.675781 797.472656 424.953125 797.222656 424.226562 796.976562 C 423.648438 796.78125 423.070312 796.589844 422.492188 796.410156 C 421.757812 796.171875 421.023438 795.945312 420.289062 795.722656 C 419.710938 795.546875 419.132812 795.378906 418.550781 795.210938 C 417.808594 795 417.0625 794.796875 416.320312 794.601562 C 415.742188 794.449219 415.164062 794.296875 414.585938 794.152344 C 413.828125 793.96875 413.070312 793.796875 412.308594 793.628906 C 411.734375 793.496094 411.160156 793.371094 410.585938 793.253906 C 409.8125 793.097656 409.039062 792.953125 408.261719 792.816406 C 407.695312 792.714844 407.125 792.609375 406.554688 792.519531 C 405.757812 792.394531 404.953125 792.289062 404.152344 792.1875 C 403.601562 792.113281 403.046875 792.035156 402.492188 791.972656 C 401.652344 791.882812 400.804688 791.816406 399.960938 791.753906 C 399.441406 791.710938 398.917969 791.660156 398.394531 791.628906 C 397.476562 791.578125 396.550781 791.554688 395.628906 791.539062 C 395.167969 791.527344 394.714844 791.503906 394.257812 791.5 C 392.886719 791.496094 391.511719 791.527344 390.125 791.601562 C 365.546875 792.929688 344.421875 806.167969 325.777344 817.851562 C 313.089844 825.796875 301.03125 833.34375 290.265625 835.855469 C 288.929688 836.164062 287.609375 836.414062 286.316406 836.558594 C 285.488281 836.652344 284.652344 836.71875 283.800781 836.761719 C 283.492188 836.777344 283.171875 836.777344 282.859375 836.789062 C 282.339844 836.800781 281.820312 836.820312 281.289062 836.820312 C 279.851562 836.816406 278.378906 836.738281 276.882812 836.617188 C 276.632812 836.597656 276.382812 836.578125 276.132812 836.554688 C 274.65625 836.421875 273.152344 836.238281 271.628906 836.003906 C 271.367188 835.960938 271.105469 835.921875 270.84375 835.878906 C 269.285156 835.628906 267.707031 835.339844 266.109375 835.007812 L 265.605469 834.894531 C 263.996094 834.554688 262.371094 834.175781 260.734375 833.765625 L 260.390625 833.683594 C 258.730469 833.265625 257.050781 832.808594 255.371094 832.335938 C 255.089844 832.261719 254.816406 832.183594 254.539062 832.105469 C 252.917969 831.644531 251.292969 831.164062 249.660156 830.667969 C 249.324219 830.566406 248.988281 830.460938 248.652344 830.363281 C 247.039062 829.867188 245.414062 829.363281 243.792969 828.84375 C 243.449219 828.734375 243.101562 828.625 242.753906 828.515625 C 241.136719 827.996094 239.515625 827.476562 237.902344 826.957031 C 236.734375 826.582031 235.566406 826.207031 234.390625 825.828125 C 233.929688 825.683594 233.464844 825.535156 233.003906 825.386719 C 232.199219 825.128906 231.394531 824.875 230.585938 824.621094 C 230.082031 824.460938 229.574219 824.300781 229.066406 824.144531 C 228.261719 823.894531 227.460938 823.644531 226.660156 823.398438 C 226.1875 823.257812 225.71875 823.109375 225.246094 822.964844 C 224.101562 822.621094 222.957031 822.277344 221.8125 821.945312 C 221.582031 821.878906 221.351562 821.8125 221.117188 821.746094 C 220.007812 821.425781 218.894531 821.109375 217.777344 820.804688 C 217.34375 820.683594 216.910156 820.570312 216.472656 820.453125 C 215.636719 820.230469 214.800781 820.011719 213.960938 819.796875 C 213.484375 819.675781 213.007812 819.558594 212.53125 819.441406 C 211.683594 819.230469 210.839844 819.027344 209.992188 818.832031 C 209.558594 818.734375 209.125 818.628906 208.691406 818.535156 C 207.4375 818.253906 206.183594 817.984375 204.929688 817.738281 L 204.570312 817.675781 C 203.597656 817.484375 202.621094 817.304688 201.648438 817.140625 L 201.640625 817.148438 L 201.136719 817.058594 C 200.714844 816.988281 200.292969 816.929688 199.867188 816.859375 C 199.007812 816.730469 198.148438 816.601562 197.289062 816.488281 C 196.824219 816.429688 196.363281 816.367188 195.898438 816.316406 C 195.027344 816.210938 194.15625 816.121094 193.285156 816.042969 C 192.871094 816.003906 192.460938 815.957031 192.046875 815.925781 C 190.785156 815.824219 189.523438 815.742188 188.265625 815.695312 L 187.878906 815.683594 C 186.738281 815.644531 185.601562 815.632812 184.460938 815.640625 C 184.039062 815.640625 183.617188 815.660156 183.195312 815.667969 C 182.328125 815.683594 181.460938 815.714844 180.597656 815.765625 C 180.140625 815.789062 179.6875 815.816406 179.234375 815.851562 C 178.347656 815.917969 177.457031 816 176.570312 816.101562 C 176.175781 816.144531 175.785156 816.179688 175.390625 816.230469 C 174.117188 816.390625 172.839844 816.578125 171.570312 816.8125 C 132.5625 824.019531 103.300781 850.152344 77.488281 873.210938 C 74.824219 875.59375 72.1875 877.949219 69.570312 880.253906 C 60.9375 887.859375 60.105469 901.023438 67.707031 909.65625 C 71.828125 914.332031 77.574219 916.71875 83.351562 916.71875 C 88.242188 916.71875 93.152344 915.007812 97.113281 911.519531 C 99.796875 909.148438 102.507812 906.734375 105.242188 904.289062 C 126.03125 885.722656 147.476562 866.617188 171.960938 859.535156 C 174.328125 858.847656 176.710938 858.234375 179.136719 857.789062 C 179.980469 857.632812 180.859375 857.523438 181.753906 857.441406 C 182.035156 857.417969 182.328125 857.402344 182.613281 857.386719 C 183.246094 857.34375 183.886719 857.316406 184.542969 857.308594 C 184.832031 857.304688 185.121094 857.304688 185.414062 857.308594 C 186.632812 857.320312 187.882812 857.375 189.167969 857.488281 C 189.359375 857.503906 189.558594 857.527344 189.75 857.546875 C 191.007812 857.671875 192.289062 857.832031 193.597656 858.035156 L 194.039062 858.101562 C 195.417969 858.324219 196.832031 858.597656 198.265625 858.898438 C 198.554688 858.957031 198.839844 859.019531 199.132812 859.085938 C 200.550781 859.394531 201.984375 859.734375 203.449219 860.105469 C 203.707031 860.171875 203.972656 860.238281 204.234375 860.308594 C 205.683594 860.6875 207.148438 861.082031 208.636719 861.507812 L 208.945312 861.59375 C 210.511719 862.042969 212.105469 862.519531 213.707031 863.007812 C 214.019531 863.105469 214.335938 863.199219 214.648438 863.296875 C 216.199219 863.773438 217.761719 864.261719 219.335938 864.761719 C 219.703125 864.882812 220.070312 864.996094 220.4375 865.117188 C 221.992188 865.613281 223.554688 866.113281 225.128906 866.621094 C 226.332031 867.011719 227.542969 867.398438 228.757812 867.789062 C 229.136719 867.910156 229.519531 868.03125 229.902344 868.152344 C 230.785156 868.433594 231.667969 868.714844 232.550781 868.996094 C 233.011719 869.140625 233.472656 869.285156 233.933594 869.429688 C 234.730469 869.675781 235.527344 869.925781 236.320312 870.171875 C 236.832031 870.328125 237.34375 870.484375 237.855469 870.640625 C 238.625 870.871094 239.394531 871.105469 240.164062 871.332031 C 240.671875 871.480469 241.179688 871.636719 241.6875 871.785156 C 242.515625 872.023438 243.347656 872.261719 244.175781 872.492188 C 244.621094 872.621094 245.066406 872.746094 245.511719 872.871094 C 246.757812 873.214844 248 873.550781 249.246094 873.871094 L 249.632812 873.96875 C 250.792969 874.269531 251.953125 874.554688 253.117188 874.832031 C 253.558594 874.933594 254.003906 875.035156 254.445312 875.136719 C 255.277344 875.328125 256.117188 875.515625 256.953125 875.695312 C 257.464844 875.804688 257.980469 875.910156 258.496094 876.011719 C 259.269531 876.167969 260.046875 876.320312 260.820312 876.464844 C 261.117188 876.519531 261.414062 876.585938 261.714844 876.640625 C 261.953125 876.683594 262.191406 876.714844 262.433594 876.757812 C 263.207031 876.890625 263.984375 877.019531 264.761719 877.140625 C 265.285156 877.222656 265.8125 877.304688 266.339844 877.382812 C 267.171875 877.503906 268.007812 877.605469 268.839844 877.707031 C 269.308594 877.761719 269.773438 877.828125 270.242188 877.878906 C 271.503906 878.015625 272.765625 878.136719 274.027344 878.230469 C 274.253906 878.246094 274.484375 878.257812 274.707031 878.273438 C 275.800781 878.347656 276.902344 878.40625 278 878.445312 C 278.476562 878.460938 278.957031 878.464844 279.4375 878.472656 C 280.226562 878.488281 281.015625 878.5 281.808594 878.496094 C 282.871094 878.488281 283.933594 878.453125 285 878.410156 C 285.46875 878.390625 285.933594 878.382812 286.40625 878.359375 C 287.941406 878.269531 289.476562 878.148438 291.015625 877.972656 C 312.148438 875.574219 330.324219 864.183594 347.898438 853.167969 C 363.660156 843.292969 378.546875 833.964844 392.371094 833.21875 C 393.039062 833.179688 393.714844 833.179688 394.398438 833.191406 C 394.757812 833.195312 395.121094 833.210938 395.484375 833.230469 C 395.914062 833.246094 396.347656 833.269531 396.785156 833.304688 C 397.160156 833.335938 397.542969 833.375 397.921875 833.417969 C 398.355469 833.460938 398.792969 833.515625 399.230469 833.578125 C 399.621094 833.632812 400.019531 833.695312 400.417969 833.761719 C 400.855469 833.832031 401.296875 833.910156 401.738281 833.996094 C 402.144531 834.078125 402.558594 834.164062 402.96875 834.253906 C 403.414062 834.347656 403.863281 834.449219 404.316406 834.554688 C 404.730469 834.660156 405.148438 834.765625 405.574219 834.871094 C 406.027344 834.992188 406.484375 835.117188 406.941406 835.246094 C 407.367188 835.367188 407.796875 835.492188 408.230469 835.621094 C 408.691406 835.761719 409.152344 835.910156 409.621094 836.054688 C 410.054688 836.195312 410.492188 836.335938 410.933594 836.484375 C 411.40625 836.640625 411.878906 836.804688 412.355469 836.972656 C 412.800781 837.128906 413.242188 837.285156 413.691406 837.449219 C 414.167969 837.621094 414.652344 837.804688 415.136719 837.988281 C 415.585938 838.160156 416.035156 838.328125 416.488281 838.503906 C 416.976562 838.695312 417.46875 838.894531 417.957031 839.089844 C 418.414062 839.273438 418.867188 839.457031 419.324219 839.644531 C 419.828125 839.851562 420.335938 840.066406 420.84375 840.28125 C 421.296875 840.472656 421.742188 840.660156 422.195312 840.851562 C 422.726562 841.078125 423.257812 841.3125 423.792969 841.546875 C 424.230469 841.738281 424.664062 841.925781 425.105469 842.121094 C 425.652344 842.363281 426.203125 842.613281 426.753906 842.859375 C 427.1875 843.054688 427.621094 843.25 428.058594 843.445312 C 428.652344 843.714844 429.25 843.992188 429.847656 844.269531 C 430.238281 844.449219 430.621094 844.621094 431.015625 844.804688 C 431.722656 845.132812 432.4375 845.464844 433.148438 845.796875 C 433.441406 845.929688 433.726562 846.066406 434.015625 846.203125 C 435.015625 846.667969 436.015625 847.136719 437.019531 847.605469 C 456.851562 856.902344 477.359375 866.515625 500.003906 866.515625 C 522.644531 866.515625 543.152344 856.902344 562.988281 847.605469 C 564.019531 847.121094 565.046875 846.640625 566.074219 846.164062 C 567.078125 845.691406 568.078125 845.226562 569.074219 844.765625 L 569.492188 844.574219 C 570.347656 844.179688 571.195312 843.789062 572.042969 843.402344 C 572.285156 843.292969 572.519531 843.183594 572.757812 843.082031 C 573.496094 842.746094 574.238281 842.414062 574.972656 842.085938 C 575.273438 841.949219 575.578125 841.820312 575.882812 841.683594 C 576.550781 841.390625 577.222656 841.101562 577.882812 840.816406 C 578.214844 840.671875 578.542969 840.535156 578.878906 840.394531 C 579.503906 840.128906 580.132812 839.863281 580.753906 839.605469 C 581.109375 839.460938 581.460938 839.320312 581.816406 839.175781 C 582.40625 838.941406 582.996094 838.699219 583.582031 838.472656 L 583.835938 838.371094 L 543.972656 810.5 C 528.042969 817.953125 513 824.835938 500 824.835938 Z M 930.464844 880.273438 C 928.410156 878.457031 926.269531 876.539062 924.046875 874.546875 C 900.277344 853.242188 867.730469 824.070312 828.429688 816.808594 C 827.160156 816.574219 825.882812 816.386719 824.609375 816.222656 C 824.222656 816.175781 823.828125 816.136719 823.4375 816.09375 C 822.539062 815.992188 821.640625 815.910156 820.742188 815.84375 C 820.304688 815.808594 819.871094 815.785156 819.4375 815.757812 C 818.535156 815.710938 817.636719 815.675781 816.734375 815.65625 C 816.347656 815.648438 815.960938 815.636719 815.570312 815.632812 C 814.351562 815.621094 813.132812 815.636719 811.914062 815.683594 L 811.765625 815.683594 C 810.855469 815.722656 809.945312 815.789062 809.035156 815.851562 C 809.710938 818.332031 810.292969 820.851562 810.742188 823.417969 C 812.785156 834.953125 812.378906 846.542969 809.691406 857.597656 L 810.234375 857.539062 C 810.429688 857.519531 810.628906 857.496094 810.824219 857.480469 C 812.109375 857.367188 813.355469 857.308594 814.578125 857.300781 C 814.867188 857.296875 815.15625 857.296875 815.445312 857.300781 C 816.105469 857.308594 816.757812 857.339844 817.394531 857.378906 C 817.675781 857.398438 817.960938 857.410156 818.234375 857.433594 C 819.132812 857.515625 820.011719 857.625 820.859375 857.78125 C 848.640625 862.910156 876.152344 887.570312 896.238281 905.570312 C 898.535156 907.628906 900.746094 909.609375 902.871094 911.488281 C 903.386719 911.945312 903.925781 912.367188 904.472656 912.765625 C 904.664062 912.902344 904.863281 913.019531 905.054688 913.148438 C 905.417969 913.394531 905.785156 913.640625 906.160156 913.863281 C 906.394531 913.996094 906.636719 914.117188 906.871094 914.246094 C 907.222656 914.429688 907.566406 914.617188 907.921875 914.78125 C 908.175781 914.898438 908.441406 915.003906 908.699219 915.109375 C 909.042969 915.253906 909.390625 915.394531 909.742188 915.519531 C 910.011719 915.613281 910.285156 915.695312 910.558594 915.777344 C 910.910156 915.886719 911.257812 915.988281 911.613281 916.078125 C 911.890625 916.144531 912.167969 916.207031 912.449219 916.265625 C 912.800781 916.339844 913.160156 916.402344 913.515625 916.457031 C 913.796875 916.503906 914.078125 916.539062 914.359375 916.570312 C 914.722656 916.609375 915.082031 916.636719 915.445312 916.660156 C 915.726562 916.675781 916.003906 916.691406 916.28125 916.699219 C 916.601562 916.703125 916.921875 916.695312 917.238281 916.683594 C 917.632812 916.671875 918.019531 916.65625 918.410156 916.625 C 918.714844 916.597656 919.023438 916.5625 919.328125 916.523438 C 919.710938 916.476562 920.09375 916.414062 920.476562 916.34375 C 920.78125 916.289062 921.085938 916.222656 921.390625 916.152344 C 921.765625 916.066406 922.136719 915.964844 922.511719 915.855469 C 922.808594 915.769531 923.109375 915.679688 923.40625 915.578125 C 923.777344 915.453125 924.140625 915.308594 924.503906 915.164062 C 924.792969 915.046875 925.078125 914.933594 925.363281 914.800781 C 925.726562 914.636719 926.082031 914.449219 926.433594 914.257812 C 926.707031 914.113281 926.980469 913.976562 927.246094 913.820312 C 927.609375 913.605469 927.957031 913.367188 928.308594 913.132812 C 928.550781 912.96875 928.796875 912.816406 929.039062 912.640625 C 929.414062 912.359375 929.773438 912.054688 930.136719 911.746094 C 930.328125 911.582031 930.53125 911.429688 930.722656 911.257812 C 931.261719 910.765625 931.78125 910.242188 932.277344 909.679688 C 939.894531 901.058594 939.085938 887.894531 930.464844 880.273438 Z M 768.238281 824.988281 C 765.53125 816.699219 760.257812 809.179688 752.5625 803.800781 L 735.226562 791.679688 L 559.714844 668.976562 L 354.925781 525.582031 C 353.855469 524.835938 352.757812 524.160156 351.644531 523.523438 C 351.308594 523.332031 350.972656 523.160156 350.636719 522.980469 C 349.824219 522.546875 349.003906 522.140625 348.171875 521.761719 C 347.808594 521.597656 347.441406 521.429688 347.074219 521.277344 C 346.140625 520.886719 345.199219 520.535156 344.25 520.214844 C 344.019531 520.140625 343.789062 520.046875 343.558594 519.972656 C 342.378906 519.601562 341.1875 519.289062 339.992188 519.023438 C 339.6875 518.957031 339.378906 518.910156 339.074219 518.851562 C 338.164062 518.671875 337.253906 518.519531 336.339844 518.402344 C 335.949219 518.355469 335.550781 518.308594 335.160156 518.273438 C 334.265625 518.183594 333.371094 518.128906 332.476562 518.097656 C 332.144531 518.085938 331.808594 518.0625 331.472656 518.058594 C 330.328125 518.046875 329.183594 518.085938 328.042969 518.167969 C 327.808594 518.183594 327.578125 518.207031 327.347656 518.226562 C 326.179688 518.332031 325.019531 518.472656 323.871094 518.671875 L 323.773438 518.683594 C 322.601562 518.894531 321.441406 519.167969 320.289062 519.472656 C 320.058594 519.535156 319.824219 519.597656 319.59375 519.660156 C 318.476562 519.980469 317.367188 520.339844 316.273438 520.753906 L 315.738281 520.972656 C 314.707031 521.375 313.691406 521.820312 312.691406 522.308594 L 312.304688 522.492188 C 311.246094 523.023438 310.214844 523.609375 309.203125 524.230469 C 308.988281 524.359375 308.78125 524.492188 308.574219 524.625 C 307.566406 525.269531 306.578125 525.949219 305.621094 526.683594 L 305.324219 526.925781 C 304.429688 527.625 303.5625 528.371094 302.722656 529.152344 L 302.25 529.582031 C 301.378906 530.417969 300.542969 531.296875 299.734375 532.21875 C 299.570312 532.410156 299.410156 532.601562 299.246094 532.792969 C 298.429688 533.761719 297.636719 534.757812 296.894531 535.816406 C 283.695312 554.664062 288.277344 580.648438 307.128906 593.84375 L 511.941406 737.257812 L 548.460938 762.789062 L 591.488281 792.871094 L 591.492188 792.871094 L 704.816406 872.097656 C 709.242188 875.195312 714.066406 877.296875 719.023438 878.476562 L 719.082031 878.492188 C 722.242188 879.238281 725.453125 879.617188 728.652344 879.617188 C 735.761719 879.617188 742.804688 877.789062 749.0625 874.285156 L 749.070312 874.28125 C 754.378906 871.308594 759.117188 867.140625 762.835938 861.824219 C 770.640625 850.660156 772.167969 837.011719 768.238281 824.988281 Z M 768.238281 824.988281"/></svg>