<svg xmlns="http://www.w3.org/2000/svg" width="1000pt" height="1000pt" viewBox="0 0 1000 1000"><path d="M 924.996094 365.230469 L 686.074219 197.933594 C 673.183594 188.90625 656.300781 187.914062 642.4375 195.371094 L 478.410156 283.609375 C 458.144531 294.511719 450.554688 319.777344 461.453125 340.042969 C 472.355469 360.308594 497.621094 367.898438 517.886719 357 L 608.941406 308.019531 L 518.722656 436.75 C 512.378906 445.800781 509.890625 457.003906 511.804688 467.886719 C 513.722656 478.769531 519.886719 488.449219 528.9375 494.789062 L 631.398438 566.558594 C 638.453125 571.5 646.804688 574.101562 655.304688 574.101562 C 657.710938 574.101562 660.132812 573.890625 662.535156 573.464844 C 673.421875 571.550781 683.097656 565.386719 689.433594 556.332031 L 808.929688 385.683594 L 858.933594 420.699219 L 856.007812 548.597656 C 855.484375 571.605469 873.707031 590.679688 896.710938 591.207031 C 897.039062 591.210938 897.359375 591.214844 897.683594 591.214844 C 920.25 591.214844 938.800781 573.183594 939.320312 550.503906 L 942.753906 400.308594 C 943.070312 386.382812 936.410156 373.21875 924.996094 365.230469 Z M 607.511719 600.710938 L 436.851562 481.21875 C 422.898438 471.449219 404.398438 471.152344 390.136719 480.484375 L 202.382812 603.34375 C 183.128906 615.945312 177.730469 641.765625 190.332031 661.023438 C 198.328125 673.242188 211.644531 679.882812 225.234375 679.882812 C 233.058594 679.882812 240.976562 677.679688 248.011719 673.074219 L 412.164062 565.660156 L 559.710938 668.976562 C 578.566406 682.175781 604.542969 677.589844 617.742188 658.742188 C 630.945312 639.890625 626.359375 613.910156 607.511719 600.710938 Z M 501.847656 678.972656 C 482.996094 665.769531 457.015625 670.355469 443.820312 689.203125 L 302.597656 890.886719 C 289.398438 909.738281 293.980469 935.722656 312.828125 948.917969 C 320.105469 954.011719 328.4375 956.457031 336.691406 956.457031 C 349.828125 956.457031 362.753906 950.257812 370.859375 938.683594 L 512.078125 737 C 525.277344 718.152344 520.699219 692.167969 501.847656 678.972656 Z M 778.480469 211.3125 C 817.859375 238.886719 866.554688 230.027344 894.128906 190.648438 C 921.703125 151.269531 913.046875 102.167969 873.667969 74.59375 C 834.289062 47.019531 785.175781 55.671875 757.605469 95.050781 C 730.03125 134.429688 739.101562 183.734375 778.480469 211.3125 Z M 204.085938 503.363281 C 204.085938 468.847656 176.101562 440.863281 141.585938 440.863281 C 107.070312 440.863281 79.085938 468.847656 79.085938 503.363281 C 79.085938 537.878906 107.070312 565.863281 141.585938 565.863281 C 176.101562 565.863281 204.085938 537.882812 204.085938 503.363281 Z M 204.085938 503.363281"/></svg>