<?xml version="1.0" encoding="iso-8859-1"?>
<!-- Generator: Adobe Illustrator 23.0.4, SVG Export Plug-In . SVG Version: 6.00 Build 0)  -->
<svg version="1.1" xmlns="http://www.w3.org/2000/svg" xmlns:xlink="http://www.w3.org/1999/xlink" x="0px" y="0px"
	 viewBox="0 0 480 480" style="enable-background:new 0 0 480 480;" xml:space="preserve">
<g id="Workspace">
	<path d="M443.998,175.31L329.316,95.009c-6.188-4.334-14.292-4.81-20.946-1.23l-78.733,42.354
		c-9.728,5.233-13.371,17.36-8.139,27.088s17.361,13.37,27.088,8.139l43.705-23.511l-43.305,61.791
		c-3.045,4.345-4.239,9.721-3.319,14.945s3.878,9.87,8.223,12.914l49.181,34.45c3.386,2.371,7.396,3.619,11.475,3.619
		c1.156,0,2.317-0.101,3.471-0.304c5.225-0.92,9.869-3.879,12.912-8.225l57.357-81.91l24.002,16.807l-1.404,61.391
		c-0.252,11.043,8.495,20.199,19.538,20.452c0.156,0.003,0.311,0.005,0.466,0.005c10.832-0.001,19.737-8.656,19.986-19.543
		l1.648-72.092C452.674,185.464,449.476,179.145,443.998,175.31z M291.605,288.342l-81.916-57.357
		c-6.698-4.69-15.578-4.831-22.423-0.353l-90.123,58.973c-9.242,6.048-11.832,18.443-5.784,27.687
		c3.838,5.865,10.231,9.052,16.754,9.051c3.756,0,7.555-1.057,10.933-3.267l78.792-51.559l70.824,49.591
		c9.05,6.336,21.519,4.136,27.854-4.911C302.853,307.147,300.653,294.677,291.605,288.342z M240.887,325.906
		c-9.049-6.337-21.52-4.136-27.854,4.911l-67.786,96.809c-6.336,9.048-4.137,21.52,4.911,27.854
		c3.492,2.445,7.492,3.619,11.454,3.619c6.305,0,12.51-2.975,16.4-8.53l67.786-96.809
		C252.134,344.713,249.935,332.241,240.887,325.906z M373.67,101.43c18.902,13.235,42.276,8.983,55.512-9.919
		s9.081-42.471-9.821-55.706s-42.476-9.083-55.711,9.819S354.768,88.193,373.67,101.43z M97.961,241.614c0-16.568-13.432-30-30-30
		s-30,13.432-30,30s13.432,30,30,30S97.961,258.183,97.961,241.614z"/>
</g>
<g id="Guide">
</g>
</svg>
