<svg xmlns="http://www.w3.org/2000/svg" width="1000pt" height="1000pt" viewBox="0 0 1000 1000"><path d="M 291.675781 520.832031 C 291.675781 474.804688 254.363281 437.492188 208.332031 437.492188 C 162.304688 437.492188 124.992188 474.804688 124.992188 520.832031 C 124.992188 566.863281 162.304688 604.175781 208.332031 604.175781 C 254.363281 604.175781 291.675781 566.863281 291.675781 520.832031 Z M 844.425781 99.238281 C 726.796875 16.871094 543.167969 76.171875 434.277344 231.679688 C 339.886719 366.484375 332.660156 529.316406 409.019531 623.945312 C 413.667969 629.707031 413.921875 637.851562 409.675781 643.914062 L 242.285156 882.976562 C 237.003906 890.515625 238.835938 900.90625 246.375 906.1875 L 287.332031 934.867188 C 294.871094 940.144531 305.265625 938.316406 310.546875 930.773438 L 477.269531 692.667969 C 481.585938 686.503906 489.5 683.988281 496.574219 686.5625 C 612.066406 728.597656 764.847656 666.203125 860.25 529.949219 C 969.140625 374.4375 962.054688 181.601562 844.425781 99.238281 Z M 844.425781 99.238281"/></svg>