<?xml version="1.0" encoding="iso-8859-1"?>
<!-- Generator: Adobe Illustrator 23.0.4, SVG Export Plug-In . SVG Version: 6.00 Build 0)  -->
<svg version="1.1" xmlns="http://www.w3.org/2000/svg" xmlns:xlink="http://www.w3.org/1999/xlink" x="0px" y="0px"
	 viewBox="0 0 480 480" style="enable-background:new 0 0 480 480;" xml:space="preserve">
<g id="Shape">
	<path d="M140.004,250c0-22.094-17.91-40.004-40.004-40.004c-22.093,0-40.003,17.91-40.003,40.004s17.91,40.004,40.003,40.004
		C122.094,290.004,140.004,272.094,140.004,250z M405.325,47.634c-56.462-39.535-144.604-11.072-196.872,63.573
		c-45.307,64.705-48.777,142.864-12.124,188.286c2.231,2.766,2.354,6.675,0.315,9.586l-80.348,114.749
		c-2.534,3.619-1.655,8.607,1.964,11.142l19.66,13.766c3.619,2.534,8.607,1.655,11.142-1.964L229.09,332.48
		c2.072-2.959,5.87-4.165,9.265-2.93c55.437,20.176,128.771-9.773,174.565-75.175C465.187,179.73,461.787,87.169,405.325,47.634z"/>
</g>
<g id="Guide">
</g>
</svg>
