<svg xmlns="http://www.w3.org/2000/svg" viewBox="0 0 480 480"><path d="M449.742,178.476c-2.128-33.267-16.748-61.003-41.168-78.102c-24.417-17.099-55.483-21.351-87.471-11.972 c-31.185,9.143-59.62,30.261-80.068,59.465c-20.448,29.202-30.567,63.146-28.492,95.576c0.657,10.284,2.513,20.037,5.478,29.113 l-2.819,84.65c-5.638-1.097-11.65,1.104-15.157,6.111l-40.15,57.341c-4.752,6.786-3.103,16.14,3.684,20.891l8.191,5.736 c6.786,4.752,16.139,3.103,20.891-3.684l40.15-57.341c3.507-5.009,3.518-11.41,0.56-16.333l78.593-31.607 c9.539-0.317,19.335-1.906,29.219-4.804c31.185-9.143,59.62-30.261,80.068-59.465C441.697,244.85,451.816,210.906,449.742,178.476z M235.535,347.5l1.37-41.129c4.928,5.699,10.541,10.788,16.805,15.174c6.265,4.387,12.972,7.914,20.014,10.597L235.535,347.5z M404.866,262.582c-24.516,35.011-60.975,55.097-94.587,55.759c-0.17-0.005-0.341,0.001-0.512,0.005 c-16.071,0.223-31.475-4.003-44.587-13.184c-13.102-9.174-22.336-22.188-27.626-37.351c-0.06-0.179-0.118-0.357-0.188-0.532 c-10.869-31.81-4.462-72.935,20.051-107.941c24.933-35.606,62.218-55.78,96.3-55.78c15.637,0,30.601,4.247,43.386,13.199 c19.342,13.543,30.947,35.915,32.68,62.995C431.568,207.668,422.719,237.084,404.866,262.582z M192.37,230 c1.072-32.302,12.285-65.047,32.282-93.604c23.043-32.909,55.298-56.77,90.824-67.186c4.84-1.419,9.688-2.573,14.527-3.463V38 c0-4.418-3.582-8-8-8h-284c-4.419,0-8,3.582-8,8v184c0,4.418,3.581,8,8,8h2.843c4.776-28.341,29.477-50.004,59.154-50.004 s54.377,21.663,59.154,50.004H192.37z M122.867,207.233c-18.096-12.671-43.038-8.272-55.709,9.823 c-2.831,4.043-4.804,8.43-5.969,12.943c-4.047,15.688,1.739,32.926,15.792,42.766c18.096,12.672,43.038,8.273,55.709-9.822 c6.98-9.97,8.771-22.015,5.953-32.943C136.347,221.092,130.994,212.924,122.867,207.233z M94.381,230 c-0.793,1.453-1.675,2.877-2.646,4.265c-5.188,7.409-12.224,12.765-20.051,15.905c-1.166-3.249-1.766-6.678-1.771-10.13 c4.774-2.264,9.087-5.638,12.526-10.04c0.376-0.481,0.75-0.965,1.104-1.471c3.593-5.131,5.604-10.901,6.153-16.732 c3.246-1.174,6.674-1.781,10.125-1.795C99.596,216.846,97.82,223.699,94.381,230z M116.28,251.452 c-3.598,5.138-5.609,10.916-6.155,16.755c-3.246,1.174-6.674,1.781-10.125,1.796c0.273-8.431,2.899-16.876,8.089-24.286 c5.092-7.273,11.971-12.555,19.624-15.717c0.14-0.058,0.274-0.127,0.415-0.184l0.058,0.184c1.125,3.193,1.713,6.556,1.722,9.943 C124.612,242.454,119.875,246.318,116.28,251.452z"/></svg>