<?xml version="1.0" encoding="iso-8859-1"?>
<!-- Generator: Adobe Illustrator 23.0.4, SVG Export Plug-In . SVG Version: 6.00 Build 0)  -->
<svg version="1.1" xmlns="http://www.w3.org/2000/svg" xmlns:xlink="http://www.w3.org/1999/xlink" x="0px" y="0px"
	 viewBox="0 0 480 480" style="enable-background:new 0 0 480 480;" xml:space="preserve">
<g id="Workspace">
	<path d="M239.948,40c-110.46,0-200,89.54-200,200c0,110.44,89.54,200,200,200c110.44,0,200-89.56,200-200
		C439.948,129.54,350.389,40,239.948,40z M128.547,276.558l-25.299,64.438C82.359,312.756,70,277.823,70,240
		c0-6.575,0.387-13.059,1.113-19.439l54.453,44.598C128.927,267.918,130.127,272.518,128.547,276.558z M150.847,137.519
		l-46.74,0.363c20.466-27.191,48.896-48.041,81.833-59.083l-26.213,53.14C158.047,135.338,154.607,137.498,150.847,137.519z
		 M240,410c-19.751,0-38.709-3.38-56.344-9.573l51.209-30.129c3.141-1.86,7.021-1.86,10.16,0l51.201,30.17
		C278.625,406.635,259.707,410,240,410z M302.447,265.873l-55.986,40.678c-3.877,2.836-9.15,2.836-13.027,0l-56.009-40.678
		c-3.877-2.835-5.494-7.82-4.01-12.385l21.38-65.845c1.484-4.564,5.738-7.644,10.546-7.644h69.235c4.785,0,9.039,3.079,10.523,7.644
		l21.38,65.845C307.964,258.053,306.347,263.038,302.447,265.873z M320.187,131.939L293.92,78.742
		c33.001,11.029,61.487,31.907,81.984,59.14l-46.838-0.363C325.286,137.498,321.846,135.338,320.187,131.939z M376.715,341.045
		l-25.368-64.487c-1.58-4.04-0.38-8.64,2.979-11.399l54.555-44.69C409.614,226.877,410,233.394,410,240
		C410,277.845,397.627,312.797,376.715,341.045z"/>
</g>
<g id="Guide">
</g>
</svg>
