<?xml version="1.0" encoding="iso-8859-1"?>
<!-- Generator: Adobe Illustrator 23.0.4, SVG Export Plug-In . SVG Version: 6.00 Build 0)  -->
<svg version="1.1" xmlns="http://www.w3.org/2000/svg" xmlns:xlink="http://www.w3.org/1999/xlink" x="0px" y="0px"
	 viewBox="0 0 480 480" style="enable-background:new 0 0 480 480;" xml:space="preserve">
<g id="Merged">
	<path d="M175.736,159.296c-0.134-0.086-0.258-0.175-0.382-0.265l-0.164-0.117l-0.122-0.084l-0.097-0.064
		c-4.79,5.777-9.369,11.815-13.438,18.411c-9.435,15.321-16.067,31.783-19.965,48.702c1.335,1.391,2.794,2.644,4.438,3.698
		c12.222,7.836,36.577-3.713,69.01-32.571c-1.296-1.707-2.648-3.363-4.02-5c-0.647-0.771-1.293-1.543-1.932-2.321
		C199.364,178.107,188.247,167.796,175.736,159.296z M90.831,139.39c14.168,4.379,23.751,19.161,29.295,30.791
		c2.737,5.743,4.688,12.074,6.424,18.415c3.636-8.561,7.941-16.924,12.924-25.014c3.879-6.293,8.146-12.176,12.588-17.836
		c-2.959-1.36-5.977-2.475-9.014-3.596c-0.547-0.202-1.094-0.404-1.642-0.607c-0.639-0.239-1.276-0.491-1.915-0.743
		c-1.248-0.493-2.502-0.988-3.774-1.396c-3.846-1.288-7.735-2.27-11.645-3.233c-1.765-0.449-3.53-0.898-5.314-1.294
		c-3.435-0.729-6.872-1.344-10.312-1.837c5.014-8.268,10.78-16.022,17.201-23.172c0.781,0.188,1.56,0.383,2.34,0.579
		c0.667,0.168,1.335,0.336,2.006,0.499c0.767,0.187,1.534,0.359,2.301,0.532c1.43,0.323,2.857,0.646,4.275,1.052
		c0.539,0.16,1.097,0.339,1.636,0.518c0.515,0.14,1.013,0.319,1.512,0.5h0.001c0.443,0.16,0.888,0.32,1.345,0.452
		c3.128,0.978,6.199,2.063,9.251,3.184c0.518,0.191,1.043,0.36,1.569,0.529c0.606,0.194,1.213,0.389,1.809,0.619
		c0.144,0.059,0.282,0.121,0.421,0.184c0.139,0.063,0.277,0.126,0.421,0.185c0.646,0.254,1.281,0.553,1.917,0.853
		c0.492,0.232,0.985,0.466,1.486,0.678c3.782,1.595,7.508,3.242,11.21,5.089c0.176,0.086,0.354,0.165,0.535,0.244
		c0.226,0.1,0.455,0.2,0.683,0.317c4.112,2.094,8.224,4.261,12.235,6.696c0.104,0.059,0.209,0.112,0.314,0.166
		c0.169,0.085,0.336,0.17,0.489,0.274c15.67,9.66,29.528,21.791,41.691,35.506c0.114,0.131,0.234,0.253,0.352,0.372h0.001
		c0.115,0.118,0.229,0.234,0.334,0.354c0.448,0.502,0.865,1.034,1.281,1.566h0.001v0.001c0.139,0.178,0.277,0.354,0.418,0.531
		c2.19,2.571,4.32,5.181,6.386,7.845c17.743-17.661,35.046-37.168,49.318-53.899c-30.279-30.659-71.906-48.373-115.888-48.255
		c16.829-9.097,35.509-15.146,55.274-17.427c29.025,8.796,55.591,24.468,77.302,45.809c1.819-2.194,3.532-4.266,5.117-6.183
		c5.335-6.453,9.548-11.551,12.255-14.596c8.818-9.923,17.758-16.944,26.403-20.946c-27.931-19.4-61.621-31.186-98.15-32.225
		c-75.756-2.154-141.98,42.505-170.942,107.742C80.037,137.688,85.484,137.737,90.831,139.39z M427.923,220.397
		c-2.293-3.094-4.771-4.742-7.799-5.189c-9.804-1.43-24.502,9.496-34.225,16.738c-2.915,2.172-5.669,4.223-8.119,5.854
		c-8.614,5.735-17.295,11.74-25.689,17.547c-10.263,7.1-20.875,14.441-31.54,21.412c-3.467,2.267-8.116,1.293-10.381-2.174
		c-2.267-3.467-1.293-8.115,2.174-10.381l0.014-0.01c18.057-11.807,34.313-27.89,50.035-43.444l1.776-1.756
		c18.966-18.747,40.462-39.994,48.018-64.142c2.602-8.315,0.314-18.569-8.014-21.335c-13.973-4.643-25.085,6.802-39.255,23.475
		c-2.798,3.292-5.44,6.401-8.071,9.167c-33.854,35.58-69.035,61.952-70.517,63.058c-3.104,2.317-7.467,1.888-10.059-0.992
		c-2.594-2.88-2.565-7.262,0.064-10.108c23.093-24.995,58.801-65.808,68.338-77.081l1.875-2.206
		c9.229-10.836,30.84-36.211,28.504-51.925c-0.594-4-2.771-7.081-6.848-9.695c-14.356-9.204-34.053,10.987-39.747,17.396
		c-2.529,2.846-6.668,7.852-11.907,14.189c-17.857,21.601-51.098,61.809-84.183,92.69c-43.287,40.405-74.185,53.726-94.461,40.717
		c-15.318-9.826-20.104-28.004-24.328-44.041c-2.074-7.876-4.033-15.315-6.994-21.525c-6.012-12.612-13.18-20.75-20.183-22.915
		c-4.064-1.254-8.326-0.538-13.031,2.197c-9.828,5.714-8.466,25.173-7.471,39.381c0.299,4.262,0.58,8.288,0.583,11.806
		c0.007,9.148-0.333,19.075-0.692,29.584c-1.349,39.433-3.027,88.507,15.722,104.258c2.917,2.45,3.533,6.698,1.434,9.877
		l-25.12,38.021l34.854,26.754c6.101-17.923,19.585-32.81,37.03-40.485c2.457-1.08,5.303-0.765,7.464,0.823l65.382,48.088
		c20.436,6.769,59.216-4.032,106.736-29.793c31.898-17.292,75.123-46.618,86.147-61.052c0.256-0.335,0.54-0.648,0.85-0.937
		c0.12-0.114,13.729-13.136,7.532-23.03c-8.202-13.099-27.96-4.782-59.313,14.016c-6.905,4.139-12.868,7.714-17.58,9.724
		c-3.612,1.542-7.802,0.034-9.604-3.454c-1.804-3.488-0.611-7.776,2.734-9.833c27.476-16.893,55.888-34.36,80.289-56.005
		c1.574-1.396,3.372-2.913,5.276-4.518C422.17,245.194,436.326,231.736,427.923,220.397z M105.541,424.934l-0.109,0.451
		l51.196,39.298l31.15-32.908l-55.836-41.067C118.81,397.811,109.076,410.335,105.541,424.934z"/>
</g>
<g id="Guide">
</g>
</svg>
