<?xml version="1.0" encoding="iso-8859-1"?>
<!-- Generator: Adobe Illustrator 23.0.4, SVG Export Plug-In . SVG Version: 6.00 Build 0)  -->
<svg version="1.1" xmlns="http://www.w3.org/2000/svg" xmlns:xlink="http://www.w3.org/1999/xlink" x="0px" y="0px"
	 viewBox="0 0 480 480" style="enable-background:new 0 0 480 480;" xml:space="preserve">
<g id="Workspace_copy_2">
	<path d="M153.174,185.287c16.817,0,30.5-13.682,30.5-30.5c0-16.817-13.683-30.5-30.5-30.5c-16.818,0-30.5,13.683-30.5,30.5
		C122.674,171.605,136.355,185.287,153.174,185.287z M201.481,312.445c-9.049-6.337-21.519-4.136-27.854,4.911l-38.42,54.868
		l-89.621,47.078c-10.767,2.468-17.493,13.196-15.025,23.963c2.123,9.263,10.36,15.536,19.477,15.536
		c1.479,0,2.982-0.166,4.486-0.511l97.122-48.797c5.598-3.208,9.073-3.965,11.914-8.022l42.833-61.172
		C212.729,331.252,210.529,318.78,201.481,312.445z M380.071,30.019c-19.582,0-34.73,12.189-38.87,29.981h77.736
		C414.799,42.208,399.654,30.019,380.071,30.019z M318.019,303.699l-106.837-46.758c-10.117-4.43-21.913,0.186-26.341,10.304
		c-4.429,10.119,0.185,21.912,10.304,26.341L290,335.1l0.443,103.81c0,11.046,8.954,20,20,20s20-8.954,20-20L330,322.021
		C330,314.076,325.297,306.885,318.019,303.699z M341.208,80c4.176,17.802,19.483,29.982,39.077,29.982S414.875,97.801,418.957,80
		H341.208z M383.845,147.778c-0.02-0.168-0.059-0.328-0.082-0.495c-0.021-0.152-0.032-0.307-0.058-0.46
		c-0.022-0.136-0.045-0.271-0.07-0.405c-1.151-6.219-5.62-11.946-11.381-14.576l-0.104-0.054L258.177,80.727
		c-4.872-2.185-10.418-2.328-15.396-0.399l-79.248,30.678c15.445,3.654,27.842,15.279,32.57,30.284l53.336-20.646l28.595,12.811
		l-56.865,81.141c-3.466,4.945-4.512,11.19-2.847,16.995c1.666,5.804,5.864,10.545,11.424,12.899l56.491,23.928
		c2.53,1.071,5.178,1.586,7.793,1.586c6.373,0,12.559-3.053,16.396-8.537l39.649-56.672l7.678,67.469
		c1.162,10.207,9.813,17.74,19.848,17.74c0.754,0,1.519-0.043,2.286-0.13c10.975-1.249,18.859-11.158,17.61-22.134L383.845,147.778z
		"/>
</g>
<g id="Guide">
</g>
</svg>
