<svg xmlns="http://www.w3.org/2000/svg" width="1000pt" height="1000pt" viewBox="0 0 1000 1000"><path d="M 452.542969 400.675781 C 491.921875 428.253906 540.617188 419.394531 568.195312 380.015625 C 595.769531 340.636719 587.113281 291.535156 547.734375 263.960938 C 508.355469 236.386719 459.242188 245.039062 431.667969 284.417969 C 404.09375 323.796875 413.164062 373.105469 452.542969 400.675781 Z M 500 83.332031 C 269.882812 83.332031 83.332031 269.882812 83.332031 500 C 83.332031 730.117188 269.882812 916.667969 500 916.667969 C 730.117188 916.667969 916.667969 730.117188 916.667969 500 C 916.667969 269.882812 730.117188 83.332031 500 83.332031 Z M 750.433594 750.433594 C 683.539062 817.324219 594.601562 854.167969 500 854.167969 C 405.398438 854.167969 316.457031 817.324219 249.566406 750.433594 C 182.675781 683.542969 145.832031 594.601562 145.832031 500 C 145.832031 405.398438 182.675781 316.457031 249.566406 249.566406 C 316.457031 182.675781 405.398438 145.832031 500 145.832031 C 594.601562 145.832031 683.542969 182.675781 750.433594 249.566406 C 817.328125 316.457031 854.167969 405.398438 854.167969 500 C 854.167969 594.601562 817.328125 683.542969 750.433594 750.433594 Z M 788.554688 402.597656 C 779.832031 381.300781 755.496094 371.117188 734.203125 379.835938 L 506.320312 473.210938 C 502.269531 474.871094 497.730469 474.871094 493.679688 473.210938 L 265.796875 379.835938 C 244.492188 371.113281 220.167969 381.300781 211.445312 402.597656 C 202.71875 423.890625 212.910156 448.222656 234.203125 456.949219 L 395.738281 523.140625 L 395.738281 794.753906 C 428.78125 806.414062 463.921875 812.5 500 812.5 C 536.078125 812.5 571.222656 806.414062 604.265625 794.753906 L 604.265625 523.140625 L 765.796875 456.949219 C 787.089844 448.222656 797.277344 423.890625 788.554688 402.597656 Z M 788.554688 402.597656"/></svg>