<svg xmlns="http://www.w3.org/2000/svg" viewBox="0 0 480 480"><path d="M217.221,192.325c18.902,13.236,42.276,8.984,55.512-9.918s9.081-42.471-9.821-55.706 c-18.902-13.236-42.475-9.083-55.711,9.819C193.965,155.423,198.318,179.09,217.221,192.325z M240,40C129.543,40,40,129.543,40,240 s89.543,200,200,200s200-89.543,200-200S350.457,40,240,40z M360.208,360.208C328.099,392.316,285.409,410,240,410 c-45.408,0-88.1-17.684-120.208-49.792S70,285.408,70,240s17.684-88.1,49.792-120.208S194.592,70,240,70 c45.409,0,88.1,17.684,120.208,49.792C392.317,151.9,410,194.592,410,240S392.317,328.1,360.208,360.208z M378.507,193.246 c-4.188-10.221-15.869-15.11-26.09-10.924l-109.384,44.82c-1.943,0.797-4.123,0.797-6.066,0l-109.384-44.82 c-10.227-4.188-21.902,0.702-26.09,10.924c-4.188,10.221,0.703,21.901,10.924,26.09l77.537,31.771v130.374 C205.815,387.079,222.682,390,240,390s34.186-2.921,50.047-8.519V251.107l77.536-31.771 C377.804,215.147,382.694,203.467,378.507,193.246z"/></svg>