<?xml version="1.0" encoding="iso-8859-1"?>
<!-- Generator: Adobe Illustrator 23.0.4, SVG Export Plug-In . SVG Version: 6.00 Build 0)  -->
<svg version="1.1" xmlns="http://www.w3.org/2000/svg" xmlns:xlink="http://www.w3.org/1999/xlink" x="0px" y="0px"
	 viewBox="0 0 480 480" style="enable-background:new 0 0 480 480;" xml:space="preserve">
<g id="Merged">
	<path d="M272.778,289.916c-10.943-1.52-21.042,6.116-22.562,17.057l-7.396,53.221l-33.77,70.252
		c-4.785,9.955-0.595,21.905,9.36,26.69c2.795,1.344,5.745,1.979,8.65,1.979c7.447,0,14.598-4.18,18.04-11.34l35.124-73.068
		c0.897-1.866,1.499-3.861,1.784-5.912l7.826-56.316C291.355,301.538,283.719,291.437,272.778,289.916z M416.813,180.099
		l-81.915-57.358c-1.747-1.224-3.679-2.16-5.722-2.773l-55.248-16.582l-5.714-1.872c-0.91-0.299-1.827-0.504-2.744-0.667
		l-50.836-15.258l-14.669-24.974c-5.114,8.687-13.154,15.717-23.345,19.426c-3.323,1.21-6.744,2.011-10.218,2.413l17.718,30.163
		c2.556,4.351,6.662,7.575,11.495,9.025l40.925,12.283l-30.957,94.364c-1.653,5.041-1.236,10.532,1.159,15.266
		s6.573,8.321,11.615,9.974l57.012,18.688c2.029,0.666,4.132,0.995,6.229,0.995c3.11,0,6.208-0.726,9.035-2.157
		c4.732-2.396,8.319-6.575,9.971-11.616l29.815-91.003l63.449,44.429c3.492,2.445,7.492,3.619,11.454,3.619
		c6.305,0,12.51-2.975,16.4-8.53C428.061,198.905,425.861,186.435,416.813,180.099z M323.703,89.874
		c20.753-7.554,31.454-30.501,23.9-51.255c-7.554-20.753-30.501-31.454-51.255-23.9c-20.753,7.554-31.454,30.501-23.9,51.255
		C280.002,86.727,302.949,97.428,323.703,89.874z M231.158,293.189c1.718-10.911-5.734-21.148-16.646-22.867l-61.376-9.664
		c-7.548-1.19-15.112,2.027-19.493,8.285l-60.685,86.668c-6.336,9.049-4.137,21.52,4.911,27.854
		c3.492,2.445,7.492,3.619,11.454,3.619c6.305-0.001,12.511-2.975,16.4-8.53l53.523-76.441l49.044,7.723
		C219.199,311.552,229.439,304.101,231.158,293.189z M171.491,65.945c15.564-5.666,23.591-22.876,17.925-38.441
		c-5.665-15.565-22.876-23.59-38.44-17.925c-15.565,5.665-23.591,22.875-17.926,38.441S155.926,71.61,171.491,65.945z"/>
</g>
<g id="Guide">
</g>
</svg>
