<svg xmlns="http://www.w3.org/2000/svg" width="1000pt" height="1000pt" viewBox="0 0 1000 1000"><path d="M 568.289062 603.992188 C 545.488281 600.824219 524.449219 616.734375 521.285156 639.527344 L 505.875 750.402344 L 435.519531 896.761719 C 425.550781 917.503906 434.28125 942.398438 455.019531 952.367188 C 460.84375 955.167969 466.988281 956.488281 473.042969 956.488281 C 488.554688 956.488281 503.453125 947.78125 510.625 932.863281 L 583.800781 780.640625 C 585.667969 776.753906 586.921875 772.597656 587.515625 768.324219 L 603.820312 650.996094 C 606.988281 628.203125 591.082031 607.160156 568.289062 603.992188 Z M 868.359375 375.207031 L 697.703125 255.710938 C 694.066406 253.160156 690.039062 251.210938 685.785156 249.933594 L 570.683594 215.386719 L 558.777344 211.488281 C 556.882812 210.863281 554.972656 210.4375 553.0625 210.097656 L 447.152344 178.308594 L 416.59375 126.28125 C 405.941406 144.378906 389.191406 159.023438 367.957031 166.753906 C 361.035156 169.273438 353.910156 170.941406 346.671875 171.777344 L 383.582031 234.617188 C 388.910156 243.683594 397.460938 250.398438 407.53125 253.421875 L 492.792969 279.011719 L 428.296875 475.601562 C 424.855469 486.105469 425.722656 497.542969 430.710938 507.40625 C 435.703125 517.269531 444.40625 524.742188 454.910156 528.183594 L 573.683594 567.117188 C 577.914062 568.507812 582.292969 569.191406 586.664062 569.191406 C 593.140625 569.191406 599.597656 567.679688 605.484375 564.699219 C 615.34375 559.707031 622.816406 551 626.257812 540.496094 L 688.371094 350.910156 L 820.558594 443.46875 C 827.832031 448.5625 836.167969 451.007812 844.421875 451.007812 C 857.554688 451.007812 870.484375 444.808594 878.585938 433.238281 C 891.792969 414.386719 887.210938 388.40625 868.359375 375.207031 Z M 674.382812 187.238281 C 717.617188 171.5 739.910156 123.695312 724.171875 80.457031 C 708.433594 37.222656 660.628906 14.925781 617.390625 30.664062 C 574.15625 46.402344 551.863281 94.207031 567.601562 137.445312 C 583.335938 180.679688 631.144531 202.976562 674.382812 187.238281 Z M 481.578125 610.808594 C 485.160156 588.078125 469.632812 566.753906 446.898438 563.171875 L 319.035156 543.039062 C 303.308594 540.558594 287.550781 547.261719 278.421875 560.296875 L 151.996094 740.855469 C 138.796875 759.707031 143.378906 785.691406 162.226562 798.886719 C 169.503906 803.980469 177.835938 806.425781 186.089844 806.425781 C 199.226562 806.421875 212.152344 800.226562 220.257812 788.652344 L 331.761719 629.402344 L 433.9375 645.492188 C 456.664062 649.066406 477.996094 633.542969 481.578125 610.808594 Z M 357.273438 137.386719 C 389.699219 125.582031 406.421875 89.726562 394.617188 57.300781 C 382.816406 24.871094 346.957031 8.152344 314.535156 19.957031 C 282.105469 31.757812 265.386719 67.613281 277.1875 100.042969 C 288.988281 132.472656 324.847656 149.1875 357.273438 137.386719 Z M 357.273438 137.386719"/></svg>