<?xml version="1.0" encoding="iso-8859-1"?>
<!-- Generator: Adobe Illustrator 23.0.4, SVG Export Plug-In . SVG Version: 6.00 Build 0)  -->
<svg version="1.1" xmlns="http://www.w3.org/2000/svg" xmlns:xlink="http://www.w3.org/1999/xlink" x="0px" y="0px"
	 viewBox="0 0 480 480" style="enable-background:new 0 0 480 480;" xml:space="preserve">
<g id="Workspace">
	<path style="display:none;fill-rule:evenodd;clip-rule:evenodd;fill:#FFFFFF;" d="M142.947,270.808
		c-18.096-12.671-43.038-8.273-55.709,9.823c-12.671,18.096-8.273,43.038,9.823,55.709c18.096,12.671,43.038,8.273,55.709-9.823
		C165.441,308.421,161.043,283.479,142.947,270.808z M111.813,297.84c-5.188,7.409-12.224,12.765-20.05,15.904
		c-1.166-3.248-1.766-6.677-1.772-10.129c5.297-2.511,10.035-6.376,13.631-11.511c3.593-5.131,5.604-10.901,6.153-16.732
		c3.246-1.174,6.674-1.781,10.125-1.795C119.624,281.999,116.998,290.436,111.813,297.84z M136.359,315.027
		c-3.598,5.138-5.609,10.916-6.155,16.755c-3.246,1.174-6.673,1.781-10.124,1.796c0.273-8.431,2.899-16.876,8.088-24.287
		c5.185-7.405,12.217-12.76,20.04-15.9c1.168,3.247,1.77,6.675,1.779,10.127C144.691,306.028,139.954,309.893,136.359,315.027z"/>
	<path d="M241.035,107.337c-20.448,29.202-30.567,63.146-28.492,95.576c0.657,10.284,2.513,20.037,5.478,29.113l-2.819,84.65
		c-5.638-1.096-11.65,1.104-15.157,6.112l-40.15,57.34c-4.752,6.786-3.103,16.14,3.684,20.892l8.191,5.735
		c6.786,4.752,16.139,3.103,20.891-3.684l40.15-57.341c3.507-5.008,3.518-11.41,0.56-16.333l78.593-31.606
		c9.539-0.318,19.335-1.907,29.219-4.805c31.185-9.143,59.62-30.261,80.068-59.465c20.448-29.203,30.567-63.146,28.493-95.577
		c-2.128-33.267-16.748-61.003-41.168-78.102c-24.417-17.099-55.483-21.351-87.471-11.972
		C289.919,57.015,261.483,78.133,241.035,107.337z M235.535,306.97l1.37-41.128c4.928,5.698,10.541,10.788,16.805,15.173
		c6.265,4.387,12.972,7.915,20.014,10.597L235.535,306.97z M353.718,63.027c15.637,0,30.601,4.247,43.386,13.199
		c19.342,13.543,30.947,35.915,32.68,62.995c1.785,27.916-7.063,57.332-24.917,82.83c-24.516,35.011-60.975,55.098-94.587,55.759
		c-0.17-0.005-0.341,0.001-0.512,0.005c-16.071,0.223-31.475-4.003-44.587-13.184c-13.102-9.173-22.336-22.188-27.626-37.35
		c-0.06-0.18-0.118-0.358-0.188-0.532c-10.869-31.811-4.462-72.936,20.051-107.942C282.35,83.201,319.635,63.027,353.718,63.027z
		 M440,430H40c-5.522,0-10,4.478-10,10s4.478,10,10,10h400c5.522,0,10-4.478,10-10S445.522,430,440,430z M38,230h2.847
		c4.776-28.341,29.477-50.004,59.154-50.004s54.377,21.663,59.154,50.004h37.475c-2.115-8.289-3.479-16.934-4.046-25.812
		c-2.364-36.944,9.024-75.414,32.068-108.323C246.774,64.271,277.389,41.024,311.236,30H38c-4.418,0-8,3.582-8,8v184
		C30,226.418,33.582,230,38,230z M100,199.996c-18.64,0-34.303,12.75-38.743,30.004c-0.822,3.196-1.26,6.547-1.26,10
		c0,22.094,17.91,40.004,40.003,40.004c22.094,0,40.004-17.91,40.004-40.004c0-3.453-0.438-6.804-1.26-10
		C134.303,212.746,118.64,199.996,100,199.996z"/>
</g>
<g id="Guide">
</g>
</svg>
