<?xml version="1.0" encoding="iso-8859-1"?>
<!-- Generator: Adobe Illustrator 23.0.4, SVG Export Plug-In . SVG Version: 6.00 Build 0)  -->
<svg version="1.1" xmlns="http://www.w3.org/2000/svg" xmlns:xlink="http://www.w3.org/1999/xlink" x="0px" y="0px"
	 viewBox="0 0 480 480" style="enable-background:new 0 0 480 480;" xml:space="preserve">
<g id="Layer_3">
	<path d="M170.41,101.236h69.656l-56.194,35.709c-4.578,2.909-7.778,7.553-8.866,12.867c-1.089,5.313,0.027,10.842,3.094,15.316
		l22.555,32.921c3.866,5.645,10.129,8.698,16.516,8.698c3.673,0,7.388-1.011,10.709-3.121l91.822-58.338l28.415,32.334
		l-8.541,30.457c-2.982,10.636,3.221,21.675,13.856,24.657c1.806,0.507,3.623,0.748,5.411,0.748c8.741,0,16.771-5.775,19.246-14.604
		l11.472-40.907c1.828-6.518,0.235-13.518-4.233-18.603L305.06,68.034c-3.797-4.321-9.271-6.798-15.023-6.798h-93.713l-27.889,39.9
		C169.084,101.2,169.743,101.236,170.41,101.236z M41.432,174.623l52.473,36.642c3.621,2.529,8.607,1.645,11.138-1.977l8.02-11.475
		c2.532-3.623,1.646-8.612-1.978-11.143L93.05,174.078l91.623-131.084c3.164-4.526,2.06-10.761-2.468-13.925
		c-4.526-3.166-10.762-2.06-13.925,2.468L76.653,162.628L58.612,150.03c-3.621-2.529-8.607-1.645-11.138,1.976l-8.02,11.476
		C36.923,167.104,37.808,172.093,41.432,174.623z M345.676,82.461c16.359,11.437,36.59,7.763,48.045-8.571s7.858-36.7-8.501-48.137
		c-16.359-11.438-36.762-7.849-48.217,8.485S329.316,71.023,345.676,82.461z M98.045,410.157c43.01,0,78-34.99,78-78
		s-34.99-78-78-78s-78,34.99-78,78S55.036,410.157,98.045,410.157z M98.045,274.157c31.981,0,58,26.019,58,58s-26.019,58-58,58
		s-58-26.019-58-58S66.064,274.157,98.045,274.157z M304.045,332.157c0,43.01,34.99,78,78,78s78-34.99,78-78s-34.99-78-78-78
		S304.045,289.147,304.045,332.157z M440.045,332.157c0,31.981-26.019,58-58,58s-58-26.019-58-58s26.019-58,58-58
		S440.045,300.176,440.045,332.157z M302.274,247.526l-29.698-31.544c-7.568-8.043-20.228-8.425-28.271-0.853
		c-8.042,7.571-8.424,20.229-0.852,28.271l18.412,19.557L233.21,302.91l-45.273-90.613c-4.938-9.88-16.947-13.89-26.831-8.952
		c-9.881,4.938-13.889,16.949-8.952,26.831l59.979,120.049l0.026,0.052l19.994,40.018c3.504,7.011,10.568,11.065,17.907,11.065
		c3.003,0,6.054-0.68,8.924-2.113c9.881-4.938,13.889-16.949,8.952-26.831l-14.516-29.053l50.543-70.47
		C309.538,265.121,308.83,254.49,302.274,247.526z M440,430H40c-5.522,0-10,4.478-10,10s4.478,10,10,10h400c5.522,0,10-4.478,10-10
		S445.523,430,440,430z"/>
</g>
<g id="Guides">
</g>
</svg>
