<svg xmlns="http://www.w3.org/2000/svg" width="1000pt" height="1000pt" viewBox="0 0 1000 1000"><path d="M 502.15625 223.617188 C 459.554688 284.457031 438.476562 355.171875 442.796875 422.734375 C 444.167969 444.160156 448.035156 464.480469 454.210938 483.386719 L 448.335938 659.742188 C 436.589844 657.457031 424.066406 662.042969 416.761719 672.476562 L 333.113281 791.933594 C 323.214844 806.070312 326.648438 825.558594 340.789062 835.457031 L 357.855469 847.40625 C 371.992188 857.304688 391.476562 853.871094 401.378906 839.730469 L 485.023438 720.269531 C 492.328125 709.835938 492.351562 696.5 486.191406 686.242188 L 649.925781 620.398438 C 669.796875 619.734375 690.207031 616.425781 710.796875 610.386719 C 775.765625 591.339844 835.007812 547.34375 877.605469 486.503906 C 920.207031 425.664062 941.289062 354.949219 936.964844 287.382812 C 932.535156 218.078125 902.074219 160.292969 851.199219 124.671875 C 800.332031 89.046875 735.609375 80.191406 668.96875 99.730469 C 603.996094 118.78125 544.757812 162.777344 502.15625 223.617188 Z M 490.699219 639.519531 L 493.550781 553.835938 C 503.820312 565.707031 515.511719 576.3125 528.5625 585.449219 C 541.613281 594.585938 555.585938 601.9375 570.257812 607.523438 Z M 736.914062 131.304688 C 769.488281 131.304688 800.664062 140.152344 827.300781 158.804688 C 867.597656 187.019531 891.773438 233.628906 895.382812 290.042969 C 899.101562 348.203125 880.667969 409.484375 843.472656 462.605469 C 792.398438 535.546875 716.441406 577.394531 646.417969 578.769531 C 646.0625 578.761719 645.707031 578.773438 645.351562 578.78125 C 611.867188 579.246094 579.777344 570.441406 552.460938 551.316406 C 525.164062 532.203125 505.925781 505.089844 494.90625 473.503906 C 494.78125 473.128906 494.660156 472.757812 494.515625 472.394531 C 471.871094 406.121094 485.21875 320.445312 536.289062 247.515625 C 588.230469 173.335938 665.90625 131.304688 736.914062 131.304688 Z M 916.667969 895.832031 L 83.332031 895.832031 C 71.828125 895.832031 62.5 905.164062 62.5 916.667969 C 62.5 928.171875 71.828125 937.5 83.332031 937.5 L 916.667969 937.5 C 928.171875 937.5 937.5 928.171875 937.5 916.667969 C 937.5 905.164062 928.171875 895.832031 916.667969 895.832031 Z M 79.167969 479.167969 L 85.097656 479.167969 C 95.046875 420.121094 146.507812 374.992188 208.335938 374.992188 C 270.164062 374.992188 321.621094 420.121094 331.574219 479.167969 L 409.644531 479.167969 C 405.238281 461.898438 402.398438 443.886719 401.214844 425.390625 C 396.292969 348.425781 420.015625 268.277344 468.023438 199.71875 C 514.113281 133.898438 577.894531 85.464844 648.410156 62.5 L 79.167969 62.5 C 69.960938 62.5 62.5 69.960938 62.5 79.167969 L 62.5 462.5 C 62.5 471.703125 69.960938 479.167969 79.167969 479.167969 Z M 208.332031 416.660156 C 169.5 416.660156 136.867188 443.222656 127.617188 479.167969 C 125.90625 485.824219 124.992188 492.804688 124.992188 500 C 124.992188 546.027344 162.304688 583.339844 208.332031 583.339844 C 254.363281 583.339844 291.675781 546.027344 291.675781 500 C 291.675781 492.804688 290.761719 485.824219 289.050781 479.167969 C 279.796875 443.222656 247.167969 416.660156 208.332031 416.660156 Z M 208.332031 416.660156"/></svg>