<svg xmlns="http://www.w3.org/2000/svg" viewBox="0 0 480 480"><path d="M431.631,61.862c-4.557-3.189-10.822-2.184-14.15,2.272L194.95,365.508c-9.87,14.096-28.925,17.846-42.476,8.357 c-13.42-9.396-16.485-28.307-6.955-42.363c6.184-9.119,4.535-21.659-4.403-28.102c-9.067-6.534-21.692-4.372-28.081,4.75 c-22.521,32.163-15.121,76.342,16.497,98.482c12.028,8.422,25.852,12.458,39.608,12.458c22.403,0,44.622-10.713,58.575-30.64 L434.335,75.936C437.384,71.285,436.187,65.052,431.631,61.862z M70,200c-22.092,0-40,17.908-40,40c0,22.091,17.908,40,40,40 c22.091,0,40-17.909,40-40C110,217.909,92.09,200,70,200z"/></svg>