<?xml version="1.0" encoding="iso-8859-1"?>
<!-- Generator: Adobe Illustrator 23.0.4, SVG Export Plug-In . SVG Version: 6.00 Build 0)  -->
<svg version="1.1" xmlns="http://www.w3.org/2000/svg" xmlns:xlink="http://www.w3.org/1999/xlink" x="0px" y="0px"
	 viewBox="0 0 480 480" style="enable-background:new 0 0 480 480;" xml:space="preserve">
<g id="Layer_5_copy">
	
		<path style="display:none;fill-rule:evenodd;clip-rule:evenodd;fill:none;stroke:#FFFF00;stroke-width:20;stroke-linecap:round;stroke-linejoin:round;stroke-miterlimit:10;" d="
		M420,100L232.019,368.465c-16.222,23.167-47.709,29.107-70.329,13.269l0,0c-22.62-15.839-27.807-47.459-11.586-70.626"/>
	<path d="M431.631,61.862c-4.557-3.189-10.822-2.184-14.15,2.272L194.95,365.508c-9.87,14.096-28.925,17.846-42.476,8.357
		c-13.42-9.396-16.485-28.307-6.955-42.363c6.184-9.119,4.535-21.659-4.403-28.102c-9.067-6.534-21.692-4.372-28.081,4.75
		c-22.521,32.163-15.121,76.342,16.497,98.482c12.028,8.422,25.852,12.458,39.608,12.458c22.403,0,44.622-10.713,58.575-30.64
		L434.335,75.936C437.384,71.285,436.187,65.052,431.631,61.862z M70,200c-22.092,0-40,17.908-40,40c0,22.091,17.908,40,40,40
		c22.091,0,40-17.909,40-40C110,217.909,92.09,200,70,200z"/>
	<line style="display:none;fill:none;stroke:#A9852E;stroke-miterlimit:10;" x1="403.617" y1="88.529" x2="436.382" y2="111.472"/>
</g>
<g id="Layer_4">
</g>
</svg>
