<svg xmlns="http://www.w3.org/2000/svg" viewBox="0 0 480 480"><path d="M391.518,40.914c-18.902-13.235-42.476-9.083-55.711,9.819s-8.882,42.569,10.021,55.806 c18.902,13.235,42.276,8.983,55.512-9.919S410.42,54.149,391.518,40.914z M280.063,304.688l-65.532-45.887 c-9.05-6.337-21.519-4.136-27.854,4.911c-6.336,9.048-4.137,21.52,4.911,27.854l51.663,36.176l-45.087,94.524 c-4.755,9.97-0.528,21.906,9.441,26.662c2.779,1.325,5.71,1.953,8.597,1.953c7.469-0.001,14.636-4.204,18.065-11.395 l52.376-109.807C290.851,320.861,288.068,310.293,280.063,304.688z M168.646,304.334c-11.046,0-20,8.954-20,20v23.849 l-74.651,76.902c-7.693,7.926-7.506,20.588,0.42,28.281c3.886,3.772,8.909,5.649,13.929,5.649c5.218,0,10.431-2.029,14.353-6.069 l80.301-82.723c3.623-3.732,5.649-8.729,5.649-13.931v-31.959C188.646,313.288,179.691,304.334,168.646,304.334z M375.397,160.732 c-0.02-0.274-0.063-0.551-0.095-0.826c-0.043-0.375-0.077-0.751-0.142-1.125l-0.013-0.102c-0.062-0.355-0.158-0.701-0.239-1.052 c-0.057-0.243-0.094-0.487-0.16-0.73l-0.021-0.065c-0.116-0.42-0.262-0.823-0.402-1.229c-0.08-0.23-0.144-0.467-0.231-0.694 c-0.083-0.214-0.188-0.414-0.277-0.624c-1.228-2.874-3.061-5.355-5.329-7.301l-0.022-0.018c-0.481-0.413-0.985-0.804-1.508-1.172 l-0.033-0.025l-49.148-34.415c-0.189-0.133-0.388-0.239-0.58-0.364c-0.325-0.211-0.648-0.426-0.98-0.615 c-0.255-0.146-0.52-0.274-0.78-0.409c-0.323-0.166-0.646-0.335-0.974-0.481c-0.279-0.125-0.566-0.234-0.853-0.347 c-0.323-0.127-0.646-0.256-0.973-0.365c-0.298-0.1-0.602-0.183-0.905-0.269c-0.325-0.091-0.649-0.185-0.977-0.26 c-0.317-0.072-0.64-0.126-0.962-0.184c-0.319-0.056-0.639-0.115-0.959-0.156c-0.35-0.044-0.704-0.068-1.06-0.094 c-0.296-0.021-0.591-0.049-0.887-0.058c-0.404-0.011-0.814,0.003-1.224,0.017c-0.207,0.006-0.411-0.006-0.619,0.008l-127.731,8.059 c-9.523,0.601-17.054,7.777-18.482,16.826c16.842,0.248,31.693,8.854,40.572,21.859l66.655-4.205l-13.381,19.093l-44.619,12.149 c0.008,0.361,0.027,0.721,0.027,1.084c0,14.251-6.003,27.119-15.602,36.235c3.474,2.726,7.807,4.291,12.344,4.291 c1.739,0,3.508-0.229,5.267-0.707l8.218-2.237c-0.895,2.967-1.113,6.126-0.565,9.235c0.92,5.225,3.878,9.87,8.223,12.914 l49.181,34.45c3.386,2.371,7.396,3.619,11.475,3.619c1.156,0,2.317-0.101,3.471-0.304c5.225-0.92,9.869-3.879,12.912-8.225 l68.77-98.207l0.011-0.017l0.048-0.067c0.121-0.173,0.221-0.358,0.337-0.535c0.231-0.354,0.468-0.708,0.676-1.075 c0.139-0.244,0.255-0.5,0.383-0.75c0.168-0.328,0.344-0.652,0.493-0.988c0.109-0.246,0.197-0.501,0.297-0.752 c0.141-0.355,0.289-0.708,0.409-1.07c0.074-0.225,0.129-0.456,0.196-0.684c0.117-0.399,0.237-0.799,0.33-1.205 c0.044-0.197,0.071-0.399,0.11-0.599c0.086-0.442,0.172-0.885,0.228-1.332c0.023-0.187,0.03-0.375,0.048-0.562 c0.045-0.46,0.087-0.921,0.1-1.386c0.006-0.209-0.008-0.42-0.009-0.63C375.431,161.615,375.429,161.174,375.397,160.732z M158.085,212.643c16.568,0,30-13.432,30-30s-13.432-30-30-30s-30,13.432-30,30S141.517,212.643,158.085,212.643z"/></svg>