<?xml version="1.0" encoding="iso-8859-1"?>
<!-- Generator: Adobe Illustrator 23.0.4, SVG Export Plug-In . SVG Version: 6.00 Build 0)  -->
<svg version="1.1" xmlns="http://www.w3.org/2000/svg" xmlns:xlink="http://www.w3.org/1999/xlink" x="0px" y="0px"
	 viewBox="0 0 480 480" style="enable-background:new 0 0 480 480;" xml:space="preserve">
<g id="Layer_1_copy">
</g>
<g id="Guide">
	<path d="M446.036,207.759L290.76,99.042c-8.42-5.895-18.451-9.053-28.729-9.042c-1.293,0.001-2.505-0.63-3.282-1.662
		l-27.364-36.347C227.207,47.761,220,50.719,220,56.665v24.662c0,4.977-3.659,9.195-8.585,9.899l-110.465,15.78
		c-5.222,0.746-5.879,8.022-0.875,9.692l38.701,17.35c4.341,1.945,3.769,8.28-0.849,9.417l-19.968,4.919
		c-4.992,0.995-5.477,7.944-0.671,9.623l10.362,9.04c1.925,1.679,2.279,4.532,0.815,6.626
		c-10.924,15.623-54.176,77.474-80.679,115.259c-11.401,16.254-12.196,37.767-1.795,54.679
		c21.52,34.986,93.845,63.45,128.179,75.287c10.944,3.772,22.794-2.478,25.828-13.649c9.537-35.107,26.645-107.836,35.056-143.947
		l-0.009-0.007c-2.011-1.393-4.017-2.857-6.012-4.398l-0.129-0.1c-1.99-1.541-3.969-3.156-5.927-4.852l-0.014-0.012
		c-0.925-0.802-1.844-1.623-2.759-2.461c-0.108-0.099-0.217-0.197-0.325-0.297c-1.847-1.701-3.669-3.476-5.462-5.327
		c-0.146-0.152-0.293-0.306-0.439-0.459c-0.791-0.824-1.576-1.664-2.354-2.519c-0.101-0.111-0.202-0.22-0.304-0.331
		c-0.865-0.959-1.723-1.937-2.57-2.935c-0.121-0.142-0.24-0.287-0.36-0.431c-0.713-0.847-1.419-1.708-2.118-2.583
		c-0.186-0.231-0.371-0.463-0.555-0.696c-1.604-2.034-3.165-4.144-4.681-6.332c-0.193-0.278-0.384-0.56-0.575-0.841
		c-0.609-0.895-1.211-1.803-1.805-2.724c-0.152-0.236-0.307-0.469-0.458-0.706c-0.714-1.125-1.415-2.27-2.104-3.433
		c-0.15-0.255-0.298-0.517-0.447-0.773c-0.551-0.945-1.093-1.904-1.626-2.876c-0.185-0.336-0.37-0.672-0.552-1.012
		c-0.657-1.223-1.305-2.458-1.932-3.721c-2.457-4.946-0.438-10.947,4.509-13.403c4.948-2.46,10.948-0.438,13.403,4.509
		c0.471,0.948,0.954,1.879,1.446,2.801c0.159,0.298,0.323,0.589,0.484,0.885c0.339,0.621,0.681,1.238,1.029,1.848
		c0.192,0.336,0.389,0.669,0.584,1.002c0.331,0.564,0.666,1.124,1.005,1.678c0.201,0.329,0.403,0.658,0.607,0.983
		c0.355,0.566,0.715,1.125,1.078,1.68c0.19,0.292,0.379,0.586,0.572,0.875c0.45,0.675,0.907,1.339,1.369,1.997
		c0.107,0.153,0.213,0.312,0.32,0.465c0.571,0.806,1.151,1.598,1.738,2.379c0.169,0.225,0.342,0.442,0.512,0.665
		c0.424,0.557,0.851,1.109,1.283,1.652c0.221,0.277,0.443,0.551,0.666,0.824c0.392,0.484,0.786,0.964,1.185,1.438
		c0.233,0.278,0.469,0.556,0.704,0.83c0.404,0.472,0.811,0.937,1.22,1.397c0.226,0.254,0.45,0.511,0.678,0.762
		c0.47,0.521,0.944,1.031,1.42,1.539c0.166,0.177,0.33,0.357,0.497,0.533c0.646,0.68,1.298,1.349,1.954,2.006
		c0.127,0.127,0.257,0.25,0.384,0.376c0.531,0.527,1.065,1.048,1.603,1.561c0.224,0.213,0.449,0.422,0.674,0.633
		c0.449,0.421,0.899,0.839,1.352,1.249c0.245,0.223,0.49,0.442,0.735,0.662c0.447,0.399,0.895,0.793,1.345,1.182
		c0.238,0.206,0.476,0.413,0.715,0.617c0.497,0.424,0.996,0.839,1.495,1.251c0.188,0.154,0.374,0.312,0.562,0.465
		c0.696,0.567,1.395,1.125,2.096,1.671c23.661,15.626,76.272,7.529,98.824,3.071c7.182-1.42,14.608-0.819,21.479,1.706
		c22.981,8.449,51.308,17.821,71.124,2.386C440.021,241.553,458.205,216.278,446.036,207.759z"/>
</g>
</svg>
