<svg xmlns="http://www.w3.org/2000/svg" width="1000pt" height="1000pt" viewBox="0 0 1000 1000"><path d="M 929.242188 432.832031 L 605.75 206.335938 C 588.207031 194.054688 567.308594 187.476562 545.898438 187.5 C 543.203125 187.503906 540.679688 186.1875 539.058594 184.039062 L 482.050781 108.316406 C 473.347656 99.503906 458.332031 105.664062 458.332031 118.050781 L 458.332031 169.429688 C 458.332031 179.800781 450.710938 188.585938 440.449219 190.054688 L 210.3125 222.929688 C 199.433594 224.484375 198.066406 239.640625 208.488281 243.121094 L 289.117188 279.265625 C 298.160156 283.320312 296.96875 296.515625 287.347656 298.886719 L 245.746094 309.132812 C 235.347656 311.207031 234.335938 325.683594 244.351562 329.179688 L 265.9375 348.015625 C 269.949219 351.511719 270.683594 357.457031 267.636719 361.820312 C 244.878906 394.367188 154.769531 523.222656 99.554688 601.941406 C 75.800781 635.804688 74.144531 680.621094 95.816406 715.855469 C 140.648438 788.742188 291.324219 848.042969 362.855469 872.703125 C 385.652344 880.5625 410.339844 867.542969 416.664062 844.269531 C 436.53125 771.128906 472.171875 619.609375 489.695312 544.378906 L 489.675781 544.363281 C 485.488281 541.460938 481.308594 538.414062 477.152344 535.203125 L 476.882812 534.992188 C 472.738281 531.785156 468.613281 528.417969 464.535156 524.886719 L 464.507812 524.859375 C 462.578125 523.191406 460.664062 521.480469 458.757812 519.734375 C 458.535156 519.527344 458.304688 519.324219 458.082031 519.113281 C 454.234375 515.570312 450.4375 511.871094 446.703125 508.015625 C 446.398438 507.699219 446.089844 507.378906 445.789062 507.058594 C 444.140625 505.34375 442.503906 503.59375 440.882812 501.8125 C 440.671875 501.582031 440.460938 501.355469 440.25 501.121094 C 438.449219 499.125 436.660156 497.085938 434.894531 495.007812 C 434.644531 494.710938 434.394531 494.410156 434.144531 494.109375 C 432.660156 492.347656 431.191406 490.550781 429.734375 488.730469 C 429.347656 488.246094 428.960938 487.765625 428.578125 487.277344 C 425.234375 483.042969 421.984375 478.644531 418.824219 474.085938 C 418.421875 473.507812 418.023438 472.921875 417.628906 472.335938 C 416.359375 470.472656 415.105469 468.578125 413.867188 466.660156 C 413.550781 466.167969 413.226562 465.683594 412.914062 465.191406 C 411.425781 462.847656 409.964844 460.460938 408.527344 458.039062 C 408.214844 457.507812 407.910156 456.960938 407.597656 456.425781 C 406.449219 454.457031 405.320312 452.460938 404.210938 450.433594 C 403.824219 449.734375 403.441406 449.035156 403.058594 448.328125 C 401.691406 445.777344 400.339844 443.207031 399.035156 440.574219 C 393.917969 430.269531 398.121094 417.769531 408.429688 412.652344 C 418.738281 407.527344 431.238281 411.738281 436.351562 422.046875 C 437.332031 424.019531 438.339844 425.960938 439.363281 427.882812 C 439.695312 428.503906 440.039062 429.109375 440.371094 429.726562 C 441.078125 431.019531 441.792969 432.304688 442.515625 433.574219 C 442.917969 434.273438 443.328125 434.96875 443.734375 435.664062 C 444.421875 436.835938 445.121094 438.003906 445.828125 439.160156 C 446.246094 439.84375 446.667969 440.527344 447.089844 441.207031 C 447.832031 442.386719 448.582031 443.550781 449.335938 444.707031 C 449.734375 445.316406 450.128906 445.925781 450.527344 446.527344 C 451.464844 447.933594 452.417969 449.320312 453.382812 450.691406 C 453.605469 451.007812 453.824219 451.339844 454.046875 451.660156 C 455.238281 453.335938 456.445312 454.988281 457.667969 456.613281 C 458.019531 457.082031 458.382812 457.535156 458.734375 458 C 459.617188 459.160156 460.507812 460.308594 461.410156 461.441406 C 461.867188 462.019531 462.332031 462.589844 462.796875 463.160156 C 463.613281 464.167969 464.433594 465.167969 465.265625 466.152344 C 465.75 466.734375 466.242188 467.3125 466.730469 467.882812 C 467.574219 468.867188 468.421875 469.835938 469.273438 470.792969 C 469.742188 471.324219 470.210938 471.859375 470.683594 472.382812 C 471.664062 473.464844 472.652344 474.527344 473.644531 475.585938 C 473.988281 475.957031 474.332031 476.332031 474.679688 476.699219 C 476.023438 478.113281 477.382812 479.507812 478.75 480.878906 C 479.015625 481.140625 479.285156 481.398438 479.550781 481.660156 C 480.65625 482.757812 481.769531 483.84375 482.890625 484.914062 C 483.355469 485.355469 483.824219 485.792969 484.292969 486.230469 C 485.230469 487.109375 486.167969 487.980469 487.109375 488.832031 C 487.621094 489.296875 488.132812 489.753906 488.640625 490.210938 C 489.574219 491.042969 490.507812 491.863281 491.445312 492.675781 C 491.941406 493.105469 492.433594 493.535156 492.933594 493.960938 C 493.96875 494.84375 495.007812 495.707031 496.046875 496.566406 C 496.441406 496.886719 496.828125 497.214844 497.21875 497.535156 C 498.667969 498.714844 500.125 499.878906 501.585938 501.015625 C 550.878906 533.570312 660.484375 516.703125 707.46875 507.414062 C 722.429688 504.457031 737.902344 505.707031 752.214844 510.96875 C 800.09375 528.570312 859.109375 548.097656 900.390625 515.941406 C 916.710938 503.234375 954.59375 450.578125 929.242188 432.832031 Z M 929.242188 432.832031"/></svg>