<?xml version="1.0" encoding="iso-8859-1"?>
<!-- Generator: Adobe Illustrator 23.0.4, SVG Export Plug-In . SVG Version: 6.00 Build 0)  -->
<svg version="1.1" xmlns="http://www.w3.org/2000/svg" xmlns:xlink="http://www.w3.org/1999/xlink" x="0px" y="0px"
	 viewBox="0 0 480 480" style="enable-background:new 0 0 480 480;" xml:space="preserve">
<g id="Layer_5_copy" style="display:none;">
	
		<polyline style="display:inline;stroke:#000000;stroke-width:20;stroke-linecap:round;stroke-linejoin:round;stroke-miterlimit:10;" points="
		437.002,69.999 200.944,407.126 40,347.126 49.743,307.126 214.933,387.126 	"/>
	<path style="display:inline;" d="M395,419.999h-40c-8.284,0-15-6.716-15-15v0c0-8.284,6.716-15,15-15h40c8.284,0,15,6.716,15,15v0
		C410,413.284,403.285,419.999,395,419.999z"/>
</g>
<g id="Layer_5_copy_2">
	<path d="M444.831,61.809c-4.521-3.167-10.759-2.068-13.927,2.456l-206.9,295.147c-2.253,3.217-6.507,4.322-10.04,2.611
		L62.559,288.7c-2.719-1.318-5.888-1.333-8.622-0.046c-2.732,1.288-4.737,3.743-5.452,6.68l-18.201,52.25
		c-1.199,4.924,1.474,9.966,6.223,11.736l160.944,60c1.143,0.426,2.323,0.631,3.49,0.631c3.192,0,6.281-1.533,8.194-4.266
		l238.151-339.95C450.455,71.212,449.355,64.977,444.831,61.809z M405,390h-49.999c-8.284,0-15,6.716-15,15s6.716,15,15,15H405
		c8.285,0,15-6.716,15-15S413.285,390,405,390z"/>
</g>
<g id="Guide">
	<g id="Layer_3">
	</g>
</g>
</svg>
