<svg xmlns="http://www.w3.org/2000/svg" width="1000pt" height="1000pt" viewBox="0 0 1000 1000"><path d="M 678.21875 795.605469 C 671.230469 793.386719 666.414062 787.007812 666.414062 779.675781 L 666.414062 719.664062 C 666.414062 680.457031 633.023438 653.257812 597.953125 643.875 C 552.617188 631.746094 512.140625 623.351562 467.683594 608.066406 C 423.535156 592.882812 379.082031 572.082031 357.484375 528.300781 C 340.230469 493.332031 330.414062 391.472656 327.238281 342.980469 L 327.203125 342.582031 C 328.074219 336.027344 325.816406 329.429688 319.582031 327.226562 C 294.570312 318.394531 270.960938 337.011719 270.960938 360.871094 L 270.960938 364.460938 C 270.960938 372.386719 264.535156 378.8125 256.609375 378.8125 L 154.757812 378.808594 C 117.929688 378.808594 87.078125 406.691406 83.363281 443.335938 L 83.183594 715 C 83.007812 755.542969 110.320312 773.480469 141.886719 773.480469 L 151.472656 773.851562 C 99.507812 777.859375 75.503906 815.457031 63.519531 843.179688 C 59.429688 852.640625 66.421875 863.183594 76.726562 863.183594 L 83.230469 863.183594 C 83.214844 863.824219 83.183594 864.460938 83.183594 865.105469 C 83.183594 905.3125 115.894531 938.023438 156.101562 938.023438 C 196.304688 938.023438 229.015625 905.3125 229.015625 865.105469 C 229.015625 864.460938 228.984375 863.824219 228.96875 863.183594 L 249.898438 863.183594 C 249.882812 863.824219 249.851562 864.460938 249.851562 865.105469 C 249.851562 905.3125 282.5625 938.023438 322.769531 938.023438 C 362.976562 938.023438 395.683594 905.3125 395.683594 865.105469 C 395.683594 864.460938 395.652344 863.824219 395.636719 863.183594 L 416.570312 863.183594 C 416.550781 863.824219 416.519531 864.460938 416.519531 865.105469 C 416.519531 905.3125 449.230469 938.023438 489.4375 938.023438 C 529.644531 938.023438 562.355469 905.3125 562.355469 865.105469 C 562.355469 864.460938 562.320312 863.824219 562.304688 863.183594 L 564.679688 863.183594 L 583.328125 863.148438 C 583.3125 863.800781 583.28125 864.449219 583.28125 865.105469 C 583.28125 907.066406 618.914062 940.863281 661.507812 937.832031 C 697.445312 935.269531 726.480469 906.144531 728.941406 870.199219 C 731.308594 835.484375 709.21875 805.449219 678.21875 795.605469 Z M 156.101562 896.355469 C 138.867188 896.355469 124.851562 882.335938 124.851562 865.105469 C 124.851562 864.453125 124.910156 863.820312 124.949219 863.179688 L 187.253906 863.179688 C 187.292969 863.820312 187.351562 864.453125 187.351562 865.105469 C 187.351562 882.335938 173.332031 896.355469 156.101562 896.355469 Z M 322.765625 896.355469 C 305.535156 896.355469 291.515625 882.335938 291.515625 865.105469 C 291.515625 864.453125 291.574219 863.820312 291.613281 863.179688 L 353.917969 863.179688 C 353.957031 863.820312 354.015625 864.453125 354.015625 865.105469 C 354.015625 882.335938 340 896.355469 322.765625 896.355469 Z M 489.433594 896.355469 C 472.203125 896.355469 458.183594 882.335938 458.183594 865.105469 C 458.183594 864.453125 458.242188 863.820312 458.28125 863.179688 L 520.585938 863.179688 C 520.625 863.820312 520.683594 864.453125 520.683594 865.105469 C 520.683594 882.335938 506.667969 896.355469 489.433594 896.355469 Z M 604.015625 775.519531 C 604.015625 784.726562 596.554688 792.1875 587.351562 792.1875 L 224.851562 792.1875 C 215.644531 792.1875 208.183594 784.726562 208.183594 775.519531 L 208.183594 767.1875 C 208.183594 757.980469 215.644531 750.519531 224.851562 750.519531 L 587.351562 750.519531 C 596.554688 750.519531 604.015625 757.980469 604.015625 767.1875 Z M 656.191406 896.355469 C 638.960938 896.355469 624.941406 882.335938 624.941406 865.105469 C 624.941406 864.417969 625 863.75 625.042969 863.074219 L 687.332031 862.957031 C 687.378906 863.671875 687.441406 864.378906 687.441406 865.101562 C 687.441406 882.335938 673.425781 896.355469 656.191406 896.355469 Z M 934.910156 479.289062 L 919.535156 416.167969 C 918.042969 410.046875 913.867188 404.933594 908.175781 402.25 C 902.480469 399.5625 895.878906 399.601562 890.210938 402.347656 L 645.359375 520.925781 L 329.390625 71.863281 C 322.769531 62.457031 309.773438 60.195312 300.359375 66.816406 C 290.949219 73.4375 288.691406 86.429688 295.308594 95.84375 L 643.640625 590.894531 C 647.632812 596.5625 654.050781 599.738281 660.6875 599.738281 C 663.117188 599.738281 665.578125 599.3125 667.957031 598.425781 L 921.945312 503.738281 C 931.835938 500.050781 937.410156 489.546875 934.910156 479.289062 Z M 934.910156 479.289062"/></svg>