<?xml version="1.0" encoding="iso-8859-1"?>
<!-- Generator: Adobe Illustrator 23.0.4, SVG Export Plug-In . SVG Version: 6.00 Build 0)  -->
<svg version="1.1" xmlns="http://www.w3.org/2000/svg" xmlns:xlink="http://www.w3.org/1999/xlink" x="0px" y="0px"
	 viewBox="0 0 480 480" style="enable-background:new 0 0 480 480;" xml:space="preserve">
<g id="Layer_5">
	<path d="M325.545,381.89c-3.354-1.064-5.667-4.127-5.667-7.646v-28.805c0-18.819-16.026-31.875-32.861-36.379
		c-21.76-5.822-41.19-9.852-62.529-17.189c-21.192-7.287-42.528-17.272-52.896-38.287c-8.281-16.785-12.993-65.678-14.518-88.953
		l-0.016-0.192c0.417-3.146-0.667-6.313-3.659-7.37c-12.006-4.239-23.337,4.696-23.337,16.149v1.723c0,3.805-3.085,6.889-6.89,6.889
		l-48.888-0.001c-17.678,0-32.486,13.383-34.269,30.972l-0.087,130.399c-0.084,19.461,13.026,28.071,28.177,28.071l4.601,0.178
		c-24.942,1.923-36.464,19.97-42.217,33.277c-1.963,4.541,1.393,9.602,6.34,9.602h3.122c-0.008,0.308-0.023,0.613-0.023,0.923
		c0,19.299,15.701,35,35,35s35-15.701,35-35c0-0.31-0.016-0.615-0.023-0.923h10.047c-0.008,0.308-0.023,0.613-0.023,0.923
		c0,19.299,15.701,35,35,35s35-15.701,35-35c0-0.31-0.016-0.615-0.023-0.923h10.047c-0.008,0.308-0.023,0.613-0.023,0.923
		c0,19.299,15.701,35,35,35s35-15.701,35-35c0-0.31-0.016-0.615-0.023-0.923h1.139l8.952-0.016
		c-0.008,0.312-0.023,0.624-0.023,0.938c0,20.142,17.103,36.364,37.548,34.909c17.25-1.229,31.188-15.21,32.368-32.463
		C351.028,401.033,340.425,386.615,325.545,381.89z M74.928,430.25c-8.271,0-15-6.729-15-15c0-0.312,0.028-0.616,0.047-0.923h29.906
		c0.019,0.307,0.047,0.611,0.047,0.923C89.928,423.521,83.2,430.25,74.928,430.25z M154.928,430.25c-8.271,0-15-6.729-15-15
		c0-0.312,0.028-0.616,0.047-0.923h29.906c0.019,0.307,0.047,0.611,0.047,0.923C169.928,423.521,163.2,430.25,154.928,430.25z
		 M234.928,430.25c-8.271,0-15-6.729-15-15c0-0.312,0.028-0.616,0.047-0.923h29.906c0.019,0.307,0.047,0.611,0.047,0.923
		C249.928,423.521,243.2,430.25,234.928,430.25z M289.928,372.25c0,4.418-3.581,8-8,8h-174c-4.418,0-8-3.582-8-8v-4
		c0-4.419,3.582-8,8-8h174c4.419,0,8,3.581,8,8V372.25z M314.972,430.25c-8.271,0-15-6.729-15-15c0-0.329,0.028-0.65,0.049-0.975
		l29.899-0.055c0.022,0.342,0.052,0.682,0.052,1.029C329.972,423.521,323.244,430.25,314.972,430.25z M448.756,230.059l-7.38-30.299
		c-0.715-2.937-2.719-5.392-5.452-6.68c-2.734-1.29-5.903-1.271-8.622,0.046l-117.529,56.918L158.107,34.495
		c-3.178-4.516-9.415-5.601-13.934-2.424c-4.517,3.179-5.602,9.416-2.424,13.934l167.199,237.624
		c1.915,2.721,4.996,4.246,8.182,4.246c1.167,0,2.348-0.205,3.49-0.631l121.913-45.449
		C447.282,240.024,449.956,234.982,448.756,230.059z"/>
</g>
<g id="Guide_1_">
</g>
</svg>
