<?xml version="1.0" encoding="iso-8859-1"?>
<!-- Generator: Adobe Illustrator 23.0.4, SVG Export Plug-In . SVG Version: 6.00 Build 0)  -->
<svg version="1.1" xmlns="http://www.w3.org/2000/svg" xmlns:xlink="http://www.w3.org/1999/xlink" x="0px" y="0px"
	 viewBox="0 0 480 480" style="enable-background:new 0 0 480 480;" xml:space="preserve">
<g id="Layer_4">
	<path d="M401.397,96.659c-9.05-6.336-21.52-4.136-27.854,4.911l-34.414,49.149l-65.594-45.929l-0.005-0.003l-16.317-11.426
		c-9.045-6.334-21.513-4.139-27.85,4.904l-68.86,98.256c-3.045,4.345-4.239,9.721-3.319,14.945s3.878,9.87,8.223,12.914
		l49.181,34.45c3.386,2.371,7.396,3.619,11.475,3.619c1.156,0,2.317-0.101,3.471-0.304c5.225-0.92,9.869-3.879,12.912-8.225
		l57.357-81.909l32.767,22.943c3.385,2.37,7.395,3.617,11.472,3.617c1.156,0,2.319-0.101,3.473-0.304
		c5.224-0.921,9.868-3.88,12.91-8.225l45.886-65.532C412.644,115.465,410.445,102.994,401.397,96.659z M263.889,320.159
		c-1.468-2.596-3.497-4.831-5.94-6.542L153.97,240.81c-9.049-6.337-21.52-4.136-27.854,4.911c-6.336,9.048-4.137,21.52,4.911,27.854
		l100.269,70.209l59.424,105.143c3.678,6.507,10.453,10.163,17.43,10.163c3.333-0.001,6.713-0.835,9.822-2.593
		c9.616-5.435,13.006-17.636,7.57-27.252L263.889,320.159z M152.319,312.901c-9.048-6.334-21.52-4.135-27.854,4.913L47.548,427.677
		c-6.335,9.049-4.136,21.52,4.913,27.854c3.491,2.444,7.492,3.618,11.453,3.618c6.305,0,12.511-2.975,16.401-8.531l76.917-109.862
		C163.567,331.707,161.368,319.236,152.319,312.901z M285.264,88.547c18.902,13.235,42.276,8.983,55.512-9.919
		s9.081-42.471-9.821-55.706c-18.902-13.236-42.475-9.083-55.711,9.819C262.009,51.644,266.362,75.311,285.264,88.547z"/>
</g>
<g id="Layer_3">
</g>
</svg>
