<svg xmlns="http://www.w3.org/2000/svg" viewBox="0 0 480 480"><path d="M429.493,331.726c-20.532,0.204-54.831-4.74-86.312-33.947c-3.222-2.988-8.218-2.865-11.263,0.303 c-12.616,13.127-27.619,23.584-44.267,30.52c-5.285,2.201-6.679,9.021-2.627,13.063c5.658,5.646,13.763,12.788,24.58,20.164 c-20.479,11.454-44.2,18.122-69.603,18.122c-25.403,0-49.125-6.669-69.605-18.124c10.817-7.377,18.922-14.521,24.581-20.166 c4.052-4.041,2.657-10.858-2.625-13.058c-16.655-6.934-31.657-17.389-44.264-30.515c-3.046-3.171-8.046-3.296-11.27-0.305 c-31.479,29.203-65.775,34.146-86.307,33.942c-7.13-0.066-11.119,7.858-6.852,13.33l36.842,47.247 c2.064,2.636,5.638,3.904,8.985,3.187c16.552-3.543,31.116-8.295,43.826-13.63C158.779,411.26,197.107,430,240.003,430 c42.898,0,81.229-18.742,106.675-48.146c12.714,5.338,27.283,10.092,43.84,13.636c3.348,0.718,6.921-0.551,8.968-3.187 l36.843-47.247C440.612,339.584,436.623,331.659,429.493,331.726z M120.359,190c0.484,6.828,1.46,13.508,2.879,20 c1.507,6.895,3.519,13.578,5.993,20c2.695,6.996,5.934,13.686,9.666,20c4.244,7.181,9.124,13.876,14.549,20 c21.837,24.652,52.541,40,86.554,40c25.568,0,49.265-8.677,68.732-23.455c6.473-4.875,12.482-10.42,17.94-16.545 c5.455-6.121,10.362-12.816,14.631-20c3.752-6.313,7.012-13.002,9.723-20c2.488-6.421,4.51-13.104,6.027-20 c1.428-6.492,2.412-13.171,2.902-20H360v-0.658c0.212-3.159,0.325-6.349,0.325-9.566s-0.113-6.407-0.325-9.566V170h-0.013 c-0.469-6.827-1.427-13.507-2.833-20c-1.493-6.895-3.495-13.576-5.958-20c-2.682-6.995-5.908-13.684-9.629-20 c-4.226-7.176-9.083-13.874-14.489-20c-21.881-24.793-52.731-40.238-86.915-40.238l-0.082,0.001L240,49.762 c-34.123,0-64.919,15.445-86.769,40.238c-4.302,4.881-8.25,10.129-11.815,15.688c-0.911,1.418-1.8,2.854-2.659,4.312 c-3.72,6.316-6.946,13.005-9.628,20c-2.462,6.424-4.466,13.105-5.958,20c-1.406,6.493-2.364,13.173-2.834,20 c-0.222,3.228-0.337,6.486-0.337,9.775l0.001,0.053L120,179.881C120,183.286,120.122,186.66,120.359,190z M250,70.31 c17.755,1.911,34.17,8.915,47.994,19.69H250V70.31z M250,110h67.544c4.603,6.146,8.61,12.849,11.928,20H250V110z M250,150h86.595 c1.652,6.447,2.777,13.135,3.33,20H250V150z M250,190h89.889c-0.579,6.867-1.729,13.555-3.408,20H250V190z M250,230h79.263 c-3.358,7.157-7.411,13.859-12.059,20H250V230z M250,270h47.405c-13.701,10.519-29.901,17.356-47.405,19.242V270z M230,289.207 c-17.379-1.936-33.464-8.754-47.08-19.207H230V289.207z M230,250h-66.879c-4.647-6.141-8.7-12.843-12.059-20H230V250z M230,210 h-86.155c-1.679-6.445-2.829-13.133-3.408-20H230V210z M230,70.345V90h-47.669C196.071,79.291,212.37,72.307,230,70.345z M162.781,110H230v20h-79.146C154.171,122.849,158.178,116.146,162.781,110z M143.73,150H230v20h-89.6 C140.953,163.135,142.078,156.447,143.73,150z"/></svg>