<svg xmlns="http://www.w3.org/2000/svg" width="1000pt" height="1000pt" viewBox="0 0 1000 1000"><path d="M 194.421875 463.984375 C 155.042969 436.410156 105.929688 445.0625 78.355469 484.441406 C 50.785156 523.820312 59.851562 573.128906 99.234375 600.703125 C 138.613281 628.277344 187.308594 619.417969 214.882812 580.039062 C 242.457031 540.660156 233.800781 491.558594 194.421875 463.984375 Z M 889.542969 688.132812 L 630.964844 733.699219 C 620.078125 735.613281 610.402344 741.777344 604.066406 750.832031 L 532.367188 853.226562 C 519.167969 872.078125 523.746094 898.058594 542.597656 911.257812 C 549.871094 916.351562 558.207031 918.796875 566.460938 918.796875 C 579.597656 918.796875 592.523438 912.597656 600.628906 901.023438 L 662.425781 812.769531 L 904.003906 770.199219 C 926.664062 766.207031 941.800781 744.597656 937.804688 721.933594 C 933.8125 699.273438 912.195312 684.140625 889.542969 688.132812 Z M 801.714844 853.175781 L 683.972656 873.640625 C 661.300781 877.582031 646.117188 899.152344 650.058594 921.828125 C 653.578125 942.085938 671.175781 956.363281 691.058594 956.363281 C 693.429688 956.363281 695.832031 956.164062 698.242188 955.742188 L 815.988281 935.277344 C 838.660156 931.335938 853.84375 909.765625 849.902344 887.089844 C 845.960938 864.421875 824.390625 849.226562 801.714844 853.175781 Z M 446.148438 467.941406 C 448.523438 471.449219 450.976562 474.894531 453.5 478.289062 L 546.566406 439.929688 C 556.703125 435.746094 567.386719 433.628906 578.308594 433.628906 C 612.207031 433.628906 642.457031 453.878906 655.371094 485.21875 C 663.851562 505.796875 663.816406 528.449219 655.257812 548.996094 C 648.808594 564.492188 638.09375 577.394531 624.390625 586.441406 C 642.140625 589.953125 660.488281 591.808594 679.273438 591.808594 C 834.605469 591.808594 960.523438 465.890625 960.523438 310.558594 C 960.523438 155.226562 834.605469 29.308594 679.273438 29.308594 C 523.941406 29.308594 398.023438 155.226562 398.023438 310.558594 C 398.023438 334.269531 400.972656 357.289062 406.496094 379.285156 C 414.558594 411.378906 428.121094 441.289062 446.148438 467.941406 Z M 576.847656 695.871094 C 574.929688 684.988281 568.765625 675.316406 559.710938 668.976562 L 470.476562 606.492188 L 514.433594 588.371094 L 517.464844 587.121094 L 564.910156 567.566406 L 594.207031 555.492188 C 615.484375 546.726562 625.617188 522.371094 616.851562 501.097656 C 608.082031 479.824219 583.726562 469.675781 562.453125 478.449219 L 482.445312 511.425781 L 464.839844 518.679688 L 441.011719 528.503906 L 389.449219 549.757812 L 389.054688 549.480469 L 420.785156 504.167969 C 401.914062 479.085938 386.960938 451.613281 376.230469 422.511719 L 296.898438 535.808594 L 296.894531 535.816406 L 225.199219 638.207031 C 218.859375 647.257812 216.378906 658.457031 218.296875 669.339844 C 220.214844 680.222656 226.378906 689.898438 235.429688 696.234375 L 440.21875 839.632812 C 447.269531 844.570312 455.625 847.167969 464.117188 847.167969 C 466.527344 847.167969 468.949219 846.957031 471.355469 846.535156 C 482.238281 844.613281 491.914062 838.449219 498.25 829.398438 L 569.949219 727.003906 C 576.285156 717.953125 578.765625 706.753906 576.847656 695.871094 Z M 576.847656 695.871094"/></svg>