<?xml version="1.0" encoding="iso-8859-1"?>
<!-- Generator: Adobe Illustrator 23.0.4, SVG Export Plug-In . SVG Version: 6.00 Build 0)  -->
<svg version="1.1" xmlns="http://www.w3.org/2000/svg" xmlns:xlink="http://www.w3.org/1999/xlink" x="0px" y="0px"
	 viewBox="0 0 480 480" style="enable-background:new 0 0 480 480;" xml:space="preserve">
<g id="old" style="display:none;">
	<path style="display:inline;fill-rule:evenodd;clip-rule:evenodd;" d="M103.144,278.418c-13.236,18.902-36.61,23.154-55.512,9.919
		s-23.256-36.903-10.02-55.805s36.808-23.055,55.71-9.82S116.379,259.516,103.144,278.418z"/>
	
		<polyline style="display:inline;fill-rule:evenodd;clip-rule:evenodd;fill:none;stroke:#000000;stroke-width:40;stroke-linecap:round;stroke-linejoin:round;stroke-miterlimit:10;" points="
		271.919,421.021 306.334,371.872 430.451,350 	"/>
	
		<line style="display:inline;fill-rule:evenodd;clip-rule:evenodd;fill:none;stroke:#000000;stroke-width:40;stroke-linecap:round;stroke-linejoin:round;stroke-miterlimit:10;" x1="331.733" y1="439.052" x2="388.249" y2="429.229"/>
	<g style="display:inline;">
		<path d="M326.139,13.583c-74.739,0-135.327,60.588-135.327,135.327c0,15.638,2.661,30.652,7.541,44.626l0.844,2.276
			c4.459,12.023,10.612,23.351,18.293,33.677l36.141-16.995c5.373-2.526,11.095-3.807,17.007-3.807
			c15.433,0,29.646,9.021,36.212,22.982c4.547,9.668,5.056,20.528,1.435,30.58c-2.667,7.401-7.343,13.706-13.481,18.333
			c10.058,2.385,20.548,3.654,31.336,3.654c74.739,0,135.327-60.588,135.327-135.327C461.466,74.171,400.878,13.583,326.139,13.583z
			"/>
	</g>
	<path style="display:inline;" d="M288.75,240.181c-4.7-9.995-16.615-14.286-26.609-9.588l-50.122,23.569l-28.507,13.405
		l18.247-25.717c-8.869-11.839-16.086-24.983-21.315-39.084l-38.304,53.985c-0.919,1.296-1.642,2.668-2.214,4.08
		c-0.697,0.736-1.357,1.511-1.94,2.355l-27.209,39.356c-2.767,2.333-4.811,5.328-5.976,8.644l-0.908,1.313
		c-6.279,9.083-4.01,21.537,5.07,27.82l98.665,68.273c3.367,2.33,7.343,3.554,11.381,3.554c1.193,0,2.394-0.106,3.584-0.324
		c5.22-0.95,9.848-3.936,12.865-8.299l34.128-49.344c3.018-4.363,4.178-9.746,3.227-14.965c-0.952-5.219-3.938-9.846-8.302-12.863
		l-45.342-31.35l27.266-12.822l32.726-15.389C289.158,262.09,293.45,250.176,288.75,240.181z"/>
</g>
<g id="Layer_3">
	<path d="M93.322,222.712c-18.902-13.235-42.475-9.082-55.711,9.82c-13.235,18.902-8.882,42.569,10.021,55.805
		s42.276,8.983,55.512-9.919S112.225,235.948,93.322,222.712z M426.98,330.304l-124.117,21.871
		c-5.225,0.92-9.869,3.879-12.912,8.225l-34.415,49.149c-6.336,9.048-4.137,21.52,4.911,27.854
		c3.492,2.445,7.492,3.619,11.454,3.619c6.305,0,12.51-2.975,16.4-8.53l29.663-42.362l115.957-20.434
		c10.878-1.917,18.143-12.289,16.226-23.167S437.854,328.388,426.98,330.304z M384.824,409.525l-56.517,9.823
		c-10.883,1.891-18.171,12.246-16.279,23.129c1.689,9.725,10.137,16.578,19.681,16.578c1.137,0,2.29-0.097,3.448-0.299l56.517-9.823
		c10.883-1.891,18.171-12.246,16.28-23.129C406.062,414.922,395.707,407.629,384.824,409.525z M214.152,224.611
		c1.139,1.684,2.316,3.339,3.528,4.967l44.671-18.412c4.867-2.007,9.994-3.025,15.237-3.025h0.001
		c16.271,0,30.79,9.721,36.989,24.764c4.071,9.878,4.053,20.75-0.054,30.613c-3.096,7.439-8.239,13.631-14.817,17.973
		c8.521,1.686,17.328,2.577,26.344,2.577c74.559,0,135-60.441,135-135s-60.441-135-135-135s-135,60.441-135,135
		c0,11.381,1.415,22.43,4.067,32.988C198.988,197.462,205.499,211.818,214.152,224.611z M276.887,334.019
		c-0.921-5.224-3.88-9.868-8.225-12.91l-42.834-29.993l21.101-8.697l1.455-0.6l22.773-9.387l14.062-5.795
		c10.213-4.209,15.078-15.899,10.869-26.111c-4.208-10.211-15.9-15.081-26.111-10.87l-38.404,15.829l-8.449,3.482l-11.438,4.715
		l-24.751,10.201l-0.188-0.133L201.976,242c-9.057-12.039-16.234-25.226-21.386-39.194l-38.079,54.383l-0.002,0.002l-34.414,49.148
		c-3.043,4.345-4.234,9.721-3.313,14.944s3.88,9.868,8.225,12.91l98.298,68.83c3.385,2.37,7.395,3.617,11.472,3.617
		c1.156,0,2.318-0.101,3.473-0.304c5.224-0.921,9.868-3.88,12.91-8.225l34.415-49.149
		C276.616,344.618,277.808,339.242,276.887,334.019z"/>
	
		<line style="display:none;fill:none;stroke:#000000;stroke-width:40;stroke-linecap:round;stroke-linejoin:round;stroke-miterlimit:10;" x1="163.804" y1="296.516" x2="290" y2="238.352"/>
</g>
<g id="Guide">
</g>
</svg>
