<?xml version="1.0" encoding="iso-8859-1"?>
<!-- Generator: Adobe Illustrator 23.0.4, SVG Export Plug-In . SVG Version: 6.00 Build 0)  -->
<svg version="1.1" xmlns="http://www.w3.org/2000/svg" xmlns:xlink="http://www.w3.org/1999/xlink" x="0px" y="0px"
	 viewBox="0 0 480 479.999" style="enable-background:new 0 0 480 479.999;" xml:space="preserve">
<g id="Layer_4">
	<path d="M235.972,131.87h-51.927c-3.605,0-6.796,2.31-7.909,5.732l-16.035,49.385c-1.113,3.423,0.1,7.161,3.008,9.288
		l42.006,30.508c2.908,2.127,6.863,2.127,9.771,0l41.99-30.508c2.925-2.127,4.138-5.865,3.024-9.288l-16.035-49.385
		C242.751,134.18,239.561,131.87,235.972,131.87z M117.618,230l8.83-22.457c1.186-3.03,0.285-6.48-2.234-8.55l-40.882-33.481
		c2.646-23.081,11.479-44.309,24.794-61.976l35.048-0.273c2.819-0.015,5.399-1.635,6.66-4.185l19.668-39.862
		c12.729-4.274,26.348-6.592,40.498-6.592s27.769,2.317,40.497,6.592l19.682,39.862c1.245,2.55,3.824,4.17,6.659,4.185l35.036,0.273
		c13.314,17.667,22.147,38.893,24.794,61.974l-40.885,33.483c-2.52,2.069-3.42,5.52-2.234,8.55l8.83,22.457h49.114
		c5.503-15.605,8.507-32.39,8.507-49.876c0-82.845-67.17-150-150-150c-82.845,0-150,67.155-150,150
		c0,17.486,3.003,34.271,8.505,49.876H117.618z M437.051,288.347l-44.897-36.551c-1.427-1.162-3.211-1.796-5.051-1.796H48
		c-4.142,0-7.549,3.147-7.959,7.182C40.014,257.451,40,257.724,40,258v113.634c0,0.276,0.014,0.549,0.041,0.818
		c0.41,4.033,3.817,7.182,7.959,7.182l279.054,0.357c10.962,0.014,21.522,4.828,28.211,13.514c2.357,3.061,4.224,6.502,5.451,10.167
		c1.28,3.818,4.496,6.312,8.618,6.312h10.646V452c0,4.418,3.581,8,8,8h24c4.418,0,8-3.582,8-8v-42.017H432c4.418,0,8-3.581,8-8
		V294.551C440,292.144,438.917,289.865,437.051,288.347z"/>
</g>
<g id="Layer_5">
</g>
</svg>
