<svg xmlns="http://www.w3.org/2000/svg" width="1000pt" height="1000pt" viewBox="0 0 1000 1000"><path d="M 491.609375 274.730469 L 383.425781 274.730469 C 375.917969 274.730469 369.269531 279.542969 366.949219 286.671875 L 333.542969 389.558594 C 331.226562 396.6875 333.753906 404.476562 339.808594 408.90625 L 427.324219 472.464844 C 433.382812 476.898438 441.621094 476.898438 447.679688 472.464844 L 535.160156 408.90625 C 541.253906 404.476562 543.777344 396.6875 541.457031 389.558594 L 508.050781 286.671875 C 505.730469 279.542969 499.085938 274.730469 491.609375 274.730469 Z M 245.039062 479.167969 L 263.433594 432.382812 C 265.902344 426.070312 264.027344 418.882812 258.777344 414.570312 L 173.609375 344.816406 C 179.121094 296.730469 197.523438 252.507812 225.261719 215.699219 L 298.277344 215.132812 C 304.152344 215.101562 309.527344 211.726562 312.152344 206.414062 L 353.128906 123.367188 C 379.648438 114.464844 408.019531 109.632812 437.5 109.632812 C 466.980469 109.632812 495.351562 114.460938 521.867188 123.367188 L 562.871094 206.414062 C 565.464844 211.726562 570.839844 215.101562 576.746094 215.132812 L 649.738281 215.699219 C 677.476562 252.507812 695.878906 296.726562 701.390625 344.8125 L 616.214844 414.570312 C 610.964844 418.878906 609.089844 426.070312 611.558594 432.382812 L 629.957031 479.167969 L 732.277344 479.167969 C 743.742188 446.65625 750 411.6875 750 375.257812 C 750 202.664062 610.0625 62.757812 437.5 62.757812 C 264.90625 62.757812 125 202.664062 125 375.257812 C 125 411.6875 131.257812 446.65625 142.71875 479.167969 Z M 910.523438 600.722656 L 816.988281 524.574219 C 814.015625 522.15625 810.296875 520.835938 806.464844 520.835938 L 100 520.835938 C 91.371094 520.835938 84.273438 527.390625 83.417969 535.796875 C 83.363281 536.355469 83.332031 536.925781 83.332031 537.5 L 83.332031 774.238281 C 83.332031 774.8125 83.363281 775.382812 83.417969 775.941406 C 84.273438 784.34375 91.371094 790.90625 100 790.90625 L 681.363281 791.648438 C 704.199219 791.679688 726.199219 801.707031 740.136719 819.804688 C 745.046875 826.179688 748.933594 833.347656 751.492188 840.984375 C 754.160156 848.9375 760.859375 854.132812 769.445312 854.132812 L 791.625 854.132812 L 791.625 941.667969 C 791.625 950.871094 799.085938 958.335938 808.292969 958.335938 L 858.292969 958.335938 C 867.496094 958.335938 874.957031 950.871094 874.957031 941.667969 L 874.957031 854.132812 L 900 854.132812 C 909.203125 854.132812 916.667969 846.671875 916.667969 837.464844 L 916.667969 613.648438 C 916.667969 608.632812 914.410156 603.886719 910.523438 600.722656 Z M 910.523438 600.722656"/></svg>