<?xml version="1.0" encoding="iso-8859-1"?>
<!-- Generator: Adobe Illustrator 23.0.4, SVG Export Plug-In . SVG Version: 6.00 Build 0)  -->
<svg version="1.1" xmlns="http://www.w3.org/2000/svg" xmlns:xlink="http://www.w3.org/1999/xlink" x="0px" y="0px"
	 viewBox="0 0 480 480" style="enable-background:new 0 0 480 480;" xml:space="preserve">
<g id="Layer_3">
	<path d="M140.003,240c0-22.091-17.909-40-40-40c-22.092,0-40,17.909-40,40c0,22.092,17.908,40,40,40
		C122.094,280,140.003,262.092,140.003,240z M428.751,100.93c-3.818-21.653-15.878-41.854-35.27-55.432
		c-8.24-5.77-17.155-9.87-26.342-12.404c-1.063-0.293-2.131-0.565-3.202-0.816c-33.189-7.785-69.322,4.72-90.038,34.308
		c-8.032,11.471-12.381,23.396-13.197,36.544c-0.117,1.878-0.161,3.781-0.135,5.711c0.072,5.148,0.653,10.49,1.735,16.067
		c0.042,0.215,0.068,0.43,0.081,0.646c0.088,1.507-0.526,3.006-1.711,4.11c-5.616,5.238-11.745,12.263-15.994,18.331
		c-9.75,13.924-10.677,30.981-8.788,45.445c0.522,4.007,1.261,7.815,2.089,11.303c2.339,9.85,6.569,21.437,11.252,29.334
		L109.057,434.264c-3.168,4.523-2.068,10.759,2.456,13.927c1.745,1.223,3.746,1.81,5.727,1.81c3.152,0,6.255-1.487,8.2-4.266
		l140.116-200.105c0.191,0.038,0.389,0.072,0.583,0.108c0.178,0.033,0.353,0.067,0.533,0.099c0.517,0.09,1.041,0.176,1.576,0.256
		c0.13,0.019,0.265,0.035,0.396,0.055c0.424,0.061,0.852,0.118,1.286,0.172c0.212,0.026,0.426,0.051,0.64,0.076
		c0.371,0.042,0.744,0.083,1.121,0.122c0.221,0.022,0.441,0.044,0.664,0.065c0.412,0.038,0.829,0.073,1.249,0.107
		c0.182,0.014,0.361,0.03,0.544,0.044c0.595,0.044,1.195,0.083,1.802,0.116c0.142,0.008,0.285,0.014,0.428,0.021
		c0.479,0.024,0.961,0.046,1.445,0.064c0.216,0.008,0.432,0.015,0.647,0.021c0.432,0.014,0.863,0.025,1.298,0.034
		c0.215,0.005,0.43,0.009,0.645,0.013c0.491,0.007,0.983,0.011,1.478,0.013c0.117,0,0.233,0.003,0.351,0.003l0.084-0.001
		c0.751,0,1.505-0.009,2.261-0.022l0.498-0.012c0.704-0.016,1.409-0.036,2.114-0.063l0.212-0.007
		c0.769-0.031,1.535-0.07,2.302-0.115c0.156-0.009,0.312-0.019,0.469-0.028c0.751-0.046,1.501-0.097,2.246-0.155l0.054-0.004
		c0.774-0.062,1.543-0.132,2.308-0.206c0.141-0.014,0.281-0.028,0.422-0.042c1.523-0.154,3.023-0.334,4.485-0.539
		c0.128-0.018,0.256-0.036,0.383-0.055c0.729-0.104,1.451-0.213,2.158-0.33c5.232-0.865,10.148-2.057,14.719-3.559
		c0.141-0.046,0.273-0.099,0.413-0.146c0.997-0.333,1.983-0.675,2.946-1.037c11.239-4.232,20.18-10.474,26.384-18.475
		c0.468-0.604,0.925-1.216,1.362-1.84c2.763-3.945,5.625-8.773,8.12-13.612c1.343-2.604,2.585-5.213,3.636-7.688
		c0.271-0.639,0.646-1.204,1.1-1.676c0.757-0.786,1.732-1.312,2.812-1.482c6.312-1.002,12.111-2.518,17.481-4.538
		c6.564-2.471,12.479-5.706,17.812-9.805c5.816-4.472,10.957-9.946,15.547-16.502c10.184-14.543,15.218-31.177,15.487-47.72
		C430.144,111.848,429.705,106.343,428.751,100.93z M400.153,150.62l-0.105,0.178c-0.595,0.947-1.216,1.885-1.864,2.812
		c-6.665,9.519-14.726,15.793-25.289,19.517c-0.185,0.065-0.36,0.138-0.546,0.201c-0.165,0.057-0.338,0.104-0.503,0.158
		c-3.475,1.151-7.208,2.045-11.255,2.688c-0.768,0.122-1.52,0.29-2.264,0.479c-4.968,1.264-9.362,3.987-12.677,7.804
		c-1.731,1.994-3.17,4.283-4.243,6.812c-1.648,3.88-3.91,8.262-6.261,12.222c-1.155,1.946-2.331,3.798-3.469,5.423
		c-8.265,11.803-25.457,15.806-34.97,17.141l-0.041,0.006c-0.755,0.105-1.502,0.198-2.244,0.285
		c-0.241,0.027-0.48,0.053-0.721,0.079c-0.53,0.058-1.058,0.111-1.58,0.16c-0.247,0.022-0.493,0.046-0.738,0.067
		c-0.595,0.051-1.185,0.096-1.768,0.136c-0.138,0.009-0.277,0.021-0.414,0.029c-0.711,0.046-1.411,0.083-2.102,0.112
		c-0.203,0.01-0.401,0.016-0.603,0.022c-0.5,0.02-0.994,0.035-1.481,0.046c-0.229,0.006-0.458,0.011-0.686,0.015
		c-0.493,0.008-0.979,0.012-1.458,0.013c-0.171,0.001-0.347,0.003-0.516,0.002c-0.632-0.001-1.25-0.009-1.854-0.021
		c-0.152-0.004-0.3-0.009-0.45-0.013c-0.461-0.013-0.915-0.026-1.359-0.045c-0.197-0.008-0.394-0.017-0.588-0.026
		c-0.404-0.019-0.801-0.04-1.188-0.063c-0.17-0.01-0.343-0.02-0.51-0.03c-0.528-0.035-1.046-0.072-1.541-0.114l-0.236-0.022
		c-0.421-0.036-0.828-0.075-1.223-0.116c-0.159-0.017-0.313-0.034-0.47-0.052c-0.312-0.035-0.616-0.07-0.91-0.107
		c-0.143-0.019-0.287-0.036-0.426-0.055l-0.259-0.036c-2.487-0.357-4.667-1.856-5.859-4.066c-0.093-0.175-0.185-0.35-0.278-0.532
		c-0.084-0.162-0.166-0.321-0.251-0.489c-0.141-0.281-0.284-0.576-0.429-0.874c-0.08-0.166-0.159-0.326-0.24-0.496
		c-0.166-0.351-0.334-0.717-0.503-1.088c-0.062-0.135-0.122-0.263-0.184-0.399c-0.234-0.523-0.472-1.063-0.709-1.623l-0.008-0.02
		c-0.231-0.546-0.464-1.11-0.697-1.689c-0.07-0.176-0.141-0.359-0.211-0.537c-0.165-0.417-0.33-0.838-0.494-1.271
		c-0.086-0.227-0.172-0.461-0.258-0.692c-0.148-0.398-0.296-0.799-0.442-1.208c-0.092-0.256-0.183-0.516-0.273-0.776
		c-0.14-0.399-0.278-0.803-0.416-1.212c-0.092-0.273-0.184-0.549-0.274-0.827c-0.135-0.411-0.269-0.829-0.4-1.249
		c-0.089-0.283-0.178-0.566-0.266-0.853c-0.132-0.435-0.262-0.875-0.391-1.317c-0.082-0.279-0.164-0.557-0.244-0.839
		c-0.136-0.479-0.267-0.966-0.396-1.452c-0.068-0.255-0.139-0.507-0.205-0.764c-0.163-0.63-0.32-1.268-0.474-1.908
		c-0.028-0.118-0.059-0.233-0.087-0.351c-0.179-0.76-0.349-1.526-0.511-2.299c-0.048-0.225-0.09-0.452-0.136-0.679
		c-0.111-0.549-0.221-1.1-0.323-1.654c-0.054-0.295-0.103-0.592-0.154-0.887c-0.085-0.49-0.168-0.98-0.245-1.474
		c-0.051-0.323-0.097-0.648-0.144-0.974c-0.067-0.469-0.133-0.938-0.192-1.409c-0.042-0.337-0.082-0.675-0.12-1.013
		c-0.053-0.466-0.101-0.932-0.146-1.397c-0.032-0.338-0.062-0.675-0.09-1.013c-0.038-0.473-0.069-0.945-0.099-1.418
		c-0.02-0.33-0.041-0.66-0.057-0.989c-0.022-0.493-0.035-0.985-0.047-1.478c-0.007-0.307-0.019-0.613-0.021-0.92
		c-0.005-0.563,0.003-1.125,0.015-1.686c0.004-0.231,0.002-0.464,0.009-0.694c0.025-0.786,0.065-1.568,0.124-2.347
		c0.014-0.18,0.036-0.357,0.052-0.537c0.051-0.598,0.107-1.193,0.181-1.785c0.034-0.284,0.08-0.563,0.12-0.846
		c0.068-0.483,0.139-0.966,0.223-1.443c0.054-0.309,0.117-0.613,0.178-0.919c0.089-0.446,0.181-0.892,0.284-1.332
		c0.072-0.312,0.152-0.622,0.232-0.932c0.111-0.428,0.229-0.853,0.354-1.274c0.092-0.308,0.188-0.613,0.287-0.917
		c0.137-0.418,0.284-0.831,0.437-1.242c0.109-0.293,0.218-0.587,0.334-0.876c0.17-0.419,0.354-0.831,0.54-1.241
		c0.122-0.269,0.239-0.54,0.369-0.805c0.218-0.444,0.455-0.878,0.694-1.311c0.12-0.218,0.231-0.44,0.357-0.655
		c0.377-0.641,0.774-1.269,1.202-1.88c3.453-4.932,8.655-10.889,13.253-15.176c6.428-5.995,9.277-14.665,7.623-23.192
		c-0.299-1.538-0.54-3.041-0.74-4.522c-0.05-0.37-0.098-0.739-0.142-1.106c-1.364-11.387,0.236-21.167,5.025-30.475
		c1.202-2.336,2.595-4.643,4.201-6.938c0.647-0.925,1.314-1.827,2.001-2.708l0.198-0.244c0.632-0.804,1.274-1.594,1.937-2.36
		l0.004-0.005c20.328-23.532,54.672-29.6,81.83-14.464l0.06,0.031c0.868,0.485,1.727,1,2.58,1.528
		c0.104,0.064,0.211,0.123,0.314,0.188c0.944,0.593,1.88,1.213,2.804,1.859c0.925,0.647,1.827,1.314,2.708,2.001l0.242,0.197
		C411.281,84.768,417.86,122.196,400.153,150.62z M370.48,78.347c-20.715-14.505-49.367-9.452-63.873,11.263
		c-5.905,8.435-7.333,16.218-5.094,27.761c2.976,15.338-2.114,30.899-13.614,41.627c-3.552,3.312-7.873,8.254-10.512,12.022
		c-2.686,3.835-3.13,11.935-1.191,21.666c0.621,3.117,1.413,6.07,2.254,8.737c1.096,3.476,4.384,5.771,8.023,5.598
		c2.293-0.109,4.78-0.324,7.396-0.691c10.241-1.438,18.628-4.895,21.367-8.807c2.636-3.765,5.804-9.519,7.704-13.991
		c6.146-14.477,19.03-24.583,34.463-27.03c11.608-1.843,18.434-5.847,24.339-14.28C396.248,121.505,391.196,92.852,370.48,78.347z"
		/>
</g>
<g id="Layer_4">
</g>
</svg>
