<svg xmlns="http://www.w3.org/2000/svg" width="1000pt" height="1000pt" viewBox="0 0 1000 1000"><path d="M 291.671875 500 C 291.671875 453.976562 254.363281 416.667969 208.339844 416.667969 C 162.316406 416.667969 125.007812 453.976562 125.007812 500 C 125.007812 546.023438 162.316406 583.332031 208.339844 583.332031 C 254.363281 583.332031 291.671875 546.023438 291.671875 500 Z M 893.230469 210.269531 C 885.277344 165.160156 860.152344 123.074219 819.753906 94.789062 C 802.585938 82.765625 784.011719 74.226562 764.871094 68.945312 C 762.660156 68.335938 760.433594 67.769531 758.203125 67.246094 C 689.058594 51.027344 613.78125 77.078125 570.621094 138.722656 C 553.890625 162.617188 544.828125 187.460938 543.128906 214.855469 C 542.886719 218.765625 542.792969 222.730469 542.847656 226.753906 C 542.996094 237.476562 544.207031 248.605469 546.460938 260.226562 C 546.550781 260.671875 546.605469 261.121094 546.632812 261.570312 C 546.816406 264.710938 545.535156 267.832031 543.066406 270.132812 C 531.367188 281.046875 518.597656 295.679688 509.746094 308.324219 C 489.433594 337.332031 487.503906 372.867188 491.4375 403 C 492.523438 411.347656 494.066406 419.28125 495.789062 426.546875 C 500.664062 447.070312 509.476562 471.207031 519.230469 487.660156 L 227.203125 904.714844 C 220.601562 914.140625 222.894531 927.132812 232.320312 933.730469 C 235.953125 936.277344 240.121094 937.503906 244.25 937.503906 C 250.816406 937.503906 257.28125 934.402344 261.332031 928.613281 L 553.242188 511.730469 C 553.640625 511.808594 554.050781 511.878906 554.457031 511.953125 C 554.828125 512.023438 555.191406 512.09375 555.566406 512.160156 C 556.644531 512.347656 557.734375 512.527344 558.851562 512.695312 C 559.121094 512.734375 559.402344 512.765625 559.675781 512.808594 C 560.558594 512.933594 561.449219 513.054688 562.355469 513.167969 C 562.796875 513.222656 563.242188 513.273438 563.6875 513.324219 C 564.460938 513.414062 565.238281 513.496094 566.023438 513.578125 C 566.484375 513.625 566.941406 513.671875 567.40625 513.714844 C 568.265625 513.792969 569.132812 513.867188 570.007812 513.9375 C 570.386719 513.964844 570.761719 514 571.140625 514.027344 C 572.382812 514.121094 573.632812 514.203125 574.894531 514.269531 C 575.191406 514.289062 575.488281 514.300781 575.789062 514.316406 C 576.785156 514.363281 577.789062 514.410156 578.796875 514.449219 C 579.246094 514.464844 579.699219 514.480469 580.144531 514.492188 C 581.046875 514.519531 581.945312 514.542969 582.851562 514.5625 C 583.296875 514.574219 583.746094 514.582031 584.195312 514.589844 C 585.214844 514.605469 586.242188 514.613281 587.273438 514.617188 C 587.515625 514.617188 587.757812 514.621094 588.003906 514.621094 L 588.179688 514.621094 C 589.742188 514.621094 591.316406 514.601562 592.890625 514.574219 L 593.925781 514.550781 C 595.394531 514.515625 596.863281 514.476562 598.332031 514.417969 L 598.773438 514.402344 C 600.375 514.339844 601.972656 514.257812 603.570312 514.164062 C 603.894531 514.144531 604.21875 514.125 604.546875 514.105469 C 606.109375 514.011719 607.671875 513.902344 609.226562 513.785156 L 609.335938 513.773438 C 610.949219 513.644531 612.550781 513.5 614.144531 513.347656 C 614.441406 513.316406 614.730469 513.289062 615.023438 513.257812 C 618.199219 512.9375 621.324219 512.5625 624.367188 512.136719 C 624.636719 512.097656 624.902344 512.058594 625.167969 512.019531 C 626.683594 511.804688 628.191406 511.578125 629.664062 511.332031 C 640.5625 509.53125 650.804688 507.046875 660.328125 503.917969 C 660.621094 503.824219 660.894531 503.710938 661.1875 503.613281 C 663.265625 502.921875 665.320312 502.207031 667.324219 501.453125 C 690.738281 492.636719 709.367188 479.632812 722.292969 462.964844 C 723.265625 461.707031 724.21875 460.429688 725.128906 459.132812 C 730.886719 450.914062 736.847656 440.855469 742.046875 430.773438 C 744.84375 425.347656 747.429688 419.914062 749.621094 414.757812 C 750.183594 413.425781 750.964844 412.246094 751.914062 411.265625 C 753.488281 409.628906 755.519531 408.53125 757.769531 408.175781 C 770.921875 406.089844 783.003906 402.929688 794.191406 398.722656 C 807.863281 393.574219 820.1875 386.835938 831.296875 378.296875 C 843.414062 368.980469 854.125 357.574219 863.6875 343.917969 C 884.902344 313.617188 895.390625 278.964844 895.953125 244.5 C 896.132812 233.015625 895.21875 221.546875 893.230469 210.269531 Z M 833.652344 313.792969 L 833.433594 314.164062 C 832.195312 316.136719 830.898438 318.089844 829.550781 320.019531 C 815.664062 339.851562 798.871094 352.921875 776.863281 360.679688 C 776.480469 360.816406 776.113281 360.96875 775.726562 361.101562 C 775.382812 361.21875 775.023438 361.316406 774.679688 361.429688 C 767.441406 363.828125 759.664062 365.691406 751.230469 367.027344 C 749.632812 367.285156 748.066406 367.632812 746.515625 368.027344 C 736.164062 370.660156 727.011719 376.332031 720.105469 384.285156 C 716.496094 388.441406 713.5 393.207031 711.265625 398.476562 C 707.832031 406.558594 703.117188 415.691406 698.222656 423.941406 C 695.816406 427.992188 693.363281 431.851562 690.992188 435.238281 C 673.773438 459.828125 637.957031 468.167969 618.140625 470.949219 L 618.054688 470.960938 C 616.480469 471.179688 614.925781 471.371094 613.378906 471.554688 C 612.878906 471.609375 612.378906 471.664062 611.878906 471.71875 C 610.773438 471.839844 609.671875 471.949219 608.585938 472.050781 C 608.070312 472.097656 607.558594 472.148438 607.046875 472.191406 C 605.808594 472.296875 604.578125 472.390625 603.363281 472.476562 C 603.078125 472.492188 602.789062 472.519531 602.503906 472.535156 C 601.019531 472.632812 599.5625 472.707031 598.121094 472.769531 C 597.699219 472.789062 597.289062 472.800781 596.867188 472.816406 C 595.824219 472.855469 594.796875 472.886719 593.78125 472.910156 C 593.304688 472.921875 592.828125 472.933594 592.351562 472.941406 C 591.324219 472.957031 590.3125 472.964844 589.316406 472.96875 C 588.957031 472.972656 588.589844 472.976562 588.238281 472.972656 C 586.921875 472.972656 585.636719 472.953125 584.378906 472.929688 C 584.058594 472.921875 583.753906 472.910156 583.441406 472.902344 C 582.480469 472.875 581.535156 472.847656 580.609375 472.808594 C 580.199219 472.792969 579.789062 472.773438 579.382812 472.753906 C 578.542969 472.714844 577.714844 472.671875 576.910156 472.621094 C 576.554688 472.601562 576.195312 472.582031 575.847656 472.558594 C 574.746094 472.488281 573.667969 472.410156 572.636719 472.324219 L 572.144531 472.277344 C 571.265625 472.203125 570.417969 472.121094 569.597656 472.035156 C 569.265625 472 568.945312 471.964844 568.617188 471.925781 C 567.964844 471.855469 567.332031 471.78125 566.722656 471.703125 C 566.421875 471.664062 566.121094 471.628906 565.832031 471.589844 L 565.292969 471.515625 C 560.113281 470.769531 555.570312 467.648438 553.085938 463.042969 C 552.894531 462.679688 552.703125 462.316406 552.507812 461.933594 C 552.332031 461.597656 552.164062 461.265625 551.984375 460.917969 C 551.691406 460.332031 551.394531 459.714844 551.089844 459.097656 C 550.925781 458.75 550.761719 458.417969 550.589844 458.0625 C 550.246094 457.332031 549.894531 456.570312 549.542969 455.796875 C 549.414062 455.515625 549.289062 455.246094 549.160156 454.964844 C 548.671875 453.875 548.175781 452.75 547.683594 451.582031 L 547.667969 451.542969 C 547.183594 450.402344 546.699219 449.230469 546.214844 448.023438 C 546.070312 447.65625 545.921875 447.273438 545.773438 446.902344 C 545.429688 446.035156 545.085938 445.160156 544.746094 444.257812 C 544.566406 443.785156 544.386719 443.296875 544.207031 442.816406 C 543.898438 441.984375 543.589844 441.148438 543.289062 440.296875 C 543.097656 439.765625 542.90625 439.222656 542.71875 438.679688 C 542.425781 437.851562 542.140625 437.007812 541.851562 436.15625 C 541.660156 435.585938 541.46875 435.011719 541.28125 434.433594 C 541 433.578125 540.722656 432.707031 540.449219 431.832031 C 540.261719 431.242188 540.078125 430.652344 539.894531 430.054688 C 539.617188 429.148438 539.347656 428.230469 539.078125 427.308594 C 538.910156 426.730469 538.738281 426.148438 538.570312 425.5625 C 538.289062 424.566406 538.015625 423.550781 537.746094 422.539062 C 537.605469 422.007812 537.457031 421.480469 537.320312 420.945312 C 536.980469 419.632812 536.652344 418.304688 536.332031 416.972656 C 536.273438 416.726562 536.207031 416.484375 536.148438 416.238281 C 535.777344 414.65625 535.421875 413.058594 535.085938 411.449219 C 534.984375 410.980469 534.898438 410.507812 534.800781 410.035156 C 534.570312 408.890625 534.339844 407.742188 534.128906 406.589844 C 534.015625 405.976562 533.914062 405.355469 533.808594 404.742188 C 533.632812 403.722656 533.457031 402.699219 533.296875 401.671875 C 533.191406 400.996094 533.097656 400.320312 532.996094 399.640625 C 532.859375 398.664062 532.722656 397.6875 532.597656 396.707031 C 532.511719 396.003906 532.425781 395.300781 532.347656 394.597656 C 532.238281 393.625 532.136719 392.652344 532.042969 391.683594 C 531.976562 390.980469 531.914062 390.277344 531.855469 389.574219 C 531.777344 388.589844 531.710938 387.605469 531.648438 386.621094 C 531.609375 385.933594 531.566406 385.246094 531.53125 384.558594 C 531.484375 383.535156 531.457031 382.507812 531.433594 381.480469 C 531.417969 380.839844 531.394531 380.203125 531.390625 379.566406 C 531.378906 378.390625 531.394531 377.222656 531.421875 376.050781 C 531.429688 375.570312 531.425781 375.085938 531.441406 374.605469 C 531.492188 372.96875 531.574219 371.339844 531.699219 369.714844 C 531.726562 369.339844 531.773438 368.972656 531.804688 368.597656 C 531.914062 367.351562 532.027344 366.113281 532.183594 364.878906 C 532.253906 364.289062 532.351562 363.707031 532.433594 363.117188 C 532.574219 362.109375 532.722656 361.105469 532.898438 360.109375 C 533.011719 359.464844 533.140625 358.832031 533.269531 358.195312 C 533.453125 357.265625 533.644531 356.335938 533.859375 355.421875 C 534.011719 354.769531 534.175781 354.125 534.34375 353.480469 C 534.574219 352.585938 534.820312 351.703125 535.082031 350.824219 C 535.273438 350.183594 535.472656 349.546875 535.679688 348.914062 C 535.964844 348.042969 536.269531 347.183594 536.589844 346.328125 C 536.816406 345.714844 537.042969 345.105469 537.285156 344.503906 C 537.640625 343.628906 538.023438 342.769531 538.410156 341.917969 C 538.664062 341.355469 538.910156 340.792969 539.179688 340.238281 C 539.632812 339.316406 540.128906 338.410156 540.625 337.507812 C 540.875 337.054688 541.105469 336.589844 541.367188 336.144531 C 542.152344 334.808594 542.980469 333.5 543.871094 332.226562 C 551.066406 321.953125 561.902344 309.542969 571.484375 300.609375 C 584.875 288.121094 590.808594 270.058594 587.363281 252.292969 C 586.742188 249.089844 586.238281 245.957031 585.824219 242.871094 C 585.71875 242.101562 585.617188 241.332031 585.527344 240.570312 C 582.683594 216.847656 586.019531 196.472656 595.996094 177.078125 C 598.5 172.210938 601.402344 167.40625 604.746094 162.625 C 606.097656 160.699219 607.484375 158.820312 608.917969 156.984375 L 609.328125 156.476562 C 610.644531 154.800781 611.984375 153.152344 613.363281 151.558594 L 613.371094 151.546875 C 655.722656 102.523438 727.273438 89.882812 783.851562 121.414062 L 783.976562 121.480469 C 785.785156 122.488281 787.574219 123.5625 789.351562 124.664062 C 789.570312 124.796875 789.792969 124.917969 790.007812 125.054688 C 791.972656 126.289062 793.921875 127.582031 795.847656 128.925781 C 797.773438 130.273438 799.652344 131.664062 801.488281 133.097656 L 801.992188 133.507812 C 856.835938 176.601562 870.542969 254.574219 833.652344 313.792969 Z M 771.832031 163.222656 C 728.675781 133.003906 668.984375 143.53125 638.765625 186.6875 C 626.460938 204.261719 623.488281 220.476562 628.152344 244.523438 C 634.351562 276.476562 623.746094 308.894531 599.789062 331.246094 C 592.390625 338.144531 583.386719 348.441406 577.890625 356.292969 C 572.292969 364.28125 571.367188 381.15625 575.410156 401.429688 C 576.703125 407.921875 578.351562 414.074219 580.105469 419.632812 C 582.386719 426.871094 589.238281 431.652344 596.820312 431.292969 C 601.597656 431.066406 606.777344 430.617188 612.226562 429.855469 C 633.5625 426.859375 651.035156 419.65625 656.742188 411.507812 C 662.234375 403.664062 668.832031 391.675781 672.792969 382.359375 C 685.597656 352.199219 712.4375 331.144531 744.589844 326.046875 C 768.773438 322.207031 782.992188 313.863281 795.296875 296.296875 C 825.515625 253.136719 814.992188 193.441406 771.832031 163.222656 Z M 771.832031 163.222656"/></svg>