<svg xmlns="http://www.w3.org/2000/svg" viewBox="0 0 480 480"><path d="M237,360.988l-70.812-49.653c-3.11-2.181-7.322,0.408-6.771,4.167c1.657,11.304,1.427,23.521-0.828,36.17 c-0.435,2.44-2.055,4.488-4.291,5.559c-3.785,1.811-7.2,4.339-9.756,7.984l-28.211,40.231c-8.72,12.436-5.384,29.97,7.439,38.961 c12.807,8.98,30.444,6.151,39.164-6.283l28.21-40.231c2.579-3.678,3.791-7.791,4.186-12.01c0.225-2.41,1.58-4.569,3.676-5.779 c12.151-7.021,24.634-11.605,36.805-13.703C238.441,365.947,239.185,362.521,237,360.988z M395.892,56.317 c-71.44-50.094-174.07-26.949-229.21,51.688c-30.845,43.988-40.072,95.947-29.877,142.017c0.77,3.477,2.847,6.525,5.762,8.569 L292.58,363.779c2.575,1.806,5.73,2.604,8.852,2.209c47.009-5.956,92.99-32.377,123.976-76.566 C480.547,210.786,467.333,106.411,395.892,56.317z M70.004,199.996C47.91,199.996,30,217.906,30,240s17.91,40.004,40.004,40.004 c22.093,0,40.003-17.91,40.003-40.004S92.096,199.996,70.004,199.996z"/></svg>