<svg xmlns="http://www.w3.org/2000/svg" width="1000pt" height="1000pt" viewBox="0 0 1000 1000"><path d="M 493.75 752.058594 L 346.226562 648.613281 C 339.746094 644.070312 330.972656 649.464844 332.117188 657.296875 C 335.570312 680.847656 335.089844 706.296875 330.394531 732.648438 C 329.488281 737.734375 326.113281 742 321.453125 744.230469 C 313.570312 748.003906 306.453125 753.269531 301.128906 760.863281 L 242.355469 844.679688 C 224.191406 870.585938 231.140625 907.117188 257.855469 925.847656 C 284.535156 944.554688 321.277344 938.664062 339.445312 912.757812 L 398.214844 828.945312 C 403.589844 821.28125 406.113281 812.710938 406.9375 803.921875 C 407.40625 798.902344 410.230469 794.402344 414.597656 791.882812 C 439.910156 777.257812 465.917969 767.707031 491.273438 763.335938 C 496.753906 762.390625 498.300781 755.253906 493.75 752.058594 Z M 824.773438 117.328125 C 675.941406 12.964844 462.128906 61.183594 347.253906 225.011719 C 282.992188 316.652344 263.769531 424.898438 285.011719 520.878906 C 286.613281 528.121094 290.941406 534.472656 297.015625 538.730469 L 609.542969 757.871094 C 614.90625 761.636719 621.480469 763.296875 627.984375 762.476562 C 725.917969 750.066406 821.710938 695.023438 886.265625 602.960938 C 1001.140625 439.136719 973.609375 221.691406 824.773438 117.328125 Z M 145.839844 416.660156 C 99.8125 416.660156 62.5 453.972656 62.5 500 C 62.5 546.027344 99.8125 583.339844 145.839844 583.339844 C 191.867188 583.339844 229.179688 546.027344 229.179688 500 C 229.179688 453.972656 191.867188 416.660156 145.839844 416.660156 Z M 145.839844 416.660156"/></svg>