<?xml version="1.0" encoding="iso-8859-1"?>
<!-- Generator: Adobe Illustrator 23.0.4, SVG Export Plug-In . SVG Version: 6.00 Build 0)  -->
<svg version="1.1" xmlns="http://www.w3.org/2000/svg" xmlns:xlink="http://www.w3.org/1999/xlink" x="0px" y="0px"
	 viewBox="0 0 480 480" style="enable-background:new 0 0 480 480;" xml:space="preserve">
<g id="Layer_1">
	<path style="display:none;fill-rule:evenodd;clip-rule:evenodd;" d="M197.295,119.001c-44.777,0.222-70.175,25.789-87.142,61.356
		c-4.235,8.877-8.228,19.535-11.074,31.384c-2.017,9.618-3.078,19.587-3.078,29.805c0,79.783,64.677,144.461,144.461,144.461
		c47.712,0,90.022-23.131,116.328-58.79c-108.076-3.511-143.784-70.271-143.784-95.239c0-26.185,21.227-47.413,47.413-47.413
		c10.238,0,19.719,3.245,27.469,8.763C276.523,154.498,244.867,118.766,197.295,119.001z M410,240c0,93.888-76.112,170-170,170
		S70,333.888,70,240S146.112,70,240,70S410,146.112,410,240z M40,240c0,110.457,89.543,200,200,200s200-89.543,200-200
		S350.457,40,240,40S40,129.543,40,240z"/>
	<g id="Layer_4" style="display:none;">
		<g>
			<path style="display:inline;fill:#231F20;" d="M167.107,293.39c-35.886,0-56.976-11.258-73.921-20.303
				c-13.862-7.4-24.81-13.244-45.604-13.244c-1.971,0-4.034,0.054-6.131,0.158c-0.506,0.025-1.009,0.038-1.509,0.038
				c-15.978,0-29.119-12.504-29.919-28.466c-0.4-7.993,2.335-15.665,7.704-21.601c5.369-5.937,12.729-9.426,20.723-9.826
				c3.053-0.153,6.093-0.231,9.037-0.231c35.89,0,56.978,11.258,73.922,20.303c13.863,7.401,24.81,13.244,45.603,13.244
				c1.972,0,4.035-0.054,6.131-0.158c24.889-1.247,35.493-8.356,50.171-18.195c17.408-11.668,39.072-26.189,80.537-28.269
				c3.053-0.153,6.092-0.23,9.034-0.23c35.893,0,56.981,11.257,73.927,20.302c13.866,7.401,24.813,13.245,45.61,13.245
				c1.971,0,4.033-0.054,6.128-0.158c0.506-0.025,1.007-0.038,1.508-0.038c15.976,0,29.117,12.502,29.92,28.462
				c0.827,16.503-11.924,30.602-28.425,31.431c-3.056,0.153-6.095,0.23-9.036,0.23c-35.893,0-56.98-11.257-73.926-20.302
				c-13.864-7.4-24.812-13.245-45.611-13.245c-1.97,0-4.031,0.054-6.128,0.158c-24.887,1.248-35.492,8.357-50.171,18.196
				c-17.408,11.668-39.071,26.188-80.536,28.268C173.092,293.312,170.05,293.39,167.107,293.39z"/>
			<path style="display:inline;" d="M430,240.134c-24.284-0.459-38.087-7.828-52.607-15.578
				c-17.159-9.159-36.609-19.541-72.541-17.74c-35.932,1.802-54.246,14.077-70.403,24.907
				c-15.369,10.302-29.885,20.032-60.305,21.557c-30.418,1.525-45.833-6.705-62.154-15.417c-14.414-7.694-30.443-16.251-56.5-17.724
				c-4.963-0.281-7.892,19.516-5.491,19.414c15.747-0.673,0.39,1.585,3.8,17.271c6.283,28.901,38.453,102.531,67.017,124.401
				c26.807,20.524,110.584,55.114,126.741,44.284c15.369-10.302,58.931-12.314,98.512-35.183
				c23.764-13.73,52.238-107.171,83.928-126.84C433.477,261.326,433.015,240.191,430,240.134z"/>
		</g>
		<g style="display:inline;">
			<path d="M190.963,420.116c-35.886,0-91.16-71.52-108.106-80.565c-13.862-7.4-14.481-79.708-35.276-79.708
				c-1.971,0-3.039-59.928-0.095-59.928c35.89,0,56.978,11.258,73.922,20.303c13.863,7.401,24.81,13.244,45.603,13.244
				c1.972,0,4.035-0.054,6.131-0.158c24.889-1.247,35.493-8.356,50.171-18.195c17.408-11.668,39.072-26.189,80.537-28.269
				c3.053-0.153,6.092-0.23,9.034-0.23c35.893,0,56.981,11.257,73.927,20.302c13.866,7.401,24.813,13.245,45.61,13.245
				c1.971,0-0.381,92.251-17.326,83.206c-13.864-7.4-6.673,46.919-27.472,46.919c-1.97,0-30.441,41.417-32.538,41.522
				c-24.887,1.248-35.492,8.357-50.171,18.196c-17.408,11.668-63.45,7.805-104.915,9.884
				C196.947,420.038,193.906,420.116,190.963,420.116z"/>
			<path style="fill:#FFFFFF;" d="M431.566,240.154c-25.263-0.166-39.344-7.682-54.173-15.598
				c-17.159-9.159-36.609-19.541-72.541-17.74c-35.932,1.802-54.246,14.077-70.403,24.907
				c-15.369,10.302-29.885,20.032-60.305,21.557c-30.418,1.525-45.833-6.705-62.154-15.417
				c-14.971-7.991-31.686-16.914-59.569-17.863c-4.075-0.139-4.602,19.799-1.237,19.895c23.551,0.673,37.139,7.926,51.42,15.55
				c17.159,9.159,36.608,19.542,72.538,17.74c35.932-1.802,54.246-14.077,70.403-24.907c15.369-10.302,29.885-20.032,60.305-21.557
				c30.42-1.525,45.837,6.704,62.159,15.417c15.672,8.365,33.254,17.751,63.559,17.943
				C434.444,260.099,434.11,240.17,431.566,240.154z"/>
		</g>
		<g style="display:inline;">
			<path style="fill:#FFFFFF;" d="M240,100c37.395,0,72.552,14.563,98.995,41.005C365.437,167.447,380,202.605,380,240
				s-14.563,72.552-41.005,98.995C312.552,365.437,277.395,380,240,380c-37.395,0-72.552-14.563-98.995-41.005
				C114.562,312.552,100,277.395,100,240s14.563-72.552,41.005-98.995C167.447,114.562,202.604,100,240,100 M240,70
				c-93.888,0-170,76.112-170,170s76.112,170,170,170c93.888,0,170-76.112,170-170S333.888,70,240,70L240,70z"/>
		</g>
	</g>
	<g id="Layer_4_copy" style="display:none;">
		<path style="display:inline;" d="M432.669,241.714c0.566-12.323,0.376-21.549-0.246-21.557
			c-18.015-0.235-33.788-7.731-49.654-15.458c-24.584-11.972-51.418-19.24-78.918-17.859c-22.208,1.115-41.46,6.771-60.874,17.485
			c-17.981,9.923-35.361,21.839-55.515,26.954c-27.144,6.889-51.267-3.618-74.944-15.718
			c-20.317-10.383-42.189-15.646-65.031-15.646c-2.944,0-1.876,59.928,0.095,59.928c20.795,0,21.413,72.307,35.276,79.708
			c16.945,9.045,72.22,80.565,108.106,80.565c2.943,0,5.984-0.078,9.037-0.231c41.465-2.079,87.506,1.784,104.915-9.884
			c14.679-9.839,25.284-16.948,50.171-18.196c2.097-0.104,30.568-41.522,32.538-41.522c20.799,0,13.608-54.32,27.472-46.919
			c9.125,4.871,14.016-19.632,16.282-43.285c0.064,0,0.126,0.003,0.191,0.003C433.953,260.096,434.129,246.401,432.669,241.714z"/>
		<g style="display:inline;">
			<path style="fill:#FFFFFF;" d="M240,100c37.395,0,72.552,14.563,98.995,41.005C365.437,167.447,380,202.605,380,240
				s-14.563,72.552-41.005,98.995C312.552,365.437,277.395,380,240,380c-37.395,0-72.552-14.563-98.995-41.005
				C114.562,312.552,100,277.395,100,240s14.563-72.552,41.005-98.995C167.447,114.562,202.604,100,240,100 M240,70
				c-93.888,0-170,76.112-170,170s76.112,170,170,170c93.888,0,170-76.112,170-170S333.888,70,240,70L240,70z"/>
		</g>
	</g>
	<g id="Layer_6">
	</g>
	<path style="display:none;" d="M205.699,215.601c-4.222,14.798-3.302,31.769,2.832,45.864
		c11.038,25.362,35.905,42.31,61.469,50.738c24.589,8.107,75.121,10.654,84.018,8.485c0.182-0.044,0.318,0.164,0.21,0.316
		c-4.173,5.859-8.826,11.435-13.938,16.679c-26.328,27.012-62.652,42.338-100.373,42.317c-37.364-0.022-72.489-14.582-98.912-41.005
		C114.563,312.553,100,277.396,100,240.001c0-35.391,13.401-73.496,40.637-97.459c23.536-20.708,60.39-28.362,89.654-16.164
		c16.038,6.685,29.457,19.854,35.876,36.063c3.041,7.678,4.52,16.1,3.867,24.355c-0.476,6.015-1.709-6.794-20.037-6.821
		C226.162,179.94,211.34,195.83,205.699,215.601z"/>
	<path d="M240,40C129.543,40,40,129.543,40,240c0,12.742,1.205,25.201,3.483,37.28C60.951,369.919,142.285,440,240,440
		c82.53,0,153.377-49.993,183.93-121.344C434.268,294.513,440,267.927,440,240C440,129.543,350.457,40,240,40z M400.737,295.463
		C377.742,362.117,314.466,410,240,410c-90.383,0-164.279-70.537-169.672-159.564C70.118,246.982,70,243.506,70,240
		c0-93.889,76.111-170,170-170c93.888,0,170,76.111,170,170C410,259.422,406.735,278.079,400.737,295.463z M310.536,267.166
		c-25.042-2.097-44.595-23.499-43.697-49.284c0.863-24.831,21.014-45.077,45.843-46.021c16.128-0.613,30.565,6.666,39.659,18.31
		c0.555,0.792,1.457,1.322,2.486,1.361c1.055,0.04,2.031-0.549,2.665-1.393c0.662-0.881,0.726-1.679,0.585-2.402l-0.028-0.114
		l-0.021-0.067c-10.711-38.793-40.509-69.651-78.649-81.869c-0.599-0.191-1.192-0.393-1.795-0.575
		c-10.968-3.322-22.603-5.11-34.656-5.11c-0.509,0-1.016,0.012-1.523,0.018c-0.721,0.009-1.438,0.03-2.156,0.052
		c-76.957,0.406-139.219,62.909-139.219,139.961c0,18.217,3.483,35.619,9.815,51.582c0.07,0.186,0.134,0.374,0.208,0.559
		c0.181,0.449,0.38,0.888,0.565,1.335c0.285,0.688,0.575,1.375,0.871,2.058c0.28,0.648,0.559,1.298,0.849,1.94
		c0.512,1.134,1.037,2.26,1.578,3.377c0.29,0.6,0.591,1.193,0.889,1.789c0.37,0.738,0.747,1.474,1.131,2.205
		c0.296,0.565,0.589,1.132,0.893,1.691c0.609,1.126,1.234,2.243,1.873,3.35c0.3,0.52,0.609,1.033,0.915,1.549
		c0.465,0.78,0.937,1.557,1.416,2.327c0.301,0.485,0.6,0.973,0.906,1.453c0.711,1.112,1.436,2.213,2.176,3.303
		c0.299,0.44,0.605,0.875,0.909,1.312c0.568,0.817,1.146,1.628,1.731,2.433c0.294,0.404,0.585,0.812,0.884,1.212
		c0.813,1.093,1.642,2.173,2.485,3.241c0.098,0.123,0.189,0.251,0.287,0.374l0.023,0.012c10.239,5.033,20.444,8.551,36.576,8.551
		c1.972,0,4.035-0.053,6.131-0.158c24.889-1.246,35.493-8.355,50.171-18.195c17.408-11.668,39.072-26.189,80.537-28.268
		c3.053-0.154,6.092-0.23,9.034-0.23c23.211,0,40.226,4.709,53.938,10.481l0.017,0.006c0.165-0.354,0.317-0.714,0.479-1.069
		c0.239-0.521,0.474-1.046,0.706-1.571c0.309-0.696,0.619-1.394,0.917-2.097c0.128-0.302,0.248-0.608,0.375-0.911
		c0.648-1.563,1.271-3.14,1.863-4.73c0.13-0.348,0.262-0.693,0.39-1.042c0.308-0.848,0.606-1.699,0.899-2.555
		c0.112-0.328,0.222-0.657,0.332-0.986c0.207-0.621,0.427-1.237,0.626-1.862l-0.019-0.01c-13.402-6.899-27.438-10.444-40.945-12.302
		L310.536,267.166z M304.852,309.035c-35.933,1.802-54.246,14.077-70.402,24.906c-15.369,10.302-29.886,20.032-60.306,21.557
		c-4.749,0.238-9.133,0.238-13.211,0.036h-0.01l0.199,0.132c1.256,0.858,2.525,1.699,3.811,2.518l0.199,0.124
		c1.216,0.771,2.446,1.521,3.688,2.256c0.191,0.113,0.383,0.228,0.575,0.34c2.641,1.546,5.337,3.007,8.084,4.381
		c0.178,0.089,0.355,0.177,0.533,0.265c2.783,1.377,5.617,2.665,8.501,3.858c0.137,0.057,0.274,0.112,0.412,0.168
		c1.438,0.59,2.885,1.16,4.346,1.702l0.007,0.003c1.525,0.566,3.063,1.105,4.613,1.62l0.057,0.02l0.003-0.001
		c22.864-4.511,36.897-13.911,49.595-22.422c15.368-10.302,29.885-20.031,60.305-21.557c16.273-0.816,28.251,1.161,38.373,4.51
		l0.011,0.003c0.171-0.19,0.333-0.39,0.503-0.582c0.815-0.919,1.618-1.848,2.409-2.788c0.231-0.275,0.467-0.546,0.696-0.823
		c0.923-1.114,1.826-2.246,2.715-3.389c0.273-0.353,0.544-0.708,0.814-1.062c0.774-1.015,1.535-2.039,2.282-3.076
		c0.156-0.218,0.319-0.432,0.475-0.651c0.84-1.18,1.655-2.378,2.459-3.585c0.131-0.197,0.271-0.389,0.402-0.587l-0.014-0.005
		C343.821,311.659,327.659,307.892,304.852,309.035z M304.852,353.425c-35.933,1.802-54.246,14.077-70.402,24.907
		c-0.726,0.486-1.449,0.97-2.172,1.453h0.002c1.249,0.067,2.503,0.119,3.761,0.156l0.098,0.004c1.283,0.035,2.57,0.055,3.862,0.055
		c1.101,0,2.198-0.017,3.294-0.042c0.342-0.008,0.683-0.021,1.023-0.03c0.767-0.023,1.531-0.052,2.294-0.088
		c0.38-0.018,0.759-0.036,1.138-0.057c0.771-0.042,1.541-0.092,2.31-0.146c0.325-0.023,0.651-0.043,0.976-0.068
		c1.069-0.083,2.135-0.177,3.197-0.284c0.186-0.019,0.369-0.042,0.555-0.062c0.884-0.093,1.766-0.192,2.644-0.302
		c0.377-0.047,0.753-0.098,1.129-0.147c0.698-0.093,1.395-0.19,2.089-0.293c0.398-0.059,0.797-0.118,1.194-0.181
		c0.717-0.112,1.431-0.231,2.145-0.354c0.343-0.06,0.688-0.115,1.03-0.178c1.007-0.182,2.01-0.373,3.009-0.576
		c0.333-0.067,0.664-0.142,0.996-0.212c0.696-0.147,1.392-0.297,2.084-0.454c0.431-0.098,0.859-0.199,1.288-0.301
		c0.599-0.142,1.195-0.287,1.791-0.438c0.442-0.11,0.885-0.222,1.325-0.337c0.619-0.162,1.236-0.331,1.853-0.501
		c0.394-0.109,0.79-0.214,1.183-0.326c0.93-0.267,1.855-0.542,2.778-0.826c0.444-0.138,0.887-0.282,1.33-0.424
		c0.538-0.173,1.076-0.345,1.611-0.523c0.483-0.161,0.965-0.326,1.446-0.492c0.493-0.17,0.984-0.344,1.475-0.52
		c0.489-0.175,0.979-0.35,1.465-0.53c0.493-0.184,0.984-0.373,1.475-0.562c0.813-0.312,1.624-0.631,2.43-0.958
		c0.507-0.205,1.014-0.409,1.518-0.62c0.511-0.214,1.018-0.436,1.525-0.655c0.424-0.184,0.848-0.368,1.27-0.556
		c0.516-0.229,1.029-0.463,1.542-0.698c0.404-0.186,0.807-0.375,1.209-0.564c0.519-0.244,1.037-0.488,1.552-0.739
		c0.374-0.182,0.743-0.369,1.114-0.554c0.978-0.486,1.947-0.983,2.911-1.492c0.347-0.183,0.694-0.362,1.038-0.547
		c0.52-0.28,1.035-0.565,1.55-0.852c0.366-0.203,0.731-0.406,1.095-0.612c0.508-0.287,1.014-0.577,1.518-0.871
		c0.363-0.212,0.725-0.428,1.087-0.643c0.502-0.299,1.005-0.597,1.503-0.902c0.331-0.202,0.658-0.411,0.988-0.617
		c0.905-0.564,1.805-1.14,2.696-1.725c0.365-0.239,0.731-0.478,1.095-0.721c0.461-0.309,0.918-0.622,1.376-0.936
		c0.38-0.262,0.76-0.524,1.138-0.789c0.441-0.31,0.881-0.621,1.319-0.936c0.115-0.083,0.232-0.163,0.348-0.247h-0.009
		C316.675,353.173,311.011,353.116,304.852,353.425z"/>
</g>
<g id="Guides">
</g>
</svg>
