<svg xmlns="http://www.w3.org/2000/svg" width="1000pt" height="1000pt" viewBox="0 0 1000 1000"><path d="M 500 83.332031 C 269.882812 83.332031 83.332031 269.882812 83.332031 500 C 83.332031 526.546875 85.84375 552.503906 90.589844 577.667969 C 126.980469 770.664062 296.425781 916.667969 500 916.667969 C 671.9375 916.667969 819.535156 812.515625 883.1875 663.867188 C 904.726562 613.570312 916.667969 558.179688 916.667969 500 C 916.667969 269.882812 730.117188 83.332031 500 83.332031 Z M 834.867188 615.546875 C 786.960938 754.410156 655.136719 854.167969 500 854.167969 C 311.703125 854.167969 157.753906 707.214844 146.515625 521.742188 C 146.078125 514.546875 145.832031 507.304688 145.832031 500 C 145.832031 304.398438 304.398438 145.832031 500 145.832031 C 695.601562 145.832031 854.167969 304.398438 854.167969 500 C 854.167969 540.460938 847.363281 579.332031 834.867188 615.546875 Z M 646.949219 556.597656 C 594.777344 552.226562 554.042969 507.640625 555.914062 453.921875 C 557.710938 402.191406 599.695312 360.011719 651.421875 358.042969 C 685.019531 356.765625 715.097656 371.929688 734.042969 396.191406 C 735.199219 397.839844 737.078125 398.945312 739.222656 399.023438 C 741.421875 399.109375 743.453125 397.882812 744.773438 396.121094 C 746.152344 394.289062 746.289062 392.625 745.992188 391.117188 L 745.933594 390.882812 L 745.890625 390.742188 C 723.578125 309.921875 661.496094 245.636719 582.039062 220.179688 C 580.792969 219.785156 579.554688 219.363281 578.300781 218.984375 C 555.449219 212.0625 531.210938 208.335938 506.101562 208.335938 C 505.039062 208.335938 503.984375 208.363281 502.925781 208.375 C 501.425781 208.394531 499.929688 208.4375 498.433594 208.484375 C 338.109375 209.328125 208.394531 339.542969 208.394531 500.070312 C 208.394531 538.019531 215.652344 574.273438 228.84375 607.53125 C 228.988281 607.917969 229.121094 608.308594 229.277344 608.695312 C 229.652344 609.632812 230.070312 610.546875 230.453125 611.476562 C 231.046875 612.910156 231.652344 614.339844 232.269531 615.765625 C 232.851562 617.113281 233.433594 618.46875 234.039062 619.804688 C 235.105469 622.167969 236.199219 624.515625 237.324219 626.839844 C 237.929688 628.089844 238.554688 629.328125 239.175781 630.570312 C 239.949219 632.105469 240.734375 633.640625 241.535156 635.164062 C 242.148438 636.339844 242.761719 637.519531 243.394531 638.683594 C 244.664062 641.03125 245.964844 643.359375 247.296875 645.664062 C 247.921875 646.746094 248.566406 647.816406 249.203125 648.890625 C 250.171875 650.515625 251.152344 652.136719 252.152344 653.738281 C 252.777344 654.75 253.402344 655.765625 254.039062 656.765625 C 255.519531 659.082031 257.03125 661.378906 258.574219 663.648438 C 259.195312 664.566406 259.832031 665.472656 260.464844 666.382812 C 261.648438 668.082031 262.855469 669.773438 264.074219 671.449219 C 264.683594 672.292969 265.292969 673.140625 265.914062 673.976562 C 267.609375 676.253906 269.335938 678.503906 271.089844 680.726562 C 271.296875 680.984375 271.484375 681.25 271.691406 681.507812 L 271.738281 681.53125 C 293.070312 692.015625 314.328125 699.347656 347.9375 699.347656 C 352.046875 699.347656 356.34375 699.234375 360.710938 699.015625 C 412.5625 696.421875 434.652344 681.609375 465.234375 661.109375 C 501.5 636.800781 546.632812 606.550781 633.019531 602.21875 C 639.378906 601.898438 645.710938 601.738281 651.839844 601.738281 C 700.195312 601.738281 735.644531 611.550781 764.210938 623.574219 L 764.246094 623.585938 C 764.589844 622.851562 764.90625 622.101562 765.242188 621.359375 C 765.742188 620.273438 766.230469 619.179688 766.714844 618.085938 C 767.359375 616.636719 768.003906 615.183594 768.625 613.71875 C 768.890625 613.089844 769.140625 612.453125 769.40625 611.820312 C 770.757812 608.566406 772.054688 605.277344 773.289062 601.964844 C 773.558594 601.242188 773.832031 600.523438 774.101562 599.796875 C 774.742188 598.027344 775.363281 596.257812 775.972656 594.472656 C 776.207031 593.789062 776.433594 593.105469 776.664062 592.417969 C 777.097656 591.125 777.554688 589.839844 777.96875 588.539062 L 777.929688 588.519531 C 750.007812 574.144531 720.765625 566.761719 692.628906 562.890625 Z M 635.109375 643.824219 C 560.246094 647.578125 522.097656 673.148438 488.4375 695.710938 C 456.417969 717.171875 426.175781 737.445312 362.800781 740.621094 C 352.90625 741.117188 343.773438 741.117188 335.277344 740.695312 L 335.257812 740.695312 L 335.671875 740.972656 C 338.289062 742.757812 340.929688 744.511719 343.609375 746.214844 L 344.023438 746.476562 C 346.558594 748.082031 349.121094 749.644531 351.707031 751.175781 C 352.105469 751.410156 352.507812 751.648438 352.90625 751.882812 C 358.410156 755.105469 364.023438 758.148438 369.746094 761.011719 C 370.117188 761.195312 370.488281 761.378906 370.859375 761.5625 C 376.65625 764.429688 382.558594 767.113281 388.570312 769.601562 C 388.855469 769.71875 389.140625 769.832031 389.425781 769.949219 C 392.421875 771.179688 395.4375 772.367188 398.480469 773.496094 L 398.496094 773.503906 C 401.671875 774.679688 404.878906 775.804688 408.105469 776.878906 L 408.226562 776.917969 L 408.230469 776.917969 C 455.863281 767.519531 485.101562 747.933594 511.554688 730.203125 C 543.570312 708.742188 573.816406 688.472656 637.191406 685.292969 C 671.089844 683.59375 696.046875 687.710938 717.132812 694.691406 L 717.15625 694.695312 C 717.511719 694.300781 717.851562 693.882812 718.203125 693.484375 C 719.902344 691.570312 721.574219 689.632812 723.222656 687.675781 C 723.703125 687.101562 724.195312 686.539062 724.671875 685.960938 C 726.597656 683.640625 728.476562 681.28125 730.328125 678.898438 C 730.898438 678.164062 731.460938 677.425781 732.023438 676.6875 C 733.636719 674.574219 735.222656 672.441406 736.777344 670.277344 C 737.105469 669.824219 737.445312 669.378906 737.769531 668.921875 C 739.519531 666.464844 741.214844 663.96875 742.890625 661.453125 C 743.164062 661.042969 743.457031 660.644531 743.730469 660.230469 L 743.699219 660.222656 C 716.292969 649.289062 682.621094 641.441406 635.109375 643.824219 Z M 635.109375 736.300781 C 560.246094 740.054688 522.097656 765.628906 488.4375 788.191406 C 486.925781 789.203125 485.417969 790.210938 483.914062 791.21875 L 483.917969 791.21875 C 486.519531 791.359375 489.132812 791.464844 491.753906 791.542969 L 491.957031 791.550781 C 494.628906 791.625 497.308594 791.667969 500.003906 791.667969 C 502.296875 791.667969 504.582031 791.632812 506.863281 791.578125 C 507.578125 791.5625 508.289062 791.535156 508.996094 791.515625 C 510.59375 791.46875 512.183594 791.410156 513.773438 791.332031 C 514.566406 791.296875 515.355469 791.257812 516.144531 791.214844 C 517.753906 791.128906 519.355469 791.023438 520.957031 790.910156 C 521.636719 790.863281 522.316406 790.820312 522.992188 790.769531 C 525.21875 790.597656 527.441406 790.398438 529.652344 790.175781 C 530.039062 790.136719 530.421875 790.089844 530.808594 790.046875 C 532.648438 789.855469 534.488281 789.648438 536.316406 789.417969 C 537.101562 789.320312 537.886719 789.214844 538.667969 789.113281 C 540.121094 788.917969 541.574219 788.714844 543.019531 788.503906 C 543.851562 788.378906 544.679688 788.257812 545.507812 788.125 C 547.003906 787.890625 548.488281 787.644531 549.976562 787.386719 C 550.691406 787.261719 551.410156 787.148438 552.121094 787.015625 C 554.222656 786.636719 556.308594 786.238281 558.390625 785.816406 C 559.085938 785.675781 559.773438 785.519531 560.464844 785.375 C 561.917969 785.070312 563.367188 784.757812 564.808594 784.429688 C 565.707031 784.226562 566.597656 784.015625 567.492188 783.800781 C 568.738281 783.507812 569.980469 783.203125 571.222656 782.890625 C 572.144531 782.660156 573.066406 782.425781 573.984375 782.1875 C 575.273438 781.851562 576.558594 781.496094 577.84375 781.144531 C 578.664062 780.917969 579.488281 780.699219 580.308594 780.464844 C 582.246094 779.910156 584.171875 779.335938 586.097656 778.742188 C 587.019531 778.457031 587.945312 778.15625 588.867188 777.859375 C 589.988281 777.5 591.109375 777.140625 592.222656 776.769531 C 593.230469 776.433594 594.234375 776.089844 595.234375 775.746094 C 596.261719 775.390625 597.285156 775.027344 598.308594 774.664062 C 599.328125 774.296875 600.347656 773.933594 601.359375 773.558594 C 602.386719 773.175781 603.410156 772.78125 604.433594 772.386719 C 606.128906 771.738281 607.816406 771.074219 609.496094 770.390625 C 610.550781 769.964844 611.609375 769.539062 612.660156 769.101562 C 613.722656 768.652344 614.777344 768.191406 615.835938 767.734375 C 616.71875 767.351562 617.601562 766.96875 618.480469 766.578125 C 619.554688 766.101562 620.625 765.613281 621.695312 765.121094 C 622.535156 764.734375 623.375 764.339844 624.210938 763.949219 C 625.292969 763.441406 626.371094 762.929688 627.445312 762.410156 C 628.226562 762.027344 628.992188 761.640625 629.765625 761.253906 C 631.804688 760.242188 633.824219 759.207031 635.832031 758.144531 C 636.554688 757.765625 637.277344 757.390625 637.992188 757.007812 C 639.078125 756.421875 640.148438 755.828125 641.222656 755.230469 C 641.984375 754.808594 642.746094 754.386719 643.503906 753.957031 C 644.5625 753.359375 645.617188 752.753906 646.667969 752.140625 C 647.421875 751.699219 648.175781 751.25 648.929688 750.800781 C 649.976562 750.179688 651.023438 749.558594 652.0625 748.921875 C 652.753906 748.503906 653.433594 748.066406 654.121094 747.636719 C 656.007812 746.460938 657.882812 745.261719 659.738281 744.042969 C 660.496094 743.546875 661.261719 743.046875 662.019531 742.542969 C 662.980469 741.898438 663.929688 741.246094 664.886719 740.589844 C 665.675781 740.046875 666.46875 739.5 667.257812 738.949219 C 668.175781 738.300781 669.089844 737.652344 670.003906 736.996094 C 670.242188 736.824219 670.488281 736.660156 670.730469 736.484375 L 670.710938 736.484375 C 659.738281 735.777344 647.941406 735.660156 635.109375 736.300781 Z M 635.109375 736.300781"/></svg>