<svg xmlns="http://www.w3.org/2000/svg" viewBox="0 0 480 480"><path d="M429.798,176.801c-12.406,15.221-29.688,26.311-49.469,30.876c-6.531,1.508-13.335,2.305-20.325,2.305h-27.129 c-0.881,4.938-1.558,9.948-2.005,15.022h78.475C409.779,229.945,410,234.947,410,240c0,5.056-0.222,10.061-0.656,15.006H330.87 c3.15,35.754,17.321,68.383,39.169,94.379c-6.468,7.677-13.602,14.775-21.312,21.206c-27.168-31.489-44.599-71.549-47.887-115.595 H255v154.348c-4.943,0.435-9.946,0.656-15,0.656c-5.055,0-10.058-0.222-15.001-0.656V254.996h-45.84 c-3.288,44.046-20.719,84.105-47.887,115.595c-7.709-6.43-14.843-13.528-21.311-21.205c21.857-25.995,36.028-58.625,39.18-94.38 H70.656C70.222,250.061,70,245.056,70,240c0-5.053,0.222-10.055,0.655-14.996h78.486c-3.151-35.757-17.324-68.389-39.185-94.385 c6.47-7.679,13.604-14.778,21.315-21.21c27.168,31.488,44.599,71.548,47.887,115.595h45.84V169.73 c-9.072-13.649-14.522-29.914-14.966-47.426c-0.02-0.772-0.029-1.547-0.029-2.323c0-34.243,19.125-64.019,47.276-79.229 C251.584,40.264,245.822,40,240,40C129.54,40,40,129.54,40,240c0,110.44,89.54,200,200,200c110.439,0,200-89.56,200-200 C440,217.913,436.41,196.667,429.798,176.801z M279.679,207.677c-8.789-2.028-17.084-5.347-24.679-9.741v27.068h45.84 c0.378-5.063,0.951-10.071,1.697-15.022h-2.533C293.014,209.981,286.211,209.185,279.679,207.677z M230.004,119.981 c0,21.472,9.727,40.708,24.996,53.56c12.178,10.249,27.879,16.44,45.004,16.44h60c26.041,0,48.79-14.305,60.847-35.458 c5.813-10.201,9.153-21.985,9.153-34.542c0-38.599-31.401-70-70-70h-60c-19.211,0-36.636,7.783-49.297,20.356 C237.93,83.027,230.004,100.595,230.004,119.981z M369.435,97.757l6.706-4.245l9.501-6.017h13.011v65.469h-13.842v-52.33h-0.384 l-0.623,0.391l-14.369,9.008V97.757z M325.394,97.757l16.207-10.262h13.011v65.469H340.77v-52.33h-0.384l-14.992,9.398V97.757z M260.866,87.495h13.842v42.804c0,7.001,5.658,11.253,13.298,11.253c7.736,0,13.395-4.252,13.395-11.253V87.495h13.746v43.283 c0,14.833-11.316,23.112-27.141,23.112c-15.888,0-27.14-8.279-27.14-23.112V87.495z"/></svg>