<svg xmlns="http://www.w3.org/2000/svg" viewBox="0 0 480 480"><path d="M123.337,142.943c12.671-18.097,8.273-43.038-9.823-55.709c-18.097-12.672-43.038-8.273-55.709,9.822 c-12.671,18.097-8.273,43.038,9.823,55.709C85.723,165.438,110.665,161.039,123.337,142.943z M82.381,114.266 c-5.188,7.408-12.224,12.764-20.051,15.904c-1.166-3.249-1.766-6.678-1.772-10.13c5.297-2.511,10.036-6.376,13.631-11.511 c3.594-5.131,5.604-10.9,6.154-16.732c3.246-1.174,6.674-1.781,10.125-1.795C90.19,98.425,87.564,106.861,82.381,114.266z M106.927,131.452c-3.598,5.138-5.609,10.916-6.156,16.755c-3.246,1.174-6.673,1.781-10.124,1.797 c0.272-8.432,2.899-16.877,8.089-24.287c5.185-7.406,12.217-12.76,20.039-15.9c1.168,3.247,1.771,6.676,1.779,10.127 C115.259,122.454,110.521,126.318,106.927,131.452z M389.411,441.449L370,160c0-71.644-58.203-129.723-130-129.723 c-42.344,0-79.953,20.207-103.689,51.479C144.919,92.15,150.1,105.48,150.1,120c0,26.555-17.333,49.125-41.274,57.027 L90.59,441.449C90.27,446.073,93.936,450,98.571,450h282.858C386.064,450,389.729,446.073,389.411,441.449z M130,390.004 c-11.048,0-20.004-8.956-20.004-20.004s8.956-20.004,20.004-20.004s20.005,8.956,20.005,20.004S141.048,390.004,130,390.004z M140.005,260c-10.701,0-19.414-8.408-19.953-18.976C120.017,240.688,120,240.346,120,240v-0.004 c0-11.049,8.956-20.005,20.005-20.005c11.048,0,20.004,8.956,20.004,20.005C160.009,251.044,151.052,260,140.005,260z M319.996,239.996c0-11.049,8.956-20.005,20.004-20.005s20.005,8.956,20.005,20.005c0,11.048-8.957,20.004-20.005,20.004 S319.996,251.044,319.996,239.996z M350,390.004c-11.048,0-20.004-8.956-20.004-20.004s8.956-20.004,20.004-20.004 s20.005,8.956,20.005,20.004S361.048,390.004,350,390.004z"/></svg>