<?xml version="1.0" encoding="iso-8859-1"?>
<!-- Generator: Adobe Illustrator 23.0.4, SVG Export Plug-In . SVG Version: 6.00 Build 0)  -->
<svg version="1.1" xmlns="http://www.w3.org/2000/svg" xmlns:xlink="http://www.w3.org/1999/xlink" x="0px" y="0px"
	 viewBox="0 0 480 480" style="enable-background:new 0 0 480 480;" xml:space="preserve">
<g id="Workspace">
	<path style="display:none;fill:none;" d="M302.934,274.596c-15.733,0.247-35.919-2.826-53.837-16.042
		C231.001,278.874,220,305.65,220,335c0,63.513,51.487,115,115,115s115-51.487,115-115s-51.487-115-115-115
		c-14.907,0-29.152,2.837-42.224,8c3.028,14.048,8.458,25.544,15.748,33.063C313.375,266.066,309.901,274.487,302.934,274.596z"/>
	<path style="display:none;fill:none;" d="M232.063,160.121c-67.754-4.408-90.713-33.782-98.49-52.951
		c-2.274-5.605-9.623-6.859-13.55-2.258c-12.314,14.425-19.918,34.135-19.918,55.848c0,44.112,31.356,80,69.898,80
		c36.173,0,66.016-31.611,69.549-71.965C239.944,164.303,236.563,160.414,232.063,160.121z"/>
	<path d="M350,250c-55.25,0-100,44.75-100,100c0,55.2,44.75,100,100,100c55.2,0,100-44.8,100-100C450,294.75,405.2,250,350,250z
		 M378.8,311.75c-3.699-2.1-7.5-3.85-11.35-5.4l-0.1,0.2c-0.051,0.101-0.101,0.2-0.15,0.3c-3.85,7.4-6.55,15.301-8.2,23.45
		c-0.1,0.4-0.149,0.851-0.25,1.25c-0.3,1.55-0.649,3.101-0.85,4.7c-0.101,0.95-0.2,1.95-0.25,2.9c-0.05,0.5-0.05,0.949-0.101,1.449
		c-0.149,1.75-0.199,3.5-0.25,5.25c0.95,0.601,1.851,1.25,2.75,1.9c0.5,0.4,1.051,0.75,1.601,1.15c0.35,0.25,0.75,0.5,1.1,0.699
		c0.45,0.25,0.9,0.551,1.351,0.851c0.199,0.149,0.399,0.3,0.6,0.45c0.15,0.149,0.3,0.3,0.5,0.449c2.55,1.9,4.95,3.95,7.3,6.051
		c0.101,0.1,0.2,0.149,0.3,0.25c0.301,0.25,0.601,0.5,0.851,0.75l0.2,0.199l0.199,0.2c7.351,6.95,13.801,14.75,18.9,23.55
		c0.05,0.051,0.1,0.15,0.15,0.25c0.05,0.101,0.05,0.15,0.1,0.2c1.3,2.25,2.4,4.55,3.5,6.851c0.05,0.149,0.1,0.25,0.15,0.399
		c0.05,0.101,0.1,0.2,0.149,0.3c1,2.051,1.851,4.15,2.65,6.25c0.1,0.301,0.25,0.551,0.35,0.851c0.15,0.35,0.3,0.7,0.45,1.05
		c0.05,0.1,0.05,0.15,0.1,0.25c0.051,0.1,0.051,0.15,0.101,0.25c0.1,0.35,0.2,0.65,0.3,1c0.05,0.25,0.15,0.55,0.25,0.85
		c0.55,1.7,1.1,3.4,1.6,5.15c0.101,0.25,0.15,0.5,0.25,0.75c0.101,0.3,0.2,0.55,0.25,0.85c0.101,0.301,0.15,0.601,0.25,0.9
		c0.2,0.75,0.351,1.55,0.5,2.35c0.101,0.45,0.15,0.851,0.25,1.301c0.101,0.35,0.15,0.75,0.25,1.1c0.101,0.45,0.2,0.85,0.301,1.3
		c-4.051,3.4-8.4,6.45-13.051,9.101c-0.199-1.9-0.5-3.801-0.85-5.7c-0.2-1-0.45-1.95-0.65-2.95c-0.449-2.15-0.949-4.3-1.6-6.45
		c-0.2-0.7-0.45-1.399-0.7-2.1c-0.149-0.351-0.3-0.7-0.399-1.05c-0.101-0.301-0.2-0.601-0.301-0.9c-0.6-1.7-1.149-3.4-1.85-5.05
		c-3.2,2.35-6.5,4.6-10.05,6.649c-24.101,13.9-52.15,17.2-78.05,10.4c-8.4-6.65-15.551-14.85-21-24.2
		c27.85,17.25,63.149,18,91.899,1.4c3.7-2.101,7.101-4.55,10.351-7.101l-0.051-0.05l-0.05-0.05l-0.05-0.1l-0.15-0.2
		c-4.5-7.05-10-13.3-16.25-18.851c-0.399-0.35-0.85-0.75-1.25-1.1c-1.1-1-2.199-1.95-3.35-2.85c-0.8-0.601-1.65-1.2-2.5-1.75
		c-0.35-0.25-0.7-0.45-1.05-0.7c-1.4-1-2.9-1.95-4.4-2.851c-0.95,0.551-2,1-3.05,1.45c-0.6,0.25-1.2,0.5-1.8,0.8
		c-0.4,0.2-0.75,0.4-1.15,0.601c-0.45,0.25-0.95,0.5-1.399,0.7c-0.2,0.1-0.45,0.149-0.7,0.25c-0.2,0.1-0.4,0.149-0.601,0.25
		c-2.899,1.25-5.899,2.3-8.899,3.3c-0.15,0.1-0.351,0.149-0.5,0.2c-0.25,0.1-0.55,0.199-0.851,0.3c-0.1,0.05-0.25,0.1-0.35,0.1H330
		c-9.649,2.95-19.7,4.65-29.85,4.65h-0.45c-2.65-0.05-5.2-0.2-7.75-0.4c-0.1,0-0.25-0.05-0.35-0.05
		c-0.101-0.05-0.25-0.05-0.351-0.05c-2.3-0.2-4.5-0.5-6.75-0.851c-0.25-0.05-0.55-0.05-0.85-0.1c-0.351-0.05-0.75-0.1-1.15-0.15
		h-0.25c-0.1,0-0.149-0.05-0.25-0.05c-0.399-0.05-0.8-0.149-1.2-0.25c-0.25-0.1-0.5-0.149-0.75-0.2c-1.75-0.35-3.5-0.75-5.25-1.199
		c-0.199-0.051-0.449-0.101-0.649-0.15c-0.3-0.05-0.65-0.1-0.95-0.2c-0.1-0.05-0.25-0.05-0.35-0.1c-0.2-0.05-0.351-0.101-0.551-0.15
		c-0.75-0.2-1.5-0.45-2.25-0.7c-0.449-0.149-0.85-0.3-1.3-0.449c-0.3-0.15-0.649-0.25-1-0.351c-0.45-0.149-0.899-0.3-1.35-0.45
		c-0.9-4.899-1.351-9.949-1.351-15.1V349c1.801,0.75,3.601,1.45,5.4,2.1c0.95,0.351,1.95,0.65,2.9,0.95
		c2.149,0.7,4.25,1.351,6.399,1.851c0.65,0.149,1.351,0.3,2.05,0.399c0.4,0.101,0.851,0.15,1.25,0.25c0.4,0.101,0.75,0.15,1.15,0.25
		c1.65,0.3,3.35,0.65,5.05,0.851c-0.45-3.95-0.75-7.95-0.75-12c0-27.851,11.15-53.801,30.05-72.851c9.7-3.899,20.301-6.05,31.4-6.05
		c-28.9,15.5-47.2,45.7-47.2,78.9c0,4.3,0.4,8.449,1,12.55h0.5c8.3-0.351,16.5-1.95,24.4-4.601c0.45-0.149,0.899-0.3,1.35-0.449
		c1.5-0.45,2.95-0.95,4.4-1.551c0.85-0.35,1.75-0.8,2.6-1.199c0.45-0.2,0.9-0.45,1.351-0.65c1.55-0.75,3.1-1.55,4.649-2.4
		c0-1.1,0.15-2.199,0.25-3.3c0.05-0.7,0.15-1.35,0.2-2.05c0.05-0.4,0.05-0.85,0.05-1.25c0.05-0.55,0.05-1.05,0.101-1.6
		c0-0.25,0.05-0.5,0.1-0.75s0.05-0.45,0.1-0.65c0.4-3.15,0.95-6.25,1.601-9.35c0.05-0.15,0.05-0.351,0.1-0.5
		c0.05-0.301,0.15-0.65,0.2-0.95c0-0.05,0-0.15,0.05-0.25c0.05-0.101,0.101-0.15,0.101-0.25c2.3-9.851,5.8-19.351,10.899-28.15
		l0.05-0.1l0.051-0.05c0.05-0.101,0.1-0.15,0.149-0.25c1.351-2.2,2.75-4.351,4.2-6.45c0.1-0.15,0.15-0.25,0.25-0.351
		c0.05-0.05,0.15-0.149,0.2-0.25c1.3-1.85,2.7-3.649,4.1-5.399c0.2-0.2,0.351-0.45,0.55-0.7c0.2-0.3,0.45-0.6,0.7-0.9l0.15-0.199
		c0.05-0.101,0.1-0.15,0.149-0.2c0.25-0.3,0.5-0.55,0.75-0.8c0.2-0.2,0.4-0.45,0.601-0.65c1.2-1.35,2.399-2.65,3.649-3.95
		c0.15-0.2,0.351-0.35,0.5-0.55c0.2-0.25,0.45-0.5,0.65-0.7s0.45-0.45,0.65-0.649c0.55-0.551,1.1-1.051,1.699-1.551
		c0.351-0.3,0.7-0.649,1.051-0.949c0.3-0.25,0.6-0.551,0.899-0.801s0.65-0.55,0.95-0.85c5.05,1.8,9.85,4.05,14.4,6.75
		c-1.5,1.15-3,2.35-4.65,3.25c-0.65,0.55-1.3,1.15-1.95,1.75l-0.3,0.3c-1.65,1.5-3.25,3-4.8,4.601c-0.45,0.5-0.9,1.05-1.351,1.55
		c-0.25,0.3-0.55,0.649-0.85,1c-0.3,0.3-0.55,0.6-0.8,0.899c-1.101,1.301-2.2,2.601-3.25,3.95c3.649,1.55,7.3,3.3,10.8,5.351
		c24.1,13.899,41,36.6,48.05,62.449c-1.55,10.851-5.149,21.051-10.45,30.2C424.55,359.3,407.55,328.35,378.8,311.75z
		 M281.372,251.627c7.92-5.074,16.344-9.362,25.111-12.77c1.802-0.7,20.188-6.698,20.193-6.604
		c-0.022-0.404-0.057-0.799-0.074-1.206c-0.055-1.166-0.095-2.343-0.125-3.526c-0.005-0.195-0.011-0.39-0.015-0.585
		c-0.026-1.207-0.043-2.419-0.043-3.643c0-170.618-99.309-191.566-128.462-192.964c-4.544-0.218-7.431-0.237-7.917-0.239h-0.081
		c-0.486,0.002-3.373,0.021-7.917,0.239C152.889,31.727,53.581,52.675,53.581,223.293c0,29.942-7.838,54.954-21.016,68.54
		c-5.512,5.683-1.564,15.248,6.351,15.373c20.973,0.331,48.916-4.516,71.489-27.089c3.37-3.369,6.712-6.34,10.01-8.959
		c3.264-2.592,7.875-2.64,11.166-0.084c16.557,12.86,36.694,20.407,58.42,20.407c22.8,0,45.301-7.82,64.321-20.137
		C263.724,265.256,271.92,257.683,281.372,251.627z M190,268.752c-43.802,0-79.438-40.785-79.438-90.919
		c0-24.677,8.642-47.077,22.637-63.471c4.464-5.229,12.815-3.804,15.4,2.567c8.838,21.784,34.931,55.168,111.933,60.178
		c5.114,0.332,8.957,4.752,8.51,9.857C265.026,232.826,231.11,268.752,190,268.752z"/>
</g>
<g id="Guide">
</g>
</svg>
