<svg xmlns="http://www.w3.org/2000/svg" width="1000pt" height="1000pt" viewBox="0 0 1000 1000"><path d="M 729.167969 520.832031 C 614.0625 520.832031 520.832031 614.0625 520.832031 729.167969 C 520.832031 844.167969 614.0625 937.5 729.167969 937.5 C 844.167969 937.5 937.5 844.167969 937.5 729.167969 C 937.5 614.0625 844.167969 520.832031 729.167969 520.832031 Z M 789.167969 649.480469 C 781.460938 645.105469 773.542969 641.457031 765.519531 638.230469 L 765.3125 638.644531 C 765.207031 638.855469 765.101562 639.0625 765 639.269531 C 756.980469 654.6875 751.355469 671.148438 747.917969 688.125 C 747.707031 688.957031 747.605469 689.898438 747.394531 690.730469 C 746.769531 693.957031 746.042969 697.191406 745.625 700.519531 C 745.414062 702.5 745.207031 704.582031 745.105469 706.5625 C 745 707.605469 745 708.539062 744.894531 709.582031 C 744.582031 713.226562 744.480469 716.871094 744.371094 720.519531 C 746.351562 721.769531 748.230469 723.121094 750.101562 724.476562 C 751.144531 725.308594 752.292969 726.039062 753.4375 726.871094 C 754.167969 727.394531 755 727.914062 755.730469 728.328125 C 756.667969 728.851562 757.605469 729.476562 758.542969 730.101562 C 758.957031 730.414062 759.375 730.726562 759.792969 731.039062 C 760.105469 731.351562 760.417969 731.664062 760.835938 731.976562 C 766.148438 735.933594 771.148438 740.203125 776.042969 744.582031 C 776.253906 744.789062 776.460938 744.890625 776.667969 745.101562 C 777.296875 745.621094 777.921875 746.144531 778.441406 746.664062 L 778.859375 747.078125 L 779.273438 747.496094 C 794.585938 761.976562 808.023438 778.226562 818.648438 796.558594 C 818.753906 796.664062 818.855469 796.871094 818.960938 797.078125 C 819.066406 797.289062 819.066406 797.390625 819.167969 797.496094 C 821.878906 802.183594 824.167969 806.976562 826.460938 811.769531 C 826.566406 812.078125 826.667969 812.289062 826.773438 812.601562 C 826.878906 812.808594 826.980469 813.015625 827.082031 813.226562 C 829.167969 817.496094 830.941406 821.871094 832.605469 826.246094 C 832.8125 826.871094 833.125 827.394531 833.332031 828.019531 C 833.644531 828.746094 833.957031 829.476562 834.269531 830.207031 C 834.375 830.414062 834.375 830.519531 834.480469 830.726562 C 834.585938 830.933594 834.585938 831.039062 834.691406 831.246094 C 834.898438 831.976562 835.105469 832.601562 835.316406 833.332031 C 835.417969 833.851562 835.628906 834.476562 835.835938 835.101562 C 836.980469 838.644531 838.128906 842.183594 839.167969 845.832031 C 839.378906 846.351562 839.480469 846.871094 839.691406 847.394531 C 839.898438 848.019531 840.105469 848.539062 840.210938 849.164062 C 840.421875 849.792969 840.523438 850.417969 840.730469 851.039062 C 841.148438 852.601562 841.460938 854.269531 841.773438 855.933594 C 841.984375 856.871094 842.085938 857.707031 842.292969 858.644531 C 842.503906 859.375 842.605469 860.207031 842.816406 860.9375 C 843.023438 861.875 843.230469 862.707031 843.441406 863.644531 C 835.003906 870.730469 825.941406 877.082031 816.253906 882.605469 C 815.835938 878.648438 815.210938 874.6875 814.480469 870.730469 C 814.066406 868.648438 813.542969 866.667969 813.128906 864.585938 C 812.191406 860.105469 811.148438 855.628906 809.792969 851.148438 C 809.378906 849.691406 808.855469 848.234375 808.335938 846.773438 C 808.023438 846.042969 807.710938 845.316406 807.503906 844.585938 C 807.292969 843.957031 807.085938 843.332031 806.878906 842.710938 C 805.628906 839.167969 804.484375 835.628906 803.023438 832.191406 C 796.355469 837.085938 789.480469 841.773438 782.085938 846.042969 C 731.875 875 673.441406 881.875 619.480469 867.707031 C 601.980469 853.855469 587.082031 836.769531 575.730469 817.292969 C 633.753906 853.230469 707.292969 854.792969 767.1875 820.207031 C 774.894531 815.832031 781.980469 810.730469 788.753906 805.414062 L 788.644531 805.308594 L 788.542969 805.207031 L 788.4375 804.996094 L 788.125 804.582031 C 778.75 789.894531 767.292969 776.871094 754.269531 765.308594 C 753.441406 764.578125 752.5 763.746094 751.667969 763.015625 C 749.375 760.933594 747.085938 758.953125 744.6875 757.078125 C 743.019531 755.828125 741.25 754.578125 739.480469 753.433594 C 738.75 752.914062 738.019531 752.496094 737.292969 751.976562 C 734.375 749.890625 731.25 747.914062 728.125 746.035156 C 726.144531 747.183594 723.957031 748.117188 721.769531 749.054688 C 720.519531 749.578125 719.269531 750.097656 718.019531 750.722656 C 717.1875 751.140625 716.457031 751.554688 715.625 751.976562 C 714.6875 752.496094 713.644531 753.015625 712.710938 753.433594 C 712.292969 753.640625 711.773438 753.742188 711.253906 753.953125 C 710.835938 754.164062 710.417969 754.265625 710 754.476562 C 703.960938 757.078125 697.710938 759.265625 691.460938 761.351562 C 691.148438 761.558594 690.730469 761.660156 690.417969 761.765625 C 689.898438 761.976562 689.273438 762.179688 688.644531 762.390625 C 688.4375 762.496094 688.125 762.601562 687.917969 762.601562 L 687.5 762.601562 C 667.398438 768.746094 646.457031 772.289062 625.3125 772.289062 L 624.375 772.289062 C 618.855469 772.183594 613.542969 771.871094 608.230469 771.453125 C 608.019531 771.453125 607.707031 771.351562 607.5 771.351562 C 607.289062 771.246094 606.980469 771.246094 606.769531 771.246094 C 601.976562 770.828125 597.394531 770.203125 592.707031 769.472656 C 592.183594 769.367188 591.558594 769.367188 590.933594 769.265625 C 590.203125 769.160156 589.371094 769.054688 588.539062 768.953125 L 588.019531 768.953125 C 587.808594 768.953125 587.707031 768.847656 587.496094 768.847656 C 586.667969 768.742188 585.832031 768.539062 584.996094 768.328125 C 584.476562 768.117188 583.957031 768.015625 583.433594 767.910156 C 579.789062 767.179688 576.144531 766.347656 572.496094 765.414062 C 572.082031 765.304688 571.5625 765.203125 571.144531 765.101562 C 570.519531 764.996094 569.792969 764.890625 569.167969 764.683594 C 568.957031 764.578125 568.644531 764.578125 568.4375 764.476562 C 568.019531 764.371094 567.707031 764.265625 567.289062 764.164062 C 565.726562 763.746094 564.164062 763.226562 562.601562 762.703125 C 561.667969 762.394531 560.832031 762.078125 559.894531 761.769531 C 559.269531 761.457031 558.542969 761.246094 557.808594 761.039062 C 556.871094 760.726562 555.9375 760.414062 554.996094 760.101562 C 553.121094 749.894531 552.183594 739.371094 552.183594 728.640625 L 552.183594 727.082031 C 555.933594 728.644531 559.683594 730.105469 563.433594 731.457031 C 565.414062 732.191406 567.496094 732.8125 569.476562 733.4375 C 573.953125 734.894531 578.328125 736.253906 582.804688 737.292969 C 584.160156 737.605469 585.621094 737.917969 587.078125 738.125 C 587.910156 738.335938 588.851562 738.4375 589.679688 738.644531 C 590.515625 738.855469 591.242188 738.957031 592.078125 739.167969 C 595.515625 739.792969 599.054688 740.519531 602.597656 740.941406 C 601.660156 732.710938 601.035156 724.378906 601.035156 715.941406 C 601.035156 657.917969 624.265625 603.855469 663.640625 564.167969 C 683.847656 556.042969 705.933594 551.5625 729.054688 551.5625 C 668.847656 583.855469 630.722656 646.769531 630.722656 715.9375 C 630.722656 724.894531 631.554688 733.539062 632.804688 742.082031 L 633.847656 742.082031 C 651.140625 741.351562 668.222656 738.019531 684.679688 732.496094 C 685.617188 732.1875 686.554688 731.871094 687.492188 731.5625 C 690.617188 730.625 693.640625 729.582031 696.660156 728.332031 C 698.429688 727.601562 700.304688 726.664062 702.078125 725.832031 C 703.015625 725.417969 703.953125 724.894531 704.890625 724.480469 C 708.121094 722.917969 711.351562 721.25 714.578125 719.480469 C 714.578125 717.1875 714.890625 714.898438 715.097656 712.605469 C 715.203125 711.144531 715.410156 709.792969 715.515625 708.332031 C 715.617188 707.5 715.617188 706.5625 715.617188 705.730469 C 715.722656 704.582031 715.722656 703.542969 715.828125 702.394531 C 715.828125 701.875 715.933594 701.355469 716.039062 700.832031 C 716.140625 700.3125 716.140625 699.894531 716.246094 699.480469 C 717.078125 692.917969 718.226562 686.457031 719.582031 680 C 719.683594 679.6875 719.683594 679.269531 719.789062 678.957031 C 719.894531 678.332031 720.101562 677.605469 720.207031 676.980469 C 720.207031 676.875 720.207031 676.667969 720.308594 676.457031 C 720.414062 676.246094 720.519531 676.144531 720.519531 675.9375 C 725.3125 655.414062 732.605469 635.621094 743.226562 617.292969 L 743.332031 617.082031 L 743.4375 616.980469 C 743.542969 616.769531 743.644531 616.667969 743.746094 616.457031 C 746.5625 611.875 749.476562 607.394531 752.496094 603.019531 C 752.707031 602.707031 752.808594 602.5 753.019531 602.289062 C 753.121094 602.183594 753.332031 601.980469 753.433594 601.769531 C 756.144531 597.914062 759.058594 594.167969 761.976562 590.519531 C 762.394531 590.105469 762.707031 589.582031 763.121094 589.0625 C 763.539062 588.4375 764.058594 587.8125 764.582031 587.1875 L 764.894531 586.773438 C 764.996094 586.5625 765.101562 586.460938 765.203125 586.355469 C 765.726562 585.730469 766.246094 585.210938 766.765625 584.691406 C 767.183594 584.273438 767.601562 583.753906 768.019531 583.335938 C 770.519531 580.523438 773.015625 577.816406 775.621094 575.105469 C 775.933594 574.691406 776.351562 574.378906 776.664062 573.960938 C 777.078125 573.441406 777.601562 572.917969 778.015625 572.503906 C 778.433594 572.085938 778.953125 571.566406 779.371094 571.148438 C 780.515625 570.003906 781.664062 568.960938 782.910156 567.917969 C 783.640625 567.292969 784.367188 566.566406 785.101562 565.941406 C 785.726562 565.421875 786.351562 564.792969 786.972656 564.273438 C 787.597656 563.753906 788.328125 563.128906 788.953125 562.503906 C 799.472656 566.253906 809.472656 570.941406 818.953125 576.566406 C 815.828125 578.960938 812.703125 581.460938 809.265625 583.335938 C 807.910156 584.480469 806.554688 585.730469 805.203125 586.980469 L 804.578125 587.605469 C 801.140625 590.730469 797.804688 593.855469 794.578125 597.191406 C 793.640625 598.234375 792.703125 599.378906 791.761719 600.421875 C 791.242188 601.046875 790.617188 601.773438 789.992188 602.503906 C 789.367188 603.128906 788.847656 603.753906 788.324219 604.378906 C 786.03125 607.085938 783.742188 609.796875 781.554688 612.605469 C 789.15625 615.835938 796.761719 619.480469 804.054688 623.753906 C 854.261719 652.710938 889.472656 700.003906 904.160156 753.855469 C 900.929688 776.460938 893.429688 797.710938 882.386719 816.773438 C 884.480469 748.542969 849.0625 684.0625 789.167969 649.480469 Z M 586.191406 524.222656 C 602.691406 513.652344 620.242188 504.71875 638.507812 497.617188 C 642.261719 496.160156 680.566406 483.664062 680.574219 483.859375 C 680.527344 483.019531 680.457031 482.195312 680.421875 481.347656 C 680.304688 478.917969 680.222656 476.464844 680.160156 474.003906 C 680.148438 473.597656 680.136719 473.191406 680.128906 472.785156 C 680.074219 470.269531 680.039062 467.742188 680.039062 465.195312 C 680.039062 109.738281 473.144531 66.097656 412.410156 63.183594 C 402.945312 62.730469 396.929688 62.691406 395.917969 62.6875 L 395.746094 62.6875 C 394.734375 62.691406 388.722656 62.730469 379.253906 63.183594 C 318.519531 66.097656 111.628906 109.738281 111.628906 465.195312 C 111.628906 527.574219 95.296875 579.679688 67.84375 607.984375 C 56.359375 619.824219 64.585938 639.753906 81.074219 640.011719 C 124.769531 640.703125 182.984375 630.605469 230.011719 583.578125 C 237.03125 576.558594 243.992188 570.367188 250.863281 564.914062 C 257.664062 559.511719 267.269531 559.414062 274.128906 564.738281 C 308.621094 591.527344 350.574219 607.253906 395.835938 607.253906 C 443.335938 607.253906 490.210938 590.960938 529.835938 565.300781 C 549.425781 552.617188 566.5 536.839844 586.191406 524.222656 Z M 395.832031 559.898438 C 304.578125 559.898438 230.335938 474.929688 230.335938 370.484375 C 230.335938 319.074219 248.339844 272.410156 277.496094 238.253906 C 286.796875 227.359375 304.195312 230.328125 309.582031 243.601562 C 327.992188 288.984375 382.355469 358.535156 542.773438 368.972656 C 553.429688 369.664062 561.433594 378.871094 560.503906 389.507812 C 552.136719 485.054688 481.480469 559.898438 395.832031 559.898438 Z M 395.832031 559.898438"/></svg>