<?xml version="1.0" encoding="iso-8859-1"?>
<!-- Generator: Adobe Illustrator 23.0.4, SVG Export Plug-In . SVG Version: 6.00 Build 0)  -->
<svg version="1.1" xmlns="http://www.w3.org/2000/svg" xmlns:xlink="http://www.w3.org/1999/xlink" x="0px" y="0px"
	 viewBox="0 0 480 480" style="enable-background:new 0 0 480 480;" xml:space="preserve">
<g id="Layer_5_copy">
	<path d="M439.887,338.316l-10.538-157.389c-0.041-0.616-0.15-1.228-0.329-1.819C402.918,92.826,322.802,30,228.001,30H220
		C112.529,30,36.161,113.928,30.706,219.816c-0.384,7.445,0.183,14.911,1.514,22.247l16.917,93.183
		c0.531,2.924,2.639,5.312,5.474,6.203l338.088,106.256c4.084,1.283,8.455-0.875,9.918-4.898l36.808-101.222
		C439.803,340.54,439.962,339.427,439.887,338.316z M408.897,332.137l-193.588-49.211c-6.396-1.83-11.465-6.721-13.521-13.047
		l-21.304-65.541C177.71,191.848,187.214,180,200.009,180h201.439c4.204,0,7.691,3.254,7.98,7.449l9.421,136.383
		C419.224,329.268,414.177,333.479,408.897,332.137z"/>
</g>
<g id="Guide">
</g>
</svg>
