<svg xmlns="http://www.w3.org/2000/svg" width="1000pt" height="1000pt" viewBox="0 0 1000 1000"><path d="M 916.429688 704.824219 L 894.476562 376.929688 C 894.390625 375.648438 894.164062 374.371094 893.792969 373.140625 C 839.414062 193.386719 672.503906 62.5 475.003906 62.5 L 458.332031 62.5 C 234.433594 62.5 75.335938 237.351562 63.972656 457.949219 C 63.171875 473.460938 64.351562 489.015625 67.125 504.296875 L 102.367188 698.429688 C 103.476562 704.519531 107.867188 709.496094 113.773438 711.351562 L 818.121094 932.71875 C 826.632812 935.390625 835.738281 930.894531 838.785156 922.515625 L 915.46875 711.636719 C 916.257812 709.457031 916.585938 707.140625 916.429688 704.824219 Z M 851.867188 691.953125 L 448.558594 589.429688 C 435.234375 585.617188 424.675781 575.425781 420.390625 562.246094 L 376.007812 425.703125 C 370.230469 399.683594 390.027344 375 416.683594 375 L 836.351562 375 C 845.109375 375 852.371094 381.777344 852.976562 390.519531 L 872.601562 674.648438 C 873.382812 685.976562 862.867188 694.746094 851.867188 691.953125 Z M 851.867188 691.953125"/></svg>