<svg xmlns="http://www.w3.org/2000/svg" viewBox="0 0 480 480"><path d="M240,40C129.543,40,40,129.543,40,240s89.543,200,200,200s200-89.543,200-200S350.457,40,240,40z M237.913,70.025 C238.609,70.018,239.303,70,240,70c19.744,0,38.974,3.347,57.043,9.766c-0.365,0.331-0.731,0.662-1.097,0.994l-0.004,0.004 c-0.605,0.552-1.211,1.104-1.821,1.651c-0.711,0.649-1.434,1.28-2.156,1.912c-1.161,1.014-2.323,2.029-3.44,3.121 c-0.442,0.442-0.886,0.905-1.309,1.349c-0.453,0.441-0.88,0.915-1.308,1.389l-0.001,0.001c-0.331,0.367-0.663,0.734-1.006,1.086 c-2.517,2.598-4.953,5.234-7.349,7.973c-0.391,0.445-0.801,0.873-1.214,1.304c-0.503,0.524-1.009,1.052-1.483,1.615 c-0.094,0.112-0.188,0.234-0.283,0.358c-0.11,0.142-0.223,0.287-0.341,0.427c-0.503,0.594-0.966,1.227-1.431,1.861H272.8 c-0.354,0.484-0.711,0.97-1.085,1.44c-2.858,3.543-5.637,7.127-8.254,10.851c-0.132,0.185-0.267,0.356-0.4,0.527 c-0.175,0.223-0.347,0.442-0.506,0.681c-2.919,4.228-5.777,8.536-8.436,13.025c-0.099,0.173-0.213,0.339-0.328,0.506v0.001 l-0.082,0.119l-0.133,0.199c-10.228,17.696-17.354,36.882-21.984,56.711c-0.04,0.171-0.095,0.348-0.15,0.523v0.001 c-0.056,0.176-0.111,0.352-0.151,0.522c-0.146,0.636-0.256,1.279-0.366,1.92v0.001v0.001c-0.058,0.334-0.115,0.667-0.177,0.998 c-1.329,6.24-2.456,12.501-3.222,18.863c-0.055,0.421-0.135,0.842-0.215,1.265v0.001v0.001c-0.097,0.507-0.193,1.016-0.248,1.531 c-0.112,1.06-0.137,2.137-0.161,3.213c-0.02,0.847-0.038,1.691-0.101,2.524c-0.106,1.367-0.254,2.725-0.401,4.081v0.001v0.001 v0.001c-0.241,2.221-0.482,4.438-0.545,6.687c-3.101,1.712-6.221,3.322-9.401,4.832c-0.902,0.424-1.799,0.864-2.693,1.305h-0.001 h-0.001c-1.739,0.855-3.476,1.709-5.257,2.439c-2.892,1.207-5.855,2.188-8.826,3.17v0.001c-0.896,0.296-1.793,0.593-2.689,0.896 c-15.884,5.294-32.371,8.535-49.121,9.301c-0.181,0.01-0.357,0.024-0.533,0.04c-0.176,0.015-0.353,0.03-0.534,0.04 c-1.188-8.274-1.992-16.648-1.992-25.245C144.805,161.691,180.834,101.527,237.913,70.025z M119.792,119.792 c16.055-16.055,34.755-28.503,55.118-36.938c-36.988,38.164-58.866,89.676-58.866,144.948c0,8.193,0.604,16.226,1.511,24.178 c-3.44-0.426-6.8-1.092-10.166-1.759c-0.771-0.152-1.543-0.306-2.316-0.455c-0.842-0.169-1.69-0.319-2.539-0.471 c-1.385-0.247-2.772-0.494-4.145-0.818c-4.349-1.047-8.596-2.355-12.844-3.724c-1.953-0.604-3.905-1.208-5.818-1.893 c-3.287-1.172-6.524-2.448-9.715-3.796C70.253,194.007,87.904,151.68,119.792,119.792z M93.828,326.924 c-10.304-17.258-17.413-36.188-21.037-56.053c0.515,0.166,1.027,0.334,1.542,0.498c0.688,0.219,1.375,0.438,2.061,0.66 c0.885,0.283,1.762,0.584,2.638,0.886c1.497,0.516,2.993,1.03,4.529,1.45c0.357,0.106,0.722,0.192,1.085,0.278 c0.25,0.06,0.501,0.118,0.747,0.185c0.644,0.179,1.302,0.314,1.957,0.451h0.001c0.451,0.094,0.9,0.187,1.344,0.293 c3.503,0.906,7.026,1.672,10.569,2.376c0.51,0.109,1.01,0.235,1.51,0.359h0.001v0.001c0.783,0.195,1.563,0.391,2.375,0.525 c0.174,0.032,0.348,0.06,0.524,0.087h0.001h0.001l0.176,0.027l0.151,0.024l0.133,0.022c0.773,0.139,1.561,0.225,2.349,0.31h0.002 c0.586,0.064,1.173,0.128,1.756,0.214c4.489,0.705,8.999,1.309,13.549,1.731c0.252,0.01,0.498,0.045,0.745,0.08 c0.246,0.035,0.493,0.07,0.744,0.081v0.02c5.154,0.403,10.308,0.726,15.562,0.785c0.148,0,0.297,0.01,0.447,0.021h0.001 c0.156,0.01,0.314,0.021,0.478,0.021c20.434,0,40.626-3.402,60.093-9.321l0.203-0.043l0.17-0.032 c0.234-0.044,0.473-0.088,0.694-0.166c0.592-0.189,1.176-0.401,1.757-0.613h0.001v-0.001h0.002l0.002-0.001 c0.347-0.126,0.691-0.252,1.037-0.372c6.079-1.973,12.059-4.106,17.937-6.644c0.404-0.169,0.821-0.312,1.239-0.454l0.001-0.001 c0.478-0.163,0.956-0.327,1.418-0.531c0.949-0.426,1.864-0.929,2.778-1.432h0.001h0.001c0.771-0.424,1.541-0.848,2.333-1.226 c1.191-0.566,2.396-1.098,3.6-1.628l0.001-0.001c2.091-0.922,4.178-1.842,6.184-2.94c3.039,1.832,5.999,3.744,8.897,5.757 c0.704,0.481,1.414,0.953,2.124,1.425v0.001h0.001c1.729,1.148,3.456,2.298,5.083,3.567c2.348,1.794,4.547,3.746,6.744,5.695 c0.837,0.742,1.673,1.484,2.516,2.217c12.542,11.133,23.635,23.795,32.674,37.948c0.091,0.15,0.187,0.292,0.282,0.433l0.125,0.186 l0.089,0.138l0.068,0.109c-6.563,5.134-13.408,10.025-20.856,14.334C219.726,361.699,149.642,360.57,93.828,326.924z M240,410 c-37.761,0-73.637-12.239-103.116-34.823c51.4,12.791,106.759,5.938,154.475-21.605c7.106-4.106,13.77-8.656,20.191-13.407 c1.416,3.326,2.558,6.711,3.706,10.116c0.207,0.613,0.414,1.228,0.623,1.842c0.245,0.715,0.504,1.431,0.764,2.148 c0.508,1.401,1.018,2.809,1.431,4.233c1.309,4.308,2.274,8.656,3.221,13.024c0.443,1.974,0.886,3.946,1.269,5.939 c0.629,3.446,1.141,6.893,1.56,10.339C298.774,402.286,269.981,410,240,410z M388.315,323.228 c-7.538,13.384-16.949,25.822-28.107,36.98c-3.208,3.208-6.527,6.266-9.938,9.183c-0.102-0.464-0.2-0.929-0.304-1.394 c-0.165-0.746-0.33-1.492-0.49-2.242c-0.183-0.857-0.351-1.714-0.519-2.57c-0.312-1.598-0.625-3.192-1.031-4.778 c-0.161-0.604-0.343-1.228-0.523-1.832c-0.139-0.575-0.322-1.134-0.507-1.693v-0.001c-0.163-0.497-0.327-0.995-0.46-1.506 c-0.986-3.503-2.094-6.945-3.241-10.368c-0.196-0.58-0.366-1.169-0.537-1.758c-0.196-0.68-0.394-1.358-0.63-2.027 c-0.061-0.16-0.126-0.316-0.191-0.473s-0.131-0.312-0.191-0.473c-0.261-0.727-0.573-1.439-0.886-2.154 c-0.242-0.554-0.485-1.108-0.705-1.671c-1.65-4.248-3.361-8.436-5.294-12.603c-0.09-0.197-0.172-0.398-0.254-0.602 c-0.104-0.254-0.207-0.511-0.33-0.768c-2.194-4.63-4.47-9.261-7.046-13.79c-0.062-0.116-0.118-0.235-0.174-0.354h-0.001 c-0.089-0.19-0.177-0.379-0.289-0.552c-10.227-17.695-23.252-33.459-38.089-47.39c-0.142-0.132-0.273-0.269-0.402-0.402v-0.001 c-0.128-0.132-0.253-0.262-0.383-0.382c-0.543-0.514-1.12-0.992-1.697-1.472l-0.001-0.001c-0.193-0.16-0.386-0.319-0.576-0.48 c-4.731-4.268-9.562-8.375-14.677-12.2c-0.362-0.268-0.708-0.562-1.052-0.855v-0.001h-0.001c-0.38-0.325-0.76-0.649-1.161-0.935 c-0.859-0.636-1.773-1.191-2.686-1.746c-0.734-0.445-1.466-0.89-2.166-1.375c-1.104-0.758-2.188-1.55-3.271-2.342h-0.001 l-0.001-0.001c-1.823-1.332-3.646-2.664-5.564-3.837c0.08-3.544,0.241-7.066,0.523-10.59c0.081-0.973,0.146-1.949,0.211-2.928 c0.13-1.938,0.259-3.883,0.514-5.81c0.412-3.185,1.061-6.308,1.711-9.438v-0.001c0.176-0.846,0.353-1.691,0.523-2.54 c3.342-16.407,8.777-32.331,16.508-47.229c0.109-0.193,0.196-0.387,0.283-0.58c0.058-0.129,0.115-0.258,0.18-0.387 c7.751,3.121,15.421,6.624,22.85,10.892C355.476,196.809,389.55,258.065,388.315,323.228z M312.606,138.856 c-7.087-4.087-14.354-7.609-21.702-10.771c2.092-2.762,4.342-5.338,6.591-7.911c0.521-0.597,1.043-1.193,1.562-1.792 c0.594-0.674,1.173-1.359,1.75-2.045c0.891-1.055,1.779-2.108,2.719-3.109c3.08-3.261,6.382-6.281,9.663-9.261l0.624-0.573 c1.298-1.197,2.59-2.388,3.926-3.533c2.696-2.276,5.443-4.467,8.245-6.582c12.336,7.258,23.836,16.125,34.224,26.513 C392.317,151.9,410,194.592,410,240c0,7.394-0.478,14.713-1.4,21.929C393.99,210.973,360.36,166.428,312.606,138.856z"/></svg>