<svg xmlns="http://www.w3.org/2000/svg" width="1000pt" height="1000pt" viewBox="0 0 1000 1000"><path d="M 575.640625 690.722656 C 572.996094 682.203125 567.65625 674.453125 559.785156 668.941406 L 354.996094 525.546875 C 347.914062 520.585938 339.820312 518.140625 331.78125 518.015625 C 318.398438 517.785156 305.148438 523.992188 296.894531 535.777344 C 283.695312 554.628906 288.273438 580.613281 307.125 593.808594 L 477.800781 713.316406 L 358.386719 884.035156 C 345.195312 902.894531 349.789062 928.871094 368.644531 942.0625 C 375.917969 947.148438 384.246094 949.589844 392.492188 949.589844 L 392.53125 949.585938 L 392.566406 949.589844 C 405.707031 949.589844 418.640625 943.386719 426.742188 931.800781 L 562.582031 737.597656 L 562.582031 737.5 L 569.957031 726.953125 C 577.621094 715.996094 579.242188 702.652344 575.589844 690.796875 Z M 351.558594 675.738281 C 344.476562 670.777344 336.386719 668.332031 328.347656 668.207031 C 314.964844 667.976562 301.710938 674.183594 293.457031 685.972656 L 150.066406 890.757812 C 136.863281 909.609375 141.445312 935.589844 160.296875 948.789062 C 167.570312 953.882812 175.902344 956.328125 184.160156 956.328125 L 184.199219 956.324219 L 184.230469 956.328125 C 197.367188 956.328125 210.292969 950.128906 218.398438 938.554688 L 361.792969 733.769531 C 374.992188 714.921875 370.410156 688.9375 351.558594 675.738281 Z M 150.609375 559.347656 C 180.082031 553.742188 204.773438 535.605469 226.558594 519.605469 C 232.367188 515.339844 237.851562 511.316406 243.261719 507.621094 C 265.179688 492.671875 299.546875 469.222656 329.101562 468.734375 C 334.558594 468.648438 339.847656 469.347656 344.863281 471.027344 C 355.289062 474.523438 365.128906 481.191406 375.328125 488.582031 L 375.558594 488.792969 C 376.601562 489.6875 377.6875 490.535156 378.820312 491.328125 L 481.28125 563.097656 C 488.335938 568.039062 496.691406 570.636719 505.1875 570.636719 C 507.597656 570.636719 510.015625 570.425781 512.417969 570.003906 C 523.304688 568.082031 532.980469 561.921875 539.320312 552.867188 L 658.789062 382.257812 L 727.003906 430.019531 C 734.277344 435.113281 742.613281 437.558594 750.867188 437.558594 L 750.941406 437.558594 C 764.074219 437.558594 777.003906 431.363281 785.105469 419.789062 L 880.703125 283.265625 C 893.902344 264.414062 889.320312 238.429688 870.472656 225.234375 C 863.386719 220.273438 855.296875 217.828125 847.257812 217.703125 C 833.875 217.472656 820.621094 223.679688 812.367188 235.464844 L 740.695312 337.828125 L 672.488281 290.070312 L 672.402344 290.003906 L 570.011719 218.308594 L 569.929688 218.261719 L 467.695312 146.671875 C 460.609375 141.710938 452.519531 139.265625 444.480469 139.140625 C 431.097656 138.910156 417.847656 145.117188 409.589844 156.902344 L 276.894531 346.414062 C 263.695312 365.265625 268.277344 391.246094 287.128906 404.445312 C 294.210938 409.402344 302.300781 411.851562 310.339844 411.976562 C 320.832031 412.15625 331.230469 408.355469 339.214844 401.035156 L 339.191406 400.992188 C 341.371094 398.988281 343.386719 396.738281 345.15625 394.210938 L 355.476562 379.46875 L 360.191406 372.738281 L 360.21875 372.804688 C 365.765625 386.605469 374.128906 399.203125 385.152344 409.667969 C 389.242188 413.546875 393.683594 417.148438 398.496094 420.390625 C 399.582031 421.121094 400.679688 421.828125 401.789062 422.515625 C 402.160156 422.742188 402.535156 422.957031 402.90625 423.179688 C 403.644531 423.628906 404.382812 424.074219 405.128906 424.5 C 405.578125 424.757812 406.035156 424.992188 406.484375 425.242188 C 407.160156 425.613281 407.839844 425.992188 408.523438 426.347656 C 409.003906 426.597656 409.488281 426.832031 409.972656 427.074219 C 410.632812 427.402344 411.292969 427.738281 411.960938 428.054688 C 412.464844 428.296875 412.976562 428.519531 413.480469 428.75 C 414.136719 429.046875 414.789062 429.347656 415.445312 429.628906 C 415.960938 429.851562 416.488281 430.058594 417.007812 430.273438 C 417.660156 430.539062 418.3125 430.808594 418.964844 431.0625 C 419.496094 431.265625 420.03125 431.457031 420.566406 431.652344 C 421.21875 431.890625 421.871094 432.132812 422.527344 432.359375 C 423.070312 432.542969 423.613281 432.714844 424.152344 432.894531 C 424.804688 433.105469 425.460938 433.320312 426.117188 433.519531 C 426.667969 433.683594 427.21875 433.839844 427.769531 433.996094 C 428.425781 434.183594 429.085938 434.371094 429.742188 434.542969 C 430.296875 434.691406 430.851562 434.828125 431.410156 434.960938 C 432.070312 435.121094 432.730469 435.285156 433.394531 435.433594 C 433.957031 435.5625 434.519531 435.679688 435.082031 435.796875 C 435.738281 435.933594 436.398438 436.066406 437.058594 436.191406 C 437.628906 436.296875 438.203125 436.398438 438.773438 436.492188 C 439.179688 436.5625 439.585938 436.625 439.992188 436.691406 C 440.246094 436.730469 440.5 436.773438 440.753906 436.816406 C 441.324219 436.902344 441.898438 436.980469 442.472656 437.054688 C 443.132812 437.144531 443.796875 437.230469 444.457031 437.304688 C 445.039062 437.371094 445.617188 437.433594 446.195312 437.488281 C 446.855469 437.554688 447.515625 437.613281 448.175781 437.664062 C 448.757812 437.710938 449.339844 437.753906 449.925781 437.789062 C 450.585938 437.832031 451.246094 437.867188 451.910156 437.894531 C 452.492188 437.921875 453.078125 437.945312 453.664062 437.960938 C 454.320312 437.980469 454.984375 437.988281 455.644531 437.996094 C 455.984375 438 456.328125 438.015625 456.667969 438.015625 L 457.09375 438 C 459.148438 437.992188 461.203125 437.925781 463.257812 437.800781 C 463.574219 437.78125 463.894531 437.761719 464.210938 437.738281 L 464.734375 437.691406 C 466.609375 437.550781 468.480469 437.378906 470.351562 437.144531 C 470.667969 437.101562 470.984375 437.058594 471.300781 437.015625 C 473.347656 436.742188 475.386719 436.414062 477.417969 436.027344 C 477.726562 435.96875 478.035156 435.902344 478.339844 435.84375 C 480.382812 435.4375 482.417969 434.980469 484.445312 434.457031 C 484.730469 434.386719 485.011719 434.304688 485.296875 434.230469 C 487.339844 433.6875 489.378906 433.097656 491.398438 432.441406 C 491.644531 432.359375 491.890625 432.273438 492.136719 432.191406 C 494.191406 431.507812 496.238281 430.773438 498.261719 429.972656 L 498.820312 429.746094 C 500.898438 428.910156 502.960938 428.019531 505.003906 427.0625 L 505.328125 426.902344 C 507.0625 426.082031 508.769531 425.195312 510.472656 424.285156 C 510.847656 424.085938 511.230469 423.914062 511.601562 423.710938 C 512.859375 423.023438 513.722656 421.746094 513.886719 420.324219 C 518.601562 380.039062 502.503906 339.75 468.339844 316.730469 C 467.25 315.992188 466.148438 315.285156 465.042969 314.597656 C 464.730469 314.40625 464.414062 314.226562 464.105469 314.039062 C 463.300781 313.554688 462.5 313.070312 461.691406 312.605469 C 461.300781 312.386719 460.90625 312.179688 460.515625 311.960938 C 459.777344 311.554688 459.039062 311.144531 458.292969 310.757812 C 457.867188 310.539062 457.4375 310.328125 457.007812 310.113281 C 456.464844 309.839844 455.921875 309.570312 455.378906 309.308594 L 454.847656 309.042969 C 454.398438 308.832031 453.945312 308.636719 453.492188 308.425781 C 452.785156 308.105469 452.074219 307.777344 451.359375 307.476562 C 450.890625 307.269531 450.417969 307.082031 449.945312 306.894531 C 449.242188 306.605469 448.542969 306.316406 447.832031 306.042969 C 447.351562 305.855469 446.859375 305.679688 446.371094 305.503906 C 445.671875 305.246094 444.972656 304.984375 444.269531 304.746094 C 443.773438 304.574219 443.273438 304.417969 442.773438 304.253906 C 442.074219 304.027344 441.375 303.796875 440.671875 303.585938 C 440.167969 303.433594 439.65625 303.289062 439.148438 303.144531 C 438.449219 302.945312 437.746094 302.746094 437.046875 302.5625 C 436.53125 302.429688 436.015625 302.300781 435.503906 302.175781 C 434.800781 302.003906 434.097656 301.832031 433.390625 301.671875 C 432.871094 301.554688 432.347656 301.449219 431.824219 301.335938 C 431.125 301.195312 430.425781 301.050781 429.722656 300.917969 C 429.191406 300.820312 428.65625 300.726562 428.121094 300.636719 C 427.425781 300.515625 426.726562 300.402344 426.027344 300.296875 C 425.488281 300.214844 424.945312 300.140625 424.40625 300.070312 C 423.710938 299.976562 423.019531 299.886719 422.324219 299.808594 C 421.777344 299.746094 421.230469 299.6875 420.683594 299.632812 C 419.988281 299.566406 419.292969 299.503906 418.597656 299.449219 C 418.046875 299.40625 417.5 299.367188 416.949219 299.332031 C 416.257812 299.289062 415.5625 299.25 414.867188 299.222656 C 414.3125 299.195312 413.761719 299.175781 413.203125 299.160156 C 412.734375 299.144531 412.265625 299.140625 411.796875 299.132812 L 411.726562 299.132812 L 411.734375 299.121094 L 432.355469 269.667969 L 432.417969 269.679688 L 453.992188 238.863281 L 488.035156 262.699219 L 473.488281 283.453125 L 473.578125 283.496094 C 477.761719 285.710938 481.847656 288.140625 485.800781 290.808594 C 528.511719 319.589844 551.167969 370.605469 544.925781 423.949219 C 543.582031 435.410156 536.742188 445.566406 526.621094 451.113281 C 506.6875 462.039062 484.617188 468.207031 462.445312 469.128906 C 460.519531 469.207031 458.597656 469.261719 456.671875 469.261719 C 439.308594 469.261719 422.378906 466.011719 406.601562 459.761719 L 406.4375 459.699219 C 397.554688 456.167969 389.039062 451.703125 381.027344 446.300781 C 379.769531 445.453125 378.527344 444.582031 377.304688 443.695312 C 373.78125 441.140625 370.414062 438.425781 367.191406 435.574219 L 367.113281 435.507812 C 366.78125 435.210938 366.441406 434.925781 366.109375 434.628906 L 366.035156 434.5625 C 363.472656 433.460938 360.867188 432.425781 358.175781 431.519531 C 349.375 428.570312 340.507812 427.191406 331.6875 427.035156 C 300.273438 426.460938 269.492188 441.472656 244.695312 456.761719 C 244.332031 456.910156 243.976562 457.066406 243.617188 457.238281 C 211.636719 472.378906 182.804688 476.925781 159.117188 476.621094 C 119.625 476.101562 94.449219 462.085938 92.867188 461.179688 C 89.144531 458.988281 84.933594 458.0625 80.816406 458.355469 C 76.675781 458.636719 72.613281 460.148438 69.222656 462.863281 C 62.472656 468.257812 59.753906 477.257812 62.386719 485.484375 L 79.132812 537.800781 C 80.644531 542.53125 83.796875 546.5625 88.019531 549.171875 C 100.820312 557.085938 115.757812 561.148438 131.761719 561.148438 L 131.832031 561.148438 C 135.707031 561.148438 139.652344 560.910156 143.640625 560.429688 C 145.960938 560.148438 148.308594 559.785156 150.609375 559.347656 Z M 893.691406 741.222656 C 886.820312 724.035156 872.5625 711.113281 860.507812 697.578125 C 859.101562 696.003906 857.722656 694.402344 856.363281 692.785156 C 846.871094 681.449219 838.582031 669.117188 831.585938 656.09375 C 831.394531 655.734375 831.191406 655.3125 830.980469 654.855469 L 830.933594 654.753906 C 830.851562 654.566406 830.761719 654.363281 830.675781 654.167969 L 830.578125 653.945312 L 830.347656 653.394531 L 830.203125 653.050781 L 829.980469 652.507812 L 829.8125 652.097656 L 829.59375 651.546875 L 829.398438 651.066406 L 829.230469 650.636719 C 828.773438 649.492188 828.296875 648.269531 827.785156 646.996094 L 827.691406 646.765625 C 827.570312 646.472656 827.453125 646.179688 827.332031 645.886719 L 827.191406 645.546875 C 827.078125 645.265625 826.960938 644.984375 826.839844 644.703125 L 826.691406 644.335938 C 826.574219 644.066406 826.457031 643.789062 826.335938 643.511719 L 826.164062 643.113281 C 826.046875 642.839844 825.929688 642.570312 825.804688 642.300781 L 825.628906 641.898438 C 825.507812 641.632812 825.386719 641.367188 825.265625 641.105469 L 825.066406 640.675781 C 824.945312 640.417969 824.824219 640.160156 824.699219 639.90625 L 824.488281 639.476562 C 824.363281 639.226562 824.242188 638.976562 824.113281 638.726562 L 823.894531 638.292969 C 823.769531 638.050781 823.644531 637.808594 823.515625 637.570312 L 823.285156 637.148438 C 823.15625 636.910156 823.023438 636.671875 822.894531 636.4375 L 822.664062 636.039062 C 822.527344 635.808594 822.390625 635.578125 822.257812 635.355469 L 822.011719 634.960938 C 821.875 634.746094 821.738281 634.523438 821.597656 634.3125 L 821.347656 633.941406 C 821.207031 633.730469 821.066406 633.523438 820.921875 633.324219 L 820.664062 632.976562 C 820.519531 632.777344 820.371094 632.582031 820.226562 632.398438 L 819.960938 632.078125 L 819.507812 631.535156 L 819.25 631.261719 L 818.769531 630.75 L 818.546875 630.542969 C 817.976562 629.992188 817.382812 629.523438 816.773438 629.136719 L 816.460938 628.933594 L 816.035156 628.714844 L 815.640625 628.519531 L 815.226562 628.367188 L 814.800781 628.222656 L 814.390625 628.132812 L 813.933594 628.042969 L 813.527344 628.011719 L 813.0625 627.988281 C 812.726562 627.992188 812.382812 628.019531 812.039062 628.082031 C 804.949219 629.390625 803.699219 638.847656 803.460938 644.667969 C 803.445312 645.082031 803.417969 645.546875 803.390625 646.03125 L 803.375 646.289062 C 803.347656 646.761719 803.308594 647.265625 803.265625 647.796875 L 803.238281 648.160156 C 803.195312 648.699219 803.140625 649.257812 803.082031 649.84375 L 803.046875 650.164062 C 802.984375 650.75 802.917969 651.347656 802.835938 651.964844 L 802.816406 652.128906 C 802.734375 652.761719 802.640625 653.410156 802.539062 654.066406 L 802.476562 654.476562 C 802.375 655.117188 802.261719 655.757812 802.140625 656.40625 L 802.054688 656.847656 C 801.925781 657.503906 801.789062 658.160156 801.636719 658.8125 L 801.554688 659.148438 C 801.398438 659.792969 801.234375 660.429688 801.058594 661.058594 L 801.007812 661.238281 C 800.820312 661.890625 800.617188 662.523438 800.398438 663.144531 L 800.273438 663.507812 C 800.054688 664.105469 799.828125 664.683594 799.582031 665.246094 L 799.425781 665.597656 C 799.167969 666.160156 798.902344 666.699219 798.613281 667.207031 L 798.484375 667.421875 C 798.199219 667.914062 797.898438 668.378906 797.578125 668.808594 L 797.480469 668.945312 C 797.144531 669.382812 796.789062 669.769531 796.417969 670.128906 L 796.207031 670.335938 C 795.835938 670.671875 795.449219 670.964844 795.042969 671.210938 L 794.796875 671.351562 C 794.371094 671.589844 793.933594 671.789062 793.46875 671.921875 L 793.296875 671.960938 C 792.835938 672.078125 792.359375 672.144531 791.855469 672.152344 L 791.738281 672.171875 L 791.667969 672.164062 L 791.132812 672.121094 L 790.605469 672.074219 C 790.414062 672.042969 790.214844 671.988281 790.015625 671.941406 L 789.484375 671.816406 C 789.257812 671.746094 789.015625 671.648438 788.78125 671.554688 L 788.300781 671.378906 C 787.894531 671.199219 787.476562 670.992188 787.050781 670.75 C 783.308594 668.636719 779.027344 666.734375 775.113281 664.511719 C 769.328125 661.222656 764.347656 657.222656 763.175781 650.726562 C 763.089844 650.253906 763.066406 649.738281 763.023438 649.234375 C 762.992188 648.914062 762.933594 648.613281 762.921875 648.285156 C 762.894531 647.429688 762.929688 646.539062 763.027344 645.605469 C 763.097656 644.964844 763.171875 644.320312 763.25 643.667969 C 763.484375 641.714844 763.722656 639.71875 763.722656 637.78125 C 763.71875 635.199219 763.289062 632.71875 761.851562 630.585938 C 761.535156 630.117188 761.203125 629.695312 760.859375 629.292969 L 760.566406 628.964844 C 760.3125 628.6875 760.058594 628.421875 759.796875 628.179688 L 759.445312 627.863281 C 759.167969 627.628906 758.890625 627.40625 758.605469 627.203125 L 758.308594 626.988281 C 757.917969 626.730469 757.523438 626.492188 757.117188 626.289062 L 756.972656 626.222656 C 756.613281 626.046875 756.253906 625.894531 755.882812 625.761719 L 755.480469 625.628906 C 755.183594 625.535156 754.882812 625.449219 754.578125 625.378906 L 754.140625 625.277344 C 753.8125 625.210938 753.480469 625.164062 753.140625 625.121094 L 752.804688 625.078125 C 752.359375 625.035156 751.910156 625.015625 751.457031 625.015625 L 751.160156 625.023438 C 750.761719 625.027344 750.363281 625.046875 749.960938 625.078125 L 749.492188 625.121094 C 749.101562 625.167969 748.707031 625.222656 748.308594 625.285156 L 747.96875 625.339844 C 747.472656 625.429688 746.972656 625.539062 746.472656 625.664062 L 746.046875 625.773438 C 745.664062 625.875 745.28125 625.984375 744.898438 626.101562 L 744.414062 626.25 C 743.964844 626.394531 743.519531 626.546875 743.070312 626.710938 L 742.871094 626.78125 C 742.363281 626.972656 741.859375 627.171875 741.351562 627.386719 L 740.886719 627.582031 C 740.507812 627.746094 740.128906 627.914062 739.746094 628.085938 L 739.316406 628.285156 C 738.816406 628.519531 738.316406 628.761719 737.820312 629.011719 L 737.636719 629.105469 C 737.191406 629.328125 736.746094 629.558594 736.308594 629.792969 L 735.882812 630.019531 C 735.492188 630.230469 735.105469 630.441406 734.722656 630.65625 L 734.410156 630.828125 C 733.929688 631.101562 733.453125 631.371094 732.984375 631.644531 L 732.730469 631.792969 C 732.335938 632.023438 731.945312 632.257812 731.5625 632.484375 L 731.226562 632.683594 C 730.203125 633.296875 729.230469 633.894531 728.3125 634.460938 C 728.085938 634.597656 727.863281 634.734375 727.648438 634.867188 L 727.128906 635.183594 C 726.75 635.414062 726.382812 635.636719 726.027344 635.847656 C 711.570312 644.484375 692.265625 646.445312 679.257812 656.976562 C 672.917969 662.109375 669.089844 669.335938 664.683594 676.074219 C 662.039062 680.113281 659.183594 683.976562 655.457031 687.105469 C 648.546875 692.902344 639.886719 695.621094 631.578125 698.976562 C 625.988281 701.238281 620.554688 703.785156 615.925781 707.761719 C 604.339844 717.714844 602.777344 731.164062 605.101562 744.632812 C 605.777344 748.582031 606.773438 752.53125 607.972656 756.394531 C 608.324219 757.527344 608.695312 758.660156 609.074219 759.777344 C 609.3125 760.484375 609.546875 761.210938 609.773438 761.953125 C 609.855469 762.210938 609.933594 762.480469 610.011719 762.742188 C 610.15625 763.230469 610.304688 763.722656 610.449219 764.222656 C 610.542969 764.554688 610.636719 764.902344 610.730469 765.242188 C 610.851562 765.679688 610.972656 766.113281 611.089844 766.554688 C 611.195312 766.941406 611.296875 767.328125 611.394531 767.714844 C 611.507812 768.140625 611.617188 768.558594 611.726562 768.988281 C 611.828125 769.382812 611.925781 769.789062 612.027344 770.191406 C 612.136719 770.621094 612.242188 771.046875 612.347656 771.480469 C 612.457031 771.917969 612.566406 772.359375 612.671875 772.800781 C 612.773438 773.226562 612.878906 773.648438 612.980469 774.078125 C 613.15625 774.816406 613.335938 775.554688 613.515625 776.300781 C 613.597656 776.640625 613.679688 776.988281 613.765625 777.332031 C 613.902344 777.910156 614.042969 778.488281 614.183594 779.070312 C 614.269531 779.425781 614.359375 779.777344 614.445312 780.132812 C 614.574219 780.644531 614.699219 781.15625 614.828125 781.667969 C 614.925781 782.054688 615.023438 782.441406 615.121094 782.828125 L 615.492188 784.273438 C 615.597656 784.667969 615.703125 785.070312 615.808594 785.464844 C 615.933594 785.933594 616.058594 786.40625 616.191406 786.875 C 616.300781 787.273438 616.410156 787.671875 616.523438 788.066406 C 616.652344 788.535156 616.789062 789.003906 616.925781 789.464844 C 617.042969 789.859375 617.15625 790.253906 617.273438 790.640625 C 617.414062 791.101562 617.558594 791.558594 617.699219 792.015625 C 617.828125 792.410156 617.949219 792.800781 618.078125 793.195312 C 618.226562 793.640625 618.378906 794.082031 618.527344 794.523438 C 618.660156 794.914062 618.796875 795.300781 618.929688 795.6875 C 619.089844 796.128906 619.25 796.5625 619.414062 796.996094 C 619.554688 797.375 619.699219 797.753906 619.84375 798.128906 C 620.011719 798.554688 620.1875 798.980469 620.363281 799.402344 C 620.515625 799.769531 620.667969 800.140625 620.824219 800.496094 C 621.007812 800.914062 621.199219 801.324219 621.386719 801.734375 C 621.550781 802.089844 621.710938 802.449219 621.882812 802.796875 C 622.078125 803.203125 622.285156 803.597656 622.492188 803.996094 C 622.664062 804.332031 622.835938 804.671875 623.015625 804.996094 C 623.234375 805.398438 623.464844 805.785156 623.691406 806.171875 C 623.871094 806.484375 624.050781 806.800781 624.238281 807.101562 C 624.480469 807.492188 624.738281 807.871094 624.988281 808.253906 C 625.179688 808.535156 625.359375 808.824219 625.554688 809.101562 C 625.832031 809.492188 626.121094 809.867188 626.414062 810.242188 C 626.601562 810.488281 626.78125 810.738281 626.972656 810.980469 C 627.335938 811.421875 627.714844 811.84375 628.097656 812.261719 L 628.496094 812.722656 C 629.023438 813.277344 629.570312 813.808594 630.136719 814.320312 L 630.660156 814.75 C 631.066406 815.097656 631.472656 815.445312 631.902344 815.765625 C 632.140625 815.945312 632.394531 816.101562 632.640625 816.269531 C 633.023438 816.535156 633.394531 816.804688 633.792969 817.042969 C 634.074219 817.214844 634.371094 817.363281 634.660156 817.523438 C 635.046875 817.738281 635.421875 817.957031 635.824219 818.152344 C 636.136719 818.300781 636.464844 818.433594 636.785156 818.570312 C 637.183594 818.742188 637.582031 818.921875 637.992188 819.074219 C 638.335938 819.199219 638.699219 819.304688 639.050781 819.417969 C 639.464844 819.546875 639.882812 819.683594 640.3125 819.796875 C 640.6875 819.894531 641.074219 819.972656 641.460938 820.054688 C 641.898438 820.148438 642.335938 820.242188 642.792969 820.316406 C 643.195312 820.382812 643.613281 820.425781 644.027344 820.476562 C 644.488281 820.527344 644.953125 820.582031 645.429688 820.613281 C 645.863281 820.644531 646.308594 820.660156 646.753906 820.667969 C 647.296875 820.683594 647.839844 820.699219 648.398438 820.6875 C 648.640625 820.683594 648.886719 820.675781 649.132812 820.667969 C 650.019531 820.628906 650.917969 820.574219 651.851562 820.472656 L 651.863281 820.472656 C 676.519531 817.757812 696.285156 798.335938 721.183594 797.460938 C 721.664062 797.445312 722.144531 797.433594 722.617188 797.433594 C 722.867188 797.433594 723.109375 797.457031 723.359375 797.460938 C 723.777344 797.46875 724.191406 797.484375 724.601562 797.503906 C 725.089844 797.527344 725.582031 797.5625 726.0625 797.605469 C 726.464844 797.640625 726.871094 797.679688 727.269531 797.730469 C 727.742188 797.785156 728.210938 797.855469 728.679688 797.925781 C 729.074219 797.988281 729.464844 798.050781 729.851562 798.125 C 730.316406 798.210938 730.769531 798.308594 731.222656 798.414062 C 731.605469 798.496094 731.984375 798.585938 732.359375 798.679688 C 732.808594 798.796875 733.253906 798.921875 733.695312 799.054688 C 734.066406 799.164062 734.433594 799.269531 734.800781 799.390625 C 735.238281 799.53125 735.671875 799.683594 736.105469 799.839844 C 736.460938 799.96875 736.820312 800.097656 737.175781 800.234375 C 737.605469 800.398438 738.035156 800.578125 738.457031 800.761719 C 738.804688 800.90625 739.152344 801.050781 739.496094 801.207031 C 739.921875 801.398438 740.339844 801.601562 740.757812 801.800781 C 741.097656 801.964844 741.433594 802.125 741.765625 802.296875 C 742.183594 802.511719 742.601562 802.734375 743.019531 802.960938 C 743.34375 803.136719 743.671875 803.308594 743.996094 803.492188 C 744.417969 803.730469 744.832031 803.976562 745.253906 804.226562 C 745.558594 804.414062 745.875 804.59375 746.183594 804.785156 C 746.609375 805.046875 747.035156 805.324219 747.460938 805.597656 C 747.753906 805.785156 748.050781 805.96875 748.339844 806.160156 C 748.777344 806.449219 749.210938 806.742188 749.640625 807.039062 C 749.921875 807.230469 750.203125 807.417969 750.480469 807.613281 C 750.933594 807.929688 751.386719 808.257812 751.835938 808.582031 C 752.085938 808.761719 752.339844 808.941406 752.59375 809.125 C 753.089844 809.488281 753.589844 809.859375 754.085938 810.234375 C 754.292969 810.386719 754.492188 810.535156 754.699219 810.691406 C 755.242188 811.101562 755.785156 811.515625 756.324219 811.933594 L 756.808594 812.304688 C 757.511719 812.851562 758.210938 813.394531 758.914062 813.945312 C 767.917969 821.007812 776.910156 828.097656 785.515625 835.636719 C 792.691406 841.925781 799 849.273438 807.425781 854.027344 C 808.117188 854.421875 808.824219 854.777344 809.539062 855.117188 C 809.734375 855.210938 809.929688 855.292969 810.128906 855.382812 C 810.648438 855.617188 811.171875 855.847656 811.703125 856.058594 C 811.953125 856.160156 812.210938 856.253906 812.464844 856.351562 C 812.953125 856.53125 813.449219 856.707031 813.945312 856.867188 C 814.214844 856.953125 814.488281 857.042969 814.761719 857.121094 C 815.265625 857.273438 815.773438 857.414062 816.289062 857.546875 C 816.546875 857.613281 816.808594 857.679688 817.070312 857.746094 C 817.652344 857.882812 818.246094 858.003906 818.839844 858.117188 C 819.03125 858.152344 819.21875 858.195312 819.410156 858.230469 C 820.191406 858.367188 820.980469 858.480469 821.773438 858.574219 L 822.332031 858.628906 C 822.941406 858.6875 823.550781 858.746094 824.164062 858.78125 C 824.457031 858.800781 824.753906 858.808594 825.046875 858.824219 C 825.558594 858.84375 826.074219 858.863281 826.585938 858.867188 C 826.875 858.867188 827.164062 858.867188 827.453125 858.863281 C 828.199219 858.855469 828.945312 858.832031 829.691406 858.792969 C 829.886719 858.777344 830.082031 858.773438 830.273438 858.761719 C 831.183594 858.699219 832.089844 858.609375 833.003906 858.492188 C 833.242188 858.464844 833.488281 858.425781 833.730469 858.390625 C 834.441406 858.292969 835.152344 858.175781 835.859375 858.046875 C 836.117188 858.003906 836.378906 857.953125 836.636719 857.902344 C 837.539062 857.722656 838.433594 857.523438 839.324219 857.296875 L 839.757812 857.175781 C 840.519531 856.972656 841.277344 856.746094 842.035156 856.511719 C 842.304688 856.425781 842.578125 856.335938 842.847656 856.246094 C 843.578125 856.003906 844.304688 855.738281 845.023438 855.460938 L 845.503906 855.28125 C 846.355469 854.945312 847.195312 854.578125 848.023438 854.195312 C 848.261719 854.082031 848.496094 853.96875 848.734375 853.855469 C 849.371094 853.546875 850.003906 853.222656 850.628906 852.890625 C 850.851562 852.765625 851.082031 852.648438 851.304688 852.523438 C 852.097656 852.082031 852.878906 851.621094 853.640625 851.136719 L 854.113281 850.824219 C 854.738281 850.417969 855.351562 849.996094 855.953125 849.5625 C 856.175781 849.398438 856.398438 849.238281 856.617188 849.070312 C 857.261719 848.585938 857.890625 848.085938 858.503906 847.570312 L 858.773438 847.351562 C 859.453125 846.765625 860.109375 846.15625 860.746094 845.535156 L 861.300781 844.976562 C 861.792969 844.476562 862.269531 843.964844 862.734375 843.441406 L 863.195312 842.925781 C 863.769531 842.25 864.320312 841.558594 864.847656 840.847656 L 865.199219 840.339844 C 865.613281 839.761719 866.007812 839.171875 866.382812 838.566406 C 866.523438 838.34375 866.664062 838.117188 866.796875 837.890625 C 867.242188 837.144531 867.671875 836.378906 868.054688 835.597656 L 868.09375 835.527344 C 868.996094 833.699219 869.742188 831.816406 870.398438 829.898438 C 872.363281 824.148438 873.519531 818.105469 875.527344 812.386719 C 879.703125 800.523438 884.984375 789.109375 889.519531 777.382812 C 894.050781 765.644531 898.648438 753.613281 893.691406 741.222656 Z M 841.304688 876.058594 C 832.121094 877.253906 815.464844 872.777344 816.726562 887.691406 C 817.082031 891.886719 818.625 896.296875 821.007812 900.320312 C 825.042969 907.132812 831.488281 912.824219 838.722656 914.429688 C 850.226562 916.988281 857.042969 904.425781 859.511719 894.429688 C 859.730469 893.539062 859.929688 892.660156 860.078125 891.820312 C 860.925781 887.105469 860.910156 880.015625 857.167969 876.351562 C 852.261719 871.542969 846.992188 875.320312 841.304688 876.058594 Z M 628.457031 208.332031 C 644.453125 219.535156 661.992188 224.722656 679.019531 224.296875 C 703.941406 223.695312 727.789062 211.070312 744.175781 187.667969 C 771.746094 148.289062 763.09375 99.1875 723.714844 71.613281 C 707.714844 60.414062 690.109375 55.1875 672.992188 55.578125 C 647.957031 56.121094 623.964844 68.667969 607.578125 92.074219 C 580.007812 131.453125 589.078125 180.761719 628.457031 208.332031 Z M 628.457031 208.332031"/></svg>