<svg xmlns="http://www.w3.org/2000/svg" viewBox="0 0 480 480"><path d="M276.307,331.547c-1.268-4.089-3.832-7.81-7.61-10.455l-98.299-68.829c-3.4-2.381-7.284-3.556-11.143-3.615 c-6.424-0.111-12.784,2.869-16.746,8.526c-6.336,9.048-4.137,21.52,4.911,27.854l81.924,57.363l-57.319,81.946 c-6.331,9.052-4.126,21.521,4.925,27.853c3.49,2.441,7.488,3.613,11.446,3.613l0.019-0.001l0.016,0.001 c6.309,0,12.517-2.978,16.406-8.538l65.203-93.218l-0.001-0.047l3.541-5.062c3.678-5.259,4.457-11.665,2.704-17.356 L276.307,331.547z M168.749,324.355c-3.4-2.381-7.283-3.556-11.143-3.615c-6.423-0.111-12.784,2.869-16.746,8.526l-68.829,98.298 c-6.336,9.048-4.137,21.52,4.911,27.854c3.492,2.445,7.492,3.619,11.454,3.619l0.02-0.001l0.015,0.001 c6.305,0,12.51-2.975,16.4-8.53l68.829-98.298C179.996,343.162,177.797,330.69,168.749,324.355z M72.293,268.486 c14.146-2.689,25.999-11.395,36.455-19.075c2.788-2.047,5.42-3.98,8.017-5.752c10.521-7.177,27.018-18.432,41.204-18.667 c2.619-0.04,5.158,0.295,7.566,1.102c5.004,1.678,9.727,4.878,14.622,8.425l0.112,0.101c0.499,0.43,1.021,0.836,1.565,1.217 l49.181,34.449c3.386,2.372,7.396,3.619,11.475,3.619c1.156,0,2.317-0.101,3.471-0.304c5.225-0.921,9.869-3.879,12.912-8.225 l57.346-81.893l32.743,22.927c3.492,2.445,7.492,3.619,11.454,3.619h0.035c6.305-0.001,12.51-2.975,16.4-8.53l45.886-65.532 c6.336-9.049,4.137-21.52-4.911-27.854c-3.4-2.381-7.283-3.556-11.143-3.615c-6.423-0.111-12.784,2.869-16.746,8.526 l-34.404,49.133l-32.738-22.923l-0.041-0.032l-49.149-34.414l-0.038-0.023l-49.074-34.362c-3.4-2.381-7.283-3.556-11.143-3.615 c-6.423-0.111-12.784,2.868-16.746,8.526l-63.694,90.965c-6.336,9.048-4.137,21.52,4.911,27.854 c3.4,2.381,7.283,3.556,11.143,3.615c5.036,0.087,10.026-1.737,13.859-5.251l-0.011-0.02c1.047-0.963,2.014-2.043,2.863-3.256 l4.954-7.076l2.262-3.23h0.001l0.013,0.031c2.662,6.624,6.676,12.672,11.968,17.695c1.963,1.862,4.095,3.59,6.405,5.146 c0.522,0.352,1.049,0.691,1.58,1.021c0.178,0.109,0.358,0.212,0.537,0.319c0.354,0.214,0.708,0.429,1.066,0.633 c0.216,0.123,0.435,0.237,0.651,0.356c0.325,0.179,0.651,0.36,0.979,0.531c0.23,0.12,0.464,0.232,0.695,0.348 c0.318,0.159,0.635,0.32,0.955,0.472c0.242,0.115,0.487,0.222,0.73,0.333c0.314,0.143,0.627,0.286,0.942,0.422 c0.249,0.106,0.501,0.206,0.751,0.309c0.312,0.128,0.626,0.258,0.94,0.379c0.255,0.098,0.511,0.189,0.767,0.283 c0.314,0.115,0.628,0.23,0.943,0.339c0.259,0.089,0.52,0.172,0.779,0.257c0.314,0.102,0.629,0.204,0.944,0.3 c0.264,0.08,0.528,0.154,0.793,0.229c0.315,0.09,0.631,0.18,0.947,0.263c0.266,0.07,0.532,0.136,0.799,0.2 c0.317,0.078,0.635,0.156,0.953,0.228c0.27,0.061,0.54,0.117,0.811,0.173c0.315,0.066,0.632,0.13,0.948,0.189 c0.274,0.051,0.549,0.1,0.823,0.146c0.195,0.033,0.391,0.063,0.586,0.094c0.122,0.02,0.243,0.041,0.364,0.06 c0.275,0.042,0.551,0.079,0.826,0.116c0.317,0.043,0.635,0.083,0.953,0.119c0.278,0.032,0.556,0.062,0.834,0.089 c0.316,0.031,0.634,0.06,0.951,0.084c0.279,0.022,0.559,0.042,0.839,0.06c0.317,0.021,0.635,0.037,0.952,0.051 c0.28,0.013,0.562,0.023,0.842,0.031c0.316,0.009,0.634,0.014,0.951,0.017c0.164,0.002,0.328,0.009,0.492,0.009l0.204-0.007 c0.986-0.004,1.973-0.036,2.959-0.096c0.152-0.009,0.305-0.019,0.457-0.029l0.252-0.024c0.899-0.066,1.798-0.149,2.695-0.262 c0.152-0.02,0.305-0.04,0.457-0.061c0.981-0.131,1.96-0.289,2.936-0.475c0.148-0.028,0.296-0.059,0.443-0.088 c0.98-0.195,1.957-0.415,2.929-0.665c0.137-0.035,0.272-0.073,0.409-0.109c0.982-0.261,1.959-0.545,2.929-0.86 c0.118-0.038,0.236-0.08,0.354-0.119c0.987-0.328,1.969-0.681,2.941-1.065l0.267-0.109c0.998-0.401,1.989-0.828,2.969-1.288 l0.156-0.076c0.832-0.394,1.652-0.82,2.469-1.257c0.18-0.096,0.363-0.178,0.542-0.275c0.603-0.33,1.017-0.944,1.097-1.627 c2.262-19.337-5.465-38.675-21.863-49.725c-0.523-0.353-1.052-0.693-1.583-1.023c-0.149-0.092-0.301-0.178-0.45-0.269 c-0.385-0.232-0.77-0.465-1.158-0.687c-0.188-0.106-0.377-0.205-0.565-0.309c-0.354-0.196-0.709-0.393-1.066-0.579 c-0.204-0.105-0.411-0.205-0.617-0.309c-0.26-0.131-0.521-0.26-0.782-0.386l-0.256-0.127c-0.215-0.102-0.433-0.196-0.649-0.296 c-0.341-0.154-0.681-0.311-1.024-0.457c-0.225-0.098-0.452-0.188-0.679-0.279c-0.337-0.139-0.674-0.278-1.014-0.409 c-0.232-0.09-0.467-0.173-0.701-0.259c-0.336-0.123-0.672-0.248-1.01-0.363c-0.238-0.082-0.478-0.158-0.717-0.236 c-0.336-0.109-0.672-0.219-1.009-0.32c-0.243-0.073-0.488-0.143-0.731-0.212c-0.336-0.096-0.673-0.191-1.01-0.28 c-0.247-0.064-0.494-0.125-0.741-0.186c-0.337-0.083-0.675-0.165-1.013-0.241c-0.25-0.056-0.501-0.108-0.752-0.161 c-0.336-0.069-0.672-0.138-1.009-0.201c-0.256-0.048-0.512-0.092-0.769-0.136c-0.334-0.058-0.669-0.112-1.004-0.163 c-0.26-0.039-0.52-0.074-0.779-0.109c-0.333-0.045-0.666-0.087-1-0.125c-0.262-0.03-0.524-0.058-0.787-0.084 c-0.333-0.032-0.667-0.062-1.001-0.088c-0.264-0.021-0.527-0.04-0.792-0.057c-0.332-0.021-0.665-0.039-0.998-0.053 c-0.267-0.012-0.532-0.022-0.799-0.029c-0.225-0.007-0.45-0.009-0.676-0.013l-0.033-0.001l0.003-0.004l9.899-14.138l0.03,0.005 l10.356-14.791l16.339,11.44l-6.981,9.962l0.042,0.022c2.009,1.063,3.969,2.229,5.868,3.51 c20.501,13.814,31.375,38.302,28.38,63.907c-0.645,5.501-3.928,10.375-8.786,13.038c-9.569,5.244-20.163,8.206-30.805,8.647 c-0.924,0.038-1.848,0.064-2.771,0.064c-8.334,0-16.462-1.56-24.035-4.559l-0.078-0.031c-4.263-1.694-8.352-3.838-12.197-6.43 c-0.604-0.407-1.199-0.826-1.787-1.252c-1.691-1.225-3.308-2.529-4.855-3.898l-0.036-0.031c-0.16-0.143-0.324-0.279-0.482-0.422 l-0.037-0.032c-1.229-0.528-2.479-1.026-3.771-1.46c-4.225-1.416-8.481-2.079-12.715-2.153 c-15.079-0.276-29.853,6.93-41.756,14.269c-0.174,0.071-0.346,0.146-0.518,0.229c-15.351,7.266-29.189,9.449-40.56,9.303 c-18.956-0.25-31.04-6.977-31.8-7.411c-1.787-1.052-3.807-1.497-5.784-1.356c-1.988,0.135-3.937,0.861-5.565,2.163 c-3.24,2.589-4.545,6.91-3.281,10.859l8.037,25.112c0.727,2.27,2.239,4.205,4.266,5.458c6.144,3.798,13.315,5.749,20.996,5.749 h0.034c1.861,0,3.754-0.115,5.668-0.346C70.062,268.872,71.188,268.697,72.293,268.486z M428.972,355.786 c-3.299-8.249-10.142-14.452-15.929-20.948c-0.674-0.757-1.337-1.524-1.988-2.302c-4.556-5.44-8.536-11.36-11.893-17.611 c-0.093-0.173-0.19-0.375-0.291-0.595l-0.023-0.049c-0.04-0.09-0.082-0.186-0.123-0.281l-0.048-0.107l-0.111-0.264l-0.069-0.164 l-0.106-0.261l-0.081-0.198l-0.105-0.264l-0.093-0.231l-0.082-0.206c-0.218-0.549-0.448-1.136-0.694-1.746l-0.045-0.112 c-0.057-0.14-0.114-0.28-0.172-0.421l-0.067-0.164c-0.055-0.135-0.111-0.27-0.168-0.405l-0.073-0.175 c-0.056-0.131-0.112-0.264-0.169-0.396l-0.083-0.192c-0.057-0.13-0.113-0.26-0.172-0.39l-0.086-0.193 c-0.058-0.127-0.115-0.254-0.174-0.381l-0.096-0.206c-0.058-0.124-0.116-0.247-0.175-0.369l-0.101-0.206 c-0.06-0.121-0.119-0.24-0.18-0.36l-0.106-0.208c-0.06-0.116-0.12-0.232-0.182-0.348l-0.11-0.201 c-0.062-0.115-0.125-0.229-0.188-0.342l-0.111-0.191c-0.064-0.11-0.13-0.221-0.195-0.328l-0.117-0.189 c-0.066-0.104-0.132-0.21-0.199-0.312l-0.12-0.178c-0.067-0.101-0.136-0.2-0.205-0.296l-0.124-0.168 c-0.069-0.094-0.139-0.188-0.21-0.277l-0.127-0.154l-0.217-0.26l-0.124-0.132l-0.23-0.245l-0.107-0.1 c-0.275-0.264-0.559-0.489-0.851-0.674l-0.151-0.098l-0.204-0.104l-0.189-0.095l-0.2-0.072l-0.204-0.071l-0.196-0.043l-0.219-0.043 l-0.196-0.015l-0.223-0.011c-0.162,0.002-0.326,0.016-0.492,0.046c-3.402,0.627-4.002,5.166-4.117,7.961 c-0.008,0.198-0.02,0.421-0.034,0.654l-0.007,0.124c-0.014,0.227-0.031,0.469-0.052,0.723l-0.014,0.174 c-0.021,0.26-0.046,0.528-0.074,0.809l-0.017,0.154c-0.03,0.281-0.062,0.568-0.101,0.864l-0.01,0.078 c-0.039,0.304-0.084,0.616-0.133,0.931l-0.03,0.197c-0.049,0.307-0.104,0.615-0.162,0.926l-0.041,0.211 c-0.062,0.315-0.128,0.631-0.201,0.944l-0.039,0.161c-0.074,0.309-0.153,0.615-0.238,0.917l-0.024,0.087 c-0.09,0.312-0.188,0.616-0.292,0.915l-0.061,0.174c-0.104,0.287-0.214,0.565-0.331,0.834l-0.076,0.169 c-0.123,0.27-0.251,0.529-0.389,0.773l-0.062,0.103c-0.138,0.235-0.282,0.459-0.436,0.665l-0.047,0.066 c-0.16,0.209-0.331,0.396-0.509,0.568l-0.102,0.099c-0.178,0.161-0.363,0.302-0.559,0.421l-0.118,0.067 c-0.203,0.114-0.414,0.209-0.637,0.273l-0.083,0.019c-0.221,0.057-0.45,0.088-0.691,0.093l-0.057,0.008L380,322.639l-0.256-0.02 l-0.253-0.023c-0.092-0.015-0.188-0.042-0.283-0.064l-0.256-0.061c-0.109-0.033-0.225-0.08-0.337-0.124l-0.231-0.086 c-0.194-0.085-0.395-0.185-0.6-0.301c-1.795-1.015-3.85-1.927-5.729-2.995c-2.778-1.578-5.169-3.498-5.731-6.616 c-0.041-0.228-0.053-0.475-0.073-0.716c-0.014-0.154-0.043-0.298-0.048-0.457c-0.013-0.41,0.004-0.838,0.051-1.285 c0.032-0.307,0.069-0.617,0.106-0.93c0.112-0.938,0.227-1.896,0.226-2.826c-0.001-1.24-0.207-2.43-0.898-3.453 c-0.151-0.225-0.311-0.429-0.475-0.621l-0.142-0.158c-0.121-0.133-0.243-0.26-0.369-0.377l-0.169-0.152 c-0.132-0.113-0.266-0.219-0.402-0.316l-0.143-0.104c-0.187-0.124-0.376-0.238-0.571-0.336l-0.07-0.032 c-0.172-0.083-0.346-0.156-0.523-0.221l-0.193-0.063c-0.143-0.046-0.287-0.087-0.433-0.121l-0.21-0.047 c-0.158-0.032-0.318-0.056-0.48-0.075l-0.161-0.021c-0.214-0.021-0.43-0.031-0.648-0.031l-0.143,0.004 c-0.19,0.002-0.382,0.012-0.575,0.027l-0.225,0.021c-0.188,0.021-0.377,0.047-0.567,0.078l-0.164,0.026 c-0.238,0.043-0.479,0.096-0.719,0.155l-0.204,0.054c-0.184,0.048-0.367,0.1-0.551,0.156l-0.233,0.072 c-0.214,0.069-0.429,0.143-0.644,0.222l-0.095,0.033c-0.244,0.091-0.487,0.188-0.73,0.29l-0.223,0.095 c-0.183,0.078-0.365,0.159-0.547,0.242l-0.207,0.095c-0.24,0.112-0.48,0.229-0.718,0.348l-0.089,0.045 c-0.214,0.108-0.426,0.218-0.637,0.33l-0.205,0.11c-0.187,0.101-0.372,0.202-0.556,0.305l-0.15,0.082 c-0.23,0.131-0.459,0.262-0.684,0.392l-0.122,0.072c-0.189,0.11-0.377,0.222-0.561,0.331l-0.162,0.097 c-0.49,0.294-0.958,0.581-1.398,0.852c-0.108,0.065-0.215,0.132-0.319,0.195l-0.25,0.152c-0.181,0.11-0.358,0.218-0.528,0.319 c-6.939,4.146-16.205,5.087-22.45,10.142c-3.042,2.463-4.88,5.933-6.995,9.166c-1.27,1.94-2.639,3.794-4.428,5.295 c-3.318,2.783-7.475,4.088-11.462,5.699c-2.684,1.085-5.292,2.307-7.513,4.216c-5.561,4.779-6.312,11.234-5.197,17.698 c0.326,1.896,0.804,3.792,1.379,5.646c0.169,0.545,0.346,1.087,0.528,1.624c0.115,0.34,0.228,0.688,0.337,1.044 c0.039,0.124,0.076,0.254,0.113,0.38c0.07,0.234,0.142,0.469,0.21,0.709c0.046,0.16,0.091,0.327,0.136,0.49 c0.058,0.21,0.116,0.418,0.173,0.631c0.049,0.184,0.098,0.371,0.146,0.557c0.053,0.203,0.106,0.404,0.158,0.61 c0.049,0.19,0.097,0.385,0.146,0.578c0.051,0.206,0.103,0.41,0.153,0.618c0.052,0.21,0.104,0.422,0.155,0.635 c0.049,0.203,0.099,0.407,0.148,0.612c0.085,0.354,0.171,0.71,0.257,1.067c0.04,0.164,0.08,0.33,0.12,0.495 c0.066,0.277,0.134,0.556,0.202,0.835c0.041,0.17,0.083,0.34,0.125,0.51c0.061,0.246,0.121,0.491,0.183,0.737 c0.047,0.185,0.094,0.37,0.141,0.556l0.179,0.694c0.05,0.19,0.101,0.382,0.151,0.572c0.061,0.226,0.121,0.452,0.184,0.677 c0.052,0.191,0.105,0.382,0.159,0.572c0.063,0.225,0.128,0.449,0.193,0.672c0.056,0.189,0.111,0.377,0.168,0.564 c0.067,0.221,0.136,0.44,0.204,0.659c0.061,0.189,0.12,0.378,0.182,0.566c0.07,0.214,0.143,0.427,0.215,0.638 c0.064,0.188,0.129,0.374,0.194,0.559c0.076,0.211,0.153,0.42,0.231,0.629c0.068,0.181,0.137,0.363,0.207,0.542 c0.081,0.206,0.165,0.409,0.25,0.612c0.073,0.177,0.146,0.354,0.221,0.526c0.088,0.2,0.179,0.397,0.27,0.594 c0.078,0.171,0.156,0.342,0.237,0.509c0.095,0.195,0.194,0.385,0.293,0.576c0.083,0.161,0.165,0.324,0.251,0.481 c0.105,0.192,0.216,0.378,0.325,0.564c0.087,0.149,0.172,0.301,0.262,0.446c0.117,0.188,0.24,0.369,0.361,0.553 c0.091,0.135,0.178,0.274,0.271,0.406c0.133,0.188,0.273,0.368,0.413,0.549c0.09,0.117,0.176,0.238,0.268,0.353 c0.174,0.213,0.356,0.415,0.539,0.616l0.193,0.221c0.253,0.267,0.515,0.522,0.786,0.766l0.251,0.207 c0.195,0.166,0.391,0.334,0.597,0.487c0.114,0.086,0.237,0.161,0.355,0.243c0.183,0.127,0.362,0.256,0.553,0.371 c0.135,0.083,0.277,0.154,0.416,0.231c0.185,0.103,0.366,0.208,0.558,0.301c0.15,0.072,0.308,0.135,0.462,0.201 c0.191,0.083,0.382,0.168,0.58,0.241c0.165,0.061,0.338,0.111,0.507,0.165c0.2,0.063,0.399,0.128,0.606,0.183 c0.18,0.047,0.366,0.084,0.551,0.123c0.211,0.045,0.421,0.091,0.639,0.126c0.193,0.031,0.394,0.053,0.593,0.076 c0.222,0.026,0.444,0.052,0.674,0.067c0.208,0.015,0.422,0.021,0.635,0.026c0.26,0.007,0.521,0.015,0.79,0.009 c0.116-0.002,0.233-0.006,0.352-0.01c0.425-0.018,0.856-0.044,1.305-0.094h0.006c11.834-1.302,21.321-10.624,33.273-11.045 c0.231-0.008,0.461-0.012,0.688-0.012c0.121,0,0.237,0.01,0.357,0.012c0.2,0.004,0.398,0.011,0.596,0.021 c0.235,0.012,0.47,0.028,0.701,0.048c0.194,0.018,0.388,0.037,0.579,0.06c0.228,0.027,0.453,0.06,0.678,0.095 c0.188,0.029,0.376,0.06,0.562,0.095c0.222,0.042,0.44,0.089,0.658,0.138c0.183,0.041,0.365,0.083,0.546,0.129 c0.216,0.056,0.429,0.116,0.641,0.179c0.178,0.052,0.355,0.104,0.53,0.161c0.211,0.068,0.419,0.142,0.626,0.216 c0.172,0.062,0.344,0.123,0.515,0.189c0.206,0.08,0.411,0.166,0.615,0.253c0.167,0.07,0.334,0.14,0.499,0.214 c0.203,0.092,0.404,0.189,0.605,0.286c0.162,0.079,0.324,0.155,0.484,0.237c0.201,0.103,0.4,0.211,0.601,0.319 c0.156,0.084,0.313,0.168,0.469,0.255c0.202,0.114,0.402,0.233,0.603,0.353c0.148,0.089,0.299,0.176,0.447,0.267 c0.205,0.127,0.409,0.259,0.613,0.39c0.141,0.09,0.283,0.179,0.423,0.271c0.209,0.138,0.417,0.28,0.624,0.422 c0.134,0.092,0.27,0.182,0.402,0.275c0.218,0.152,0.435,0.309,0.651,0.465c0.121,0.087,0.243,0.172,0.364,0.261 c0.239,0.175,0.478,0.353,0.717,0.532c0.098,0.073,0.195,0.145,0.294,0.219c0.26,0.197,0.52,0.396,0.78,0.597l0.233,0.179 c0.337,0.261,0.673,0.523,1.01,0.787c4.321,3.389,8.638,6.793,12.769,10.412c3.444,3.018,6.472,6.545,10.517,8.828 c0.331,0.188,0.67,0.36,1.013,0.523c0.094,0.045,0.189,0.084,0.283,0.127c0.25,0.113,0.501,0.223,0.756,0.324 c0.121,0.049,0.244,0.094,0.367,0.14c0.234,0.087,0.471,0.171,0.709,0.248c0.13,0.042,0.261,0.084,0.392,0.123 c0.242,0.073,0.487,0.14,0.733,0.203c0.125,0.032,0.25,0.065,0.376,0.096c0.28,0.066,0.564,0.124,0.849,0.178 c0.092,0.017,0.182,0.038,0.273,0.054c0.376,0.066,0.754,0.121,1.135,0.166l0.269,0.025c0.292,0.029,0.585,0.057,0.879,0.074 c0.141,0.01,0.282,0.014,0.424,0.02c0.246,0.01,0.492,0.019,0.738,0.021c0.139,0.001,0.277,0,0.417-0.001 c0.357-0.004,0.716-0.016,1.074-0.035c0.094-0.006,0.187-0.008,0.279-0.014c0.437-0.03,0.873-0.074,1.31-0.129 c0.116-0.014,0.233-0.032,0.35-0.049c0.341-0.048,0.682-0.103,1.021-0.165c0.125-0.022,0.249-0.045,0.374-0.069 c0.432-0.087,0.863-0.182,1.29-0.292l0.207-0.058c0.367-0.098,0.731-0.205,1.094-0.319c0.13-0.041,0.26-0.083,0.389-0.127 c0.352-0.117,0.701-0.243,1.046-0.376l0.23-0.087c0.408-0.162,0.811-0.338,1.209-0.521c0.114-0.054,0.228-0.109,0.341-0.164 c0.307-0.147,0.61-0.303,0.909-0.463c0.108-0.059,0.218-0.115,0.325-0.175c0.381-0.212,0.756-0.434,1.122-0.666l0.227-0.15 c0.3-0.195,0.593-0.398,0.882-0.606c0.107-0.078,0.214-0.156,0.32-0.236c0.309-0.232,0.611-0.472,0.905-0.721l0.129-0.104 c0.326-0.281,0.641-0.574,0.947-0.873l0.266-0.268c0.236-0.24,0.465-0.485,0.688-0.736l0.221-0.248 c0.276-0.324,0.541-0.656,0.793-0.998l0.17-0.242c0.198-0.278,0.388-0.562,0.568-0.852c0.067-0.107,0.135-0.215,0.199-0.324 c0.214-0.359,0.419-0.726,0.604-1.102l0.018-0.032c0.433-0.878,0.791-1.782,1.106-2.702c0.944-2.76,1.498-5.661,2.463-8.406 c2.003-5.695,4.539-11.173,6.715-16.802C429.144,367.509,431.352,361.735,428.972,355.786z M403.826,420.509 c-4.407,0.573-12.403-1.575-11.797,5.583c0.171,2.014,0.911,4.131,2.054,6.061c1.937,3.271,5.032,6.003,8.503,6.774 c5.523,1.227,8.795-4.802,9.979-9.601c0.105-0.428,0.201-0.85,0.273-1.252c0.406-2.263,0.398-5.666-1.397-7.426 C409.085,418.34,406.557,420.154,403.826,420.509z M301.659,100c7.679,5.377,16.097,7.867,24.271,7.662 c11.962-0.289,23.408-6.348,31.274-17.581c13.235-18.902,9.081-42.471-9.821-55.706c-7.68-5.377-16.13-7.885-24.346-7.698 c-12.018,0.261-23.534,6.284-31.399,17.518C278.403,63.097,282.757,86.765,301.659,100z"/></svg>