<svg xmlns="http://www.w3.org/2000/svg" viewBox="0 0 480 480"><path d="M132.766,262.943c12.671-18.097,8.273-43.038-9.823-55.71c-18.097-12.671-43.038-8.272-55.709,9.823 c-12.671,18.097-8.273,43.038,9.823,55.709C95.153,285.438,120.095,281.039,132.766,262.943z M91.81,234.265 c-5.188,7.409-12.224,12.765-20.051,15.905c-1.166-3.249-1.766-6.678-1.772-10.13c5.297-2.511,10.036-6.376,13.632-11.511 c3.593-5.131,5.604-10.901,6.153-16.732c3.246-1.174,6.674-1.781,10.125-1.796C99.62,218.425,96.994,226.861,91.81,234.265z M116.356,251.452c-3.598,5.138-5.609,10.916-6.156,16.755c-3.246,1.174-6.673,1.781-10.124,1.796 c0.272-8.431,2.899-16.876,8.089-24.286c5.185-7.406,12.217-12.76,20.039-15.9c1.168,3.247,1.771,6.675,1.779,10.127 C124.688,242.454,119.951,246.318,116.356,251.452z M447.153,130.571c-6.677-26.721-25.389-51-55.614-72.165 c-30.227-21.164-59.441-30.443-86.833-27.578c-32.116,3.36-61.178,23.314-86.381,59.307c-25.529,36.46-39.369,78-38.972,116.968 c0.174,16.946,3.023,32.566,8.315,46.423l-18.984,103.486c-5.802-1.37-12.109,0.805-15.737,5.985l-40.15,57.341 c-4.752,6.786-3.103,16.14,3.684,20.892l8.191,5.735c6.786,4.752,16.14,3.103,20.892-3.684l40.149-57.341 c3.619-5.169,3.516-11.821,0.267-16.801l91.873-52.425c14.85,0.242,30.523-2.422,46.529-8.062 c36.755-12.953,71.056-40.166,96.585-76.626C446.17,196.033,454.979,161.898,447.153,130.571z M237.827,126.021 c6.336-9.048,18.807-11.247,27.854-4.911c9.048,6.335,11.247,18.806,4.912,27.854c-6.336,9.048-18.807,11.247-27.854,4.911 C233.69,147.541,231.491,135.07,237.827,126.021z M205.654,189.404c6.335-9.049,18.807-11.248,27.854-4.912 s11.247,18.807,4.912,27.854c-6.336,9.048-18.807,11.247-27.855,4.912C201.517,210.923,199.318,198.452,205.654,189.404z M191.607,342.901l11.4-62.147c5.651,7.138,12.256,13.406,19.771,18.668c7.396,5.179,15.409,9.193,23.898,12.056L191.607,342.901z M279.483,253.308c-6.335,9.048-18.807,11.247-27.854,4.911c-9.048-6.335-11.247-18.807-4.911-27.854s18.807-11.247,27.854-4.911 S285.819,244.26,279.483,253.308z M286.384,74.111c6.335-9.049,18.807-11.248,27.854-4.912s11.247,18.807,4.911,27.854 s-18.807,11.247-27.854,4.911C282.247,95.63,280.048,83.159,286.384,74.111z M292.818,164.526 c6.335-9.048,18.806-11.247,27.854-4.911c9.048,6.335,11.247,18.807,4.911,27.854c-6.335,9.048-18.807,11.247-27.854,4.911 S286.482,173.574,292.818,164.526z M332.018,277.885c-6.336,9.048-18.807,11.247-27.855,4.912 c-9.048-6.336-11.246-18.807-4.911-27.855c6.336-9.048,18.807-11.247,27.854-4.911 C336.154,256.365,338.353,268.837,332.018,277.885z M338.918,98.688c6.336-9.048,18.807-11.247,27.854-4.911 c9.049,6.335,11.248,18.807,4.912,27.854c-6.336,9.049-18.807,11.248-27.854,4.912S332.583,107.736,338.918,98.688z M380.574,225.975c-6.336,9.047-18.807,11.246-27.854,4.911c-9.048-6.336-11.247-18.807-4.912-27.854 c6.336-9.049,18.807-11.247,27.855-4.912C384.711,204.455,386.909,216.926,380.574,225.975z M412.747,162.592 c-6.336,9.048-18.807,11.247-27.854,4.911c-9.048-6.335-11.247-18.806-4.911-27.854c6.335-9.048,18.807-11.247,27.854-4.911 C416.884,141.072,419.083,153.543,412.747,162.592z"/></svg>