<svg xmlns="http://www.w3.org/2000/svg" viewBox="0 0 480 480"><path d="M140.007,240c0-22.094-17.91-40.004-40.003-40.004C77.91,199.996,60,217.906,60,240s17.91,40.004,40.004,40.004 C122.096,280.004,140.007,262.094,140.007,240z M99.555,417.111c-6.113,8.73,4.033,17.446,12.765,23.56 c8.722,6.107,20.362,12.634,26.481,3.921l7.056-10.885l-38.469-26.936L99.555,417.111z M113.43,398.795l37.869,26.516 l40.204-62.026l-33.436-23.412L113.43,398.795z M385.327,46.974c-42.457-28.371-100.42-18.646-131.266,22.05 c-10.738,14.168-16.959,30.246-19.004,46.587l-0.019-0.013l-17.189,98.18c-6.54,37.355-21.204,72.818-42.956,103.883 l-10.783,14.234l32.837,22.992l9.935-15.326c21.645-30.818,49.75-56.546,82.357-75.389l86.556-50.016l-0.019-0.014 c13.623-6.981,25.799-17.275,35.189-30.688C442.143,138.929,430.759,77.332,385.327,46.974z"/></svg>