<?xml version="1.0" encoding="iso-8859-1"?>
<!-- Generator: Adobe Illustrator 23.0.4, SVG Export Plug-In . SVG Version: 6.00 Build 0)  -->
<svg version="1.1" xmlns="http://www.w3.org/2000/svg" xmlns:xlink="http://www.w3.org/1999/xlink" x="0px" y="0px"
	 viewBox="0 0 480 480" style="enable-background:new 0 0 480 480;" xml:space="preserve">
<g id="Workspace">
	<path d="M209.989,390.33l-101.574-71.123c-3.619-2.534-8.607-1.654-11.143,1.965l-16.06,22.936
		c-7.603,10.858-4.964,25.823,5.894,33.426l75.362,52.77c10.857,7.603,25.822,4.964,33.425-5.895l16.061-22.936
		C214.488,397.854,213.608,392.865,209.989,390.33z M371.63,149.715L262.853,73.549c-0.155-0.108-0.31-0.217-0.466-0.324
		c-24.439-16.994-55.411-18.304-76.295-3.594l-23.472,16.531c-13.766,9.697-32.093,12.947-50.721,8.998
		c-21.195-4.495-41.361,2.488-52.027,18.018c-37.957,55.26-16.073,136.598,49.012,182.17l4.165,2.917l0.117,0.081l19.781-21.146
		c0.817-0.873,1.479-1.906,1.788-3.062c0.272-1.018,0.323-2.091,0.138-3.148l-19.506-110.621c-0.699-3.961,1.946-7.738,5.908-8.438
		l66.348-11.698c3.962-0.698,7.739,1.946,8.438,5.907l3.934,22.308c0.993,5.635,7.797,7.976,12.048,4.146l16.521-14.884
		c8.305-7.481,20.674-8.24,29.83-1.828l89.057,62.357c10.309,7.219,13.291,21.173,6.834,31.975l-47.934,80.187
		c-0.959,1.604-2.499,2.779-4.301,3.28l-62.835,17.469c-2.144,0.604-3.835,2.255-4.491,4.383l-6.914,22.432
		c31.697,18.228,73.887,26.701,106.938,19.962c27.973-5.704,52.666-20.493,69.067-43.917l15.931-22.75
		C458.11,276.465,436.569,195.186,371.63,149.715z M288.711,316.629c1.979-0.55,3.67-1.84,4.724-3.603l43.683-73.075
		c1.071-1.792,0.57-4.133-1.139-5.33l-89.057-62.357c-0.854-0.598-1.717-0.724-2.29-0.724c-0.703,0-1.738,0.179-2.682,1.028
		l-16.52,14.883c-5.024,4.527-11.498,7.021-18.229,7.021h-0.004c-13.282,0-24.596-9.485-26.899-22.553l-0.336-1.905
		c-0.767-4.352-4.916-7.257-9.268-6.489l-25.545,4.504c-4.351,0.768-7.256,4.917-6.488,9.268l15.911,90.236
		c0.683,3.893,0.504,7.967-0.517,11.772c-1.144,4.273-3.328,8.159-6.503,11.558c-2.496,2.669-2.052,6.93,0.942,9.026l60.858,42.613
		c3.481,2.438,8.227,1.7,10.878-1.622c3.415-4.277,8.131-7.452,13.625-9.002L288.711,316.629z"/>
</g>
<g id="Guide">
</g>
</svg>
