<svg xmlns="http://www.w3.org/2000/svg" width="1000pt" height="1000pt" viewBox="0 0 1000 1000"><path d="M 437.476562 813.1875 L 225.863281 665.015625 C 218.324219 659.734375 207.933594 661.570312 202.648438 669.109375 L 169.191406 716.890625 C 153.351562 739.511719 158.851562 770.691406 181.472656 786.527344 L 338.476562 896.464844 C 361.09375 912.304688 392.269531 906.808594 408.109375 884.183594 L 441.570312 836.402344 C 446.851562 828.863281 445.015625 818.46875 437.476562 813.1875 Z M 774.230469 311.90625 L 547.609375 153.226562 C 547.289062 153.003906 546.964844 152.773438 546.640625 152.550781 C 495.726562 117.148438 431.199219 114.417969 387.691406 145.066406 L 338.792969 179.503906 C 310.113281 199.707031 271.929688 206.476562 233.121094 198.25 C 188.964844 188.886719 146.953125 203.433594 124.734375 235.789062 C 45.65625 350.914062 91.246094 520.367188 226.839844 615.308594 L 235.519531 621.386719 L 235.761719 621.554688 L 276.972656 577.5 C 278.675781 575.679688 280.054688 573.527344 280.699219 571.121094 C 281.265625 569 281.371094 566.765625 280.984375 564.5625 L 240.347656 334.101562 C 238.890625 325.851562 244.402344 317.980469 252.65625 316.523438 L 390.882812 292.152344 C 399.136719 290.699219 407.003906 296.207031 408.460938 304.457031 L 416.65625 350.933594 C 418.726562 362.671875 432.898438 367.550781 441.757812 359.570312 L 476.175781 328.5625 C 493.476562 312.976562 519.246094 311.394531 538.320312 324.753906 L 723.855469 454.664062 C 745.332031 469.703125 751.546875 498.773438 738.09375 521.277344 L 638.230469 688.335938 C 636.234375 691.675781 633.023438 694.125 629.269531 695.167969 L 498.363281 731.5625 C 493.898438 732.820312 490.375 736.261719 489.007812 740.695312 L 474.605469 787.425781 C 540.640625 825.402344 628.535156 843.054688 697.390625 829.015625 C 755.667969 817.132812 807.113281 786.320312 841.28125 737.519531 L 874.472656 690.125 C 954.394531 575.96875 909.519531 406.636719 774.230469 311.90625 Z M 601.480469 659.644531 C 605.605469 658.496094 609.128906 655.808594 611.324219 652.136719 L 702.328125 499.898438 C 704.558594 496.164062 703.515625 491.289062 699.957031 488.792969 L 514.421875 358.882812 C 512.640625 357.636719 510.84375 357.375 509.648438 357.375 C 508.183594 357.375 506.027344 357.746094 504.0625 359.515625 L 469.644531 390.523438 C 459.179688 399.953125 445.691406 405.148438 431.667969 405.148438 L 431.660156 405.148438 C 403.988281 405.148438 380.417969 385.390625 375.621094 358.164062 L 374.921875 354.195312 C 373.324219 345.128906 364.679688 339.078125 355.613281 340.675781 L 302.394531 350.058594 C 293.328125 351.660156 287.277344 360.304688 288.878906 369.367188 L 322.023438 557.359375 C 323.449219 565.472656 323.074219 573.957031 320.949219 581.886719 C 318.566406 590.789062 314.015625 598.882812 307.398438 605.964844 C 302.199219 611.523438 303.125 620.402344 309.363281 624.769531 L 436.148438 713.546875 C 443.402344 718.625 453.289062 717.085938 458.8125 710.167969 C 465.925781 701.257812 475.753906 694.640625 487.199219 691.414062 Z M 601.480469 659.644531"/></svg>