<svg xmlns="http://www.w3.org/2000/svg" viewBox="0 0 480 480"><path d="M294.576,420c-14.447,0-26.617-10.794-28.343-25.139l-9.357-77.816c-0.483-4.02-3.895-7.045-7.943-7.045h-17.865 c-4.049,0-7.459,3.025-7.942,7.045l-9.358,77.816C212.042,409.206,199.872,420,185.425,420c-7.717,0-14.501,5.651-15.333,13.323 C169.111,442.358,176.163,450,185,450h110c8.837,0,15.889-7.642,14.909-16.677C309.077,425.651,302.293,420,294.576,420z M190,215.394v-76.711c0-1.642-0.505-3.244-1.447-4.589l-38.547-55.051c-9.503-13.572-28.21-16.871-41.781-7.367L90.203,84.294 c-3.619,2.534-4.499,7.522-1.965,11.142l87.208,124.547C179.932,226.389,190,223.215,190,215.394z M304.553,219.983l87.209-124.548 c2.533-3.619,1.654-8.607-1.965-11.142l-18.021-12.618c-13.572-9.504-32.278-6.205-41.782,7.367l-38.547,55.052 c-0.942,1.345-1.447,2.946-1.447,4.589v76.711C290,223.216,300.067,226.39,304.553,219.983z M210.03,261.061 c0.012,0.288,0.027,0.575,0.048,0.861c0.012,0.176,0.024,0.352,0.04,0.527c0.03,0.351,0.065,0.701,0.108,1.05 c0.012,0.101,0.025,0.202,0.038,0.302c0.055,0.411,0.115,0.821,0.188,1.229l0.018,0.103c0.42,2.375,1.118,4.653,2.062,6.8 l0.045,0.101c0.173,0.391,0.354,0.776,0.543,1.159c0.049,0.099,0.101,0.195,0.15,0.293c0.16,0.313,0.323,0.626,0.494,0.935 c0.092,0.165,0.188,0.328,0.283,0.491c0.137,0.237,0.275,0.476,0.42,0.71c0.135,0.217,0.274,0.431,0.414,0.645 c0.116,0.178,0.231,0.356,0.352,0.532l0.076,0.115l0.113,0.161l0.131,0.177c0.067,0.093,0.135,0.188,0.202,0.281 c0.103,0.141,0.204,0.281,0.309,0.419l0.111,0.143c0.138,0.18,0.277,0.356,0.418,0.532l0.063,0.08 c0.103,0.127,0.204,0.255,0.309,0.38c0.102,0.121,0.2,0.244,0.304,0.363c0.113,0.133,0.231,0.258,0.347,0.387 c0.109,0.122,0.218,0.244,0.329,0.364c0.096,0.104,0.188,0.211,0.286,0.314c0.146,0.153,0.295,0.3,0.442,0.449l0.256,0.256 l0.077,0.073l0.223,0.212c0.175,0.169,0.35,0.34,0.528,0.504l0.181,0.163c0.193,0.174,0.392,0.341,0.589,0.51l0.037,0.032 c0.101,0.085,0.198,0.175,0.3,0.259l0.151,0.124c0.126,0.103,0.255,0.2,0.382,0.3c0.09,0.07,0.178,0.142,0.269,0.211 c0.109,0.085,0.216,0.174,0.327,0.257l0.184,0.136c0.176,0.13,0.356,0.254,0.535,0.381l0.084,0.061l0.047,0.032 c0.1,0.069,0.197,0.143,0.298,0.211c0.099,0.067,0.198,0.132,0.298,0.197c0.205,0.136,0.413,0.267,0.621,0.398l0.033,0.021 l0.221,0.141c0.158,0.097,0.318,0.19,0.478,0.284c0.238,0.14,0.477,0.279,0.719,0.413c0.235,0.13,0.474,0.254,0.713,0.377 c0.17,0.088,0.339,0.177,0.511,0.261l0.029,0.016c0.306,0.15,0.615,0.293,0.927,0.433c0.1,0.046,0.198,0.092,0.3,0.136l0.025,0.011 c0.242,0.106,0.488,0.202,0.732,0.301c0.136,0.055,0.27,0.114,0.407,0.167l0.124,0.049l0.156,0.062l0.054,0.021 c0.362,0.136,0.73,0.261,1.1,0.384l0.019,0.006l0.131,0.044l0.166,0.057c0.349,0.11,0.699,0.209,1.05,0.307l0.034,0.011 l0.028,0.008c0.109,0.03,0.217,0.064,0.326,0.093c0.317,0.084,0.637,0.156,0.956,0.229l0.048,0.011l0.053,0.013 c0.135,0.029,0.268,0.064,0.402,0.092c0.271,0.058,0.541,0.104,0.812,0.153l0.142,0.026l0.046,0.009 c0.159,0.028,0.318,0.059,0.478,0.084c0.232,0.036,0.466,0.065,0.698,0.097l0.115,0.016l0.167,0.023 c0.171,0.021,0.341,0.043,0.513,0.062c0.209,0.022,0.418,0.038,0.627,0.056l0.004,0.001h0.008c0.111,0.01,0.223,0.022,0.333,0.03 c0.175,0.013,0.35,0.025,0.524,0.035c0.177,0.01,0.355,0.016,0.533,0.023c0.148,0.006,0.297,0.013,0.446,0.017 c0.169,0.004,0.338,0.006,0.507,0.007L240,289.87l0.247-0.007c0.169-0.001,0.338-0.003,0.508-0.007 c0.148-0.004,0.297-0.011,0.446-0.017c0.178-0.008,0.355-0.014,0.532-0.023c0.176-0.01,0.35-0.022,0.524-0.035 c0.111-0.008,0.222-0.021,0.333-0.03h0.007l0.005-0.001c0.209-0.018,0.419-0.033,0.628-0.056c0.171-0.019,0.341-0.04,0.513-0.062 l0.167-0.023l0.114-0.016c0.233-0.031,0.467-0.061,0.699-0.097c0.159-0.025,0.317-0.056,0.477-0.084l0.188-0.035 c0.271-0.049,0.542-0.096,0.812-0.153c0.136-0.027,0.269-0.062,0.402-0.092l0.054-0.013l0.047-0.011 c0.319-0.073,0.639-0.146,0.956-0.229c0.11-0.028,0.218-0.062,0.327-0.093l0.028-0.008l0.013-0.004 c0.358-0.1,0.717-0.201,1.07-0.313l0.167-0.057l0.13-0.044l0.02-0.007c0.369-0.122,0.736-0.247,1.1-0.383l0.053-0.021l0.156-0.062 l0.126-0.049c0.137-0.053,0.271-0.113,0.408-0.168c0.243-0.099,0.487-0.194,0.729-0.3l0.026-0.011 c0.101-0.044,0.2-0.091,0.301-0.136c0.311-0.14,0.62-0.282,0.926-0.433l0.028-0.015c0.172-0.085,0.342-0.174,0.512-0.263 c0.239-0.123,0.477-0.246,0.713-0.376c0.242-0.134,0.48-0.273,0.718-0.413c0.16-0.094,0.32-0.188,0.479-0.284l0.221-0.142 l0.024-0.015c0.211-0.134,0.421-0.267,0.63-0.404c0.099-0.065,0.199-0.13,0.298-0.197c0.101-0.068,0.197-0.142,0.298-0.212 l0.047-0.031l0.083-0.061c0.179-0.127,0.359-0.251,0.535-0.381l0.185-0.136c0.11-0.083,0.217-0.172,0.326-0.257 c0.091-0.069,0.18-0.141,0.27-0.211c0.127-0.102,0.257-0.198,0.383-0.301l0.149-0.121c0.102-0.085,0.199-0.175,0.3-0.26 c0.138-0.117,0.272-0.235,0.407-0.354l0.22-0.19l0.181-0.162c0.179-0.164,0.353-0.335,0.528-0.504l0.223-0.212l0.076-0.073 l0.257-0.256c0.147-0.149,0.297-0.296,0.441-0.449c0.098-0.104,0.19-0.21,0.287-0.314c0.11-0.12,0.22-0.242,0.328-0.364 c0.115-0.129,0.234-0.254,0.348-0.387c0.103-0.119,0.201-0.242,0.303-0.363c0.104-0.125,0.207-0.253,0.31-0.38l0.063-0.08 c0.141-0.176,0.28-0.353,0.417-0.532l0.112-0.143c0.104-0.138,0.206-0.278,0.308-0.419c0.068-0.093,0.135-0.188,0.203-0.281 l0.13-0.177l0.113-0.161l0.076-0.115c0.12-0.176,0.236-0.354,0.353-0.532c0.14-0.214,0.278-0.428,0.413-0.645 c0.145-0.234,0.283-0.473,0.421-0.71c0.095-0.163,0.19-0.326,0.282-0.491c0.171-0.309,0.335-0.621,0.494-0.935 c0.051-0.098,0.102-0.194,0.15-0.293c0.189-0.383,0.371-0.769,0.543-1.159l0.046-0.101c0.943-2.146,1.641-4.424,2.062-6.798 l0.02-0.106c0.07-0.407,0.131-0.816,0.186-1.227c0.014-0.101,0.026-0.202,0.039-0.303c0.042-0.349,0.078-0.699,0.108-1.05 c0.015-0.176,0.028-0.352,0.04-0.527c0.02-0.286,0.035-0.573,0.047-0.861c0.01-0.246,0.016-0.494,0.02-0.742 c0.002-0.15,0.011-0.299,0.011-0.448V60.754c0-16.347-12.816-30.164-29.157-30.612C223.889,29.677,210,43.281,210,60.13v199.74 c0,0.149,0.01,0.298,0.012,0.448C210.015,260.566,210.02,260.814,210.03,261.061z M426.705,353.5l-61.939-45.423 c-2.837-2.08-6.696-2.08-9.533,0L293.293,353.5c-4.392,3.22-4.392,9.779,0,13l21.364,15.667l40.575,29.755 c2.837,2.081,6.696,2.081,9.533,0l37.448-27.462l8.269-6.063l16.223-11.896C431.096,363.279,431.096,356.72,426.705,353.5z M359.999,390.001c-16.531,0-29.937-13.37-29.999-29.887c1.636-0.071,3.279-0.114,4.932-0.114c18.821,0,36.57,4.665,52.163,12.889 C382.273,383.007,371.954,390.001,359.999,390.001z M389.987,360.881l-0.01,0.006c-16.6-8.242-35.289-12.888-55.046-12.888 c-0.817,0-1.631,0.016-2.444,0.031c4.622-10.611,15.198-18.032,27.512-18.032C376.861,329.998,390.473,343.909,389.987,360.881z"/></svg>