<?xml version="1.0" encoding="iso-8859-1"?>
<!-- Generator: Adobe Illustrator 23.0.4, SVG Export Plug-In . SVG Version: 6.00 Build 0)  -->
<svg version="1.1" xmlns="http://www.w3.org/2000/svg" xmlns:xlink="http://www.w3.org/1999/xlink" x="0px" y="0px"
	 viewBox="0 0 480 480" style="enable-background:new 0 0 480 480;" xml:space="preserve">
<g id="Workspace">
	<path d="M447.152,130.571c-6.676-26.721-25.388-51-55.613-72.165c-30.227-21.164-59.441-30.443-86.833-27.577
		c-32.116,3.359-61.178,23.313-86.381,59.306c-25.529,36.46-39.369,78-38.972,116.968c0.174,16.946,3.023,32.566,8.315,46.423
		l-18.984,103.486c-5.802-1.37-12.109,0.805-15.737,5.985l-40.15,57.341c-4.752,6.786-3.103,16.14,3.684,20.892l8.191,5.735
		c6.786,4.752,16.14,3.103,20.891-3.684l40.15-57.341c3.619-5.169,3.516-11.821,0.267-16.801l91.872-52.425
		c14.85,0.242,30.524-2.422,46.53-8.062c36.755-12.953,71.056-40.166,96.585-76.626C446.17,196.033,454.979,161.898,447.152,130.571
		z M191.607,342.901l11.4-62.147c5.652,7.138,12.256,13.405,19.771,18.667c7.396,5.18,15.409,9.194,23.898,12.057L191.607,342.901z
		 M132.766,262.718c12.671-18.096,8.273-43.038-9.823-55.709c-6.982-4.89-14.985-7.237-22.908-7.237
		c-12.61,0-25.02,5.947-32.801,17.061c-12.671,18.096-8.273,43.038,9.823,55.709c6.982,4.89,14.984,7.237,22.908,7.237
		C112.575,279.778,124.984,273.832,132.766,262.718z M116.384,251.246c-3.741,5.343-9.879,8.532-16.418,8.532
		c-4.1,0-8.055-1.252-11.438-3.62c-9.033-6.326-11.236-18.821-4.911-27.855c3.741-5.342,9.878-8.531,16.418-8.531
		c4.1,0,8.054,1.252,11.437,3.62c4.376,3.064,7.297,7.649,8.225,12.91S119.447,246.87,116.384,251.246z"/>
</g>
<g id="Guide">
</g>
</svg>
