<?xml version="1.0" encoding="iso-8859-1"?>
<!-- Generator: Adobe Illustrator 23.0.4, SVG Export Plug-In . SVG Version: 6.00 Build 0)  -->
<svg version="1.1" xmlns="http://www.w3.org/2000/svg" xmlns:xlink="http://www.w3.org/1999/xlink" x="0px" y="0px"
	 viewBox="0 0 480 480" style="enable-background:new 0 0 480 480;" xml:space="preserve">
<g id="Workspace">
	<path d="M132.766,262.943c12.671-18.097,8.273-43.038-9.823-55.71c-18.097-12.671-43.038-8.272-55.709,9.823
		c-12.671,18.097-8.273,43.038,9.823,55.709C95.153,285.438,120.095,281.039,132.766,262.943z M447.153,130.347
		c-6.677-26.721-25.388-51-55.614-72.165c-30.227-21.164-59.441-30.443-86.833-27.578c-32.116,3.36-61.178,23.313-86.381,59.307
		c-25.529,36.46-39.369,78-38.972,116.968c0.174,16.946,3.023,32.566,8.315,46.423l-18.984,103.486
		c-5.802-1.37-12.109,0.805-15.737,5.985l-40.15,57.341c-4.752,6.786-3.103,16.14,3.684,20.891l8.191,5.736
		c6.786,4.751,16.14,3.103,20.892-3.684l40.149-57.341c3.619-5.169,3.516-11.821,0.267-16.801l91.873-52.425
		c14.85,0.242,30.523-2.422,46.529-8.062c36.755-12.954,71.056-40.167,96.585-76.626
		C446.17,195.809,454.979,161.674,447.153,130.347z M237.827,125.797c6.336-9.048,18.807-11.247,27.854-4.911
		c9.049,6.335,11.247,18.806,4.912,27.854c-6.336,9.048-18.807,11.247-27.854,4.911C233.69,147.315,231.492,134.845,237.827,125.797
		z M205.654,189.179c6.336-9.048,18.807-11.247,27.854-4.911s11.247,18.807,4.912,27.854c-6.336,9.048-18.807,11.247-27.855,4.912
		C201.517,210.698,199.318,198.228,205.654,189.179z M191.607,342.677l11.4-62.147c5.652,7.138,12.256,13.405,19.771,18.667
		c7.397,5.179,15.409,9.194,23.899,12.056L191.607,342.677z M279.483,253.083c-6.335,9.048-18.806,11.247-27.854,4.911
		c-9.048-6.335-11.247-18.807-4.911-27.854s18.807-11.247,27.854-4.911C283.62,231.563,285.819,244.035,279.483,253.083z
		 M286.384,73.886c6.335-9.048,18.807-11.247,27.854-4.911s11.247,18.807,4.911,27.854c-6.335,9.048-18.807,11.247-27.854,4.911
		C282.247,95.405,280.048,82.935,286.384,73.886z M292.818,164.302c6.335-9.048,18.807-11.247,27.854-4.911
		c9.048,6.335,11.247,18.806,4.911,27.854c-6.335,9.048-18.807,11.247-27.854,4.911S286.482,173.35,292.818,164.302z
		 M332.018,277.66c-6.336,9.048-18.807,11.247-27.854,4.911c-9.049-6.335-11.247-18.807-4.912-27.854
		c6.336-9.048,18.807-11.247,27.854-4.911C336.154,256.141,338.353,268.612,332.018,277.66z M338.918,98.464
		c6.336-9.048,18.807-11.247,27.855-4.912c9.048,6.336,11.247,18.807,4.911,27.854c-6.336,9.049-18.807,11.247-27.854,4.912
		C334.782,119.982,332.583,107.512,338.918,98.464z M380.574,225.749c-6.336,9.048-18.807,11.247-27.854,4.912
		c-9.048-6.336-11.247-18.807-4.911-27.854c6.335-9.049,18.806-11.247,27.854-4.912C384.711,204.23,386.91,216.701,380.574,225.749z
		 M412.747,162.367c-6.335,9.048-18.807,11.247-27.854,4.911c-9.048-6.335-11.247-18.807-4.911-27.854
		c6.335-9.048,18.807-11.247,27.854-4.911C416.884,140.848,419.083,153.318,412.747,162.367z"/>
</g>
<g id="Guide">
</g>
</svg>
