<svg xmlns="http://www.w3.org/2000/svg" width="1000pt" height="1000pt" viewBox="0 0 1000 1000"><path d="M 276.597656 547.796875 C 302.992188 510.097656 293.832031 458.136719 256.132812 431.734375 C 218.429688 405.335938 166.46875 414.503906 140.070312 452.199219 C 113.671875 489.902344 122.835938 541.863281 160.535156 568.261719 C 198.234375 594.664062 250.199219 585.496094 276.597656 547.796875 Z M 931.570312 271.554688 C 917.660156 215.886719 878.675781 165.304688 815.707031 121.210938 C 752.734375 77.121094 691.871094 57.789062 634.804688 63.757812 C 567.894531 70.757812 507.351562 112.328125 454.84375 187.316406 C 401.660156 263.273438 372.824219 349.816406 373.652344 430.996094 C 374.015625 466.300781 379.949219 498.84375 390.976562 527.710938 L 351.425781 743.308594 C 339.335938 740.453125 326.199219 744.984375 318.640625 755.777344 L 234.992188 875.238281 C 225.09375 889.375 228.527344 908.863281 242.667969 918.761719 L 259.734375 930.710938 C 273.871094 940.609375 293.359375 937.175781 303.257812 923.035156 L 386.902344 803.574219 C 394.441406 792.804688 394.226562 778.949219 387.457031 768.574219 L 578.859375 659.355469 C 609.796875 659.859375 642.449219 654.308594 675.796875 642.558594 C 752.367188 615.570312 823.828125 558.878906 877.015625 482.921875 C 929.519531 407.933594 947.871094 336.820312 931.570312 271.554688 Z M 495.472656 262.078125 C 508.671875 243.226562 534.652344 238.644531 553.503906 251.847656 C 572.355469 265.042969 576.933594 291.023438 563.734375 309.875 C 550.535156 328.726562 524.554688 333.304688 505.707031 320.105469 C 486.855469 306.90625 482.273438 280.925781 495.472656 262.078125 Z M 428.445312 394.121094 C 441.644531 375.273438 467.628906 370.691406 486.476562 383.890625 C 505.324219 397.089844 509.90625 423.074219 496.707031 441.921875 C 483.507812 460.769531 457.527344 465.351562 438.675781 452.152344 C 419.828125 438.953125 415.246094 412.976562 428.445312 394.121094 Z M 399.179688 713.910156 L 422.929688 584.4375 C 434.707031 599.308594 448.464844 612.363281 464.121094 623.328125 C 479.53125 634.117188 496.222656 642.480469 513.910156 648.445312 Z M 582.257812 527.257812 C 569.058594 546.105469 543.078125 550.6875 524.226562 537.488281 C 505.378906 524.289062 500.796875 498.304688 513.996094 479.457031 C 527.195312 460.609375 553.175781 456.027344 572.023438 469.226562 C 590.875 482.421875 595.457031 508.40625 582.257812 527.257812 Z M 596.632812 153.929688 C 609.832031 135.078125 635.816406 130.496094 654.664062 143.699219 C 673.511719 156.898438 678.09375 182.878906 664.894531 201.726562 C 651.695312 220.578125 625.710938 225.160156 606.863281 211.957031 C 588.015625 198.761719 583.433594 172.78125 596.632812 153.929688 Z M 610.039062 342.296875 C 623.234375 323.445312 649.21875 318.863281 668.066406 332.066406 C 686.917969 345.261719 691.496094 371.242188 678.296875 390.09375 C 665.101562 408.945312 639.117188 413.523438 620.269531 400.324219 C 601.421875 387.125 596.835938 361.144531 610.039062 342.296875 Z M 691.703125 578.457031 C 678.503906 597.308594 652.523438 601.890625 633.675781 588.691406 C 614.824219 575.492188 610.242188 549.507812 623.441406 530.660156 C 636.640625 511.808594 662.621094 507.230469 681.472656 520.429688 C 700.320312 533.628906 704.902344 559.609375 691.703125 578.457031 Z M 706.078125 205.132812 C 719.277344 186.285156 745.261719 181.703125 764.109375 194.898438 C 782.960938 208.101562 787.542969 234.082031 774.339844 252.929688 C 761.140625 271.78125 735.160156 276.359375 716.3125 263.164062 C 697.460938 249.960938 692.882812 223.984375 706.078125 205.132812 Z M 792.863281 470.308594 C 779.664062 489.160156 753.679688 493.742188 734.832031 480.542969 C 715.984375 467.34375 711.402344 441.363281 724.601562 422.515625 C 737.800781 403.664062 763.78125 399.082031 782.632812 412.28125 C 801.480469 425.480469 806.0625 451.460938 792.863281 470.308594 Z M 859.890625 338.265625 C 846.691406 357.113281 820.707031 361.695312 801.859375 348.496094 C 783.011719 335.296875 778.429688 309.316406 791.628906 290.464844 C 804.828125 271.617188 830.808594 267.035156 849.660156 280.234375 C 868.507812 293.433594 873.089844 319.414062 859.890625 338.265625 Z M 859.890625 338.265625"/></svg>