<svg xmlns="http://www.w3.org/2000/svg" viewBox="0 0 480 480"><path d="M41.127,259.606c-2.011,0.419-3.893,0.826-5.622,1.218c-3.944,0.893-6.597,4.57-6.212,8.596 c3.942,41.312,23.03,121.505,111.09,135.363c9.09,1.134,18.286,1.8,27.442,2.064c21.574,0.621,42.919-0.974,62.089-3.884 c17.413-2.644,38.395-5.176,38.723-27.376c0.115-7.784,0.287-16.425,0.543-24.296L118.417,245.919 C96.137,249.672,61.814,255.294,41.127,259.606z M462.306,173.119l-120.77-84.558c-6.536-4.576-14.322-7.031-22.301-7.032 c-1.004,0-1.956-0.442-2.56-1.244l-21.32-28.318c-3.249-3.291-8.854-0.989-8.854,3.635v19.182c0,3.871-2.846,7.152-6.678,7.7 l-85.916,12.273c-4.062,0.58-4.573,6.239-0.682,7.538l30.102,13.494c3.376,1.513,2.932,6.44-0.66,7.324l-15.53,3.825 c-3.883,0.775-4.26,6.18-0.522,7.485l8.071,7.041c1.491,1.301,1.767,3.509,0.633,5.13c-6.867,9.821-30.24,43.245-49.835,71.218 l113.12,79.064c6.93-27.969,14.968-62.197,19.607-82.113c-12.643-8.759-25.125-21.188-33.847-38.752 c-1.911-3.847-0.341-8.515,3.507-10.425c3.849-1.912,8.517-0.34,10.425,3.507c6.301,12.688,15.093,22.273,24.353,29.481 c18.417,12.164,59.389,5.847,76.906,2.381c5.57-1.102,11.333-0.624,16.662,1.335c17.876,6.572,39.908,13.861,55.32,1.856 C457.627,199.403,471.77,179.745,462.306,173.119z M398.876,362.806l-11.426-8.091c-3.606-2.554-8.601-1.699-11.153,1.909 l-12.704,17.957L59.194,161.824c-4.507-3.191-10.748-2.126-13.939,2.382c-3.194,4.507-2.126,10.749,2.382,13.94l304.406,212.761 l-12.708,17.964c-2.551,3.605-1.697,8.597,1.908,11.149l11.426,8.09c3.606,2.554,8.601,1.699,11.153-1.908l36.963-52.247 C403.335,370.349,402.482,365.357,398.876,362.806z"/></svg>