<?xml version="1.0" encoding="iso-8859-1"?>
<!-- Generator: Adobe Illustrator 23.0.4, SVG Export Plug-In . SVG Version: 6.00 Build 0)  -->
<svg version="1.1" xmlns="http://www.w3.org/2000/svg" xmlns:xlink="http://www.w3.org/1999/xlink" x="0px" y="0px"
	 viewBox="0 0 480 480" style="enable-background:new 0 0 480 480;" xml:space="preserve">
<g id="Workspace">
	<path d="M79.712,301.404C84.676,300.498,89.779,300,95,300c5.121,0,10.13,0.48,15.004,1.354c6.667,1.192,13.067,3.158,19.103,5.813
		c7.485,3.293,14.408,7.629,20.583,12.833H292c4.419,0,8-3.582,8-8v-24c0-4.418-3.581-8-8-8H123.518l-10.297-50.067H180
		c3.34,0,6.459-1.667,8.314-4.444l20-29.933c3.068-4.592,1.833-10.802-2.759-13.87c-4.591-3.066-10.801-1.833-13.87,2.759
		l-17.03,25.488h-65.547L77.51,56.299C76.745,52.579,74.201,50,71.298,50H36.44c-4.247,0-7.331,5.363-6.213,10.805L79.712,301.404z
		 M395.968,400.344H450v-20.412h-70.124C386.885,385.171,392.474,392.205,395.968,400.344z M442,339.995h-274.94
		c3.913,6.244,7.046,13.022,9.242,20.211H450v-12.211C450,343.577,446.419,339.995,442,339.995z M395.812,440H442
		c4.419,0,8-3.582,8-8v-11.932h-50.002C399.989,427.152,398.49,433.891,395.812,440z M179.836,379.932
		c0.099,1.678,0.164,3.365,0.164,5.068c0,5.24-0.502,10.363-1.414,15.344h125.446c3.493-8.139,9.083-15.173,16.092-20.412H179.836z
		 M172.397,420.068c-3.295,7.242-7.57,13.943-12.666,19.932h144.456c-2.678-6.109-4.177-12.848-4.186-19.932H172.397z
		 M159.784,379.932c-0.535-6.938-2.149-13.569-4.692-19.726c-3.124-7.563-7.638-14.401-13.218-20.211
		c-2.287-2.382-4.749-4.591-7.373-6.603C123.551,324.999,109.862,320,95,320c-3.842,0-7.6,0.353-11.259,0.992
		c-22.166,3.873-40.467,18.961-48.833,39.214c-2.543,6.156-4.157,12.788-4.692,19.726C30.086,381.605,30,383.293,30,385
		c0,5.288,0.647,10.422,1.839,15.344c1.72,7.104,4.606,13.747,8.445,19.725C51.844,438.065,72.021,450,95,450
		c12.731,0,24.598-3.674,34.625-10c8.069-5.092,14.936-11.906,20.091-19.932c3.839-5.978,6.726-12.621,8.445-19.725
		C159.352,395.422,160,390.288,160,385C160,383.293,159.913,381.605,159.784,379.932z M350,390c-9.047,0-17.152,4.01-22.652,10.344
		C322.774,405.609,320,412.479,320,420l0.002,0.068c0.017,7.658,2.905,14.64,7.644,19.932c5.492,6.136,13.471,10,22.354,10
		s16.862-3.864,22.354-10c4.738-5.292,7.627-12.273,7.644-19.932L380,420c0-7.521-2.774-14.391-7.348-19.656
		C367.152,394.01,359.047,390,350,390z M299.05,157.383l32.205,23.389c2.229,1.631,5.262,1.631,7.491,0l32.191-23.389
		c2.242-1.631,3.173-4.497,2.319-7.121L360.963,112.4c-0.854-2.625-3.3-4.396-6.051-4.396h-39.811c-2.765,0-5.21,1.771-6.063,4.396
		l-12.294,37.861C295.89,152.886,296.82,155.752,299.05,157.383z M335,260c63.503,0,115-51.497,115-115c0-63.515-51.497-115-115-115
		c-63.515,0-115,51.485-115,115C220,208.503,271.485,260,335,260z M256.896,86.282l26.87-0.209c2.162-0.012,4.141-1.254,5.106-3.209
		l15.079-30.562c9.759-3.276,20.2-5.053,31.048-5.053c10.849,0,21.29,1.776,31.049,5.053l15.088,30.562
		c0.955,1.955,2.933,3.197,5.106,3.209l26.86,0.209c10.208,13.545,16.98,29.818,19.009,47.513l-31.345,25.671
		c-1.932,1.587-2.622,4.231-1.713,6.555l14.555,37.02c-11.548,15.6-27.623,27.656-46.266,34.212l-29.424-17.331
		c-1.806-1.069-4.037-1.069-5.843,0l-29.428,17.328c-18.641-6.556-34.713-18.612-46.26-34.211l14.555-37.018
		c0.908-2.323,0.219-4.968-1.714-6.555l-31.342-25.669C239.916,116.102,246.688,99.827,256.896,86.282z"/>
</g>
<g id="Guide">
</g>
</svg>
