<svg xmlns="http://www.w3.org/2000/svg" viewBox="0 0 480 480"><path d="M438.965,237.218c-5.328-7.608-15.857-9.412-23.42-3.962c-7.455,5.372-8.829,15.831-3.673,23.437 c7.949,11.723,5.392,27.494-5.8,35.331c-11.302,7.914-27.193,4.786-35.425-6.97L185.055,33.706 c-2.775-3.717-8.002-4.556-11.801-1.896c-3.8,2.661-4.799,7.858-2.255,11.738l172.321,260.64 c11.637,16.619,30.168,25.554,48.853,25.554c11.473,0,23.002-3.366,33.033-10.39C451.576,300.887,457.748,264.042,438.965,237.218z M314.218,345.556c0-18.818-16.026-31.874-32.861-36.378c-21.761-5.822-44.021-9.852-65.361-17.189 c-21.192-7.288-42.528-17.272-52.896-38.287c-8.281-16.785-12.994-65.678-14.518-88.953l-0.019-0.17 c0.136-3.455-1.439-6.791-4.762-7.747c-11.587-3.333-22.232,5.402-22.232,16.504v1.722c0,3.805-3.084,6.89-6.889,6.89H64.409 c-17.679,0-32.486,13.383-34.269,30.972l-0.087,139.011c-0.054,12.447,5.295,20.448,13.118,24.604 c-8.148,7.748-13.243,18.679-13.243,30.783c0,23.435,19.065,42.5,42.5,42.5s42.5-19.065,42.5-42.5 c0-6.184-1.339-12.057-3.724-17.361l0.049,0.045l16.986-9.155c1.11-0.556,2.335-0.845,3.577-0.845h76.812 c0.86,0,1.715,0.139,2.53,0.41l17.771,9.08c-2.562,5.463-4.001,11.553-4.001,17.976c0,23.435,19.065,42.5,42.5,42.5 s42.5-19.065,42.5-42.5c0-12.1-5.091-23.026-13.233-30.773C308.994,370.771,314.218,357.819,314.218,345.556z M72.429,429.816 c-12.406,0-22.5-10.094-22.5-22.5s10.094-22.5,22.5-22.5s22.5,10.094,22.5,22.5S84.835,429.816,72.429,429.816z M234.786,380.286 l0.143-0.286h0.104C234.952,380.096,234.866,380.189,234.786,380.286z M267.429,429.966c-12.406,0-22.5-10.094-22.5-22.5 s10.094-22.5,22.5-22.5c12.406,0,22.5,10.094,22.5,22.5S279.835,429.966,267.429,429.966z"/></svg>