<svg xmlns="http://www.w3.org/2000/svg" width="1000pt" height="1000pt" viewBox="0 0 1000 1000"><path d="M 937.046875 266.3125 C 933.417969 209.582031 908.425781 162.234375 866.667969 132.996094 C 824.910156 103.761719 771.871094 96.464844 717.320312 112.460938 C 664.441406 127.960938 616.253906 163.730469 581.632812 213.175781 C 547.011719 262.617188 529.878906 320.136719 533.398438 375.128906 C 536.527344 424.050781 555.558594 465.980469 587.511719 495.351562 L 400.792969 762.015625 C 388.394531 758.578125 374.644531 763.035156 366.847656 774.175781 L 283.199219 893.636719 C 273.300781 907.773438 276.734375 927.261719 290.875 937.160156 L 307.941406 949.109375 C 322.078125 959.007812 341.566406 955.574219 351.460938 941.433594 L 435.109375 821.972656 C 442.910156 810.832031 442.398438 796.386719 434.925781 785.910156 L 621.648438 519.238281 C 644.679688 531.183594 670.339844 537.273438 697.316406 537.273438 C 715.460938 537.273438 734.207031 534.527344 753.128906 528.980469 C 806.007812 513.480469 854.195312 477.710938 888.816406 428.265625 C 923.433594 378.820312 940.566406 321.304688 937.046875 266.3125 Z M 854.683594 404.367188 C 795.382812 489.054688 693.550781 520.433594 627.675781 474.308594 C 596.496094 452.480469 577.785156 416.308594 574.980469 372.464844 C 572.066406 326.878906 586.546875 278.796875 615.761719 237.074219 C 656.515625 178.875 717.34375 145.855469 772.792969 145.855469 C 798.03125 145.855469 822.164062 152.703125 842.769531 167.128906 C 908.636719 213.25 913.984375 319.675781 854.683594 404.367188 Z M 330.960938 479.167969 L 521.691406 479.167969 C 518.042969 472.90625 514.695312 466.421875 511.664062 459.703125 C 500.371094 434.664062 493.691406 407.101562 491.820312 377.789062 C 487.699219 313.390625 507.476562 246.441406 547.503906 189.277344 C 583.585938 137.746094 632.769531 98.96875 687.472656 78.527344 C 687.128906 69.621094 679.820312 62.5 670.832031 62.5 L 79.167969 62.5 C 69.960938 62.5 62.5 69.960938 62.5 79.167969 L 62.5 462.5 C 62.5 471.703125 69.960938 479.167969 79.167969 479.167969 L 84.484375 479.167969 C 94.433594 420.121094 145.894531 374.992188 207.722656 374.992188 C 269.554688 374.992188 321.011719 420.121094 330.960938 479.167969 Z M 207.722656 416.660156 C 161.695312 416.660156 124.382812 453.972656 124.382812 500 C 124.382812 546.027344 161.695312 583.339844 207.722656 583.339844 C 253.753906 583.339844 291.066406 546.027344 291.066406 500 C 291.066406 453.972656 253.753906 416.660156 207.722656 416.660156 Z M 207.722656 416.660156"/></svg>