<?xml version="1.0" encoding="iso-8859-1"?>
<!-- Generator: Adobe Illustrator 23.0.4, SVG Export Plug-In . SVG Version: 6.00 Build 0)  -->
<svg version="1.1" xmlns="http://www.w3.org/2000/svg" xmlns:xlink="http://www.w3.org/1999/xlink" x="0px" y="0px"
	 viewBox="0 0 480 480" style="enable-background:new 0 0 480 480;" xml:space="preserve">
<g id="Layer_4">
	<path d="M449.783,127.83c-1.742-27.231-13.739-49.957-33.783-63.991c-20.043-14.033-45.502-17.536-71.687-9.858
		c-25.382,7.441-48.512,24.61-65.13,48.344c-16.618,23.732-24.841,51.34-23.152,77.736c1.502,23.483,10.637,43.61,25.975,57.708
		l-89.625,127.998c-5.951-1.65-12.551,0.49-16.295,5.838l-40.15,57.341c-4.752,6.786-3.103,16.139,3.684,20.891l8.191,5.735
		c6.786,4.752,16.14,3.103,20.891-3.684l40.15-57.341c3.745-5.348,3.499-12.281-0.088-17.31l89.628-128.002
		c11.055,5.733,23.371,8.656,36.319,8.656c8.711,0,17.709-1.318,26.79-3.98c25.382-7.441,48.512-24.61,65.13-48.344
		S451.472,154.227,449.783,127.83z M410.248,194.097c-28.464,40.649-77.343,55.711-108.964,33.572
		c-14.965-10.479-23.948-27.84-25.294-48.886c-1.399-21.881,5.553-44.961,19.576-64.988c19.561-27.935,48.759-43.784,75.374-43.784
		c12.115,0,23.698,3.286,33.589,10.211C436.146,102.36,438.712,153.444,410.248,194.097z M158.861,230h91.55
		c-1.75-3.005-3.358-6.118-4.812-9.342c-5.421-12.02-8.627-25.249-9.526-39.32c-1.978-30.911,7.516-63.046,26.729-90.484
		c17.319-24.735,40.928-43.349,67.184-53.161C329.821,33.418,326.314,30,322,30H38c-4.418,0-8,3.582-8,8v184c0,4.418,3.582,8,8,8
		h2.553c4.776-28.341,29.477-50.004,59.154-50.004C129.386,179.996,154.085,201.659,158.861,230z M99.707,199.996
		c-22.094,0-40.004,17.91-40.004,40.004s17.91,40.004,40.004,40.004s40.004-17.91,40.004-40.004S121.801,199.996,99.707,199.996z"/>
</g>
<g id="Guide">
</g>
</svg>
