<svg xmlns="http://www.w3.org/2000/svg" viewBox="0 0 480 480"><path d="M449.487,140.416c-3.312-28.972-22.022-54.485-58.881-80.294c-36.985-25.898-67.402-34.776-95.725-27.949 c-25.609,6.177-49.122,25.598-73.994,61.119c-33.041,47.186-53.956,96.339-57.54,120.506 c-3.779,25.489,3.048,118.155,5.008,143.293c-5.433-0.792-11.101,1.422-14.464,6.226l-40.15,57.341 c-4.751,6.786-3.102,16.139,3.684,20.891l8.192,5.736c6.786,4.751,16.139,3.102,20.891-3.684l40.15-57.341 c3.388-4.839,3.507-10.975,0.845-15.825c24.43-6.768,113.782-31.939,136.423-44.198c21.482-11.633,60.518-48.099,93.558-95.286 C442.324,195.475,452.493,166.707,449.487,140.416z M187.834,349.587c-1.373-18.122-3.127-43.924-4.311-68.313l70.046,49.049 C230.223,337.535,205.35,344.693,187.834,349.587z M401.1,219.479c-27.147,38.771-64.42,77.105-86.698,89.169 c-6.477,3.507-20.215,8.548-36.862,14.042l-95.021-66.536c-0.517-17.511-0.469-32.137,0.611-39.423 c3.717-25.062,26.992-73.197,54.14-111.968c21.912-31.293,41.708-48.182,62.3-53.148c4.487-1.082,9.09-1.627,13.845-1.627 c18.916,0,40.192,8.642,65.721,26.517c31.825,22.285,47.866,43.315,50.481,66.183C432.035,163.84,422.974,188.24,401.1,219.479z M70.001,199.996c-22.094,0-40.004,17.91-40.004,40.004s17.91,40.004,40.004,40.004c22.093,0,40.003-17.91,40.003-40.004 S92.094,199.996,70.001,199.996z"/></svg>