<?xml version="1.0" encoding="iso-8859-1"?>
<!-- Generator: Adobe Illustrator 23.0.4, SVG Export Plug-In . SVG Version: 6.00 Build 0)  -->
<svg version="1.1" xmlns="http://www.w3.org/2000/svg" xmlns:xlink="http://www.w3.org/1999/xlink" x="0px" y="0px"
	 viewBox="0 0 480 480" style="enable-background:new 0 0 480 480;" xml:space="preserve">
<g id="Layer_4_copy">
	<path style="display:none;" d="M274.866,334.688l4.842-90.043c0.285-5.297-1.546-10.49-5.09-14.436
		c-3.544-3.948-8.511-6.324-13.807-6.609l-46.955-2.524c-11.032-0.593-20.452,7.867-21.045,18.897
		c-0.593,11.031,7.868,20.452,18.897,21.045l26.985,1.451l-2.437,45.319l-68.602-47.795c-9.063-6.315-21.53-4.088-27.843,4.977
		c-6.314,9.063-4.086,21.529,4.977,27.843l124.902,87.02c6.768,4.716,15.435,4.667,22.019,0.565
		c2.232-1.391,4.225-3.246,5.824-5.541c6.314-9.063,4.086-21.529-4.977-27.843L274.866,334.688z"/>
	<g style="display:none;">
		<path style="display:inline;" d="M425,209.341v-24.578c-12.56,2.108-22.469,12.017-24.577,24.578H425z"/>
		<path style="display:inline;" d="M435,209.341h24.578c-2.108-12.561-12.017-22.469-24.578-24.578V209.341z"/>
		<path style="display:inline;" d="M435,219.341v24.577c12.56-2.108,22.469-12.017,24.577-24.577H435z"/>
		<path style="display:inline;" d="M425,219.341h-24.577c2.108,12.56,12.017,22.469,24.577,24.577V219.341z"/>
	</g>
	<path d="M98.272,302.906c-43.01,0-78,34.99-78,78s34.99,78,78,78s78-34.99,78-78S141.282,302.906,98.272,302.906z M98.272,438.906
		c-31.981,0-58-26.019-58-58s26.019-58,58-58s58,26.019,58,58S130.253,438.906,98.272,438.906z M201.013,78.298
		c16.36,11.438,36.59,7.763,48.045-8.571c11.455-16.333,7.859-36.699-8.5-48.136c-16.36-11.438-36.762-7.849-48.217,8.486
		C180.886,46.409,184.654,66.861,201.013,78.298z M439.742,263.382C437.017,292.848,412.166,316,382,316c-31.981,0-58-26.019-58-58
		c0-17.762,8.032-33.675,20.647-44.322l33.745,49.203c1.938,2.826,5.07,4.345,8.256,4.345c1.949,0,3.919-0.568,5.647-1.754
		c4.555-3.124,5.714-9.349,2.591-13.903l-32.92-47.999C368.214,201.263,374.962,200,382,200l0.105,0.003
		c2.166-7.224,5.917-13.768,10.858-19.217C389.38,180.279,385.723,180,382,180c-11.244,0-21.93,2.41-31.595,6.711l-36.133-52.683
		c10.085-2.396,16.775-12.188,15.112-22.592c-1.183-7.399-6.288-13.188-12.852-15.607l16.062-22.939
		c3.168-4.523,2.068-10.759-2.456-13.927c-4.521-3.168-10.759-2.068-13.927,2.456l-25.127,35.885l-79.802,12.753l-26.172-18.324
		c-9.045-6.332-21.512-4.137-27.85,4.906L85.941,198.417c-17.615,25.16-9.883,61.078,17.237,80.067
		c3.492,2.445,7.492,3.619,11.454,3.619c6.303,0,12.507-2.973,16.397-8.525l86.936-124.083l74.499-11.905l40.838,59.545
		C315.457,211.441,304,233.402,304,258c0,43.01,34.99,78,78,78s78-34.99,78-78c0-1.212-0.037-2.415-0.092-3.614
		C454.045,258.776,447.187,261.905,439.742,263.382z M314.387,353.271l-24.326-15.013l-0.062-89.475
		c-0.006-8.873-5.857-16.681-14.371-19.178l-59.999-17.597c-10.604-3.112-21.712,2.963-24.82,13.562s2.964,21.712,13.562,24.82
		l45.639,13.385l0.034,49.786l-69.54-42.916c-9.4-5.802-21.723-2.885-27.523,6.516s-2.884,21.723,6.516,27.523l133.883,82.624
		c3.274,2.021,6.901,2.983,10.485,2.983c6.706,0,13.258-3.373,17.038-9.499C326.704,371.395,323.787,359.072,314.387,353.271z
		 M430,244.338c16.568,0,30-13.431,30-30c0-16.568-13.432-30-30-30c-16.569,0-30,13.432-30,30
		C400,230.907,413.431,244.338,430,244.338z"/>
</g>
<g id="Guides">
</g>
</svg>
