<svg xmlns="http://www.w3.org/2000/svg" width="1000pt" height="1000pt" viewBox="0 0 1000 1000"><path d="M 204.734375 631.054688 C 115.128906 631.054688 42.234375 703.949219 42.234375 793.554688 C 42.234375 883.160156 115.128906 956.054688 204.734375 956.054688 C 294.335938 956.054688 367.234375 883.160156 367.234375 793.554688 C 367.234375 703.949219 294.335938 631.054688 204.734375 631.054688 Z M 204.734375 914.386719 C 138.105469 914.386719 83.898438 860.179688 83.898438 793.554688 C 83.898438 726.925781 138.105469 672.722656 204.734375 672.722656 C 271.359375 672.722656 325.566406 726.925781 325.566406 793.554688 C 325.566406 860.179688 271.359375 914.386719 204.734375 914.386719 Z M 418.777344 163.121094 C 452.859375 186.949219 495.007812 179.292969 518.871094 145.265625 C 542.734375 111.238281 535.242188 68.808594 501.164062 44.980469 C 467.078125 21.152344 424.574219 28.628906 400.710938 62.660156 C 376.847656 96.683594 384.695312 139.292969 418.777344 163.121094 Z M 916.128906 548.710938 C 910.453125 610.101562 858.679688 658.332031 795.832031 658.332031 C 729.207031 658.332031 675 604.128906 675 537.5 C 675 500.496094 691.734375 467.34375 718.015625 445.164062 L 788.316406 547.667969 C 792.355469 553.554688 798.878906 556.722656 805.515625 556.722656 C 809.578125 556.722656 813.679688 555.539062 817.28125 553.066406 C 826.769531 546.558594 829.183594 533.589844 822.679688 524.101562 L 754.097656 424.105469 C 767.113281 419.296875 781.171875 416.667969 795.832031 416.667969 L 796.050781 416.671875 C 800.566406 401.621094 808.378906 387.988281 818.671875 376.636719 C 811.207031 375.582031 803.589844 375 795.832031 375 C 772.410156 375 750.144531 380.019531 730.011719 388.980469 L 654.734375 279.226562 C 675.742188 274.234375 689.679688 253.832031 686.214844 232.160156 C 683.753906 216.742188 673.117188 204.683594 659.441406 199.644531 L 692.902344 151.855469 C 699.503906 142.429688 697.210938 129.441406 687.789062 122.839844 C 678.367188 116.238281 665.371094 118.53125 658.773438 127.957031 L 606.425781 202.714844 L 440.171875 229.285156 L 385.644531 191.109375 C 366.800781 177.917969 340.828125 182.492188 327.625 201.332031 L 179.042969 413.367188 C 142.347656 465.785156 158.453125 540.613281 214.953125 580.175781 C 222.230469 585.269531 230.5625 587.714844 238.816406 587.714844 C 251.949219 587.714844 264.871094 581.519531 272.976562 569.953125 L 454.09375 311.449219 L 609.300781 286.644531 L 694.378906 410.699219 C 657.203125 440.503906 633.332031 486.253906 633.332031 537.5 C 633.332031 627.105469 706.230469 700 795.832031 700 C 885.4375 700 958.332031 627.105469 958.332031 537.5 C 958.332031 534.976562 958.257812 532.46875 958.140625 529.972656 C 945.925781 539.117188 931.640625 545.636719 916.128906 548.710938 Z M 654.972656 735.980469 L 604.292969 704.703125 L 604.164062 518.296875 C 604.152344 499.8125 591.960938 483.546875 574.226562 478.34375 L 449.226562 441.683594 C 427.136719 435.199219 403.992188 447.855469 397.519531 469.9375 C 391.042969 492.019531 403.695312 515.171875 425.773438 521.644531 L 520.855469 549.53125 L 520.925781 653.253906 L 376.050781 563.84375 C 356.464844 551.757812 330.792969 557.832031 318.710938 577.417969 C 306.628906 597.003906 312.703125 622.675781 332.285156 634.757812 L 611.207031 806.890625 C 618.027344 811.101562 625.585938 813.105469 633.050781 813.105469 C 647.023438 813.105469 660.671875 806.078125 668.546875 793.316406 C 680.632812 773.738281 674.554688 748.066406 654.972656 735.980469 Z M 895.832031 509.039062 C 930.351562 509.039062 958.332031 481.054688 958.332031 446.539062 C 958.332031 412.019531 930.351562 384.039062 895.832031 384.039062 C 861.316406 384.039062 833.332031 412.019531 833.332031 446.539062 C 833.332031 481.054688 861.316406 509.039062 895.832031 509.039062 Z M 895.832031 509.039062"/></svg>