<?xml version="1.0" encoding="iso-8859-1"?>
<!-- Generator: Adobe Illustrator 23.0.4, SVG Export Plug-In . SVG Version: 6.00 Build 0)  -->
<svg version="1.1" xmlns="http://www.w3.org/2000/svg" xmlns:xlink="http://www.w3.org/1999/xlink" x="0px" y="0px"
	 viewBox="0 0 480 480" style="enable-background:new 0 0 480 480;" xml:space="preserve">
<g id="Workspace">
	<g style="display:none;">
		<path style="display:inline;" d="M320,80l-54.261-47.992c-1.462-1.294-3.348-2.008-5.3-2.008H34.008
			c-3.571,0-5.352,4.324-2.817,6.839L80,80H320z"/>
		<rect x="80" y="100" style="display:inline;" width="240" height="130"/>
	</g>
	<path d="M440,430H40c-5.522,0-10,4.478-10,10s4.478,10,10,10h400c5.522,0,10-4.478,10-10S445.522,430,440,430z M241.035,107.867
		c-20.448,29.202-30.567,63.146-28.492,95.576c0.657,10.283,2.513,20.037,5.478,29.113l-2.819,84.65
		c-5.638-1.096-11.65,1.104-15.157,6.111l-40.15,57.341c-4.752,6.786-3.103,16.14,3.684,20.892l8.191,5.735
		c6.786,4.751,16.139,3.103,20.891-3.684l40.15-57.341c3.507-5.008,3.518-11.41,0.56-16.334l78.593-31.606
		c9.539-0.317,19.335-1.907,29.219-4.804c31.185-9.143,59.62-30.261,80.068-59.465c20.448-29.203,30.567-63.146,28.493-95.577
		c-2.128-33.267-16.748-61.003-41.168-78.102c-24.417-17.099-55.483-21.351-87.471-11.972
		C289.919,57.545,261.483,78.663,241.035,107.867z M235.535,307.5l1.37-41.129c4.928,5.699,10.541,10.789,16.805,15.174
		c6.265,4.387,12.972,7.914,20.014,10.597L235.535,307.5z M353.718,63.558c15.637,0,30.601,4.247,43.386,13.199
		c19.342,13.543,30.947,35.915,32.68,62.995c1.785,27.916-7.063,57.332-24.917,82.83c-24.516,35.011-60.975,55.097-94.587,55.759
		c-0.171-0.005-0.341,0.001-0.512,0.005c-16.071,0.223-31.475-4.003-44.587-13.184c-13.102-9.174-22.336-22.188-27.626-37.351
		c-0.06-0.179-0.118-0.357-0.188-0.532c-10.869-31.811-4.462-72.935,20.051-107.941C282.35,83.731,319.635,63.558,353.718,63.558z
		 M159.18,230h37.317c-2.038-8.125-3.358-16.59-3.915-25.279c-2.277-35.605,8.222-72.626,29.612-104.721H80v83.312
		c6.261-2.221,12.991-3.441,20.004-3.441C129.725,179.871,154.456,201.598,159.18,230z M80,80h157.552
		c12.505-14.197,26.883-26.143,42.49-35.342l-14.303-12.65c-1.463-1.294-3.348-2.008-5.301-2.008H34.008
		c-3.57,0-5.352,4.324-2.817,6.84L80,80z M60,239.875c0,22.094,17.91,40.004,40.004,40.004c22.093,0,40.003-17.91,40.003-40.004
		c0-22.093-17.91-40.003-40.003-40.003C77.91,199.872,60,217.782,60,239.875z"/>
</g>
<g id="Layer_3">
</g>
</svg>
