<svg xmlns="http://www.w3.org/2000/svg" width="1000pt" height="1000pt" viewBox="0 0 1000 1000"><path d="M 759.941406 128.769531 C 750.519531 122.171875 737.527344 124.460938 730.925781 133.886719 L 345.371094 684.511719 C 324.238281 665.335938 306.292969 645.441406 292.914062 626.097656 C 279.601562 606.851562 274.035156 592.839844 271.933594 584.007812 C 269.832031 577.167969 270.269531 569.855469 273.359375 562.570312 C 279.902344 547.144531 296.847656 535.800781 307.964844 535.277344 C 313.664062 535 318.589844 539.441406 318.859375 545.191406 C 319.132812 550.929688 314.703125 555.808594 308.960938 556.085938 C 305.859375 556.359375 296.167969 562.378906 292.621094 570.546875 C 301.398438 570.839844 312.957031 572.339844 327.828125 576.234375 C 341.921875 579.921875 356.820312 585.199219 372.117188 591.824219 L 420.714844 522.417969 C 392.542969 509.011719 364.820312 499.035156 338.964844 493.183594 C 253.695312 473.882812 216.945312 505.289062 202.636719 525.726562 C 188.324219 546.167969 171.378906 591.429688 218.683594 664.96875 C 237.765625 694.636719 264.839844 724.914062 297.253906 753.226562 L 234.945312 842.214844 C 228.34375 851.636719 230.636719 864.628906 240.058594 871.230469 C 243.695312 873.777344 247.863281 875 251.992188 875 C 258.558594 875 265.023438 871.902344 269.074219 866.113281 L 329.703125 779.527344 C 335.304688 783.753906 341 787.921875 346.820312 791.996094 C 401.289062 830.136719 459.246094 857.46875 510.011719 868.957031 C 528.742188 873.195312 545.132812 874.988281 559.457031 874.988281 C 610.347656 874.988281 635.175781 852.363281 646.34375 836.414062 C 660.652344 815.976562 677.601562 770.710938 630.296875 697.171875 C 603.566406 655.613281 561.183594 612.863281 510.359375 576.007812 L 462.5625 644.265625 C 501.703125 672.800781 534.683594 705.132812 556.066406 736.042969 C 565.195312 749.242188 570.664062 759.960938 573.890625 768.261719 C 576.566406 767.132812 579.164062 765.601562 581.234375 763.589844 C 584.566406 760.355469 585.390625 756.820312 583.921875 752.117188 C 582.203125 746.628906 585.261719 740.785156 590.746094 739.066406 C 596.238281 737.351562 602.082031 740.402344 603.800781 745.890625 C 607.726562 758.425781 604.683594 770.191406 595.238281 779.023438 C 589.558594 784.332031 582.191406 787.917969 574.890625 789.84375 C 568.007812 791.964844 551.285156 793.792969 521.15625 785.90625 C 482.285156 775.730469 437.347656 753.648438 394.617188 723.730469 C 388.789062 719.648438 383.09375 715.472656 377.527344 711.226562 L 765.054688 157.78125 C 771.65625 148.359375 769.367188 135.367188 759.941406 128.769531 Z M 759.941406 128.769531"/></svg>