<svg xmlns="http://www.w3.org/2000/svg" viewBox="0 0 480 480"><path d="M364.771,61.809c-4.521-3.167-10.758-2.068-13.927,2.456L165.778,328.566c-10.143-9.205-18.758-18.755-25.179-28.039 c-6.39-9.238-9.062-15.964-10.071-20.204c-1.008-3.283-0.798-6.793,0.685-10.289c3.141-7.405,11.274-12.849,16.61-13.101 c2.735-0.133,5.1,1.999,5.23,4.758c0.131,2.756-1.996,5.097-4.751,5.23c-1.49,0.131-6.142,3.021-7.843,6.941 c4.212,0.141,9.761,0.862,16.898,2.73c6.766,1.771,13.917,4.303,21.26,7.483l23.327-33.314 c-13.523-6.435-26.83-11.225-39.24-14.033c-40.93-9.265-58.571,5.811-65.439,15.621c-6.869,9.811-15.003,31.538,7.703,66.836 c9.16,14.241,22.155,28.774,37.714,42.364l-29.909,42.714c-3.168,4.523-2.068,10.759,2.456,13.927 c1.745,1.223,3.745,1.81,5.727,1.81c3.152,0,6.255-1.487,8.2-4.266l29.101-41.56c2.689,2.027,5.423,4.028,8.216,5.984 c26.146,18.308,53.965,31.427,78.332,36.941c8.992,2.034,16.858,2.895,23.734,2.895c24.428,0,36.346-10.86,41.706-18.516 c6.869-9.81,15.003-31.537-7.703-66.836c-12.831-19.947-33.174-40.467-57.57-58.159l-22.942,32.765 c18.787,13.696,34.619,29.216,44.881,44.053c4.383,6.336,7.007,11.48,8.557,15.464c1.284-0.541,2.531-1.276,3.525-2.241 c1.598-1.553,1.995-3.251,1.289-5.507c-0.825-2.636,0.643-5.44,3.277-6.266c2.635-0.822,5.441,0.643,6.266,3.277 c1.884,6.017,0.424,11.664-4.111,15.903c-2.726,2.548-6.262,4.269-9.767,5.194c-3.304,1.019-11.33,1.895-25.792-1.89 c-18.658-4.885-40.229-15.483-60.738-29.844c-2.799-1.96-5.532-3.965-8.204-6.002L367.227,75.735 C370.395,71.212,369.296,64.977,364.771,61.809z"/></svg>