<?xml version="1.0" encoding="iso-8859-1"?>
<!-- Generator: Adobe Illustrator 23.0.4, SVG Export Plug-In . SVG Version: 6.00 Build 0)  -->
<svg version="1.1" xmlns="http://www.w3.org/2000/svg" xmlns:xlink="http://www.w3.org/1999/xlink" x="0px" y="0px"
	 viewBox="0 0 480 480" style="enable-background:new 0 0 480 480;" xml:space="preserve">
<g id="Layer_4">
	<g id="Layer_5">
	</g>
	<g id="Layer_1">
		<path d="M449.215,391.078c-0.094-0.96-0.202-1.91-0.325-2.848c-0.043-0.326-0.093-0.646-0.138-0.968
			c-0.015-0.102-0.029-0.202-0.044-0.303c-0.058-0.399-0.115-0.798-0.178-1.192l-0.025-0.149c-0.13-0.812-0.27-1.611-0.417-2.399
			c-0.026-0.15-0.051-0.304-0.08-0.451l-0.007-0.037l-0.05-0.245c-0.143-0.734-0.29-1.46-0.444-2.17l-0.028-0.137l-0.056-0.238
			c-0.217-0.985-0.447-1.979-0.697-2.983c-0.119-0.479-0.255-0.971-0.381-1.455c-0.159-0.609-0.312-1.215-0.482-1.831
			c-0.167-0.602-0.35-1.213-0.528-1.821c-0.148-0.508-0.289-1.011-0.444-1.523c-0.214-0.702-0.445-1.416-0.673-2.127
			c-0.136-0.424-0.265-0.843-0.405-1.27c-0.26-0.785-0.537-1.581-0.813-2.377c-0.125-0.361-0.245-0.719-0.374-1.082
			c-0.305-0.856-0.626-1.723-0.951-2.591c-0.115-0.309-0.225-0.614-0.342-0.924c-0.354-0.93-0.723-1.87-1.099-2.812
			c-0.1-0.252-0.196-0.5-0.297-0.753c-0.403-1-0.822-2.009-1.25-3.023c-0.084-0.2-0.166-0.398-0.251-0.6
			c-0.452-1.062-0.92-2.135-1.399-3.212c-0.069-0.156-0.136-0.312-0.206-0.468c-0.502-1.122-1.02-2.254-1.55-3.393
			c-0.053-0.114-0.105-0.229-0.159-0.343c-0.551-1.179-1.119-2.366-1.702-3.562l-0.11-0.228c-0.602-1.233-1.22-2.476-1.854-3.727
			l-0.06-0.118c-0.651-1.281-1.318-2.572-2.003-3.872l-0.017-0.032c-2.085-3.96-4.329-8.005-6.729-12.135v0.001
			c-6.276,14.005-14.119,27.152-23.301,39.229c7.969,16.813,10.668,28.259,11.155,35.414l0,0.013
			c0.106,1.565,0.11,2.928,0.037,4.094l-0.003,0.062c-0.016,0.239-0.035,0.468-0.057,0.69l-0.024,0.245
			c-0.021,0.195-0.044,0.385-0.069,0.567c-0.013,0.095-0.027,0.187-0.042,0.277c-0.025,0.164-0.051,0.328-0.08,0.48
			c-0.019,0.104-0.041,0.198-0.062,0.297c-0.038,0.179-0.076,0.353-0.118,0.514c-0.04,0.155-0.08,0.309-0.122,0.448l-0.075,0.225
			c-0.037,0.111-0.075,0.221-0.113,0.321l-0.077,0.188c-0.041,0.098-0.083,0.19-0.125,0.276l-0.073,0.145l-0.145,0.247l-0.057,0.09
			c-0.068,0.099-0.137,0.188-0.205,0.259c-0.066,0.07-0.149,0.143-0.241,0.215l-0.061,0.046c-0.088,0.065-0.187,0.132-0.297,0.198
			l-0.038,0.023c-0.128,0.075-0.271,0.149-0.428,0.224l-0.064,0.029c-0.142,0.065-0.296,0.13-0.461,0.193l-0.087,0.034
			c-0.381,0.142-0.824,0.276-1.327,0.399l-0.136,0.032c-0.513,0.12-1.087,0.227-1.727,0.314l-0.164,0.021
			c-0.287,0.037-0.586,0.07-0.899,0.1l-0.14,0.014c-0.359,0.032-0.734,0.058-1.127,0.077l-0.14,0.006
			c-0.348,0.016-0.709,0.026-1.083,0.031l-0.25,0.003c-0.296,0.003-0.609-0.002-0.922-0.007c-0.188-0.003-0.373-0.005-0.567-0.011
			c-0.307-0.009-0.627-0.024-0.949-0.04c-0.203-0.011-0.4-0.019-0.609-0.031c-0.33-0.021-0.676-0.05-1.021-0.078
			c-0.22-0.018-0.434-0.033-0.66-0.054c-0.351-0.033-0.718-0.076-1.083-0.117c-0.241-0.027-0.474-0.05-0.721-0.081
			c-0.372-0.046-0.76-0.103-1.146-0.157c-0.261-0.037-0.513-0.069-0.781-0.111c-0.393-0.06-0.805-0.132-1.213-0.201
			c-0.281-0.048-0.554-0.091-0.842-0.143c-0.413-0.075-0.846-0.163-1.273-0.247c-0.304-0.061-0.599-0.114-0.911-0.179
			c-0.424-0.089-0.871-0.191-1.309-0.289c-0.993-0.222-2.015-0.463-3.081-0.735c-0.108-0.027-0.209-0.05-0.318-0.078
			c-0.494-0.128-1.011-0.272-1.521-0.412c-0.35-0.096-0.689-0.183-1.046-0.284c-0.504-0.143-1.03-0.302-1.549-0.455
			c-0.386-0.115-0.762-0.222-1.156-0.343c-0.522-0.159-1.066-0.336-1.603-0.508c-0.414-0.132-0.819-0.257-1.242-0.396
			c-0.542-0.178-1.103-0.372-1.659-0.562c-0.443-0.15-0.878-0.296-1.33-0.454c-0.559-0.196-1.137-0.409-1.71-0.617
			c-0.474-0.172-0.941-0.338-1.425-0.519c-0.577-0.215-1.172-0.445-1.763-0.673c-0.505-0.193-1.004-0.383-1.519-0.586
			c-0.594-0.233-1.205-0.482-1.813-0.729c-0.401-0.162-0.802-0.324-1.209-0.491l-0.014-0.006h0c-0.17-0.07-0.335-0.136-0.507-0.207
			c-0.307-0.127-0.617-0.257-0.927-0.388c-0.886-0.372-1.785-0.756-2.699-1.153c-0.188-0.081-0.371-0.159-0.56-0.241
			c-1.074-0.471-2.174-0.964-3.287-1.471c-0.293-0.134-0.589-0.27-0.885-0.405c-1.103-0.507-2.219-1.026-3.36-1.568l-0.181-0.086
			c-1.217-0.579-2.463-1.188-3.725-1.81c-0.262-0.129-0.526-0.26-0.79-0.392c-1.282-0.637-2.579-1.289-3.907-1.971
			c-0.102-0.053-0.206-0.108-0.308-0.16c-1.474-0.76-2.955-1.536-4.446-2.332c-0.168-0.09-0.338-0.182-0.507-0.272
			c-1.503-0.806-3.014-1.625-4.532-2.464l-0.066-0.036l-0.121-0.067c-1.239-0.685-2.483-1.38-3.732-2.088l-0.01-0.005
			c-1.884-1.067-3.783-2.17-5.689-3.289v0.001c-8.466-4.969-17.135-10.428-25.957-16.351c-0.096-0.064-0.192-0.128-0.288-0.192
			c-1.193-0.802-2.39-1.614-3.588-2.433c-0.217-0.148-0.435-0.296-0.652-0.445c-1.125-0.771-2.252-1.549-3.381-2.334
			c-0.293-0.204-0.586-0.407-0.88-0.612c-1.081-0.754-2.164-1.515-3.249-2.282c-0.342-0.241-0.684-0.483-1.026-0.727
			c-1.053-0.747-2.106-1.5-3.162-2.26c-0.374-0.269-0.749-0.54-1.124-0.811c-1.037-0.749-2.075-1.502-3.114-2.262
			c-0.389-0.285-0.778-0.572-1.168-0.858c-1.033-0.759-2.067-1.521-3.104-2.291c-0.387-0.287-0.773-0.578-1.161-0.867
			c-1.045-0.78-2.09-1.562-3.137-2.353c-0.357-0.271-0.716-0.545-1.074-0.816c-1.081-0.819-2.162-1.641-3.244-2.471
			c-0.241-0.186-0.483-0.374-0.724-0.56c-0.344-0.265-0.69-0.538-1.034-0.804c-3.213-2.481-6.434-5.006-9.661-7.584
			c-0.468-0.374-0.935-0.743-1.403-1.119c-0.823-0.661-1.647-1.33-2.471-1.997c-0.651-0.526-1.302-1.051-1.953-1.582
			c-0.766-0.624-1.532-1.255-2.299-1.884c-0.715-0.587-1.43-1.172-2.145-1.764c-0.729-0.603-1.458-1.21-2.187-1.817
			c-0.754-0.628-1.509-1.256-2.263-1.889c-0.703-0.59-1.406-1.184-2.109-1.777c-0.785-0.663-1.569-1.326-2.353-1.994
			c-0.677-0.576-1.354-1.155-2.031-1.735c-0.812-0.695-1.625-1.395-2.438-2.096c-0.659-0.568-1.317-1.138-1.975-1.71
			c-0.833-0.724-1.666-1.45-2.499-2.18c-0.637-0.558-1.273-1.115-1.91-1.676c-0.863-0.761-1.727-1.526-2.59-2.293
			c-0.607-0.539-1.213-1.077-1.82-1.618c-0.905-0.809-1.81-1.622-2.714-2.438c-0.565-0.509-1.13-1.016-1.695-1.526
			c-0.977-0.885-1.953-1.775-2.929-2.668c-0.491-0.448-0.983-0.895-1.474-1.345c-1.132-1.039-2.262-2.085-3.392-3.133
			c-0.336-0.312-0.674-0.621-1.01-0.935c-1.481-1.378-2.961-2.764-4.439-4.157c-1.478-1.394-2.947-2.79-4.409-4.188
			c-0.334-0.32-0.665-0.641-0.999-0.961c-1.109-1.063-2.216-2.128-3.316-3.194c-0.481-0.467-0.959-0.934-1.438-1.401
			c-0.946-0.921-1.891-1.842-2.83-2.764c-0.54-0.531-1.076-1.062-1.614-1.594c-0.869-0.857-1.737-1.716-2.6-2.575
			c-0.576-0.574-1.149-1.148-1.722-1.723c-0.813-0.814-1.626-1.63-2.434-2.445c-0.6-0.605-1.197-1.212-1.794-1.818
			c-0.774-0.786-1.546-1.572-2.315-2.359c-0.614-0.628-1.226-1.257-1.836-1.886c-0.738-0.759-1.472-1.519-2.205-2.278
			c-0.63-0.654-1.259-1.309-1.886-1.963c-0.32-0.335-0.637-0.669-0.956-1.004h0c-0.38-0.398-0.76-0.796-1.139-1.194
			c-0.643-0.677-1.286-1.354-1.924-2.029c-0.668-0.708-1.332-1.416-1.995-2.124c-0.656-0.699-1.312-1.399-1.963-2.099
			c-0.622-0.669-1.238-1.337-1.855-2.005c-0.685-0.741-1.37-1.481-2.049-2.222c-0.548-0.598-1.089-1.195-1.634-1.792
			c-0.734-0.806-1.47-1.611-2.198-2.416c-0.371-0.411-0.736-0.821-1.105-1.231c-1.943-2.159-3.854-4.316-5.749-6.472
			c-1.141-1.297-2.282-2.595-3.405-3.891c-0.175-0.201-0.353-0.404-0.528-0.605c-0.916-1.06-1.821-2.117-2.725-3.175
			c-0.266-0.311-0.535-0.622-0.799-0.934c-0.871-1.022-1.732-2.043-2.592-3.064c-0.291-0.346-0.584-0.691-0.874-1.037
			c-0.844-1.007-1.68-2.013-2.513-3.018c-0.293-0.354-0.589-0.709-0.881-1.063c-0.834-1.011-1.66-2.021-2.483-3.028
			c-0.275-0.338-0.55-0.676-0.824-1.013c-0.838-1.031-1.668-2.062-2.494-3.091c-0.243-0.303-0.485-0.605-0.727-0.908
			c-0.846-1.059-1.685-2.115-2.517-3.171c-0.206-0.261-0.41-0.521-0.615-0.782c-0.866-1.103-1.727-2.203-2.578-3.303
			c-0.141-0.182-0.28-0.363-0.42-0.544c-0.906-1.174-1.806-2.345-2.695-3.514l-0.154-0.203
			c-8.868-11.669-16.856-23.108-23.839-34.167l-0.021-0.032l-0.02-0.032l-0.022-0.034c-0.942-1.493-1.868-2.98-2.773-4.46
			c-0.083-0.135-0.167-0.27-0.25-0.404c-0.914-1.497-1.813-2.988-2.688-4.471l-0.087-0.146c-0.743-1.259-1.454-2.489-2.151-3.708
			c-0.179-0.312-0.356-0.623-0.532-0.933c-0.63-1.11-1.248-2.209-1.841-3.284c-0.175-0.317-0.342-0.628-0.514-0.942
			c-0.444-0.812-0.879-1.616-1.302-2.41c-0.272-0.511-0.542-1.018-0.806-1.521c-0.284-0.541-0.56-1.073-0.834-1.604
			c-0.515-0.996-1.012-1.976-1.494-2.938c-0.146-0.294-0.294-0.589-0.438-0.879c-0.334-0.677-0.663-1.347-0.981-2.007l-0.009-0.019
			l-0.026-0.055c-1.826-3.792-3.386-7.314-4.717-10.585l-0.059-0.145c-0.321-0.791-0.629-1.567-0.923-2.328l-0.047-0.122
			c-1.83-4.742-3.156-8.91-4.089-12.543l-0.002-0.008c-0.777-3.028-1.287-5.688-1.59-7.996l-0.006-0.046
			c-0.057-0.438-0.107-0.862-0.15-1.275l-0.013-0.127c-0.042-0.408-0.078-0.806-0.106-1.188l-0.002-0.032
			c-0.114-1.553-0.125-2.906-0.063-4.074l0.013-0.24c0.014-0.226,0.031-0.442,0.05-0.653c0.009-0.098,0.019-0.192,0.028-0.287
			c0.021-0.193,0.042-0.383,0.066-0.562c0.014-0.099,0.028-0.189,0.042-0.284c0.026-0.168,0.051-0.337,0.08-0.493l0.052-0.253
			c0.051-0.252,0.106-0.488,0.165-0.708c0.028-0.104,0.055-0.212,0.084-0.31c0.029-0.095,0.059-0.18,0.088-0.269
			c0.033-0.096,0.065-0.191,0.099-0.279l0.089-0.219l0.11-0.245l0.086-0.173l0.126-0.215l0.076-0.121l0.179-0.227l0.021-0.027
			c0.82-0.869,3.618-1.964,8.953-1.964c0.408,0,0.835,0.009,1.272,0.022l0.257,0.009c0.439,0.017,0.89,0.037,1.359,0.067
			l0.008,0.001c0.488,0.031,0.996,0.073,1.518,0.122l0.224,0.022c0.506,0.049,1.025,0.105,1.562,0.172l0.043,0.005
			c0.578,0.072,1.175,0.155,1.789,0.248l0.109,0.018c0.605,0.092,1.227,0.195,1.867,0.31l0.027,0.005
			c6.708,1.199,15.386,3.633,26.353,8.064l0,0.001l0.017,0.007c-5.628,4.82-10.982,9.949-16.042,15.357l-0.021-0.007
			c-1.734,1.853-3.442,3.73-5.106,5.648l0.009,0.023c2.963,7.24,7.452,16.485,14.27,28.041c0.221,0.374,0.452,0.753,0.676,1.128
			c4.845-6.456,10.177-12.615,15.986-18.425c24.886-24.886,56.136-41.076,90.075-47.11c-11.393,2.044-22.397,5.223-32.887,9.424
			c-24.313,24.522-42.236,54.781-51.925,88.101c6.927,9.516,14.509,19.233,22.666,29.06c8.821-54.82,42.701-102.777,92.104-129.265
			c-0.839,0.001-1.676,0.018-2.514,0.031c0.839-0.014,1.676-0.032,2.518-0.033l-0.004,0.002L240,70
			c45.409,0,88.099,17.684,120.208,49.792S410,194.592,410,240s-17.683,88.1-49.792,120.208c-3.436,3.436-6.999,6.695-10.667,9.797
			l0.014,0.007c0.404,0.21,0.811,0.427,1.213,0.634c11.906,6.116,21.402,10.049,28.806,12.58c4.032-3.93,7.907-8.019,11.597-12.274
			l0.083-0.096c0.938-1.084,1.862-2.181,2.778-3.285c0.182-0.22,0.364-0.439,0.545-0.659c0.846-1.029,1.682-2.067,2.507-3.113
			c0.214-0.271,0.425-0.544,0.638-0.815C424.211,329.06,440,286.375,440,240c0-110.457-89.543-200-200-200
			c-33.338,0-64.763,8.171-92.402,22.601l0.227-0.122h0c-5.689-2.876-11.214-5.483-16.566-7.816l-0.014-0.006
			c-0.233-0.102-0.46-0.195-0.692-0.296c-1.087-0.47-2.171-0.937-3.244-1.384l-0.118-0.049c-1.268-0.529-2.526-1.042-3.773-1.539
			l-0.223-0.088c-1.211-0.48-2.413-0.947-3.604-1.398c-0.116-0.044-0.23-0.085-0.346-0.129c-1.148-0.433-2.288-0.853-3.418-1.257
			c-0.162-0.058-0.322-0.112-0.484-0.17c-1.082-0.385-2.158-0.759-3.223-1.117c-0.204-0.068-0.405-0.132-0.609-0.2
			c-1.018-0.339-2.031-0.67-3.033-0.984c-0.256-0.08-0.508-0.154-0.763-0.233c-0.944-0.292-1.886-0.579-2.815-0.85
			c-0.31-0.09-0.614-0.171-0.921-0.259c-0.872-0.248-1.743-0.494-2.602-0.724c-0.352-0.094-0.696-0.177-1.046-0.268
			c-0.808-0.209-1.616-0.419-2.412-0.61c-0.401-0.097-0.793-0.182-1.191-0.273c-0.736-0.171-1.475-0.346-2.201-0.501
			c-0.457-0.098-0.903-0.182-1.355-0.273c-0.66-0.134-1.323-0.274-1.974-0.396c-0.527-0.099-1.043-0.18-1.565-0.271
			c-0.559-0.097-1.124-0.202-1.676-0.289c-1.062-0.167-2.154-0.32-3.268-0.458l-0.178-0.021c-1.058-0.129-2.137-0.242-3.233-0.339
			c-0.097-0.009-0.194-0.017-0.292-0.024c-1.083-0.092-2.183-0.164-3.295-0.217c-0.091-0.004-0.183-0.01-0.275-0.014
			c-1.158-0.051-2.329-0.079-3.511-0.08l-0.124-0.001c-0.735,0.001-1.475,0.014-2.217,0.035c-0.152,0.005-0.305,0.011-0.458,0.017
			c-0.636,0.022-1.273,0.054-1.912,0.093c-0.131,0.009-0.261,0.015-0.393,0.023c-0.744,0.051-1.49,0.113-2.237,0.188
			c-0.131,0.014-0.262,0.029-0.393,0.044c-0.637,0.067-1.274,0.146-1.911,0.233c-0.163,0.022-0.326,0.044-0.488,0.067
			c-0.75,0.109-1.499,0.229-2.246,0.367l-0.232,0.046c-0.672,0.126-1.343,0.268-2.013,0.418c-0.174,0.04-0.349,0.079-0.523,0.121
			c-1.483,0.35-2.958,0.764-4.416,1.246c-0.175,0.058-0.349,0.117-0.522,0.177c-0.647,0.223-1.292,0.457-1.933,0.708l-0.257,0.098
			c-0.713,0.284-1.421,0.591-2.124,0.912c-0.16,0.073-0.319,0.15-0.479,0.226c-0.588,0.277-1.172,0.568-1.75,0.873
			c-0.135,0.071-0.272,0.14-0.407,0.213c-0.683,0.369-1.358,0.758-2.026,1.167c-0.132,0.082-0.263,0.168-0.394,0.25
			c-0.558,0.351-1.109,0.716-1.655,1.096c-0.154,0.107-0.31,0.214-0.463,0.323c-0.648,0.465-1.288,0.946-1.917,1.455l-0.241,0.203
			c-0.552,0.453-1.096,0.927-1.632,1.416c-0.155,0.142-0.311,0.283-0.464,0.428c-0.605,0.569-1.203,1.153-1.786,1.771
			c-9.441,10.01-12.256,22.766-12.123,34.722c0.07,6.262,0.949,12.306,2.107,17.619c3.775,17.305,12.535,37.684,26.038,60.57
			c0.281,0.476,0.574,0.956,0.858,1.434C44.668,190.705,40,214.806,40,240c0,110.457,89.543,200,200,200
			c29.333,0,57.182-6.326,82.278-17.673l0.02,0.011h0c0.503,0.261,1.01,0.53,1.511,0.788c23.637,12.142,44.493,19.695,61.989,22.451
			c4.342,0.684,9.147,1.157,14.134,1.157c12.962,0,27.143-3.2,37.532-14.216C448.704,420.603,450.552,404.795,449.215,391.078z
			 M220.626,71.104c-1.86,0.212-3.711,0.456-5.553,0.728C216.918,71.562,218.767,71.313,220.626,71.104z M70,240
			c0-0.486,0.002-0.972,0.006-1.457l0.012,0.005c0.106-12.819,1.627-25.413,4.481-37.606l0.028,0.039l0.02,0.027
			c1.55,2.167,3.132,4.342,4.741,6.524c0.13,0.176,0.261,0.352,0.391,0.527c1.584,2.144,3.192,4.293,4.832,6.45l0.025,0.033
			c1.66,2.185,3.352,4.376,5.067,6.572c0.171,0.219,0.343,0.438,0.515,0.657c1.68,2.146,3.382,4.296,5.113,6.451l0.035,0.043
			c1.751,2.181,3.533,4.366,5.335,6.556c0.228,0.277,0.458,0.555,0.687,0.831c1.744,2.112,3.507,4.226,5.297,6.344l0.113,0.134
			c1.823,2.156,3.675,4.315,5.544,6.476c0.298,0.345,0.598,0.688,0.896,1.033c0.47,0.541,0.952,1.083,1.425,1.624
			c-2.115-0.356-4.214-0.765-6.313-1.181c-0.766-0.152-1.533-0.304-2.3-0.453c-0.837-0.167-1.68-0.317-2.523-0.468
			c-1.375-0.244-2.753-0.49-4.117-0.812c-4.32-1.039-8.54-2.34-12.76-3.699c-1.94-0.601-3.88-1.2-5.78-1.88
			c-3.641-1.299-7.231-2.709-10.752-4.223C70.014,239.032,70,239.515,70,240z M240,410c-45.409,0-88.1-17.684-120.208-49.792
			c-24.866-24.867-41.055-56.086-47.102-89.994c0.905,0.299,1.813,0.588,2.722,0.878c0.683,0.217,1.365,0.435,2.047,0.656
			c0.879,0.28,1.75,0.58,2.62,0.88c1.487,0.512,2.974,1.023,4.5,1.439c0.354,0.106,0.716,0.192,1.077,0.277
			c0.249,0.059,0.498,0.117,0.743,0.183c0.64,0.178,1.293,0.313,1.944,0.448h0.001v0.001c0.448,0.093,0.895,0.186,1.335,0.291
			c3.48,0.9,6.98,1.66,10.5,2.36c0.507,0.108,1.004,0.233,1.5,0.357h0.001c0.778,0.194,1.553,0.388,2.359,0.522
			c0.173,0.032,0.346,0.059,0.521,0.086h0.001l0.175,0.027l0.15,0.024l0.132,0.022c0.769,0.138,1.55,0.223,2.334,0.308h0.001
			c0.583,0.063,1.166,0.127,1.745,0.212c4.46,0.7,8.94,1.3,13.46,1.721c0.25,0.01,0.495,0.045,0.74,0.079
			c0.245,0.035,0.49,0.07,0.74,0.08v0.021c5.12,0.399,10.24,0.72,15.46,0.78c0.147,0,0.295,0.009,0.445,0.02h0
			c0.155,0.01,0.312,0.021,0.475,0.021c0.768,0,1.536-0.011,2.303-0.021c0.537,0.557,1.065,1.114,1.605,1.67
			c0.127,0.132,0.252,0.263,0.38,0.394c1.985,2.042,3.993,4.081,6.012,6.117c0.513,0.518,1.027,1.034,1.542,1.552
			c1.928,1.935,3.867,3.868,5.824,5.797c0.125,0.124,0.249,0.248,0.375,0.372c2.042,2.011,4.105,4.016,6.178,6.018
			c0.557,0.539,1.115,1.076,1.675,1.614c2.025,1.947,4.061,3.891,6.114,5.829l0.211,0.2l0.216,0.202
			c2.052,1.935,4.109,3.85,6.169,5.756c0.574,0.531,1.147,1.062,1.722,1.59c2.116,1.948,4.233,3.887,6.355,5.804
			c0.145,0.131,0.29,0.259,0.434,0.389c2.027,1.829,4.057,3.64,6.088,5.439c0.551,0.488,1.103,0.977,1.654,1.463
			c2.146,1.891,4.292,3.771,6.441,5.629c0.158,0.137,0.317,0.271,0.476,0.408c2.041,1.762,4.082,3.504,6.124,5.234
			c0.512,0.433,1.023,0.866,1.534,1.298c1.999,1.686,3.998,3.355,5.997,5.01c-42.06,6.825-85.787-1.487-122.938-24.502
			c10.852,18.67,25.156,35.096,42.031,48.397c35.86,9.417,73.767,9.146,109.698-1.144h0c0.35,0.264,0.702,0.536,1.052,0.799
			l0.214,0.159c2.193,1.644,4.381,3.262,6.566,4.861c0.302,0.221,0.604,0.442,0.906,0.663c2.28,1.663,4.556,3.306,6.824,4.919
			l0.124,0.088c2.229,1.584,4.451,3.141,6.667,4.676c0.236,0.164,0.472,0.328,0.708,0.491c2.285,1.578,4.563,3.133,6.833,4.657
			l0.104,0.069c2.226,1.494,4.443,2.959,6.653,4.399c0.193,0.127,0.388,0.255,0.581,0.381c2.263,1.472,4.517,2.917,6.761,4.332
			l0.047,0.03C273.084,407.589,256.729,410,240,410z M54.342,42.844c1.459-0.482,2.933-0.896,4.417-1.247
			C57.275,41.947,55.801,42.361,54.342,42.844z M305.469,343.468c1.89-1.326,3.762-2.667,5.607-4.032
			c1.407,3.306,2.541,6.668,3.681,10.051l0.057,0.168c11.945,7.731,23.554,14.549,34.653,20.312
			c0.112-0.095,0.227-0.187,0.339-0.281c-0.183-0.867-0.374-1.731-0.565-2.598c-0.164-0.74-0.328-1.482-0.487-2.228
			c-0.182-0.852-0.348-1.702-0.515-2.553c-0.312-1.587-0.622-3.172-1.025-4.747c-0.16-0.6-0.34-1.22-0.52-1.82
			c-0.138-0.571-0.32-1.126-0.503-1.683l0-0.001c-0.162-0.493-0.325-0.988-0.457-1.496c-0.98-3.479-2.08-6.899-3.22-10.3
			c-0.195-0.576-0.364-1.161-0.534-1.747c-0.195-0.674-0.391-1.35-0.626-2.013c-0.06-0.16-0.125-0.315-0.19-0.471
			c-0.065-0.154-0.13-0.31-0.19-0.47c-0.259-0.721-0.569-1.43-0.88-2.14c-0.241-0.551-0.482-1.102-0.7-1.66
			c-1.64-4.22-3.34-8.38-5.26-12.521c-0.089-0.195-0.17-0.396-0.252-0.598c-0.102-0.251-0.206-0.507-0.328-0.762
			c-2.18-4.601-4.44-9.2-7-13.7c-0.062-0.115-0.117-0.234-0.172-0.353h0c-0.088-0.188-0.176-0.375-0.287-0.548
			c-10.16-17.58-23.1-33.239-37.84-47.08c-0.141-0.13-0.271-0.266-0.399-0.399h0c-0.126-0.132-0.251-0.261-0.38-0.38
			c-0.54-0.51-1.113-0.986-1.687-1.462l0-0.001h0c-0.191-0.159-0.382-0.317-0.572-0.478c-4.7-4.24-9.5-8.319-14.58-12.12
			c-0.36-0.266-0.703-0.559-1.045-0.851h-0.001c-0.378-0.323-0.755-0.646-1.154-0.929c-0.854-0.632-1.762-1.184-2.668-1.734
			c-0.729-0.442-1.457-0.885-2.152-1.366c-1.096-0.753-2.173-1.54-3.25-2.326l0-0.001h-0.001l0-0.001
			c-1.811-1.322-3.622-2.646-5.528-3.812c0.08-3.521,0.24-7.021,0.52-10.521c0.081-0.966,0.145-1.937,0.21-2.908
			c0.128-1.926,0.257-3.857,0.51-5.771c0.41-3.164,1.054-6.267,1.701-9.376v-0.001c0.175-0.84,0.349-1.681,0.52-2.523
			c3.32-16.3,8.72-32.12,16.4-46.92c0.108-0.191,0.194-0.384,0.281-0.576c0.058-0.128,0.115-0.256,0.179-0.384
			c7.7,3.101,15.32,6.58,22.7,10.82c57.5,33.208,91.494,95.062,89.454,160.612c10.557-18.27,17.813-38.676,20.947-60.397
			c-14.088-51.742-47.851-97.074-96.13-124.948c-7.04-4.061-14.26-7.561-21.56-10.7c2.078-2.744,4.314-5.303,6.548-7.859
			c0.518-0.593,1.036-1.186,1.552-1.78c0.59-0.67,1.165-1.351,1.739-2.031c0.884-1.049,1.767-2.095,2.701-3.089
			c3.06-3.24,6.34-6.24,9.6-9.2l0.619-0.57c1.29-1.188,2.573-2.372,3.901-3.51c2.943-2.484,5.937-4.882,9.01-7.171
			c-9.079-5.365-18.698-9.911-28.753-13.535c-0.638,0.573-1.272,1.151-1.907,1.729l-0.004,0.004
			c-0.602,0.548-1.204,1.096-1.809,1.641c-0.706,0.645-1.424,1.271-2.143,1.899c-1.154,1.008-2.308,2.016-3.417,3.101
			c-0.44,0.439-0.88,0.899-1.3,1.34c-0.45,0.438-0.875,0.909-1.299,1.38h-0.001c-0.33,0.365-0.659,0.73-1,1.08
			c-2.5,2.58-4.92,5.2-7.3,7.92c-0.388,0.442-0.796,0.868-1.206,1.296h0c-0.499,0.521-1.001,1.044-1.474,1.604
			c-0.093,0.111-0.186,0.232-0.281,0.355c-0.109,0.141-0.221,0.285-0.338,0.424c-0.499,0.59-0.96,1.219-1.422,1.849v0.001
			c-0.353,0.481-0.706,0.964-1.078,1.431c-2.84,3.521-5.6,7.08-8.2,10.78c-0.13,0.183-0.265,0.354-0.398,0.523
			c-0.173,0.221-0.344,0.439-0.502,0.677c-2.9,4.2-5.74,8.479-8.38,12.939c-0.098,0.172-0.211,0.337-0.326,0.503l-0.082,0.119
			l-0.132,0.198c-10.16,17.58-17.24,36.64-21.84,56.34c-0.04,0.17-0.095,0.345-0.15,0.52v0.001c-0.055,0.175-0.11,0.35-0.15,0.52
			c-0.145,0.631-0.255,1.271-0.364,1.906v0.002c-0.057,0.332-0.114,0.663-0.176,0.992c-1.32,6.199-2.44,12.42-3.2,18.739
			c-0.055,0.419-0.134,0.837-0.213,1.257l0,0.001v0.001c-0.096,0.503-0.191,1.01-0.246,1.521c-0.112,1.052-0.136,2.123-0.16,3.191
			v0.001c-0.019,0.841-0.038,1.68-0.1,2.508c-0.106,1.357-0.253,2.706-0.399,4.055v0.002c-0.239,2.206-0.479,4.409-0.541,6.644
			c-3.08,1.699-6.18,3.3-9.34,4.8c-0.896,0.421-1.787,0.858-2.676,1.296h-0.001c-1.728,0.85-3.454,1.698-5.223,2.424
			c-2.873,1.198-5.817,2.173-8.769,3.149h0c-0.89,0.295-1.781,0.59-2.671,0.891c-2.426,0.809-4.867,1.563-7.32,2.273
			c7.413,7.54,15.082,15.06,22.984,22.518c2.977-1.093,5.928-2.255,8.854-3.517c0.401-0.168,0.815-0.311,1.23-0.452h0.001
			c0.475-0.163,0.95-0.325,1.409-0.528c0.944-0.423,1.853-0.923,2.761-1.422l0-0.001h0.001c0.766-0.421,1.531-0.842,2.318-1.217
			c1.184-0.562,2.38-1.091,3.576-1.618h0.001c2.077-0.916,4.15-1.831,6.143-2.922c3.021,1.819,5.96,3.72,8.84,5.72
			c0.699,0.478,1.404,0.946,2.109,1.415l0,0.001h0c1.717,1.142,3.434,2.282,5.049,3.544c2.333,1.782,4.518,3.722,6.701,5.658
			c0.831,0.737,1.661,1.475,2.499,2.202c12.46,11.06,23.48,23.64,32.46,37.7c0.09,0.149,0.185,0.289,0.28,0.43l0.124,0.184
			l0.089,0.138l0.067,0.108c-5.366,4.197-10.943,8.212-16.868,11.895C288.97,331.977,297.287,337.927,305.469,343.468z"/>
	</g>
</g>
<g id="Guide">
</g>
</svg>
