<svg xmlns="http://www.w3.org/2000/svg" width="1000pt" height="1000pt" viewBox="0 0 1000 1000"><path d="M 729.167969 62.5 C 614.105469 62.5 520.832031 155.769531 520.832031 270.832031 C 520.832031 385.875 614.105469 479.167969 729.167969 479.167969 C 844.210938 479.167969 937.5 385.875 937.5 270.832031 C 937.5 155.769531 844.207031 62.5 729.167969 62.5 Z M 823.824219 286.464844 C 827.105469 323.707031 841.863281 357.695312 864.621094 384.773438 C 857.886719 392.773438 850.453125 400.167969 842.425781 406.863281 C 814.125 374.066406 795.964844 332.335938 792.542969 286.453125 L 744.792969 286.453125 L 744.792969 447.234375 C 739.644531 447.683594 734.429688 447.917969 729.167969 447.917969 C 723.902344 447.917969 718.691406 447.683594 713.542969 447.234375 L 713.542969 286.453125 L 665.792969 286.453125 C 662.367188 332.335938 644.210938 374.066406 615.910156 406.863281 C 607.882812 400.167969 600.449219 392.773438 593.710938 384.777344 C 616.480469 357.699219 631.242188 323.707031 634.523438 286.464844 L 552.769531 286.464844 C 552.316406 281.3125 552.082031 276.101562 552.082031 270.832031 C 552.082031 265.570312 552.316406 260.359375 552.765625 255.210938 L 634.523438 255.210938 C 631.238281 217.964844 616.476562 183.976562 593.707031 156.894531 C 600.445312 148.894531 607.878906 141.5 615.910156 134.804688 C 644.207031 167.605469 662.367188 209.332031 665.789062 255.214844 L 713.539062 255.214844 L 713.539062 94.433594 C 718.691406 93.980469 723.902344 93.75 729.167969 93.75 C 734.429688 93.75 739.644531 93.980469 744.792969 94.433594 L 744.792969 255.210938 L 792.542969 255.210938 C 795.96875 209.332031 814.125 167.601562 842.421875 134.800781 C 850.457031 141.5 857.890625 148.898438 864.628906 156.894531 C 841.867188 183.976562 827.105469 217.964844 823.824219 255.210938 L 905.566406 255.210938 C 906.019531 260.359375 906.246094 265.570312 906.246094 270.832031 C 906.246094 276.097656 906.019531 281.308594 905.566406 286.460938 L 823.824219 286.460938 Z M 798.515625 765.644531 C 794.195312 762.542969 791.667969 757.519531 791.667969 752.199219 L 791.667969 666.667969 C 791.667969 621.136719 752.894531 589.550781 712.164062 578.652344 C 659.515625 564.570312 605.660156 554.820312 554.03125 537.066406 C 502.761719 519.433594 451.140625 495.277344 426.054688 444.433594 C 406.019531 403.828125 394.617188 285.539062 390.933594 229.222656 L 390.890625 228.816406 C 391.214844 220.453125 387.40625 212.382812 379.367188 210.070312 C 351.335938 202.007812 325.582031 223.140625 325.582031 250 L 325.582031 254.167969 C 325.582031 263.371094 318.117188 270.832031 308.914062 270.832031 L 187.289062 270.832031 C 144.519531 270.832031 108.691406 303.214844 104.382812 345.765625 L 104.167969 661.253906 C 103.964844 708.332031 135.683594 729.167969 172.335938 729.167969 L 183.46875 729.597656 C 123.171875 734.242188 98.640625 777.835938 84.710938 810.023438 C 79.945312 821.046875 88.011719 833.332031 100.015625 833.332031 L 104.167969 833.332031 C 104.167969 879.285156 141.550781 916.667969 187.5 916.667969 C 233.449219 916.667969 270.832031 879.285156 270.832031 833.332031 L 291.667969 833.332031 C 291.667969 879.285156 329.050781 916.667969 375 916.667969 C 420.949219 916.667969 458.332031 879.285156 458.332031 833.332031 L 479.167969 833.332031 C 479.167969 879.285156 516.550781 916.667969 562.5 916.667969 C 608.449219 916.667969 645.832031 879.285156 645.832031 833.332031 L 666.667969 833.332031 C 666.667969 881.300781 707.414062 919.9375 756.109375 916.449219 C 797.445312 913.484375 830.707031 879.792969 833.179688 838.425781 C 834.972656 808.496094 820.855469 781.699219 798.515625 765.644531 Z M 187.5 875 C 164.523438 875 145.832031 856.308594 145.832031 833.332031 L 229.167969 833.332031 C 229.167969 856.308594 210.476562 875 187.5 875 Z M 375 875 C 352.023438 875 333.332031 856.308594 333.332031 833.332031 L 416.667969 833.332031 C 416.667969 856.308594 397.976562 875 375 875 Z M 562.5 875 C 539.523438 875 520.832031 856.308594 520.832031 833.332031 L 604.167969 833.332031 C 604.167969 856.308594 585.476562 875 562.5 875 Z M 266.667969 750 C 257.460938 750 250 742.539062 250 733.332031 L 250 725 C 250 715.796875 257.460938 708.332031 266.667969 708.332031 L 712.5 708.332031 C 721.707031 708.332031 729.167969 715.796875 729.167969 725 L 729.167969 733.332031 C 729.167969 742.539062 721.707031 750 712.5 750 Z M 750 875 C 727.023438 875 708.332031 856.308594 708.332031 833.332031 L 791.667969 833.332031 C 791.667969 856.308594 772.976562 875 750 875 Z M 750 875"/></svg>