<?xml version="1.0" encoding="iso-8859-1"?>
<!-- Generator: Adobe Illustrator 23.0.4, SVG Export Plug-In . SVG Version: 6.00 Build 0)  -->
<svg version="1.1" xmlns="http://www.w3.org/2000/svg" xmlns:xlink="http://www.w3.org/1999/xlink" x="0px" y="0px"
	 viewBox="0 0 480 480" style="enable-background:new 0 0 480 480;" xml:space="preserve">
<g id="Workspace">
	<g id="Layer_5_copy_2">
		<path d="M350,30c-55.229,0-100,44.77-100,100c0,55.22,44.771,100,100,100c55.221,0,100-44.78,100-100C450,74.77,405.22,30,350,30z
			 M395.435,137.503c1.575,17.877,8.66,34.191,19.584,47.189c-3.233,3.839-6.801,7.388-10.655,10.603
			c-13.584-15.744-22.3-35.773-23.943-57.797h-22.92v77.174C355.029,214.889,352.527,215,350,215c-2.526,0-5.028-0.111-7.5-0.328
			v-77.174h-22.92c-1.644,22.023-10.359,42.053-23.943,57.797c-3.854-3.215-7.422-6.764-10.655-10.602
			c10.929-12.998,18.014-29.313,19.59-47.19h-39.243C265.111,135.03,265,132.528,265,130c0-2.526,0.111-5.027,0.328-7.498h39.243
			c-1.576-17.879-8.662-34.194-19.592-47.192c3.234-3.84,6.802-7.39,10.657-10.604c13.584,15.744,22.3,35.773,23.943,57.797h22.92
			V45.328C344.971,45.11,347.473,45,350,45c2.527,0,5.029,0.11,7.501,0.328v77.174h22.92c1.644-22.023,10.359-42.053,23.942-57.797
			c3.856,3.215,7.424,6.766,10.659,10.605c-10.926,12.998-18.012,29.313-19.587,47.191h39.237c0.217,2.471,0.327,4.972,0.327,7.498
			c0,2.528-0.11,5.03-0.328,7.503H395.435z M383.288,367.51c-2.074-1.49-3.288-3.901-3.288-6.455V320
			c0-21.854-18.611-37.016-38.161-42.246c-25.271-6.761-51.123-11.44-75.904-19.963c-24.61-8.463-49.388-20.058-61.428-44.462
			c-9.617-19.492-15.09-76.271-16.859-103.302l-0.021-0.196c0.157-4.013-1.672-7.887-5.53-8.997
			c-13.456-3.871-25.818,6.273-25.818,19.166v2c0,4.418-3.582,8-8,8h-58.38c-20.53,0-37.727,15.543-39.796,35.968l-0.102,151.434
			C49.903,340,65.129,350,82.722,350l5.343,0.207c-28.942,2.23-40.718,23.155-47.404,38.605C38.373,394.102,42.245,400,48.008,400
			H50c0,22.056,17.944,40,40,40s40-17.944,40-40h10c0,22.056,17.944,40,40,40s40-17.944,40-40h10c0,22.056,17.944,40,40,40
			s40-17.944,40-40h10c0,23.025,19.558,41.57,42.933,39.895c19.841-1.422,35.807-17.594,36.994-37.451
			C400.786,388.079,394.01,375.215,383.288,367.51z M90,420c-11.028,0-20-8.972-20-20h40C110,411.028,101.028,420,90,420z M180,420
			c-11.028,0-20-8.972-20-20h40C200,411.028,191.028,420,180,420z M270,420c-11.028,0-20-8.972-20-20h40
			C290,411.028,281.028,420,270,420z M128,360c-4.418,0-8-3.582-8-8v-4c0-4.418,3.582-8,8-8h214c4.419,0,8,3.582,8,8v4
			c0,4.418-3.581,8-8,8H128z M360,420c-11.028,0-20-8.972-20-20h40C380,411.028,371.028,420,360,420z"/>
	</g>
</g>
<g id="Guide">
</g>
</svg>
