<?xml version="1.0" encoding="iso-8859-1"?>
<!-- Generator: Adobe Illustrator 23.0.4, SVG Export Plug-In . SVG Version: 6.00 Build 0)  -->
<svg version="1.1" xmlns="http://www.w3.org/2000/svg" xmlns:xlink="http://www.w3.org/1999/xlink" x="0px" y="0px"
	 viewBox="0 0 480 480" style="enable-background:new 0 0 480 480;" xml:space="preserve">
<g id="Layer_5">
	<g style="display:none;">
		<g style="display:inline;">
			<path style="fill:#FFFFFF;" d="M248.942,356.611c8.422-4.029,18.2-7.605,30.032-10.05l-121.872-85.336l-15.363,15.364H8.085
				c-7.545,0-10.961,9.418-5.17,14.245C37.451,319.627,76.487,341.848,120,356.611L248.942,356.611z"/>
		</g>
		<g style="display:inline;">
			<path style="fill:#FFFFFF;" d="M187.66,118.936c18.902,13.235,42.276,8.983,55.512-9.919c13.235-18.902,9.08-42.47-9.822-55.706
				c-18.902-13.235-42.475-9.083-55.71,9.82S168.758,105.7,187.66,118.936z"/>
		</g>
		<g style="display:inline;">
			<path style="fill:#FFFFFF;" d="M471.915,276.589h-84.418c-3.67-9.816-14.183-35.485-32.407-61.307
				C323.377,170.345,283.58,146.593,240,146.593c-0.235,0-0.467,0.015-0.701,0.023l-169.293-0.018
				C58.957,146.598,50,155.554,50,166.602c0,11.047,8.955,20.003,20.002,20.004l15.402,0.001l223.74,156.665
				c1.33-0.03,2.655-0.051,3.955-0.051c35.893,0,56.981,11.257,73.927,20.302c11.402,6.086,20.835,11.116,35.389,12.712
				c-0.435-1.844-1.515-3.542-3.188-4.714l-43.998-30.808c-14.837-10.389-33.193-14.46-51.032-11.317L120.276,186.608l103.625,0.006
				c2.85,0,5.484,1.516,6.916,3.98l35.456,61.005l-44.803-31.371c-6.153-4.31-14.006-4.701-20.428-1.483l128.342,89.866
				c2.22-0.168,4.446-0.253,6.666-0.253c18.214,0,35.729,5.523,50.65,15.971l18.202,12.745
				c26.176-13.156,51.655-29.126,72.183-46.241C482.876,286.007,479.46,276.589,471.915,276.589z"/>
		</g>
	</g>
	<path d="M187.66,108.936c18.902,13.235,42.276,8.983,55.513-9.919c13.235-18.902,9.08-42.47-9.822-55.706
		c-18.902-13.235-42.475-9.082-55.71,9.82S168.758,95.7,187.66,108.936z M471.915,266.589h-78.943c-3.268,0-6.203-1.981-7.422-5.015
		c-4.818-11.995-14.788-34.087-30.459-56.292C323.378,160.345,283.58,136.593,240,136.593c-0.234,0-0.467,0.015-0.701,0.023
		l-169.293-0.018c-11.29-0.001-20.396,9.352-19.993,20.731c0.385,10.84,9.623,19.275,20.47,19.275l14.922,0.001l223.74,156.665
		c1.331-0.03,2.655-0.052,3.955-0.052c35.893,0,56.981,11.257,73.927,20.302c11.401,6.086,20.835,11.116,35.389,12.713
		c-0.436-1.844-1.515-3.542-3.188-4.714l-43.998-30.808c-14.837-10.39-33.193-14.46-51.031-11.317L120.276,176.608l103.625,0.006
		c2.85,0,5.484,1.517,6.916,3.98l41.843,78.694l56.724,39.323c2.221-0.169,4.446-0.253,6.666-0.253
		c18.215,0,35.729,5.522,50.65,15.971l18.202,12.745c26.176-13.157,51.655-29.127,72.183-46.241
		C482.876,276.007,479.46,266.589,471.915,266.589z M439.765,386.583c-30.419,1.525-45.836-6.704-62.157-15.417
		c-17.159-9.159-36.609-19.542-72.541-17.74c-35.933,1.802-54.247,14.077-70.403,24.906c-15.369,10.302-29.886,20.032-60.305,21.557
		c-30.418,1.525-45.833-6.704-62.154-15.417c-17.159-9.159-36.607-19.542-72.539-17.74c-5.496,0.275-9.729,4.955-9.453,10.451
		c0.275,5.497,4.955,9.729,10.451,9.454c30.418-1.525,45.834,6.704,62.154,15.417c17.159,9.16,36.608,19.542,72.538,17.741
		c35.933-1.802,54.247-14.077,70.403-24.907c15.369-10.302,29.886-20.031,60.305-21.557c30.42-1.525,45.837,6.704,62.159,15.417
		c17.159,9.159,36.607,19.542,72.54,17.74c5.496-0.275,9.729-4.955,9.453-10.451C449.941,390.54,445.261,386.308,439.765,386.583z
		 M248.941,346.611c8.422-4.029,18.201-7.605,30.032-10.051l-99.949-69.984L8.085,266.589c-7.545,0-10.961,9.418-5.17,14.245
		C37.451,309.627,76.487,331.848,120,346.611H248.941z"/>
</g>
<g id="Guide">
</g>
</svg>
