<?xml version="1.0" encoding="iso-8859-1"?>
<!-- Generator: Adobe Illustrator 23.0.4, SVG Export Plug-In . SVG Version: 6.00 Build 0)  -->
<svg version="1.1" xmlns="http://www.w3.org/2000/svg" xmlns:xlink="http://www.w3.org/1999/xlink" x="0px" y="0px"
	 viewBox="0 0 480 480" style="enable-background:new 0 0 480 480;" xml:space="preserve">
<g id="Workspace">
	<path d="M387.606,38.498c-1.737-3.312-5.035-5.62-8.741-6.121c-104.929-14.186-210.832,25.947-272.516,114.04
		S43.175,347.753,92.393,441.502c1.738,3.311,5.035,5.62,8.742,6.121c104.928,14.186,210.832-25.947,272.516-114.04
		C435.334,245.49,436.825,132.247,387.606,38.498z M325.203,214.205c-2.918,4.167-7.571,6.398-12.3,6.398
		c-2.972,0-5.972-0.881-8.591-2.715l-20.478-14.339l-22.944,32.768l20.479,14.339c6.786,4.752,8.436,14.104,3.684,20.89
		c-2.917,4.167-7.572,6.398-12.3,6.398c-2.972,0-5.972-0.88-8.591-2.714l-20.479-14.34l-22.943,32.767l20.479,14.339
		c6.786,4.752,8.436,14.105,3.684,20.891c-2.918,4.168-7.572,6.397-12.3,6.397c-2.971,0-5.973-0.879-8.591-2.713l-20.479-14.341
		l-14.34,20.479c-2.918,4.167-7.572,6.397-12.3,6.397c-2.971,0-5.971-0.879-8.591-2.713c-6.786-4.752-8.436-14.105-3.684-20.892
		l14.341-20.479l-20.479-14.34c-6.786-4.752-8.435-14.104-3.683-20.891s14.106-8.435,20.89-3.683l20.479,14.339l22.942-32.766
		l-20.478-14.34c-6.787-4.752-8.437-14.104-3.685-20.891c4.752-6.786,14.105-8.436,20.892-3.684l20.478,14.341l22.944-32.768
		l-20.48-14.34c-6.786-4.751-8.436-14.104-3.684-20.89c4.752-6.787,14.104-8.436,20.891-3.684l20.48,14.34l14.339-20.48
		c4.752-6.787,14.104-8.434,20.891-3.684c6.786,4.753,8.437,14.104,3.685,20.891l-14.34,20.48l20.478,14.338
		C328.305,198.066,329.955,207.419,325.203,214.205z"/>
</g>
<g id="Guide">
</g>
</svg>
