<svg xmlns="http://www.w3.org/2000/svg" viewBox="0 0 480 480"><path d="M290.894,294.156c29.844-11.332,55.857-7.873,69.503-4.51c4.995,1.261,10.035-2.064,9.573-6.555 c-5.018-47.527-43.621-123.185-75.731-179.273C290.696,97.627,280,99.978,280,106.896v181.451 C280,293.22,285.788,296.105,290.894,294.156z M85.259,277.477c74.712-12.421,147.791,9.804,168.757,17.027 c2.973,1.032,5.984-1.146,5.984-4.223V26.236c0-3.421-3.809-5.771-6.84-4.052C158.746,75.693,92.915,234.097,80.226,271.974 C79.177,275.126,81.936,278.012,85.259,277.477z M361.231,320H118.766c-5.009,0-8.813,4.556-7.87,9.475 C115.324,352.559,135.625,370,160,370h50.262c4.322-2.436,8.487-5.227,13.045-8.281c17.408-11.668,39.072-26.189,80.537-28.269 c3.053-0.153,6.092-0.23,9.034-0.23c21.931,0,38.328,4.204,51.638,9.537c2.103-4.1,3.662-8.524,4.567-13.184 C370.046,324.617,366.281,320,361.231,320z M439.544,386.583c-30.419,1.524-45.836-6.705-62.157-15.418 c-17.159-9.159-36.609-19.541-72.541-17.74c-35.933,1.802-54.247,14.077-70.403,24.907c-15.369,10.302-29.886,20.032-60.305,21.557 c-30.418,1.525-45.833-6.704-62.154-15.417c-17.159-9.16-36.607-19.542-72.539-17.74c-5.496,0.275-9.729,4.955-9.453,10.451 c0.275,5.496,4.955,9.729,10.451,9.454c30.418-1.525,45.834,6.704,62.154,15.417c17.159,9.159,36.608,19.542,72.538,17.74 c35.933-1.802,54.247-14.077,70.403-24.906c15.369-10.302,29.886-20.032,60.305-21.558c30.42-1.524,45.837,6.705,62.159,15.418 c17.159,9.159,36.607,19.541,72.54,17.74c5.496-0.276,9.729-4.956,9.453-10.452C449.719,390.54,445.04,386.308,439.544,386.583z"/></svg>