<?xml version="1.0" encoding="iso-8859-1"?>
<!-- Generator: Adobe Illustrator 23.0.4, SVG Export Plug-In . SVG Version: 6.00 Build 0)  -->
<svg version="1.1" xmlns="http://www.w3.org/2000/svg" xmlns:xlink="http://www.w3.org/1999/xlink" x="0px" y="0px"
	 viewBox="0 0 480 480" style="enable-background:new 0 0 480 480;" xml:space="preserve">
<g id="Workspace">
	<path d="M109.119,230.258c13.128-17.39,27.16-34.312,41.929-50.567c-11.397-8.379-23.12-16.371-35.084-23.918
		c-14.185,20.851-22.896,44.961-25.289,70.044C96.811,227.397,102.967,228.88,109.119,230.258z M239.703,85.369
		c-7.357,0-14.693,0.198-22.003,0.596c7.553,5.75,15.048,11.542,22.496,17.389c7.431-5.823,14.926-11.607,22.46-17.337
		C255.033,85.586,247.379,85.369,239.703,85.369z M389.325,225.817c-2.388-25.007-11.051-49.042-25.151-69.843
		c-11.901,7.503-23.566,15.447-34.907,23.773c14.722,16.224,28.71,33.113,41.8,50.469
		C377.158,228.852,383.253,227.383,389.325,225.817z M318.143,368.002c-1.359-2.413-2.729-4.806-4.106-7.177
		c-24.494,2.499-49.339,3.764-74.036,3.764c-24.641,0-49.432-1.259-73.877-3.748c-1.392,2.389-2.772,4.801-4.144,7.234
		C185.422,382.466,212.086,390,240.001,390C267.966,390,294.673,382.44,318.143,368.002z M240.001,294.59
		c17.703,0,35.296-0.715,52.763-2.114c11.521-0.923,22.988-2.147,34.394-3.677c7.366-0.988,14.706-2.105,22.021-3.346
		c10.703-1.814,21.349-3.898,31.932-6.252c8.603-1.912,17.162-4.012,25.68-6.277c10.678-2.842,21.287-5.957,31.822-9.354
		C439.518,255.838,440,247.976,440,240c0-2.83-0.073-5.642-0.189-8.442c-1.835-44.176-17.996-84.645-43.963-116.893
		c-6.509-8.083-13.623-15.657-21.293-22.636c-9.366,5.064-18.596,10.354-27.686,15.868c-23.91,14.504-46.859,30.534-68.747,48.077
		c-4.89-4.653-9.844-9.223-14.849-13.721c21.027-17.011,43.004-32.673,65.863-46.95c9.411-5.878,18.978-11.511,28.684-16.915
		c-9.205-6.723-19.006-12.678-29.31-17.771C301.826,47.426,271.783,40,240,40c-31.677,0-61.626,7.376-88.244,20.486
		c-10.318,5.081-20.133,11.025-29.353,17.74c9.709,5.41,19.277,11.05,28.69,16.934c22.898,14.315,44.911,30.021,65.97,47.08
		c7.831,6.343,15.536,12.866,23.101,19.581c5.008,4.446,9.95,8.981,14.839,13.589c4.905,4.622,9.757,9.315,14.541,14.099
		c2.318,2.319,4.612,4.657,6.894,7.005c19.023,19.579,36.729,40.154,53.077,61.662c-7.655,1.107-15.339,2.072-23.052,2.894
		c-13.996-17.739-28.963-34.802-44.88-51.146c-2.046-2.101-4.104-4.194-6.182-6.271c-5.012-5.012-10.099-9.925-15.248-14.754
		c-4.886-4.581-9.831-9.081-14.839-13.498c-7.564-6.672-15.266-13.158-23.104-19.448c-21.926-17.598-44.917-33.674-68.874-48.219
		c-9.091-5.519-18.322-10.814-27.691-15.883c-7.681,6.97-14.808,14.536-21.328,22.612c-26.063,32.281-42.288,72.827-44.127,117.095
		C40.074,234.358,40,237.17,40,240c0,7.976,0.481,15.838,1.39,23.569c10.535,3.396,21.145,6.513,31.822,9.354
		c8.571,2.28,17.186,4.391,25.843,6.313c-3.884,5.913-7.666,11.894-11.367,17.924c-2.843-0.664-5.68-1.354-8.514-2.056
		c-11.379-2.817-22.685-5.938-33.911-9.361c2.8,11.964,6.68,23.51,11.521,34.541c2.503,5.703,5.263,11.267,8.268,16.678
		c5.575,10.038,11.989,19.545,19.148,28.428c4.937-9.961,10.126-19.774,15.539-29.45c0.909-1.625,1.811-3.256,2.733-4.874
		c5.287-9.267,10.794-18.397,16.518-27.391c3.901-6.13,7.908-12.193,12.01-18.192c6.326-9.251,12.887-18.347,19.684-27.28
		c16.381-21.527,34.12-42.12,53.182-61.713c5.01,4.389,9.961,8.858,14.844,13.419c-15.945,16.354-30.938,33.43-44.959,51.183
		c-7.162,9.068-14.07,18.313-20.72,27.731c-4.288,6.073-8.473,12.216-12.546,18.431c-5.941,9.068-11.648,18.288-17.127,27.65
		c-3.501,5.983-6.907,12.025-10.218,18.126c-5.068,9.34-9.909,18.816-14.525,28.425c7.335,7.331,15.244,14.084,23.641,20.21
		C155.287,425.766,195.978,440,240,440c44.066,0,84.795-14.263,117.846-38.407c8.396-6.133,16.303-12.894,23.634-20.23
		c-4.614-9.613-9.453-19.096-14.521-28.44c-3.293-6.072-6.681-12.087-10.162-18.044c6.982-1.176,13.943-2.451,20.879-3.839
		c0.903,1.584,1.785,3.183,2.675,4.775c5.414,9.682,10.603,19.5,15.539,29.468c7.156-8.894,13.567-18.41,19.138-28.459
		c2.976-5.366,5.709-10.884,8.19-16.538c4.841-11.03,8.721-22.576,11.521-34.541c-11.227,3.424-22.532,6.545-33.91,9.361
		c-2.783,0.689-5.568,1.367-8.36,2.02c-10.373,2.426-20.806,4.6-31.293,6.521c-7.138,1.309-14.299,2.51-21.486,3.583
		c-11.068,1.654-22.194,3.028-33.373,4.126c-21.916,2.15-44.032,3.233-66.314,3.233c-22.221,0-44.275-1.078-66.131-3.217
		c4.402-6.375,8.926-12.669,13.571-18.88C204.841,293.881,222.366,294.59,240.001,294.59z M240.176,122.374
		c-18.427-15.168-37.576-29.317-57.383-42.46C200.679,73.504,219.937,70,240.001,70c20.169,0,39.525,3.539,57.491,10.015
		C277.711,93.127,258.584,107.242,240.176,122.374z M299.551,177.265c22.105-17.518,45.324-33.439,69.562-47.726
		c25.475,29.733,40.888,68.329,40.888,110.461c0,0.309-0.011,0.615-0.012,0.924c-15.628,4.473-31.414,8.324-47.347,11.533
		C343.497,226.07,322.441,200.975,299.551,177.265z M117.54,252.492c-15.994-3.216-31.841-7.08-47.527-11.568
		c-0.002-0.309-0.012-0.615-0.012-0.924c0-42.222,15.477-80.894,41.049-110.652c24.295,14.329,47.563,30.303,69.715,47.879
		C157.825,200.957,136.723,226.076,117.54,252.492z M240.138,230.902c10.393,10.675,20.362,21.668,29.899,32.971
		c-9.974,0.474-19.986,0.717-30.037,0.717c-9.974,0-19.91-0.24-29.807-0.707C219.746,252.576,229.731,241.58,240.138,230.902z
		 M240.001,344.589c28.487,0,56.716-1.7,84.619-5.063c6.923,11.318,13.459,22.879,19.648,34.648
		C315.458,396.613,279.264,410,240.001,410c-39.216,0-75.367-13.354-104.161-35.744c6.207-11.791,12.763-23.373,19.706-34.711
		C183.395,342.895,211.568,344.589,240.001,344.589z"/>
</g>
<g id="Guide">
</g>
</svg>
