<?xml version="1.0" encoding="iso-8859-1"?>
<!-- Generator: Adobe Illustrator 23.0.4, SVG Export Plug-In . SVG Version: 6.00 Build 0)  -->
<svg version="1.1" xmlns="http://www.w3.org/2000/svg" xmlns:xlink="http://www.w3.org/1999/xlink" x="0px" y="0px"
	 viewBox="0 0 480 480" style="enable-background:new 0 0 480 480;" xml:space="preserve">
<g id="Workspace">
	<path d="M208.041,303.076c-9.049-6.336-21.519-4.136-27.854,4.911L153.78,345.7l-56.572-21.856
		c-10.306-3.98-21.883,1.146-25.864,11.448c-3.98,10.304,1.146,21.884,11.448,25.864l71.181,27.5
		c2.353,0.909,4.792,1.346,7.202,1.346c6.381,0,12.56-3.062,16.389-8.53l35.389-50.541
		C219.288,321.882,217.089,309.411,208.041,303.076z M378.457,129.395l-49.149-34.415l-0.042-0.026
		c-0.475-0.33-0.961-0.628-1.453-0.912c-0.391-0.225-0.793-0.426-1.198-0.625c-0.256-0.125-0.509-0.266-0.769-0.38
		c-0.4-0.175-0.813-0.32-1.226-0.469c-0.199-0.072-0.396-0.159-0.596-0.224c-0.375-0.123-0.759-0.215-1.141-0.315
		c-0.251-0.065-0.5-0.145-0.753-0.2c-0.321-0.071-0.65-0.115-0.977-0.17c-0.321-0.054-0.642-0.12-0.964-0.158
		c-0.262-0.031-0.528-0.037-0.792-0.059c-0.389-0.029-0.776-0.068-1.165-0.076c-0.22-0.004-0.441,0.014-0.661,0.018
		c-0.43,0.006-0.859,0.006-1.287,0.039c-0.342,0.027-0.685,0.085-1.026,0.13c-0.379,0.049-0.758,0.097-1.133,0.168
		c-0.568,0.108-1.138,0.232-1.705,0.393l-0.048,0.011L190.81,126.641c-2.05,0.582-3.928,1.469-5.611,2.588l29.754,32.138
		l54.204-15.391l-13.955,19.911l-36.076-0.014l-20.448-0.008l-0.115-0.124l-21.909-23.664l-8.67-9.365
		c-1.875-2.136-3.686-4.22-5.429-6.242c-1.161-1.349-2.293-2.671-3.393-3.963c-2.199-2.584-4.272-5.05-6.209-7.376
		c-0.968-1.163-1.901-2.291-2.8-3.382c-9.433-11.453-14.948-18.771-15.049-18.903l-0.16-0.209
		c-13.594-17.134-6.862-30.773,10.583-55.744c1.666-2.387,2.214-5.422,1.493-8.241c-1.279-5.01-4.531-6.792-18.102-13.532
		c-0.322-0.16-0.65-0.296-0.981-0.419c-0.096-0.035-0.191-0.065-0.287-0.098c-0.248-0.083-0.497-0.157-0.748-0.221
		c-0.098-0.024-0.195-0.05-0.294-0.071c-0.312-0.069-0.627-0.125-0.943-0.163l-0.073-0.012c-0.344-0.039-0.688-0.056-1.03-0.059
		l-0.263,0.005c-0.268,0.005-0.533,0.02-0.798,0.046c-0.097,0.01-0.193,0.019-0.289,0.03c-0.316,0.041-0.632,0.094-0.943,0.164
		l-0.073,0.014c-0.336,0.078-0.666,0.178-0.992,0.291l-0.257,0.097c-0.245,0.093-0.486,0.194-0.725,0.306l-0.267,0.128
		c-0.296,0.149-0.586,0.31-0.866,0.489l-0.038,0.021c-0.292,0.188-0.571,0.396-0.845,0.617l-0.227,0.192
		c-0.201,0.171-0.396,0.352-0.583,0.54l-0.217,0.221c-0.245,0.26-0.481,0.531-0.7,0.822c-12.806,17.017-36.642,48.688-7.371,80.462
		l43.891,47.443c4.038,4.596,1.78,2.188,5.555,6.291c0.252,0.273,0.53,0.575,0.839,0.911c0.564,0.613,1.188,1.141,1.855,1.58
		l14.151,15.312c-4.225,3.274-7.112,8.189-7.669,13.802c-0.065,0.655-0.102,1.319-0.102,1.991
		c-0.004,11.046,8.946,20.004,19.992,20.008h0.44l20.432,0.008l19.658,21.271c1.638,1.771,3.767,2.814,5.983,3.116
		c0.411,0.057,0.824,0.079,1.238,0.084c0.233,0.004,0.466-0.004,0.699-0.018c0.09-0.005,0.18-0.004,0.271-0.012
		c0.333-0.028,0.666-0.072,0.997-0.134l0.204-0.048c0.261-0.055,0.521-0.116,0.777-0.191c0.116-0.035,0.23-0.076,0.346-0.115
		c0.208-0.069,0.415-0.144,0.619-0.227c0.123-0.051,0.244-0.105,0.366-0.161c0.195-0.089,0.388-0.187,0.579-0.289
		c0.116-0.063,0.233-0.126,0.349-0.194c0.2-0.118,0.396-0.248,0.59-0.383h0.001c0.095-0.066,0.193-0.128,0.287-0.198
		c0.283-0.211,0.56-0.436,0.825-0.681c2.027-1.875,3.102-4.395,3.201-6.952c0.074-1.918-0.399-3.857-1.433-5.562
		c-0.345-0.568-0.751-1.11-1.22-1.617l-7.108-7.678l15.869,0.006l4.284,0.001c2.512,3.536,3.991,7.563,4.447,11.68
		c0.78,7.05-1.434,14.344-6.554,19.828l32.912,23.055c3.386,2.371,7.396,3.619,11.475,3.619c1.156,0,2.317-0.101,3.471-0.304
		c5.225-0.92,9.869-3.879,12.912-8.225l68.829-98.291c3.043-4.345,4.234-9.721,3.313-14.944S382.802,132.437,378.457,129.395z
		 M419.891,38.953c-13.235-18.902-36.808-23.055-55.71-9.819s-23.058,36.804-9.822,55.706c13.236,18.902,36.61,23.154,55.513,9.919
		C428.773,81.522,433.126,57.855,419.891,38.953z M314.567,304.433l-73.076-51.299c-9.042-6.348-21.515-4.161-27.86,4.878
		c-6.347,9.041-4.162,21.514,4.878,27.86l61.495,43.169l-29.265,104.624c-2.976,10.638,3.236,21.673,13.873,24.648
		c1.802,0.504,3.615,0.744,5.398,0.744c8.746,0,16.778-5.781,19.25-14.617l33.076-118.251
		C324.621,318.023,321.508,309.305,314.567,304.433z"/>
</g>
<g id="Guide">
</g>
</svg>
