<svg xmlns="http://www.w3.org/2000/svg" width="1000pt" height="1000pt" viewBox="0 0 1000 1000"><path d="M 895.421875 368.355469 C 880.945312 386.117188 863.289062 401.1875 843.304688 412.671875 C 850.390625 440.605469 854.167969 469.859375 854.167969 500 C 854.167969 534.820312 849.117188 568.453125 839.75 600.238281 C 839.238281 601.976562 838.707031 603.710938 838.167969 605.4375 C 837.960938 606.097656 837.761719 606.757812 837.550781 607.417969 C 837.007812 609.132812 836.441406 610.839844 835.867188 612.542969 C 835.652344 613.195312 835.441406 613.847656 835.21875 614.496094 C 834.570312 616.40625 833.894531 618.304688 833.210938 620.203125 C 833.078125 620.578125 832.945312 620.957031 832.808594 621.335938 C 830.285156 628.257812 827.550781 635.082031 824.609375 641.796875 C 824.394531 642.289062 824.171875 642.773438 823.957031 643.265625 C 823.203125 644.964844 822.441406 646.667969 821.660156 648.355469 C 821.355469 649.015625 821.039062 649.671875 820.730469 650.332031 C 820.023438 651.839844 819.308594 653.339844 818.582031 654.839844 C 818.222656 655.578125 817.855469 656.316406 817.488281 657.050781 C 816.789062 658.464844 816.082031 659.871094 815.363281 661.273438 C 814.972656 662.042969 814.574219 662.804688 814.175781 663.570312 C 813.464844 664.933594 812.742188 666.296875 812.015625 667.648438 C 811.601562 668.421875 811.179688 669.195312 810.757812 669.964844 C 810.019531 671.308594 809.273438 672.640625 808.523438 673.972656 C 808.097656 674.734375 807.667969 675.492188 807.234375 676.25 C 806.457031 677.597656 805.667969 678.9375 804.878906 680.277344 C 804.449219 680.996094 804.027344 681.714844 803.597656 682.433594 C 802.75 683.839844 801.886719 685.242188 801.019531 686.636719 C 800.628906 687.265625 800.246094 687.894531 799.851562 688.519531 C 798.824219 690.148438 797.78125 691.769531 796.730469 693.378906 C 796.484375 693.757812 796.242188 694.136719 795.992188 694.515625 C 793.355469 698.519531 790.640625 702.464844 787.847656 706.355469 C 787.460938 706.894531 787.066406 707.421875 786.675781 707.960938 C 785.675781 709.339844 784.667969 710.722656 783.644531 712.085938 C 783.144531 712.753906 782.636719 713.414062 782.132812 714.074219 C 781.199219 715.300781 780.265625 716.523438 779.320312 717.734375 C 778.761719 718.449219 778.199219 719.152344 777.640625 719.863281 C 776.726562 721.015625 775.808594 722.164062 774.882812 723.304688 C 774.292969 724.027344 773.699219 724.746094 773.101562 725.464844 C 772.179688 726.582031 771.253906 727.691406 770.316406 728.796875 C 769.710938 729.515625 769.101562 730.226562 768.488281 730.933594 C 767.542969 732.039062 766.585938 733.136719 765.621094 734.226562 C 765.015625 734.914062 764.410156 735.601562 763.792969 736.285156 C 762.796875 737.398438 761.789062 738.5 760.777344 739.605469 C 760.183594 740.246094 759.597656 740.894531 758.996094 741.535156 C 757.921875 742.6875 756.832031 743.832031 755.742188 744.96875 C 755.195312 745.535156 754.65625 746.109375 754.109375 746.671875 C 752.855469 747.964844 751.585938 749.238281 750.316406 750.511719 C 749.921875 750.910156 749.527344 751.3125 749.128906 751.707031 C 745.710938 755.089844 742.230469 758.402344 738.675781 761.644531 C 738.441406 761.859375 738.199219 762.070312 737.964844 762.285156 C 736.445312 763.664062 734.917969 765.035156 733.371094 766.386719 C 732.902344 766.800781 732.425781 767.207031 731.953125 767.617188 C 730.628906 768.765625 729.296875 769.914062 727.953125 771.042969 C 727.398438 771.507812 726.84375 771.964844 726.289062 772.425781 C 725.007812 773.492188 723.722656 774.550781 722.425781 775.597656 C 721.835938 776.074219 721.242188 776.546875 720.648438 777.019531 C 719.367188 778.042969 718.082031 779.058594 716.785156 780.066406 C 716.183594 780.527344 715.582031 780.992188 714.976562 781.453125 C 713.660156 782.460938 712.335938 783.460938 711.007812 784.449219 C 710.421875 784.882812 709.835938 785.320312 709.25 785.746094 C 707.859375 786.765625 706.460938 787.773438 705.054688 788.773438 C 647.191406 829.941406 576.429688 854.167969 500 854.167969 C 311.703125 854.167969 157.753906 707.214844 146.515625 521.742188 C 146.082031 514.546875 145.832031 507.304688 145.832031 500 C 145.832031 304.398438 304.398438 145.832031 500 145.832031 C 530.140625 145.832031 559.394531 149.609375 587.328125 156.695312 C 598.816406 136.710938 613.882812 119.054688 631.644531 104.578125 C 590.265625 90.808594 546.007812 83.332031 500 83.332031 C 269.882812 83.332031 83.332031 269.882812 83.332031 500 C 83.332031 526.546875 85.847656 552.503906 90.589844 577.667969 C 126.980469 770.664062 296.425781 916.667969 500 916.667969 C 671.9375 916.667969 819.539062 812.515625 883.191406 663.867188 C 904.726562 613.570312 916.667969 558.179688 916.667969 500 C 916.667969 453.992188 909.191406 409.734375 895.421875 368.355469 Z M 666.269531 448.652344 L 573.980469 507.941406 C 567.699219 514.222656 557.519531 514.222656 551.238281 507.941406 L 401.441406 325.140625 C 395.160156 318.859375 384.980469 318.859375 378.699219 325.140625 L 208.386719 495.449219 C 208.363281 496.964844 208.332031 498.480469 208.332031 500 C 208.332031 577.910156 238.671875 651.152344 293.761719 706.238281 C 348.851562 761.328125 422.089844 791.667969 500 791.667969 C 577.910156 791.667969 651.152344 761.328125 706.238281 706.238281 C 749.972656 662.507812 778.082031 607.332031 787.828125 547.46875 L 689.011719 448.652344 C 682.734375 442.375 672.550781 442.375 666.269531 448.652344 Z M 750 395.832031 C 830.542969 395.832031 895.832031 330.542969 895.832031 250 C 895.832031 169.457031 830.542969 104.167969 750 104.167969 C 669.457031 104.167969 604.167969 169.457031 604.167969 250 C 604.167969 330.542969 669.457031 395.832031 750 395.832031 Z M 667.238281 226.375 C 657.273438 220.621094 653.859375 207.882812 659.613281 197.917969 C 665.367188 187.953125 678.105469 184.539062 688.074219 190.292969 L 728.992188 213.917969 L 728.992188 166.667969 C 728.992188 155.164062 738.320312 145.832031 749.824219 145.832031 C 761.328125 145.832031 770.660156 155.164062 770.660156 166.667969 L 770.660156 213.917969 L 811.578125 190.292969 C 821.542969 184.539062 834.285156 187.957031 840.039062 197.917969 C 845.792969 207.882812 842.378906 220.621094 832.414062 226.375 L 791.492188 250 L 832.414062 273.625 C 842.378906 279.378906 845.792969 292.117188 840.039062 302.082031 C 836.179688 308.765625 829.175781 312.503906 821.976562 312.503906 C 818.441406 312.503906 814.859375 311.601562 811.578125 309.707031 L 770.660156 286.082031 L 770.660156 333.332031 C 770.660156 344.835938 761.328125 354.167969 749.824219 354.167969 C 738.320312 354.167969 728.992188 344.835938 728.992188 333.332031 L 728.992188 286.082031 L 688.074219 309.707031 C 684.792969 311.601562 681.210938 312.503906 677.675781 312.503906 C 670.476562 312.503906 663.476562 308.765625 659.613281 302.082031 C 653.859375 292.117188 657.273438 279.378906 667.238281 273.625 L 708.160156 250 Z M 667.238281 226.375"/></svg>