<svg xmlns="http://www.w3.org/2000/svg" viewBox="0 0 480 480"><path d="M429.802,176.81c-6.948,8.526-15.424,15.76-25.015,21.272C408.187,211.491,410,225.533,410,240 c0,16.713-2.424,32.858-6.92,48.115c-0.246,0.834-0.501,1.666-0.759,2.495c-0.1,0.317-0.195,0.634-0.296,0.95 c-0.262,0.823-0.533,1.643-0.808,2.461c-0.104,0.312-0.206,0.625-0.312,0.937c-0.312,0.917-0.635,1.829-0.963,2.739 c-0.065,0.181-0.128,0.363-0.194,0.544c-1.212,3.323-2.524,6.599-3.935,9.821c-0.103,0.236-0.21,0.47-0.314,0.705 c-0.361,0.817-0.728,1.633-1.102,2.443c-0.146,0.317-0.298,0.633-0.446,0.949c-0.34,0.724-0.683,1.445-1.032,2.164 c-0.173,0.355-0.349,0.708-0.524,1.062c-0.336,0.678-0.675,1.354-1.02,2.026c-0.188,0.369-0.38,0.736-0.571,1.103 c-0.341,0.655-0.687,1.308-1.037,1.958c-0.199,0.371-0.4,0.742-0.604,1.111c-0.353,0.645-0.711,1.285-1.071,1.924 c-0.206,0.365-0.411,0.729-0.62,1.093c-0.372,0.647-0.751,1.29-1.131,1.933c-0.205,0.346-0.407,0.691-0.614,1.035 c-0.407,0.676-0.822,1.348-1.238,2.018c-0.188,0.301-0.371,0.604-0.561,0.904c-0.492,0.782-0.993,1.559-1.498,2.331 c-0.118,0.182-0.233,0.365-0.353,0.546c-1.266,1.922-2.57,3.816-3.91,5.684c-0.186,0.258-0.375,0.512-0.562,0.77 c-0.481,0.663-0.965,1.325-1.456,1.98c-0.24,0.32-0.484,0.637-0.726,0.955c-0.447,0.588-0.896,1.175-1.35,1.757 c-0.267,0.342-0.537,0.681-0.806,1.021c-0.438,0.553-0.879,1.104-1.324,1.652c-0.283,0.348-0.568,0.692-0.854,1.038 c-0.442,0.535-0.888,1.068-1.337,1.599c-0.291,0.344-0.583,0.686-0.877,1.026c-0.455,0.529-0.914,1.056-1.376,1.579 c-0.292,0.33-0.583,0.66-0.878,0.988c-0.479,0.535-0.963,1.064-1.448,1.594c-0.284,0.309-0.567,0.619-0.854,0.926 c-0.517,0.554-1.039,1.103-1.563,1.649c-0.262,0.272-0.521,0.548-0.783,0.818c-0.602,0.62-1.211,1.232-1.821,1.843 c-0.19,0.19-0.378,0.384-0.57,0.574c-1.64,1.623-3.312,3.213-5.017,4.769c-0.113,0.104-0.229,0.205-0.342,0.308 c-0.729,0.662-1.463,1.319-2.204,1.969c-0.226,0.198-0.454,0.393-0.682,0.59c-0.636,0.552-1.274,1.102-1.919,1.644 c-0.266,0.224-0.533,0.443-0.799,0.665c-0.615,0.511-1.232,1.02-1.854,1.522c-0.283,0.229-0.568,0.455-0.853,0.683 c-0.615,0.49-1.233,0.979-1.856,1.461c-0.288,0.223-0.577,0.445-0.867,0.667c-0.632,0.483-1.268,0.963-1.906,1.438 c-0.28,0.208-0.562,0.417-0.843,0.623c-0.667,0.489-1.338,0.973-2.013,1.452C310.652,398.372,276.686,410,240,410 c-90.383,0-164.278-70.537-169.672-159.564C70.119,246.982,70,243.506,70,240c0-93.889,76.112-170,170-170 c14.467,0,28.509,1.812,41.918,5.213c5.513-9.591,12.746-18.066,21.272-25.015C283.327,43.588,262.084,40,240,40 C129.543,40,40,129.543,40,240c0,12.742,1.206,25.201,3.483,37.28C60.951,369.919,142.285,440,240,440 c82.53,0,153.378-49.993,183.931-121.344C434.268,294.513,440,267.927,440,240C440,217.916,436.412,196.673,429.802,176.81z M319.81,215.354l-44.3,28.458c-3.014,3.014-7.901,3.014-10.916,0l-71.903-87.745c-3.015-3.015-7.901-3.015-10.916,0 l-81.749,81.748C100.015,238.543,100,239.271,100,240c0,37.396,14.562,72.553,41.005,98.995C167.448,365.438,202.604,380,240,380 s72.553-14.562,98.995-41.005c20.991-20.991,34.485-47.476,39.162-76.21l-47.431-47.431 C327.712,212.34,322.825,212.34,319.81,215.354z M360,190c38.66,0,70-31.34,70-70s-31.34-70-70-70s-70,31.34-70,70 S321.34,190,360,190z M320.275,108.66c-4.783-2.762-6.422-8.877-3.66-13.66c2.761-4.783,8.876-6.422,13.66-3.66l19.641,11.34V80 c0-5.522,4.478-10,10-10s10,4.478,10,10v22.68l19.642-11.34c4.783-2.762,10.899-1.121,13.66,3.66 c2.762,4.783,1.123,10.898-3.66,13.66L379.917,120l19.641,11.34c4.783,2.762,6.422,8.877,3.66,13.66 c-1.852,3.208-5.214,5.002-8.67,5.002c-1.696,0-3.415-0.433-4.99-1.342l-19.642-11.34V160c0,5.522-4.478,10-10,10s-10-4.478-10-10 v-22.68l-19.641,11.34c-1.574,0.909-3.294,1.342-4.99,1.342c-3.457,0-6.817-1.794-8.67-5.002c-2.762-4.783-1.123-10.898,3.66-13.66 L339.917,120L320.275,108.66z"/></svg>