<svg xmlns="http://www.w3.org/2000/svg" viewBox="0 0 480 480"><path d="M60.676,283.098l7.184,26.564l62.037-49.272v78.574c0,11.045,8.953,19.999,19.999,20l60,0.004h0.001 c5.304,0,10.392-2.107,14.142-5.857c3.751-3.751,5.858-8.838,5.858-14.143v-60.087l24.113,32.097 c3.778,5.028,9.701,7.986,15.99,7.986h50.433l-13.276-29.845c-1.468-3.302-2.153-6.756-2.148-10.155h-25.019l-54.103-72.014 c-0.141-0.187-0.289-0.364-0.436-0.546l-0.189-0.236c-0.356-0.429-0.732-0.84-1.123-1.236l-0.236-0.233 c-0.405-0.397-0.822-0.783-1.26-1.146l-0.108-0.085c-0.408-0.333-0.833-0.647-1.268-0.948c-0.102-0.07-0.201-0.143-0.304-0.211 c-0.438-0.291-0.888-0.562-1.348-0.818c-0.143-0.079-0.287-0.155-0.432-0.231c-0.457-0.24-0.922-0.468-1.398-0.673 c-0.132-0.057-0.267-0.105-0.399-0.158c-0.404-0.164-0.814-0.313-1.231-0.451c-0.152-0.051-0.304-0.104-0.458-0.151 c-0.499-0.151-1.007-0.279-1.521-0.392c-0.158-0.034-0.316-0.067-0.475-0.098c-0.539-0.104-1.084-0.19-1.638-0.25 c-0.109-0.012-0.22-0.02-0.329-0.029c-0.606-0.055-1.217-0.093-1.837-0.093h-60c-0.631,0-1.253,0.037-1.868,0.095 c-0.236,0.021-0.471,0.059-0.705,0.09c-0.372,0.047-0.741,0.1-1.105,0.168c-0.282,0.053-0.562,0.115-0.841,0.18 c-0.31,0.071-0.615,0.15-0.919,0.236c-0.293,0.082-0.586,0.168-0.874,0.265c-0.286,0.095-0.565,0.201-0.845,0.309 c-0.285,0.109-0.571,0.216-0.852,0.337c-0.298,0.131-0.586,0.278-0.876,0.423c-0.246,0.122-0.496,0.233-0.736,0.366 c-0.509,0.279-1.005,0.58-1.486,0.902c-0.18,0.12-0.35,0.257-0.526,0.383c-0.27,0.193-0.544,0.379-0.805,0.586l-84.734,67.3 C56.48,273.798,59.322,278.094,60.676,283.098z M353.849,405.4c-4.528-3.164-10.762-2.057-13.925,2.47l-21.787,31.181 l-198.091,0.03c-5.522,0.001-9.999,4.479-9.998,10.002c0.001,5.522,4.479,9.999,10.002,9.998l203.302-0.031 c3.266,0,6.325-1.596,8.195-4.272l24.771-35.452C359.481,414.798,358.376,408.563,353.849,405.4z M154.978,167.667 c18.902,13.235,42.276,8.983,55.512-9.919s9.081-42.47-9.821-55.706c-18.902-13.235-42.476-9.082-55.711,9.82 S136.075,154.432,154.978,167.667z M56.776,326.136l-10.58-39.122c-0.084-0.31-0.184-0.609-0.294-0.904 c-0.035-0.093-0.076-0.182-0.113-0.273c-0.081-0.2-0.166-0.397-0.26-0.589c-0.049-0.101-0.101-0.2-0.153-0.298 c-0.094-0.179-0.192-0.354-0.296-0.523c-0.058-0.095-0.115-0.189-0.176-0.281c-0.114-0.175-0.235-0.344-0.36-0.511l-0.172-0.229 c-0.178-0.225-0.363-0.44-0.559-0.646l-0.029-0.033c-0.207-0.218-0.425-0.423-0.649-0.619l-0.211-0.174 c-0.16-0.132-0.321-0.261-0.488-0.383c-0.089-0.064-0.181-0.126-0.271-0.188c-0.157-0.107-0.317-0.21-0.48-0.308 c-0.097-0.058-0.193-0.115-0.292-0.171c-0.171-0.094-0.345-0.182-0.521-0.266c-0.094-0.045-0.186-0.093-0.28-0.135l-0.199-0.085 l-0.005,0.004c-0.16-0.067-0.32-0.134-0.483-0.192l-0.143-0.055c-0.278-0.095-0.562-0.176-0.849-0.246 c-0.095-0.022-0.191-0.039-0.287-0.06c-0.197-0.042-0.396-0.081-0.597-0.111c-0.115-0.017-0.23-0.03-0.347-0.043 c-0.188-0.021-0.376-0.038-0.565-0.049c-0.118-0.007-0.237-0.013-0.356-0.015c-0.139-0.003-0.277,0.002-0.417,0.005 c-0.289,0.007-0.578,0.026-0.869,0.058c-0.117,0.013-0.234,0.023-0.352,0.04c-0.396,0.058-0.794,0.132-1.19,0.239 c-5.331,1.441-8.483,6.933-7.041,12.265l1.224,4.524l9.611,35.541L70,451.644c1.196,4.422,5.178,7.345,9.544,7.39 c0.312,0.004,0.628-0.027,0.942-0.055c0.146-0.012,0.292-0.01,0.438-0.029c0.446-0.058,0.894-0.145,1.34-0.266 c5.33-1.441,8.483-6.933,7.041-12.264L56.776,326.136z M448.621,439.081h-36.445l-58.406-131.29l-12.482-28.057l-2.149-4.833 c-0.185-0.415-0.402-0.805-0.635-1.182c-0.059-0.096-0.119-0.19-0.182-0.283c-0.227-0.342-0.467-0.671-0.729-0.977l-0.057-0.071 c-0.282-0.324-0.589-0.621-0.907-0.902l-0.243-0.207c-0.292-0.242-0.594-0.469-0.909-0.675l-0.125-0.087 c-0.354-0.224-0.724-0.42-1.102-0.598c-0.094-0.043-0.188-0.084-0.284-0.125c-0.332-0.144-0.672-0.271-1.019-0.378l-0.189-0.062 c-0.4-0.115-0.808-0.201-1.221-0.266c-0.1-0.016-0.2-0.026-0.301-0.039c-0.354-0.044-0.711-0.07-1.07-0.077l-0.256-0.008 c-0.192,0.002-0.386,0.018-0.579,0.03c-0.141,0.009-0.28,0.013-0.421,0.028c-0.199,0.021-0.398,0.06-0.598,0.094 c-0.135,0.023-0.27,0.039-0.403,0.067c-0.214,0.046-0.426,0.109-0.639,0.17c-0.118,0.034-0.237,0.06-0.355,0.098 c-0.328,0.106-0.655,0.23-0.978,0.374c-3.725,1.656-5.93,5.31-5.933,9.138c-0.001,1.359,0.27,2.74,0.857,4.062l15.965,35.888 l59.713,134.229c1.605,3.61,5.187,5.938,9.138,5.938h42.943c5.522,0,10-4.478,10-10S454.144,439.081,448.621,439.081z M149.896,378.964c-11.046,0-20,8.954-20,20s8.954,20,20,20h140c11.046,0,20-8.954,20-20s-8.954-20-20-20H149.896z"/></svg>