<svg xmlns="http://www.w3.org/2000/svg" width="1000pt" height="1000pt" viewBox="0 0 1000 1000"><path d="M 895.386719 368.253906 C 870.691406 398.558594 836.738281 421.023438 797.871094 431.296875 C 820.992188 467.765625 838.597656 507.574219 849.996094 549.378906 C 843.539062 594.585938 828.539062 637.085938 806.457031 675.207031 C 809.121094 587.953125 781.078125 503.792969 729.21875 436.339844 C 659.386719 428.605469 601 382.378906 575.816406 319.402344 C 574.78125 318.976562 573.746094 318.542969 572.707031 318.128906 C 572.496094 318.335938 572.496094 318.753906 572.289062 318.957031 L 571.667969 320.210938 C 555.621094 351.042969 544.371094 383.960938 537.5 417.917969 C 537.082031 419.585938 536.871094 421.457031 536.457031 423.125 C 535.207031 429.585938 533.746094 436.042969 532.917969 442.707031 C 532.5 446.667969 532.085938 450.832031 531.875 454.792969 C 531.664062 456.875 531.664062 458.75 531.457031 460.832031 C 530.832031 468.125 530.625 475.417969 530.417969 482.707031 C 534.375 485.207031 538.125 487.917969 541.875 490.625 C 543.957031 492.292969 546.25 493.75 548.542969 495.417969 C 550 496.457031 551.667969 497.5 553.125 498.332031 C 555 499.375 556.875 500.625 558.746094 501.875 L 561.25 503.746094 C 561.871094 504.371094 562.5 505 563.332031 505.621094 C 573.957031 513.539062 583.957031 522.078125 593.75 530.832031 C 594.167969 531.246094 594.582031 531.457031 595 531.871094 C 596.253906 532.914062 597.5 533.957031 598.542969 534.996094 L 600.207031 536.664062 C 630.832031 565.621094 657.707031 598.121094 678.960938 634.792969 C 679.167969 635 679.375 635.417969 679.582031 635.832031 C 679.792969 636.25 679.792969 636.457031 680.003906 636.664062 C 685.417969 646.039062 690 655.625 694.585938 665.207031 C 694.792969 665.832031 695 666.246094 695.207031 666.871094 C 695.417969 667.289062 695.628906 667.707031 695.835938 668.125 C 700.003906 676.667969 703.542969 685.417969 706.878906 694.167969 C 707.292969 695.417969 707.917969 696.457031 708.335938 697.707031 C 708.960938 699.164062 709.585938 700.621094 710.210938 702.082031 C 710.417969 702.5 710.417969 702.707031 710.625 703.125 C 710.832031 703.542969 710.832031 703.75 711.042969 704.167969 C 711.457031 705.625 711.871094 706.875 712.292969 708.332031 C 712.503906 709.375 712.917969 710.625 713.335938 711.875 C 715.628906 718.957031 717.917969 726.042969 720 733.332031 C 720.417969 734.375 720.628906 735.417969 721.042969 736.457031 C 721.457031 737.707031 721.875 738.75 722.082031 740 C 722.5 741.25 722.710938 742.5 723.125 743.75 C 723.957031 746.875 724.582031 750.207031 725.207031 753.542969 C 725.625 755.414062 725.835938 757.082031 726.25 758.957031 C 726.667969 760.417969 726.878906 762.082031 727.292969 763.542969 C 727.707031 765.417969 728.125 767.082031 728.542969 768.957031 C 711.667969 783.128906 693.542969 795.832031 674.167969 806.875 C 673.332031 798.957031 672.082031 791.042969 670.628906 783.128906 C 669.792969 778.960938 668.753906 775.003906 667.917969 770.835938 C 666.042969 761.878906 663.957031 752.917969 661.253906 743.960938 C 660.417969 741.046875 659.378906 738.128906 658.335938 735.210938 C 657.710938 733.753906 657.085938 732.296875 656.667969 730.835938 C 656.253906 729.585938 655.835938 728.335938 655.417969 727.085938 C 652.917969 720.003906 650.625 712.917969 647.710938 706.042969 C 634.378906 715.832031 620.628906 725.207031 605.832031 733.753906 C 505.417969 791.667969 388.542969 805.417969 280.625 777.082031 C 245.625 749.375 215.832031 715.207031 193.125 676.25 C 309.167969 748.125 456.25 751.25 576.042969 682.085938 C 591.457031 673.335938 605.625 663.125 619.167969 652.503906 L 618.75 652.082031 L 618.542969 651.667969 C 618.332031 651.457031 618.125 651.042969 617.914062 650.835938 C 599.164062 621.457031 576.246094 595.417969 550.207031 572.292969 C 548.539062 570.835938 546.667969 569.167969 544.996094 567.710938 C 540.417969 563.542969 535.832031 559.585938 531.042969 555.835938 C 527.707031 553.335938 524.164062 550.835938 520.625 548.542969 C 519.164062 547.503906 517.707031 546.671875 516.246094 545.628906 C 510.414062 541.460938 504.164062 537.503906 497.914062 533.753906 C 493.957031 536.046875 489.582031 537.921875 485.207031 539.792969 C 482.703125 540.835938 480.207031 541.878906 477.703125 543.128906 C 476.039062 543.960938 474.578125 544.796875 472.914062 545.628906 C 471.039062 546.671875 468.953125 547.710938 467.078125 548.542969 C 466.246094 548.960938 465.203125 549.167969 464.164062 549.585938 C 463.332031 550.003906 462.496094 550.210938 461.664062 550.628906 C 449.578125 555.835938 437.078125 560.210938 424.578125 564.378906 C 423.953125 564.792969 423.121094 565.003906 422.496094 565.210938 C 421.453125 565.628906 420.203125 566.042969 418.953125 566.460938 C 418.539062 566.671875 417.914062 566.878906 417.496094 566.878906 L 417.078125 566.878906 C 416.871094 566.878906 416.871094 566.878906 416.664062 566.878906 C 376.453125 579.167969 334.582031 586.253906 292.289062 586.253906 L 290.417969 586.253906 C 279.371094 586.042969 268.75 585.421875 258.125 584.585938 C 257.707031 584.585938 257.082031 584.378906 256.667969 584.378906 C 256.25 584.167969 255.625 584.167969 255.207031 584.167969 C 245.625 583.335938 236.457031 582.085938 227.082031 580.628906 C 226.042969 580.417969 224.792969 580.417969 223.542969 580.210938 C 222.082031 580.003906 220.417969 579.792969 218.75 579.585938 L 217.707031 579.585938 C 217.292969 579.585938 217.082031 579.375 216.667969 579.375 C 215 579.167969 213.332031 578.75 211.667969 578.332031 C 210.625 577.917969 209.582031 577.707031 208.542969 577.503906 C 201.25 576.042969 193.957031 574.378906 186.667969 572.503906 C 185.835938 572.292969 184.792969 572.085938 183.957031 571.878906 C 182.707031 571.667969 181.25 571.460938 180.003906 571.042969 C 179.585938 570.835938 178.960938 570.835938 178.542969 570.628906 C 177.710938 570.417969 177.085938 570.210938 176.25 570.003906 C 173.125 569.171875 170 568.128906 166.875 567.085938 C 165.003906 566.460938 163.335938 565.835938 161.457031 565.210938 C 160.207031 564.585938 158.75 564.171875 157.292969 563.753906 C 155.417969 563.128906 153.542969 562.503906 151.667969 561.882812 C 147.917969 541.464844 146.042969 520.421875 146.042969 498.964844 L 146.042969 495.832031 C 153.542969 498.957031 161.042969 501.875 168.542969 504.582031 C 172.5 506.042969 176.667969 507.292969 180.628906 508.539062 C 189.585938 511.457031 198.335938 514.164062 207.292969 516.246094 C 210.003906 516.871094 212.917969 517.5 215.835938 517.914062 C 217.503906 518.332031 219.378906 518.542969 221.042969 518.957031 C 222.710938 519.371094 224.167969 519.582031 225.835938 519.996094 C 232.710938 521.25 239.792969 522.707031 246.878906 523.539062 C 245.003906 507.082031 243.753906 490.417969 243.753906 473.539062 C 243.753906 357.496094 290.210938 249.371094 368.960938 169.996094 C 409.378906 153.746094 453.546875 144.789062 499.796875 144.789062 C 379.378906 209.371094 303.132812 335.207031 303.132812 473.539062 C 303.132812 491.457031 304.796875 508.746094 307.296875 525.832031 L 309.382812 525.832031 C 343.964844 524.375 378.132812 517.707031 411.046875 506.667969 C 412.921875 506.042969 414.796875 505.414062 416.671875 504.792969 C 422.921875 502.917969 428.964844 500.835938 435.007812 498.332031 C 438.546875 496.875 442.296875 494.996094 445.839844 493.332031 C 447.714844 492.503906 449.589844 491.460938 451.464844 490.625 C 457.921875 487.5 464.382812 484.167969 470.839844 480.625 C 470.839844 476.042969 471.464844 471.457031 471.882812 466.871094 C 472.089844 463.957031 472.507812 461.25 472.714844 458.332031 C 472.921875 456.664062 472.921875 454.789062 472.921875 453.121094 C 473.132812 450.832031 473.132812 448.746094 473.339844 446.457031 C 473.339844 445.414062 473.546875 444.371094 473.757812 443.332031 C 473.964844 442.289062 473.964844 441.457031 474.171875 440.621094 C 475.839844 427.496094 478.128906 414.582031 480.835938 401.664062 C 481.046875 401.039062 481.046875 400.207031 481.253906 399.582031 C 481.460938 398.332031 481.878906 396.871094 482.085938 395.625 C 482.085938 395.414062 482.085938 394.996094 482.296875 394.582031 C 482.503906 394.167969 482.710938 393.957031 482.710938 393.542969 C 492.296875 352.5 506.878906 312.917969 528.128906 276.246094 C 528.128906 276.039062 528.335938 276.039062 528.335938 275.832031 L 528.546875 275.621094 C 528.757812 275.207031 528.964844 274.996094 529.171875 274.582031 C 534.796875 265.417969 540.632812 256.457031 546.671875 247.707031 C 547.085938 247.082031 547.296875 246.667969 547.714844 246.25 C 547.921875 246.039062 548.339844 245.625 548.546875 245.207031 C 553.539062 238.109375 558.878906 231.191406 564.25 224.445312 C 570.839844 176.308594 595.765625 133.933594 631.738281 104.613281 C 590.324219 90.820312 546.035156 83.332031 500 83.332031 C 269.792969 83.332031 83.332031 269.792969 83.332031 500 C 83.332031 730 269.792969 916.667969 500 916.667969 C 730 916.667969 916.667969 730 916.667969 500 C 916.667969 453.953125 909.179688 409.660156 895.386719 368.253906 Z M 749.421875 395.253906 C 829.960938 395.253906 895.253906 329.960938 895.253906 249.421875 C 895.253906 168.878906 829.960938 103.585938 749.421875 103.585938 C 668.878906 103.585938 603.585938 168.878906 603.585938 249.421875 C 603.585938 329.960938 668.878906 395.253906 749.421875 395.253906 Z M 666.660156 225.796875 C 656.695312 220.042969 653.28125 207.300781 659.035156 197.335938 C 664.789062 187.371094 677.527344 183.957031 687.492188 189.710938 L 728.414062 213.335938 L 728.414062 166.085938 C 728.414062 154.582031 737.742188 145.253906 749.246094 145.253906 C 760.75 145.253906 770.078125 154.582031 770.078125 166.085938 L 770.078125 213.335938 L 811 189.710938 C 820.964844 183.957031 833.707031 187.378906 839.457031 197.335938 C 845.210938 207.300781 841.796875 220.042969 831.832031 225.796875 L 790.914062 249.421875 L 831.832031 273.046875 C 841.796875 278.800781 845.210938 291.539062 839.457031 301.503906 C 835.601562 308.1875 828.597656 311.925781 821.394531 311.925781 C 817.863281 311.925781 814.28125 311.023438 811 309.128906 L 770.078125 285.503906 L 770.078125 332.753906 C 770.078125 344.257812 760.75 353.585938 749.246094 353.585938 C 737.742188 353.585938 728.414062 344.257812 728.414062 332.753906 L 728.414062 285.503906 L 687.492188 309.128906 C 684.214844 311.023438 680.632812 311.925781 677.097656 311.925781 C 669.894531 311.925781 662.894531 308.1875 659.035156 301.503906 C 653.28125 291.539062 656.695312 278.800781 666.660156 273.046875 L 707.578125 249.421875 Z M 666.660156 225.796875"/></svg>