<svg xmlns="http://www.w3.org/2000/svg" viewBox="0 0 480 480"><path d="M429.786,176.762c-11.854,14.546-28.152,25.329-46.808,30.26c11.098,17.506,19.549,36.613,25.021,56.679 c-3.1,21.7-10.301,42.1-20.9,60.399c1.279-41.883-12.182-82.279-37.074-114.656c-33.519-3.713-61.545-25.903-73.633-56.131 c-0.497-0.204-0.994-0.412-1.492-0.612c-0.101,0.1-0.101,0.3-0.201,0.399l-0.299,0.601c-7.701,14.8-13.101,30.6-16.4,46.899 c-0.2,0.801-0.301,1.7-0.5,2.5c-0.6,3.101-1.301,6.2-1.7,9.4c-0.2,1.9-0.399,3.9-0.5,5.8c-0.101,1-0.101,1.9-0.2,2.9 c-0.3,3.5-0.4,7-0.5,10.5c1.9,1.2,3.7,2.5,5.5,3.8c1,0.8,2.1,1.5,3.2,2.3c0.7,0.5,1.5,1,2.2,1.4c0.9,0.5,1.8,1.1,2.699,1.7 l1.201,0.899c0.299,0.3,0.6,0.601,1,0.9c5.1,3.8,9.899,7.899,14.6,12.1c0.2,0.2,0.4,0.3,0.6,0.5c0.601,0.5,1.2,1,1.7,1.5l0.8,0.8 c14.7,13.9,27.6,29.5,37.801,47.101c0.1,0.1,0.199,0.3,0.299,0.5c0.101,0.2,0.101,0.3,0.201,0.399c2.6,4.5,4.799,9.101,7,13.7 c0.1,0.3,0.199,0.5,0.299,0.8c0.101,0.2,0.201,0.4,0.301,0.601c2,4.1,3.699,8.3,5.3,12.5c0.2,0.6,0.5,1.1,0.7,1.7 c0.3,0.699,0.6,1.399,0.9,2.1c0.1,0.2,0.1,0.3,0.199,0.5s0.1,0.3,0.2,0.5c0.2,0.7,0.399,1.3,0.601,2c0.1,0.5,0.299,1.1,0.5,1.7 c1.1,3.399,2.199,6.8,3.199,10.3c0.2,0.5,0.301,1,0.5,1.5c0.2,0.6,0.4,1.1,0.5,1.7c0.2,0.6,0.301,1.2,0.5,1.8 c0.4,1.5,0.7,3.1,1,4.7c0.2,0.899,0.301,1.7,0.5,2.6c0.2,0.7,0.301,1.5,0.5,2.2c0.2,0.9,0.4,1.7,0.601,2.6 c-8.101,6.801-16.8,12.9-26.101,18.2c-0.4-3.8-1-7.6-1.699-11.399c-0.4-2-0.9-3.9-1.301-5.9c-0.9-4.3-1.9-8.6-3.199-12.9 c-0.4-1.399-0.9-2.8-1.4-4.199c-0.3-0.7-0.6-1.4-0.8-2.101c-0.2-0.6-0.4-1.2-0.601-1.8c-1.199-3.4-2.3-6.8-3.699-10.1 c-6.4,4.699-13,9.199-20.101,13.3C242.6,380,186.5,386.6,134.7,373c-16.8-13.3-31.101-29.7-42-48.4c55.7,34.5,126.3,36,183.8,2.801 c7.4-4.2,14.2-9.101,20.7-14.2L297,313l-0.1-0.2c-0.101-0.1-0.2-0.3-0.301-0.399c-9-14.101-20-26.601-32.5-37.7 c-0.8-0.7-1.699-1.5-2.5-2.2c-2.199-2-4.4-3.9-6.699-5.7c-1.601-1.2-3.301-2.399-5-3.5c-0.701-0.5-1.4-0.899-2.101-1.399 c-2.8-2-5.8-3.9-8.8-5.7c-1.9,1.1-4,2-6.1,2.899c-1.201,0.5-2.4,1-3.601,1.601c-0.8,0.399-1.5,0.8-2.3,1.2 c-0.9,0.5-1.9,1-2.801,1.399c-0.399,0.2-0.899,0.3-1.399,0.5c-0.399,0.2-0.8,0.3-1.2,0.5c-5.8,2.5-11.8,4.601-17.8,6.601 c-0.3,0.199-0.7,0.3-1,0.399c-0.5,0.2-1.101,0.4-1.7,0.601c-0.199,0.1-0.5,0.199-0.699,0.199h-0.201c-0.1,0-0.1,0-0.199,0 c-19.301,5.9-39.4,9.301-59.7,9.301h-0.899c-5.301-0.101-10.4-0.4-15.5-0.801c-0.2,0-0.5-0.1-0.7-0.1c-0.2-0.1-0.5-0.1-0.7-0.1 c-4.6-0.4-9-1-13.5-1.7c-0.5-0.101-1.1-0.101-1.7-0.2c-0.7-0.1-1.5-0.2-2.3-0.3h-0.5c-0.2,0-0.3-0.101-0.5-0.101 c-0.8-0.1-1.6-0.3-2.4-0.5c-0.5-0.199-1-0.3-1.5-0.399c-3.5-0.7-7-1.5-10.5-2.4c-0.399-0.1-0.899-0.2-1.3-0.3 c-0.6-0.1-1.3-0.2-1.899-0.4c-0.2-0.1-0.5-0.1-0.7-0.199c-0.4-0.101-0.7-0.2-1.101-0.301c-1.5-0.399-3-0.899-4.5-1.399 c-0.899-0.3-1.699-0.601-2.6-0.9c-0.6-0.3-1.3-0.5-2-0.7c-0.9-0.3-1.8-0.6-2.7-0.899c-1.8-9.8-2.7-19.9-2.7-30.2V238 c3.601,1.5,7.2,2.9,10.801,4.2c1.899,0.7,3.899,1.3,5.8,1.899c4.3,1.4,8.5,2.7,12.8,3.7c1.3,0.3,2.7,0.601,4.1,0.8 c0.801,0.2,1.7,0.301,2.5,0.5c0.801,0.2,1.5,0.301,2.301,0.5c3.3,0.601,6.699,1.301,10.1,1.7c-0.9-7.899-1.5-15.899-1.5-24 c0-55.7,22.3-107.6,60.1-145.7c19.4-7.8,40.601-12.1,62.801-12.1c-57.801,31-94.4,91.4-94.4,157.8c0,8.601,0.8,16.9,2,25.101h1 c16.6-0.7,33-3.9,48.8-9.2c0.9-0.3,1.8-0.601,2.7-0.9c3-0.899,5.9-1.899,8.8-3.1c1.7-0.7,3.5-1.601,5.2-2.4 c0.9-0.399,1.8-0.899,2.7-1.3c3.1-1.5,6.2-3.1,9.3-4.8c0-2.2,0.3-4.4,0.5-6.601c0.1-1.399,0.3-2.699,0.4-4.1 c0.1-0.8,0.1-1.7,0.1-2.5c0.1-1.1,0.1-2.1,0.2-3.2c0-0.5,0.1-1,0.2-1.5c0.1-0.5,0.1-0.899,0.199-1.3c0.801-6.3,1.9-12.5,3.2-18.7 c0.101-0.3,0.101-0.7,0.2-1c0.1-0.6,0.3-1.3,0.4-1.899c0-0.101,0-0.301,0.1-0.5c0.1-0.2,0.2-0.301,0.2-0.5 c4.6-19.7,11.6-38.7,21.8-56.301c0-0.1,0.1-0.1,0.1-0.199l0.101-0.101c0.1-0.2,0.2-0.3,0.3-0.5c2.7-4.399,5.5-8.7,8.4-12.899 c0.199-0.301,0.3-0.5,0.5-0.7c0.1-0.101,0.3-0.3,0.399-0.5c2.396-3.408,4.96-6.728,7.538-9.966 c3.163-23.106,15.127-43.446,32.395-57.52C283.355,43.594,262.096,40,240,40C129.5,40,40,129.5,40,240c0,110.4,89.5,200,200,200 c110.4,0,200-89.6,200-200C440,217.897,436.406,196.637,429.786,176.762z M359.722,189.722c38.66,0,70-31.34,70-70s-31.34-70-70-70 s-70,31.34-70,70S321.062,189.722,359.722,189.722z M319.997,108.382c-4.783-2.762-6.422-8.877-3.66-13.66 c2.761-4.783,8.876-6.422,13.66-3.66l19.641,11.339V79.722c0-5.522,4.478-10,10-10s10,4.478,10,10v22.68l19.642-11.34 c4.783-2.762,10.899-1.121,13.66,3.66c2.762,4.783,1.123,10.898-3.66,13.66l-19.642,11.34l19.642,11.34 c4.783,2.762,6.422,8.877,3.66,13.66c-1.852,3.208-5.214,5.002-8.67,5.002c-1.696,0-3.415-0.433-4.99-1.342l-19.642-11.34v22.68 c0,5.522-4.478,10-10,10s-10-4.478-10-10v-22.68l-19.641,11.34c-1.574,0.909-3.294,1.342-4.99,1.342 c-3.457,0-6.817-1.794-8.67-5.002c-2.762-4.783-1.123-10.898,3.66-13.66l19.641-11.34L319.997,108.382z"/></svg>