<svg xmlns="http://www.w3.org/2000/svg" viewBox="0 0 480 479.999"><path d="M285.153,183.304c-1.484-4.563-5.738-7.644-10.523-7.644h-69.235c-4.808,0-9.062,3.08-10.546,7.644l-21.38,65.846 c-1.484,4.564,0.133,9.549,4.01,12.385l56.009,40.678c3.877,2.836,9.15,2.836,13.027,0l55.986-40.678 c3.899-2.836,5.517-7.82,4.032-12.385L285.153,183.304z M240,40C129.54,40,40,129.539,40,240c0,110.439,89.54,200,200,200 c110.439,0,200-89.561,200-200C440,129.539,350.44,40,240,40z M351.399,276.558l25.313,64.381 c-20.084,27.131-48.04,48.099-80.463,59.499l-51.172-30.14c-3.14-1.86-7.021-1.86-10.16,0l-51.18,30.135 c-32.419-11.401-60.371-32.368-80.452-59.497l25.313-64.378c1.58-4.04,0.38-8.641-2.98-11.4L71.11,220.516 c3.527-30.774,15.305-59.077,33.059-82.634l46.73-0.364c3.76-0.02,7.199-2.18,8.88-5.58l26.225-53.149 c16.972-5.699,35.13-8.789,53.997-8.789c18.866,0,37.025,3.09,53.997,8.789l26.241,53.149c1.659,3.4,5.1,5.561,8.88,5.58 l46.714,0.363c17.753,23.557,29.53,51.858,33.058,82.632l-54.512,44.645C351.018,267.917,349.819,272.518,351.399,276.558z"/></svg>