<svg xmlns="http://www.w3.org/2000/svg" viewBox="0 0 480 480"><path d="M240,40C129.543,40,40,129.543,40,240s89.543,200,200,200s200-89.543,200-200S350.457,40,240,40z M131.296,370.61 c-7.712-6.43-14.849-13.528-21.318-21.205c24.955-29.588,40.024-67.759,40.024-109.401c0-41.642-15.069-79.825-40.024-109.407 c6.47-7.678,13.606-14.776,21.318-21.206C161.617,144.419,180,190.033,180,240.001C180,289.968,161.617,335.582,131.296,370.61z M370.015,349.416c-6.468,7.673-13.602,14.768-21.311,21.194c-30.32-35.028-48.703-80.643-48.703-130.609 c0-49.968,18.383-95.582,48.703-130.61c7.71,6.428,14.845,13.524,21.313,21.199c-24.956,29.588-40.017,67.764-40.017,109.411 C330.001,281.646,345.06,319.833,370.015,349.416z"/></svg>