<svg xmlns="http://www.w3.org/2000/svg" width="1000pt" height="1000pt" viewBox="0 0 1000 1000"><path d="M 934.800781 284.65625 C 929.820312 206.746094 895.617188 141.816406 838.503906 101.824219 C 781.394531 61.832031 708.679688 51.902344 633.765625 73.867188 C 560.523438 95.339844 493.714844 144.96875 445.652344 213.609375 C 397.589844 282.25 373.804688 362.003906 378.679688 438.171875 C 380.753906 470.578125 387.894531 500.726562 399.625 527.785156 L 359.890625 744.398438 C 347.800781 741.542969 334.664062 746.074219 327.105469 756.867188 L 243.457031 876.328125 C 233.558594 890.464844 236.992188 909.949219 251.132812 919.851562 L 268.199219 931.800781 C 282.335938 941.699219 301.824219 938.261719 311.722656 924.121094 L 395.367188 804.664062 C 402.90625 793.894531 402.691406 780.035156 395.921875 769.660156 L 588.269531 659.902344 C 593.117188 660.199219 597.992188 660.378906 602.910156 660.378906 C 627.867188 660.378906 653.664062 656.597656 679.71875 648.957031 C 752.957031 627.484375 819.765625 577.859375 867.828125 509.214844 C 915.886719 440.578125 939.675781 360.824219 934.800781 284.65625 Z M 407.644531 714.996094 L 432.160156 581.355469 C 444.503906 596.382812 458.820312 609.695312 474.976562 621.003906 C 490.90625 632.15625 508.058594 640.953125 526.128906 647.390625 Z M 833.695312 485.320312 C 774.085938 570.445312 684.890625 618.640625 603.234375 618.632812 C 565.640625 618.628906 529.632812 608.410156 498.871094 586.871094 C 452.335938 554.285156 424.417969 500.535156 420.261719 435.511719 C 415.988281 368.746094 437.132812 298.429688 479.785156 237.507812 C 539.390625 152.382812 628.589844 104.191406 710.246094 104.191406 C 747.835938 104.191406 783.847656 114.417969 814.609375 135.953125 C 861.144531 168.539062 889.0625 222.292969 893.222656 287.316406 C 897.492188 354.078125 876.351562 424.398438 833.695312 485.320312 Z M 276.597656 547.796875 C 302.992188 510.097656 293.828125 458.136719 256.132812 431.734375 C 218.429688 405.335938 166.46875 414.503906 140.070312 452.199219 C 113.671875 489.902344 122.835938 541.863281 160.535156 568.261719 C 198.234375 594.664062 250.199219 585.496094 276.597656 547.796875 Z M 276.597656 547.796875"/></svg>