<?xml version="1.0" encoding="iso-8859-1"?>
<!-- Generator: Adobe Illustrator 23.0.4, SVG Export Plug-In . SVG Version: 6.00 Build 0)  -->
<svg version="1.1" xmlns="http://www.w3.org/2000/svg" xmlns:xlink="http://www.w3.org/1999/xlink" x="0px" y="0px"
	 viewBox="0 0 480 480" style="enable-background:new 0 0 480 480;" xml:space="preserve">
<g id="Layer_4">
	<g id="Layer_5">
		<path d="M448.705,136.635c-2.392-37.396-18.808-68.563-46.223-87.76c-27.413-19.196-62.315-23.961-98.275-13.419
			c-35.156,10.308-67.223,34.129-90.293,67.077c-23.07,32.947-34.487,71.228-32.148,107.789
			c0.995,15.555,4.424,30.027,10.054,43.014l-19.073,103.975c-5.802-1.37-12.109,0.805-15.737,5.985l-40.15,57.341
			c-4.752,6.786-3.103,16.139,3.684,20.891l8.191,5.736c6.786,4.751,16.14,3.102,20.891-3.685l40.15-57.34
			c3.619-5.169,3.516-11.822,0.267-16.802l92.326-52.683c2.327,0.141,4.668,0.228,7.028,0.228c11.98,0,24.361-1.815,36.868-5.482
			c35.155-10.307,67.222-34.128,90.292-67.076C439.626,211.477,451.044,173.196,448.705,136.635z M195.669,343.199l11.768-64.149
			c5.925,7.214,12.797,13.603,20.551,19.031c7.647,5.354,15.88,9.577,24.553,12.667L195.669,343.199z M400.173,232.953
			c-28.611,40.86-71.426,63.995-110.62,63.991c-18.045-0.002-35.33-4.908-50.095-15.246c-22.336-15.641-35.737-41.442-37.733-72.653
			c-2.05-32.046,8.098-65.799,28.572-95.041c28.611-40.86,71.427-63.992,110.621-63.992c18.044,0,35.329,4.908,50.094,15.246
			c22.337,15.641,35.738,41.443,37.734,72.653C430.796,169.958,420.648,203.711,400.173,232.953z M132.766,262.943
			c12.671-18.097,8.272-43.038-9.823-55.71c-18.097-12.671-43.038-8.272-55.709,9.823c-12.672,18.097-8.273,43.038,9.822,55.709
			C95.153,285.438,120.095,281.039,132.766,262.943z"/>
	</g>
</g>
<g id="Layer_6">
</g>
</svg>
