<svg xmlns="http://www.w3.org/2000/svg" width="1000pt" height="1000pt" viewBox="0 0 1000 1000"><path d="M 769.835938 853.222656 L 537.5 853.222656 C 528.292969 853.222656 520.832031 845.761719 520.832031 836.554688 L 520.832031 83.332031 C 520.832031 83.082031 520.800781 82.835938 520.792969 82.585938 C 520.777344 82.214844 520.769531 81.847656 520.738281 81.480469 C 520.703125 81.101562 520.648438 80.734375 520.597656 80.359375 C 520.554688 80.070312 520.519531 79.785156 520.464844 79.496094 C 520.390625 79.085938 520.292969 78.683594 520.191406 78.285156 C 520.128906 78.039062 520.070312 77.789062 520 77.546875 C 519.882812 77.144531 519.746094 76.746094 519.609375 76.351562 C 519.523438 76.109375 519.4375 75.867188 519.339844 75.625 C 519.195312 75.253906 519.035156 74.894531 518.863281 74.535156 C 518.742188 74.273438 518.621094 74.011719 518.488281 73.757812 C 518.324219 73.4375 518.144531 73.128906 517.960938 72.820312 C 517.796875 72.535156 517.632812 72.253906 517.453125 71.980469 C 517.273438 71.703125 517.082031 71.4375 516.886719 71.171875 C 516.683594 70.886719 516.480469 70.605469 516.257812 70.328125 C 516.050781 70.074219 515.832031 69.828125 515.617188 69.582031 C 515.390625 69.324219 515.164062 69.070312 514.925781 68.820312 C 514.664062 68.554688 514.390625 68.300781 514.113281 68.050781 C 513.898438 67.847656 513.683594 67.644531 513.457031 67.453125 C 513.105469 67.152344 512.734375 66.875 512.359375 66.597656 L 511.949219 66.277344 L 511.84375 66.210938 C 511.398438 65.90625 510.941406 65.625 510.476562 65.351562 L 510.082031 65.113281 C 509.605469 64.851562 509.113281 64.617188 508.613281 64.386719 L 508.226562 64.199219 C 507.769531 64.003906 507.304688 63.839844 506.835938 63.679688 L 506.289062 63.476562 C 505.917969 63.359375 505.535156 63.269531 505.152344 63.171875 C 504.863281 63.101562 504.582031 63.015625 504.292969 62.953125 C 503.992188 62.890625 503.691406 62.855469 503.390625 62.808594 C 503.007812 62.742188 502.628906 62.675781 502.246094 62.632812 C 501.976562 62.605469 501.703125 62.597656 501.429688 62.582031 C 501.011719 62.550781 500.59375 62.519531 500.171875 62.515625 L 500 62.5 C 499.746094 62.5 499.507812 62.527344 499.257812 62.539062 C 498.882812 62.550781 498.511719 62.5625 498.140625 62.59375 C 497.769531 62.628906 497.40625 62.683594 497.042969 62.734375 C 496.746094 62.777344 496.449219 62.8125 496.152344 62.867188 C 495.757812 62.941406 495.363281 63.039062 494.972656 63.136719 C 494.714844 63.199219 494.453125 63.261719 494.199219 63.335938 C 493.804688 63.449219 493.425781 63.578125 493.046875 63.714844 C 492.785156 63.804688 492.523438 63.894531 492.269531 64 C 491.917969 64.140625 491.578125 64.296875 491.234375 64.453125 C 490.953125 64.582031 490.671875 64.714844 490.398438 64.855469 C 490.101562 65.011719 489.808594 65.179688 489.519531 65.347656 C 489.214844 65.523438 488.914062 65.703125 488.617188 65.898438 C 488.367188 66.058594 488.125 66.234375 487.882812 66.410156 C 487.570312 66.632812 487.261719 66.855469 486.960938 67.097656 C 486.738281 67.277344 486.519531 67.472656 486.304688 67.664062 C 486.015625 67.914062 485.734375 68.164062 485.457031 68.429688 C 485.226562 68.660156 485.003906 68.898438 484.785156 69.140625 C 484.550781 69.390625 484.3125 69.636719 484.089844 69.898438 C 483.828125 70.207031 483.589844 70.535156 483.347656 70.855469 L 482.933594 71.386719 L 309.269531 319.40625 C 322.414062 324.644531 334.25 332.460938 344.132812 342.261719 L 471.589844 160.234375 C 473.925781 156.894531 479.171875 158.546875 479.171875 162.621094 L 479.171875 836.550781 C 479.171875 845.757812 471.710938 853.21875 462.503906 853.21875 L 230.164062 853.21875 C 207.570312 853.21875 188.328125 870.789062 187.527344 893.367188 C 186.683594 917.074219 205.648438 936.550781 229.167969 936.550781 L 770.832031 936.550781 C 794.347656 936.550781 813.316406 917.070312 812.472656 893.367188 C 811.671875 870.789062 792.429688 853.222656 769.835938 853.222656 Z M 270.832031 478.695312 C 305.351562 478.695312 333.332031 450.710938 333.332031 416.195312 C 333.332031 381.675781 305.351562 353.695312 270.832031 353.695312 C 236.316406 353.695312 208.332031 381.675781 208.332031 416.195312 C 208.332031 450.710938 236.316406 478.695312 270.832031 478.695312 Z M 270.832031 478.695312"/></svg>