<svg xmlns="http://www.w3.org/2000/svg" viewBox="0 0 480 480"><path d="M369.521,409.546H258c-4.419,0-8-3.581-8-8V40c0-0.121-0.015-0.238-0.019-0.358c-0.007-0.178-0.011-0.355-0.026-0.532 c-0.017-0.182-0.043-0.358-0.069-0.537c-0.02-0.139-0.037-0.276-0.062-0.414c-0.037-0.197-0.084-0.391-0.132-0.583 c-0.03-0.118-0.058-0.237-0.092-0.354c-0.056-0.193-0.121-0.384-0.188-0.573c-0.041-0.117-0.082-0.233-0.128-0.349 c-0.07-0.178-0.148-0.351-0.229-0.523c-0.059-0.125-0.116-0.251-0.181-0.374c-0.079-0.153-0.165-0.302-0.252-0.45 c-0.08-0.137-0.159-0.271-0.245-0.403s-0.178-0.26-0.271-0.388c-0.098-0.137-0.196-0.272-0.303-0.404 c-0.098-0.123-0.203-0.24-0.307-0.359c-0.109-0.123-0.217-0.246-0.332-0.365c-0.125-0.128-0.257-0.249-0.389-0.37 c-0.104-0.097-0.206-0.194-0.315-0.287c-0.17-0.144-0.348-0.277-0.527-0.41l-0.198-0.154l-0.05-0.032 c-0.213-0.146-0.434-0.281-0.657-0.412l-0.188-0.114c-0.229-0.127-0.466-0.239-0.705-0.349l-0.187-0.09 c-0.218-0.094-0.441-0.172-0.666-0.25l-0.264-0.097c-0.178-0.057-0.362-0.099-0.545-0.146c-0.138-0.035-0.274-0.076-0.413-0.105 c-0.143-0.03-0.288-0.047-0.433-0.07c-0.183-0.031-0.365-0.064-0.549-0.084c-0.129-0.014-0.261-0.018-0.391-0.025 c-0.201-0.014-0.402-0.029-0.604-0.031L240,30c-0.121,0-0.237,0.014-0.356,0.018c-0.18,0.007-0.358,0.012-0.537,0.027 c-0.178,0.016-0.352,0.043-0.526,0.067c-0.143,0.021-0.285,0.038-0.427,0.065c-0.191,0.035-0.379,0.081-0.567,0.128 c-0.124,0.03-0.249,0.06-0.372,0.096c-0.188,0.054-0.37,0.117-0.553,0.182c-0.125,0.044-0.25,0.087-0.373,0.137 c-0.168,0.067-0.332,0.142-0.496,0.218c-0.135,0.062-0.27,0.125-0.402,0.193c-0.143,0.075-0.282,0.155-0.421,0.236 c-0.146,0.085-0.292,0.171-0.434,0.264c-0.12,0.078-0.236,0.162-0.353,0.246c-0.149,0.106-0.297,0.214-0.441,0.33 c-0.108,0.087-0.212,0.18-0.316,0.271c-0.138,0.12-0.274,0.24-0.406,0.369c-0.112,0.109-0.218,0.225-0.324,0.34 c-0.112,0.12-0.226,0.238-0.332,0.365c-0.126,0.148-0.241,0.304-0.358,0.459l-0.197,0.254l-83.359,119.05 c6.308,2.514,11.99,6.266,16.734,10.97l61.18-87.373c1.121-1.602,3.639-0.809,3.639,1.146v323.487c0,4.419-3.582,8-8.001,8H110.479 c-10.845,0-20.081,8.433-20.466,19.271c-0.405,11.379,8.699,20.729,19.987,20.729h260c11.287,0,20.392-9.351,19.986-20.729 C389.602,417.979,380.366,409.546,369.521,409.546z M130,229.773c16.568,0,30-13.432,30-30c0-16.569-13.432-30-30-30 c-16.569,0-30,13.431-30,30C100,216.342,113.431,229.773,130,229.773z"/></svg>