<svg xmlns="http://www.w3.org/2000/svg" viewBox="0 0 480 480"><path d="M279.994,100h-79.988c-6.644,0-11.44,6.359-9.615,12.747l14.286,40c1.227,4.293,5.15,7.253,9.615,7.253h51.416 c4.465,0,8.389-2.96,9.615-7.253l14.286-40C291.435,106.359,286.638,100,279.994,100z M260.959,188.933 c-0.546-5.08-4.833-8.933-9.943-8.933h-22.03c-5.11,0-9.398,3.854-9.942,8.935L190.486,339.39 c-0.322,3.007,0.733,5.998,2.872,8.137l39.544,39.545c0.284,0.284,0.583,0.54,0.891,0.783c1.809,1.426,3.993,2.146,6.181,2.146 c2.56,0,5.119-0.977,7.072-2.93l39.597-39.607c2.138-2.139,3.193-5.13,2.871-8.137L260.959,188.933z M240,40 C129.543,40,40,129.543,40,240s89.543,200,200,200s200-89.543,200-200S350.457,40,240,40z M240,410h-0.018l-0.037-0.001 C146.082,409.97,70,333.87,70,240c0-93.889,76.111-170,170-170s170,76.111,170,170S333.889,410,240,410z"/></svg>