<?xml version="1.0" encoding="iso-8859-1"?>
<!-- Generator: Adobe Illustrator 23.0.4, SVG Export Plug-In . SVG Version: 6.00 Build 0)  -->
<svg version="1.1" xmlns="http://www.w3.org/2000/svg" xmlns:xlink="http://www.w3.org/1999/xlink" x="0px" y="0px"
	 viewBox="0 0 480 480" style="enable-background:new 0 0 480 480;" xml:space="preserve">
<g id="Workspace">
	<path d="M449.742,178.476c-2.128-33.267-16.748-61.003-41.168-78.102c-24.417-17.099-55.483-21.351-87.471-11.972
		c-31.185,9.143-59.62,30.261-80.068,59.465c-20.448,29.202-30.567,63.146-28.492,95.576c0.657,10.284,2.513,20.037,5.478,29.113
		l-2.819,84.65c-5.638-1.097-11.65,1.104-15.157,6.111l-40.15,57.341c-4.752,6.786-3.103,16.14,3.684,20.891l8.191,5.736
		c6.786,4.752,16.139,3.103,20.891-3.684l40.15-57.341c3.507-5.009,3.518-11.41,0.56-16.333l78.593-31.607
		c9.539-0.317,19.335-1.906,29.219-4.804c31.185-9.143,59.62-30.261,80.068-59.465C441.697,244.85,451.816,210.906,449.742,178.476z
		 M235.535,347.5l1.37-41.129c4.928,5.699,10.541,10.788,16.805,15.174c6.265,4.387,12.972,7.914,20.014,10.597L235.535,347.5z
		 M404.866,262.582c-24.516,35.011-60.975,55.097-94.587,55.759c-0.17-0.005-0.341,0.001-0.512,0.005
		c-16.071,0.223-31.475-4.003-44.587-13.184c-13.102-9.174-22.336-22.188-27.626-37.351c-0.06-0.179-0.118-0.357-0.188-0.532
		c-10.869-31.81-4.462-72.935,20.051-107.941c24.933-35.606,62.218-55.78,96.3-55.78c15.637,0,30.601,4.247,43.386,13.199
		c19.342,13.543,30.947,35.915,32.68,62.995C431.568,207.668,422.719,237.084,404.866,262.582z M192.37,230
		c1.072-32.302,12.285-65.047,32.282-93.604c23.043-32.909,55.298-56.77,90.824-67.186c4.838-1.419,9.686-2.573,14.523-3.462V38.001
		c0-4.418-3.582-8-8-8H38c-4.418,0-8,3.582-8,8V222c0,4.418,3.582,8,8,8h2.85c1.509-8.953,5.005-17.235,10.021-24.383
		c10.863-15.477,28.831-25.621,49.133-25.621c22.161,0,41.54,12.086,51.932,30.004c3.524,6.077,6.013,12.822,7.222,20H192.37z
		 M50,58.001c0-4.418,3.582-8,8-8h19.965L50,89.938V58.001z M50,175.627V140.76l63.55-90.759h24.415L50,175.627z M126.591,210
		c-1.147-1.019-2.357-1.988-3.645-2.89c-15.495-10.85-36.004-9.175-49.535,2.89c-2.271,2.025-4.353,4.333-6.174,6.934
		c-2.857,4.08-4.838,8.51-5.998,13.066c-3.985,15.654,1.805,32.828,15.821,42.643c18.096,12.671,43.038,8.273,55.709-9.823
		c6.954-9.932,8.757-21.923,5.984-32.819C136.835,222.456,132.72,215.441,126.591,210z M99.894,210
		c-0.243,6.849-2.041,13.703-5.505,20c-0.775,1.41-1.632,2.793-2.576,4.142c-5.188,7.408-12.224,12.765-20.051,15.904
		c-1.165-3.248-1.766-6.677-1.771-10.129c4.731-2.243,9.011-5.573,12.435-9.917c0.409-0.52,0.812-1.045,1.196-1.594
		c3.593-5.132,5.604-10.901,6.153-16.732c2.434-0.88,4.97-1.441,7.541-1.674c0.858-0.078,1.72-0.118,2.584-0.122L99.894,210z
		 M116.359,251.329c-3.598,5.138-5.608,10.916-6.155,16.755c-3.246,1.174-6.673,1.781-10.124,1.796
		c0.272-8.431,2.898-16.877,8.088-24.287c5.03-7.183,11.804-12.418,19.345-15.593c0.233-0.098,0.461-0.213,0.695-0.308
		c0.036,0.102,0.061,0.206,0.096,0.308c1.098,3.157,1.674,6.476,1.683,9.819C124.691,242.33,119.954,246.194,116.359,251.329z"/>
</g>
<g id="Guide">
</g>
</svg>
