<?xml version="1.0" encoding="iso-8859-1"?>
<!-- Generator: Adobe Illustrator 23.0.4, SVG Export Plug-In . SVG Version: 6.00 Build 0)  -->
<svg version="1.1" xmlns="http://www.w3.org/2000/svg" xmlns:xlink="http://www.w3.org/1999/xlink" x="0px" y="0px"
	 viewBox="0 0 480 480" style="enable-background:new 0 0 480 480;" xml:space="preserve">
<g id="Workspace">
	<path d="M449.742,178.476c-2.128-33.267-16.748-61.003-41.168-78.102c-24.417-17.099-55.483-21.351-87.471-11.972
		c-31.185,9.143-59.62,30.261-80.068,59.465c-20.448,29.202-30.567,63.146-28.492,95.576c0.657,10.284,2.513,20.037,5.478,29.113
		l-2.819,84.65c-5.638-1.097-11.65,1.104-15.157,6.111l-40.15,57.341c-4.752,6.786-3.103,16.14,3.684,20.891l8.191,5.736
		c6.786,4.752,16.139,3.103,20.891-3.684l40.15-57.341c3.507-5.009,3.518-11.41,0.56-16.333l78.593-31.607
		c9.539-0.317,19.335-1.906,29.219-4.804c31.185-9.143,59.62-30.261,80.068-59.465C441.697,244.85,451.816,210.906,449.742,178.476z
		 M235.535,347.5l1.37-41.129c4.928,5.699,10.541,10.788,16.805,15.174c6.265,4.387,12.972,7.914,20.014,10.597L235.535,347.5z
		 M404.866,262.582c-24.516,35.011-60.975,55.097-94.587,55.759c-0.17-0.005-0.341,0.001-0.512,0.005
		c-16.071,0.223-31.475-4.003-44.587-13.184c-13.102-9.174-22.336-22.188-27.626-37.351c-0.06-0.179-0.118-0.357-0.188-0.532
		c-10.869-31.81-4.462-72.935,20.051-107.941c24.933-35.606,62.218-55.78,96.3-55.78c15.637,0,30.601,4.247,43.386,13.199
		c19.342,13.543,30.947,35.915,32.68,62.995C431.568,207.668,422.719,237.084,404.866,262.582z M288.519,80
		c6.912-3.539,14.029-6.553,21.301-9l-44.085-38.992c-1.463-1.293-3.348-2.008-5.3-2.008H34.005c-3.571,0-5.353,4.324-2.817,6.84
		L79.997,80H288.519z M192.369,230c1.073-32.303,12.286-65.047,32.282-93.604c9.694-13.846,21.024-26.082,33.537-36.396H79.997
		v83.438c6.262-2.222,12.993-3.442,20.007-3.442c29.678,0,54.377,21.663,59.153,50.004H192.369z M100.004,199.996
		c-7.291,0-14.12,1.96-20.007,5.367C68.046,212.282,60,225.197,60,240c0,22.094,17.91,40.004,40.004,40.004
		c22.093,0,40.003-17.91,40.003-40.004c0-3.453-0.438-6.804-1.26-10C134.306,212.746,118.643,199.996,100.004,199.996z"/>
</g>
<g id="Layer_3">
</g>
</svg>
