<svg xmlns="http://www.w3.org/2000/svg" width="1000pt" height="1000pt" viewBox="0 0 1000 1000"><path d="M 797.898438 251.324219 C 774.113281 235.429688 747.585938 226.25 720.679688 223.359375 L 765.847656 158.859375 C 772.445312 149.433594 770.152344 136.445312 760.730469 129.84375 C 751.308594 123.246094 738.316406 125.535156 731.714844 134.960938 L 207.308594 883.886719 C 200.710938 893.308594 203.003906 906.300781 212.425781 912.898438 C 216.0625 915.449219 220.230469 916.671875 224.359375 916.671875 C 230.925781 916.671875 237.390625 913.574219 241.441406 907.785156 L 401.558594 679.109375 C 406.65625 683.933594 412.097656 688.5 417.882812 692.757812 C 496.535156 750.640625 606.957031 732.183594 662.652344 652.636719 C 674 636.433594 682.167969 618.957031 687.308594 600.949219 C 692.386719 583.183594 707.152344 569.632812 725.457031 567.097656 C 771.507812 560.714844 814.875 535.960938 843.644531 494.871094 C 899.277344 415.417969 878.960938 305.503906 797.898438 251.324219 Z M 299.921875 604.179688 C 312.179688 612.339844 325.148438 618.722656 338.507812 623.378906 L 647.007812 182.792969 C 636.207031 149.042969 615.113281 118.363281 584.753906 96.105469 C 506.117188 38.460938 395.882812 56.964844 340.246094 136.421875 C 311.480469 177.507812 303.046875 226.726562 312.804688 272.179688 C 316.679688 290.246094 309 308.761719 294.039062 319.605469 C 278.875 330.597656 265.25 344.246094 253.898438 360.453125 C 198.207031 439.992188 218.628906 550.070312 299.921875 604.179688 Z M 401.113281 251.957031 C 422.019531 266.597656 450.835938 261.515625 465.476562 240.605469 C 480.117188 219.699219 475.039062 190.882812 454.128906 176.238281 C 452.519531 175.113281 450.851562 174.144531 449.15625 173.246094 C 467.828125 168.730469 488.265625 171.933594 505.238281 183.820312 C 536.605469 205.777344 544.226562 249.003906 522.265625 280.367188 C 500.304688 311.730469 457.078125 319.351562 425.714844 297.390625 C 408.746094 285.507812 398.742188 267.394531 396.601562 248.304688 C 398.019531 249.59375 399.503906 250.828125 401.113281 251.957031 Z M 401.113281 251.957031"/></svg>