<svg xmlns="http://www.w3.org/2000/svg" viewBox="0 0 480 480"><path d="M382.991,120.636c-11.417-7.63-24.15-12.036-37.064-13.423l21.679-30.961c3.168-4.523,2.068-10.759-2.456-13.927 c-4.521-3.167-10.759-2.068-13.927,2.456L99.509,424.265c-3.168,4.523-2.068,10.759,2.456,13.927 c1.745,1.223,3.745,1.81,5.727,1.81c3.152,0,6.255-1.487,8.2-4.266l76.856-109.763c2.447,2.316,5.059,4.507,7.835,6.55 c37.754,27.784,90.756,18.925,117.49-19.257c5.447-7.778,9.367-16.166,11.836-24.81c2.436-8.528,9.525-15.033,18.311-16.25 c22.104-3.062,42.92-14.945,56.729-34.667C431.653,199.4,421.902,146.641,382.991,120.636z M143.962,290.007 c5.885,3.917,12.109,6.979,18.521,9.214l148.08-211.48c-5.184-16.2-15.308-30.927-29.881-41.61 c-37.745-27.67-90.658-18.788-117.363,19.351c-13.809,19.721-17.856,43.347-13.173,65.164c1.861,8.672-1.826,17.559-9.008,22.765 c-7.278,5.275-13.818,11.828-19.266,19.606C95.139,211.197,104.941,264.033,143.962,290.007z M192.534,120.939 c10.035,7.027,23.868,4.588,30.895-5.448c7.027-10.036,4.589-23.868-5.447-30.896c-0.772-0.541-1.573-1.006-2.387-1.436 c8.962-2.168,18.773-0.63,26.92,5.074c15.055,10.54,18.713,31.289,8.172,46.343s-31.289,18.713-46.343,8.172 c-8.146-5.704-12.948-14.398-13.976-23.562C191.05,119.805,191.761,120.398,192.534,120.939z"/></svg>