<svg xmlns="http://www.w3.org/2000/svg" viewBox="0 0 480 480"><path d="M374.702,269.359c23.241-19.501,25.984-50.847,6.482-74.088c-19.501-23.241-50.852-25.988-74.093-6.486 s-25.766,51.04-6.264,74.281C320.329,286.308,351.461,288.861,374.702,269.359z M129.04,303.862l60.431-50.708l16.896,20.135 l-100.728,84.45c-0.286,0.239-0.546,0.499-0.819,0.748c6.088,2.739,11.526,5.638,16.59,8.341 c13.863,7.401,24.81,13.244,45.603,13.244c1.972,0,4.035-0.054,6.131-0.158c24.889-1.247,35.493-8.356,50.171-18.195 c17.408-11.668,39.072-26.189,80.537-28.269c3.053-0.153,6.092-0.23,9.034-0.23c4.51,0,8.784,0.179,12.848,0.507l-11.451-13.646 l-0.01-0.013l-50.708-60.432l-0.009-0.009l-50.698-60.421c-9.337-11.126-25.924-12.575-37.047-3.242l-80.574,67.61 c-11.125,9.336-12.576,25.922-3.242,37.046C101.328,311.745,117.918,313.197,129.04,303.862z M439.551,386.583 c-30.419,1.524-45.836-6.705-62.157-15.418c-17.159-9.159-36.609-19.541-72.541-17.74c-35.933,1.802-54.247,14.077-70.403,24.907 c-15.369,10.302-29.886,20.032-60.305,21.557c-30.418,1.525-45.833-6.704-62.154-15.417c-17.159-9.16-36.607-19.542-72.539-17.74 c-5.496,0.275-9.729,4.955-9.453,10.451c0.275,5.496,4.955,9.729,10.451,9.454c30.418-1.525,45.834,6.704,62.154,15.417 c17.159,9.159,36.608,19.542,72.538,17.74c35.933-1.802,54.247-14.077,70.403-24.906c15.369-10.302,29.886-20.032,60.305-21.558 c30.42-1.524,45.837,6.705,62.159,15.418c17.159,9.159,36.607,19.541,72.54,17.74c5.496-0.276,9.729-4.956,9.453-10.452 C449.727,390.54,445.047,386.308,439.551,386.583z"/></svg>