<svg xmlns="http://www.w3.org/2000/svg" width="1000pt" height="1000pt" viewBox="0 0 1000 1000"><path d="M 824.175781 118.375 C 636.238281 -12.765625 453.574219 102.820312 341.382812 263.046875 C 268.683594 366.867188 240.660156 437.710938 300.382812 539.53125 C 324.828125 581.207031 396.542969 631.804688 365.582031 682.285156 L 238.285156 864.082031 C 227.726562 879.160156 231.390625 899.945312 246.472656 910.507812 L 277.191406 932.015625 C 292.269531 942.574219 313.054688 938.910156 323.613281 923.828125 L 446.273438 748.648438 C 447.117188 747.59375 447.96875 746.472656 448.839844 745.210938 C 484.425781 694.386719 558.519531 747.078125 607.566406 754.625 C 724.234375 772.570312 780.667969 725.363281 853.363281 621.539062 C 965.558594 461.316406 1029.195312 261.433594 824.175781 118.375 Z M 470.855469 659.058594 L 325.347656 866.976562 C 320.066406 874.515625 309.675781 876.347656 302.132812 871.070312 L 295.425781 866.371094 C 287.886719 861.089844 286.050781 850.699219 291.332031 843.160156 L 436.839844 635.242188 C 442.117188 627.703125 452.511719 625.867188 460.050781 631.148438 L 466.761719 635.84375 C 474.300781 641.125 476.132812 651.519531 470.855469 659.058594 Z M 145.832031 416.660156 C 99.804688 416.660156 62.492188 453.972656 62.492188 500 C 62.492188 546.027344 99.804688 583.339844 145.832031 583.339844 C 191.863281 583.339844 229.175781 546.027344 229.175781 500 C 229.175781 453.972656 191.863281 416.660156 145.832031 416.660156 Z M 145.832031 416.660156"/></svg>