<svg xmlns="http://www.w3.org/2000/svg" viewBox="0 0 480 480"><path d="M395.604,56.82c-90.209-62.947-177.888-7.467-231.74,69.442c-34.895,49.835-48.348,83.84-19.68,132.713 c11.734,20.005,46.156,44.292,31.296,68.522l-61.103,87.262c-5.068,7.238-3.309,17.215,3.93,22.284l14.745,10.324 c7.238,5.068,17.215,3.31,22.283-3.929l58.877-84.086c0.404-0.507,0.813-1.046,1.231-1.65c17.082-24.396,52.647,0.896,76.189,4.518 c56.001,8.614,83.089-14.046,117.982-63.881C463.469,221.432,494.014,125.489,395.604,56.82z M226.01,316.348l-69.843,99.8 c-2.535,3.619-7.523,4.499-11.143,1.965l-3.22-2.255c-3.619-2.534-4.499-7.522-1.965-11.142l69.844-99.8 c2.534-3.619,7.522-4.499,11.142-1.965l3.221,2.254C227.665,307.74,228.544,312.729,226.01,316.348z M70,199.996 c-22.093,0-40.003,17.91-40.003,40.004S47.907,280.004,70,280.004c22.094,0,40.004-17.91,40.004-40.004S92.094,199.996,70,199.996z"/></svg>