<?xml version="1.0" encoding="iso-8859-1"?>
<!-- Generator: Adobe Illustrator 23.0.4, SVG Export Plug-In . SVG Version: 6.00 Build 0)  -->
<svg version="1.1" xmlns="http://www.w3.org/2000/svg" xmlns:xlink="http://www.w3.org/1999/xlink" x="0px" y="0px"
	 viewBox="0 0 480 480" style="enable-background:new 0 0 480 480;" xml:space="preserve">
<g id="Workspace">
	
		<path style="display:none;fill-rule:evenodd;clip-rule:evenodd;fill:none;stroke:#FFFFFF;stroke-width:20;stroke-linecap:round;stroke-linejoin:round;stroke-miterlimit:10;" d="
		M190,229.336c-6.669-4.847-13.376-10.057-21.287-12.708c-19.741-6.615-41.92,8.077-57.618,18.786
		c-12.514,8.538-25.441,20.362-40.703,23.264c-0.885,0.168-1.777,0.307-2.671,0.415c-6.97,0.84-14.182-0.252-20.212-3.98L39.47,230
		c0,0,35.051,20.63,81.744-1.472"/>
	
		<line style="display:none;fill:none;stroke:#FFFFFF;stroke-width:10;stroke-linecap:round;stroke-linejoin:round;stroke-miterlimit:10;" x1="396.158" y1="271.276" x2="427.255" y2="225.973"/>
	
		<line style="display:none;fill:none;stroke:#FFFFFF;stroke-width:8;stroke-linecap:round;stroke-linejoin:round;stroke-miterlimit:10;" x1="391.55" y1="265.284" x2="420.642" y2="222.865"/>
	<path d="M268.662,321.108l-98.299-68.829c-9.05-6.337-21.52-4.136-27.854,4.911c-6.336,9.048-4.137,21.52,4.911,27.854
		l81.924,57.363l-57.319,81.945c-6.331,9.052-4.126,21.521,4.925,27.853c3.49,2.441,7.488,3.613,11.446,3.613
		c6.309,0,12.516-2.977,16.406-8.538l68.777-98.326C279.908,339.906,277.707,327.441,268.662,321.108z M168.715,324.371
		c-9.05-6.336-21.519-4.136-27.854,4.911l-68.829,98.299c-6.336,9.048-4.137,21.52,4.911,27.854
		c3.492,2.445,7.492,3.619,11.454,3.619c6.305,0,12.51-2.975,16.4-8.53l68.829-98.299
		C179.962,343.178,177.763,330.706,168.715,324.371z M301.659,100.016c18.902,13.235,42.276,8.983,55.512-9.919
		s9.081-42.471-9.821-55.706s-42.476-9.082-55.711,9.82S282.757,86.78,301.659,100.016z M362.205,248.886l-28.139-8.37
		l-2.792-85.539c-0.005-0.14-0.027-0.274-0.034-0.414c-0.009-0.155-0.003-0.311-0.015-0.467c-0.017-0.209-0.054-0.416-0.076-0.624
		c-0.034-0.315-0.071-0.629-0.12-0.941c-0.019-0.116-0.024-0.233-0.045-0.35l-0.003-0.024c-0.032-0.184-0.086-0.363-0.123-0.547
		c-0.072-0.35-0.146-0.7-0.237-1.047c-0.026-0.104-0.045-0.209-0.074-0.312c-0.043-0.155-0.104-0.305-0.15-0.458l-0.003-0.009
		c-0.112-0.369-0.228-0.736-0.361-1.099c-0.036-0.098-0.066-0.197-0.104-0.295c-0.049-0.127-0.112-0.248-0.164-0.374l-0.005-0.011
		c-0.153-0.372-0.311-0.744-0.487-1.108c-0.048-0.1-0.093-0.2-0.143-0.3l-0.133-0.236l-0.055-0.097
		c-0.19-0.36-0.385-0.719-0.599-1.068c-0.062-0.101-0.12-0.202-0.184-0.302l-0.096-0.137l-0.102-0.146
		c-0.231-0.352-0.468-0.699-0.723-1.037c-0.069-0.092-0.137-0.185-0.208-0.275l-0.119-0.14l-0.065-0.076
		c-0.287-0.356-0.582-0.708-0.896-1.046l-0.194-0.213l-0.16-0.154c-0.362-0.373-0.736-0.731-1.127-1.074l-0.135-0.122l-0.125-0.1
		c-0.428-0.362-0.873-0.708-1.333-1.035l-0.066-0.052l-0.053-0.041l-49.149-34.414c-0.501-0.351-1.016-0.665-1.536-0.964
		c-0.114-0.065-0.228-0.133-0.344-0.196c-0.487-0.268-0.981-0.511-1.482-0.733c-0.157-0.069-0.317-0.134-0.477-0.2
		c-0.16-0.065-0.316-0.138-0.478-0.199l-77.004-29.504c-8.569-3.283-18.274-0.313-23.538,7.204l-45.886,65.533
		c-6.336,9.049-4.137,21.52,4.911,27.854c3.492,2.445,7.492,3.619,11.454,3.619c6.305-0.001,12.511-2.975,16.4-8.53l36.93-52.741
		l38.492,14.748l-54.153,77.27c-0.207,0.296-0.385,0.607-0.574,0.913c-1.439-0.642-2.905-1.247-4.433-1.759
		c-19.263-6.455-39.201,2.722-54.437,12.115c-0.174,0.071-0.346,0.146-0.518,0.229c-40.969,19.391-71.178,2.588-72.394,1.892
		c-3.573-2.103-8.076-1.783-11.315,0.807c-3.24,2.589-4.545,6.91-3.281,10.859l8.037,25.112c0.727,2.27,2.239,4.205,4.266,5.458
		c6.144,3.798,13.315,5.749,20.996,5.749c1.861,0,3.754-0.115,5.668-0.346c1.114-0.134,2.241-0.309,3.346-0.52
		c14.146-2.689,25.999-11.395,36.455-19.075c2.788-2.047,5.42-3.98,8.017-5.752c12.471-8.507,33.34-22.746,48.805-17.565
		c4.965,1.664,9.653,4.829,14.508,8.344c0.56,0.494,1.141,0.966,1.758,1.398l49.181,34.449c3.386,2.372,7.396,3.619,11.475,3.619
		c1.156,0,2.317-0.101,3.471-0.304c5.225-0.921,9.869-3.879,12.912-8.225l34.415-49.146l1.305,39.982
		c0.281,8.604,6.036,16.063,14.287,18.518l60.621,18.031c1.902,0.565,3.822,0.835,5.71,0.835c8.616,0,16.569-5.612,19.157-14.288
		c-3.641-1.571-7.144-3.481-10.467-5.721C374.499,267.291,367.148,258.744,362.205,248.886z M425.777,211.406
		c-0.522-0.352-1.05-0.692-1.581-1.021c-0.165-0.103-0.333-0.197-0.498-0.297c-0.368-0.223-0.736-0.446-1.108-0.658
		c-0.199-0.113-0.4-0.218-0.601-0.328c-0.343-0.189-0.686-0.38-1.032-0.56c-0.213-0.111-0.43-0.214-0.644-0.322
		c-0.336-0.168-0.671-0.338-1.009-0.498c-0.227-0.107-0.454-0.206-0.682-0.31c-0.33-0.15-0.66-0.303-0.992-0.445
		c-0.233-0.1-0.469-0.192-0.703-0.289c-0.329-0.135-0.659-0.271-0.991-0.398c-0.237-0.092-0.477-0.177-0.715-0.265
		c-0.332-0.122-0.664-0.244-0.998-0.358c-0.24-0.083-0.481-0.159-0.723-0.238c-0.334-0.108-0.668-0.217-1.003-0.318
		c-0.246-0.074-0.492-0.144-0.738-0.215c-0.334-0.095-0.667-0.189-1.002-0.277c-0.249-0.065-0.5-0.127-0.75-0.188
		c-0.334-0.082-0.668-0.163-1.004-0.238c-0.252-0.058-0.506-0.11-0.759-0.163c-0.334-0.069-0.668-0.137-1.003-0.199
		c-0.257-0.049-0.515-0.094-0.772-0.137c-0.333-0.058-0.667-0.112-1.001-0.162c-0.259-0.039-0.519-0.075-0.778-0.11
		c-0.334-0.045-0.668-0.087-1.003-0.126c-0.261-0.029-0.521-0.057-0.783-0.082c-0.335-0.033-0.67-0.063-1.006-0.09
		c-0.262-0.021-0.523-0.039-0.784-0.056c-0.337-0.021-0.674-0.039-1.011-0.054c-0.262-0.012-0.523-0.021-0.785-0.029
		c-0.337-0.009-0.673-0.015-1.01-0.018c-0.216-0.002-0.433-0.002-0.648-0.002c-0.997,0.004-1.993,0.037-2.989,0.098
		c-0.142,0.008-0.284,0.018-0.427,0.027c-0.993,0.068-1.985,0.164-2.976,0.289c-0.143,0.018-0.285,0.037-0.429,0.056
		c-0.99,0.133-1.979,0.292-2.964,0.479c-0.138,0.026-0.275,0.055-0.412,0.082c-0.99,0.197-1.977,0.419-2.958,0.672
		c-0.127,0.032-0.253,0.067-0.38,0.102c-0.99,0.262-1.977,0.549-2.955,0.867c-0.11,0.036-0.22,0.074-0.33,0.111
		c-0.994,0.33-1.982,0.686-2.961,1.073l-0.251,0.103c-1.003,0.402-1.998,0.831-2.982,1.294l-0.145,0.07
		c-1.018,0.481-2.025,0.991-3.02,1.536c-0.603,0.331-1.017,0.944-1.097,1.628c-2.262,19.337,5.465,38.674,21.864,49.724
		c0.521,0.352,1.048,0.691,1.578,1.02c0.185,0.115,0.372,0.221,0.559,0.333c0.348,0.21,0.695,0.421,1.047,0.621
		c0.22,0.126,0.443,0.242,0.664,0.364c0.32,0.176,0.641,0.354,0.964,0.522c0.239,0.124,0.481,0.241,0.723,0.361
		c0.309,0.154,0.616,0.311,0.927,0.458c0.252,0.119,0.507,0.23,0.76,0.346c0.304,0.137,0.605,0.276,0.911,0.407
		c0.259,0.111,0.52,0.215,0.78,0.321c0.304,0.124,0.606,0.25,0.911,0.367c0.265,0.102,0.53,0.197,0.796,0.294
		c0.304,0.111,0.606,0.224,0.911,0.328c0.27,0.093,0.539,0.179,0.81,0.267c0.305,0.099,0.608,0.197,0.915,0.29
		c0.272,0.083,0.547,0.16,0.821,0.238c0.305,0.087,0.609,0.173,0.916,0.254c0.276,0.073,0.555,0.142,0.833,0.21
		c0.305,0.074,0.61,0.148,0.916,0.217c0.28,0.064,0.562,0.123,0.843,0.181c0.307,0.063,0.613,0.126,0.921,0.184
		c0.281,0.053,0.562,0.102,0.845,0.149c0.309,0.053,0.617,0.104,0.927,0.15c0.283,0.043,0.567,0.082,0.852,0.12
		c0.309,0.042,0.617,0.081,0.927,0.116c0.285,0.033,0.57,0.062,0.856,0.091c0.31,0.03,0.62,0.058,0.93,0.083
		c0.286,0.022,0.572,0.043,0.858,0.061c0.312,0.02,0.622,0.035,0.934,0.049c0.286,0.014,0.572,0.024,0.858,0.032
		c0.312,0.009,0.624,0.014,0.936,0.017c0.236,0.002,0.472,0.003,0.708,0.002c0.984-0.004,1.97-0.036,2.953-0.096
		c0.154-0.01,0.309-0.02,0.462-0.029c0.982-0.068,1.964-0.164,2.944-0.286c0.153-0.02,0.307-0.04,0.46-0.061
		c0.98-0.132,1.959-0.288,2.934-0.475c0.147-0.028,0.295-0.059,0.442-0.088c0.981-0.195,1.958-0.415,2.931-0.665
		c0.136-0.035,0.271-0.072,0.405-0.108c0.983-0.261,1.963-0.546,2.935-0.862c0.115-0.037,0.23-0.078,0.346-0.116
		c0.989-0.329,1.974-0.683,2.948-1.068l0.259-0.106c1.001-0.402,1.994-0.83,2.977-1.291l0.147-0.071
		c1.017-0.481,2.024-0.991,3.018-1.536c0.603-0.33,1.017-0.944,1.096-1.627C449.903,241.793,442.176,222.456,425.777,211.406z
		 M430.963,252.241c-0.972,1.395-2.526,2.141-4.105,2.141c-0.987,0-1.984-0.291-2.855-0.898L389.027,229.1
		c-2.266-1.579-2.821-4.696-1.242-6.961c1.578-2.268,4.696-2.822,6.961-1.242l34.975,24.384
		C431.986,246.859,432.542,249.977,430.963,252.241z"/>
</g>
<g id="Guide">
</g>
</svg>
