<?xml version="1.0" encoding="iso-8859-1"?>
<!-- Generator: Adobe Illustrator 23.0.4, SVG Export Plug-In . SVG Version: 6.00 Build 0)  -->
<svg version="1.1" xmlns="http://www.w3.org/2000/svg" xmlns:xlink="http://www.w3.org/1999/xlink" x="0px" y="0px"
	 viewBox="0 0 480 480" style="enable-background:new 0 0 480 480;" xml:space="preserve">
<g id="Workspace">
	<path d="M224.403,314.614l-98.299-68.829c-9.05-6.337-21.52-4.136-27.854,4.911c-6.336,9.049-4.137,21.52,4.911,27.854
		l90.107,63.094l2.937,89.952c0.354,10.818,9.232,19.349,19.978,19.348c0.22,0,0.442-0.003,0.664-0.011
		c11.04-0.36,19.697-9.602,19.337-20.642l-3.263-99.947C232.716,324.053,229.56,318.225,224.403,314.614z M117.551,314.789
		c-10.752-2.522-21.516,4.15-24.038,14.905L68.921,434.553c-2.522,10.754,4.151,21.516,14.905,24.038
		c1.536,0.36,3.071,0.533,4.584,0.533c9.075,0,17.292-6.221,19.454-15.438l24.592-104.858
		C134.979,328.073,128.305,317.312,117.551,314.789z M257.4,93.522c18.902,13.235,42.276,8.983,55.512-9.919
		s9.08-42.471-9.822-55.706c-18.902-13.235-42.475-9.083-55.71,9.819S238.498,80.286,257.4,93.522z M350.655,195.571l-19.316-2.864
		l-49.21-56.683l-0.232-0.242c-0.135-0.149-0.26-0.306-0.399-0.451c-0.109-0.114-0.232-0.218-0.345-0.329l-0.072-0.068
		c-0.22-0.218-0.44-0.434-0.672-0.643c-0.113-0.102-0.217-0.211-0.332-0.311c-0.135-0.115-0.282-0.216-0.42-0.328
		c-0.287-0.234-0.578-0.464-0.88-0.684c-0.095-0.068-0.182-0.148-0.278-0.216l-98.299-68.829
		c-7.053-4.937-16.472-4.809-23.387,0.319l-50.797,37.678c-8.871,6.58-10.729,19.106-4.148,27.979
		c6.582,8.873,19.106,10.729,27.979,4.148l39.219-29.09l20.951,14.67l-57.377,81.871c-3.045,4.345-4.239,9.721-3.319,14.945
		c0.92,5.226,3.878,9.871,8.223,12.914l49.181,34.449c3.386,2.372,7.396,3.619,11.475,3.619c1.156,0,2.317-0.101,3.471-0.304
		c5.225-0.921,9.869-3.879,12.912-8.225l54.137-77.309l37.268,42.927c3.13,3.605,7.446,5.972,12.169,6.672l44.237,6.561
		c0.995,0.147,1.981,0.219,2.958,0.219c9.203,0,17.322-6.366,19.44-15.437C369.757,219.197,357.247,209.086,350.655,195.571z
		 M395.622,143.728c-16.568,0-30,13.431-30,30c0,16.568,13.432,30,30,30s30-13.432,30-30
		C425.622,157.158,412.19,143.728,395.622,143.728z"/>
</g>
<g id="Guide">
</g>
</svg>
