<?xml version="1.0" encoding="iso-8859-1"?>
<!-- Generator: Adobe Illustrator 23.0.4, SVG Export Plug-In . SVG Version: 6.00 Build 0)  -->
<svg version="1.1" xmlns="http://www.w3.org/2000/svg" xmlns:xlink="http://www.w3.org/1999/xlink" x="0px" y="0px"
	 viewBox="0 0 480 480" style="enable-background:new 0 0 480 480;" xml:space="preserve">
<g id="&#x30EC;&#x30A4;&#x30E4;&#x30FC;_2">
	<path d="M449.574,344.505L384.83,129.678l5.082-38.031c0.382-2.857-0.488-5.741-2.388-7.91c-1.898-2.17-4.642-3.414-7.524-3.414H90
		c-5.011,0-9.248,3.709-9.912,8.676l-12.167,91.056c0.691-0.023,1.381-0.053,2.078-0.053c2.695,0,5.344,0.196,7.945,0.542
		c3.361,0.447,6.641,1.158,9.804,2.139L89.442,170h57.194l-23.563,140H70.735l1.344-10.054c-0.692,0.023-1.383,0.053-2.08,0.053
		c-2.694,0-5.343-0.196-7.943-0.542c-3.361-0.447-6.641-1.157-9.804-2.139l-12.164,91.035c-0.382,2.857,0.488,5.741,2.388,7.91
		c1.898,2.17,4.642,3.414,7.524,3.414h290.001l0.014-0.001c0.316,0,0.634-0.017,0.95-0.047l0.222-0.03
		c0.246-0.029,0.49-0.062,0.734-0.11l0.261-0.062c0.228-0.051,0.453-0.104,0.678-0.172c0.095-0.027,0.187-0.062,0.279-0.093
		c0.213-0.07,0.425-0.146,0.635-0.231l0.121-0.044l100-42.287C448.599,354.611,451.049,349.396,449.574,344.505z M111.344,379.678
		h-49.92L68.062,330h51.645L111.344,379.678z M318.489,100.322h50.086l-3.525,26.381c-0.221,0.634-0.389,1.294-0.479,1.98
		L361.739,150h-51.611L318.489,100.322z M248.567,100.322h49.64L289.846,150h-49.641L248.567,100.322z M286.479,170l-10.098,60
		h-49.641l10.099-60H286.479z M178.646,100.322h49.639L219.925,150h-49.641L178.646,100.322z M216.557,170l-10.098,60h-49.641
		l10.1-60H216.557z M92.115,150l6.638-49.678h59.611L150.003,150H92.115z M181.266,379.678h-49.64L139.988,330h49.64
		L181.266,379.678z M143.354,310l10.099-60h49.64l-10.098,60H143.354z M251.188,379.678h-49.64L209.91,330h49.64L251.188,379.678z
		 M213.276,310l10.099-60h49.64l-10.098,60H213.276z M331.24,379.678h-59.77L279.832,330h58.005L331.24,379.678z M340.493,310
		h-57.295l10.099-60h55.163L340.493,310z M296.663,230l10.099-60h52.322l-7.968,60H296.663z M352.231,373.648l-0.016,0.006
		l17.373-130.83c0.264-0.896,0.411-1.842,0.411-2.824l-0.01-0.197l8.301-62.513l0.123,0.407l49.42,163.98L352.231,373.648z
		 M54.958,277.064c3.077,1.25,6.344,2.125,9.745,2.574c1.734,0.23,3.499,0.36,5.296,0.36c1.62,0,3.215-0.107,4.784-0.295
		c19.834-2.366,35.215-19.233,35.215-39.704c0-16.769-10.323-31.118-24.957-37.063c-3.076-1.25-6.343-2.125-9.744-2.575
		c-1.734-0.23-3.501-0.36-5.298-0.36c-1.62,0-3.214,0.107-4.783,0.294C45.382,202.66,30,219.529,30,240
		C30,256.77,40.323,271.119,54.958,277.064z"/>
</g>
<g id="Guide">
</g>
</svg>
