<svg xmlns="http://www.w3.org/2000/svg" width="1000pt" height="1000pt" viewBox="0 0 1000 1000"><path d="M 936.613281 717.71875 L 801.730469 270.164062 L 812.316406 190.929688 C 813.113281 184.980469 811.300781 178.972656 807.339844 174.453125 C 803.386719 169.929688 797.671875 167.339844 791.667969 167.339844 L 187.5 167.339844 C 177.058594 167.339844 168.234375 175.066406 166.851562 185.414062 L 141.503906 375.113281 C 142.941406 375.066406 144.378906 375.003906 145.832031 375.003906 C 151.445312 375.003906 156.964844 375.414062 162.382812 376.132812 C 169.386719 377.066406 176.21875 378.546875 182.808594 380.589844 L 186.335938 354.167969 L 305.492188 354.167969 L 256.402344 645.832031 L 147.363281 645.832031 L 150.164062 624.886719 C 148.722656 624.933594 147.285156 624.996094 145.832031 624.996094 C 140.21875 624.996094 134.699219 624.589844 129.285156 623.867188 C 122.28125 622.9375 115.449219 621.457031 108.859375 619.414062 L 83.515625 809.070312 C 82.722656 815.019531 84.535156 821.027344 88.492188 825.546875 C 92.445312 830.070312 98.164062 832.660156 104.167969 832.660156 L 708.363281 832.660156 C 709.023438 832.660156 709.683594 832.621094 710.34375 832.558594 L 710.804688 832.496094 C 711.320312 832.4375 711.828125 832.367188 712.335938 832.269531 L 712.878906 832.140625 C 713.355469 832.035156 713.824219 831.921875 714.292969 831.78125 C 714.488281 831.726562 714.679688 831.652344 714.871094 831.585938 C 715.316406 831.441406 715.757812 831.285156 716.195312 831.105469 L 716.449219 831.015625 L 924.78125 742.917969 C 934.582031 738.773438 939.683594 727.910156 936.613281 717.71875 Z M 231.964844 790.996094 L 127.964844 790.996094 L 141.796875 687.5 L 249.390625 687.5 Z M 663.519531 209.003906 L 767.863281 209.003906 L 760.519531 263.964844 C 760.058594 265.285156 759.710938 266.660156 759.523438 268.089844 L 753.621094 312.5 L 646.101562 312.5 Z M 517.847656 209.003906 L 621.265625 209.003906 L 603.847656 312.5 L 500.425781 312.5 Z M 596.832031 354.167969 L 575.792969 479.167969 L 472.375 479.167969 L 493.414062 354.167969 Z M 372.179688 209.003906 L 475.59375 209.003906 L 458.175781 312.5 L 354.757812 312.5 Z M 451.160156 354.167969 L 430.121094 479.167969 L 326.703125 479.167969 L 347.746094 354.167969 Z M 191.90625 312.5 L 205.734375 209.003906 L 329.925781 209.003906 L 312.507812 312.5 Z M 377.636719 790.996094 L 274.222656 790.996094 L 291.640625 687.5 L 395.058594 687.5 Z M 298.652344 645.832031 L 319.695312 520.832031 L 423.109375 520.832031 L 402.074219 645.832031 Z M 523.308594 790.996094 L 419.890625 790.996094 L 437.3125 687.5 L 540.730469 687.5 Z M 444.324219 645.832031 L 465.363281 520.832031 L 568.78125 520.832031 L 547.742188 645.832031 Z M 690.082031 790.996094 L 565.5625 790.996094 L 582.984375 687.5 L 703.828125 687.5 Z M 709.359375 645.832031 L 589.996094 645.832031 L 611.035156 520.832031 L 725.957031 520.832031 Z M 618.046875 479.167969 L 639.085938 354.167969 L 748.089844 354.167969 L 731.492188 479.167969 Z M 733.816406 778.433594 L 733.78125 778.445312 L 769.976562 505.882812 C 770.523438 504.015625 770.832031 502.046875 770.832031 500 L 770.808594 499.589844 L 788.105469 369.355469 L 788.359375 370.203125 L 891.320312 711.828125 Z M 114.496094 577.214844 C 120.90625 579.820312 127.710938 581.644531 134.796875 582.578125 C 138.410156 583.058594 142.085938 583.328125 145.832031 583.328125 C 149.207031 583.328125 152.527344 583.105469 155.796875 582.714844 C 197.117188 577.785156 229.164062 542.644531 229.164062 499.996094 C 229.164062 465.0625 207.65625 435.167969 177.167969 422.785156 C 170.761719 420.179688 163.953125 418.355469 156.867188 417.417969 C 153.257812 416.941406 149.574219 416.667969 145.832031 416.667969 C 142.457031 416.667969 139.136719 416.890625 135.867188 417.28125 C 94.546875 422.207031 62.5 457.351562 62.5 500 C 62.5 534.9375 84.007812 564.832031 114.496094 577.214844 Z M 114.496094 577.214844"/></svg>