<?xml version="1.0" encoding="iso-8859-1"?>
<!-- Generator: Adobe Illustrator 23.0.4, SVG Export Plug-In . SVG Version: 6.00 Build 0)  -->
<svg version="1.1" xmlns="http://www.w3.org/2000/svg" xmlns:xlink="http://www.w3.org/1999/xlink" x="0px" y="0px"
	 viewBox="0 0 480 480" style="enable-background:new 0 0 480 480;" xml:space="preserve">
<g id="Layer_5">
	<path d="M132.766,262.76c12.671-18.097,8.272-43.038-9.823-55.71c-18.097-12.671-43.038-8.272-55.709,9.823
		c-12.672,18.097-8.273,43.038,9.822,55.709C95.153,285.254,120.095,280.855,132.766,262.76z M91.809,234.081
		c-5.188,7.409-12.223,12.765-20.05,15.905c-1.166-3.249-1.766-6.678-1.772-10.13c5.297-2.511,10.035-6.376,13.631-11.511
		c3.593-5.131,5.604-10.901,6.153-16.732c3.247-1.174,6.674-1.781,10.126-1.796C99.62,218.241,96.994,226.678,91.809,234.081z
		 M116.355,251.269c-3.598,5.138-5.608,10.916-6.155,16.755c-3.246,1.174-6.673,1.781-10.124,1.796
		c0.272-8.431,2.899-16.876,8.088-24.286c5.186-7.406,12.218-12.76,20.04-15.9c1.168,3.247,1.771,6.675,1.779,10.127
		C124.687,242.271,119.95,246.135,116.355,251.269z M449.705,136.612c-2.392-37.396-18.808-68.563-46.222-87.76
		c-27.415-19.196-62.316-23.964-98.276-13.419c-35.156,10.308-67.223,34.129-90.293,67.077
		c-23.07,32.947-34.487,71.228-32.148,107.788c0.995,15.555,4.424,30.027,10.054,43.014l-19.041,103.802
		c-5.555-0.967-11.422,1.235-14.87,6.159l-40.15,57.34c-4.752,6.786-3.103,16.14,3.684,20.892l8.191,5.735
		c6.786,4.752,16.14,3.103,20.891-3.684l40.15-57.341c3.71-5.298,3.502-12.151,0.01-17.168l91.684-52.315
		c2.327,0.141,4.668,0.228,7.028,0.228c11.979,0,24.361-1.815,36.868-5.482c35.155-10.308,67.223-34.129,90.292-67.076
		C440.626,211.453,452.044,173.173,449.705,136.612z M196.669,343.177l11.768-64.149c5.925,7.214,12.797,13.603,20.551,19.031
		c7.647,5.354,15.88,9.577,24.552,12.667L196.669,343.177z M401.173,232.93c-20.476,29.241-48.722,50.321-79.536,59.355
		c-30.011,8.801-58.841,5.032-81.179-10.609c-46.834-32.794-50.944-108.021-9.161-167.694
		c20.476-29.241,48.723-50.321,79.537-59.355c10.611-3.111,21.071-4.651,31.152-4.651c18.431,0,35.586,5.15,50.025,15.261
		c22.337,15.641,35.738,41.442,37.734,72.653C431.796,169.935,421.648,203.688,401.173,232.93z"/>
</g>
<g id="Guide">
</g>
</svg>
