<svg xmlns="http://www.w3.org/2000/svg" viewBox="0 0 480 480"><path d="M201.645,103.246c18.902,13.235,42.276,8.983,55.513-9.919c13.235-18.902,9.08-42.471-9.822-55.706 s-42.475-9.082-55.71,9.82C178.389,66.344,182.742,90.011,201.645,103.246z M389.937,129.876h-0.02L269.979,130h-59.93 c-0.119,0-0.234,0.016-0.354,0.018c-0.389,0.007-0.774,0.03-1.157,0.059c-0.316,0.024-0.633,0.051-0.95,0.091 c-0.309,0.038-0.614,0.088-0.919,0.14c-0.386,0.066-0.772,0.141-1.159,0.23c-0.113,0.026-0.227,0.039-0.34,0.067l-65.629,16.507 l-31.115-52.246c-9.071,9.184-21.657,14.887-35.554,14.887c-0.728,0-1.449-0.024-2.17-0.055l42.092,70.676 c3.666,6.155,10.253,9.769,17.182,9.769c1.619,0,3.257-0.198,4.881-0.606l55.18-13.879L190,249.981 c-0.003,5.306,2.103,10.395,5.854,14.147c3.75,3.753,8.838,5.861,14.144,5.862L269.993,270h0.003 c5.304,0,10.391-2.106,14.141-5.856c3.752-3.751,5.859-8.838,5.859-14.143l0.003-80.021l99.959-0.104 c11.046-0.012,19.991-8.975,19.979-20.021C409.926,138.816,400.975,129.876,389.937,129.876z M307.398,300.136 C303.847,293.871,297.201,290,290,290h-80c-11.046,0-20,8.954-20,20s8.954,20,20,20h68.349l64.653,114.039 c3.682,6.494,10.449,10.14,17.417,10.14c3.342-0.001,6.73-0.84,9.846-2.605c9.608-5.447,12.981-17.653,7.534-27.263 L307.398,300.136z M229.265,364.628c-2.967-10.64-13.996-16.858-24.637-13.893c-10.64,2.967-16.86,13.997-13.893,24.637 l7.906,28.353l-35.569,33.987c-7.985,7.631-8.273,20.291-0.643,28.277c3.93,4.112,9.191,6.184,14.463,6.183 c4.966,0,9.94-1.839,13.814-5.54l44.237-42.271c5.336-5.099,7.431-12.723,5.447-19.832L229.265,364.628z M96.357,78.409 c4.074-5.122,6.516-11.603,6.516-18.657c0-0.518-0.013-1.032-0.039-1.544c-0.052-1.022-0.155-2.032-0.307-3.024 c-2.2-14.4-14.64-25.431-29.654-25.431c-15.016,0-27.454,11.03-29.654,25.431c-0.151,0.992-0.255,2.002-0.307,3.024 c-0.026,0.512-0.039,1.026-0.039,1.544c0,14.268,9.963,26.2,23.309,29.242c2.153,0.49,4.391,0.758,6.691,0.758 C82.388,89.752,90.861,85.318,96.357,78.409z"/></svg>