<svg xmlns="http://www.w3.org/2000/svg" viewBox="0 0 480 480"><path d="M95.609,278.975c5.958,5.699,12.212,11.051,18.734,16.025h29.638c0.916-0.829,1.821-1.612,2.722-2.374 c19.755-16.715,36.154-17.63,61.446-17.63h0.313L220.827,275l48.867-37.969c5.421-4.301,12.208-6.668,19.126-6.667h0.001 c8.226,0,15.958,3.204,21.771,9.02c10.984,10.99,12.055,28.317,2.598,40.561l-17.222,24.927c3.644,0.079,7.476,0.182,11.404,0.289 c0.618,0.018,1.232,0.033,1.855,0.051c10.197,0.278,20.742,0.566,29.964,0.566c4.718,0,8.397-0.08,11.297-0.201 c12.111-7.695,23.461-16.615,33.903-26.603l-0.001,0.001c1.522-1.457,3.027-2.933,4.511-4.434v0.001 c16.235-16.43,30.103-35.514,40.989-56.606c0.652-1.264,0.979-2.66,0.979-4.057c-0.001-1.397-0.327-2.795-0.979-4.058 c-1.056-2.044-2.142-4.067-3.253-6.073c-0.186-0.337-0.372-0.673-0.56-1.008c-1.204-2.15-2.451-4.271-3.718-6.375 c-5.983-9.94-12.645-19.369-19.935-28.191c-1.262-1.527-2.542-3.036-3.841-4.527c-0.16-0.184-0.324-0.363-0.485-0.547 c-3.081-3.514-6.26-6.928-9.537-10.23c-32.487-32.734-74.412-54.854-120.944-61.186c-1.501-0.205-3.007-0.393-4.518-0.564 c-1.376-0.155-2.756-0.301-4.14-0.43c-2.499-0.231-5.011-0.418-7.534-0.559c-2.522-0.14-5.057-0.234-7.602-0.281 c-1.272-0.023-2.548-0.035-3.825-0.035c-7.666,0-15.239,0.426-22.7,1.257c-2.254,0.251-4.498,0.539-6.73,0.863 C141.356,101.99,82.53,147.009,50.11,209.821c-0.652,1.263-0.979,2.66-0.979,4.058c0,1.396,0.326,2.794,0.979,4.058 c10.887,21.092,24.753,40.175,40.988,56.604C92.582,276.042,94.087,277.518,95.609,278.975z M370,162.7 c7.151,6.788,13.83,14.134,20,21.956v58.444c-6.17,7.823-12.849,15.168-20,21.956V162.7z M146.818,152.392 c10.881-3.627,21.964-6.587,33.172-8.901l-0.003-13.488c-0.001-5.522,4.475-10.001,9.998-10.002h0.002 c5.521,0,9.999,4.476,10,9.998l0.002,10.079c9.955-1.35,19.975-2.19,30.011-2.526V120c0-5.522,4.478-10,10-10s10,4.478,10,10 v17.552c10.033,0.337,20.049,1.177,30,2.526V130c0-5.522,4.478-10,10-10s10,4.478,10,10v13.493 c11.205,2.313,22.284,5.272,33.162,8.898c5.239,1.747,8.071,7.41,6.325,12.649c-1.747,5.239-7.409,8.071-12.649,6.325 c-8.819-2.94-17.78-5.415-26.838-7.429V190c0,5.522-4.478,10-10,10s-10-4.478-10-10v-29.729c-9.944-1.449-19.962-2.357-30-2.719 V190c0,5.522-4.478,10-10,10s-10-4.478-10-10v-32.448c-10.04,0.361-20.061,1.269-30.007,2.718L200,189.998 c0.001,5.522-4.475,10.001-9.998,10.002H190c-5.521,0-9.999-4.476-10-9.998l-0.006-26.068c-9.062,2.016-18.027,4.491-26.852,7.433 c-1.049,0.35-2.115,0.516-3.163,0.516c-4.188,0-8.089-2.65-9.486-6.841C138.747,159.802,141.579,154.139,146.818,152.392z M90,184.657c6.17-7.822,12.849-15.167,20-21.956v102.355c-7.151-6.789-13.83-14.134-20-21.956V184.657z M441.836,307.752v-0.002 l-0.002-0.004c-0.128-0.481-0.281-0.949-0.45-1.406c-0.05-0.134-0.107-0.262-0.16-0.393c-0.128-0.319-0.263-0.634-0.41-0.94 c-0.072-0.15-0.148-0.298-0.226-0.445c-0.147-0.282-0.304-0.559-0.468-0.829c-0.084-0.14-0.168-0.28-0.257-0.417 c-0.187-0.287-0.385-0.564-0.589-0.837c-0.076-0.102-0.147-0.207-0.227-0.307c-0.287-0.363-0.588-0.714-0.904-1.047l-0.189-0.185 c-0.261-0.265-0.528-0.522-0.807-0.767c-0.121-0.105-0.246-0.205-0.371-0.308c-0.231-0.19-0.468-0.377-0.71-0.554 c-0.14-0.102-0.28-0.2-0.423-0.297c-0.246-0.167-0.498-0.324-0.753-0.477c-0.141-0.084-0.28-0.17-0.424-0.25 c-0.304-0.168-0.615-0.322-0.931-0.469c-0.098-0.047-0.193-0.1-0.293-0.143c-0.414-0.183-0.836-0.346-1.266-0.49 c-0.121-0.041-0.244-0.072-0.365-0.109c-0.317-0.098-0.637-0.189-0.96-0.267c-0.161-0.038-0.325-0.07-0.487-0.103 c-0.295-0.061-0.591-0.112-0.889-0.154c-0.17-0.023-0.34-0.047-0.51-0.064c-0.313-0.033-0.629-0.054-0.946-0.066 c-0.151-0.007-0.302-0.018-0.454-0.02c-0.444-0.005-0.89,0.008-1.338,0.043l-0.25,0.027c-0.381,0.036-0.762,0.088-1.144,0.154 c-0.126,0.022-0.251,0.045-0.376,0.069c-0.459,0.092-0.918,0.198-1.376,0.335c-19.527,5.839-43.95,18.681-59.609,22.27 c-0.279,0.064-0.575,0.125-0.88,0.184c-0.096,0.02-0.197,0.037-0.295,0.055c-0.217,0.04-0.438,0.079-0.667,0.117 c-0.117,0.02-0.236,0.038-0.356,0.057c-0.234,0.037-0.477,0.072-0.723,0.106c-0.11,0.016-0.219,0.031-0.331,0.046 c-0.357,0.048-0.724,0.094-1.104,0.137l-0.009,0.002c-0.384,0.043-0.782,0.084-1.188,0.123c-0.126,0.013-0.256,0.024-0.384,0.036 c-0.286,0.026-0.577,0.052-0.873,0.077c-0.152,0.012-0.306,0.024-0.461,0.037c-0.296,0.022-0.598,0.045-0.903,0.066 c-0.146,0.01-0.29,0.021-0.438,0.03c-0.421,0.027-0.848,0.054-1.284,0.079l-0.149,0.008c-0.445,0.024-0.9,0.047-1.361,0.068 c-0.175,0.008-0.354,0.016-0.53,0.023c-0.319,0.014-0.64,0.027-0.966,0.039c-0.198,0.008-0.398,0.016-0.6,0.022 c-0.319,0.011-0.643,0.021-0.968,0.031c-0.202,0.006-0.403,0.013-0.608,0.019c-0.419,0.012-0.844,0.021-1.271,0.031 c-0.188,0.004-0.377,0.008-0.566,0.012c-0.43,0.01-0.861,0.018-1.3,0.024c-0.246,0.004-0.496,0.007-0.745,0.011 c-0.306,0.004-0.612,0.008-0.922,0.011c-0.269,0.003-0.539,0.006-0.812,0.008c-0.296,0.003-0.593,0.005-0.892,0.007 c-0.278,0.001-0.557,0.003-0.839,0.004c-0.301,0.002-0.605,0.002-0.91,0.002c-0.25,0.001-0.496,0.002-0.748,0.002l-0.188-0.001 c-1.016,0-2.045-0.004-3.088-0.011c-0.166-0.001-0.335-0.002-0.502-0.004c-0.966-0.007-1.941-0.016-2.928-0.028 c-0.216-0.002-0.434-0.005-0.65-0.008c-0.947-0.013-1.902-0.026-2.864-0.042c-0.241-0.004-0.483-0.008-0.726-0.013 c-0.943-0.017-1.893-0.034-2.846-0.054c-0.265-0.005-0.527-0.01-0.792-0.016c-0.709-0.015-1.419-0.03-2.132-0.046l0.002-0.001 c-0.238-0.005-0.475-0.01-0.713-0.016c-0.287-0.006-0.573-0.013-0.86-0.02c-0.939-0.022-1.88-0.045-2.821-0.068 c-0.431-0.012-0.859-0.022-1.289-0.033c-0.755-0.02-1.509-0.039-2.262-0.059c-7.632-0.203-15.178-0.428-21.926-0.555l-0.117-0.002 c-1.031-0.02-2.043-0.035-3.033-0.05l-0.229-0.003c-0.955-0.014-1.888-0.023-2.8-0.031c-0.092-0.001-0.183-0.002-0.274-0.002 c-0.9-0.007-1.777-0.011-2.631-0.012h-0.304c-0.338,0-0.67,0.002-1,0.003c-0.132,0.001-0.267,0.001-0.396,0.001 c-0.453,0.003-0.899,0.006-1.337,0.011l-0.24,0.003c-0.348,0.005-0.691,0.01-1.027,0.016c-0.167,0.002-0.328,0.006-0.492,0.009 c-0.247,0.005-0.493,0.011-0.733,0.016c-0.181,0.005-0.357,0.01-0.534,0.015c-0.213,0.006-0.425,0.012-0.633,0.019 c-0.18,0.006-0.357,0.012-0.532,0.019c-0.206,0.008-0.408,0.016-0.608,0.023c-0.161,0.008-0.323,0.014-0.48,0.021 c-0.216,0.01-0.424,0.021-0.632,0.032c-0.135,0.007-0.272,0.014-0.403,0.021c-0.33,0.02-0.653,0.04-0.964,0.062l-0.229,0.009 l-0.121-0.009l-0.192-0.013l-0.231-0.034l-0.184-0.039l-0.218-0.064l-0.171-0.062l-0.202-0.094l-0.157-0.083l-0.187-0.12 l-0.141-0.101l-0.169-0.145l-0.125-0.117l-0.148-0.165l-0.108-0.13l-0.127-0.187l-0.089-0.14l-0.104-0.204l-0.069-0.146 l-0.078-0.222l-0.049-0.149l-0.051-0.237l-0.027-0.148l-0.019-0.254l-0.008-0.144l0.018-0.271l0.011-0.132 c0.014-0.102,0.038-0.202,0.063-0.304l0.021-0.099c0.036-0.126,0.083-0.251,0.138-0.375l0.009-0.024 c0.058-0.128,0.126-0.256,0.205-0.381l0.007-0.013l30.638-44.343c5.054-6.275,4.567-15.351-1.129-21.049 c-0.37-0.37-0.755-0.716-1.152-1.042c-0.13-0.107-0.269-0.2-0.401-0.303c-0.271-0.209-0.544-0.419-0.826-0.608 c-0.164-0.109-0.333-0.204-0.5-0.307c-0.262-0.162-0.524-0.325-0.794-0.471c-0.181-0.098-0.367-0.184-0.551-0.273 c-0.265-0.129-0.529-0.258-0.8-0.371c-0.191-0.082-0.388-0.152-0.582-0.227c-0.27-0.101-0.539-0.199-0.812-0.285 c-0.201-0.062-0.403-0.118-0.605-0.173c-0.273-0.074-0.549-0.144-0.825-0.202c-0.206-0.044-0.412-0.083-0.619-0.119 c-0.278-0.048-0.558-0.088-0.838-0.121c-0.208-0.024-0.416-0.047-0.625-0.062c-0.282-0.022-0.566-0.034-0.85-0.041 c-0.128-0.004-0.255-0.019-0.382-0.019c-0.091,0-0.182,0.01-0.272,0.011c-0.206,0.004-0.412,0.014-0.618,0.025 c-0.25,0.015-0.5,0.033-0.749,0.059c-0.202,0.021-0.403,0.047-0.604,0.075c-0.252,0.036-0.504,0.079-0.754,0.128 c-0.197,0.038-0.395,0.078-0.59,0.123c-0.254,0.06-0.506,0.129-0.758,0.201c-0.189,0.054-0.379,0.107-0.566,0.168 c-0.256,0.084-0.508,0.181-0.761,0.277c-0.179,0.069-0.358,0.135-0.535,0.211c-0.263,0.112-0.52,0.239-0.776,0.367 c-0.162,0.079-0.325,0.153-0.484,0.238c-0.285,0.154-0.564,0.326-0.843,0.5c-0.123,0.076-0.25,0.145-0.371,0.225 c-0.398,0.264-0.789,0.544-1.169,0.848l-50.743,39.427c-1.419,1.136-3.183,1.753-4.999,1.753l-14.767-0.004h-0.31 c-0.322,0-0.631,0.001-0.949,0.001c-0.458,0.001-0.92,0.001-1.37,0.002c-0.417,0.001-0.822,0.003-1.231,0.005 c-0.393,0.002-0.789,0.003-1.175,0.006c-0.439,0.003-0.867,0.008-1.299,0.012c-0.342,0.004-0.688,0.006-1.024,0.01 c-0.433,0.006-0.854,0.014-1.278,0.021c-0.329,0.005-0.663,0.01-0.987,0.017c-0.426,0.008-0.842,0.02-1.26,0.03 c-0.306,0.008-0.615,0.015-0.916,0.023c-0.433,0.013-0.855,0.029-1.28,0.045c-0.278,0.01-0.562,0.019-0.837,0.03 c-0.427,0.018-0.844,0.039-1.263,0.06c-0.263,0.014-0.53,0.024-0.79,0.039c-0.418,0.023-0.827,0.051-1.238,0.077 c-0.252,0.017-0.507,0.031-0.756,0.049c-0.408,0.029-0.808,0.064-1.209,0.098c-0.243,0.02-0.49,0.037-0.73,0.06 c-0.402,0.036-0.796,0.078-1.191,0.119c-0.231,0.024-0.466,0.046-0.695,0.071c-0.396,0.045-0.787,0.095-1.178,0.145 c-0.221,0.028-0.443,0.053-0.661,0.082c-0.388,0.053-0.769,0.113-1.149,0.171c-0.216,0.033-0.435,0.062-0.648,0.098 c-0.386,0.062-0.765,0.133-1.145,0.201c-0.203,0.037-0.409,0.07-0.61,0.109c-0.385,0.073-0.764,0.155-1.144,0.236 c-0.192,0.041-0.388,0.078-0.579,0.121c-0.383,0.085-0.761,0.18-1.139,0.273c-0.183,0.045-0.368,0.087-0.551,0.134 c-0.376,0.097-0.748,0.203-1.12,0.309c-0.182,0.051-0.364,0.099-0.545,0.151c-0.367,0.108-0.73,0.228-1.094,0.344 c-0.183,0.059-0.366,0.112-0.548,0.173c-0.362,0.122-0.722,0.254-1.081,0.384c-0.18,0.065-0.361,0.126-0.54,0.192 c-0.362,0.137-0.722,0.283-1.081,0.43c-0.175,0.07-0.351,0.136-0.525,0.209c-0.36,0.151-0.719,0.314-1.078,0.476 c-0.172,0.077-0.346,0.149-0.518,0.229c-0.361,0.168-0.722,0.348-1.082,0.526c-0.168,0.083-0.338,0.161-0.506,0.247 c-0.361,0.185-0.724,0.382-1.085,0.578c-0.167,0.091-0.334,0.175-0.501,0.268c-0.364,0.203-0.729,0.42-1.095,0.636 c-0.163,0.097-0.327,0.187-0.491,0.286c-0.363,0.22-0.729,0.454-1.094,0.687c-0.166,0.106-0.332,0.205-0.498,0.313 c-0.364,0.238-0.73,0.49-1.096,0.74c-0.169,0.115-0.337,0.225-0.506,0.342c-0.18,0.127-0.362,0.264-0.543,0.393 c-0.185,0.132-0.369,0.266-0.555,0.401c-0.172,0.126-0.344,0.245-0.517,0.374c-0.359,0.27-0.723,0.554-1.085,0.836 c-0.183,0.142-0.363,0.275-0.547,0.421c-0.363,0.288-0.729,0.592-1.096,0.893c-0.186,0.153-0.37,0.298-0.557,0.454 c-0.378,0.316-0.76,0.65-1.142,0.98c-0.179,0.156-0.356,0.303-0.536,0.462c-0.385,0.339-0.775,0.696-1.165,1.051 c-0.182,0.165-0.36,0.321-0.543,0.489c-0.46,0.425-0.927,0.868-1.394,1.314c-0.116,0.111-0.229,0.214-0.346,0.326 c-0.586,0.564-1.179,1.146-1.778,1.746H68.183c-3.865,0-7.091,2.741-7.837,6.386c-0.107,0.521-0.163,1.06-0.163,1.612 l-0.017,63.997c0,0.492,0.051,0.972,0.136,1.438l0.026,0.174c0.68,3.324,3.424,5.892,6.833,6.32l0.188,0.028 c0.146,0.015,0.297,0.016,0.446,0.022c0.125,0.006,0.248,0.019,0.374,0.019l180.424-0.055c0.698,0,1.392-0.092,2.063-0.271 c0.225-0.061,0.446-0.131,0.665-0.21l108.088-29.29c0.427-0.115,0.838-0.264,1.239-0.448c5.942-2.726,51.307-24.104,72.977-34.321 c4.289-2.021,7.235-5.838,8.286-10.196c0.271-1.125,0.427-2.282,0.435-3.459C442.354,310.424,442.188,309.082,441.836,307.752z"/></svg>