<svg xmlns="http://www.w3.org/2000/svg" width="1000pt" height="1000pt" viewBox="0 0 1000 1000"><path d="M 238.214844 614.582031 L 299.960938 614.582031 C 343.714844 574.964844 378.550781 572.910156 433.644531 572.910156 L 434.296875 572.910156 L 460.054688 572.917969 L 561.863281 493.816406 C 573.15625 484.855469 587.296875 479.921875 601.707031 479.925781 L 601.710938 479.925781 C 618.847656 479.925781 634.957031 486.601562 647.066406 498.714844 C 669.949219 521.613281 672.179688 557.710938 652.480469 583.21875 L 616.601562 635.148438 C 625.386719 635.339844 634.679688 635.597656 644.226562 635.859375 C 665.46875 636.4375 687.4375 637.039062 706.648438 637.039062 C 716.480469 637.039062 724.144531 636.871094 730.183594 636.617188 C 799.359375 592.667969 856.640625 529.527344 895.605469 454.035156 C 898.324219 448.769531 898.324219 442.394531 895.605469 437.128906 C 818.671875 288.074219 670.363281 187.113281 500 187.113281 C 329.636719 187.113281 181.328125 288.074219 104.394531 437.128906 C 101.675781 442.390625 101.675781 448.769531 104.394531 454.035156 C 137.257812 517.703125 183.152344 572.585938 238.214844 614.582031 Z M 305.871094 317.734375 C 328.535156 310.179688 351.617188 304.015625 374.964844 299.195312 L 374.972656 270.828125 C 374.976562 259.328125 384.304688 250.003906 395.804688 250.003906 L 395.8125 250.003906 C 407.320312 250.007812 416.644531 259.335938 416.640625 270.839844 L 416.632812 292.082031 C 437.378906 289.269531 458.261719 287.519531 479.175781 286.820312 L 479.1875 249.996094 C 479.191406 238.492188 488.519531 229.167969 500.019531 229.167969 L 500.027344 229.167969 C 511.53125 229.171875 520.859375 238.503906 520.855469 250.007812 L 520.84375 286.820312 C 541.738281 287.523438 562.601562 289.273438 583.328125 292.082031 L 583.328125 270.828125 C 583.328125 259.324219 592.65625 249.996094 604.160156 249.996094 C 615.664062 249.996094 624.992188 259.324219 624.992188 270.828125 L 624.992188 299.195312 C 648.339844 304.015625 671.421875 310.179688 694.085938 317.734375 C 705 321.375 710.898438 333.171875 707.261719 344.085938 C 703.621094 355 691.828125 360.902344 680.910156 357.265625 C 662.535156 351.140625 643.863281 345.984375 624.992188 341.785156 L 624.992188 395.832031 C 624.992188 407.335938 615.664062 416.667969 604.160156 416.667969 C 592.65625 416.667969 583.328125 407.335938 583.328125 395.832031 L 583.328125 334.152344 C 562.613281 331.132812 541.742188 329.242188 520.832031 328.488281 L 520.808594 395.839844 C 520.804688 407.339844 511.480469 416.667969 499.976562 416.667969 L 499.972656 416.667969 C 488.464844 416.664062 479.140625 407.332031 479.144531 395.828125 L 479.164062 328.484375 C 458.234375 329.238281 437.351562 331.132812 416.617188 334.152344 L 416.597656 395.839844 C 416.59375 407.339844 407.265625 416.667969 395.765625 416.667969 L 395.757812 416.667969 C 384.253906 416.664062 374.925781 407.332031 374.929688 395.828125 L 374.949219 341.789062 C 356.082031 345.988281 337.417969 351.140625 319.046875 357.265625 C 316.859375 357.996094 314.640625 358.339844 312.457031 358.339844 C 303.730469 358.339844 295.605469 352.820312 292.695312 344.089844 C 289.054688 333.171875 294.957031 321.375 305.871094 317.734375 Z M 920.492188 641.148438 L 920.492188 641.144531 L 920.488281 641.136719 C 920.222656 640.136719 919.902344 639.160156 919.550781 638.207031 C 919.445312 637.929688 919.328125 637.664062 919.214844 637.390625 C 918.949219 636.726562 918.667969 636.070312 918.363281 635.429688 C 918.210938 635.117188 918.054688 634.808594 917.890625 634.503906 C 917.585938 633.917969 917.257812 633.339844 916.917969 632.777344 C 916.742188 632.484375 916.566406 632.195312 916.382812 631.910156 C 915.992188 631.308594 915.578125 630.734375 915.152344 630.164062 C 914.996094 629.953125 914.847656 629.734375 914.679688 629.523438 C 914.082031 628.769531 913.457031 628.039062 912.796875 627.34375 L 912.402344 626.957031 C 911.859375 626.40625 911.304688 625.871094 910.722656 625.359375 C 910.472656 625.140625 910.210938 624.933594 909.949219 624.71875 C 909.46875 624.324219 908.976562 623.933594 908.472656 623.566406 C 908.179688 623.351562 907.886719 623.148438 907.589844 622.945312 C 907.078125 622.597656 906.550781 622.269531 906.019531 621.953125 C 905.726562 621.777344 905.4375 621.597656 905.136719 621.429688 C 904.503906 621.082031 903.855469 620.761719 903.199219 620.453125 C 902.992188 620.355469 902.796875 620.246094 902.585938 620.15625 C 901.726562 619.773438 900.847656 619.433594 899.949219 619.136719 C 899.699219 619.050781 899.441406 618.984375 899.191406 618.910156 C 898.527344 618.703125 897.863281 618.515625 897.191406 618.351562 C 896.855469 618.273438 896.511719 618.207031 896.175781 618.136719 C 895.558594 618.011719 894.945312 617.902344 894.324219 617.816406 C 893.96875 617.769531 893.613281 617.71875 893.261719 617.683594 C 892.609375 617.613281 891.949219 617.570312 891.289062 617.546875 C 890.976562 617.53125 890.660156 617.507812 890.34375 617.503906 C 889.417969 617.492188 888.488281 617.519531 887.554688 617.59375 L 887.035156 617.648438 C 886.242188 617.726562 885.449219 617.832031 884.652344 617.972656 C 884.390625 618.015625 884.128906 618.066406 883.867188 618.113281 C 882.914062 618.304688 881.957031 618.527344 881.003906 618.8125 C 840.320312 630.976562 789.441406 657.730469 756.816406 665.207031 C 756.234375 665.339844 755.617188 665.46875 754.984375 665.589844 C 754.785156 665.632812 754.574219 665.667969 754.367188 665.707031 C 753.917969 665.789062 753.457031 665.871094 752.980469 665.949219 C 752.734375 665.992188 752.488281 666.027344 752.238281 666.070312 C 751.75 666.144531 751.242188 666.21875 750.730469 666.289062 C 750.503906 666.324219 750.273438 666.355469 750.042969 666.386719 C 749.296875 666.484375 748.535156 666.582031 747.742188 666.671875 L 747.722656 666.675781 C 746.921875 666.765625 746.09375 666.851562 745.246094 666.929688 C 744.984375 666.957031 744.714844 666.980469 744.449219 667.007812 C 743.851562 667.058594 743.246094 667.113281 742.628906 667.167969 C 742.3125 667.191406 741.992188 667.214844 741.667969 667.242188 C 741.050781 667.289062 740.421875 667.335938 739.789062 667.382812 C 739.484375 667.402344 739.183594 667.425781 738.875 667.445312 C 737.996094 667.5 737.109375 667.554688 736.199219 667.609375 L 735.890625 667.625 C 734.960938 667.675781 734.015625 667.722656 733.054688 667.765625 C 732.691406 667.785156 732.316406 667.800781 731.949219 667.816406 C 731.285156 667.84375 730.617188 667.871094 729.9375 667.894531 C 729.523438 667.914062 729.109375 667.929688 728.6875 667.941406 C 728.023438 667.964844 727.347656 667.984375 726.671875 668.007812 C 726.25 668.019531 725.832031 668.035156 725.402344 668.046875 C 724.53125 668.070312 723.644531 668.089844 722.757812 668.109375 C 722.363281 668.117188 721.972656 668.128906 721.578125 668.136719 C 720.679688 668.15625 719.785156 668.171875 718.867188 668.183594 C 718.355469 668.195312 717.835938 668.199219 717.316406 668.207031 C 716.679688 668.214844 716.042969 668.226562 715.394531 668.230469 C 714.835938 668.238281 714.273438 668.242188 713.703125 668.246094 C 713.085938 668.253906 712.46875 668.257812 711.847656 668.261719 C 711.265625 668.265625 710.683594 668.269531 710.097656 668.269531 C 709.472656 668.273438 708.835938 668.273438 708.203125 668.273438 C 707.679688 668.277344 707.167969 668.277344 706.644531 668.277344 L 706.253906 668.277344 C 704.136719 668.277344 701.992188 668.269531 699.820312 668.253906 C 699.472656 668.253906 699.121094 668.25 698.773438 668.246094 C 696.761719 668.230469 694.730469 668.210938 692.671875 668.1875 C 692.222656 668.183594 691.769531 668.175781 691.320312 668.171875 C 689.347656 668.144531 687.355469 668.117188 685.351562 668.082031 C 684.851562 668.074219 684.347656 668.066406 683.839844 668.054688 C 681.875 668.019531 679.894531 667.984375 677.910156 667.945312 C 677.359375 667.933594 676.8125 667.921875 676.261719 667.910156 C 674.785156 667.878906 673.304688 667.847656 671.820312 667.816406 L 671.824219 667.8125 C 671.328125 667.800781 670.832031 667.792969 670.335938 667.777344 C 669.738281 667.765625 669.144531 667.753906 668.546875 667.738281 C 666.589844 667.691406 664.628906 667.644531 662.667969 667.597656 C 661.769531 667.570312 660.878906 667.550781 659.984375 667.527344 C 658.410156 667.484375 656.839844 667.445312 655.269531 667.402344 C 639.371094 666.980469 623.648438 666.511719 609.589844 666.246094 L 609.347656 666.242188 C 607.199219 666.203125 605.089844 666.171875 603.027344 666.140625 L 602.550781 666.132812 C 600.5625 666.105469 598.617188 666.085938 596.71875 666.070312 C 596.527344 666.066406 596.335938 666.066406 596.148438 666.066406 C 594.273438 666.050781 592.445312 666.042969 590.667969 666.039062 L 590.035156 666.039062 C 589.328125 666.039062 588.636719 666.042969 587.949219 666.046875 C 587.675781 666.046875 587.394531 666.046875 587.125 666.046875 C 586.179688 666.054688 585.253906 666.058594 584.339844 666.070312 L 583.839844 666.078125 C 583.113281 666.085938 582.398438 666.097656 581.699219 666.109375 C 581.351562 666.113281 581.015625 666.121094 580.675781 666.128906 C 580.160156 666.140625 579.648438 666.152344 579.148438 666.164062 C 578.769531 666.171875 578.402344 666.183594 578.035156 666.195312 C 577.589844 666.207031 577.148438 666.21875 576.714844 666.234375 C 576.339844 666.246094 575.972656 666.257812 575.609375 666.273438 C 575.179688 666.289062 574.757812 666.304688 574.339844 666.320312 C 574.007812 666.335938 573.667969 666.351562 573.339844 666.363281 C 572.890625 666.386719 572.457031 666.410156 572.023438 666.429688 C 571.742188 666.445312 571.457031 666.460938 571.183594 666.476562 C 570.496094 666.515625 569.824219 666.558594 569.175781 666.605469 L 568.699219 666.621094 L 568.449219 666.605469 L 568.046875 666.578125 L 567.566406 666.507812 L 567.183594 666.425781 L 566.730469 666.292969 L 566.371094 666.164062 L 565.953125 665.964844 L 565.625 665.792969 L 565.234375 665.542969 L 564.941406 665.332031 L 564.589844 665.03125 L 564.328125 664.789062 L 564.019531 664.445312 L 563.796875 664.171875 L 563.53125 663.785156 L 563.347656 663.492188 L 563.128906 663.066406 L 562.984375 662.761719 L 562.824219 662.300781 L 562.722656 661.988281 L 562.613281 661.496094 L 562.558594 661.1875 L 562.519531 660.660156 L 562.503906 660.359375 L 562.539062 659.792969 L 562.5625 659.519531 C 562.589844 659.304688 562.640625 659.097656 562.695312 658.886719 L 562.738281 658.679688 C 562.8125 658.417969 562.910156 658.15625 563.023438 657.898438 L 563.042969 657.847656 C 563.167969 657.570312 563.316406 657.296875 563.484375 657.027344 L 627.316406 564.644531 C 637.84375 551.574219 636.828125 532.664062 624.960938 520.792969 C 624.191406 520.023438 623.390625 519.300781 622.5625 518.621094 C 622.292969 518.398438 622.003906 518.207031 621.726562 517.992188 C 621.164062 517.554688 620.59375 517.117188 620.007812 516.726562 C 619.664062 516.496094 619.3125 516.300781 618.964844 516.085938 C 618.417969 515.746094 617.871094 515.410156 617.308594 515.105469 C 616.933594 514.898438 616.546875 514.722656 616.164062 514.535156 C 615.609375 514.265625 615.058594 513.996094 614.496094 513.761719 C 614.097656 513.589844 613.6875 513.445312 613.285156 513.289062 C 612.722656 513.078125 612.160156 512.875 611.589844 512.695312 C 611.171875 512.566406 610.753906 512.449219 610.332031 512.335938 C 609.761719 512.179688 609.1875 512.035156 608.613281 511.914062 C 608.183594 511.824219 607.753906 511.742188 607.324219 511.667969 C 606.742188 511.566406 606.160156 511.484375 605.578125 511.414062 C 605.144531 511.363281 604.710938 511.316406 604.273438 511.285156 C 603.6875 511.238281 603.097656 511.214844 602.503906 511.199219 C 602.238281 511.191406 601.972656 511.160156 601.707031 511.160156 C 601.519531 511.160156 601.328125 511.179688 601.140625 511.183594 C 600.710938 511.191406 600.285156 511.210938 599.855469 511.234375 C 599.332031 511.265625 598.8125 511.304688 598.292969 511.359375 C 597.871094 511.402344 597.453125 511.457031 597.035156 511.515625 C 596.511719 511.589844 595.984375 511.679688 595.464844 511.78125 C 595.054688 511.859375 594.640625 511.945312 594.234375 512.039062 C 593.707031 512.164062 593.179688 512.304688 592.65625 512.457031 C 592.261719 512.570312 591.867188 512.679688 591.476562 512.804688 C 590.945312 512.980469 590.417969 513.183594 589.890625 513.382812 C 589.519531 513.527344 589.144531 513.664062 588.777344 513.824219 C 588.230469 514.054688 587.695312 514.320312 587.160156 514.585938 C 586.824219 514.753906 586.484375 514.90625 586.152344 515.082031 C 585.558594 515.402344 584.976562 515.761719 584.394531 516.125 C 584.140625 516.285156 583.875 516.425781 583.621094 516.59375 C 582.792969 517.144531 581.980469 517.726562 581.1875 518.359375 L 475.472656 600.5 C 472.515625 602.867188 468.839844 604.152344 465.058594 604.152344 L 434.292969 604.144531 L 433.648438 604.144531 C 432.976562 604.144531 432.332031 604.144531 431.671875 604.144531 C 430.714844 604.148438 429.753906 604.148438 428.816406 604.148438 C 427.949219 604.152344 427.105469 604.15625 426.253906 604.160156 C 425.433594 604.164062 424.609375 604.167969 423.804688 604.171875 C 422.890625 604.179688 421.996094 604.191406 421.097656 604.199219 C 420.386719 604.207031 419.664062 604.210938 418.964844 604.21875 C 418.0625 604.230469 417.183594 604.246094 416.300781 604.261719 C 415.617188 604.273438 414.921875 604.285156 414.246094 604.296875 C 413.359375 604.316406 412.492188 604.339844 411.621094 604.359375 C 410.984375 604.378906 410.339844 604.390625 409.710938 604.410156 C 408.808594 604.433594 407.929688 604.46875 407.046875 604.503906 C 406.464844 604.523438 405.875 604.542969 405.300781 604.566406 C 404.414062 604.601562 403.542969 604.644531 402.671875 604.691406 C 402.121094 604.71875 401.566406 604.738281 401.023438 604.769531 C 400.152344 604.820312 399.300781 604.878906 398.445312 604.929688 C 397.921875 604.964844 397.390625 604.996094 396.871094 605.035156 C 396.019531 605.09375 395.1875 605.167969 394.351562 605.238281 C 393.847656 605.277344 393.332031 605.316406 392.832031 605.363281 C 391.992188 605.4375 391.171875 605.523438 390.351562 605.609375 C 389.867188 605.660156 389.378906 605.707031 388.902344 605.757812 C 388.078125 605.851562 387.261719 605.957031 386.449219 606.058594 C 385.988281 606.117188 385.523438 606.171875 385.070312 606.230469 C 384.261719 606.339844 383.46875 606.464844 382.675781 606.585938 C 382.226562 606.65625 381.769531 606.714844 381.328125 606.792969 C 380.523438 606.921875 379.734375 607.070312 378.941406 607.210938 C 378.519531 607.289062 378.089844 607.355469 377.671875 607.4375 C 376.867188 607.589844 376.078125 607.761719 375.289062 607.929688 C 374.886719 608.015625 374.480469 608.089844 374.082031 608.179688 C 373.285156 608.359375 372.496094 608.554688 371.707031 608.75 C 371.328125 608.84375 370.941406 608.929688 370.558594 609.027344 C 369.777344 609.230469 369.003906 609.453125 368.226562 609.671875 C 367.847656 609.777344 367.46875 609.878906 367.089844 609.988281 C 366.328125 610.210938 365.570312 610.460938 364.8125 610.703125 C 364.429688 610.828125 364.050781 610.9375 363.671875 611.066406 C 362.917969 611.320312 362.167969 611.59375 361.417969 611.863281 C 361.042969 612 360.667969 612.128906 360.292969 612.265625 C 359.539062 612.550781 358.789062 612.855469 358.042969 613.160156 C 357.675781 613.304688 357.308594 613.445312 356.949219 613.597656 C 356.199219 613.910156 355.449219 614.25 354.703125 614.585938 C 354.34375 614.746094 353.980469 614.898438 353.621094 615.066406 C 352.871094 615.414062 352.117188 615.789062 351.367188 616.160156 C 351.019531 616.332031 350.664062 616.496094 350.316406 616.675781 C 349.5625 617.058594 348.804688 617.472656 348.054688 617.878906 C 347.707031 618.070312 347.359375 618.242188 347.011719 618.4375 C 346.253906 618.859375 345.492188 619.3125 344.730469 619.761719 C 344.390625 619.964844 344.046875 620.152344 343.707031 620.359375 C 342.949219 620.816406 342.1875 621.304688 341.425781 621.789062 C 341.082031 622.011719 340.734375 622.214844 340.390625 622.441406 C 339.632812 622.9375 338.867188 623.460938 338.105469 623.984375 C 337.753906 624.222656 337.402344 624.453125 337.050781 624.695312 C 336.292969 625.230469 335.53125 625.789062 334.765625 626.351562 C 334.40625 626.613281 334.046875 626.859375 333.6875 627.128906 C 332.941406 627.691406 332.179688 628.285156 331.425781 628.871094 C 331.046875 629.167969 330.671875 629.445312 330.289062 629.746094 C 329.53125 630.347656 328.769531 630.980469 328.003906 631.609375 C 327.617188 631.925781 327.234375 632.230469 326.84375 632.554688 C 326.054688 633.210938 325.261719 633.910156 324.464844 634.597656 C 324.089844 634.921875 323.722656 635.226562 323.347656 635.558594 C 322.546875 636.265625 321.734375 637.007812 320.921875 637.746094 C 320.542969 638.089844 320.171875 638.417969 319.789062 638.765625 C 318.832031 639.652344 317.859375 640.574219 316.886719 641.503906 C 316.644531 641.734375 316.410156 641.949219 316.164062 642.183594 C 314.945312 643.359375 313.707031 644.570312 312.460938 645.820312 L 142.046875 645.820312 C 133.996094 645.820312 127.273438 651.53125 125.722656 659.125 C 125.496094 660.210938 125.382812 661.332031 125.382812 662.484375 L 125.347656 795.808594 C 125.347656 796.835938 125.453125 797.835938 125.628906 798.804688 L 125.683594 799.167969 C 127.101562 806.09375 132.816406 811.445312 139.917969 812.335938 L 140.308594 812.394531 C 140.613281 812.425781 140.929688 812.425781 141.238281 812.441406 C 141.5 812.453125 141.757812 812.480469 142.019531 812.480469 L 517.902344 812.363281 C 519.355469 812.363281 520.800781 812.171875 522.199219 811.800781 C 522.667969 811.671875 523.128906 811.527344 523.585938 811.363281 L 748.769531 750.339844 C 749.660156 750.101562 750.515625 749.792969 751.351562 749.410156 C 763.730469 743.730469 858.238281 699.191406 903.386719 677.90625 C 912.320312 673.695312 918.457031 665.742188 920.648438 656.664062 C 921.210938 654.320312 921.539062 651.910156 921.554688 649.457031 C 921.570312 646.714844 921.226562 643.921875 920.492188 641.148438 Z M 920.492188 641.148438"/></svg>