<svg xmlns="http://www.w3.org/2000/svg" viewBox="0 0 480 480"><path d="M417.792,108.129c-9.05-6.337-21.519-4.136-27.855,4.911l-34.415,49.149l-32.758-22.938l-0.008-0.006l-36.866-25.813 l-61.433-43.016c-4.346-3.043-9.721-4.233-14.944-3.313c-5.224,0.921-9.868,3.88-12.91,8.225l-45.886,65.532 c-6.336,9.049-4.137,21.52,4.911,27.854c9.049,6.337,21.52,4.136,27.854-4.911l34.414-49.149l16.377,11.467l-57.377,81.871 c-3.045,4.345-4.239,9.721-3.319,14.945c0.92,5.226,3.878,9.871,8.223,12.914l49.181,34.449c3.386,2.372,7.396,3.619,11.475,3.619 c1.156,0,2.317-0.101,3.471-0.304c5.225-0.921,9.869-3.879,12.912-8.225l57.356-81.908l32.767,22.943 c3.492,2.445,7.492,3.619,11.454,3.619c6.305-0.001,12.51-2.975,16.4-8.53l45.887-65.532 C429.039,126.936,426.84,114.465,417.792,108.129z M268.662,321.108l-98.299-68.829c-9.05-6.337-21.52-4.136-27.854,4.911 c-6.336,9.048-4.137,21.52,4.911,27.854l81.924,57.363l-57.319,81.945c-6.331,9.052-4.126,21.521,4.925,27.853 c3.49,2.441,7.488,3.613,11.446,3.613c6.309,0,12.516-2.977,16.406-8.538l68.777-98.326 C279.908,339.906,277.707,327.441,268.662,321.108z M168.715,324.371c-9.05-6.336-21.519-4.136-27.854,4.911l-68.829,98.299 c-6.336,9.048-4.137,21.52,4.911,27.854c3.492,2.445,7.492,3.619,11.454,3.619c6.305,0,12.51-2.975,16.4-8.53l68.829-98.299 C179.962,343.178,177.763,330.706,168.715,324.371z M301.659,100.016c18.902,13.235,42.276,8.983,55.512-9.919 s9.081-42.471-9.821-55.706s-42.476-9.082-55.711,9.82S282.757,86.78,301.659,100.016z"/></svg>