<?xml version="1.0" encoding="iso-8859-1"?>
<!-- Generator: Adobe Illustrator 23.0.4, SVG Export Plug-In . SVG Version: 6.00 Build 0)  -->
<svg version="1.1" xmlns="http://www.w3.org/2000/svg" xmlns:xlink="http://www.w3.org/1999/xlink" x="0px" y="0px"
	 viewBox="0 0 480 480" style="enable-background:new 0 0 480 480;" xml:space="preserve">
<g id="Workspace">
	<path d="M84.978,274.133c5.62,3.936,13.365,2.568,17.3-3.05l21.373-30.525l10.172,7.122l-35.635,50.847
		c-1.892,2.698-2.633,6.037-2.062,9.282c0.572,3.245,2.409,6.131,5.107,8.021l30.545,21.396c2.103,1.474,4.594,2.248,7.126,2.248
		c0.718,0,1.439-0.062,2.155-0.189c3.245-0.571,6.13-2.408,8.02-5.107l35.623-50.87l20.35,14.249
		c2.169,1.519,4.653,2.247,7.113,2.247c3.916,0,7.77-1.847,10.187-5.298l28.499-40.699c3.935-5.62,2.568-13.365-3.051-17.3
		c-5.62-3.936-13.364-2.568-17.3,3.05l-21.374,30.525l-20.345-14.246l-0.005-0.003l-21.937-15.36l-39.113-27.388
		c-2.699-1.89-6.037-2.629-9.282-2.058c-3.244,0.572-6.128,2.409-8.018,5.107l-28.498,40.7
		C77.993,262.453,79.359,270.198,84.978,274.133z M155.18,368.779L94.13,326.032c-5.621-3.936-13.365-2.568-17.3,3.05
		c-3.935,5.619-2.569,13.365,3.051,17.3l50.88,35.626l-35.6,50.894c-3.932,5.622-2.562,13.367,3.059,17.299
		c2.168,1.517,4.651,2.244,7.109,2.244c3.918,0,7.773-1.849,10.189-5.303l42.715-61.067
		C162.165,380.454,160.798,372.713,155.18,368.779z M93.106,370.806c-5.621-3.935-13.365-2.568-17.3,3.051l-42.748,61.05
		c-3.935,5.619-2.568,13.365,3.051,17.3c2.169,1.519,4.653,2.247,7.113,2.247c3.916,0,7.77-1.847,10.186-5.298l42.748-61.05
		C100.091,382.486,98.725,374.74,93.106,370.806z M169.45,196.808c-8.22,11.739-5.517,26.438,6.224,34.658
		c11.739,8.221,26.256,5.579,34.477-6.16c8.22-11.739,5.64-26.377-6.101-34.598C192.31,182.488,177.671,185.067,169.45,196.808z
		 M291.571,395.432l39.115-55.863c4.792-6.843,3.129-16.274-3.714-21.065l-29.132-20.398c-6.844-4.792-16.274-3.13-21.065,3.714
		c-4.792,6.843-3.129,16.274,3.714,21.066l16.741,11.722l-19.688,28.117l-24.923-58.115c-1.525-3.558-4.262-6.215-7.515-7.731
		l-6.371,9.099c-3.482,4.973-8.244,8.786-13.667,11.139l45.127,105.226c2.459,5.733,8.042,9.167,13.909,9.167
		c1.989,0,4.01-0.394,5.954-1.228c7.678-3.293,11.232-12.186,7.939-19.863L291.571,395.432z M389.405,203.006
		c-8.193,11.702-5.499,26.353,6.202,34.546c11.702,8.193,26.171,5.562,34.364-6.14c8.193-11.702,5.621-26.291-6.08-34.484
		S397.598,191.305,389.405,203.006z M179.071,326.213l-10.576,15.103c1.58-0.169,3.183-0.26,4.807-0.26
		c24.797,0,44.97,20.174,44.97,44.97c0,24.797-20.173,44.97-44.97,44.97c-6.825,0-13.297-1.535-19.097-4.268l-8.759,12.522
		c8.333,4.379,17.807,6.871,27.855,6.871c33.137,0,60.096-26.959,60.096-60.096C233.397,354.835,209.51,329.127,179.071,326.213z
		 M389.905,325.93c-2.914,0-5.777,0.22-8.582,0.622l-6.473-8.626v-82.984c0-8.354-6.771-15.126-15.126-15.126H258.796
		c0.157,0.106,0.321,0.199,0.478,0.309c14.641,10.251,18.213,30.507,7.961,45.15l-10.558,15.077h87.922v42.618
		c0,3.274,1.062,6.46,3.027,9.079l5.109,6.808c-13.948,11.015-22.926,28.058-22.926,47.169c0,33.137,26.959,60.096,60.096,60.096
		c33.136,0,60.095-26.959,60.095-60.096S423.041,325.93,389.905,325.93z M389.905,430.995c-24.797,0-44.971-20.173-44.971-44.97
		c0-14.173,6.598-26.827,16.875-35.076l15.016,20.011c2.973,3.96,7.513,6.048,12.11,6.048c3.159,0,6.346-0.986,9.067-3.028
		c6.682-5.014,8.033-14.495,3.02-21.177l-8.77-11.686c23.709,1.226,42.621,20.899,42.621,44.908
		C434.874,410.822,414.701,430.995,389.905,430.995z M318.851,81.767c12.772-10.718,14.28-27.945,3.562-40.719
		s-27.948-14.283-40.721-3.565c-12.773,10.719-14.161,28.052-3.443,40.825S306.078,92.484,318.851,81.767z M183.836,100.729
		l33.213-27.868l9.285,11.065l-55.359,46.414c-0.974,0.815-1.814,1.739-2.521,2.739c7.129,3.423,14.384,5.78,25.611,5.78
		c1.424,0,2.915-0.038,4.43-0.114c17.984-0.901,25.647-6.038,36.254-13.147c11.055-7.41,24.489-16.41,47.919-19.502L229.901,43.21
		c-5.131-6.114-14.248-6.911-20.361-1.781l-44.283,37.157c-6.114,5.131-6.912,14.247-1.781,20.361
		C168.605,105.062,177.723,105.859,183.836,100.729z M102.611,143.604c21.979-1.103,33.119,4.845,44.913,11.14
		c12.398,6.619,26.452,14.121,52.416,12.819c25.965-1.302,39.198-10.172,50.873-17.997c11.105-7.444,21.595-14.476,43.576-15.577
		c21.981-1.103,33.122,4.845,44.916,11.141c12.399,6.618,26.453,14.12,52.418,12.818c3.972-0.198,7.03-3.58,6.831-7.552
		s-3.581-7.03-7.553-6.831c-21.98,1.102-33.12-4.845-44.915-11.141c-12.399-6.619-26.453-14.121-52.418-12.819
		s-39.198,10.172-50.873,17.998c-11.105,7.443-21.596,14.475-43.577,15.576c-21.979,1.103-33.118-4.845-44.912-11.14
		c-12.399-6.619-26.453-14.121-52.417-12.819c-3.972,0.199-7.03,3.58-6.831,7.552S98.639,143.803,102.611,143.604z"/>
</g>
<g id="Guide">
</g>
</svg>
