<svg xmlns="http://www.w3.org/2000/svg" viewBox="0 0 480 480"><path d="M370.257,170h-38.448l-67.651-47.365l-18.41-12.893l-0.042-0.026L229.357,98.27c-1.078-0.755-2.229-1.401-3.435-1.931 l-93.387-40.975c-10.115-4.438-21.913,0.165-26.351,10.278c-4.438,10.115,0.164,21.913,10.278,26.351l89.728,39.369l-57.134,81.59 c-3.042,4.345-4.234,9.721-3.313,14.944s3.88,9.868,8.225,12.91l49.148,34.414c3.385,2.37,7.396,3.617,11.472,3.617 c1.157,0,2.319-0.101,3.474-0.304c5.224-0.922,9.867-3.88,12.91-8.226l57.355-81.922l25.705,17.997 c3.362,2.354,7.366,3.616,11.471,3.616h44.754c11.046,0,20-8.954,20-20S381.303,170,370.257,170z M246.468,331.544 c-1.353-1.961-3.045-3.666-4.996-5.032l-99.001-69.321c-9.049-6.337-21.519-4.136-27.854,4.911 c-6.336,9.048-4.137,21.52,4.911,27.854l96.05,67.255l63.512,93.004c3.881,5.629,10.13,8.652,16.485,8.652 c3.913,0,7.867-1.146,11.333-3.535c9.095-6.268,11.386-18.723,5.117-27.818L246.468,331.544z M138.054,326.503 c-10.104-4.47-21.913,0.097-26.382,10.198l-19.598,48.438l-55.163,36.809c-9.188,6.131-11.667,18.55-5.536,27.737 c3.855,5.777,10.194,8.901,16.655,8.901c3.814,0,7.672-1.09,11.082-3.365l60-40.036c3.159-2.108,5.653-5.072,7.189-8.545 l21.95-53.755C152.721,342.783,148.155,330.972,138.054,326.503z M273.771,104.895c18.902,13.235,42.276,8.983,55.513-9.919 c13.235-18.902,9.08-42.47-9.822-55.706c-18.902-13.235-42.475-9.082-55.71,9.82C250.515,67.992,254.868,91.659,273.771,104.895z M459.962,170h-35.226c-8.284,0-15,6.716-15,15v5h65.226v-5C474.962,176.716,468.246,170,459.962,170z"/></svg>