<svg xmlns="http://www.w3.org/2000/svg" width="1000pt" height="1000pt" viewBox="0 0 1000 1000"><path d="M 771.367188 354.167969 L 691.269531 354.167969 L 550.328125 255.488281 L 511.976562 228.628906 L 511.886719 228.574219 L 477.828125 204.730469 C 475.582031 203.15625 473.183594 201.808594 470.671875 200.707031 L 276.113281 115.339844 C 255.042969 106.097656 230.460938 115.683594 221.214844 136.753906 C 211.972656 157.828125 221.558594 182.40625 242.628906 191.652344 L 429.5625 273.671875 L 310.535156 443.648438 C 304.195312 452.703125 301.710938 463.902344 303.632812 474.785156 C 305.550781 485.664062 311.714844 495.339844 320.765625 501.679688 L 423.160156 573.375 C 430.210938 578.3125 438.566406 580.910156 447.058594 580.910156 C 449.46875 580.910156 451.890625 580.699219 454.296875 580.277344 C 465.179688 578.355469 474.851562 572.195312 481.191406 563.140625 L 600.679688 392.46875 L 654.234375 429.960938 C 661.238281 434.867188 669.578125 437.496094 678.132812 437.496094 L 771.367188 437.496094 C 794.382812 437.496094 813.035156 418.839844 813.035156 395.828125 C 813.035156 372.816406 794.382812 354.167969 771.367188 354.167969 Z M 513.476562 690.714844 C 510.65625 686.632812 507.132812 683.078125 503.066406 680.234375 L 296.816406 535.816406 C 277.960938 522.613281 251.984375 527.199219 238.785156 546.046875 C 225.585938 564.894531 230.167969 590.878906 249.015625 604.074219 L 449.121094 744.191406 L 581.4375 937.949219 C 589.523438 949.675781 602.542969 955.972656 615.78125 955.972656 C 623.933594 955.972656 632.171875 953.585938 639.390625 948.609375 C 658.339844 935.550781 663.113281 909.601562 650.050781 890.652344 Z M 287.613281 680.214844 C 266.5625 670.902344 241.960938 680.417969 232.648438 701.460938 L 191.820312 802.371094 L 76.898438 879.058594 C 57.757812 891.832031 52.589844 917.703125 65.363281 936.84375 C 73.394531 948.878906 86.601562 955.386719 100.0625 955.386719 C 108.007812 955.386719 116.046875 953.117188 123.148438 948.378906 L 248.148438 864.96875 C 254.730469 860.578125 259.925781 854.402344 263.128906 847.167969 L 308.855469 735.175781 C 318.167969 714.132812 308.65625 689.523438 287.613281 680.214844 Z M 570.355469 218.53125 C 609.734375 246.105469 658.429688 237.246094 686.007812 197.867188 C 713.582031 158.488281 704.925781 109.386719 665.546875 81.8125 C 626.167969 54.238281 577.054688 62.890625 549.484375 102.269531 C 521.90625 141.648438 530.976562 190.957031 570.355469 218.53125 Z M 958.253906 354.167969 L 884.867188 354.167969 C 867.609375 354.167969 853.617188 368.160156 853.617188 385.417969 L 853.617188 395.832031 L 989.503906 395.832031 L 989.503906 385.417969 C 989.503906 368.160156 975.511719 354.167969 958.253906 354.167969 Z M 958.253906 354.167969"/></svg>