<?xml version="1.0" encoding="iso-8859-1"?>
<!-- Generator: Adobe Illustrator 23.0.4, SVG Export Plug-In . SVG Version: 6.00 Build 0)  -->
<svg version="1.1" xmlns="http://www.w3.org/2000/svg" xmlns:xlink="http://www.w3.org/1999/xlink" x="0px" y="0px"
	 viewBox="0 0 480 480" style="enable-background:new 0 0 480 480;" xml:space="preserve">
<g id="Layer_1">
	<path d="M240,40C129.54,40,40,129.54,40,240c0,110.44,89.54,200,200,200c110.44,0,200-89.56,200-200C440,129.54,350.44,40,240,40z
		 M297.853,164.18c-7.38-4.24-15-7.72-22.7-10.82c-0.063,0.128-0.121,0.256-0.179,0.384c-0.087,0.192-0.173,0.385-0.281,0.576
		c-7.68,14.801-13.08,30.62-16.399,46.92c-0.171,0.843-0.345,1.684-0.52,2.523v0.001c-0.646,3.109-1.291,6.212-1.701,9.376
		c-0.252,1.914-0.381,3.846-0.51,5.771c-0.064,0.972-0.129,1.942-0.21,2.908c-0.28,3.5-0.439,7-0.52,10.521
		c1.905,1.166,3.717,2.489,5.527,3.812l0.001,0.001h0.001v0.001c1.077,0.786,2.154,1.573,3.25,2.326
		c0.696,0.481,1.424,0.924,2.152,1.366c0.906,0.551,1.814,1.103,2.668,1.734c0.399,0.283,0.776,0.605,1.154,0.929h0.001
		c0.342,0.292,0.685,0.585,1.045,0.851c5.08,3.8,9.88,7.88,14.58,12.12c0.189,0.16,0.381,0.318,0.572,0.478l0.001,0.001
		c0.573,0.476,1.146,0.952,1.687,1.462c0.129,0.119,0.254,0.248,0.38,0.38h0.001c0.128,0.134,0.259,0.27,0.399,0.399
		c14.74,13.841,27.68,29.5,37.84,47.08c0.11,0.173,0.198,0.359,0.287,0.548c0.056,0.118,0.111,0.237,0.173,0.353
		c2.56,4.5,4.82,9.1,7,13.7c0.122,0.255,0.226,0.511,0.328,0.762c0.082,0.202,0.163,0.402,0.252,0.598
		c1.92,4.141,3.62,8.301,5.26,12.521c0.219,0.559,0.46,1.109,0.7,1.66c0.311,0.71,0.621,1.419,0.88,2.14
		c0.061,0.16,0.125,0.315,0.19,0.471c0.064,0.154,0.13,0.31,0.189,0.47c0.235,0.663,0.431,1.339,0.626,2.013
		c0.17,0.586,0.339,1.171,0.534,1.747c1.14,3.399,2.24,6.82,3.22,10.3c0.132,0.508,0.295,1.003,0.457,1.496v0.001
		c0.183,0.557,0.365,1.111,0.503,1.683c0.181,0.601,0.36,1.221,0.521,1.82c0.403,1.576,0.714,3.16,1.025,4.747
		c0.166,0.851,0.333,1.702,0.515,2.553c0.159,0.745,0.323,1.487,0.487,2.228c0.191,0.866,0.383,1.73,0.565,2.598
		c-8.085,6.855-16.816,12.971-26.089,18.239c-0.436-3.81-1.006-7.619-1.701-11.428c-0.38-1.98-0.82-3.94-1.261-5.9
		c-0.939-4.34-1.899-8.66-3.199-12.939c-0.41-1.416-0.917-2.813-1.421-4.206c-0.258-0.713-0.516-1.424-0.76-2.134
		c-0.207-0.61-0.413-1.221-0.618-1.83c-1.141-3.383-2.274-6.745-3.682-10.051c-6.38,4.721-13,9.24-20.06,13.32
		c-48.211,27.83-104.279,34.413-156.074,20.812c-16.875-13.302-31.18-29.728-42.031-48.397
		c55.746,34.532,126.305,36.028,183.808,2.838c7.4-4.28,14.2-9.14,20.72-14.24l-0.066-0.108l-0.09-0.138l-0.123-0.184
		c-0.096-0.14-0.19-0.28-0.28-0.43c-8.98-14.061-20-26.641-32.46-37.7c-0.838-0.728-1.669-1.465-2.499-2.202
		c-2.184-1.937-4.369-3.876-6.701-5.658c-1.616-1.262-3.332-2.402-5.05-3.544l-0.001-0.001c-0.705-0.469-1.41-0.938-2.109-1.415
		c-2.88-2-5.82-3.9-8.84-5.72c-1.992,1.091-4.065,2.006-6.143,2.922h-0.001c-1.196,0.527-2.393,1.056-3.576,1.618
		c-0.787,0.375-1.553,0.796-2.318,1.217h-0.001v0.001c-0.908,0.499-1.817,0.999-2.761,1.422c-0.459,0.203-0.935,0.365-1.409,0.528
		h-0.001c-0.415,0.142-0.829,0.284-1.23,0.452c-5.84,2.52-11.779,4.64-17.819,6.6c-0.343,0.119-0.687,0.244-1.03,0.369l-0.002,0.001
		h-0.001l-0.001,0.001h-0.001c-0.577,0.21-1.157,0.421-1.745,0.609c-0.221,0.077-0.457,0.121-0.689,0.165l-0.169,0.031l-0.201,0.043
		c-19.341,5.88-39.4,9.261-59.7,9.261c-0.162,0-0.32-0.011-0.475-0.021h-0.001c-0.149-0.011-0.297-0.02-0.444-0.02
		c-5.221-0.061-10.34-0.381-15.46-0.78v-0.021c-0.25-0.01-0.495-0.045-0.74-0.08c-0.245-0.034-0.49-0.069-0.74-0.079
		c-4.52-0.421-9-1.021-13.46-1.721c-0.579-0.085-1.162-0.148-1.745-0.212h-0.001c-0.783-0.085-1.565-0.17-2.334-0.308l-0.132-0.022
		l-0.15-0.024l-0.175-0.027h-0.001c-0.176-0.027-0.349-0.054-0.521-0.086c-0.806-0.135-1.581-0.328-2.359-0.522h-0.001
		c-0.496-0.124-0.993-0.249-1.5-0.357c-3.52-0.7-7.02-1.46-10.5-2.36c-0.44-0.105-0.887-0.198-1.335-0.291v-0.001h-0.001
		c-0.651-0.135-1.305-0.271-1.944-0.448c-0.245-0.065-0.493-0.124-0.742-0.183c-0.361-0.085-0.723-0.171-1.077-0.277
		c-1.526-0.416-3.014-0.928-4.5-1.439c-0.871-0.3-1.741-0.6-2.62-0.88c-0.682-0.222-1.364-0.439-2.047-0.656
		c-0.909-0.29-1.818-0.579-2.724-0.879C70.922,260.405,70,250.309,70,240c0-0.486,0.002-0.972,0.006-1.457
		c3.524,1.516,7.119,2.928,10.764,4.228c1.9,0.68,3.84,1.279,5.78,1.88c4.22,1.359,8.439,2.66,12.76,3.7
		c1.363,0.321,2.742,0.567,4.117,0.812c0.844,0.15,1.687,0.301,2.523,0.468c0.768,0.149,1.534,0.301,2.3,0.453
		c3.345,0.663,6.683,1.324,10.1,1.747c-0.899-7.9-1.5-15.88-1.5-24.02c0-55.733,22.379-107.627,60.13-145.704
		c19.447-7.789,40.657-12.085,62.85-12.106c-57.818,30.997-94.407,91.393-94.407,157.794c0,8.54,0.8,16.86,1.979,25.08
		c0.181-0.01,0.355-0.025,0.53-0.04s0.35-0.03,0.53-0.04c16.64-0.76,33.02-3.98,48.8-9.24c0.89-0.301,1.78-0.596,2.671-0.891
		c2.952-0.977,5.896-1.951,8.769-3.149c1.77-0.726,3.495-1.574,5.223-2.424h0.001h0.001c0.889-0.438,1.779-0.875,2.676-1.296
		c3.16-1.5,6.26-3.1,9.34-4.8c0.062-2.234,0.302-4.438,0.541-6.644v-0.001v-0.001c0.146-1.349,0.293-2.697,0.399-4.055
		c0.062-0.828,0.08-1.667,0.1-2.508v-0.001c0.023-1.068,0.048-2.14,0.16-3.191c0.055-0.512,0.15-1.019,0.246-1.521v-0.001v-0.001
		c0.08-0.42,0.159-0.838,0.214-1.257c0.76-6.319,1.88-12.54,3.2-18.739c0.062-0.329,0.118-0.66,0.176-0.992v-0.001
		c0.109-0.637,0.22-1.276,0.364-1.907c0.04-0.17,0.095-0.345,0.149-0.52v-0.001c0.056-0.175,0.11-0.35,0.15-0.52
		c4.6-19.7,11.68-38.76,21.84-56.34l0.132-0.198l0.082-0.119c0.114-0.166,0.228-0.331,0.326-0.503c2.64-4.46,5.48-8.739,8.38-12.939
		c0.158-0.237,0.329-0.456,0.502-0.677c0.134-0.17,0.268-0.341,0.398-0.523c2.6-3.7,5.359-7.26,8.2-10.78
		c0.372-0.467,0.726-0.949,1.078-1.431v-0.001c0.462-0.63,0.923-1.259,1.422-1.849c0.117-0.139,0.229-0.283,0.338-0.424
		c0.096-0.123,0.188-0.244,0.281-0.355c0.473-0.561,0.975-1.084,1.474-1.604h0.001c0.41-0.428,0.818-0.854,1.206-1.296
		c2.38-2.72,4.8-5.34,7.3-7.92c0.341-0.35,0.67-0.715,1-1.08h0.001c0.424-0.471,0.849-0.941,1.299-1.38c0.42-0.44,0.86-0.9,1.3-1.34
		c1.109-1.085,2.264-2.093,3.418-3.101c0.718-0.628,1.437-1.255,2.143-1.899c0.605-0.545,1.207-1.093,1.809-1.641l0.005-0.004
		c0.635-0.578,1.269-1.156,1.907-1.729c10.056,3.624,19.674,8.17,28.753,13.535c-3.073,2.29-6.066,4.687-9.01,7.171
		c-1.328,1.138-2.611,2.321-3.901,3.51l-0.619,0.57c-3.26,2.96-6.54,5.96-9.6,9.2c-0.935,0.994-1.816,2.04-2.701,3.089
		c-0.574,0.681-1.148,1.361-1.739,2.031c-0.516,0.595-1.034,1.188-1.552,1.78c-2.234,2.557-4.47,5.116-6.548,7.859
		c7.3,3.14,14.52,6.64,21.56,10.7c48.279,27.874,82.042,73.206,96.13,124.948c-3.134,21.722-10.39,42.128-20.947,60.397
		C389.348,259.242,355.354,197.388,297.853,164.18z"/>
</g>
<g id="Guide">
</g>
</svg>
