<svg xmlns="http://www.w3.org/2000/svg" viewBox="0 0 480 480"><path d="M149.403,186.7c7.162-4.164,14.651-5.221,21.657-3.055c0.868,0.269,1.71,0.593,2.537,0.946 c7.464-52.039,52.331-92.17,106.402-92.17c18.041,0,35.055,4.475,50,12.36V38c0-4.418-3.581-8-8-8H38c-4.418,0-8,3.582-8,8v184 c0,4.418,3.582,8,8,8h98.337C135.307,214.915,134.579,195.318,149.403,186.7z M280,107.422c-49.672,0-90.317,39.355-92.409,88.522 c3.529,4.445,6.323,9.376,8.421,13.775c2.993,6.279,4.849,13.329,6.645,20.146l0.035,0.134 c3.108,11.805,6.065,22.938,14.176,28.141c9.592,6.146,30.187-4.091,56.876-28.141c1.406-1.268,2.825-2.562,4.266-3.907 c18.602-17.361,37.396-38.549,51.991-55.737c6.297-7.415,11.816-14.091,16.194-19.386c2.549-3.083,4.775-5.774,6.645-8 c-6.387-8.151-14.111-15.208-22.839-20.837C315.573,112.828,298.407,107.422,280,107.422z M447.495,252.468 c-2.191-2.957-4.225-3.562-5.562-3.759c-7.558-1.121-19.393,7.711-27.232,13.55c-2.418,1.801-4.703,3.502-6.753,4.867 c-7.088,4.719-14.236,9.664-21.148,14.446c-8.439,5.838-17.165,11.873-25.942,17.612l-0.094,0.062 c-3.468,2.265-8.115,1.291-10.382-2.175c-2.266-3.467-1.292-8.115,2.175-10.382c14.771-9.654,28.131-22.871,41.052-35.653 l1.47-1.453c15.523-15.345,33.117-32.735,39.246-52.326c1.651-5.277,0.955-13.713-5.763-15.943 c-10.738-3.57-19.599,5.606-30.941,18.955c-2.318,2.728-4.508,5.304-6.702,7.61c-1.37,1.44-2.743,2.856-4.115,4.258 c-3.038,3.104-6.073,6.116-9.066,9.01c-3.64,3.517-7.215,6.86-10.668,10.011c-18.625,16.989-33.578,28.201-34.448,28.851 c-3.104,2.317-7.467,1.89-10.059-0.992c-2.594-2.88-2.565-7.262,0.064-10.107c15.36-16.628,37.537-41.796,49.627-55.741 c2.862-3.301,5.163-5.979,6.67-7.759l0.022-0.026l1.525-1.795c1.326-1.557,2.97-3.488,4.762-5.673 c8.335-10.161,19.948-25.909,18.436-36.084c-0.271-1.82-1.089-4.534-5.052-7.076c-8.552-5.482-19.93,3.089-26.66,9.534 c-1.893,1.812-3.419,3.456-4.41,4.572c-0.282,0.318-0.596,0.676-0.927,1.06c-1.354,1.564-3.111,3.664-5.185,6.163 c-1.137,1.37-2.358,2.848-3.678,4.443c-6.904,8.352-16.595,20.073-27.756,32.797c-10.522,11.996-22.351,24.881-34.385,36.676 c-2.451,2.403-4.911,4.763-7.371,7.059c-25.826,24.104-46.458,36.613-62.444,37.772c-5.705,0.413-10.82-0.611-15.365-3.08 c-0.564-0.307-1.12-0.635-1.667-0.985c-8.384-5.378-13.032-13.59-16.229-22.338c-1.783-4.88-3.12-9.925-4.389-14.742 c-0.328-1.246-0.653-2.472-0.98-3.686c-1.363-5.053-2.774-9.788-4.699-13.826c-0.527-1.106-1.069-2.166-1.621-3.188 c-2.604-4.827-5.451-8.688-8.327-11.339c-1.974-1.818-3.961-3.074-5.891-3.671c-2.977-0.919-6.148-0.367-9.69,1.691 c-7.199,4.186-6.354,19.059-5.569,30.332c0.021,0.303,0.042,0.604,0.062,0.901c0.248,3.536,0.482,6.877,0.484,9.822 c0.006,7.565-0.274,15.76-0.571,24.436c-1.102,32.22-2.474,72.318,12.49,84.89c0.727,0.61,1.331,1.354,1.781,2.189 c2.123,3.947,0.184,6.882-1.374,9.24l-19.004,28.765l79.53,61.047l28.202-29.793c2.121-2.238,4.759-5.021,9.294-3.513l0.209,0.073 c16.287,5.972,48.236-2.863,87.656-24.234c32.617-17.682,63.384-40.525,70.596-49.969c0.257-0.336,0.541-0.649,0.851-0.938 c0.084-0.08,10.448-10.205,5.991-17.32c-1.312-2.092-4.379-6.996-17.274-3.054c-9.679,2.957-20.852,9.655-29.829,15.038 c-5.733,3.437-10.684,6.405-14.65,8.097c-3.609,1.542-7.801,0.035-9.604-3.454c-1.804-3.488-0.611-7.777,2.734-9.834 c22.597-13.892,45.963-28.256,66.001-46.03c1.31-1.161,2.797-2.414,4.371-3.742C450.087,265.112,451.671,258.103,447.495,252.468z"/></svg>