<svg xmlns="http://www.w3.org/2000/svg" viewBox="0 0 480 480"><path d="M300,150c-82.875,0-150,67.125-150,150c0,82.8,67.125,150,150,150c82.8,0,150-67.2,150-150C450,217.125,382.8,150,300,150z M343.2,242.625c-5.55-3.15-11.25-5.775-17.025-8.1l-0.149,0.3c-0.075,0.149-0.15,0.3-0.226,0.45 c-5.774,11.1-9.824,22.949-12.3,35.175c-0.149,0.6-0.225,1.274-0.375,1.875c-0.45,2.325-0.975,4.649-1.274,7.05 c-0.15,1.425-0.301,2.925-0.375,4.35c-0.075,0.75-0.075,1.426-0.15,2.176c-0.225,2.625-0.3,5.25-0.375,7.875 c1.425,0.899,2.775,1.875,4.125,2.85c0.75,0.6,1.575,1.125,2.4,1.725c0.524,0.375,1.125,0.75,1.649,1.051 c0.675,0.375,1.351,0.824,2.025,1.274c0.3,0.226,0.6,0.45,0.899,0.675c0.226,0.226,0.45,0.45,0.75,0.676 c3.825,2.85,7.426,5.925,10.95,9.074c0.15,0.15,0.3,0.226,0.45,0.375c0.45,0.375,0.9,0.75,1.275,1.125l0.3,0.301l0.3,0.3 c11.025,10.425,20.7,22.125,28.35,35.325c0.075,0.074,0.15,0.225,0.226,0.375c0.075,0.149,0.075,0.225,0.149,0.3 c1.95,3.375,3.601,6.825,5.25,10.274c0.075,0.226,0.15,0.375,0.226,0.601c0.075,0.149,0.149,0.3,0.225,0.45 c1.5,3.074,2.775,6.225,3.976,9.375c0.149,0.449,0.375,0.824,0.524,1.274c0.226,0.525,0.45,1.05,0.675,1.575 c0.075,0.15,0.075,0.225,0.15,0.375s0.075,0.225,0.15,0.375c0.149,0.525,0.3,0.975,0.449,1.5c0.075,0.375,0.226,0.825,0.375,1.275 c0.825,2.55,1.65,5.1,2.4,7.725c0.15,0.375,0.225,0.75,0.375,1.125c0.15,0.45,0.3,0.825,0.375,1.275 c0.15,0.449,0.225,0.899,0.375,1.35c0.3,1.125,0.525,2.325,0.75,3.525c0.15,0.675,0.225,1.274,0.375,1.949 c0.15,0.525,0.225,1.125,0.375,1.65c0.15,0.675,0.3,1.275,0.45,1.95c-6.075,5.1-12.601,9.675-19.575,13.649 c-0.3-2.85-0.75-5.699-1.275-8.55c-0.3-1.5-0.675-2.925-0.975-4.425c-0.675-3.225-1.425-6.45-2.4-9.675 c-0.3-1.05-0.675-2.101-1.05-3.15c-0.225-0.524-0.449-1.05-0.6-1.575c-0.15-0.449-0.3-0.899-0.45-1.35 c-0.9-2.55-1.725-5.1-2.775-7.575c-4.8,3.525-9.75,6.9-15.074,9.976c-36.15,20.85-78.226,25.8-117.075,15.6 c-12.601-9.975-23.325-22.275-31.5-36.3c41.774,25.875,94.725,27,137.85,2.1c5.551-3.149,10.65-6.825,15.525-10.649l-0.15-0.15 l-0.075-0.15l-0.225-0.3c-6.75-10.575-15-19.95-24.375-28.274c-0.6-0.525-1.275-1.125-1.875-1.65c-1.65-1.5-3.3-2.925-5.025-4.275 c-1.199-0.899-2.475-1.8-3.75-2.625c-0.524-0.375-1.05-0.675-1.574-1.05c-2.101-1.5-4.351-2.925-6.601-4.274 c-1.425,0.824-3,1.5-4.575,2.175c-0.899,0.375-1.8,0.75-2.699,1.2c-0.601,0.3-1.125,0.6-1.726,0.899 c-0.675,0.375-1.425,0.75-2.1,1.05c-0.3,0.15-0.675,0.226-1.05,0.375c-0.301,0.15-0.601,0.226-0.9,0.375 c-4.35,1.875-8.85,3.45-13.35,4.95c-0.226,0.15-0.525,0.226-0.75,0.3c-0.375,0.15-0.825,0.301-1.275,0.45 c-0.15,0.075-0.375,0.15-0.525,0.15H270c-14.475,4.425-29.55,6.975-44.774,6.975h-0.676c-3.975-0.075-7.8-0.3-11.625-0.6 c-0.149,0-0.375-0.075-0.524-0.075c-0.15-0.075-0.375-0.075-0.525-0.075c-3.45-0.3-6.75-0.75-10.125-1.274 c-0.375-0.075-0.825-0.075-1.274-0.15c-0.525-0.075-1.125-0.15-1.726-0.225h-0.375c-0.149,0-0.225-0.075-0.375-0.075 c-0.6-0.075-1.199-0.226-1.8-0.375c-0.375-0.15-0.75-0.226-1.125-0.3c-2.625-0.525-5.25-1.125-7.875-1.801 c-0.3-0.074-0.675-0.149-0.975-0.225c-0.45-0.075-0.976-0.15-1.426-0.3c-0.149-0.075-0.375-0.075-0.524-0.15 c-0.3-0.075-0.525-0.149-0.825-0.225c-1.125-0.3-2.25-0.675-3.375-1.05c-0.675-0.226-1.274-0.45-1.95-0.676 c-0.449-0.225-0.975-0.375-1.5-0.524c-0.675-0.226-1.35-0.45-2.024-0.675c-1.351-7.351-2.025-14.926-2.025-22.65V298.5 c2.7,1.125,5.4,2.175,8.101,3.15c1.425,0.524,2.925,0.975,4.35,1.425c3.225,1.05,6.375,2.024,9.6,2.774 c0.976,0.226,2.025,0.45,3.075,0.601c0.601,0.149,1.275,0.225,1.875,0.375c0.601,0.149,1.125,0.225,1.726,0.375 c2.475,0.45,5.024,0.975,7.574,1.274c-0.675-5.925-1.125-11.925-1.125-18c0-41.774,16.726-80.699,45.075-109.274 c14.55-5.851,30.45-9.075,47.101-9.075c-43.351,23.25-70.801,68.55-70.801,118.35c0,6.45,0.601,12.676,1.5,18.825h0.75 c12.45-0.524,24.75-2.925,36.601-6.899c0.675-0.226,1.35-0.45,2.024-0.676c2.25-0.675,4.426-1.425,6.601-2.324 c1.274-0.525,2.625-1.2,3.899-1.801c0.676-0.3,1.351-0.675,2.025-0.975c2.325-1.125,4.65-2.325,6.975-3.6 c0-1.65,0.226-3.301,0.375-4.95c0.075-1.05,0.226-2.025,0.301-3.075c0.074-0.6,0.074-1.275,0.074-1.875 c0.075-0.825,0.075-1.575,0.15-2.4c0-0.375,0.075-0.75,0.15-1.125c0.074-0.375,0.074-0.675,0.149-0.975 c0.601-4.725,1.425-9.375,2.4-14.025c0.075-0.225,0.075-0.524,0.149-0.75c0.075-0.449,0.226-0.975,0.301-1.425 c0-0.075,0-0.225,0.074-0.375c0.075-0.149,0.15-0.225,0.15-0.375c3.45-14.774,8.7-29.024,16.35-42.225l0.075-0.15l0.075-0.075 c0.075-0.149,0.15-0.225,0.225-0.375c2.025-3.3,4.125-6.524,6.301-9.675c0.149-0.225,0.225-0.375,0.375-0.524 c0.074-0.075,0.225-0.226,0.3-0.375c1.95-2.775,4.05-5.476,6.149-8.101c0.301-0.3,0.525-0.675,0.825-1.05 c0.3-0.45,0.675-0.9,1.05-1.35l0.226-0.301c0.074-0.149,0.149-0.225,0.225-0.3c0.375-0.45,0.75-0.825,1.125-1.2 c0.3-0.3,0.601-0.675,0.9-0.975c1.8-2.025,3.6-3.975,5.475-5.925c0.225-0.3,0.525-0.525,0.75-0.825 c0.3-0.375,0.675-0.75,0.975-1.05c0.301-0.3,0.676-0.675,0.976-0.976c0.825-0.824,1.649-1.574,2.55-2.324 c0.525-0.45,1.05-0.976,1.575-1.426c0.45-0.375,0.899-0.824,1.35-1.199s0.976-0.825,1.425-1.275 c7.575,2.7,14.775,6.075,21.601,10.125c-2.25,1.725-4.5,3.525-6.976,4.875c-0.975,0.825-1.949,1.725-2.925,2.625l-0.45,0.45 c-2.475,2.25-4.875,4.5-7.199,6.899c-0.676,0.75-1.351,1.575-2.025,2.325c-0.375,0.45-0.825,0.976-1.275,1.5 c-0.449,0.45-0.824,0.9-1.199,1.351c-1.65,1.949-3.301,3.899-4.875,5.925c5.475,2.325,10.949,4.95,16.199,8.024 c36.15,20.851,61.5,54.9,72.075,93.676c-2.325,16.274-7.725,31.574-15.675,45.3C411.825,313.95,386.325,267.525,343.2,242.625z M233.811,143.361C254.782,134.496,277.052,130,300,130c10.166,0,20.198,0.888,30.046,2.645V38c0-4.418-3.582-8-8-8h-284 c-4.418,0-8,3.582-8,8v184c0,4.418,3.582,8,8,8h106.982c8.456-18.723,20.133-35.602,34.752-50.221 C195.384,164.176,213.563,151.923,233.811,143.361z"/></svg>