<?xml version="1.0" encoding="iso-8859-1"?>
<!-- Generator: Adobe Illustrator 23.0.4, SVG Export Plug-In . SVG Version: 6.00 Build 0)  -->
<svg version="1.1" xmlns="http://www.w3.org/2000/svg" xmlns:xlink="http://www.w3.org/1999/xlink" x="0px" y="0px"
	 viewBox="0 0 480 480" style="enable-background:new 0 0 480 480;" xml:space="preserve">
<g id="Workspace">
	<path d="M153.398,379.094c4.078,0.631,8.552,0.979,13.613,0.979c1.972,0,4.035-0.054,6.131-0.158
		c24.889-1.247,35.493-8.356,50.171-18.195c1.762-1.181,3.57-2.392,5.437-3.615v-90.246h-34.38
		c-2.466,33.035-15.539,63.08-35.915,86.696c-5.782-4.822-11.133-10.146-15.983-15.903c16.393-19.497,27.021-43.97,29.385-70.785
		h-58.864c-0.325-3.709-0.492-7.463-0.492-11.255c0-3.789,0.166-7.541,0.491-11.247h58.865
		c-2.363-26.817-12.993-51.291-29.388-70.789c4.852-5.759,10.202-11.083,15.986-15.906c20.376,23.616,33.449,53.66,35.915,86.695
		h34.38V129.603c3.707-0.326,7.46-0.492,11.25-0.492c3.791,0,7.543,0.166,11.251,0.492v115.761h34.38
		c2.466-33.035,15.539-63.079,35.915-86.695c5.783,4.823,11.135,10.148,15.987,15.908c-16.388,19.497-27.017,43.97-29.38,70.787
		h58.855c0.325,3.706,0.491,7.458,0.491,11.247c0,3.792-0.166,7.546-0.492,11.255h-58.854c2.205,25.028,11.615,48.013,26.184,66.818
		c11.159,1.589,20.585,4.333,28.83,7.536C380.076,317.94,390,288.435,390,256.61c0-82.845-67.17-150-150-150
		c-82.845,0-150,67.155-150,150C90,307.187,115.04,351.921,153.398,379.094z M251.251,267.857v77.579
		c13.342-6.035,30.035-10.854,52.6-11.986c0.81-0.04,1.612-0.062,2.419-0.091c-11.567-19.421-18.861-41.684-20.639-65.502H251.251z
		 M439.551,386.583c-30.419,1.525-45.835-6.704-62.157-15.417c-17.159-9.159-36.609-19.541-72.541-17.74
		c-35.933,1.802-54.246,14.077-70.403,24.907c-15.368,10.302-29.886,20.031-60.305,21.557c-30.418,1.524-45.833-6.705-62.154-15.418
		c-17.159-9.159-36.607-19.541-72.539-17.74c-5.496,0.276-9.729,4.956-9.453,10.452s4.955,9.729,10.451,9.453
		c30.418-1.524,45.834,6.705,62.155,15.418c17.158,9.159,36.607,19.541,72.538,17.74c35.933-1.802,54.246-14.077,70.402-24.907
		c15.369-10.302,29.886-20.031,60.306-21.557c30.419-1.525,45.836,6.704,62.158,15.417c17.159,9.16,36.607,19.542,72.54,17.74
		c5.496-0.275,9.729-4.955,9.454-10.451C449.726,390.541,445.048,386.308,439.551,386.583z"/>
</g>
<g id="Guide">
</g>
</svg>
