<svg xmlns="http://www.w3.org/2000/svg" width="1000pt" height="1000pt" viewBox="0 0 1000 1000"><path d="M 319.664062 789.792969 C 328.136719 791.097656 337.429688 791.820312 347.941406 791.820312 C 352.046875 791.820312 356.347656 791.707031 360.710938 791.488281 C 412.566406 788.890625 434.65625 774.082031 465.234375 753.582031 C 467.171875 752.289062 469.136719 750.972656 471.128906 749.644531 C 426.097656 757.082031 379.980469 754.894531 335.847656 743.304688 C 309.480469 722.519531 287.128906 696.855469 270.175781 667.683594 C 357.273438 721.640625 467.523438 723.976562 557.371094 672.117188 C 568.933594 665.429688 579.554688 657.835938 589.746094 649.867188 L 589.640625 649.699219 L 589.503906 649.480469 L 589.308594 649.195312 C 589.160156 648.976562 589.011719 648.757812 588.871094 648.523438 C 574.839844 626.554688 557.621094 606.898438 538.148438 589.617188 C 536.839844 588.480469 535.542969 587.328125 534.246094 586.179688 C 530.835938 583.152344 527.421875 580.121094 523.777344 577.335938 C 521.253906 575.363281 518.570312 573.582031 515.890625 571.796875 L 515.886719 571.796875 C 514.785156 571.066406 513.679688 570.332031 512.589844 569.585938 C 508.089844 566.460938 503.496094 563.492188 498.777344 560.648438 C 495.664062 562.355469 492.421875 563.785156 489.179688 565.214844 C 487.308594 566.039062 485.441406 566.863281 483.589844 567.742188 C 482.359375 568.324219 481.164062 568.988281 479.972656 569.644531 L 479.96875 569.644531 C 478.546875 570.425781 477.128906 571.207031 475.652344 571.867188 C 474.9375 572.183594 474.195312 572.4375 473.453125 572.691406 L 473.453125 572.695312 C 472.800781 572.914062 472.15625 573.136719 471.527344 573.398438 C 462.402344 577.335938 453.121094 580.648438 443.683594 583.710938 C 443.148438 583.898438 442.609375 584.09375 442.074219 584.289062 L 442.066406 584.289062 C 441.167969 584.617188 440.261719 584.949219 439.339844 585.242188 C 438.996094 585.363281 438.628906 585.429688 438.261719 585.5 L 437.996094 585.550781 L 437.683594 585.613281 C 407.464844 594.800781 376.121094 600.082031 344.402344 600.082031 C 344.148438 600.082031 343.902344 600.066406 343.664062 600.050781 C 343.429688 600.035156 343.195312 600.019531 342.964844 600.019531 C 334.8125 599.921875 326.808594 599.425781 318.808594 598.800781 L 318.808594 598.769531 C 318.421875 598.753906 318.035156 598.695312 317.652344 598.644531 C 317.269531 598.589844 316.886719 598.53125 316.496094 598.515625 C 309.433594 597.863281 302.433594 596.921875 295.464844 595.828125 C 294.558594 595.699219 293.648438 595.597656 292.738281 595.496094 C 291.511719 595.367188 290.292969 595.230469 289.089844 595.019531 L 288.882812 594.984375 L 288.648438 594.945312 L 288.371094 594.898438 C 288.097656 594.855469 287.824219 594.816406 287.554688 594.765625 C 286.296875 594.554688 285.085938 594.253906 283.871094 593.949219 L 283.867188 593.949219 C 283.09375 593.753906 282.316406 593.558594 281.523438 593.390625 C 276.023438 592.296875 270.554688 591.109375 265.117188 589.703125 C 264.429688 589.535156 263.734375 589.390625 263.035156 589.246094 L 263.03125 589.246094 L 263.03125 589.242188 C 262.011719 589.035156 260.992188 588.824219 259.992188 588.542969 C 259.609375 588.441406 259.222656 588.351562 258.832031 588.257812 C 258.269531 588.125 257.703125 587.992188 257.148438 587.824219 C 254.761719 587.175781 252.441406 586.371094 250.117188 585.574219 C 248.757812 585.105469 247.394531 584.636719 246.023438 584.199219 C 244.957031 583.851562 243.890625 583.511719 242.824219 583.175781 C 241.402344 582.722656 239.984375 582.269531 238.570312 581.804688 C 235.808594 566.480469 234.367188 550.699219 234.367188 534.597656 C 234.367188 533.835938 234.367188 533.078125 234.378906 532.320312 C 239.882812 534.6875 245.503906 536.890625 251.195312 538.921875 C 254.164062 539.988281 257.195312 540.921875 260.226562 541.859375 C 266.820312 543.988281 273.414062 546.015625 280.164062 547.640625 C 282.292969 548.144531 284.445312 548.527344 286.59375 548.910156 C 287.914062 549.144531 289.230469 549.378906 290.539062 549.640625 C 291.738281 549.871094 292.933594 550.113281 294.132812 550.347656 C 299.359375 551.382812 304.574219 552.417969 309.914062 553.082031 C 308.507812 540.734375 307.570312 528.269531 307.570312 515.546875 C 307.570312 428.460938 342.535156 347.382812 401.523438 287.886719 C 431.910156 275.714844 465.050781 269.003906 499.726562 268.972656 C 409.386719 317.402344 352.210938 411.773438 352.210938 515.523438 C 352.210938 528.867188 353.464844 541.867188 355.308594 554.710938 C 355.585938 554.695312 355.863281 554.671875 356.132812 554.648438 C 356.410156 554.628906 356.683594 554.601562 356.960938 554.589844 C 382.960938 553.402344 408.554688 548.371094 433.210938 540.148438 C 434.601562 539.675781 435.992188 539.222656 437.386719 538.757812 C 441.996094 537.234375 446.597656 535.710938 451.085938 533.839844 C 453.851562 532.703125 456.546875 531.378906 459.246094 530.050781 L 459.25 530.050781 C 460.640625 529.367188 462.027344 528.683594 463.429688 528.027344 C 468.367188 525.683594 473.210938 523.179688 478.023438 520.523438 C 478.121094 517.035156 478.496094 513.59375 478.867188 510.148438 L 478.867188 510.140625 C 479.101562 508.035156 479.328125 505.929688 479.492188 503.808594 C 479.589844 502.511719 479.621094 501.203125 479.648438 499.890625 L 479.648438 499.886719 C 479.691406 498.214844 479.726562 496.546875 479.898438 494.898438 C 479.984375 494.097656 480.136719 493.304688 480.285156 492.519531 L 480.289062 492.519531 C 480.414062 491.863281 480.535156 491.207031 480.617188 490.554688 C 481.804688 480.679688 483.554688 470.960938 485.617188 461.273438 C 485.714844 460.757812 485.800781 460.242188 485.890625 459.722656 L 485.894531 459.722656 C 486.066406 458.726562 486.234375 457.726562 486.460938 456.742188 C 486.523438 456.476562 486.609375 456.203125 486.695312 455.929688 C 486.78125 455.652344 486.867188 455.378906 486.925781 455.113281 C 494.117188 424.335938 505.179688 394.554688 521.054688 367.085938 L 521.261719 366.773438 L 521.386719 366.589844 L 521.390625 366.589844 C 521.570312 366.328125 521.746094 366.074219 521.898438 365.800781 C 526.023438 358.835938 530.460938 352.148438 534.992188 345.585938 C 535.242188 345.214844 535.507812 344.871094 535.777344 344.527344 C 535.984375 344.261719 536.195312 343.996094 536.398438 343.707031 C 540.460938 337.925781 544.773438 332.367188 549.210938 326.863281 C 549.792969 326.132812 550.347656 325.382812 550.898438 324.628906 C 551.617188 323.644531 552.339844 322.660156 553.117188 321.738281 C 553.300781 321.523438 553.476562 321.296875 553.644531 321.078125 C 553.792969 320.886719 553.941406 320.695312 554.085938 320.519531 C 554.824219 319.644531 555.605469 318.828125 556.386719 318.015625 C 557.03125 317.347656 557.667969 316.679688 558.273438 315.988281 C 561.992188 311.738281 565.773438 307.644531 569.679688 303.617188 C 570.210938 303.070312 570.726562 302.5 571.242188 301.925781 C 571.902344 301.191406 572.570312 300.457031 573.273438 299.769531 C 573.929688 299.082031 574.617188 298.363281 575.304688 297.675781 C 577.039062 295.984375 578.84375 294.410156 580.644531 292.832031 C 581.765625 291.851562 582.886719 290.871094 583.992188 289.863281 C 584.9375 289.015625 585.878906 288.160156 586.820312 287.300781 L 586.824219 287.296875 C 587.816406 286.390625 588.808594 285.488281 589.804688 284.59375 C 605.515625 290.257812 620.546875 297.359375 634.734375 305.742188 C 629.925781 309.320312 625.25 313.066406 620.652344 316.945312 C 618.578125 318.726562 616.570312 320.570312 614.554688 322.429688 L 613.585938 323.324219 C 608.496094 327.945312 603.371094 332.632812 598.589844 337.695312 C 597.128906 339.25 595.753906 340.882812 594.371094 342.519531 C 593.472656 343.585938 592.574219 344.648438 591.652344 345.695312 C 590.847656 346.621094 590.039062 347.550781 589.226562 348.476562 C 585.734375 352.472656 582.242188 356.472656 578.996094 360.757812 C 590.402344 365.664062 601.683594 371.132812 612.683594 377.476562 C 688.121094 421.027344 740.875 491.859375 762.886719 572.707031 C 757.992188 606.648438 746.652344 638.53125 730.15625 667.078125 C 733.347656 564.65625 680.230469 468.011719 590.386719 416.121094 C 578.855469 409.496094 566.949219 404.058594 554.917969 399.214844 C 554.816406 399.417969 554.726562 399.617188 554.636719 399.816406 C 554.503906 400.117188 554.367188 400.417969 554.199219 400.714844 C 542.199219 423.84375 533.757812 448.5625 528.574219 474.027344 C 528.308594 475.34375 528.035156 476.660156 527.757812 477.972656 L 527.757812 477.976562 C 526.753906 482.832031 525.742188 487.675781 525.105469 492.621094 C 524.707031 495.613281 524.507812 498.632812 524.304688 501.640625 C 524.203125 503.160156 524.101562 504.675781 523.980469 506.1875 C 523.542969 511.65625 523.292969 517.125 523.167969 522.625 C 526.144531 524.445312 528.972656 526.515625 531.804688 528.578125 L 531.804688 528.582031 C 533.488281 529.8125 535.171875 531.042969 536.886719 532.214844 C 537.972656 532.96875 539.109375 533.660156 540.246094 534.351562 C 541.667969 535.210938 543.082031 536.074219 544.417969 537.058594 C 545.039062 537.503906 545.628906 538.007812 546.21875 538.511719 L 546.222656 538.511719 C 546.753906 538.964844 547.289062 539.425781 547.855469 539.839844 C 555.792969 545.78125 563.292969 552.152344 570.636719 558.777344 C 570.933594 559.027344 571.230469 559.273438 571.527344 559.523438 L 571.535156 559.523438 L 571.535156 559.527344 C 572.429688 560.269531 573.324219 561.011719 574.167969 561.808594 C 574.371094 561.996094 574.566406 562.199219 574.761719 562.402344 L 574.765625 562.402344 C 574.960938 562.613281 575.167969 562.824219 575.386719 563.027344 C 598.417969 584.652344 618.636719 609.121094 634.511719 636.59375 C 634.683594 636.863281 634.824219 637.152344 634.960938 637.449219 L 635.230469 638 C 639.230469 645.03125 642.761719 652.21875 646.167969 659.40625 C 646.359375 659.800781 646.523438 660.203125 646.679688 660.59375 C 646.808594 660.910156 646.933594 661.226562 647.074219 661.527344 C 650.074219 667.996094 652.730469 674.496094 655.292969 681.089844 C 655.636719 681.964844 656.011719 682.828125 656.386719 683.683594 C 656.871094 684.796875 657.355469 685.902344 657.761719 687.027344 C 657.855469 687.277344 657.957031 687.519531 658.058594 687.761719 C 658.160156 688.007812 658.261719 688.246094 658.355469 688.5 C 658.722656 689.535156 659.027344 690.589844 659.332031 691.644531 C 659.589844 692.539062 659.851562 693.429688 660.148438 694.304688 C 700.203125 695.261719 731.101562 703.046875 756.574219 712.941406 C 791.808594 662.359375 812.492188 600.894531 812.492188 534.59375 C 812.492188 362 672.554688 222.09375 499.992188 222.09375 C 327.398438 222.09375 187.492188 362 187.492188 534.59375 C 187.503906 639.996094 239.714844 733.191406 319.664062 789.792969 Z M 915.730469 805.382812 C 852.359375 808.558594 820.242188 791.414062 786.238281 773.261719 C 750.488281 754.179688 709.96875 732.550781 635.109375 736.304688 C 560.25 740.058594 522.097656 765.632812 488.4375 788.191406 C 456.417969 809.652344 426.175781 829.925781 362.800781 833.101562 C 299.429688 836.277344 267.316406 819.136719 233.316406 800.984375 C 197.566406 781.902344 157.050781 760.269531 82.191406 764.023438 C 70.742188 764.597656 61.921875 774.347656 62.496094 785.796875 C 63.070312 797.25 72.820312 806.066406 84.269531 805.492188 C 147.640625 802.316406 179.757812 819.460938 213.761719 837.613281 C 249.507812 856.695312 290.023438 878.324219 364.882812 874.574219 C 439.738281 870.820312 477.894531 845.246094 511.550781 822.683594 C 543.570312 801.222656 573.816406 780.953125 637.191406 777.773438 C 700.5625 774.597656 732.679688 791.738281 766.683594 809.890625 C 802.433594 828.972656 842.949219 850.605469 917.808594 846.851562 C 929.261719 846.277344 938.078125 836.527344 937.507812 825.078125 C 936.929688 813.625 927.179688 804.808594 915.730469 805.382812 Z M 915.730469 805.382812"/></svg>