<?xml version="1.0" encoding="iso-8859-1"?>
<!-- Generator: Adobe Illustrator 23.0.4, SVG Export Plug-In . SVG Version: 6.00 Build 0)  -->
<svg version="1.1" xmlns="http://www.w3.org/2000/svg" xmlns:xlink="http://www.w3.org/1999/xlink" x="0px" y="0px"
	 viewBox="0 0 480 480" style="enable-background:new 0 0 480 480;" xml:space="preserve">
<g id="Workspace">
	<path d="M153.439,379.1c4.067,0.627,8.528,0.973,13.572,0.973c1.972,0,4.035-0.054,6.131-0.158
		c24.889-1.247,35.493-8.356,50.171-18.195c0.929-0.622,1.872-1.254,2.828-1.891c-21.615,3.57-43.75,2.521-64.935-3.042
		c-12.656-9.977-23.385-22.296-31.522-36.298c41.808,25.898,94.728,27.02,137.854,2.128c5.55-3.21,10.649-6.855,15.54-10.68
		l-0.051-0.082l-0.066-0.104l-0.093-0.138c-0.071-0.105-0.142-0.21-0.21-0.322c-6.734-10.545-15-19.979-24.346-28.274
		c-0.628-0.546-1.251-1.1-1.874-1.651c-1.636-1.453-3.276-2.907-5.025-4.244c-1.212-0.947-2.499-1.802-3.786-2.659h-0.002
		c-0.528-0.351-1.058-0.704-1.582-1.061c-2.159-1.5-4.364-2.925-6.63-4.29c-1.495,0.818-3.05,1.504-4.606,2.191h-0.001
		c-0.897,0.396-1.794,0.792-2.683,1.214c-0.59,0.279-1.164,0.597-1.737,0.912h-0.001v0.001c-0.683,0.374-1.364,0.749-2.072,1.066
		c-0.343,0.152-0.7,0.274-1.056,0.396v0.001c-0.312,0.106-0.622,0.213-0.923,0.339c-4.381,1.89-8.836,3.479-13.365,4.949
		c-0.258,0.09-0.516,0.184-0.773,0.277h-0.003l-0.001,0.001c-0.432,0.158-0.867,0.316-1.308,0.457
		c-0.165,0.059-0.343,0.091-0.519,0.124l-0.126,0.024l-0.151,0.031c-14.504,4.409-29.55,6.945-44.775,6.945
		c-0.121,0-0.239-0.008-0.355-0.016c-0.112-0.007-0.224-0.015-0.334-0.015c-3.914-0.046-7.755-0.284-11.595-0.585v-0.015
		c-0.187-0.008-0.372-0.035-0.555-0.06c-0.185-0.026-0.368-0.054-0.556-0.061c-3.39-0.314-6.75-0.765-10.095-1.291
		c-0.434-0.062-0.872-0.11-1.308-0.159h-0.001c-0.588-0.062-1.174-0.128-1.751-0.229l-0.1-0.017l-0.112-0.019l-0.132-0.021
		c-0.133-0.021-0.263-0.04-0.392-0.064c-0.604-0.101-1.186-0.246-1.769-0.392h-0.001v-0.001c-0.372-0.094-0.745-0.186-1.125-0.268
		c-2.641-0.525-5.266-1.095-7.875-1.77c-0.33-0.08-0.665-0.149-1.001-0.219h-0.001v-0.002c-0.489-0.1-0.979-0.201-1.458-0.336
		c-0.185-0.048-0.37-0.092-0.558-0.136c-0.27-0.064-0.542-0.128-0.808-0.208c-1.146-0.312-2.26-0.697-3.375-1.08
		c-0.653-0.225-1.307-0.45-1.965-0.661c-0.512-0.166-1.024-0.329-1.535-0.491c-0.682-0.218-1.364-0.434-2.042-0.658
		c-1.326-7.355-2.017-14.93-2.017-22.66c0-0.364,0-0.729,0.004-1.093c2.643,1.137,5.34,2.195,8.072,3.17
		c1.426,0.511,2.881,0.96,4.335,1.41c3.165,1.021,6.33,1.995,9.57,2.775c1.022,0.241,2.056,0.425,3.087,0.609
		c0.633,0.112,1.266,0.225,1.893,0.351c0.576,0.111,1.151,0.226,1.726,0.339c2.509,0.497,5.012,0.994,7.575,1.312
		c-0.676-5.926-1.125-11.91-1.125-18.016c0-41.801,16.783-80.72,45.097-109.277c14.586-5.842,30.493-9.064,47.138-9.08
		c-43.363,23.248-70.807,68.545-70.807,118.346c0,6.404,0.602,12.645,1.486,18.81c0.134-0.009,0.266-0.019,0.396-0.03
		c0.132-0.011,0.264-0.023,0.398-0.029c12.479-0.57,24.765-2.985,36.6-6.931c0.667-0.227,1.335-0.446,2.003-0.668
		c2.214-0.732,4.422-1.463,6.577-2.361c1.326-0.545,2.62-1.181,3.916-1.818h0.002c0.667-0.328,1.334-0.656,2.007-0.972
		c2.37-1.125,4.694-2.326,7.005-3.601c0.047-1.675,0.227-3.327,0.405-4.981v-0.003c0.111-1.011,0.22-2.022,0.3-3.04
		c0.046-0.622,0.062-1.251,0.074-1.881v-0.001c0.02-0.802,0.037-1.604,0.12-2.394c0.041-0.385,0.114-0.765,0.185-1.142h0.002v-0.001
		c0.06-0.314,0.118-0.629,0.159-0.942c0.569-4.74,1.41-9.405,2.4-14.055c0.046-0.248,0.088-0.496,0.131-0.745v-0.001h0.001
		c0.082-0.477,0.164-0.957,0.273-1.429c0.029-0.128,0.07-0.259,0.111-0.391c0.042-0.132,0.083-0.264,0.112-0.391
		c3.451-14.774,8.761-29.069,16.381-42.254l0.099-0.149l0.061-0.089h0.001c0.086-0.125,0.171-0.248,0.245-0.378
		c1.979-3.344,4.109-6.554,6.285-9.704c0.119-0.178,0.246-0.343,0.377-0.508c0.099-0.128,0.199-0.255,0.298-0.393
		c1.95-2.775,4.02-5.444,6.149-8.085c0.279-0.352,0.545-0.712,0.81-1.073c0.346-0.473,0.692-0.945,1.065-1.387
		c0.088-0.104,0.172-0.212,0.254-0.318c0.071-0.092,0.141-0.183,0.212-0.267c0.354-0.42,0.729-0.813,1.104-1.203
		c0.309-0.321,0.614-0.64,0.905-0.972c1.785-2.04,3.6-4.005,5.475-5.939c0.255-0.263,0.503-0.536,0.75-0.811
		c0.318-0.353,0.638-0.706,0.976-1.035c0.314-0.33,0.645-0.675,0.975-1.005c0.831-0.813,1.698-1.569,2.562-2.325
		c0.539-0.471,1.077-0.941,1.607-1.425c0.454-0.408,0.906-0.819,1.357-1.23l0.003-0.003c0.476-0.434,0.952-0.867,1.43-1.297
		c7.542,2.718,14.756,6.127,21.566,10.151c-2.307,1.717-4.552,3.515-6.759,5.378c-0.996,0.854-1.959,1.74-2.926,2.633l-0.465,0.428
		c-2.443,2.219-4.904,4.469-7.199,6.899c-0.701,0.746-1.361,1.529-2.025,2.316c-0.431,0.511-0.862,1.022-1.305,1.523
		c-0.387,0.446-0.774,0.892-1.164,1.336c-1.676,1.917-3.353,3.837-4.91,5.894c5.474,2.355,10.889,4.98,16.17,8.026
		c36.209,20.905,61.531,54.904,72.097,93.711c-2.35,16.291-7.793,31.595-15.711,45.298c1.531-49.163-23.964-95.553-67.09-120.459
		c-5.535-3.18-11.25-5.79-17.025-8.116c-0.048,0.097-0.092,0.193-0.135,0.288c-0.064,0.145-0.129,0.289-0.21,0.433
		c-5.76,11.101-9.811,22.966-12.3,35.19c-0.127,0.631-0.259,1.263-0.391,1.893v0.001c-0.483,2.331-0.968,4.657-1.274,7.03
		c-0.19,1.437-0.287,2.886-0.383,4.329c-0.049,0.729-0.098,1.457-0.157,2.183c-0.21,2.625-0.33,5.25-0.39,7.89
		c1.43,0.874,2.787,1.867,4.146,2.858v0.001h0.001v0.001c0.808,0.59,1.616,1.18,2.438,1.744c0.521,0.361,1.067,0.693,1.614,1.025
		c0.681,0.412,1.361,0.826,2.001,1.299c0.299,0.213,0.582,0.455,0.865,0.697v0.001h0.001c0.256,0.218,0.513,0.438,0.785,0.637
		c3.809,2.852,7.409,5.911,10.934,9.091c0.144,0.119,0.286,0.238,0.429,0.358h0.002v0.001c0.43,0.356,0.859,0.713,1.265,1.095
		c0.097,0.091,0.19,0.188,0.285,0.285h0.001c0.095,0.102,0.193,0.203,0.299,0.301c11.055,10.38,20.76,22.125,28.38,35.311
		c0.083,0.129,0.149,0.269,0.215,0.41v0.001l0.13,0.264c1.92,3.375,3.615,6.825,5.25,10.275c0.092,0.19,0.17,0.383,0.246,0.57
		c0.062,0.152,0.122,0.303,0.189,0.449c1.439,3.105,2.715,6.225,3.945,9.39c0.164,0.42,0.345,0.833,0.524,1.244
		c0.233,0.534,0.466,1.065,0.66,1.606c0.045,0.12,0.094,0.236,0.143,0.352c0.048,0.117,0.098,0.233,0.143,0.354
		c0.176,0.497,0.323,1.004,0.469,1.51c0.124,0.429,0.249,0.856,0.392,1.277c19.225,0.459,34.056,4.195,46.284,8.945
		c16.913-24.279,26.841-53.782,26.841-85.607c0-82.845-67.171-150-150-150c-82.846,0-150,67.155-150,150
		C90.001,307.199,115.063,351.931,153.439,379.1z M439.551,386.583c-30.419,1.525-45.835-6.704-62.157-15.417
		c-17.159-9.159-36.609-19.542-72.541-17.74c-35.933,1.802-54.246,14.077-70.403,24.906c-15.369,10.302-29.886,20.032-60.305,21.557
		c-30.418,1.525-45.833-6.704-62.154-15.417c-17.159-9.159-36.607-19.542-72.539-17.74c-5.496,0.275-9.729,4.955-9.453,10.451
		c0.275,5.497,4.955,9.729,10.451,9.454c30.418-1.525,45.834,6.704,62.155,15.417c17.159,9.16,36.607,19.542,72.538,17.741
		c35.932-1.802,54.246-14.077,70.402-24.907c15.369-10.302,29.886-20.031,60.306-21.557c30.419-1.525,45.836,6.704,62.158,15.417
		c17.159,9.159,36.607,19.542,72.54,17.74c5.496-0.275,9.729-4.955,9.454-10.451C449.726,390.54,445.047,386.308,439.551,386.583z"
		/>
</g>
<g id="Guide">
</g>
</svg>
