<?xml version="1.0" encoding="iso-8859-1"?>
<!-- Generator: Adobe Illustrator 23.0.4, SVG Export Plug-In . SVG Version: 6.00 Build 0)  -->
<svg version="1.1" xmlns="http://www.w3.org/2000/svg" xmlns:xlink="http://www.w3.org/1999/xlink" x="0px" y="0px"
	 viewBox="0 0 480 480" style="enable-background:new 0 0 480 480;" xml:space="preserve">
<g id="Layer_4_copy">
	<path d="M435.377,225H410v-95c0-22.092-17.908-40-39.999-40H370c-22.091,0-40,17.908-40,40v95H150v-95
		c0-22.092-17.908-40-39.999-40H110c-22.091,0-40,17.908-40,40v95H45c-8.284,0-15,6.716-15,15s6.716,15,15,15h25v95
		c0,22.092,17.909,40,40,40h0.001C132.091,390,150,372.092,150,350v-95h180v95c0,22.092,17.909,40,40,40h0.001
		C392.091,390,410,372.092,410,350v-95h25.377c8.284,0,15-6.716,15-15S443.661,225,435.377,225z"/>
</g>
<g id="Guides">
</g>
</svg>
