<svg xmlns="http://www.w3.org/2000/svg" width="1000pt" height="1000pt" viewBox="0 0 1000 1000"><path d="M 907.035156 468.75 L 854.167969 468.75 L 854.167969 270.832031 C 854.167969 224.808594 816.859375 187.5 770.835938 187.5 L 770.832031 187.5 C 724.808594 187.5 687.5 224.808594 687.5 270.832031 L 687.5 468.75 L 312.5 468.75 L 312.5 270.832031 C 312.5 224.808594 275.191406 187.5 229.167969 187.5 C 183.144531 187.5 145.832031 224.808594 145.832031 270.832031 L 145.832031 468.75 L 93.75 468.75 C 76.492188 468.75 62.5 482.742188 62.5 500 C 62.5 517.257812 76.492188 531.25 93.75 531.25 L 145.832031 531.25 L 145.832031 729.167969 C 145.832031 775.191406 183.144531 812.5 229.167969 812.5 C 275.191406 812.5 312.5 775.191406 312.5 729.167969 L 312.5 531.25 L 687.5 531.25 L 687.5 729.167969 C 687.5 775.191406 724.808594 812.5 770.832031 812.5 L 770.835938 812.5 C 816.855469 812.5 854.167969 775.191406 854.167969 729.167969 L 854.167969 531.25 L 907.035156 531.25 C 924.292969 531.25 938.285156 517.257812 938.285156 500 C 938.285156 482.742188 924.292969 468.75 907.035156 468.75 Z M 907.035156 468.75"/></svg>