<svg xmlns="http://www.w3.org/2000/svg" viewBox="0 0 480 480"><path d="M214.525,102.761c21.019-7.65,31.856-30.891,24.206-51.909s-30.891-31.856-51.909-24.206s-31.856,30.891-24.206,51.909 S193.507,110.411,214.525,102.761z M274.931,65.422c-0.176-0.484-0.33-0.973-0.491-1.459C271.668,67.395,270,71.757,270,76.512 l-0.004,31.64l-103.284,17.217l-0.253,0.056c-0.466,0.084-0.924,0.187-1.377,0.301c-0.19,0.049-0.382,0.094-0.57,0.147 c-0.455,0.129-0.898,0.279-1.338,0.438c-0.186,0.066-0.373,0.131-0.556,0.203c-0.421,0.166-0.829,0.354-1.233,0.546 c-0.19,0.091-0.383,0.178-0.57,0.274c-0.385,0.199-0.757,0.416-1.125,0.639c-0.188,0.113-0.379,0.223-0.562,0.342 c-0.362,0.234-0.71,0.486-1.055,0.744c-0.169,0.125-0.34,0.246-0.505,0.377c-0.353,0.28-0.689,0.577-1.021,0.88 c-0.136,0.124-0.275,0.243-0.408,0.371c-0.349,0.337-0.681,0.688-1.004,1.048c-0.097,0.108-0.198,0.213-0.293,0.323 c-0.341,0.396-0.662,0.809-0.97,1.229l-0.193,0.258c-0.317,0.449-0.614,0.914-0.895,1.388l-0.13,0.214 c-0.277,0.483-0.531,0.98-0.768,1.486l-0.11,0.229c-0.224,0.493-0.421,0.998-0.604,1.51c-0.037,0.104-0.078,0.206-0.113,0.311 c-0.163,0.48-0.301,0.971-0.428,1.465c-0.038,0.15-0.08,0.299-0.115,0.449c-0.105,0.456-0.187,0.919-0.26,1.384 c-0.031,0.2-0.066,0.397-0.092,0.6c-0.056,0.438-0.089,0.881-0.114,1.325c-0.014,0.228-0.029,0.454-0.035,0.684 c-0.004,0.17-0.025,0.335-0.025,0.506v120c0,11.046,8.954,20,20,20h30.686c34.456,0,62.488,28.032,62.488,62.488 s-28.032,62.488-62.488,62.488s-62.488-28.032-62.488-62.488c0-10.269,2.403-20.043,7.144-29.05 c5.145-9.774,1.391-21.869-8.384-27.013c-9.773-5.146-21.868-1.392-27.013,8.384c-7.686,14.602-11.747,31.089-11.747,47.679 c0,56.513,45.976,102.488,102.488,102.488s102.488-45.976,102.488-102.488c0-38.647-21.505-72.362-53.174-89.819V152.038 l43.294-7.217c9.643-1.607,16.711-9.949,16.712-19.726l0.004-28.227C294.073,92.93,280.7,81.272,274.931,65.422z M350.105,38.06 c-0.25-0.687-0.529-1.354-0.823-2.01c-0.06-0.134-0.119-0.268-0.181-0.399c-0.298-0.643-0.613-1.272-0.951-1.884l-0.113-0.195 c-0.318-0.565-0.654-1.115-1.006-1.653c-0.069-0.107-0.138-0.216-0.209-0.322c-0.382-0.569-0.781-1.124-1.198-1.662 c-0.072-0.093-0.147-0.184-0.22-0.275c-0.39-0.489-0.792-0.966-1.208-1.428l-0.184-0.207c-0.458-0.498-0.934-0.977-1.422-1.44 c-0.099-0.095-0.2-0.187-0.3-0.278c-0.488-0.451-0.986-0.889-1.501-1.305l-0.045-0.039c-0.529-0.425-1.075-0.826-1.631-1.214 c-0.115-0.081-0.23-0.161-0.347-0.239c-0.557-0.378-1.122-0.74-1.702-1.08l-0.129-0.071c-0.549-0.317-1.109-0.613-1.677-0.896 c-0.12-0.06-0.239-0.12-0.359-0.178c-0.598-0.287-1.202-0.556-1.817-0.803c-0.101-0.04-0.203-0.076-0.306-0.116 c-0.559-0.218-1.125-0.419-1.697-0.603c-0.107-0.034-0.214-0.072-0.321-0.105c-0.631-0.195-1.27-0.367-1.913-0.521 c-0.135-0.032-0.271-0.061-0.405-0.091c-0.607-0.136-1.218-0.257-1.834-0.354l-0.192-0.033c-0.66-0.101-1.326-0.174-1.994-0.23 c-0.151-0.013-0.303-0.023-0.454-0.034c-0.676-0.047-1.353-0.078-2.033-0.078c-0.455-0.001-0.911,0.011-1.368,0.031 c-0.137,0.006-0.273,0.019-0.41,0.026c-0.328,0.02-0.656,0.041-0.984,0.071c-0.17,0.016-0.34,0.036-0.51,0.056 c-0.297,0.032-0.594,0.067-0.891,0.109c-0.179,0.024-0.357,0.053-0.537,0.082c-0.291,0.046-0.583,0.097-0.875,0.152 c-0.177,0.033-0.353,0.067-0.529,0.104c-0.303,0.063-0.605,0.133-0.908,0.206c-0.161,0.039-0.323,0.076-0.485,0.118 c-0.34,0.088-0.68,0.186-1.02,0.286c-0.122,0.036-0.244,0.068-0.366,0.106c-0.466,0.145-0.932,0.299-1.395,0.468 c-10.704,3.896-17.843,13.25-19.418,23.775c-0.629,4.197-0.365,8.581,0.903,12.879c0.178,0.601,0.368,1.2,0.585,1.797 c0.247,0.679,0.523,1.338,0.813,1.987c0.066,0.147,0.132,0.295,0.199,0.44c0.294,0.631,0.604,1.251,0.936,1.853l0.142,0.242 c0.308,0.545,0.632,1.076,0.97,1.596c0.078,0.119,0.153,0.24,0.232,0.358c0.377,0.562,0.771,1.108,1.181,1.638 c0.081,0.104,0.164,0.204,0.245,0.307c0.379,0.476,0.771,0.938,1.175,1.388l0.208,0.235c0.453,0.492,0.923,0.966,1.406,1.424 c0.105,0.101,0.213,0.199,0.319,0.297c0.479,0.441,0.966,0.871,1.47,1.279l0.07,0.059c0.524,0.422,1.067,0.82,1.618,1.205 c0.119,0.084,0.239,0.167,0.36,0.248c0.554,0.375,1.115,0.736,1.691,1.073l0.145,0.081c0.544,0.313,1.1,0.607,1.662,0.887 c0.121,0.061,0.242,0.122,0.365,0.181c0.339,0.163,0.688,0.306,1.032,0.456c0.261,0.113,0.518,0.238,0.781,0.345 c0.102,0.041,0.205,0.078,0.308,0.118c0.56,0.217,1.125,0.418,1.697,0.602c0.106,0.035,0.213,0.072,0.32,0.105 c0.632,0.195,1.271,0.368,1.914,0.521c0.134,0.032,0.269,0.061,0.403,0.091c0.608,0.136,1.222,0.257,1.84,0.355l0.187,0.032 c0.661,0.102,1.328,0.174,1.997,0.23c0.15,0.013,0.301,0.023,0.452,0.034c0.675,0.047,1.354,0.078,2.034,0.078 c0.455,0.001,0.911-0.011,1.368-0.031c0.136-0.006,0.272-0.019,0.408-0.026c0.328-0.02,0.656-0.041,0.984-0.071 c0.171-0.016,0.342-0.036,0.513-0.056c0.296-0.032,0.591-0.067,0.887-0.108c0.181-0.025,0.361-0.054,0.542-0.083 c0.289-0.046,0.577-0.096,0.865-0.15c0.182-0.035,0.362-0.07,0.543-0.107c0.295-0.062,0.589-0.129,0.883-0.2 c0.171-0.041,0.343-0.081,0.514-0.125c0.319-0.083,0.638-0.175,0.956-0.269c0.145-0.042,0.29-0.081,0.435-0.126 c0.461-0.144,0.921-0.296,1.38-0.463C347.745,70.844,355.772,53.629,350.105,38.06z"/></svg>