<?xml version="1.0" encoding="iso-8859-1"?>
<!-- Generator: Adobe Illustrator 23.0.4, SVG Export Plug-In . SVG Version: 6.00 Build 0)  -->
<svg version="1.1" xmlns="http://www.w3.org/2000/svg" xmlns:xlink="http://www.w3.org/1999/xlink" x="0px" y="0px"
	 viewBox="0 0 480 480" style="enable-background:new 0 0 480 480;" xml:space="preserve">
<g id="Workspace">
	<path d="M243.954,103.011c21.019-7.65,31.855-30.891,24.206-51.909c-7.65-21.019-30.892-31.855-51.91-24.206
		c-21.019,7.65-31.855,30.891-24.205,51.909C199.694,99.824,222.936,110.661,243.954,103.011z M406.358,169.009l-57.126-40
		c-3.362-2.354-7.367-3.617-11.472-3.617h-67.952c-0.091-0.001-0.179-0.014-0.271-0.014h-60c-0.092,0-0.18,0.013-0.271,0.014H140.33
		l-25.211-37.815c-3.22,0.724-6.505,1.091-9.818,1.091c-12.522,0-24.223-5.259-32.559-13.981
		c-4.099,6.473-4.282,15.012,0.242,21.798l40.001,60.002c3.709,5.564,9.953,8.906,16.641,8.906h59.912v99.986
		c0,11.046,8.954,20,20,20h30.727c34.457,0,62.489,28.032,62.489,62.488s-28.032,62.488-62.489,62.488
		c-34.456,0-62.488-28.032-62.488-62.488c0-10.269,2.403-20.043,7.145-29.05c5.145-9.774,1.392-21.869-8.383-27.014
		c-9.776-5.145-21.87-1.391-27.014,8.383c-7.686,14.603-11.748,31.09-11.748,47.681c0,56.513,45.976,102.488,102.488,102.488
		s102.489-45.976,102.489-102.488c0-38.664-21.523-72.392-53.216-89.843v-92.632h41.917l51.96,36.383
		c3.492,2.445,7.492,3.619,11.454,3.619c6.305-0.001,12.51-2.975,16.4-8.53C417.605,187.815,415.406,175.344,406.358,169.009z
		 M77.922,55.909c0.065,0.146,0.13,0.291,0.197,0.435c0.295,0.634,0.605,1.256,0.939,1.859l0.132,0.228
		c0.312,0.552,0.641,1.09,0.983,1.616c0.074,0.114,0.146,0.23,0.223,0.343c0.379,0.565,0.775,1.116,1.188,1.649
		c0.076,0.099,0.155,0.193,0.233,0.291c0.384,0.482,0.78,0.953,1.191,1.408l0.194,0.221c0.456,0.495,0.93,0.972,1.415,1.434
		c0.102,0.096,0.206,0.191,0.309,0.286l0.261,0.227c0.402,0.363,0.805,0.726,1.225,1.065l0.059,0.049
		c0.526,0.424,1.07,0.823,1.623,1.209c0.118,0.083,0.237,0.165,0.356,0.246c0.554,0.375,1.117,0.737,1.693,1.074l0.144,0.08
		c0.544,0.313,1.099,0.606,1.66,0.886c0.123,0.062,0.246,0.124,0.37,0.184c0.594,0.285,1.197,0.553,1.809,0.799
		c0.105,0.042,0.212,0.08,0.316,0.12c0.556,0.217,1.117,0.416,1.684,0.598c0.11,0.036,0.22,0.074,0.331,0.109
		c0.628,0.193,1.264,0.366,1.905,0.52c0.139,0.033,0.278,0.062,0.417,0.094c0.603,0.135,1.209,0.254,1.82,0.352l0.201,0.035
		c0.658,0.1,1.321,0.173,1.987,0.229c0.155,0.014,0.31,0.025,0.464,0.035c0.673,0.047,1.349,0.078,2.026,0.078l0.021,0.001
		c0.163,0,0.327-0.008,0.49-0.011l-0.001-0.002c0.287-0.004,0.574-0.006,0.862-0.02c0.134-0.006,0.269-0.018,0.402-0.025
		c0.328-0.02,0.656-0.041,0.985-0.072c0.176-0.016,0.351-0.037,0.526-0.057c0.289-0.032,0.579-0.066,0.868-0.106
		c0.188-0.026,0.376-0.057,0.563-0.087c0.279-0.044,0.559-0.093,0.838-0.146c0.189-0.036,0.38-0.073,0.569-0.112
		c0.282-0.059,0.564-0.124,0.846-0.191c0.184-0.044,0.367-0.087,0.551-0.135c0.305-0.078,0.608-0.166,0.913-0.256
		c0.156-0.046,0.313-0.088,0.471-0.137c0.459-0.143,0.917-0.295,1.374-0.461c0.486-0.178,0.966-0.365,1.438-0.564
		c0.943-0.398,1.856-0.841,2.737-1.323c0.44-0.241,0.873-0.492,1.298-0.753c8.917-5.479,14.255-15.22,14.274-25.495
		c0.007-3.425-0.578-6.909-1.817-10.315c-0.247-0.679-0.524-1.338-0.813-1.988c-0.066-0.146-0.132-0.293-0.199-0.439
		c-0.294-0.631-0.604-1.25-0.936-1.853l-0.142-0.243c-0.308-0.545-0.632-1.076-0.97-1.596c-0.078-0.119-0.153-0.239-0.232-0.357
		c-0.377-0.561-0.771-1.107-1.181-1.637c-0.081-0.105-0.165-0.206-0.247-0.309c-0.378-0.477-0.769-0.939-1.173-1.388l-0.207-0.233
		c-0.453-0.492-0.923-0.966-1.405-1.424c-0.106-0.102-0.215-0.201-0.323-0.301c-0.476-0.439-0.962-0.866-1.464-1.272l-0.075-0.063
		c-0.523-0.421-1.064-0.818-1.614-1.202c-0.121-0.085-0.243-0.17-0.366-0.253c-0.552-0.374-1.112-0.734-1.687-1.069l-0.154-0.087
		c-0.54-0.311-1.091-0.603-1.648-0.879c-0.125-0.062-0.249-0.126-0.375-0.187c-0.594-0.284-1.195-0.552-1.807-0.798
		c-0.105-0.042-0.212-0.08-0.318-0.121c-0.554-0.215-1.114-0.414-1.681-0.597c-0.111-0.036-0.222-0.075-0.333-0.109
		c-0.629-0.194-1.265-0.366-1.906-0.52c-0.137-0.032-0.275-0.062-0.414-0.093c-0.604-0.135-1.213-0.255-1.826-0.353l-0.195-0.034
		c-0.659-0.101-1.324-0.174-1.991-0.23c-0.153-0.013-0.307-0.023-0.46-0.034c-0.673-0.047-1.35-0.077-2.028-0.078
		c-0.457-0.001-0.915,0.011-1.373,0.031c-0.131,0.006-0.261,0.018-0.392,0.025c-0.333,0.02-0.666,0.042-1,0.072
		c-0.169,0.016-0.338,0.036-0.507,0.055c-0.298,0.033-0.595,0.068-0.893,0.11c-0.18,0.025-0.358,0.053-0.537,0.082
		c-0.291,0.046-0.581,0.096-0.871,0.151c-0.18,0.034-0.359,0.069-0.538,0.106c-0.296,0.062-0.591,0.129-0.885,0.2
		c-0.172,0.041-0.343,0.081-0.515,0.125c-0.318,0.083-0.637,0.175-0.955,0.268c-0.145,0.043-0.29,0.082-0.435,0.127
		c-0.461,0.144-0.921,0.296-1.38,0.463C79.469,21.135,71.441,38.35,77.107,53.919C77.354,54.599,77.632,55.259,77.922,55.909z"/>
</g>
<g id="Guide">
</g>
</svg>
