<svg xmlns="http://www.w3.org/2000/svg" width="1000pt" height="1000pt" viewBox="0 0 1000 1000"><path d="M 602.863281 252.304688 C 649.433594 253.941406 688.511719 217.519531 690.148438 170.945312 C 691.789062 124.375 655.363281 85.296875 608.792969 83.660156 C 562.222656 82.023438 523.140625 118.449219 521.503906 165.019531 C 519.867188 211.585938 556.292969 250.667969 602.863281 252.304688 Z M 768.367188 624.992188 L 667.246094 344.128906 C 664.972656 337.800781 661.1875 332.230469 656.363281 327.753906 C 652.203125 323 646.929688 319.101562 640.675781 316.570312 L 521.636719 268.445312 C 519.359375 267.523438 517.050781 266.863281 514.730469 266.363281 L 514.359375 266.277344 C 513.753906 266.148438 513.144531 266.050781 512.535156 265.949219 C 512.304688 265.910156 512.074219 265.859375 511.847656 265.824219 L 285.957031 232.417969 C 274.347656 230.707031 262.574219 233.953125 253.496094 241.375 C 244.417969 248.792969 238.886719 259.695312 238.257812 271.398438 L 229.226562 439.339844 C 227.988281 462.320312 245.617188 481.949219 268.59375 483.183594 C 291.605469 484.472656 311.203125 466.792969 312.4375 443.816406 L 319.011719 321.546875 L 447.539062 340.554688 L 372.902344 525.160156 C 364.277344 546.492188 374.582031 570.78125 395.914062 579.40625 L 460.804688 605.644531 C 490.492188 619.175781 513.714844 642.96875 526.535156 673.195312 C 540.117188 705.207031 540.417969 740.589844 527.382812 772.828125 C 514.347656 805.070312 489.539062 830.300781 457.527344 843.878906 C 425.515625 857.460938 390.132812 857.761719 357.894531 844.726562 C 291.347656 817.820312 259.089844 741.785156 285.996094 675.238281 C 294.015625 655.402344 306.292969 638.398438 322.480469 624.707031 C 340.050781 609.84375 342.242188 583.554688 327.382812 565.984375 C 312.523438 548.414062 286.234375 546.222656 268.660156 561.082031 C 242.417969 583.28125 221.695312 611.953125 208.738281 644 C 164.609375 753.152344 217.511719 877.855469 326.660156 921.984375 C 352.527344 932.445312 379.628906 937.664062 406.714844 937.664062 C 434.992188 937.664062 463.257812 931.972656 490.074219 920.597656 C 542.578125 898.324219 583.265625 856.933594 604.640625 804.0625 C 624.269531 755.507812 625.445312 702.613281 608.265625 653.632812 C 587.265625 650.574219 568.066406 640.570312 553.386719 624.820312 C 553.171875 624.589844 552.976562 624.351562 552.765625 624.121094 C 536.105469 605.894531 527.402344 582.320312 528.273438 557.605469 C 528.375 554.707031 528.617188 551.832031 528.980469 548.984375 C 531.664062 527.835938 541.394531 508.34375 556.914062 493.390625 C 574.476562 476.464844 597.566406 467.148438 621.925781 467.148438 C 622.273438 467.148438 622.625 467.164062 622.976562 467.167969 C 623.554688 467.171875 624.136719 467.179688 624.71875 467.199219 L 625.261719 467.207031 C 650.289062 468.085938 673.472656 478.660156 690.546875 496.976562 C 707.617188 515.296875 716.539062 539.167969 715.660156 564.195312 C 714.800781 588.636719 704.628906 611.441406 687.019531 628.410156 C 685.550781 629.824219 684.03125 631.164062 682.488281 632.46875 L 689.960938 653.222656 C 696.082031 670.210938 712.089844 680.785156 729.167969 680.785156 C 733.851562 680.785156 738.617188 679.988281 743.277344 678.308594 C 764.933594 670.519531 776.167969 646.644531 768.367188 624.992188 Z M 634.695312 499.71875 C 631.277344 499.011719 627.765625 498.566406 624.164062 498.441406 C 623.417969 498.414062 622.667969 498.398438 621.925781 498.398438 C 618.46875 498.398438 615.078125 498.699219 611.765625 499.242188 C 582.988281 503.972656 560.570312 528.4375 559.507812 558.703125 C 559.285156 565.015625 560.015625 571.144531 561.554688 576.949219 C 563.609375 584.691406 567.121094 591.855469 571.785156 598.132812 C 576.703125 604.757812 582.90625 610.390625 590.046875 614.640625 C 598.777344 619.835938 608.898438 622.980469 619.773438 623.363281 C 620.519531 623.390625 621.265625 623.402344 622.007812 623.402344 C 641.640625 623.402344 659.285156 614.273438 670.773438 599.925781 C 678.890625 589.796875 683.9375 577.066406 684.429688 563.097656 C 685.515625 532.203125 663.984375 505.773438 634.695312 499.71875 Z M 634.695312 499.71875"/></svg>