<svg xmlns="http://www.w3.org/2000/svg" viewBox="0 0 480 480"><path d="M289.375,121.107c22.354,0.785,41.111-16.698,41.897-39.053c0.786-22.354-16.698-41.111-39.052-41.897 s-41.112,16.698-41.898,39.052C249.537,101.562,267.021,120.321,289.375,121.107z M368.817,299.997l-48.538-134.815 c-1.093-3.037-2.909-5.711-5.225-7.861c-1.997-2.281-4.528-4.153-7.53-5.367l-57.138-23.101c-1.093-0.442-2.202-0.759-3.316-0.999 l-0.178-0.041c-0.29-0.062-0.583-0.109-0.876-0.158c-0.11-0.019-0.22-0.043-0.33-0.06l-108.426-16.034 c-5.573-0.821-11.225,0.737-15.581,4.299c-4.358,3.561-7.014,8.793-7.315,14.412l-4.335,80.611 c-0.594,11.03,7.867,20.452,18.896,21.045c11.045,0.618,20.452-7.867,21.045-18.896l3.156-58.689l61.692,9.124l-35.825,88.61 c-4.14,10.24,0.806,21.898,11.046,26.038l31.148,12.594c14.25,6.496,25.396,17.916,31.55,32.424 c6.519,15.366,6.663,32.351,0.406,47.825c-6.256,15.475-18.164,27.586-33.529,34.104c-15.367,6.52-32.351,6.663-47.825,0.406 c-31.943-12.915-47.425-49.411-34.511-81.354c3.85-9.521,9.742-17.682,17.513-24.255c8.433-7.134,9.486-19.753,2.353-28.187 c-7.133-8.433-19.752-9.486-28.187-2.353c-12.597,10.656-22.543,24.419-28.763,39.801c-21.181,52.393,4.211,112.25,56.602,133.432 c12.418,5.021,25.426,7.527,38.428,7.527c13.573,0,27.14-2.733,40.011-8.193c25.202-10.691,44.732-30.557,54.993-55.936 c9.422-23.306,9.985-48.696,1.739-72.206c-10.079-1.469-19.296-6.271-26.341-13.83c-0.103-0.11-0.197-0.226-0.299-0.336 c-7.996-8.748-12.173-20.064-11.756-31.927c0.049-1.392,0.166-2.772,0.339-4.139c1.288-10.151,5.959-19.507,13.408-26.685 c8.431-8.123,19.514-12.596,31.206-12.596c0.167,0,0.336,0.007,0.504,0.009c0.278,0.003,0.558,0.006,0.837,0.015l0.26,0.004 c12.013,0.423,23.142,5.497,31.337,14.29s12.477,20.251,12.054,32.264c-0.412,11.732-5.294,22.679-13.747,30.823 c-0.704,0.679-1.434,1.322-2.174,1.949l3.587,9.962c2.937,8.155,10.622,13.23,18.818,13.23c2.248-0.001,4.537-0.383,6.774-1.188 C367.168,321.849,372.56,310.39,368.817,299.997z M304.654,239.865c-1.64-0.34-3.326-0.554-5.056-0.614 c-0.358-0.013-0.717-0.019-1.073-0.019c-1.66,0-3.288,0.143-4.878,0.404c-13.813,2.271-24.573,14.014-25.084,28.542 c-0.106,3.03,0.244,5.971,0.984,8.758c0.985,3.716,2.671,7.154,4.909,10.167c2.362,3.18,5.339,5.885,8.767,7.925 c4.19,2.494,9.049,4.002,14.268,4.186c0.358,0.013,0.716,0.019,1.072,0.019c9.425,0,17.894-4.382,23.408-11.268 c3.896-4.863,6.319-10.973,6.555-17.679C329.048,255.457,318.712,242.772,304.654,239.865z"/></svg>