<svg xmlns="http://www.w3.org/2000/svg" width="1000pt" height="1000pt" viewBox="0 0 1000 1000"><path d="M 870.53125 382.949219 C 857.945312 363.6875 832.121094 358.277344 812.859375 370.867188 L 726.890625 427.050781 L 652.109375 280.796875 C 647.308594 271.417969 639.433594 264.667969 630.351562 261.070312 C 555.855469 214.972656 457.085938 234.566406 406.1875 307.191406 L 334.46875 409.527344 C 328.128906 418.578125 325.640625 429.777344 327.554688 440.664062 C 329.472656 451.550781 335.632812 461.226562 344.683594 467.570312 L 447.144531 539.335938 C 454.199219 544.277344 462.554688 546.878906 471.050781 546.878906 C 473.457031 546.878906 475.878906 546.667969 478.28125 546.242188 C 489.167969 544.324219 498.839844 538.164062 505.179688 529.109375 L 609.390625 380.292969 L 673.796875 506.25 C 679.175781 516.773438 688.773438 524.515625 700.199219 527.550781 C 703.722656 528.488281 707.316406 528.949219 710.894531 528.949219 C 718.917969 528.949219 726.847656 526.632812 733.691406 522.160156 L 858.449219 440.621094 C 877.710938 428.035156 883.121094 402.210938 870.53125 382.949219 Z M 542.6875 672.117188 C 540.667969 661.46875 534.578125 652.023438 525.710938 645.789062 L 320.921875 501.832031 C 302.09375 488.601562 276.105469 493.136719 262.875 511.957031 C 249.640625 530.785156 254.175781 556.773438 273 570.007812 L 463.957031 704.242188 L 505.132812 921.507812 C 508.917969 941.496094 526.398438 955.421875 546.023438 955.421875 C 548.597656 955.421875 551.207031 955.183594 553.828125 954.683594 C 576.4375 950.398438 591.292969 928.601562 587.007812 905.988281 Z M 294.800781 644.449219 C 271.789062 644.449219 253.132812 663.101562 253.132812 686.113281 L 253.132812 768.648438 L 108.460938 880.824219 C 90.273438 894.925781 86.960938 921.097656 101.0625 939.285156 C 109.273438 949.875 121.582031 955.421875 134.019531 955.421875 C 142.941406 955.421875 151.925781 952.570312 159.523438 946.679688 L 320.332031 821.996094 C 330.511719 814.105469 336.464844 801.949219 336.464844 789.070312 L 336.464844 686.113281 C 336.464844 663.101562 317.8125 644.449219 294.800781 644.449219 Z M 662.585938 232.867188 C 701.964844 260.441406 750.660156 251.582031 778.234375 212.203125 C 805.808594 172.824219 797.152344 123.722656 757.773438 96.148438 C 718.394531 68.574219 669.285156 77.226562 641.710938 116.605469 C 614.136719 155.988281 623.207031 205.292969 662.585938 232.867188 Z M 662.585938 232.867188"/></svg>