<svg xmlns="http://www.w3.org/2000/svg" viewBox="0 0 480 480"><path d="M417.855,183.816c-6.042-9.246-18.437-11.843-27.683-5.8l-41.264,26.968l-35.895-70.201 c-2.304-4.503-6.085-7.743-10.444-9.47c-35.759-22.126-83.167-12.722-107.599,22.139l-34.425,49.122 c-3.044,4.344-4.238,9.72-3.319,14.945c0.92,5.225,3.877,9.87,8.223,12.914l49.18,34.449c3.386,2.372,7.397,3.619,11.475,3.619 c1.156,0,2.317-0.101,3.471-0.304c5.225-0.921,9.869-3.879,12.912-8.225l50.021-71.432l30.914,60.46 c2.583,5.051,7.189,8.768,12.673,10.225c1.691,0.449,3.417,0.67,5.134,0.67c3.851,0,7.658-1.112,10.942-3.259l59.885-39.137 C421.302,205.457,423.898,193.062,417.855,183.816z M260.49,322.617c-0.969-5.112-3.892-9.646-8.148-12.639l-98.299-69.098 c-9.038-6.352-21.512-4.175-27.863,4.86c-6.353,9.037-4.176,21.512,4.86,27.864l91.66,64.432l19.763,104.287 c1.818,9.595,10.208,16.28,19.628,16.28c1.235,0,2.488-0.115,3.746-0.354c10.853-2.057,17.983-12.521,15.927-23.374L260.49,322.617 z M141.504,309.335c-11.046,0-20,8.954-20,20v39.617l-69.443,53.843c-8.729,6.769-10.319,19.331-3.551,28.061 c3.942,5.084,9.849,7.746,15.82,7.746c4.281,0,8.595-1.369,12.241-4.195l77.188-59.848c4.886-3.788,7.745-9.623,7.745-15.806 v-49.418C161.504,318.289,152.55,309.335,141.504,309.335z M318.041,111.776c18.902,13.236,42.276,8.983,55.512-9.919 s9.081-42.47-9.821-55.706c-18.902-13.235-42.476-9.083-55.711,9.82S299.139,98.541,318.041,111.776z"/></svg>