<svg width="1000" height="1000" viewBox="0 0 1000 1000" fill="none" xmlns="http://www.w3.org/2000/svg">
<path fill-rule="evenodd" clip-rule="evenodd" d="M500 208.333C572.292 208.333 638.333 234.792 689.375 278.542C648.75 342.708 625 418.542 625 500C625 581.458 648.75 657.292 689.375 721.458C638.333 765.208 572.292 791.667 500 791.667C427.708 791.667 361.667 765.208 310.833 721.458C351.25 657.292 375 581.458 375 500C375 418.542 351.25 342.708 310.833 278.542C361.667 234.792 427.708 208.333 500 208.333ZM733.75 673.75C770 625.208 791.667 565.208 791.667 500C791.667 434.792 770 374.792 733.75 326.25C704.583 377.708 687.5 436.875 687.5 500C687.5 563.125 704.583 622.292 733.75 673.75ZM208.333 500C208.333 434.792 230 374.792 266.25 326.25C295.417 377.708 312.5 436.875 312.5 500C312.5 563.125 295.417 622.292 266.25 673.75C230 625.208 208.333 565.208 208.333 500ZM500 854.167C304.792 854.167 145.833 695.208 145.833 500C145.833 304.792 304.792 145.833 500 145.833C695.208 145.833 854.167 304.792 854.167 500C854.167 695.208 695.208 854.167 500 854.167ZM500 83.3334C269.792 83.3334 83.3333 269.792 83.3333 500C83.3333 730 269.792 916.667 500 916.667C730 916.667 916.667 730 916.667 500C916.667 269.792 730 83.3334 500 83.3334Z" fill="black"/>
</svg>
