<svg width="1000" height="1000" viewBox="0 0 1000 1000" fill="none" xmlns="http://www.w3.org/2000/svg">
<path fill-rule="evenodd" clip-rule="evenodd" d="M145.833 500C145.833 510.625 146.25 521.042 147.292 531.25H310.833C304.167 605.833 274.792 673.75 229.167 727.917C242.708 743.958 257.5 758.75 273.542 772.083C330.208 706.458 366.458 623.125 373.333 531.25H468.75V852.708C478.958 853.542 489.375 854.167 500 854.167C510.625 854.167 521.042 853.75 531.25 852.708V531.25H626.667C633.542 622.917 669.792 706.458 726.458 772.083C742.5 758.75 757.292 743.958 770.833 727.917C725.417 673.75 695.833 605.833 689.167 531.25H852.708C853.542 521.042 854.167 510.417 854.167 500C854.167 489.375 853.75 478.958 852.708 468.75H689.167C695.833 394.167 725.208 326.25 770.833 272.083C757.292 256.042 742.5 241.25 726.458 227.917C669.792 293.542 633.542 376.875 626.667 468.75H531.25V147.292C521.042 146.458 510.625 145.833 500 145.833C489.375 145.833 478.958 146.25 468.75 147.292V468.75H373.333C366.458 377.083 330.208 293.542 273.542 227.917C257.5 241.25 242.708 256.042 229.167 272.083C274.792 326.25 304.167 394.167 310.833 468.75H147.292C146.25 478.958 145.833 489.375 145.833 500ZM83.3333 500C83.3333 269.792 269.792 83.3334 500 83.3334C730 83.3334 916.667 269.792 916.667 500C916.667 730 730 916.667 500 916.667C269.792 916.667 83.3333 730 83.3333 500Z" fill="black"/>
</svg>
