<svg width="1000" height="1000" viewBox="0 0 1000 1000" fill="none" xmlns="http://www.w3.org/2000/svg">
<path d="M83.3353 916.667C77.502 916.667 71.877 914.375 67.7103 909.583C60.002 901.042 61.0437 887.708 69.5853 880.208C72.2937 877.917 74.7937 875.625 77.502 873.125C103.335 850 132.502 823.958 171.669 816.667C193.752 812.5 216.252 819.792 237.919 826.875C255.002 832.292 272.502 838.125 286.252 836.458C297.919 835.208 311.46 826.667 325.627 817.708C344.169 806.042 365.419 792.708 390.002 791.458C412.919 790.208 434.169 800.208 454.585 809.792C471.044 817.5 486.46 824.792 499.794 824.792C513.127 824.792 528.752 817.5 545.002 809.792C565.419 800.208 586.669 790.208 609.585 791.458C634.169 792.708 655.21 806.042 673.96 817.708C688.127 826.667 701.669 835 713.335 836.458C727.085 837.917 744.794 832.292 761.669 826.875C783.335 819.792 805.835 812.708 827.919 816.667C867.294 823.958 899.794 853.125 923.544 874.375C925.835 876.458 927.919 878.333 930.002 880C938.544 887.708 939.377 900.833 931.877 909.375C924.169 917.917 911.044 918.75 902.502 911.25C900.419 909.375 898.127 907.292 895.836 905.417C875.835 887.5 848.335 862.708 820.419 857.708C808.544 855.625 792.086 860.833 774.377 866.458C753.127 873.333 731.252 880.417 708.544 877.708C687.502 875.208 669.169 863.958 651.669 852.917C635.835 843.125 621.044 833.75 607.294 832.917C594.794 832.292 579.169 839.583 562.71 847.292C542.919 856.667 522.294 866.25 499.794 866.25C477.294 866.25 456.669 856.667 436.877 847.292C420.419 839.583 404.794 832.292 392.294 832.917C378.544 833.75 363.544 842.917 347.919 852.917C330.419 863.958 312.085 875.417 291.044 877.708C268.335 880.208 246.46 873.125 225.21 866.458C207.71 860.833 191.044 855.417 179.169 857.708C151.669 862.708 128.127 883.75 105.21 904.167C102.502 906.667 99.7937 908.958 97.0853 911.458C93.127 915 88.3353 916.667 83.3353 916.667ZM923.336 681.042L715.002 748.958C714.794 748.958 714.794 748.958 714.585 748.958C714.169 748.958 713.96 749.167 713.544 749.167C713.335 749.167 713.127 749.375 712.71 749.375C712.502 749.375 712.085 749.583 711.877 749.583C711.669 749.583 711.252 749.583 711.044 749.792C710.835 749.792 710.419 749.792 710.21 749.792C709.794 749.792 709.169 749.792 708.752 749.792H708.544H104.377C98.3353 749.792 92.7103 747.083 88.752 742.708C84.7937 738.125 82.9187 732.083 83.752 726.25L98.9603 615.625C111.669 620.833 125.419 623.958 139.794 624.792L128.335 708.333H237.71C237.71 706.875 237.71 705.208 237.919 703.75L263.752 542.292C268.544 529.167 271.044 514.792 271.044 500C271.044 498.958 271.044 497.917 271.044 496.875L280.627 437.5H254.377C244.585 420.833 231.252 406.458 215.21 395.833H287.294L303.96 291.667H185.835L173.96 378.125C165.002 376.042 155.627 375 146.252 375C141.46 375 136.877 375.208 132.294 375.833L167.085 122.083C168.544 111.875 177.294 104.167 187.71 104.167H791.877C797.919 104.167 803.544 106.875 807.502 111.25C811.461 115.833 813.335 121.875 812.502 127.708L801.669 206.458L936.877 655C940.211 666.042 934.169 677.5 923.336 681.042ZM621.669 250H753.544L759.585 205.417L767.71 145.833H638.127L621.669 250ZM487.294 250H579.585L596.252 145.833H503.96L487.294 250ZM463.96 395.833H556.252L572.919 291.667H480.627L463.96 395.833ZM352.71 250H445.002L461.669 145.833H368.752C368.752 147.292 368.752 148.958 368.544 150.417L352.71 250ZM329.377 395.833H421.669L438.335 291.667H346.044L329.377 395.833ZM310.419 250L327.085 145.833H205.835L191.46 250H310.419ZM391.669 583.333H299.377L279.377 708.333H371.669L391.669 583.333ZM398.335 541.667L415.002 437.5H322.71L306.044 541.667H398.335ZM526.252 583.333H433.96L413.96 708.333H506.252L526.252 583.333ZM532.919 541.667L549.585 437.5H457.294L440.627 541.667H532.919ZM707.71 583.333H568.335L548.335 708.333H690.419L707.71 583.333ZM727.71 437.5H591.669L575.002 541.667H713.335L727.71 437.5ZM733.544 395.833L747.919 291.667H615.002L598.335 395.833H733.544ZM891.044 647.708L787.919 305.625L775.21 398.125L733.752 698.958L891.044 647.708ZM146.044 583.333C192.085 583.333 229.377 546.042 229.377 500C229.377 453.958 192.085 416.667 146.044 416.667C100.002 416.667 62.7103 453.958 62.7103 500C62.7103 546.042 100.002 583.333 146.044 583.333Z" fill="black"/>
</svg>
