<svg width="1000" height="1000" viewBox="0 0 1000 1000" fill="none" xmlns="http://www.w3.org/2000/svg">
<path d="M603.958 389.375C606.25 396.458 603.75 404.375 597.708 408.75L510.208 472.292C504.166 476.667 495.833 476.667 489.792 472.292L402.292 408.75C396.25 404.375 393.75 396.458 396.042 389.375L429.375 286.458C431.667 279.375 438.333 274.583 445.833 274.583H554.166C561.666 274.583 568.333 279.375 570.625 286.458L603.958 389.375ZM500 62.5C327.5 62.5 187.5 202.5 187.5 375C187.5 411.458 193.75 446.667 205.208 479.167H307.291L325.833 432.083C328.333 425.833 326.458 418.542 321.25 414.167L236.042 344.375C241.458 296.25 260 252.083 287.708 215.208L360.625 214.583C366.458 214.583 371.875 211.25 374.583 205.833L415.625 122.708C442.083 113.75 470.417 108.958 500 108.958C529.583 108.958 557.916 113.75 584.375 122.708L625.417 206.25C627.917 211.667 633.333 215 639.375 215L712.291 215.625C740 252.5 758.333 296.667 763.958 344.792L678.75 414.583C673.541 418.958 671.667 426.042 674.167 432.5L692.708 479.583H794.791C806.25 447.083 812.5 411.875 812.5 375.417C812.5 202.5 672.5 62.5 500 62.5ZM937.708 916.25C937.708 927.708 928.333 937.083 916.875 937.083C905.416 937.083 896.041 927.708 896.041 916.25V854.167H104.375V917.083C104.375 928.542 94.9998 937.917 83.5415 937.917C72.0832 937.917 62.7082 928.542 62.7082 917.083L62.2915 558.75C62.2915 548.75 66.2498 539.375 73.3332 532.292C80.4165 525.208 89.7915 521.25 99.7915 521.25L202.916 521.042C204.583 520.625 206.458 520.208 208.333 520.208C210.208 520.208 212.083 520.417 213.75 521.042L349.375 520.833C351.041 520.417 352.5 520.208 354.167 520.208C355.833 520.208 357.5 520.417 358.958 520.833H495.833C497.292 520.625 498.542 520.417 500 520.417C501.458 520.417 502.916 520.625 504.166 520.833L642.5 520.625C643.541 520.417 644.583 520.417 645.833 520.417C646.875 520.417 647.916 520.625 648.958 520.625L789.375 520.417C790 520.417 790.833 520.208 791.666 520.208C792.5 520.208 793.125 520.208 793.75 520.417L899.583 520.208C909.583 520.208 918.958 524.167 926.041 531.25C933.125 538.333 937.083 547.708 937.083 557.708L937.708 916.25ZM895.625 562.083H812.5V666.667H895.833L895.625 562.083ZM479.167 562.5L375 562.708V666.667H479.167V562.5ZM520.833 666.667H625V562.292L520.833 562.5V666.667ZM333.333 562.708L229.166 562.917V666.667H333.333V562.708ZM229.166 708.333V812.5H333.333V708.333H229.166ZM375 812.5H479.167V708.333H375V812.5ZM520.833 812.5H625V708.333H520.833V812.5ZM666.666 812.5H770.833V708.333H666.666V812.5ZM770.833 666.667V562.292L666.666 562.5V666.667H770.833ZM103.958 562.917L104.167 666.667H187.5V562.917H103.958ZM104.375 812.5H187.5V708.333H104.167L104.375 812.5ZM896.041 812.5L895.833 708.333H812.5V812.5H896.041Z" fill="black"/>
</svg>
