<svg width="1000" height="1000" viewBox="0 0 1000 1000" fill="none" xmlns="http://www.w3.org/2000/svg">
<path d="M916.667 937.5H83.3333C71.875 937.5 62.5 928.126 62.5 916.667C62.5 905.209 71.875 895.834 83.3333 895.834H916.667C928.125 895.834 937.5 905.209 937.5 916.667C937.5 928.126 928.125 937.5 916.667 937.5ZM927.708 107.917C918.333 101.251 905.208 103.542 898.75 113.126L467.708 727.917C462.917 734.584 454.167 736.876 446.875 733.334L131.25 580.626C125.625 577.917 118.958 577.917 113.333 580.626C107.708 583.334 103.542 588.334 101.875 594.584L63.9583 703.542C61.4583 713.751 67.0833 724.375 76.875 727.917L412.083 852.917C414.375 853.75 416.875 854.167 419.375 854.167C426.042 854.167 432.5 851.042 436.458 845.209L932.708 136.876C939.375 127.501 937.083 114.584 927.708 107.917ZM844.792 791.667H740.625C723.333 791.667 709.375 805.626 709.375 822.917C709.375 840.209 723.333 854.167 740.625 854.167H844.792C862.083 854.167 876.042 840.209 876.042 822.917C876.042 805.626 861.875 791.667 844.792 791.667Z" fill="black"/>
</svg>
