<svg width="1000" height="1000" viewBox="0 0 1000 1000" fill="none" xmlns="http://www.w3.org/2000/svg">
<path fill-rule="evenodd" clip-rule="evenodd" d="M208.333 604.167C162.292 604.167 125 566.875 125 520.833C125 474.792 162.292 437.5 208.333 437.5C254.375 437.5 291.667 474.792 291.667 520.833C291.667 566.875 254.375 604.167 208.333 604.167ZM844.375 99.1667C726.667 16.875 543.125 76.0417 434.167 231.667C339.792 366.458 332.5 529.375 408.958 623.958C413.542 629.792 413.958 637.917 409.583 643.958L242.292 882.917C237.083 890.417 238.75 900.833 246.458 906.042L287.5 934.792C295 940 305.417 938.333 310.625 930.625L477.292 692.5C481.667 686.25 489.583 683.75 496.667 686.458C612.083 728.542 765 666.042 860.417 529.792C969.167 374.375 962.083 181.667 844.375 99.1667Z" fill="black"/>
</svg>
