<svg width="1000" height="1000" viewBox="0 0 1000 1000" fill="none" xmlns="http://www.w3.org/2000/svg">
<path d="M499.792 83.3334C269.583 83.3334 83.125 269.792 83.125 500C83.125 730 269.583 916.667 499.792 916.667C729.792 916.667 916.458 730 916.458 500C916.458 269.792 730 83.3334 499.792 83.3334ZM267.708 576.25L215 710.417C171.667 651.667 145.833 578.75 145.833 500C145.833 486.25 146.667 472.708 148.125 459.583L261.667 552.5C268.542 558.125 271.042 567.708 267.708 576.25ZM314.167 286.458L216.875 287.292C259.583 230.625 318.75 187.292 387.292 164.167L332.708 274.792C329.167 281.875 322.083 286.458 314.167 286.458ZM500 854.167C458.75 854.167 419.375 847.083 382.708 834.167L489.375 771.458C495.833 767.5 503.958 767.5 510.625 771.458L617.292 834.375C580.417 847.083 541.042 854.167 500 854.167ZM630 553.958L513.333 638.75C505.208 644.583 494.167 644.583 486.25 638.75L369.583 553.958C361.458 548.125 358.125 537.708 361.25 528.125L405.833 391.042C408.958 381.458 417.708 375.208 427.708 375.208H571.875C581.875 375.208 590.625 381.667 593.75 391.042L638.333 528.125C641.667 537.708 638.125 547.917 630 553.958ZM667.083 274.792L612.292 163.958C681.042 186.875 740.417 230.417 783.125 287.083L685.625 286.25C677.708 286.458 670.417 281.875 667.083 274.792ZM784.792 710.417L731.875 576.042C728.542 567.708 731.042 558.125 738.125 552.292L851.875 459.167C853.333 472.5 854.167 486.042 854.167 499.792C854.167 578.75 828.333 651.667 784.792 710.417Z" fill="black"/>
</svg>
