<svg width="1000" height="1000" viewBox="0 0 1000 1000" fill="none" xmlns="http://www.w3.org/2000/svg">
<path d="M645.631 902.711C647.714 921.461 632.923 937.503 614.589 937.503H385.423C367.089 937.503 352.298 921.669 354.381 902.711C356.048 886.669 370.214 875.003 386.256 875.003C416.256 875.003 441.673 852.503 445.214 822.711L464.798 660.628C465.839 652.294 472.923 646.044 481.256 646.044H518.548C526.881 646.044 534.172 652.294 535.006 660.628L554.589 822.711C558.131 852.503 583.548 875.003 613.548 875.003C629.798 875.003 643.964 886.878 645.631 902.711ZM395.839 448.753V288.961C395.839 285.628 394.798 282.294 392.923 279.378L312.506 164.586C292.714 136.253 253.756 129.378 225.422 149.169L187.922 175.419C180.422 180.628 178.547 191.044 183.756 198.544L365.422 458.336C374.797 471.669 395.839 465.003 395.839 448.753ZM812.089 175.628L774.589 149.378C746.256 129.586 707.298 136.461 687.506 164.794L607.298 279.586C605.423 282.294 604.381 285.628 604.381 289.169V448.961C604.381 465.211 625.423 471.878 634.798 458.544L816.464 199.169C821.464 191.253 819.589 180.836 812.089 175.628ZM437.506 543.961C437.506 544.586 437.506 545.211 437.506 545.836C437.506 546.253 437.506 546.669 437.506 546.878C437.506 547.711 437.714 548.336 437.714 549.169C437.714 549.378 437.714 549.586 437.714 549.794C437.923 550.628 437.923 551.461 438.131 552.294V552.503C438.964 557.503 440.422 562.294 442.506 566.669V566.878C442.922 567.711 443.339 568.544 443.547 569.378C443.547 569.586 443.756 569.794 443.964 570.003C444.381 570.628 444.589 571.253 445.006 571.878C445.214 572.294 445.422 572.503 445.631 572.919C445.839 573.336 446.256 573.961 446.464 574.378C446.673 574.794 447.089 575.211 447.298 575.628C447.506 576.044 447.714 576.461 448.131 576.669C448.131 576.669 448.131 576.878 448.339 576.878L448.548 577.294C448.548 577.503 448.756 577.503 448.756 577.711C448.964 577.919 448.964 578.128 449.173 578.336C449.381 578.544 449.589 578.961 449.797 579.169L450.006 579.378C450.214 579.794 450.631 580.211 450.839 580.419C450.839 580.419 450.839 580.628 451.048 580.628C451.256 580.836 451.464 581.253 451.673 581.461C451.881 581.669 452.089 581.878 452.298 582.294C452.506 582.503 452.714 582.919 452.922 583.128C453.131 583.336 453.339 583.544 453.548 583.961C453.756 584.169 453.964 584.378 454.173 584.586C454.381 585.003 454.797 585.211 455.006 585.419C455.214 585.628 455.423 585.836 455.631 586.044C455.631 586.044 455.839 586.044 455.839 586.253C456.048 586.461 456.048 586.461 456.256 586.669C456.673 587.086 456.881 587.294 457.298 587.711C457.506 587.919 457.506 587.919 457.714 588.128C458.131 588.544 458.548 588.753 458.964 589.169C459.173 589.378 459.381 589.586 459.589 589.794C459.798 589.794 459.798 590.003 460.006 590.003C460.214 590.211 460.631 590.419 460.839 590.628C461.048 590.836 461.256 590.836 461.464 591.044C461.673 591.253 461.881 591.461 462.089 591.669C462.298 591.669 462.298 591.878 462.506 591.878C462.923 592.086 463.339 592.503 463.548 592.711C463.548 592.711 463.756 592.711 463.756 592.919C463.964 593.128 464.172 593.128 464.381 593.336C464.589 593.544 464.798 593.544 465.006 593.753C465.423 593.961 465.839 594.378 466.256 594.586C466.464 594.586 466.464 594.794 466.673 594.794C467.089 595.003 467.298 595.211 467.714 595.419C468.131 595.628 468.756 596.044 469.173 596.253C469.589 596.461 470.214 596.878 470.631 597.086C471.047 597.294 471.256 597.503 471.672 597.711C472.297 598.128 472.923 598.336 473.548 598.544C473.756 598.544 473.964 598.753 474.173 598.753C474.589 598.961 475.214 599.169 475.631 599.378C475.839 599.586 476.256 599.586 476.464 599.794H476.673C476.881 599.794 476.881 599.794 477.089 600.003C477.089 600.003 477.089 600.003 477.298 600.003C478.131 600.211 478.756 600.628 479.589 600.836H479.798C480.006 600.836 480.006 600.836 480.214 601.044C480.839 601.253 481.673 601.461 482.298 601.669C482.506 601.669 482.714 601.878 482.923 601.878C483.548 602.086 484.173 602.294 485.006 602.294C485.006 602.294 485.006 602.294 485.214 602.294C485.422 602.294 485.839 602.503 486.048 602.503C486.673 602.711 487.089 602.711 487.714 602.919H487.923C488.339 602.919 488.548 603.128 488.964 603.128C489.381 603.128 490.006 603.336 490.422 603.336H490.631C490.839 603.336 490.839 603.336 491.048 603.336C491.464 603.336 491.673 603.336 492.089 603.544C492.506 603.544 492.923 603.544 493.339 603.753C493.548 603.753 493.756 603.753 493.964 603.753C494.381 603.753 494.589 603.753 495.006 603.753C495.423 603.753 495.839 603.753 496.048 603.753C496.256 603.753 496.673 603.753 496.881 603.753C497.298 603.753 497.506 603.753 497.923 603.753C498.131 603.753 498.339 603.753 498.339 603.753H498.756C499.172 603.753 499.381 603.753 499.797 603.753C500.006 603.753 500.423 603.753 500.631 603.753C501.048 603.753 501.464 603.753 501.673 603.753C502.089 603.753 502.298 603.753 502.714 603.753C502.923 603.753 503.131 603.753 503.339 603.753C503.756 603.753 504.173 603.753 504.589 603.544C505.006 603.544 505.214 603.544 505.631 603.336C505.839 603.336 505.839 603.336 506.047 603.336H506.256C506.673 603.336 507.298 603.128 507.714 603.128C508.131 603.128 508.339 602.919 508.756 602.919H508.964C509.589 602.919 510.006 602.711 510.631 602.503C510.839 602.503 511.256 602.294 511.464 602.294C511.464 602.294 511.464 602.294 511.673 602.294C512.298 602.086 512.923 602.086 513.756 601.878C513.964 601.878 514.173 601.669 514.381 601.669C515.214 601.461 515.839 601.253 516.673 601.044C516.881 601.044 516.881 601.044 517.089 600.836H517.298C518.131 600.628 518.756 600.419 519.589 600.003C519.589 600.003 519.589 600.003 519.798 600.003C520.006 600.003 520.006 600.003 520.214 599.794H520.423C520.631 599.586 521.048 599.586 521.256 599.378C521.673 599.169 522.298 598.961 522.714 598.753C522.923 598.753 523.131 598.544 523.339 598.544C523.964 598.336 524.589 597.919 525.214 597.711C525.631 597.503 525.839 597.294 526.256 597.086C526.673 596.878 527.298 596.669 527.714 596.253C528.131 596.044 528.756 595.628 529.173 595.419C529.589 595.211 529.798 595.003 530.214 594.794C530.423 594.794 530.423 594.586 530.631 594.586C531.048 594.378 531.464 593.961 531.881 593.753C532.089 593.544 532.298 593.544 532.506 593.336C532.714 593.128 532.923 593.128 533.131 592.919C533.131 592.919 533.339 592.919 533.339 592.711C533.756 592.503 534.173 592.086 534.381 591.878C534.589 591.878 534.589 591.669 534.798 591.669C535.006 591.461 535.214 591.253 535.423 591.044C535.631 590.836 535.839 590.836 536.047 590.628C536.256 590.419 536.673 590.211 536.881 590.003L537.089 589.794C537.297 589.586 537.506 589.378 537.714 589.169C537.923 588.961 538.339 588.753 538.548 588.336C538.756 588.128 538.756 588.128 538.964 587.919C539.173 587.711 539.173 587.711 539.381 587.503C539.798 587.086 540.214 586.878 540.423 586.461C540.631 586.253 540.631 586.253 540.839 586.044C540.839 586.044 541.048 586.044 541.048 585.836C541.256 585.628 541.464 585.419 541.673 585.211C541.881 585.003 542.298 584.586 542.506 584.378C542.714 584.169 542.923 583.961 543.131 583.753C543.339 583.544 543.548 583.336 543.756 582.919C543.964 582.711 544.172 582.294 544.381 582.086C544.589 581.878 544.798 581.669 545.006 581.253C545.214 581.044 545.423 580.628 545.631 580.419C545.631 580.419 545.631 580.211 545.839 580.211C546.048 579.794 546.464 579.378 546.673 579.169L546.881 578.961C547.089 578.753 547.297 578.336 547.506 578.128C547.714 577.919 547.714 577.711 547.923 577.503C547.923 577.294 548.131 577.294 548.131 577.086L548.339 576.669L548.547 576.461C548.756 576.044 548.964 575.628 549.381 575.419C549.589 575.003 550.006 574.586 550.214 574.169C550.423 573.753 550.839 573.128 551.048 572.711C551.256 572.294 551.464 572.086 551.672 571.669C552.089 571.044 552.297 570.419 552.714 569.794C552.922 569.586 552.923 569.378 553.131 569.169C553.548 568.336 553.964 567.503 554.173 566.669V566.461C556.048 562.086 557.506 557.294 558.548 552.294V552.086C558.756 551.253 558.756 550.419 558.964 549.586C558.964 549.378 558.964 549.169 558.964 548.961C558.964 548.336 559.173 547.503 559.173 546.669C559.173 546.253 559.173 545.836 559.173 545.628C559.173 545.003 559.173 544.378 559.173 543.753C559.173 543.336 559.173 542.711 559.173 542.294C559.173 542.086 559.173 541.669 559.173 541.461V343.336V126.669C559.173 92.7111 532.506 63.7528 498.339 62.9194C462.923 61.8778 434.172 90.2111 434.172 125.419V343.336V541.461C434.172 541.878 434.172 542.086 434.172 542.294C437.506 542.919 437.506 543.336 437.506 543.961Z" fill="black"/>
</svg>
