<svg width="1000" height="1000" viewBox="0 0 1000 1000" fill="none" xmlns="http://www.w3.org/2000/svg">
<path d="M500 83.3334C269.792 83.3334 83.3333 269.792 83.3333 500C83.3333 526.458 85.8333 552.5 90.6249 577.708C127.083 770.625 296.458 916.667 500 916.667C671.875 916.667 819.583 812.5 883.125 663.958C904.583 613.75 916.667 558.333 916.667 500C916.667 269.792 730.208 83.3334 500 83.3334ZM500 854.167C311.667 854.167 157.708 707.292 146.458 521.667C146.042 514.583 145.833 507.292 145.833 500C145.833 304.375 304.375 145.833 500 145.833C695.625 145.833 854.167 304.375 854.167 500C854.167 540.417 847.292 579.375 834.792 615.625C786.875 754.375 655.208 854.167 500 854.167ZM723.125 687.708C721.458 689.583 719.792 691.667 718.125 693.542C720 691.667 721.667 689.583 723.125 687.708ZM521.042 790.833C521.667 790.833 522.5 790.833 523.125 790.625C522.292 790.833 521.667 790.833 521.042 790.833ZM508.958 791.458C508.333 791.458 507.5 791.458 506.875 791.458C507.5 791.667 508.333 791.458 508.958 791.458ZM732.083 676.667C733.75 674.583 735.208 672.5 736.875 670.208C735.208 672.5 733.542 674.583 732.083 676.667ZM538.75 789.167C537.917 789.167 537.083 789.375 536.458 789.375C537.083 789.375 537.917 789.167 538.75 789.167ZM545.417 788.125C544.583 788.333 543.75 788.333 542.917 788.542C543.75 788.333 544.583 788.333 545.417 788.125ZM530.833 790C530.417 790 530 790 529.583 790.208C530 790.208 530.417 790 530.833 790ZM730.417 678.958C728.542 681.25 726.667 683.75 724.792 686.042C726.667 683.542 728.542 681.25 730.417 678.958ZM513.75 791.25C514.583 791.25 515.417 791.25 516.042 791.042C515.417 791.25 514.583 791.25 513.75 791.25ZM388.542 769.583C382.5 767.083 376.667 764.375 370.833 761.458C376.667 764.375 382.5 767.083 388.542 769.583ZM389.375 770C392.292 771.25 395.417 772.5 398.333 773.542C395.417 772.292 392.5 771.25 389.375 770ZM369.792 761.042C364.167 758.125 358.542 755.208 352.917 751.875C358.333 755 363.958 758.125 369.792 761.042ZM351.667 751.25C349.167 749.792 346.458 748.125 343.958 746.458C346.458 748.125 349.167 749.583 351.667 751.25ZM398.542 773.542C401.667 774.792 405 775.833 408.125 776.875C404.792 775.833 401.667 774.583 398.542 773.542ZM737.708 668.958C739.375 666.458 741.25 663.958 742.917 661.458C741.25 663.958 739.583 666.458 737.708 668.958ZM500 791.667C497.292 791.667 494.583 791.667 491.875 791.458C494.583 791.667 497.292 791.667 500 791.667ZM641.25 755.208C640.208 755.833 639.167 756.458 637.917 757.083C639.167 756.458 640.208 755.833 641.25 755.208ZM571.25 782.917C572.083 782.708 573.125 782.5 573.958 782.292C573.125 782.5 572.083 782.708 571.25 782.917ZM648.958 750.833C650 750.208 651.042 749.583 652.083 748.958C651.042 749.583 650 750.208 648.958 750.833ZM609.583 770.417C607.917 771.042 606.25 771.667 604.583 772.5C606.042 771.667 607.708 771.042 609.583 770.417ZM612.708 769.167C613.75 768.75 614.792 768.333 615.833 767.708C614.792 768.125 613.75 768.75 612.708 769.167ZM598.333 774.583C599.375 774.167 600.417 773.75 601.458 773.542C600.417 773.958 599.375 774.375 598.333 774.583ZM643.542 753.958C644.583 753.333 645.625 752.708 646.667 752.083C645.625 752.708 644.583 753.333 643.542 753.958ZM618.542 766.667C619.583 766.25 620.625 765.625 621.667 765.208C620.625 765.625 619.583 766.042 618.542 766.667ZM627.5 762.5C626.458 763.125 625.417 763.542 624.167 763.958C625.208 763.333 626.458 762.917 627.5 762.5ZM629.792 761.25C631.875 760.208 633.75 759.167 635.833 758.125C633.75 759.167 631.875 760.208 629.792 761.25ZM654.167 747.708C656.042 746.458 657.917 745.417 659.792 744.167C657.917 745.208 656.042 746.458 654.167 747.708ZM558.333 785.833C558.958 785.625 559.792 785.625 560.417 785.417C559.792 785.417 559.167 785.625 558.333 785.833ZM564.792 784.375C565.625 784.167 566.667 783.958 567.5 783.75C566.667 783.958 565.625 784.167 564.792 784.375ZM343.542 746.25C340.833 744.583 338.125 742.708 335.625 741.042C338.333 742.708 340.833 744.583 343.542 746.25ZM670 737.083C669.167 737.708 668.125 738.333 667.292 738.958C668.125 738.333 669.167 737.708 670 737.083ZM552.083 787.083C551.458 787.292 550.625 787.292 550 787.5C550.625 787.292 551.458 787.083 552.083 787.083ZM588.958 777.917C588.125 778.125 587.083 778.542 586.25 778.75C587.083 778.542 587.917 778.125 588.958 777.917ZM580.208 780.417C579.375 780.625 578.542 780.833 577.708 781.042C578.75 780.833 579.583 780.625 580.208 780.417ZM595.208 775.833C594.167 776.25 593.125 776.458 592.292 776.875C593.125 776.458 594.167 776.042 595.208 775.833ZM662.083 742.5C663.125 741.875 663.958 741.25 665 740.625C663.958 741.25 662.917 741.875 662.083 742.5ZM483.958 791.25C486.458 791.458 489.167 791.458 491.875 791.667C489.167 791.458 486.458 791.458 483.958 791.25ZM260.417 666.458C261.667 668.125 262.708 669.792 263.958 671.458C262.917 669.792 261.667 668.125 260.417 666.458ZM230.417 611.458C231.042 612.917 231.667 614.375 232.292 615.833C231.667 614.375 231.042 612.917 230.417 611.458ZM776.667 592.5C776.458 593.125 776.25 593.958 776.042 594.583C776.25 593.75 776.458 593.125 776.667 592.5ZM258.542 663.542C257.083 661.25 255.417 658.958 253.958 656.667C255.417 659.167 257.083 661.458 258.542 663.542ZM769.375 611.875C769.167 612.5 768.958 613.125 768.542 613.75C768.958 613.125 769.167 612.5 769.375 611.875ZM239.167 630.625C240 632.083 240.625 633.75 241.458 635.208C240.833 633.542 240 632.083 239.167 630.625ZM247.292 645.625C246.042 643.333 244.583 641.042 243.333 638.75C244.583 641.042 246.042 643.333 247.292 645.625ZM252.083 653.75C251.042 652.083 250 650.625 249.167 648.958C250.208 650.417 251.25 652.083 252.083 653.75ZM774.167 599.792C773.958 600.417 773.542 601.25 773.333 601.875C773.542 601.25 773.75 600.417 774.167 599.792ZM765.208 621.25C765.625 620.208 766.25 619.167 766.667 617.917C766.25 619.167 765.833 620.208 765.208 621.25ZM233.958 619.792C235 622.083 236.042 624.583 237.292 626.875C236.25 624.583 235 622.083 233.958 619.792ZM265.833 673.958C267.5 676.25 269.167 678.542 271.042 680.625C269.375 678.542 267.708 676.25 265.833 673.958ZM578.333 218.958C554.375 212.292 528.958 208.542 502.917 208.333C503.958 208.333 505 208.333 506.042 208.333C531.25 208.333 555.417 212.083 578.333 218.958ZM228.75 607.5C229.375 608.75 229.792 610.208 230.417 611.458C230 610.625 229.583 609.583 229.167 608.75C229.167 608.333 228.958 607.917 228.75 607.5ZM768.542 613.75C767.917 615.208 767.292 616.667 766.667 618.125C767.292 616.667 767.917 615.208 768.542 613.75ZM500 208.542C499.375 208.542 498.958 208.542 498.333 208.542C499.792 208.542 501.25 208.542 502.917 208.333C528.958 208.542 554.375 212.292 578.333 218.958C579.583 219.375 580.833 219.792 582.083 220.208C556.042 212.5 528.542 208.542 500 208.542ZM774.167 599.792C774.792 598.125 775.417 596.25 776.042 594.375C775.417 596.25 774.792 597.917 774.167 599.792ZM764.167 623.542C764.583 622.708 764.792 622.083 765.208 621.25C765 622.083 764.583 622.917 764.167 623.542ZM773.333 601.875C772.083 605.208 770.833 608.542 769.375 611.667C770.833 608.542 772.083 605.208 773.333 601.875ZM776.667 592.5C777.083 591.25 777.5 590 777.917 588.542C777.5 589.792 777.083 591.042 776.667 592.5ZM249.167 648.958C248.542 647.917 247.917 646.875 247.292 645.833C247.917 646.667 248.542 647.708 249.167 648.958ZM252.083 653.75C252.708 654.792 253.333 655.833 253.958 656.875C253.333 655.833 252.708 654.792 252.083 653.75ZM241.458 635.208C242.083 636.458 242.708 637.5 243.333 638.75C242.708 637.5 242.083 636.25 241.458 635.208ZM260.417 666.458C259.792 665.625 259.167 664.583 258.542 663.75C259.167 664.583 259.792 665.417 260.417 666.458ZM265.833 673.958C265.208 673.125 264.583 672.292 263.958 671.458C264.583 672.292 265.208 673.125 265.833 673.958ZM271.042 680.625C271.25 680.833 271.458 681.25 271.667 681.458C271.458 681.25 271.25 681.042 271.042 680.625ZM233.958 619.792C233.333 618.542 232.708 617.083 232.292 615.833C232.917 617.083 233.333 618.542 233.958 619.792ZM237.292 626.875C237.917 628.125 238.542 629.375 239.167 630.625C238.542 629.375 237.917 628.125 237.292 626.875ZM692.708 562.917L647.083 556.667C595 552.292 554.167 507.708 556.042 453.958C557.917 402.292 599.792 360 651.458 358.125C685 356.875 715.208 372.083 734.167 396.25C735.417 397.917 737.292 398.958 739.375 399.167C741.667 399.167 743.542 398.125 745 396.25C746.458 394.375 746.458 392.708 746.25 391.25V391.042C746.25 391.042 746.25 391.042 746.25 390.833C723.958 310 661.875 245.625 582.5 220.208C556.458 212.5 528.958 208.542 500.417 208.542C499.792 208.542 499.375 208.542 498.75 208.542C338.125 209.375 208.333 339.583 208.333 500C208.333 537.917 215.625 574.167 228.75 607.5C229.375 608.75 229.792 610.208 230.417 611.458C231.042 612.917 231.667 614.375 232.292 615.833C232.917 617.083 233.542 618.542 233.958 619.792C235 622.083 236.042 624.583 237.292 626.875C237.917 628.125 238.542 629.375 239.167 630.625C240 632.083 240.625 633.75 241.458 635.208C242.083 636.458 242.708 637.5 243.333 638.75C244.583 641.042 245.833 643.333 247.292 645.625C247.917 646.667 248.542 647.708 249.167 648.75C250.208 650.417 251.042 652.083 252.083 653.542C252.708 654.583 253.333 655.625 253.958 656.667C255.417 658.958 256.875 661.25 258.542 663.542C259.167 664.375 259.792 665.417 260.417 666.25C261.667 667.917 262.708 669.583 263.958 671.25C264.583 672.083 265.208 672.917 265.833 673.75C267.5 676.042 269.167 678.333 271.042 680.417C271.25 680.625 271.458 681.042 271.667 681.25C292.917 691.667 314.167 699.167 347.917 699.167C352.083 699.167 356.25 698.958 360.625 698.75C412.5 696.25 434.583 681.25 465.208 660.833C501.458 636.458 546.667 606.25 632.917 601.875C639.375 601.458 645.625 601.458 651.667 601.458C700 601.458 735.417 611.25 763.958 623.333C764.375 622.5 764.583 621.875 765 621.042C765.417 620 766.042 618.958 766.458 617.708C767.083 616.25 767.708 614.792 768.333 613.333C768.542 612.708 768.75 612.083 769.167 611.458C770.417 608.125 771.875 605 773.125 601.667C773.333 601.042 773.75 600.208 773.958 599.583C774.583 597.917 775.208 596.042 775.833 594.167C776.042 593.542 776.25 592.708 776.458 592.083C776.875 590.833 777.292 589.583 777.708 588.125C750 574.167 720.833 566.667 692.708 562.917ZM352.917 751.875C352.5 751.667 352.083 751.458 351.667 751.25C352.083 751.458 352.5 751.667 352.917 751.875ZM335.208 740.625C335.417 740.625 335.417 740.833 335.625 740.833C335.625 740.833 335.417 740.833 335.208 740.625ZM369.792 761.042C370.208 761.25 370.625 761.458 370.833 761.667C370.417 761.458 370.208 761.25 369.792 761.042ZM388.542 769.583C388.75 769.792 389.167 769.792 389.375 770C389.167 769.792 388.958 769.792 388.542 769.583ZM723.125 687.708C723.542 687.083 724.167 686.667 724.583 686.042C724.167 686.458 723.75 687.083 723.125 687.708ZM717.083 694.583C717.5 694.167 717.708 693.75 718.125 693.333C717.917 693.958 717.5 694.375 717.083 694.583C717.083 694.792 717.083 694.792 717.083 694.583ZM737.708 668.958C737.292 669.375 737.083 669.792 736.667 670.417C737.083 669.792 737.5 669.375 737.708 668.958ZM730.417 678.958C731.042 678.125 731.458 677.5 732.083 676.667C731.458 677.5 730.833 678.125 730.417 678.958ZM343.542 746.25C343.75 746.25 343.75 746.458 343.958 746.458C343.958 746.458 343.75 746.25 343.542 746.25ZM742.917 661.458C743.125 661.042 743.542 660.625 743.75 660.208C743.542 660.625 743.125 661.042 742.917 661.458ZM743.75 660.208C743.542 660.625 743.125 661.042 742.917 661.458C741.25 663.958 739.583 666.458 737.708 668.958C737.292 669.375 737.083 669.792 736.667 670.417C735.208 672.5 733.542 674.792 731.875 676.875C731.25 677.708 730.833 678.333 730.208 679.167C728.333 681.458 726.458 683.958 724.583 686.25C724.167 686.875 723.542 687.292 723.125 687.917C721.458 689.792 719.792 691.875 718.125 693.75C717.708 694.167 717.5 694.583 717.083 695C696.042 688.125 671.042 683.958 637.083 685.625C573.75 688.75 543.542 709.167 511.458 730.625C485 748.333 455.833 767.917 408.125 777.292C408.125 777.292 408.125 777.292 407.917 777.292C404.792 776.25 401.458 775 398.333 773.958C395.208 772.917 392.292 771.667 389.375 770.417C389.167 770.208 388.75 770.208 388.542 770C382.5 767.5 376.667 764.792 370.833 761.875C370.417 761.667 370 761.458 369.792 761.25C364.167 758.333 358.542 755.417 352.917 752.083C352.5 751.875 352.083 751.667 351.667 751.458C349.167 750 346.458 748.333 343.958 746.667C343.75 746.667 343.75 746.458 343.542 746.458C340.833 744.792 338.125 742.917 335.625 741.25C335.417 741.25 335.417 741.042 335.208 741.042C343.75 741.458 352.917 741.458 362.708 741.042C426.042 737.917 456.25 717.5 488.333 696.042C522.083 673.542 560.208 647.917 635 644.167C682.708 641.458 716.25 649.375 743.75 660.208ZM641.25 755.208C642.083 754.792 642.708 754.375 643.542 753.958C642.708 754.375 641.875 754.792 641.25 755.208ZM654.167 747.708C653.542 748.125 652.708 748.542 652.083 748.958C652.708 748.542 653.333 748.125 654.167 747.708ZM667.292 738.958C666.458 739.583 665.625 740 665 740.625C665.625 740 666.458 739.583 667.292 738.958ZM670 737.083C670.208 736.875 670.417 736.667 670.625 736.667C670.417 736.667 670.208 736.875 670 737.083ZM659.792 743.958C660.625 743.542 661.25 742.917 662.083 742.5C661.25 743.125 660.417 743.542 659.792 743.958ZM646.667 752.083C647.5 751.667 648.125 751.25 648.958 750.833C648.125 751.25 647.5 751.667 646.667 752.083ZM521.042 790.833C519.375 791.042 517.917 791.042 516.25 791.042C517.708 791.042 519.375 791.042 521.042 790.833ZM522.917 790.833C525.208 790.625 527.292 790.417 529.583 790.208C527.5 790.417 525.208 790.625 522.917 790.833ZM542.917 788.542C541.458 788.75 540 788.958 538.542 789.167C540.208 788.958 541.667 788.75 542.917 788.542ZM637.917 757.083C637.292 757.5 636.458 757.917 635.833 758.125C636.458 757.708 637.292 757.292 637.917 757.083ZM545.417 788.125C546.875 787.917 548.333 787.708 549.792 787.292C548.542 787.708 547.083 787.917 545.417 788.125ZM558.333 785.833C556.25 786.25 554.167 786.667 552.083 787.083C554.167 786.667 556.25 786.25 558.333 785.833ZM530.833 790C532.708 789.792 534.583 789.583 536.25 789.375C534.583 789.583 532.708 789.792 530.833 790ZM513.75 791.25C512.083 791.25 510.625 791.458 508.958 791.458C510.625 791.458 512.083 791.458 513.75 791.25ZM500 791.667C502.292 791.667 504.583 791.667 506.875 791.667C504.583 791.667 502.292 791.667 500 791.667ZM564.792 784.375C563.333 784.792 561.875 785 560.417 785.417C561.875 785 563.333 784.792 564.792 784.375ZM615.833 767.708C616.667 767.292 617.5 766.875 618.542 766.458C617.5 766.875 616.667 767.292 615.833 767.708ZM604.375 772.292C603.333 772.708 602.292 773.125 601.25 773.542C602.292 773.125 603.333 772.708 604.375 772.292ZM612.708 769.167C611.667 769.583 610.625 770 609.583 770.417C610.625 770 611.667 769.583 612.708 769.167ZM624.167 763.958C623.333 764.375 622.5 764.792 621.667 765.208C622.5 764.792 623.333 764.375 624.167 763.958ZM571.25 782.917C570 783.125 568.75 783.542 567.5 783.75C568.75 783.542 570 783.125 571.25 782.917ZM627.5 762.5C628.333 762.083 628.958 761.667 629.792 761.25C628.958 761.667 628.125 762.083 627.5 762.5ZM573.958 782.292C575.208 781.875 576.458 781.667 577.917 781.25C576.458 781.458 575.208 781.875 573.958 782.292ZM598.333 774.583C597.292 775 596.25 775.208 595.208 775.625C596.25 775.417 597.292 775 598.333 774.583ZM580.208 780.417C582.083 779.792 584.167 779.375 586.042 778.75C584.167 779.375 582.292 780 580.208 780.417ZM592.292 776.667C591.25 777.083 590 777.5 588.958 777.708C590 777.5 591.042 777.083 592.292 776.667ZM670.625 736.458C670.417 736.667 670.208 736.875 670 736.875C669.167 737.5 668.125 738.125 667.292 738.75C666.458 739.375 665.625 739.792 665 740.417C663.958 741.042 663.125 741.667 662.083 742.292C661.25 742.708 660.625 743.333 659.792 743.75C657.917 745 656.042 746.25 654.167 747.292C653.542 747.708 652.708 748.125 652.083 748.542C651.042 749.167 650 749.792 648.958 750.417C648.125 750.833 647.5 751.25 646.667 751.667C645.625 752.292 644.583 752.917 643.542 753.542C642.708 753.958 642.083 754.375 641.25 754.792C640.208 755.417 639.167 756.042 637.917 756.667C637.292 757.083 636.458 757.5 635.833 757.708C633.75 758.75 631.875 759.792 629.792 760.833C628.958 761.25 628.333 761.667 627.5 762.083C626.458 762.708 625.417 763.125 624.167 763.542C623.333 763.958 622.5 764.375 621.667 764.792C620.625 765.208 619.583 765.833 618.542 766.25C617.708 766.667 616.875 767.083 615.833 767.5C614.792 767.917 613.75 768.333 612.708 768.958C611.667 769.375 610.625 769.792 609.583 770.208C607.917 770.833 606.25 771.458 604.583 772.292C603.542 772.708 602.5 773.125 601.458 773.542C600.417 773.958 599.375 774.375 598.333 774.583C597.292 775 596.25 775.208 595.208 775.625C594.167 776.042 593.125 776.25 592.292 776.667C591.25 777.083 590 777.5 588.958 777.708C588.125 777.917 587.083 778.333 586.25 778.542C584.375 779.167 582.5 779.792 580.417 780.208C579.583 780.417 578.75 780.625 577.917 780.833C576.667 781.25 575.417 781.458 573.958 781.875C573.125 782.083 572.083 782.292 571.25 782.5C570 782.708 568.75 783.125 567.5 783.333C566.667 783.542 565.625 783.75 564.792 783.958C563.333 784.375 561.875 784.583 560.417 785C559.792 785.208 558.958 785.208 558.333 785.417C556.25 785.833 554.167 786.25 552.083 786.667C551.458 786.875 550.625 786.875 550 787.083C548.542 787.292 547.083 787.5 545.625 787.917C544.792 788.125 543.958 788.125 543.125 788.333C541.667 788.542 540.208 788.75 538.75 788.958C537.917 788.958 537.083 789.167 536.458 789.167C534.583 789.375 532.708 789.583 531.042 789.792C530.625 789.792 530.208 789.792 529.792 790C527.5 790.208 525.417 790.417 523.125 790.625C522.5 790.625 521.667 790.625 521.042 790.833C519.375 791.042 517.917 791.042 516.25 791.042C515.417 791.042 514.583 791.042 513.958 791.25C512.292 791.25 510.833 791.458 509.167 791.458C508.542 791.458 507.708 791.458 507.083 791.458C504.792 791.458 502.5 791.458 500.208 791.458C497.5 791.458 494.792 791.458 492.083 791.25H491.875C489.167 791.25 486.667 791.042 483.958 790.833C485.417 789.792 486.875 788.75 488.542 787.708C522.292 765.208 560.417 739.583 635.208 735.833C647.917 735.625 659.792 735.833 670.625 736.458Z" fill="black"/>
</svg>
