<svg width="1000" height="1000" viewBox="0 0 1000 1000" fill="none" xmlns="http://www.w3.org/2000/svg">
<path fill-rule="evenodd" clip-rule="evenodd" d="M626.667 468.75H531.25V412.292C558.75 428.333 590.833 437.292 625 437.292H630.208C628.75 447.708 627.5 458.125 626.667 468.75ZM750 437.5H693.542C691.667 447.708 690.208 458.125 689.375 468.75H852.917C853.75 478.958 854.375 489.375 854.375 500C854.375 510.625 853.958 521.042 852.917 531.25H689.375C696.042 605.833 725.417 673.75 771.042 727.917C757.5 743.958 742.708 758.75 726.667 772.083C670 706.458 633.75 623.125 626.875 531.25H531.25V852.708C521.042 853.542 510.625 854.167 500 854.167C489.375 854.167 478.958 853.75 468.75 852.708V531.25H373.333C366.458 622.917 330.208 706.458 273.542 772.083C257.5 758.75 242.708 743.958 229.167 727.917C274.792 673.75 304.167 605.833 310.833 531.25H147.292C146.458 521.042 145.833 510.625 145.833 500C145.833 489.375 146.25 478.958 147.292 468.75H310.833C304.167 394.167 274.792 326.25 229.167 272.083C242.708 256.042 257.5 241.25 273.542 227.917C330.208 293.542 366.458 376.875 373.333 468.75H468.75V353.542C448.958 323.75 437.5 288.125 437.5 250C437.5 178.75 477.292 116.667 536.042 85C524.167 83.9584 512.083 83.3334 500 83.3334C269.792 83.3334 83.3333 269.792 83.3333 500C83.3333 730 269.792 916.667 500 916.667C730 916.667 916.667 730 916.667 500C916.667 453.958 909.167 409.792 895.417 368.333C861.042 410.417 808.75 437.5 750 437.5ZM895.833 250C895.833 330.417 830.417 395.833 750 395.833H625C544.583 395.833 479.167 330.417 479.167 250C479.167 169.583 544.583 104.167 625 104.167H750C830.417 104.167 895.833 169.583 895.833 250ZM656.458 182.292H627.917V271.458C627.917 286.042 616.042 295 600 295C584.167 295 572.292 286.042 572.292 271.458V182.292H543.542V272.5C543.542 303.333 567.083 320.625 600 320.625C632.917 320.625 656.458 303.333 656.458 272.5V182.292V182.292ZM738.75 182.292H711.667L677.917 203.75V229.167L709.167 209.583H710V318.75H738.75V182.292ZM830.625 182.292H803.542L769.792 203.75V229.167L801.042 209.583H801.875V318.75H830.625V182.292Z" fill="black"/>
</svg>
