<svg width="1000" height="1000" viewBox="0 0 1000 1000" fill="none" xmlns="http://www.w3.org/2000/svg">
<path fill-rule="evenodd" clip-rule="evenodd" d="M208.333 583.332C162.292 583.332 125 546.041 125 499.999C125 453.957 162.292 416.666 208.333 416.666C254.375 416.666 291.667 453.957 291.667 499.999C291.667 546.041 254.375 583.332 208.333 583.332ZM223.75 847.499L207.5 868.958C194.792 887.083 215.833 905.208 234.167 918.124C252.292 930.833 276.667 944.374 289.375 926.249L304.167 903.541L223.75 847.499ZM315.208 886.041L398.958 756.874L329.375 708.124L236.458 830.832L315.208 886.041ZM802.708 97.9158C714.167 38.7491 593.542 59.1658 529.167 143.749C506.875 173.332 493.75 206.666 489.583 240.832L453.75 445.416C440.208 523.332 409.583 597.083 364.167 661.874L341.667 691.457L410 739.374L430.625 707.499C475.625 643.333 534.375 589.791 602.292 550.416L782.708 446.249C811.042 431.666 836.458 410.207 856.042 382.291C921.042 289.374 897.5 161.041 802.708 97.9158Z" fill="black"/>
</svg>
