<svg width="1000" height="1000" viewBox="0 0 1000 1000" fill="none" xmlns="http://www.w3.org/2000/svg">
<path d="M931.67 272.083C917.711 216.458 878.753 165.833 815.836 121.667C752.92 77.5 692.086 58.3334 635.003 64.1667C568.128 71.25 507.503 112.708 455.003 187.708C401.878 263.75 372.92 350.208 373.753 431.458C374.17 466.667 380.003 499.375 391.045 528.125L351.461 743.75C339.378 740.834 326.253 745.417 318.753 756.25L235.003 875.625C225.003 889.792 228.545 909.167 242.711 919.167L259.795 931.042C273.961 941.042 293.336 937.5 303.336 923.334L387.086 803.959C394.586 793.125 394.378 779.375 387.711 768.959L579.17 659.792C610.003 660.209 642.711 654.792 676.045 642.917C752.711 615.834 824.17 559.167 877.295 483.333C929.586 408.333 947.92 337.292 931.67 272.083ZM399.17 714.375L422.92 585C434.795 599.792 448.545 612.917 464.17 623.958C479.586 634.792 496.253 643.125 513.961 649.167L399.17 714.375Z" fill="black"/>
<path d="M208.334 457.912C216.875 457.912 225.209 460.621 232.084 465.412C241.25 471.871 247.292 481.246 249.167 492.287C251.042 503.329 248.75 514.371 242.292 523.329C234.584 534.371 221.667 541.037 208.125 541.037C199.584 541.037 191.25 538.329 184.375 533.537C175.208 527.079 169.167 517.704 167.292 506.662C165.417 495.621 167.708 484.579 174.167 475.621C182.084 464.579 194.792 457.912 208.334 457.912ZM208.334 416.246C182.084 416.246 156.25 428.537 140 451.871C113.542 489.579 122.708 541.454 160.417 567.912C175 578.121 191.667 582.912 208.125 582.912C234.375 582.912 260.209 570.621 276.459 547.287C302.917 509.579 293.75 457.704 256.042 431.246C241.667 421.037 225 416.246 208.334 416.246Z" fill="black"/>
</svg>
