<svg width="1000" height="1000" viewBox="0 0 1000 1000" fill="none" xmlns="http://www.w3.org/2000/svg">
<path d="M292.708 570.624C295.416 564.582 301.458 559.582 305.624 557.291C301.458 559.582 295.208 564.374 292.708 570.624Z" fill="black"/>
<path d="M576.041 767.292C576.458 767.084 577.083 766.667 577.499 766.459C577.083 766.667 576.666 766.876 576.041 767.292Z" fill="black"/>
<path d="M578.124 766.044C578.541 765.836 578.958 765.419 579.374 765.211C578.958 765.627 578.541 765.836 578.124 766.044Z" fill="black"/>
<path d="M272.09 565.829C272.09 565.621 272.299 565.412 272.299 564.996C272.299 565.412 272.299 565.621 272.09 565.829Z" fill="black"/>
<path d="M579.794 764.791C580.419 764.374 580.836 763.957 581.253 763.541C580.836 763.957 580.211 764.582 579.794 764.791Z" fill="black"/>
<path d="M270.833 578.954C270.833 578.745 270.833 578.745 270.833 578.537C270.833 578.745 270.833 578.954 270.833 578.954Z" fill="black"/>
<path d="M271.462 568.541C271.462 568.332 271.67 567.916 271.67 567.707C271.67 567.916 271.462 568.124 271.462 568.541Z" fill="black"/>
<path d="M306.67 556.877C306.461 557.086 306.045 557.086 305.836 557.294C306.045 557.086 306.253 556.877 306.67 556.877Z" fill="black"/>
<path d="M578.742 788.747C577.7 789.164 576.867 789.372 575.825 789.581C576.867 789.372 577.7 788.956 578.742 788.747Z" fill="black"/>
<path d="M595.204 778.959C594.163 779.792 593.121 780.834 592.079 781.667C593.121 780.834 594.163 780.001 595.204 778.959Z" fill="black"/>
<path d="M587.291 784.787C586.249 785.412 585.208 785.829 584.374 786.454C585.416 785.829 586.249 785.412 587.291 784.787Z" fill="black"/>
<path d="M591.246 782.291C590.204 783.124 589.163 783.749 587.913 784.582C589.163 783.749 590.204 782.916 591.246 782.291Z" fill="black"/>
<path d="M583.336 786.871C582.294 787.496 581.044 787.912 579.794 788.329C581.044 787.912 582.294 787.287 583.336 786.871Z" fill="black"/>
<path d="M759.994 128.753C750.619 122.086 737.494 124.378 731.035 133.961L345.41 684.587C324.369 665.42 306.244 645.42 292.91 626.253C279.577 607.086 273.952 592.92 271.869 584.17C271.66 583.336 271.452 582.503 271.244 581.67L271.246 581.457C271.037 580.624 271.035 580.003 270.827 579.17C270.827 578.961 270.827 578.961 270.827 578.753C270.619 577.086 270.617 575.211 270.617 573.544C270.617 572.711 270.827 571.878 270.827 571.045C270.827 570.836 270.827 570.628 271.035 570.42C271.035 569.795 271.253 569.166 271.462 568.541C271.462 568.332 271.67 567.916 271.67 567.707C271.878 567.082 272.09 566.454 272.09 565.829C272.09 565.621 272.299 565.412 272.299 564.996C272.507 564.162 272.91 563.336 273.327 562.503C279.785 547.086 296.869 535.836 307.91 535.211C313.535 535.003 318.535 539.378 318.744 545.211C318.952 551.045 314.577 555.836 308.744 556.045C308.535 556.045 308.327 556.045 308.119 556.253C307.91 556.253 307.91 556.253 307.702 556.461C307.494 556.461 307.494 556.461 307.285 556.67C307.077 556.67 306.878 556.877 306.67 556.877C306.67 556.877 306.452 556.878 306.452 557.086C306.244 557.295 305.827 557.295 305.619 557.503C305.619 557.503 305.619 557.503 305.41 557.503C301.244 559.795 295.202 564.586 292.494 570.836C301.244 571.045 312.91 572.711 327.702 576.461C341.869 580.211 356.66 585.42 372.077 592.086L420.619 522.711C392.494 509.378 364.785 499.378 338.952 493.545C253.744 474.17 216.869 505.628 202.702 526.045C188.327 546.461 171.452 591.67 218.744 665.211C237.91 694.795 264.994 725.212 297.285 753.545L234.994 842.503C228.327 851.878 230.619 865.003 240.202 871.462C243.744 873.962 247.91 875.212 252.077 875.212C258.744 875.212 265.202 872.087 269.16 866.253L329.785 779.587C335.41 783.753 341.035 787.92 346.869 792.087C401.244 830.212 459.369 857.503 509.994 868.962C528.744 873.128 545.202 875.003 559.369 875.003C610.202 875.003 634.994 852.295 646.244 836.462C660.619 816.045 677.494 770.837 630.202 697.295C603.535 655.837 561.035 612.92 510.202 576.045L462.494 644.17C501.66 672.711 534.577 705.003 556.035 736.045C565.202 749.17 570.619 760.003 573.952 768.336C574.577 768.128 575.202 767.711 575.827 767.503C575.827 767.503 576.041 767.501 576.041 767.292C576.458 767.084 577.083 766.667 577.499 766.459C577.708 766.459 577.91 766.253 577.91 766.253C578.327 766.045 578.744 765.628 579.16 765.42C579.369 765.211 579.577 765.212 579.577 765.003C580.202 764.587 580.619 764.17 581.035 763.753C584.369 760.42 585.202 756.878 583.744 752.295C582.077 746.878 584.994 741.045 590.619 739.17C596.035 737.503 601.869 740.42 603.744 746.045C607.702 758.545 604.577 770.42 595.202 779.17C594.16 780.003 593.119 781.045 592.077 781.878C591.869 782.086 591.66 782.295 591.244 782.503C590.202 783.337 589.16 783.962 587.91 784.795C587.702 785.003 587.494 785.003 587.285 785.211C586.244 785.836 585.202 786.253 584.369 786.878C584.16 787.087 583.744 787.086 583.535 787.295C582.494 787.92 581.244 788.337 579.994 788.753C579.577 788.962 579.16 788.961 578.744 789.17C577.702 789.586 576.869 789.795 575.827 790.003C575.41 790.003 575.202 790.211 574.785 790.211C567.91 792.295 551.244 794.17 521.035 786.253C482.077 776.045 437.285 753.962 394.577 724.17C388.744 720.003 383.119 715.837 377.494 711.67L764.994 158.128C771.66 148.336 769.369 135.42 759.994 128.753Z" fill="black"/>
<path d="M272.503 564.999C272.712 564.166 273.128 563.332 273.545 562.499C272.92 563.332 272.712 564.166 272.503 564.999Z" fill="black"/>
<path d="M271.035 570.42C271.035 569.795 271.253 569.166 271.462 568.541C271.253 569.166 271.244 569.795 271.035 570.42Z" fill="black"/>
<path d="M270.617 573.332C270.617 572.499 270.825 571.666 270.825 570.832C270.825 571.874 270.825 572.499 270.617 573.332Z" fill="black"/>
<path d="M271.67 567.707C271.878 567.082 272.09 566.454 272.09 565.829C271.882 566.454 271.878 567.082 271.67 567.707Z" fill="black"/>
<path d="M307.924 556.249C307.715 556.249 307.711 556.247 307.503 556.456C307.711 556.456 307.715 556.457 307.924 556.249Z" fill="black"/>
<path d="M270.617 573.544C270.409 575.211 270.618 577.086 270.827 578.753C270.618 576.878 270.617 575.211 270.617 573.544Z" fill="black"/>
<path d="M306.878 556.664C306.878 556.664 306.67 556.669 306.67 556.877C306.67 556.877 306.878 556.664 306.878 556.664Z" fill="black"/>
<path d="M577.499 766.459C577.708 766.459 577.91 766.253 577.91 766.253C577.91 766.253 577.708 766.251 577.499 766.459Z" fill="black"/>
<path d="M574.784 789.791C575.2 789.791 575.409 789.581 575.825 789.581C575.617 789.581 575.2 789.791 574.784 789.791Z" fill="black"/>
<path d="M579.166 765.206C579.374 764.997 579.583 764.997 579.583 764.789C579.583 764.997 579.374 765.206 579.166 765.206Z" fill="black"/>
<path d="M580.003 788.334C579.586 788.542 579.159 788.539 578.742 788.747C579.159 788.539 579.586 788.334 580.003 788.334Z" fill="black"/>
<path d="M584.374 786.454C584.166 786.662 583.757 786.666 583.549 786.874C583.757 786.666 583.958 786.454 584.374 786.454Z" fill="black"/>
</svg>
