<svg width="1000" height="1000" viewBox="0 0 1000 1000" fill="none" xmlns="http://www.w3.org/2000/svg">
<path d="M807.502 80.2112C803.96 73.3362 797.085 68.5445 789.377 67.5028C570.627 37.9195 350.002 121.461 221.46 305.003C92.9183 488.544 89.7933 724.378 192.293 919.794C195.835 926.669 202.71 931.461 210.418 932.503C428.96 962.086 649.585 878.544 778.127 695.003C906.877 511.461 910.002 275.419 807.502 80.2112ZM677.502 446.253C671.46 455.003 661.668 459.586 651.877 459.586C645.627 459.586 639.377 457.711 633.96 453.961L591.252 424.169L543.543 492.503L586.252 522.294C600.418 532.294 603.752 551.669 593.96 565.836C587.918 574.586 578.127 579.169 568.335 579.169C562.085 579.169 555.835 577.294 550.418 573.544L507.71 543.753L460.002 612.086L502.71 641.878C516.877 651.878 520.21 671.253 510.418 685.419C504.377 694.169 494.585 698.753 484.793 698.753C478.543 698.753 472.293 696.878 466.877 693.128L424.168 663.336L394.377 706.044C388.335 714.794 378.543 719.378 368.752 719.378C362.502 719.378 356.252 717.503 350.835 713.753C336.668 703.753 333.335 684.378 343.127 670.211L372.918 627.086L330.21 597.294C316.043 587.294 312.71 567.919 322.502 553.753C332.502 539.586 351.877 536.253 366.043 546.044L408.752 575.836L456.46 507.503L413.752 477.711C399.585 467.711 396.252 448.336 406.043 434.169C416.043 420.003 435.418 416.669 449.585 426.461L492.293 456.253L540.002 387.919L497.502 358.336C483.335 348.336 480.002 328.961 489.793 314.794C499.793 300.628 519.168 297.294 533.335 307.086L576.043 336.878L605.835 294.169C615.835 280.003 635.21 276.669 649.377 286.461C663.543 296.461 666.877 315.836 657.085 330.003L627.085 372.919L669.793 402.711C683.96 412.711 687.502 432.086 677.502 446.253Z" fill="black"/>
</svg>
