<svg width="1000" height="1000" viewBox="0 0 1000 1000" fill="none" xmlns="http://www.w3.org/2000/svg">
<path d="M769.793 853.125H537.501C528.334 853.125 520.834 845.625 520.834 836.458V83.3333C520.834 83.125 520.834 82.9167 520.834 82.5C520.834 82.0833 520.834 81.6667 520.834 81.4583C520.834 81.0417 520.834 80.625 520.626 80.4167C520.626 80.2083 520.626 79.7917 520.418 79.5833C520.418 79.1667 520.209 78.75 520.209 78.3333C520.209 78.125 520.001 77.9167 520.001 77.5C519.793 77.0833 519.793 76.6667 519.584 76.25C519.584 76.0417 519.376 75.8333 519.376 75.625C519.168 75.2083 519.168 74.7917 518.959 74.5833C518.751 74.375 518.751 73.9583 518.543 73.75C518.334 73.3333 518.126 73.125 517.918 72.7083C517.709 72.5 517.501 72.0833 517.501 71.875C517.293 71.6667 517.084 71.25 516.876 71.0417C516.668 70.8333 516.459 70.4167 516.251 70.2083C516.043 70 515.834 69.7917 515.626 69.375C515.418 69.1667 515.209 68.9583 515.001 68.5417C514.793 68.3333 514.376 68.125 514.168 67.7083C513.959 67.5 513.751 67.2917 513.543 67.0833C513.126 66.875 512.918 66.4583 512.501 66.25C512.293 66.0417 512.293 66.0417 512.084 65.8333C512.084 65.8333 512.084 65.8333 511.876 65.8333C511.459 65.625 511.043 65.2083 510.418 65C510.209 65 510.209 64.7917 510.001 64.7917C509.584 64.5833 508.959 64.375 508.543 64.1667C508.334 64.1667 508.334 63.9583 508.126 63.9583C507.709 63.75 507.293 63.5417 506.668 63.5417C506.459 63.5417 506.251 63.3333 506.043 63.3333C505.626 63.125 505.209 63.125 505.001 63.125C504.793 63.125 504.376 62.9167 504.168 62.9167C503.959 62.9167 503.543 62.9167 503.334 62.7083C502.918 62.7083 502.501 62.5 502.293 62.5C502.084 62.5 501.668 62.5 501.459 62.5C501.043 62.5 500.626 62.5 500.209 62.5H500.001C499.793 62.5 499.584 62.5 499.168 62.5C498.751 62.5 498.334 62.5 498.126 62.5C497.709 62.5 497.293 62.5 497.084 62.7083C496.876 62.7083 496.459 62.7083 496.251 62.9167C495.834 62.9167 495.418 63.125 495.001 63.125C494.793 63.125 494.584 63.3333 494.168 63.3333C493.751 63.5417 493.334 63.5417 492.918 63.75C492.709 63.75 492.501 63.9583 492.084 63.9583C491.668 64.1667 491.459 64.1667 491.043 64.375C490.834 64.5833 490.418 64.5833 490.209 64.7917C490.001 65 489.584 65.2083 489.376 65.2083C489.168 65.4167 488.751 65.625 488.543 65.8333C488.334 66.0417 488.126 66.25 487.709 66.25C487.501 66.4583 487.084 66.6667 486.876 66.875C486.668 67.0833 486.459 67.2917 486.251 67.5C486.043 67.7083 485.626 67.9167 485.418 68.3333C485.209 68.5417 485.001 68.75 484.793 68.9583C484.584 69.1667 484.376 69.375 484.168 69.7917C483.959 70 483.751 70.4167 483.334 70.8333C483.126 71.0417 483.126 71.25 482.918 71.4583L309.168 319.583C322.293 324.792 334.168 332.708 343.959 342.5L471.459 160.417C473.751 157.083 478.959 158.75 478.959 162.708V836.667C478.959 845.833 471.459 853.333 462.293 853.333H230.209C207.709 853.333 188.334 870.833 187.501 893.542C186.668 917.292 205.626 936.667 229.168 936.667H770.834C794.376 936.667 813.334 917.083 812.501 893.542C811.668 870.833 792.501 853.125 769.793 853.125Z" fill="black"/>
<path d="M270.835 478.754C305.352 478.754 333.335 450.772 333.335 416.254C333.335 381.736 305.352 353.754 270.835 353.754C236.317 353.754 208.335 381.736 208.335 416.254C208.335 450.772 236.317 478.754 270.835 478.754Z" fill="black"/>
</svg>
