<svg width="1000" height="1000" viewBox="0 0 1000 1000" fill="none" xmlns="http://www.w3.org/2000/svg">
<path fill-rule="evenodd" clip-rule="evenodd" d="M522.494 528.751L463.119 613.543C458.119 620.835 449.994 624.585 441.869 624.585C436.661 624.585 431.661 623.126 427.078 620.001L384.578 590.418L310.411 696.46C306.453 702.085 300.411 705.835 293.744 707.085C292.286 707.293 290.828 707.501 289.161 707.501C283.953 707.501 278.744 705.835 274.369 702.918L210.828 658.335C205.203 654.376 201.453 648.335 200.203 641.668C198.953 635.001 200.619 627.918 204.578 622.293L278.744 516.46L257.494 501.668L212.911 565.21C204.786 576.876 188.536 579.793 176.869 571.668C165.203 563.543 162.286 547.293 170.411 535.626L229.786 450.835C233.744 445.21 239.786 441.46 246.453 440.21C253.119 438.96 260.203 440.626 265.828 444.585L347.286 501.668L392.911 533.751L435.203 563.335L479.786 499.793C487.911 488.126 504.161 485.21 515.828 493.335C527.911 500.835 530.828 517.085 522.494 528.751ZM323.328 768.335L196.036 679.168C184.369 671.043 168.119 673.751 159.994 685.626C151.869 697.293 154.578 713.543 166.453 721.668L272.494 795.835L198.328 901.876C190.203 913.543 192.911 929.793 204.786 937.918C209.369 941.043 214.578 942.501 219.578 942.501C227.703 942.501 235.828 938.751 240.828 931.46L329.786 804.168C337.911 792.71 334.994 776.46 323.328 768.335ZM193.953 772.501C182.286 764.376 166.036 767.085 157.911 778.96L68.9528 906.251C60.8278 917.918 63.5361 934.168 75.4111 942.293C79.9944 945.418 85.2028 946.876 90.2028 946.876C98.3278 946.876 106.453 943.126 111.453 935.835L200.411 808.543C208.536 796.876 205.619 780.626 193.953 772.501ZM366.036 482.293C390.411 499.376 420.828 493.96 437.911 469.376C454.994 445.001 449.578 414.376 425.203 397.293C400.828 380.21 370.203 385.626 353.119 410.001C335.828 434.376 341.453 465.001 366.036 482.293ZM468.953 660.626L562.911 879.793C568.119 891.668 579.578 898.96 591.869 898.96C596.036 898.96 600.203 898.126 604.369 896.46C620.411 889.585 627.703 871.043 620.828 855.001L607.494 823.751L688.953 707.293C698.953 693.126 695.411 673.335 681.244 663.335L620.619 620.835C606.453 610.835 586.661 614.376 576.661 628.543C566.661 642.71 570.203 662.501 584.369 672.501L619.161 696.876L578.119 755.418L526.244 634.376C523.119 626.876 517.286 621.46 510.619 618.335L497.286 637.293C490.203 647.71 480.203 655.835 468.953 660.626ZM824.161 495.001C848.536 512.085 878.744 506.668 895.828 482.293C912.911 457.918 907.494 427.501 883.119 410.418C858.744 393.335 828.328 398.751 811.244 423.126C794.161 447.501 799.786 477.918 824.161 495.001ZM361.036 710.626C412.703 710.626 454.786 752.71 454.786 804.376C454.786 856.043 412.703 898.126 361.036 898.126C346.869 898.126 333.328 895.001 321.244 889.168L302.911 915.21C320.203 924.376 339.994 929.585 361.036 929.585C429.994 929.585 486.244 873.335 486.244 804.376C486.244 739.376 436.453 685.835 373.119 679.793L351.036 711.251C354.369 710.626 357.703 710.626 361.036 710.626ZM937.494 804.168C937.494 873.126 881.244 929.376 812.286 929.376C743.328 929.376 687.078 873.126 687.078 804.168C687.078 764.376 705.828 728.751 734.786 705.835L724.161 691.668C719.994 686.251 717.911 679.585 717.911 672.71V583.96H534.786L556.869 552.501C578.328 522.085 570.828 479.793 540.203 458.335C539.786 458.126 539.578 457.918 539.161 457.71H749.369C766.869 457.71 780.828 471.876 780.828 489.168V662.085L794.369 680.001C800.203 679.168 806.244 678.751 812.286 678.751C881.244 678.96 937.494 735.21 937.494 804.168ZM906.036 804.168C906.036 754.168 866.661 713.126 817.286 710.626L835.619 735.001C846.036 748.96 843.328 768.751 829.369 779.168C823.744 783.335 817.078 785.418 810.411 785.418C800.828 785.418 791.453 781.043 785.203 772.918L753.953 731.251C732.494 748.335 718.744 774.793 718.744 804.376C718.744 856.043 760.828 898.126 812.494 898.126C863.953 897.918 906.036 855.835 906.036 804.168ZM664.369 170.418C691.036 148.126 694.161 112.293 671.869 85.6263C649.578 58.9597 613.744 55.8347 587.078 78.1263C560.411 100.418 557.494 136.668 579.994 163.126C602.078 189.793 637.703 192.71 664.369 170.418ZM382.911 209.793L452.078 151.876L471.453 175.001L356.244 271.46C354.161 273.126 352.494 275.001 351.036 277.085C365.828 284.168 381.036 289.168 404.369 289.168C407.286 289.168 410.411 289.168 413.536 288.96C451.036 287.085 466.869 276.46 489.161 261.668C512.286 246.251 540.203 227.501 588.953 221.043L478.953 90.0013C468.328 77.293 449.369 75.6263 436.453 86.2513L344.161 163.751C331.453 174.376 329.786 193.335 340.411 206.251C351.244 218.96 370.203 220.626 382.911 209.793ZM814.578 299.168C768.744 301.46 745.619 289.168 721.036 276.043C695.203 262.293 665.828 246.668 611.869 249.376C557.703 252.085 530.203 270.626 505.828 286.876C482.703 302.293 460.828 317.085 414.994 319.376C369.161 321.668 346.036 309.376 321.453 296.251C295.619 282.501 266.244 266.876 212.286 269.585C203.953 270.001 197.703 277.085 198.119 285.418C198.536 293.751 205.619 300.001 213.953 299.585C259.786 297.293 282.911 309.585 307.494 322.71C333.328 336.46 362.703 352.085 416.661 349.376C470.828 346.668 498.328 328.126 522.703 311.876C545.828 296.46 567.703 281.668 613.536 279.376C659.369 277.085 682.494 289.376 707.078 302.501C732.911 316.251 762.286 331.876 816.244 329.168C824.578 328.751 830.828 321.668 830.411 313.335C829.994 305.001 822.911 298.751 814.578 299.168Z" fill="black"/>
</svg>
