<svg xmlns="http://www.w3.org/2000/svg" viewBox="0 0 480 480"><path d="M429.768 176.709c-11.883 14.587-28.234 25.394-46.952 30.31a207.983 207.983 0 0125.439 57.376 168.8 168.8 0 01-20.947 60.397c1.313-42.237-12.352-82.928-37.608-115.421-33.128-3.781-60.849-25.617-73.051-55.398-.498-.205-.996-.412-1.495-.613-.063.128-.121.256-.179.384-.087.192-.173.385-.281.576-7.68 14.8-13.08 30.62-16.4 46.92-.17.843-.345 1.684-.52 2.523v.001c-.646 3.109-1.291 6.212-1.7 9.376-.252 1.914-.381 3.846-.51 5.771-.064.972-.13 1.942-.21 2.908-.28 3.5-.44 7-.521 10.521 1.906 1.166 3.718 2.489 5.528 3.812v.001h.001l.001.001c1.077.786 2.154 1.573 3.25 2.326.695.481 1.423.924 2.152 1.366.906.551 1.814 1.103 2.668 1.734.398.283.775.605 1.154.929.342.292.685.585 1.046.851 5.08 3.8 9.88 7.88 14.58 12.12.189.16.381.318.572.478l.001.001c.573.476 1.146.952 1.687 1.462.129.119.253.248.38.38.129.134.259.27.399.399 14.74 13.841 27.681 29.5 37.841 47.08.11.173.198.359.287.548.056.118.111.237.173.353 2.56 4.5 4.819 9.1 7 13.7.122.255.226.511.327.762.082.202.163.402.253.598 1.92 4.141 3.619 8.301 5.26 12.521.218.559.459 1.109.7 1.66.311.71.62 1.419.88 2.14.06.16.125.315.189.47.065.155.13.311.19.471.235.663.431 1.339.626 2.013.17.586.339 1.171.534 1.747 1.14 3.399 2.239 6.82 3.22 10.3.132.508.294 1.003.457 1.496v.001c.183.557.365 1.111.503 1.683.18.601.36 1.221.521 1.82.403 1.576.714 3.16 1.024 4.747.167.851.334 1.701.515 2.553.16.745.324 1.487.487 2.228.191.866.383 1.73.566 2.598a170.843 170.843 0 01-26.089 18.239 172.985 172.985 0 00-1.702-11.428c-.38-1.98-.819-3.94-1.26-5.9-.939-4.34-1.899-8.66-3.2-12.939-.41-1.416-.916-2.814-1.42-4.206-.259-.713-.516-1.424-.76-2.135-.207-.609-.413-1.22-.618-1.829-1.142-3.383-2.275-6.745-3.682-10.051-6.38 4.721-13 9.24-20.061 13.32-48.211 27.83-104.279 34.413-156.073 20.812a171.27 171.27 0 01-42.031-48.397c55.745 34.532 126.305 36.028 183.808 2.838 7.399-4.28 14.2-9.14 20.72-14.24l-.067-.108-.089-.138-.124-.184c-.095-.141-.189-.28-.279-.43-8.98-14.061-20-26.641-32.461-37.7a347.877 347.877 0 01-2.499-2.202c-2.183-1.937-4.368-3.876-6.7-5.658-1.616-1.262-3.333-2.402-5.05-3.544l-.001-.001c-.705-.469-1.411-.938-2.109-1.415-2.88-2-5.82-3.9-8.84-5.72-1.993 1.091-4.066 2.006-6.143 2.922h-.002a139.42 139.42 0 00-3.576 1.618 45.23 45.23 0 00-2.317 1.217h-.001v.001h-.001c-.908.499-1.816.999-2.761 1.422-.458.203-.934.365-1.408.528h-.001c-.415.142-.829.284-1.23.452-5.84 2.52-11.78 4.64-17.82 6.6a70.53 70.53 0 00-1.029.369l-.002.001h-.002v.001h-.001c-.577.21-1.157.421-1.745.609-.221.077-.458.121-.689.165h-.001l-.168.031-.202.043c-19.34 5.88-39.399 9.26-59.7 9.26-.162 0-.319-.01-.474-.02h-.001a6.07 6.07 0 00-.445-.02c-5.22-.061-10.34-.381-15.46-.78v-.021a7.227 7.227 0 01-.739-.08c-.245-.034-.49-.069-.74-.079-4.521-.421-9-1.021-13.46-1.721-.58-.085-1.163-.148-1.745-.212h-.001c-.784-.085-1.565-.17-2.334-.308l-.132-.022-.15-.024-.175-.027h-.002a16.644 16.644 0 01-.521-.086c-.805-.135-1.581-.328-2.358-.522h-.001c-.497-.124-.994-.249-1.5-.357-3.521-.7-7.021-1.46-10.5-2.36-.44-.105-.888-.198-1.336-.291v-.001h-.001a30.547 30.547 0 01-1.943-.448c-.245-.065-.494-.124-.743-.183-.36-.085-.722-.171-1.077-.277-1.526-.416-3.013-.928-4.5-1.439-.87-.3-1.741-.6-2.62-.88-.681-.222-1.364-.439-2.047-.656-.909-.29-1.818-.579-2.723-.879a170.217 170.217 0 01-2.685-31.676 181.793 181.793 0 0010.764 4.228c1.9.68 3.84 1.279 5.78 1.88 4.22 1.359 8.439 2.66 12.76 3.699 1.363.322 2.742.568 4.116.812.845.15 1.687.301 2.523.468.769.149 1.535.301 2.301.453 3.345.663 6.683 1.324 10.1 1.747-.9-7.9-1.5-15.88-1.5-24.02 0-55.733 22.378-107.627 60.13-145.704 19.447-7.789 40.657-12.085 62.85-12.106-57.819 30.997-94.408 91.393-94.408 157.794 0 8.54.8 16.86 1.98 25.08.18-.01.354-.025.53-.04.175-.016.35-.03.529-.04 16.641-.76 33.021-3.98 48.8-9.24.891-.301 1.781-.596 2.672-.891 2.951-.977 5.896-1.951 8.769-3.149 1.77-.726 3.495-1.574 5.223-2.424h.001c.89-.438 1.779-.875 2.677-1.296 3.159-1.5 6.26-3.1 9.34-4.8.062-2.234.301-4.438.54-6.644h.001v-.002c.146-1.349.293-2.697.398-4.055.062-.828.081-1.667.1-2.508v-.001c.024-1.068.049-2.14.161-3.191.054-.512.15-1.019.246-1.521v-.002c.079-.42.159-.838.214-1.257.76-6.319 1.88-12.54 3.199-18.739.062-.329.119-.66.176-.992v-.001h.001c.109-.637.219-1.276.363-1.907.04-.17.096-.345.15-.52v-.001c.055-.175.11-.35.15-.52 4.6-19.7 11.68-38.76 21.84-56.34l.132-.198.081-.119h.001c.114-.166.228-.331.326-.503 2.64-4.46 5.479-8.74 8.38-12.939.158-.237.329-.456.502-.677.133-.17.268-.341.397-.523 2.375-3.38 4.888-6.641 7.469-9.863 3.104-23.209 15.084-43.646 32.408-57.775C283.317 43.588 262.078 40 240 40 129.54 40 40 129.54 40 240c0 110.44 89.54 200 200 200 110.439 0 200-89.56 200-200 0-22.121-3.599-43.399-10.232-63.291zM289.969 119.96c0 38.66 31.34 70 70 70a70.51 70.51 0 0010.111-.737c21.784-3.152 40.309-16.336 50.762-34.717a69.649 69.649 0 009.127-34.546c0-38.66-31.34-70-70-70a69.665 69.665 0 00-34.582 9.147 70.317 70.317 0 00-23.9 22.396 69.652 69.652 0 00-11.518 38.457zm68.539-41.065c.46-.017.923-.028 1.391-.028 15.898 0 29.336 9.883 29.297 27.07-.003.287-.019.573-.029.859-.289 8.12-3.604 15.856-10.244 25.742l-18.516 27.422h-16.992l19.375-28.516c-1.953.508-4.062.898-6.289.898-14.805 0-25.312-10.664-25.312-26.055-.001-15.983 11.366-26.798 27.319-27.392zm1.469 40.44c7.422 0 12.656-5.625 12.656-13.555 0-8.008-5.234-13.711-12.656-13.711-7.383 0-12.539 5.703-12.539 13.633 0 8.008 5.156 13.633 12.539 13.633z"/></svg>