<svg xmlns="http://www.w3.org/2000/svg" width="1000pt" height="1000pt" viewBox="0 0 1000 1000"><path d="M880.168 363.336a636.273 636.273 0 00-.176-9.45c-.012-.484-.015-.972-.031-1.456-1.258-44.625-7.547-89.25-18.656-133.035l-.059-.23a633.674 633.674 0 00-2.988-11.31c-.086-.312-.172-.62-.254-.93a640.115 640.115 0 00-3.25-11.382l-.043-.14a637.479 637.479 0 00-7.418-23.364c-.117-.336-.234-.672-.348-1.008a681.787 681.787 0 00-3.488-9.953l-.855-2.363a668.942 668.942 0 00-3.297-8.84c-.309-.816-.614-1.629-.926-2.445a657.624 657.624 0 00-3.883-9.828c-.144-.368-.289-.735-.437-1.098a629.957 629.957 0 00-4.621-11.059c-.231-.547-.477-1.086-.711-1.625a603.58 603.58 0 00-3.942-8.945c-.496-1.105-1.008-2.21-1.515-3.32a620.338 620.338 0 00-5.118-10.934 572.163 572.163 0 00-3.562-7.3c-.54-1.087-1.07-2.176-1.613-3.258a637.901 637.901 0 00-5.27-10.286l-.031-.062a23.49 23.49 0 00-1.508-2.485c-3.848-5.554-9.953-9.351-16.707-10.27a673.208 673.208 0 00-11.738-1.464c-1.203-.14-2.407-.266-3.61-.398a595.515 595.515 0 00-8.285-.871 668.531 668.531 0 00-12.371-1.09c-1.168-.094-2.344-.192-3.516-.278-7.843-.57-15.68-1-23.507-1.285-1.16-.043-2.317-.07-3.477-.105-2.8-.086-5.602-.16-8.394-.207a433.3 433.3 0 00-3.903-.059 682.554 682.554 0 00-8.484-.039c-1.106.004-2.215-.004-3.324.004-7.832.055-15.653.254-23.454.598-1.105.047-2.21.109-3.316.16a677.292 677.292 0 00-12.2.719c-2.878.199-5.753.417-8.624.652-1.031.086-2.063.164-3.094.254a623.023 623.023 0 00-23.262 2.476c-1.058.133-2.117.278-3.175.418-2.832.371-5.66.754-8.485 1.164-1.187.172-2.375.344-3.562.524-2.883.437-5.762.89-8.633 1.367-.973.16-1.95.313-2.918.477a607.187 607.187 0 00-83.602 20.37h-.007c-25.278 8.102-49.957 17.868-73.868 29.278l-.562.27a538.394 538.394 0 00-9.54 4.675c-.222.11-.445.22-.663.332a573.529 573.529 0 00-9.75 5.016l-.145.074a572.804 572.804 0 00-39.094 22.63c-.355.222-.707.452-1.058.675a556.705 556.705 0 00-8.14 5.273c-.548.364-1.095.73-1.641 1.094a581.156 581.156 0 00-9.325 6.336 585.339 585.339 0 00-7.543 5.336c-.5.36-1.003.715-1.507 1.078a565.498 565.498 0 00-8.438 6.234l-.398.297a561.958 561.958 0 00-17.774 13.985c-.375.308-.746.625-1.12.933-2.427 2-4.84 4.024-7.24 6.063-.726.625-1.444 1.254-2.171 1.879a599.505 599.505 0 00-6.09 5.324c-.844.75-1.687 1.504-2.527 2.262a544.432 544.432 0 00-5.668 5.164c-.871.804-1.742 1.61-2.606 2.418a549.018 549.018 0 00-5.59 5.312c-.816.785-1.636 1.567-2.449 2.356a573.842 573.842 0 00-6 5.945c-.617.617-1.238 1.226-1.847 1.848a551.422 551.422 0 00-15.329 16.171c-.71.778-1.406 1.57-2.109 2.352a584.498 584.498 0 00-5.258 5.91c-.886 1.012-1.761 2.04-2.644 3.059a681.86 681.86 0 00-4.598 5.394 646.054 646.054 0 00-7.145 8.684 628.908 628.908 0 00-2.765 3.453 547.055 547.055 0 00-4.309 5.512c-.87 1.125-1.746 2.246-2.609 3.379a587.432 587.432 0 00-4.559 6.086c-.73.984-1.464 1.957-2.187 2.945a580.032 580.032 0 00-6.566 9.172h-.004a577.635 577.635 0 00-6.371 9.312c-.684 1.02-1.348 2.047-2.024 3.067a505.868 505.868 0 00-4.152 6.355c-.774 1.203-1.532 2.414-2.297 3.625a552.762 552.762 0 00-3.7 5.922 541.772 541.772 0 00-2.296 3.781 502.183 502.183 0 00-3.524 5.918 935.973 935.973 0 00-2.191 3.762 541.143 541.143 0 00-3.5 6.176c-.656 1.172-1.32 2.344-1.965 3.52a501.27 501.27 0 00-3.766 6.976c-.492.926-.996 1.844-1.48 2.773a554.036 554.036 0 00-9.957 19.934c-.375.785-.73 1.578-1.098 2.363a543.009 543.009 0 00-3.539 7.684c-.465 1.031-.914 2.066-1.375 3.097a633.929 633.929 0 00-3.082 7.075c-.465 1.09-.922 2.183-1.383 3.277a528.058 528.058 0 00-4.175 10.246c-.993 2.5-1.957 5.004-2.91 7.516-.344.902-.692 1.804-1.028 2.71a532.198 532.198 0 00-3.21 8.84c-.169.47-.34.934-.509 1.403a565.525 565.525 0 00-7.062 21.484l-.14.473a547.923 547.923 0 00-2.97 10.066c-.171.59-.332 1.184-.496 1.774a547.008 547.008 0 00-2.433 8.918c-.188.699-.367 1.398-.551 2.097-.762 2.934-1.5 5.871-2.21 8.813-.161.652-.317 1.305-.477 1.953-.75 3.14-1.473 6.285-2.168 9.434-.09.41-.188.82-.278 1.234a569.942 569.942 0 00-7.89 44.473l-.024.16a569.832 569.832 0 00-1.465 11.62c-.406 3.513-.781 7.02-1.125 10.536-.023.219-.043.441-.066.66-2.54 26.36-3.274 52.887-2.242 79.402v.012a607.518 607.518 0 009.449 85.508c.18.996.375 1.984.562 2.98a638.121 638.121 0 001.649 8.493 677.222 677.222 0 002.523 11.867c.242 1.078.477 2.152.719 3.226a638.082 638.082 0 005.613 22.641c.282 1.031.567 2.066.852 3.098a557.91 557.91 0 002.3 8.215c.352 1.214.704 2.433 1.063 3.648a635.978 635.978 0 002.434 8.047c.332 1.086.664 2.168 1.004 3.25 2.34 7.43 4.82 14.832 7.441 22.195.383 1.07.774 2.133 1.16 3.2a659.531 659.531 0 002.91 7.882c.47 1.235.938 2.469 1.41 3.703.997 2.582 2.004 5.16 3.032 7.73.441 1.102.875 2.208 1.32 3.31 1.461 3.6 2.95 7.199 4.48 10.78l.02.051a673.57 673.57 0 004.734 10.786c.485 1.086.989 2.164 1.48 3.25a695.462 695.462 0 003.5 7.562c.58 1.223 1.161 2.45 1.747 3.672a657.06 657.06 0 003.64 7.469c.54 1.086 1.075 2.18 1.618 3.27a685.24 685.24 0 005.39 10.523c.454.859.958 1.691 1.508 2.484a24.5 24.5 0 0013.856 9.703c.933.242 1.886.43 2.851.563 3.852.52 7.7 1 11.551 1.445 1.188.137 2.375.262 3.563.394 2.707.301 5.418.59 8.12.86 1.333.129 2.657.254 3.985.375 2.676.25 5.356.476 8.031.691 1.211.098 2.426.196 3.637.285 3.254.243 6.504.457 9.758.649.59.035 1.18.078 1.77.113 3.992.223 7.98.406 11.964.555.406.015.813.023 1.219.043 3.508.12 7.012.215 10.516.281.886.016 1.77.027 2.652.04 3.14.046 6.277.07 9.414.07h2.516c3.511-.016 7.023-.06 10.535-.13.36-.007.719-.007 1.082-.015a637.727 637.727 0 0024.488-1.024l.14-.007c3.942-.243 7.876-.524 11.805-.84.32-.028.649-.051.973-.078 3.887-.317 7.766-.668 11.64-1.059l.243-.023a621.327 621.327 0 0048.707-6.875h.012c28.105-5.114 55.742-12.145 82.68-21.098.452-.148.906-.309 1.359-.46a604.72 604.72 0 008.953-3.08c.945-.331 1.887-.675 2.832-1.015 2.492-.894 4.984-1.8 7.46-2.73 1.083-.399 2.157-.813 3.235-1.223a579.277 579.277 0 007.102-2.75c1.074-.426 2.152-.851 3.23-1.285 2.43-.977 4.856-1.977 7.274-2.984.957-.399 1.91-.797 2.863-1.2 2.832-1.199 5.652-2.425 8.46-3.668.513-.226 1.024-.445 1.536-.671a572.734 572.734 0 0010.21-4.672l.395-.192a575.221 575.221 0 009.391-4.523c.883-.434 1.758-.879 2.633-1.317a671.632 671.632 0 007.101-3.597c1.06-.551 2.114-1.102 3.168-1.656a525.668 525.668 0 006.551-3.489c1.09-.586 2.176-1.18 3.258-1.773a589.903 589.903 0 006.52-3.637c1.02-.578 2.043-1.156 3.062-1.742a530.744 530.744 0 007.074-4.137c.782-.465 1.567-.918 2.348-1.383a577.004 577.004 0 0018.648-11.691c.801-.523 1.59-1.059 2.387-1.586a601.84 601.84 0 006.676-4.473c1.027-.703 2.047-1.414 3.07-2.12a508.515 508.515 0 005.946-4.169 559.262 559.262 0 008.988-6.523c1.047-.777 2.097-1.555 3.14-2.336a576.821 576.821 0 005.989-4.582c.91-.7 1.824-1.395 2.73-2.106a557.07 557.07 0 007.406-5.906c.387-.312.782-.62 1.168-.933 2.86-2.332 5.696-4.7 8.52-7.094.676-.57 1.344-1.164 2.02-1.742 2.101-1.801 4.199-3.614 6.277-5.45.965-.851 1.922-1.718 2.879-2.578a619.053 619.053 0 005.332-4.828c1.031-.945 2.054-1.902 3.078-2.86a485.182 485.182 0 005.058-4.78c1.02-.977 2.04-1.954 3.051-2.938a516.541 516.541 0 005.106-5.035c.933-.93 1.87-1.86 2.804-2.797a538.855 538.855 0 005.7-5.867c.68-.707 1.363-1.402 2.039-2.113a558.455 558.455 0 007.601-8.16c.469-.512.922-1.036 1.387-1.547a500.853 500.853 0 006.043-6.774c.855-.976 1.7-1.969 2.55-2.95a595.2 595.2 0 004.762-5.57c.93-1.109 1.86-2.23 2.786-3.347a602.94 602.94 0 007.207-8.879c1.46-1.84 2.906-3.691 4.351-5.555.883-1.14 1.766-2.273 2.637-3.418a555.996 555.996 0 004.59-6.129c.738-.992 1.48-1.976 2.215-2.976a571.742 571.742 0 006.62-9.246h.005a595.122 595.122 0 006.421-9.387c.688-1.031 1.36-2.066 2.043-3.098a562.248 562.248 0 004.184-6.406c.777-1.215 1.543-2.43 2.309-3.648a470.32 470.32 0 006.047-9.797c1.203-1.996 2.39-4 3.57-6.008.734-1.25 1.465-2.496 2.183-3.75a522.735 522.735 0 003.618-6.398c.628-1.13 1.27-2.254 1.89-3.387 1.461-2.664 2.895-5.34 4.309-8.02.32-.605.652-1.207.969-1.812 1.726-3.3 3.414-6.613 5.07-9.938.437-.875.855-1.757 1.289-2.632a636.84 636.84 0 003.562-7.368c.567-1.199 1.118-2.402 1.676-3.601 1.004-2.164 2-4.328 2.98-6.5.579-1.297 1.15-2.59 1.72-3.887a571.196 571.196 0 004.394-10.25c.918-2.21 1.82-4.433 2.71-6.656.481-1.195.97-2.39 1.442-3.598a564.03 564.03 0 002.969-7.746c.316-.836.645-1.668.953-2.508a562.307 562.307 0 003.75-10.426c.164-.476.32-.96.485-1.44a512.685 512.685 0 003.011-8.958c.36-1.09.7-2.184 1.047-3.277.766-2.399 1.52-4.797 2.254-7.2a680.922 680.922 0 003.117-10.62c.36-1.266.715-2.532 1.067-3.801.644-2.34 1.27-4.684 1.882-7.032.313-1.195.633-2.39.938-3.59.66-2.605 1.3-5.218 1.93-7.832.218-.917.449-1.84.664-2.757a560.141 560.141 0 004.61-21.535c.17-.883.327-1.766.491-2.649a517.124 517.124 0 001.477-8.098c.199-1.152.39-2.3.582-3.453a528.205 528.205 0 001.742-11.047c.367-2.453.711-4.91 1.04-7.367.155-1.172.316-2.344.468-3.515.34-2.649.652-5.293.957-7.942.11-.965.226-1.926.332-2.89.383-3.493.734-6.989 1.05-10.493l.032-.308c.336-3.738.637-7.48.902-11.223.04-.531.063-1.07.102-1.601.21-3.086.398-6.18.558-9.27.055-1.027.094-2.055.145-3.082.121-2.625.23-5.254.316-7.879.04-1.152.07-2.3.102-3.45.07-2.55.125-5.097.16-7.644.016-1.144.035-2.289.043-3.433.024-2.653.027-5.309.012-7.961 0-1.004 0-2.004-.008-3.004zm-482.2 503.02l-.226.042a560.24 560.24 0 01-43.59 6.141l-.21.02c-3.395.34-6.922.664-10.493.953l-.394.035-.473.039c-2.844.23-5.496.418-8.09.586-31.617-43.926-77.644-76.152-129.734-90.844l-.469-1.601c-.71-2.461-1.398-4.922-2.07-7.383l-.371-1.356c-.137-.488-.274-.976-.399-1.445a569.167 569.167 0 01-5.047-20.36c-.136-.601-.27-1.206-.406-1.812l-.242-1.113a559.92 559.92 0 01-1.606-7.426 584.748 584.748 0 01-2.152-10.875l-.242-1.289c-.086-.461-.176-.914-.262-1.39a545.68 545.68 0 01-1.969-11.571l12.207 2.555c80.536 16.824 151.594 66.578 194.95 136.504l6.562 10.586c-1.754.332-3.512.683-5.273 1.003zm279.684-420.563c-6.078 8.68-15.773 13.324-25.625 13.324a31.085 31.085 0 01-17.894-5.652l-42.668-29.875-47.797 68.265 42.664 29.875c14.14 9.899 17.578 29.383 7.676 43.524-6.078 8.68-15.774 13.324-25.625 13.324a31.106 31.106 0 01-17.899-5.652L507.82 543.05l-47.797 68.265 42.664 29.875c14.137 9.899 17.575 29.383 7.676 43.52-6.078 8.684-15.777 13.328-25.625 13.328a31.097 31.097 0 01-17.898-5.652l-42.664-29.875-29.875 42.664c-6.078 8.68-15.778 13.328-25.625 13.328a31.11 31.11 0 01-17.899-5.656c-14.136-9.899-17.574-29.383-7.675-43.524l29.875-42.664-42.664-29.875c-14.137-9.898-17.575-29.383-7.676-43.523 9.902-14.14 29.39-17.574 43.523-7.676l42.664 29.875 47.797-68.262-42.664-29.875c-14.137-9.898-17.574-29.383-7.672-43.523 9.899-14.137 29.383-17.574 43.52-7.672l42.668 29.875 47.797-68.266-42.665-29.875c-14.14-9.898-17.578-29.383-7.675-43.523 9.898-14.14 29.382-17.574 43.523-7.676l42.664 29.875 29.875-42.664c9.899-14.14 29.383-17.574 43.524-7.676 14.136 9.903 17.574 29.383 7.675 43.524l-29.875 42.664 42.664 29.875c14.137 9.906 17.575 29.39 7.672 43.531zm120.91-164.988C718.028 263.98 646.97 214.227 603.613 144.3l-6.57-10.598c3.855-.742 7.71-1.457 11.578-2.113.434-.074.875-.145 1.313-.215l1.296-.21c2.586-.43 5.176-.84 7.774-1.235 1.062-.16 2.125-.313 3.2-.47 2.538-.37 5.077-.718 7.616-1.046l1.258-.168c.54-.07 1.074-.14 1.606-.207a567.498 567.498 0 0120.93-2.23c.48-.043.968-.079 1.452-.118l1.329-.109c2.585-.215 5.175-.41 7.77-.59.546-.039 1.089-.07 1.632-.105 31.625 43.93 77.652 76.156 129.75 90.843.723 2.497 1.457 5.09 2.23 7.903l.11.387.093.351a524.858 524.858 0 012.692 10.184l.055.207c4.082 16.093 7.394 32.316 10.015 48.586zm0 0"/></svg>