<svg xmlns="http://www.w3.org/2000/svg" viewBox="0 0 480 480"><path d="M268.663 321.108a19.91 19.91 0 0011.453 3.618c6.305 0 12.511-2.975 16.401-8.531 6.335-9.049 4.136-21.52-4.913-27.854l-44.238-30.973c-9.048-6.334-21.52-4.134-27.854 4.913-6.335 9.049-4.136 21.52 4.913 27.854l44.238 30.973zm-7.618 19.916a20.012 20.012 0 00-3.854-3.533l-75.719-53.019c-9.05-6.337-21.519-4.136-27.854 4.911-6.336 9.048-4.137 21.52 4.911 27.854l73.559 51.506 72.165 82.879c3.956 4.719 9.626 7.15 15.337 7.15a19.92 19.92 0 0012.839-4.674c8.464-7.096 9.573-19.711 2.477-28.176l-73.861-84.898zM96.786 78.654c18.902 13.235 42.276 8.983 55.513-9.919 13.235-18.902 9.08-42.47-9.822-55.706-18.902-13.235-42.475-9.082-55.71 9.82s-8.883 42.57 10.019 55.805zm341.922 246.864L319.496 175.461c1.292-7.407-1.645-15.234-8.211-19.832l-49.149-34.414a19.996 19.996 0 00-6.217-2.915l-88.181-24.011c-.098-.026-.197-.043-.296-.068-.2-.051-.401-.094-.604-.139a20.274 20.274 0 00-1.165-.225 24.612 24.612 0 00-.646-.098c-.418-.053-.837-.09-1.257-.116-.175-.011-.349-.03-.523-.038a19.706 19.706 0 00-1.736.01c-.165.008-.328.028-.493.04-.431.032-.859.073-1.287.133-.212.03-.423.066-.634.103-.396.068-.789.148-1.182.24-.198.047-.396.091-.593.144-.485.13-.967.279-1.443.446l-.232.071-56.382 20.509a19.996 19.996 0 00-11.288 10.341c-.08.172-.139.351-.214.524L53.644 174.89a19.999 19.999 0 00-3.617 11.472v68.907c0 8.775 5.66 16.213 13.522 18.907L94.95 452.26c.855 4.852 5.074 8.266 9.836 8.266.576 0 1.161-.051 1.748-.154 5.439-.959 9.07-6.146 8.111-11.584l-31.47-178.474c4.19-3.666 6.851-9.039 6.851-15.045v-62.601l10.6-15.137 27.719 76.163a20.002 20.002 0 0025.634 11.954l56.335-20.504c10.377-3.776 15.729-15.248 11.957-25.627l-27.807-76.494 47.583 12.956 46.295 32.415c5.425 3.799 12.073 4.508 17.898 2.534l116.808 147.03a9.983 9.983 0 007.837 3.779 9.96 9.96 0 006.214-2.17c4.324-3.434 5.045-9.725 1.609-14.049zm-41.437 43.435c-16.568 0-30 13.432-30 30s13.432 30 30 30 30-13.432 30-30-13.432-30-30-30z"/></svg>