<svg xmlns="http://www.w3.org/2000/svg" width="1000pt" height="1000pt" viewBox="0 0 1000 1000"><path d="M559.715 668.977a41.492 41.492 0 0023.86 7.535c13.136 0 26.066-6.196 34.167-17.774 13.2-18.851 8.617-44.832-10.234-58.027l-92.16-64.527c-18.852-13.196-44.836-8.614-58.032 10.234-13.199 18.852-8.617 44.836 10.235 58.031zm-15.871 41.488a41.865 41.865 0 00-8.028-7.36l-157.75-110.457c-18.855-13.199-44.832-8.613-58.027 10.235-13.203 18.847-8.621 44.832 10.23 58.027l153.247 107.305 150.343 172.664c8.243 9.832 20.055 14.894 31.953 14.894a41.485 41.485 0 0026.747-9.734c17.636-14.785 19.945-41.066 5.164-58.703zM201.637 163.863c39.379 27.57 88.074 18.715 115.652-20.664 27.574-39.379 18.918-88.48-20.46-116.054C257.448-.43 208.335 8.223 180.765 47.602c-27.575 39.378-18.508 88.687 20.87 116.261zm712.34 514.301l-248.36-312.621c2.692-15.43-3.426-31.738-17.105-41.316L546.117 252.53a41.711 41.711 0 00-12.953-6.074l-183.71-50.023c-.204-.051-.411-.086-.618-.141-.414-.106-.832-.195-1.258-.29a42.84 42.84 0 00-2.426-.468c-.449-.074-.898-.144-1.347-.203a42.02 42.02 0 00-2.618-.242c-.363-.024-.726-.063-1.09-.078a39.89 39.89 0 00-3.617.02c-.343.015-.683.058-1.027.081-.898.067-1.789.153-2.68.278-.441.062-.882.136-1.32.214-.824.141-1.644.31-2.465.5-.41.098-.824.192-1.234.301-1.012.27-2.016.582-3.008.93l-.48.148L206.8 240.211a41.671 41.671 0 00-23.516 21.543c-.168.36-.289.73-.445 1.094l-71.082 101.507a41.67 41.67 0 00-7.535 23.899v143.555c0 18.28 11.793 33.777 28.172 39.39l65.417 371.008c1.782 10.11 10.57 17.223 20.493 17.223 1.199 0 2.418-.106 3.64-.32 11.332-2 18.895-12.805 16.899-24.133L173.28 563.152c8.73-7.636 14.274-18.828 14.274-31.343V401.39l22.082-31.536 57.75 158.672a41.66 41.66 0 0053.402 24.907l117.363-42.72c21.621-7.862 32.77-31.765 24.914-53.386l-57.933-159.363 99.133 26.992 96.445 67.531c11.305 7.914 25.152 9.39 37.289 5.278l243.352 306.312c4.113 5.18 10.191 7.875 16.324 7.875 4.543 0 9.113-1.476 12.945-4.523 9.012-7.153 10.512-20.258 3.356-29.266zm-86.329 90.488c-34.515 0-62.5 27.985-62.5 62.5 0 34.516 27.985 62.5 62.5 62.5 34.516 0 62.5-27.984 62.5-62.5 0-34.515-27.984-62.5-62.5-62.5zm0 0"/></svg>