<svg xmlns="http://www.w3.org/2000/svg" viewBox="0 0 480 480"><path d="M282.037 396.957c-3.873-6.67-5.646-14.04-7.069-19.962-.553-2.301-1.076-4.475-1.551-5.875-2.593-7.635-3.691-14.41-3.36-20.714.542-10.32 4.882-19.26 12.551-25.853 5.391-4.634 11.163-6.873 15.379-8.509 1.245-.482 2.895-1.122 3.677-1.534.423-.574 1.109-1.665 1.634-2.497 2.159-3.431 5.116-8.129 10.162-12.213 6.249-5.059 13.053-7.405 18.521-9.291 2.458-.848 4.999-1.725 6.256-2.475.299-.18.622-.378.965-.588 4.541-2.785 12.141-7.446 21.468-7.446 6.076 0 11.713 2 16.247 5.651a23.929 23.929 0 019.237-3.844 22.975 22.975 0 014.151-.379c2.677 0 6.605.484 10.742 2.651 33.186-78.534 26.964-168.626-13.439-245.583a11.703 11.703 0 00-8.741-6.121c-104.929-14.186-210.832 25.947-272.516 114.04S43.175 347.753 92.393 441.502a11.707 11.707 0 008.742 6.121c67.696 9.152 135.795-4.312 192.167-38.673-4.471-2.855-8.296-6.88-11.265-11.993zm-40.818-88.961c6.786 4.752 8.436 14.105 3.684 20.891-2.918 4.168-7.572 6.397-12.3 6.397-2.971 0-5.973-.879-8.591-2.713l-20.479-14.341-14.34 20.479a14.984 14.984 0 01-12.3 6.398c-2.971 0-5.971-.88-8.591-2.714-6.786-4.752-8.436-14.105-3.684-20.892l14.341-20.479-20.479-14.341c-6.786-4.752-8.435-14.104-3.683-20.891s14.106-8.435 20.89-3.683l20.479 14.339 22.942-32.766-20.478-14.34c-6.787-4.752-8.437-14.104-3.685-20.891 4.752-6.786 14.105-8.436 20.892-3.684l20.478 14.341 22.944-32.767-20.48-14.341c-6.786-4.751-8.436-14.104-3.684-20.89 4.752-6.787 14.104-8.436 20.891-3.684l20.48 14.34 14.339-20.48c4.752-6.787 14.104-8.434 20.891-3.683 6.786 4.752 8.437 14.104 3.685 20.89l-14.34 20.48 20.478 14.339c6.786 4.751 8.436 14.104 3.684 20.89a14.983 14.983 0 01-12.3 6.398 14.93 14.93 0 01-8.591-2.715l-20.478-14.339-22.944 32.768 20.479 14.339c6.786 4.752 8.436 14.104 3.684 20.89-2.917 4.167-7.572 6.398-12.3 6.398-2.972 0-5.972-.88-8.591-2.714l-20.479-14.34-22.943 32.767 20.479 14.344zm187.752 47.789c-3.299-8.249-10.141-14.452-15.929-20.949-5.395-6.056-10.044-12.769-13.881-19.913-1.652-3.076-4.605-14.325-9.389-13.444-3.402.627-4.001 5.165-4.117 7.961-.17 4.083-1.395 16.181-7.871 12.52-5.085-2.874-12.285-4.905-11.53-12.07.258-2.451.816-5.16-.567-7.209-4.177-6.171-12.796-.104-17.194 2.524-6.94 4.146-16.206 5.087-22.451 10.142-4.867 3.939-6.652 10.46-11.422 14.46-5.554 4.657-13.455 5.17-18.976 9.915-7.671 6.594-6.207 16.376-3.289 24.97 3.768 11.099 4.251 30.929 20.538 29.137 11.833-1.302 21.32-10.624 33.272-11.045 7.321-.257 12.634 3.615 18.112 7.91 4.321 3.389 8.638 6.793 12.77 10.412 3.443 3.018 6.471 6.545 10.517 8.828 9.529 5.38 24.241 1.022 29.118-8.882 1.729-3.511 2.282-7.448 3.569-11.108 2.003-5.696 4.54-11.174 6.715-16.802 2.177-5.634 4.385-11.408 2.005-17.357zm-25.145 64.723c-4.407.573-12.403-1.575-11.796 5.583.46 5.427 5.037 11.608 10.557 12.835 6.015 1.336 9.367-5.939 10.251-10.853.407-2.263.398-5.666-1.397-7.426-2.356-2.309-4.885-.494-7.615-.139z"/></svg>