<svg xmlns="http://www.w3.org/2000/svg" width="1000pt" height="1000pt" viewBox="0 0 1000 1000"><path d="M587.578 826.992c-8.07-13.894-11.762-29.25-14.726-41.586-1.153-4.793-2.243-9.324-3.235-12.238-5.402-15.906-7.687-30.023-7-43.156 1.13-21.5 10.172-40.125 26.149-53.86 11.23-9.656 23.257-14.32 32.039-17.726 2.593-1.004 6.03-2.34 7.66-3.196.883-1.195 2.312-3.468 3.406-5.203 4.496-7.148 10.656-16.937 21.172-25.445 13.016-10.539 27.191-15.426 38.586-19.355 5.117-1.766 10.414-3.594 13.031-5.157a273.45 273.45 0 002.012-1.222c9.46-5.805 25.293-15.516 44.723-15.516 12.66 0 24.402 4.168 33.847 11.773a49.912 49.912 0 0119.246-8.007 47.967 47.967 0 018.649-.79 48.341 48.341 0 0122.379 5.524c69.136-163.613 56.175-351.305-28-511.633-3.618-6.898-10.489-11.707-18.211-12.75-218.602-29.554-439.23 54.055-567.739 237.582C93.055 488.56 89.95 724.484 192.484 919.797c3.621 6.898 10.493 11.707 18.215 12.75 141.031 19.066 282.906-8.98 400.348-80.567-9.317-5.949-17.285-14.335-23.469-24.988zM502.54 641.66c14.137 9.899 17.574 29.383 7.676 43.52-6.078 8.683-15.774 13.328-25.625 13.328a31.097 31.097 0 01-17.899-5.653l-42.664-29.875-29.875 42.665c-6.078 8.68-15.773 13.328-25.625 13.328a31.106 31.106 0 01-17.898-5.653c-14.137-9.902-17.574-29.386-7.676-43.527l29.879-42.664-42.664-29.875c-14.14-9.902-17.574-29.387-7.676-43.524 9.903-14.14 29.39-17.574 43.524-7.675l42.664 29.875 47.797-68.262-42.664-29.875c-14.141-9.902-17.579-29.383-7.676-43.523 9.898-14.137 29.383-17.575 43.523-7.676l42.664 29.879 47.797-68.266-42.664-29.879c-14.137-9.898-17.574-29.383-7.676-43.52 9.899-14.14 29.383-17.574 43.524-7.675l42.668 29.875 29.87-42.668c9.9-14.137 29.384-17.57 43.524-7.672 14.137 9.902 17.578 29.383 7.676 43.523l-29.875 42.664 42.664 29.875c14.137 9.899 17.574 29.383 7.676 43.52-6.082 8.68-15.774 13.328-25.625 13.328a31.11 31.11 0 01-17.899-5.656L591.32 424.05l-47.8 68.265 42.664 29.875c14.14 9.899 17.578 29.383 7.675 43.52-6.074 8.68-15.773 13.328-25.625 13.328a31.106 31.106 0 01-17.898-5.652l-42.664-29.875-47.797 68.261zm391.152 99.559c-6.875-17.184-21.129-30.11-33.187-43.645-11.238-12.617-20.926-26.601-28.918-41.484-3.441-6.41-9.594-29.844-19.563-28.008-7.086 1.305-8.332 10.758-8.574 16.586-.355 8.504-2.906 33.71-16.398 26.082-10.594-5.988-25.594-10.219-24.024-25.145.54-5.109 1.703-10.75-1.18-15.02-8.702-12.855-26.656-.218-35.82 5.259-14.457 8.636-33.761 10.597-46.773 21.129-10.14 8.207-13.86 21.793-23.797 30.125-11.57 9.703-28.031 10.77-39.531 20.656-15.98 13.738-12.934 34.117-6.852 52.02 7.848 23.124 8.856 64.437 42.785 60.703 24.653-2.711 44.418-22.133 69.317-23.012 15.254-.535 26.32 7.531 37.734 16.48 9.004 7.063 17.996 14.153 26.606 21.692 7.172 6.289 13.48 13.636 21.91 18.39 19.851 11.211 50.5 2.133 60.66-18.504 3.605-7.312 4.754-15.515 7.437-23.14 4.172-11.867 9.457-23.278 13.989-35.004 4.535-11.738 9.136-23.766 4.18-36.16zm-52.386 134.84c-9.184 1.195-25.84-3.282-24.575 11.632.957 11.305 10.493 24.18 21.993 26.739 12.53 2.78 19.515-12.375 21.355-22.61.848-4.715.832-11.804-2.91-15.472-4.906-4.809-10.176-1.028-15.863-.29zm0 0"/></svg>