<svg xmlns="http://www.w3.org/2000/svg" viewBox="0 0 480 480"><path d="M176.679 391.761l-65.532-45.887c-9.048-6.335-21.52-4.136-27.854 4.912-15.839 22.62-10.342 53.797 12.278 69.636l16.383 11.472c22.621 15.839 53.798 10.342 69.637-12.278 6.335-9.049 4.135-21.52-4.912-27.855zm23.879-202.912l-53.772-37.651-17.624 73.114 41.365 28.964 30.031-64.427zm91.459 39.625l54.955-54.939c8.794-8.792 7.518-23.394-2.669-30.526l-56.1-39.281c-10.187-7.134-24.345-3.339-29.599 7.933l-32.831 70.431 66.244 46.382zm-14.362 14.359l-60.461-42.335-30.031 64.426 40.223 28.164 50.269-50.255zM150.323 343.955a5.002 5.002 0 001.664 6.208l7.33 5.133a5 5 0 006.403-.56l47.302-47.29-34.439-24.115-28.26 60.624zm281.148-139.912l-37.26-26.089c-7.949-5.566-18.748-4.623-25.611 2.238l-59.947 59.93 57.318 40.135 65.082-43.163c11.749-7.791 11.965-24.965.418-33.051zM109.295 320.27l17.738 12.421c2.547 1.783 6.087.834 7.4-1.983l27.513-59.024-37.819-26.481-16.825 69.801a4.998 4.998 0 001.993 5.266zm134.726-15.534l41.365 28.964 62.677-41.567-53.772-37.651-50.27 50.254zm-60.417 60.401a5 5 0 00.667 7.632l17.739 12.421a4.998 4.998 0 005.631.071l59.837-39.684-37.819-26.482-46.055 46.042zm61.347-271.524c4.101-8.797 1.294-19.267-6.655-24.833l-37.26-26.09c-11.547-8.085-27.611-2.008-30.914 11.696l-18.301 75.921 57.317 40.134 35.813-76.828z"/></svg>