<svg xmlns="http://www.w3.org/2000/svg" width="1000pt" height="1000pt" viewBox="0 0 1000 1000"><path d="M333.34 500c0-46.027-37.313-83.34-83.34-83.34s-83.34 37.313-83.34 83.34 37.313 83.34 83.34 83.34 83.34-37.313 83.34-83.34zm557.8-275.352c-3.624-56.73-28.62-104.074-70.374-133.312-41.762-29.242-94.793-36.531-149.352-20.54-52.879 15.5-101.066 51.27-135.687 100.72-34.622 49.441-51.75 106.957-48.235 161.949 3.13 48.922 22.16 90.855 54.117 120.226L337.652 744.97c-12.851-4.43-27.582-.086-35.77 11.605l-83.644 119.461c-9.898 14.133-6.465 33.621 7.676 43.52l17.066 11.949c14.137 9.898 33.622 6.465 43.524-7.676l83.644-119.46c7.41-10.583 7.344-24.161.914-34.473l204.684-292.32c23.031 11.945 48.688 18.034 75.664 18.034 18.149 0 36.895-2.746 55.813-8.289 52.879-15.504 101.066-51.273 135.687-100.718 34.617-49.442 51.75-106.957 48.23-161.954zm-82.363 138.055c-29.215 41.723-69.445 71.781-113.28 84.633-42.157 12.36-82.548 7.144-113.727-14.688-31.176-21.832-49.891-58-52.696-101.847-2.914-45.586 11.567-93.668 40.781-135.39 29.215-41.724 69.446-71.778 113.282-84.634 14.972-4.386 29.715-6.558 43.906-6.558 25.773 0 49.715 7.168 69.82 21.246 31.18 21.832 49.895 58 52.696 101.847 2.918 45.583-11.567 93.668-40.782 135.391zm0 0"/></svg>