<svg xmlns="http://www.w3.org/2000/svg" viewBox="0 0 480 480"><path d="M160.004 240c0-22.094-17.91-40.004-40.004-40.004-22.093 0-40.003 17.91-40.003 40.004s17.91 40.004 40.003 40.004c22.094 0 40.004-17.91 40.004-40.004zm267.744-132.168c-1.741-27.231-13.739-49.957-33.781-63.991-20.045-14.036-45.501-17.534-71.688-9.859-25.382 7.441-48.512 24.61-65.13 48.345-16.618 23.732-24.841 51.34-23.152 77.736 1.502 23.483 10.637 43.61 25.976 57.708l-97.899 139.814c-6.169-2.127-13.241-.041-17.17 5.57l-40.15 57.341c-4.751 6.785-3.102 16.139 3.684 20.891l8.192 5.735c6.786 4.752 16.139 3.103 20.891-3.684l40.15-57.341c3.557-5.08 3.525-11.597.439-16.547l98.249-140.314c11.055 5.734 23.37 8.657 36.318 8.657 8.711 0 17.709-1.318 26.79-3.98 25.382-7.441 48.512-24.61 65.13-48.345 16.617-23.732 24.839-51.339 23.151-77.736zm-39.535 66.266c-14.023 20.027-33.334 34.454-54.374 40.623-20.236 5.932-39.624 3.429-54.589-7.05s-23.948-27.84-25.294-48.886c-1.4-21.881 5.552-44.961 19.575-64.988s33.334-34.454 54.374-40.623c7.187-2.106 14.264-3.149 21.075-3.149 12.371 0 23.863 3.441 33.515 10.199 14.965 10.479 23.948 27.84 25.294 48.886 1.399 21.88-5.553 44.96-19.576 64.988z"/></svg>