<svg xmlns="http://www.w3.org/2000/svg" width="1000pt" height="1000pt" viewBox="0 0 1000 1000"><path d="M926.504 128.766c-9.426-6.594-22.418-4.301-29.016 5.125l-278.46 397.89c-85.56 120.461-135.798 170.14-136.301 170.633l-.547.55c-33.301 35.044-71.559 53.329-113.692 54.34-88.289 2.153-173.355-69.757-205.804-100.761-2.61-2.496-3.692-3.531-5.57-4.742a20.863 20.863 0 00-16.79-2.574 20.829 20.829 0 00-13.129 10.777l-41.668 83.332c-4.492 8.992-1.925 19.918 6.11 25.965L153 815.469a21.46 21.46 0 001.723 1.164c64.43 39.09 120.82 58.465 170.726 58.465 20.36 0 39.649-3.23 57.95-9.664 46.597-16.375 89.605-52.36 127.828-106.95l141.746-202.539c3.547-4.996 7.16-10.117 10.824-15.36.324-.46.629-.929.91-1.41l266.914-381.394c6.602-9.426 4.309-22.418-5.117-29.015zm-134.836 579.57c-46.027 0-83.336 37.309-83.336 83.332 0 46.027 37.309 83.336 83.336 83.336 46.023 0 83.332-37.309 83.332-83.336 0-46.023-37.313-83.332-83.332-83.332zm0 0"/></svg>