<svg xmlns="http://www.w3.org/2000/svg" viewBox="0 0 480 480"><path d="M330.86 133.691c-24.5-20.96-56.199-33.7-90.859-33.7s-66.36 12.74-90.84 33.7c19.439 30.8 30.84 67.181 30.84 106.3 0 39.141-11.4 75.521-30.84 106.32 24.479 20.96 56.18 33.68 90.84 33.68s66.359-12.72 90.859-33.68C311.38 315.512 300 279.132 300 239.991c0-39.119 11.38-75.5 30.86-106.3zm-203.047 22.911c-17.38 23.34-27.82 52.14-27.82 83.4 0 31.26 10.44 60.06 27.82 83.399 14-24.7 22.18-53.06 22.18-83.399-.001-30.341-8.18-58.721-22.18-83.4zm224.375-.004c-13.979 24.68-22.18 53.061-22.18 83.4s8.2 58.72 22.18 83.399c17.38-23.34 27.82-52.12 27.82-83.399 0-31.26-10.44-60.06-27.82-83.4zM240 40C129.54 40 40 129.54 40 240c0 110.44 89.54 200 200 200 110.439 0 200-89.56 200-200 0-110.46-89.56-200-200-200zm0 370c-93.74 0-170-76.26-170-170S146.26 70 240 70s170 76.26 170 170-76.26 170-170 170z"/></svg>