<svg xmlns="http://www.w3.org/2000/svg" width="1000pt" height="1000pt" viewBox="0 0 1000 1000"><path d="M689.293 278.523c-51.043-43.668-117.082-70.207-189.29-70.207-72.21 0-138.25 26.54-189.25 70.207 40.497 64.168 64.25 139.961 64.25 221.457 0 81.543-23.75 157.336-64.25 221.5 50.997 43.668 117.04 70.168 189.25 70.168 72.208 0 138.247-26.5 189.29-70.168C648.707 657.316 625 581.523 625 499.98c0-81.496 23.707-157.289 64.293-221.457zm-423.016 47.73C230.07 374.88 208.32 434.88 208.32 500.004c0 65.126 21.75 125.126 57.957 173.75 29.168-51.46 46.207-110.542 46.207-173.75 0-63.21-17.039-122.335-46.207-173.75zm467.45-.007c-29.125 51.418-46.211 110.543-46.211 173.75 0 63.207 17.086 122.332 46.21 173.746 36.208-48.625 57.958-108.582 57.958-173.746 0-65.125-21.75-125.125-57.957-173.75zM500 83.332C269.875 83.332 83.332 269.875 83.332 500c0 230.082 186.543 416.668 416.668 416.668 230.082 0 416.668-186.586 416.668-416.668 0-230.125-186.586-416.668-416.668-416.668zm0 770.836c-195.293 0-354.168-158.875-354.168-354.168S304.707 145.832 500 145.832 854.168 304.707 854.168 500 695.293 854.168 500 854.168zm0 0"/></svg>