<svg xmlns="http://www.w3.org/2000/svg" width="1000pt" height="1000pt" viewBox="0 0 1000 1000"><path d="M500 83.332C269.875 83.332 83.332 269.875 83.332 500c0 230.082 186.543 416.668 416.668 416.668 230.082 0 416.668-186.586 416.668-416.668 0-230.125-186.586-416.668-416.668-416.668zm189.313 447.93c6.562 74.488 36.085 142.465 81.601 196.625a357.458 357.458 0 01-44.398 44.18c-56.602-65.606-92.914-149.063-99.766-240.825h-95.5v321.559a358.042 358.042 0 01-62.504 0V531.242h-95.5c-6.848 91.762-43.164 175.219-99.762 240.824a357.189 357.189 0 01-44.398-44.18c45.535-54.156 75.059-122.132 81.625-196.624H147.199a358.154 358.154 0 010-62.504h163.512c-6.566-74.492-36.094-142.477-81.637-196.637a358.12 358.12 0 0144.406-44.187c56.602 65.601 92.915 149.058 99.766 240.824h95.5V147.199a358.109 358.109 0 0162.504 0v321.559h95.5c6.852-91.766 43.164-175.219 99.766-240.824a357.347 357.347 0 0144.406 44.191c-45.52 54.16-75.043 122.14-81.61 196.633h163.489a358.154 358.154 0 010 62.504zm0 0"/></svg>