<svg xmlns="http://www.w3.org/2000/svg" viewBox="0 0 480 480"><path d="M240 40C129.54 40 40 129.54 40 240c0 110.44 89.54 200 200 200 110.439 0 200-89.56 200-200 0-110.46-89.56-200-200-200zm90.87 215.006c3.15 35.754 17.321 68.383 39.169 94.379a171.592 171.592 0 01-21.312 21.206c-27.168-31.489-44.599-71.549-47.887-115.595H255v154.348a171.08 171.08 0 01-15 .656c-5.055 0-10.058-.222-15.001-.656V254.996h-45.84c-3.288 44.046-20.719 84.105-47.887 115.595a171.576 171.576 0 01-21.311-21.205c21.857-25.995 36.028-58.625 39.18-94.38H70.656a171.752 171.752 0 01-.001-30.002h78.486c-3.151-35.757-17.324-68.389-39.185-94.385a171.648 171.648 0 0121.315-21.21c27.168 31.488 44.599 71.548 47.887 115.595h45.84V70.655a171.942 171.942 0 0130.002 0v154.349h45.84c3.288-44.047 20.719-84.106 47.887-115.595a171.459 171.459 0 0121.316 21.211c-21.85 25.996-36.022 58.627-39.173 94.384h78.475c.434 4.941.655 9.943.655 14.996 0 5.056-.222 10.061-.656 15.006H330.87z"/></svg>