<svg xmlns="http://www.w3.org/2000/svg" viewBox="0 0 480 480"><path d="M70.001 279.712c22.092 0 40-17.909 40-40 0-22.092-17.908-40-40-40-22.091 0-40 17.908-40 40 0 22.091 17.909 40 40 40zm372.072-113.287c3.037-3.438 2.57-8.72-1.026-11.568l-16.93-13.411c-3.609-2.858-8.88-2.089-11.521 1.683-25.403 36.279-50.2 72.996-76.278 108.798-29.012 39.828-59.89 81.024-102.988 106.575-49.177 29.155-90.031 37.64-143.712 21.329-8.209-2.495-34.697-13.354-42.643-16.591-8.499-3.463-15.148 7.767-8.066 13.604C82.902 413.1 140.4 439.14 198.003 440.252c51.788 1 111.062-21.404 152.049-52.703 17.474-13.343 36.1-33.123 38.885-56.378 2.944-24.582-21.007-36.449-19.254-59.24 1.829-23.791 54.788-85.573 72.39-105.506zm-229.826 85.933l-19.939-13.962-30.024 40.016 22.57 15.804 27.393-41.858zm9.982-15.254c14.757-21.019 33.354-38.961 54.497-52.576l56.122-36.142-.011-.008c8.798-5.104 16.821-12.32 23.225-21.467 21.262-30.364 16.568-70.219-10.655-88.291-25.442-16.889-62.088-8.239-82.99 19.605-7.276 9.693-11.803 20.459-13.727 31.232l-.012-.008-14.626 64.919c-5.564 24.7-16.138 48.482-30.971 69.667l-4.77 6.356 19.413 13.593 4.505-6.88zm-63.146 69.889c5.216 3.651 12.241 7.464 16.413 1.521l3.879-5.927-23.097-16.172-4.251 5.666c-4.169 5.954 1.835 11.257 7.056 14.912z"/></svg>