<svg xmlns="http://www.w3.org/2000/svg" width="1000pt" height="1000pt" viewBox="0 0 1000 1000"><path d="M500 750c172.563 0 312.5-139.938 312.5-312.5C812.5 264.906 672.562 125 500 125c-172.594 0-312.5 139.906-312.5 312.5C187.5 610.063 327.406 750 500 750zm89.645-197.41l-.336-.504c-.145-.215-.297-.438-.438-.668-14.031-21.969-31.25-41.625-50.719-58.906-1.308-1.137-2.605-2.29-3.906-3.438-3.41-3.027-6.824-6.058-10.469-8.844-2.523-1.968-5.203-3.753-7.886-5.535h-.004c-1.098-.734-2.203-1.468-3.297-2.215-4.5-3.125-9.09-6.093-13.813-8.937-3.109 1.703-6.351 3.133-9.593 4.566h-.004c-1.868.825-3.739 1.649-5.59 2.528-1.227.586-2.422 1.246-3.617 1.902h-.004c-1.422.781-2.836 1.563-4.313 2.223-.715.316-1.46.57-2.203.824-.652.223-1.297.445-1.926.707-9.125 3.937-18.406 7.25-27.843 10.312-.536.188-1.07.383-1.606.575l-.004.004h-.004c-.902.328-1.808.656-2.73.953-.344.12-.711.191-1.074.258l-.266.05-.316.063c-30.22 9.187-61.563 14.469-93.278 14.469-.254 0-.5-.016-.742-.032-.234-.015-.465-.03-.695-.03-8.156-.095-16.156-.595-24.156-1.22v-.03c-.391-.02-.774-.075-1.157-.126-.386-.055-.765-.113-1.16-.129-7.062-.652-14.062-1.594-21.031-2.687-.906-.133-1.817-.23-2.727-.332-1.226-.13-2.445-.262-3.648-.477l-.207-.035-.235-.043-.27-.043h-.003c-.277-.043-.547-.082-.816-.133-1.258-.21-2.473-.512-3.688-.816h-.004c-.773-.196-1.55-.39-2.344-.559-5.5-1.094-10.968-2.281-16.406-3.687a59.623 59.623 0 00-2.082-.457l-.004-.004c-1.015-.211-2.039-.422-3.039-.7-.383-.101-.77-.195-1.16-.285-.562-.132-1.129-.265-1.684-.433-2.386-.649-4.707-1.45-7.03-2.25-1.36-.469-2.723-.934-4.095-1.375-1.066-.348-2.128-.684-3.199-1.024-1.422-.453-2.84-.906-4.254-1.37a266.047 266.047 0 01-4.191-49.49 283.84 283.84 0 0016.816 6.606c2.973 1.067 6 2 9.032 2.938 6.593 2.129 13.187 4.156 19.937 5.781 2.129.504 4.285.887 6.434 1.27 1.32.234 2.636.468 3.945.73 1.195.23 2.394.473 3.594.707 5.226 1.035 10.441 2.07 15.781 2.735-1.406-12.348-2.344-24.813-2.344-37.536 0-87.082 34.965-168.168 93.953-227.66 30.387-12.172 63.524-18.883 98.203-18.918-90.343 48.434-147.515 142.801-147.515 246.555 0 13.344 1.25 26.344 3.094 39.187.28-.015.554-.039.828-.062.273-.023.547-.047.828-.059 25.996-1.187 51.594-6.218 76.25-14.441 1.39-.469 2.781-.93 4.172-1.39h.004c4.609-1.524 9.21-3.048 13.699-4.919 2.765-1.136 5.46-2.46 8.16-3.789h.004a228.785 228.785 0 014.18-2.023 265.202 265.202 0 0014.593-7.504c.098-3.488.473-6.93.844-10.375v-.008c.23-2.105.461-4.21.625-6.332.094-1.293.125-2.605.156-3.918v-.004c.04-1.672.075-3.34.25-4.988.086-.8.235-1.59.387-2.379.125-.656.246-1.312.332-1.965 1.188-9.875 2.938-19.594 5-29.281.094-.516.184-1.031.274-1.55.171-.997.343-1.997.566-2.981.062-.266.148-.54.238-.813.086-.277.168-.55.23-.812 7.188-30.782 18.25-60.563 34.126-88.032l.207-.312.129-.184c.18-.261.355-.52.511-.785 4.121-6.969 8.559-13.656 13.09-20.219.25-.37.516-.714.785-1.058.211-.266.418-.531.625-.82 4.063-5.778 8.375-11.34 12.809-16.844a71.2 71.2 0 001.687-2.235c.723-.984 1.442-1.968 2.22-2.89.187-.215.359-.442.53-.66.149-.196.297-.383.438-.559.738-.875 1.523-1.691 2.305-2.504.64-.672 1.277-1.336 1.882-2.027 3.72-4.25 7.5-8.344 11.407-12.371.535-.551 1.05-1.117 1.562-1.692h.004c.664-.734 1.328-1.468 2.027-2.156.657-.687 1.348-1.406 2.036-2.094 1.734-1.691 3.535-3.27 5.336-4.843 1.125-.98 2.246-1.961 3.347-2.97.95-.847 1.887-1.706 2.828-2.562l.008-.004c.992-.906 1.98-1.808 2.98-2.703a264.657 264.657 0 0144.926 21.149c-4.804 3.574-9.48 7.32-14.082 11.203-2.074 1.777-4.078 3.625-6.093 5.484l-.97.89c-5.093 4.626-10.218 9.313-15 14.376-1.456 1.555-2.835 3.187-4.218 4.828a159.455 159.455 0 01-2.719 3.168c-.804.93-1.613 1.86-2.422 2.785-3.492 3.992-6.988 7.992-10.234 12.281 11.41 4.907 22.692 10.371 33.688 16.72 75.437 43.55 128.191 114.382 150.207 195.23-4.899 33.941-16.239 65.824-32.73 94.37 3.187-102.421-49.93-199.07-139.774-250.956-11.532-6.625-23.438-12.063-35.469-16.907-.098.2-.188.403-.277.602-.137.3-.274.598-.442.898-12 23.13-20.437 47.848-25.625 73.313-.265 1.316-.539 2.633-.812 3.945-1.008 4.86-2.02 9.707-2.657 14.649-.394 2.992-.593 6.011-.796 9.02-.102 1.519-.204 3.034-.329 4.542-.437 5.469-.687 10.938-.812 16.442 2.977 1.82 5.809 3.89 8.637 5.957 1.687 1.23 3.367 2.457 5.082 3.632 1.086.754 2.222 1.442 3.36 2.137 1.417.86 2.835 1.719 4.171 2.707.625.445 1.21.945 1.805 1.45v.003a29.2 29.2 0 001.632 1.328c7.938 5.942 15.438 12.313 22.782 18.938.297.25.593.5.894.746l.004.004c.895.742 1.79 1.488 2.633 2.281.203.188.398.39.594.594.203.21.406.422.625.625 23.031 21.625 43.25 46.094 59.125 73.566.172.27.312.563.449.852v.004l.27.55c4 7.032 7.53 14.22 10.937 21.407.191.398.355.797.512 1.187.129.317.254.63.394.934 3 6.469 5.656 12.969 8.219 19.562.34.875.719 1.739 1.094 2.594.484 1.113.968 2.219 1.375 3.344.093.25.195.492.297.738.101.242.203.48.296.735.372 1.035.672 2.09.98 3.144.267.914.528 1.828.833 2.73 1.781 5.313 3.5 10.657 5.031 16.094.207.797.461 1.567.715 2.34.285.871.57 1.738.785 2.629.281.938.563 1.906.813 2.844.633 2.465 1.117 4.937 1.605 7.418.262 1.332.52 2.66.805 3.988.246 1.164.504 2.324.758 3.484.3 1.352.597 2.704.886 4.055a266.64 266.64 0 01-40.761 28.5 273.05 273.05 0 00-2.66-17.855c-.594-3.094-1.282-6.157-1.97-9.22-1.468-6.78-2.968-13.53-5-20.218-.64-2.21-1.429-4.394-2.218-6.57-.402-1.113-.805-2.223-1.184-3.336-.324-.953-.644-1.906-.968-2.856-1.782-5.289-3.551-10.543-5.75-15.707-9.97 7.375-20.313 14.438-31.344 20.813-75.328 43.484-162.938 53.773-243.867 32.52-26.367-20.79-48.719-46.454-65.672-75.622 87.101 53.953 197.351 56.293 287.195 4.434 11.563-6.688 22.188-14.281 32.375-22.25zm340.789 327.742a1277.31 1277.31 0 01-6.422-5.73c-23.77-21.301-56.317-50.473-95.617-57.735-22.133-4.082-44.602 3.153-66.329 10.149-17.046 5.488-34.668 11.156-48.418 9.601-11.726-1.328-25.199-9.77-39.457-18.703-18.64-11.684-39.77-24.922-64.343-26.25-22.97-1.25-44.118 8.672-64.578 18.266-16.426 7.699-31.938 14.968-45.305 14.968-13.36 0-28.875-7.27-45.297-14.968-20.461-9.594-41.617-19.516-64.578-18.266-24.574 1.328-45.703 14.566-64.348 26.246-14.262 8.938-27.73 17.38-39.465 18.707-13.742 1.567-31.37-4.113-48.414-9.601-21.734-6.996-44.199-14.227-66.332-10.145-39.008 7.203-68.27 33.34-94.082 56.399-2.664 2.378-5.3 4.734-7.918 7.039-8.633 7.605-9.465 20.77-1.863 29.402 7.605 8.637 20.773 9.469 29.406 1.863 2.684-2.367 5.39-4.785 8.13-7.226 22.792-20.364 46.366-41.422 73.894-46.5 11.804-2.192 28.406 3.168 45.988 8.828 21.25 6.844 43.223 13.91 65.894 11.344 21.133-2.399 39.31-13.79 56.887-24.801 15.762-9.875 30.649-19.203 44.473-19.95 12.46-.68 28.117 6.641 44.644 14.387 19.832 9.297 40.34 18.91 62.98 18.91 22.645 0 43.153-9.613 62.99-18.91 16.523-7.746 32.1-15.062 44.644-14.386 13.824.746 28.707 10.074 44.468 19.949 17.579 11.011 35.754 22.402 56.887 24.8 22.664 2.579 44.637-4.503 65.887-11.343 17.582-5.664 34.2-11.024 45.988-8.832 27.781 5.133 55.29 29.785 75.375 47.789 2.297 2.054 4.508 4.039 6.637 5.918a20.749 20.749 0 0013.789 5.226c5.766 0 11.5-2.379 15.617-7.035 7.617-8.625 6.809-21.789-1.812-29.41zm0 0"/></svg>