<svg xmlns="http://www.w3.org/2000/svg" viewBox="0 0 480 480"><path d="M240 360c82.83 0 150-67.17 150-150 0-82.845-67.17-150-150-150-82.845 0-150 67.155-150 150 0 82.83 67.155 150 150 150zm43.029-94.756l-.067-.103-.093-.139a6.381 6.381 0 01-.21-.322c-6.735-10.545-15-19.979-24.345-28.274-.629-.546-1.252-1.099-1.875-1.651-1.637-1.453-3.276-2.907-5.025-4.244-1.212-.946-2.499-1.802-3.787-2.658h-.001c-.528-.352-1.058-.704-1.582-1.062-2.16-1.5-4.364-2.925-6.63-4.29-1.494.818-3.049 1.504-4.606 2.191h-.001c-.897.396-1.795.791-2.683 1.214-.59.28-1.164.597-1.738.912l-.001.001c-.682.374-1.362.749-2.07 1.066-.344.152-.701.274-1.057.396v.001h-.001c-.312.106-.622.213-.923.339-4.38 1.89-8.835 3.479-13.365 4.949-.257.09-.514.184-.772.277l-.001.001h-.002v.001c-.434.157-.868.315-1.31.456a3.328 3.328 0 01-.517.124l-.127.024-.151.031c-14.505 4.41-29.55 6.945-44.774 6.945-.122 0-.24-.008-.356-.016-.112-.007-.223-.015-.334-.015-3.915-.045-7.755-.284-11.595-.585v-.015c-.188-.008-.371-.034-.555-.06-.185-.026-.368-.053-.556-.061-3.39-.314-6.75-.765-10.095-1.29-.435-.063-.872-.111-1.309-.159h-.001a25.2 25.2 0 01-1.75-.23l-.1-.017-.112-.019-.131-.021h-.001c-.133-.021-.262-.04-.392-.064a22.71 22.71 0 01-1.77-.392h-.001a32.962 32.962 0 00-1.125-.269c-2.64-.524-5.265-1.095-7.875-1.77-.33-.08-.665-.149-1.001-.219l-.001-.001c-.488-.101-.978-.202-1.458-.336-.184-.049-.37-.093-.557-.137-.271-.064-.542-.128-.808-.208-1.146-.312-2.26-.696-3.375-1.08a94.432 94.432 0 00-1.966-.66c-.511-.166-1.022-.329-1.535-.492-.682-.217-1.363-.434-2.042-.658a127.747 127.747 0 01-2.012-23.753 136.78 136.78 0 008.072 3.17c1.426.511 2.88.96 4.335 1.41 3.165 1.021 6.33 1.995 9.57 2.775 1.022.241 2.057.426 3.088.609.633.112 1.265.225 1.893.351.575.111 1.15.226 1.726.34 2.508.497 5.011.993 7.574 1.311-.675-5.926-1.125-11.91-1.125-18.016 0-41.8 16.783-80.72 45.098-109.277 14.585-5.842 30.492-9.063 47.137-9.08-43.364 23.248-70.806 68.544-70.806 118.346 0 6.404.6 12.645 1.484 18.81.136-.008.267-.019.398-.03s.262-.022.397-.029c12.479-.57 24.765-2.985 36.6-6.931.667-.226 1.336-.446 2.003-.668h.001c2.213-.732 4.421-1.463 6.576-2.361 1.327-.545 2.621-1.181 3.917-1.818h.001c.667-.328 1.334-.656 2.007-.972a127.895 127.895 0 007.005-3.601c.047-1.675.227-3.327.406-4.981v-.003c.109-1.011.22-2.022.299-3.04a36.54 36.54 0 00.075-1.881v-.001c.018-.802.036-1.604.12-2.394.041-.384.112-.764.185-1.142v-.001c.06-.314.119-.629.16-.942.57-4.74 1.41-9.405 2.4-14.055.046-.247.089-.495.132-.744v-.001c.082-.478.164-.957.272-1.43.03-.128.071-.259.113-.391.041-.132.082-.263.112-.39 3.45-14.775 8.76-29.07 16.38-42.255l.099-.149.062-.089c.086-.125.171-.248.245-.377 1.979-3.345 4.109-6.555 6.284-9.705.119-.178.247-.342.377-.507.1-.128.2-.256.299-.394 1.95-2.774 4.02-5.444 6.149-8.085.279-.351.545-.712.809-1.073h.001a25.19 25.19 0 011.065-1.387c.089-.104.172-.212.254-.318.071-.092.142-.183.211-.267.354-.42.731-.812 1.105-1.203.308-.321.614-.64.905-.972 1.785-2.04 3.6-4.005 5.475-5.939.256-.263.503-.536.75-.811h.001c.318-.353.637-.706.974-1.035.315-.33.646-.675.976-1.005.832-.813 1.697-1.569 2.562-2.325.539-.471 1.078-.941 1.607-1.425.454-.408.905-.819 1.356-1.23l.004-.003c.476-.434.951-.867 1.431-1.297a127.07 127.07 0 0121.564 10.151 142.407 142.407 0 00-6.758 5.378c-.996.854-1.958 1.741-2.926 2.633l-.464.428c-2.445 2.22-4.905 4.47-7.2 6.899-.7.746-1.362 1.53-2.025 2.317-.431.51-.862 1.021-1.305 1.522-.387.446-.775.892-1.164 1.336-1.675 1.917-3.353 3.837-4.911 5.895 5.476 2.355 10.891 4.979 16.17 8.025 36.209 20.905 61.531 54.904 72.098 93.711a126.601 126.601 0 01-15.71 45.298c1.529-49.162-23.966-95.553-67.091-120.459-5.535-3.18-11.25-5.79-17.025-8.115-.048.096-.091.192-.134.288-.065.145-.13.288-.211.432-5.76 11.101-9.811 22.966-12.3 35.19-.128.632-.259 1.263-.39 1.893v.001c-.485 2.331-.969 4.658-1.275 7.031-.189 1.436-.286 2.885-.383 4.329-.049.729-.097 1.457-.157 2.181-.21 2.625-.33 5.25-.391 7.891 1.43.874 2.788 1.867 4.146 2.859h.001v.001c.809.59 1.616 1.18 2.438 1.744.522.361 1.067.692 1.614 1.025.68.412 1.361.826 2.001 1.3.3.213.582.454.866.696v.001c.257.219.514.438.784.638 3.81 2.851 7.41 5.91 10.935 9.09l.43.358.001.001c.43.356.859.714 1.265 1.096.097.09.19.187.285.285.097.101.194.202.3.3 11.055 10.38 20.76 22.125 28.38 35.311.083.129.149.27.216.41v.001l.129.264c1.92 3.375 3.615 6.825 5.25 10.275.092.191.17.383.246.571.062.151.122.302.189.448 1.439 3.105 2.715 6.225 3.945 9.39.163.42.344.833.524 1.245.233.533.466 1.064.66 1.605.045.12.094.236.143.353s.098.232.143.353c.177.497.323 1.004.47 1.51.127.439.254.878.4 1.31.854 2.551 1.68 5.115 2.415 7.726.099.381.221.752.342 1.122h.001v.001c.137.417.273.833.377 1.262.135.45.27.915.39 1.365.303 1.182.536 2.369.77 3.56.125.639.25 1.276.386 1.915.119.559.242 1.115.365 1.671.144.649.287 1.298.425 1.948a128.071 128.071 0 01-19.566 13.679 130.449 130.449 0 00-1.276-8.57c-.285-1.485-.615-2.955-.945-4.425-.705-3.255-1.425-6.495-2.4-9.705-.308-1.062-.687-2.11-1.065-3.154-.193-.534-.387-1.067-.569-1.601l-.464-1.372c-.855-2.538-1.706-5.06-2.761-7.538-4.785 3.54-9.75 6.93-15.045 9.99-36.158 20.872-78.21 25.81-117.056 15.608a128.468 128.468 0 01-31.523-36.298c41.81 25.898 94.729 27.021 137.855 2.128 5.55-3.21 10.65-6.855 15.54-10.68l-.048-.077zM446.608 422.56a605.89 605.89 0 01-3.083-2.752c-11.408-10.224-27.031-24.227-45.895-27.711-10.625-1.96-21.409 1.512-31.839 4.87-8.182 2.635-16.639 5.356-23.239 4.61-5.629-.639-12.096-4.69-18.94-8.979-8.948-5.607-19.09-11.962-30.886-12.6-11.024-.6-21.176 4.164-30.997 8.768-7.884 3.695-15.33 7.186-21.745 7.186-6.414 0-13.86-3.49-21.744-7.186-9.82-4.604-19.975-9.368-30.996-8.768-11.796.638-21.938 6.992-30.887 12.599-6.846 4.29-13.312 8.342-18.943 8.98-6.598.751-15.059-1.976-23.24-4.61-10.432-3.358-21.216-6.829-31.839-4.869-18.723 3.458-32.769 16.003-45.16 27.072a701.147 701.147 0 01-3.8 3.378c-4.144 3.651-4.544 9.97-.894 14.114s9.97 4.544 14.114.894a776.8 776.8 0 003.902-3.47c10.942-9.774 22.257-19.881 35.47-22.32 5.666-1.051 13.635 1.521 22.075 4.239 10.2 3.284 20.746 6.676 31.628 5.445 10.145-1.152 18.868-6.619 27.306-11.905 7.565-4.74 14.711-9.218 21.348-9.576 5.98-.325 13.495 3.188 21.428 6.906 9.52 4.462 19.363 9.076 30.232 9.076s20.713-4.614 30.233-9.076c7.932-3.718 15.41-7.23 21.429-6.906 6.636.358 13.781 4.836 21.346 9.576 8.437 5.286 17.161 10.753 27.305 11.905 10.879 1.236 21.427-2.162 31.626-5.446 8.44-2.719 16.415-5.291 22.075-4.239 13.334 2.463 26.538 14.297 36.179 22.938 1.103.987 2.165 1.939 3.186 2.842a9.96 9.96 0 006.619 2.508 9.977 9.977 0 007.496-3.377c3.657-4.139 3.268-10.458-.87-14.116z"/></svg>