<svg xmlns="http://www.w3.org/2000/svg" width="1000pt" height="1000pt" viewBox="0 0 1000 1000"><path d="M160.543 568.266c37.7 26.398 89.66 17.23 116.059-20.465 26.398-37.703 17.234-89.664-20.465-116.063-37.7-26.398-89.66-17.234-116.059 20.465-26.398 37.7-17.238 89.66 20.465 116.063zm64.809-56.356c10.8-15.426 25.449-26.582 41.75-33.125a62.754 62.754 0 013.703 21.098 72.434 72.434 0 00-28.39 23.976 72.462 72.462 0 00-12.825 34.907 62.832 62.832 0 01-21.09 3.746c.566-17.57 6.04-35.164 16.852-50.602zm-79.536-11.828a72.396 72.396 0 0028.395-23.98 72.382 72.382 0 0012.82-34.86 62.847 62.847 0 0121.094-3.738c-.574 17.547-6.047 35.125-16.848 50.55-10.808 15.434-25.468 26.59-41.773 33.134a62.897 62.897 0 01-3.688-21.106zm248.227 249.703c16.371 0 31.492 3.516 45.266 8.297l45.437-64.89c7.309-10.434 7.328-23.77 1.168-34.028l163.734-65.844c19.872-.664 40.282-3.972 60.872-10.011 64.968-19.047 124.21-63.043 166.808-123.887 42.602-60.84 63.684-131.555 59.363-199.117-4.433-69.309-34.894-127.09-85.77-162.715-50.866-35.621-115.589-44.48-182.23-24.942-64.968 19.051-124.207 63.047-166.808 123.887-42.598 60.836-63.68 131.555-59.36 199.117 1.372 21.426 5.239 41.743 11.418 60.653l-5.875 176.355c-11.746-2.285-24.273 2.297-31.578 12.73L332.84 764.853c-.254.367-.469.75-.703 1.125 15.972-8.059 34.582-14.887 55.754-16.028 2.027-.11 4.101-.164 6.152-.164zm96.379-137.347l2.851-85.684a191.206 191.206 0 0035.012 31.61 190.916 190.916 0 0041.7 22.077zm45.59-392.004c51.941-74.18 129.62-116.207 200.625-116.207 32.574 0 63.75 8.847 90.386 27.496 40.297 28.214 64.473 74.824 68.082 131.238 3.72 58.16-14.714 119.441-51.91 172.562-51.074 72.942-127.027 114.79-197.054 116.168-.356-.011-.711 0-1.067.008-33.484.465-65.574-8.34-92.89-27.465-27.293-19.113-46.532-46.226-57.551-77.812-.125-.375-.246-.746-.395-1.11-22.64-66.273-9.293-151.949 41.774-224.878zm394.453 659.793c-2.055-1.817-4.195-3.739-6.414-5.727-23.766-21.305-56.32-50.477-95.621-57.738-22.137-4.09-44.602 3.148-66.332 10.144-17.047 5.489-34.664 11.172-48.414 9.606-11.727-1.332-25.196-9.774-39.457-18.707-18.641-11.684-39.77-24.922-64.344-26.25-22.965-1.239-44.117 8.675-64.578 18.265-16.426 7.7-31.942 14.973-45.301 14.973-13.363 0-28.875-7.273-45.3-14.973-20.462-9.59-41.614-19.5-64.579-18.265-24.574 1.328-45.703 14.566-64.348 26.246-14.261 8.937-27.73 17.379-39.464 18.71-13.75 1.555-31.372-4.116-48.415-9.6-21.734-7-44.199-14.235-66.332-10.15-39.004 7.204-68.265 33.34-94.078 56.391a1376.707 1376.707 0 01-7.922 7.047c-8.636 7.606-9.468 20.774-1.863 29.406a20.788 20.788 0 0015.64 7.063c4.891 0 9.805-1.715 13.762-5.203 2.688-2.367 5.403-4.79 8.137-7.235 22.797-20.359 46.367-41.41 73.89-46.492 11.81-2.187 28.411 3.168 45.99 8.832 21.25 6.84 43.226 13.914 65.89 11.344 21.136-2.402 39.312-13.793 56.89-24.805 15.758-9.875 30.645-19.203 44.473-19.949 12.46-.668 28.113 6.64 44.645 14.387 19.835 9.297 40.34 18.91 62.984 18.91 22.64 0 43.148-9.613 62.984-18.91 16.524-7.746 32.09-15.05 44.645-14.387 13.824.746 28.707 10.074 44.469 19.95 17.578 11.011 35.753 22.402 56.886 24.804 22.657 2.566 44.637-4.504 65.887-11.348 17.582-5.664 34.191-11.02 45.988-8.832 27.782 5.133 55.293 29.79 75.38 47.793 2.296 2.055 4.503 4.04 6.628 5.914 8.621 7.618 21.785 6.813 29.406-1.808 7.618-8.621 6.809-21.785-1.812-29.406zm0 0"/></svg>