<svg xmlns="http://www.w3.org/2000/svg" viewBox="0 0 480 480"><path d="M240 360c82.83 0 150-67.17 150-150 0-82.845-67.17-150-150-150-82.845 0-150 67.155-150 150 0 82.83 67.155 150 150 150zM112.5 210c0-3.789.166-7.541.492-11.247h58.864c-2.363-26.817-12.993-51.291-29.388-70.789a128.661 128.661 0 0115.986-15.907c20.376 23.617 33.449 53.661 35.915 86.696h34.38V82.992a128.41 128.41 0 0111.25-.492c3.791 0 7.543.166 11.251.492v115.761h34.38c2.466-33.035 15.539-63.079 35.915-86.696a128.746 128.746 0 0115.987 15.908c-16.388 19.497-27.018 43.971-29.38 70.788h58.855a128.734 128.734 0 01-.001 22.502h-58.854c2.362 26.815 12.99 51.287 29.377 70.783a128.69 128.69 0 01-15.984 15.904c-20.376-23.616-33.449-53.66-35.915-86.695h-34.38v115.761c-3.708.326-7.46.492-11.251.492-3.79 0-7.543-.166-11.25-.492V221.247h-34.38c-2.466 33.035-15.539 63.079-35.915 86.695a128.605 128.605 0 01-15.983-15.903c16.394-19.496 27.021-43.969 29.385-70.784h-58.864A128.916 128.916 0 01112.5 210zm334.123 212.508a608.858 608.858 0 01-3.079-2.748c-11.408-10.226-27.033-24.229-45.897-27.715-10.626-1.962-21.41 1.513-31.839 4.87-8.182 2.635-16.638 5.356-23.239 4.61-5.629-.639-12.095-4.69-18.94-8.979-8.948-5.607-19.09-11.962-30.886-12.6-11.023-.599-21.176 4.164-30.997 8.768-7.884 3.695-15.331 7.186-21.745 7.186s-13.86-3.49-21.744-7.186c-9.82-4.604-19.973-9.367-30.996-8.768-11.797.638-21.939 6.992-30.888 12.6-6.846 4.289-13.312 8.341-18.942 8.979-6.597.743-15.059-1.976-23.24-4.61-10.431-3.357-21.214-6.831-31.839-4.869-18.722 3.458-32.767 16.002-45.158 27.069a702.428 702.428 0 01-3.803 3.381c-4.144 3.65-4.544 9.97-.894 14.114a9.98 9.98 0 007.508 3.39 9.96 9.96 0 006.606-2.496 735.926 735.926 0 003.904-3.472c10.942-9.773 22.257-19.879 35.469-22.318 5.666-1.05 13.636 1.521 22.075 4.239 10.2 3.284 20.747 6.68 31.628 5.445 10.144-1.152 18.868-6.618 27.305-11.905 7.565-4.74 14.711-9.218 21.349-9.576 5.987-.319 13.495 3.188 21.428 6.906 9.52 4.462 19.363 9.076 30.232 9.076s20.713-4.614 30.233-9.076c7.932-3.718 15.417-7.225 21.429-6.906 6.636.358 13.781 4.836 21.346 9.576 8.437 5.286 17.161 10.753 27.305 11.905 10.881 1.233 21.428-2.161 31.626-5.446 8.441-2.718 16.415-5.289 22.075-4.239 13.335 2.463 26.54 14.299 36.182 22.94 1.101.986 2.162 1.938 3.182 2.839 4.137 3.656 10.456 3.268 14.115-.869 3.656-4.138 3.266-10.457-.871-14.115z"/></svg>