<svg xmlns="http://www.w3.org/2000/svg" viewBox="0 0 480 480"><path d="M193.108 226.1l42.007 30.508a8.279 8.279 0 009.771 0l41.99-30.508a8.296 8.296 0 003.023-9.289l-16.034-49.384a8.3 8.3 0 00-7.894-5.733h-51.926a8.306 8.306 0 00-7.91 5.733l-16.034 49.384a8.316 8.316 0 003.007 9.289zM240 359.948c82.83 0 150-67.17 150-150 0-82.846-67.17-150-150-150-82.845 0-150 67.154-150 150 0 82.83 67.155 150 150 150zM138.127 133.359l35.047-.272a7.488 7.488 0 006.66-4.186l19.669-39.862c12.729-4.274 26.348-6.591 40.497-6.591 14.15 0 27.77 2.316 40.498 6.591l19.681 39.862a7.454 7.454 0 006.66 4.186l35.035.272c13.315 17.667 22.148 38.894 24.794 61.974l-40.884 33.483a7.518 7.518 0 00-2.235 8.55l18.986 48.286c-15.063 20.348-36.03 36.074-60.348 44.624l-38.379-22.604a7.456 7.456 0 00-7.62 0l-38.385 22.601c-24.314-8.551-45.278-24.276-60.339-44.622l18.984-48.284a7.518 7.518 0 00-2.235-8.55l-40.881-33.481c2.645-23.082 11.478-44.309 24.795-61.977zm308.496 289.149a608.858 608.858 0 01-3.079-2.748c-11.408-10.226-27.033-24.229-45.897-27.715-10.625-1.962-21.409 1.513-31.839 4.87-8.182 2.635-16.636 5.356-23.239 4.61-5.629-.639-12.095-4.69-18.94-8.979-8.948-5.607-19.09-11.962-30.886-12.6-11.02-.599-21.176 4.164-30.997 8.768-7.884 3.695-15.331 7.186-21.745 7.186s-13.86-3.49-21.744-7.186c-9.82-4.604-19.974-9.367-30.996-8.768-11.796.638-21.938 6.992-30.887 12.599-6.846 4.29-13.312 8.342-18.943 8.98-6.596.743-15.059-1.976-23.24-4.61-10.431-3.357-21.216-6.831-31.839-4.869-18.722 3.458-32.767 16.002-45.158 27.069a702.428 702.428 0 01-3.803 3.381c-4.144 3.65-4.544 9.97-.894 14.114a9.98 9.98 0 007.508 3.39 9.96 9.96 0 006.606-2.496 735.926 735.926 0 003.904-3.472c10.942-9.773 22.257-19.879 35.469-22.318 5.666-1.05 13.636 1.521 22.075 4.239 10.199 3.284 20.748 6.68 31.628 5.445 10.144-1.152 18.868-6.619 27.306-11.905 7.565-4.74 14.711-9.218 21.348-9.576 5.984-.319 13.495 3.188 21.428 6.906 9.52 4.462 19.363 9.076 30.232 9.076s20.713-4.614 30.233-9.076c7.933-3.718 15.401-7.225 21.429-6.906 6.636.358 13.781 4.836 21.346 9.576 8.437 5.286 17.161 10.753 27.305 11.905 10.878 1.233 21.428-2.161 31.626-5.446 8.441-2.718 16.411-5.289 22.075-4.239 13.335 2.463 26.54 14.299 36.182 22.94 1.101.986 2.162 1.938 3.182 2.839 4.137 3.656 10.455 3.268 14.115-.869 3.656-4.138 3.266-10.457-.871-14.115z"/></svg>