<svg xmlns="http://www.w3.org/2000/svg" viewBox="0 0 480 480"><path d="M77.06 272.767c18.097 12.671 43.038 8.272 55.709-9.823 12.671-18.097 8.273-43.038-9.823-55.71-18.096-12.671-43.038-8.272-55.709 9.823-12.671 18.096-8.273 43.038 9.823 55.71zm31.108-27.05a44.723 44.723 0 0120.04-15.9 30.136 30.136 0 011.778 10.127 34.773 34.773 0 00-13.627 11.509 34.771 34.771 0 00-6.155 16.755 30.163 30.163 0 01-10.124 1.797 44.705 44.705 0 018.088-24.288zm-38.177-5.677a34.766 34.766 0 0013.631-11.511 34.758 34.758 0 006.153-16.732 30.142 30.142 0 0110.125-1.795 44.714 44.714 0 01-8.087 24.264 44.73 44.73 0 01-20.051 15.904 30.205 30.205 0 01-1.771-10.13zm119.15 119.856c7.857 0 15.115 1.689 21.728 3.983l21.81-31.147c3.507-5.008 3.517-11.41.559-16.333l78.593-31.606c9.539-.318 19.336-1.907 29.219-4.805 31.185-9.143 59.62-30.261 80.068-59.465 20.448-29.203 30.567-63.146 28.493-95.577-2.128-33.267-16.748-61.003-41.168-78.102-24.417-17.099-55.483-21.351-87.471-11.972-31.185 9.143-59.62 30.261-80.068 59.465-20.448 29.202-30.567 63.146-28.492 95.576.658 10.284 2.513 20.037 5.479 29.113l-2.82 84.65c-5.638-1.096-11.65 1.104-15.157 6.112l-40.15 57.34c-.123.177-.225.361-.339.54 7.667-3.868 16.6-7.145 26.762-7.693a55.691 55.691 0 012.954-.079zm46.261-65.926l1.37-41.128a91.732 91.732 0 0036.82 25.77l-38.19 15.358zm21.883-188.162c24.933-35.606 62.218-55.78 96.3-55.78 15.637 0 30.601 4.247 43.386 13.199 19.342 13.543 30.947 35.915 32.68 62.995 1.785 27.916-7.063 57.332-24.917 82.83-24.516 35.011-60.974 55.098-94.587 55.759-.17-.005-.341.001-.512.005-16.071.223-31.475-4.003-44.587-13.184-13.101-9.173-22.335-22.188-27.625-37.35-.06-.18-.118-.358-.188-.532-10.869-31.811-4.462-72.936 20.05-107.942zm189.338 316.7c-.986-.872-2.013-1.793-3.079-2.748-11.408-10.226-27.033-24.229-45.898-27.715-10.626-1.962-21.409 1.512-31.839 4.87-8.182 2.635-16.639 5.362-23.238 4.61-5.629-.639-12.095-4.69-18.94-8.979-8.948-5.607-19.09-11.962-30.886-12.6-11.022-.595-21.176 4.164-30.997 8.768-7.884 3.695-15.331 7.186-21.745 7.186s-13.86-3.49-21.744-7.186c-9.82-4.604-19.974-9.361-30.997-8.768-11.796.638-21.938 6.992-30.886 12.599-6.847 4.29-13.312 8.342-18.944 8.98-6.6.747-15.058-1.976-23.239-4.609-10.432-3.359-21.216-6.832-31.839-4.87-18.722 3.458-32.767 16.002-45.157 27.068a702.856 702.856 0 01-3.804 3.382c-4.144 3.65-4.544 9.97-.894 14.114a9.98 9.98 0 007.508 3.39 9.96 9.96 0 006.606-2.496 778.058 778.058 0 003.906-3.473c10.941-9.772 22.255-19.878 35.467-22.317 5.667-1.049 13.636 1.521 22.075 4.239 10.2 3.284 20.748 6.679 31.627 5.445 10.145-1.152 18.869-6.619 27.307-11.905 7.564-4.74 14.71-9.218 21.347-9.576 5.981-.321 13.495 3.188 21.429 6.906 9.521 4.462 19.364 9.076 30.232 9.076 10.869 0 20.713-4.614 30.233-9.076 7.932-3.718 15.404-7.225 21.429-6.906 6.636.358 13.781 4.836 21.346 9.576 8.437 5.286 17.161 10.753 27.305 11.905 10.876 1.233 21.426-2.162 31.626-5.446 8.439-2.719 16.412-5.289 22.074-4.239 13.336 2.463 26.541 14.299 36.183 22.94 1.102.987 2.162 1.938 3.182 2.839 4.138 3.656 10.456 3.269 14.115-.869 3.656-4.138 3.267-10.457-.871-14.115z"/></svg>