<svg xmlns="http://www.w3.org/2000/svg" width="1000pt" height="1000pt" viewBox="0 0 1000 1000"><path d="M930.465 880.227c-2.055-1.817-4.195-3.739-6.414-5.727-23.766-21.305-56.32-50.477-95.621-57.738-22.137-4.09-44.602 3.152-66.328 10.144-17.047 5.489-34.664 11.16-48.418 9.606-11.727-1.332-25.196-9.774-39.457-18.707-18.641-11.684-39.77-24.922-64.344-26.25-22.965-1.25-44.117 8.675-64.578 18.265-16.426 7.7-31.942 14.973-45.301 14.973-13.363 0-28.875-7.273-45.3-14.973-20.462-9.59-41.614-19.515-64.575-18.265-24.578 1.328-45.707 14.566-64.352 26.25-14.261 8.933-27.734 17.375-39.46 18.707-13.747 1.547-31.376-4.117-48.419-9.606-21.73-6.992-44.195-14.23-66.332-10.144-39.004 7.203-68.265 33.34-94.078 56.394a1374.824 1374.824 0 01-7.922 7.043c-8.636 7.606-9.468 20.774-1.863 29.406a20.788 20.788 0 0015.64 7.063c4.891 0 9.805-1.715 13.762-5.203 2.688-2.367 5.399-4.785 8.133-7.23 22.797-20.364 46.371-41.415 73.895-46.497 11.804-2.187 28.41 3.168 45.988 8.832 21.25 6.84 43.227 13.914 65.895 11.344 21.132-2.402 39.308-13.789 56.882-24.805 15.762-9.875 30.649-19.203 44.48-19.949 12.474-.664 28.114 6.64 44.642 14.387 19.832 9.297 40.34 18.91 62.984 18.91 22.64 0 43.148-9.613 62.984-18.91 16.524-7.746 32.117-15.05 44.645-14.387 13.824.746 28.707 10.074 44.469 19.95 17.578 11.011 35.753 22.402 56.886 24.804 22.668 2.566 44.64-4.504 65.887-11.348 17.586-5.664 34.2-11.02 45.988-8.832 27.782 5.133 55.293 29.79 75.38 47.793 2.296 2.055 4.503 4.04 6.628 5.914 8.621 7.618 21.785 6.809 29.406-1.808 7.618-8.621 6.805-21.785-1.812-29.406zM153.246 375.219c7.05.398 13.934 1.41 20.625 2.933l11.93-86.484h118.023l-16.668 104.164h-72.078A125.942 125.942 0 01254.27 437.5h26.218l-9.48 59.27-7.274 45.44-25.843 161.528a20.946 20.946 0 00-.211 4.594H128.328l11.52-83.496a124.34 124.34 0 01-20.649-2.785 123.79 123.79 0 01-20.164-6.281L83.79 726.316a20.84 20.84 0 004.93 16.536 20.836 20.836 0 0015.707 7.144H708.59l.289-.012c.492-.007.98-.027 1.465-.066.27-.023.539-.063.804-.094.309-.039.622-.078.93-.129.305-.05.61-.117.914-.183.262-.055.52-.117.778-.18.32-.082.64-.172.957-.27l.324-.093 208.332-67.934c10.765-3.512 16.754-14.976 13.488-25.82L801.691 206.68l10.875-78.832a20.87 20.87 0 00-4.933-16.54 20.836 20.836 0 00-15.707-7.144H187.762c-10.407 0-19.219 7.68-20.64 17.988l-34.985 253.649c4.586-.512 9.234-.797 13.953-.797 2.402 0 4.789.082 7.156.215zM371.66 708.332h-92.308l20-125h92.312zm-65.64-166.664L322.684 437.5h92.312l-16.668 104.168zm200.148 166.664h-92.313l20.004-125h92.309zm-65.645-166.664L457.191 437.5h92.313l-16.668 104.168zm249.91 166.664h-142.07l20-125H707.68zm22.993-166.664H575.027L591.695 437.5h136.098zm74.601-235.934l103.075 342.004-157.325 51.301 41.489-300.762zM638.363 145.832h129.66l-8.222 59.625-.008.031-6.14 44.512H621.698zm-23.332 145.836h132.875L733.54 395.832H598.363zM503.86 145.832h92.309L579.504 250H487.19zm-23.336 145.836h92.313l-16.668 104.164h-92.313zM368.617 150.426c.246-1.551.305-3.086.211-4.594h92.836L444.996 250h-92.312zM346.02 291.668h92.312l-16.668 104.164h-92.312zM205.918 145.832H327.16L310.492 250H191.551zm-100.91 426.656a82.494 82.494 0 0019.91 8.121 83.538 83.538 0 0020.656 2.707l.516.016c46.023 0 83.332-37.309 83.332-83.332 0-24.898-10.934-47.23-28.246-62.5a83.178 83.178 0 00-33.028-17.86 83.302 83.302 0 00-20.625-2.933c-.476-.008-.953-.039-1.433-.039-6.867 0-13.54.848-19.922 2.414-.242.063-.488.11-.734.172C89.406 428.44 62.762 461.109 62.762 500c0 31.078 17.027 58.164 42.246 72.488zm0 0"/></svg>