<svg xmlns="http://www.w3.org/2000/svg" width="1000pt" height="1000pt" viewBox="0 0 1000 1000"><path d="M242.633 191.652l186.933 82.02-119.03 169.976a41.666 41.666 0 0010.234 58.031l102.39 71.696a41.674 41.674 0 0058.035-10.234l119.489-170.672 53.55 37.492a41.651 41.651 0 0023.899 7.535h93.238c23.012 0 41.668-18.656 41.668-41.668s-18.656-41.664-41.668-41.664H691.27l-140.938-98.68-38.355-26.859-.086-.055-34.063-23.84a41.54 41.54 0 00-7.156-4.023L276.113 115.34c-21.07-9.242-45.652.344-54.898 21.414-9.242 21.074.344 45.656 21.418 54.898zm38.64 603.453c.997-.312 2.297-.894 3.778-1.632l23.808-58.297c9.309-21.043-.203-45.653-21.246-54.961-21.05-9.313-45.652.203-54.965 21.246l-29.804 73.668c17.308 2.293 33.289 7.437 47.816 12.113 10.215 3.293 24.164 7.781 30.613 7.863zm289.082-576.574c39.38 27.574 88.075 18.715 115.653-20.664 27.574-39.379 18.918-88.48-20.461-116.054-39.379-27.575-88.492-18.922-116.063 20.457-27.578 39.378-18.507 88.687 20.871 116.261zm387.899 135.637h-73.387c-17.258 0-31.25 13.992-31.25 31.25v10.414h135.887v-10.414c0-17.258-13.992-31.25-31.25-31.25zM438.086 802.27c-.754-.32-1.508-.641-2.258-.954-.539-.222-1.078-.441-1.617-.656-.742-.305-1.488-.605-2.234-.902-.551-.215-1.094-.422-1.645-.633-.742-.285-1.48-.566-2.223-.832a145.154 145.154 0 00-3.906-1.371c-.562-.192-1.133-.375-1.7-.559-.737-.238-1.483-.468-2.226-.691a86.736 86.736 0 00-1.718-.508c-.747-.215-1.5-.418-2.25-.613a79.347 79.347 0 00-4.004-.973 83.993 83.993 0 00-1.72-.375 92.955 92.955 0 00-2.315-.433c-.57-.102-1.145-.211-1.72-.297-.792-.13-1.59-.23-2.386-.332-.559-.075-1.113-.153-1.676-.215a66.409 66.409 0 00-2.508-.219c-.527-.043-1.058-.094-1.59-.125-.906-.055-1.812-.07-2.718-.094-.477-.008-.945-.035-1.422-.035a73.02 73.02 0 00-4.125.098c-24.574 1.332-45.703 14.566-64.348 26.25-14.261 8.937-27.73 17.379-39.464 18.707a40.6 40.6 0 01-2.536.203c-.238.012-.48.012-.722.02-.535.015-1.063.042-1.606.042l-.183-.007a58.948 58.948 0 01-4.34-.2c-.278-.023-.555-.043-.828-.066a76.681 76.681 0 01-4.438-.543c-.285-.043-.57-.094-.86-.137a98.254 98.254 0 01-2.831-.5l.008-.02c-.618-.12-1.22-.21-1.844-.34-.192-.038-.39-.085-.586-.128a137.328 137.328 0 01-4.785-1.105l-.383-.094c-1.66-.418-3.336-.871-5.016-1.344-.277-.078-.547-.152-.824-.234-1.633-.465-3.273-.95-4.918-1.446l-.914-.28a513.06 513.06 0 01-4.953-1.544c-.29-.094-.574-.183-.863-.277-1.664-.531-3.332-1.067-4.993-1.598-1.183-.387-2.375-.765-3.562-1.148l-1.25-.399c-.852-.273-1.707-.543-2.563-.812l-1.418-.446c-.835-.261-1.675-.52-2.507-.777-.45-.133-.891-.273-1.336-.406-1.215-.371-2.43-.73-3.645-1.086l-.383-.11c-1.16-.335-2.32-.66-3.48-.984l-1.242-.328a157.706 157.706 0 00-3.961-1.023c-.871-.22-1.742-.422-2.617-.625-.407-.094-.82-.192-1.23-.286a163.52 163.52 0 00-3.79-.8l-.254-.043c-1.18-.227-2.363-.442-3.543-.637a146.762 146.762 0 00-3.852-.57 102.336 102.336 0 00-4.016-.45c-.394-.035-.796-.078-1.194-.109a88.356 88.356 0 00-3.805-.234l-.293-.004c-1-.035-2-.059-3-.059l-.508.008c-.41.004-.824.02-1.234.027-.875.02-1.75.051-2.63.098-.448.027-.901.055-1.35.09-.883.062-1.77.148-2.65.246-.401.043-.804.082-1.202.133-1.274.16-2.543.347-3.813.582-.656.125-1.289.293-1.941.422-38.024 7.703-66.758 33.304-92.137 55.968a1376.384 1376.384 0 01-7.926 7.047c-8.632 7.606-9.464 20.77-1.863 29.407a20.803 20.803 0 0015.645 7.062c4.89 0 9.8-1.715 13.761-5.203 2.688-2.367 5.399-4.79 8.137-7.234 22.793-20.36 46.363-41.41 73.89-46.493a28.961 28.961 0 012.618-.347c.285-.028.578-.04.871-.055.625-.043 1.258-.07 1.906-.078l.492-.02.407.02c1.21.012 2.453.066 3.73.176.203.02.41.047.613.062a72.82 72.82 0 013.801.485l.477.07c1.37.219 2.777.492 4.203.793.297.062.594.125.894.191 1.407.309 2.836.649 4.293 1.016.27.066.547.144.82.215 1.434.37 2.88.761 4.352 1.183l.348.098c1.555.445 3.137.918 4.726 1.402.329.102.653.2.985.301 1.535.477 3.086.961 4.648 1.457.39.125.785.25 1.172.375a5376.864 5376.864 0 018.246 2.649c.426.136.86.277 1.285.41.82.261 1.637.523 2.457.781.516.16 1.036.324 1.555.484.746.235 1.496.47 2.246.7.535.164 1.067.328 1.602.488.75.226 1.504.453 2.254.676l1.578.468c.8.23 1.605.461 2.406.688.469.129.938.265 1.41.394 1.242.344 2.489.68 3.739 1.004l.402.098c1.148.297 2.3.578 3.45.855.437.106.882.204 1.323.301.836.196 1.676.383 2.516.563.504.11 1.012.21 1.52.312.789.16 1.578.317 2.37.465.52.098 1.044.191 1.567.281a158.316 158.316 0 003.91.625c.863.125 1.727.23 2.59.34.437.05.875.113 1.312.16 1.29.14 2.586.266 3.88.36l.452.027c1.153.078 2.301.14 3.458.18.457.015.91.02 1.367.027.812.016 1.625.027 2.437.024 1.035-.008 2.074-.043 3.11-.083.496-.023.992-.03 1.492-.058a83.352 83.352 0 004.594-.383c21.132-2.402 39.308-13.793 56.89-24.805 15.758-9.875 30.645-19.203 44.473-19.949.531-.027 1.07-.043 1.613-.043l.402.016c.364.004.735.02 1.098.039.426.02.856.039 1.29.07.374.031.753.074 1.132.117.437.043.875.098 1.316.157.387.054.782.12 1.172.183.446.074.89.153 1.34.242.399.075.8.16 1.203.246.457.102.914.204 1.371.313.41.102.82.203 1.23.309.47.12.934.25 1.403.382.414.118.832.239 1.254.364.477.144.957.297 1.434.449.425.133.847.27 1.273.414.484.16.973.332 1.465.504l1.289.46c.496.18.996.372 1.496.56.434.163.867.328 1.3.5a183.714 183.714 0 012.84 1.137c.528.214 1.055.437 1.587.66l1.289.546c.55.235 1.105.48 1.656.723.422.183.836.363 1.262.55.586.262 1.175.528 1.77.797.39.172.773.344 1.163.524.656.297 1.32.601 1.98.91.329.152.66.3.993.453.766.356 1.539.715 2.308 1.074.231.11.461.215.696.325 1 .468 2.008.937 3.015 1.41 14.028 6.574 28.395 13.289 43.614 16.672l-42.203-61.801zm492.379 77.957c-2.055-1.817-4.195-3.739-6.414-5.727-23.766-21.305-56.32-50.477-95.621-57.738a70.773 70.773 0 00-3.813-.586c-.402-.047-.804-.09-1.207-.13a76.731 76.731 0 00-2.648-.25c-.453-.03-.899-.058-1.348-.085a84.982 84.982 0 00-2.644-.098 63.42 63.42 0 00-1.22-.027 82.976 82.976 0 00-3.554.05l-.246.005c-1.27.047-2.547.129-3.82.23-.387.035-.778.074-1.164.11-.903.085-1.801.18-2.703.285a104.74 104.74 0 00-3.992.55c-.395.063-.79.118-1.184.188-1.211.2-2.418.414-3.625.648l-.172.032c-1.274.25-2.547.523-3.817.804-.394.09-.789.184-1.18.274-.89.207-1.777.418-2.667.636-.446.114-.895.223-1.34.336-.883.223-1.762.457-2.64.692-.395.11-.794.21-1.184.316-1.227.336-2.45.68-3.672 1.035l-.082.024a324.45 324.45 0 00-5.055 1.515c-.863.266-1.719.532-2.582.801-.457.145-.918.285-1.379.434-.879.277-1.754.554-2.629.832l-1.172.375c-1.199.383-2.398.77-3.593 1.156-1.676.54-3.352 1.078-5.032 1.61a519.804 519.804 0 01-5.79 1.813c-.296.089-.592.183-.89.272-1.652.5-3.3.993-4.937 1.457-.265.075-.527.145-.789.22-1.695.476-3.383.933-5.05 1.355l-.325.078c-1.633.41-3.254.785-4.855 1.125l-.543.12c-1.59.333-3.157.614-4.703.864-.274.043-.547.09-.82.133-1.516.226-3.005.41-4.47.547-.265.027-.53.043-.792.066-1.485.117-2.95.192-4.372.196l-.168.007c-.507 0-1-.023-1.496-.039-.289-.008-.582-.008-.867-.023a40.575 40.575 0 01-2.52-.203c-11.726-1.332-25.199-9.77-39.456-18.707-11.395-7.137-23.727-14.848-37.196-20.075l47.38 69.36a85.751 85.751 0 013.39 5.39c6.77 2.641 13.789 4.594 21.183 5.434 1.532.176 3.063.297 4.59.387.5.027.996.035 1.5.054a91.09 91.09 0 003.098.086c.816.004 1.629-.007 2.445-.023.453-.012.91-.012 1.36-.027a92.875 92.875 0 003.46-.184l.45-.027a99.14 99.14 0 003.875-.36c.449-.047.898-.11 1.347-.164.848-.105 1.7-.21 2.551-.332.524-.074 1.043-.156 1.567-.238.777-.125 1.554-.25 2.336-.387.535-.094 1.074-.187 1.605-.289.77-.144 1.543-.297 2.313-.453.523-.105 1.046-.21 1.57-.32.812-.176 1.621-.36 2.433-.547.47-.106.942-.211 1.41-.32 1.07-.254 2.137-.52 3.2-.79.332-.085.656-.171.988-.253 1.125-.297 2.246-.594 3.367-.907.492-.133.985-.277 1.477-.414l2.34-.668 1.629-.48c.73-.215 1.46-.438 2.191-.656l1.656-.504 2.188-.68 1.601-.504c.813-.254 1.621-.516 2.434-.773.434-.137.863-.274 1.297-.41 1.203-.391 2.406-.774 3.605-1.16 1.54-.497 3.07-.989 4.594-1.473.41-.133.828-.27 1.242-.399 1.543-.492 3.078-.972 4.602-1.441.344-.106.687-.211 1.031-.313 1.582-.48 3.152-.953 4.695-1.394l.364-.102c1.464-.418 2.906-.808 4.332-1.18.277-.07.558-.148.832-.214 1.457-.371 2.886-.707 4.297-1.016l.878-.187a93.37 93.37 0 014.22-.801l.44-.063a64.39 64.39 0 013.848-.488c.192-.02.39-.043.582-.059a47.918 47.918 0 013.754-.18l.39-.019.481.02c.66.008 1.309.035 1.95.078.277.02.562.031.835.055.899.082 1.778.19 2.625.347 27.786 5.13 55.293 29.79 75.383 47.793 2.297 2.055 4.504 4.035 6.63 5.914.519.457 1.054.88 1.605 1.278.187.132.382.25.57.378.367.25.734.497 1.113.72.235.132.473.253.711.378.348.188.696.375 1.051.54.254.116.516.218.777.327.344.14.692.285 1.043.41.27.094.543.176.817.258.347.11.699.211 1.05.301.282.066.563.129.844.188.352.074.703.136 1.055.191.289.043.57.082.86.117.35.04.706.063 1.062.082.289.02.578.035.863.043.309.004.621-.008.93-.015a17.607 17.607 0 002.09-.16c.394-.048.789-.11 1.18-.184a22.093 22.093 0 002.038-.485c.29-.086.578-.171.864-.27.382-.128.757-.276 1.132-.429.278-.113.555-.222.829-.347.375-.172.738-.368 1.101-.563.262-.137.527-.27.781-.418.375-.219.735-.465 1.094-.71.23-.157.473-.306.7-.474.386-.285.757-.601 1.124-.914l.559-.468a20.612 20.612 0 001.562-1.582c7.622-8.63 6.813-21.793-1.808-29.414zM650.05 890.652l-39.02-57.125-26.73-39.132-.008-.008-24.57-35.969-46.246-67.703a41.719 41.719 0 00-10.407-10.48L296.816 535.815c-18.851-13.203-44.832-8.617-58.027 10.23-13.203 18.849-8.621 44.833 10.23 58.028l200.102 140.117 17.09 25.024 37.8 55.351 25.262 36.989 24.305 35.59 27.863 40.804c8.082 11.727 21.102 18.024 34.344 18.024a41.49 41.49 0 0023.61-7.364c14.867-10.246 20.957-28.422 16.601-44.933-1.195-4.531-3.133-8.942-5.945-13.024zm0 0"/></svg>