<svg xmlns="http://www.w3.org/2000/svg" viewBox="0 0 480 480"><path d="M446.623 422.508a608.858 608.858 0 01-3.079-2.748c-11.408-10.226-27.033-24.229-45.897-27.715-10.626-1.962-21.41 1.513-31.839 4.87-8.182 2.635-16.638 5.356-23.239 4.61-5.629-.639-12.095-4.69-18.94-8.979-8.948-5.607-19.09-11.962-30.886-12.6-11.023-.599-21.176 4.164-30.997 8.768-7.884 3.695-15.331 7.186-21.745 7.186s-13.86-3.49-21.744-7.186c-9.82-4.604-19.973-9.367-30.996-8.768-11.797.638-21.939 6.992-30.888 12.6-6.846 4.289-13.312 8.341-18.942 8.979-6.597.743-15.059-1.976-23.24-4.61-10.431-3.357-21.214-6.831-31.839-4.869-18.722 3.458-32.767 16.002-45.158 27.069a702.428 702.428 0 01-3.803 3.381c-4.144 3.65-4.544 9.97-.894 14.114a9.98 9.98 0 007.508 3.39 9.96 9.96 0 006.606-2.496 735.926 735.926 0 003.904-3.472c10.942-9.773 22.257-19.879 35.469-22.318 5.666-1.05 13.636 1.521 22.075 4.239 10.2 3.284 20.747 6.68 31.628 5.445 10.144-1.152 18.868-6.618 27.305-11.905 7.565-4.74 14.711-9.218 21.349-9.576 5.987-.319 13.495 3.188 21.428 6.906 9.52 4.462 19.363 9.076 30.232 9.076s20.713-4.614 30.233-9.076c7.932-3.718 15.417-7.225 21.429-6.906 6.636.358 13.781 4.836 21.346 9.576 8.437 5.286 17.161 10.753 27.305 11.905 10.881 1.233 21.428-2.161 31.626-5.446 8.441-2.718 16.415-5.289 22.075-4.239 13.335 2.463 26.54 14.299 36.182 22.94 1.101.986 2.162 1.938 3.182 2.839 4.137 3.656 10.456 3.268 14.115-.869 3.656-4.138 3.266-10.457-.871-14.115zM73.558 180.105c3.384.192 6.688.676 9.9 1.408L89.185 140h56.65l-8 50h-34.597a60.462 60.462 0 0118.812 20h12.585l-4.552 28.449-3.49 21.813-12.405 77.532a10.004 10.004 0 00-.101 2.205H61.598l5.528-40.077a59.757 59.757 0 01-9.91-1.337 59.456 59.456 0 01-9.679-3.015l-7.319 53.062a10 10 0 009.906 11.367h290l.138-.006c.236-.004.471-.014.703-.033.129-.011.258-.029.387-.045.148-.019.298-.037.445-.062a8.51 8.51 0 00.439-.087 9.644 9.644 0 00.832-.216l.156-.045 100-32.608a10 10 0 006.474-12.393L384.811 99.206l5.22-37.84a10 10 0 00-9.906-11.367h-290a10 10 0 00-9.906 8.634L63.426 180.385c2.2-.246 4.433-.384 6.698-.384 1.153 0 2.297.04 3.434.104zM178.397 340h-44.309l9.601-60h44.309l-9.601 60zm-31.508-80l8-50h44.309l-8 50h-44.309zm96.071 80h-44.309l9.601-60h44.309l-9.601 60zm-31.508-80l8-50h44.309l-8 50h-44.309zm119.957 80h-68.195l9.601-60h66.871l-8.277 60zm11.035-80h-66.43l8-50h65.326l-6.896 50zm35.81-113.247l49.475 164.162-75.515 24.624 19.913-144.365 6.127-44.421zM306.415 70h62.236l-3.947 28.62-.003.014L361.754 120h-63.339l8-50zm-11.2 70h63.78l-6.896 50h-64.885l8.001-50zm-53.363-70h44.309l-8 50h-44.309l8-50zm-11.2 70h44.309l-8 50h-44.31l8.001-50zm-53.716-67.795c.119-.745.146-1.482.101-2.205h44.562l-8 50h-44.31l7.647-47.795zM166.089 140h44.31l-8 50h-44.31l8-50zM98.841 70h58.195l-8 50H91.944l6.897-50zM50.403 274.795a39.666 39.666 0 009.558 3.897 40.05 40.05 0 009.915 1.3l.248.007c22.091 0 39.999-17.908 39.999-39.999 0-11.951-5.248-22.67-13.558-30a39.9 39.9 0 00-15.854-8.572 39.987 39.987 0 00-9.899-1.409c-.23-.004-.458-.018-.688-.018-3.298 0-6.499.407-9.564 1.159-.116.029-.234.052-.351.081-17.294 4.411-30.084 20.091-30.084 38.759 0 14.918 8.173 27.918 20.278 34.795z"/></svg>