<svg xmlns="http://www.w3.org/2000/svg" width="1000pt" height="1000pt" viewBox="0 0 1000 1000"><path d="M402.309 471.043l87.515 63.559a17.25 17.25 0 0020.356 0l87.48-63.559c6.09-4.434 8.617-12.223 6.297-19.352l-33.406-102.886a17.286 17.286 0 00-16.446-11.942h-108.18c-7.51 0-14.16 4.813-16.476 11.942L396.043 451.69a17.331 17.331 0 006.266 19.352zM500 749.891c172.563 0 312.5-139.938 312.5-312.5 0-172.594-139.938-312.5-312.5-312.5-172.594 0-312.5 139.906-312.5 312.5 0 172.562 139.906 312.5 312.5 312.5zM287.766 277.832l73.011-.566c5.875-.036 11.25-3.407 13.875-8.723l40.98-83.047c26.516-8.902 54.891-13.73 84.368-13.73 29.48 0 57.855 4.824 84.371 13.73l41 83.047a15.53 15.53 0 0013.875 8.723l72.992.566c27.739 36.805 46.14 81.027 51.653 129.113L678.715 476.7a15.665 15.665 0 00-4.656 17.813l39.554 100.597c-31.379 42.391-75.062 75.153-125.722 92.965l-79.957-47.09a15.524 15.524 0 00-15.875 0l-79.97 47.086c-50.655-17.816-94.327-50.578-125.706-92.965l39.55-100.59a15.665 15.665 0 00-4.656-17.812L236.11 406.95c5.508-48.086 23.91-92.308 51.657-129.117zm642.699 602.395c-2.055-1.817-4.195-3.739-6.414-5.727-23.766-21.305-56.32-50.477-95.621-57.738-22.133-4.09-44.602 3.152-66.328 10.144-17.047 5.489-34.66 11.16-48.418 9.606-11.727-1.332-25.196-9.774-39.457-18.707-18.641-11.684-39.77-24.922-64.344-26.25-22.961-1.25-44.117 8.675-64.578 18.265-16.426 7.7-31.942 14.973-45.301 14.973-13.363 0-28.875-7.273-45.3-14.973-20.462-9.59-41.614-19.515-64.575-18.265-24.578 1.328-45.707 14.566-64.352 26.246-14.261 8.937-27.73 17.379-39.46 18.71-13.743 1.548-31.376-4.116-48.419-9.605-21.73-6.992-44.199-14.23-66.332-10.144-39.004 7.203-68.265 33.34-94.078 56.394a1374.824 1374.824 0 01-7.922 7.043c-8.636 7.606-9.468 20.774-1.863 29.406a20.788 20.788 0 0015.64 7.063c4.891 0 9.805-1.715 13.762-5.203 2.688-2.367 5.399-4.785 8.133-7.23 22.797-20.364 46.371-41.415 73.895-46.497 11.804-2.187 28.41 3.168 45.988 8.832 21.25 6.84 43.227 13.914 65.895 11.344 21.132-2.402 39.308-13.793 56.886-24.805 15.762-9.875 30.649-19.203 44.477-19.949 12.465-.664 28.113 6.64 44.64 14.387 19.833 9.297 40.34 18.91 62.985 18.91 22.64 0 43.148-9.613 62.984-18.91 16.528-7.746 32.086-15.05 44.645-14.387 13.824.746 28.707 10.074 44.469 19.95 17.578 11.011 35.753 22.402 56.886 24.804 22.66 2.566 44.64-4.504 65.887-11.348 17.586-5.664 34.191-11.02 45.988-8.832 27.782 5.133 55.293 29.79 75.38 47.793 2.296 2.055 4.503 4.04 6.628 5.914 8.621 7.618 21.781 6.809 29.406-1.808 7.618-8.621 6.805-21.785-1.812-29.406zm0 0"/></svg>