<svg xmlns="http://www.w3.org/2000/svg" viewBox="0 0 480 480"><path d="M116.463 91.993l89.728 39.369-57.134 81.59a20.002 20.002 0 004.912 27.854l49.148 34.414a20.004 20.004 0 0027.856-4.913l57.355-81.922 25.705 17.997a19.997 19.997 0 0011.471 3.616h44.754c11.046 0 20-8.954 20-20s-8.954-20-20-20H331.81l-67.651-47.365-18.41-12.893-.042-.026-16.35-11.444a20.044 20.044 0 00-3.435-1.931l-93.387-40.975c-10.115-4.438-21.913.165-26.351 10.278-4.438 10.116.165 21.914 10.279 26.351zm18.548 289.657c.478-.15 1.103-.428 1.814-.783l11.427-27.982c4.469-10.102-.097-21.913-10.198-26.382-10.104-4.47-21.913.097-26.382 10.198l-14.307 35.361c8.308 1.101 15.979 3.57 22.952 5.815 4.903 1.579 11.598 3.734 14.694 3.773zm138.76-276.755c18.902 13.235 42.276 8.983 55.513-9.919 13.235-18.902 9.08-42.47-9.822-55.706-18.902-13.235-42.475-9.082-55.71 9.82-13.237 18.902-8.884 42.569 10.019 55.805zM459.962 170h-35.226c-8.284 0-15 6.716-15 15v5h65.226v-5c0-8.284-6.716-15-15-15zM210.281 385.09a84.053 84.053 0 00-1.859-.774c-.357-.146-.715-.29-1.074-.432-.263-.103-.525-.203-.789-.304a62.68 62.68 0 00-1.067-.4c-.269-.099-.538-.194-.808-.29a66.994 66.994 0 00-3.776-1.211c-.358-.103-.719-.2-1.079-.295-.275-.072-.551-.145-.827-.213-.364-.09-.729-.173-1.095-.254-.275-.062-.55-.123-.826-.179-.37-.076-.741-.143-1.112-.209-.274-.049-.549-.1-.825-.143-.38-.061-.762-.109-1.145-.159-.269-.035-.535-.073-.805-.103-.399-.044-.801-.074-1.203-.105-.254-.02-.508-.045-.764-.06-.434-.025-.869-.034-1.305-.044-.228-.005-.453-.018-.682-.018a34.559 34.559 0 00-1.98.048c-11.796.638-21.938 6.992-30.886 12.599-6.847 4.29-13.312 8.342-18.944 8.98-.398.045-.805.076-1.217.097-.114.006-.231.006-.346.009-.257.009-.511.021-.771.021l-.089-.004a27.5 27.5 0 01-2.083-.095l-.397-.032a36.773 36.773 0 01-2.13-.261l-.412-.066c-.45-.072-.903-.152-1.36-.239l.004-.01c-.296-.057-.586-.101-.885-.162l-.281-.062a68.494 68.494 0 01-2.297-.531l-.185-.045c-.796-.201-1.6-.419-2.406-.646l-.396-.111c-.784-.223-1.571-.456-2.361-.695l-.438-.134c-.792-.243-1.585-.49-2.378-.742l-.414-.132c-.8-.255-1.6-.512-2.396-.768-.569-.184-1.14-.367-1.711-.55l-.599-.191-1.23-.39-.682-.215c-.401-.125-.803-.249-1.204-.372-.214-.065-.427-.132-.641-.196a165.48 165.48 0 00-1.749-.521l-.183-.053a166.35 166.35 0 00-1.672-.471c-.198-.054-.396-.106-.596-.159-.413-.111-.826-.22-1.24-.325-.22-.057-.44-.111-.661-.166a78.796 78.796 0 00-1.255-.299c-.196-.046-.394-.093-.591-.137a72.711 72.711 0 00-1.82-.384l-.122-.022a67.35 67.35 0 00-1.7-.305c-.195-.032-.391-.061-.586-.091a53.976 53.976 0 00-1.913-.264 50.72 50.72 0 00-1.277-.134c-.19-.018-.382-.038-.573-.053a43.04 43.04 0 00-1.827-.112l-.141-.003c-.48-.017-.96-.028-1.44-.028l-.244.005c-.197.001-.395.009-.592.013a35.5 35.5 0 00-1.911.089c-.424.031-.848.072-1.271.119-.192.021-.386.039-.578.063-.61.078-1.22.168-1.829.28-.315.059-.619.14-.932.203-18.252 3.697-32.044 15.985-44.226 26.865a702.856 702.856 0 01-3.804 3.382c-4.144 3.65-4.544 9.97-.894 14.114a9.98 9.98 0 007.508 3.39 9.96 9.96 0 006.606-2.496 778.058 778.058 0 003.906-3.473c10.941-9.772 22.255-19.878 35.467-22.317a13.83 13.83 0 011.256-.166c.138-.013.279-.019.419-.027.3-.02.604-.033.915-.037l.236-.01.195.009c.582.006 1.177.032 1.791.086.097.008.197.021.295.03.596.059 1.203.136 1.824.232l.228.033c.658.106 1.333.237 2.017.382.143.029.285.06.43.091a68.02 68.02 0 012.06.487l.394.103c.688.179 1.383.367 2.089.568l.168.047c.746.214 1.504.441 2.268.674l.473.145c.737.228 1.481.461 2.231.699.187.06.376.119.563.18.737.235 1.479.474 2.225.714l1.732.557.618.197c.393.125.784.25 1.178.374l.746.234a339.972 339.972 0 001.848.569c.36.109.721.218 1.082.325l.757.224 1.155.33c.226.063.451.128.677.19.597.165 1.194.326 1.794.481l.193.048a97.53 97.53 0 001.656.41c.211.05.424.097.635.145a72.562 72.562 0 001.938.42 73.698 73.698 0 001.889.358c.38.066.76.128 1.141.188.245.038.491.077.736.112.414.06.829.111 1.244.162.209.025.419.055.629.077.62.068 1.241.128 1.863.174l.217.012c.553.038 1.105.068 1.659.087.219.008.438.009.657.013.39.008.78.013 1.17.011a46.57 46.57 0 001.493-.04c.238-.01.476-.014.715-.027a39.238 39.238 0 002.205-.185c10.145-1.152 18.869-6.619 27.307-11.905 7.564-4.74 14.71-9.218 21.347-9.576.256-.014.515-.021.776-.021l.192.007c.175.002.352.011.528.019.204.009.409.019.617.035.18.015.362.034.545.055.209.022.419.047.631.076a26.446 26.446 0 013.033.62c.224.059.447.12.673.184.199.057.399.114.601.175.229.069.459.141.689.215.203.064.406.13.61.198.233.078.468.16.703.242.206.073.412.146.619.221.238.087.479.178.719.269.208.079.416.157.625.239a103.416 103.416 0 011.363.546c.252.104.506.211.76.318.207.087.412.173.62.262.264.113.529.23.795.347l.604.265c.282.125.566.253.85.381l.559.251c.315.144.634.29.951.437l.476.219 1.108.515.333.155c.48.225.964.45 1.448.678 6.733 3.155 13.63 6.379 20.935 8.001l-20.257-29.663-.168-.073zm236.342 37.418c-.986-.872-2.013-1.793-3.079-2.748-11.408-10.226-27.033-24.229-45.898-27.715a33.81 33.81 0 00-1.829-.28c-.193-.024-.387-.043-.58-.063a34.355 34.355 0 00-3.187-.208c-.195-.005-.391-.011-.586-.013a42.148 42.148 0 00-1.705.024l-.119.002c-.61.023-1.222.063-1.833.112-.187.016-.373.035-.56.052a51.821 51.821 0 00-1.93.216c-.428.056-.855.118-1.283.185-.189.029-.379.057-.568.089-.581.096-1.161.199-1.741.312l-.082.016c-.611.119-1.222.25-1.832.386-.189.042-.378.087-.566.131-.428.099-.854.2-1.281.306-.214.053-.429.106-.643.161a94.54 94.54 0 00-1.268.332l-.568.152c-.588.161-1.175.326-1.762.496l-.04.012c-.607.176-1.214.357-1.82.541l-.606.186a293.178 293.178 0 00-1.9.592l-1.263.4-.562.179-1.725.555c-.804.259-1.609.518-2.416.774l-.386.123c-.798.254-1.595.503-2.392.747l-.427.13c-.793.241-1.584.476-2.371.699l-.379.106c-.812.229-1.622.448-2.424.65l-.156.038c-.783.196-1.561.376-2.329.54l-.262.058c-.763.159-1.514.295-2.256.415l-.395.063c-.727.109-1.441.197-2.144.263-.128.012-.255.021-.382.031-.712.057-1.414.093-2.098.095l-.08.004c-.243 0-.48-.012-.719-.019-.138-.005-.278-.004-.415-.011a19.74 19.74 0 01-1.21-.098c-5.629-.639-12.095-4.69-18.94-8.979-5.469-3.427-11.387-7.127-17.853-9.637l22.742 33.293a40.843 40.843 0 011.627 2.588c3.249 1.267 6.62 2.205 10.168 2.608.736.084 1.471.142 2.203.185.24.014.479.018.72.027.496.02.992.037 1.487.04.392.002.782-.003 1.174-.011.218-.005.437-.005.653-.013a48.339 48.339 0 001.661-.087l.216-.013a48.305 48.305 0 001.86-.173c.216-.023.431-.053.646-.079.408-.05.816-.101 1.225-.159.251-.036.501-.076.751-.115a62.41 62.41 0 003.003-.542c.251-.051.503-.101.753-.154.39-.084.779-.172 1.168-.261l.678-.154c.513-.122 1.025-.25 1.536-.38l.474-.122c.539-.141 1.078-.284 1.616-.434.236-.064.473-.133.708-.199.375-.106.75-.213 1.124-.321l.781-.23c.352-.104.702-.21 1.053-.316l.794-.242 1.05-.326.769-.241 1.168-.371.622-.198 1.732-.557c.739-.238 1.473-.474 2.204-.707.198-.063.397-.128.596-.19a247.922 247.922 0 012.705-.842c.758-.231 1.512-.457 2.253-.67l.175-.049c.702-.2 1.395-.388 2.079-.565.133-.035.268-.071.4-.104.698-.178 1.385-.34 2.061-.488l.423-.09a45.138 45.138 0 012.024-.383l.213-.031a30.962 30.962 0 011.846-.234c.093-.009.188-.021.279-.029a23.4 23.4 0 011.803-.086l.188-.009.229.009c.317.004.629.018.936.038.134.009.27.015.401.026.431.04.854.092 1.261.167 13.336 2.463 26.541 14.299 36.183 22.94 1.102.987 2.162 1.938 3.182 2.839.249.22.506.423.77.613.09.065.184.121.274.183.177.119.353.237.535.345.112.064.227.121.341.182.167.09.334.179.504.258.123.057.248.106.373.158.166.068.332.137.501.196.13.046.261.085.392.125a9.25 9.25 0 001.416.326 9.68 9.68 0 00.923.096c.138.009.276.017.414.019.148.003.297-.002.446-.006a8.842 8.842 0 001.003-.077 9.139 9.139 0 00.99-.176 10.523 10.523 0 00.97-.275c.183-.062.363-.133.543-.206.133-.054.267-.106.397-.167.18-.082.355-.175.53-.269.126-.066.252-.13.375-.202.179-.105.352-.223.524-.34.111-.076.227-.146.336-.228.186-.137.363-.288.54-.439l.269-.225c.26-.237.511-.489.749-.759 3.659-4.142 3.27-10.461-.868-14.119zm-134.598 5.006l-18.73-27.42-12.831-18.784-.003-.004-11.794-17.265-22.198-32.497a20.026 20.026 0 00-4.996-5.032l-99.001-69.321c-9.049-6.337-21.519-4.136-27.854 4.911-6.336 9.048-4.137 21.52 4.911 27.854l96.05 67.255 8.203 12.012 18.144 26.569 12.125 17.755 11.666 17.083 13.374 19.585c3.881 5.629 10.13 8.652 16.485 8.652a19.91 19.91 0 0011.333-3.535c7.137-4.918 10.06-13.642 7.97-21.567a19.974 19.974 0 00-2.854-6.251z"/></svg>