<svg xmlns="http://www.w3.org/2000/svg" width="1000pt" height="1000pt" viewBox="0 0 1000 1000"><path d="M500 750c172.563 0 312.5-139.938 312.5-312.5C812.5 264.906 672.562 125 500 125c-172.594 0-312.5 139.906-312.5 312.5C187.5 610.063 327.406 750 500 750zM234.375 437.5c0-7.895.348-15.71 1.023-23.43h122.637c-4.926-55.87-27.07-106.86-61.226-147.48a268.222 268.222 0 0133.304-33.137c42.45 49.2 69.684 111.793 74.82 180.617h71.626V172.898a268.934 268.934 0 0146.878 0V414.07h71.625c5.137-68.824 32.372-131.418 74.825-180.617a268.523 268.523 0 0133.304 33.14c-34.14 40.618-56.289 91.606-61.207 147.477h122.614a268.62 268.62 0 010 46.88H641.984c4.918 55.863 27.063 106.847 61.2 147.464a268.127 268.127 0 01-33.297 33.133c-42.453-49.2-69.688-111.793-74.824-180.617h-71.625v241.172a268.956 268.956 0 01-46.88 0V460.93h-71.624c-5.137 68.824-32.372 131.418-74.82 180.617a267.593 267.593 0 01-33.298-33.133c34.153-40.617 56.293-91.601 61.22-147.465H235.397a269.136 269.136 0 01-1.023-23.449zm696.09 442.727c-2.055-1.817-4.195-3.739-6.414-5.727-23.766-21.305-56.32-50.477-95.621-57.738-22.137-4.09-44.602 3.152-66.328 10.144-17.047 5.489-34.664 11.16-48.418 9.606-11.727-1.332-25.196-9.774-39.457-18.707-18.641-11.684-39.77-24.922-64.344-26.25-22.965-1.25-44.117 8.675-64.578 18.265-16.426 7.7-31.942 14.973-45.301 14.973-13.363 0-28.875-7.273-45.3-14.973-20.462-9.59-41.614-19.515-64.575-18.265-24.578 1.328-45.707 14.566-64.352 26.25-14.261 8.933-27.734 17.375-39.46 18.707-13.747 1.547-31.376-4.117-48.419-9.606-21.73-6.992-44.195-14.23-66.332-10.144-39.004 7.203-68.265 33.34-94.078 56.394a1374.824 1374.824 0 01-7.922 7.043c-8.636 7.606-9.468 20.774-1.863 29.406a20.788 20.788 0 0015.64 7.063c4.891 0 9.805-1.715 13.762-5.203 2.688-2.367 5.399-4.785 8.133-7.23 22.797-20.364 46.371-41.415 73.895-46.497 11.804-2.187 28.41 3.168 45.988 8.832 21.25 6.84 43.227 13.914 65.895 11.344 21.132-2.402 39.308-13.789 56.882-24.805 15.762-9.875 30.649-19.203 44.48-19.949 12.474-.664 28.114 6.64 44.642 14.387 19.832 9.297 40.34 18.91 62.984 18.91 22.64 0 43.148-9.613 62.984-18.91 16.524-7.746 32.117-15.05 44.645-14.387 13.824.746 28.707 10.074 44.469 19.95 17.578 11.011 35.753 22.402 56.886 24.804 22.668 2.566 44.64-4.504 65.887-11.348 17.586-5.664 34.2-11.02 45.988-8.832 27.782 5.133 55.293 29.79 75.38 47.793 2.296 2.055 4.503 4.04 6.628 5.914 8.621 7.618 21.785 6.809 29.406-1.808 7.618-8.621 6.805-21.785-1.812-29.406zm0 0"/></svg>