<svg xmlns="http://www.w3.org/2000/svg" viewBox="0 0 480 480"><path d="M380.102 137.738c18.484 1.457 33.795-13.853 32.338-32.337-1.146-14.542-12.927-26.323-27.468-27.471-18.486-1.458-33.798 13.854-32.34 32.339 1.147 14.543 12.929 26.323 27.47 27.469zm-168.961 57.573c18.965 13.544 42.553 9.359 55.872-9.663 12.704-18.142 8.462-42.759-9.612-55.56-18.937-13.413-42.634-9.3-55.918 9.672-12.711 18.149-8.374 42.673 9.658 55.551zm-92.796 8.048l71.528 50.085-.044 106.751a19.997 19.997 0 005.854 14.146 19.896 19.896 0 001.644 1.46c9.838-3.261 17.181-8.18 25.987-14.082 15.329-10.275 33.967-22.758 66.513-27.014l.002-76.357 48.156-4.741a20.006 20.006 0 008.608-2.923l53.396-33.23c9.209-5.73 12.595-17.772 7.192-27.178-5.67-9.873-18.34-12.997-27.92-7.036l-49.841 31.018-60.568 5.963h-56.689L150 176.693v-58.557c0-10.845-8.434-20.081-19.271-20.467-11.378-.403-20.729 8.7-20.729 19.988v71.325c0 .435.025.871.098 1.3a19.997 19.997 0 008.247 13.077zm331.597 191.969c-.626-5.216-5.39-8.987-10.637-8.732-30.257 1.469-45.635-6.74-61.912-15.43-17.159-9.159-36.609-19.541-72.541-17.74-5.391.271-10.378.78-15.027 1.481-26.345 3.975-41.644 14.22-55.376 23.426-.937.628-1.87 1.253-2.805 1.875-14.393 9.582-28.936 18.249-57.5 19.682-30.418 1.524-45.833-6.705-62.154-15.418-17.094-9.124-36.459-19.462-72.128-17.76-5.344.255-9.822 4.504-9.877 9.854-.059 5.793 4.763 10.357 10.464 10.071 30.418-1.524 45.834 6.705 62.154 15.418 17.159 9.159 36.608 19.541 72.538 17.74 35.933-1.802 54.247-14.077 70.403-24.907 8.151-5.464 16.063-10.766 26.235-14.77a89.149 89.149 0 018.411-2.826c7.209-2.038 15.553-3.454 25.658-3.961 30.42-1.525 45.837 6.704 62.159 15.417 17.159 9.16 36.607 19.542 72.54 17.74 5.733-.287 10.091-5.363 9.395-11.16z"/></svg>