<svg xmlns="http://www.w3.org/2000/svg" width="1000pt" height="1000pt" viewBox="0 0 1000 1000"><path d="M915.73 805.383c-63.37 3.176-95.488-13.969-129.492-32.121-35.75-19.082-76.27-40.711-151.129-36.957-74.859 3.754-113.011 29.328-146.672 51.886-32.019 21.461-62.261 41.735-125.636 44.91-63.371 3.176-95.485-13.964-129.485-32.117-35.75-19.082-76.265-40.714-151.125-36.96-11.449.574-20.27 10.324-19.695 21.773.574 11.453 10.324 20.27 21.774 19.695 63.37-3.176 95.488 13.969 129.492 32.121 35.746 19.082 76.261 40.711 151.12 36.961 74.856-3.754 113.013-29.328 146.669-51.89 32.02-21.461 62.265-41.73 125.64-44.91 63.371-3.176 95.489 13.964 129.493 32.117 35.75 19.082 76.265 40.714 151.125 36.96 11.453-.574 20.27-10.324 19.699-21.773-.578-11.453-10.328-20.27-21.778-19.695zM98.93 721.93c71.5 0 114.8 21.445 149.324 39.8l.285.153c1.48.785 2.945 1.57 4.395 2.344.195.101.386.203.582.308 1.351.723 2.695 1.438 4.03 2.145l.77.41c1.641.87 3.266 1.73 4.887 2.57l.2.106a385.64 385.64 0 005.027 2.582l.043.02c6.765 3.421 13.46 6.542 20.48 9.237l.016.004c1.734.664 3.484 1.305 5.261 1.914l.067.028.07.023c.836.285 1.68.567 2.528.84l.296.098c.84.265 1.692.531 2.543.785l.325.101c.843.25 1.699.497 2.554.735l.371.105c.832.227 1.672.45 2.52.664l.476.125c.825.211 1.665.41 2.508.61l.528.125c.828.191 1.668.37 2.511.547.203.046.399.09.602.132.824.168 1.664.329 2.508.489l.672.129c.816.148 1.644.293 2.476.43.262.042.52.09.79.132.804.129 1.624.25 2.445.371.3.043.59.09.894.13.805.112 1.625.214 2.45.316.324.042.648.085.972.125.812.097 1.637.18 2.46.265.352.035.7.074 1.056.113.824.079 1.66.145 2.5.215.37.032.734.067 1.105.094.871.066 1.758.121 2.645.176.355.023.699.05 1.062.066.93.055 1.883.094 2.832.137.328.012.649.031.98.043 1.149.039 2.317.07 3.5.094l.415.011c1.336.024 2.687.04 4.062.04a261.4 261.4 0 0012.77-.329c2.21-.113 4.355-.254 6.464-.41.477-.035.95-.066 1.418-.105 2.086-.168 4.13-.344 6.118-.555l.207-.023c1.941-.204 3.824-.434 5.675-.68.38-.047.762-.098 1.137-.149a224.52 224.52 0 005.598-.843l.2-.04c1.784-.3 3.526-.624 5.237-.968.254-.047.512-.098.762-.149 1.781-.363 3.52-.742 5.223-1.148l.093-.023c1.692-.407 3.344-.832 4.97-1.278l.425-.117c1.664-.46 3.293-.945 4.89-1.445l.083-.028c1.25-.394 2.472-.804 3.687-1.222l.477-.168c1.133-.399 2.25-.805 3.355-1.223l.344-.129a144.502 144.502 0 0010.648-4.574l.356-.168c1.027-.496 2.047-1 3.062-1.512l.352-.176c3.36-1.714 6.64-3.527 9.894-5.44l.344-.204c.957-.566 1.914-1.14 2.867-1.719l.457-.277a374.785 374.785 0 003.02-1.871l.129-.082a397.08 397.08 0 006.555-4.211l.43-.281c.945-.622 1.89-1.247 2.847-1.88l.558-.37c1.004-.665 2.012-1.34 3.032-2.02l.172-.117c1.14-.762 2.28-1.528 3.437-2.301 36.27-24.309 81.402-54.562 167.79-58.894 6.359-.32 12.69-.481 18.82-.481 74.777 0 118.71 23.453 154.011 42.297 5.192 2.77 10.188 5.433 15.14 7.941l.036.02a333.47 333.47 0 004.887 2.426l.086.043a273 273 0 004.863 2.296l.113.051c1.625.742 3.258 1.469 4.903 2.168l.097.043c1.653.707 3.32 1.387 5.004 2.047l.055.02c.988.386 1.984.761 2.988 1.132.445.164.895.317 1.344.477.558.2 1.113.402 1.676.594.55.191 1.109.375 1.668.558.464.153.925.313 1.394.461.61.2 1.23.387 1.848.574.422.13.84.258 1.27.387.648.192 1.304.38 1.964.563.402.117.805.23 1.211.34.688.187 1.383.367 2.082.546.383.098.762.196 1.145.29.734.183 1.468.355 2.214.527l1.086.246c.774.172 1.559.34 2.348.5.332.066.664.133 1 .203.832.16 1.676.324 2.527.477.286.05.575.101.864.148.906.156 1.816.313 2.742.457.226.035.457.066.68.102a167 167 0 003.035.43l.328.042c1.672.215 3.387.403 5.125.574.676.067 1.367.122 2.055.18a164.805 164.805 0 005.84.41c.96.055 1.933.098 2.913.137.973.04 1.95.078 2.942.106l.441.015h.606c1.484.031 2.965.067 4.504.067 1.632 0 3.316-.036 5-.067h31.64l-.011-12.773c.02-.477.02-.953 0-1.43v-.191h-.012c-.309-6.668-3.895-13.188-11.453-16.559-217.883-97.523-480.832-155.469-764.543-157.543v-.027h-2.633c-1.02-.008-2.04-.032-3.063-.035l-.32.03-76.309-.027c-9.207 0-16.671 7.461-16.671 16.668v133.704a62.518 62.518 0 0117.601-3.438c6.348-.324 12.68-.484 18.813-.484zm261.957-225.965a5.988 5.988 0 004.093 4.637l252.711 79.421a5.98 5.98 0 007.414-3.66l27.512-75.66a5.973 5.973 0 00.348-2.441l-7.88-117.645a5.913 5.913 0 00-.245-1.36c-19.508-64.495-79.39-111.456-150.254-111.456h-5.98c-80.333 0-137.415 62.734-141.493 141.883-.289 5.57.133 11.148 1.133 16.632zM473.66 379.922h150.57a5.98 5.98 0 015.965 5.566l7.043 101.946c.282 4.062-3.496 7.21-7.441 6.207l-144.7-36.786a14.96 14.96 0 01-10.109-9.75l-15.922-48.992c-2.074-9.336 5.032-18.191 14.594-18.191zm0 0"/></svg>