<svg xmlns="http://www.w3.org/2000/svg" viewBox="0 0 480 480"><path d="M439.551 386.583c-30.419 1.525-45.835-6.704-62.157-15.417-17.159-9.159-36.609-19.542-72.541-17.74-35.933 1.802-54.246 14.077-70.403 24.906-15.369 10.302-29.886 20.032-60.305 21.557-30.418 1.525-45.833-6.704-62.154-15.417-17.159-9.159-36.607-19.542-72.539-17.74-5.496.275-9.729 4.955-9.453 10.451.275 5.497 4.955 9.729 10.451 9.454 30.418-1.525 45.834 6.704 62.155 15.417 17.159 9.16 36.607 19.542 72.538 17.741 35.932-1.802 54.246-14.077 70.402-24.907 15.369-10.302 29.886-20.031 60.306-21.557 30.419-1.525 45.836 6.704 62.158 15.417 17.159 9.159 36.607 19.542 72.54 17.74 5.496-.275 9.729-4.955 9.454-10.451-.277-5.497-4.956-9.729-10.452-9.454zM47.487 346.526c34.32 0 55.104 10.294 71.674 19.104l.138.074c.71.377 1.414.753 2.109 1.124l.279.148c.65.348 1.295.691 1.935 1.031l.369.196c.788.418 1.569.83 2.346 1.234l.096.051c.809.421 1.612.835 2.414 1.239l.02.01c3.247 1.641 6.461 3.139 9.83 4.433l.008.003c.832.319 1.673.626 2.525.919l.033.012.033.011c.401.138.807.272 1.214.403l.142.047c.403.129.811.255 1.22.378l.157.048c.404.121.814.238 1.226.353l.177.05c.399.11.803.216 1.209.32l.229.059c.397.101.8.197 1.205.292l.253.06c.397.092.801.179 1.206.264l.288.062c.396.082.799.159 1.203.235l.323.062c.392.072.79.14 1.189.206.126.021.25.044.378.064.387.062.78.12 1.175.178.144.021.283.043.428.063.387.054.781.103 1.176.151.156.02.311.041.468.06.389.046.784.086 1.181.127.169.018.335.037.506.054.395.038.797.071 1.199.104.178.015.353.031.532.045.417.032.843.058 1.268.084.171.011.337.024.51.033.447.025.904.045 1.361.064.157.006.311.016.469.021.552.02 1.113.034 1.681.046l.198.005c.642.012 1.291.019 1.951.019a124.29 124.29 0 009.232-.354c.228-.017.455-.033.681-.052 1-.079 1.982-.165 2.935-.265l.101-.011c.931-.099 1.834-.209 2.723-.326l.547-.073a98.18 98.18 0 002.686-.405l.095-.017a86.5 86.5 0 002.516-.465l.365-.072a77.1 77.1 0 002.506-.552l.045-.011a73.341 73.341 0 002.386-.613l.204-.056a73.155 73.155 0 002.347-.694l.039-.013c.6-.189 1.188-.386 1.77-.587l.23-.081a64.7 64.7 0 001.61-.587l.165-.062a69.22 69.22 0 005.112-2.194l.171-.082a83.4 83.4 0 001.469-.725l.169-.085a90.491 90.491 0 004.749-2.611l.165-.098c.46-.271.919-.547 1.377-.825l.218-.133c.483-.296.967-.595 1.451-.898l.062-.039a205.06 205.06 0 003.145-2.021l.207-.136c.453-.298.908-.598 1.366-.902l.269-.178c.481-.319.966-.643 1.454-.969l.084-.057c.546-.364 1.094-.732 1.65-1.104 17.408-11.668 39.072-26.189 80.537-28.269a181.34 181.34 0 019.034-.23c35.893 0 56.981 11.257 73.927 20.302 2.491 1.33 4.889 2.608 7.266 3.812l.018.009c.783.396 1.564.785 2.346 1.164l.041.021c.777.377 1.555.744 2.334 1.103l.054.024c.78.357 1.564.705 2.354 1.041l.046.02a84.43 84.43 0 002.402.982l.026.01c.475.186.953.366 1.435.543.213.079.43.153.645.23.268.096.534.192.804.285.265.091.533.179.8.268.224.073.445.149.67.221.293.095.59.185.887.275.203.062.404.125.609.186.312.093.627.182.943.271a55.245 55.245 0 001.581.425l.55.139c.352.087.705.171 1.062.253.173.039.347.079.521.117a62.278 62.278 0 001.607.338 79.538 79.538 0 001.628.301c.436.075.873.149 1.317.218.108.018.218.033.326.049.48.072.965.143 1.457.207l.157.02c.803.104 1.626.194 2.461.276.324.032.656.058.985.086a82.219 82.219 0 004.202.262c.468.019.935.038 1.413.051l.211.007h.29c.714.015 1.424.032 2.163.032.784 0 1.591-.016 2.4-.032h15.187l-.005-6.13a9.258 9.258 0 00-.001-.687v-.091l-.005-.001c-.148-3.201-1.87-6.33-5.497-7.947-104.585-46.812-230.8-74.626-366.981-75.621v-.014h-1.264c-.49-.003-.979-.014-1.47-.016l-.153.015-36.629-.013a8.001 8.001 0 00-8.003 8v64.178a30.086 30.086 0 018.45-1.651c3.046-.154 6.086-.232 9.03-.232zm125.739-108.463a2.871 2.871 0 001.964 2.226l121.302 38.123a2.87 2.87 0 003.558-1.757l13.206-36.317c.137-.375.193-.774.167-1.173l-3.781-56.469a2.956 2.956 0 00-.118-.653c-9.365-30.957-38.109-53.498-72.123-53.498h-2.87c-38.56 0-65.959 30.112-67.917 68.104-.138 2.672.065 5.35.544 7.982l6.068 33.432zm54.131-55.7h72.273a2.868 2.868 0 012.863 2.672l3.381 48.934a2.87 2.87 0 01-3.571 2.979l-69.457-17.657a7.179 7.179 0 01-4.852-4.681l-7.643-23.516c-.995-4.48 2.415-8.731 7.006-8.731z"/></svg>