<svg xmlns="http://www.w3.org/2000/svg" viewBox="0 0 480 480"><path d="M331.88 147.002c21.019-7.65 31.855-30.891 24.206-51.91-7.65-21.019-30.892-31.855-51.91-24.205s-31.855 30.891-24.205 51.909c7.649 21.018 30.89 31.855 51.909 24.206zm109.01 78.854c-5.667-15.569-22.883-23.597-38.452-17.93s-23.597 22.882-17.93 38.451 22.882 23.597 38.451 17.931c15.569-5.666 23.597-22.882 17.931-38.452zm-69.891-6.656l-56.132-39.304-.085-.054-47.928-33.56c-9.049-6.335-21.52-4.136-27.854 4.912l-69.403 99.117c-6.336 9.048-4.137 21.519 4.911 27.854l15.688 10.984c9.137 6.397 18.196 12.457 24.731 21.695 5.529 7.815 9.204 16.897 10.705 26.351 1.505 9.469.819 19.258-2.033 28.413a62.454 62.454 0 01-8.463 17.206c-9.574 13.673-23.899 22.799-40.337 25.697-16.438 2.897-33.021-.778-46.692-10.352-13.673-9.574-22.799-23.899-25.697-40.337s.778-33.02 10.352-46.692c5.891-8.412 13.465-15.039 22.515-19.699 9.82-5.057 13.683-17.116 8.626-26.937-5.055-9.819-17.115-13.682-26.937-8.626-14.671 7.554-27.454 18.729-36.97 32.318-15.702 22.425-21.732 49.622-16.979 76.582 4.754 26.959 19.722 50.454 42.146 66.156 17.425 12.201 37.73 18.562 58.567 18.562 5.979 0 12.004-.524 18.015-1.584 26.959-4.754 50.454-19.722 66.156-42.146 21.815-31.156 23.832-70.347 8.709-102.526l54.172-77.366 48.596 34.027c5.159 3.612 11.429 4.44 17.042 2.815a44.752 44.752 0 01-6.008-11.201c-3.848-10.571-3.625-21.956.587-32.305z"/></svg>