<svg xmlns="http://www.w3.org/2000/svg" width="1000pt" height="1000pt" viewBox="0 0 1000 1000"><path d="M691.418 306.254c43.789-15.938 66.363-64.356 50.43-108.145-15.938-43.789-64.36-66.367-108.149-50.43-43.785 15.938-66.363 64.36-50.426 108.145 15.934 43.79 64.356 66.367 108.145 50.43zM918.52 470.535c-11.805-32.437-47.672-49.164-80.106-37.355-32.437 11.804-49.16 47.672-37.355 80.105 11.804 32.438 47.671 49.16 80.105 37.356 32.438-11.805 49.16-47.668 37.356-80.106zm-145.606-13.867l-116.941-81.883-.176-.113-99.852-69.918c-18.851-13.2-44.832-8.617-58.027 10.234L353.328 521.48c-13.2 18.852-8.621 44.832 10.23 58.032 10.895 7.625 21.79 15.254 32.684 22.883 19.035 13.328 37.906 25.953 51.524 45.195 11.52 16.281 19.175 35.203 22.3 54.898 3.137 19.727 1.707 40.121-4.234 59.196-3.98 12.77-9.96 24.89-17.633 35.843-19.945 28.489-49.789 47.5-84.035 53.54-34.246 6.035-68.793-1.622-97.273-21.57-28.489-19.946-47.5-49.79-53.536-84.036-6.039-34.246 1.622-68.79 21.567-97.274 12.273-17.523 28.05-31.332 46.906-41.039 20.457-10.535 28.504-35.66 17.969-56.12-10.531-20.454-35.656-28.505-56.117-17.97-30.567 15.739-57.196 39.02-77.02 67.329-32.715 46.718-45.277 103.379-35.375 159.547 9.906 56.164 41.086 105.113 87.805 137.824 36.3 25.418 78.605 38.672 122.015 38.672 12.454 0 25.008-1.094 37.532-3.301 56.164-9.902 105.11-41.086 137.824-87.805 45.45-64.906 49.648-146.554 18.144-213.594l112.856-161.18 101.242 70.891c10.75 7.524 23.813 9.25 35.504 5.864a93.256 93.256 0 01-12.516-23.336c-8.015-22.024-7.55-45.742 1.223-67.301zm0 0"/></svg>