<svg xmlns="http://www.w3.org/2000/svg" width="1000pt" height="1000pt" viewBox="0 0 1000 1000"><path d="M500 708.332c172.5 0 312.5-140 312.5-312.5 0-172.656-140-312.5-312.5-312.5-172.656 0-312.5 139.844-312.5 312.5 0 172.5 139.844 312.5 312.5 312.5zm89.063-198.437l-.157-.313-.468-.625c-14.063-22.031-31.25-41.562-50.782-58.902-1.25-1.094-2.656-2.344-3.906-3.438-3.438-3.125-6.875-6.094-10.469-8.906a137.926 137.926 0 00-7.812-5.469c-1.09-.781-2.188-1.406-3.278-2.187-4.379-3.125-9.066-6.094-13.754-8.907-2.968 1.72-6.25 3.125-9.53 4.532-1.872.78-3.75 1.562-5.622 2.5-1.254.625-2.344 1.25-3.598 1.875a57.086 57.086 0 01-4.375 2.187c-.625.313-1.406.469-2.187.781-.629.313-1.254.47-1.875.782-9.063 3.906-18.438 7.187-27.813 10.312-.472.313-1.093.469-1.562.625-.781.313-1.719.625-2.656.938-.313.156-.781.312-1.094.312h-.625c-30.156 9.219-61.563 14.531-93.277 14.531h-1.41c-8.282-.156-16.25-.625-24.22-1.25-.308 0-.78-.156-1.09-.156-.312-.156-.78-.156-1.093-.156-7.187-.625-14.062-1.563-21.094-2.656-.78-.157-1.718-.157-2.656-.313-1.094-.156-2.344-.312-3.594-.469h-.78c-.313 0-.47-.156-.782-.156-1.25-.156-2.5-.469-3.75-.781-.781-.313-1.563-.469-2.344-.625a309.955 309.955 0 01-16.406-3.75c-.625-.156-1.406-.313-2.031-.469-.938-.156-2.036-.312-2.973-.625-.309-.156-.781-.156-1.09-.312-.625-.157-1.094-.313-1.719-.47-2.343-.624-4.687-1.405-7.03-2.187-1.407-.472-2.657-.937-4.063-1.41-.938-.468-2.032-.781-3.125-1.09-1.407-.472-2.813-.937-4.22-1.406-2.812-15.316-4.218-31.097-4.218-47.187v-2.348a373.57 373.57 0 0016.88 6.563c2.968 1.093 6.093 2.03 9.062 2.968 6.718 2.188 13.28 4.219 20 5.782 2.03.468 4.218.937 6.406 1.25 1.25.312 2.656.468 3.906.78 1.25.313 2.344.47 3.594.782 5.156.938 10.469 2.031 15.781 2.656-1.406-12.343-2.344-24.843-2.344-37.5 0-87.031 34.844-168.125 93.907-227.656 30.312-12.187 63.437-18.906 98.125-18.906-90.313 48.437-147.5 142.812-147.5 246.562 0 13.438 1.25 26.41 3.125 39.219h1.562c25.938-1.09 51.563-6.094 76.25-14.371 1.406-.473 2.813-.938 4.219-1.41 4.687-1.406 9.219-2.969 13.75-4.84 2.656-1.094 5.469-2.5 8.125-3.754 1.406-.625 2.812-1.406 4.219-2.031a321.024 321.024 0 0014.53-7.5c0-3.438.47-6.875.782-10.313.156-2.187.469-4.218.625-6.406.156-1.25.156-2.656.156-3.906.157-1.719.157-3.281.313-5 0-.781.156-1.563.312-2.344.153-.781.153-1.406.309-2.031 1.254-9.844 2.969-19.531 5-29.219.156-.469.156-1.09.312-1.562.157-.934.47-2.032.625-2.97 0-.155 0-.468.157-.78.156-.31.312-.47.312-.782 7.188-30.777 18.125-60.465 34.063-87.968l.156-.313.156-.156c.156-.309.313-.469.469-.781a448.281 448.281 0 0113.125-20.157c.312-.468.469-.781.781-1.09.156-.156.469-.472.625-.78 4.063-5.782 8.438-11.411 12.813-16.88.625-.625 1.093-1.406 1.718-2.187.625-.938 1.407-1.875 2.188-2.813l.469-.625c.156-.312.312-.468.468-.625.782-.937 1.563-1.718 2.344-2.5.625-.625 1.254-1.406 1.875-2.031 3.75-4.219 7.5-8.281 11.406-12.344.47-.625 1.094-1.093 1.563-1.718.625-.782 1.406-1.563 2.031-2.188a499.87 499.87 0 002.035-2.035 78.125 78.125 0 015.313-4.84c1.094-.937 2.187-2.035 3.281-2.973.938-.78 1.871-1.714 2.813-2.496.937-.781 2.023-1.718 2.96-2.656 15.782 5.625 30.782 12.656 45.004 21.094-4.687 3.594-9.375 7.344-14.535 10.156-2.031 1.719-4.058 3.594-6.093 5.469l-.938.937c-5.156 4.688-10.156 9.375-14.996 14.375-1.41 1.563-2.817 3.282-4.219 4.844-.781.938-1.719 2.031-2.656 3.125-.938.938-1.719 1.875-2.5 2.813-3.438 4.062-6.875 8.125-10.156 12.343 11.406 4.844 22.812 10.313 33.75 16.719 75.312 43.438 128.125 114.375 150.156 195.156-4.844 33.907-16.094 65.782-32.656 94.375 3.125-102.343-50-199.062-139.844-250.937-11.563-6.563-23.438-12.031-35.469-16.875l-.312.625-.47.937c-12.03 23.125-20.468 47.813-25.624 73.282-.313 1.25-.469 2.656-.781 3.906-.938 4.844-2.032 9.687-2.657 14.687-.312 2.969-.625 6.094-.78 9.063-.157 1.562-.157 2.972-.313 4.535-.47 5.469-.625 10.937-.782 16.406 2.97 1.871 5.782 3.906 8.594 5.938 1.563 1.25 3.281 2.343 5 3.593a41.994 41.994 0 003.438 2.188c1.406.781 2.812 1.719 4.218 2.656.625.469 1.25.938 1.871 1.406.473.47.938.938 1.563 1.407 7.969 5.937 15.473 12.343 22.813 18.906.312.312.625.469.937.781.938.781 1.875 1.563 2.656 2.344l1.25 1.25c22.969 21.719 43.125 46.094 59.063 73.594.156.156.312.468.472.78.157.313.157.47.309.626 4.063 7.031 7.504 14.219 10.938 21.406.156.469.312.781.472 1.25.156.313.309.625.469.938 3.125 6.406 5.781 12.968 8.281 19.53.313.938.781 1.72 1.094 2.657l1.406 3.281c.156.313.156.47.313.782.156.312.156.468.312.78.309 1.095.625 2.032.934 3.126.156.781.472 1.719.781 2.656 1.719 5.313 3.438 10.625 5 16.094.313.781.469 1.562.781 2.344.313.937.625 1.718.782 2.656.312.934.468 1.871.78 2.812.626 2.344 1.095 4.844 1.563 7.344.313 1.406.469 2.653.782 4.059.312 1.094.468 2.344.78 3.437.313 1.407.626 2.657.938 4.063-12.656 10.625-26.254 20.156-40.781 28.437-.625-5.937-1.563-11.875-2.656-17.812-.625-3.125-1.407-6.094-2.032-9.219-1.406-6.719-2.968-13.437-5-20.156-.625-2.188-1.406-4.38-2.187-6.563-.469-1.093-.934-2.187-1.25-3.281l-.938-2.812c-1.875-5.313-3.593-10.625-5.78-15.782-10 7.344-20.313 14.375-31.403 20.782-75.313 43.437-162.973 53.75-243.906 32.5-26.254-20.782-48.594-46.407-65.625-75.625 87.027 53.906 197.343 56.25 287.187 4.375 11.563-6.56 22.188-14.22 32.344-22.184zm315.105 198.437h-25.992c-29.86 0-59.23 9.195-82.922 27.375-42.469 32.578-158.621 55.961-295.254 55.961s-252.785-23.383-295.254-55.961c-23.691-18.18-53.062-27.375-82.926-27.375H95.832c-18.406 0-33.332 14.926-33.332 33.336v162.5c0 18.41 14.926 33.332 33.332 33.332h808.336c18.41 0 33.332-14.922 33.332-33.332v-162.5c0-18.41-14.922-33.336-33.332-33.336zm0 0"/></svg>