<svg xmlns="http://www.w3.org/2000/svg" viewBox="0 0 480 480"><path d="M240 340c82.8 0 150-67.2 150-150 0-82.875-67.2-150-150-150-82.875 0-150 67.125-150 150 0 82.8 67.125 150 150 150zm42.75-95.25l-.075-.15-.225-.3c-6.75-10.575-15-19.95-24.375-28.274-.6-.525-1.275-1.125-1.875-1.65-1.65-1.5-3.3-2.925-5.025-4.275a67.043 67.043 0 00-3.75-2.625c-.524-.375-1.05-.675-1.574-1.05-2.101-1.5-4.351-2.925-6.601-4.274-1.425.824-3 1.5-4.575 2.175-.899.375-1.8.75-2.699 1.2-.601.3-1.125.6-1.726.899-.675.375-1.425.75-2.1 1.05-.3.15-.675.226-1.05.375-.301.15-.601.226-.9.375-4.35 1.875-8.85 3.45-13.35 4.95-.226.15-.525.226-.75.3-.375.15-.825.301-1.275.45-.15.075-.375.15-.525.15h-.3c-14.475 4.425-29.55 6.975-44.774 6.975h-.676c-3.975-.075-7.8-.3-11.625-.6-.149 0-.375-.075-.524-.075-.15-.075-.375-.075-.525-.075-3.45-.3-6.75-.75-10.125-1.274-.375-.075-.825-.075-1.274-.15a102.69 102.69 0 00-1.726-.225h-.375c-.149 0-.225-.075-.375-.075-.6-.075-1.199-.226-1.8-.375-.375-.15-.75-.226-1.125-.3a147.806 147.806 0 01-7.875-1.801c-.3-.074-.675-.149-.975-.225-.45-.075-.976-.15-1.426-.3-.149-.075-.375-.075-.524-.15-.3-.075-.525-.149-.825-.225-1.125-.3-2.25-.675-3.375-1.05-.675-.226-1.274-.45-1.95-.676-.449-.225-.975-.375-1.5-.524l-2.024-.675c-1.351-7.351-2.025-14.926-2.025-22.65V188.5c2.7 1.125 5.4 2.175 8.101 3.15 1.425.524 2.925.975 4.35 1.425 3.225 1.05 6.375 2.024 9.6 2.774.976.226 2.025.45 3.075.601.601.149 1.275.225 1.875.375.601.149 1.125.225 1.726.375 2.475.45 5.024.975 7.574 1.274-.675-5.925-1.125-11.925-1.125-18 0-41.774 16.726-80.699 45.075-109.274 14.55-5.851 30.45-9.075 47.101-9.075-43.351 23.25-70.801 68.55-70.801 118.35 0 6.45.601 12.676 1.5 18.825h.75c12.45-.524 24.75-2.925 36.601-6.899l2.024-.676a69.16 69.16 0 006.601-2.324c1.274-.525 2.625-1.2 3.899-1.801.676-.3 1.351-.675 2.025-.975a154.091 154.091 0 006.975-3.6c0-1.65.226-3.301.375-4.95.075-1.05.226-2.025.301-3.075.074-.6.074-1.275.074-1.875.075-.825.075-1.575.15-2.4 0-.375.075-.75.15-1.125.074-.375.074-.675.149-.975.601-4.725 1.425-9.375 2.4-14.025.075-.225.075-.524.149-.75.075-.449.226-.975.301-1.425 0-.075 0-.225.074-.375.075-.149.15-.225.15-.375 3.45-14.774 8.7-29.024 16.35-42.225l.075-.15.075-.075c.075-.149.15-.225.225-.375a213.83 213.83 0 016.301-9.675c.149-.225.225-.375.375-.524.074-.075.225-.226.3-.375 1.95-2.775 4.05-5.476 6.149-8.101.301-.3.525-.675.825-1.05.3-.45.675-.9 1.05-1.35l.226-.301c.074-.149.149-.225.225-.3.375-.45.75-.825 1.125-1.2.3-.3.601-.675.9-.975 1.8-2.025 3.6-3.975 5.475-5.925.225-.3.525-.525.75-.825.3-.375.675-.75.975-1.05l.976-.976a37.492 37.492 0 012.55-2.324c.525-.45 1.05-.976 1.575-1.426.45-.375.899-.824 1.35-1.199s.972-.824 1.422-1.274a123.452 123.452 0 0121.601 10.125c-2.25 1.725-4.5 3.525-6.976 4.875-.975.825-1.949 1.725-2.925 2.625l-.45.45c-2.475 2.25-4.875 4.5-7.199 6.899-.676.75-1.351 1.575-2.025 2.325-.375.45-.825.976-1.275 1.5-.449.45-.824.9-1.199 1.351-1.65 1.949-3.301 3.899-4.875 5.925 5.475 2.325 10.949 4.95 16.199 8.024 36.15 20.851 61.5 54.9 72.075 93.676a125.706 125.706 0 01-15.675 45.3c1.5-49.125-24-95.55-67.125-120.45-5.55-3.15-11.25-5.775-17.025-8.1l-.149.3-.226.45c-5.774 11.1-9.824 22.949-12.3 35.175-.149.6-.225 1.274-.375 1.875-.45 2.325-.975 4.649-1.274 7.05-.15 1.425-.301 2.925-.375 4.35-.075.75-.075 1.426-.15 2.176-.225 2.625-.3 5.25-.375 7.875 1.425.899 2.775 1.875 4.125 2.85.75.6 1.575 1.125 2.4 1.725.524.375 1.125.75 1.649 1.051.675.375 1.351.824 2.025 1.274l.899.675c.226.226.45.45.75.676 3.825 2.85 7.426 5.925 10.95 9.074.15.15.3.226.45.375.45.375.9.75 1.275 1.125l.3.301.3.3c11.025 10.425 20.7 22.125 28.35 35.325.075.074.15.225.226.375.075.149.075.225.149.3 1.95 3.375 3.601 6.825 5.25 10.274.075.226.15.375.226.601l.225.45c1.5 3.074 2.775 6.225 3.976 9.375.149.449.375.824.524 1.274l.675 1.575c.075.15.075.225.15.375s.075.225.15.375c.149.525.3.975.449 1.5.075.375.226.825.375 1.275.825 2.55 1.65 5.1 2.4 7.725.15.375.225.75.375 1.125.15.45.3.825.375 1.275.15.449.225.899.375 1.35.3 1.125.525 2.325.75 3.525.15.675.225 1.274.375 1.949.15.525.225 1.125.375 1.65.15.675.3 1.275.45 1.95a132.29 132.29 0 01-19.575 13.649c-.3-2.85-.75-5.699-1.275-8.55-.3-1.5-.675-2.925-.975-4.425-.675-3.225-1.425-6.45-2.4-9.675-.3-1.05-.675-2.101-1.05-3.15-.225-.524-.449-1.05-.6-1.575l-.45-1.35c-.9-2.55-1.725-5.1-2.775-7.575-4.8 3.525-9.75 6.9-15.074 9.976-36.15 20.85-78.226 25.8-117.075 15.6a129.513 129.513 0 01-31.5-36.3c41.774 25.875 94.725 27 137.85 2.1 5.551-3.149 10.65-6.825 15.525-10.649l-.151-.151zM434 340h-12.475c-14.333 0-28.432 4.414-39.804 13.139C361.337 368.776 305.584 380 240 380s-121.337-11.224-141.721-26.861C86.907 344.414 72.808 340 58.474 340H46c-8.836 0-16 7.163-16 16v78c0 8.837 7.164 16 16 16h388c8.837 0 16-7.163 16-16v-78c0-8.837-7.163-16-16-16z"/></svg>