<svg xmlns="http://www.w3.org/2000/svg" width="1000pt" height="1000pt" viewBox="0 0 1000 1000"><path d="M936.887 284.61c-4.985-77.91-39.184-142.84-96.297-182.837-57.113-39.988-129.824-49.921-204.742-27.953-73.243 21.473-140.047 71.102-188.11 139.743-48.062 68.64-71.847 148.39-66.976 224.558 2.074 32.406 9.218 62.555 20.945 89.613l-39.734 216.618c-12.086-2.856-25.227 1.675-32.786 12.468l-83.644 119.457c-9.902 14.137-6.465 33.625 7.672 43.524l17.066 11.949c14.137 9.898 33.625 6.465 43.524-7.676l83.644-119.46c7.54-10.766 7.324-24.626.559-35l192.344-109.759c4.847.293 9.726.477 14.64.477 24.957 0 50.754-3.781 76.809-11.422 73.242-21.476 140.05-71.101 188.11-139.742 48.062-68.64 71.847-148.39 66.976-224.559zm-527.16 430.343l24.515-133.644a214.399 214.399 0 0042.817 39.648 214.558 214.558 0 0051.148 26.39zm426.05-229.683c-42.66 60.921-101.504 104.835-165.699 123.656-62.523 18.336-122.586 10.484-169.125-22.102-97.57-68.32-106.133-225.043-19.086-349.363 42.66-60.918 101.508-104.832 165.703-123.656 22.106-6.48 43.899-9.688 64.903-9.688 38.394 0 74.136 10.73 104.218 31.793 46.536 32.586 74.454 86.336 78.61 151.36 4.273 66.761-16.867 137.082-59.524 198zm-559.394 62.148c26.394-37.703 17.234-89.664-20.465-116.063-14.547-10.187-31.219-15.078-47.727-15.078-26.27 0-52.12 12.391-68.336 35.543-26.398 37.703-17.234 89.664 20.465 116.063 14.547 10.187 31.22 15.074 47.727 15.074 26.273 0 52.125-12.387 68.336-35.539zm-34.133-23.902c-7.793 11.129-20.582 17.773-34.203 17.773-8.543 0-16.781-2.61-23.828-7.543-18.82-13.176-23.41-39.207-10.235-58.027 7.793-11.133 20.582-17.774 34.207-17.774 8.54 0 16.782 2.606 23.825 7.54 18.82 13.18 23.41 39.21 10.234 58.03zm0 0"/></svg>