<svg xmlns="http://www.w3.org/2000/svg" viewBox="0 0 480 480"><path d="M449.705 136.612c-2.392-37.396-18.808-68.563-46.222-87.76-27.415-19.196-62.316-23.964-98.276-13.419-35.156 10.308-67.223 34.129-90.293 67.077-23.07 32.947-34.487 71.228-32.148 107.788.995 15.555 4.424 30.027 10.054 43.014l-19.073 103.976c-5.802-1.37-12.109.805-15.737 5.985l-40.15 57.34c-4.752 6.786-3.103 16.14 3.684 20.892l8.191 5.735c6.786 4.752 16.14 3.103 20.891-3.684l40.15-57.341c3.619-5.169 3.516-11.821.267-16.801l92.326-52.683c2.327.141 4.668.228 7.028.228 11.979 0 24.361-1.815 36.868-5.482 35.155-10.308 67.223-34.129 90.292-67.076 23.069-32.948 34.487-71.228 32.148-107.789zM196.669 343.177l11.768-64.149a102.903 102.903 0 0020.551 19.031 102.97 102.97 0 0024.552 12.667l-56.871 32.451zM401.173 232.93c-20.476 29.241-48.722 50.321-79.536 59.355-30.011 8.801-58.841 5.032-81.179-10.609-46.834-32.794-50.944-108.021-9.161-167.694 20.476-29.241 48.723-50.321 79.537-59.355 10.611-3.111 21.071-4.651 31.152-4.651 18.431 0 35.586 5.15 50.025 15.261 22.337 15.641 35.738 41.442 37.734 72.653 2.051 32.045-8.097 65.798-28.572 95.04zm-268.51 29.83c12.671-18.097 8.273-43.039-9.823-55.71a39.817 39.817 0 00-22.908-7.237c-12.609 0-25.019 5.947-32.801 17.061-12.671 18.097-8.273 43.038 9.823 55.709a39.81 39.81 0 0022.908 7.237c12.611-.001 25.02-5.947 32.801-17.06zm-16.383-11.472a20.053 20.053 0 01-16.418 8.531c-4.1 0-8.055-1.252-11.437-3.62-9.034-6.325-11.237-18.821-4.912-27.854a20.051 20.051 0 0116.418-8.532c4.1 0 8.055 1.252 11.437 3.62 9.034 6.326 11.237 18.821 4.912 27.855z"/></svg>