<svg xmlns="http://www.w3.org/2000/svg" viewBox="0 0 480 480"><path d="M240 40C129.543 40 40 129.543 40 240s89.543 200 200 200 200-89.543 200-200S350.457 40 240 40zm169.166 216.99c-.084.84-.182 1.676-.277 2.512-.07.616-.135 1.234-.211 1.85-.068.545-.147 1.086-.221 1.629-.123.914-.246 1.828-.383 2.739-.042.271-.088.542-.131.812-.185 1.187-.379 2.37-.588 3.55l-.008.045c-5.095 28.644-17.438 55.366-36.127 77.97-.133.161-.27.318-.402.479-.705.847-1.413 1.69-2.136 2.525-.771.892-1.554 1.771-2.343 2.647-.101.111-.197.225-.299.336a170.966 170.966 0 01-11.934 11.936c-.256.232-.517.456-.773.686-.729.653-1.458 1.307-2.199 1.947-.98.85-1.973 1.686-2.97 2.511l-.022.019c-25.893 21.423-57.195 34.521-90.601 37.924l-.18.02a176.18 176.18 0 01-3.729.331c-.208.017-.414.037-.622.054-1.113.083-2.23.149-3.348.211-.334.02-.665.045-.999.062-1.056.053-2.115.087-3.175.12-.387.013-.771.033-1.158.043-1.366.034-2.734.051-4.105.052H240c-1.45 0-2.896-.02-4.341-.055-.227-.006-.45-.019-.677-.025a166.115 166.115 0 01-3.677-.14c-.162-.008-.323-.021-.485-.029a166.436 166.436 0 01-3.883-.246l-.067-.006c-40.461-3.07-78.085-20.298-107.078-49.291C87.683 328.1 70 285.408 70 240s17.683-88.1 49.792-120.208c28.993-28.993 66.617-46.221 107.078-49.291l.067-.006c1.291-.098 2.586-.178 3.883-.246.162-.009.323-.021.485-.029 1.223-.062 2.449-.104 3.677-.14.227-.007.45-.02.677-.025C237.104 70.02 238.55 70 240 70h.009l.218.003c1.371.001 2.739.018 4.105.052.387.01.771.03 1.158.043 1.06.033 2.119.067 3.175.12.334.017.665.042.999.062 1.117.062 2.234.128 3.348.211.208.017.414.037.622.054 1.245.099 2.489.206 3.729.331l.18.02c33.405 3.403 64.708 16.501 90.601 37.924l.022.019c.997.825 1.989 1.661 2.97 2.511.741.641 1.471 1.294 2.199 1.947.257.229.518.453.773.686a170.966 170.966 0 0111.934 11.936c.102.111.198.225.299.336a177.86 177.86 0 012.343 2.647c.723.835 1.431 1.679 2.136 2.525.133.16.27.317.402.479 18.688 22.604 31.032 49.326 36.127 77.97l.008.045c.209 1.18.403 2.363.588 3.55.043.271.089.541.131.812.137.911.26 1.825.383 2.739.073.543.152 1.084.221 1.629.076.615.141 1.233.211 1.85.096.836.193 1.672.277 2.512.027.273.047.549.073.823.502 5.322.77 10.713.77 16.167s-.268 10.845-.77 16.167c-.028.271-.047.547-.075.82zM250.802 100.411l-.034-.003c-1.08-.082-2.164-.148-3.25-.206-.115-.006-.229-.016-.345-.021a139.355 139.355 0 00-3.045-.115c-.183-.005-.363-.016-.546-.021a146.681 146.681 0 00-3.578-.045H240l-.225.003c-1.113.002-2.224.015-3.331.042-.339.009-.677.026-1.015.037-.854.027-1.707.055-2.557.098-.285.014-.569.036-.855.052-.907.051-1.814.104-2.717.172-.192.015-.384.034-.575.05-1.006.08-2.011.166-3.011.268l-.189.021c-28.161 2.893-53.849 14.131-74.547 31.202-.128.106-.254.215-.381.321-.7.581-1.396 1.167-2.083 1.761-.778.674-1.551 1.357-2.316 2.051l-.134.117c-.944.857-1.878 1.732-2.803 2.618-.415.396-.822.801-1.232 1.202-.338.332-.681.656-1.016.991-.131.131-.255.268-.385.399-.895.901-1.775 1.816-2.645 2.742-.24.254-.484.506-.723.762a139.9 139.9 0 00-3.253 3.627c-.486.562-.964 1.133-1.44 1.703-.217.258-.437.513-.65.771-14.896 18.07-25.345 39.941-29.68 63.938-.021.117-.045.233-.065.351-.151.854-.289 1.713-.426 2.572-.054.341-.112.681-.164 1.022-.094.62-.176 1.244-.261 1.866-.079.576-.162 1.149-.233 1.727-.045.359-.082.721-.124 1.08-.098.837-.194 1.673-.277 2.512l-.011.125c-.443 4.539-.676 9.141-.676 13.797s.232 9.258.677 13.797l.011.125c.083.839.18 1.675.277 2.512.042.359.079.721.124 1.08.071.577.154 1.15.233 1.727.085.622.167 1.246.261 1.866.052.342.11.682.164 1.022.137.859.274 1.719.426 2.572l.065.351c4.335 23.997 14.784 45.868 29.68 63.938.214.259.434.514.65.771.477.57.954 1.141 1.44 1.703a139.71 139.71 0 003.253 3.627c.238.257.484.508.724.764a145.23 145.23 0 002.642 2.739c.131.132.255.269.387.4.335.335.678.66 1.016.991.41.402.817.806 1.232 1.202.925.886 1.858 1.761 2.803 2.618l.134.117c.766.693 1.538 1.377 2.316 2.051.688.594 1.383 1.18 2.083 1.761.127.106.253.215.381.321 20.698 17.071 46.386 28.31 74.547 31.202l.189.021c1 .102 2.005.188 3.011.268.191.016.383.035.575.05.902.067 1.81.121 2.717.172.286.016.57.038.855.052.85.043 1.703.07 2.557.098.338.011.676.028 1.015.037 1.107.027 2.218.04 3.331.042L240 380h.004c1.197 0 2.389-.016 3.578-.045.183-.005.363-.016.546-.021 1.018-.029 2.033-.064 3.045-.115.115-.006.229-.016.345-.021 1.086-.058 2.17-.124 3.25-.206l.034-.003C323.074 374.074 380 313.686 380 240s-56.926-134.074-129.198-139.589zM148.406 260c-11.046 0-20-8.954-20-20s8.954-20 20-20 20 8.954 20 20-8.954 20-20 20zm40-60c-11.046 0-20-8.954-20-20s8.954-20 20-20 20 8.954 20 20-8.954 20-20 20zm40 60c-11.046 0-20-8.954-20-20s8.954-20 20-20 20 8.954 20 20-8.954 20-20 20z"/></svg>