<svg xmlns="http://www.w3.org/2000/svg" width="1000pt" height="1000pt" viewBox="0 0 1000 1000"><path d="M500 83.332C269.883 83.332 83.332 269.882 83.332 500c0 230.117 186.55 416.668 416.668 416.668 230.117 0 416.668-186.55 416.668-416.668 0-230.117-186.55-416.668-416.668-416.668zm352.43 452.063c-.176 1.75-.38 3.492-.578 5.234-.145 1.285-.282 2.57-.438 3.855-.144 1.133-.309 2.262-.46 3.395-.259 1.902-.513 3.805-.802 5.703-.086.566-.18 1.129-.27 1.691a389.264 389.264 0 01-1.226 7.399l-.015.094c-10.618 59.675-36.332 115.343-75.266 162.437-.277.336-.563.66-.836.996a333.588 333.588 0 01-4.453 5.262 361.784 361.784 0 01-4.879 5.516c-.21.23-.41.468-.625.699a356.312 356.312 0 01-24.86 24.867c-.534.48-1.077.95-1.613 1.43-1.52 1.359-3.035 2.722-4.582 4.054a341.91 341.91 0 01-6.187 5.23l-.043.04c-53.945 44.633-119.156 71.918-188.754 79.008l-.375.043c-2.582.261-5.172.484-7.77.691-.433.035-.859.074-1.293.11-2.32.175-4.648.312-6.976.44-.695.044-1.387.095-2.082.13-2.2.11-4.406.18-6.613.25-.805.027-1.606.07-2.414.09-2.844.07-5.696.105-8.551.109H500c-3.02 0-6.035-.043-9.043-.117-.473-.012-.937-.04-1.41-.051a355.534 355.534 0 01-7.66-.293c-.34-.016-.676-.043-1.012-.059-2.703-.14-5.398-.308-8.09-.511l-.14-.016c-84.293-6.394-162.676-42.285-223.079-102.687C182.672 683.543 145.832 594.602 145.832 500s36.84-183.543 103.734-250.434c60.403-60.402 138.786-96.293 223.079-102.687l.14-.016c2.692-.203 5.387-.37 8.09-.511.336-.02.672-.043 1.012-.059 2.547-.129 5.101-.219 7.66-.293.473-.016.937-.043 1.41-.05 3.008-.075 6.023-.118 9.043-.118h.02l.453.008c2.855 0 5.707.039 8.55.11.809.019 1.61.062 2.414.09 2.208.065 4.415.136 6.614.25.695.034 1.386.085 2.082.128 2.328.129 4.656.266 6.976.437.434.036.864.079 1.293.114 2.594.207 5.188.43 7.77.691l.375.04c69.594 7.09 134.808 34.378 188.754 79.007l.047.04a368.53 368.53 0 016.187 5.233 349.452 349.452 0 014.578 4.055c.535.477 1.082.945 1.614 1.43a355.465 355.465 0 0124.859 24.867c.215.23.414.469.625.7a361.784 361.784 0 014.879 5.515 352.022 352.022 0 014.453 5.258c.277.336.562.66.836 1 38.933 47.09 64.648 102.761 75.266 162.437l.015.094c.438 2.457.84 4.922 1.227 7.394.09.567.183 1.13.273 1.692.285 1.898.54 3.805.797 5.707.152 1.133.316 2.258.461 3.394.156 1.282.293 2.567.437 3.856.2 1.738.403 3.48.579 5.23.054.57.097 1.145.152 1.715a358.225 358.225 0 011.605 33.684c0 11.36-.558 22.594-1.605 33.68-.059.566-.098 1.14-.156 1.707zM522.504 209.19l-.07-.007c-2.25-.172-4.508-.309-6.77-.43-.242-.012-.48-.031-.719-.043a284.12 284.12 0 00-6.343-.238c-.383-.012-.758-.036-1.141-.047a314.782 314.782 0 00-7.453-.094H500l-.469.008c-2.32.004-4.633.031-6.941.086-.703.02-1.41.054-2.113.078-1.778.055-3.555.113-5.329.203-.593.031-1.183.078-1.78.11-1.888.105-3.778.218-5.661.359-.398.031-.797.07-1.195.101-2.098.168-4.192.348-6.274.559l-.394.047c-58.668 6.027-112.184 29.437-155.305 65.004-.27.218-.531.445-.797.668a298.86 298.86 0 00-4.34 3.668 309.177 309.177 0 00-4.824 4.273l-.277.242a283.93 283.93 0 00-5.84 5.457c-.863.825-1.715 1.668-2.566 2.504-.704.692-1.418 1.367-2.118 2.063-.273.273-.53.558-.8.832a292.047 292.047 0 00-5.512 5.71c-.5.532-1.008 1.055-1.508 1.59a296.424 296.424 0 00-6.777 7.555 287.703 287.703 0 00-3 3.547c-.45.54-.91 1.07-1.352 1.61-31.035 37.644-52.805 83.21-61.836 133.203-.043.242-.094.484-.133.73-.316 1.781-.601 3.57-.886 5.36-.114.71-.235 1.417-.344 2.128-.195 1.293-.367 2.59-.543 3.887-.164 1.2-.34 2.395-.484 3.598-.094.75-.172 1.504-.262 2.25a293.524 293.524 0 00-.574 5.234l-.024.262a296.078 296.078 0 00-1.41 28.742c0 9.7.484 19.29 1.41 28.742l.024.262c.175 1.75.375 3.488.578 5.234.086.746.164 1.5.258 2.25.148 1.203.32 2.395.484 3.598.18 1.297.348 2.594.547 3.887.105.71.226 1.422.34 2.129.285 1.789.57 3.582.886 5.359.043.242.094.484.137.73 9.031 49.993 30.8 95.559 61.832 133.204.445.539.906 1.07 1.356 1.609a287.703 287.703 0 003 3.547 288.44 288.44 0 006.777 7.554c.496.536 1.008 1.06 1.508 1.594a303.083 303.083 0 005.504 5.703c.273.278.53.563.804.836.7.696 1.414 1.375 2.118 2.063.855.84 1.703 1.68 2.566 2.504a294.397 294.397 0 005.84 5.457l.281.242a292.274 292.274 0 004.824 4.273 298.86 298.86 0 004.34 3.668c.266.223.527.45.793.668 43.121 35.567 96.637 58.98 155.309 65.004l.39.047c2.086.211 4.18.39 6.274.559.398.03.797.07 1.199.101 1.879.14 3.77.254 5.66.36.594.03 1.188.078 1.781.109 1.77.09 3.547.144 5.328.203.704.024 1.407.059 2.114.078 2.304.055 4.62.082 6.941.086l.465.008h.008c2.496 0 4.976-.035 7.453-.094.383-.011.758-.035 1.14-.047a284.12 284.12 0 006.344-.238c.239-.012.477-.031.72-.043 2.26-.121 4.519-.258 6.769-.43l.07-.007C673.07 779.32 791.668 653.512 791.668 500c0-153.512-118.598-279.32-269.164-290.809zM309.18 541.668c-23.012 0-41.668-18.656-41.668-41.668s18.656-41.668 41.668-41.668c23.011 0 41.668 18.656 41.668 41.668s-18.657 41.668-41.668 41.668zm83.332-125c-23.012 0-41.664-18.656-41.664-41.668s18.652-41.668 41.664-41.668c23.011 0 41.668 18.656 41.668 41.668s-18.657 41.668-41.668 41.668zm83.336 125c-23.016 0-41.668-18.656-41.668-41.668s18.652-41.668 41.668-41.668c23.011 0 41.664 18.656 41.664 41.668s-18.653 41.668-41.664 41.668zm0 0"/></svg>