<svg xmlns="http://www.w3.org/2000/svg" viewBox="0 0 480 480"><path d="M375.835 61.831c-4.522-3.169-10.759-2.067-13.927 2.456L249.622 224.658l-70.526 33.271-.066.036a9.944 9.944 0 00-.603.321l-.221.118-84.388 50.78a10.002 10.002 0 00-3.187 14.081l47.423 71.77.022.031c.062.092.129.18.193.27l.173.247.078.091.129.168c.107.131.223.253.336.379l.15.169.091.103.061.059c.113.114.234.221.354.33.113.104.225.211.342.31l.079.069.08.06.238.178c.116.088.23.178.351.261l.201.134.263.159c.11.068.219.139.333.202.112.062.229.12.344.18l.258.126.241.113c.165.072.334.137.504.2l.227.089.161.053c.181.06.365.11.551.159l.258.075.062.015.008.002 83.57 19.983a9.998 9.998 0 0012.14-7.811l18.858-96.663c.018-.092.024-.185.039-.277.036-.212.07-.424.092-.64l.012-.082 7.141-77.629 112.297-160.39c3.168-4.525 2.068-10.76-2.456-13.927zM113.068 320.943l22.975-13.825.21 48.913-23.185-35.088zm113.435-63.264L195.61 301.8l-1.835-28.683 32.728-15.438zm-70.512 37.435l18.441-11.097 2.815 44.009-20.986 29.973-.27-62.885zm66.227 102.257l-40.725-9.738 45.809-16.322-5.084 26.06zm9.536-48.879l-59.188 21.09 21.078-30.104 42.287-12.397-4.177 21.411zm7.804-43.316l-27.553 8.078 30.865-44.084-3.312 36.006zm173.18 51.905c-12.67-18.095-37.609-22.492-55.704-9.822s-22.492 37.609-9.822 55.704 37.609 22.492 55.704 9.822 22.492-37.609 9.822-55.704z"/></svg>