<svg xmlns="http://www.w3.org/2000/svg" viewBox="0 0 480 480"><path d="M289.794 385.354a22.738 22.738 0 01-12.915-14.158 22.733 22.733 0 011.683-17.676l-2.838-5.61c-3.6-7.116-3.256-15.421.921-22.215 4.178-6.794 11.432-10.85 19.402-10.849.196 0 .394.002.607.008l6.968.185 1.07-1.382c2.772-3.577 6.446-6.182 10.585-7.598a22.705 22.705 0 015.093-13.103 22.69 22.69 0 0117.658-8.389h.108l2.833-4.308A22.72 22.72 0 01360 270c7.69 0 14.805 3.836 19.031 10.26l2.833 4.307h.108a22.685 22.685 0 0115.963 6.526c.271-.59.545-1.18.812-1.771.278-.621.553-1.242.826-1.864.448-1.019.891-2.04 1.325-3.063.264-.619.525-1.238.784-1.858.441-1.062.874-2.128 1.302-3.194.23-.575.465-1.149.691-1.727a265.89 265.89 0 001.426-3.719c.151-.401.309-.801.457-1.203a269.13 269.13 0 001.8-5.005c.079-.229.154-.461.233-.691.494-1.43.977-2.862 1.445-4.3.172-.523.335-1.049.502-1.574.368-1.15.73-2.301 1.082-3.455.183-.6.36-1.199.539-1.799a270.174 270.174 0 002.374-8.498c.149-.574.303-1.148.449-1.723.318-1.252.625-2.505.926-3.76.105-.441.217-.883.32-1.324.805-3.434 1.542-6.88 2.212-10.337.082-.423.157-.847.236-1.271.245-1.294.483-2.589.709-3.886.096-.553.187-1.106.279-1.659a251.192 251.192 0 00.837-5.302c.175-1.178.34-2.356.498-3.536.076-.562.152-1.125.225-1.688.163-1.271.314-2.541.459-3.812.053-.462.109-.924.16-1.386.183-1.678.353-3.356.505-5.038l.015-.147c.161-1.794.305-3.59.432-5.387.019-.256.031-.513.049-.769.101-1.482.191-2.966.269-4.45.025-.493.045-.986.068-1.479.059-1.26.111-2.521.153-3.782.019-.552.033-1.104.049-1.655.033-1.224.059-2.447.076-3.67.008-.549.017-1.099.021-1.647.011-1.274.012-2.548.005-3.822-.002-.479-.001-.959-.006-1.438a298.716 298.716 0 00-.083-4.537c-.006-.232-.008-.467-.015-.699-.605-21.419-3.623-42.84-8.956-63.857l-.028-.111a297.07 297.07 0 00-1.435-5.428l-.122-.446a294.572 294.572 0 00-1.56-5.464l-.02-.066a303.059 303.059 0 00-3.561-11.215l-.167-.484a303.77 303.77 0 00-3.666-10.155 235.95 235.95 0 00-.446-1.173 309.926 309.926 0 00-1.863-4.719c-.07-.176-.139-.352-.21-.526a305.169 305.169 0 00-2.218-5.308c-.111-.262-.228-.521-.341-.781a296.013 296.013 0 00-1.892-4.293c-.239-.531-.484-1.062-.727-1.594a309.476 309.476 0 00-4.167-8.753c-.258-.521-.513-1.044-.774-1.563a306.27 306.27 0 00-2.53-4.937l-.015-.03a11.384 11.384 0 00-.723-1.192 11.728 11.728 0 00-8.02-4.929 309.526 309.526 0 00-5.635-.704c-.577-.067-1.154-.128-1.732-.192a313.172 313.172 0 00-5.906-.6 318.39 318.39 0 00-4.008-.34c-.562-.045-1.126-.092-1.689-.133-3.764-.275-7.525-.48-11.282-.617-.557-.021-1.113-.034-1.67-.051a302.14 302.14 0 00-5.902-.127 325.324 325.324 0 00-4.072-.02c-.532.002-1.064-.001-1.596.003-3.76.025-7.513.122-11.257.286-.531.023-1.062.053-1.593.078a305.805 305.805 0 00-9.996.658c-.495.041-.99.078-1.485.122-3.733.326-7.456.723-11.164 1.188-.509.063-1.017.134-1.525.2-1.359.178-2.717.363-4.072.559-.57.083-1.141.166-1.711.252a300.17 300.17 0 00-4.144.656c-.467.076-.935.15-1.401.229a291.36 291.36 0 00-40.128 9.778h-.003a282.495 282.495 0 00-35.456 14.053l-.271.13c-1.533.733-3.06 1.481-4.578 2.243-.107.053-.214.105-.32.16-1.566.787-3.127 1.59-4.679 2.407l-.069.036A274.52 274.52 0 00182.83 73.26c-.17.107-.339.217-.508.325-1.31.832-2.611 1.676-3.907 2.531l-.788.524a274.178 274.178 0 00-8.096 5.603c-.24.173-.482.344-.723.518a265.71 265.71 0 00-4.051 2.992l-.191.142a268.033 268.033 0 00-8.531 6.714c-.181.148-.359.3-.539.448-1.164.96-2.322 1.93-3.473 2.91-.349.299-.695.601-1.044.901a270.985 270.985 0 00-4.136 3.641 263.467 263.467 0 00-6.654 6.189c-.392.377-.785.752-1.175 1.132-.968.942-1.926 1.896-2.881 2.854-.295.296-.594.588-.887.886a263.96 263.96 0 00-7.357 7.763c-.341.373-.675.754-1.013 1.129-.846.939-1.688 1.883-2.523 2.836-.425.486-.846.979-1.269 1.469a275.86 275.86 0 00-2.207 2.589 259.432 259.432 0 00-3.429 4.168 240.563 240.563 0 00-3.397 4.303c-.418.54-.838 1.078-1.252 1.622-.736.967-1.463 1.943-2.188 2.922-.35.472-.703.938-1.05 1.413a271.166 271.166 0 00-3.152 4.403h-.001a278.306 278.306 0 00-3.059 4.47c-.328.488-.646.981-.971 1.472a256.893 256.893 0 00-1.994 3.049c-.371.578-.735 1.159-1.102 1.74a257.943 257.943 0 00-7.302 12.269c-.315.563-.633 1.125-.943 1.69a257.308 257.308 0 00-1.807 3.349c-.236.443-.478.885-.711 1.33a266.46 266.46 0 00-4.778 9.569c-.18.377-.351.757-.528 1.134a271.314 271.314 0 00-1.699 3.688c-.223.495-.439.991-.659 1.486-.5 1.13-.995 2.261-1.479 3.396-.224.523-.444 1.048-.664 1.573-.474 1.13-.939 2.263-1.397 3.398-.204.507-.408 1.013-.608 1.521a250.769 250.769 0 00-1.396 3.607c-.165.434-.332.867-.494 1.301a266.05 266.05 0 00-1.542 4.244c-.08.225-.163.448-.242.673a268.786 268.786 0 00-3.39 10.312l-.068.227a269.189 269.189 0 00-1.426 4.832c-.081.283-.158.568-.238.852-.401 1.424-.791 2.85-1.168 4.279l-.264 1.008c-.365 1.407-.72 2.817-1.062 4.229l-.228.939c-.36 1.507-.706 3.016-1.041 4.527-.043.197-.089.394-.132.592a273.818 273.818 0 00-3.789 21.348l-.01.076a271.49 271.49 0 00-.662 5.219l-.041.36c-.195 1.685-.376 3.37-.541 5.056l-.031.318a282.793 282.793 0 00-1.077 38.112v.007a291.611 291.611 0 004.535 41.043c.087.478.18.953.27 1.431a301.851 301.851 0 001.148 5.805c.276 1.323.562 2.646.856 3.967.115.517.228 1.033.345 1.549.83 3.634 1.728 7.257 2.694 10.867.134.496.272.992.408 1.488a292.436 292.436 0 002.783 9.557c.16.52.318 1.04.481 1.56a304.562 304.562 0 003.573 10.652c.183.514.371 1.024.557 1.537a358.68 358.68 0 001.396 3.783c.225.593.45 1.186.678 1.777.477 1.24.962 2.477 1.455 3.712.211.529.42 1.059.634 1.587a308.588 308.588 0 002.149 5.176l.011.024a303.1 303.1 0 002.272 5.177c.233.521.474 1.039.711 1.56a297.015 297.015 0 004.265 8.977c.259.522.515 1.047.776 1.569a320.552 320.552 0 002.588 5.051c.218.414.459.812.723 1.193a11.755 11.755 0 006.651 4.657c.448.118.905.208 1.368.271 1.849.249 3.696.479 5.545.694.57.066 1.141.126 1.71.189 1.3.145 2.6.283 3.899.412a295.968 295.968 0 005.766.512c.582.047 1.165.095 1.747.138 1.562.116 3.122.218 4.683.31.283.018.566.038.85.054 1.915.107 3.83.196 5.743.268.195.007.39.011.585.019 1.683.059 3.365.104 5.047.136.425.008.85.013 1.274.019 1.507.022 3.013.034 4.518.034l1.207-.001c1.687-.008 3.372-.027 5.057-.062.173-.003.346-.004.519-.008 3.928-.088 7.847-.252 11.755-.49l.067-.004c1.892-.116 3.78-.252 5.666-.403l.468-.038c1.865-.152 3.728-.321 5.587-.508l.116-.012a298.46 298.46 0 0023.38-3.299l.005-.001a290.917 290.917 0 0039.686-10.126c.219-.072.436-.148.653-.222 1.437-.481 2.869-.973 4.297-1.476.455-.161.907-.326 1.361-.489 1.196-.429 2.391-.864 3.581-1.309.518-.193 1.034-.39 1.551-.587a292.698 292.698 0 004.96-1.937c1.167-.47 2.331-.949 3.491-1.434.459-.191.918-.381 1.375-.574a281.132 281.132 0 004.062-1.762c.244-.109.491-.213.736-.322a277.38 277.38 0 004.902-2.243l.188-.091a274.359 274.359 0 004.509-2.172c.422-.208.842-.422 1.263-.632 1.14-.569 2.276-1.143 3.408-1.727a277.594 277.594 0 009.358-5.066c.49-.277.982-.554 1.471-.835a255.111 255.111 0 003.396-1.987c.375-.223.752-.44 1.126-.664a274.005 274.005 0 008.951-5.611c.384-.251.764-.508 1.146-.761 1.073-.71 2.143-1.424 3.205-2.148.493-.336.982-.677 1.473-1.017a252.145 252.145 0 004.399-3.107c.451-.325.897-.656 1.346-.984-.019-.438-.044-.874-.037-1.312l-22.449-9.419zm2.343-322.19c.209-.036.42-.07.63-.104l.623-.102c1.241-.205 2.484-.402 3.731-.591.51-.077 1.02-.151 1.536-.226 1.218-.177 2.437-.344 3.655-.502l.605-.08.77-.101c3.333-.418 6.713-.778 10.046-1.069.231-.021.465-.039.697-.057l.638-.053a289.46 289.46 0 013.729-.283l.785-.051c15.179 21.086 37.273 36.556 62.279 43.606.348 1.198.7 2.443 1.072 3.792l.051.187.046.168c.451 1.644.886 3.289 1.292 4.888l.025.099a268.049 268.049 0 014.808 23.322l-5.846-1.222c-38.657-8.077-72.765-31.959-93.575-65.522l-3.155-5.088a272.17 272.17 0 015.558-1.011zM191.025 415.85l-.109.021a268.747 268.747 0 01-20.922 2.947l-.102.011c-1.629.163-3.323.317-5.036.457l-.189.016-.228.02c-1.365.109-2.637.199-3.882.281-15.177-21.084-37.271-36.554-62.274-43.605l-.225-.77a275.7 275.7 0 01-.993-3.543l-.179-.651c-.064-.234-.13-.468-.19-.694a273.128 273.128 0 01-2.423-9.771l-.194-.871-.118-.535a279.597 279.597 0 01-1.089-5.118 265.876 265.876 0 01-.713-3.665l-.117-.619c-.042-.221-.085-.44-.126-.667a264.791 264.791 0 01-.945-5.554l5.86 1.225c38.657 8.077 72.765 31.959 93.575 65.522l3.151 5.082c-.843.159-1.686.327-2.532.481zm81.799-138.131c-2.972 0-5.972-.88-8.591-2.714l-20.479-14.339-22.943 32.766 20.479 14.34c6.786 4.752 8.436 14.104 3.684 20.891-2.918 4.167-7.572 6.397-12.3 6.397-2.972 0-5.973-.88-8.591-2.714l-20.479-14.34-14.34 20.479c-2.918 4.167-7.572 6.397-12.3 6.397-2.972 0-5.972-.88-8.591-2.714-6.786-4.752-8.436-14.104-3.684-20.891l14.34-20.479-20.479-14.34c-6.786-4.752-8.436-14.104-3.684-20.891s14.107-8.436 20.891-3.684l20.479 14.34 22.943-32.766-20.479-14.34c-6.786-4.752-8.436-14.104-3.684-20.891s14.104-8.436 20.891-3.684l20.479 14.34 22.943-32.767-20.479-14.34c-6.786-4.751-8.436-14.104-3.684-20.891s14.104-8.435 20.891-3.684l20.479 14.34 14.34-20.479c4.752-6.787 14.104-8.435 20.891-3.684 6.786 4.752 8.436 14.104 3.684 20.891l-14.34 20.479 20.479 14.339c6.786 4.751 8.436 14.104 3.684 20.891-2.918 4.167-7.572 6.397-12.3 6.397-2.972 0-5.972-.88-8.591-2.714l-20.479-14.339-22.943 32.767 20.479 14.339c6.786 4.752 8.436 14.104 3.684 20.891a14.98 14.98 0 01-12.3 6.401zm151.131 57.127l-.078.001-17.098.453-7.278-9.392a2.769 2.769 0 00-2.198-1.077c-.787 0-1.575.331-2.132.997l-18.797 22.479 8.322-40.397a2.78 2.78 0 00-2.723-3.342h-10.891l-8.76-13.314c-.549-.834-1.436-1.252-2.322-1.252s-1.773.418-2.323 1.252l-8.759 13.314h-10.892a2.78 2.78 0 00-2.723 3.342l8.322 40.397-18.796-22.479a2.765 2.765 0 00-2.132-.997c-.822 0-1.644.36-2.198 1.077l-7.279 9.392-17.098-.453-.077-.001c-2.062 0-3.415 2.18-2.477 4.035l7.928 15.671-5.244 8.312a2.779 2.779 0 001.275 4.047l37.355 15.666-2.568 11.915c-.38 1.762.98 3.367 2.707 3.367.148 0 .298-.012.45-.036l16.649-2.668c.209-.034.421-.051.634-.051h2.61v30.264a4.634 4.634 0 109.268 0v-30.264h2.612c.211 0 .421.017.629.05l16.651 2.669c.152.024.303.036.45.036 1.727 0 3.088-1.605 2.708-3.367l-2.569-11.915 37.355-15.666a2.78 2.78 0 001.276-4.047l-5.244-8.312 7.928-15.671c.942-1.856-.413-4.035-2.473-4.035z"/></svg>