<svg xmlns="http://www.w3.org/2000/svg" width="1000pt" height="1000pt" viewBox="0 0 1000 1000"><path d="M603.738 802.82a47.356 47.356 0 01-26.906-29.496 47.35 47.35 0 013.504-36.824l-5.91-11.688c-7.5-14.824-6.785-32.128 1.918-46.28 8.703-14.153 23.816-22.606 40.422-22.602.406 0 .82.004 1.261.015l14.52.387 2.226-2.879c5.778-7.453 13.43-12.879 22.055-15.832.55-9.883 4.192-19.422 10.61-27.297 9.05-11.105 22.457-17.476 36.789-17.476h.222l5.903-8.977C719.16 570.488 733.98 562.5 750 562.5c16.02 0 30.844 7.992 39.648 21.375l5.903 8.973h.222c12.567 0 24.426 4.902 33.258 13.597.567-1.23 1.137-2.46 1.692-3.691a689.264 689.264 0 001.722-3.883c.934-2.125 1.856-4.25 2.758-6.383a477.783 477.783 0 004.348-10.523c.476-1.2.969-2.395 1.437-3.598 1.016-2.574 2-5.16 2.973-7.75.312-.832.644-1.668.953-2.504a562.663 562.663 0 003.75-10.43c.164-.476.32-.956.484-1.437 1.028-2.98 2.036-5.96 3.012-8.957.356-1.09.695-2.187 1.043-3.281.77-2.395 1.524-4.793 2.254-7.2.383-1.25.75-2.495 1.125-3.745.68-2.29 1.344-4.579 1.996-6.872.356-1.265.715-2.535 1.063-3.8.648-2.344 1.27-4.688 1.886-7.032.309-1.195.633-2.394.934-3.59.664-2.609 1.305-5.218 1.93-7.835.218-.918.453-1.836.668-2.758a573.698 573.698 0 004.609-21.535c.168-.88.324-1.762.492-2.649.508-2.695 1.004-5.39 1.477-8.094.199-1.152.386-2.304.578-3.457.414-2.46.816-4.918 1.195-7.382.188-1.22.371-2.442.55-3.664.364-2.454.708-4.907 1.036-7.368.16-1.168.32-2.343.469-3.515.34-2.649.656-5.293.957-7.942.113-.96.226-1.925.336-2.886a589.05 589.05 0 001.05-10.497l.032-.304c.336-3.738.637-7.48.898-11.223.04-.535.067-1.07.102-1.605.21-3.086.398-6.176.562-9.27.051-1.027.094-2.055.141-3.082.125-2.625.23-5.25.32-7.879.04-1.148.067-2.3.102-3.445.07-2.55.12-5.102.156-7.649.02-1.144.04-2.289.047-3.43.023-2.655.023-5.308.008-7.964-.004-.996 0-1.996-.012-2.996-.031-3.149-.09-6.297-.172-9.45-.012-.484-.015-.972-.031-1.456-1.262-44.625-7.547-89.25-18.66-133.036l-.059-.23a573.491 573.491 0 00-2.988-11.309c-.086-.312-.168-.62-.254-.93a617.409 617.409 0 00-3.25-11.382l-.043-.137a627.867 627.867 0 00-7.418-23.367c-.113-.336-.234-.672-.348-1.008a600.4 600.4 0 00-4.343-12.312 601.157 601.157 0 00-3.293-8.844c-.309-.816-.617-1.629-.93-2.445a617.965 617.965 0 00-3.883-9.829c-.144-.367-.289-.734-.437-1.097a629.962 629.962 0 00-4.621-11.059c-.23-.547-.473-1.086-.707-1.625a698.156 698.156 0 00-3.942-8.945c-.5-1.106-1.012-2.211-1.515-3.32a620.6 620.6 0 00-3.399-7.313c-.57-1.207-1.14-2.418-1.719-3.621a629.923 629.923 0 00-3.566-7.3c-.535-1.087-1.066-2.177-1.61-3.259a654.85 654.85 0 00-5.273-10.285l-.031-.062a24.13 24.13 0 00-1.504-2.485c-3.848-5.554-9.953-9.351-16.711-10.27a663.937 663.937 0 00-11.738-1.464c-1.203-.14-2.403-.266-3.61-.398-2.757-.309-5.52-.598-8.28-.872-1.345-.128-2.684-.257-4.024-.378a667.914 667.914 0 00-8.348-.711c-1.172-.094-2.348-.192-3.52-.278-7.84-.57-15.675-1-23.503-1.285-1.16-.043-2.32-.07-3.48-.105a670.6 670.6 0 00-12.294-.266c-2.832-.031-5.66-.043-8.484-.039-1.11.004-2.219-.004-3.324.004a633 633 0 00-23.454.598c-1.105.046-2.214.109-3.32.16a677.292 677.292 0 00-12.2.718c-2.878.2-5.75.418-8.624.653-1.031.086-2.063.164-3.094.254a622.813 622.813 0 00-23.258 2.476c-1.062.133-2.117.278-3.175.418-2.832.371-5.66.754-8.485 1.164-1.187.172-2.379.344-3.566.524-2.883.437-5.758.89-8.633 1.367-.973.16-1.945.312-2.918.476a607.324 607.324 0 00-83.602 20.372h-.003c-25.278 8.101-49.961 17.867-73.868 29.277l-.566.27a538.025 538.025 0 00-9.535 4.675c-.223.11-.446.219-.668.332a573.17 573.17 0 00-9.746 5.016l-.145.074a571.948 571.948 0 00-39.097 22.629c-.352.223-.704.453-1.06.676a578.129 578.129 0 00-8.136 5.273c-.55.363-1.094.73-1.644 1.094a608.698 608.698 0 00-7.547 5.11c-.594.406-1.184.816-1.774 1.226a535.642 535.642 0 00-7.543 5.336c-.5.36-1.007.715-1.507 1.078a586.81 586.81 0 00-8.442 6.234l-.394.297a553.152 553.152 0 00-17.774 13.985c-.379.308-.75.625-1.125.933-2.426 2-4.836 4.024-7.234 6.063-.727.625-1.45 1.254-2.176 1.879a559.555 559.555 0 00-8.617 7.586 637.638 637.638 0 00-8.274 7.582 593.227 593.227 0 00-5.59 5.312c-.816.785-1.632 1.566-2.445 2.356a662.505 662.505 0 00-6.004 5.945c-.613.617-1.238 1.226-1.847 1.847a556.68 556.68 0 00-15.328 16.172c-.707.778-1.407 1.57-2.11 2.352a584.154 584.154 0 00-5.254 5.91c-.886 1.012-1.765 2.04-2.644 3.059a608.21 608.21 0 00-4.598 5.394 453.083 453.083 0 00-2.793 3.352 645.651 645.651 0 00-7.117 8.785 595.418 595.418 0 00-4.313 5.512c-.87 1.125-1.746 2.246-2.609 3.379a548.52 548.52 0 00-4.555 6.09c-.73.98-1.464 1.953-2.187 2.94a580.222 580.222 0 00-6.57 9.173c-2.16 3.09-4.282 6.199-6.375 9.312-.68 1.02-1.344 2.047-2.02 3.067a506.2 506.2 0 00-4.156 6.355c-.774 1.203-1.531 2.414-2.297 3.625a496.444 496.444 0 00-3.695 5.922c-.774 1.262-1.536 2.52-2.301 3.781a501.888 501.888 0 00-3.52 5.918 624.743 624.743 0 00-2.195 3.762 607.67 607.67 0 00-3.5 6.176c-.656 1.172-1.32 2.343-1.965 3.52a570.198 570.198 0 00-3.765 6.98c-.493.922-.997 1.843-1.48 2.77a553.94 553.94 0 00-9.954 19.933c-.375.785-.73 1.578-1.102 2.363a615.623 615.623 0 00-3.539 7.684c-.465 1.03-.914 2.066-1.37 3.097a515.92 515.92 0 00-4.466 10.352 528.069 528.069 0 00-2.91 7.078c-.426 1.055-.851 2.11-1.27 3.168a584.68 584.68 0 00-2.906 7.516c-.343.902-.691 1.804-1.03 2.71a569.96 569.96 0 00-3.212 8.84c-.168.47-.34.934-.504 1.403a558.65 558.65 0 00-7.062 21.484l-.14.473a548.068 548.068 0 00-2.973 10.066c-.168.59-.329 1.184-.497 1.774a546.988 546.988 0 00-2.433 8.918l-.55 2.097c-.759 2.934-1.5 5.871-2.212 8.813-.156.652-.316 1.304-.476 1.953-.75 3.14-1.47 6.285-2.168 9.433-.09.41-.184.82-.274 1.235a569.96 569.96 0 00-7.894 44.472l-.02.16a540.044 540.044 0 00-1.465 11.622 602.18 602.18 0 00-1.129 10.535c-.02.219-.043.441-.062.66a589.273 589.273 0 00-2.246 79.402v.012A607.518 607.518 0 00130 738.504c.18.996.375 1.984.563 2.98a638.254 638.254 0 002.39 12.094 611.08 611.08 0 001.785 8.266c.239 1.078.473 2.152.719 3.226a619.512 619.512 0 005.613 22.64c.278 1.032.567 2.067.848 3.099a610.913 610.913 0 003.367 11.863c.79 2.687 1.606 5.371 2.43 8.05.336 1.083.664 2.165 1.004 3.25a629.322 629.322 0 007.445 22.192c.379 1.07.77 2.133 1.16 3.2a734.729 734.729 0 002.906 7.882 717.67 717.67 0 001.415 3.703c.992 2.582 2.003 5.16 3.03 7.73.438 1.106.876 2.208 1.321 3.31 1.461 3.6 2.95 7.198 4.477 10.78l.023.051c1.54 3.606 3.121 7.2 4.734 10.785.485 1.086.985 2.165 1.48 3.25a573.352 573.352 0 005.247 11.235 657.053 657.053 0 003.64 7.469c.54 1.086 1.071 2.18 1.614 3.27a685.47 685.47 0 005.394 10.523c.454.859.954 1.691 1.504 2.484a24.514 24.514 0 0013.856 9.703 23.29 23.29 0 002.851.563c3.852.52 7.7 1 11.551 1.445 1.188.137 2.38.262 3.563.394 2.71.301 5.418.59 8.125.86 1.328.129 2.656.254 3.984.375 2.676.25 5.352.476 8.027.691 1.211.098 2.426.2 3.641.285 3.254.243 6.504.457 9.754.649.59.035 1.18.078 1.773.113a680.9 680.9 0 0011.965.559c.406.011.813.02 1.219.039 3.504.12 7.008.215 10.512.281.886.016 1.773.027 2.656.039 3.14.047 6.277.07 9.41.07h2.516a630.54 630.54 0 0010.535-.129c.363-.007.723-.007 1.082-.015a637.723 637.723 0 0024.488-1.024l.14-.007a623.62 623.62 0 0011.805-.84c.325-.028.649-.051.977-.078 3.883-.317 7.766-.668 11.637-1.059l.242-.023a621.686 621.686 0 0048.71-6.875h.009c28.105-5.114 55.742-12.145 82.68-21.098.456-.149.91-.309 1.359-.461a589.574 589.574 0 008.953-3.078c.95-.332 1.89-.676 2.836-1.016 2.492-.894 4.98-1.8 7.46-2.726a363.32 363.32 0 003.231-1.227 579.26 579.26 0 007.102-2.75c1.078-.426 2.156-.851 3.23-1.285 2.434-.977 4.86-1.977 7.274-2.984.957-.399 1.914-.797 2.867-1.2 2.828-1.199 5.648-2.425 8.46-3.668.509-.226 1.024-.445 1.532-.672a573.094 573.094 0 0010.215-4.671l.39-.192a560.514 560.514 0 009.395-4.523c.879-.434 1.754-.88 2.633-1.317a671.046 671.046 0 007.098-3.597c1.062-.551 2.113-1.102 3.168-1.657a525.688 525.688 0 006.55-3.488 377.82 377.82 0 003.262-1.773 589.33 589.33 0 006.516-3.637c1.02-.578 2.047-1.156 3.066-1.742a530.733 530.733 0 007.074-4.137c.782-.465 1.567-.918 2.344-1.383a572.755 572.755 0 0018.648-11.691c.801-.524 1.594-1.059 2.387-1.586a552.25 552.25 0 006.68-4.473c1.027-.703 2.043-1.41 3.066-2.12a522.655 522.655 0 009.164-6.473c.942-.676 1.871-1.368 2.805-2.051-.039-.91-.09-1.82-.074-2.73zm4.88-671.23c.437-.074.874-.145 1.312-.215l1.3-.21c2.586-.43 5.172-.84 7.774-1.235 1.062-.16 2.125-.313 3.2-.47 2.534-.37 5.073-.718 7.612-1.046l1.262-.168c.535-.07 1.07-.14 1.602-.207a568.402 568.402 0 0120.93-2.23c.48-.043.968-.079 1.452-.118l1.329-.109c2.59-.215 5.18-.41 7.77-.59.546-.039 1.089-.07 1.636-.105 31.621 43.93 77.652 76.156 129.746 90.843a548.09 548.09 0 012.234 7.903l.106.387.097.351a587.871 587.871 0 012.692 10.184l.05.207c4.083 16.093 7.4 32.316 10.016 48.586l-12.18-2.547c-80.535-16.824-151.593-66.578-194.945-136.504l-6.574-10.598a562.327 562.327 0 0111.578-2.11zm-210.65 734.765l-.226.043a560.24 560.24 0 01-43.59 6.141l-.21.02c-3.395.34-6.922.664-10.493.953l-.394.035-.473.039c-2.844.23-5.496.418-8.09.586-31.617-43.926-77.644-76.152-129.734-90.844l-.469-1.601c-.71-2.461-1.398-4.922-2.07-7.383l-.371-1.356c-.137-.488-.274-.976-.399-1.445a569.167 569.167 0 01-5.047-20.36c-.136-.601-.27-1.206-.406-1.812l-.242-1.113a559.92 559.92 0 01-1.606-7.426 584.748 584.748 0 01-2.152-10.875l-.242-1.289c-.086-.461-.176-.914-.262-1.39a545.68 545.68 0 01-1.969-11.571l12.207 2.555c80.536 16.824 151.594 66.578 194.95 136.504l6.562 10.586c-1.754.332-3.512.683-5.273 1.003zm170.415-287.773a31.11 31.11 0 01-17.899-5.656l-42.664-29.871-47.797 68.261 42.664 29.875c14.137 9.899 17.575 29.383 7.676 43.524-6.078 8.68-15.777 13.328-25.625 13.328a31.102 31.102 0 01-17.898-5.656l-42.664-29.875-29.875 42.664c-6.078 8.683-15.778 13.328-25.625 13.328a31.106 31.106 0 01-17.899-5.652c-14.136-9.903-17.574-29.387-7.675-43.524l29.875-42.664-42.664-29.875c-14.137-9.902-17.575-29.387-7.676-43.523 9.902-14.141 29.39-17.575 43.523-7.676l42.664 29.875 47.797-68.262-42.664-29.875c-14.137-9.902-17.574-29.383-7.672-43.523 9.899-14.14 29.383-17.575 43.52-7.676l42.668 29.875 47.797-68.266-42.665-29.875c-14.14-9.898-17.578-29.383-7.675-43.523 9.898-14.137 29.382-17.57 43.523-7.672l42.664 29.875 29.875-42.664c9.899-14.14 29.383-17.574 43.524-7.676 14.136 9.899 17.574 29.383 7.675 43.524l-29.875 42.664 42.664 29.87c14.137 9.9 17.575 29.384 7.672 43.524-6.078 8.68-15.773 13.328-25.625 13.328a31.09 31.09 0 01-17.894-5.656l-42.668-29.871-47.797 68.266 42.664 29.87c14.14 9.9 17.578 29.383 7.676 43.524-6.078 8.688-15.774 13.336-25.625 13.336zm314.855 119.016h-.16l-35.621.945-15.164-19.566a5.767 5.767 0 00-4.578-2.247c-1.64 0-3.281.692-4.442 2.079l-39.16 46.832 17.336-84.16c.742-3.598-2.004-6.965-5.672-6.965h-22.691l-18.25-27.739a5.747 5.747 0 00-4.836-2.605 5.758 5.758 0 00-4.84 2.605l-18.246 27.739h-22.691c-3.672 0-6.414 3.367-5.676 6.964l17.34 84.16-39.16-46.831a5.762 5.762 0 00-4.442-2.079 5.75 5.75 0 00-4.578 2.247l-15.164 19.566-35.621-.945h-.16c-4.297 0-7.117 4.539-5.16 8.406l16.515 32.644-10.926 17.317c-1.914 3.027-.644 7.05 2.657 8.433l77.824 32.637-5.352 24.824c-.793 3.668 2.043 7.012 5.64 7.012.31 0 .622-.023.938-.074l34.684-5.559a8.32 8.32 0 011.32-.105h5.438v63.05c0 5.333 4.324 9.653 9.656 9.653a9.65 9.65 0 009.652-9.652v-63.051h5.442c.441 0 .879.035 1.312.105l34.688 5.559c.32.05.633.074.937.074 3.602 0 6.434-3.344 5.645-7.012l-5.352-24.824 77.82-32.637c3.305-1.382 4.57-5.406 2.66-8.433l-10.925-17.317 16.516-32.644c1.964-3.867-.86-8.406-5.153-8.406zm0 0"/></svg>