<svg xmlns="http://www.w3.org/2000/svg" width="1000pt" height="1000pt" viewBox="0 0 1000 1000"><path d="M688.504 334.074L459.176 661.301c-3.672 5.242-10.043 8.058-16.34 6.883-27.25-5.086-56.207 5.664-73.14 29.847l-62.524 89.293c11.7 2.844 24.844 4.492 40.77 4.492 4.105 0 8.406-.113 12.769-.328 51.855-2.597 73.945-17.41 104.523-37.906 11.04-7.398 22.907-15.344 36.5-22.945a73.157 73.157 0 00-9.62-28.02c-3.274-5.515-2.805-12.488.878-17.746l229.332-327.23c3.672-5.243 10.043-8.059 16.336-6.883 27.246 5.078 56.2-5.672 73.133-29.856l80.062-114.336c5.278-7.543 3.446-17.933-4.093-23.214l-92.157-64.528c-7.539-5.281-17.93-3.445-23.21 4.094l-80.063 114.34c-16.969 24.23-17.133 55.183-2.957 79.066 3.273 5.52 2.813 12.496-.871 17.75zM270.832 479.168c115 0 208.336-93.336 208.336-208.336 0-115.102-93.336-208.332-208.336-208.332C155.73 62.5 62.5 155.73 62.5 270.832c0 115 93.23 208.336 208.332 208.336zm59.48-132.188l-.105-.105-.102-.207-.312-.418c-9.375-14.688-20.836-27.707-33.856-39.273-.832-.73-1.769-1.563-2.605-2.293-2.289-2.082-4.578-4.063-6.977-5.938a91.798 91.798 0 00-5.21-3.644c-.727-.52-1.457-.938-2.188-1.457-2.914-2.086-6.039-4.063-9.164-5.942-1.98 1.149-4.168 2.086-6.356 3.024-1.25.52-2.5 1.039-3.75 1.664-.832.418-1.562.836-2.394 1.254-.938.52-1.98 1.039-2.914 1.457-.418.207-.938.312-1.461.52-.414.21-.832.312-1.25.523-6.04 2.601-12.29 4.789-18.54 6.875-.312.207-.733.308-1.042.414-.52.21-1.145.418-1.774.625-.207.105-.519.21-.73.21h-.414c-20.102 6.145-41.043 9.688-62.188 9.688h-.937c-5.523-.105-10.836-.418-16.148-.836-.208 0-.52-.101-.727-.101-.211-.106-.523-.106-.734-.106-4.79-.418-9.375-1.043-14.063-1.773-.52-.102-1.144-.102-1.77-.207-.73-.106-1.562-.207-2.394-.313h-.523c-.207 0-.309-.105-.52-.105-.832-.102-1.668-.309-2.5-.52-.52-.207-1.043-.312-1.562-.418a207.888 207.888 0 01-10.938-2.496c-.414-.105-.934-.21-1.352-.312-.624-.106-1.355-.211-1.98-.418-.207-.106-.52-.106-.727-.207-.418-.106-.734-.211-1.148-.313-1.562-.418-3.125-.937-4.687-1.46-.938-.31-1.774-.626-2.711-.935-.625-.312-1.352-.519-2.082-.73-.938-.312-1.872-.625-2.813-.937-1.875-10.207-2.812-20.727-2.812-31.461v-1.559c3.75 1.563 7.5 3.02 11.25 4.375 1.976.73 4.062 1.355 6.039 1.98 4.476 1.457 8.855 2.813 13.332 3.856 1.355.309 2.816.625 4.27.832.835.21 1.773.312 2.605.52.832.21 1.562.312 2.394.519 3.438.625 6.98 1.356 10.524 1.773-.938-8.226-1.563-16.562-1.563-25 .004-58.023 23.234-112.085 62.61-151.773 20.207-8.121 42.292-12.602 65.417-12.602-60.21 32.29-98.335 95.207-98.335 164.375 0 8.957.835 17.602 2.085 26.145h1.04c17.292-.73 34.375-4.063 50.835-9.586.938-.309 1.872-.625 2.813-.934 3.125-.937 6.144-1.98 9.164-3.234 1.773-.726 3.648-1.664 5.418-2.496.938-.418 1.875-.938 2.816-1.355a211.257 211.257 0 009.684-5c0-2.29.313-4.579.52-6.875.105-1.458.312-2.813.418-4.27.105-.832.105-1.77.105-2.605.102-1.145.102-2.188.21-3.333 0-.519.102-1.042.208-1.562.105-.52.105-.938.207-1.355.836-6.563 1.98-13.02 3.336-19.477.105-.313.105-.734.207-1.043.105-.629.312-1.355.418-1.98 0-.102 0-.313.105-.52.102-.21.211-.313.211-.52 4.79-20.523 12.082-40.316 22.703-58.648l.106-.207.105-.105c.106-.211.211-.313.313-.52a293.712 293.712 0 018.75-13.438c.207-.312.312-.519.52-.73.105-.105.312-.312.417-.523 2.707-3.852 5.625-7.602 8.54-11.246.417-.418.734-.938 1.148-1.458.414-.625.937-1.25 1.457-1.875l.312-.414c.106-.21.207-.312.313-.418.52-.625 1.039-1.144 1.562-1.668.414-.414.832-.937 1.25-1.351 2.5-2.813 5-5.524 7.602-8.23.312-.419.73-.731 1.043-1.145.418-.524.937-1.043 1.355-1.461l1.352-1.352a53.276 53.276 0 013.539-3.23c.734-.625 1.461-1.352 2.191-1.977.625-.523 1.25-1.148 1.872-1.668.625-.523 1.355-1.148 1.98-1.773a171.489 171.489 0 0130 14.062c-3.125 2.399-6.25 4.899-9.688 6.774-1.355 1.144-2.707 2.394-4.062 3.644l-.625.625c-3.438 3.125-6.77 6.25-10 9.586-.938 1.04-1.875 2.188-2.816 3.227-.52.625-1.145 1.355-1.77 2.086-.625.625-1.144 1.25-1.668 1.871-2.293 2.71-4.582 5.418-6.77 8.23 7.602 3.23 15.208 6.875 22.5 11.149 50.208 28.957 85.419 76.25 100.106 130.101-3.23 22.606-10.727 43.856-21.773 62.918 2.086-68.23-33.332-132.71-93.227-167.293-7.707-4.375-15.625-8.02-23.648-11.25l-.207.418c-.106.207-.211.414-.313.625-8.02 15.414-13.644 31.875-17.082 48.852-.21.836-.312 1.773-.523 2.605-.625 3.23-1.352 6.461-1.77 9.793-.21 1.977-.418 4.063-.52 6.04-.105 1.042-.105 1.976-.21 3.019-.313 3.645-.414 7.293-.52 10.938 1.977 1.253 3.856 2.605 5.727 3.957 1.043.835 2.191 1.562 3.336 2.398.73.52 1.562 1.039 2.293 1.453.937.524 1.875 1.149 2.812 1.774.414.312.832.625 1.25.937.313.313.625.625 1.043.938 5.313 3.957 10.313 8.226 15.207 12.605.211.207.418.309.625.52.629.523 1.254 1.043 1.773 1.562l.418.414.414.418c15.317 14.48 28.754 30.73 39.375 49.063.106.105.208.312.313.52.105.21.105.312.207.417 2.711 4.688 5 9.48 7.293 14.274.105.308.207.519.313.832.105.21.207.414.308.625 2.086 4.273 3.86 8.644 5.524 13.02.207.628.52 1.147.726 1.772l.938 2.188c.105.207.105.313.21.52.106.21.106.312.211.523.207.727.415 1.352.625 2.082.102.52.313 1.145.52 1.77 1.145 3.543 2.293 7.085 3.332 10.73.211.52.313 1.043.523 1.563.211.625.415 1.144.52 1.769.21.629.313 1.254.52 1.875.418 1.563.734 3.23 1.043 4.898.21.938.312 1.774.519 2.711.211.727.313 1.563.523 2.29.211.937.415 1.773.625 2.71-8.437 7.082-17.5 13.438-27.187 18.957-.414-3.957-1.043-7.918-1.773-11.875-.415-2.082-.938-4.062-1.352-6.144-.938-4.48-1.977-8.957-3.336-13.438-.414-1.457-.937-2.914-1.457-4.375-.309-.73-.625-1.457-.832-2.187-.211-.625-.414-1.25-.625-1.875-1.25-3.543-2.395-7.082-3.856-10.52-6.667 4.895-13.542 9.582-20.937 13.852-50.21 28.957-108.645 35.832-162.605 21.668-17.5-13.856-32.399-30.938-43.75-50.418 58.023 35.937 131.562 37.5 191.457 2.918 7.707-4.379 14.793-9.48 21.566-14.797zm652.844 208.415H634.613L537.855 693.46c-1.445 2.059-1.726 4.687-.867 7.055 1.434 3.949 2.649 7.98 3.657 12.062 7.687-2.844 15.902-5.457 24.675-7.777l.278-.07c1.695-.45 3.41-.887 5.148-1.31l.14-.034a297.712 297.712 0 0116.098-3.434c.278-.05.551-.105.825-.156a268.16 268.16 0 013.824-.66c.89-.153 1.781-.305 2.687-.453 1.14-.184 2.297-.356 3.457-.528 1.082-.164 2.164-.324 3.258-.476 1.086-.153 2.192-.297 3.293-.442 1.215-.156 2.438-.304 3.668-.453a319.049 319.049 0 017.273-.781c.981-.094 1.954-.195 2.946-.281 1.582-.141 3.187-.266 4.8-.391.833-.062 1.653-.133 2.493-.191 2.472-.172 4.972-.325 7.515-.457 6.36-.317 12.692-.477 18.82-.477 2.782 0 5.509.043 8.204.106.812.019 1.605.046 2.406.074 1.957.058 3.887.133 5.797.222.8.04 1.605.075 2.395.121 2.312.13 4.601.278 6.851.454.266.02.54.035.8.054 2.509.203 4.974.434 7.407.688.688.07 1.36.152 2.04.226a335.375 335.375 0 017.487.93c1.954.27 3.887.559 5.79.86.375.058.757.113 1.128.171 2.274.371 4.504.766 6.704 1.18.554.102 1.093.215 1.644.32 1.672.324 3.328.66 4.961 1.012.645.137 1.281.273 1.914.414 1.715.383 3.406.774 5.078 1.176.399.101.805.191 1.2.289 2.062.512 4.093 1.039 6.093 1.582.41.113.809.23 1.215.34 1.602.445 3.184.902 4.742 1.367a289.377 289.377 0 016.223 1.934c.375.12.75.238 1.121.359 1.894.625 3.762 1.262 5.598 1.91.222.082.441.164.664.242 1.597.567 3.172 1.149 4.73 1.739.445.164.887.336 1.328.503 1.434.551 2.856 1.106 4.258 1.672.324.13.652.258.977.391 1.754.71 3.48 1.43 5.18 2.156h.003c83.84-30.726 160.867-75.539 228.149-131.633 12.062-10.05 4.945-29.671-10.774-29.671zM301.773 722.387l33.79-48.254c21.417-30.594 56.523-48.856 93.906-48.852h.039c2.492 0 4.84-1.152 6.27-3.191l46.742-66.695H16.844c-15.719 0-22.836 19.62-10.77 29.675 71.95 59.985 155.031 107.102 245.684 137.856zm613.957 82.996c-63.37 3.176-95.488-13.969-129.492-32.121-35.75-19.082-76.27-40.711-151.129-36.957-74.859 3.754-113.011 29.328-146.672 51.886-32.015 21.461-62.261 41.735-125.636 44.91-63.371 3.176-95.485-13.964-129.485-32.117-35.75-19.082-76.265-40.714-151.125-36.96-11.449.574-20.27 10.324-19.695 21.773.574 11.453 10.324 20.27 21.774 19.695 63.37-3.176 95.488 13.969 129.492 32.121 35.746 19.082 76.261 40.711 151.12 36.961 74.86-3.754 113.013-29.328 146.669-51.89 32.02-21.461 62.265-41.735 125.64-44.91 63.371-3.176 95.489 13.964 129.493 32.117 35.75 19.082 76.265 40.714 151.125 36.96 11.453-.574 20.27-10.324 19.699-21.773-.578-11.453-10.324-20.27-21.778-19.695zm0 0"/></svg>