<svg xmlns="http://www.w3.org/2000/svg" viewBox="0 0 480 480"><path d="M330.482 160.356L220.405 317.424c-1.763 2.516-4.822 3.868-7.843 3.304-13.08-2.441-26.98 2.718-35.109 14.327l-30.011 42.86c5.616 1.366 11.926 2.157 19.569 2.157 1.972 0 4.035-.054 6.131-.158 24.889-1.247 35.493-8.356 50.171-18.195 5.298-3.551 10.995-7.364 17.52-11.013a35.109 35.109 0 00-4.619-13.449c-1.57-2.648-1.345-5.996.423-8.519l110.079-157.071c1.763-2.515 4.821-3.867 7.841-3.304 13.078 2.438 26.975-2.721 35.103-14.329l38.43-54.883a8 8 0 00-1.965-11.142l-44.234-30.974A8 8 0 00370.749 59l-38.43 54.883c-8.144 11.631-8.223 26.488-1.419 37.953 1.571 2.649 1.35 5.997-.418 8.52zM130 230c55.2 0 100-44.8 100-100 0-55.25-44.8-100-100-100C74.75 30 30 74.75 30 130c0 55.2 44.75 100 100 100zm28.55-63.45l-.05-.05-.05-.1-.15-.2c-4.5-7.05-10-13.3-16.25-18.851-.399-.35-.85-.75-1.25-1.1-1.1-1-2.199-1.95-3.35-2.85-.8-.601-1.65-1.2-2.5-1.75-.35-.25-.7-.45-1.05-.7-1.4-1-2.9-1.95-4.4-2.851-.95.551-2 1-3.05 1.45-.6.25-1.2.5-1.8.8-.4.2-.75.4-1.15.601-.45.25-.95.5-1.399.7-.2.1-.45.149-.7.25-.2.1-.4.149-.601.25-2.899 1.25-5.899 2.3-8.899 3.3-.15.1-.351.149-.5.2-.25.1-.55.199-.851.3-.1.05-.25.1-.35.1h-.2c-9.649 2.95-19.7 4.65-29.85 4.65h-.45c-2.65-.05-5.2-.2-7.75-.4-.1 0-.25-.05-.35-.05-.101-.05-.25-.05-.351-.05-2.3-.2-4.5-.5-6.75-.851-.25-.05-.55-.05-.85-.1-.351-.05-.75-.1-1.15-.15h-.25c-.1 0-.149-.05-.25-.05-.399-.05-.8-.149-1.2-.25-.25-.1-.5-.149-.75-.2-1.75-.35-3.5-.75-5.25-1.199-.199-.051-.449-.101-.649-.15-.3-.05-.65-.1-.95-.2-.1-.05-.25-.05-.35-.1-.2-.05-.351-.101-.551-.15-.75-.2-1.5-.45-2.25-.7-.449-.149-.85-.3-1.3-.449-.3-.15-.649-.25-1-.351l-1.35-.45a83.542 83.542 0 01-1.351-15.1V129c1.801.75 3.601 1.45 5.4 2.1.95.351 1.95.65 2.9.95 2.149.7 4.25 1.351 6.399 1.851.65.149 1.351.3 2.05.399.4.101.851.15 1.25.25.4.101.75.15 1.15.25 1.65.3 3.35.65 5.05.851-.45-3.95-.75-7.95-.75-12C68.5 95.8 79.65 69.85 98.55 50.8c9.7-3.899 20.301-6.05 31.4-6.05-28.9 15.5-47.2 45.7-47.2 78.9 0 4.3.4 8.449 1 12.55h.5c8.3-.351 16.5-1.95 24.4-4.601l1.35-.449c1.5-.45 2.95-.95 4.4-1.551.85-.35 1.75-.8 2.6-1.199.45-.2.9-.45 1.351-.65 1.55-.75 3.1-1.55 4.649-2.4 0-1.1.15-2.199.25-3.3.05-.7.15-1.35.2-2.05.05-.4.05-.85.05-1.25.05-.55.05-1.05.101-1.6 0-.25.05-.5.1-.75s.05-.45.1-.65c.4-3.15.95-6.25 1.601-9.35.05-.15.05-.351.1-.5.05-.301.15-.65.2-.95 0-.05 0-.15.05-.25.05-.101.101-.15.101-.25 2.3-9.851 5.8-19.351 10.899-28.15l.05-.1.051-.05c.05-.101.1-.15.149-.25 1.351-2.2 2.75-4.351 4.2-6.45.1-.15.15-.25.25-.351.05-.05.15-.149.2-.25 1.3-1.85 2.7-3.649 4.1-5.399.2-.2.351-.45.55-.7.2-.3.45-.6.7-.9l.15-.199c.05-.101.1-.15.149-.2.25-.3.5-.55.75-.8.2-.2.4-.45.601-.65 1.2-1.35 2.399-2.65 3.649-3.95.15-.2.351-.35.5-.55.2-.25.45-.5.65-.7l.65-.649c.55-.551 1.1-1.051 1.699-1.551.351-.3.7-.649 1.051-.949.3-.25.6-.551.899-.801s.65-.55.95-.85c5.05 1.8 9.85 4.05 14.4 6.75-1.5 1.15-3 2.35-4.65 3.25-.65.55-1.3 1.15-1.95 1.75l-.3.3c-1.65 1.5-3.25 3-4.8 4.601-.45.5-.9 1.05-1.351 1.55-.25.3-.55.649-.85 1-.3.3-.55.6-.8.899-1.101 1.301-2.2 2.601-3.25 3.95 3.649 1.55 7.3 3.3 10.8 5.351 24.1 13.899 41 36.6 48.05 62.449a83.763 83.763 0 01-10.45 30.2c1-32.75-16-63.7-44.75-80.3-3.699-2.1-7.5-3.85-11.35-5.4l-.1.2-.15.3c-3.85 7.4-6.55 15.301-8.2 23.45-.1.4-.149.851-.25 1.25-.3 1.55-.649 3.101-.85 4.7-.101.95-.2 1.95-.25 2.9-.05.5-.05.949-.101 1.449-.149 1.75-.199 3.5-.25 5.25.95.601 1.851 1.25 2.75 1.9.5.4 1.051.75 1.601 1.15.35.25.75.5 1.1.699.45.25.9.551 1.351.851l.6.45c.15.149.3.3.5.449 2.55 1.9 4.95 3.95 7.3 6.051.101.1.2.149.3.25.301.25.601.5.851.75l.2.199.199.2c7.351 6.95 13.801 14.75 18.9 23.55.05.051.1.15.15.25.05.101.05.15.1.2 1.3 2.25 2.4 4.55 3.5 6.851.05.149.1.25.15.399l.149.3c1 2.051 1.851 4.15 2.65 6.25.1.301.25.551.35.851l.45 1.05c.05.1.05.15.1.25.051.1.051.15.101.25.1.35.2.65.3 1 .05.25.15.55.25.85.55 1.7 1.1 3.4 1.6 5.15.101.25.15.5.25.75.101.3.2.55.25.85.101.301.15.601.25.9.2.75.351 1.55.5 2.35.101.45.15.851.25 1.301.101.35.15.75.25 1.1.101.45.2.85.301 1.3-4.051 3.4-8.4 6.45-13.051 9.101-.199-1.9-.5-3.801-.85-5.7-.2-1-.45-1.95-.65-2.95-.449-2.15-.949-4.3-1.6-6.45-.2-.7-.45-1.399-.7-2.1-.149-.351-.3-.7-.399-1.05l-.301-.9c-.6-1.7-1.149-3.4-1.85-5.05-3.2 2.35-6.5 4.6-10.05 6.649-24.101 13.9-52.15 17.2-78.05 10.4a86.336 86.336 0 01-21-24.2 89.508 89.508 0 0091.899 1.4c3.7-2.101 7.101-4.55 10.351-7.101l-.05-.05zm313.365 100.039H304.614l-46.444 66.272c-.693.989-.829 2.251-.416 3.387a57.116 57.116 0 011.756 5.79 129.776 129.776 0 0111.843-3.733l.133-.035a129.06 129.06 0 012.472-.628l.067-.016a141.839 141.839 0 017.728-1.649c.133-.024.263-.051.396-.075.604-.11 1.22-.213 1.834-.317.429-.072.856-.146 1.29-.217.548-.088 1.104-.17 1.66-.253a167.51 167.51 0 011.564-.229 173.156 173.156 0 016.832-.804c.471-.046.938-.093 1.414-.135.76-.068 1.531-.128 2.305-.187.399-.03.793-.064 1.196-.093a181.34 181.34 0 0112.641-.448c1.335 0 2.644.021 3.938.051.389.01.771.023 1.155.035.938.028 1.865.064 2.782.108.385.019.77.036 1.149.058 1.111.062 2.209.133 3.289.217.127.01.258.017.385.026 1.204.097 2.387.209 3.555.331.329.034.652.072.979.109a134.65 134.65 0 013.594.446c.938.129 1.865.267 2.779.411.18.029.363.055.542.084 1.09.177 2.161.367 3.217.565.266.05.525.104.789.154a126.64 126.64 0 015.737 1.25c.192.047.387.091.577.138.99.245 1.965.498 2.925.76l.583.163c.768.214 1.527.432 2.276.655.263.078.524.157.785.236.743.227 1.478.458 2.202.693.179.058.36.114.538.173.909.3 1.806.605 2.687.917l.318.115c.768.273 1.523.552 2.271.834.213.08.425.162.637.243.689.264 1.371.531 2.044.802l.469.187c.841.342 1.671.687 2.487 1.035h.001a369.671 369.671 0 00109.511-63.184c5.79-4.824 2.374-14.242-5.171-14.242zm-327.064 80.157l16.219-23.162c10.281-14.685 27.132-23.45 45.075-23.449h.019c1.196 0 2.323-.554 3.01-1.532l22.436-32.014H8.085c-7.545 0-10.961 9.418-5.17 14.245 34.536 28.793 74.416 51.408 117.929 66.171l24.007-.259zm294.7 39.837c-30.419 1.525-45.835-6.704-62.157-15.417-17.159-9.159-36.609-19.542-72.541-17.74-35.933 1.802-54.246 14.077-70.403 24.906-15.368 10.302-29.886 20.032-60.305 21.557-30.418 1.525-45.833-6.704-62.153-15.417-17.16-9.159-36.608-19.542-72.54-17.74-5.496.275-9.729 4.955-9.453 10.451.275 5.497 4.955 9.729 10.451 9.454 30.418-1.525 45.834 6.704 62.155 15.417 17.158 9.16 36.607 19.542 72.538 17.741 35.933-1.802 54.246-14.077 70.402-24.907 15.369-10.302 29.886-20.032 60.306-21.557 30.419-1.525 45.836 6.704 62.158 15.417 17.159 9.159 36.607 19.542 72.54 17.74 5.496-.275 9.729-4.955 9.454-10.451-.276-5.497-4.955-9.729-10.452-9.454z"/></svg>