<svg xmlns="http://www.w3.org/2000/svg" viewBox="0 0 480 480"><path d="M413.599 422.594l-95.743-67.06c-9.047-6.334-21.517-4.14-27.855 4.908-6.336 9.047-4.139 21.519 4.908 27.855l95.743 67.06a19.912 19.912 0 0011.456 3.62c6.304 0 12.508-2.973 16.399-8.528 6.337-9.047 4.139-21.518-4.908-27.855zM242.48 253.922l-29.042-20.335 30.538-29.11c7.995-7.621 8.298-20.281.677-28.276-7.622-7.994-20.28-8.299-28.276-.677l-36.36 34.66-19.454-13.621 45.866-65.527c6.334-9.049 4.133-21.52-4.916-27.854-9.049-6.336-21.52-4.133-27.854 4.916l-57.33 81.905-.001.001-34.414 49.148c-6.336 9.048-4.137 21.52 4.911 27.854l98.298 68.829a20.002 20.002 0 0027.855-4.912l34.414-49.148c6.336-9.046 4.136-21.518-4.912-27.853zM88.457 194.934c13.235-18.902 9.08-42.471-9.822-55.706s-42.475-9.083-55.71 9.819-8.883 42.569 10.02 55.806c18.902 13.235 42.276 8.983 55.512-9.919zM442 30H136.422c-7.915 0-11.023 10.266-4.438 14.656l96.51 64.34a8.007 8.007 0 012.433 2.559l59.029 98.977 19.652 29.404a40.35 40.35 0 012.233.702l79.947 27.994c10.084 3.53 18.19 10.777 22.824 20.404 4.633 9.628 5.24 20.483 1.709 30.566-5.373 15.345-19.518 25.86-35.611 26.722l54.638 81.754c4.396 6.576 14.651 3.465 14.651-4.445V38A7.999 7.999 0 00442 30zm-70.039 295.26c10.425 3.65 21.835-1.842 25.485-12.267s-1.841-21.835-12.267-25.485l-79.947-27.994a19.997 19.997 0 00-22.992 7.404l-52.862 75.495c-6.336 9.048-4.137 21.52 4.911 27.854a19.907 19.907 0 0011.454 3.619c6.305 0 12.51-2.975 16.4-8.53l44.171-63.083 65.647 22.987z"/></svg>