<svg xmlns="http://www.w3.org/2000/svg" width="1000pt" height="1000pt" viewBox="0 0 1000 1000"><path d="M861.664 880.402L662.2 740.695c-18.847-13.195-44.828-8.625-58.031 10.227-13.2 18.848-8.621 44.832 10.227 58.031L813.859 948.66a41.478 41.478 0 0023.868 7.543c13.132 0 26.058-6.195 34.164-17.77 13.199-18.847 8.62-44.828-10.227-58.03zM505.168 529.004l-60.504-42.363 63.621-60.649c16.656-15.875 17.285-42.25 1.41-58.906-15.879-16.656-42.25-17.29-58.91-1.41l-75.75 72.207-40.527-28.375 95.55-136.516c13.2-18.851 8.614-44.832-10.238-58.031-18.855-13.2-44.836-8.61-58.03 10.242L242.351 395.84l-71.7 102.394c-13.199 18.848-8.617 44.832 10.235 58.028l204.785 143.394a41.677 41.677 0 0031.137 6.903 41.647 41.647 0 0026.894-17.137l71.695-102.39c13.204-18.848 8.618-44.829-10.23-58.028zm-320.883-122.89c27.574-39.38 18.918-88.481-20.46-116.055-39.38-27.575-88.493-18.922-116.063 20.457-27.575 39.379-18.508 88.683 20.875 116.261 39.379 27.575 88.074 18.715 115.648-20.664zM920.832 62.5H284.211c-16.488 0-22.965 21.387-9.246 30.535l201.062 134.04a16.698 16.698 0 015.07 5.331L604.075 438.61l40.942 61.258a84.42 84.42 0 014.652 1.461l166.559 58.32c21.007 7.356 37.894 22.454 47.546 42.512 9.653 20.055 10.918 42.672 3.563 63.676-11.195 31.969-40.664 53.875-74.191 55.672l113.832 170.32c9.156 13.7 30.52 7.219 30.52-9.258V79.168c.003-9.207-7.458-16.668-16.665-16.668zM774.918 677.625c21.719 7.605 45.492-3.836 53.094-25.555 7.605-21.718-3.836-45.492-25.555-53.093l-166.559-58.325c-17.62-6.172-37.191.137-47.898 15.426L477.871 713.36c-13.2 18.852-8.617 44.836 10.23 58.032a41.48 41.48 0 0023.864 7.539c13.137 0 26.062-6.2 34.168-17.77l92.02-131.426zm0 0"/></svg>