<svg xmlns="http://www.w3.org/2000/svg" viewBox="0 0 480 480"><path d="M228.747 401.135L81.299 297.891c-4.524-3.168-10.759-2.068-13.927 2.456L55.9 316.729c-6.336 9.048-4.136 21.52 4.911 27.854l131.065 91.772c9.049 6.336 21.519 4.137 27.854-4.91l11.472-16.385c3.168-4.522 2.068-10.757-2.455-13.925zM390.996 99.68l-47.984-33.599c-36.192-25.342-101.168-14.906-126.51 21.287l-68.896 98.394c-3.121 4.456-9.263 5.539-13.719 2.419-4.443-3.11-5.535-9.227-2.443-13.684l40.089-57.66c6.291-9.047 4.077-21.479-4.95-27.799l-8.246-5.775c-16.383-11.471-36.046-.824-47.517 15.559l-25 35.704c-36.877 52.666-24.078 125.256 28.588 162.133l68.784 48.162 16.069 11.253c54.288 38.013 129.114 24.819 167.127-29.47l51.622-73.724c34.845-49.764 22.751-118.355-27.014-153.2zm-68.675 194.59l-29.545 5.208 5.21 29.546c.959 5.438-2.672 10.625-8.111 11.584a10.02 10.02 0 01-1.748.154c-4.762 0-8.98-3.414-9.836-8.266l-5.21-29.547-29.548 5.209c-.587.103-1.172.153-1.748.153-4.762 0-8.981-3.414-9.836-8.266-.958-5.439 2.673-10.626 8.112-11.585l29.548-5.209-5.209-29.541c-.959-5.438 2.672-10.625 8.111-11.584 5.44-.959 10.625 2.673 11.584 8.111l5.209 29.542 29.545-5.208c5.438-.946 10.626 2.674 11.585 8.112.958 5.441-2.674 10.628-8.113 11.587zm57.359-81.916l-29.545 5.208 5.21 29.545c.96 5.438-2.672 10.625-8.111 11.584a10.02 10.02 0 01-1.748.154c-4.762 0-8.98-3.414-9.836-8.266l-5.21-29.545-29.549 5.209c-.587.102-1.172.153-1.748.153-4.762 0-8.981-3.414-9.837-8.266-.958-5.439 2.674-10.626 8.112-11.585l29.548-5.209-5.209-29.541c-.96-5.438 2.672-10.625 8.11-11.584 5.438-.958 10.625 2.673 11.584 8.112l5.21 29.542 29.546-5.208c5.439-.947 10.626 2.674 11.585 8.112.958 5.439-2.675 10.627-8.112 11.585z"/></svg>