<svg xmlns="http://www.w3.org/2000/svg" width="1000pt" height="1000pt" viewBox="0 0 1000 1000"><path d="M278.191 528.922l-15.476-19.227-42.082 60.102 23.355 7.969c27.172 4.03 47.282-24.688 34.203-48.844zm-83.488-103.707l-30.332 6.996 3.95 30.746-29.044 5.094 5.118 29.015-30.211 6.82 3.8 30.895 82.118 28.012 49.011-69.996zM914.48 243.02c-8.332-45.266-40.101-85.102-103.007-129.149-62.086-43.469-109.813-58.36-154.758-48.285-46.473 10.426-89.875 47.46-140.727 120.09-48.187 68.816-85.672 151.988-100.273 222.48-6.7 32.356-8.777 61.883-6.336 88.274l-69.281 247.433c-10.899-1.11-22.059 3.54-28.79 13.153l-83.644 119.46c-9.898 14.137-6.465 33.622 7.672 43.52l17.066 11.95c14.137 9.902 33.625 6.464 43.524-7.676l83.648-119.457c4.738-6.77 6.39-14.766 5.305-22.352l217.484-154.875c24.469-7.04 50.164-18.906 76.82-35.64 61.684-38.731 125.704-101.848 175.641-173.165 49.707-70.988 68.66-126.836 59.656-175.761zM387.383 729.527l44.86-160.218c9.859 16.035 22.737 29.71 38.612 40.828 16.192 11.34 33.797 18.816 52.618 22.48zm433.308-334.64c-46.175 65.941-107.359 126.418-163.668 161.773-45.671 28.676-110.906 55.309-162.27 19.344-25.597-17.926-38.89-45.16-43.1-77.559a20.687 20.687 0 00-.81-7.355c-7.34-84.988 43.575-201.969 99.27-281.516 43.852-62.625 80.621-95.457 115.719-103.328a83.936 83.936 0 0118.453-2.039c28.324 0 60.473 13.816 103.285 43.797 53.23 37.273 79.735 68.902 85.93 102.559 6.855 37.222-9.926 83.078-52.809 144.324zm0 0"/></svg>