<svg xmlns="http://www.w3.org/2000/svg" viewBox="0 0 480 480"><path d="M133.532 253.882l-7.429-9.228-20.2 28.849 11.212 3.825c13.042 1.934 22.695-11.851 16.417-23.446zm-40.074-49.778l-14.559 3.358 1.894 14.758-13.939 2.444 2.456 13.928-14.501 3.274 1.824 14.829 39.416 13.446 23.525-33.598-26.116-32.439zm345.493-87.454c-3.999-21.729-19.249-40.849-49.444-61.991-29.801-20.866-52.711-28.014-74.283-23.177-22.307 5.004-43.14 22.781-67.55 57.643-23.13 33.032-41.122 72.954-48.13 106.79-3.216 15.531-4.214 29.703-3.042 42.372l-33.255 118.767c-5.231-.532-10.589 1.7-13.819 6.313l-40.15 57.341c-4.751 6.786-3.103 16.139 3.684 20.891l8.191 5.735c6.786 4.752 16.14 3.103 20.892-3.684l40.15-57.34c2.275-3.25 3.068-7.088 2.546-10.729l104.394-74.34c11.745-3.379 24.078-9.075 36.873-17.108 29.609-18.59 60.338-48.886 84.308-83.118 23.859-34.075 32.957-60.882 28.635-84.365zM185.943 350.173l21.534-76.905c4.732 7.697 10.913 14.262 18.533 19.598 7.772 5.442 16.223 9.031 25.256 10.79l-65.323 46.517zm207.989-160.628c-22.164 31.653-51.532 60.682-78.56 77.651-21.924 13.765-53.235 26.549-77.891 9.286-12.286-8.604-18.667-21.677-20.688-37.229a9.93 9.93 0 00-.388-3.53c-3.524-40.795 20.916-96.945 47.65-135.127 21.048-30.06 38.697-45.819 55.544-49.598a40.287 40.287 0 018.858-.978c13.595 0 29.026 6.632 49.576 21.021 25.552 17.892 38.273 33.074 41.247 49.229 3.29 17.866-4.765 39.878-25.348 69.275z"/></svg>