<svg xmlns="http://www.w3.org/2000/svg" width="1000pt" height="1000pt" viewBox="0 0 1000 1000"><path d="M791.668 331.543V187.398c0-23.011-18.656-41.664-41.668-41.664H271.832c-22.594 0-41.836 17.57-42.637 40.149-.843 23.703 18.121 43.183 41.637 43.183h420.836c9.203 0 16.664 7.461 16.664 16.668v67.004c-3.453-.148-406.25-.238-406.25-.238C169.766 312.5 62.5 419.766 62.5 552.082c0 132.32 107.266 239.586 239.582 239.586h395.836c132.316 0 239.582-107.266 239.582-239.586 0-99.047-60.11-184.05-145.832-220.539zm0 0"/></svg>