<svg xmlns="http://www.w3.org/2000/svg" width="1000pt" height="1000pt" viewBox="0 0 1000 1000"><path d="M824.21 345.762c34.083 23.828 76.231 16.172 100.095-17.856 23.863-34.027 16.37-76.457-17.711-100.285-34.082-23.828-76.586-16.351-100.45 17.676-23.867 34.031-16.015 76.637 18.067 100.465zM204.169 631.086c-89.606 0-162.5 72.898-162.5 162.5 0 89.605 72.894 162.5 162.5 162.5 89.602 0 162.5-72.895 162.5-162.5 0-89.602-72.898-162.5-162.5-162.5zm0 283.336c-66.629 0-120.836-54.211-120.836-120.836s54.207-120.832 120.836-120.832C270.793 672.754 325 726.96 325 793.586s-54.203 120.836-120.832 120.836zm591.664-283.336c-.719 0-1.426.047-2.14.055l-22.86-38.5V354.168c0-23.016-18.652-41.668-41.664-41.668H395.922c-68.973 0-125.09 56.074-125.09 125 0 23.012 18.656 41.668 41.668 41.668h375v124.906a41.692 41.692 0 005.836 21.274l17.644 29.718c-46.539 28.614-77.648 79.996-77.648 138.52 0 89.605 72.898 162.5 162.5 162.5 89.606 0 162.5-72.895 162.5-162.5 0-89.602-72.894-162.5-162.5-162.5zm0 283.336C729.207 914.422 675 860.21 675 793.586c0-43.313 22.918-81.356 57.25-102.691l44.215 74.484c7.789 13.113 21.648 20.398 35.87 20.398a41.463 41.463 0 0021.231-5.843c19.79-11.746 26.305-37.313 14.559-57.098l-28.309-47.684c55.18 11.157 96.852 60.02 96.852 118.434 0 66.625-54.207 120.836-120.836 120.836zM629.461 617.078l-78.844-82.683c-15.883-16.657-42.254-17.282-58.906-1.403-16.656 15.88-17.281 42.254-1.402 58.906l55.02 57.704-59.567 83.05-94.32-188.777c-10.29-20.582-35.31-28.941-55.899-18.648-20.586 10.285-28.934 35.308-18.648 55.894L441.84 831.195l.09.18 41.629 83.328c7.3 14.606 22.02 23.05 37.308 23.05a41.535 41.535 0 0018.59-4.401c20.586-10.286 28.938-35.309 18.652-55.899l-30.242-60.527 105.297-146.813c11.672-16.265 10.117-38.543-3.703-53.035zm0 0"/></svg>