<svg xmlns="http://www.w3.org/2000/svg" viewBox="0 0 480 480"><path d="M170.364 150h69.657l-56.195 35.709a20 20 0 00-5.775 28.18l22.57 32.958c3.866 5.646 10.131 8.702 16.519 8.702 3.674 0 7.388-1.011 10.709-3.121l91.833-58.346 28.389 32.304-8.541 30.458c-2.982 10.636 3.222 21.675 13.856 24.657 1.806.507 3.623.748 5.411.748 8.741 0 16.771-5.775 19.246-14.604l11.472-40.908a20.001 20.001 0 00-4.233-18.603l-80.267-91.337a20.001 20.001 0 00-15.023-6.798h-93.713l-27.889 39.9c.649.065 1.307.101 1.974.101zM41.386 223.388l52.473 36.642a8.001 8.001 0 0011.138-1.977l8.02-11.476a8 8 0 00-1.977-11.142l-18.035-12.594 91.623-131.084c3.164-4.526 2.06-10.761-2.468-13.925-4.526-3.166-10.762-2.06-13.925 2.468L76.607 211.392l-18.041-12.598a8 8 0 00-11.137 1.977l-8.021 11.476a8 8 0 001.978 11.141zm304.244-92.163c16.359 11.438 36.59 7.763 48.045-8.571s7.858-36.699-8.501-48.137c-16.359-11.437-36.761-7.848-48.216 8.485-11.456 16.334-7.687 36.785 8.672 48.223zM98 302.922c-43.01 0-78 34.99-78 77.999 0 43.01 34.99 78.001 78 78.001s78-34.991 78-78.001c0-43.009-34.99-77.999-78-77.999zm0 136c-31.981 0-58-26.02-58-58.001 0-31.98 26.019-57.999 58-57.999s58 26.019 58 57.999c0 31.981-26.018 58.001-58 58.001zm284-136c-43.01 0-78 34.99-78 77.999 0 43.01 34.99 78.001 78 78.001s78-34.991 78-78.001c0-43.009-34.99-77.999-78-77.999zm0 136c-31.981 0-58-26.02-58-58.001 0-31.98 26.019-57.999 58-57.999s58 26.019 58 57.999c0 31.981-26.018 58.001-58 58.001zM302.229 296.29l-29.699-31.545c-7.571-8.04-20.228-8.425-28.271-.852-8.042 7.571-8.424 20.229-.852 28.271l18.413 19.558-28.654 39.951-45.273-90.613c-4.938-9.88-16.948-13.891-26.831-8.952-9.881 4.938-13.889 16.949-8.952 26.831l59.974 120.035.043.086 19.983 39.997c3.504 7.011 10.568 11.065 17.907 11.065 3.003 0 6.054-.68 8.924-2.113 9.881-4.938 13.889-16.949 8.952-26.831l-14.516-29.054 50.543-70.469c5.574-7.77 4.866-18.401-1.691-25.365z"/></svg>