<svg xmlns="http://www.w3.org/2000/svg" viewBox="0 0 480 480"><path d="M395.621 165.966c16.359 11.438 36.59 7.763 48.045-8.571s7.859-36.699-8.501-48.137c-16.359-11.437-36.761-7.848-48.216 8.485-11.455 16.334-7.688 36.785 8.672 48.223zM98 302.922c-43.01 0-78 34.99-78 77.999 0 43.01 34.99 78.001 78 78.001s78-34.991 78-78.001c0-43.009-34.99-77.999-78-77.999zm0 136c-31.981 0-58-26.02-58-58.001 0-31.98 26.019-57.999 58-57.999s58 26.019 58 57.999c0 31.981-26.018 58.001-58 58.001zm284-136c-.345 0-.685.021-1.028.026L370 284.467V170c0-11.046-8.954-20-20-20H190.043C156.936 150 130 176.916 130 210c0 11.046 8.954 20 20 20h180v59.956c0 3.593.968 7.12 2.802 10.21l8.469 14.266C318.932 328.166 304 352.83 304 380.921c0 43.01 34.99 78.001 78 78.001s78-34.991 78-78.001c0-43.009-34.99-77.999-78-77.999zm0 136c-31.981 0-58-26.02-58-58.001 0-20.789 11.001-39.05 27.48-49.291l21.224 35.751c3.738 6.296 10.391 9.793 17.217 9.793 3.472 0 6.989-.904 10.191-2.805 9.498-5.639 12.627-17.91 6.988-27.408l-13.588-22.888C419.998 329.429 440 352.882 440 380.921c0 31.981-26.018 58.001-58 58.001zm-79.858-142.724l-37.845-39.689c-7.624-7.994-20.283-8.295-28.276-.673-7.994 7.623-8.295 20.282-.673 28.276l26.409 27.696-28.592 39.865-45.273-90.613c-4.938-9.88-16.948-13.891-26.831-8.952-9.881 4.938-13.889 16.949-8.952 26.831l59.974 120.035.043.086 19.983 39.997c3.504 7.011 10.568 11.065 17.907 11.065 3.003 0 6.054-.68 8.924-2.113 9.881-4.938 13.889-16.949 8.952-26.831l-14.516-29.054 50.543-70.469c5.603-7.809 4.856-18.501-1.777-25.457z"/></svg>