<svg xmlns="http://www.w3.org/2000/svg" width="1000pt" height="1000pt" viewBox="0 0 1000 1000"><path d="M802.828 77.992c-14.742-17.668-41.02-20.039-58.687-5.3L556.598 229.16H440.09L249.164 95.473c-18.851-13.203-44.832-8.618-58.027 10.23-13.203 18.848-8.621 44.832 10.23 58.027l194.465 136.165v220.93c0 23.01 18.656 41.663 41.668 41.663h125c23.012 0 41.668-18.652 41.668-41.664V297.996L797.523 136.68c17.672-14.743 20.047-41.016 5.305-58.688zM592.141 616.367c-16.176-16.367-42.555-16.531-58.926-.355-16.367 16.172-16.528 42.554-.356 58.922l78.254 79.203-6.902 153.187c-1.035 22.985 16.762 42.465 39.75 43.5.64.028 1.273.043 1.906.043 22.149 0 40.586-17.441 41.594-39.793l7.723-171.386a41.663 41.663 0 00-11.985-31.16zm-141.133-10.472c-21.953-6.887-45.34 5.328-52.23 27.28l-84.368 268.88c-6.89 21.957 5.328 45.34 27.281 52.23a41.723 41.723 0 0012.489 1.922c17.722 0 34.156-11.398 39.742-29.203l84.371-268.875c6.887-21.957-5.328-45.34-27.285-52.234zm1.535-434.586c39.379 27.574 88.074 18.714 115.652-20.664 27.575-39.38 18.918-88.48-20.46-116.055-39.38-27.574-88.493-18.922-116.067 20.457-27.574 39.379-18.504 88.687 20.875 116.262zm0 0"/></svg>