<svg xmlns="http://www.w3.org/2000/svg" viewBox="0 0 480 480"><path d="M385.357 37.437c-7.076-8.481-19.688-9.619-28.17-2.545l-90.02 75.104h-55.924l-91.644-64.17c-9.049-6.337-21.519-4.136-27.854 4.911-6.336 9.048-4.137 21.52 4.911 27.854L190 143.95v106.045c0 11.046 8.954 20 20 20h60c11.046 0 20-8.954 20-20V143.039l92.812-77.433c8.482-7.076 9.622-19.688 2.545-28.169zM284.228 295.856c-7.765-7.856-20.427-7.934-28.284-.171-7.857 7.764-7.934 20.427-.171 28.284l37.562 38.017-3.313 73.529c-.497 11.034 8.045 20.383 19.079 20.88.308.014.611.021.916.021 10.631 0 19.48-8.372 19.964-19.1l3.707-82.266a20.002 20.002 0 00-5.752-14.957l-43.708-44.237zm-67.744-5.026c-10.537-3.307-21.763 2.557-25.07 13.095l-40.497 129.061c-3.307 10.539 2.557 21.764 13.095 25.071 1.993.625 4.011.922 5.994.922 8.507 0 16.396-5.471 19.077-14.017l40.497-129.061c3.307-10.539-2.557-21.763-13.096-25.071zm.737-208.601c18.902 13.235 42.276 8.983 55.512-9.919s9.081-42.471-9.821-55.706c-18.902-13.236-42.476-9.083-55.711 9.819-13.236 18.902-8.883 42.569 10.02 55.806z"/></svg>