<svg xmlns="http://www.w3.org/2000/svg" viewBox="0 0 480 480"><path d="M449.922 267.777a17.88 17.88 0 00-5.285-12.725 17.876 17.876 0 00-12.713-5.259h-.021l-384 .416c-4.809.005-9.327 1.883-12.723 5.286s-5.263 7.926-5.258 12.733l.186 171.998c.006 5.52 4.481 9.989 10 9.989h.011c5.522-.006 9.995-4.488 9.989-10.011L50.076 410h380l.032 29.794c.006 5.52 4.481 9.99 10 9.989h.011c5.522-.006 9.995-4.488 9.989-10.011l-.186-171.995zm-269.916 2.289l49.994-.053V320h-49.994v-49.934zm-70.006.077l50.006-.054V320H110v-49.857zm-60.075.065L90 270.164V320H49.978l-.053-49.792zM50.053 390L50 340h40v49.979l.001.021H50.053zm59.946 0l.001-.021V340h50.006v49.979l.001.021h-50.008zm70.006 0l.001-.021V340H230v49.979l.001.021h-49.996zm69.994 0l.001-.021V340h50v49.979l.001.021h-50.002zM300 269.999V320h-50v-50.001l-.001-.008 50.004-.055-.003.063zM319.999 390l.001-.021V340h50.015v49.979l.001.021h-50.017zm50.015-120.001V320H320v-50.001l-.004-.084 50.025-.054-.007.138zm59.91-.203l.054 50.204h-39.964v-50.001l-.008-.16 39.918-.043zM390.013 390l.001-.021V340H430l.055 50h-40.042zM265.972 131.75h-51.929a8.306 8.306 0 00-7.909 5.732l-16.035 49.386a8.314 8.314 0 003.007 9.289l42.009 30.509a8.279 8.279 0 009.771 0l41.991-30.509a8.295 8.295 0 003.024-9.289l-16.035-49.386a8.302 8.302 0 00-7.894-5.732zM147.569 230l8.877-22.575a7.52 7.52 0 00-2.235-8.55l-40.884-33.483c2.646-23.081 11.479-44.31 24.795-61.978l35.049-.272a7.49 7.49 0 006.661-4.186l19.669-39.864c12.729-4.274 26.349-6.591 40.499-6.591 14.151 0 27.771 2.316 40.499 6.591l19.682 39.864a7.454 7.454 0 006.66 4.186l35.037.272c13.315 17.668 22.149 38.895 24.795 61.977l-40.886 33.484a7.518 7.518 0 00-2.235 8.55L332.428 230h49.029c5.529-15.64 8.548-32.464 8.548-49.994C390.006 97.157 322.833 30 240 30 157.152 30 89.995 97.157 89.995 180.006c0 17.53 3.018 34.354 8.546 49.994h49.028z"/></svg>