<svg xmlns="http://www.w3.org/2000/svg" width="1000pt" height="1000pt" viewBox="0 0 1000 1000"><path d="M937.336 557.867c-.008-10.015-3.918-19.433-11.008-26.508-7.082-7.066-16.484-10.957-26.488-10.957h-.043l-800 .868c-10.02.007-19.43 3.921-26.504 11.011-7.078 7.09-10.965 16.512-10.957 26.528l.39 358.328c.012 11.5 9.333 20.812 20.833 20.812h.023c11.504-.015 20.82-9.351 20.809-20.86l-.067-62.921h791.668l.067 62.07c.011 11.5 9.336 20.813 20.832 20.809h.023c11.504-.012 20.824-9.348 20.813-20.856zm-562.324 4.77l104.156-.11v104.141H375.012zm-145.844.16l104.18-.113v103.984h-104.18zm-125.156.137l83.488-.094v103.828h-83.379zm.265 249.566l-.109-104.168H187.5v104.125l.004.043zm124.887 0l.004-.043V708.332h104.18V812.5zm145.848 0V708.332h104.156V812.5zm145.82 0V708.332H625v104.125l.004.043zM625 562.496v104.172H520.832V562.48l104.176-.113zM666.664 812.5l.004-.043V708.332h104.195v104.125l.004.043zm104.2-250.004v104.172H666.667V562.496l-.008-.172 104.219-.113zm124.812-.422l.113 104.594h-83.262V562.496l-.015-.332zM812.527 812.5V708.332h83.305l.117 104.168zM554.11 274.48H445.922c-7.508 0-14.156 4.813-16.477 11.942L396.04 389.309a17.315 17.315 0 006.266 19.351l87.52 63.563a17.25 17.25 0 0020.355 0l87.48-63.563a17.28 17.28 0 006.3-19.351l-33.405-102.887a17.299 17.299 0 00-16.446-11.942zM307.434 479.168l18.496-47.031a15.665 15.665 0 00-4.657-17.813l-85.175-69.758c5.511-48.086 23.914-92.312 51.656-129.12l73.02-.567c5.874-.031 11.25-3.406 13.874-8.719l40.98-83.05c26.517-8.907 54.892-13.731 84.372-13.731 29.48 0 57.855 4.824 84.371 13.73l41.008 83.051a15.527 15.527 0 0013.875 8.719l72.992.566c27.738 36.809 46.145 81.032 51.656 129.121l-85.18 69.758a15.665 15.665 0 00-4.656 17.813l18.493 47.031h102.144c11.52-32.586 17.809-67.633 17.809-104.156C812.512 202.41 672.57 62.5 500 62.5c-172.602 0-312.512 139.91-312.512 312.512 0 36.523 6.29 71.57 17.805 104.156zm0 0"/></svg>