<svg xmlns="http://www.w3.org/2000/svg" viewBox="0 0 480 480"><path d="M143.346 254.518c10.981-13.665 7.984-33.524-6.141-43.416-8.75-6.127-19.632-6.929-28.807-3.09l-20.834-57.229a2.684 2.684 0 00-3.441-1.604l-6.938 2.525c-5.226 1.902-7.92 7.681-6.019 12.906l11.972 32.964L54.7 177.662c-4.394-3.076-10.551-2.447-13.904 1.738-3.675 4.586-2.666 11.243 2.07 14.56l28.757 20.137H36.516c-5.562 0-10.069 4.508-10.069 10.069v7.384a2.686 2.686 0 002.686 2.685h60.902c-.504 10.636 4.66 21.292 14.67 27.254 12.72 7.576 29.365 4.57 38.641-6.971zM405.325 47.817C348.863 8.282 260.721 36.745 208.453 111.39c-45.307 64.705-48.777 142.864-12.124 188.286a7.978 7.978 0 01.315 9.586L116.296 424.01a8.002 8.002 0 001.964 11.143l19.66 13.766a8 8 0 0011.142-1.965l80.027-114.291a7.982 7.982 0 019.265-2.93c55.437 20.176 128.771-9.772 174.565-75.174 52.268-74.645 48.868-167.207-7.594-206.742z"/></svg>