<svg xmlns="http://www.w3.org/2000/svg" width="1000pt" height="1000pt" viewBox="0 0 1000 1000"><path d="M298.637 530.246c22.879-28.469 16.633-69.844-12.793-90.45-18.23-12.765-40.899-14.437-60.016-6.437l-43.402-119.226a5.592 5.592 0 00-7.168-3.344l-14.457 5.262c-10.887 3.96-16.5 16-12.54 26.887l24.942 68.675-59.246-41.484c-9.152-6.406-21.98-5.098-28.965 3.621-7.656 9.555-5.555 23.422 4.313 30.332l59.91 41.953h-73.14c-11.587 0-20.977 9.39-20.977 20.977v15.383a5.594 5.594 0 005.597 5.593h126.88c-1.052 22.16 9.706 44.36 30.562 56.782 26.5 15.78 61.175 9.52 80.5-14.524zM844.426 99.617c-117.63-82.363-301.258-23.066-410.149 132.445-94.39 134.801-101.617 297.633-25.257 392.262 4.648 5.762 4.902 13.906.656 19.973l-167.39 239.058c-5.282 7.54-3.45 17.934 4.089 23.215l40.957 28.676c7.54 5.281 17.934 3.45 23.215-4.094L477.27 693.047c4.316-6.164 12.226-8.676 19.3-6.102 115.496 42.032 268.274-20.36 363.676-156.613 108.895-155.512 101.809-348.348-15.82-430.715zm0 0"/></svg>