<svg xmlns="http://www.w3.org/2000/svg" width="1000pt" height="1000pt" viewBox="0 0 1000 1000"><path d="M584.84 537.96l-53.203 62.075-4.196 4.895 137.61 160.547c20.035-12.512 38.8-27.387 55.922-44.5a320.74 320.74 0 0016.082-17.325l-147.5-172.086c-1.426 2.196-2.965 4.352-4.715 6.395zm80.207-303.433L527.44 395.07l4.196 4.899 53.203 62.07c1.754 2.043 3.289 4.2 4.715 6.399l147.5-172.086a319.281 319.281 0 00-16.082-17.325c-17.121-17.117-35.887-31.988-55.926-44.5zM553.203 489.152l-218.25-254.625c-20.039 12.512-38.805 27.383-55.926 44.5a322.328 322.328 0 00-16.082 17.325l165.258 192.8a16.666 16.666 0 010 21.696L262.945 703.645a319.466 319.466 0 0016.082 17.328c17.121 17.117 35.887 31.988 55.926 44.5l218.25-254.625a16.675 16.675 0 000-21.696zM500 83.332C269.883 83.332 83.332 269.882 83.332 500c0 230.117 186.55 416.668 416.668 416.668 230.117 0 416.668-186.55 416.668-416.668 0-230.117-186.55-416.668-416.668-416.668zm250.434 667.102C683.543 817.324 594.602 854.168 500 854.168s-183.543-36.844-250.434-103.734C182.672 683.543 145.832 594.602 145.832 500s36.84-183.543 103.734-250.434C316.457 182.672 405.398 145.832 500 145.832s183.543 36.84 250.434 103.734C817.324 316.457 854.168 405.398 854.168 500s-36.844 183.543-103.734 250.434zm0 0"/></svg>