<svg xmlns="http://www.w3.org/2000/svg" viewBox="0 0 480 480"><path d="M280.723 258.222l-25.537 29.794-2.015 2.351 66.053 77.061a151.248 151.248 0 0026.843-21.36 153.177 153.177 0 007.72-8.315l-70.801-82.602c-.685 1.055-1.422 2.089-2.263 3.071zm38.5-145.649l-66.052 77.061 2.015 2.351 25.537 29.793c.842.981 1.578 2.016 2.263 3.072l70.801-82.601a152.807 152.807 0 00-7.72-8.315 151.225 151.225 0 00-26.844-21.361zm-53.686 122.22L240 205l-79.223-92.427a151.218 151.218 0 00-26.843 21.361 153.177 153.177 0 00-7.72 8.315l79.324 92.544a8 8 0 010 10.413l-79.324 92.544a152.854 152.854 0 007.72 8.316 151.131 151.131 0 0026.843 21.36L240 275l25.537-29.794a8 8 0 000-10.413zM240 40C129.543 40 40 129.543 40 240s89.543 200 200 200 200-89.543 200-200S350.457 40 240 40zm120.208 320.208C328.1 392.316 285.408 410 240 410c-45.409 0-88.1-17.684-120.208-49.792C87.683 328.1 70 285.408 70 240c0-45.409 17.683-88.1 49.792-120.208C151.9 87.683 194.591 70 240 70c45.408 0 88.1 17.683 120.208 49.792C392.316 151.9 410 194.591 410 240c0 45.408-17.684 88.1-49.792 120.208z"/></svg>