<svg xmlns="http://www.w3.org/2000/svg" viewBox="0 0 480 480"><path d="M224.514 314.227l-98.299-68.83c-9.05-6.336-21.519-4.135-27.854 4.912s-4.137 21.52 4.911 27.854l81.924 57.363-57.477 82.243c-6.331 9.052-4.126 21.521 4.925 27.853a19.91 19.91 0 0011.446 3.613c6.309 0 12.517-2.978 16.406-8.538l68.935-98.624c6.329-9.05 4.128-21.514-4.917-27.846zm-99.948 3.263c-9.049-6.336-21.519-4.137-27.854 4.91L23.148 427.659c-6.336 9.048-4.137 21.52 4.911 27.854a19.907 19.907 0 0011.454 3.619c6.305 0 12.51-2.975 16.4-8.53l73.563-105.259c6.337-9.046 4.138-21.519-4.91-27.853zM257.511 93.134c18.902 13.235 42.276 8.983 55.512-9.919s9.081-42.47-9.821-55.706c-18.902-13.235-42.476-9.082-55.711 9.82-13.236 18.902-8.883 42.569 10.02 55.805zm204.632 121.877l-102.49-.21c-1.714-10.527-8.913-19.212-18.574-23.016-5.259-2.07-10.958 1.788-10.958 7.44v1.651h-24.912l-15.856-55.518a19.997 19.997 0 00-7.77-10.896l-2.749-1.923-.226-.175-49.148-34.416c-.281-.197-.576-.361-.864-.542L213.098 86.57a19.994 19.994 0 00-11.444-3.611l-51.533-.043V29.715c0-11.045-8.954-20-20-20s-20 8.954-20 20v73.184c0 11.039 8.943 19.99 19.982 20l57.426.049-54.779 78.162a19.999 19.999 0 004.904 27.859l49.18 34.451a20.003 20.003 0 0014.946 3.314 19.995 19.995 0 0012.912-8.225l46.439-66.316 9.761 34.176a20 20 0 0019.23 14.508h40c0 5.113 5.05 8.714 9.877 7.027 10.104-3.53 17.724-12.331 19.597-23.104l102.529.21h.01a5 5 0 00.008-9.999z"/></svg>