<svg xmlns="http://www.w3.org/2000/svg" width="1000pt" height="1000pt" viewBox="0 0 1000 1000"><path d="M467.738 654.64L262.95 511.243c-18.855-13.199-44.832-8.613-58.031 10.235-13.195 18.847-8.617 44.832 10.23 58.03l170.676 119.505-119.742 171.34c-13.191 18.859-8.598 44.836 10.258 58.027a41.485 41.485 0 0023.848 7.527c13.144 0 26.078-6.203 34.18-17.789L477.98 712.652c13.188-18.855 8.602-44.82-10.242-58.011zm-208.226 6.798c-18.852-13.2-44.832-8.618-58.028 10.23L48.227 890.957c-13.204 18.848-8.622 44.832 10.23 58.027a41.47 41.47 0 0023.863 7.54c13.133 0 26.063-6.196 34.164-17.77l153.258-219.29c13.203-18.847 8.621-44.831-10.23-58.027zm276.968-467.41c39.38 27.574 88.075 18.714 115.653-20.665 27.574-39.379 18.918-88.476-20.461-116.054-39.379-27.57-88.492-18.918-116.067 20.46-27.574 39.38-18.503 88.684 20.875 116.258zM962.797 447.94l-213.52-.437c-3.57-21.934-18.57-40.027-38.695-47.953-10.957-4.313-22.828 3.726-22.828 15.5v3.441h-51.902L602.82 302.828a41.673 41.673 0 00-16.187-22.7l-5.73-4.007-.47-.363-102.39-71.7c-.586-.41-1.203-.753-1.8-1.128l-32.29-22.575a41.62 41.62 0 00-23.84-7.523l-107.36-.09V61.906c0-23.011-18.655-41.668-41.667-41.668s-41.668 18.657-41.668 41.668v152.465c0 23 18.633 41.649 41.629 41.668l119.637.102-114.122 162.84a41.652 41.652 0 00-6.914 31.132 41.686 41.686 0 0017.13 26.907l102.46 71.773a41.684 41.684 0 0023.907 7.539c2.406 0 4.828-.215 7.23-.637a41.655 41.655 0 0026.898-17.136l96.75-138.157 20.336 71.2c5.106 17.886 21.457 30.226 40.063 30.226h83.332c0 10.652 10.52 18.152 20.578 14.637 21.05-7.352 36.926-25.688 40.828-48.133l213.602.438h.02c5.741 0 10.402-4.649 10.417-10.395.008-5.75-4.648-10.422-10.402-10.434zm0 0"/></svg>