<svg xmlns="http://www.w3.org/2000/svg" viewBox="0 0 480 480"><path d="M96.967 339.766c.397.023.798.036 1.2.036h90.817c4.95 0 6.164-6.862 1.524-8.588l-.251-.094c-35.545-13.241-69.799-30.412-101.812-51.038a460.28 460.28 0 01-1.535-.994c-2.979-1.936-6.91.204-6.91 3.756v38.38c0 9.641 7.342 17.971 16.967 18.542zm351.854-56.736c-5.881-16.916-22.847-29.048-41.722-29.048-90.087 0-165.065-64.116-182.112-149.192l-.036-.176C223.168 96.038 215.433 90 206.674 90H99.812C88.87 90 80 98.87 80 109.812v136.243a8.011 8.011 0 003.428 6.566 498.682 498.682 0 0015.85 10.647c31.268 20.145 75.486 43.534 130.723 59.925V370H40.343c-5.326 0-9.977 4.02-10.321 9.335C29.644 385.159 34.257 390 40 390h400c5.523 0 10-4.478 10-10v-89.827c0-2.429-.382-4.849-1.179-7.143zM430 362a8 8 0 01-8 8H250v-41.31a500.417 500.417 0 0050.376 10.005c5.108.744 10.27 1.106 15.433 1.106l43.552-.001H422a8 8 0 018 8V362z"/></svg>