<svg xmlns="http://www.w3.org/2000/svg" viewBox="0 0 480 480"><path d="M181.498 82.759c18.902 13.235 42.276 8.983 55.512-9.919s9.081-42.471-9.821-55.706-42.476-9.082-55.711 9.82-8.882 42.569 10.02 55.805zm182.135 28.263l-53.676 17.892-53.676-17.892-.249-.069c-.345-.109-.691-.198-1.038-.289-.305-.078-.607-.164-.915-.229-.304-.064-.606-.106-.91-.156-.359-.059-.718-.122-1.081-.161-.249-.027-.496-.035-.744-.053-.415-.028-.83-.059-1.249-.062l-.138-.007h-57.975L110 93.604V42.132l3.104-.5c10.905-1.759 18.319-12.024 16.562-22.929C127.907 7.799 117.638.381 106.737 2.141l-19.92 3.212C77.125 6.916 70 15.282 70 25.099V110a19.998 19.998 0 0016.079 19.611l83.919 16.779-.041 83.409a19.999 19.999 0 0019.998 20.009l59.996.01h.003a19.998 19.998 0 0020-19.999l.003-72.076 33.677 11.226a20.002 20.002 0 0012.648 0l60-20c10.479-3.493 16.143-14.819 12.649-25.298-3.494-10.48-14.821-16.142-25.298-12.649zm-73.72 158.974h-99.809c-11.046 0-20 8.954-20 20s8.954 20 20 20h70.26l-28.882 72.15c-4.105 10.255.88 21.896 11.135 26a19.94 19.94 0 007.427 1.438c7.936 0 15.444-4.755 18.573-12.572l39.863-99.583a19.997 19.997 0 00-2.005-18.643 19.996 19.996 0 00-16.562-8.79zm-99.942 53.697h-.004c-11.043 0-19.998 8.952-20 19.996l-.008 37.671-35.675 45.322c-6.832 8.68-5.334 21.254 3.346 28.086a19.91 19.91 0 0012.356 4.285c5.921 0 11.783-2.618 15.729-7.631l39.957-50.764a20.001 20.001 0 004.284-12.366l.01-44.596c.003-11.044-8.949-20.001-19.995-20.003zm190.1-313.945c-16.569 0-30 13.432-30 30 0 16.569 13.431 30 30 30 16.568 0 30-13.431 30-30 0-16.568-13.431-30-30-30z"/></svg>