<svg xmlns="http://www.w3.org/2000/svg" width="1000pt" height="1000pt" viewBox="0 0 1000 1000"><path d="M378.121 172.414c39.379 27.574 88.074 18.715 115.649-20.664 27.578-39.379 18.921-88.48-20.461-116.055-39.38-27.574-88.489-18.922-116.063 20.457-27.574 39.383-18.504 88.688 20.875 116.262zm379.45 58.883L645.741 268.57l-111.824-37.273-.52-.145a43.34 43.34 0 00-2.16-.601c-.636-.164-1.265-.344-1.906-.477-.633-.133-1.262-.222-1.898-.328-.746-.121-1.493-.254-2.25-.332-.52-.059-1.036-.074-1.551-.113-.863-.059-1.73-.121-2.602-.13l-.289-.01H399.961l-170.793-34.153V87.773l6.465-1.039c22.719-3.664 38.164-25.05 34.504-47.77-3.664-22.718-25.059-38.171-47.77-34.503l-41.5 6.691c-20.191 3.258-35.035 20.684-35.035 41.137v176.879c0 19.86 14.02 36.96 33.5 40.855l174.832 34.957-.086 173.766a41.652 41.652 0 0012.195 29.477 41.675 41.675 0 0029.465 12.21l124.992.02h.008a41.661 41.661 0 0041.664-41.664l.008-150.156 70.16 23.387a41.657 41.657 0 0013.176 2.136c4.45 0 8.899-.71 13.176-2.136l125-41.668c21.832-7.278 33.629-30.872 26.351-52.704-7.28-21.832-30.878-33.628-52.703-26.351zM603.983 562.492H396.051c-23.012 0-41.668 18.653-41.668 41.668 0 23.012 18.656 41.664 41.668 41.664h146.375l-60.172 150.313c-8.55 21.367 1.832 45.617 23.2 54.168a41.578 41.578 0 0015.472 2.996c16.531 0 32.176-9.906 38.691-26.192l83.051-207.464a41.665 41.665 0 00-4.18-38.84 41.648 41.648 0 00-34.504-18.313zM395.774 674.36h-.008c-23.008 0-41.664 18.653-41.668 41.66l-.016 78.481-74.324 94.422c-14.235 18.082-11.113 44.277 6.972 58.512a41.476 41.476 0 0025.743 8.925c12.332 0 24.547-5.453 32.765-15.898l83.246-105.758a41.682 41.682 0 008.926-25.762l.02-92.906c.004-23.012-18.645-41.672-41.657-41.676zM791.815 20.31c-34.52 0-62.5 27.984-62.5 62.5 0 34.52 27.98 62.5 62.5 62.5 34.516 0 62.5-27.98 62.5-62.5 0-34.516-27.984-62.5-62.5-62.5zm0 0"/></svg>