<svg xmlns="http://www.w3.org/2000/svg" viewBox="0 0 480 480"><path d="M268.662 321.108l-98.299-68.829c-9.05-6.337-21.52-4.136-27.854 4.911-6.336 9.048-4.137 21.52 4.911 27.854l81.924 57.363-57.319 81.945c-6.331 9.052-4.126 21.521 4.925 27.853a19.91 19.91 0 0011.446 3.613c6.309 0 12.516-2.977 16.406-8.538l68.777-98.326c6.329-9.048 4.128-21.513-4.917-27.846zm-99.947 3.263c-9.05-6.336-21.519-4.136-27.854 4.911l-68.829 98.299c-6.336 9.048-4.137 21.52 4.911 27.854a19.907 19.907 0 0011.454 3.619c6.305 0 12.51-2.975 16.4-8.53l68.829-98.299c6.336-9.047 4.137-21.519-4.911-27.854zm132.944-224.355c18.902 13.235 42.276 8.983 55.512-9.919s9.081-42.471-9.821-55.706-42.476-9.082-55.711 9.82-8.882 42.569 10.02 55.805zm116.133 8.113c-9.05-6.337-21.519-4.136-27.855 4.911l-34.415 49.149-32.404-22.689c-.124-.092-.237-.194-.364-.283l-49.149-34.414c-.121-.085-.249-.151-.372-.233l-48.774-34.152a20.003 20.003 0 00-27.854 4.912l-63.694 90.965c-6.336 9.048-4.137 21.52 4.911 27.854 7.836 5.486 18.229 4.562 24.991-1.655a20.027 20.027 0 002.863-3.256l7.216-10.306v-.001c2.663 6.637 6.682 12.695 11.981 17.727a50.304 50.304 0 002.022 1.827 49.774 49.774 0 005.964 4.34c.165.103.333.197.498.297.368.223.736.446 1.108.658.199.113.4.218.601.328.343.189.686.38 1.032.56.213.111.43.214.644.322.336.168.671.338 1.009.498.227.107.454.206.682.31.33.15.66.303.992.445.233.1.469.192.703.289.329.135.659.271.991.398.237.092.477.177.715.265.332.122.664.244.997.358.241.083.484.16.727.239.332.108.665.216.999.317.246.074.494.145.741.215.333.095.666.189 1 .277.249.065.5.127.75.188a48.8 48.8 0 001.004.238c.252.058.506.11.759.163a49.364 49.364 0 005.34.816 56.066 56.066 0 001.79.146 57.029 57.029 0 001.796.083 56.7 56.7 0 001.01.018c.153.001.306.008.459.008l.189-.006a52.311 52.311 0 002.989-.098l.427-.027a52.36 52.36 0 002.976-.289l.429-.056c.99-.133 1.979-.292 2.964-.479.138-.026.275-.055.412-.082.99-.197 1.976-.419 2.957-.671.128-.033.255-.068.382-.103.99-.262 1.976-.549 2.954-.867l.33-.111c.994-.33 1.982-.686 2.961-1.073l.251-.103a55.461 55.461 0 002.982-1.294l.145-.07a56.725 56.725 0 003.02-1.536 2.156 2.156 0 001.097-1.628c.282-2.417.409-4.834.383-7.235-.188-16.807-7.897-32.82-22.246-42.488a50.496 50.496 0 00-1.58-1.021c-.175-.107-.352-.208-.527-.314-.358-.216-.716-.434-1.078-.639-.212-.121-.426-.232-.639-.35-.329-.182-.658-.364-.99-.537-.23-.12-.464-.232-.696-.348a47.074 47.074 0 00-.712-.353l-.243-.12c-.242-.115-.487-.222-.73-.332-.313-.143-.626-.286-.941-.422-.25-.107-.502-.207-.753-.31-.312-.128-.625-.257-.938-.378-.257-.099-.514-.191-.771-.285-.312-.114-.624-.229-.938-.337-.261-.09-.522-.173-.784-.259a53.87 53.87 0 00-.94-.299c-.266-.08-.532-.154-.799-.23-.312-.09-.624-.178-.938-.261a48.4 48.4 0 00-.814-.204c-.312-.076-.623-.152-.936-.223-.274-.062-.55-.119-.825-.177-.312-.064-.624-.128-.938-.187a32.861 32.861 0 00-.832-.147 48.215 48.215 0 00-4.502-.561 58.037 58.037 0 00-2.647-.142c-.228-.007-.456-.009-.684-.013l.003-.003 9.899-14.139 10.364-14.802 16.361 11.456-6.981 9.962a64.343 64.343 0 015.91 3.533c20.5 13.813 31.375 38.301 28.379 63.907a17.17 17.17 0 01-8.785 13.037c-10.399 5.7-22.01 8.712-33.576 8.712-8.362 0-16.518-1.571-24.113-4.59a64.29 64.29 0 01-12.196-6.43 64.267 64.267 0 01-6.68-5.182c-.159-.142-.323-.279-.481-.422a48.654 48.654 0 00-3.844-1.492c-19.263-6.455-39.201 2.722-54.437 12.115a9.076 9.076 0 00-.518.229c-40.969 19.391-71.178 2.588-72.394 1.892a9.999 9.999 0 00-14.596 11.666l8.037 25.112a10 10 0 004.266 5.458c6.144 3.798 13.315 5.749 20.996 5.749 1.861 0 3.754-.115 5.668-.346a49.351 49.351 0 003.346-.52c14.146-2.689 25.999-11.395 36.455-19.075 2.788-2.047 5.42-3.98 8.017-5.752 12.471-8.507 33.34-22.746 48.805-17.565 5.004 1.678 9.727 4.878 14.622 8.425.523.454 1.068.887 1.641 1.288l49.181 34.449a19.996 19.996 0 0014.946 3.315 19.999 19.999 0 0012.912-8.225l57.344-81.89 32.782 22.954a19.907 19.907 0 0011.454 3.619c6.305-.001 12.51-2.975 16.4-8.53l45.887-65.532c6.332-9.043 4.133-21.514-4.915-27.85z"/></svg>