<svg xmlns="http://www.w3.org/2000/svg" viewBox="0 0 480 480"><path d="M437.198 61.796c-4.531-3.157-10.764-2.044-13.922 2.486L255.348 305.225l-.129.207c-.093.14-.188.274-.274.42-3.889 3.196-25.008 8.012-58.452 5.232-21.254-1.767-62.046-7.904-96.438-29.158-18.983-11.732-33.658-8.883-42.624-4.427-14.612 7.262-25.287 24.911-27.195 44.966-2.158 22.698 10.741 45.972 34.507 62.259 6.29 4.309 28.523 14.504 56.273 22.704 19.329 5.711 45.688 11.682 71.415 11.681 6.913 0 13.785-.431 20.457-1.414 19.978-2.945 34.265-14.836 41.317-34.389a9.98 9.98 0 00.249-.793l18.293-67.273L439.684 75.718c3.158-4.531 2.045-10.764-2.486-13.922zM77.379 369.047a21.57 21.57 0 01-1.332-.822c-13.103-8.979-26.494-24.486-26.024-41.705 10.761 7.292 21.962 13.606 33.34 19.039l-5.984 23.488zm11.031-43.306c-10.935-5.418-21.944-11.881-32.578-19.567 2.823-4.905 6.464-8.759 10.499-10.765 2.35-1.168 4.882-1.751 7.588-1.751 4.704 0 9.93 1.764 15.622 5.281a168.11 168.11 0 004.947 2.938l-6.078 23.864zm37.14 62.214c-11.292-3.389-21.484-7.089-29.698-10.41l6.096-23.928a305.297 305.297 0 0029.815 9.947l-6.213 24.391zm11.167-43.837a288.528 288.528 0 01-29.778-10.099l5.859-23.001c9.608 4.192 19.589 7.693 29.664 10.545l-5.745 22.555zm39.804 54.265c-10.633-.991-21.354-2.887-31.645-5.275l6.314-24.788a311.649 311.649 0 0031.708 5.024l-6.377 25.039zm11.374-44.652a281.115 281.115 0 01-16.302-2.039 294.205 294.205 0 01-15.447-2.823l5.754-22.592a283.357 283.357 0 0031.808 4.634l-5.813 22.82zm47.535 22.803l-.04-.014c-4.521 12.537-12.836 19.532-25.419 21.387-4.219.622-8.562.993-12.983 1.148l6.196-24.325c2.387.071 4.73.116 6.993.116 8.869 0 16.753-.534 23.333-1.488.985-.143 1.935-.297 2.864-.457a335.08 335.08 0 00-.944 3.633zm9.095-33.731l-2.137 7.859c-4.158 1.998-16.005 4.309-34.133 4.161l5.836-22.912c13.175.11 24.906-.886 34.156-2.797l-3.722 13.689zM380 339.996c-22.093 0-40.003 17.91-40.003 40.004s17.91 40.004 40.003 40.004c22.094 0 40.004-17.91 40.004-40.004S402.093 339.996 380 339.996z"/></svg>