<svg xmlns="http://www.w3.org/2000/svg" width="1000pt" height="1000pt" viewBox="0 0 1000 1000"><path d="M916.668 895.832H83.332c-11.504 0-20.832 9.332-20.832 20.836 0 11.504 9.328 20.832 20.832 20.832h833.336c11.504 0 20.832-9.328 20.832-20.832 0-11.504-9.328-20.836-20.832-20.836zM77 727.75l335.3 125a20.8 20.8 0 007.27 1.316 20.827 20.827 0 0017.07-8.89l496.153-708.227c6.598-9.426 4.309-22.414-5.117-29.015-9.418-6.598-22.414-4.309-29.016 5.117L467.617 727.94c-4.691 6.704-13.555 9.004-20.918 5.442L131.273 580.625a20.836 20.836 0 00-17.96-.098 20.85 20.85 0 00-11.36 13.918L64.035 703.301C61.54 713.559 67.105 724.062 77 727.75zm663.527 63.918c-17.257 0-31.25 13.992-31.25 31.25s13.993 31.25 31.25 31.25h104.168c17.258 0 31.25-13.992 31.25-31.25s-13.992-31.25-31.25-31.25zm0 0"/></svg>