<svg xmlns="http://www.w3.org/2000/svg" viewBox="0 0 480 480"><path d="M440 430H40c-5.522 0-10 4.478-10 10s4.478 10 10 10h400c5.522 0 10-4.478 10-10s-4.478-10-10-10zM36.96 349.32l160.944 60a10 10 0 0011.684-3.635L447.74 65.735c3.168-4.523 2.068-10.759-2.456-13.927-4.521-3.167-10.759-2.068-13.927 2.456L224.456 349.412a8 8 0 01-10.04 2.611L63.012 278.7a10 10 0 00-14.074 6.634l-18.201 52.25a10 10 0 006.223 11.736zM355.454 380c-8.284 0-15 6.716-15 15s6.716 15 15 15h49.999c8.284 0 15-6.716 15-15s-6.716-15-15-15h-49.999z"/></svg>