<svg xmlns="http://www.w3.org/2000/svg" viewBox="0 0 480 480"><path d="M443.998 175.31L329.316 95.009a19.997 19.997 0 00-20.946-1.23l-78.733 42.354c-9.728 5.233-13.371 17.36-8.139 27.088s17.361 13.37 27.088 8.139l43.705-23.511-43.305 61.791a19.998 19.998 0 004.904 27.859l49.181 34.45a20.003 20.003 0 0027.858-4.91l57.357-81.91 24.002 16.807-1.404 61.391c-.252 11.043 8.495 20.199 19.538 20.452.156.003.311.005.466.005 10.832-.001 19.737-8.656 19.986-19.543l1.648-72.092a20 20 0 00-8.524-16.839zM291.605 288.342l-81.916-57.357a20.002 20.002 0 00-22.423-.353l-90.123 58.973c-9.242 6.048-11.832 18.443-5.784 27.687 3.838 5.865 10.231 9.052 16.754 9.051 3.756 0 7.555-1.057 10.933-3.267l78.792-51.559 70.824 49.591c9.05 6.336 21.519 4.136 27.854-4.911 6.337-9.05 4.137-21.52-4.911-27.855zm-50.718 37.564c-9.049-6.337-21.52-4.136-27.854 4.911l-67.786 96.809c-6.336 9.048-4.137 21.52 4.911 27.854a19.907 19.907 0 0011.454 3.619c6.305 0 12.51-2.975 16.4-8.53l67.786-96.809c6.336-9.047 4.137-21.519-4.911-27.854zM373.67 101.43c18.902 13.235 42.276 8.983 55.512-9.919s9.081-42.471-9.821-55.706-42.476-9.083-55.711 9.819-8.882 42.569 10.02 55.806zM97.961 241.614c0-16.568-13.432-30-30-30s-30 13.432-30 30 13.432 30 30 30 30-13.431 30-30z"/></svg>