<svg xmlns="http://www.w3.org/2000/svg" viewBox="0 0 480 480"><path d="M163.439 155.999l50.83-43.885 20.005 14.008-57.377 81.87a19.998 19.998 0 004.904 27.859l49.181 34.449a19.996 19.996 0 0014.946 3.315 19.999 19.999 0 0012.912-8.225l57.356-81.908 32.767 22.943a19.985 19.985 0 008.907 3.452l44.238 5.719c.871.112 1.734.167 2.59.167 9.903 0 18.506-7.354 19.81-17.438 1.416-10.955-6.316-20.983-17.271-22.399l-39.36-5.088-45.108-31.586-.011-.008-45.091-31.572-53.208-37.257a20 20 0 00-24.542 1.244L137.3 125.72c-8.36 7.219-9.286 19.848-2.068 28.209 7.217 8.362 19.847 9.288 28.207 2.07zm-28.432 225.676c2.178-.687 7.309-3.9 10.745-6.054 5.221-3.271 11.468-7.172 18.685-10.271l9.189-13.124c6.336-9.048 4.137-21.52-4.911-27.854-9.05-6.336-21.519-4.136-27.854 4.911l-31.677 45.239c3.888 1.046 7.605 2.242 11.143 3.382 4.898 1.576 11.59 3.732 14.68 3.771zm166.652-281.659c18.902 13.235 42.276 8.983 55.512-9.919s9.081-42.471-9.821-55.706-42.476-9.082-55.711 9.82-8.882 42.569 10.02 55.805zm127.26 226.844c0-16.568-13.432-30-30-30s-30 13.432-30 30c0 16.569 13.432 30 30 30s30-13.43 30-30zM240 395.922c-6.414 0-13.861-3.49-21.745-7.186-.585-.274-1.171-.549-1.758-.822l-.675-.313c-.379-.176-.758-.353-1.138-.527-.247-.114-.496-.226-.744-.339-.355-.162-.71-.325-1.066-.485l-.794-.353c-.344-.152-.687-.305-1.031-.454-.268-.117-.537-.23-.807-.346-.344-.147-.688-.294-1.033-.438-.27-.112-.54-.222-.811-.331a93.21 93.21 0 00-1.036-.416 92.139 92.139 0 00-.821-.316 87.703 87.703 0 00-1.039-.39c-.275-.102-.552-.199-.828-.297a53.742 53.742 0 00-1.878-.633 56.225 56.225 0 00-2.963-.867 50.848 50.848 0 00-.832-.215 50.888 50.888 0 00-1.093-.253 46.836 46.836 0 00-.827-.18 46.637 46.637 0 00-1.116-.209c-.272-.048-.545-.099-.818-.142a38.002 38.002 0 00-1.153-.16c-.266-.035-.531-.073-.798-.103-.403-.044-.809-.075-1.214-.106-.251-.02-.501-.044-.753-.059-.44-.025-.885-.035-1.328-.044-.22-.005-.438-.017-.658-.018a35.627 35.627 0 00-1.983.048c-11.797.638-21.938 6.992-30.887 12.6-6.09 3.815-11.878 7.437-17.045 8.642-.642.149-1.275.269-1.897.339-.396.045-.798.076-1.206.097-.148.008-.302.007-.452.012-.25.007-.5.015-.755.015a27.868 27.868 0 01-2.115-.096l-.36-.03a36.137 36.137 0 01-2.161-.265l-.377-.061a49.552 49.552 0 01-2.272-.418l-.242-.053a66.811 66.811 0 01-2.339-.542l-.165-.04a92.066 92.066 0 01-2.409-.646l-.4-.111c-.777-.222-1.558-.453-2.341-.69l-.483-.147a201.1 201.1 0 01-2.333-.729l-.499-.158c-.777-.248-1.554-.498-2.328-.747l-1.686-.542-.667-.213-1.159-.367-.73-.229-1.156-.358c-.226-.068-.451-.139-.678-.207-.549-.166-1.099-.33-1.648-.49l-.333-.096c-.533-.154-1.067-.305-1.603-.451-.209-.058-.418-.113-.627-.169-.401-.107-.803-.213-1.205-.315-.229-.059-.458-.115-.687-.172a74.36 74.36 0 00-1.219-.291c-.208-.048-.416-.098-.624-.144a71.596 71.596 0 00-1.806-.381l-.172-.031a63.74 63.74 0 00-1.403-.257l-.003.005-.242-.044c-.203-.033-.406-.062-.609-.095a58.536 58.536 0 00-1.238-.178c-.223-.029-.445-.058-.668-.084a44.4 44.4 0 00-1.254-.131c-.198-.019-.396-.04-.595-.056a42.576 42.576 0 00-1.815-.111l-.185-.004a40.816 40.816 0 00-1.641-.022c-.203.001-.405.009-.608.013a34.577 34.577 0 00-3.179.208c-.189.021-.378.038-.567.062-.611.077-1.223.168-1.833.28-18.724 3.459-32.769 16.004-45.16 27.072a661.429 661.429 0 01-3.8 3.379c-4.144 3.651-4.544 9.97-.894 14.114a9.976 9.976 0 007.508 3.39 9.96 9.96 0 006.606-2.496 829.8 829.8 0 003.902-3.47c9.979-8.913 20.272-18.083 32.026-21.483a35.677 35.677 0 013.443-.838 13.83 13.83 0 011.256-.166c.136-.012.276-.018.414-.027a17.43 17.43 0 011.343-.037c.585.006 1.185.032 1.803.086.092.008.187.02.279.029.603.059 1.218.137 1.847.234l.212.031c.661.107 1.34.238 2.028.384a62.52 62.52 0 012.865.677c.696.181 1.4.371 2.114.574l.148.042c.752.216 1.516.444 2.285.679l.452.138c.744.229 1.494.464 2.25.704l.529.17c.746.238 1.496.479 2.251.722.579.187 1.16.374 1.742.56l.55.176 1.271.404.664.208 1.146.356.737.225c.369.112.738.223 1.108.332.244.072.487.146.731.217.397.115.796.229 1.194.341.214.061.427.122.642.181.597.166 1.194.326 1.793.481l.185.046c.557.144 1.113.281 1.672.414.212.05.425.097.638.146.4.092.802.183 1.203.269.247.053.494.102.741.152.372.075.744.148 1.116.218.143.026.285.057.429.083.114.021.229.036.345.057.372.064.744.125 1.117.184.252.039.505.079.758.115.399.058.8.107 1.2.156.225.027.449.059.674.083.604.066 1.21.124 1.817.169.108.008.218.012.326.02.525.035 1.053.064 1.58.083.229.008.46.009.69.013.379.008.758.013 1.138.011.51-.003 1.021-.021 1.532-.041.225-.009.449-.013.675-.025a39.484 39.484 0 002.212-.185c10.144-1.152 18.868-6.619 27.305-11.906 7.565-4.74 14.711-9.218 21.347-9.576.319-.018.645-.018.973-.014.172.002.347.011.521.019.206.009.413.019.623.036.181.015.364.034.547.054a20.271 20.271 0 011.832.279 34.683 34.683 0 011.236.268 27.936 27.936 0 011.26.332c.206.058.412.117.62.18.221.066.443.137.667.207.209.067.419.135.631.206.226.075.453.155.682.235a38.185 38.185 0 011.334.487c.216.082.432.164.649.248.234.092.471.188.706.281.219.088.437.176.656.266.242.1.485.203.729.306.217.091.432.181.649.274.254.109.51.221.766.333.21.093.419.183.631.276l.79.354.627.282c.285.13.572.263.858.395l.561.257c.34.157.683.317 1.024.477.14.064.277.129.417.194l1.441.674c9.52 4.462 19.363 9.076 30.232 9.076s20.713-4.614 30.233-9.076c.496-.232.989-.464 1.481-.693h.001c.482-.226.962-.449 1.439-.67l.201-.093a253.906 253.906 0 011.568-.716c.355-.161.711-.321 1.062-.478l.437-.192a148.124 148.124 0 011.438-.62 68.143 68.143 0 011.41-.584c.284-.114.567-.229.849-.339l.121-.048-19.134-13.378c-7.647 3.577-14.867 6.882-21.107 6.882zm206.623 26.609a604.214 604.214 0 01-3.08-2.749c-11.409-10.226-27.033-24.229-45.897-27.714a32.995 32.995 0 00-1.833-.281c-.187-.023-.375-.041-.563-.062a33.08 33.08 0 00-1.92-.161 43.228 43.228 0 00-1.297-.049c-.187-.004-.372-.01-.559-.012-.585-.004-1.17.003-1.755.025l-.072.001c-.437.017-.873.05-1.31.08.325 1.19.603 2.4.82 3.631a39.897 39.897 0 01-.505 16.406l.261-.027c.094-.009.189-.021.282-.029a22.86 22.86 0 012.218-.085c.318.004.63.018.937.037.135.009.271.015.402.027.431.039.854.091 1.261.166 13.335 2.462 26.54 14.298 36.182 22.939 1.102.987 2.163 1.938 3.183 2.84.248.22.506.423.769.613.091.066.187.122.279.185.175.118.351.236.531.342.112.065.228.122.342.184.167.089.333.179.503.257.123.057.249.106.373.158.166.068.333.137.501.196.13.046.261.085.392.125a9.067 9.067 0 001.42.326 9.525 9.525 0 00.925.097c.135.008.268.015.402.018.153.003.307-.002.46-.007.188-.005.374-.013.561-.028a10.855 10.855 0 001.431-.226 9.27 9.27 0 00.538-.143 8.508 8.508 0 00.956-.333c.139-.056.277-.11.413-.173.174-.08.345-.17.515-.261.13-.069.262-.136.39-.21.173-.103.341-.217.509-.33.116-.079.235-.152.35-.237.181-.134.354-.281.527-.429.093-.079.19-.151.281-.234a9.91 9.91 0 00.747-.758c3.657-4.137 3.268-10.457-.87-14.115zm-77.868-26.537c-1.3-3.978-3.832-7.588-7.525-10.17l-8.321-5.817-84.246-58.898-98.299-68.829a20.148 20.148 0 00-1.575-.988c-.16-.092-.323-.175-.484-.262-.39-.208-.783-.403-1.182-.584-.175-.079-.351-.159-.527-.232-.448-.188-.9-.357-1.356-.51-.111-.037-.221-.082-.332-.117a19.643 19.643 0 00-1.712-.455c-.146-.033-.294-.055-.441-.084a17.857 17.857 0 00-1.879-.277c-.429-.043-.857-.07-1.287-.084-.16-.006-.321-.017-.482-.018-.55-.006-1.099.012-1.646.051-.112.008-.224.02-.335.029-.559.051-1.116.117-1.668.213l-.047.007c-.562.1-1.119.231-1.672.378-.111.03-.223.059-.334.09-.537.154-1.069.327-1.594.525l-.257.104c-.495.194-.983.408-1.463.643l-.185.087c-.508.255-1.003.536-1.489.835-.102.062-.202.126-.302.189-.483.31-.958.636-1.417.988l-.143.116c-.429.336-.845.694-1.248 1.069l-.227.207c-.418.4-.82.823-1.207 1.265-.079.091-.156.184-.234.275-.393.465-.773.943-1.129 1.451-6.336 9.048-4.137 21.52 4.911 27.854l98.311 68.838 17.529 12.256 20.653 14.439.002.001 54.395 38.028a19.93 19.93 0 006.82 3.062l.028.008c1.517.358 3.058.54 4.594.54a20.08 20.08 0 009.797-2.56l.004-.002a19.925 19.925 0 006.608-5.98c3.746-5.359 4.479-11.909 2.593-17.681z"/></svg>