<svg xmlns="http://www.w3.org/2000/svg" width="1000pt" height="1000pt" viewBox="0 0 1000 1000"><path d="M924.996 365.23L686.074 197.934a41.666 41.666 0 00-43.636-2.563L478.41 283.61c-20.265 10.903-27.855 36.168-16.957 56.434 10.902 20.266 36.168 27.855 56.434 16.957l91.054-48.98-90.218 128.73a41.678 41.678 0 00-6.918 31.137 41.683 41.683 0 0017.132 26.902l102.461 71.77a41.66 41.66 0 0023.907 7.543c2.406 0 4.828-.211 7.23-.637a41.626 41.626 0 0026.899-17.133L808.93 385.684l50.004 35.015-2.926 127.899c-.524 23.007 17.699 42.082 40.703 42.609.328.004.648.008.973.008 22.566 0 41.117-18.031 41.636-40.711l3.434-150.195a41.657 41.657 0 00-17.758-35.079zM607.512 600.71L436.852 481.22a41.668 41.668 0 00-46.715-.735l-187.754 122.86c-19.254 12.601-24.653 38.422-12.051 57.68 7.996 12.218 21.313 18.859 34.902 18.859a41.471 41.471 0 0022.778-6.809L412.164 565.66l147.547 103.317c18.855 13.199 44.832 8.613 58.031-10.235 13.203-18.851 8.617-44.832-10.23-58.031zm-105.664 78.263c-18.852-13.203-44.832-8.618-58.028 10.23L302.598 890.887c-13.2 18.851-8.618 44.836 10.23 58.031a41.48 41.48 0 0023.863 7.539c13.137 0 26.063-6.2 34.168-17.773L512.08 737c13.198-18.848 8.62-44.832-10.231-58.027zm276.632-467.66c39.38 27.574 88.075 18.714 115.649-20.665 27.574-39.378 18.918-88.48-20.461-116.054-39.379-27.574-88.492-18.922-116.063 20.457-27.574 39.379-18.503 88.683 20.875 116.261zm-574.394 292.05c0-34.515-27.984-62.5-62.5-62.5s-62.5 27.985-62.5 62.5c0 34.516 27.984 62.5 62.5 62.5s62.5-27.98 62.5-62.5zm0 0"/></svg>