<svg xmlns="http://www.w3.org/2000/svg" viewBox="0 0 480 480"><path d="M140.004 250c0-22.094-17.91-40.004-40.004-40.004-22.093 0-40.003 17.91-40.003 40.004s17.91 40.004 40.003 40.004c22.094 0 40.004-17.91 40.004-40.004zM405.325 47.634c-56.462-39.535-144.604-11.072-196.872 63.573-45.307 64.705-48.777 142.864-12.124 188.286a7.978 7.978 0 01.315 9.586l-80.348 114.749a8 8 0 001.964 11.142l19.66 13.766a8 8 0 0011.142-1.964L229.09 332.48a7.982 7.982 0 019.265-2.93c55.437 20.176 128.771-9.773 174.565-75.175 52.267-74.645 48.867-167.206-7.595-206.741z"/></svg>