<svg xmlns="http://www.w3.org/2000/svg" viewBox="0 0 480 480"><path d="M449.742 178.476c-2.128-33.267-16.748-61.003-41.168-78.102-24.417-17.099-55.483-21.351-87.471-11.972-31.185 9.143-59.62 30.261-80.068 59.465-20.448 29.202-30.567 63.146-28.492 95.576.657 10.284 2.513 20.037 5.478 29.113l-2.819 84.65c-5.638-1.097-11.65 1.104-15.157 6.111l-40.15 57.341c-4.752 6.786-3.103 16.14 3.684 20.891l8.191 5.736c6.786 4.752 16.139 3.103 20.891-3.684l40.15-57.341c3.507-5.009 3.518-11.41.56-16.333l78.593-31.607c9.539-.317 19.335-1.906 29.219-4.804 31.185-9.143 59.62-30.261 80.068-59.465 20.446-29.201 30.565-63.145 28.491-95.575zM235.535 347.5l1.37-41.129a91.739 91.739 0 0036.819 25.771L235.535 347.5zm169.331-84.918c-24.516 35.011-60.975 55.097-94.587 55.759-.17-.005-.341.001-.512.005-16.071.223-31.475-4.003-44.587-13.184-13.102-9.174-22.336-22.188-27.626-37.351-.06-.179-.118-.357-.188-.532-10.869-31.81-4.462-72.935 20.051-107.941 24.933-35.606 62.218-55.78 96.3-55.78 15.637 0 30.601 4.247 43.386 13.199 19.342 13.543 30.947 35.915 32.68 62.995 1.785 27.916-7.064 57.332-24.917 82.83zM192.37 230c1.072-32.302 12.285-65.047 32.282-93.604 23.043-32.909 55.298-56.77 90.824-67.186a144.627 144.627 0 0114.527-3.463V38a8 8 0 00-8-8h-284a8 8 0 00-8 8v184a8 8 0 008 8h2.843c4.776-28.341 29.477-50.004 59.154-50.004s54.377 21.663 59.154 50.004h33.216zm-69.503-22.767c-18.096-12.671-43.038-8.272-55.709 9.823a39.92 39.92 0 00-5.969 12.943c-4.047 15.688 1.739 32.926 15.792 42.766 18.096 12.672 43.038 8.273 55.709-9.822 6.98-9.97 8.771-22.015 5.953-32.943-2.296-8.908-7.649-17.076-15.776-22.767zM94.381 230a45.296 45.296 0 01-2.646 4.265 44.725 44.725 0 01-20.051 15.905 30.13 30.13 0 01-1.771-10.13A34.78 34.78 0 0082.439 230c.376-.481.75-.965 1.104-1.471a34.762 34.762 0 006.153-16.732 30.142 30.142 0 0110.125-1.795A44.739 44.739 0 0194.381 230zm21.899 21.452a34.76 34.76 0 00-6.155 16.755A30.167 30.167 0 01100 270.003a44.714 44.714 0 018.089-24.286c5.092-7.273 11.971-12.555 19.624-15.717.14-.058.274-.127.415-.184l.058.184a30.178 30.178 0 011.722 9.943 34.769 34.769 0 00-13.628 11.509z"/></svg>