<svg xmlns="http://www.w3.org/2000/svg" width="1000pt" height="1000pt" viewBox="0 0 1000 1000"><path d="M499.89 83.332C269.767 83.332 83.228 269.875 83.228 500c0 230.082 186.539 416.668 416.664 416.668 230.086 0 416.668-186.586 416.668-416.668 0-230.125-186.582-416.668-416.668-416.668zM267.806 576.164L215.102 710.41c-43.52-58.836-69.27-131.613-69.27-210.41 0-13.7.809-27.207 2.32-40.496l113.446 92.91c7 5.75 9.5 15.332 6.207 23.75zm46.46-289.668l-97.374.758c42.636-56.649 101.867-100.086 170.484-123.09l-54.61 110.707c-3.5 7.082-10.667 11.582-18.5 11.625zM500 854.168c-41.148 0-80.645-7.043-117.383-19.945l106.684-62.77a20.726 20.726 0 0121.168 0l106.668 62.856c-36.668 12.847-76.082 19.859-117.137 19.859zm130.098-300.266L513.46 638.648a23.001 23.001 0 01-27.14 0l-116.684-84.746a23.093 23.093 0 01-8.356-25.8l44.543-137.18c3.09-9.508 11.953-15.926 21.969-15.926h144.242a23.058 23.058 0 0121.922 15.926l44.54 137.18c3.093 9.507-.274 19.894-8.4 25.8zm36.957-279.03l-54.723-110.825c68.754 22.976 128.098 66.473 170.8 123.207l-97.577-.758a20.706 20.706 0 01-18.5-11.625zm117.77 435.64l-52.852-134.348a20.884 20.884 0 016.207-23.75l113.656-93.105A357.922 357.922 0 01854.168 500c0 78.844-25.777 151.66-69.344 210.512zm0 0"/></svg>