<svg xmlns="http://www.w3.org/2000/svg" viewBox="0 0 480 480"><path d="M239.948 40c-110.46 0-200 89.54-200 200 0 110.44 89.54 200 200 200 110.44 0 200-89.56 200-200 0-110.46-89.559-200-200-200zM128.547 276.558l-25.299 64.438C82.359 312.756 70 277.823 70 240c0-6.575.387-13.059 1.113-19.439l54.453 44.598a10.023 10.023 0 012.981 11.399zm22.3-139.039l-46.74.363c20.466-27.191 48.896-48.041 81.833-59.083l-26.213 53.14c-1.68 3.399-5.12 5.559-8.88 5.58zM240 410c-19.751 0-38.709-3.38-56.344-9.573l51.209-30.129a9.947 9.947 0 0110.16 0l51.201 30.17C278.625 406.635 259.707 410 240 410zm62.447-144.127l-55.986 40.678a11.037 11.037 0 01-13.027 0l-56.009-40.678a11.084 11.084 0 01-4.01-12.385l21.38-65.845a11.074 11.074 0 0110.546-7.644h69.235c4.785 0 9.039 3.079 10.523 7.644l21.38 65.845a11.058 11.058 0 01-4.032 12.385zm17.74-133.934L293.92 78.742c33.001 11.029 61.487 31.907 81.984 59.14l-46.838-.363a9.938 9.938 0 01-8.879-5.58zm56.528 209.106l-25.368-64.487c-1.58-4.04-.38-8.64 2.979-11.399l54.555-44.69A171.801 171.801 0 01410 240c0 37.845-12.373 72.797-33.285 101.045z"/></svg>