<svg xmlns="http://www.w3.org/2000/svg" viewBox="0 0 480 480"><path d="M175.736 159.296a8.018 8.018 0 01-.382-.265l-.164-.117-.122-.084-.097-.064c-4.79 5.777-9.369 11.815-13.438 18.411a162.248 162.248 0 00-19.965 48.702c1.335 1.391 2.794 2.644 4.438 3.698 12.222 7.836 36.577-3.713 69.01-32.571a133.106 133.106 0 00-4.02-5 286.057 286.057 0 01-1.932-2.321c-9.7-11.578-20.817-21.889-33.328-30.389zM90.831 139.39c14.168 4.379 23.751 19.161 29.295 30.791 2.737 5.743 4.688 12.074 6.424 18.415a187.28 187.28 0 0112.924-25.014c3.879-6.293 8.146-12.176 12.588-17.836-2.959-1.36-5.977-2.475-9.014-3.596l-1.642-.607c-.639-.239-1.276-.491-1.915-.743-1.248-.493-2.502-.988-3.774-1.396-3.846-1.288-7.735-2.27-11.645-3.233-1.765-.449-3.53-.898-5.314-1.294a156.85 156.85 0 00-10.312-1.837 154.894 154.894 0 0117.201-23.172c.781.188 1.56.383 2.34.579.667.168 1.335.336 2.006.499.767.187 1.534.359 2.301.532 1.43.323 2.857.646 4.275 1.052.539.16 1.097.339 1.636.518.515.14 1.013.319 1.512.5h.001c.443.16.888.32 1.345.452 3.128.978 6.199 2.063 9.251 3.184.518.191 1.043.36 1.569.529.606.194 1.213.389 1.809.619.144.059.282.121.421.184s.277.126.421.185c.646.254 1.281.553 1.917.853.492.232.985.466 1.486.678 3.782 1.595 7.508 3.242 11.21 5.089.176.086.354.165.535.244.226.1.455.2.683.317 4.112 2.094 8.224 4.261 12.235 6.696.104.059.209.112.314.166.169.085.336.17.489.274 15.67 9.66 29.528 21.791 41.691 35.506.114.131.234.253.352.372h.001c.115.118.229.234.334.354.448.502.865 1.034 1.281 1.566h.001v.001c.139.178.277.354.418.531 2.19 2.571 4.32 5.181 6.386 7.845 17.743-17.661 35.046-37.168 49.318-53.899-30.279-30.659-71.906-48.373-115.888-48.255a153.013 153.013 0 0155.274-17.427c29.025 8.796 55.591 24.468 77.302 45.809 1.819-2.194 3.532-4.266 5.117-6.183 5.335-6.453 9.548-11.551 12.255-14.596 8.818-9.923 17.758-16.944 26.403-20.946-27.931-19.4-61.621-31.186-98.15-32.225-75.756-2.154-141.98 42.505-170.942 107.742 5.481-1.525 10.928-1.476 16.275.177zm337.092 81.007c-2.293-3.094-4.771-4.742-7.799-5.189-9.804-1.43-24.502 9.496-34.225 16.738-2.915 2.172-5.669 4.223-8.119 5.854-8.614 5.735-17.295 11.74-25.689 17.547-10.263 7.1-20.875 14.441-31.54 21.412a7.499 7.499 0 01-10.381-2.174 7.499 7.499 0 012.174-10.381l.014-.01c18.057-11.807 34.313-27.89 50.035-43.444l1.776-1.756c18.966-18.747 40.462-39.994 48.018-64.142 2.602-8.315.314-18.569-8.014-21.335-13.973-4.643-25.085 6.802-39.255 23.475-2.798 3.292-5.44 6.401-8.071 9.167-33.854 35.58-69.035 61.952-70.517 63.058a7.5 7.5 0 01-9.995-11.1c23.093-24.995 58.801-65.808 68.338-77.081l1.875-2.206c9.229-10.836 30.84-36.211 28.504-51.925-.594-4-2.771-7.081-6.848-9.695-14.356-9.204-34.053 10.987-39.747 17.396-2.529 2.846-6.668 7.852-11.907 14.189-17.857 21.601-51.098 61.809-84.183 92.69-43.287 40.405-74.185 53.726-94.461 40.717-15.318-9.826-20.104-28.004-24.328-44.041-2.074-7.876-4.033-15.315-6.994-21.525-6.012-12.612-13.18-20.75-20.183-22.915-4.064-1.254-8.326-.538-13.031 2.197-9.828 5.714-8.466 25.173-7.471 39.381.299 4.262.58 8.288.583 11.806.007 9.148-.333 19.075-.692 29.584-1.349 39.433-3.027 88.507 15.722 104.258a7.501 7.501 0 011.434 9.877l-25.12 38.021 34.854 26.754c6.101-17.923 19.585-32.81 37.03-40.485a7.505 7.505 0 017.464.823l65.382 48.088c20.436 6.769 59.216-4.032 106.736-29.793 31.898-17.292 75.123-46.618 86.147-61.052.256-.335.54-.648.85-.937.12-.114 13.729-13.136 7.532-23.03-8.202-13.099-27.96-4.782-59.313 14.016-6.905 4.139-12.868 7.714-17.58 9.724a7.498 7.498 0 01-9.604-3.454 7.499 7.499 0 012.734-9.833c27.476-16.893 55.888-34.36 80.289-56.005 1.574-1.396 3.372-2.913 5.276-4.518 16.547-13.949 30.703-27.407 22.3-38.746zM105.541 424.934l-.109.451 51.196 39.298 31.15-32.908-55.836-41.067c-13.132 7.103-22.866 19.627-26.401 34.226z"/></svg>