<svg xmlns="http://www.w3.org/2000/svg" viewBox="0 0 480 480"><path d="M153.174 185.287c16.817 0 30.5-13.682 30.5-30.5 0-16.817-13.683-30.5-30.5-30.5-16.818 0-30.5 13.683-30.5 30.5 0 16.818 13.681 30.5 30.5 30.5zm48.307 127.158c-9.049-6.337-21.519-4.136-27.854 4.911l-38.42 54.868-89.621 47.078c-10.767 2.468-17.493 13.196-15.025 23.963 2.123 9.263 10.36 15.536 19.477 15.536a20.05 20.05 0 004.486-.511l97.122-48.797c5.598-3.208 9.073-3.965 11.914-8.022l42.833-61.172c6.336-9.047 4.136-21.519-4.912-27.854zm178.59-282.426c-19.582 0-34.73 12.189-38.87 29.981h77.736c-4.138-17.792-19.283-29.981-38.866-29.981zm-62.052 273.68l-106.837-46.758c-10.117-4.43-21.913.186-26.341 10.304-4.429 10.119.185 21.912 10.304 26.341L290 335.1l.443 103.81c0 11.046 8.954 20 20 20s20-8.954 20-20L330 322.021a20.001 20.001 0 00-11.981-18.322zM341.208 80c4.176 17.802 19.483 29.982 39.077 29.982S414.875 97.801 418.957 80h-77.749zm42.637 67.778c-.02-.168-.059-.328-.082-.495-.021-.152-.032-.307-.058-.46a17.08 17.08 0 00-.07-.405c-1.151-6.219-5.62-11.946-11.381-14.576l-.104-.054-113.973-51.061a19.984 19.984 0 00-15.396-.399l-79.248 30.678c15.445 3.654 27.842 15.279 32.57 30.284l53.336-20.646 28.595 12.811-56.865 81.141a20 20 0 008.577 29.894l56.491 23.928a19.966 19.966 0 007.793 1.586 20.002 20.002 0 0016.396-8.537l39.649-56.672 7.678 67.469c1.162 10.207 9.813 17.74 19.848 17.74.754 0 1.519-.043 2.286-.13 10.975-1.249 18.859-11.158 17.61-22.134l-13.652-119.962z"/></svg>