<svg xmlns="http://www.w3.org/2000/svg" width="1000pt" height="1000pt" viewBox="0 0 1000 1000"><path d="M351.43 435.957c142.812-13.223 277.84-52.477 400.02-112.937 31.202-15.446 22.976-61.075-11.731-65.493-136.621-17.363-265.563-58.668-382.207-119.48-11.067-5.77-24.297 2.332-24.297 14.808v266.489c0 9.816 8.445 17.52 18.215 16.613zM500 708.332c-77.879 0-149.867 8.14-208.332 21.926V83.332c0-11.504-9.328-20.832-20.832-20.832-11.504 0-20.832 9.328-20.832 20.832L250 741.758v44.05c0 11.505-9.328 20.833-20.832 20.833h-66.703c-8.985 0-16.594 7.129-16.633 16.109v.168C145.832 886.199 304.398 937.5 500 937.5s354.168-51.3 354.168-114.582c0-63.285-158.566-114.586-354.168-114.586zm0 0"/></svg>