<svg xmlns="http://www.w3.org/2000/svg" viewBox="0 0 480 480"><path d="M168.686 209.26c68.551-6.348 133.363-25.19 192.009-54.21 14.979-7.414 11.029-29.317-5.63-31.436-65.579-8.335-127.47-28.161-183.459-57.352-5.312-2.769-11.663 1.119-11.663 7.108v127.915c0 4.712 4.053 8.409 8.743 7.975zM240 340c-37.382 0-71.937 3.907-100 10.523L140.001 40c0-5.522-4.478-10-10-10s-10 4.478-10 10L120 356.043v21.145c0 5.522-4.477 10-10 10H77.983c-4.312 0-7.964 3.421-7.983 7.732v.08c0 30.376 76.111 55 170 55s170-24.624 170-55-76.112-55-170-55z"/></svg>