<svg xmlns="http://www.w3.org/2000/svg" viewBox="0 0 480 480"><path d="M217.221 192.325c18.902 13.236 42.276 8.984 55.512-9.918s9.081-42.471-9.821-55.706c-18.902-13.236-42.475-9.083-55.711 9.819-13.236 18.903-8.883 42.57 10.02 55.805zM240 40C129.543 40 40 129.543 40 240s89.543 200 200 200 200-89.543 200-200S350.457 40 240 40zm120.208 320.208C328.099 392.316 285.409 410 240 410c-45.408 0-88.1-17.684-120.208-49.792S70 285.408 70 240s17.684-88.1 49.792-120.208S194.592 70 240 70c45.409 0 88.1 17.684 120.208 49.792C392.317 151.9 410 194.592 410 240s-17.683 88.1-49.792 120.208zm18.299-166.962c-4.188-10.221-15.869-15.11-26.09-10.924l-109.384 44.82a7.994 7.994 0 01-6.066 0l-109.384-44.82c-10.227-4.188-21.902.702-26.09 10.924-4.188 10.221.703 21.901 10.924 26.09l77.537 31.771v130.374C205.815 387.079 222.682 390 240 390s34.186-2.921 50.047-8.519V251.107l77.536-31.771c10.221-4.189 15.111-15.869 10.924-26.09z"/></svg>