<svg xmlns="http://www.w3.org/2000/svg" viewBox="0 0 480 480"><path d="M272.778 289.916c-10.943-1.52-21.042 6.116-22.562 17.057l-7.396 53.221-33.77 70.252c-4.785 9.955-.595 21.905 9.36 26.69a19.91 19.91 0 008.65 1.979c7.447 0 14.598-4.18 18.04-11.34l35.124-73.068a20.002 20.002 0 001.784-5.912l7.826-56.316c1.521-10.941-6.115-21.042-17.056-22.563zm144.035-109.817l-81.915-57.358a19.978 19.978 0 00-5.722-2.773l-55.248-16.582-5.714-1.872a19.89 19.89 0 00-2.744-.667l-50.836-15.258-14.669-24.974c-5.114 8.687-13.154 15.717-23.345 19.426a44.904 44.904 0 01-10.218 2.413l17.718 30.163a19.997 19.997 0 0011.495 9.025l40.925 12.283-30.957 94.364c-1.653 5.041-1.236 10.532 1.159 15.266s6.573 8.321 11.615 9.974l57.012 18.688a20.005 20.005 0 0025.235-12.778l29.815-91.003 63.449 44.429a19.907 19.907 0 0011.454 3.619c6.305 0 12.51-2.975 16.4-8.53 6.339-9.049 4.139-21.519-4.909-27.855zm-93.11-90.225c20.753-7.554 31.454-30.501 23.9-51.255-7.554-20.753-30.501-31.454-51.255-23.9-20.753 7.554-31.454 30.501-23.9 51.255 7.554 20.753 30.501 31.454 51.255 23.9zm-92.545 203.315c1.718-10.911-5.734-21.148-16.646-22.867l-61.376-9.664a19.994 19.994 0 00-19.493 8.285l-60.685 86.668c-6.336 9.049-4.137 21.52 4.911 27.854a19.907 19.907 0 0011.454 3.619c6.305-.001 12.511-2.975 16.4-8.53l53.523-76.441 49.044 7.723c10.909 1.716 21.149-5.735 22.868-16.647zM171.491 65.945c15.564-5.666 23.591-22.876 17.925-38.441-5.665-15.565-22.876-23.59-38.44-17.925-15.565 5.665-23.591 22.875-17.926 38.441s22.876 23.59 38.441 17.925z"/></svg>