<svg xmlns="http://www.w3.org/2000/svg" width="1000pt" height="1000pt" viewBox="0 0 1000 1000"><path d="M502.156 223.617c-42.601 60.84-63.68 131.555-59.36 199.117 1.372 21.426 5.24 41.746 11.415 60.653l-5.875 176.355c-11.746-2.285-24.27 2.301-31.574 12.735l-83.649 119.457c-9.898 14.136-6.465 33.625 7.676 43.523l17.066 11.95c14.137 9.898 33.622 6.464 43.524-7.677l83.644-119.46c7.305-10.434 7.329-23.77 1.168-34.028l163.735-65.844c19.87-.664 40.281-3.972 60.87-10.011 64.97-19.047 124.212-63.043 166.81-123.883 42.601-60.84 63.683-131.555 59.359-199.121-4.43-69.305-34.89-127.09-85.766-162.711-50.867-35.625-115.59-44.48-182.23-24.942-64.973 19.051-124.211 63.047-166.813 123.887zM490.7 639.52l2.852-85.684a191.24 191.24 0 0035.012 31.613 191.13 191.13 0 0041.695 22.074zm246.215-508.215c32.574 0 63.75 8.847 90.387 27.5 40.297 28.215 64.472 74.824 68.082 131.238 3.719 58.16-14.715 119.441-51.91 172.562-51.075 72.942-127.032 114.79-197.055 116.165-.356-.008-.711.003-1.066.011-33.485.465-65.575-8.34-92.891-27.465-27.297-19.113-46.535-46.226-57.555-77.812-.125-.375-.246-.746-.39-1.11-22.645-66.273-9.297-151.949 41.773-224.878 51.941-74.18 129.617-116.211 200.625-116.211zm179.754 764.527H83.332c-11.504 0-20.832 9.332-20.832 20.836 0 11.504 9.328 20.832 20.832 20.832h833.336c11.504 0 20.832-9.328 20.832-20.832 0-11.504-9.328-20.836-20.832-20.836zm-837.5-416.664h5.93c9.949-59.047 61.41-104.176 123.238-104.176s113.285 45.13 123.238 104.176h78.07c-4.406-17.27-7.246-35.281-8.43-53.777-4.921-76.965 18.802-157.114 66.81-225.672 46.09-65.82 109.87-114.254 180.386-137.219H79.168c-9.207 0-16.668 7.46-16.668 16.668V462.5c0 9.203 7.46 16.668 16.668 16.668zm129.164-62.508c-38.832 0-71.465 26.563-80.715 62.508A83.585 83.585 0 00124.992 500c0 46.027 37.313 83.34 83.34 83.34 46.031 0 83.344-37.313 83.344-83.34 0-7.195-.914-14.176-2.625-20.832-9.254-35.945-41.883-62.508-80.719-62.508zm0 0"/></svg>