<svg xmlns="http://www.w3.org/2000/svg" viewBox="0 0 480 480"><path d="M170.41 101.236h69.656l-56.194 35.709a19.997 19.997 0 00-5.772 28.183l22.555 32.921c3.866 5.645 10.129 8.698 16.516 8.698 3.673 0 7.388-1.011 10.709-3.121l91.822-58.338 28.415 32.334-8.541 30.457c-2.982 10.636 3.221 21.675 13.856 24.657 1.806.507 3.623.748 5.411.748 8.741 0 16.771-5.775 19.246-14.604l11.472-40.907a20.001 20.001 0 00-4.233-18.603L305.06 68.034a20 20 0 00-15.023-6.798h-93.713l-27.889 39.9c.649.064 1.308.1 1.975.1zM41.432 174.623l52.473 36.642a8 8 0 0011.138-1.977l8.02-11.475a8 8 0 00-1.978-11.143L93.05 174.078l91.623-131.084c3.164-4.526 2.06-10.761-2.468-13.925-4.526-3.166-10.762-2.06-13.925 2.468L76.653 162.628 58.612 150.03a8 8 0 00-11.138 1.976l-8.02 11.476a8 8 0 001.978 11.141zm304.244-92.162c16.359 11.437 36.59 7.763 48.045-8.571s7.858-36.7-8.501-48.137c-16.359-11.438-36.762-7.849-48.217 8.485s-7.687 36.785 8.673 48.223zM98.045 410.157c43.01 0 78-34.99 78-78s-34.99-78-78-78-78 34.99-78 78 34.991 78 78 78zm0-136c31.981 0 58 26.019 58 58s-26.019 58-58 58-58-26.019-58-58 26.019-58 58-58zm206 58c0 43.01 34.99 78 78 78s78-34.99 78-78-34.99-78-78-78-78 34.99-78 78zm136 0c0 31.981-26.019 58-58 58s-58-26.019-58-58 26.019-58 58-58 58 26.019 58 58zm-137.771-84.631l-29.698-31.544c-7.568-8.043-20.228-8.425-28.271-.853-8.042 7.571-8.424 20.229-.852 28.271l18.412 19.557-28.655 39.953-45.273-90.613c-4.938-9.88-16.947-13.89-26.831-8.952-9.881 4.938-13.889 16.949-8.952 26.831l59.979 120.049.026.052 19.994 40.018c3.504 7.011 10.568 11.065 17.907 11.065 3.003 0 6.054-.68 8.924-2.113 9.881-4.938 13.889-16.949 8.952-26.831l-14.516-29.053 50.543-70.47a20 20 0 00-1.689-25.367zM440 430H40c-5.522 0-10 4.478-10 10s4.478 10 10 10h400c5.522 0 10-4.478 10-10s-4.477-10-10-10z"/></svg>