<svg xmlns="http://www.w3.org/2000/svg" viewBox="0 0 480 480"><path d="M241.035 107.337c-20.448 29.202-30.567 63.146-28.492 95.576.657 10.284 2.513 20.037 5.478 29.113l-2.819 84.65c-5.638-1.096-11.65 1.104-15.157 6.112l-40.15 57.34c-4.752 6.786-3.103 16.14 3.684 20.892l8.191 5.735c6.786 4.752 16.139 3.103 20.891-3.684l40.15-57.341c3.507-5.008 3.518-11.41.56-16.333l78.593-31.606c9.539-.318 19.335-1.907 29.219-4.805 31.185-9.143 59.62-30.261 80.068-59.465 20.448-29.203 30.567-63.146 28.493-95.577-2.128-33.267-16.748-61.003-41.168-78.102-24.417-17.099-55.483-21.351-87.471-11.972-31.186 9.145-59.622 30.263-80.07 59.467zm-5.5 199.633l1.37-41.128a91.734 91.734 0 0036.819 25.77l-38.189 15.358zM353.718 63.027c15.637 0 30.601 4.247 43.386 13.199 19.342 13.543 30.947 35.915 32.68 62.995 1.785 27.916-7.063 57.332-24.917 82.83-24.516 35.011-60.975 55.098-94.587 55.759-.17-.005-.341.001-.512.005-16.071.223-31.475-4.003-44.587-13.184-13.102-9.173-22.336-22.188-27.626-37.35-.06-.18-.118-.358-.188-.532-10.869-31.811-4.462-72.936 20.051-107.942 24.932-35.606 62.217-55.78 96.3-55.78zM440 430H40c-5.522 0-10 4.478-10 10s4.478 10 10 10h400c5.522 0 10-4.478 10-10s-4.478-10-10-10zM38 230h2.847c4.776-28.341 29.477-50.004 59.154-50.004s54.377 21.663 59.154 50.004h37.475c-2.115-8.289-3.479-16.934-4.046-25.812-2.364-36.944 9.024-75.414 32.068-108.323C246.774 64.271 277.389 41.024 311.236 30H38a8 8 0 00-8 8v184a8 8 0 008 8zm62-30.004c-18.64 0-34.303 12.75-38.743 30.004a40.101 40.101 0 00-1.26 10c0 22.094 17.91 40.004 40.003 40.004 22.094 0 40.004-17.91 40.004-40.004 0-3.453-.438-6.804-1.26-10-4.441-17.254-20.104-30.004-38.744-30.004z"/></svg>