<svg xmlns="http://www.w3.org/2000/svg" width="1000pt" height="1000pt" viewBox="0 0 1000 1000"><path d="M355.02 210.91h145.117l-117.07 74.39a41.66 41.66 0 00-18.47 26.81 41.635 41.635 0 006.446 31.906l46.988 68.586c8.055 11.761 21.102 18.12 34.41 18.12 7.649 0 15.391-2.105 22.309-6.5l191.297-121.538 59.195 67.363-17.793 63.45c-6.21 22.16 6.711 45.155 28.867 51.37a41.705 41.705 0 0011.274 1.559c18.21 0 34.937-12.031 40.094-30.426l23.902-85.223a41.672 41.672 0 00-8.82-38.757L635.543 141.738a41.665 41.665 0 00-31.3-14.164H409.007L350.906 210.7c1.352.133 2.727.211 4.114.211zM86.316 363.797l109.32 76.34c7.544 5.265 17.93 3.425 23.204-4.121l16.707-23.907c5.277-7.546 3.43-17.941-4.121-23.214l-37.57-26.23L384.733 89.57c6.594-9.43 4.293-22.418-5.14-29.011-9.43-6.594-22.422-4.29-29.012 5.144L159.695 338.81l-37.586-26.247c-7.543-5.269-17.933-3.425-23.207 4.118l-16.707 23.906c-5.273 7.547-3.43 17.941 4.121 23.21zM720.16 171.793c34.078 23.828 76.227 16.172 100.094-17.856 23.863-34.027 16.367-76.457-17.711-100.285-34.082-23.828-76.59-16.351-100.453 17.676-23.863 34.031-16.016 76.637 18.07 100.465zm-515.898 682.7c89.601 0 162.5-72.895 162.5-162.5 0-89.602-72.899-162.5-162.5-162.5-89.606 0-162.5 72.898-162.5 162.5 0 89.605 72.898 162.5 162.5 162.5zm0-283.333c66.625 0 120.832 54.207 120.832 120.832 0 66.63-54.207 120.836-120.832 120.836-66.63 0-120.836-54.207-120.836-120.836 0-66.625 54.207-120.832 120.836-120.832zm429.164 120.832c0 89.606 72.898 162.5 162.5 162.5 89.605 0 162.5-72.894 162.5-162.5 0-89.601-72.895-162.5-162.5-162.5-89.602 0-162.5 72.899-162.5 162.5zm283.336 0c0 66.63-54.207 120.836-120.836 120.836-66.625 0-120.832-54.207-120.832-120.836 0-66.625 54.207-120.832 120.832-120.832 66.629 0 120.836 54.207 120.836 120.832zM629.738 515.68l-61.87-65.72c-15.766-16.753-42.141-17.55-58.9-1.776-16.753 15.773-17.55 42.144-1.773 58.898l38.356 40.746-59.696 83.235-94.32-188.778c-10.289-20.582-35.305-28.937-55.898-18.648-20.586 10.285-28.934 35.308-18.649 55.898l124.957 250.102.051.105 41.656 83.371c7.301 14.61 22.016 23.055 37.305 23.055a41.55 41.55 0 0018.594-4.402c20.586-10.29 28.933-35.313 18.648-55.899l-30.242-60.527 105.3-146.813c11.614-16.191 10.138-38.34-3.519-52.847zm286.93 380.152H83.332c-11.504 0-20.832 9.332-20.832 20.836 0 11.504 9.328 20.832 20.832 20.832h833.336c11.504 0 20.832-9.328 20.832-20.832 0-11.504-9.328-20.836-20.832-20.836zm0 0"/></svg>