<svg xmlns="http://www.w3.org/2000/svg" viewBox="0 0 480 480"><path d="M391.518 40.914c-18.902-13.235-42.476-9.083-55.711 9.819s-8.882 42.569 10.021 55.806c18.902 13.235 42.276 8.983 55.512-9.919s9.08-42.471-9.822-55.706zM280.063 304.688l-65.532-45.887c-9.05-6.337-21.519-4.136-27.854 4.911-6.336 9.048-4.137 21.52 4.911 27.854l51.663 36.176-45.087 94.524c-4.755 9.97-.528 21.906 9.441 26.662a19.928 19.928 0 008.597 1.953c7.469-.001 14.636-4.204 18.065-11.395l52.376-109.807c4.208-8.818 1.425-19.386-6.58-24.991zm-111.417-.354c-11.046 0-20 8.954-20 20v23.849l-74.651 76.902c-7.693 7.926-7.506 20.588.42 28.281a19.933 19.933 0 0013.929 5.649 19.942 19.942 0 0014.353-6.069l80.301-82.723a20 20 0 005.649-13.931v-31.959c-.001-11.045-8.956-19.999-20.001-19.999zm206.751-143.602c-.02-.274-.063-.551-.095-.826-.043-.375-.077-.751-.142-1.125l-.013-.102c-.062-.355-.158-.701-.239-1.052-.057-.243-.094-.487-.16-.73l-.021-.065c-.116-.42-.262-.823-.402-1.229-.08-.23-.144-.467-.231-.694-.083-.214-.188-.414-.277-.624a19.891 19.891 0 00-5.329-7.301l-.022-.018a19.845 19.845 0 00-1.508-1.172l-.033-.025-49.148-34.415c-.189-.133-.388-.239-.58-.364-.325-.211-.648-.426-.98-.615-.255-.146-.52-.274-.78-.409-.323-.166-.646-.335-.974-.481-.279-.125-.566-.234-.853-.347-.323-.127-.646-.256-.973-.365-.298-.1-.602-.183-.905-.269-.325-.091-.649-.185-.977-.26-.317-.072-.64-.126-.962-.184-.319-.056-.639-.115-.959-.156-.35-.044-.704-.068-1.06-.094-.296-.021-.591-.049-.887-.058-.404-.011-.814.003-1.224.017-.207.006-.411-.006-.619.008l-127.731 8.059c-9.523.601-17.054 7.777-18.482 16.826 16.842.248 31.693 8.854 40.572 21.859l66.655-4.205-13.381 19.093-44.619 12.149c.008.361.027.721.027 1.084 0 14.251-6.003 27.119-15.602 36.235 3.474 2.726 7.807 4.291 12.344 4.291 1.739 0 3.508-.229 5.267-.707l8.218-2.237a19.964 19.964 0 00-.565 9.235 20.003 20.003 0 008.223 12.914l49.181 34.45a20.003 20.003 0 0027.858-4.91l68.77-98.207.011-.017.048-.067c.121-.173.221-.358.337-.535.231-.354.468-.708.676-1.075.139-.244.255-.5.383-.75.168-.328.344-.652.493-.988.109-.246.197-.501.297-.752.141-.355.289-.708.409-1.07.074-.225.129-.456.196-.684.117-.399.237-.799.33-1.205.044-.197.071-.399.11-.599.086-.442.172-.885.228-1.332.023-.187.03-.375.048-.562.045-.46.087-.921.1-1.386.006-.209-.008-.42-.009-.63-.005-.439-.007-.88-.039-1.322zm-217.312 51.911c16.568 0 30-13.432 30-30s-13.432-30-30-30-30 13.432-30 30 13.432 30 30 30z"/></svg>