<svg xmlns="http://www.w3.org/2000/svg" viewBox="0 0 480 480"><path d="M446.036 207.759L290.76 99.042A49.998 49.998 0 00262.031 90c-1.293.001-2.505-.63-3.282-1.662l-27.364-36.347C227.207 47.761 220 50.719 220 56.665v24.662a9.999 9.999 0 01-8.585 9.899l-110.465 15.78c-5.222.746-5.879 8.022-.875 9.692l38.701 17.35c4.341 1.945 3.769 8.28-.849 9.417l-19.968 4.919c-4.992.995-5.477 7.944-.671 9.623l10.362 9.04a4.991 4.991 0 01.815 6.626c-10.924 15.623-54.176 77.474-80.679 115.259-11.401 16.254-12.196 37.767-1.795 54.679 21.52 34.986 93.845 63.45 128.179 75.287 10.944 3.772 22.794-2.478 25.828-13.649 9.537-35.107 26.645-107.836 35.056-143.947l-.009-.007a143.507 143.507 0 01-6.012-4.398l-.129-.1a139.506 139.506 0 01-5.927-4.852l-.014-.012a135.922 135.922 0 01-2.759-2.461l-.325-.297a133.758 133.758 0 01-5.901-5.786 129.218 129.218 0 01-2.354-2.519l-.304-.331a129.307 129.307 0 01-2.57-2.935c-.121-.142-.24-.287-.36-.431a130.14 130.14 0 01-2.673-3.279 127.365 127.365 0 01-4.681-6.332c-.193-.278-.384-.56-.575-.841a132.493 132.493 0 01-1.805-2.724c-.152-.236-.307-.469-.458-.706a131.263 131.263 0 01-2.104-3.433c-.15-.255-.298-.517-.447-.773a125.651 125.651 0 01-1.626-2.876 130.052 130.052 0 01-2.484-4.733c-2.457-4.946-.438-10.947 4.509-13.403 4.948-2.46 10.948-.438 13.403 4.509.471.948.954 1.879 1.446 2.801.159.298.323.589.484.885.339.621.681 1.238 1.029 1.848.192.336.389.669.584 1.002a106.26 106.26 0 002.69 4.341c.19.292.379.586.572.875.45.675.907 1.339 1.369 1.997.107.153.213.312.32.465.571.806 1.151 1.598 1.738 2.379.169.225.342.442.512.665.424.557.851 1.109 1.283 1.652.221.277.443.551.666.824a98.403 98.403 0 001.889 2.268c.404.472.811.937 1.22 1.397.226.254.45.511.678.762.47.521.944 1.031 1.42 1.539.166.177.33.357.497.533.646.68 1.298 1.349 1.954 2.006.127.127.257.25.384.376.531.527 1.065 1.048 1.603 1.561.224.213.449.422.674.633.449.421.899.839 1.352 1.249.245.223.49.442.735.662.447.399.895.793 1.345 1.182.238.206.476.413.715.617.497.424.996.839 1.495 1.251.188.154.374.312.562.465.696.567 1.395 1.125 2.096 1.671 23.661 15.626 76.272 7.529 98.824 3.071a39.848 39.848 0 0121.479 1.706c22.981 8.449 51.308 17.821 71.124 2.386 7.833-6.098 26.017-31.373 13.848-39.892z"/></svg>