<svg xmlns="http://www.w3.org/2000/svg" width="1000pt" height="1000pt" viewBox="0 0 1000 1000"><path d="M929.242 432.832L605.75 206.336a104.165 104.165 0 00-59.852-18.836c-2.695.004-5.218-1.313-6.84-3.46l-57.007-75.724c-8.703-8.812-23.719-2.652-23.719 9.735v51.379c0 10.37-7.621 19.156-17.883 20.625L210.312 222.93c-10.878 1.554-12.246 16.71-1.824 20.191l80.63 36.145c9.042 4.054 7.85 17.25-1.77 19.62l-41.602 10.247c-10.398 2.074-11.41 16.55-1.394 20.047l21.585 18.836a10.401 10.401 0 011.7 13.804C244.879 394.367 154.77 523.223 99.555 601.941c-23.754 33.864-25.41 78.68-3.739 113.914 44.832 72.887 195.508 132.188 267.04 156.848 22.796 7.86 47.484-5.16 53.808-28.433 19.867-73.141 55.508-224.66 73.031-299.891l-.02-.016a299.998 299.998 0 01-12.523-9.16l-.27-.21a289.71 289.71 0 01-12.347-10.106l-.027-.028a267.56 267.56 0 01-5.75-5.125c-.223-.207-.453-.41-.676-.62a278.147 278.147 0 01-11.379-11.098c-.305-.317-.613-.637-.914-.957a263.254 263.254 0 01-4.906-5.247c-.211-.23-.422-.457-.633-.69-1.8-1.997-3.59-4.036-5.355-6.114-.25-.297-.5-.598-.75-.899a276.659 276.659 0 01-4.41-5.379c-.387-.484-.774-.964-1.157-1.453a263.63 263.63 0 01-9.754-13.191c-.402-.578-.8-1.164-1.195-1.75a274.714 274.714 0 01-3.762-5.676c-.316-.492-.64-.976-.953-1.469a278.93 278.93 0 01-4.387-7.152c-.312-.531-.617-1.078-.93-1.613a251.324 251.324 0 01-3.386-5.992c-.387-.7-.77-1.399-1.152-2.106a272.774 272.774 0 01-4.024-7.754c-5.117-10.304-.914-22.804 9.395-27.922 10.308-5.125 22.808-.914 27.922 9.395.98 1.973 1.988 3.914 3.011 5.836.332.62.676 1.226 1.008 1.844a258.108 258.108 0 002.145 3.847c.402.7.812 1.395 1.218 2.09a223.35 223.35 0 002.094 3.496c.418.684.84 1.367 1.262 2.047a255.97 255.97 0 002.246 3.5c.398.61.793 1.219 1.191 1.82.938 1.407 1.891 2.793 2.856 4.164.222.317.441.649.664.97a227.344 227.344 0 003.621 4.952c.352.469.715.922 1.066 1.387.883 1.16 1.774 2.309 2.676 3.441.457.579.922 1.149 1.387 1.72a185.998 185.998 0 002.469 2.991c.484.582.976 1.16 1.464 1.73.844.985 1.692 1.954 2.543 2.911.47.531.938 1.066 1.41 1.59.981 1.082 1.97 2.144 2.962 3.203.343.371.687.746 1.035 1.113a242.6 242.6 0 004.07 4.18c.266.262.535.52.8.781a237.713 237.713 0 003.34 3.254c.465.441.934.879 1.403 1.316.937.88 1.875 1.75 2.816 2.602.512.465 1.024.922 1.532 1.379a269.42 269.42 0 002.804 2.465c.496.43.989.86 1.489 1.285 1.035.883 2.074 1.746 3.113 2.605.394.32.781.649 1.172.97 1.449 1.179 2.906 2.343 4.367 3.48 49.293 32.554 158.898 15.687 205.883 6.398 14.96-2.957 30.433-1.707 44.746 3.555 47.879 17.601 106.894 37.129 148.176 4.972 16.32-12.707 54.203-65.363 28.851-83.109zm0 0"/></svg>