<svg xmlns="http://www.w3.org/2000/svg" viewBox="0 0 480 480"><path d="M415.927 72.722c-5.386-6.219-12.349-10.248-20.465-11.883-5.28-1.064-12.94-2.002-16.55 3.068-28.886 40.587-150.659 217.759-180.892 243.238-27.487 23.166-63.061 31.175-97.132 39.329-9.53 2.28-18.631 5.171-20.645 16.129-9.835 53.509 101.187 83.312 126.995 27.167 5.939-12.919 8.288-26.915 11.653-40.601 5.019-20.402 12.475-39.677 24.542-56.911l137.72-196.685c5.894-8.416 17.016-9.065 26.538-7.92 3.743.451 9.404 1.103 11.801-2.56 2.559-3.906-1.018-9.429-3.565-12.371zM140 240c0-22.094-17.908-40.004-40-40.004-22.091 0-40 17.91-40 40.004s17.909 40.004 40 40.004c22.092 0 40-17.91 40-40.004z"/></svg>