<svg xmlns="http://www.w3.org/2000/svg" width="1000pt" height="1000pt" viewBox="0 0 1000 1000"><path d="M866.516 151.504c-11.223-12.957-25.727-21.352-42.637-24.758-11-2.215-26.957-4.168-34.48 6.395-60.176 84.554-313.872 453.664-376.856 506.746-57.266 48.261-131.379 64.945-202.36 81.933-19.855 4.75-38.816 10.774-43.011 33.602-20.488 111.476 210.808 173.566 264.574 56.598 12.371-26.915 17.266-56.07 24.277-84.586 10.457-42.504 25.989-82.66 51.13-118.563L794.07 199.11c12.278-17.53 35.45-18.882 55.285-16.5 7.797.942 19.594 2.301 24.586-5.332 5.332-8.136-2.12-19.644-7.425-25.773zM291.668 500c0-46.027-37.309-83.34-83.336-83.34C162.309 416.66 125 453.973 125 500s37.309 83.34 83.332 83.34c46.027 0 83.336-37.313 83.336-83.34zm0 0"/></svg>