<svg xmlns="http://www.w3.org/2000/svg" width="1000pt" height="1000pt" viewBox="0 0 1000 1000"><path d="M926.73 128.77c-9.418-6.598-22.414-4.31-29.015 5.117l-431.04 614.886a16.672 16.672 0 01-20.917 5.442L130.332 601.457a20.831 20.831 0 00-29.32 13.82L63.09 724.133c-2.496 10.258 3.074 20.762 12.965 24.449l335.3 125c2.383.89 4.84 1.316 7.274 1.316a20.844 20.844 0 0017.07-8.886l496.149-708.23c6.601-9.423 4.308-22.415-5.118-29.012zM843.75 812.5H739.586c-17.258 0-31.25 13.992-31.25 31.25S722.328 875 739.586 875H843.75c17.262 0 31.25-13.992 31.25-31.25s-13.988-31.25-31.25-31.25zm0 0"/></svg>