<svg xmlns="http://www.w3.org/2000/svg" width="1000pt" height="1000pt" viewBox="0 0 1000 1000"><path d="M613.7 875c-30.098 0-55.454-22.488-59.048-52.371L535.16 660.512c-1.008-8.375-8.117-14.68-16.55-14.68h-37.22c-8.433 0-15.538 6.305-16.542 14.68l-19.496 162.117C441.754 852.512 416.398 875 386.3 875c-16.074 0-30.211 11.773-31.942 27.758-2.043 18.82 12.649 34.742 31.059 34.742h229.164c18.41 0 33.102-15.922 31.063-34.742C643.91 886.773 629.777 875 613.699 875zM395.831 448.738V288.922a16.67 16.67 0 00-3.012-9.559l-80.308-114.691c-19.797-28.274-58.77-35.149-87.043-15.348l-37.547 26.29c-7.54 5.277-9.371 15.671-4.094 23.21l181.684 259.473c9.347 13.348 30.32 6.734 30.32-9.559zm416.246-273.125l-37.543-26.289c-28.273-19.8-67.246-12.926-87.047 15.348l-80.304 114.691a16.687 16.687 0 00-3.016 9.563v159.812c0 16.297 20.973 22.907 30.32 9.563l181.688-259.477c5.273-7.539 3.441-17.933-4.098-23.21zM437.563 543.88c.023.598.054 1.195.101 1.793.024.367.047.73.082 1.098a58.415 58.415 0 00.305 2.816c.113.855.238 1.71.39 2.559l.04.214a62.065 62.065 0 004.292 14.168l.094.211a67.87 67.87 0 001.133 2.414c.102.207.21.407.313.61.332.652.671 1.304 1.027 1.949.195.344.394.684.59 1.023.285.493.574.993.875 1.477.28.453.574.898.863 1.344.242.37.48.742.734 1.11l.157.237.238.336.273.371c.137.192.282.391.418.586.215.293.426.582.645.871l.23.297c.29.375.578.742.871 1.11l.133.168c.215.261.426.53.645.789.21.254.414.511.633.758.234.277.48.539.722.804.227.254.453.512.684.762.203.215.394.437.597.652.305.32.614.625.922.934l.532.535.16.152.465.442c.363.351.73.707 1.101 1.05l.375.34c.402.364.817.711 1.227 1.063l.078.066c.21.176.414.364.625.54l.316.257c.262.215.531.418.793.625.188.145.371.297.563.442.226.175.449.359.68.535l.382.281c.367.273.742.531 1.117.793l.176.129.098.066c.207.145.41.297.62.442l.618.41c.43.281.863.554 1.297.828l.066.043.461.293c.328.203.664.398.996.594.497.289.993.582 1.5.859.489.27.985.527 1.485.785.351.184.707.367 1.062.543l.063.035c.637.313 1.281.61 1.93.903.21.093.414.191.624.28l.055.024c.504.223 1.016.422 1.524.63.28.112.562.234.847.347l.258.101.324.13.114.042c.753.285 1.52.543 2.293.801l.039.012.273.094.344.117c.726.23 1.457.433 2.187.64l.07.024.06.015c.23.063.452.133.679.192.66.176 1.328.328 1.992.48l.102.02.109.027c.281.063.559.137.836.192.566.12 1.129.218 1.691.32l.297.055.098.02c.332.058.66.12.996.175.48.074.969.133 1.453.2l.238.034.348.047c.36.043.711.09 1.07.13.434.046.871.077 1.305.116l.008.004h.02l.69.063c.368.023.731.05 1.095.07.367.023.738.035 1.109.047.308.015.617.027.93.039.351.008.703.012 1.054.012l.512.004.516-.012c.351-.004.703-.008 1.058-.016.309-.008.617-.023.93-.035l1.105-.047c.368-.023.73-.047 1.094-.074.23-.016.461-.043.692-.063h.015l.012-.003c.433-.036.871-.067 1.308-.118a49.6 49.6 0 001.067-.129l.348-.046.238-.032c.484-.066.972-.129 1.457-.203.332-.05.66-.117.992-.176l.395-.074c.562-.101 1.128-.199 1.691-.316.281-.059.559-.13.836-.192l.113-.027.098-.023c.664-.153 1.332-.305 1.992-.477.227-.059.453-.129.68-.195l.058-.016.028-.008c.746-.21 1.492-.418 2.23-.652l.348-.121.27-.09.042-.016c.77-.254 1.532-.511 2.29-.797l.113-.042.324-.13.262-.1c.285-.114.566-.24.851-.352.504-.208 1.012-.403 1.52-.625l.05-.024c.211-.09.418-.187.63-.281.648-.293 1.292-.59 1.929-.903l.059-.03c.355-.18.71-.364 1.066-.552a59.95 59.95 0 001.484-.78c.504-.282 1-.571 1.496-.86.333-.2.668-.395.997-.594l.46-.297.051-.031c.442-.277.88-.555 1.313-.84.207-.137.414-.27.62-.41.212-.14.411-.297.622-.441l.098-.067.172-.125c.375-.265.75-.523 1.117-.793l.383-.285c.23-.172.453-.36.68-.535.19-.145.374-.293.562-.442.265-.21.535-.41.797-.625l.312-.253c.211-.176.414-.364.625-.54.29-.246.567-.492.848-.738l.457-.394.379-.34c.37-.34.734-.7 1.097-1.051l.465-.441.16-.153.535-.531c.305-.312.618-.617.918-.937.204-.215.399-.438.598-.653.23-.25.461-.504.684-.758.242-.27.488-.53.726-.808.215-.246.418-.504.63-.754.218-.262.433-.527.648-.793l.129-.168c.296-.363.585-.734.87-1.106l.231-.3c.219-.285.43-.578.645-.871.14-.196.28-.391.422-.586l.269-.368.238-.335.157-.243c.25-.363.492-.734.734-1.105.293-.445.582-.895.863-1.344.301-.488.59-.988.875-1.48.2-.34.399-.68.59-1.024.356-.644.695-1.293 1.027-1.945.106-.207.211-.406.313-.613a61.63 61.63 0 001.133-2.414l.093-.211a62.204 62.204 0 004.297-14.16l.043-.223a78.9 78.9 0 00.47-3.188c.085-.726.16-1.457.222-2.187.031-.367.058-.735.086-1.098.039-.594.07-1.195.097-1.793.02-.512.032-1.031.04-1.547.003-.312.023-.62.023-.933V126.57c0-34.054-26.7-62.84-60.742-63.773-35.332-.969-64.266 27.371-64.266 62.473v416.125c0 .312.02.62.023.933.008.52.02 1.035.04 1.55zm0 0"/></svg>