<svg xmlns="http://www.w3.org/2000/svg" viewBox="0 0 480 480"><path d="M325.545 381.89c-3.354-1.064-5.667-4.127-5.667-7.646v-28.805c0-18.819-16.026-31.875-32.861-36.379-21.76-5.822-41.19-9.852-62.529-17.189-21.192-7.287-42.528-17.272-52.896-38.287-8.281-16.785-12.993-65.678-14.518-88.953l-.016-.192c.417-3.146-.667-6.313-3.659-7.37-12.006-4.239-23.337 4.696-23.337 16.149v1.723a6.89 6.89 0 01-6.89 6.889l-48.888-.001c-17.678 0-32.486 13.383-34.269 30.972L39.928 343.2c-.084 19.461 13.026 28.071 28.177 28.071l4.601.178c-24.942 1.923-36.464 19.97-42.217 33.277-1.963 4.541 1.393 9.602 6.34 9.602h3.122c-.008.308-.023.613-.023.923 0 19.299 15.701 35 35 35s35-15.701 35-35c0-.31-.016-.615-.023-.923h10.047c-.008.308-.023.613-.023.923 0 19.299 15.701 35 35 35s35-15.701 35-35c0-.31-.016-.615-.023-.923h10.047c-.008.308-.023.613-.023.923 0 19.299 15.701 35 35 35s35-15.701 35-35c0-.31-.016-.615-.023-.923h1.139l8.952-.016c-.008.312-.023.624-.023.938 0 20.142 17.103 36.364 37.548 34.909 17.25-1.229 31.188-15.21 32.368-32.463 1.137-16.663-9.466-31.081-24.346-35.806zM74.928 430.25c-8.271 0-15-6.729-15-15 0-.312.028-.616.047-.923h29.906c.019.307.047.611.047.923 0 8.271-6.728 15-15 15zm80 0c-8.271 0-15-6.729-15-15 0-.312.028-.616.047-.923h29.906c.019.307.047.611.047.923 0 8.271-6.728 15-15 15zm80 0c-8.271 0-15-6.729-15-15 0-.312.028-.616.047-.923h29.906c.019.307.047.611.047.923 0 8.271-6.728 15-15 15zm55-58a8 8 0 01-8 8h-174a8 8 0 01-8-8v-4a8 8 0 018-8h174a8 8 0 018 8v4zm25.044 58c-8.271 0-15-6.729-15-15 0-.329.028-.65.049-.975l29.899-.055c.022.342.052.682.052 1.029 0 8.272-6.728 15.001-15 15.001zm133.784-200.191l-7.38-30.299a9.998 9.998 0 00-14.074-6.634l-117.529 56.918L158.107 34.495c-3.178-4.516-9.415-5.601-13.934-2.424-4.517 3.179-5.602 9.416-2.424 13.934l167.199 237.624a10.001 10.001 0 0011.672 3.615l121.913-45.449a10 10 0 006.223-11.736z"/></svg>