<svg xmlns="http://www.w3.org/2000/svg" viewBox="0 0 480 480"><path d="M442.073 126.709c3.037-3.438 2.57-8.72-1.026-11.568l-16.93-13.411c-3.609-2.858-8.88-2.089-11.521 1.683-25.403 36.279-50.2 72.996-76.278 108.798-29.012 39.828-59.89 81.024-102.988 106.575-49.177 29.155-90.031 37.64-143.712 21.329-8.209-2.495-34.697-13.354-42.643-16.591-8.499-3.463-15.148 7.767-8.066 13.604 43.993 36.257 101.491 62.297 159.094 63.409 51.788 1 111.062-21.404 152.049-52.703 17.474-13.343 36.1-33.123 38.885-56.378 2.944-24.582-21.007-36.449-19.254-59.24 1.829-23.793 54.788-85.573 72.39-105.507zM100.004 280.004c22.093 0 40.003-17.91 40.003-40.004s-17.91-40.004-40.003-40.004C77.91 199.996 60 217.906 60 240s17.91 40.004 40.004 40.004z"/></svg>