<svg xmlns="http://www.w3.org/2000/svg" viewBox="0 0 480 480"><path d="M401.397 96.659c-9.05-6.336-21.52-4.136-27.854 4.911l-34.414 49.149-65.594-45.929-.005-.003-16.317-11.426c-9.045-6.334-21.513-4.139-27.85 4.904l-68.86 98.256a19.998 19.998 0 004.904 27.859l49.181 34.45a20.003 20.003 0 0027.858-4.91l57.357-81.909 32.767 22.943a20.002 20.002 0 0027.855-4.912l45.886-65.532c6.333-9.045 4.134-21.516-4.914-27.851zm-137.508 223.5a20.013 20.013 0 00-5.94-6.542L153.97 240.81c-9.049-6.337-21.52-4.136-27.854 4.911-6.336 9.048-4.137 21.52 4.911 27.854l100.269 70.209 59.424 105.143c3.678 6.507 10.453 10.163 17.43 10.163a19.913 19.913 0 009.822-2.593c9.616-5.435 13.006-17.636 7.57-27.252l-61.653-109.086zm-111.57-7.258c-9.048-6.334-21.52-4.135-27.854 4.913L47.548 427.677c-6.335 9.049-4.136 21.52 4.913 27.854a19.91 19.91 0 0011.453 3.618c6.305 0 12.511-2.975 16.401-8.531l76.917-109.862c6.335-9.049 4.136-21.52-4.913-27.855zM285.264 88.547c18.902 13.235 42.276 8.983 55.512-9.919s9.081-42.471-9.821-55.706c-18.902-13.236-42.475-9.083-55.711 9.819-13.235 18.903-8.882 42.57 10.02 55.806z"/></svg>