<svg xmlns="http://www.w3.org/2000/svg" viewBox="0 0 480 480"><path d="M429.493 331.726c-20.532.204-54.831-4.74-86.312-33.947-3.222-2.988-8.218-2.865-11.263.303-12.616 13.127-27.619 23.584-44.267 30.52-5.285 2.201-6.679 9.021-2.627 13.063 5.658 5.646 13.763 12.788 24.58 20.164-20.479 11.454-44.2 18.122-69.603 18.122-25.403 0-49.125-6.669-69.605-18.124 10.817-7.377 18.922-14.521 24.581-20.166 4.052-4.041 2.657-10.858-2.625-13.058-16.655-6.934-31.657-17.389-44.264-30.515-3.046-3.171-8.046-3.296-11.27-.305-31.479 29.203-65.775 34.146-86.307 33.942-7.13-.066-11.119 7.858-6.852 13.33l36.842 47.247c2.064 2.636 5.638 3.904 8.985 3.187 16.552-3.543 31.116-8.295 43.826-13.63C158.779 411.26 197.107 430 240.003 430c42.898 0 81.229-18.742 106.675-48.146 12.714 5.338 27.283 10.092 43.84 13.636 3.348.718 6.921-.551 8.968-3.187l36.843-47.247c4.283-5.472.294-13.397-6.836-13.33zM120.359 190a140 140 0 002.879 20 137.006 137.006 0 005.993 20 133.9 133.9 0 009.666 20 129.597 129.597 0 0014.549 20c21.837 24.652 52.541 40 86.554 40 25.568 0 49.265-8.677 68.732-23.455A123.839 123.839 0 00326.672 270a129.449 129.449 0 0014.631-20 133.628 133.628 0 009.723-20 136.535 136.535 0 006.027-20 139.568 139.568 0 002.902-20H360v-.658c.212-3.159.325-6.349.325-9.566s-.113-6.407-.325-9.566V170h-.013a139.73 139.73 0 00-2.833-20 136.616 136.616 0 00-5.958-20 133.679 133.679 0 00-9.629-20 129.657 129.657 0 00-14.489-20c-21.881-24.793-52.731-40.238-86.915-40.238l-.082.001-.081-.001c-34.123 0-64.919 15.445-86.769 40.238a129.193 129.193 0 00-11.815 15.688c-.911 1.418-1.8 2.854-2.659 4.312a133.772 133.772 0 00-9.628 20 136.616 136.616 0 00-5.958 20 139.873 139.873 0 00-2.834 20 142.416 142.416 0 00-.337 9.775l.001.053-.001.053c0 3.405.122 6.779.359 10.119zM250 70.31c17.755 1.911 34.17 8.915 47.994 19.69H250V70.31zm0 39.69h67.544a111.988 111.988 0 0111.928 20H250v-20zm0 40h86.595a119.082 119.082 0 013.33 20H250v-20zm0 40h89.889a118.974 118.974 0 01-3.408 20H250v-20zm0 40h79.263a111.884 111.884 0 01-12.059 20H250v-20zm0 40h47.405c-13.701 10.519-29.901 17.356-47.405 19.242V270zm-20 19.207c-17.379-1.936-33.464-8.754-47.08-19.207H230v19.207zM230 250h-66.879a112 112 0 01-12.059-20H230v20zm0-40h-86.155a118.974 118.974 0 01-3.408-20H230v20zm0-139.655V90h-47.669C196.071 79.291 212.37 72.307 230 70.345zM162.781 110H230v20h-79.146a111.925 111.925 0 0111.927-20zm-19.051 40H230v20h-89.6a119.082 119.082 0 013.33-20z"/></svg>