<svg xmlns="http://www.w3.org/2000/svg" viewBox="0 0 480 480"><path d="M93.322 222.712c-18.902-13.235-42.475-9.082-55.711 9.82-13.235 18.902-8.882 42.569 10.021 55.805s42.276 8.983 55.512-9.919 9.081-42.47-9.822-55.706zM426.98 330.304l-124.117 21.871a19.995 19.995 0 00-12.912 8.225l-34.415 49.149c-6.336 9.048-4.137 21.52 4.911 27.854a19.907 19.907 0 0011.454 3.619c6.305 0 12.51-2.975 16.4-8.53l29.663-42.362 115.957-20.434c10.878-1.917 18.143-12.289 16.226-23.167s-12.293-18.141-23.167-16.225zm-42.156 79.221l-56.517 9.823c-10.883 1.891-18.171 12.246-16.279 23.129 1.689 9.725 10.137 16.578 19.681 16.578 1.137 0 2.29-.097 3.448-.299l56.517-9.823c10.883-1.891 18.171-12.246 16.28-23.129-1.892-10.882-12.247-18.175-23.13-16.279zM214.152 224.611a134.585 134.585 0 003.528 4.967l44.671-18.412a39.779 39.779 0 0115.237-3.025h.001c16.271 0 30.79 9.721 36.989 24.764 4.071 9.878 4.053 20.75-.054 30.613-3.096 7.439-8.239 13.631-14.817 17.973a135.61 135.61 0 0026.344 2.577c74.559 0 135-60.441 135-135s-60.441-135-135-135-135 60.441-135 135c0 11.381 1.415 22.43 4.067 32.988a134.346 134.346 0 0019.034 42.555zm62.735 109.408a19.999 19.999 0 00-8.225-12.91l-42.834-29.993 21.101-8.697 1.455-.6 22.773-9.387 14.062-5.795c10.213-4.209 15.078-15.899 10.869-26.111-4.208-10.211-15.9-15.081-26.111-10.87l-38.404 15.829-8.449 3.482-11.438 4.715-24.751 10.201-.188-.133L201.976 242a153.51 153.51 0 01-21.386-39.194l-38.079 54.383-.002.002-34.414 49.148a19.997 19.997 0 004.912 27.854l98.298 68.83a20.002 20.002 0 0027.855-4.912l34.415-49.149a20.002 20.002 0 003.312-14.943z"/></svg>