<svg xmlns="http://www.w3.org/2000/svg" width="1000pt" height="1000pt" viewBox="0 0 1000 1000"><path d="M194.422 463.984c-39.379-27.574-88.492-18.921-116.067 20.457-27.57 39.38-18.503 88.688 20.88 116.262 39.378 27.574 88.074 18.715 115.648-20.664 27.574-39.379 18.918-88.48-20.461-116.055zm695.121 224.149l-258.578 45.566a41.626 41.626 0 00-26.899 17.133l-71.699 102.395c-13.199 18.851-8.62 44.832 10.23 58.03a41.47 41.47 0 0023.864 7.54c13.137 0 26.062-6.2 34.168-17.774l61.797-88.253 241.578-42.57c22.66-3.993 37.797-25.602 33.8-48.266-3.991-22.66-25.609-37.793-48.261-33.801zm-87.828 165.043L683.973 873.64c-22.672 3.941-37.856 25.511-33.914 48.187 3.52 20.258 21.117 34.535 41 34.535 2.37 0 4.773-.199 7.183-.62l117.746-20.466c22.672-3.941 37.856-25.511 33.914-48.187-3.941-22.668-25.511-37.863-48.187-33.914zM446.148 467.94a287.825 287.825 0 007.352 10.348l93.066-38.36a82.813 82.813 0 0131.743-6.3c33.898 0 64.148 20.25 77.062 51.59 8.48 20.578 8.445 43.23-.113 63.777-6.45 15.496-17.164 28.399-30.867 37.445a282.546 282.546 0 0054.882 5.368c155.332 0 281.25-125.918 281.25-281.25s-125.918-281.25-281.25-281.25-281.25 125.918-281.25 281.25c0 23.71 2.95 46.73 8.473 68.726a279.901 279.901 0 0039.652 88.656zm130.7 227.93a41.657 41.657 0 00-17.137-26.894l-89.234-62.485 43.957-18.12 3.03-1.25 47.446-19.556 29.297-12.074c21.277-8.765 31.41-33.12 22.645-54.394-8.77-21.274-33.125-31.422-54.399-22.649l-80.008 32.977-17.605 7.254-23.828 9.824-51.563 21.254-.394-.278 31.73-45.312c-18.87-25.082-33.824-52.555-44.555-81.656l-79.332 113.297-.003.007-71.696 102.391a41.66 41.66 0 00-6.902 31.133 41.657 41.657 0 0017.133 26.894l204.789 143.399a41.665 41.665 0 0058.031-10.235l71.7-102.394a41.675 41.675 0 006.898-31.133zm0 0"/></svg>