<svg xmlns="http://www.w3.org/2000/svg" viewBox="0 0 480 479.999"><path d="M235.972 131.87h-51.927a8.306 8.306 0 00-7.909 5.732l-16.035 49.385a8.313 8.313 0 003.008 9.288l42.006 30.508a8.279 8.279 0 009.771 0l41.99-30.508a8.293 8.293 0 003.024-9.288l-16.035-49.385a8.302 8.302 0 00-7.893-5.732zM117.618 230l8.83-22.457a7.519 7.519 0 00-2.234-8.55l-40.882-33.481c2.646-23.081 11.479-44.309 24.794-61.976l35.048-.273a7.49 7.49 0 006.66-4.185l19.668-39.862c12.729-4.274 26.348-6.592 40.498-6.592s27.769 2.317 40.497 6.592l19.682 39.862a7.452 7.452 0 006.659 4.185l35.036.273c13.314 17.667 22.147 38.893 24.794 61.974l-40.885 33.483a7.517 7.517 0 00-2.234 8.55l8.83 22.457h49.114c5.503-15.605 8.507-32.39 8.507-49.876 0-82.845-67.17-150-150-150-82.845 0-150 67.155-150 150 0 17.486 3.003 34.271 8.505 49.876h49.113zm319.433 58.347l-44.897-36.551a8 8 0 00-5.051-1.796H48a8 8 0 00-8 8v113.634a8.002 8.002 0 008 8l279.054.357c10.962.014 21.522 4.828 28.211 13.514 2.357 3.061 4.224 6.502 5.451 10.167 1.28 3.818 4.496 6.312 8.618 6.312h10.646V452a8 8 0 008 8h24a8 8 0 008-8v-42.017H432a8 8 0 008-8V294.551a7.997 7.997 0 00-2.949-6.204z"/></svg>