<svg xmlns="http://www.w3.org/2000/svg" width="1000pt" height="1000pt" viewBox="0 0 1000 1000"><path d="M291.672 500c0-46.023-37.309-83.332-83.332-83.332-46.024 0-83.332 37.309-83.332 83.332 0 46.023 37.308 83.332 83.332 83.332 46.023 0 83.332-37.309 83.332-83.332zM893.23 210.27c-7.953-45.11-33.078-87.196-73.476-115.48a178.02 178.02 0 00-61.55-27.544c-69.145-16.219-144.423 9.832-187.583 71.477-16.73 23.894-25.793 48.738-27.492 76.132a157.72 157.72 0 00-.281 11.899c.148 10.723 1.359 21.851 3.613 33.473a9.8 9.8 0 01.172 1.343c.183 3.14-1.098 6.262-3.567 8.563-11.699 10.914-24.468 25.547-33.32 38.191-20.312 29.008-22.242 64.543-18.308 94.676 1.085 8.348 2.628 16.281 4.351 23.547 4.875 20.523 13.688 44.66 23.441 61.113L227.203 904.715c-6.601 9.426-4.308 22.418 5.117 29.015a20.72 20.72 0 0011.93 3.774c6.566 0 13.031-3.102 17.082-8.89l291.91-416.884c.399.079.809.149 1.215.223.371.07.734.14 1.11.207 1.078.188 2.167.367 3.285.535.27.04.55.07.824.114.883.125 1.773.246 2.68.359.44.055.886.105 1.332.156.773.09 1.55.172 2.335.254.461.047.918.094 1.383.137.86.078 1.727.152 2.602.222.379.028.754.063 1.133.09 1.242.094 2.492.176 3.754.243.296.02.593.03.894.046.996.047 2 .094 3.008.133a308.987 308.987 0 004.055.113c.445.012.894.02 1.343.028 1.02.015 2.047.023 3.078.027.243 0 .485.004.73.004h.177c1.562 0 3.136-.02 4.71-.047l1.036-.023c1.469-.035 2.937-.074 4.406-.133l.441-.016c1.602-.062 3.2-.144 4.797-.238l.977-.059c1.562-.093 3.125-.203 4.68-.32l.109-.012c1.613-.128 3.215-.273 4.809-.425.296-.032.585-.059.878-.09 3.176-.32 6.301-.696 9.344-1.121l.801-.117c1.516-.215 3.023-.442 4.496-.688 10.899-1.8 21.14-4.285 30.664-7.414.293-.094.567-.207.86-.305a168.778 168.778 0 006.136-2.16c23.414-8.816 42.043-21.82 54.969-38.488a103.117 103.117 0 002.836-3.832c5.758-8.219 11.719-18.278 16.918-28.36 2.797-5.425 5.383-10.859 7.574-16.015a11.364 11.364 0 012.293-3.492c1.574-1.637 3.606-2.735 5.856-3.09 13.152-2.086 25.234-5.246 36.421-9.453 13.672-5.149 25.996-11.887 37.106-20.426 12.117-9.317 22.828-20.723 32.39-34.379 21.215-30.3 31.704-64.953 32.266-99.418a180.907 180.907 0 00-2.723-34.23zm-59.578 103.523l-.218.371a143.223 143.223 0 01-3.883 5.856c-13.887 19.832-30.68 32.902-52.688 40.66-.383.136-.75.289-1.136.422-.344.117-.704.214-1.047.328-7.239 2.398-15.016 4.261-23.45 5.597a53.997 53.997 0 00-4.714 1c-10.352 2.633-19.504 8.305-26.41 16.258a53.397 53.397 0 00-8.84 14.192c-3.434 8.082-8.149 17.214-13.043 25.464-2.407 4.051-4.86 7.91-7.23 11.297-17.22 24.59-53.036 32.93-72.852 35.711l-.086.012c-1.575.219-3.13.41-4.676.594l-1.5.164c-1.106.12-2.207.23-3.293.332-.516.047-1.027.097-1.54.14-1.237.106-2.468.2-3.683.286-.285.015-.574.043-.86.058a195.7 195.7 0 01-4.382.235c-.422.02-.832.03-1.254.046-1.043.04-2.07.07-3.086.094a174.513 174.513 0 01-4.465.059c-.359.004-.726.008-1.078.004-1.316 0-2.601-.02-3.86-.043-.32-.008-.624-.02-.937-.028a207.865 207.865 0 01-4.058-.148c-.84-.04-1.668-.082-2.473-.133-.355-.02-.715-.039-1.062-.062a166.86 166.86 0 01-3.211-.235l-.492-.047a126.717 126.717 0 01-3.528-.351 94.923 94.923 0 01-1.894-.223c-.301-.039-.602-.074-.891-.113l-.539-.074c-5.18-.746-9.723-3.868-12.207-8.473a93.773 93.773 0 01-.578-1.11c-.176-.335-.344-.667-.524-1.015-.293-.586-.59-1.203-.894-1.82-.164-.348-.328-.68-.5-1.036a189.91 189.91 0 01-1.047-2.265l-.383-.832a164.07 164.07 0 01-1.476-3.383l-.016-.039c-.484-1.14-.969-2.313-1.453-3.52-.145-.367-.293-.75-.442-1.12-.343-.868-.687-1.743-1.027-2.645-.18-.473-.36-.961-.539-1.442-.309-.832-.617-1.668-.918-2.52-.191-.53-.383-1.073-.57-1.616-.293-.828-.578-1.672-.867-2.524-.192-.57-.383-1.144-.57-1.722-.282-.856-.56-1.727-.833-2.602-.187-.59-.37-1.18-.554-1.777-.278-.907-.547-1.825-.817-2.746-.168-.579-.34-1.16-.508-1.747-.28-.996-.554-2.011-.824-3.023-.14-.531-.289-1.059-.426-1.594-.34-1.312-.668-2.64-.988-3.972-.059-.246-.125-.489-.184-.735-.37-1.582-.726-3.18-1.062-4.789-.102-.469-.188-.941-.285-1.414-.23-1.144-.461-2.293-.672-3.445-.113-.613-.215-1.235-.32-1.848-.176-1.02-.352-2.043-.512-3.07-.106-.676-.2-1.352-.3-2.031-.138-.977-.274-1.954-.4-2.934-.085-.703-.171-1.406-.25-2.11-.109-.972-.21-1.945-.304-2.913-.066-.704-.129-1.407-.188-2.11-.078-.984-.144-1.969-.207-2.953-.039-.687-.082-1.375-.117-2.062-.047-1.024-.074-2.051-.097-3.079-.016-.64-.04-1.277-.043-1.914-.012-1.175.004-2.343.03-3.515.009-.48.005-.965.02-1.446.051-1.636.133-3.265.258-4.89.028-.375.074-.742.106-1.117.11-1.246.222-2.485.379-3.72.07-.589.168-1.171.25-1.76.14-1.009.289-2.013.464-3.009.114-.644.243-1.277.372-1.914.183-.93.375-1.86.59-2.773.152-.652.316-1.297.484-1.942a73.887 73.887 0 011.336-4.566c.285-.871.59-1.73.91-2.586.226-.613.453-1.223.695-1.824.356-.875.738-1.734 1.125-2.586.254-.563.5-1.125.77-1.68.453-.922.949-1.828 1.445-2.73.25-.453.48-.918.742-1.363a58.84 58.84 0 012.504-3.918c7.195-10.274 18.031-22.684 27.613-31.618 13.391-12.488 19.325-30.55 15.88-48.316a163.848 163.848 0 01-1.54-9.422c-.105-.77-.207-1.539-.297-2.3-2.843-23.723.493-44.098 10.47-63.493 2.503-4.867 5.405-9.672 8.75-14.453a137.46 137.46 0 014.171-5.64l.41-.508a134.443 134.443 0 014.035-4.918l.008-.012c42.352-49.024 113.902-61.664 170.48-30.133l.126.066a134.698 134.698 0 015.375 3.184c.218.133.441.254.656.39a145.149 145.149 0 015.84 3.872 133.938 133.938 0 015.64 4.172l.504.41c54.844 43.094 68.551 121.066 31.66 180.285zm-61.82-150.57c-43.156-30.22-102.848-19.692-133.066 23.464-12.305 17.575-15.278 33.79-10.614 57.836 6.2 31.954-4.406 64.372-28.363 86.723-7.398 6.899-16.402 17.195-21.898 25.047-5.598 7.988-6.524 24.863-2.48 45.137 1.292 6.492 2.94 12.644 4.694 18.203a16.682 16.682 0 0016.715 11.66 169.53 169.53 0 0015.407-1.438c21.336-2.996 38.808-10.199 44.515-18.347 5.492-7.844 12.09-19.832 16.051-29.149 12.805-30.16 39.644-51.214 71.797-56.312 24.183-3.84 38.402-12.184 50.707-29.75 30.219-43.16 19.695-102.856-23.465-133.074zm0 0"/></svg>