<svg xmlns="http://www.w3.org/2000/svg" viewBox="0 0 480 480"><path d="M140.003 240c0-22.091-17.909-40-40-40-22.092 0-40 17.909-40 40 0 22.092 17.908 40 40 40 22.091 0 40-17.908 40-40zm288.748-139.07c-3.818-21.653-15.878-41.854-35.27-55.432a85.442 85.442 0 00-29.544-13.22c-33.189-7.785-69.322 4.72-90.038 34.308-8.032 11.471-12.381 23.396-13.197 36.544a75.466 75.466 0 00-.135 5.711c.072 5.148.653 10.49 1.735 16.067.042.215.068.43.081.646.088 1.507-.526 3.006-1.711 4.11-5.616 5.238-11.745 12.263-15.994 18.331-9.75 13.924-10.677 30.981-8.788 45.445a111.407 111.407 0 002.089 11.303c2.339 9.85 6.569 21.437 11.252 29.334L109.057 434.264c-3.168 4.523-2.068 10.759 2.456 13.927a9.948 9.948 0 005.727 1.81 9.987 9.987 0 008.2-4.266L265.556 245.63c.191.038.389.072.583.108.178.033.353.067.533.099.517.09 1.041.176 1.576.256.13.019.265.035.396.055a67.9 67.9 0 001.926.248c.371.042.744.083 1.121.122l.664.065c.412.038.829.073 1.249.107l.544.044c.595.044 1.195.083 1.802.116.142.008.285.014.428.021a112.202 112.202 0 005.513.145c.117 0 .233.003.351.003l.084-.001c.751 0 1.505-.009 2.261-.022l.498-.012c.704-.016 1.409-.036 2.114-.063l.212-.007c.769-.031 1.535-.07 2.302-.115l.469-.028c.751-.046 1.501-.097 2.246-.155l.054-.004c.774-.062 1.543-.132 2.308-.206l.422-.042a117.45 117.45 0 004.485-.539l.383-.055a98.206 98.206 0 002.158-.33c5.232-.865 10.148-2.057 14.719-3.559.141-.046.273-.099.413-.146a84.143 84.143 0 002.946-1.037c11.239-4.232 20.18-10.474 26.384-18.475.468-.604.925-1.216 1.362-1.84 2.763-3.945 5.625-8.773 8.12-13.612a115.442 115.442 0 003.636-7.688 5.521 5.521 0 011.1-1.676 4.973 4.973 0 012.812-1.482c6.312-1.002 12.111-2.518 17.481-4.538 6.564-2.471 12.479-5.706 17.812-9.805 5.816-4.472 10.957-9.946 15.547-16.502a85.36 85.36 0 0015.487-47.72 86.8 86.8 0 00-1.306-16.43zm-28.598 49.69l-.105.178a68.708 68.708 0 01-1.864 2.812c-6.665 9.519-14.726 15.793-25.289 19.517-.185.065-.36.138-.546.201-.165.057-.338.104-.503.158-3.475 1.151-7.208 2.045-11.255 2.688-.768.122-1.52.29-2.264.479a24.864 24.864 0 00-12.677 7.804 25.672 25.672 0 00-4.243 6.812c-1.648 3.88-3.91 8.262-6.261 12.222-1.155 1.946-2.331 3.798-3.469 5.423-8.265 11.803-25.457 15.806-34.97 17.141l-.041.006a105.162 105.162 0 01-4.545.524c-.247.022-.493.046-.738.067-.595.051-1.185.096-1.768.136-.138.009-.277.021-.414.029a92.821 92.821 0 01-2.705.134 85.172 85.172 0 01-2.167.061c-.493.008-.979.012-1.458.013-.171.001-.347.003-.516.002a101.25 101.25 0 01-1.854-.021l-.45-.013a93.951 93.951 0 01-3.135-.134l-.51-.03a84.51 84.51 0 01-1.541-.114l-.236-.022a67.667 67.667 0 01-2.603-.275c-.143-.019-.287-.036-.426-.055l-.259-.036a7.923 7.923 0 01-5.859-4.066 54.426 54.426 0 01-.529-1.021c-.141-.281-.284-.576-.429-.874-.08-.166-.159-.326-.24-.496a84.458 84.458 0 01-.503-1.088l-.184-.399a86.665 86.665 0 01-.709-1.623l-.008-.02c-.231-.546-.464-1.11-.697-1.689l-.211-.537c-.165-.417-.33-.838-.494-1.271-.086-.227-.172-.461-.258-.692a97.478 97.478 0 01-1.405-4.023 87.473 87.473 0 01-.4-1.249c-.089-.283-.178-.566-.266-.853-.132-.435-.262-.875-.391-1.317-.082-.279-.164-.557-.244-.839a87.846 87.846 0 01-.396-1.452c-.068-.255-.139-.507-.205-.764-.163-.63-.32-1.268-.474-1.908-.028-.118-.059-.233-.087-.351a95.227 95.227 0 01-.511-2.299c-.048-.225-.09-.452-.136-.679-.111-.549-.221-1.1-.323-1.654-.054-.295-.103-.592-.154-.887a87.07 87.07 0 01-.245-1.474c-.051-.323-.097-.648-.144-.974a82.235 82.235 0 01-.192-1.409 84.81 84.81 0 01-.356-3.423 84.395 84.395 0 01-.099-1.418c-.02-.33-.041-.66-.057-.989a72.928 72.928 0 01-.047-1.478c-.007-.307-.019-.613-.021-.92-.005-.563.003-1.125.015-1.686.004-.231.002-.464.009-.694.025-.786.065-1.568.124-2.347.014-.18.036-.357.052-.537.051-.598.107-1.193.181-1.785.034-.284.08-.563.12-.846.068-.483.139-.966.223-1.443.054-.309.117-.613.178-.919.089-.446.181-.892.284-1.332.072-.312.152-.622.232-.932a37.938 37.938 0 01.641-2.191c.137-.418.284-.831.437-1.242.109-.293.218-.587.334-.876.17-.419.354-.831.54-1.241.122-.269.239-.54.369-.805.218-.444.455-.878.694-1.311.12-.218.231-.44.357-.655.377-.641.774-1.269 1.202-1.88 3.453-4.932 8.655-10.889 13.253-15.176 6.428-5.995 9.277-14.665 7.623-23.192a79.091 79.091 0 01-.882-5.628c-1.364-11.387.236-21.167 5.025-30.475a59.832 59.832 0 014.201-6.938 64.811 64.811 0 012.001-2.708l.198-.244a64.646 64.646 0 011.937-2.36l.004-.005c20.328-23.532 54.672-29.6 81.83-14.464l.06.031c.868.485 1.727 1 2.58 1.528.104.064.211.123.314.188.944.593 1.88 1.213 2.804 1.859a64.811 64.811 0 012.708 2.001l.242.197c26.324 20.685 32.903 58.113 15.196 86.537zM370.48 78.347c-20.715-14.505-49.367-9.452-63.873 11.263-5.905 8.435-7.333 16.218-5.094 27.761 2.976 15.338-2.114 30.899-13.614 41.627-3.552 3.312-7.873 8.254-10.512 12.022-2.686 3.835-3.13 11.935-1.191 21.666a83.369 83.369 0 002.254 8.737 8.007 8.007 0 008.023 5.598 81.028 81.028 0 007.396-.691c10.241-1.438 18.628-4.895 21.367-8.807 2.636-3.765 5.804-9.519 7.704-13.991 6.146-14.477 19.03-24.583 34.463-27.03 11.608-1.843 18.434-5.847 24.339-14.28 14.506-20.717 9.454-49.37-11.262-63.875z"/></svg>