<svg xmlns="http://www.w3.org/2000/svg" viewBox="0 0 480 480"><path d="M237 360.988l-70.812-49.653c-3.11-2.181-7.322.408-6.771 4.167 1.657 11.304 1.427 23.521-.828 36.17-.435 2.44-2.055 4.488-4.291 5.559-3.785 1.811-7.2 4.339-9.756 7.984l-28.211 40.231c-8.72 12.436-5.384 29.97 7.439 38.961 12.807 8.98 30.444 6.151 39.164-6.283l28.21-40.231c2.579-3.678 3.791-7.791 4.186-12.01.225-2.41 1.58-4.569 3.676-5.779 12.151-7.021 24.634-11.605 36.805-13.703 2.63-.454 3.374-3.88 1.189-5.413zM395.892 56.317c-71.44-50.094-174.07-26.949-229.21 51.688-30.845 43.988-40.072 95.947-29.877 142.017.77 3.477 2.847 6.525 5.762 8.569L292.58 363.779a12.66 12.66 0 008.852 2.209c47.009-5.956 92.99-32.377 123.976-76.566 55.139-78.636 41.925-183.011-29.516-233.105zM70.004 199.996C47.91 199.996 30 217.906 30 240s17.91 40.004 40.004 40.004c22.093 0 40.003-17.91 40.003-40.004s-17.911-40.004-40.003-40.004z"/></svg>