<svg xmlns="http://www.w3.org/2000/svg" viewBox="0 0 480 480"><path d="M240 40C129.543 40 40 129.543 40 240a201 201 0 003.483 37.28C60.951 369.919 142.285 440 240 440c82.53 0 153.377-49.993 183.93-121.344C434.268 294.513 440 267.927 440 240c0-110.457-89.543-200-200-200zm160.737 255.463C377.742 362.117 314.466 410 240 410c-90.383 0-164.279-70.537-169.672-159.564A171.83 171.83 0 0170 240c0-93.889 76.111-170 170-170 93.888 0 170 76.111 170 170 0 19.422-3.265 38.079-9.263 55.463zm-90.201-28.297c-25.042-2.097-44.595-23.499-43.697-49.284.863-24.831 21.014-45.077 45.843-46.021 16.128-.613 30.565 6.666 39.659 18.31a3.18 3.18 0 002.486 1.361c1.055.04 2.031-.549 2.665-1.393.662-.881.726-1.679.585-2.402l-.028-.114-.021-.067c-10.711-38.793-40.509-69.651-78.649-81.869-.599-.191-1.192-.393-1.795-.575a119.374 119.374 0 00-34.656-5.11c-.509 0-1.016.012-1.523.018-.721.009-1.438.03-2.156.052-76.957.406-139.219 62.909-139.219 139.961 0 18.217 3.483 35.619 9.815 51.582.07.186.134.374.208.559.181.449.38.888.565 1.335.285.688.575 1.375.871 2.058.28.648.559 1.298.849 1.94.512 1.134 1.037 2.26 1.578 3.377.29.6.591 1.193.889 1.789.37.738.747 1.474 1.131 2.205.296.565.589 1.132.893 1.691a138.489 138.489 0 001.873 3.35c.3.52.609 1.033.915 1.549.465.78.937 1.557 1.416 2.327.301.485.6.973.906 1.453a143.589 143.589 0 002.176 3.303c.299.44.605.875.909 1.312.568.817 1.146 1.628 1.731 2.433.294.404.585.812.884 1.212a142.496 142.496 0 002.485 3.241c.098.123.189.251.287.374l.023.012c10.239 5.033 20.444 8.551 36.576 8.551 1.972 0 4.035-.053 6.131-.158 24.889-1.246 35.493-8.355 50.171-18.195 17.408-11.668 39.072-26.189 80.537-28.268 3.053-.154 6.092-.23 9.034-.23 23.211 0 40.226 4.709 53.938 10.481l.017.006c.165-.354.317-.714.479-1.069.239-.521.474-1.046.706-1.571.309-.696.619-1.394.917-2.097.128-.302.248-.608.375-.911.648-1.563 1.271-3.14 1.863-4.73.13-.348.262-.693.39-1.042.308-.848.606-1.699.899-2.555.112-.328.222-.657.332-.986.207-.621.427-1.237.626-1.862l-.019-.01c-13.402-6.899-27.438-10.444-40.945-12.302l-21.925-3.021zm-5.684 41.869c-35.933 1.802-54.246 14.077-70.402 24.906-15.369 10.302-29.886 20.032-60.306 21.557-4.749.238-9.133.238-13.211.036h-.01l.199.132a141.72 141.72 0 003.811 2.518l.199.124c1.216.771 2.446 1.521 3.688 2.256.191.113.383.228.575.34a139.739 139.739 0 0017.118 8.504c.137.057.274.112.412.168 1.438.59 2.885 1.16 4.346 1.702l.007.003c1.525.566 3.063 1.105 4.613 1.62l.057.02.003-.001c22.864-4.511 36.897-13.911 49.595-22.422 15.368-10.302 29.885-20.031 60.305-21.557 16.273-.816 28.251 1.161 38.373 4.51l.011.003c.171-.19.333-.39.503-.582.815-.919 1.618-1.848 2.409-2.788.231-.275.467-.546.696-.823a140.729 140.729 0 003.529-4.451 140.548 140.548 0 002.282-3.076c.156-.218.319-.432.475-.651.84-1.18 1.655-2.378 2.459-3.585.131-.197.271-.389.402-.587l-.014-.005c-13.155-5.247-29.317-9.014-52.124-7.871zm0 44.39c-35.933 1.802-54.246 14.077-70.402 24.907l-2.172 1.453h.002c1.249.067 2.503.119 3.761.156l.098.004c1.283.035 2.57.055 3.862.055 1.101 0 2.198-.017 3.294-.042.342-.008.683-.021 1.023-.03a133.657 133.657 0 003.432-.145c.771-.042 1.541-.092 2.31-.146.325-.023.651-.043.976-.068 1.069-.083 2.135-.177 3.197-.284.186-.019.369-.042.555-.062.884-.093 1.766-.192 2.644-.302.377-.047.753-.098 1.129-.147.698-.093 1.395-.19 2.089-.293.398-.059.797-.118 1.194-.181a138.91 138.91 0 002.145-.354c.343-.06.688-.115 1.03-.178 1.007-.182 2.01-.373 3.009-.576.333-.067.664-.142.996-.212.696-.147 1.392-.297 2.084-.454.431-.098.859-.199 1.288-.301a119.85 119.85 0 001.791-.438 116.708 116.708 0 003.178-.838c.394-.109.79-.214 1.183-.326.93-.267 1.855-.542 2.778-.826.444-.138.887-.282 1.33-.424.538-.173 1.076-.345 1.611-.523a144.608 144.608 0 002.921-1.012c.489-.175.979-.35 1.465-.53.493-.184.984-.373 1.475-.562a137.65 137.65 0 002.43-.958c.507-.205 1.014-.409 1.518-.62.511-.214 1.018-.436 1.525-.655a142.469 142.469 0 005.573-2.557c.374-.182.743-.369 1.114-.554.978-.486 1.947-.983 2.911-1.492.347-.183.694-.362 1.038-.547.52-.28 1.035-.565 1.55-.852a145.925 145.925 0 002.613-1.483c.363-.212.725-.428 1.087-.643.502-.299 1.005-.597 1.503-.902.331-.202.658-.411.988-.617.905-.564 1.805-1.14 2.696-1.725.365-.239.731-.478 1.095-.721.461-.309.918-.622 1.376-.936.38-.262.76-.524 1.138-.789.441-.31.881-.621 1.319-.936.115-.083.232-.163.348-.247h-.009c-5.266-.339-10.93-.396-17.089-.087z"/></svg>