<svg xmlns="http://www.w3.org/2000/svg" width="1000pt" height="1000pt" viewBox="0 0 1000 1000"><path d="M500 83.332C269.883 83.332 83.332 269.882 83.332 500a418.73 418.73 0 007.258 77.668c36.39 192.996 205.836 339 409.41 339 171.938 0 319.535-104.152 383.188-252.8 21.539-50.298 33.48-105.688 33.48-163.868 0-230.117-186.55-416.668-416.668-416.668zm334.867 532.215C786.961 754.41 655.137 854.168 500 854.168c-188.297 0-342.246-146.953-353.484-332.426a357.97 357.97 0 01-.684-21.742c0-195.602 158.566-354.168 354.168-354.168S854.168 304.398 854.168 500c0 40.46-6.805 79.332-19.3 115.547zm-187.918-58.95c-52.172-4.37-92.906-48.956-91.035-102.675 1.797-51.73 43.781-93.91 95.508-95.879 33.598-1.277 63.676 13.887 82.621 38.148a6.619 6.619 0 005.18 2.832c2.199.086 4.23-1.14 5.55-2.902 1.38-1.832 1.516-3.496 1.22-5.004l-.06-.234-.042-.14c-22.313-80.821-84.395-145.106-163.852-170.563-1.246-.395-2.484-.817-3.738-1.196-22.852-6.922-47.09-10.648-72.2-10.648-1.062 0-2.117.027-3.175.039-1.5.02-2.996.063-4.492.11-160.325.843-290.04 131.058-290.04 291.585 0 37.95 7.258 74.203 20.45 107.461.144.387.277.778.433 1.164.375.938.793 1.852 1.176 2.782.594 1.433 1.2 2.863 1.817 4.289.582 1.347 1.164 2.703 1.77 4.039 1.065 2.363 2.16 4.71 3.284 7.035.606 1.25 1.23 2.488 1.852 3.73.773 1.535 1.558 3.07 2.36 4.594.612 1.176 1.226 2.356 1.859 3.52 1.27 2.347 2.57 4.675 3.902 6.98.625 1.082 1.27 2.152 1.906 3.227.969 1.625 1.95 3.246 2.95 4.847.624 1.012 1.25 2.028 1.886 3.028a290.435 290.435 0 004.535 6.882c.621.918 1.258 1.825 1.89 2.735 1.184 1.699 2.391 3.39 3.61 5.066.61.844 1.219 1.692 1.84 2.528a302.331 302.331 0 005.176 6.75c.207.257.394.523.601.78l.047.024c21.332 10.485 42.59 17.817 76.2 17.817 4.109 0 8.406-.114 12.773-.332 51.851-2.594 73.941-17.407 104.523-37.907 36.266-24.308 81.399-54.558 167.786-58.89 6.359-.32 12.69-.48 18.82-.48 48.355 0 83.805 9.812 112.37 21.835l.036.012c.344-.734.66-1.484.996-2.227.5-1.086.988-2.18 1.473-3.273.644-1.45 1.289-2.902 1.91-4.367.266-.63.516-1.266.781-1.899a286.61 286.61 0 003.883-9.855c.27-.723.543-1.442.813-2.168.64-1.77 1.261-3.54 1.87-5.324.235-.684.462-1.368.692-2.055.434-1.293.89-2.578 1.305-3.879l-.04-.02c-27.921-14.374-57.163-21.757-85.3-25.628zm-11.84 87.227c-74.863 3.754-113.011 29.324-146.672 51.887-32.019 21.46-62.261 41.734-125.636 44.91-9.895.496-19.028.496-27.524.074h-.02l.415.278a293.152 293.152 0 007.937 5.242l.414.262a301.094 301.094 0 007.684 4.699l1.2.707a291.15 291.15 0 0016.84 9.129l1.112.55c5.797 2.868 11.7 5.551 17.711 8.04.285.117.57.23.856.347a282.32 282.32 0 009.054 3.547l.016.008c3.176 1.176 6.383 2.3 9.61 3.375l.12.039h.004c47.633-9.398 76.872-28.984 103.325-46.715 32.015-21.46 62.261-41.73 125.636-44.91 33.899-1.7 58.856 2.418 79.942 9.398l.023.004c.356-.394.696-.812 1.047-1.21a295.35 295.35 0 005.02-5.81c.48-.573.972-1.136 1.449-1.714a281.37 281.37 0 007.351-9.274c1.614-2.113 3.2-4.246 4.754-6.41.328-.453.668-.898.993-1.355a289.756 289.756 0 005.12-7.469c.274-.41.567-.808.84-1.223l-.03-.007c-27.407-10.934-61.079-18.782-108.59-16.399zm0 92.477c-74.863 3.754-113.011 29.328-146.672 51.89l-4.523 3.028h.004c2.602.14 5.215.246 7.836.324l.203.008c2.672.074 5.352.117 8.047.117 2.293 0 4.578-.035 6.86-.09.714-.015 1.425-.043 2.132-.062 1.598-.047 3.188-.106 4.777-.184a278.988 278.988 0 007.184-.422c.68-.047 1.36-.09 2.035-.14 2.227-.172 4.45-.372 6.66-.594.387-.04.77-.086 1.157-.13 1.84-.19 3.68-.398 5.507-.628.786-.098 1.57-.203 2.352-.305 1.453-.195 2.906-.398 4.352-.61.832-.124 1.66-.245 2.488-.378 1.496-.234 2.98-.48 4.469-.738.714-.125 1.433-.239 2.144-.371 2.102-.38 4.188-.778 6.27-1.2.695-.14 1.382-.296 2.074-.441 1.453-.305 2.902-.617 4.344-.945.898-.203 1.789-.414 2.683-.63 1.246-.292 2.488-.597 3.73-.91.923-.23 1.844-.464 2.762-.702 1.29-.336 2.575-.692 3.86-1.043.82-.227 1.644-.446 2.465-.68a298.185 298.185 0 005.789-1.723c.922-.285 1.847-.586 2.77-.883 1.12-.359 2.241-.718 3.355-1.09a340.28 340.28 0 003.011-1.023c1.028-.355 2.051-.719 3.075-1.082 1.02-.367 2.039-.73 3.05-1.105 1.028-.383 2.051-.778 3.075-1.172a256.823 256.823 0 005.062-1.996c1.055-.426 2.113-.852 3.164-1.29 1.063-.449 2.117-.91 3.176-1.367.883-.382 1.766-.765 2.644-1.156 1.075-.476 2.145-.965 3.215-1.457.84-.387 1.68-.781 2.516-1.172a306.81 306.81 0 003.234-1.539c.782-.383 1.547-.77 2.32-1.156a260.58 260.58 0 006.067-3.11c.723-.378 1.445-.753 2.16-1.136 1.086-.586 2.156-1.18 3.23-1.778a254.401 254.401 0 005.445-3.09c.755-.44 1.509-.89 2.263-1.34 1.047-.62 2.093-1.241 3.133-1.878.69-.418 1.37-.856 2.058-1.285a279.492 279.492 0 005.617-3.594c.758-.496 1.524-.996 2.282-1.5.96-.645 1.91-1.297 2.867-1.953.789-.543 1.582-1.09 2.37-1.64a438.59 438.59 0 002.747-1.954c.238-.172.484-.336.726-.512h-.02c-10.972-.707-22.769-.824-35.6-.183zm0 0"/></svg>