<svg xmlns="http://www.w3.org/2000/svg" viewBox="0 0 480 480"><path d="M123.337 142.943c12.671-18.097 8.273-43.038-9.823-55.709-18.097-12.672-43.038-8.273-55.709 9.822-12.671 18.097-8.273 43.038 9.823 55.709 18.095 12.673 43.037 8.274 55.709-9.822zm-40.956-28.677A44.73 44.73 0 0162.33 130.17a30.156 30.156 0 01-1.772-10.13 34.767 34.767 0 0013.631-11.511 34.76 34.76 0 006.154-16.732 30.142 30.142 0 0110.125-1.795 44.747 44.747 0 01-8.087 24.264zm24.546 17.186a34.773 34.773 0 00-6.156 16.755 30.188 30.188 0 01-10.124 1.797 44.706 44.706 0 018.089-24.287 44.714 44.714 0 0120.039-15.9 30.141 30.141 0 011.779 10.127 34.755 34.755 0 00-13.627 11.508zm282.484 309.997L370 160c0-71.644-58.203-129.723-130-129.723-42.344 0-79.953 20.207-103.689 51.479C144.919 92.15 150.1 105.48 150.1 120c0 26.555-17.333 49.125-41.274 57.027L90.59 441.449c-.32 4.624 3.346 8.551 7.981 8.551h282.858c4.635 0 8.3-3.927 7.982-8.551zM130 390.004c-11.048 0-20.004-8.956-20.004-20.004s8.956-20.004 20.004-20.004 20.005 8.956 20.005 20.004-8.957 20.004-20.005 20.004zM140.005 260c-10.701 0-19.414-8.408-19.953-18.976A9.888 9.888 0 01120 240v-.004c0-11.049 8.956-20.005 20.005-20.005 11.048 0 20.004 8.956 20.004 20.005 0 11.048-8.957 20.004-20.004 20.004zm179.991-20.004c0-11.049 8.956-20.005 20.004-20.005s20.005 8.956 20.005 20.005c0 11.048-8.957 20.004-20.005 20.004s-20.004-8.956-20.004-20.004zM350 390.004c-11.048 0-20.004-8.956-20.004-20.004s8.956-20.004 20.004-20.004 20.005 8.956 20.005 20.004-8.957 20.004-20.005 20.004z"/></svg>