<svg xmlns="http://www.w3.org/2000/svg" viewBox="0 0 480 480"><path d="M429.798 176.801c-12.406 15.221-29.688 26.311-49.469 30.876a90.256 90.256 0 01-20.325 2.305h-27.129a170.907 170.907 0 00-2.005 15.022h78.475c.434 4.941.655 9.943.655 14.996 0 5.056-.222 10.061-.656 15.006H330.87c3.15 35.754 17.321 68.383 39.169 94.379a171.592 171.592 0 01-21.312 21.206c-27.168-31.489-44.599-71.549-47.887-115.595H255v154.348a171.08 171.08 0 01-15 .656c-5.055 0-10.058-.222-15.001-.656V254.996h-45.84c-3.288 44.046-20.719 84.105-47.887 115.595a171.576 171.576 0 01-21.311-21.205c21.857-25.995 36.028-58.625 39.18-94.38H70.656a171.752 171.752 0 01-.001-30.002h78.486c-3.151-35.757-17.324-68.389-39.185-94.385a171.648 171.648 0 0121.315-21.21c27.168 31.488 44.599 71.548 47.887 115.595h45.84V169.73c-9.072-13.649-14.522-29.914-14.966-47.426a89.74 89.74 0 01-.029-2.323c0-34.243 19.125-64.019 47.276-79.229A202.314 202.314 0 00240 40C129.54 40 40 129.54 40 240c0 110.44 89.54 200 200 200 110.439 0 200-89.56 200-200 0-22.087-3.59-43.333-10.202-63.199zm-150.119 30.876A89.401 89.401 0 01255 197.936v27.068h45.84c.378-5.063.951-10.071 1.697-15.022h-2.533a90.32 90.32 0 01-20.325-2.305zm-49.675-87.696c0 21.472 9.727 40.708 24.996 53.56 12.178 10.249 27.879 16.44 45.004 16.44h60c26.041 0 48.79-14.305 60.847-35.458a69.552 69.552 0 009.153-34.542c0-38.599-31.401-70-70-70h-60c-19.211 0-36.636 7.783-49.297 20.356-12.777 12.69-20.703 30.258-20.703 49.644zm139.431-22.224l6.706-4.245 9.501-6.017h13.011v65.469h-13.842v-52.33h-.384l-.623.391-14.369 9.008V97.757zm-44.041 0l16.207-10.262h13.011v65.469H340.77v-52.33h-.384l-14.992 9.398V97.757zm-64.528-10.262h13.842v42.804c0 7.001 5.658 11.253 13.298 11.253 7.736 0 13.395-4.252 13.395-11.253V87.495h13.746v43.283c0 14.833-11.316 23.112-27.141 23.112-15.888 0-27.14-8.279-27.14-23.112V87.495z"/></svg>