<svg xmlns="http://www.w3.org/2000/svg" width="1000pt" height="1000pt" viewBox="0 0 1000 1000"><path d="M256.953 297.797c26.399-37.7 17.235-89.66-20.465-116.059-37.703-26.402-89.664-17.234-116.062 20.461-26.399 37.703-17.235 89.664 20.465 116.063 37.699 26.402 89.66 17.234 116.062-20.465zm-85.324-59.742c-10.809 15.433-25.469 26.59-41.774 33.132a62.804 62.804 0 01-3.69-21.105 72.396 72.396 0 0028.394-23.98c7.488-10.688 11.675-22.707 12.824-34.86a62.847 62.847 0 0121.094-3.738c-.582 17.547-6.051 35.125-16.848 50.55zm51.137 35.804a72.408 72.408 0 00-12.825 34.907 62.868 62.868 0 01-21.093 3.742c.566-17.567 6.039-35.16 16.851-50.598 10.805-15.43 25.453-26.582 41.75-33.125a62.771 62.771 0 013.703 21.098 72.423 72.423 0 00-28.386 23.976zm588.507 645.825l-40.441-586.352c0-149.258-121.254-270.254-270.832-270.254-88.215 0-166.57 42.098-216.02 107.246 17.934 21.656 28.727 49.426 28.727 79.676 0 55.324-36.11 102.344-85.984 118.805L188.73 919.684c-.667 9.636 6.97 17.816 16.625 17.816h589.29c9.656 0 17.289-8.18 16.628-17.816zM270.832 812.508c-23.016 0-41.672-18.656-41.672-41.676 0-23.016 18.656-41.672 41.672-41.672 23.02 0 41.68 18.656 41.68 41.672 0 23.02-18.66 41.676-41.68 41.676zm20.844-270.84c-22.293 0-40.446-17.52-41.567-39.535-.074-.7-.109-1.41-.109-2.133v-.008c0-23.02 18.66-41.676 41.676-41.676 23.02 0 41.676 18.657 41.676 41.676 0 23.016-18.66 41.676-41.676 41.676zm374.984-41.676c0-23.02 18.656-41.676 41.672-41.676 23.02 0 41.68 18.657 41.68 41.676 0 23.016-18.66 41.676-41.68 41.676-23.016 0-41.672-18.66-41.672-41.676zm62.508 312.516c-23.02 0-41.676-18.656-41.676-41.676 0-23.016 18.656-41.672 41.676-41.672 23.016 0 41.676 18.656 41.676 41.672 0 23.02-18.66 41.676-41.676 41.676zm0 0"/></svg>