<svg xmlns="http://www.w3.org/2000/svg" viewBox="0 0 480 480"><path d="M350 250c-55.25 0-100 44.75-100 100 0 55.2 44.75 100 100 100 55.2 0 100-44.8 100-100 0-55.25-44.8-100-100-100zm28.8 61.75c-3.699-2.1-7.5-3.85-11.35-5.4l-.1.2-.15.3c-3.85 7.4-6.55 15.301-8.2 23.45-.1.4-.149.851-.25 1.25-.3 1.55-.649 3.101-.85 4.7-.101.95-.2 1.95-.25 2.9-.05.5-.05.949-.101 1.449-.149 1.75-.199 3.5-.25 5.25.95.601 1.851 1.25 2.75 1.9.5.4 1.051.75 1.601 1.15.35.25.75.5 1.1.699.45.25.9.551 1.351.851l.6.45c.15.149.3.3.5.449 2.55 1.9 4.95 3.95 7.3 6.051.101.1.2.149.3.25.301.25.601.5.851.75l.2.199.199.2c7.351 6.95 13.801 14.75 18.9 23.55.05.051.1.15.15.25.05.101.05.15.1.2 1.3 2.25 2.4 4.55 3.5 6.851.05.149.1.25.15.399l.149.3c1 2.051 1.851 4.15 2.65 6.25.1.301.25.551.35.851l.45 1.05c.05.1.05.15.1.25.051.1.051.15.101.25.1.35.2.65.3 1 .05.25.15.55.25.85.55 1.7 1.1 3.4 1.6 5.15.101.25.15.5.25.75.101.3.2.55.25.85.101.301.15.601.25.9.2.75.351 1.55.5 2.35.101.45.15.851.25 1.301.101.35.15.75.25 1.1.101.45.2.85.301 1.3-4.051 3.4-8.4 6.45-13.051 9.101-.199-1.9-.5-3.801-.85-5.7-.2-1-.45-1.95-.65-2.95-.449-2.15-.949-4.3-1.6-6.45-.2-.7-.45-1.399-.7-2.1-.149-.351-.3-.7-.399-1.05l-.301-.9c-.6-1.7-1.149-3.4-1.85-5.05-3.2 2.35-6.5 4.6-10.05 6.649-24.101 13.9-52.15 17.2-78.05 10.4a86.336 86.336 0 01-21-24.2 89.508 89.508 0 0091.899 1.4c3.7-2.101 7.101-4.55 10.351-7.101l-.051-.05-.05-.05-.05-.1-.15-.2c-4.5-7.05-10-13.3-16.25-18.851-.399-.35-.85-.75-1.25-1.1-1.1-1-2.199-1.95-3.35-2.85-.8-.601-1.65-1.2-2.5-1.75-.35-.25-.7-.45-1.05-.7-1.4-1-2.9-1.95-4.4-2.851-.95.551-2 1-3.05 1.45-.6.25-1.2.5-1.8.8-.4.2-.75.4-1.15.601-.45.25-.95.5-1.399.7-.2.1-.45.149-.7.25-.2.1-.4.149-.601.25-2.899 1.25-5.899 2.3-8.899 3.3-.15.1-.351.149-.5.2-.25.1-.55.199-.851.3-.1.05-.25.1-.35.1h-.2c-9.649 2.95-19.7 4.65-29.85 4.65h-.45c-2.65-.05-5.2-.2-7.75-.4-.1 0-.25-.05-.35-.05-.101-.05-.25-.05-.351-.05-2.3-.2-4.5-.5-6.75-.851-.25-.05-.55-.05-.85-.1-.351-.05-.75-.1-1.15-.15h-.25c-.1 0-.149-.05-.25-.05-.399-.05-.8-.149-1.2-.25-.25-.1-.5-.149-.75-.2-1.75-.35-3.5-.75-5.25-1.199-.199-.051-.449-.101-.649-.15-.3-.05-.65-.1-.95-.2-.1-.05-.25-.05-.35-.1-.2-.05-.351-.101-.551-.15-.75-.2-1.5-.45-2.25-.7-.449-.149-.85-.3-1.3-.449-.3-.15-.649-.25-1-.351l-1.35-.45a83.542 83.542 0 01-1.351-15.1V349c1.801.75 3.601 1.45 5.4 2.1.95.351 1.95.65 2.9.95 2.149.7 4.25 1.351 6.399 1.851.65.149 1.351.3 2.05.399.4.101.851.15 1.25.25.4.101.75.15 1.15.25 1.65.3 3.35.65 5.05.851-.45-3.95-.75-7.95-.75-12 0-27.851 11.15-53.801 30.05-72.851 9.7-3.899 20.301-6.05 31.4-6.05-28.9 15.5-47.2 45.7-47.2 78.9 0 4.3.4 8.449 1 12.55h.5c8.3-.351 16.5-1.95 24.4-4.601l1.35-.449c1.5-.45 2.95-.95 4.4-1.551.85-.35 1.75-.8 2.6-1.199.45-.2.9-.45 1.351-.65 1.55-.75 3.1-1.55 4.649-2.4 0-1.1.15-2.199.25-3.3.05-.7.15-1.35.2-2.05.05-.4.05-.85.05-1.25.05-.55.05-1.05.101-1.6 0-.25.05-.5.1-.75s.05-.45.1-.65c.4-3.15.95-6.25 1.601-9.35.05-.15.05-.351.1-.5.05-.301.15-.65.2-.95 0-.05 0-.15.05-.25.05-.101.101-.15.101-.25 2.3-9.851 5.8-19.351 10.899-28.15l.05-.1.051-.05c.05-.101.1-.15.149-.25 1.351-2.2 2.75-4.351 4.2-6.45.1-.15.15-.25.25-.351.05-.05.15-.149.2-.25 1.3-1.85 2.7-3.649 4.1-5.399.2-.2.351-.45.55-.7.2-.3.45-.6.7-.9l.15-.199c.05-.101.1-.15.149-.2.25-.3.5-.55.75-.8.2-.2.4-.45.601-.65 1.2-1.35 2.399-2.65 3.649-3.95.15-.2.351-.35.5-.55.2-.25.45-.5.65-.7l.65-.649c.55-.551 1.1-1.051 1.699-1.551.351-.3.7-.649 1.051-.949.3-.25.6-.551.899-.801s.65-.55.95-.85c5.05 1.8 9.85 4.05 14.4 6.75-1.5 1.15-3 2.35-4.65 3.25-.65.55-1.3 1.15-1.95 1.75l-.3.3c-1.65 1.5-3.25 3-4.8 4.601-.45.5-.9 1.05-1.351 1.55-.25.3-.55.649-.85 1-.3.3-.55.6-.8.899-1.101 1.301-2.2 2.601-3.25 3.95 3.649 1.55 7.3 3.3 10.8 5.351 24.1 13.899 41 36.6 48.05 62.449a83.763 83.763 0 01-10.45 30.2C424.55 359.3 407.55 328.35 378.8 311.75zm-97.428-60.123a141.898 141.898 0 0125.111-12.77c1.802-.7 20.188-6.698 20.193-6.604-.022-.404-.057-.799-.074-1.206a162.175 162.175 0 01-.125-3.526l-.015-.585a168.882 168.882 0 01-.043-3.643c0-170.618-99.309-191.566-128.462-192.964-4.544-.218-7.431-.237-7.917-.239h-.081c-.486.002-3.373.021-7.917.239-29.153 1.398-128.461 22.346-128.461 192.964 0 29.942-7.838 54.954-21.016 68.54-5.512 5.683-1.564 15.248 6.351 15.373 20.973.331 48.916-4.516 71.489-27.089a117.74 117.74 0 0110.01-8.959c3.264-2.592 7.875-2.64 11.166-.084 16.557 12.86 36.694 20.407 58.42 20.407 22.8 0 45.301-7.82 64.321-20.137 9.402-6.088 17.598-13.661 27.05-19.717zM190 268.752c-43.802 0-79.438-40.785-79.438-90.919 0-24.677 8.642-47.077 22.637-63.471 4.464-5.229 12.815-3.804 15.4 2.567 8.838 21.784 34.931 55.168 111.933 60.178 5.114.332 8.957 4.752 8.51 9.857-4.016 45.862-37.932 81.788-79.042 81.788z"/></svg>