<svg xmlns="http://www.w3.org/2000/svg" width="1000pt" height="1000pt" viewBox="0 0 1000 1000"><path d="M729.168 520.832c-115.106 0-208.336 93.23-208.336 208.336 0 115 93.23 208.332 208.336 208.332 115 0 208.332-93.332 208.332-208.332 0-115.106-93.332-208.336-208.332-208.336zm60 128.648c-7.707-4.375-15.625-8.023-23.648-11.25l-.207.415c-.106.21-.211.418-.313.625-8.02 15.418-13.645 31.878-17.082 48.855-.211.832-.313 1.773-.523 2.605-.625 3.227-1.352 6.461-1.77 9.79-.21 1.98-.418 4.062-.52 6.043-.105 1.042-.105 1.976-.21 3.019-.313 3.645-.415 7.29-.524 10.938 1.98 1.25 3.86 2.601 5.73 3.957 1.044.832 2.192 1.562 3.337 2.394.73.524 1.562 1.043 2.292 1.457.938.524 1.875 1.149 2.813 1.774.414.312.832.625 1.25.937.312.313.625.625 1.043.938 5.312 3.957 10.312 8.226 15.207 12.605.21.207.418.309.625.52.629.52 1.254 1.043 1.773 1.562l.418.414.414.418c15.313 14.48 28.75 30.73 39.375 49.063.106.105.207.312.313.52.105.21.105.312.207.417 2.71 4.688 5 9.48 7.293 14.274.105.308.207.52.312.832.106.207.207.414.309.625 2.086 4.27 3.86 8.644 5.523 13.02.207.624.52 1.148.727 1.773.313.726.625 1.457.938 2.187.105.207.105.313.21.52.106.207.106.312.211.52.207.73.414 1.355.625 2.085.102.52.313 1.145.52 1.77 1.144 3.543 2.293 7.082 3.332 10.73.21.52.312 1.04.523 1.563.207.625.414 1.144.52 1.77.21.628.312 1.253.52 1.874.417 1.563.73 3.23 1.042 4.895.211.937.313 1.773.52 2.71.21.731.312 1.563.523 2.293.207.938.414 1.77.625 2.708a183.793 183.793 0 01-27.187 18.96c-.418-3.957-1.043-7.918-1.774-11.875-.414-2.082-.937-4.062-1.351-6.144-.938-4.48-1.98-8.957-3.336-13.438-.414-1.457-.938-2.914-1.457-4.375-.313-.73-.625-1.457-.832-2.187-.211-.629-.418-1.254-.625-1.875-1.25-3.543-2.395-7.082-3.856-10.52-6.668 4.895-13.543 9.582-20.937 13.852C731.875 875 673.44 881.875 619.48 867.707a179.848 179.848 0 01-43.75-50.414c58.024 35.937 131.563 37.5 191.457 2.914 7.708-4.375 14.793-9.477 21.567-14.793l-.11-.105-.101-.102-.106-.21-.312-.415c-9.375-14.687-20.832-27.71-33.855-39.273-.829-.73-1.77-1.563-2.602-2.293-2.293-2.082-4.582-4.063-6.98-5.938a93.119 93.119 0 00-5.208-3.644c-.73-.52-1.46-.938-2.187-1.457-2.918-2.086-6.043-4.063-9.168-5.942-1.98 1.149-4.168 2.082-6.355 3.02-1.25.523-2.5 1.043-3.75 1.668-.832.418-1.563.832-2.395 1.254-.938.52-1.98 1.039-2.914 1.457-.418.207-.938.308-1.457.52-.418.21-.836.312-1.254.523-6.04 2.601-12.29 4.789-18.54 6.875-.312.207-.73.308-1.042.414-.52.21-1.145.414-1.773.625-.207.105-.52.21-.727.21h-.418c-20.102 6.145-41.043 9.688-62.188 9.688h-.937c-5.52-.105-10.832-.418-16.145-.836-.21 0-.523-.101-.73-.101-.21-.106-.52-.106-.73-.106-4.793-.418-9.375-1.043-14.063-1.773-.523-.106-1.148-.106-1.773-.207-.73-.106-1.563-.211-2.395-.313h-.52c-.21 0-.312-.105-.523-.105-.828-.106-1.664-.309-2.5-.52-.52-.21-1.039-.312-1.562-.418-3.645-.73-7.29-1.562-10.938-2.496-.414-.11-.933-.21-1.351-.312-.625-.106-1.352-.211-1.977-.418-.211-.106-.523-.106-.73-.207-.418-.106-.731-.211-1.149-.313-1.562-.418-3.125-.937-4.687-1.46-.934-.31-1.77-.626-2.707-.934-.625-.313-1.352-.524-2.086-.73-.938-.313-1.871-.626-2.813-.938-1.875-10.207-2.812-20.73-2.812-31.461v-1.559c3.75 1.563 7.5 3.023 11.25 4.375 1.98.734 4.062 1.356 6.043 1.98 4.476 1.458 8.851 2.817 13.328 3.856 1.355.312 2.816.625 4.273.832.832.21 1.774.313 2.602.52.836.21 1.562.312 2.398.523 3.438.625 6.977 1.352 10.52 1.773-.938-8.23-1.563-16.562-1.563-25 0-58.023 23.23-112.086 62.606-151.773 20.207-8.125 42.293-12.606 65.414-12.606-60.207 32.293-98.332 95.208-98.332 164.375 0 8.958.832 17.602 2.082 26.145h1.043c17.293-.73 34.375-4.062 50.832-9.586.937-.308 1.875-.625 2.812-.933 3.125-.938 6.149-1.981 9.168-3.231 1.77-.73 3.645-1.668 5.418-2.5.938-.414 1.875-.937 2.813-1.352 3.23-1.562 6.46-3.23 9.687-5 0-2.293.313-4.582.52-6.875.105-1.46.312-2.812.418-4.273.101-.832.101-1.77.101-2.602.106-1.148.106-2.187.211-3.335 0-.52.106-1.04.211-1.563.102-.52.102-.937.207-1.352.832-6.562 1.98-13.023 3.336-19.48.102-.313.102-.73.207-1.043.106-.625.313-1.352.418-1.977 0-.105 0-.312.102-.523.105-.21.21-.312.21-.52 4.793-20.523 12.086-40.316 22.708-58.644l.105-.211.106-.102c.105-.21.207-.312.308-.523a302.708 302.708 0 018.75-13.437c.211-.313.313-.52.524-.73.101-.106.312-.31.414-.52 2.71-3.856 5.625-7.602 8.543-11.25.418-.415.73-.938 1.144-1.457.418-.625.938-1.25 1.461-1.875l.313-.415c.101-.21.207-.312.308-.418.524-.625 1.043-1.144 1.563-1.664.418-.418.836-.937 1.254-1.355 2.5-2.813 4.996-5.52 7.601-8.23.313-.415.73-.727 1.043-1.145.414-.52.938-1.043 1.352-1.457l1.355-1.356a53.369 53.369 0 013.54-3.23c.73-.625 1.456-1.352 2.19-1.977.626-.52 1.25-1.148 1.872-1.668.625-.52 1.355-1.144 1.98-1.77a171.489 171.489 0 0130 14.063c-3.125 2.395-6.25 4.895-9.687 6.77-1.356 1.144-2.711 2.394-4.063 3.644l-.625.625c-3.437 3.125-6.773 6.25-10 9.586-.937 1.043-1.875 2.188-2.816 3.23-.52.626-1.145 1.352-1.77 2.083-.625.625-1.144 1.25-1.668 1.875-2.293 2.707-4.582 5.418-6.77 8.226 7.602 3.23 15.208 6.875 22.5 11.149 50.208 28.957 85.419 76.25 100.106 130.101-3.23 22.606-10.73 43.856-21.773 62.918 2.093-68.23-33.324-132.71-93.219-167.293zM586.191 524.223a295.748 295.748 0 0152.317-26.606c3.754-1.457 42.058-13.953 42.066-13.758-.047-.84-.117-1.664-.152-2.511-.117-2.43-.2-4.883-.262-7.344a348.845 348.845 0 01-.121-8.809c0-355.457-206.894-399.097-267.629-402.011-9.465-.454-15.48-.493-16.492-.496h-.172c-1.012.003-7.023.042-16.492.496-60.734 2.914-267.625 46.554-267.625 402.011 0 62.38-16.332 114.485-43.785 142.79-11.485 11.84-3.258 31.769 13.23 32.027 43.696.691 101.91-9.407 148.938-56.434 7.02-7.02 13.98-13.21 20.851-18.664 6.801-5.402 16.407-5.5 23.266-.176 34.492 26.79 76.445 42.516 121.707 42.516 47.5 0 94.375-16.293 134-41.953 19.59-12.684 36.664-28.461 56.355-41.078zm-190.359 35.675c-91.254 0-165.496-84.968-165.496-189.414 0-51.41 18.004-98.074 47.16-132.23 9.3-10.895 26.7-7.926 32.086 5.348 18.41 45.382 72.773 114.933 233.191 125.37 10.657.692 18.66 9.9 17.73 20.536-8.366 95.547-79.023 170.39-164.671 170.39zm0 0"/></svg>