<svg xmlns="http://www.w3.org/2000/svg" width="1000pt" height="1000pt" viewBox="0 0 1000 1000"><path d="M916.43 704.824L894.477 376.93a17.115 17.115 0 00-.684-3.79C839.414 193.388 672.503 62.5 475.003 62.5h-16.671c-223.898 0-382.996 174.852-394.36 395.45-.8 15.51.38 31.066 3.153 46.347l35.242 194.133a16.676 16.676 0 0011.406 12.922l704.348 221.367c8.512 2.672 17.617-1.824 20.664-10.203l76.684-210.88c.789-2.179 1.117-4.495.96-6.812zm-64.563-12.87L448.56 589.43a41.68 41.68 0 01-28.168-27.184l-44.383-136.543C370.23 399.683 390.028 375 416.684 375h419.668c8.757 0 16.02 6.777 16.625 15.52l19.625 284.128c.78 11.329-9.735 20.098-20.735 17.305zm0 0"/></svg>