<svg xmlns="http://www.w3.org/2000/svg" viewBox="0 0 480 480"><path d="M439.887 338.316l-10.538-157.389a8.148 8.148 0 00-.329-1.819C402.918 92.826 322.802 30 228.001 30H220C112.529 30 36.161 113.928 30.706 219.816c-.384 7.445.183 14.911 1.514 22.247l16.917 93.183a8 8 0 005.474 6.203l338.088 106.256a8.001 8.001 0 009.918-4.898l36.808-101.222a8.023 8.023 0 00.462-3.269zm-30.99-6.179l-193.588-49.211a20.004 20.004 0 01-13.521-13.047l-21.304-65.541c-2.774-12.49 6.73-24.338 19.525-24.338h201.439a7.999 7.999 0 017.98 7.449l9.421 136.383c.375 5.436-4.672 9.647-9.952 8.305z"/></svg>