<svg xmlns="http://www.w3.org/2000/svg" viewBox="0 0 480 480"><path d="M240 40C129.543 40 40 129.543 40 240s89.543 200 200 200 200-89.543 200-200S350.457 40 240 40zm-2.087 30.025c.696-.007 1.39-.025 2.087-.025 19.744 0 38.974 3.347 57.043 9.766l-1.097.994-.004.004c-.605.552-1.211 1.104-1.821 1.651-.711.649-1.434 1.28-2.156 1.912-1.161 1.014-2.323 2.029-3.44 3.121a78.37 78.37 0 00-1.309 1.349c-.453.441-.88.915-1.308 1.389l-.001.001c-.331.367-.663.734-1.006 1.086a212.42 212.42 0 00-7.349 7.973c-.391.445-.801.873-1.214 1.304a33.577 33.577 0 00-1.483 1.615c-.094.112-.188.234-.283.358-.11.142-.223.287-.341.427-.503.594-.966 1.227-1.431 1.861-.354.484-.711.97-1.085 1.44-2.858 3.543-5.637 7.127-8.254 10.851-.132.185-.267.356-.4.527-.175.223-.347.442-.506.681-2.919 4.228-5.777 8.536-8.436 13.025a7.265 7.265 0 01-.328.506v.001l-.082.119-.133.199c-10.228 17.696-17.354 36.882-21.984 56.711-.04.171-.095.348-.15.523v.001a7.184 7.184 0 00-.151.522c-.146.636-.256 1.279-.366 1.92v.002c-.058.334-.115.667-.177.998-1.329 6.24-2.456 12.501-3.222 18.863-.055.421-.135.842-.215 1.265v.002a18.769 18.769 0 00-.248 1.531c-.112 1.06-.137 2.137-.161 3.213-.02.847-.038 1.691-.101 2.524-.106 1.367-.254 2.725-.401 4.081v.003c-.241 2.221-.482 4.438-.545 6.687a172.64 172.64 0 01-9.401 4.832c-.902.424-1.799.864-2.693 1.305h-.002c-1.739.855-3.476 1.709-5.257 2.439-2.892 1.207-5.855 2.188-8.826 3.17v.001c-.896.296-1.793.593-2.689.896-15.884 5.294-32.371 8.535-49.121 9.301-.181.01-.357.024-.533.04-.176.015-.353.03-.534.04-1.188-8.274-1.992-16.648-1.992-25.245-.002-66.094 36.027-126.258 93.106-157.76zm-118.121 49.767c16.055-16.055 34.755-28.503 55.118-36.938-36.988 38.164-58.866 89.676-58.866 144.948 0 8.193.604 16.226 1.511 24.178-3.44-.426-6.8-1.092-10.166-1.759-.771-.152-1.543-.306-2.316-.455-.842-.169-1.69-.319-2.539-.471-1.385-.247-2.772-.494-4.145-.818-4.349-1.047-8.596-2.355-12.844-3.724-1.953-.604-3.905-1.208-5.818-1.893a182.386 182.386 0 01-9.715-3.796c.241-45.057 17.892-87.384 49.78-119.272zM93.828 326.924a167.985 167.985 0 01-21.037-56.053c.515.166 1.027.334 1.542.498.688.219 1.375.438 2.061.66.885.283 1.762.584 2.638.886 1.497.516 2.993 1.03 4.529 1.45.357.106.722.192 1.085.278.25.06.501.118.747.185.644.179 1.302.314 1.957.451h.001c.451.094.9.187 1.344.293 3.503.906 7.026 1.672 10.569 2.376.51.109 1.01.235 1.51.359h.001v.001c.783.195 1.563.391 2.375.525.174.032.348.06.524.087h.002l.176.027.151.024.133.022c.773.139 1.561.225 2.349.31h.002c.586.064 1.173.128 1.756.214 4.489.705 8.999 1.309 13.549 1.731.252.01.498.045.745.08.246.035.493.07.744.081v.02c5.154.403 10.308.726 15.562.785.148 0 .297.01.447.021h.001c.156.01.314.021.478.021 20.434 0 40.626-3.402 60.093-9.321l.203-.043.17-.032c.234-.044.473-.088.694-.166a45.556 45.556 0 001.757-.613h.001v-.001h.002l.002-.001c.347-.126.691-.252 1.037-.372 6.079-1.973 12.059-4.106 17.937-6.644.404-.169.821-.312 1.239-.454l.001-.001c.478-.163.956-.327 1.418-.531.949-.426 1.864-.929 2.778-1.432h.002c.771-.424 1.541-.848 2.333-1.226a136.372 136.372 0 013.6-1.628l.001-.001c2.091-.922 4.178-1.842 6.184-2.94a163.82 163.82 0 018.897 5.757c.704.481 1.414.953 2.124 1.425v.001h.001c1.729 1.148 3.456 2.298 5.083 3.567 2.348 1.794 4.547 3.746 6.744 5.695.837.742 1.673 1.484 2.516 2.217 12.542 11.133 23.635 23.795 32.674 37.948.091.15.187.292.282.433l.125.186.089.138.068.109c-6.563 5.134-13.408 10.025-20.856 14.334-57.242 33.039-127.326 31.91-183.14-1.736zM240 410c-37.761 0-73.637-12.239-103.116-34.823 51.4 12.791 106.759 5.938 154.475-21.605 7.106-4.106 13.77-8.656 20.191-13.407 1.416 3.326 2.558 6.711 3.706 10.116.207.613.414 1.228.623 1.842.245.715.504 1.431.764 2.148.508 1.401 1.018 2.809 1.431 4.233 1.309 4.308 2.274 8.656 3.221 13.024.443 1.974.886 3.946 1.269 5.939a175.54 175.54 0 011.56 10.339C298.774 402.286 269.981 410 240 410zm148.315-86.772c-7.538 13.384-16.949 25.822-28.107 36.98a173.696 173.696 0 01-9.938 9.183c-.102-.464-.2-.929-.304-1.394-.165-.746-.33-1.492-.49-2.242-.183-.857-.351-1.714-.519-2.57-.312-1.598-.625-3.192-1.031-4.778a66.227 66.227 0 00-.523-1.832 21.406 21.406 0 00-.507-1.693v-.001c-.163-.497-.327-.995-.46-1.506-.986-3.503-2.094-6.945-3.241-10.368-.196-.58-.366-1.169-.537-1.758a36.23 36.23 0 00-.63-2.027c-.061-.16-.126-.316-.191-.473s-.131-.312-.191-.473c-.261-.727-.573-1.439-.886-2.154-.242-.554-.485-1.108-.705-1.671-1.65-4.248-3.361-8.436-5.294-12.603-.09-.197-.172-.398-.254-.602-.104-.254-.207-.511-.33-.768-2.194-4.63-4.47-9.261-7.046-13.79a7.733 7.733 0 01-.174-.354h-.001c-.089-.19-.177-.379-.289-.552-10.227-17.695-23.252-33.459-38.089-47.39-.142-.132-.273-.269-.402-.402v-.001c-.128-.132-.253-.262-.383-.382-.543-.514-1.12-.992-1.697-1.472l-.001-.001c-.193-.16-.386-.319-.576-.48-4.731-4.268-9.562-8.375-14.677-12.2a19.925 19.925 0 01-1.052-.855v-.001h-.001c-.38-.325-.76-.649-1.161-.935-.859-.636-1.773-1.191-2.686-1.746a42.21 42.21 0 01-2.166-1.375 135.318 135.318 0 01-3.271-2.342h-.001l-.001-.001c-1.823-1.332-3.646-2.664-5.564-3.837.08-3.544.241-7.066.523-10.59.081-.973.146-1.949.211-2.928.13-1.938.259-3.883.514-5.81.412-3.185 1.061-6.308 1.711-9.438v-.001c.176-.846.353-1.691.523-2.54 3.342-16.407 8.777-32.331 16.508-47.229.109-.193.196-.387.283-.58.058-.129.115-.258.18-.387 7.751 3.121 15.421 6.624 22.85 10.892 57.234 33.058 91.308 94.314 90.073 159.477zm-75.709-184.372c-7.087-4.087-14.354-7.609-21.702-10.771 2.092-2.762 4.342-5.338 6.591-7.911.521-.597 1.043-1.193 1.562-1.792a116.56 116.56 0 001.75-2.045c.891-1.055 1.779-2.108 2.719-3.109 3.08-3.261 6.382-6.281 9.663-9.261l.624-.573c1.298-1.197 2.59-2.388 3.926-3.533a193.314 193.314 0 018.245-6.582 171.032 171.032 0 0134.224 26.513C392.317 151.9 410 194.592 410 240c0 7.394-.478 14.713-1.4 21.929-14.61-50.956-48.24-95.501-95.994-123.073z"/></svg>