<svg xmlns="http://www.w3.org/2000/svg" width="1000pt" height="1000pt" viewBox="0 0 1000 1000"><path d="M500 83.332C269.883 83.332 83.332 269.882 83.332 500c0 230.117 186.55 416.668 416.668 416.668 230.117 0 416.668-186.55 416.668-416.668 0-230.117-186.55-416.668-416.668-416.668zm-4.348 62.555c1.45-.016 2.895-.055 4.348-.055 41.133 0 81.195 6.973 118.84 20.348-.762.687-1.524 1.379-2.285 2.07l-.008.008a627.708 627.708 0 01-3.793 3.441c-1.484 1.352-2.988 2.664-4.492 3.98-2.422 2.114-4.84 4.231-7.168 6.505-.922.921-1.848 1.886-2.727 2.808-.945.922-1.832 1.906-2.726 2.895v.004c-.692.761-1.383 1.527-2.098 2.261a444.848 444.848 0 00-15.309 16.61c-.816.93-1.668 1.82-2.53 2.718-1.048 1.09-2.102 2.192-3.09 3.364-.196.234-.391.488-.59.746-.227.297-.465.597-.708.89-1.05 1.235-2.015 2.555-2.984 3.875a88.47 88.47 0 01-2.258 3c-5.957 7.383-11.746 14.848-17.195 22.606-.277.387-.559.742-.836 1.098-.363.464-.723.921-1.055 1.421-6.078 8.81-12.035 17.782-17.574 27.133-.207.364-.441.707-.684 1.055v.004l-.171.246-.274.414c-21.308 36.867-36.156 76.84-45.8 118.148-.087.356-.2.727-.313 1.09v.004c-.117.367-.23.73-.317 1.086-.304 1.324-.53 2.664-.761 4v.004c-.121.695-.239 1.39-.367 2.078-2.77 13-5.118 26.047-6.715 39.301-.114.875-.282 1.754-.446 2.633v.004c-.203 1.058-.402 2.117-.52 3.191-.23 2.207-.284 4.453-.335 6.695-.04 1.762-.078 3.52-.207 5.258-.223 2.848-.531 5.676-.836 8.5v.008c-.504 4.625-1.004 9.246-1.137 13.93a359.129 359.129 0 01-19.586 10.066c-1.879.883-3.746 1.8-5.61 2.719h-.003c-3.625 1.781-7.242 3.562-10.953 5.082-6.024 2.516-12.2 4.558-18.387 6.605-1.867.618-3.734 1.239-5.601 1.868-33.094 11.03-67.442 17.78-102.336 19.378-.38.02-.746.047-1.11.082-.367.032-.738.063-1.113.083-2.477-17.235-4.152-34.684-4.152-52.594-.004-137.696 75.058-263.035 193.972-328.664zm-246.086 103.68c33.45-33.45 72.407-59.383 114.829-76.954-77.06 79.508-122.637 186.825-122.637 301.973 0 17.07 1.258 33.805 3.148 50.371-7.168-.887-14.168-2.273-21.18-3.664-1.605-.316-3.214-.637-4.824-.945-1.754-.356-3.52-.668-5.289-.985-2.886-.511-5.777-1.027-8.636-1.703-9.059-2.18-17.907-4.906-26.758-7.758-4.07-1.257-8.137-2.515-12.121-3.945-6.848-2.441-13.59-5.098-20.239-7.906.5-93.871 37.274-182.051 103.707-248.485zm-54.09 431.523c-21.468-35.953-36.277-75.39-43.828-116.774 1.075.344 2.141.696 3.211 1.036 1.434.457 2.868.914 4.293 1.375 1.844.59 3.672 1.218 5.496 1.847 3.122 1.074 6.239 2.145 9.438 3.02.742.222 1.504.398 2.262.578.52.125 1.043.246 1.554.387 1.34.37 2.711.652 4.078.937.942.2 1.875.39 2.801.613 7.297 1.887 14.637 3.48 22.02 4.95 1.062.226 2.101.488 3.144.746h.004v.004c1.63.406 3.254.812 4.946 1.093.363.067.726.125 1.093.18h.004l.367.059.313.05.277.043c1.61.29 3.254.47 4.895.649h.004c1.222.133 2.445.265 3.66.445 9.351 1.469 18.746 2.727 28.226 3.606.524.02 1.036.093 1.551.168.512.07 1.028.144 1.55.168v.039c10.74.84 21.474 1.515 32.423 1.636.308 0 .617.02.93.043h.003c.325.024.653.047.993.047 42.574 0 84.64-7.09 125.195-19.422l.422-.09.355-.066c.489-.09.985-.184 1.446-.344a96.382 96.382 0 003.66-1.277h.004v-.004h.007c.723-.262 1.438-.527 2.16-.777 12.665-4.11 25.122-8.551 37.368-13.84.844-.352 1.71-.649 2.582-.945l.004-.004c.996-.34 1.992-.68 2.953-1.106 1.976-.887 3.883-1.933 5.789-2.984h.004c1.605-.883 3.207-1.766 4.86-2.555 2.48-1.176 4.991-2.285 7.5-3.39 4.359-1.922 8.706-3.84 12.886-6.126a341.99 341.99 0 0118.535 11.993c1.465 1.004 2.945 1.984 4.422 2.968v.004h.004c3.601 2.39 7.2 4.785 10.59 7.43 4.89 3.738 9.472 7.805 14.05 11.863a651.569 651.569 0 005.243 4.621c26.129 23.192 49.238 49.57 68.07 79.059.187.312.387.605.586.902l.262.387.183.285.14.23c-13.671 10.696-27.929 20.883-43.448 29.86-119.254 68.832-265.262 66.48-381.54-3.617zM500 854.168c-78.668 0-153.41-25.5-214.824-72.55 107.082 26.648 222.414 12.37 321.82-45.009 14.805-8.554 28.688-18.035 42.067-27.933 2.949 6.93 5.328 13.984 7.722 21.078.43 1.273.86 2.555 1.297 3.836.508 1.488 1.05 2.98 1.59 4.476 1.058 2.918 2.121 5.852 2.98 8.817 2.73 8.976 4.739 18.035 6.711 27.133.926 4.113 1.848 8.222 2.645 12.375a362.455 362.455 0 013.25 21.539C622.445 838.098 562.46 854.168 500 854.168zm308.988-180.777c-15.703 27.882-35.308 53.797-58.554 77.043a362.512 362.512 0 01-20.704 19.132c-.214-.968-.418-1.937-.632-2.906-.344-1.555-.688-3.11-1.024-4.672-.379-1.785-.73-3.57-1.082-5.351-.648-3.332-1.3-6.653-2.144-9.957a139.802 139.802 0 00-1.09-3.817c-.293-1.195-.672-2.36-1.059-3.527-.34-1.035-.68-2.074-.957-3.137-2.054-7.3-4.363-14.469-6.754-21.601-.406-1.207-.761-2.434-1.117-3.664-.41-1.414-.82-2.829-1.312-4.223a43.172 43.172 0 00-.399-.984c-.137-.329-.273-.649-.398-.985-.543-1.515-1.192-3-1.844-4.488-.504-1.152-1.012-2.309-1.469-3.48-3.437-8.852-7.004-17.575-11.031-26.258-.188-.41-.36-.828-.527-1.254-.22-.528-.434-1.063-.688-1.598-4.57-9.648-9.312-19.297-14.68-28.73a16.164 16.164 0 01-.363-.739c-.187-.394-.37-.789-.605-1.148-21.305-36.867-48.442-69.707-79.352-98.73-.293-.274-.566-.56-.836-.837v-.003c-.265-.274-.527-.547-.797-.797-1.133-1.07-2.336-2.067-3.535-3.067h-.004c-.402-.336-.804-.664-1.199-1-9.855-8.89-19.922-17.449-30.578-25.418-.754-.558-1.477-1.172-2.192-1.78h-.003c-.79-.68-1.582-1.356-2.418-1.95-1.79-1.324-3.692-2.48-5.594-3.637-1.531-.93-3.055-1.855-4.512-2.867-2.3-1.578-4.558-3.227-6.816-4.879h-.004c-3.797-2.777-7.598-5.55-11.594-7.996.168-7.383.504-14.719 1.09-22.063.172-2.027.305-4.058.441-6.097.27-4.04.54-8.09 1.07-12.106.86-6.636 2.212-13.14 3.567-19.66v-.004c.363-1.761.734-3.523 1.09-5.293 6.96-34.18 18.285-67.355 34.39-98.39.227-.403.407-.809.59-1.211.121-.27.239-.535.375-.805 16.149 6.5 32.125 13.8 47.602 22.691 119.238 68.872 190.226 196.489 187.652 332.243zM651.262 289.285c-14.766-8.515-29.903-15.855-45.211-22.441 4.36-5.754 9.047-11.121 13.73-16.48 1.086-1.247 2.172-2.485 3.254-3.735a220.867 220.867 0 003.645-4.262c1.86-2.195 3.707-4.39 5.668-6.476 6.414-6.793 13.293-13.086 20.129-19.293l1.3-1.196c2.703-2.492 5.395-4.972 8.18-7.359a403.565 403.565 0 0117.176-13.711c25.699 15.121 49.66 33.594 71.3 55.234C817.329 316.457 854.169 405.398 854.169 500a360.11 360.11 0 01-2.918 45.684c-30.438-106.157-100.5-198.957-199.988-256.399zm0 0"/></svg>