<svg xmlns="http://www.w3.org/2000/svg" width="1000pt" height="1000pt" viewBox="0 0 1000 1000"><path d="M575.64 690.723c-2.644-8.52-7.984-16.27-15.855-21.782L354.996 525.547a41.465 41.465 0 00-23.215-7.531c-13.383-.23-26.633 5.976-34.886 17.761-13.2 18.852-8.622 44.836 10.23 58.032l170.676 119.507-119.414 170.72c-13.192 18.859-8.598 44.835 10.258 58.027a41.485 41.485 0 0023.847 7.527l.04-.004.034.004c13.141 0 26.075-6.203 34.176-17.79l135.84-194.202v-.098l7.375-10.547c7.664-10.957 9.285-24.3 5.633-36.156zM351.56 675.738a41.453 41.453 0 00-23.211-7.531c-13.383-.23-26.637 5.977-34.891 17.766l-143.39 204.785c-13.204 18.851-8.622 44.832 10.23 58.031a41.462 41.462 0 0023.863 7.54l.04-.005.03.004c13.137 0 26.063-6.2 34.168-17.773L361.793 733.77c13.2-18.848 8.617-44.832-10.234-58.032zm-200.95-116.39c29.473-5.606 54.164-23.743 75.95-39.743 5.808-4.265 11.293-8.289 16.703-11.984 21.918-14.95 56.285-38.398 85.84-38.887 5.457-.086 10.746.614 15.761 2.293 10.426 3.496 20.266 10.164 30.465 17.555l.23.211a42.062 42.062 0 003.262 2.535l102.461 71.77a41.665 41.665 0 0031.137 6.906 41.679 41.679 0 0026.902-17.137l119.47-170.61 68.214 47.763a41.47 41.47 0 0023.863 7.539h.074c13.133 0 26.063-6.196 34.164-17.77l95.598-136.523c13.2-18.852 8.617-44.836-10.23-58.032a41.475 41.475 0 00-23.215-7.53c-13.383-.231-26.637 5.976-34.89 17.76l-71.673 102.364-68.207-47.758-.086-.066-102.39-71.695-.082-.047-102.235-71.59a41.475 41.475 0 00-23.215-7.531c-13.382-.23-26.632 5.976-34.89 17.761L276.895 346.414c-13.2 18.852-8.618 44.832 10.234 58.031a41.483 41.483 0 0023.21 7.532 41.7 41.7 0 0028.876-10.942l-.024-.043a41.71 41.71 0 005.965-6.781l10.32-14.742 4.715-6.73.028.066c5.547 13.8 13.91 26.398 24.933 36.863a103.1 103.1 0 0013.344 10.723c1.086.73 2.184 1.437 3.293 2.125.371.226.746.441 1.117.664.739.449 1.477.894 2.223 1.32.45.258.906.492 1.355.742.676.371 1.356.75 2.04 1.106.48.25.964.484 1.449.726.66.328 1.32.664 1.988.98.504.243 1.016.466 1.52.696.656.297 1.308.598 1.964.879.516.223 1.043.43 1.563.644.652.266 1.305.536 1.957.79.531.203 1.066.394 1.601.59.653.238 1.305.48 1.961.706.543.184 1.086.356 1.625.536.653.21 1.309.425 1.965.625.551.164 1.102.32 1.653.476a92.77 92.77 0 001.972.547c.555.148 1.11.285 1.668.418.66.16 1.32.324 1.985.473.562.128 1.125.246 1.687.363.656.137 1.316.27 1.977.394.57.106 1.144.207 1.714.301.407.07.813.133 1.22.2.253.038.507.081.76.124.571.086 1.145.164 1.72.239a90.58 90.58 0 003.723.434c.66.066 1.32.124 1.98.175.582.047 1.164.09 1.75.125.66.043 1.32.078 1.984.106.582.027 1.168.05 1.754.066.656.02 1.32.027 1.98.035.34.004.684.02 1.024.02l.426-.016c2.054-.008 4.11-.074 6.164-.2.316-.019.637-.038.953-.062l.523-.047c1.875-.14 3.746-.312 5.618-.546l.949-.13c2.047-.273 4.086-.6 6.117-.988.309-.058.617-.125.922-.183 2.043-.406 4.078-.864 6.105-1.387.285-.07.567-.152.852-.227a116.906 116.906 0 006.101-1.789c.247-.082.493-.168.739-.25a117.103 117.103 0 006.125-2.218l.558-.227c2.078-.836 4.14-1.726 6.184-2.683l.324-.16a117.85 117.85 0 005.145-2.618c.375-.2.757-.37 1.129-.574a4.47 4.47 0 002.285-3.387c4.715-40.285-11.383-80.574-45.547-103.594a100.538 100.538 0 00-3.297-2.132c-.313-.192-.629-.371-.938-.559-.804-.484-1.605-.969-2.414-1.434-.39-.218-.785-.425-1.175-.644-.739-.406-1.477-.816-2.223-1.203-.426-.219-.856-.43-1.285-.645-.543-.273-1.086-.543-1.63-.804l-.53-.266c-.45-.211-.903-.406-1.356-.617-.707-.32-1.418-.649-2.133-.95a39.877 39.877 0 00-1.414-.581c-.703-.29-1.402-.579-2.113-.852-.48-.188-.973-.363-1.46-.54-.7-.257-1.4-.519-2.102-.757-.497-.172-.997-.328-1.497-.492-.699-.227-1.398-.457-2.101-.668-.504-.152-1.016-.297-1.524-.441-.699-.2-1.402-.399-2.101-.582-.516-.133-1.031-.262-1.543-.387-.703-.172-1.406-.344-2.113-.504-.52-.117-1.043-.223-1.567-.336-.699-.14-1.398-.285-2.101-.418a105.28 105.28 0 00-1.602-.281 93.453 93.453 0 00-2.094-.34 76.96 76.96 0 00-1.62-.227 94.68 94.68 0 00-3.723-.437 116.829 116.829 0 00-3.734-.3 91.66 91.66 0 00-2.083-.11 77.957 77.957 0 00-1.664-.063c-.469-.015-.937-.02-1.406-.027h-.07l.007-.012 20.621-29.453.063.012 21.574-30.817 34.043 23.836-14.547 20.754.09.043a133.426 133.426 0 0112.223 7.313c42.71 28.78 65.367 79.796 59.125 133.14a35.776 35.776 0 01-18.305 27.164c-19.933 10.926-42.004 17.094-64.176 18.016-1.925.078-3.847.133-5.773.133-17.363 0-34.293-3.25-50.07-9.5l-.164-.063a133.822 133.822 0 01-25.41-13.398 133.655 133.655 0 01-13.836-10.727l-.079-.066c-.332-.297-.672-.582-1.004-.88l-.074-.065c-2.562-1.102-5.168-2.137-7.86-3.043-8.8-2.95-17.667-4.329-26.488-4.485-31.414-.574-62.195 14.438-86.992 29.727-.363.148-.718.304-1.078.476-31.98 15.14-60.812 19.688-84.5 19.383-39.492-.52-64.668-14.535-66.25-15.441a20.822 20.822 0 00-12.05-2.825 20.83 20.83 0 00-18.43 27.129l16.746 52.317a20.815 20.815 0 008.887 11.37c12.8 7.915 27.738 11.977 43.742 11.977h.07c3.875 0 7.82-.238 11.809-.718 2.32-.282 4.668-.645 6.968-1.082zm743.082 181.875c-6.87-17.188-21.129-30.11-33.183-43.645a210.564 210.564 0 01-4.145-4.793c-9.492-11.336-17.781-23.668-24.777-36.691-.191-.36-.395-.782-.606-1.239l-.046-.101-.258-.586-.098-.223-.23-.55-.145-.344-.223-.543-.168-.41-.218-.551-.196-.48-.168-.43c-.457-1.145-.933-2.367-1.445-3.64l-.094-.231-.359-.88-.14-.34c-.114-.28-.231-.562-.352-.843l-.149-.367c-.117-.27-.234-.547-.355-.824l-.172-.399a30.156 30.156 0 00-.36-.812l-.175-.403-.363-.793-.2-.43c-.12-.257-.242-.515-.367-.769l-.21-.43c-.126-.25-.247-.5-.376-.75l-.218-.433c-.125-.242-.25-.484-.38-.723l-.23-.422c-.129-.238-.262-.476-.39-.71l-.23-.399-.407-.684-.246-.394c-.137-.215-.274-.438-.414-.649l-.25-.37a18.99 18.99 0 00-.426-.618l-.258-.347a18.58 18.58 0 00-.437-.579l-.266-.32-.453-.543-.258-.273-.48-.512-.223-.207c-.57-.55-1.164-1.02-1.774-1.406l-.312-.203-.426-.22-.394-.194-.414-.153-.426-.144-.41-.09-.457-.09-.407-.031-.465-.024c-.335.004-.68.032-1.023.094-7.09 1.309-8.34 10.766-8.578 16.586-.016.414-.043.879-.07 1.363l-.016.258c-.027.473-.066.977-.11 1.508l-.027.363a84.85 84.85 0 01-.156 1.684l-.035.32a69.506 69.506 0 01-.211 1.8l-.02.165a79.735 79.735 0 01-.277 1.937l-.062.41c-.102.641-.215 1.282-.336 1.93l-.086.442a56.674 56.674 0 01-.418 1.965l-.082.335c-.157.645-.32 1.282-.496 1.91l-.051.18c-.188.653-.39 1.285-.61 1.907l-.125.363a30.383 30.383 0 01-.691 1.738l-.156.352a20.625 20.625 0 01-.813 1.609l-.129.215c-.285.492-.586.957-.906 1.387l-.098.136c-.335.438-.69.825-1.062 1.184l-.211.207a7.622 7.622 0 01-1.164.875l-.246.14a6.22 6.22 0 01-1.328.57l-.172.04c-.461.117-.938.184-1.442.191l-.117.02-.07-.008-.535-.043-.528-.047c-.19-.031-.39-.086-.59-.133l-.53-.125c-.227-.07-.47-.168-.704-.261l-.48-.176c-.406-.18-.824-.387-1.25-.629-3.742-2.113-8.024-4.016-11.938-6.238-5.785-3.29-10.765-7.29-11.937-13.785-.086-.473-.11-.989-.153-1.493-.03-.32-.09-.62-.101-.949a19.69 19.69 0 01.105-2.68c.07-.64.145-1.285.223-1.937.234-1.953.473-3.95.473-5.887-.004-2.582-.434-5.062-1.871-7.195a14.26 14.26 0 00-.993-1.293l-.293-.328a13.349 13.349 0 00-.77-.785l-.35-.317a12.944 12.944 0 00-.84-.66l-.297-.215a11.56 11.56 0 00-1.192-.699l-.144-.066c-.36-.176-.72-.328-1.09-.461l-.403-.133a11.85 11.85 0 00-.902-.25l-.437-.102c-.328-.066-.66-.113-1-.156l-.336-.043a14.024 14.024 0 00-1.348-.062l-.297.007c-.398.004-.797.024-1.2.055l-.468.043c-.39.047-.785.102-1.183.164l-.34.055c-.496.09-.996.2-1.496.324l-.426.11c-.383.101-.766.21-1.149.328l-.484.148c-.45.145-.894.297-1.344.46l-.199.071c-.508.192-1.012.39-1.52.606l-.464.195c-.38.164-.758.332-1.14.504l-.43.2c-.5.234-1 .476-1.497.726l-.183.093c-.446.223-.89.454-1.328.688l-.426.227c-.39.21-.778.421-1.16.636l-.313.172c-.48.274-.957.543-1.426.817l-.254.148c-.394.23-.785.465-1.168.691l-.335.2c-1.024.613-1.997 1.21-2.914 1.777-.227.137-.45.273-.665.406l-.52.317c-.378.23-.745.453-1.1.664-14.458 8.636-33.762 10.597-46.77 21.129-6.34 5.132-10.168 12.359-14.574 19.097-2.645 4.04-5.5 7.903-9.227 11.031-6.91 5.797-15.57 8.516-23.879 11.872-5.59 2.261-11.023 4.808-15.652 8.785-11.586 9.953-13.149 23.402-10.824 36.87.675 3.95 1.671 7.9 2.87 11.763.352 1.132.723 2.265 1.102 3.382.239.707.473 1.434.7 2.176.081.258.16.527.238.79.144.487.293.98.437 1.48.094.332.188.68.281 1.02.122.437.243.87.36 1.312.105.386.207.773.305 1.16.113.426.222.844.332 1.273.101.395.199.801.3 1.203.11.43.215.856.32 1.29.11.437.22.878.325 1.32.101.426.207.847.308 1.277.176.738.356 1.477.536 2.223.082.34.164.687.25 1.031.136.578.277 1.156.418 1.738.086.356.175.707.261 1.063.13.512.254 1.023.383 1.535l.293 1.16.371 1.445.317 1.192c.125.469.25.941.382 1.41.11.398.22.797.332 1.191.13.47.266.938.403 1.399.117.394.23.789.347 1.176.141.46.286.918.426 1.375.13.394.25.785.38 1.18.148.445.3.886.448 1.327.133.391.27.778.403 1.164.16.442.32.875.484 1.31.14.378.285.757.43 1.132.168.426.343.851.52 1.273.152.368.304.739.46 1.094.184.418.375.828.563 1.238.164.356.324.715.496 1.063.195.406.402.8.61 1.2.171.335.343.675.523 1 .218.401.449.788.675 1.175.18.312.36.629.547.93.242.39.5.77.75 1.152.192.281.371.57.567.848.277.39.566.765.86 1.14.187.246.366.496.558.738.363.442.742.864 1.125 1.282l.398.46a30.13 30.13 0 001.64 1.598l.524.43c.406.348.813.695 1.242 1.016.239.18.493.336.739.504.382.265.754.535 1.152.773.281.172.578.32.867.48.387.215.762.434 1.164.63.313.148.64.28.961.417.399.172.797.352 1.207.504.344.125.707.23 1.059.344.414.129.832.266 1.261.379.375.098.762.176 1.149.258.437.093.875.187 1.332.261.402.067.82.11 1.234.16.461.051.926.106 1.403.137.433.032.879.047 1.324.055.543.016 1.086.031 1.644.02.243-.004.489-.012.735-.02.887-.04 1.785-.094 2.719-.195h.011c24.657-2.715 44.422-22.137 69.32-23.012.481-.016.962-.027 1.434-.027.25 0 .492.023.742.027.418.008.832.023 1.243.043.488.023.98.058 1.46.101.403.036.81.075 1.208.125.472.055.94.125 1.41.196.394.062.785.125 1.172.199.464.086.918.184 1.37.29.383.081.762.17 1.137.265.45.117.895.242 1.336.375.371.11.739.215 1.106.336.437.14.87.293 1.304.449.356.129.715.258 1.07.394.43.164.86.344 1.282.528.348.144.695.289 1.04.445.425.191.843.395 1.26.594.34.164.677.324 1.009.496.418.215.836.437 1.254.664.324.176.652.348.976.531.422.238.836.485 1.258.735.305.187.621.367.93.558.425.262.851.54 1.277.813.293.187.59.37.879.562.437.29.87.582 1.3.88.282.19.563.378.84.573.454.317.907.645 1.356.969l.758.543c.496.363.996.734 1.492 1.11.207.152.406.3.613.456.543.41 1.086.825 1.625 1.243l.485.37c.703.548 1.402 1.09 2.105 1.641 9.004 7.063 17.996 14.153 26.602 21.692 7.175 6.289 13.484 13.636 21.91 18.39.691.395 1.398.75 2.113 1.09.195.094.39.176.59.266.52.234 1.043.465 1.574.676.25.101.508.195.762.293.488.18.984.355 1.48.515.27.086.543.176.817.254.504.152 1.011.293 1.527.426l.781.2c.582.136 1.176.257 1.77.37.191.035.379.078.57.113.781.137 1.57.25 2.363.344l.559.055c.61.058 1.219.117 1.832.152.293.02.59.028.883.043.512.02 1.027.04 1.539.043.289 0 .578 0 .867-.004a53.524 53.524 0 002.238-.07c.196-.016.391-.02.582-.031.91-.063 1.817-.153 2.73-.27.24-.027.485-.066.727-.101.711-.098 1.422-.215 2.13-.344.257-.043.519-.094.777-.145a52.38 52.38 0 002.687-.605l.434-.121a60.33 60.33 0 002.277-.664 48.15 48.15 0 002.988-1.05l.48-.18a47.963 47.963 0 002.52-1.087c.239-.113.473-.226.711-.34.637-.308 1.27-.632 1.895-.964.223-.125.453-.243.676-.368a46.51 46.51 0 002.336-1.386l.472-.313a46.34 46.34 0 001.84-1.261c.223-.165.445-.325.664-.493a44.11 44.11 0 001.887-1.5l.27-.218a43.615 43.615 0 001.972-1.817l.555-.558c.492-.5.969-1.012 1.433-1.536l.461-.515a40.127 40.127 0 001.653-2.078l.351-.508c.414-.578.809-1.168 1.184-1.774.14-.222.281-.449.414-.675a31.81 31.81 0 001.258-2.293l.039-.07c.902-1.829 1.648-3.712 2.304-5.63 1.965-5.75 3.122-11.793 5.13-17.511 4.175-11.864 9.456-23.278 13.992-35.004 4.53-11.738 9.128-23.77 4.171-36.16zm-52.386 134.836c-9.184 1.195-25.84-3.282-24.578 11.632.355 4.196 1.898 8.606 4.28 12.63 4.036 6.812 10.481 12.503 17.716 14.109 11.504 2.558 18.32-10.004 20.789-20 .218-.89.418-1.77.566-2.61.848-4.715.832-11.804-2.91-15.468-4.906-4.809-10.176-1.032-15.863-.293zM628.457 208.332c15.996 11.203 33.535 16.39 50.563 15.965 24.921-.602 48.77-13.227 65.156-36.629 27.57-39.379 18.918-88.48-20.461-116.055-16-11.199-33.606-16.425-50.723-16.035-25.035.543-49.027 13.09-65.414 36.496-27.57 39.38-18.5 88.688 20.879 116.258zm0 0"/></svg>