<svg xmlns="http://www.w3.org/2000/svg" viewBox="0 0 480 480"><path d="M276.307 331.547c-1.268-4.089-3.832-7.81-7.61-10.455l-98.299-68.829a19.898 19.898 0 00-11.143-3.615c-6.424-.111-12.784 2.869-16.746 8.526-6.336 9.048-4.137 21.52 4.911 27.854l81.924 57.363-57.319 81.946c-6.331 9.052-4.126 21.521 4.925 27.853a19.91 19.91 0 0011.446 3.613l.019-.001.016.001c6.309 0 12.517-2.978 16.406-8.538l65.203-93.218-.001-.047 3.541-5.062c3.678-5.259 4.457-11.665 2.704-17.356l.023-.035zm-107.558-7.192a19.896 19.896 0 00-11.143-3.615c-6.423-.111-12.784 2.869-16.746 8.526l-68.829 98.298c-6.336 9.048-4.137 21.52 4.911 27.854a19.907 19.907 0 0011.454 3.619l.02-.001.015.001c6.305 0 12.51-2.975 16.4-8.53l68.829-98.298c6.336-9.047 4.137-21.519-4.911-27.854zm-96.456-55.869c14.146-2.689 25.999-11.395 36.455-19.075 2.788-2.047 5.42-3.98 8.017-5.752 10.521-7.177 27.018-18.432 41.204-18.667 2.619-.04 5.158.295 7.566 1.102 5.004 1.678 9.727 4.878 14.622 8.425l.112.101c.499.43 1.021.836 1.565 1.217l49.181 34.449a19.996 19.996 0 0014.946 3.315 19.999 19.999 0 0012.912-8.225l57.346-81.893 32.743 22.927a19.907 19.907 0 0011.454 3.619h.035c6.305-.001 12.51-2.975 16.4-8.53l45.886-65.532c6.336-9.049 4.137-21.52-4.911-27.854a19.896 19.896 0 00-11.143-3.615c-6.423-.111-12.784 2.869-16.746 8.526l-34.404 49.133-32.738-22.923-.041-.032-49.149-34.414-.038-.023-49.074-34.362a19.896 19.896 0 00-11.143-3.615c-6.423-.111-12.784 2.868-16.746 8.526l-63.694 90.965c-6.336 9.048-4.137 21.52 4.911 27.854a19.896 19.896 0 0011.143 3.615 20.01 20.01 0 0013.859-5.251l-.011-.02a20.027 20.027 0 002.863-3.256l4.954-7.076 2.262-3.23h.001l.013.031c2.662 6.624 6.676 12.672 11.968 17.695a49.442 49.442 0 007.985 6.167c.178.109.358.212.537.319.354.214.708.429 1.066.633.216.123.435.237.651.356.325.179.651.36.979.531.23.12.464.232.695.348.318.159.635.32.955.472.242.115.487.222.73.333.314.143.627.286.942.422.249.106.501.206.751.309.312.128.626.258.94.379.255.098.511.189.767.283.314.115.628.23.943.339.259.089.52.172.779.257.314.102.629.204.944.3.264.08.528.154.793.229a37.297 37.297 0 001.746.463c.317.078.635.156.953.228.27.061.54.117.811.173a44.117 44.117 0 001.771.335c.195.033.391.063.586.094l.364.06c.275.042.551.079.826.116a43.49 43.49 0 001.787.208 58.073 58.073 0 002.742.195 47.361 47.361 0 001.793.048c.164.002.328.009.492.009l.204-.007a52.21 52.21 0 003.416-.125l.252-.024a52.036 52.036 0 002.695-.262l.457-.061a53.53 53.53 0 002.936-.475c.148-.028.296-.059.443-.088.98-.195 1.957-.415 2.929-.665.137-.035.272-.073.409-.109a56.289 56.289 0 002.929-.86c.118-.038.236-.08.354-.119a56.471 56.471 0 002.941-1.065l.267-.109a56.975 56.975 0 002.969-1.288l.156-.076a56.71 56.71 0 002.469-1.257c.18-.096.363-.178.542-.275a2.152 2.152 0 001.097-1.627c2.262-19.337-5.465-38.675-21.863-49.725a50.053 50.053 0 00-1.583-1.023c-.149-.092-.301-.178-.45-.269-.385-.232-.77-.465-1.158-.687-.188-.106-.377-.205-.565-.309-.354-.196-.709-.393-1.066-.579-.204-.105-.411-.205-.617-.309-.26-.131-.521-.26-.782-.386l-.256-.127c-.215-.102-.433-.196-.649-.296-.341-.154-.681-.311-1.024-.457-.225-.098-.452-.188-.679-.279-.337-.139-.674-.278-1.014-.409-.232-.09-.467-.173-.701-.259-.336-.123-.672-.248-1.01-.363-.238-.082-.478-.158-.717-.236-.336-.109-.672-.219-1.009-.32a50.265 50.265 0 00-.731-.212 52.216 52.216 0 00-1.01-.28c-.247-.064-.494-.125-.741-.186a51.329 51.329 0 00-1.013-.241c-.25-.056-.501-.108-.752-.161-.336-.069-.672-.138-1.009-.201a49.426 49.426 0 00-.769-.136 48.781 48.781 0 00-1.004-.163c-.26-.039-.52-.074-.779-.109a47.886 47.886 0 00-2.788-.297 51.748 51.748 0 00-2.589-.139c-.225-.007-.45-.009-.676-.013l-.033-.001.003-.004 9.899-14.138.03.005 10.356-14.791 16.339 11.44-6.981 9.962.042.022a64.034 64.034 0 015.868 3.51c20.501 13.814 31.375 38.302 28.38 63.907a17.173 17.173 0 01-8.786 13.038c-9.569 5.244-20.163 8.206-30.805 8.647-.924.038-1.848.064-2.771.064-8.334 0-16.462-1.56-24.035-4.559l-.078-.031a64.24 64.24 0 01-12.197-6.43 64.146 64.146 0 01-6.642-5.15l-.036-.031c-.16-.143-.324-.279-.482-.422l-.037-.032a49.39 49.39 0 00-3.771-1.46c-4.225-1.416-8.481-2.079-12.715-2.153-15.079-.276-29.853 6.93-41.756 14.269a9.076 9.076 0 00-.518.229c-15.351 7.266-29.189 9.449-40.56 9.303-18.956-.25-31.04-6.977-31.8-7.411a9.989 9.989 0 00-5.784-1.356 10 10 0 00-8.846 13.022l8.037 25.112a10 10 0 004.266 5.458c6.144 3.798 13.315 5.749 20.996 5.749h.034c1.861 0 3.754-.115 5.668-.346a49.253 49.253 0 003.346-.52zm356.679 87.3c-3.299-8.249-10.142-14.452-15.929-20.948a99.058 99.058 0 01-1.988-2.302 104.263 104.263 0 01-11.893-17.611c-.093-.173-.19-.375-.291-.595l-.023-.049a28.8 28.8 0 01-.123-.281l-.048-.107-.111-.264-.069-.164-.106-.261-.081-.198-.105-.264-.093-.231-.082-.206c-.218-.549-.448-1.136-.694-1.746l-.045-.112-.172-.421-.067-.164a34.69 34.69 0 00-.168-.405l-.073-.175-.169-.396-.083-.192c-.057-.13-.113-.26-.172-.39l-.086-.193-.174-.381-.096-.206a31.578 31.578 0 00-.175-.369l-.101-.206-.18-.36-.106-.208c-.06-.116-.12-.232-.182-.348l-.11-.201a27.596 27.596 0 00-.188-.342l-.111-.191c-.064-.11-.13-.221-.195-.328l-.117-.189c-.066-.104-.132-.21-.199-.312l-.12-.178a9.623 9.623 0 00-.205-.296l-.124-.168a8.729 8.729 0 00-.21-.277l-.127-.154-.217-.26-.124-.132-.23-.245-.107-.1a5.43 5.43 0 00-.851-.674l-.151-.098-.204-.104-.189-.095-.2-.072-.204-.071-.196-.043-.219-.043-.196-.015-.223-.011a2.964 2.964 0 00-.492.046c-3.402.627-4.002 5.166-4.117 7.961-.008.198-.02.421-.034.654l-.007.124c-.014.227-.031.469-.052.723l-.014.174c-.021.26-.046.528-.074.809l-.017.154c-.03.281-.062.568-.101.864l-.01.078c-.039.304-.084.616-.133.931l-.03.197a36.03 36.03 0 01-.162.926l-.041.211c-.062.315-.128.631-.201.944l-.039.161c-.074.309-.153.615-.238.917l-.024.087c-.09.312-.188.616-.292.915l-.061.174c-.104.287-.214.565-.331.834l-.076.169c-.123.27-.251.529-.389.773l-.062.103a7.202 7.202 0 01-.436.665l-.047.066c-.16.209-.331.396-.509.568l-.102.099a3.686 3.686 0 01-.559.421l-.118.067a2.984 2.984 0 01-.637.273l-.083.019a3 3 0 01-.691.093l-.057.008-.034-.003-.256-.02-.253-.023c-.092-.015-.188-.042-.283-.064l-.256-.061c-.109-.033-.225-.08-.337-.124l-.231-.086a6.594 6.594 0 01-.6-.301c-1.795-1.015-3.85-1.927-5.729-2.995-2.778-1.578-5.169-3.498-5.731-6.616-.041-.228-.053-.475-.073-.716-.014-.154-.043-.298-.048-.457-.013-.41.004-.838.051-1.285.032-.307.069-.617.106-.93.112-.938.227-1.896.226-2.826-.001-1.24-.207-2.43-.898-3.453a6.712 6.712 0 00-.475-.621l-.142-.158a6.285 6.285 0 00-.369-.377l-.169-.152a5.793 5.793 0 00-.402-.316l-.143-.104a5.533 5.533 0 00-.571-.336l-.07-.032a5.804 5.804 0 00-.523-.221l-.193-.063a5.451 5.451 0 00-.433-.121l-.21-.047a5.847 5.847 0 00-.48-.075l-.161-.021a6.632 6.632 0 00-.648-.031l-.143.004c-.19.002-.382.012-.575.027l-.225.021c-.188.021-.377.047-.567.078l-.164.026c-.238.043-.479.096-.719.155l-.204.054c-.184.048-.367.1-.551.156l-.233.072c-.214.069-.429.143-.644.222l-.095.033c-.244.091-.487.188-.73.29l-.223.095c-.183.078-.365.159-.547.242l-.207.095c-.24.112-.48.229-.718.348l-.089.045c-.214.108-.426.218-.637.33l-.205.11a41.94 41.94 0 00-.556.305l-.15.082-.684.392-.122.072c-.189.11-.377.222-.561.331l-.162.097c-.49.294-.958.581-1.398.852l-.319.195-.25.152c-.181.11-.358.218-.528.319-6.939 4.146-16.205 5.087-22.45 10.142-3.042 2.463-4.88 5.933-6.995 9.166-1.27 1.94-2.639 3.794-4.428 5.295-3.318 2.783-7.475 4.088-11.462 5.699-2.684 1.085-5.292 2.307-7.513 4.216-5.561 4.779-6.312 11.234-5.197 17.698a44.754 44.754 0 001.379 5.646c.169.545.346 1.087.528 1.624.115.34.228.688.337 1.044.039.124.076.254.113.38.07.234.142.469.21.709.046.16.091.327.136.49.058.21.116.418.173.631l.146.557c.053.203.106.404.158.61l.146.578c.051.206.103.41.153.618l.155.635.148.612.257 1.067.12.495a166.938 166.938 0 00.327 1.345l.183.737.141.556.179.694.151.572c.061.226.121.452.184.677a53.532 53.532 0 00.352 1.244c.056.189.111.377.168.564.067.221.136.44.204.659.061.189.12.378.182.566.07.214.143.427.215.638.064.188.129.374.194.559a58.308 58.308 0 00.438 1.171c.081.206.165.409.25.612.073.177.146.354.221.526.088.2.179.397.27.594.078.171.156.342.237.509.095.195.194.385.293.576.083.161.165.324.251.481.105.192.216.378.325.564.087.149.172.301.262.446.117.188.24.369.361.553.091.135.178.274.271.406.133.188.273.368.413.549.09.117.176.238.268.353.174.213.356.415.539.616l.193.221c.253.267.515.522.786.766l.251.207c.195.166.391.334.597.487.114.086.237.161.355.243.183.127.362.256.553.371.135.083.277.154.416.231.185.103.366.208.558.301.15.072.308.135.462.201.191.083.382.168.58.241.165.061.338.111.507.165.2.063.399.128.606.183.18.047.366.084.551.123.211.045.421.091.639.126.193.031.394.053.593.076.222.026.444.052.674.067.208.015.422.021.635.026.26.007.521.015.79.009.116-.002.233-.006.352-.01a18.9 18.9 0 001.305-.094h.006c11.834-1.302 21.321-10.624 33.273-11.045.231-.008.461-.012.688-.012.121 0 .237.01.357.012a19.543 19.543 0 011.876.129c.228.027.453.06.678.095a17.33 17.33 0 011.766.362c.216.056.429.116.641.179a18.083 18.083 0 011.156.377c.172.062.344.123.515.189.206.08.411.166.615.253.167.07.334.14.499.214.203.092.404.189.605.286.162.079.324.155.484.237.201.103.4.211.601.319.156.084.313.168.469.255.202.114.402.233.603.353.148.089.299.176.447.267.205.127.409.259.613.39.141.09.283.179.423.271.209.138.417.28.624.422.134.092.27.182.402.275.218.152.435.309.651.465.121.087.243.172.364.261.239.175.478.353.717.532l.294.219c.26.197.52.396.78.597l.233.179c.337.261.673.523 1.01.787 4.321 3.389 8.638 6.793 12.769 10.412 3.444 3.018 6.472 6.545 10.517 8.828.331.188.67.36 1.013.523.094.045.189.084.283.127.25.113.501.223.756.324.121.049.244.094.367.14a17.48 17.48 0 001.834.574c.125.032.25.065.376.096.28.066.564.124.849.178.092.017.182.038.273.054.376.066.754.121 1.135.166l.269.025c.292.029.585.057.879.074.141.01.282.014.424.02.246.01.492.019.738.021.139.001.277 0 .417-.001.357-.004.716-.016 1.074-.035.094-.006.187-.008.279-.014.437-.03.873-.074 1.31-.129.116-.014.233-.032.35-.049a25.22 25.22 0 002.685-.526l.207-.058a26.27 26.27 0 001.483-.446c.352-.117.701-.243 1.046-.376l.23-.087a24.86 24.86 0 001.209-.521l.341-.164c.307-.147.61-.303.909-.463.108-.059.218-.115.325-.175.381-.212.756-.434 1.122-.666l.227-.15c.3-.195.593-.398.882-.606.107-.078.214-.156.32-.236.309-.232.611-.472.905-.721l.129-.104c.326-.281.641-.574.947-.873l.266-.268c.236-.24.465-.485.688-.736l.221-.248c.276-.324.541-.656.793-.998l.17-.242c.198-.278.388-.562.568-.852.067-.107.135-.215.199-.324.214-.359.419-.726.604-1.102l.018-.032c.433-.878.791-1.782 1.106-2.702.944-2.76 1.498-5.661 2.463-8.406 2.003-5.695 4.539-11.173 6.715-16.802 2.175-5.635 4.383-11.409 2.003-17.358zm-25.146 64.723c-4.407.573-12.403-1.575-11.797 5.583.171 2.014.911 4.131 2.054 6.061 1.937 3.271 5.032 6.003 8.503 6.774 5.523 1.227 8.795-4.802 9.979-9.601.105-.428.201-.85.273-1.252.406-2.263.398-5.666-1.397-7.426-2.356-2.308-4.884-.494-7.615-.139zM301.659 100c7.679 5.377 16.097 7.867 24.271 7.662 11.962-.289 23.408-6.348 31.274-17.581 13.235-18.902 9.081-42.471-9.821-55.706-7.68-5.377-16.13-7.885-24.346-7.698-12.018.261-23.534 6.284-31.399 17.518-13.235 18.902-8.881 42.57 10.021 55.805z"/></svg>