<svg xmlns="http://www.w3.org/2000/svg" viewBox="0 0 480 480"><path d="M132.766 262.943c12.671-18.097 8.273-43.038-9.823-55.71-18.097-12.671-43.038-8.272-55.709 9.823-12.671 18.097-8.273 43.038 9.823 55.709 18.096 12.673 43.038 8.274 55.709-9.822zM91.81 234.265a44.725 44.725 0 01-20.051 15.905 30.156 30.156 0 01-1.772-10.13 34.777 34.777 0 0013.632-11.511 34.762 34.762 0 006.153-16.732 30.167 30.167 0 0110.125-1.796 44.725 44.725 0 01-8.087 24.264zm24.546 17.187a34.773 34.773 0 00-6.156 16.755 30.162 30.162 0 01-10.124 1.796 44.705 44.705 0 018.089-24.286 44.714 44.714 0 0120.039-15.9 30.137 30.137 0 011.779 10.127 34.762 34.762 0 00-13.627 11.508zm330.797-120.881c-6.677-26.721-25.389-51-55.614-72.165-30.227-21.164-59.441-30.443-86.833-27.578-32.116 3.36-61.178 23.314-86.381 59.307-25.529 36.46-39.369 78-38.972 116.968.174 16.946 3.023 32.566 8.315 46.423l-18.984 103.486c-5.802-1.37-12.109.805-15.737 5.985l-40.15 57.341c-4.752 6.786-3.103 16.14 3.684 20.892l8.191 5.735c6.786 4.752 16.14 3.103 20.892-3.684l40.149-57.341c3.619-5.169 3.516-11.821.267-16.801l91.873-52.425c14.85.242 30.523-2.422 46.529-8.062 36.755-12.953 71.056-40.166 96.585-76.626 25.203-35.993 34.012-70.128 26.186-101.455zm-209.326-4.55c6.336-9.048 18.807-11.247 27.854-4.911 9.048 6.335 11.247 18.806 4.912 27.854-6.336 9.048-18.807 11.247-27.854 4.911-9.049-6.334-11.248-18.805-4.912-27.854zm-32.173 63.383c6.335-9.049 18.807-11.248 27.854-4.912s11.247 18.807 4.912 27.854c-6.336 9.048-18.807 11.247-27.855 4.912-9.048-6.335-11.247-18.806-4.911-27.854zm-14.047 153.497l11.4-62.147a93.72 93.72 0 0019.771 18.668c7.396 5.179 15.409 9.193 23.898 12.056l-55.069 31.423zm87.876-89.593c-6.335 9.048-18.807 11.247-27.854 4.911-9.048-6.335-11.247-18.807-4.911-27.854s18.807-11.247 27.854-4.911 11.247 18.806 4.911 27.854zm6.901-179.197c6.335-9.049 18.807-11.248 27.854-4.912s11.247 18.807 4.911 27.854-18.807 11.247-27.854 4.911c-9.048-6.334-11.247-18.805-4.911-27.853zm6.434 90.415c6.335-9.048 18.806-11.247 27.854-4.911 9.048 6.335 11.247 18.807 4.911 27.854-6.335 9.048-18.807 11.247-27.854 4.911s-11.247-18.806-4.911-27.854zm39.2 113.359c-6.336 9.048-18.807 11.247-27.855 4.912-9.048-6.336-11.246-18.807-4.911-27.855 6.336-9.048 18.807-11.247 27.854-4.911 9.048 6.334 11.247 18.806 4.912 27.854zm6.9-179.197c6.336-9.048 18.807-11.247 27.854-4.911 9.049 6.335 11.248 18.807 4.912 27.854-6.336 9.049-18.807 11.248-27.854 4.912s-11.247-18.807-4.912-27.855zm41.656 127.287c-6.336 9.047-18.807 11.246-27.854 4.911-9.048-6.336-11.247-18.807-4.912-27.854 6.336-9.049 18.807-11.247 27.855-4.912 9.048 6.335 11.246 18.806 4.911 27.855zm32.173-63.383c-6.336 9.048-18.807 11.247-27.854 4.911-9.048-6.335-11.247-18.806-4.911-27.854 6.335-9.048 18.807-11.247 27.854-4.911 9.048 6.334 11.247 18.805 4.911 27.854z"/></svg>