<svg xmlns="http://www.w3.org/2000/svg" width="1000pt" height="1000pt" viewBox="0 0 1000 1000"><path d="M276.598 547.797c26.394-37.7 17.234-89.66-20.465-116.063-37.703-26.398-89.664-17.23-116.063 20.465-26.398 37.703-17.234 89.664 20.465 116.063 37.7 26.402 89.664 17.234 116.063-20.465zM191.27 488.05c-10.81 15.437-25.465 26.594-41.774 33.137a62.999 62.999 0 01-3.691-21.106 72.445 72.445 0 0028.402-23.98 72.39 72.39 0 0012.816-34.86 62.881 62.881 0 0121.094-3.738c-.574 17.547-6.047 35.125-16.847 50.547zm51.14 35.808a72.454 72.454 0 00-12.828 34.907 62.846 62.846 0 01-21.09 3.742c.567-17.567 6.04-35.16 16.852-50.598 10.8-15.43 25.453-26.582 41.746-33.125a62.758 62.758 0 013.707 21.098 72.423 72.423 0 00-28.387 23.976zm689.16-251.836c-13.91-55.668-52.894-106.25-115.863-150.343-62.973-44.094-123.836-63.422-180.902-57.453-66.91 7-127.453 48.57-179.961 123.554-53.184 75.957-82.02 162.5-81.192 243.684.364 35.305 6.297 67.844 17.325 96.715l-39.551 215.593c-12.09-2.851-25.227 1.68-32.785 12.47l-83.649 119.46c-9.898 14.137-6.465 33.625 7.676 43.527l17.066 11.946c14.137 9.902 33.625 6.465 43.524-7.672l83.644-119.461c7.54-10.77 7.325-24.629.555-35.004L578.859 659.82c30.938.504 63.59-5.047 96.938-16.797 76.57-26.984 148.031-83.675 201.219-159.636 52.504-74.985 70.855-146.098 54.554-211.364zm-436.097-9.48c13.199-18.848 39.18-23.43 58.03-10.23 18.849 13.199 23.43 39.18 10.231 58.027-13.199 18.851-39.18 23.433-58.027 10.234-18.852-13.195-23.434-39.18-10.234-58.031zM428.445 394.59c13.2-18.852 39.184-23.43 58.032-10.23 18.847 13.199 23.43 39.18 10.23 58.027-13.2 18.851-39.18 23.433-58.031 10.234-18.848-13.2-23.43-39.18-10.23-58.031zM399.18 714.379l23.75-129.477c11.773 14.871 25.535 27.93 41.191 38.895 15.406 10.789 32.102 19.152 49.79 25.117zm183.078-186.652c-13.2 18.847-39.184 23.43-58.031 10.23-18.848-13.2-23.43-39.184-10.23-58.031 13.198-18.848 39.179-23.43 58.026-10.23 18.848 13.199 23.434 39.179 10.235 58.03zm14.375-373.329c13.199-18.851 39.183-23.433 58.031-10.234 18.848 13.2 23.43 39.184 10.23 58.031-13.199 18.848-39.183 23.43-58.03 10.23-18.848-13.195-23.43-39.179-10.231-58.027zm13.406 188.364c13.195-18.848 39.176-23.43 58.027-10.23 18.852 13.198 23.43 39.179 10.23 58.027-13.194 18.851-39.179 23.433-58.026 10.234-18.848-13.203-23.434-39.18-10.23-58.031zm81.664 236.164c-13.2 18.851-39.18 23.433-58.031 10.234-18.848-13.2-23.43-39.18-10.23-58.031 13.199-18.852 39.18-23.43 58.03-10.23 18.848 13.195 23.43 39.18 10.231 58.027zm14.375-373.324c13.2-18.852 39.184-23.434 58.031-10.235 18.852 13.2 23.434 39.184 10.23 58.031-13.198 18.852-39.179 23.434-58.027 10.235-18.847-13.203-23.43-39.184-10.234-58.031zm86.785 265.18c-13.199 18.847-39.183 23.429-58.031 10.23-18.848-13.2-23.43-39.18-10.23-58.028 13.199-18.851 39.18-23.433 58.03-10.234 18.848 13.2 23.427 39.18 10.231 58.031zm67.028-132.048c-13.2 18.848-39.184 23.43-58.032 10.23-18.847-13.198-23.43-39.179-10.23-58.03 13.2-18.848 39.18-23.43 58.031-10.23 18.848 13.194 23.43 39.179 10.23 58.03zm0 0"/></svg>