<svg xmlns="http://www.w3.org/2000/svg" viewBox="0 0 480 480"><path d="M140.007 240c0-22.094-17.91-40.004-40.003-40.004C77.91 199.996 60 217.906 60 240s17.91 40.004 40.004 40.004c22.092 0 40.003-17.91 40.003-40.004zM99.555 417.111c-6.113 8.73 4.033 17.446 12.765 23.56 8.722 6.107 20.362 12.634 26.481 3.921l7.056-10.885-38.469-26.936-7.833 10.34zm13.875-18.316l37.869 26.516 40.204-62.026-33.436-23.412-44.637 58.922zM385.327 46.974c-42.457-28.371-100.42-18.646-131.266 22.05-10.738 14.168-16.959 30.246-19.004 46.587l-.019-.013-17.189 98.18a258.98 258.98 0 01-42.956 103.883l-10.783 14.234 32.837 22.992 9.935-15.326a259.001 259.001 0 0182.357-75.389l86.556-50.016-.019-.014c13.623-6.981 25.799-17.275 35.189-30.688 31.178-44.525 19.794-106.122-25.638-136.48z"/></svg>