<svg xmlns="http://www.w3.org/2000/svg" width="1000pt" height="1000pt" viewBox="0 0 1000 1000"><path d="M291.68 500c0-46.027-37.313-83.34-83.34-83.34-46.028 0-83.34 37.313-83.34 83.34s37.313 83.34 83.34 83.34 83.34-37.313 83.34-83.34zm-84.274 368.98c-12.734 18.188 8.403 36.348 26.594 49.086 18.172 12.723 42.422 26.32 55.168 8.168l14.7-22.68-80.141-56.113zm28.906-38.156l78.895 55.242 83.758-129.222-69.66-48.774zm566.454-732.96C714.313 38.757 593.555 59.015 529.293 143.8c-22.371 29.515-35.332 63.012-39.59 97.054l-.039-.027-35.812 204.543a539.534 539.534 0 01-89.493 216.422l-22.464 29.656 68.41 47.899 20.699-31.93a539.544 539.544 0 01171.578-157.059L782.906 446.16l-.039-.031c28.38-14.543 53.746-35.988 73.309-63.934 64.957-92.761 41.238-221.086-53.41-284.332zm0 0"/></svg>