<svg xmlns="http://www.w3.org/2000/svg" viewBox="0 0 480 480"><path d="M209.989 390.33l-101.574-71.123a8.002 8.002 0 00-11.143 1.965l-16.06 22.936c-7.603 10.858-4.964 25.823 5.894 33.426l75.362 52.77c10.857 7.603 25.822 4.964 33.425-5.895l16.061-22.936a8.002 8.002 0 00-1.965-11.143zM371.63 149.715L262.853 73.549c-.155-.108-.31-.217-.466-.324-24.439-16.994-55.411-18.304-76.295-3.594L162.62 86.162c-13.766 9.697-32.093 12.947-50.721 8.998-21.195-4.495-41.361 2.488-52.027 18.018-37.957 55.26-16.073 136.598 49.012 182.17l4.165 2.917.117.081 19.781-21.146c.817-.873 1.479-1.906 1.788-3.062a7.308 7.308 0 00.138-3.148l-19.506-110.621a7.284 7.284 0 015.908-8.438l66.348-11.698a7.284 7.284 0 018.438 5.907l3.934 22.308c.993 5.635 7.797 7.976 12.048 4.146l16.521-14.884c8.305-7.481 20.674-8.24 29.83-1.828l89.057 62.357c10.309 7.219 13.291 21.173 6.834 31.975l-47.934 80.187a7.285 7.285 0 01-4.301 3.28l-62.835 17.469a6.562 6.562 0 00-4.491 4.383l-6.914 22.432c31.697 18.228 73.887 26.701 106.938 19.962 27.973-5.704 52.666-20.493 69.067-43.917l15.931-22.75c38.364-54.795 16.823-136.074-48.116-181.545zm-82.919 166.914a8 8 0 004.724-3.603l43.683-73.075a4.016 4.016 0 00-1.139-5.33l-89.057-62.357a3.978 3.978 0 00-2.29-.724c-.703 0-1.738.179-2.682 1.028l-16.52 14.883a27.198 27.198 0 01-18.229 7.021h-.004c-13.282 0-24.596-9.485-26.899-22.553l-.336-1.905a7.998 7.998 0 00-9.268-6.489l-25.545 4.504a8 8 0 00-6.488 9.268l15.911 90.236a27.446 27.446 0 01-.517 11.772c-1.144 4.273-3.328 8.159-6.503 11.558-2.496 2.669-2.052 6.93.942 9.026l60.858 42.613c3.481 2.438 8.227 1.7 10.878-1.622 3.415-4.277 8.131-7.452 13.625-9.002l54.856-15.249z"/></svg>