<svg xmlns="http://www.w3.org/2000/svg" viewBox="0 0 480 480"><path d="M294.576 420c-14.447 0-26.617-10.794-28.343-25.139l-9.357-77.816a8 8 0 00-7.943-7.045h-17.865a7.999 7.999 0 00-7.942 7.045l-9.358 77.816C212.042 409.206 199.872 420 185.425 420c-7.717 0-14.501 5.651-15.333 13.323C169.111 442.358 176.163 450 185 450h110c8.837 0 15.889-7.642 14.909-16.677-.832-7.672-7.616-13.323-15.333-13.323zM190 215.394v-76.711a7.999 7.999 0 00-1.447-4.589l-38.547-55.051c-9.503-13.572-28.21-16.871-41.781-7.367L90.203 84.294a8 8 0 00-1.965 11.142l87.208 124.547c4.486 6.406 14.554 3.232 14.554-4.589zm114.553 4.589l87.209-124.548a8.002 8.002 0 00-1.965-11.142l-18.021-12.618c-13.572-9.504-32.278-6.205-41.782 7.367l-38.547 55.052a7.996 7.996 0 00-1.447 4.589v76.711c0 7.822 10.067 10.996 14.553 4.589zm-94.523 41.078c.012.288.027.575.048.861.012.176.024.352.04.527a28.274 28.274 0 00.146 1.352c.055.411.115.821.188 1.229l.018.103a29.756 29.756 0 002.062 6.8l.045.101c.173.391.354.776.543 1.159.049.099.101.195.15.293.16.313.323.626.494.935.092.165.188.328.283.491.137.237.275.476.42.71.135.217.274.431.414.645.116.178.231.356.352.532l.076.115.113.161.131.177.202.281c.103.141.204.281.309.419l.111.143c.138.18.277.356.418.532l.063.08c.103.127.204.255.309.38.102.121.2.244.304.363.113.133.231.258.347.387.109.122.218.244.329.364.096.104.188.211.286.314.146.153.295.3.442.449l.256.256.077.073.223.212c.175.169.35.34.528.504l.181.163c.193.174.392.341.589.51l.037.032c.101.085.198.175.3.259l.151.124c.126.103.255.2.382.3.09.07.178.142.269.211.109.085.216.174.327.257l.184.136c.176.13.356.254.535.381l.084.061.047.032c.1.069.197.143.298.211a31.116 31.116 0 00.919.595l.033.021.221.141c.158.097.318.19.478.284.238.14.477.279.719.413.235.13.474.254.713.377.17.088.339.177.511.261l.029.016c.306.15.615.293.927.433.1.046.198.092.3.136l.025.011c.242.106.488.202.732.301.136.055.27.114.407.167l.124.049.156.062.054.021c.362.136.73.261 1.1.384l.019.006.131.044.166.057c.349.11.699.209 1.05.307l.034.011.028.008c.109.03.217.064.326.093.317.084.637.156.956.229l.048.011.053.013c.135.029.268.064.402.092.271.058.541.104.812.153l.142.026.046.009c.159.028.318.059.478.084.232.036.466.065.698.097l.115.016.167.023c.171.021.341.043.513.062.209.022.418.038.627.056l.004.001h.008c.111.01.223.022.333.03.175.013.35.025.524.035.177.01.355.016.533.023.148.006.297.013.446.017.169.004.338.006.507.007l.245.002.247-.007c.169-.001.338-.003.508-.007.148-.004.297-.011.446-.017.178-.008.355-.014.532-.023.176-.01.35-.022.524-.035.111-.008.222-.021.333-.03h.007l.005-.001c.209-.018.419-.033.628-.056.171-.019.341-.04.513-.062l.167-.023.114-.016c.233-.031.467-.061.699-.097.159-.025.317-.056.477-.084l.188-.035c.271-.049.542-.096.812-.153.136-.027.269-.062.402-.092l.054-.013.047-.011c.319-.073.639-.146.956-.229.11-.028.218-.062.327-.093l.028-.008.013-.004c.358-.1.717-.201 1.07-.313l.167-.057.13-.044.02-.007c.369-.122.736-.247 1.1-.383l.053-.021.156-.062.126-.049c.137-.053.271-.113.408-.168.243-.099.487-.194.729-.3l.026-.011c.101-.044.2-.091.301-.136.311-.14.62-.282.926-.433l.028-.015c.172-.085.342-.174.512-.263.239-.123.477-.246.713-.376.242-.134.48-.273.718-.413.16-.094.32-.188.479-.284l.221-.142.024-.015c.211-.134.421-.267.63-.404.099-.065.199-.13.298-.197.101-.068.197-.142.298-.212l.047-.031.083-.061c.179-.127.359-.251.535-.381l.185-.136c.11-.083.217-.172.326-.257.091-.069.18-.141.27-.211.127-.102.257-.198.383-.301l.149-.121c.102-.085.199-.175.3-.26.138-.117.272-.235.407-.354l.22-.19.181-.162c.179-.164.353-.335.528-.504l.223-.212.076-.073.257-.256c.147-.149.297-.296.441-.449.098-.104.19-.21.287-.314.11-.12.22-.242.328-.364.115-.129.234-.254.348-.387.103-.119.201-.242.303-.363.104-.125.207-.253.31-.38l.063-.08c.141-.176.28-.353.417-.532l.112-.143c.104-.138.206-.278.308-.419l.203-.281.13-.177.113-.161.076-.115c.12-.176.236-.354.353-.532.14-.214.278-.428.413-.645.145-.234.283-.473.421-.71.095-.163.19-.326.282-.491.171-.309.335-.621.494-.935.051-.098.102-.194.15-.293.189-.383.371-.769.543-1.159l.046-.101a29.84 29.84 0 002.062-6.798l.02-.106c.07-.407.131-.816.186-1.227l.039-.303a30.59 30.59 0 00.215-3.18c.002-.15.011-.299.011-.448V60.754c0-16.347-12.816-30.164-29.157-30.612C223.889 29.677 210 43.281 210 60.13v199.74c0 .149.01.298.012.448.003.248.008.496.018.743zM426.705 353.5l-61.939-45.423a8.062 8.062 0 00-9.533 0l-61.94 45.423c-4.392 3.22-4.392 9.779 0 13l21.364 15.667 40.575 29.755a8.059 8.059 0 009.533 0l37.448-27.462 8.269-6.063 16.223-11.896c4.391-3.222 4.391-9.781 0-13.001zm-66.706 36.501c-16.531 0-29.937-13.37-29.999-29.887 1.636-.071 3.279-.114 4.932-.114 18.821 0 36.57 4.665 52.163 12.889-4.822 10.118-15.141 17.112-27.096 17.112zm29.988-29.12l-.01.006c-16.6-8.242-35.289-12.888-55.046-12.888-.817 0-1.631.016-2.444.031 4.622-10.611 15.198-18.032 27.512-18.032 16.862 0 30.474 13.911 29.988 30.883z"/></svg>