<svg xmlns="http://www.w3.org/2000/svg" width="1000pt" height="1000pt" viewBox="0 0 1000 1000"><path d="M931.566 272.023c-13.906-55.668-52.89-106.25-115.859-150.343-62.973-44.094-123.836-63.422-180.902-57.453-66.91 7-127.453 48.57-179.961 123.554-53.184 75.957-82.02 162.5-81.192 243.684.364 35.305 6.297 67.844 17.325 96.715l-39.551 215.593c-12.09-2.851-25.227 1.68-32.785 12.47l-83.649 119.46c-9.898 14.137-6.465 33.625 7.676 43.527l17.066 11.946c14.137 9.902 33.625 6.465 43.524-7.672l83.644-119.461c7.54-10.77 7.325-24.629.555-35.004L578.859 659.82c30.938.504 63.59-5.047 96.938-16.797 76.57-26.984 148.031-83.675 201.219-159.636 52.504-74.985 70.855-146.098 54.55-211.364zM399.18 714.38l23.75-129.477c11.777 14.871 25.535 27.93 41.191 38.891 15.406 10.793 32.102 19.156 49.79 25.121zm-122.582-167.05c26.394-37.7 17.234-89.661-20.465-116.06-14.547-10.187-31.219-15.078-47.727-15.078-26.27 0-52.125 12.391-68.336 35.543-26.398 37.7-17.234 89.664 20.465 116.063 14.547 10.187 31.219 15.074 47.727 15.074 26.27 0 52.12-12.387 68.336-35.543zm-34.133-23.9c-7.793 11.13-20.578 17.774-34.203 17.774-8.54 0-16.782-2.605-23.828-7.539-18.82-13.18-23.41-39.21-10.23-58.031 7.792-11.13 20.577-17.774 34.202-17.774 8.543 0 16.778 2.606 23.828 7.54 9.118 6.386 15.2 15.937 17.133 26.898 1.934 10.96-.52 22.015-6.902 31.133zm0 0"/></svg>