<svg xmlns="http://www.w3.org/2000/svg" viewBox="0 0 480 480"><path d="M447.152 130.571c-6.676-26.721-25.388-51-55.613-72.165-30.227-21.164-59.441-30.443-86.833-27.577-32.116 3.359-61.178 23.313-86.381 59.306-25.529 36.46-39.369 78-38.972 116.968.174 16.946 3.023 32.566 8.315 46.423l-18.984 103.486c-5.802-1.37-12.109.805-15.737 5.985l-40.15 57.341c-4.752 6.786-3.103 16.14 3.684 20.892l8.191 5.735c6.786 4.752 16.14 3.103 20.891-3.684l40.15-57.341c3.619-5.169 3.516-11.821.267-16.801l91.872-52.425c14.85.242 30.524-2.422 46.53-8.062 36.755-12.953 71.056-40.166 96.585-76.626 25.203-35.993 34.012-70.128 26.185-101.455zm-255.545 212.33l11.4-62.147a93.74 93.74 0 0019.771 18.667c7.396 5.18 15.409 9.194 23.898 12.057l-55.069 31.423zm-58.841-80.183c12.671-18.096 8.273-43.038-9.823-55.709a39.81 39.81 0 00-22.908-7.237c-12.61 0-25.02 5.947-32.801 17.061-12.671 18.096-8.273 43.038 9.823 55.709a39.807 39.807 0 0022.908 7.237c12.61-.001 25.019-5.947 32.801-17.061zm-16.382-11.472a20.051 20.051 0 01-16.418 8.532c-4.1 0-8.055-1.252-11.438-3.62-9.033-6.326-11.236-18.821-4.911-27.855a20.052 20.052 0 0116.418-8.531c4.1 0 8.054 1.252 11.437 3.62 4.376 3.064 7.297 7.649 8.225 12.91s-.25 10.568-3.313 14.944z"/></svg>