<svg xmlns="http://www.w3.org/2000/svg" viewBox="0 0 480 480"><path d="M132.766 262.943c12.671-18.097 8.273-43.038-9.823-55.71-18.097-12.671-43.038-8.272-55.709 9.823-12.671 18.097-8.273 43.038 9.823 55.709 18.096 12.673 43.038 8.274 55.709-9.822zm314.387-132.596c-6.677-26.721-25.388-51-55.614-72.165-30.227-21.164-59.441-30.443-86.833-27.578-32.116 3.36-61.178 23.313-86.381 59.307-25.529 36.46-39.369 78-38.972 116.968.174 16.946 3.023 32.566 8.315 46.423l-18.984 103.486c-5.802-1.37-12.109.805-15.737 5.985l-40.15 57.341c-4.752 6.786-3.103 16.14 3.684 20.891l8.191 5.736c6.786 4.751 16.14 3.103 20.892-3.684l40.149-57.341c3.619-5.169 3.516-11.821.267-16.801l91.873-52.425c14.85.242 30.523-2.422 46.529-8.062 36.755-12.954 71.056-40.167 96.585-76.626 25.203-35.993 34.012-70.128 26.186-101.455zm-209.326-4.55c6.336-9.048 18.807-11.247 27.854-4.911 9.049 6.335 11.247 18.806 4.912 27.854-6.336 9.048-18.807 11.247-27.854 4.911-9.049-6.336-11.247-18.806-4.912-27.854zm-32.173 63.382c6.336-9.048 18.807-11.247 27.854-4.911s11.247 18.807 4.912 27.854c-6.336 9.048-18.807 11.247-27.855 4.912-9.048-6.336-11.247-18.806-4.911-27.855zm-14.047 153.498l11.4-62.147a93.74 93.74 0 0019.771 18.667c7.397 5.179 15.409 9.194 23.899 12.056l-55.07 31.424zm87.876-89.594c-6.335 9.048-18.806 11.247-27.854 4.911-9.048-6.335-11.247-18.807-4.911-27.854s18.807-11.247 27.854-4.911c9.048 6.334 11.247 18.806 4.911 27.854zm6.901-179.197c6.335-9.048 18.807-11.247 27.854-4.911s11.247 18.807 4.911 27.854c-6.335 9.048-18.807 11.247-27.854 4.911-9.048-6.335-11.247-18.805-4.911-27.854zm6.434 90.416c6.335-9.048 18.807-11.247 27.854-4.911 9.048 6.335 11.247 18.806 4.911 27.854-6.335 9.048-18.807 11.247-27.854 4.911s-11.247-18.806-4.911-27.854zm39.2 113.358c-6.336 9.048-18.807 11.247-27.854 4.911-9.049-6.335-11.247-18.807-4.912-27.854 6.336-9.048 18.807-11.247 27.854-4.911 9.048 6.335 11.247 18.806 4.912 27.854zm6.9-179.196c6.336-9.048 18.807-11.247 27.855-4.912 9.048 6.336 11.247 18.807 4.911 27.854-6.336 9.049-18.807 11.247-27.854 4.912-9.048-6.336-11.247-18.806-4.912-27.854zm41.656 127.285c-6.336 9.048-18.807 11.247-27.854 4.912-9.048-6.336-11.247-18.807-4.911-27.854 6.335-9.049 18.806-11.247 27.854-4.912 9.048 6.335 11.247 18.806 4.911 27.854zm32.173-63.382c-6.335 9.048-18.807 11.247-27.854 4.911-9.048-6.335-11.247-18.807-4.911-27.854 6.335-9.048 18.807-11.247 27.854-4.911 9.048 6.335 11.247 18.805 4.911 27.854z"/></svg>