<svg xmlns="http://www.w3.org/2000/svg" viewBox="0 0 480 480"><path d="M41.127 259.606c-2.011.419-3.893.826-5.622 1.218a8.018 8.018 0 00-6.212 8.596c3.942 41.312 23.03 121.505 111.09 135.363 9.09 1.134 18.286 1.8 27.442 2.064 21.574.621 42.919-.974 62.089-3.884 17.413-2.644 38.395-5.176 38.723-27.376.115-7.784.287-16.425.543-24.296L118.417 245.919c-22.28 3.753-56.603 9.375-77.29 13.687zm421.179-86.487l-120.77-84.558a38.893 38.893 0 00-22.301-7.032c-1.004 0-1.956-.442-2.56-1.244l-21.32-28.318c-3.249-3.291-8.854-.989-8.854 3.635v19.182a7.778 7.778 0 01-6.678 7.7l-85.916 12.273c-4.062.58-4.573 6.239-.682 7.538l30.102 13.494c3.376 1.513 2.932 6.44-.66 7.324l-15.53 3.825c-3.883.775-4.26 6.18-.522 7.485l8.071 7.041a3.864 3.864 0 01.633 5.13c-6.867 9.821-30.24 43.245-49.835 71.218l113.12 79.064c6.93-27.969 14.968-62.197 19.607-82.113-12.643-8.759-25.125-21.188-33.847-38.752a7.776 7.776 0 013.507-10.425 7.775 7.775 0 0110.425 3.507c6.301 12.688 15.093 22.273 24.353 29.481 18.417 12.164 59.389 5.847 76.906 2.381a30.908 30.908 0 0116.662 1.335c17.876 6.572 39.908 13.861 55.32 1.856 6.09-4.743 20.233-24.401 10.769-31.027zm-63.43 189.687l-11.426-8.091a7.999 7.999 0 00-11.153 1.909l-12.704 17.957L59.194 161.824c-4.507-3.191-10.748-2.126-13.939 2.382-3.194 4.507-2.126 10.749 2.382 13.94l304.406 212.761-12.708 17.964a8 8 0 001.908 11.149l11.426 8.09a8 8 0 0011.153-1.908l36.963-52.247a8 8 0 00-1.909-11.149z"/></svg>