<svg xmlns="http://www.w3.org/2000/svg" width="1000pt" height="1000pt" viewBox="0 0 1000 1000"><path d="M85.68 540.848c-4.188.87-8.11 1.718-11.711 2.535-8.215 1.86-13.742 9.52-12.942 17.91 8.211 86.066 47.98 253.133 231.438 282.004 18.937 2.363 38.094 3.75 57.172 4.3 44.945 1.294 89.414-2.027 129.351-8.09 36.278-5.51 79.989-10.784 80.672-57.034.238-16.215.598-34.22 1.133-50.618l-314.09-219.523c-46.418 7.816-117.926 19.531-161.023 28.516zm877.457-180.184l-251.602-176.16a81.036 81.036 0 00-46.46-14.652c-2.095 0-4.079-.922-5.337-2.59l-44.414-58.996c-6.77-6.856-18.445-2.063-18.445 7.57V155.8c0 8.062-5.93 14.898-13.914 16.039l-178.992 25.57c-8.461 1.207-9.528 13-1.422 15.703l62.715 28.114c7.03 3.152 6.105 13.418-1.375 15.257l-32.356 7.97c-8.09 1.616-8.875 12.874-1.086 15.593l16.813 14.668c3.105 2.71 3.683 7.312 1.32 10.687-14.309 20.461-63 90.094-103.824 148.371l235.668 164.72c14.437-58.27 31.183-129.579 40.847-171.071-26.34-18.246-52.343-44.14-70.515-80.73-3.98-8.016-.711-17.743 7.308-21.72 8.016-3.984 17.743-.71 21.72 7.305 13.124 26.434 31.44 46.403 50.734 61.418 38.367 25.344 123.726 12.184 160.218 4.961 11.606-2.297 23.614-1.3 34.715 2.781 37.242 13.692 83.14 28.88 115.25 3.868 12.688-9.883 42.152-50.836 22.434-64.64zM830.992 755.848l-23.804-16.86c-7.512-5.32-17.918-3.539-23.235 3.977l-26.469 37.414L123.32 337.133c-9.39-6.649-22.39-4.43-29.039 4.965-6.652 9.386-4.43 22.39 4.961 29.039l634.18 443.254-26.473 37.425c-5.316 7.508-3.535 17.91 3.973 23.227l23.805 16.852c7.511 5.32 17.918 3.539 23.234-3.973l77.008-108.848c5.312-7.515 3.535-17.914-3.977-23.226zm0 0"/></svg>