<svg xmlns="http://www.w3.org/2000/svg" viewBox="0 0 480 480"><path d="M79.712 301.404A85.038 85.038 0 0195 300c5.121 0 10.13.48 15.004 1.354a84.234 84.234 0 0119.103 5.813A85.159 85.159 0 01149.69 320H292a8 8 0 008-8v-24a8 8 0 00-8-8H123.518l-10.297-50.067H180a9.998 9.998 0 008.314-4.444l20-29.933c3.068-4.592 1.833-10.802-2.759-13.87-4.591-3.066-10.801-1.833-13.87 2.759l-17.03 25.488h-65.547L77.51 56.299C76.745 52.579 74.201 50 71.298 50H36.44c-4.247 0-7.331 5.363-6.213 10.805l49.485 240.599zm316.256 98.94H450v-20.412h-70.124a50.286 50.286 0 0116.092 20.412zM442 339.995H167.06a84.598 84.598 0 019.242 20.211H450v-12.211a8 8 0 00-8-8zM395.812 440H442a8 8 0 008-8v-11.932h-50.002A49.68 49.68 0 01395.812 440zm-215.976-60.068c.099 1.678.164 3.365.164 5.068 0 5.24-.502 10.363-1.414 15.344h125.446a50.277 50.277 0 0116.092-20.412H179.836zm-7.439 40.136A85.217 85.217 0 01159.731 440h144.456a49.68 49.68 0 01-4.186-19.932H172.397zm-12.613-40.136a64.605 64.605 0 00-4.692-19.726 65.043 65.043 0 00-13.218-20.211 65.342 65.342 0 00-7.373-6.603C123.551 324.999 109.862 320 95 320c-3.842 0-7.6.353-11.259.992-22.166 3.873-40.467 18.961-48.833 39.214a64.598 64.598 0 00-4.692 19.726A65.333 65.333 0 0030 385c0 5.288.647 10.422 1.839 15.344a64.625 64.625 0 008.445 19.725C51.844 438.065 72.021 450 95 450a64.673 64.673 0 0034.625-10 65.338 65.338 0 0020.091-19.932 64.601 64.601 0 008.445-19.725A65.135 65.135 0 00160 385c0-1.707-.087-3.395-.216-5.068zM350 390c-9.047 0-17.152 4.01-22.652 10.344A29.869 29.869 0 00320 420l.002.068A29.877 29.877 0 00327.646 440c5.492 6.136 13.471 10 22.354 10s16.862-3.864 22.354-10a29.88 29.88 0 007.644-19.932L380 420a29.869 29.869 0 00-7.348-19.656C367.152 394.01 359.047 390 350 390zm-50.95-232.617l32.205 23.389a6.346 6.346 0 007.491 0l32.191-23.389a6.36 6.36 0 002.319-7.121L360.963 112.4a6.365 6.365 0 00-6.051-4.396h-39.811a6.366 6.366 0 00-6.063 4.396l-12.294 37.861a6.373 6.373 0 002.306 7.122zM335 260c63.503 0 115-51.497 115-115 0-63.515-51.497-115-115-115-63.515 0-115 51.485-115 115 0 63.503 51.485 115 115 115zM256.896 86.282l26.87-.209a5.74 5.74 0 005.106-3.209l15.079-30.562a97.395 97.395 0 0131.048-5.053 97.369 97.369 0 0131.049 5.053l15.088 30.562a5.716 5.716 0 005.106 3.209l26.86.209c10.208 13.545 16.98 29.818 19.009 47.513l-31.345 25.671a5.763 5.763 0 00-1.713 6.555l14.555 37.02c-11.548 15.6-27.623 27.656-46.266 34.212l-29.424-17.331a5.724 5.724 0 00-5.843 0l-29.428 17.328c-18.641-6.556-34.713-18.612-46.26-34.211l14.555-37.018a5.764 5.764 0 00-1.714-6.555l-31.342-25.669c2.03-17.695 8.802-33.97 19.01-47.515z"/></svg>