<svg xmlns="http://www.w3.org/2000/svg" width="1000pt" height="1000pt" viewBox="0 0 1000 1000"><path d="M914.512 494.203c-11.102-15.848-33.035-19.605-48.793-8.254-15.532 11.192-18.395 32.98-7.653 48.828 16.563 24.422 11.235 57.278-12.082 73.606-23.547 16.488-56.652 9.972-73.804-14.52L385.53 70.223c-5.781-7.746-16.672-9.493-24.586-3.953-7.918 5.546-9.996 16.37-4.699 24.457l359.004 543c24.242 34.62 62.852 53.234 101.777 53.234 23.903 0 47.922-7.012 68.82-21.645 54.938-38.468 67.794-115.23 28.665-171.113zM654.622 719.91c0-39.207-33.388-66.406-68.462-75.789-45.336-12.129-91.71-20.523-136.168-35.812-44.152-15.18-88.601-35.98-110.199-79.762-17.254-34.969-27.07-136.832-30.246-185.32l-.04-.356c.282-7.195-3-14.144-9.921-16.137-24.14-6.945-46.316 11.254-46.316 34.383v3.586c0 7.93-6.426 14.356-14.352 14.356H134.184c-36.829 0-67.676 27.882-71.391 64.523l-.184 289.61c-.113 25.93 11.032 42.597 27.332 51.257-16.976 16.14-27.59 38.914-27.59 64.13 0 48.823 39.72 88.542 88.54 88.542 48.824 0 88.543-39.719 88.543-88.543a87.965 87.965 0 00-7.758-36.168l.101.094 35.387-19.074a16.662 16.662 0 017.453-1.758h160.024c1.793 0 3.574.289 5.273.851l37.02 18.918a87.995 87.995 0 00-8.332 37.45c0 48.824 39.718 88.543 88.539 88.543 48.824 0 88.543-39.72 88.543-88.543 0-25.207-10.606-47.97-27.57-64.11 25.624-12.34 36.507-39.324 36.507-64.87zM150.894 895.45c-25.848 0-46.875-21.028-46.875-46.876 0-25.844 21.027-46.875 46.875-46.875 25.843 0 46.875 21.031 46.875 46.875 0 25.848-21.032 46.875-46.875 46.875zm338.242-103.188l.297-.594h.218c-.168.2-.347.39-.515.594zm68.008 103.5c-25.848 0-46.875-21.028-46.875-46.875 0-25.844 21.027-46.875 46.875-46.875 25.843 0 46.875 21.031 46.875 46.875 0 25.847-21.032 46.875-46.875 46.875zm0 0"/></svg>