<svg xmlns="http://www.w3.org/2000/svg" width="1000pt" height="1000pt" viewBox="0 0 1000 1000"><path d="M937.047 266.313c-3.629-56.731-28.621-104.079-70.379-133.317-41.758-29.234-94.797-36.531-149.348-20.535-52.879 15.5-101.066 51.27-135.687 100.715-34.621 49.441-51.754 106.96-48.235 161.953 3.13 48.922 22.16 90.851 54.114 120.223L400.793 762.016c-12.398-3.438-26.148 1.02-33.945 12.16l-83.649 119.46c-9.898 14.137-6.465 33.626 7.676 43.524l17.066 11.95c14.137 9.898 33.625 6.464 43.52-7.676l83.648-119.461c7.801-11.141 7.29-25.586-.183-36.063l186.722-266.672c23.032 11.946 48.692 18.035 75.668 18.035 18.145 0 36.891-2.746 55.813-8.293 52.879-15.5 101.066-51.27 135.687-100.714 34.618-49.446 51.75-106.961 48.23-161.954zm-82.363 138.054c-59.301 84.688-161.133 116.067-227.008 69.942-31.18-21.829-49.89-58-52.696-101.844-2.914-45.586 11.567-93.668 40.782-135.39 40.754-58.2 101.582-91.22 157.031-91.22 25.238 0 49.371 6.848 69.977 21.274 65.867 46.121 71.214 152.547 11.914 237.238zM330.96 479.168h190.73a210.979 210.979 0 01-10.027-19.465c-11.293-25.039-17.973-52.601-19.844-81.914-4.12-64.398 15.657-131.348 55.684-188.512 36.082-51.53 85.266-90.308 139.969-110.75-.344-8.906-7.653-16.027-16.641-16.027H79.168c-9.207 0-16.668 7.46-16.668 16.668V462.5c0 9.203 7.46 16.668 16.668 16.668h5.316c9.95-59.047 61.41-104.176 123.239-104.176 61.832 0 113.289 45.13 123.238 104.176zM207.723 416.66c-46.028 0-83.34 37.313-83.34 83.34s37.312 83.34 83.34 83.34c46.03 0 83.343-37.313 83.343-83.34s-37.312-83.34-83.343-83.34zm0 0"/></svg>