<svg xmlns="http://www.w3.org/2000/svg" viewBox="0 0 480 480"><path d="M449.783 127.83c-1.742-27.231-13.739-49.957-33.783-63.991-20.043-14.033-45.502-17.536-71.687-9.858-25.382 7.441-48.512 24.61-65.13 48.344-16.618 23.732-24.841 51.34-23.152 77.736 1.502 23.483 10.637 43.61 25.975 57.708l-89.625 127.998c-5.951-1.65-12.551.49-16.295 5.838l-40.15 57.341c-4.752 6.786-3.103 16.139 3.684 20.891l8.191 5.735c6.786 4.752 16.14 3.103 20.891-3.684l40.15-57.341c3.745-5.348 3.499-12.281-.088-17.31l89.628-128.002c11.055 5.733 23.371 8.656 36.319 8.656 8.711 0 17.709-1.318 26.79-3.98 25.382-7.441 48.512-24.61 65.13-48.344s24.841-51.34 23.152-77.737zm-39.535 66.267c-28.464 40.649-77.343 55.711-108.964 33.572-14.965-10.479-23.948-27.84-25.294-48.886-1.399-21.881 5.553-44.961 19.576-64.988 19.561-27.935 48.759-43.784 75.374-43.784 12.115 0 23.698 3.286 33.589 10.211 31.617 22.138 34.183 73.222 5.719 113.875zM158.861 230h91.55a101.35 101.35 0 01-4.812-9.342c-5.421-12.02-8.627-25.249-9.526-39.32-1.978-30.911 7.516-63.046 26.729-90.484 17.319-24.735 40.928-43.349 67.184-53.161C329.821 33.418 326.314 30 322 30H38a8 8 0 00-8 8v184a8 8 0 008 8h2.553c4.776-28.341 29.477-50.004 59.154-50.004 29.679 0 54.378 21.663 59.154 50.004zm-59.154-30.004c-22.094 0-40.004 17.91-40.004 40.004s17.91 40.004 40.004 40.004 40.004-17.91 40.004-40.004-17.91-40.004-40.004-40.004z"/></svg>