<svg xmlns="http://www.w3.org/2000/svg" width="1000pt" height="1000pt" viewBox="0 0 1000 1000"><path d="M936.43 292.535c-6.899-60.36-45.88-113.512-122.668-167.281C736.71 71.3 673.34 52.804 614.336 67.027c-53.352 12.868-102.34 53.328-154.156 127.332-68.832 98.305-112.407 200.707-119.875 251.055-7.871 53.102 6.351 246.156 10.433 298.527-11.316-1.652-23.125 2.961-30.133 12.97l-83.644 119.46c-9.899 14.137-6.465 33.621 7.676 43.524l17.066 11.949c14.137 9.898 33.621 6.46 43.524-7.676l83.644-119.461c7.059-10.078 7.305-22.863 1.762-32.969 50.894-14.097 237.043-66.539 284.215-92.078 44.754-24.234 126.078-100.207 194.91-198.512 51.75-73.91 72.937-133.843 66.672-188.613zm-545.11 435.77c-2.86-37.754-6.515-91.508-8.98-142.317l145.93 102.184c-48.637 15.027-100.457 29.937-136.95 40.133zm444.305-271.059c-56.555 80.774-134.207 160.637-180.621 185.77-13.492 7.308-42.113 17.808-76.797 29.254l-197.96-138.618c-1.075-36.48-.977-66.949 1.273-82.129 7.746-52.214 56.234-152.496 112.793-233.265 45.648-65.196 86.89-100.38 129.792-110.727 9.348-2.254 18.938-3.39 28.844-3.39 39.406 0 83.73 18.004 136.918 55.246 66.301 46.425 99.719 90.238 105.168 137.879 5.04 44.066-13.84 94.902-59.41 159.98zm-689.79-40.586c-46.03 0-83.343 37.313-83.343 83.34s37.313 83.34 83.344 83.34c46.027 0 83.34-37.313 83.34-83.34s-37.313-83.34-83.34-83.34zm0 0"/></svg>