<svg xmlns="http://www.w3.org/2000/svg" viewBox="0 0 480 480"><path d="M98.272 302.906c-43.01 0-78 34.99-78 78s34.99 78 78 78 78-34.99 78-78-34.99-78-78-78zm0 136c-31.981 0-58-26.019-58-58s26.019-58 58-58 58 26.019 58 58-26.019 58-58 58zM201.013 78.298c16.36 11.438 36.59 7.763 48.045-8.571 11.455-16.333 7.859-36.699-8.5-48.136-16.36-11.438-36.762-7.849-48.217 8.486-11.455 16.332-7.687 36.784 8.672 48.221zm238.729 185.084C437.017 292.848 412.166 316 382 316c-31.981 0-58-26.019-58-58 0-17.762 8.032-33.675 20.647-44.322l33.745 49.203a9.99 9.99 0 008.256 4.345 9.949 9.949 0 005.647-1.754c4.555-3.124 5.714-9.349 2.591-13.903l-32.92-47.999A57.722 57.722 0 01382 200l.105.003a49.988 49.988 0 0110.858-19.217A78.176 78.176 0 00382 180a77.513 77.513 0 00-31.595 6.711l-36.133-52.683c10.085-2.396 16.775-12.188 15.112-22.592-1.183-7.399-6.288-13.188-12.852-15.607l16.062-22.939c3.168-4.523 2.068-10.759-2.456-13.927-4.521-3.168-10.759-2.068-13.927 2.456l-25.127 35.885-79.802 12.753-26.172-18.324c-9.045-6.332-21.512-4.137-27.85 4.906L85.941 198.417c-17.615 25.16-9.883 61.078 17.237 80.067a19.907 19.907 0 0011.454 3.619c6.303 0 12.507-2.973 16.397-8.525l86.936-124.083 74.499-11.905 40.838 59.545C315.457 211.441 304 233.402 304 258c0 43.01 34.99 78 78 78s78-34.99 78-78a78.77 78.77 0 00-.092-3.614 49.796 49.796 0 01-20.166 8.996zm-125.355 89.889l-24.326-15.013-.062-89.475a20 20 0 00-14.371-19.178l-59.999-17.597c-10.604-3.112-21.712 2.963-24.82 13.562s2.964 21.712 13.562 24.82l45.639 13.385.034 49.786-69.54-42.916c-9.4-5.802-21.723-2.885-27.523 6.516s-2.884 21.723 6.516 27.523l133.883 82.624a19.9 19.9 0 0010.485 2.983c6.706 0 13.258-3.373 17.038-9.499 5.801-9.397 2.884-21.72-6.516-27.521zM430 244.338c16.568 0 30-13.431 30-30 0-16.568-13.432-30-30-30-16.569 0-30 13.432-30 30 0 16.569 13.431 30 30 30z"/></svg>