<svg xmlns="http://www.w3.org/2000/svg" width="1000pt" height="1000pt" viewBox="0 0 1000 1000"><path d="M204.734 631.055c-89.605 0-162.5 72.894-162.5 162.5 0 89.605 72.895 162.5 162.5 162.5 89.602 0 162.5-72.895 162.5-162.5 0-89.606-72.898-162.5-162.5-162.5zm0 283.332c-66.629 0-120.836-54.207-120.836-120.832 0-66.63 54.207-120.832 120.836-120.832 66.625 0 120.832 54.203 120.832 120.832 0 66.625-54.207 120.832-120.832 120.832zM418.777 163.12c34.082 23.828 76.23 16.172 100.094-17.855 23.863-34.028 16.371-76.457-17.707-100.286-34.086-23.828-76.59-16.351-100.453 17.68-23.863 34.024-16.016 76.633 18.066 100.461zm497.352 385.59c-5.676 61.39-57.45 109.621-120.297 109.621C729.207 658.332 675 604.129 675 537.5c0-37.004 16.734-70.156 43.016-92.336l70.3 102.504c4.04 5.887 10.563 9.055 17.2 9.055 4.062 0 8.164-1.184 11.765-3.657 9.489-6.507 11.903-19.476 5.399-28.964l-68.582-99.997c13.015-4.808 27.074-7.437 41.734-7.437l.219.004a104.181 104.181 0 0122.62-40.035c-7.464-1.055-15.081-1.637-22.839-1.637-23.422 0-45.687 5.02-65.82 13.98l-75.278-109.753c21.008-4.993 34.946-25.395 31.48-47.067-2.46-15.418-13.097-27.476-26.773-32.515l33.461-47.79c6.602-9.425 4.309-22.414-5.113-29.015-9.422-6.602-22.418-4.309-29.016 5.117l-52.347 74.758-166.254 26.57-54.527-38.176c-18.844-13.191-44.817-8.617-58.02 10.223L179.043 413.367c-36.695 52.418-20.59 127.246 35.91 166.809a41.48 41.48 0 0023.863 7.539c13.133 0 26.055-6.195 34.16-17.762L454.095 311.45 609.3 286.645l85.078 124.054c-37.176 29.805-61.047 75.555-61.047 126.801 0 89.605 72.898 162.5 162.5 162.5 89.606 0 162.5-72.895 162.5-162.5 0-2.523-.074-5.031-.191-7.527a103.707 103.707 0 01-42.012 18.738zM654.973 735.98l-50.68-31.278-.129-186.406c-.012-18.485-12.203-34.75-29.937-39.953l-125-36.66c-22.09-6.485-45.235 6.171-51.707 28.253-6.477 22.083 6.175 45.235 28.253 51.708l95.082 27.886.07 103.723-144.874-89.41c-19.586-12.086-45.258-6.012-57.34 13.574s-6.008 45.258 13.574 57.34L611.207 806.89a41.457 41.457 0 0021.844 6.214c13.972 0 27.62-7.027 35.496-19.789 12.086-19.578 6.008-45.25-13.574-57.336zm240.859-226.942c34.52 0 62.5-27.984 62.5-62.5 0-34.52-27.98-62.5-62.5-62.5-34.516 0-62.5 27.98-62.5 62.5 0 34.516 27.984 62.5 62.5 62.5zm0 0"/></svg>