<svg xmlns="http://www.w3.org/2000/svg" width="1000pt" height="1000pt" viewBox="0 0 1000 1000"><path d="M916.668 895.832H83.332c-11.504 0-20.832 9.332-20.832 20.836 0 11.504 9.328 20.832 20.832 20.832h833.336c11.504 0 20.832-9.328 20.832-20.832 0-11.504-9.328-20.836-20.832-20.836zm-414.512-671.11c-42.601 60.837-63.68 131.555-59.36 199.118 1.372 21.422 5.24 41.742 11.415 60.652l-5.875 176.356c-11.746-2.285-24.27 2.297-31.574 12.73L333.113 793.04c-9.898 14.137-6.465 33.625 7.676 43.524l17.066 11.949c14.137 9.898 33.622 6.465 43.524-7.676l83.644-119.461c7.305-10.434 7.329-23.77 1.168-34.027L649.926 621.5c19.87-.66 40.281-3.973 60.87-10.008 64.97-19.047 124.212-63.043 166.81-123.887 42.601-60.84 63.683-131.554 59.359-199.117-4.43-69.308-34.89-127.09-85.766-162.715-50.867-35.62-115.59-44.48-182.23-24.941-64.973 19.055-124.211 63.05-166.813 123.89zM490.7 640.626l2.852-85.684a191.079 191.079 0 0035.012 31.61c13.05 9.14 27.023 16.488 41.695 22.078zm246.215-508.21c32.574 0 63.75 8.847 90.387 27.495 40.297 28.215 64.472 74.824 68.082 131.238 3.719 58.16-14.715 119.442-51.91 172.563-51.075 72.941-127.032 114.785-197.055 116.168-.36-.012-.711 0-1.066.008-33.485.465-65.575-8.34-92.891-27.465-27.297-19.113-46.535-46.227-57.555-77.817-.125-.37-.246-.742-.39-1.109-22.645-66.27-9.297-151.945 41.773-224.875 51.941-74.18 129.617-116.207 200.625-116.207zM331.625 479.167h77.742c-4.246-16.93-6.996-34.563-8.156-52.664-4.742-74.18 17.129-151.305 61.691-218.172H166.668v173.566a124.436 124.436 0 0141.672-7.168c61.922 0 113.445 45.266 123.285 104.438zm-164.957-312.5h328.23c26.055-29.578 56.008-54.465 88.524-73.629l-29.8-26.355a16.663 16.663 0 00-11.044-4.184H70.852c-7.438 0-11.153 9.008-5.872 14.25zM125 499.738c0 46.032 37.313 83.344 83.34 83.344s83.34-37.312 83.34-83.344c0-46.027-37.313-83.34-83.34-83.34-46.028 0-83.34 37.313-83.34 83.34zm0 0"/></svg>