<svg xmlns="http://www.w3.org/2000/svg" viewBox="0 0 480 480"><path d="M440 430H40c-5.522 0-10 4.478-10 10s4.478 10 10 10h400c5.522 0 10-4.478 10-10s-4.478-10-10-10zM241.035 107.867c-20.448 29.202-30.567 63.146-28.492 95.576.657 10.283 2.513 20.037 5.478 29.113l-2.819 84.65c-5.638-1.096-11.65 1.104-15.157 6.111l-40.15 57.341c-4.752 6.786-3.103 16.14 3.684 20.892l8.191 5.735c6.786 4.751 16.139 3.103 20.891-3.684l40.15-57.341c3.507-5.008 3.518-11.41.56-16.334l78.593-31.606c9.539-.317 19.335-1.907 29.219-4.804 31.185-9.143 59.62-30.261 80.068-59.465 20.448-29.203 30.567-63.146 28.493-95.577-2.128-33.267-16.748-61.003-41.168-78.102-24.417-17.099-55.483-21.351-87.471-11.972-31.186 9.145-59.622 30.263-80.07 59.467zm-5.5 199.633l1.37-41.129a91.703 91.703 0 0036.819 25.771L235.535 307.5zM353.718 63.558c15.637 0 30.601 4.247 43.386 13.199 19.342 13.543 30.947 35.915 32.68 62.995 1.785 27.916-7.063 57.332-24.917 82.83-24.516 35.011-60.975 55.097-94.587 55.759-.171-.005-.341.001-.512.005-16.071.223-31.475-4.003-44.587-13.184-13.102-9.174-22.336-22.188-27.626-37.351-.06-.179-.118-.357-.188-.532-10.869-31.811-4.462-72.935 20.051-107.941 24.932-35.607 62.217-55.78 96.3-55.78zM159.18 230h37.317c-2.038-8.125-3.358-16.59-3.915-25.279-2.277-35.605 8.222-72.626 29.612-104.721H80v83.312a59.713 59.713 0 0120.004-3.441c29.721 0 54.452 21.727 59.176 50.129zM80 80h157.552c12.505-14.197 26.883-26.143 42.49-35.342l-14.303-12.65A8 8 0 00260.438 30H34.008c-3.57 0-5.352 4.324-2.817 6.84L80 80zM60 239.875c0 22.094 17.91 40.004 40.004 40.004 22.093 0 40.003-17.91 40.003-40.004 0-22.093-17.91-40.003-40.003-40.003-22.094 0-40.004 17.91-40.004 40.003z"/></svg>