<svg xmlns="http://www.w3.org/2000/svg" width="1000pt" height="1000pt" viewBox="0 0 1000 1000"><path d="M935.863 814.746c-.195-2-.418-3.98-.676-5.933-.09-.68-.195-1.348-.289-2.016-.03-.215-.058-.422-.09-.633-.12-.832-.238-1.66-.37-2.484l-.051-.309a201.18 201.18 0 00-.871-5c-.055-.312-.106-.633-.164-.937l-.016-.079-.106-.507a192.214 192.214 0 00-.925-4.524l-.059-.285-.113-.496c-.453-2.05-.934-4.121-1.453-6.215-.25-.996-.532-2.023-.793-3.031-.332-1.27-.653-2.531-1.004-3.813-.348-1.254-.73-2.527-1.102-3.793-.308-1.058-.601-2.109-.926-3.175-.445-1.461-.925-2.95-1.402-4.43-.281-.883-.55-1.758-.844-2.645-.539-1.636-1.117-3.296-1.691-4.953-.262-.754-.512-1.5-.781-2.254a341.578 341.578 0 00-1.98-5.398c-.239-.645-.47-1.281-.712-1.926a391.742 391.742 0 00-2.293-5.86c-.207-.523-.406-1.038-.617-1.566-.84-2.086-1.71-4.187-2.605-6.3l-.52-1.25a492.364 492.364 0 00-2.918-6.692c-.14-.324-.281-.648-.426-.972a520.679 520.679 0 00-3.23-7.07 485.362 485.362 0 00-3.879-8.133l-.227-.477a572.58 572.58 0 00-3.863-7.766l-.125-.246a643.557 643.557 0 00-4.172-8.066l-.035-.067a693.658 693.658 0 00-14.02-25.28v.003c-13.074 29.176-29.413 56.566-48.542 81.727 16.601 35.027 22.222 58.87 23.238 73.777v.027c.219 3.262.23 6.102.078 8.531l-.008.13c-.035.495-.074.972-.117 1.437l-.05.508c-.044.406-.094.804-.145 1.183-.028.196-.055.39-.086.578-.055.34-.11.68-.168 1-.04.215-.086.41-.13.618a25.945 25.945 0 01-.5 2.004l-.155.468c-.078.23-.157.461-.235.668l-.16.39c-.086.208-.176.4-.262.579l-.152.3-.3.516-.122.188c-.14.207-.285.39-.426.539a4.964 4.964 0 01-.503.45l-.125.093c-.184.137-.391.273-.622.414l-.078.047a11.62 11.62 0 01-.89.465l-.133.062c-.297.137-.617.27-.961.403l-.184.07c-.793.297-1.715.574-2.761.832l-.286.066c-1.066.25-2.265.473-3.597.653l-.34.043c-.598.078-1.223.148-1.875.21l-.29.028c-.75.066-1.53.121-2.35.16l-.29.016a80.81 80.81 0 01-2.258.062l-.52.008c-.616.004-1.269-.004-1.92-.016-.392-.007-.778-.011-1.18-.023-.641-.02-1.31-.05-1.977-.082-.426-.024-.836-.04-1.27-.067-.687-.043-1.41-.101-2.129-.16-.457-.039-.902-.07-1.375-.113-.73-.07-1.496-.16-2.254-.246-.503-.055-.988-.102-1.503-.168-.774-.094-1.582-.215-2.387-.328-.543-.074-1.07-.14-1.63-.23-.815-.126-1.675-.274-2.526-.419-.582-.101-1.153-.187-1.754-.296-.86-.157-1.762-.34-2.653-.516-.632-.125-1.246-.238-1.894-.371-.887-.188-1.817-.399-2.73-.606-2.067-.46-4.196-.96-6.419-1.53-.222-.056-.433-.102-.66-.161-1.031-.266-2.11-.566-3.172-.86-.726-.199-1.433-.378-2.175-.59-1.051-.3-2.149-.628-3.23-.948-.802-.239-1.587-.461-2.407-.715-1.086-.332-2.223-.7-3.34-1.059-.863-.273-1.707-.535-2.586-.824-1.129-.371-2.3-.774-3.457-1.172-.922-.313-1.828-.617-2.773-.945-1.164-.407-2.368-.852-3.563-1.285-.984-.36-1.957-.704-2.969-1.083-1.199-.445-2.441-.925-3.672-1.402-1.05-.402-2.09-.797-3.164-1.219a364.414 364.414 0 01-3.777-1.52c-.836-.335-1.672-.675-2.52-1.023l-.027-.011c-.355-.145-.699-.285-1.058-.434-.637-.262-1.286-.535-1.93-.805a620.383 620.383 0 01-5.621-2.402c-.395-.172-.774-.332-1.168-.504a523.034 523.034 0 01-6.848-3.062c-.61-.282-1.226-.563-1.844-.844a649.22 649.22 0 01-7-3.27l-.378-.18a571.984 571.984 0 01-7.758-3.769l-1.649-.816a697.195 697.195 0 01-8.136-4.106c-.215-.11-.43-.226-.645-.336a737.75 737.75 0 01-9.262-4.855c-.347-.188-.703-.379-1.054-.567a850.12 850.12 0 01-9.442-5.132l-.14-.078-.25-.137a843.508 843.508 0 01-7.774-4.352l-.023-.011a876.984 876.984 0 01-11.852-6.852v.004c-17.637-10.352-35.7-21.727-54.078-34.067l-.598-.398c-2.488-1.672-4.98-3.363-7.476-5.07l-1.36-.926a1147.682 1147.682 0 01-7.043-4.863c-.609-.426-1.218-.848-1.832-1.274-2.253-1.57-4.507-3.156-6.77-4.754-.71-.504-1.425-1.008-2.136-1.515a1504.35 1504.35 0 01-6.59-4.707c-.777-.563-1.558-1.125-2.34-1.692-2.16-1.558-4.324-3.129-6.488-4.71l-2.433-1.79a1514.437 1514.437 0 01-6.465-4.773c-.809-.598-1.61-1.203-2.418-1.805a1186.61 1186.61 0 01-6.535-4.902c-.746-.567-1.493-1.137-2.239-1.7a1548.525 1548.525 0 01-6.757-5.148c-.504-.387-1.008-.781-1.512-1.168-.715-.55-1.438-1.12-2.153-1.676a1553.782 1553.782 0 01-20.128-15.8c-.973-.778-1.946-1.547-2.922-2.329-1.715-1.378-3.43-2.773-5.149-4.16-1.355-1.097-2.71-2.191-4.066-3.297-1.598-1.3-3.192-2.613-4.79-3.925-1.491-1.223-2.98-2.442-4.468-3.676-1.52-1.254-3.039-2.52-4.559-3.785-1.57-1.309-3.144-2.617-4.714-3.934-1.465-1.23-2.93-2.469-4.395-3.703-1.633-1.383-3.266-2.762-4.898-4.152a1219.652 1219.652 0 01-4.235-3.618c-1.691-1.445-3.383-2.906-5.078-4.367a1671.034 1671.034 0 01-4.113-3.562 1395.16 1395.16 0 01-5.207-4.54c-1.328-1.163-2.652-2.323-3.98-3.491-1.798-1.586-3.598-3.18-5.395-4.778l-3.793-3.37c-1.883-1.688-3.77-3.38-5.652-5.079-1.18-1.063-2.356-2.117-3.532-3.18-2.035-1.843-4.07-3.699-6.101-5.558-1.024-.934-2.051-1.864-3.07-2.801-2.36-2.168-4.715-4.344-7.07-6.527-.7-.653-1.403-1.297-2.102-1.95a2100.379 2100.379 0 01-9.25-8.66 1967.484 1967.484 0 01-9.184-8.726c-.695-.664-1.387-1.336-2.082-2a1599.057 1599.057 0 01-6.906-6.657c-1.004-.972-2-1.945-2.996-2.918a1651.904 1651.904 0 01-5.899-5.757c-1.125-1.106-2.242-2.211-3.363-3.32a1404.004 1404.004 0 01-5.414-5.368c-1.2-1.195-2.395-2.39-3.59-3.586-1.691-1.7-3.387-3.398-5.07-5.094-1.25-1.261-2.493-2.527-3.739-3.789-1.609-1.636-3.218-3.273-4.82-4.914a1193.351 1193.351 0 01-3.824-3.93c-1.54-1.581-3.067-3.163-4.594-4.745-1.312-1.364-2.625-2.727-3.93-4.09-.668-.7-1.328-1.395-1.992-2.09-.793-.832-1.582-1.66-2.375-2.488-1.34-1.41-2.676-2.82-4.008-4.227-1.39-1.477-2.773-2.953-4.156-4.426a1427.82 1427.82 0 01-4.09-4.375c-1.293-1.39-2.578-2.785-3.863-4.176-1.426-1.543-2.855-3.086-4.27-4.628-1.14-1.247-2.27-2.489-3.402-3.735-1.531-1.68-3.062-3.355-4.582-5.031-.77-.856-1.531-1.711-2.3-2.567a1539.664 1539.664 0 01-11.977-13.484c-2.38-2.7-4.754-5.406-7.094-8.105-.363-.418-.734-.84-1.102-1.258-1.906-2.211-3.793-4.41-5.675-6.617-.555-.649-1.114-1.293-1.664-1.946a1115.79 1115.79 0 01-5.399-6.382c-.61-.723-1.219-1.442-1.824-2.16-1.758-2.098-3.5-4.196-5.234-6.29-.61-.734-1.227-1.476-1.836-2.215a1417.6 1417.6 0 01-5.172-6.308 1712.928 1712.928 0 01-6.914-8.547l-1.512-1.895a1076.065 1076.065 0 01-5.246-6.605c-.43-.543-.852-1.086-1.281-1.629-1.805-2.297-3.598-4.59-5.371-6.879a287.89 287.89 0 00-.875-1.137 1225.563 1225.563 0 01-5.614-7.32l-.32-.422c-18.477-24.308-35.117-48.14-49.664-71.18l-.043-.066-.043-.07-.047-.07c-1.96-3.11-3.89-6.207-5.777-9.29-.172-.28-.348-.562-.52-.843a700.481 700.481 0 01-5.601-9.313l-.18-.304a642.696 642.696 0 01-4.48-7.727c-.376-.648-.743-1.297-1.11-1.941a643.88 643.88 0 01-3.836-6.844c-.363-.66-.71-1.309-1.07-1.961a442.29 442.29 0 01-2.711-5.024 320.136 320.136 0 01-1.68-3.168 401.346 401.346 0 01-1.738-3.34 510.399 510.399 0 01-3.113-6.12c-.305-.614-.614-1.227-.914-1.832a570.855 570.855 0 01-2.043-4.18l-.02-.043-.05-.113c-3.805-7.899-7.055-15.239-9.829-22.051l-.125-.305a309.946 309.946 0 01-1.922-4.848l-.097-.253c-3.813-9.88-6.575-18.563-8.52-26.133l-.004-.016c-1.617-6.309-2.68-11.851-3.312-16.66l-.012-.094c-.117-.914-.223-1.797-.313-2.656l-.027-.266a78.055 78.055 0 01-.219-2.472l-.007-.07c-.235-3.235-.258-6.051-.13-8.485l.028-.5c.027-.473.063-.922.102-1.363.02-.203.043-.399.058-.598.047-.402.09-.797.14-1.168.028-.207.06-.394.087-.594.054-.347.105-.703.168-1.027l.105-.527c.11-.524.223-1.016.344-1.473.059-.219.117-.441.176-.648.062-.196.125-.375.183-.56.07-.198.137-.398.207-.581l.184-.457.23-.508.18-.363.262-.446.16-.253.371-.473.043-.055c1.711-1.812 7.54-4.094 18.652-4.094.852 0 1.743.02 2.653.047l.535.02c.914.035 1.851.074 2.832.137l.016.004c1.015.066 2.074.152 3.16.253l.468.047c1.055.102 2.137.219 3.254.36l.09.007c1.203.153 2.45.325 3.727.516l.226.04c1.262.19 2.559.405 3.89.644l.056.011c13.976 2.5 32.054 7.57 54.902 16.801l.035.016a418.92 418.92 0 00-33.418 31.996l-.047-.016c-3.61 3.86-7.168 7.77-10.636 11.766l.02.047c6.171 15.086 15.523 34.344 29.73 58.422.457.777.941 1.566 1.406 2.347a359.578 359.578 0 0133.304-38.386c51.848-51.844 116.95-85.575 187.657-98.145a351.038 351.038 0 00-68.516 19.633c-50.652 51.09-87.992 114.129-108.176 183.543 14.43 19.828 30.227 40.07 47.22 60.543 18.378-114.207 88.96-214.117 191.886-269.301-1.75 0-3.492.035-5.238.063 1.746-.028 3.492-.067 5.246-.067l-.008.004H500c94.602 0 183.54 36.844 250.434 103.734C817.328 316.457 854.168 405.398 854.168 500s-36.84 183.543-103.734 250.434a362.682 362.682 0 01-22.223 20.41l.027.015c.844.438 1.692.887 2.528 1.32 24.804 12.743 44.59 20.934 60.011 26.208a419.598 419.598 0 0024.164-25.57l.172-.2a421.312 421.312 0 005.785-6.844c.38-.457.762-.914 1.137-1.375a398.649 398.649 0 005.223-6.484c.445-.562.887-1.133 1.328-1.7 55.187-70.671 88.082-159.6 88.082-256.214 0-230.117-186.55-416.668-416.668-416.668-69.453 0-134.922 17.023-192.504 47.086l.473-.254c-11.852-5.992-23.364-11.422-34.512-16.281l-.031-.016c-.485-.21-.957-.406-1.442-.613a556.151 556.151 0 00-6.757-2.887l-.247-.101a576.872 576.872 0 00-7.859-3.207l-.465-.18c-2.523-1-5.027-1.977-7.508-2.914-.242-.094-.48-.176-.722-.27a412.304 412.304 0 00-7.121-2.617c-.336-.121-.668-.234-1.008-.355-2.254-.801-4.496-1.582-6.715-2.328-.422-.141-.844-.274-1.266-.415a357.495 357.495 0 00-6.32-2.05c-.535-.168-1.059-.32-1.59-.485-1.965-.61-3.93-1.207-5.863-1.773-.648-.188-1.281-.356-1.922-.54a397.276 397.276 0 00-5.418-1.507c-.734-.195-1.45-.367-2.18-.559-1.683-.433-3.367-.87-5.027-1.27-.832-.202-1.648-.378-2.48-.57-1.532-.355-3.07-.718-4.586-1.042-.95-.204-1.88-.38-2.82-.57-1.376-.278-2.758-.571-4.114-.825-1.098-.207-2.172-.375-3.262-.562-1.164-.204-2.34-.422-3.492-.606-2.21-.348-4.484-.664-6.808-.953l-.368-.043a206.23 206.23 0 00-7.343-.758c-2.258-.191-4.551-.34-6.868-.449-.187-.008-.378-.023-.57-.031a167.654 167.654 0 00-7.316-.164l-.258-.004c-1.531.004-3.074.027-4.621.074-.317.008-.633.023-.953.035-1.325.043-2.653.113-3.985.192-.27.02-.543.03-.816.05-1.55.106-3.106.235-4.66.39-.274.028-.547.06-.82.09-1.329.141-2.653.305-3.981.49-.34.042-.68.089-1.016.136-1.562.226-3.125.476-4.68.765l-.484.098c-1.398.262-2.797.559-4.191.871-.363.082-.73.164-1.09.25-3.09.73-6.164 1.594-9.203 2.598a103.883 103.883 0 00-5.113 1.844l-.535.203c-1.485.59-2.961 1.23-4.426 1.898-.332.152-.664.313-.996.473a96.034 96.034 0 00-3.649 1.816c-.281.149-.566.293-.847.445a91.159 91.159 0 00-4.22 2.43c-.277.172-.546.352-.82.524a89.142 89.142 0 00-3.449 2.28c-.32.224-.644.446-.965.677a83.23 83.23 0 00-3.992 3.03l-.504.423a84.922 84.922 0 00-3.398 2.949c-.324.297-.649.59-.969.89a89.432 89.432 0 00-3.719 3.692c-19.668 20.852-25.535 47.43-25.257 72.336.144 13.047 1.976 25.637 4.39 36.707 7.863 36.05 26.113 78.508 54.246 126.188.586.992 1.196 1.992 1.785 2.988C93.06 397.3 83.332 447.51 83.332 500c0 230.117 186.55 416.668 416.668 416.668 61.11 0 119.129-13.18 171.414-36.82l.04.023c1.05.543 2.105 1.106 3.148 1.64 49.246 25.298 92.695 41.032 129.144 46.774 9.047 1.426 19.055 2.41 29.445 2.41 27.004 0 56.547-6.668 78.192-29.617 23.418-24.82 27.265-57.754 24.48-86.332zM459.637 148.133zM145.832 500c0-1.012.004-2.023.016-3.035l.023.012c.219-26.707 3.39-52.946 9.336-78.348l.098.137c3.23 4.515 6.527 9.046 9.879 13.593.27.368.543.73.812 1.098 3.3 4.465 6.652 8.941 10.07 13.438l.051.066c3.457 4.555 6.985 9.117 10.555 13.691.355.457.715.914 1.074 1.371 3.5 4.47 7.047 8.95 10.652 13.438l.075.09c3.644 4.547 7.359 9.097 11.113 13.66.473.578.953 1.156 1.43 1.73 3.632 4.399 7.308 8.805 11.035 13.22l.238.276c3.797 4.493 7.656 8.989 11.547 13.493.621.718 1.246 1.433 1.867 2.152.98 1.125 1.984 2.254 2.969 3.383-4.406-.742-8.777-1.594-13.152-2.461a1731.06 1731.06 0 00-4.79-.945c-1.746-.348-3.5-.66-5.257-.973-2.864-.508-5.735-1.02-8.578-1.691-9-2.165-17.79-4.875-26.583-7.707-4.042-1.254-8.082-2.5-12.042-3.918a376.25 376.25 0 01-22.399-8.797c-.008 1.011-.039 2.015-.039 3.027zM500 854.168c-94.602 0-183.543-36.844-250.434-103.734-51.804-51.805-85.53-116.848-98.129-187.489 1.887.625 3.778 1.227 5.672 1.828 1.422.454 2.844.907 4.262 1.368 1.832.586 3.649 1.21 5.461 1.836 3.098 1.066 6.195 2.128 9.375 2.996.738.222 1.492.398 2.242.578.52.12 1.04.242 1.547.379 1.336.37 2.695.652 4.05.933h.005v.004c.933.192 1.863.387 2.781.606 7.25 1.875 14.54 3.457 21.875 4.918 1.055.222 2.09.484 3.125.742 1.621.406 3.238.808 4.914 1.09.363.066.723.12 1.086.175h.004l.363.059.313.05.277.044c1.602.289 3.227.465 4.86.644h.003c1.215.13 2.43.262 3.637.442 9.29 1.457 18.625 2.707 28.04 3.586.523.02 1.03.093 1.542.164.512.07 1.02.144 1.543.164v.047c10.664.828 21.332 1.5 32.207 1.625.305 0 .613.015.926.039.324.023.652.043.992.043 1.598 0 3.2-.02 4.797-.043 1.117 1.16 2.219 2.32 3.344 3.48.265.274.523.547.793.82a1665.5 1665.5 0 0012.523 12.743c1.07 1.082 2.14 2.156 3.211 3.234 4.02 4.031 8.059 8.059 12.133 12.078.262.258.52.516.781.774a1961.319 1961.319 0 0016.363 15.902c4.22 4.055 8.461 8.105 12.739 12.14l.437.419.45.421c4.277 4.032 8.562 8.02 12.85 11.993 1.2 1.105 2.392 2.21 3.59 3.312 4.407 4.059 8.817 8.098 13.24 12.09.3.273.605.539.905.812 4.223 3.81 8.45 7.582 12.684 11.329 1.144 1.02 2.297 2.039 3.445 3.05a1919.58 1919.58 0 0013.418 11.727c.328.285.66.562.992.848 4.25 3.671 8.504 7.3 12.758 10.906 1.067.902 2.13 1.805 3.195 2.703 4.165 3.512 8.329 6.992 12.493 10.437-87.625 14.22-178.723-3.097-256.121-51.046 22.609 38.898 52.41 73.117 87.566 100.828 74.707 19.62 153.68 19.054 228.54-2.383.726.55 1.46 1.117 2.19 1.664l.446.332c4.566 3.426 9.125 6.797 13.68 10.129.628.457 1.257.918 1.886 1.379 4.75 3.465 9.492 6.887 14.215 10.25l.258.183a1421.89 1421.89 0 0013.89 9.739 1264.975 1264.975 0 0015.71 10.727l.22.144c4.637 3.113 9.254 6.164 13.86 9.164.402.265.808.531 1.21.793 4.715 3.066 9.41 6.078 14.086 9.027l.098.063c-32.488 9.672-66.562 14.695-101.414 14.695zM113.21 89.258zm523.185 626.3a568.568 568.568 0 0011.68-8.398c2.933 6.887 5.292 13.89 7.667 20.938l.121.351c24.883 16.106 49.07 30.309 72.192 42.317.234-.2.472-.391.707-.586-.38-1.809-.778-3.606-1.176-5.414a508.69 508.69 0 01-1.016-4.641c-.379-1.773-.722-3.547-1.074-5.32-.648-3.305-1.293-6.606-2.133-9.887a138.17 138.17 0 00-1.086-3.793c-.285-1.191-.664-2.348-1.047-3.508-.335-1.027-.675-2.058-.953-3.117-2.039-7.246-4.332-14.371-6.707-21.457-.406-1.203-.758-2.422-1.113-3.64-.406-1.407-.812-2.813-1.305-4.196a27.006 27.006 0 00-.394-.98c-.137-.32-.27-.645-.395-.98-.539-1.5-1.187-2.977-1.836-4.458-.5-1.148-1.004-2.297-1.457-3.457-3.418-8.793-6.957-17.46-10.957-26.086-.187-.406-.355-.824-.527-1.246a24.888 24.888 0 00-.684-1.586c-4.539-9.586-9.25-19.168-14.582-28.543-.129-.238-.242-.488-.36-.734-.183-.395-.362-.782-.597-1.145-21.164-36.625-48.125-69.246-78.832-98.082-.293-.27-.566-.555-.832-.832a18.787 18.787 0 00-.789-.789c-1.125-1.062-2.32-2.055-3.515-3.047v-.004a94.59 94.59 0 01-1.192-.996c-9.793-8.832-19.793-17.328-30.375-25.25-.75-.55-1.465-1.164-2.18-1.77-.789-.675-1.574-1.347-2.406-1.937-1.777-1.316-3.668-2.465-5.558-3.613-1.516-.918-3.036-1.844-4.48-2.844-2.286-1.57-4.528-3.21-6.774-4.848v-.003c-3.774-2.754-7.547-5.512-11.516-7.942.164-7.336.5-14.625 1.082-21.918.168-2.012.3-4.035.438-6.058.265-4.012.535-8.036 1.062-12.024.856-6.59 2.195-13.055 3.543-19.531v-.004c.363-1.75.727-3.504 1.082-5.258 6.918-33.957 18.168-66.914 34.168-97.75.227-.394.406-.797.586-1.199.121-.266.238-.531.371-.8 16.043 6.46 31.918 13.71 47.293 22.542 119.793 69.184 190.613 198.047 186.363 334.61 21.993-38.063 37.11-80.575 43.641-125.829-29.352-107.796-99.691-202.238-200.273-260.308-14.665-8.461-29.707-15.75-44.915-22.293 4.329-5.715 8.985-11.047 13.641-16.371 1.078-1.235 2.156-2.473 3.234-3.707a283.941 283.941 0 003.622-4.235c1.843-2.183 3.683-4.363 5.628-6.433 6.375-6.75 13.207-13 20-19.168l1.29-1.188c2.687-2.472 5.359-4.941 8.125-7.312 6.132-5.172 12.37-10.168 18.773-14.938a352.994 352.994 0 00-59.902-28.199 701.707 701.707 0 00-3.973 3.602l-.008.007a1493.276 1493.276 0 01-3.77 3.422c-1.472 1.344-2.968 2.645-4.464 3.953-2.406 2.102-4.809 4.204-7.121 6.461-.914.914-1.832 1.875-2.707 2.793-.938.914-1.825 1.895-2.707 2.875a81.654 81.654 0 01-2.086 2.25 438.991 438.991 0 00-15.207 16.5 81.506 81.506 0 01-2.512 2.7c-1.04 1.085-2.086 2.175-3.07 3.343-.196.23-.387.48-.586.739-.227.293-.461.593-.703.882-1.043 1.23-2 2.54-2.965 3.852v.004c-.735 1-1.469 2.008-2.246 2.98-5.914 7.336-11.664 14.75-17.082 22.457-.27.383-.551.739-.829 1.09-.363.461-.718.914-1.046 1.41-6.043 8.75-11.957 17.664-17.457 26.957-.207.36-.442.704-.68 1.047l-.172.25-.273.41c-21.168 36.625-35.918 76.336-45.5 117.375-.086.356-.2.72-.313 1.086-.117.368-.23.73-.312 1.086-.305 1.313-.532 2.645-.762 3.97v.003c-.117.691-.235 1.383-.363 2.066-2.75 12.914-5.086 25.875-6.668 39.04-.114.874-.282 1.746-.446 2.62v.004c-.199 1.047-.398 2.106-.511 3.168-.235 2.192-.282 4.422-.332 6.649-.04 1.754-.079 3.5-.211 5.226-.22 2.829-.524 5.637-.829 8.45v.004c-.5 4.593-1 9.183-1.128 13.84a359.968 359.968 0 01-19.457 10c-1.868.878-3.723 1.788-5.575 2.699h-.004c-3.601 1.773-7.195 3.539-10.882 5.05-5.985 2.496-12.118 4.528-18.266 6.563-1.856.613-3.711 1.226-5.566 1.855a397.318 397.318 0 01-15.25 4.735 1797.088 1797.088 0 0047.882 46.914c6.204-2.278 12.352-4.7 18.446-7.328.836-.352 1.699-.649 2.562-.942h.004c.988-.34 1.98-.676 2.934-1.101 1.968-.88 3.863-1.922 5.754-2.961v-.004c1.597-.875 3.191-1.754 4.832-2.535 2.464-1.168 4.957-2.27 7.449-3.371 4.328-1.907 8.648-3.813 12.8-6.086a336.102 336.102 0 0118.415 11.918c1.457.996 2.925 1.968 4.394 2.945v.004c3.578 2.379 7.156 4.754 10.52 7.383 4.86 3.71 9.414 7.754 13.96 11.789 1.731 1.535 3.462 3.07 5.208 4.586 25.957 23.043 48.914 49.25 67.625 78.543.187.308.383.601.582.894l.258.383.187.289.137.223c-11.18 8.746-22.797 17.11-35.14 24.78 17.484 13.157 34.812 25.556 51.859 37.099zm0 0"/></svg>