<svg xmlns="http://www.w3.org/2000/svg" width="1000pt" height="1000pt" viewBox="0 0 1000 1000"><path d="M759.941 128.77c-9.421-6.598-22.414-4.31-29.015 5.117L345.37 684.512c-21.133-19.176-39.078-39.07-52.457-58.414-13.312-19.246-18.879-33.258-20.98-42.09-2.102-6.84-1.664-14.153 1.425-21.438 6.543-15.425 23.489-26.77 34.606-27.293 5.7-.277 10.625 4.164 10.894 9.914.274 5.739-4.156 10.618-9.898 10.895-3.102.273-12.793 6.293-16.34 14.46 8.777.294 20.336 1.794 35.207 5.688 14.094 3.688 28.992 8.965 44.29 15.59l48.597-69.406c-28.172-13.406-55.895-23.383-81.75-29.234-85.27-19.301-122.02 12.105-136.328 32.543-14.313 20.441-31.258 65.703 16.047 139.242 19.082 29.668 46.156 59.945 78.57 88.258l-62.309 88.988c-6.601 9.422-4.308 22.414 5.114 29.015a20.737 20.737 0 0011.933 3.77c6.567 0 13.031-3.098 17.082-8.887l60.63-86.586a593.41 593.41 0 0017.116 12.47c54.47 38.14 112.426 65.472 163.192 76.96 18.73 4.238 35.12 6.031 49.445 6.031 50.89 0 75.719-22.625 86.887-38.574 14.308-20.437 31.258-65.703-16.047-139.242-26.73-41.559-69.113-84.309-119.938-121.164l-47.796 68.258c39.14 28.535 72.12 60.867 93.503 91.777 9.13 13.2 14.598 23.918 17.825 32.219 2.675-1.13 5.273-2.66 7.343-4.672 3.332-3.235 4.157-6.77 2.688-11.473-1.719-5.488 1.34-11.332 6.824-13.05 5.492-1.715 11.336 1.335 13.055 6.824 3.926 12.535.883 24.3-8.563 33.132-5.68 5.309-13.047 8.895-20.347 10.82-6.883 2.122-23.606 3.95-53.735-3.937-38.87-10.176-83.808-32.258-126.539-62.176a520.94 520.94 0 01-17.09-12.503L765.055 157.78c6.601-9.422 4.312-22.414-5.114-29.011zm0 0"/></svg>