<svg xmlns="http://www.w3.org/2000/svg" viewBox="0 0 480 480"><path d="M364.771 61.809c-4.521-3.167-10.758-2.068-13.927 2.456L165.778 328.566c-10.143-9.205-18.758-18.755-25.179-28.039-6.39-9.238-9.062-15.964-10.071-20.204-1.008-3.283-.798-6.793.685-10.289 3.141-7.405 11.274-12.849 16.61-13.101 2.735-.133 5.1 1.999 5.23 4.758a4.998 4.998 0 01-4.751 5.23c-1.49.131-6.142 3.021-7.843 6.941 4.212.141 9.761.862 16.898 2.73 6.766 1.771 13.917 4.303 21.26 7.483l23.327-33.314c-13.523-6.435-26.83-11.225-39.24-14.033-40.93-9.265-58.571 5.811-65.439 15.621-6.869 9.811-15.003 31.538 7.703 66.836 9.16 14.241 22.155 28.774 37.714 42.364l-29.909 42.714c-3.168 4.523-2.068 10.759 2.456 13.927a9.946 9.946 0 005.727 1.81 9.987 9.987 0 008.2-4.266l29.101-41.56a290.334 290.334 0 008.216 5.984c26.146 18.308 53.965 31.427 78.332 36.941 8.992 2.034 16.858 2.895 23.734 2.895 24.428 0 36.346-10.86 41.706-18.516 6.869-9.81 15.003-31.537-7.703-66.836-12.831-19.947-33.174-40.467-57.57-58.159l-22.942 32.765c18.787 13.696 34.619 29.216 44.881 44.053 4.383 6.336 7.007 11.48 8.557 15.464 1.284-.541 2.531-1.276 3.525-2.241 1.598-1.553 1.995-3.251 1.289-5.507a5.001 5.001 0 013.277-6.266 5.004 5.004 0 016.266 3.277c1.884 6.017.424 11.664-4.111 15.903-2.726 2.548-6.262 4.269-9.767 5.194-3.304 1.019-11.33 1.895-25.792-1.89-18.658-4.885-40.229-15.483-60.738-29.844a251.19 251.19 0 01-8.204-6.002L367.227 75.735c3.168-4.523 2.069-10.758-2.456-13.926z"/></svg>