<svg xmlns="http://www.w3.org/2000/svg" viewBox="0 0 480 480"><path d="M449.215 391.078c-.094-.96-.202-1.91-.325-2.848-.043-.326-.093-.646-.138-.968l-.044-.303c-.058-.399-.115-.798-.178-1.192l-.025-.149c-.13-.812-.27-1.611-.417-2.399-.026-.15-.051-.304-.08-.451l-.007-.037-.05-.245c-.143-.734-.29-1.46-.444-2.17l-.028-.137-.056-.238c-.217-.985-.447-1.979-.697-2.983-.119-.479-.255-.971-.381-1.455-.159-.609-.312-1.215-.482-1.831-.167-.602-.35-1.213-.528-1.821-.148-.508-.289-1.011-.444-1.523-.214-.702-.445-1.416-.673-2.127-.136-.424-.265-.843-.405-1.27-.26-.785-.537-1.581-.813-2.377-.125-.361-.245-.719-.374-1.082-.305-.856-.626-1.723-.951-2.591-.115-.309-.225-.614-.342-.924-.354-.93-.723-1.87-1.099-2.812-.1-.252-.196-.5-.297-.753-.403-1-.822-2.009-1.25-3.023l-.251-.6a218.04 218.04 0 00-1.399-3.212c-.069-.156-.136-.312-.206-.468a252.016 252.016 0 00-1.55-3.393c-.053-.114-.105-.229-.159-.343a241.126 241.126 0 00-1.702-3.562l-.11-.228a279.921 279.921 0 00-1.854-3.727l-.06-.118a295.065 295.065 0 00-2.003-3.872l-.017-.032a332.412 332.412 0 00-6.729-12.135v.001a199.886 199.886 0 01-23.301 39.229c7.969 16.813 10.668 28.259 11.155 35.414v.013c.106 1.565.11 2.928.037 4.094l-.003.062c-.016.239-.035.468-.057.69l-.024.245a19.622 19.622 0 01-.111.844c-.025.164-.051.328-.08.48-.019.104-.041.198-.062.297a11.691 11.691 0 01-.24.962l-.075.225a8.396 8.396 0 01-.113.321l-.077.188c-.041.098-.083.19-.125.276l-.073.145-.145.247-.057.09a2.09 2.09 0 01-.205.259c-.066.07-.149.143-.241.215l-.061.046a3.731 3.731 0 01-.297.198l-.038.023a5.778 5.778 0 01-.428.224l-.064.029c-.142.065-.296.13-.461.193l-.087.034a11.97 11.97 0 01-1.327.399l-.136.032c-.513.12-1.087.227-1.727.314l-.164.021c-.287.037-.586.07-.899.1l-.14.014c-.359.032-.734.058-1.127.077l-.14.006c-.348.016-.709.026-1.083.031l-.25.003c-.296.003-.609-.002-.922-.007-.188-.003-.373-.005-.567-.011a47.264 47.264 0 01-.949-.04c-.203-.011-.4-.019-.609-.031-.33-.021-.676-.05-1.021-.078-.22-.018-.434-.033-.66-.054-.351-.033-.718-.076-1.083-.117-.241-.027-.474-.05-.721-.081-.372-.046-.76-.103-1.146-.157-.261-.037-.513-.069-.781-.111-.393-.06-.805-.132-1.213-.201-.281-.048-.554-.091-.842-.143-.413-.075-.846-.163-1.273-.247-.304-.061-.599-.114-.911-.179-.424-.089-.871-.191-1.309-.289-.993-.222-2.015-.463-3.081-.735-.108-.027-.209-.05-.318-.078-.494-.128-1.011-.272-1.521-.412-.35-.096-.689-.183-1.046-.284-.504-.143-1.03-.302-1.549-.455-.386-.115-.762-.222-1.156-.343-.522-.159-1.066-.336-1.603-.508-.414-.132-.819-.257-1.242-.396-.542-.178-1.103-.372-1.659-.562-.443-.15-.878-.296-1.33-.454-.559-.196-1.137-.409-1.71-.617-.474-.172-.941-.338-1.425-.519-.577-.215-1.172-.445-1.763-.673-.505-.193-1.004-.383-1.519-.586-.594-.233-1.205-.482-1.813-.729-.401-.162-.802-.324-1.209-.491l-.014-.006-.507-.207a239.455 239.455 0 01-3.626-1.541l-.56-.241a255.323 255.323 0 01-3.287-1.471l-.885-.405a292.861 292.861 0 01-3.36-1.568l-.181-.086a300.734 300.734 0 01-4.515-2.202 328.014 328.014 0 01-3.907-1.971l-.308-.16a350.299 350.299 0 01-4.446-2.332l-.507-.272a406.376 406.376 0 01-4.532-2.464l-.066-.036-.121-.067a401.32 401.32 0 01-3.732-2.088l-.01-.005a423.265 423.265 0 01-5.689-3.289v.001c-8.466-4.969-17.135-10.428-25.957-16.351l-.288-.192a556.14 556.14 0 01-3.588-2.433l-.652-.445a608.312 608.312 0 01-3.381-2.334l-.88-.612a630.104 630.104 0 01-7.437-5.269l-1.124-.811a639.258 639.258 0 01-3.114-2.262l-1.168-.858a766.201 766.201 0 01-3.104-2.291c-.387-.287-.773-.578-1.161-.867-1.045-.78-2.09-1.562-3.137-2.353l-1.074-.816a680.589 680.589 0 01-3.244-2.471l-.724-.56c-.344-.265-.69-.538-1.034-.804a743.249 743.249 0 01-9.661-7.584c-.468-.374-.935-.743-1.403-1.119-.823-.661-1.647-1.33-2.471-1.997-.651-.526-1.302-1.051-1.953-1.582-.766-.624-1.532-1.255-2.299-1.884-.715-.587-1.43-1.172-2.145-1.764-.729-.603-1.458-1.21-2.187-1.817-.754-.628-1.509-1.256-2.263-1.889-.703-.59-1.406-1.184-2.109-1.777a710.795 710.795 0 01-4.384-3.729 884.003 884.003 0 01-6.912-5.986c-.637-.558-1.273-1.115-1.91-1.676a887.868 887.868 0 01-2.59-2.293c-.607-.539-1.213-1.077-1.82-1.618-.905-.809-1.81-1.622-2.714-2.438l-1.695-1.526a794.282 794.282 0 01-2.929-2.668c-.491-.448-.983-.895-1.474-1.345a891.917 891.917 0 01-3.392-3.133c-.336-.312-.674-.621-1.01-.935a885.543 885.543 0 01-8.848-8.345l-.999-.961a840.741 840.741 0 01-3.316-3.194c-.481-.467-.959-.934-1.438-1.401a930.4 930.4 0 01-2.83-2.764c-.54-.531-1.076-1.062-1.614-1.594a790.97 790.97 0 01-2.6-2.575 699.23 699.23 0 01-1.722-1.723c-.813-.814-1.626-1.63-2.434-2.445-.6-.605-1.197-1.212-1.794-1.818a852.964 852.964 0 01-8.242-8.486l-.956-1.004-1.139-1.194c-.643-.677-1.286-1.354-1.924-2.029a776.646 776.646 0 01-1.995-2.124 635.09 635.09 0 01-1.963-2.099c-.622-.669-1.238-1.337-1.855-2.005-.685-.741-1.37-1.481-2.049-2.222-.548-.598-1.089-1.195-1.634-1.792-.734-.806-1.47-1.611-2.198-2.416-.371-.411-.736-.821-1.105-1.231a736.981 736.981 0 01-5.749-6.472 691.485 691.485 0 01-3.405-3.891l-.528-.605a747.799 747.799 0 01-2.725-3.175c-.266-.311-.535-.622-.799-.934a692.556 692.556 0 01-2.592-3.064c-.291-.346-.584-.691-.874-1.037a716.696 716.696 0 01-2.513-3.018c-.293-.354-.589-.709-.881-1.063a856.237 856.237 0 01-3.307-4.041 650.497 650.497 0 01-5.738-7.17l-.615-.782a586.438 586.438 0 01-2.578-3.303l-.42-.544a625.75 625.75 0 01-2.695-3.514l-.154-.203c-8.868-11.669-16.856-23.108-23.839-34.167l-.021-.032-.02-.032-.022-.034a374.37 374.37 0 01-2.773-4.46l-.25-.404a346.104 346.104 0 01-2.688-4.471l-.087-.146a310.612 310.612 0 01-2.683-4.641c-.63-1.11-1.248-2.209-1.841-3.284-.175-.317-.342-.628-.514-.942-.444-.812-.879-1.616-1.302-2.41-.272-.511-.542-1.018-.806-1.521a258.564 258.564 0 01-2.328-4.542l-.438-.879c-.334-.677-.663-1.347-.981-2.007l-.009-.019-.026-.055a186.151 186.151 0 01-4.717-10.585l-.059-.145c-.321-.791-.629-1.567-.923-2.328l-.047-.122c-1.83-4.742-3.156-8.91-4.089-12.543l-.002-.008c-.777-3.028-1.287-5.688-1.59-7.996l-.006-.046a50.01 50.01 0 01-.15-1.275l-.013-.127a40.75 40.75 0 01-.106-1.188l-.002-.032a32.413 32.413 0 01-.063-4.074l.013-.24c.014-.226.031-.442.05-.653l.028-.287c.021-.193.042-.383.066-.562l.042-.284c.026-.168.051-.337.08-.493l.052-.253c.051-.252.106-.488.165-.708.028-.104.055-.212.084-.31.029-.095.059-.18.088-.269.033-.096.065-.191.099-.279l.089-.219.11-.245.086-.173.126-.215.076-.121.179-.227.021-.027c.82-.869 3.618-1.964 8.953-1.964.408 0 .835.009 1.272.022l.257.009c.439.017.89.037 1.359.067l.008.001c.488.031.996.073 1.518.122l.224.022c.506.049 1.025.105 1.562.172l.043.005c.578.072 1.175.155 1.789.248l.109.018c.605.092 1.227.195 1.867.31l.027.005c6.708 1.199 15.386 3.633 26.353 8.064v.001l.017.007a201.24 201.24 0 00-16.042 15.357l-.021-.007a202.326 202.326 0 00-5.106 5.648l.009.023c2.963 7.24 7.452 16.485 14.27 28.041.221.374.452.753.676 1.128a172.463 172.463 0 0115.986-18.425c24.886-24.886 56.136-41.076 90.075-47.11a168.42 168.42 0 00-32.887 9.424c-24.313 24.522-42.236 54.781-51.925 88.101 6.927 9.516 14.509 19.233 22.666 29.06 8.821-54.82 42.701-102.777 92.104-129.265-.839.001-1.676.018-2.514.031.839-.014 1.676-.032 2.518-.033l-.004.002L240 70c45.409 0 88.099 17.684 120.208 49.792S410 194.592 410 240s-17.683 88.1-49.792 120.208a173.61 173.61 0 01-10.667 9.797l.014.007c.404.21.811.427 1.213.634 11.906 6.116 21.402 10.049 28.806 12.58a201.549 201.549 0 0011.597-12.274l.083-.096a207.642 207.642 0 002.778-3.285l.545-.659a197.103 197.103 0 002.507-3.113c.214-.271.425-.544.638-.815C424.211 329.06 440 286.375 440 240c0-110.457-89.543-200-200-200-33.338 0-64.763 8.171-92.402 22.601l.227-.122a321.951 321.951 0 00-16.566-7.816l-.014-.006c-.233-.102-.46-.195-.692-.296-1.087-.47-2.171-.937-3.244-1.384l-.118-.049a255.068 255.068 0 00-3.773-1.539l-.223-.088c-1.211-.48-2.413-.947-3.604-1.398l-.346-.129a210.468 210.468 0 00-3.418-1.257c-.162-.058-.322-.112-.484-.17a194.462 194.462 0 00-3.223-1.117l-.609-.2c-1.018-.339-2.031-.67-3.033-.984-.256-.08-.508-.154-.763-.233-.944-.292-1.886-.579-2.815-.85-.31-.09-.614-.171-.921-.259a175.48 175.48 0 00-2.602-.724c-.352-.094-.696-.177-1.046-.268-.808-.209-1.616-.419-2.412-.61-.401-.097-.793-.182-1.191-.273-.736-.171-1.475-.346-2.201-.501-.457-.098-.903-.182-1.355-.273-.66-.134-1.323-.274-1.974-.396-.527-.099-1.043-.18-1.565-.271-.559-.097-1.124-.202-1.676-.289-1.062-.167-2.154-.32-3.268-.458l-.178-.021a98.424 98.424 0 00-3.525-.363 89.044 89.044 0 00-3.295-.217l-.275-.014a81.363 81.363 0 00-3.511-.08l-.124-.001c-.735.001-1.475.014-2.217.035l-.458.017c-.636.022-1.273.054-1.912.093-.131.009-.261.015-.393.023a70.99 70.99 0 00-2.237.188l-.393.044c-.637.067-1.274.146-1.911.233l-.488.067c-.75.109-1.499.229-2.246.367l-.232.046c-.672.126-1.343.268-2.013.418-.174.04-.349.079-.523.121a52.464 52.464 0 00-4.938 1.423c-.647.223-1.292.457-1.933.708l-.257.098c-.713.284-1.421.591-2.124.912-.16.073-.319.15-.479.226-.588.277-1.172.568-1.75.873-.135.071-.272.14-.407.213a43.24 43.24 0 00-2.026 1.167c-.132.082-.263.168-.394.25-.558.351-1.109.716-1.655 1.096-.154.107-.31.214-.463.323-.648.465-1.288.946-1.917 1.455l-.241.203c-.552.453-1.096.927-1.632 1.416-.155.142-.311.283-.464.428a41.944 41.944 0 00-1.786 1.771c-9.441 10.01-12.256 22.766-12.123 34.722.07 6.262.949 12.306 2.107 17.619 3.775 17.305 12.535 37.684 26.038 60.57.281.476.574.956.858 1.434C44.668 190.705 40 214.806 40 240c0 110.457 89.543 200 200 200 29.333 0 57.182-6.326 82.278-17.673l.02.011c.503.261 1.01.53 1.511.788 23.637 12.142 44.493 19.695 61.989 22.451 4.342.684 9.147 1.157 14.134 1.157 12.962 0 27.143-3.2 37.532-14.216 11.24-11.915 13.088-27.723 11.751-41.44zM220.626 71.104zM70 240c0-.486.002-.972.006-1.457l.012.005a171.1 171.1 0 014.481-37.606l.028.039.02.027a557.172 557.172 0 004.741 6.524l.391.527a584.76 584.76 0 004.832 6.45l.025.033a623.094 623.094 0 005.067 6.572l.515.657a656.99 656.99 0 005.113 6.451l.035.043a702.97 702.97 0 006.022 7.387 723.617 723.617 0 005.297 6.344l.113.134a764.372 764.372 0 005.544 6.476l.896 1.033c.47.541.952 1.083 1.425 1.624a222.069 222.069 0 01-6.313-1.181 583.97 583.97 0 00-2.3-.453c-.837-.167-1.68-.317-2.523-.468-1.375-.244-2.753-.49-4.117-.812-4.32-1.039-8.54-2.34-12.76-3.699-1.94-.601-3.88-1.2-5.78-1.88a182.349 182.349 0 01-10.752-4.223c-.004.485-.018.968-.018 1.453zm170 170c-45.409 0-88.1-17.684-120.208-49.792-24.866-24.867-41.055-56.086-47.102-89.994.905.299 1.813.588 2.722.878.683.217 1.365.435 2.047.656.879.28 1.75.58 2.62.88 1.487.512 2.974 1.023 4.5 1.439.354.106.716.192 1.077.277.249.059.498.117.743.183.64.178 1.293.313 1.944.448h.001v.001c.448.093.895.186 1.335.291 3.48.9 6.98 1.66 10.5 2.36.507.108 1.004.233 1.5.357h.001c.778.194 1.553.388 2.359.522.173.032.346.059.521.086h.001l.175.027.15.024.132.022c.769.138 1.55.223 2.334.308h.001c.583.063 1.166.127 1.745.212 4.46.7 8.94 1.3 13.46 1.721.25.01.495.045.74.079.245.035.49.07.74.08v.021c5.12.399 10.24.72 15.46.78.147 0 .295.009.445.02.155.01.312.021.475.021.768 0 1.536-.011 2.303-.021.537.557 1.065 1.114 1.605 1.67.127.132.252.263.38.394a861.748 861.748 0 006.012 6.117c.513.518 1.027 1.034 1.542 1.552a910.859 910.859 0 005.824 5.797l.375.372a883.075 883.075 0 007.853 7.632 920.696 920.696 0 006.114 5.829l.211.2.216.202a890.036 890.036 0 006.169 5.756c.574.531 1.147 1.062 1.722 1.59a916.637 916.637 0 006.355 5.804l.434.389a887.306 887.306 0 006.088 5.439c.551.488 1.103.977 1.654 1.463a909.346 909.346 0 006.441 5.629c.158.137.317.271.476.408a866.155 866.155 0 006.124 5.234l1.534 1.298a855.584 855.584 0 005.997 5.01c-42.06 6.825-85.787-1.487-122.938-24.502a171.274 171.274 0 0042.031 48.397c35.86 9.417 73.767 9.146 109.698-1.144.35.264.702.536 1.052.799l.214.159a708.35 708.35 0 006.566 4.861l.906.663a703.198 703.198 0 006.824 4.919l.124.088a676.976 676.976 0 006.667 4.676l.708.491a630.074 630.074 0 006.833 4.657l.104.069a585.447 585.447 0 006.653 4.399l.581.381a569.436 569.436 0 006.761 4.332l.047.03C273.084 407.589 256.729 410 240 410zM54.342 42.844zm251.127 300.624a274.428 274.428 0 005.607-4.032c1.407 3.306 2.541 6.668 3.681 10.051l.057.168c11.945 7.731 23.554 14.549 34.653 20.312.112-.095.227-.187.339-.281-.183-.867-.374-1.731-.565-2.598-.164-.74-.328-1.482-.487-2.228-.182-.852-.348-1.702-.515-2.553-.312-1.587-.622-3.172-1.025-4.747-.16-.6-.34-1.22-.52-1.82a21.834 21.834 0 00-.503-1.683v-.001c-.162-.493-.325-.988-.457-1.496-.98-3.479-2.08-6.899-3.22-10.3-.195-.576-.364-1.161-.534-1.747a35.735 35.735 0 00-.626-2.013c-.06-.16-.125-.315-.19-.471-.065-.154-.13-.31-.19-.47a34.149 34.149 0 00-.88-2.14c-.241-.551-.482-1.102-.7-1.66-1.64-4.22-3.34-8.38-5.26-12.521-.089-.195-.17-.396-.252-.598-.102-.251-.206-.507-.328-.762-2.18-4.601-4.44-9.2-7-13.7-.062-.115-.117-.234-.172-.353a4.672 4.672 0 00-.287-.548c-10.16-17.58-23.1-33.239-37.84-47.08-.141-.13-.271-.266-.399-.399a8.51 8.51 0 00-.38-.38c-.54-.51-1.113-.986-1.687-1.462v-.001c-.191-.159-.382-.317-.572-.478-4.7-4.24-9.5-8.319-14.58-12.12-.36-.266-.703-.559-1.045-.851h-.001c-.378-.323-.755-.646-1.154-.929-.854-.632-1.762-1.184-2.668-1.734a42.351 42.351 0 01-2.152-1.366c-1.096-.753-2.173-1.54-3.25-2.326v-.001h-.001v-.001c-1.811-1.322-3.622-2.646-5.528-3.812.08-3.521.24-7.021.52-10.521.081-.966.145-1.937.21-2.908.128-1.926.257-3.857.51-5.771.41-3.164 1.054-6.267 1.701-9.376v-.001c.175-.84.349-1.681.52-2.523 3.32-16.3 8.72-32.12 16.4-46.92.108-.191.194-.384.281-.576.058-.128.115-.256.179-.384 7.7 3.101 15.32 6.58 22.7 10.82 57.5 33.208 91.494 95.062 89.454 160.612a168.775 168.775 0 0020.947-60.397c-14.088-51.742-47.851-97.074-96.13-124.948-7.04-4.061-14.26-7.561-21.56-10.7 2.078-2.744 4.314-5.303 6.548-7.859.518-.593 1.036-1.186 1.552-1.78.59-.67 1.165-1.351 1.739-2.031.884-1.049 1.767-2.095 2.701-3.089 3.06-3.24 6.34-6.24 9.6-9.2l.619-.57c1.29-1.188 2.573-2.372 3.901-3.51a189.317 189.317 0 019.01-7.171 169.464 169.464 0 00-28.753-13.535c-.638.573-1.272 1.151-1.907 1.729l-.004.004c-.602.548-1.204 1.096-1.809 1.641-.706.645-1.424 1.271-2.143 1.899-1.154 1.008-2.308 2.016-3.417 3.101-.44.439-.88.899-1.3 1.34-.45.438-.875.909-1.299 1.38h-.001c-.33.365-.659.73-1 1.08-2.5 2.58-4.92 5.2-7.3 7.92-.388.442-.796.868-1.206 1.296-.499.521-1.001 1.044-1.474 1.604-.093.111-.186.232-.281.355-.109.141-.221.285-.338.424-.499.59-.96 1.219-1.422 1.849v.001c-.353.481-.706.964-1.078 1.431-2.84 3.521-5.6 7.08-8.2 10.78-.13.183-.265.354-.398.523-.173.221-.344.439-.502.677-2.9 4.2-5.74 8.479-8.38 12.939a6.835 6.835 0 01-.326.503l-.082.119-.132.198c-10.16 17.58-17.24 36.64-21.84 56.34-.04.17-.095.345-.15.52v.001c-.055.175-.11.35-.15.52a34.763 34.763 0 00-.364 1.906v.002c-.057.332-.114.663-.176.992-1.32 6.199-2.44 12.42-3.2 18.739-.055.419-.134.837-.213 1.257v.002c-.096.503-.191 1.01-.246 1.521-.112 1.052-.136 2.123-.16 3.191v.001c-.019.841-.038 1.68-.1 2.508-.106 1.357-.253 2.706-.399 4.055v.002c-.239 2.206-.479 4.409-.541 6.644a172.16 172.16 0 01-9.34 4.8c-.896.421-1.787.858-2.676 1.296h-.001c-1.728.85-3.454 1.698-5.223 2.424-2.873 1.198-5.817 2.173-8.769 3.149-.89.295-1.781.59-2.671.891a190.973 190.973 0 01-7.32 2.273 861.106 861.106 0 0022.984 22.518 172.04 172.04 0 008.854-3.517c.401-.168.815-.311 1.23-.452h.001c.475-.163.95-.325 1.409-.528.944-.423 1.853-.923 2.761-1.422v-.001h.001c.766-.421 1.531-.842 2.318-1.217a139.42 139.42 0 013.576-1.618h.001c2.077-.916 4.15-1.831 6.143-2.922 3.021 1.819 5.96 3.72 8.84 5.72.699.478 1.404.946 2.109 1.415v.001c1.717 1.142 3.434 2.282 5.049 3.544 2.333 1.782 4.518 3.722 6.701 5.658.831.737 1.661 1.475 2.499 2.202 12.46 11.06 23.48 23.64 32.46 37.7.09.149.185.289.28.43l.124.184.089.138.067.108c-5.366 4.197-10.943 8.212-16.868 11.895a616.067 616.067 0 0024.892 17.806z"/></svg>