<svg xmlns="http://www.w3.org/2000/svg" viewBox="0 0 480 480"><path d="M350 30c-55.229 0-100 44.77-100 100 0 55.22 44.771 100 100 100 55.221 0 100-44.78 100-100 0-55.23-44.78-100-100-100zm45.435 107.503a84.783 84.783 0 0019.584 47.189 85.72 85.72 0 01-10.655 10.603c-13.584-15.744-22.3-35.773-23.943-57.797h-22.92v77.174a85.766 85.766 0 01-15.001 0v-77.174h-22.92c-1.644 22.023-10.359 42.053-23.943 57.797a85.78 85.78 0 01-10.655-10.602 84.764 84.764 0 0019.59-47.19h-39.243a85.697 85.697 0 01-.001-15.001h39.243a84.76 84.76 0 00-19.592-47.192 85.606 85.606 0 0110.657-10.604c13.584 15.744 22.3 35.773 23.943 57.797h22.92V45.328A85.377 85.377 0 01350 45c2.527 0 5.029.11 7.501.328v77.174h22.92c1.644-22.023 10.359-42.053 23.942-57.797a85.767 85.767 0 0110.659 10.605 84.775 84.775 0 00-19.587 47.191h39.237c.217 2.471.327 4.972.327 7.498 0 2.528-.11 5.03-.328 7.503h-39.236zM383.288 367.51a7.941 7.941 0 01-3.288-6.455V320c0-21.854-18.611-37.016-38.161-42.246-25.271-6.761-51.123-11.44-75.904-19.963-24.61-8.463-49.388-20.058-61.428-44.462-9.617-19.492-15.09-76.271-16.859-103.302l-.021-.196c.157-4.013-1.672-7.887-5.53-8.997-13.456-3.871-25.818 6.273-25.818 19.166v2a8 8 0 01-8 8h-58.38c-20.53 0-37.727 15.543-39.796 35.968l-.102 151.434C49.903 340 65.129 350 82.722 350l5.343.207c-28.942 2.23-40.718 23.155-47.404 38.605-2.288 5.29 1.584 11.188 7.347 11.188H50c0 22.056 17.944 40 40 40s40-17.944 40-40h10c0 22.056 17.944 40 40 40s40-17.944 40-40h10c0 22.056 17.944 40 40 40s40-17.944 40-40h10c0 23.025 19.558 41.57 42.933 39.895 19.841-1.422 35.807-17.594 36.994-37.451.859-14.365-5.917-27.229-16.639-34.934zM90 420c-11.028 0-20-8.972-20-20h40c0 11.028-8.972 20-20 20zm90 0c-11.028 0-20-8.972-20-20h40c0 11.028-8.972 20-20 20zm90 0c-11.028 0-20-8.972-20-20h40c0 11.028-8.972 20-20 20zm-142-60a8 8 0 01-8-8v-4a8 8 0 018-8h214a8 8 0 018 8v4a8 8 0 01-8 8H128zm232 60c-11.028 0-20-8.972-20-20h40c0 11.028-8.972 20-20 20z"/></svg>