<svg xmlns="http://www.w3.org/2000/svg" viewBox="0 0 480 480"><path d="M187.66 108.936c18.902 13.235 42.276 8.983 55.513-9.919 13.235-18.902 9.08-42.47-9.822-55.706-18.902-13.235-42.475-9.082-55.71 9.82s-8.883 42.569 10.019 55.805zm284.255 157.653h-78.943a7.992 7.992 0 01-7.422-5.015c-4.818-11.995-14.788-34.087-30.459-56.292-31.713-44.937-71.511-68.689-115.091-68.689-.234 0-.467.015-.701.023l-169.293-.018c-11.29-.001-20.396 9.352-19.993 20.731.385 10.84 9.623 19.275 20.47 19.275l14.922.001 223.74 156.665a176.24 176.24 0 013.955-.052c35.893 0 56.981 11.257 73.927 20.302 11.401 6.086 20.835 11.116 35.389 12.713a7.965 7.965 0 00-3.188-4.714l-43.998-30.808a68.301 68.301 0 00-51.031-11.317L120.276 176.608l103.625.006a8 8 0 016.916 3.98l41.843 78.694 56.724 39.323a87.885 87.885 0 016.666-.253c18.215 0 35.729 5.522 50.65 15.971l18.202 12.745c26.176-13.157 51.655-29.127 72.183-46.241 5.791-4.826 2.375-14.244-5.17-14.244zm-32.15 119.994c-30.419 1.525-45.836-6.704-62.157-15.417-17.159-9.159-36.609-19.542-72.541-17.74-35.933 1.802-54.247 14.077-70.403 24.906-15.369 10.302-29.886 20.032-60.305 21.557-30.418 1.525-45.833-6.704-62.154-15.417-17.159-9.159-36.607-19.542-72.539-17.74-5.496.275-9.729 4.955-9.453 10.451.275 5.497 4.955 9.729 10.451 9.454 30.418-1.525 45.834 6.704 62.154 15.417 17.159 9.16 36.608 19.542 72.538 17.741 35.933-1.802 54.247-14.077 70.403-24.907 15.369-10.302 29.886-20.031 60.305-21.557 30.42-1.525 45.837 6.704 62.159 15.417 17.159 9.159 36.607 19.542 72.54 17.74 5.496-.275 9.729-4.955 9.453-10.451-.275-5.497-4.955-9.729-10.451-9.454zm-190.824-39.972c8.422-4.029 18.201-7.605 30.032-10.051l-99.949-69.984-170.939.013c-7.545 0-10.961 9.418-5.17 14.245C37.451 309.627 76.487 331.848 120 346.611h128.941z"/></svg>