<svg xmlns="http://www.w3.org/2000/svg" viewBox="0 0 480 480"><path d="M387.606 38.498a11.703 11.703 0 00-8.741-6.121c-104.929-14.186-210.832 25.947-272.516 114.04S43.175 347.753 92.393 441.502a11.707 11.707 0 008.742 6.121c104.928 14.186 210.832-25.947 272.516-114.04 61.683-88.093 63.174-201.336 13.955-295.085zm-62.403 175.707a14.983 14.983 0 01-12.3 6.398 14.93 14.93 0 01-8.591-2.715l-20.478-14.339-22.944 32.768 20.479 14.339c6.786 4.752 8.436 14.104 3.684 20.89-2.917 4.167-7.572 6.398-12.3 6.398-2.972 0-5.972-.88-8.591-2.714l-20.479-14.34-22.943 32.767 20.479 14.339c6.786 4.752 8.436 14.105 3.684 20.891-2.918 4.168-7.572 6.397-12.3 6.397-2.971 0-5.973-.879-8.591-2.713l-20.479-14.341-14.34 20.479c-2.918 4.167-7.572 6.397-12.3 6.397-2.971 0-5.971-.879-8.591-2.713-6.786-4.752-8.436-14.105-3.684-20.892l14.341-20.479-20.479-14.34c-6.786-4.752-8.435-14.104-3.683-20.891s14.106-8.435 20.89-3.683l20.479 14.339 22.942-32.766-20.478-14.34c-6.787-4.752-8.437-14.104-3.685-20.891 4.752-6.786 14.105-8.436 20.892-3.684l20.478 14.341 22.944-32.768-20.48-14.34c-6.786-4.751-8.436-14.104-3.684-20.89 4.752-6.787 14.104-8.436 20.891-3.684l20.48 14.34 14.339-20.48c4.752-6.787 14.104-8.434 20.891-3.684 6.786 4.753 8.437 14.104 3.685 20.891l-14.34 20.48 20.478 14.338c6.786 4.756 8.436 14.109 3.684 20.895z"/></svg>