<svg xmlns="http://www.w3.org/2000/svg" viewBox="0 0 480 480"><path d="M290.894 294.156c29.844-11.332 55.857-7.873 69.503-4.51 4.995 1.261 10.035-2.064 9.573-6.555-5.018-47.527-43.621-123.185-75.731-179.273-3.543-6.191-14.239-3.84-14.239 3.078v181.451c0 4.873 5.788 7.758 10.894 5.809zM85.259 277.477c74.712-12.421 147.791 9.804 168.757 17.027 2.973 1.032 5.984-1.146 5.984-4.223V26.236c0-3.421-3.809-5.771-6.84-4.052-94.414 53.509-160.245 211.913-172.934 249.79-1.049 3.152 1.71 6.038 5.033 5.503zM361.231 320H118.766c-5.009 0-8.813 4.556-7.87 9.475C115.324 352.559 135.625 370 160 370h50.262c4.322-2.436 8.487-5.227 13.045-8.281 17.408-11.668 39.072-26.189 80.537-28.269a181.34 181.34 0 019.034-.23c21.931 0 38.328 4.204 51.638 9.537a49.58 49.58 0 004.567-13.184c.963-4.956-2.802-9.573-7.852-9.573zm78.313 66.583c-30.419 1.524-45.836-6.705-62.157-15.418-17.159-9.159-36.609-19.541-72.541-17.74-35.933 1.802-54.247 14.077-70.403 24.907-15.369 10.302-29.886 20.032-60.305 21.557-30.418 1.525-45.833-6.704-62.154-15.417-17.159-9.16-36.607-19.542-72.539-17.74-5.496.275-9.729 4.955-9.453 10.451.275 5.496 4.955 9.729 10.451 9.454 30.418-1.525 45.834 6.704 62.154 15.417 17.159 9.159 36.608 19.542 72.538 17.74 35.933-1.802 54.247-14.077 70.403-24.906 15.369-10.302 29.886-20.032 60.305-21.558 30.42-1.524 45.837 6.705 62.159 15.418 17.159 9.159 36.607 19.541 72.54 17.74 5.496-.276 9.729-4.956 9.453-10.452-.276-5.496-4.955-9.728-10.451-9.453z"/></svg>