<svg xmlns="http://www.w3.org/2000/svg" width="1000pt" height="1000pt" viewBox="0 0 1000 1000"><path d="M606.027 612.824c62.176-23.61 116.371-16.402 144.801-9.394 10.406 2.625 20.906-4.301 19.942-13.657-10.454-99.015-90.875-256.636-157.774-373.484-7.379-12.898-29.664-8-29.664 6.41v378.024c0 10.152 12.059 16.164 22.695 12.101zm-428.406-34.746C333.273 552.2 485.52 598.504 529.2 613.551c6.196 2.148 12.469-2.387 12.469-8.797V54.66c0-7.129-7.938-12.023-14.25-8.445-196.695 111.48-333.844 441.488-360.281 520.398-2.184 6.567 3.562 12.578 10.484 11.465zm574.945 88.59H247.43c-10.438 0-18.36 9.492-16.395 19.738 9.223 48.09 51.516 84.426 102.297 84.426h104.715c9.004-5.074 17.68-10.887 27.176-17.25 36.265-24.309 81.398-54.562 167.785-58.894 6.36-.32 12.691-.481 18.82-.481 45.692 0 79.852 8.758 107.582 19.871a103.275 103.275 0 009.512-27.469c2.008-10.324-5.836-19.941-16.356-19.941zm163.149 138.715c-63.371 3.172-95.488-13.969-129.492-32.121-35.746-19.082-76.27-40.711-151.125-36.961-74.864 3.754-113.016 29.328-146.676 51.89-32.02 21.461-62.262 41.735-125.633 44.91-63.371 3.176-95.488-13.964-129.488-32.117-35.75-19.086-76.266-40.714-151.125-36.96-11.45.574-20.266 10.324-19.692 21.773.57 11.45 10.32 20.27 21.774 19.695 63.37-3.176 95.484 13.969 129.484 32.121 35.75 19.082 76.27 40.711 151.121 36.957 74.864-3.754 113.016-29.328 146.676-51.886 32.016-21.461 62.262-41.735 125.633-44.914 63.375-3.172 95.496 13.968 129.5 32.12 35.746 19.083 76.262 40.712 151.125 36.962 11.45-.579 20.27-10.329 19.691-21.778-.574-11.449-10.32-20.265-21.773-19.691zm0 0"/></svg>