<svg xmlns="http://www.w3.org/2000/svg" viewBox="0 0 480 480"><path d="M109.119 230.258a724 724 0 0141.929-50.567 597.096 597.096 0 00-35.084-23.918 149.9 149.9 0 00-25.289 70.044 599.478 599.478 0 0018.444 4.441zM239.703 85.369c-7.357 0-14.693.198-22.003.596a1911.785 1911.785 0 0122.496 17.389 1965.089 1965.089 0 0122.46-17.337 406.612 406.612 0 00-22.953-.648zm149.622 140.448a149.94 149.94 0 00-25.151-69.843 597.453 597.453 0 00-34.907 23.773 723.71 723.71 0 0141.8 50.469 585.448 585.448 0 0018.258-4.399zm-71.182 142.185a624.711 624.711 0 00-4.106-7.177 731.424 731.424 0 01-74.036 3.764 731.296 731.296 0 01-73.877-3.748 590.64 590.64 0 00-4.144 7.234C185.422 382.466 212.086 390 240.001 390c27.965 0 54.672-7.56 78.142-21.998zm-78.142-73.412c17.703 0 35.296-.715 52.763-2.114a641.552 641.552 0 0056.415-7.023 638.289 638.289 0 0031.932-6.252 641.661 641.661 0 0025.68-6.277 640.317 640.317 0 0031.822-9.354A202.637 202.637 0 00440 240c0-2.83-.073-5.642-.189-8.442-1.835-44.176-17.996-84.645-43.963-116.893a201.243 201.243 0 00-21.293-22.636 643.379 643.379 0 00-27.686 15.868 643.519 643.519 0 00-68.747 48.077 710.107 710.107 0 00-14.849-13.721 663.524 663.524 0 0165.863-46.95 662.354 662.354 0 0128.684-16.915 199.81 199.81 0 00-29.31-17.771C301.826 47.426 271.783 40 240 40c-31.677 0-61.626 7.376-88.244 20.486a199.772 199.772 0 00-29.353 17.74 662.335 662.335 0 0128.69 16.934 663.744 663.744 0 0165.97 47.08 670.8 670.8 0 0123.101 19.581 675.336 675.336 0 0114.839 13.589 681.918 681.918 0 0114.541 14.099 699.989 699.989 0 016.894 7.005 672.124 672.124 0 0153.077 61.662 620.469 620.469 0 01-23.052 2.894 653.303 653.303 0 00-44.88-51.146 652.107 652.107 0 00-6.182-6.271 661.746 661.746 0 00-15.248-14.754 659.447 659.447 0 00-14.839-13.498 648.708 648.708 0 00-23.104-19.448 643.446 643.446 0 00-68.874-48.219 642.637 642.637 0 00-27.691-15.883 201.155 201.155 0 00-21.328 22.612C58.254 146.744 42.029 187.29 40.19 231.558c-.116 2.8-.19 5.612-.19 8.442 0 7.976.481 15.838 1.39 23.569a640.632 640.632 0 0031.822 9.354 640.798 640.798 0 0025.843 6.313 691.372 691.372 0 00-11.367 17.924 654.84 654.84 0 01-8.514-2.056 660.305 660.305 0 01-33.911-9.361c2.8 11.964 6.68 23.51 11.521 34.541a199.44 199.44 0 008.268 16.678A200.263 200.263 0 0084.2 365.39a667.241 667.241 0 0115.539-29.45c.909-1.625 1.811-3.256 2.733-4.874a662.046 662.046 0 0116.518-27.391A660.259 660.259 0 01131 285.483a664.197 664.197 0 0119.684-27.28 672.332 672.332 0 0153.182-61.713 627.375 627.375 0 0114.844 13.419 653.518 653.518 0 00-44.959 51.183 644.743 644.743 0 00-33.266 46.162 645.886 645.886 0 00-27.345 45.776 647.18 647.18 0 00-14.525 28.425 201.076 201.076 0 0023.641 20.21C155.287 425.766 195.978 440 240 440c44.066 0 84.795-14.263 117.846-38.407a201.12 201.12 0 0023.634-20.23 645.472 645.472 0 00-24.683-46.484 692.88 692.88 0 0020.879-3.839c.903 1.584 1.785 3.183 2.675 4.775a665.205 665.205 0 0115.539 29.468 200.419 200.419 0 0019.138-28.459 198.79 198.79 0 008.19-16.538 198.416 198.416 0 0011.521-34.541 658.798 658.798 0 01-33.91 9.361 664.485 664.485 0 01-8.36 2.02 658.072 658.072 0 01-31.293 6.521 656.74 656.74 0 01-21.486 3.583 666.74 666.74 0 01-33.373 4.126 678.99 678.99 0 01-66.314 3.233 678.707 678.707 0 01-66.131-3.217 615.027 615.027 0 0113.571-18.88 660.257 660.257 0 0052.558 2.098zm.175-172.216a694.123 694.123 0 00-57.383-42.46C200.679 73.504 219.937 70 240.001 70c20.169 0 39.525 3.539 57.491 10.015a694.212 694.212 0 00-57.316 42.359zm59.375 54.891a613.55 613.55 0 0169.562-47.726c25.475 29.733 40.888 68.329 40.888 110.461 0 .309-.011.615-.012.924a609.025 609.025 0 01-47.347 11.533c-19.145-26.387-40.201-51.482-63.091-75.192zM117.54 252.492a609.636 609.636 0 01-47.527-11.568c-.002-.309-.012-.615-.012-.924 0-42.222 15.477-80.894 41.049-110.652a613.668 613.668 0 0169.715 47.879c-22.94 23.73-44.042 48.849-63.225 75.265zm122.598-21.59a625.544 625.544 0 0129.899 32.971 632.65 632.65 0 01-30.037.717c-9.974 0-19.91-.24-29.807-.707a627.142 627.142 0 0129.945-32.981zm-.137 113.687c28.487 0 56.716-1.7 84.619-5.063 6.923 11.318 13.459 22.879 19.648 34.648C315.458 396.613 279.264 410 240.001 410c-39.216 0-75.367-13.354-104.161-35.744 6.207-11.791 12.763-23.373 19.706-34.711a706.79 706.79 0 0084.455 5.044z"/></svg>