<svg xmlns="http://www.w3.org/2000/svg" width="1000pt" height="1000pt" viewBox="0 0 1000 1000"><path d="M433.418 631.41c-18.852-13.203-44.832-8.617-58.027 10.23l-55.016 78.567-117.86-45.531c-21.468-8.293-45.59 2.386-53.882 23.847-8.293 21.47 2.387 45.594 23.851 53.887l148.293 57.29a41.574 41.574 0 0015.004 2.804c13.293 0 26.168-6.379 34.145-17.77l73.726-105.293c13.2-18.855 8.618-44.836-10.234-58.03zm355.035-361.836L686.06 197.875l-.086-.055a42.864 42.864 0 00-3.028-1.898 45.86 45.86 0 00-2.496-1.305c-.535-.258-1.062-.55-1.601-.789-.836-.367-1.696-.668-2.555-.976-.414-.153-.828-.332-1.242-.47-.781-.253-1.582-.448-2.38-.655-.523-.137-1.038-.301-1.566-.418-.671-.145-1.355-.239-2.035-.352-.672-.113-1.34-.25-2.011-.328-.543-.066-1.098-.078-1.649-.125-.808-.059-1.617-.14-2.426-.156-.46-.012-.918.027-1.379.035-.894.012-1.789.012-2.68.082-.714.055-1.429.176-2.136.27a39.58 39.58 0 00-2.363.35 41.192 41.192 0 00-3.551.817l-.102.024-253.253 71.91a41.492 41.492 0 00-11.688 5.39l61.988 66.954 112.922-32.063-29.07 41.48-75.16-.027-42.598-.02-.242-.257-45.645-49.3-18.062-19.509c-3.906-4.449-7.676-8.793-11.309-13.004a2432.04 2432.04 0 01-7.07-8.257 1897.366 1897.366 0 01-12.934-15.368c-2.015-2.421-3.96-4.773-5.832-7.046-19.652-23.86-31.144-39.106-31.355-39.38l-.332-.437c-28.32-35.695-14.297-64.11 22.047-116.133 3.472-4.972 4.613-11.293 3.113-17.168-2.664-10.437-9.441-14.148-37.715-28.191a20.3 20.3 0 00-2.043-.871c-.2-.074-.398-.137-.598-.207a24.515 24.515 0 00-1.558-.461c-.203-.047-.406-.102-.613-.145a19.668 19.668 0 00-1.965-.34l-.153-.027a19.787 19.787 0 00-2.144-.12l-.547.007c-.559.012-1.11.043-1.664.098-.203.02-.402.039-.602.062-.656.086-1.316.195-1.964.34l-.153.031c-.699.16-1.387.371-2.066.606l-.535.203c-.512.191-1.012.402-1.512.637l-.555.265c-.617.313-1.222.649-1.804 1.02l-.079.043c-.609.394-1.191.824-1.761 1.285l-.473.402c-.418.356-.824.73-1.215 1.125l-.453.461c-.508.54-1 1.106-1.457 1.711-26.68 35.453-76.336 101.434-15.355 167.629l91.437 98.84c8.414 9.574 3.711 4.558 11.574 13.105.528.57 1.106 1.2 1.75 1.899a20.607 20.607 0 003.864 3.293l29.48 31.898c-8.8 6.82-14.816 17.063-15.976 28.754a41.662 41.662 0 00-.211 4.148c-.012 23.012 18.636 41.676 41.648 41.684h.918l42.566.016 40.954 44.316a20.75 20.75 0 0012.464 6.492c.856.117 1.715.164 2.578.172.485.012.973-.008 1.457-.035.188-.012.375-.008.567-.027a19.719 19.719 0 002.074-.278l.426-.101a20.755 20.755 0 001.617-.395c.242-.074.48-.16.723-.242.433-.145.863-.3 1.289-.473.258-.105.508-.218.762-.336a19.28 19.28 0 001.207-.601c.242-.13.484-.262.726-.403.418-.246.824-.52 1.23-.8.2-.137.403-.266.602-.41.586-.442 1.164-.91 1.719-1.418a20.768 20.768 0 006.668-14.485 20.795 20.795 0 00-5.527-14.957l-14.81-15.996 33.06.012 8.925.004a51.77 51.77 0 019.266 24.332c1.625 14.687-2.988 29.883-13.656 41.308l68.566 48.032a41.665 41.665 0 0031.14 6.906 41.665 41.665 0 0026.9-17.137l143.394-204.77a41.673 41.673 0 006.902-31.136 41.653 41.653 0 00-17.129-26.89zm86.32-188.422C847.2 41.773 798.09 33.122 758.711 60.695c-39.379 27.575-48.04 76.676-20.465 116.055 27.578 39.379 76.274 48.238 115.652 20.664 39.38-27.578 48.45-76.883 20.875-116.262zM655.348 634.234l-152.243-106.87c-18.835-13.227-44.82-8.669-58.039 10.16-13.226 18.835-8.671 44.824 10.16 58.042l128.114 89.938-60.969 217.965c-6.2 22.164 6.742 45.152 28.902 51.351a41.82 41.82 0 0011.247 1.547c18.222 0 34.957-12.043 40.105-30.449l68.91-246.36a41.663 41.663 0 00-16.187-45.324zm0 0"/></svg>