<svg xmlns="http://www.w3.org/2000/svg" viewBox="0 0 480 480"><path d="M208.041 303.076c-9.049-6.336-21.519-4.136-27.854 4.911L153.78 345.7l-56.572-21.856c-10.306-3.98-21.883 1.146-25.864 11.448-3.98 10.304 1.146 21.884 11.448 25.864l71.181 27.5a19.96 19.96 0 007.202 1.346c6.381 0 12.56-3.062 16.389-8.53l35.389-50.541c6.335-9.049 4.136-21.52-4.912-27.855zm170.416-173.681L329.308 94.98l-.042-.026c-.475-.33-.961-.628-1.453-.912a20.617 20.617 0 00-1.198-.625c-.256-.125-.509-.266-.769-.38-.4-.175-.813-.32-1.226-.469-.199-.072-.396-.159-.596-.224-.375-.123-.759-.215-1.141-.315-.251-.065-.5-.145-.753-.2-.321-.071-.65-.115-.977-.17-.321-.054-.642-.12-.964-.158-.262-.031-.528-.037-.792-.059-.389-.029-.776-.068-1.165-.076-.22-.004-.441.014-.661.018-.43.006-.859.006-1.287.039-.342.027-.685.085-1.026.13-.379.049-.758.097-1.133.168-.568.108-1.138.232-1.705.393l-.048.011-121.562 34.516a19.961 19.961 0 00-5.611 2.588l29.754 32.138 54.204-15.391-13.955 19.911-36.076-.014-20.448-.008-.115-.124-21.909-23.664-8.67-9.365a920.18 920.18 0 01-8.822-10.205 902.95 902.95 0 01-9.009-10.758c-9.433-11.453-14.948-18.771-15.049-18.903l-.16-.209c-13.594-17.134-6.862-30.773 10.583-55.744a10.093 10.093 0 001.493-8.241c-1.279-5.01-4.531-6.792-18.102-13.532-.322-.16-.65-.296-.981-.419-.096-.035-.191-.065-.287-.098a10.636 10.636 0 00-.748-.221c-.098-.024-.195-.05-.294-.071a9.781 9.781 0 00-.943-.163l-.073-.012a9.91 9.91 0 00-1.03-.059l-.263.005c-.268.005-.533.02-.798.046-.097.01-.193.019-.289.03-.316.041-.632.094-.943.164l-.073.014a9.794 9.794 0 00-.992.291l-.257.097a10.41 10.41 0 00-.725.306l-.267.128c-.296.149-.586.31-.866.489l-.038.021a9.799 9.799 0 00-.845.617l-.227.192a9.578 9.578 0 00-.583.54l-.217.221c-.245.26-.481.531-.7.822-12.806 17.017-36.642 48.688-7.371 80.462l43.891 47.443c4.038 4.596 1.78 2.188 5.555 6.291l.839.911a9.97 9.97 0 001.855 1.58l14.151 15.312c-4.225 3.274-7.112 8.189-7.669 13.802a20.15 20.15 0 00-.102 1.991c-.004 11.046 8.946 20.004 19.992 20.008h.44l20.432.008 19.658 21.271a9.954 9.954 0 005.983 3.116c.411.057.824.079 1.238.084a9.06 9.06 0 00.699-.018c.09-.005.18-.004.271-.012.333-.028.666-.072.997-.134l.204-.048c.261-.055.521-.116.777-.191.116-.035.23-.076.346-.115.208-.069.415-.144.619-.227a10.703 10.703 0 00.945-.45c.116-.063.233-.126.349-.194.2-.118.396-.248.59-.383h.001c.095-.066.193-.128.287-.198a9.967 9.967 0 004.026-7.633 9.975 9.975 0 00-2.653-7.179l-7.108-7.678 15.869.006 4.284.001a24.861 24.861 0 014.447 11.68c.78 7.05-1.434 14.344-6.554 19.828l32.912 23.055a20.003 20.003 0 0027.858-4.91l68.829-98.291a19.997 19.997 0 00-4.909-27.853zm41.434-90.442c-13.235-18.902-36.808-23.055-55.71-9.819s-23.058 36.804-9.822 55.706 36.61 23.154 55.513 9.919c18.901-13.237 23.254-36.904 10.019-55.806zm-105.324 265.48l-73.076-51.299c-9.042-6.348-21.515-4.161-27.86 4.878-6.347 9.041-4.162 21.514 4.878 27.86l61.495 43.169-29.265 104.624c-2.976 10.638 3.236 21.673 13.873 24.648 1.802.504 3.615.744 5.398.744 8.746 0 16.778-5.781 19.25-14.617l33.076-118.251a19.996 19.996 0 00-7.769-21.756z"/></svg>