<svg xmlns="http://www.w3.org/2000/svg" viewBox="0 0 480 480"><path d="M429.802 176.81a90.42 90.42 0 01-25.015 21.272A170.347 170.347 0 01410 240c0 16.713-2.424 32.858-6.92 48.115-.246.834-.501 1.666-.759 2.495-.1.317-.195.634-.296.95-.262.823-.533 1.643-.808 2.461-.104.312-.206.625-.312.937-.312.917-.635 1.829-.963 2.739-.065.181-.128.363-.194.544a167.895 167.895 0 01-3.935 9.821c-.103.236-.21.47-.314.705a162.56 162.56 0 01-1.102 2.443c-.146.317-.298.633-.446.949-.34.724-.683 1.445-1.032 2.164-.173.355-.349.708-.524 1.062-.336.678-.675 1.354-1.02 2.026-.188.369-.38.736-.571 1.103a158.973 158.973 0 01-2.712 4.993c-.206.365-.411.729-.62 1.093-.372.647-.751 1.29-1.131 1.933-.205.346-.407.691-.614 1.035-.407.676-.822 1.348-1.238 2.018-.188.301-.371.604-.561.904-.492.782-.993 1.559-1.498 2.331-.118.182-.233.365-.353.546a173.272 173.272 0 01-3.91 5.684c-.186.258-.375.512-.562.77-.481.663-.965 1.325-1.456 1.98-.24.32-.484.637-.726.955-.447.588-.896 1.175-1.35 1.757-.267.342-.537.681-.806 1.021-.438.553-.879 1.104-1.324 1.652-.283.348-.568.692-.854 1.038a182.478 182.478 0 01-2.214 2.625c-.455.529-.914 1.056-1.376 1.579-.292.33-.583.66-.878.988-.479.535-.963 1.064-1.448 1.594-.284.309-.567.619-.854.926-.517.554-1.039 1.103-1.563 1.649-.262.272-.521.548-.783.818-.602.62-1.211 1.232-1.821 1.843-.19.19-.378.384-.57.574a171.118 171.118 0 01-5.017 4.769c-.113.104-.229.205-.342.308-.729.662-1.463 1.319-2.204 1.969-.226.198-.454.393-.682.59-.636.552-1.274 1.102-1.919 1.644-.266.224-.533.443-.799.665-.615.511-1.232 1.02-1.854 1.522-.283.229-.568.455-.853.683a165.544 165.544 0 01-7.485 5.641C310.652 398.372 276.686 410 240 410c-90.383 0-164.278-70.537-169.672-159.564-.209-3.454-.328-6.93-.328-10.436 0-93.889 76.112-170 170-170 14.467 0 28.509 1.812 41.918 5.213a90.452 90.452 0 0121.272-25.015C283.327 43.588 262.084 40 240 40 129.543 40 40 129.543 40 240c0 12.742 1.206 25.201 3.483 37.28C60.951 369.919 142.285 440 240 440c82.53 0 153.378-49.993 183.931-121.344C434.268 294.513 440 267.927 440 240c0-22.084-3.588-43.327-10.198-63.19zM319.81 215.354l-44.3 28.458a7.72 7.72 0 01-10.916 0l-71.903-87.745a7.718 7.718 0 00-10.916 0l-81.749 81.748c-.011.728-.026 1.456-.026 2.185 0 37.396 14.562 72.553 41.005 98.995C167.448 365.438 202.604 380 240 380s72.553-14.562 98.995-41.005c20.991-20.991 34.485-47.476 39.162-76.21l-47.431-47.431a7.72 7.72 0 00-10.916 0zM360 190c38.66 0 70-31.34 70-70s-31.34-70-70-70-70 31.34-70 70 31.34 70 70 70zm-39.725-81.34c-4.783-2.762-6.422-8.877-3.66-13.66 2.761-4.783 8.876-6.422 13.66-3.66l19.641 11.34V80c0-5.522 4.478-10 10-10s10 4.478 10 10v22.68l19.642-11.34c4.783-2.762 10.899-1.121 13.66 3.66 2.762 4.783 1.123 10.898-3.66 13.66L379.917 120l19.641 11.34c4.783 2.762 6.422 8.877 3.66 13.66a9.997 9.997 0 01-13.66 3.66l-19.642-11.34V160c0 5.522-4.478 10-10 10s-10-4.478-10-10v-22.68l-19.641 11.34a9.997 9.997 0 01-13.66-3.66c-2.762-4.783-1.123-10.898 3.66-13.66L339.917 120l-19.642-11.34z"/></svg>