<svg xmlns="http://www.w3.org/2000/svg" width="1000pt" height="1000pt" viewBox="0 0 1000 1000"><path d="M895.422 368.355c-14.477 17.762-32.133 32.832-52.117 44.317 7.086 27.933 10.863 57.187 10.863 87.328 0 34.82-5.05 68.453-14.418 100.238a332.938 332.938 0 01-1.582 5.2c-.207.66-.406 1.32-.617 1.98a290.903 290.903 0 01-1.684 5.125c-.215.652-.426 1.305-.648 1.953a329.29 329.29 0 01-2.008 5.707c-.133.375-.266.754-.402 1.133a348.396 348.396 0 01-8.2 20.46c-.214.493-.437.977-.652 1.47-.754 1.699-1.516 3.402-2.297 5.09-.305.66-.62 1.316-.93 1.976a395.943 395.943 0 01-2.148 4.508c-.36.738-.727 1.476-1.094 2.21-.699 1.415-1.406 2.821-2.125 4.223-.39.77-.789 1.532-1.187 2.297a367.95 367.95 0 01-3.418 6.395 440.237 440.237 0 01-2.235 4.008c-.425.761-.855 1.52-1.289 2.277a516.077 516.077 0 01-2.355 4.027c-.43.72-.852 1.438-1.281 2.157a355.819 355.819 0 01-2.578 4.203c-.391.629-.774 1.258-1.168 1.883a367.234 367.234 0 01-3.122 4.859c-.246.379-.488.758-.738 1.137a356.833 356.833 0 01-8.144 11.84c-.387.539-.782 1.066-1.172 1.605a310.42 310.42 0 01-3.031 4.125c-.5.668-1.008 1.328-1.512 1.988a377.512 377.512 0 01-2.813 3.66c-.558.715-1.12 1.418-1.68 2.13a393.56 393.56 0 01-2.757 3.44c-.59.723-1.184 1.442-1.781 2.16a322.316 322.316 0 01-4.614 5.47 254.287 254.287 0 01-2.867 3.293c-.605.687-1.21 1.375-1.828 2.058a398.737 398.737 0 01-3.016 3.32c-.593.641-1.18 1.29-1.78 1.93a337.7 337.7 0 01-3.255 3.434c-.547.566-1.086 1.14-1.633 1.703a390.883 390.883 0 01-3.793 3.84c-.394.398-.789.8-1.187 1.195a353.598 353.598 0 01-10.453 9.938c-.235.214-.477.425-.711.64a327.455 327.455 0 01-4.594 4.102c-.469.414-.945.82-1.418 1.23a335.734 335.734 0 01-4 3.426c-.555.465-1.11.922-1.664 1.383a333.004 333.004 0 01-3.863 3.172c-.59.476-1.184.949-1.778 1.422a367.713 367.713 0 01-3.863 3.046c-.601.461-1.203.926-1.808 1.387a363.91 363.91 0 01-3.97 2.996c-.585.434-1.171.871-1.757 1.297-1.39 1.02-2.79 2.027-4.195 3.027C647.19 829.941 576.43 854.168 500 854.168c-188.297 0-342.246-146.953-353.484-332.426-.434-7.195-.684-14.437-.684-21.742 0-195.602 158.566-354.168 354.168-354.168 30.14 0 59.395 3.777 87.328 10.863 11.488-19.984 26.555-37.64 44.317-52.117-41.38-13.77-85.637-21.246-131.645-21.246-230.117 0-416.668 186.55-416.668 416.668 0 26.547 2.516 52.504 7.258 77.668 36.39 192.996 205.836 339 409.41 339 171.938 0 319.54-104.152 383.191-252.8C904.727 613.57 916.668 558.18 916.668 500c0-46.008-7.477-90.266-21.246-131.645zM666.27 448.652l-92.29 59.29c-6.28 6.28-16.46 6.28-22.742 0L401.441 325.14c-6.28-6.282-16.46-6.282-22.742 0L208.387 495.449c-.024 1.516-.055 3.031-.055 4.551 0 77.91 30.34 151.152 85.43 206.238 55.09 55.09 128.328 85.43 206.238 85.43s151.152-30.34 206.238-85.43c43.735-43.73 71.844-98.906 81.59-158.77l-98.816-98.816c-6.278-6.277-16.461-6.277-22.742 0zm83.73-52.82c80.543 0 145.832-65.289 145.832-145.832 0-80.543-65.289-145.832-145.832-145.832-80.543 0-145.832 65.289-145.832 145.832 0 80.543 65.289 145.832 145.832 145.832zm-82.762-169.457c-9.965-5.754-13.379-18.492-7.625-28.457s18.492-13.379 28.461-7.625l40.918 23.625v-47.25c0-11.504 9.328-20.836 20.832-20.836 11.504 0 20.836 9.332 20.836 20.836v47.25l40.918-23.625c9.965-5.754 22.707-2.336 28.461 7.625 5.754 9.965 2.34 22.703-7.625 28.457L791.492 250l40.922 23.625c9.965 5.754 13.379 18.492 7.625 28.457-3.86 6.684-10.863 10.422-18.062 10.422a20.74 20.74 0 01-10.399-2.797l-40.918-23.625v47.25c0 11.504-9.332 20.836-20.836 20.836-11.504 0-20.832-9.332-20.832-20.836v-47.25l-40.918 23.625a20.74 20.74 0 01-10.398 2.797c-7.2 0-14.2-3.738-18.063-10.422-5.754-9.965-2.34-22.703 7.625-28.457L708.16 250zm0 0"/></svg>