<svg xmlns="http://www.w3.org/2000/svg" width="1000pt" height="1000pt" viewBox="0 0 1000 1000"><path d="M126.41 589.79l14.965 55.339L270.617 542.48v163.696c0 23.008 18.653 41.664 41.668 41.664l125 .012a41.668 41.668 0 0041.668-41.668v-125.18l50.235 66.867a41.664 41.664 0 0033.312 16.637h105.07l-27.66-62.176a51.8 51.8 0 01-4.476-21.156h-52.121L470.597 431.145c-.293-.387-.602-.758-.907-1.137l-.394-.492a40.631 40.631 0 00-2.34-2.575l-.492-.484a41.067 41.067 0 00-2.625-2.387l-.227-.18a41.044 41.044 0 00-2.64-1.972c-.211-.148-.418-.3-.633-.441a39.627 39.627 0 00-3.707-2.184c-.953-.5-1.922-.977-2.914-1.402-.274-.121-.555-.22-.832-.332-.84-.34-1.696-.649-2.563-.938-.316-.105-.633-.219-.957-.316a44.794 44.794 0 00-4.156-1.02 42.523 42.523 0 00-3.414-.52c-.227-.027-.457-.042-.684-.062a42.715 42.715 0 00-3.828-.191h-125c-1.312 0-2.61.074-3.89.195-.493.047-.98.125-1.47.188-.777.097-1.542.21-2.304.351-.586.11-1.168.238-1.75.375a39.24 39.24 0 00-1.914.492c-.61.172-1.223.348-1.82.551-.598.2-1.18.418-1.762.645-.594.226-1.191.449-1.773.703-.622.273-1.223.578-1.829.879-.511.254-1.03.488-1.53.761a40.877 40.877 0 00-3.098 1.883c-.375.25-.727.535-1.094.797-.563.402-1.133.79-1.68 1.219L109.844 563.76c7.824 6.653 13.742 15.602 16.566 26.028zm610.774 254.792c-9.43-6.59-22.418-4.285-29.008 5.148l-45.39 64.961-412.688.063c-11.508 0-20.832 9.328-20.832 20.836.004 11.504 9.332 20.832 20.84 20.828l423.542-.063c6.805 0 13.18-3.328 17.075-8.902l51.605-73.855c6.59-9.434 4.29-22.426-5.144-29.016zM322.87 349.305c39.379 27.574 88.074 18.715 115.649-20.664 27.578-39.38 18.921-88.477-20.461-116.055-39.38-27.57-88.489-18.918-116.063 20.46-27.574 39.38-18.508 88.688 20.875 116.259zM118.285 679.449l-22.043-81.504a21.203 21.203 0 00-.613-1.883c-.074-.195-.156-.378-.234-.57a20.167 20.167 0 00-.543-1.226c-.102-.211-.211-.414-.317-.621-.2-.372-.402-.735-.617-1.09a20.826 20.826 0 00-1.117-1.648l-.36-.477a20.284 20.284 0 00-1.164-1.348l-.062-.066c-.43-.457-.883-.883-1.352-1.29l-.437-.363a21.642 21.642 0 00-1.016-.797c-.187-.136-.379-.265-.566-.394-.328-.223-.66-.438-1-.64a31.056 31.056 0 00-.61-.356 21.816 21.816 0 00-1.086-.555c-.195-.094-.386-.195-.582-.281l-.414-.176-.011.008a18.54 18.54 0 00-1.004-.402l-.301-.114c-.578-.199-1.168-.367-1.766-.511-.199-.047-.398-.082-.597-.125-.414-.09-.828-.168-1.246-.23-.239-.036-.48-.063-.723-.09a16.84 16.84 0 00-1.176-.102 15.712 15.712 0 00-.742-.032c-.29-.007-.578.004-.871.008-.602.016-1.203.055-1.809.121-.242.028-.488.047-.734.082-.824.121-1.652.278-2.477.5-11.11 3-17.675 14.446-14.672 25.551l2.551 9.426 20.024 74.043 67.234 248.629c2.492 9.21 10.79 15.3 19.883 15.394.652.008 1.308-.054 1.965-.113.304-.027.61-.023.91-.062.93-.122 1.863-.301 2.793-.555 11.105-3 17.672-14.442 14.668-25.547zM934.63 914.754h-75.93L737.02 641.23l-26.003-58.453-4.477-10.066a20.968 20.968 0 00-1.324-2.465c-.121-.2-.246-.394-.38-.586a21.384 21.384 0 00-1.515-2.039l-.12-.144a19.504 19.504 0 00-1.891-1.88l-.504-.433a21.215 21.215 0 00-1.895-1.406l-.262-.18a20.649 20.649 0 00-2.886-1.508c-.692-.3-1.399-.562-2.121-.785l-.395-.133a20.75 20.75 0 00-2.543-.55c-.21-.036-.418-.055-.629-.082a20.179 20.179 0 00-2.226-.16l-.535-.02c-.399.008-.805.039-1.208.062-.293.02-.582.028-.875.059-.414.047-.832.125-1.246.2-.28.046-.562.077-.84.136-.445.098-.886.226-1.332.355-.246.07-.492.125-.738.203-.683.223-1.367.48-2.039.782-7.762 3.449-12.355 11.062-12.36 19.035a20.734 20.734 0 001.786 8.465l33.262 74.765L826.12 944.047a20.844 20.844 0 0019.04 12.371h89.464c11.504 0 20.832-9.332 20.832-20.836 0-11.504-9.324-20.828-20.828-20.828zM312.285 789.508c-23.015 0-41.668 18.656-41.668 41.668 0 23.011 18.653 41.664 41.668 41.664H603.95c23.012 0 41.668-18.653 41.668-41.664 0-23.012-18.656-41.668-41.668-41.668zm0 0"/></svg>