<svg xmlns="http://www.w3.org/2000/svg" viewBox="0 0 480 480"><path d="M60.676 283.098l7.184 26.564 62.037-49.272v78.574c0 11.045 8.953 19.999 19.999 20l60 .004h.001a20.001 20.001 0 0020-20v-60.087l24.113 32.097a20 20 0 0015.99 7.986h50.433l-13.276-29.845a24.846 24.846 0 01-2.148-10.155H279.99l-54.103-72.014c-.141-.187-.289-.364-.436-.546l-.189-.236c-.356-.429-.732-.84-1.123-1.236l-.236-.233a20.428 20.428 0 00-1.26-1.146l-.108-.085a19.998 19.998 0 00-1.268-.948c-.102-.07-.201-.143-.304-.211a20.057 20.057 0 00-1.78-1.049 20.18 20.18 0 00-1.398-.673c-.132-.057-.267-.105-.399-.158a19.84 19.84 0 00-1.231-.451c-.152-.051-.304-.104-.458-.151a20.292 20.292 0 00-1.996-.49 20.008 20.008 0 00-1.638-.25c-.109-.012-.22-.02-.329-.029a20.28 20.28 0 00-1.837-.093h-60c-.631 0-1.253.037-1.868.095-.236.021-.471.059-.705.09-.372.047-.741.1-1.105.168-.282.053-.562.115-.841.18-.31.071-.615.15-.919.236-.293.082-.586.168-.874.265-.286.095-.565.201-.845.309-.285.109-.571.216-.852.337-.298.131-.586.278-.876.423-.246.122-.496.233-.736.366a19.65 19.65 0 00-1.486.902c-.18.12-.35.257-.526.383-.27.193-.544.379-.805.586l-84.734 67.3c3.755 3.193 6.597 7.489 7.951 12.493zM353.849 405.4c-4.528-3.164-10.762-2.057-13.925 2.47l-21.787 31.181-198.091.03c-5.522.001-9.999 4.479-9.998 10.002.001 5.522 4.479 9.999 10.002 9.998l203.302-.031a9.998 9.998 0 008.195-4.272l24.771-35.452c3.163-4.528 2.058-10.763-2.469-13.926zM154.978 167.667c18.902 13.235 42.276 8.983 55.512-9.919s9.081-42.47-9.821-55.706c-18.902-13.235-42.476-9.082-55.711 9.82s-8.883 42.57 10.02 55.805zM56.776 326.136l-10.58-39.122c-.084-.31-.184-.609-.294-.904-.035-.093-.076-.182-.113-.273a9.14 9.14 0 00-.709-1.41c-.058-.095-.115-.189-.176-.281a9.58 9.58 0 00-.36-.511l-.172-.229a9.345 9.345 0 00-.559-.646l-.029-.033a9.701 9.701 0 00-.649-.619l-.211-.174c-.16-.132-.321-.261-.488-.383-.089-.064-.181-.126-.271-.188a10.027 10.027 0 00-.772-.479 10.205 10.205 0 00-.521-.266c-.094-.045-.186-.093-.28-.135l-.199-.085-.005.004a9.51 9.51 0 00-.483-.192l-.143-.055a9.827 9.827 0 00-.849-.246c-.095-.022-.191-.039-.287-.06a9.812 9.812 0 00-.597-.111 10.67 10.67 0 00-1.268-.107c-.139-.003-.277.002-.417.005-.289.007-.578.026-.869.058-.117.013-.234.023-.352.04a10.23 10.23 0 00-1.19.239c-5.331 1.441-8.483 6.933-7.041 12.265l1.224 4.524 9.611 35.541L70 451.644c1.196 4.422 5.178 7.345 9.544 7.39.312.004.628-.027.942-.055.146-.012.292-.01.438-.029.446-.058.894-.145 1.34-.266 5.33-1.441 8.483-6.933 7.041-12.264L56.776 326.136zm391.845 112.945h-36.445l-58.406-131.29-12.482-28.057-2.149-4.833a9.968 9.968 0 00-.817-1.465 10 10 0 00-.729-.977l-.057-.071a9.772 9.772 0 00-.907-.902l-.243-.207a10.035 10.035 0 00-.909-.675l-.125-.087a10.11 10.11 0 00-1.386-.723 9.874 9.874 0 00-1.019-.378l-.189-.062c-.4-.115-.808-.201-1.221-.266-.1-.016-.2-.026-.301-.039-.354-.044-.711-.07-1.07-.077l-.256-.008c-.192.002-.386.018-.579.03-.141.009-.28.013-.421.028-.199.021-.398.06-.598.094-.135.023-.27.039-.403.067-.214.046-.426.109-.639.17-.118.034-.237.06-.355.098a9.81 9.81 0 00-.978.374c-3.725 1.656-5.93 5.31-5.933 9.138a9.961 9.961 0 00.857 4.062l15.965 35.888 59.713 134.229a10.002 10.002 0 009.138 5.938h42.943c5.522 0 10-4.478 10-10s-4.476-9.999-9.999-9.999zm-298.725-60.117c-11.046 0-20 8.954-20 20s8.954 20 20 20h140c11.046 0 20-8.954 20-20s-8.954-20-20-20h-140z"/></svg>