<svg xmlns="http://www.w3.org/2000/svg" viewBox="0 0 480 480"><path d="M429.786 176.762c-11.854 14.546-28.152 25.329-46.808 30.26a208.179 208.179 0 0125.021 56.679c-3.1 21.7-10.301 42.1-20.9 60.399 1.279-41.883-12.182-82.279-37.074-114.656-33.519-3.713-61.545-25.903-73.633-56.131-.497-.204-.994-.412-1.492-.612-.101.1-.101.3-.201.399l-.299.601c-7.701 14.8-13.101 30.6-16.4 46.899-.2.801-.301 1.7-.5 2.5-.6 3.101-1.301 6.2-1.7 9.4-.2 1.9-.399 3.9-.5 5.8-.101 1-.101 1.9-.2 2.9-.3 3.5-.4 7-.5 10.5 1.9 1.2 3.7 2.5 5.5 3.8 1 .8 2.1 1.5 3.2 2.3.7.5 1.5 1 2.2 1.4.9.5 1.8 1.1 2.699 1.7l1.201.899c.299.3.6.601 1 .9 5.1 3.8 9.899 7.899 14.6 12.1.2.2.4.3.6.5.601.5 1.2 1 1.7 1.5l.8.8c14.7 13.9 27.6 29.5 37.801 47.101.1.1.199.3.299.5.101.2.101.3.201.399 2.6 4.5 4.799 9.101 7 13.7.1.3.199.5.299.8l.301.601c2 4.1 3.699 8.3 5.3 12.5.2.6.5 1.1.7 1.7l.9 2.1c.1.2.1.3.199.5s.1.3.2.5c.2.7.399 1.3.601 2 .1.5.299 1.1.5 1.7 1.1 3.399 2.199 6.8 3.199 10.3.2.5.301 1 .5 1.5.2.6.4 1.1.5 1.7.2.6.301 1.2.5 1.8.4 1.5.7 3.1 1 4.7.2.899.301 1.7.5 2.6.2.7.301 1.5.5 2.2.2.9.4 1.7.601 2.6a176.36 176.36 0 01-26.101 18.2c-.4-3.8-1-7.6-1.699-11.399-.4-2-.9-3.9-1.301-5.9-.9-4.3-1.9-8.6-3.199-12.9-.4-1.399-.9-2.8-1.4-4.199-.3-.7-.6-1.4-.8-2.101l-.601-1.8c-1.199-3.4-2.3-6.8-3.699-10.1-6.4 4.699-13 9.199-20.101 13.3C242.6 380 186.5 386.6 134.7 373a172.689 172.689 0 01-42-48.4c55.7 34.5 126.3 36 183.8 2.801 7.4-4.2 14.2-9.101 20.7-14.2L297 313l-.1-.2c-.101-.1-.2-.3-.301-.399-9-14.101-20-26.601-32.5-37.7-.8-.7-1.699-1.5-2.5-2.2-2.199-2-4.4-3.9-6.699-5.7a90.457 90.457 0 00-5-3.5c-.701-.5-1.4-.899-2.101-1.399-2.8-2-5.8-3.9-8.8-5.7-1.9 1.1-4 2-6.1 2.899-1.201.5-2.4 1-3.601 1.601-.8.399-1.5.8-2.3 1.2-.9.5-1.9 1-2.801 1.399-.399.2-.899.3-1.399.5-.399.2-.8.3-1.2.5-5.8 2.5-11.8 4.601-17.8 6.601-.3.199-.7.3-1 .399-.5.2-1.101.4-1.7.601-.199.1-.5.199-.699.199h-.4c-19.301 5.9-39.4 9.301-59.7 9.301h-.899c-5.301-.101-10.4-.4-15.5-.801-.2 0-.5-.1-.7-.1-.2-.1-.5-.1-.7-.1-4.6-.4-9-1-13.5-1.7-.5-.101-1.1-.101-1.7-.2-.7-.1-1.5-.2-2.3-.3h-.5c-.2 0-.3-.101-.5-.101-.8-.1-1.6-.3-2.4-.5-.5-.199-1-.3-1.5-.399-3.5-.7-7-1.5-10.5-2.4-.399-.1-.899-.2-1.3-.3-.6-.1-1.3-.2-1.899-.4-.2-.1-.5-.1-.7-.199-.4-.101-.7-.2-1.101-.301-1.5-.399-3-.899-4.5-1.399-.899-.3-1.699-.601-2.6-.9-.6-.3-1.3-.5-2-.7l-2.7-.899c-1.8-9.8-2.7-19.9-2.7-30.2V238c3.601 1.5 7.2 2.9 10.801 4.2 1.899.7 3.899 1.3 5.8 1.899 4.3 1.4 8.5 2.7 12.8 3.7 1.3.3 2.7.601 4.1.8.801.2 1.7.301 2.5.5.801.2 1.5.301 2.301.5 3.3.601 6.699 1.301 10.1 1.7-.9-7.899-1.5-15.899-1.5-24 0-55.7 22.3-107.6 60.1-145.7 19.4-7.8 40.601-12.1 62.801-12.1-57.801 31-94.4 91.4-94.4 157.8 0 8.601.8 16.9 2 25.101h1c16.6-.7 33-3.9 48.8-9.2l2.7-.9c3-.899 5.9-1.899 8.8-3.1 1.7-.7 3.5-1.601 5.2-2.4.9-.399 1.8-.899 2.7-1.3 3.1-1.5 6.2-3.1 9.3-4.8 0-2.2.3-4.4.5-6.601.1-1.399.3-2.699.4-4.1.1-.8.1-1.7.1-2.5.1-1.1.1-2.1.2-3.2 0-.5.1-1 .2-1.5s.1-.899.199-1.3c.801-6.3 1.9-12.5 3.2-18.7.101-.3.101-.7.2-1 .1-.6.3-1.3.4-1.899 0-.101 0-.301.1-.5.1-.2.2-.301.2-.5 4.6-19.7 11.6-38.7 21.8-56.301 0-.1.1-.1.1-.199l.101-.101c.1-.2.2-.3.3-.5 2.7-4.399 5.5-8.7 8.4-12.899.199-.301.3-.5.5-.7.1-.101.3-.3.399-.5 2.396-3.408 4.96-6.728 7.538-9.966 3.163-23.106 15.127-43.446 32.395-57.52C283.355 43.594 262.096 40 240 40 129.5 40 40 129.5 40 240c0 110.4 89.5 200 200 200 110.4 0 200-89.6 200-200 0-22.103-3.594-43.363-10.214-63.238zm-70.064 12.96c38.66 0 70-31.34 70-70s-31.34-70-70-70-70 31.34-70 70 31.34 70 70 70zm-39.725-81.34c-4.783-2.762-6.422-8.877-3.66-13.66 2.761-4.783 8.876-6.422 13.66-3.66l19.641 11.339V79.722c0-5.522 4.478-10 10-10s10 4.478 10 10v22.68l19.642-11.34c4.783-2.762 10.899-1.121 13.66 3.66 2.762 4.783 1.123 10.898-3.66 13.66l-19.642 11.34 19.642 11.34c4.783 2.762 6.422 8.877 3.66 13.66a9.997 9.997 0 01-13.66 3.66l-19.642-11.34v22.68c0 5.522-4.478 10-10 10s-10-4.478-10-10v-22.68l-19.641 11.34a9.997 9.997 0 01-13.66-3.66c-2.762-4.783-1.123-10.898 3.66-13.66l19.641-11.34-19.641-11.34z"/></svg>