<svg xmlns="http://www.w3.org/2000/svg" width="1000pt" height="1000pt" viewBox="0 0 1000 1000"><path d="M895.387 368.254c-24.696 30.305-58.649 52.77-97.516 63.043a433.614 433.614 0 0152.125 118.082c-6.457 45.207-21.457 87.707-43.539 125.828 2.664-87.254-25.379-171.414-77.238-238.867-69.832-7.735-128.219-53.961-153.403-116.938-1.035-.425-2.07-.859-3.109-1.273-.21.207-.21.625-.418.828l-.621 1.254c-16.047 30.832-27.297 63.75-34.168 97.707-.418 1.668-.629 3.539-1.043 5.207-1.25 6.46-2.71 12.918-3.539 19.582-.418 3.961-.832 8.125-1.043 12.086-.21 2.082-.21 3.957-.418 6.039-.625 7.293-.832 14.586-1.039 21.875 3.957 2.5 7.707 5.211 11.457 7.918 2.082 1.668 4.375 3.125 6.668 4.793a56.283 56.283 0 004.582 2.914c1.875 1.043 3.75 2.293 5.621 3.543l2.504 1.871c.621.625 1.25 1.254 2.082 1.875 10.625 7.918 20.625 16.457 30.418 25.211.418.414.832.625 1.25 1.04 1.254 1.042 2.5 2.085 3.543 3.124l1.664 1.668c30.625 28.957 57.5 61.457 78.754 98.129.207.207.414.625.621 1.039.211.418.211.625.422.832 5.414 9.375 9.996 18.961 14.582 28.543.207.625.414 1.04.621 1.664.211.418.422.836.629 1.254 4.168 8.543 7.707 17.293 11.043 26.043.414 1.25 1.039 2.289 1.457 3.539.625 1.457 1.25 2.914 1.875 4.375.207.418.207.625.414 1.043.207.418.207.625.418 1.043.414 1.457.828 2.707 1.25 4.164.21 1.043.625 2.293 1.043 3.543 2.293 7.082 4.582 14.168 6.664 21.457.418 1.043.629 2.086 1.043 3.125.414 1.25.832 2.293 1.039 3.543.418 1.25.629 2.5 1.043 3.75.832 3.125 1.457 6.457 2.082 9.793.418 1.871.629 3.539 1.043 5.414.418 1.461.629 3.125 1.043 4.586.414 1.875.832 3.539 1.25 5.414-16.875 14.172-35 26.875-54.375 37.918-.836-7.918-2.086-15.832-3.54-23.746-.835-4.168-1.874-8.125-2.71-12.293-1.875-8.957-3.961-17.918-6.664-26.875-.836-2.914-1.875-5.832-2.918-8.75-.625-1.457-1.25-2.914-1.668-4.375-.414-1.25-.832-2.5-1.25-3.75-2.5-7.082-4.793-14.168-7.707-21.043-13.332 9.789-27.082 19.164-41.879 27.71-100.414 57.915-217.289 71.665-325.207 43.329-35-27.707-64.793-61.875-87.5-100.832 116.043 71.875 263.125 75 382.918 5.836 15.414-8.75 29.582-18.961 43.125-29.582l-.418-.422-.207-.414c-.211-.211-.418-.625-.629-.832-18.75-29.379-41.668-55.418-67.707-78.543-1.668-1.457-3.539-3.125-5.21-4.582-4.579-4.168-9.165-8.125-13.954-11.875-3.336-2.5-6.879-5-10.418-7.293-1.46-1.04-2.918-1.871-4.379-2.914-5.832-4.168-12.082-8.125-18.332-11.875-3.957 2.293-8.332 4.168-12.707 6.039-2.504 1.043-5 2.086-7.504 3.336-1.664.832-3.125 1.668-4.789 2.5a75.182 75.182 0 01-5.836 2.914c-.832.418-1.875.625-2.914 1.043-.832.418-1.668.625-2.5 1.043-12.086 5.207-24.586 9.582-37.086 13.75-.625.414-1.457.625-2.082.832-1.043.418-2.293.832-3.543 1.25-.414.21-1.039.418-1.457.418h-.832c-40.21 12.289-82.082 19.375-124.375 19.375h-1.871c-11.047-.211-21.668-.832-32.293-1.668-.418 0-1.043-.207-1.457-.207-.418-.211-1.043-.211-1.461-.211-9.582-.832-18.75-2.082-28.125-3.54-1.039-.21-2.289-.21-3.539-.417a290.61 290.61 0 00-4.793-.625h-1.043c-.414 0-.625-.211-1.039-.211-1.668-.207-3.336-.625-5-1.043-1.043-.414-2.086-.625-3.125-.828a414.977 414.977 0 01-21.875-5c-.832-.211-1.875-.418-2.711-.625-1.25-.211-2.707-.418-3.953-.836-.418-.207-1.043-.207-1.461-.414-.832-.211-1.457-.418-2.293-.625-3.125-.832-6.25-1.875-9.375-2.918-1.871-.625-3.54-1.25-5.418-1.875-1.25-.625-2.707-1.04-4.164-1.457-1.875-.625-3.75-1.25-5.625-1.871-3.75-20.418-5.625-41.461-5.625-62.918v-3.133c7.5 3.125 15 6.043 22.5 8.75 3.957 1.461 8.125 2.711 12.086 3.957 8.957 2.918 17.707 5.625 26.664 7.707 2.71.625 5.625 1.254 8.543 1.668 1.668.418 3.543.629 5.207 1.043 1.668.414 3.125.625 4.793 1.04 6.875 1.253 13.957 2.71 21.043 3.542-1.875-16.457-3.125-33.121-3.125-50 0-116.043 46.457-224.168 125.207-303.543 40.418-16.25 84.586-25.207 130.836-25.207-120.418 64.582-196.664 190.418-196.664 328.75 0 17.918 1.664 35.207 4.164 52.293h2.086c34.582-1.457 68.75-8.125 101.664-19.164 1.875-.625 3.75-1.254 5.625-1.875 6.25-1.875 12.293-3.957 18.336-6.461 3.539-1.457 7.289-3.336 10.832-5 1.875-.828 3.75-1.871 5.625-2.707a426.699 426.699 0 0019.375-10c0-4.582.625-9.168 1.043-13.754.207-2.914.625-5.621.832-8.539.207-1.668.207-3.543.207-5.21.21-2.29.21-4.376.418-6.665 0-1.043.207-2.086.418-3.125.207-1.043.207-1.875.414-2.71 1.668-13.126 3.957-26.04 6.664-38.958.21-.625.21-1.457.418-2.082.207-1.25.625-2.71.832-3.957 0-.21 0-.629.21-1.043.208-.414.415-.625.415-1.039 9.586-41.043 24.168-80.625 45.418-117.297 0-.207.207-.207.207-.414l.21-.21c.212-.415.419-.626.626-1.04a598.501 598.501 0 0117.5-26.875c.414-.625.625-1.039 1.043-1.457.207-.21.625-.625.832-1.043 4.992-7.098 10.332-14.016 15.703-20.762 6.59-48.136 31.516-90.511 67.488-119.832C590.324 90.82 546.035 83.332 500 83.332 269.793 83.332 83.332 269.793 83.332 500c0 230 186.461 416.668 416.668 416.668C730 916.668 916.668 730 916.668 500c0-46.047-7.488-90.34-21.281-131.746zm-145.965 27c80.539 0 145.832-65.293 145.832-145.832 0-80.543-65.293-145.836-145.832-145.836-80.543 0-145.836 65.293-145.836 145.836 0 80.539 65.293 145.832 145.836 145.832zM666.66 225.797c-9.965-5.754-13.379-18.496-7.625-28.461s18.492-13.379 28.457-7.625l40.922 23.625v-47.25c0-11.504 9.328-20.832 20.832-20.832 11.504 0 20.832 9.328 20.832 20.832v47.25L811 189.71c9.965-5.754 22.707-2.332 28.457 7.625 5.754 9.965 2.34 22.707-7.625 28.46l-40.918 23.626 40.918 23.625c9.965 5.754 13.379 18.492 7.625 28.457-3.855 6.683-10.86 10.422-18.062 10.422-3.532 0-7.114-.903-10.395-2.797l-40.922-23.625v47.25c0 11.504-9.328 20.832-20.832 20.832-11.504 0-20.832-9.328-20.832-20.832v-47.25l-40.922 23.625a20.716 20.716 0 01-10.394 2.797c-7.203 0-14.203-3.738-18.063-10.422-5.754-9.965-2.34-22.703 7.625-28.457l40.918-23.625zm0 0"/></svg>