<svg xmlns="http://www.w3.org/2000/svg" viewBox="0 0 480 479.999"><path d="M285.153 183.304a11.068 11.068 0 00-10.523-7.644h-69.235c-4.808 0-9.062 3.08-10.546 7.644l-21.38 65.846a11.085 11.085 0 004.01 12.385l56.009 40.678a11.037 11.037 0 0013.027 0l55.986-40.678a11.06 11.06 0 004.032-12.385l-21.38-65.846zM240 40C129.54 40 40 129.539 40 240c0 110.439 89.54 200 200 200 110.439 0 200-89.561 200-200 0-110.461-89.56-200-200-200zm111.399 236.558l25.313 64.381c-20.084 27.131-48.04 48.099-80.463 59.499l-51.172-30.14a9.947 9.947 0 00-10.16 0l-51.18 30.135c-32.419-11.401-60.371-32.368-80.452-59.497l25.313-64.378c1.58-4.04.38-8.641-2.98-11.4L71.11 220.516c3.527-30.774 15.305-59.077 33.059-82.634l46.73-.364c3.76-.02 7.199-2.18 8.88-5.58l26.225-53.149C202.976 73.09 221.134 70 240.001 70c18.866 0 37.025 3.09 53.997 8.789l26.241 53.149a9.934 9.934 0 008.88 5.58l46.714.363c17.753 23.557 29.53 51.858 33.058 82.632l-54.512 44.645a10.024 10.024 0 00-2.98 11.4z"/></svg>