<svg xmlns="http://www.w3.org/2000/svg" width="1000pt" height="1000pt" viewBox="0 0 1000 1000"><path d="M594.07 381.883a23.065 23.065 0 00-21.925-15.922H427.906c-10.015 0-18.879 6.414-21.972 15.922l-44.54 137.18c-3.093 9.507.278 19.894 8.352 25.804l116.688 84.746a23.001 23.001 0 0027.14 0l116.637-84.746c8.121-5.91 11.492-16.293 8.398-25.804zM500 83.336C269.875 83.336 83.332 269.875 83.332 500c0 230.082 186.543 416.668 416.668 416.668 230.082 0 416.668-186.586 416.668-416.668 0-230.125-186.586-416.664-416.668-416.664zm232.082 492.828l52.734 134.125c-41.84 56.524-100.082 100.207-167.632 123.957l-106.606-62.789a20.726 20.726 0 00-21.168 0l-106.625 62.781c-67.539-23.754-125.773-67.433-167.61-123.953l52.74-134.12a20.89 20.89 0 00-6.212-23.75L148.145 459.41c7.347-64.113 31.886-123.078 68.875-172.156l97.351-.758c7.836-.039 15-4.539 18.5-11.625l54.637-110.726c35.36-11.872 73.187-18.31 112.496-18.31 39.3 0 77.133 6.438 112.492 18.31l54.668 110.726a20.692 20.692 0 0018.5 11.625l97.32.758c36.989 49.078 61.524 108.035 68.871 172.148L738.29 552.414c-7 5.746-9.5 15.332-6.207 23.75zm0 0"/></svg>