<svg xmlns="http://www.w3.org/2000/svg" width="1000pt" height="1000pt" viewBox="0 0 1000 1000"><path d="M500 83.332C269.883 83.332 83.332 269.882 83.332 500c0 230.117 186.55 416.668 416.668 416.668 230.117 0 416.668-186.55 416.668-416.668 0-230.117-186.55-416.668-416.668-416.668zM273.535 772.105a357.048 357.048 0 01-44.414-44.18c51.988-61.64 83.383-141.163 83.383-227.917 0-86.754-31.395-166.301-83.383-227.93a357.047 357.047 0 0144.414-44.18C336.703 300.871 375 395.902 375 500.004c0 104.098-38.297 199.125-101.465 272.101zm497.328-44.156a357.27 357.27 0 01-44.398 44.156C663.3 699.13 625.004 604.098 625.004 500.004c0-104.102 38.297-199.133 101.46-272.106a357.095 357.095 0 0144.403 44.165c-51.988 61.64-83.367 141.175-83.367 227.94.004 86.759 31.375 166.317 83.363 227.946zm0 0"/></svg>