<svg xmlns="http://www.w3.org/2000/svg" viewBox="0 0 480 480"><path d="M448.705 136.635c-2.392-37.396-18.808-68.563-46.223-87.76-27.413-19.196-62.315-23.961-98.275-13.419-35.156 10.308-67.223 34.129-90.293 67.077-23.07 32.947-34.487 71.228-32.148 107.789.995 15.555 4.424 30.027 10.054 43.014l-19.073 103.975c-5.802-1.37-12.109.805-15.737 5.985l-40.15 57.341c-4.752 6.786-3.103 16.139 3.684 20.891l8.191 5.736c6.786 4.751 16.14 3.102 20.891-3.685l40.15-57.34c3.619-5.169 3.516-11.822.267-16.802l92.326-52.683c2.327.141 4.668.228 7.028.228 11.98 0 24.361-1.815 36.868-5.482 35.155-10.307 67.222-34.128 90.292-67.076 23.069-32.947 34.487-71.228 32.148-107.789zM195.669 343.199l11.768-64.149a102.903 102.903 0 0020.551 19.031 102.958 102.958 0 0024.553 12.667l-56.872 32.451zm204.504-110.246c-28.611 40.86-71.426 63.995-110.62 63.991-18.045-.002-35.33-4.908-50.095-15.246-22.336-15.641-35.737-41.442-37.733-72.653-2.05-32.046 8.098-65.799 28.572-95.041 28.611-40.86 71.427-63.992 110.621-63.992 18.044 0 35.329 4.908 50.094 15.246 22.337 15.641 35.738 41.443 37.734 72.653 2.05 32.047-8.098 65.8-28.573 95.042zm-267.407 29.99c12.671-18.097 8.272-43.038-9.823-55.71-18.097-12.671-43.038-8.272-55.709 9.823-12.672 18.097-8.273 43.038 9.822 55.709 18.097 12.673 43.039 8.274 55.71-9.822z"/></svg>