<svg xmlns="http://www.w3.org/2000/svg" viewBox="0 0 480 480"><path d="M240 40C129.543 40 40 129.543 40 240s89.543 200 200 200 200-89.543 200-200S350.457 40 240 40zM131.296 370.61a171.495 171.495 0 01-21.318-21.205c24.955-29.588 40.024-67.759 40.024-109.401 0-41.642-15.069-79.825-40.024-109.407a171.503 171.503 0 0121.318-21.206C161.617 144.419 180 190.033 180 240.001c0 49.967-18.383 95.581-48.704 130.609zm238.719-21.194a171.487 171.487 0 01-21.311 21.194c-30.32-35.028-48.703-80.643-48.703-130.609 0-49.968 18.383-95.582 48.703-130.61a171.475 171.475 0 0121.313 21.199C345.061 160.178 330 198.354 330 240.001c.001 41.645 15.06 79.832 40.015 109.415z"/></svg>