<svg xmlns="http://www.w3.org/2000/svg" width="1000pt" height="1000pt" viewBox="0 0 1000 1000"><path d="M769.836 853.223H537.5c-9.207 0-16.668-7.461-16.668-16.668V83.332c0-.25-.031-.496-.039-.746-.016-.371-.023-.738-.055-1.106-.035-.378-.09-.746-.14-1.12-.043-.29-.078-.575-.133-.864-.074-.41-.172-.812-.274-1.21-.062-.247-.12-.497-.191-.74a25.115 25.115 0 00-.66-1.921 15.86 15.86 0 00-.477-1.09 17.802 17.802 0 00-.375-.777c-.164-.32-.343-.63-.527-.938a16.525 16.525 0 00-.508-.84c-.18-.277-.371-.543-.566-.808a18.162 18.162 0 00-.63-.844c-.206-.254-.425-.5-.64-.746a25.331 25.331 0 00-.691-.762c-.262-.265-.535-.52-.813-.77-.215-.202-.43-.405-.656-.597-.352-.3-.723-.578-1.098-.855l-.41-.32-.105-.067a23.594 23.594 0 00-1.367-.86l-.395-.238a23.314 23.314 0 00-1.469-.726l-.386-.188c-.457-.195-.922-.36-1.391-.52l-.547-.202c-.371-.118-.754-.207-1.137-.305-.289-.07-.57-.156-.859-.219-.3-.062-.602-.098-.902-.144-.383-.067-.762-.133-1.145-.176-.27-.028-.543-.035-.816-.051a19.227 19.227 0 00-1.258-.066L500 62.5c-.254 0-.492.027-.742.04-.375.01-.746.023-1.117.054-.371.035-.735.09-1.098.14-.297.043-.594.078-.89.133-.395.074-.79.172-1.18.27-.258.062-.52.125-.774.199-.394.113-.773.242-1.152.379-.262.09-.524.18-.777.285-.352.14-.692.297-1.036.453-.28.129-.562.262-.836.402-.296.157-.59.325-.878.493-.305.175-.606.355-.903.55-.25.16-.492.336-.734.512-.313.223-.621.445-.922.688-.223.18-.441.375-.656.566-.29.25-.57.5-.848.766-.23.23-.453.468-.672.71-.234.25-.473.497-.695.758-.262.309-.5.637-.742.957l-.414.532-173.664 248.02a104.418 104.418 0 0134.863 22.855L471.59 160.234c2.336-3.34 7.582-1.687 7.582 2.387v673.93c0 9.207-7.461 16.668-16.668 16.668h-232.34c-22.594 0-41.836 17.57-42.637 40.148-.843 23.707 18.121 43.184 41.641 43.184h541.664c23.516 0 42.484-19.48 41.64-43.184-.8-22.578-20.042-40.144-42.636-40.144zM270.832 478.695c34.52 0 62.5-27.984 62.5-62.5 0-34.52-27.98-62.5-62.5-62.5-34.516 0-62.5 27.98-62.5 62.5 0 34.516 27.984 62.5 62.5 62.5zm0 0"/></svg>