<svg xmlns="http://www.w3.org/2000/svg" viewBox="0 0 480 480"><path d="M369.521 409.546H258a8 8 0 01-8-8V40c0-.121-.015-.238-.019-.358-.007-.178-.011-.355-.026-.532-.017-.182-.043-.358-.069-.537-.02-.139-.037-.276-.062-.414a10.068 10.068 0 00-.132-.583c-.03-.118-.058-.237-.092-.354a10.364 10.364 0 00-.188-.573 9.143 9.143 0 00-.128-.349 8.707 8.707 0 00-.229-.523c-.059-.125-.116-.251-.181-.374a9.411 9.411 0 00-.252-.45c-.08-.137-.159-.271-.245-.403s-.178-.26-.271-.388a8.336 8.336 0 00-.303-.404c-.098-.123-.203-.24-.307-.359-.109-.123-.217-.246-.332-.365-.125-.128-.257-.249-.389-.37-.104-.097-.206-.194-.315-.287-.17-.144-.348-.277-.527-.41l-.198-.154-.05-.032a11.127 11.127 0 00-.657-.412l-.188-.114a10.49 10.49 0 00-.705-.349l-.187-.09a9.676 9.676 0 00-.666-.25l-.264-.097c-.178-.057-.362-.099-.545-.146-.138-.035-.274-.076-.413-.105-.143-.03-.288-.047-.433-.07-.183-.031-.365-.064-.549-.084-.129-.014-.261-.018-.391-.025-.201-.014-.402-.029-.604-.031L240 30c-.121 0-.237.014-.356.018-.18.007-.358.012-.537.027-.178.016-.352.043-.526.067-.143.021-.285.038-.427.065a9.11 9.11 0 00-.567.128c-.124.03-.249.06-.372.096-.188.054-.37.117-.553.182-.125.044-.25.087-.373.137a9.937 9.937 0 00-.496.218c-.135.062-.27.125-.402.193a10.8 10.8 0 00-.421.236 9.652 9.652 0 00-.434.264c-.12.078-.236.162-.353.246a9.194 9.194 0 00-.441.33c-.108.087-.212.18-.316.271-.138.12-.274.24-.406.369-.112.109-.218.225-.324.34-.112.12-.226.238-.332.365-.126.148-.241.304-.358.459l-.197.254-83.359 119.05a50.134 50.134 0 0116.734 10.97l61.18-87.373c1.121-1.602 3.639-.809 3.639 1.146v323.487a8 8 0 01-8.001 8H110.479c-10.845 0-20.081 8.433-20.466 19.271-.405 11.379 8.699 20.729 19.987 20.729h260c11.287 0 20.392-9.351 19.986-20.729-.384-10.837-9.62-19.27-20.465-19.27zM130 229.773c16.568 0 30-13.432 30-30 0-16.569-13.432-30-30-30-16.569 0-30 13.431-30 30 0 16.569 13.431 30 30 30z"/></svg>