<svg xmlns="http://www.w3.org/2000/svg" viewBox="0 0 480 480"><path d="M279.994 100h-79.988c-6.644 0-11.44 6.359-9.615 12.747l14.286 40a10 10 0 009.615 7.253h51.416a10 10 0 009.615-7.253l14.286-40c1.826-6.388-2.971-12.747-9.615-12.747zm-19.035 88.933a10.001 10.001 0 00-9.943-8.933h-22.03a10 10 0 00-9.942 8.935L190.486 339.39a10 10 0 002.872 8.137l39.544 39.545c.284.284.583.54.891.783a9.973 9.973 0 006.181 2.146 9.97 9.97 0 007.072-2.93l39.597-39.607a10.003 10.003 0 002.871-8.137l-28.555-150.394zM240 40C129.543 40 40 129.543 40 240s89.543 200 200 200 200-89.543 200-200S350.457 40 240 40zm0 370h-.018l-.037-.001C146.082 409.97 70 333.87 70 240c0-93.889 76.111-170 170-170s170 76.111 170 170-76.111 170-170 170z"/></svg>