<svg xmlns="http://www.w3.org/2000/svg" width="1000pt" height="1000pt" viewBox="0 0 1000 1000"><path d="M583.32 208.332H416.68c-13.844 0-23.832 13.25-20.032 26.559l29.762 83.332a20.83 20.83 0 0020.031 15.109H553.56a20.83 20.83 0 0020.03-15.11l29.763-83.331c3.804-13.309-6.188-26.559-20.032-26.559zm-39.656 185.277C542.527 383.027 533.598 375 522.95 375h-45.894c-10.645 0-19.578 8.027-20.715 18.613l-59.492 313.45a20.828 20.828 0 005.98 16.953l82.383 82.382a20.828 20.828 0 001.86 1.633 20.754 20.754 0 0012.874 4.473c5.332 0 10.664-2.04 14.735-6.106l82.492-82.515a20.828 20.828 0 005.98-16.953zM500 83.332C269.883 83.332 83.332 269.882 83.332 500c0 230.117 186.55 416.668 416.668 416.668 230.117 0 416.668-186.55 416.668-416.668 0-230.117-186.55-416.668-416.668-416.668zm0 770.836h-.04l-.073-.004C304.336 854.105 145.832 695.563 145.832 500c0-195.602 158.566-354.168 354.168-354.168S854.168 304.398 854.168 500 695.602 854.168 500 854.168zm0 0"/></svg>