<svg xmlns="http://www.w3.org/2000/svg" viewBox="0 0 480 480"><path d="M449.742 178.476c-2.128-33.267-16.748-61.003-41.168-78.102-24.417-17.099-55.483-21.351-87.471-11.972-31.185 9.143-59.62 30.261-80.068 59.465-20.448 29.202-30.567 63.146-28.492 95.576.657 10.284 2.513 20.037 5.478 29.113l-2.819 84.65c-5.638-1.097-11.65 1.104-15.157 6.111l-40.15 57.341c-4.752 6.786-3.103 16.14 3.684 20.891l8.191 5.736c6.786 4.752 16.139 3.103 20.891-3.684l40.15-57.341c3.507-5.009 3.518-11.41.56-16.333l78.593-31.607c9.539-.317 19.335-1.906 29.219-4.804 31.185-9.143 59.62-30.261 80.068-59.465 20.446-29.201 30.565-63.145 28.491-95.575zM235.535 347.5l1.37-41.129a91.739 91.739 0 0036.819 25.771L235.535 347.5zm169.331-84.918c-24.516 35.011-60.975 55.097-94.587 55.759-.17-.005-.341.001-.512.005-16.071.223-31.475-4.003-44.587-13.184-13.102-9.174-22.336-22.188-27.626-37.351-.06-.179-.118-.357-.188-.532-10.869-31.81-4.462-72.935 20.051-107.941 24.933-35.606 62.218-55.78 96.3-55.78 15.637 0 30.601 4.247 43.386 13.199 19.342 13.543 30.947 35.915 32.68 62.995 1.785 27.916-7.064 57.332-24.917 82.83zM192.37 230c1.072-32.302 12.285-65.047 32.282-93.604 23.043-32.909 55.298-56.77 90.824-67.186a144.275 144.275 0 0114.523-3.462V38.001a8 8 0 00-8-8H38a8 8 0 00-8 8V222a8 8 0 008 8h2.85a59.678 59.678 0 0110.021-24.383c10.863-15.477 28.831-25.621 49.133-25.621 22.161 0 41.54 12.086 51.932 30.004a59.549 59.549 0 017.222 20h33.212zM50 58.001a8 8 0 018-8h19.965L50 89.938V58.001zm0 117.626V140.76l63.55-90.759h24.415L50 175.627zM126.452 210c-7.051-6.222-16.306-10.004-26.448-10.004-10.144 0-19.398 3.782-26.449 10.004-5.907 5.212-10.271 12.135-12.295 20A40.101 40.101 0 0060 240c0 22.094 17.91 40.004 40.004 40.004 22.093 0 40.003-17.91 40.003-40.004 0-3.453-.438-6.804-1.26-10-2.025-7.865-6.387-14.788-12.295-20z"/></svg>