<svg xmlns="http://www.w3.org/2000/svg" viewBox="0 0 480 480"><path d="M449.742 178.476c-2.128-33.267-16.748-61.003-41.168-78.102-24.417-17.099-55.483-21.351-87.471-11.972-31.185 9.143-59.62 30.261-80.068 59.465-20.448 29.202-30.567 63.146-28.492 95.576.657 10.284 2.513 20.037 5.478 29.113l-2.819 84.65c-5.638-1.097-11.65 1.104-15.157 6.111l-40.15 57.341c-4.752 6.786-3.103 16.14 3.684 20.891l8.191 5.736c6.786 4.752 16.139 3.103 20.891-3.684l40.15-57.341c3.507-5.009 3.518-11.41.56-16.333l78.593-31.607c9.539-.317 19.335-1.906 29.219-4.804 31.185-9.143 59.62-30.261 80.068-59.465 20.446-29.201 30.565-63.145 28.491-95.575zM235.535 347.5l1.37-41.129a91.739 91.739 0 0036.819 25.771L235.535 347.5zm169.331-84.918c-24.516 35.011-60.975 55.097-94.587 55.759-.17-.005-.341.001-.512.005-16.071.223-31.475-4.003-44.587-13.184-13.102-9.174-22.336-22.188-27.626-37.351-.06-.179-.118-.357-.188-.532-10.869-31.81-4.462-72.935 20.051-107.941 24.933-35.606 62.218-55.78 96.3-55.78 15.637 0 30.601 4.247 43.386 13.199 19.342 13.543 30.947 35.915 32.68 62.995 1.785 27.916-7.064 57.332-24.917 82.83zM192.37 230c1.072-32.302 12.285-65.047 32.282-93.604 23.043-32.909 55.298-56.77 90.824-67.186a144.275 144.275 0 0114.523-3.462V38.001a8 8 0 00-8-8H38a8 8 0 00-8 8V222a8 8 0 008 8h2.85a59.678 59.678 0 0110.021-24.383c10.863-15.477 28.831-25.621 49.133-25.621 22.161 0 41.54 12.086 51.932 30.004a59.549 59.549 0 017.222 20h33.212zM50 58.001a8 8 0 018-8h19.965L50 89.938V58.001zm0 117.626V140.76l63.55-90.759h24.415L50 175.627zM126.591 210a40.264 40.264 0 00-3.645-2.89c-15.495-10.85-36.004-9.175-49.535 2.89a40.086 40.086 0 00-6.174 6.934A39.896 39.896 0 0061.239 230c-3.985 15.654 1.805 32.828 15.821 42.643 18.096 12.671 43.038 8.273 55.709-9.823 6.954-9.932 8.757-21.923 5.984-32.819A39.809 39.809 0 00126.591 210zm-26.697 0a44.71 44.71 0 01-5.505 20 45.162 45.162 0 01-2.576 4.142 44.723 44.723 0 01-20.051 15.904 30.145 30.145 0 01-1.771-10.129A34.768 34.768 0 0082.426 230a35.4 35.4 0 001.196-1.594 34.766 34.766 0 006.153-16.732 30.2 30.2 0 0110.125-1.796l-.006.122zm16.465 41.329a34.771 34.771 0 00-6.155 16.755 30.162 30.162 0 01-10.124 1.796 44.707 44.707 0 018.088-24.287c5.03-7.183 11.804-12.418 19.345-15.593.233-.098.461-.213.695-.308.036.102.061.206.096.308a30.152 30.152 0 011.683 9.819 34.763 34.763 0 00-13.628 11.51z"/></svg>