<svg xmlns="http://www.w3.org/2000/svg" width="1000pt" height="1000pt" viewBox="0 0 1000 1000"><path d="M797.898 251.324c-23.785-15.894-50.312-25.074-77.218-27.965l45.168-64.5c6.597-9.425 4.304-22.414-5.118-29.015-9.421-6.598-22.414-4.309-29.015 5.117L207.309 883.887c-6.598 9.422-4.305 22.414 5.117 29.011a20.713 20.713 0 0011.933 3.774c6.567 0 13.032-3.098 17.082-8.887L401.56 679.11a172.536 172.536 0 0016.324 13.649c78.652 57.883 189.074 39.426 244.77-40.121 11.347-16.203 19.515-33.68 24.656-51.688 5.078-17.765 19.843-31.316 38.148-33.851 46.05-6.383 89.418-31.137 118.188-72.227 55.632-79.453 35.316-189.367-45.747-243.547zM299.922 604.18a171.337 171.337 0 0038.586 19.199l308.5-440.586c-10.801-33.75-31.895-64.43-62.254-86.688-78.637-57.644-188.871-39.14-244.508 40.317-28.766 41.086-37.2 90.305-27.441 135.758 3.875 18.066-3.805 36.582-18.766 47.425-15.164 10.993-28.789 24.641-40.14 40.848-55.692 79.54-35.27 189.617 46.023 243.727zm101.191-352.223c20.907 14.64 49.723 9.559 64.364-11.352 14.64-20.906 9.562-49.722-11.348-64.367-1.61-1.125-3.277-2.093-4.973-2.992 18.672-4.516 39.11-1.312 56.082 10.574 31.367 21.957 38.989 65.184 17.028 96.547s-65.188 38.985-96.551 17.024c-16.969-11.883-26.973-29.996-29.113-49.086 1.418 1.289 2.902 2.523 4.511 3.652zm0 0"/></svg>