<svg xmlns="http://www.w3.org/2000/svg" viewBox="0 0 480 480"><path d="M382.991 120.636c-11.417-7.63-24.15-12.036-37.064-13.423l21.679-30.961c3.168-4.523 2.068-10.759-2.456-13.927-4.521-3.167-10.759-2.068-13.927 2.456L99.509 424.265c-3.168 4.523-2.068 10.759 2.456 13.927a9.946 9.946 0 005.727 1.81 9.987 9.987 0 008.2-4.266l76.856-109.763a82.754 82.754 0 007.835 6.55c37.754 27.784 90.756 18.925 117.49-19.257a82.853 82.853 0 0011.836-24.81c2.436-8.528 9.525-15.033 18.311-16.25 22.104-3.062 42.92-14.945 56.729-34.667 26.704-38.139 16.953-90.898-21.958-116.903zM143.962 290.007a82.265 82.265 0 0018.521 9.214l148.08-211.48c-5.184-16.2-15.308-30.927-29.881-41.61-37.745-27.67-90.658-18.788-117.363 19.351-13.809 19.721-17.856 43.347-13.173 65.164 1.861 8.672-1.826 17.559-9.008 22.765a82.875 82.875 0 00-19.266 19.606c-26.733 38.18-16.931 91.016 22.09 116.99zm48.572-169.068c10.035 7.027 23.868 4.588 30.895-5.448 7.027-10.036 4.589-23.868-5.447-30.896a22.173 22.173 0 00-2.387-1.436c8.962-2.168 18.773-.63 26.92 5.074 15.055 10.54 18.713 31.289 8.172 46.343s-31.289 18.713-46.343 8.172c-8.146-5.704-12.948-14.398-13.976-23.562a21.978 21.978 0 002.166 1.753z"/></svg>