<svg xmlns="http://www.w3.org/2000/svg" viewBox="0 0 480 480"><path d="M374.702 269.359c23.241-19.501 25.984-50.847 6.482-74.088-19.501-23.241-50.852-25.988-74.093-6.486s-25.766 51.04-6.264 74.281c19.502 23.242 50.634 25.795 73.875 6.293zM129.04 303.862l60.431-50.708 16.896 20.135-100.728 84.45c-.286.239-.546.499-.819.748 6.088 2.739 11.526 5.638 16.59 8.341 13.863 7.401 24.81 13.244 45.603 13.244 1.972 0 4.035-.054 6.131-.158 24.889-1.247 35.493-8.356 50.171-18.195 17.408-11.668 39.072-26.189 80.537-28.269a181.34 181.34 0 019.034-.23c4.51 0 8.784.179 12.848.507l-11.451-13.646-.01-.013-50.708-60.432-.009-.009-50.698-60.421c-9.337-11.126-25.924-12.575-37.047-3.242l-80.574 67.61c-11.125 9.336-12.576 25.922-3.242 37.046 9.333 11.125 25.923 12.577 37.045 3.242zm310.511 82.721c-30.419 1.524-45.836-6.705-62.157-15.418-17.159-9.159-36.609-19.541-72.541-17.74-35.933 1.802-54.247 14.077-70.403 24.907-15.369 10.302-29.886 20.032-60.305 21.557-30.418 1.525-45.833-6.704-62.154-15.417-17.159-9.16-36.607-19.542-72.539-17.74-5.496.275-9.729 4.955-9.453 10.451.275 5.496 4.955 9.729 10.451 9.454 30.418-1.525 45.834 6.704 62.154 15.417 17.159 9.159 36.608 19.542 72.538 17.74 35.933-1.802 54.247-14.077 70.403-24.906 15.369-10.302 29.886-20.032 60.305-21.558 30.42-1.524 45.837 6.705 62.159 15.418 17.159 9.159 36.607 19.541 72.54 17.74 5.496-.276 9.729-4.956 9.453-10.452-.275-5.496-4.955-9.728-10.451-9.453z"/></svg>