<svg xmlns="http://www.w3.org/2000/svg" width="1000pt" height="1000pt" viewBox="0 0 1000 1000"><path d="M780.629 561.164c48.418-40.625 54.133-105.93 13.504-154.348-40.625-48.421-105.942-54.144-154.36-13.515-48.418 40.629-53.68 106.336-13.05 154.754 40.629 48.422 105.488 53.738 153.906 13.11zm-511.797 71.883L394.73 527.402l35.2 41.95-209.848 175.937c-.598.5-1.137 1.04-1.707 1.559 12.684 5.707 24.012 11.746 34.563 17.379 28.882 15.418 51.687 27.59 95.007 27.59 4.106 0 8.407-.114 12.77-.329 51.855-2.597 73.945-17.41 104.523-37.906 36.27-24.309 81.403-54.562 167.785-58.894 6.364-.32 12.692-.481 18.825-.481 9.394 0 18.297.375 26.765 1.059l-23.855-28.43-.024-.027-105.64-125.899-.02-.02-105.62-125.878c-19.45-23.18-54.009-26.196-77.18-6.754L198.41 549.113c-23.176 19.45-26.2 54.004-6.754 77.18 19.446 23.176 54.008 26.2 77.176 6.754zM915.73 805.383c-63.37 3.172-95.492-13.969-129.492-32.121-35.75-19.082-76.27-40.711-151.129-36.961-74.859 3.754-113.011 29.328-146.672 51.89-32.019 21.461-62.261 41.735-125.636 44.91-63.371 3.176-95.485-13.964-129.485-32.117-35.75-19.086-76.265-40.714-151.125-36.96-11.449.574-20.27 10.324-19.695 21.773.574 11.45 10.324 20.27 21.774 19.695 63.37-3.176 95.488 13.969 129.488 32.121 35.75 19.082 76.265 40.711 151.12 36.957 74.86-3.754 113.017-29.328 146.673-51.886 32.02-21.461 62.265-41.735 125.637-44.914 63.375-3.172 95.492 13.968 129.496 32.12 35.75 19.083 76.265 40.712 151.125 36.962 11.453-.579 20.27-10.329 19.695-21.778-.574-11.449-10.324-20.265-21.774-19.691zm0 0"/></svg>