<svg xmlns="http://www.w3.org/2000/svg" width="1000pt" height="1000pt" viewBox="0 0 1000 1000"><path d="M824.176 118.375C636.238-12.765 453.574 102.82 341.383 263.047c-72.7 103.82-100.723 174.664-41 276.484 24.445 41.676 96.16 92.274 65.199 142.754L238.285 864.082c-10.558 15.078-6.894 35.863 8.188 46.426l30.718 21.508c15.079 10.558 35.864 6.894 46.422-8.188l122.66-175.18a60.13 60.13 0 002.567-3.437c35.586-50.824 109.68 1.867 158.726 9.414 116.668 17.945 173.102-29.262 245.797-133.086 112.196-160.223 175.832-360.105-29.187-503.164zm-353.32 540.684L325.347 866.977c-5.282 7.539-15.672 9.37-23.215 4.093l-6.707-4.699c-7.54-5.281-9.375-15.672-4.094-23.21L436.84 635.241c5.277-7.539 15.672-9.375 23.21-4.094l6.712 4.696c7.539 5.281 9.37 15.676 4.093 23.215zM145.831 416.66c-46.027 0-83.34 37.313-83.34 83.34s37.313 83.34 83.34 83.34c46.031 0 83.344-37.313 83.344-83.34s-37.313-83.34-83.344-83.34zm0 0"/></svg>