<svg xmlns="http://www.w3.org/2000/svg" viewBox="0 0 480 480"><path d="M395.604 56.82c-90.209-62.947-177.888-7.467-231.74 69.442-34.895 49.835-48.348 83.84-19.68 132.713 11.734 20.005 46.156 44.292 31.296 68.522l-61.103 87.262c-5.068 7.238-3.309 17.215 3.93 22.284l14.745 10.324c7.238 5.068 17.215 3.31 22.283-3.929l58.877-84.086c.404-.507.813-1.046 1.231-1.65 17.082-24.396 52.647.896 76.189 4.518 56.001 8.614 83.089-14.046 117.982-63.881 53.855-76.907 84.4-172.85-14.01-241.519zM226.01 316.348l-69.843 99.8a8.002 8.002 0 01-11.143 1.965l-3.22-2.255a8 8 0 01-1.965-11.142l69.844-99.8a8 8 0 0111.142-1.965l3.221 2.254a8.002 8.002 0 011.964 11.143zM70 199.996c-22.093 0-40.003 17.91-40.003 40.004S47.907 280.004 70 280.004c22.094 0 40.004-17.91 40.004-40.004S92.094 199.996 70 199.996z"/></svg>