<svg xmlns="http://www.w3.org/2000/svg" viewBox="0 0 480 480"><path d="M268.662 321.108l-98.299-68.829c-9.05-6.337-21.52-4.136-27.854 4.911-6.336 9.048-4.137 21.52 4.911 27.854l81.924 57.363-57.319 81.945c-6.331 9.052-4.126 21.521 4.925 27.853a19.91 19.91 0 0011.446 3.613c6.309 0 12.516-2.977 16.406-8.538l68.777-98.326c6.329-9.048 4.128-21.513-4.917-27.846zm-99.947 3.263c-9.05-6.336-21.519-4.136-27.854 4.911l-68.829 98.299c-6.336 9.048-4.137 21.52 4.911 27.854a19.907 19.907 0 0011.454 3.619c6.305 0 12.51-2.975 16.4-8.53l68.829-98.299c6.336-9.047 4.137-21.519-4.911-27.854zm132.944-224.355c18.902 13.235 42.276 8.983 55.512-9.919s9.081-42.471-9.821-55.706-42.476-9.082-55.711 9.82-8.882 42.569 10.02 55.805zm60.546 148.87l-28.139-8.37-2.792-85.539c-.005-.14-.027-.274-.034-.414-.009-.155-.003-.311-.015-.467-.017-.209-.054-.416-.076-.624a19.66 19.66 0 00-.12-.941c-.019-.116-.024-.233-.045-.35l-.003-.024c-.032-.184-.086-.363-.123-.547-.072-.35-.146-.7-.237-1.047-.026-.104-.045-.209-.074-.312-.043-.155-.104-.305-.15-.458l-.003-.009a20.442 20.442 0 00-.361-1.099c-.036-.098-.066-.197-.104-.295-.049-.127-.112-.248-.164-.374l-.005-.011a20.119 20.119 0 00-.487-1.108c-.048-.1-.093-.2-.143-.3l-.133-.236-.055-.097a19 19 0 00-.599-1.068c-.062-.101-.12-.202-.184-.302l-.096-.137-.102-.146a19.24 19.24 0 00-.723-1.037c-.069-.092-.137-.185-.208-.275l-.119-.14-.065-.076a19.634 19.634 0 00-.896-1.046l-.194-.213-.16-.154a19.37 19.37 0 00-1.127-1.074l-.135-.122-.125-.1a20.093 20.093 0 00-1.333-1.035l-.066-.052-.053-.041-49.149-34.414a20.256 20.256 0 00-1.536-.964c-.114-.065-.228-.133-.344-.196a19.217 19.217 0 00-1.482-.733c-.157-.069-.317-.134-.477-.2-.16-.065-.316-.138-.478-.199l-77.004-29.504a20 20 0 00-23.538 7.204l-45.886 65.533c-6.336 9.049-4.137 21.52 4.911 27.854a19.907 19.907 0 0011.454 3.619c6.305-.001 12.511-2.975 16.4-8.53l36.93-52.741 38.492 14.748-54.153 77.27c-.207.296-.385.607-.574.913-1.439-.642-2.905-1.247-4.433-1.759-19.263-6.455-39.201 2.722-54.437 12.115a9.076 9.076 0 00-.518.229c-40.969 19.391-71.178 2.588-72.394 1.892a9.999 9.999 0 00-14.596 11.666l8.037 25.112a10 10 0 004.266 5.458c6.144 3.798 13.315 5.749 20.996 5.749 1.861 0 3.754-.115 5.668-.346a49.351 49.351 0 003.346-.52c14.146-2.689 25.999-11.395 36.455-19.075 2.788-2.047 5.42-3.98 8.017-5.752 12.471-8.507 33.34-22.746 48.805-17.565 4.965 1.664 9.653 4.829 14.508 8.344.56.494 1.141.966 1.758 1.398l49.181 34.449a19.996 19.996 0 0014.946 3.315 19.999 19.999 0 0012.912-8.225l34.415-49.146 1.305 39.982a20.002 20.002 0 0014.287 18.518l60.621 18.031a20.03 20.03 0 005.71.835c8.616 0 16.569-5.612 19.157-14.288a64.27 64.27 0 01-10.467-5.721c-9.369-6.311-16.72-14.858-21.663-24.716zm63.572-37.48a48.785 48.785 0 00-1.581-1.021c-.165-.103-.333-.197-.498-.297a48.135 48.135 0 00-1.108-.658c-.199-.113-.4-.218-.601-.328-.343-.189-.686-.38-1.032-.56-.213-.111-.43-.214-.644-.322-.336-.168-.671-.338-1.009-.498-.227-.107-.454-.206-.682-.31-.33-.15-.66-.303-.992-.445-.233-.1-.469-.192-.703-.289-.329-.135-.659-.271-.991-.398-.237-.092-.477-.177-.715-.265a45.669 45.669 0 00-.998-.358c-.24-.083-.481-.159-.723-.238-.334-.108-.668-.217-1.003-.318-.246-.074-.492-.144-.738-.215a51.367 51.367 0 00-1.002-.277c-.249-.065-.5-.127-.75-.188a48.8 48.8 0 00-1.004-.238c-.252-.058-.506-.11-.759-.163a49.364 49.364 0 00-5.34-.816 56.066 56.066 0 00-1.79-.146 57.029 57.029 0 00-1.796-.083 56.7 56.7 0 00-1.01-.018c-.216-.002-.433-.002-.648-.002-.997.004-1.993.037-2.989.098l-.427.027a52.36 52.36 0 00-2.976.289l-.429.056c-.99.133-1.979.292-2.964.479-.138.026-.275.055-.412.082-.99.197-1.977.419-2.958.672-.127.032-.253.067-.38.102-.99.262-1.977.549-2.955.867l-.33.111c-.994.33-1.982.686-2.961 1.073l-.251.103a55.461 55.461 0 00-2.982 1.294l-.145.07a56.725 56.725 0 00-3.02 1.536 2.154 2.154 0 00-1.097 1.628c-2.262 19.337 5.465 38.674 21.864 49.724a48.63 48.63 0 001.578 1.02c.185.115.372.221.559.333.348.21.695.421 1.047.621.22.126.443.242.664.364.32.176.641.354.964.522.239.124.481.241.723.361.309.154.616.311.927.458.252.119.507.23.76.346.304.137.605.276.911.407.259.111.52.215.78.321.304.124.606.25.911.367.265.102.53.197.796.294.304.111.606.224.911.328.27.093.539.179.81.267.305.099.608.197.915.29.272.083.547.16.821.238.305.087.609.173.916.254a57.966 57.966 0 001.749.427c.28.064.562.123.843.181.307.063.613.126.921.184.281.053.562.102.845.149a41.578 41.578 0 001.779.27c.309.042.617.081.927.116a60.492 60.492 0 001.786.174 48.666 48.666 0 001.792.11 48.697 48.697 0 002.502.051 51.969 51.969 0 003.415-.125 54.076 54.076 0 002.944-.286l.46-.061a53.46 53.46 0 002.934-.475c.147-.028.295-.059.442-.088a54.354 54.354 0 002.931-.665c.136-.035.271-.072.405-.108a55.837 55.837 0 002.935-.862c.115-.037.23-.078.346-.116a56.747 56.747 0 002.948-1.068l.259-.106a57.275 57.275 0 002.977-1.291l.147-.071a56.668 56.668 0 003.018-1.536 2.149 2.149 0 001.096-1.627c2.261-19.341-5.466-38.678-21.865-49.728zm5.186 40.835a4.991 4.991 0 01-4.105 2.141 4.978 4.978 0 01-2.855-.898L389.027 229.1a5 5 0 01-1.242-6.961 4.997 4.997 0 016.961-1.242l34.975 24.384a5 5 0 011.242 6.96z"/></svg>