<svg xmlns="http://www.w3.org/2000/svg" viewBox="0 0 480 480"><path d="M224.403 314.614l-98.299-68.829c-9.05-6.337-21.52-4.136-27.854 4.911-6.336 9.049-4.137 21.52 4.911 27.854l90.107 63.094 2.937 89.952c.354 10.818 9.232 19.349 19.978 19.348.22 0 .442-.003.664-.011 11.04-.36 19.697-9.602 19.337-20.642l-3.263-99.947a19.999 19.999 0 00-8.518-15.73zm-106.852.175c-10.752-2.522-21.516 4.15-24.038 14.905L68.921 434.553c-2.522 10.754 4.151 21.516 14.905 24.038 1.536.36 3.071.533 4.584.533 9.075 0 17.292-6.221 19.454-15.438l24.592-104.858c2.523-10.755-4.151-21.516-14.905-24.039zM257.4 93.522c18.902 13.235 42.276 8.983 55.512-9.919s9.08-42.471-9.822-55.706c-18.902-13.235-42.475-9.083-55.71 9.819s-8.882 42.57 10.02 55.806zm93.255 102.049l-19.316-2.864-49.21-56.683-.232-.242c-.135-.149-.26-.306-.399-.451-.109-.114-.232-.218-.345-.329l-.072-.068c-.22-.218-.44-.434-.672-.643-.113-.102-.217-.211-.332-.311-.135-.115-.282-.216-.42-.328a20.443 20.443 0 00-.88-.684c-.095-.068-.182-.148-.278-.216L180.2 63.923a20.003 20.003 0 00-23.387.319l-50.797 37.678c-8.871 6.58-10.729 19.106-4.148 27.979 6.582 8.873 19.106 10.729 27.979 4.148l39.219-29.09 20.951 14.67-57.377 81.871a19.998 19.998 0 004.904 27.859l49.181 34.449a19.996 19.996 0 0014.946 3.315 19.999 19.999 0 0012.912-8.225l54.137-77.309 37.268 42.927a19.999 19.999 0 0012.169 6.672l44.237 6.561c.995.147 1.981.219 2.958.219 9.203 0 17.322-6.366 19.44-15.437-15.035-3.332-27.545-13.443-34.137-26.958zm44.967-51.843c-16.568 0-30 13.431-30 30 0 16.568 13.432 30 30 30s30-13.432 30-30c0-16.57-13.432-30-30-30z"/></svg>