<svg xmlns="http://www.w3.org/2000/svg" width="1000pt" height="1000pt" viewBox="0 0 1000 1000"><path d="M467.508 655.445L262.715 512.051c-18.852-13.2-44.832-8.617-58.027 10.234-13.2 18.852-8.618 44.832 10.23 58.028l187.723 131.445 6.12 187.402c.735 22.535 19.231 40.309 41.622 40.305.457 0 .918-.004 1.383-.02 23-.75 41.035-20.004 40.285-43.004l-6.797-208.226a41.676 41.676 0 00-17.746-32.77zm-222.61.364c-22.402-5.254-44.824 8.648-50.078 31.054L143.586 905.32c-5.254 22.403 8.648 44.825 31.05 50.078 3.2.75 6.4 1.11 9.552 1.11 18.906 0 36.023-12.961 40.527-32.16l51.234-218.457c5.258-22.407-8.648-44.825-31.05-50.082zM536.25 194.836c39.379 27.574 88.074 18.715 115.648-20.664 27.579-39.379 18.918-88.48-20.46-116.055-39.38-27.57-88.489-18.922-116.063 20.457-27.574 39.38-18.504 88.688 20.875 116.262zM730.531 407.44l-40.242-5.968-102.52-118.09-.484-.504c-.281-.309-.543-.637-.832-.938-.226-.238-.48-.457-.719-.687l-.148-.14a37.99 37.99 0 00-1.402-1.34c-.235-.215-.45-.442-.692-.649-.281-.238-.586-.45-.875-.684a44.068 44.068 0 00-1.832-1.425c-.2-.141-.379-.309-.578-.45L375.418 133.172c-14.695-10.285-34.316-10.02-48.723.664l-105.828 78.496c-18.48 13.711-22.351 39.805-8.64 58.29 13.71 18.487 39.8 22.355 58.289 8.644l81.707-60.606 43.644 30.563-119.535 170.566a41.666 41.666 0 0010.219 58.04l102.46 71.769a41.656 41.656 0 0031.137 6.906 41.67 41.67 0 0026.899-17.137l112.785-161.062 77.645 89.433a41.663 41.663 0 0025.351 13.899l92.16 13.668c2.07.308 4.125.457 6.16.457 19.176 0 36.09-13.262 40.5-32.16-31.32-6.942-57.382-28.004-71.117-56.16zm93.68-108.007c-34.516 0-62.5 27.98-62.5 62.5 0 34.515 27.984 62.5 62.5 62.5 34.52 0 62.5-27.985 62.5-62.5 0-34.52-27.98-62.5-62.5-62.5zm0 0"/></svg>