<svg xmlns="http://www.w3.org/2000/svg" width="1000pt" height="1000pt" viewBox="0 0 1000 1000"><path d="M936.613 717.719L801.73 270.164l10.586-79.234a20.808 20.808 0 00-4.976-16.477 20.811 20.811 0 00-15.672-7.113H187.5c-10.441 0-19.266 7.726-20.648 18.074l-25.348 189.7c1.437-.048 2.875-.11 4.328-.11 5.613 0 11.133.41 16.55 1.129 7.005.933 13.837 2.414 20.427 4.457l3.527-26.422h119.156l-49.09 291.664H147.363l2.801-20.945c-1.441.047-2.879.11-4.332.11-5.613 0-11.133-.407-16.547-1.13-7.004-.93-13.836-2.41-20.426-4.453L83.516 809.07a20.837 20.837 0 004.976 16.477 20.82 20.82 0 0015.676 7.113h604.195c.66 0 1.32-.039 1.98-.101l.462-.063a20.082 20.082 0 001.53-.226l.544-.13c.476-.105.945-.218 1.414-.359.195-.054.387-.129.578-.195.445-.145.887-.3 1.324-.48l.254-.09 208.332-88.098c9.801-4.145 14.903-15.008 11.832-25.2zm-704.648 73.277h-104L141.797 687.5H249.39zM663.52 209.004h104.343l-7.343 54.96a20.648 20.648 0 00-.997 4.126l-5.902 44.41h-107.52zm-145.672 0h103.418L603.848 312.5H500.426zm78.984 145.164l-21.039 125H472.375l21.04-125zM372.18 209.004h103.414L458.176 312.5H354.758zm78.98 145.164l-21.039 125H326.703l21.043-125zM191.906 312.5l13.828-103.496h124.192L312.508 312.5zm185.73 478.496H274.224L291.64 687.5h103.418zm-78.984-145.164l21.043-125H423.11l-21.035 125zM523.31 790.996H419.89L437.312 687.5H540.73zm-78.985-145.164l21.04-125H568.78l-21.039 125zm245.758 145.164h-124.52L582.985 687.5h120.844zm19.277-145.164H589.996l21.04-125h114.921zm-91.312-166.664l21.039-125H748.09l-16.598 125zm115.77 299.266l-.036.011 36.196-272.562c.546-1.867.855-3.836.855-5.883l-.023-.41 17.296-130.235.254.848L891.32 711.828zm-619.32-201.22a82.476 82.476 0 0020.3 5.364c3.613.48 7.289.75 11.035.75 3.375 0 6.695-.223 9.965-.613 41.32-4.93 73.367-40.07 73.367-82.719 0-34.933-21.508-64.828-51.996-77.21a82.61 82.61 0 00-20.3-5.368 84.26 84.26 0 00-11.036-.75c-3.375 0-6.695.223-9.965.613C94.547 422.207 62.5 457.351 62.5 500c0 34.938 21.508 64.832 51.996 77.215zm0 0"/></svg>