<svg xmlns="http://www.w3.org/2000/svg" viewBox="0 0 480 480"><path d="M449.574 344.505L384.83 129.678l5.082-38.031a9.995 9.995 0 00-2.388-7.91A9.997 9.997 0 00380 80.323H90a10 10 0 00-9.912 8.676l-12.167 91.056c.691-.023 1.381-.053 2.078-.053 2.695 0 5.344.196 7.945.542a59.622 59.622 0 019.804 2.139L89.442 170h57.194l-23.563 140H70.735l1.344-10.054c-.692.023-1.383.053-2.08.053-2.694 0-5.343-.196-7.943-.542a59.52 59.52 0 01-9.804-2.139l-12.164 91.035a9.995 9.995 0 002.388 7.91A9.997 9.997 0 0050 399.677h290.001l.014-.001c.316 0 .634-.017.95-.047l.222-.03c.246-.029.49-.062.734-.11l.261-.062c.228-.051.453-.104.678-.172.095-.027.187-.062.279-.093.213-.07.425-.146.635-.231l.121-.044 100-42.287a9.998 9.998 0 005.679-12.095zm-338.23 35.173h-49.92L68.062 330h51.645l-8.363 49.678zm207.145-279.356h50.086l-3.525 26.381a9.938 9.938 0 00-.479 1.98L361.739 150h-51.611l8.361-49.678zm-69.922 0h49.64L289.846 150h-49.641l8.362-49.678zM286.479 170l-10.098 60H226.74l10.099-60h49.64zm-107.833-69.678h49.639L219.925 150h-49.641l8.362-49.678zM216.557 170l-10.098 60h-49.641l10.1-60h49.639zM92.115 150l6.638-49.678h59.611L150.003 150H92.115zm89.151 229.678h-49.64L139.988 330h49.64l-8.362 49.678zM143.354 310l10.099-60h49.64l-10.098 60h-49.641zm107.834 69.678h-49.64L209.91 330h49.64l-8.362 49.678zM213.276 310l10.099-60h49.64l-10.098 60h-49.641zm117.964 69.678h-59.77L279.832 330h58.005l-6.597 49.678zM340.493 310h-57.295l10.099-60h55.163l-7.967 60zm-43.83-80l10.099-60h52.322l-7.968 60h-54.453zm55.568 143.648l-.016.006 17.373-130.83a9.97 9.97 0 00.411-2.824l-.01-.197 8.301-62.513.123.407 49.42 163.98-75.602 31.971zM54.958 277.064a39.664 39.664 0 009.745 2.574c1.734.23 3.499.36 5.296.36 1.62 0 3.215-.107 4.784-.295 19.834-2.366 35.215-19.233 35.215-39.704 0-16.769-10.323-31.118-24.957-37.063a39.69 39.69 0 00-9.744-2.575 40.255 40.255 0 00-5.298-.36c-1.62 0-3.214.107-4.783.294C45.382 202.66 30 219.529 30 240c0 16.77 10.323 31.119 24.958 37.064z"/></svg>