<svg xmlns="http://www.w3.org/2000/svg" viewBox="0 0 480 480"><path d="M132.766 262.76c12.671-18.097 8.272-43.038-9.823-55.71-18.097-12.671-43.038-8.272-55.709 9.823-12.672 18.097-8.273 43.038 9.822 55.709 18.097 12.672 43.039 8.273 55.71-9.822zm-40.957-28.679a44.722 44.722 0 01-20.05 15.905 30.156 30.156 0 01-1.772-10.13 34.774 34.774 0 0013.631-11.511 34.762 34.762 0 006.153-16.732 30.173 30.173 0 0110.126-1.796 44.716 44.716 0 01-8.088 24.264zm24.546 17.188a34.771 34.771 0 00-6.155 16.755 30.162 30.162 0 01-10.124 1.796 44.712 44.712 0 018.088-24.286 44.722 44.722 0 0120.04-15.9 30.137 30.137 0 011.779 10.127 34.758 34.758 0 00-13.628 11.508zm333.35-114.657c-2.392-37.396-18.808-68.563-46.222-87.76-27.415-19.196-62.316-23.964-98.276-13.419-35.156 10.308-67.223 34.129-90.293 67.077-23.07 32.947-34.487 71.228-32.148 107.788.995 15.555 4.424 30.027 10.054 43.014l-19.041 103.802c-5.555-.967-11.422 1.235-14.87 6.159l-40.15 57.34c-4.752 6.786-3.103 16.14 3.684 20.892l8.191 5.735c6.786 4.752 16.14 3.103 20.891-3.684l40.15-57.341c3.71-5.298 3.502-12.151.01-17.168l91.684-52.315c2.327.141 4.668.228 7.028.228 11.979 0 24.361-1.815 36.868-5.482 35.155-10.308 67.223-34.129 90.292-67.076 23.069-32.949 34.487-71.229 32.148-107.79zM196.669 343.177l11.768-64.149a102.903 102.903 0 0020.551 19.031 102.97 102.97 0 0024.552 12.667l-56.871 32.451zM401.173 232.93c-20.476 29.241-48.722 50.321-79.536 59.355-30.011 8.801-58.841 5.032-81.179-10.609-46.834-32.794-50.944-108.021-9.161-167.694 20.476-29.241 48.723-50.321 79.537-59.355 10.611-3.111 21.071-4.651 31.152-4.651 18.431 0 35.586 5.15 50.025 15.261 22.337 15.641 35.738 41.442 37.734 72.653 2.051 32.045-8.097 65.798-28.572 95.04z"/></svg>