<svg xmlns="http://www.w3.org/2000/svg" width="1000pt" height="1000pt" viewBox="0 0 1000 1000"><path d="M420.094 215.098c39.379 27.57 88.074 18.71 115.652-20.668 27.574-39.38 18.918-88.48-20.46-116.051-39.384-27.574-88.493-18.922-116.063 20.457-27.578 39.379-18.512 88.687 20.87 116.262zm392.273 55.476h-.039l-249.871.258H437.602c-.247 0-.489.035-.739.04-.808.015-1.61.062-2.41.12-.656.051-1.316.11-1.976.192-.645.078-1.282.183-1.918.293-.801.136-1.606.293-2.414.476-.235.055-.473.082-.707.14L290.71 306.485l-64.824-108.847c-18.899 19.133-45.117 31.015-74.07 31.015-1.516 0-3.02-.05-4.52-.113l87.691 147.238c7.637 12.825 21.36 20.356 35.797 20.356a41.64 41.64 0 0010.168-1.266l114.957-28.914-.078 154.84a41.669 41.669 0 0041.664 41.687l124.988.02h.008a41.661 41.661 0 0041.668-41.664l.004-166.711 208.25-.215c23.012-.027 41.645-18.7 41.621-41.71-.023-23-18.672-41.626-41.668-41.626zM640.414 625.285a41.661 41.661 0 00-36.246-21.117H437.5c-23.012 0-41.668 18.652-41.668 41.664 0 23.016 18.656 41.668 41.668 41.668h142.395l134.69 237.582c7.673 13.527 21.77 21.125 36.286 21.125a41.535 41.535 0 0020.516-5.43c20.015-11.347 27.043-36.773 15.695-56.797zM477.637 759.641c-6.184-22.164-29.16-35.121-51.328-28.942-22.168 6.18-35.125 29.16-28.946 51.324l16.473 59.07-74.102 70.805c-16.636 15.899-17.238 42.274-1.34 58.91 8.188 8.57 19.149 12.887 30.13 12.883 10.347 0 20.71-3.832 28.78-11.543l92.16-88.062a41.662 41.662 0 0011.349-41.316zM200.742 163.35c8.488-10.671 13.578-24.171 13.578-38.867a62.762 62.762 0 00-.722-9.52c-4.582-30-30.5-52.98-61.778-52.98-31.285 0-57.199 22.98-61.78 52.98a64.314 64.314 0 00-.642 6.302 67.57 67.57 0 00-.078 3.218c0 29.723 20.754 54.582 48.559 60.918a62.586 62.586 0 0013.941 1.582c19.82 0 37.473-9.238 48.922-23.632zm0 0"/></svg>