<svg xmlns="http://www.w3.org/2000/svg" viewBox="0 0 480 480"><path d="M201.645 103.246c18.902 13.235 42.276 8.983 55.513-9.919 13.235-18.902 9.08-42.471-9.822-55.706s-42.475-9.082-55.71 9.82c-13.237 18.903-8.884 42.57 10.019 55.805zm188.292 26.63h-.02L269.979 130h-59.93c-.119 0-.234.016-.354.018-.389.007-.774.03-1.157.059a19.18 19.18 0 00-.95.091c-.309.038-.614.088-.919.14-.386.066-.772.141-1.159.23-.113.026-.227.039-.34.067l-65.629 16.507-31.115-52.246c-9.071 9.184-21.657 14.887-35.554 14.887a50.4 50.4 0 01-2.17-.055l42.092 70.676a20.005 20.005 0 0017.182 9.769 20.02 20.02 0 004.881-.606l55.18-13.879-.037 74.323a19.999 19.999 0 0019.998 20.009l59.995.01h.003a19.998 19.998 0 0020-19.999l.003-80.021 99.959-.104c11.046-.012 19.991-8.975 19.979-20.021-.011-11.039-8.962-19.979-20-19.979zm-82.539 170.26A19.998 19.998 0 00290 290h-80c-11.046 0-20 8.954-20 20s8.954 20 20 20h68.349l64.653 114.039c3.682 6.494 10.449 10.14 17.417 10.14 3.342-.001 6.73-.84 9.846-2.605 9.608-5.447 12.981-17.653 7.534-27.263l-70.401-124.175zm-78.133 64.492c-2.967-10.64-13.996-16.858-24.637-13.893-10.64 2.967-16.86 13.997-13.893 24.637l7.906 28.353-35.569 33.987c-7.985 7.631-8.273 20.291-.643 28.277a19.94 19.94 0 0014.463 6.183c4.966 0 9.94-1.839 13.814-5.54l44.237-42.271a19.997 19.997 0 005.447-19.832l-11.125-39.901zM96.357 78.409a29.869 29.869 0 006.516-18.657 30.42 30.42 0 00-.346-4.568c-2.2-14.4-14.64-25.431-29.654-25.431-15.016 0-27.454 11.03-29.654 25.431a30.352 30.352 0 00-.346 4.568c0 14.268 9.963 26.2 23.309 29.242 2.153.49 4.391.758 6.691.758 9.515 0 17.988-4.434 23.484-11.343z"/></svg>