<svg xmlns="http://www.w3.org/2000/svg" width="1000pt" height="1000pt" viewBox="0 0 1000 1000"><path d="M199.184 581.2a460.588 460.588 0 0039.03 33.382h61.747a221.845 221.845 0 015.672-4.945c41.156-34.82 75.32-36.727 128.012-36.727h.652l25.758.008 101.808-79.102c11.293-8.96 25.434-13.894 39.844-13.89h.004c17.137 0 33.246 6.676 45.355 18.789 22.883 22.898 25.114 58.996 5.414 84.504l-35.878 51.93c7.59.167 15.574.378 23.757.605 1.286.035 2.567.066 3.864.105 21.242.578 43.21 1.18 62.425 1.18 9.829 0 17.493-.168 23.536-.422 25.23-16.031 48.875-34.613 70.632-55.422l-.004.004a487.174 487.174 0 009.399-9.238c33.824-34.227 62.715-73.984 85.394-117.926a18.499 18.499 0 002.04-8.453 18.525 18.525 0 00-2.04-8.453 501.307 501.307 0 00-6.777-12.652c-.387-.704-.777-1.403-1.168-2.102-2.508-4.48-5.105-8.898-7.746-13.281-12.465-20.707-26.344-40.352-41.531-58.73a487.525 487.525 0 00-8-9.434c-.336-.383-.676-.754-1.012-1.137a473.202 473.202 0 00-19.867-21.313C741.82 250.285 654.477 204.2 557.535 191.008a436.101 436.101 0 00-18.039-2.07 425.131 425.131 0 00-31.531-1.75 427.26 427.26 0 00-69.281 4.344C294.492 212.48 171.938 306.27 104.394 437.128a18.463 18.463 0 00-2.039 8.453c0 2.906.68 5.82 2.04 8.453 22.683 43.942 51.57 83.7 85.394 117.926a486.974 486.974 0 009.395 9.238zm571.648-242.243c14.898 14.145 28.813 29.445 41.668 45.742v121.758c-12.855 16.3-26.77 31.602-41.668 45.742zm-464.96-21.473c22.667-7.558 45.757-13.722 69.108-18.543l-.007-28.101c0-11.504 9.324-20.836 20.828-20.836h.004c11.504 0 20.832 9.324 20.836 20.828l.004 20.996a619.328 619.328 0 0162.523-5.262V250c0-11.504 9.328-20.832 20.832-20.832 11.504 0 20.832 9.328 20.832 20.832v36.566a621.145 621.145 0 0162.5 5.262v-20.996c0-11.504 9.332-20.832 20.836-20.832 11.504 0 20.832 9.328 20.832 20.832v28.113c23.344 4.817 46.426 10.98 69.086 18.535 10.918 3.641 16.816 15.438 13.18 26.352-3.641 10.914-15.438 16.816-26.352 13.18A563.583 563.583 0 00625 341.535v54.297c0 11.504-9.328 20.836-20.832 20.836-11.504 0-20.836-9.332-20.836-20.836v-61.934a577.634 577.634 0 00-62.5-5.664v67.598c0 11.504-9.328 20.836-20.832 20.836-11.504 0-20.832-9.332-20.832-20.836v-67.598a577.914 577.914 0 00-62.516 5.66l.016 61.934c0 11.504-9.324 20.836-20.832 20.84h-.004c-11.5 0-20.828-9.328-20.832-20.832l-.012-54.309a565.223 565.223 0 00-55.941 15.489 20.871 20.871 0 01-6.59 1.074c-8.727 0-16.852-5.52-19.762-14.254-3.64-10.914 2.262-22.715 13.176-26.352zM187.5 384.704c12.855-16.298 26.77-31.599 41.668-45.743v213.238c-14.898-14.144-28.813-29.445-41.668-45.742zm732.992 256.444v-.003l-.004-.008c-.265-1-.586-1.977-.937-2.93-.106-.277-.223-.543-.336-.816a33.738 33.738 0 00-.852-1.961 25.746 25.746 0 00-.472-.926 31.076 31.076 0 00-.973-1.727 32.195 32.195 0 00-.535-.867 32.55 32.55 0 00-1.23-1.746c-.157-.21-.305-.43-.473-.64a32.321 32.321 0 00-1.883-2.18l-.395-.387a32.446 32.446 0 00-1.68-1.598c-.25-.218-.511-.425-.773-.64-.48-.395-.972-.785-1.476-1.153a32.826 32.826 0 00-.883-.62 31.217 31.217 0 00-1.57-.993c-.293-.176-.582-.355-.883-.523a34.548 34.548 0 00-1.938-.977c-.207-.098-.402-.207-.613-.297a28.285 28.285 0 00-2.637-1.02c-.25-.085-.508-.152-.758-.226a33.061 33.061 0 00-2-.558c-.336-.079-.68-.145-1.015-.215a30.065 30.065 0 00-1.852-.32c-.355-.047-.71-.098-1.062-.133a27.562 27.562 0 00-1.973-.137c-.312-.016-.629-.04-.945-.043a30.324 30.324 0 00-2.79.09l-.519.054c-.793.079-1.586.184-2.383.325-.261.043-.523.093-.785.14-.953.192-1.91.414-2.863.7-40.684 12.164-91.563 38.917-124.188 46.394-.582.133-1.199.262-1.832.383-.199.043-.41.078-.617.117-.449.082-.91.164-1.387.242-.246.043-.492.078-.742.121-.488.075-.996.149-1.508.22-.226.034-.457.065-.687.097-.746.097-1.508.195-2.3.285l-.02.004c-.801.09-1.63.176-2.477.254-.262.027-.531.05-.797.078-.597.05-1.203.105-1.82.16a1014.7 1014.7 0 01-2.84.215c-.305.02-.605.043-.914.062-.879.055-1.766.11-2.676.164l-.308.016c-.93.05-1.875.098-2.836.14a299.53 299.53 0 01-3.117.129c-.415.02-.829.036-1.25.047-.665.024-1.34.043-2.016.067-.422.012-.84.027-1.27.039-.87.023-1.757.043-2.644.062-.395.008-.785.02-1.18.028-.898.02-1.793.035-2.71.047-.513.011-1.032.015-1.552.023-.636.008-1.273.02-1.921.023-.56.008-1.122.012-1.692.016-.617.008-1.234.012-1.855.016-.582.004-1.164.008-1.75.008-.625.003-1.262.003-1.895.003-.523.004-1.035.004-1.558.004h-.391a894.4 894.4 0 01-7.48-.03c-2.012-.017-4.044-.036-6.102-.06-.45-.003-.902-.011-1.352-.015-1.972-.027-3.965-.055-5.968-.09-.5-.008-1.004-.016-1.512-.027-1.965-.035-3.945-.07-5.93-.11l-1.648-.035-4.442-.094.004-.004c-.496-.011-.992-.019-1.488-.035-.598-.011-1.191-.023-1.79-.039l-5.878-.14c-.898-.028-1.79-.047-2.684-.07-1.574-.044-3.144-.083-4.714-.126-15.899-.422-31.622-.89-45.68-1.156l-.242-.004c-2.149-.039-4.258-.07-6.32-.101l-.477-.008c-1.989-.028-3.934-.047-5.832-.063-.192-.004-.383-.004-.57-.004a891.343 891.343 0 00-5.481-.027h-.633c-.707 0-1.398.004-2.086.008h-.824c-.945.008-1.871.012-2.785.023l-.5.008c-.727.008-1.442.02-2.14.031-.348.004-.684.012-1.024.02l-1.528.035c-.378.008-.746.02-1.113.031-.445.012-.887.024-1.32.04a1244.093 1244.093 0 00-2.375.086c-.332.015-.672.03-1 .042-.45.024-.883.047-1.317.067-.28.015-.566.03-.84.047-.687.039-1.359.082-2.007.128l-.477.016-.25-.016-.402-.027-.48-.07-.383-.082-.454-.133-.359-.129-.418-.2-.328-.171-.39-.25-.294-.211-.351-.3-.262-.243-.308-.344-.223-.273-.266-.387-.183-.293-.22-.426-.144-.304-.16-.461-.101-.313-.11-.492-.054-.308-.04-.528-.015-.3.035-.567.024-.273c.027-.215.078-.422.132-.633l.043-.207c.074-.262.172-.524.285-.782l.02-.05c.121-.266.262-.532.43-.793l.011-.028 63.832-92.382c10.528-13.07 9.512-31.98-2.355-43.852-.77-.77-1.57-1.492-2.399-2.172-.269-.223-.558-.414-.835-.629a29.416 29.416 0 00-1.72-1.265c-.343-.23-.694-.426-1.042-.641a32.321 32.321 0 00-1.656-.98c-.375-.208-.762-.383-1.145-.57-.555-.27-1.105-.54-1.668-.774-.398-.172-.808-.317-1.21-.473a33.538 33.538 0 00-1.696-.594 35.44 35.44 0 00-1.258-.36 29.773 29.773 0 00-3.008-.667 33.564 33.564 0 00-3.05-.383 33.122 33.122 0 00-1.77-.086c-.266-.008-.531-.039-.797-.039-.187 0-.379.02-.566.024a35.32 35.32 0 00-2.848.175 33.498 33.498 0 00-4.059.68 32.39 32.39 0 00-1.578.418c-.394.113-.789.223-1.18.348-.53.175-1.058.379-1.585.578-.371.144-.746.281-1.114.441-.547.23-1.082.496-1.617.762-.336.168-.676.32-1.008.496-.593.32-1.175.68-1.757 1.043-.254.16-.52.3-.774.469-.828.55-1.64 1.133-2.433 1.765L475.472 600.5a16.666 16.666 0 01-10.414 3.652l-30.766-.007h-2.621c-.957.003-1.918.003-2.856.003l-2.562.012-2.45.012c-.913.008-1.808.02-2.706.027-.711.008-1.434.012-2.133.02-.902.011-1.781.027-2.664.043l-2.055.035c-.887.02-1.754.043-2.625.062-.637.02-1.281.032-1.91.051-.902.024-1.781.059-2.664.094-.582.02-1.172.039-1.746.062-.887.036-1.758.079-2.63.125-.55.028-1.105.047-1.648.079-.87.05-1.722.109-2.578.16-.523.035-1.054.066-1.574.105-.851.059-1.683.133-2.52.203-.503.04-1.019.078-1.519.125-.84.074-1.66.16-2.48.246-.485.051-.973.098-1.45.149-.824.094-1.64.199-2.453.3-.46.06-.926.114-1.379.172-.808.11-1.601.235-2.394.356-.45.07-.906.129-1.348.207-.805.129-1.594.277-2.387.418-.421.078-.851.144-1.27.226-.804.153-1.593.325-2.382.493-.402.086-.809.16-1.207.25-.797.18-1.586.375-2.375.57-.379.094-.766.18-1.148.277-.782.203-1.555.426-2.332.645-.38.105-.758.207-1.137.316-.762.223-1.52.473-2.277.715-.383.125-.762.235-1.141.363-.754.254-1.504.528-2.254.797-.375.137-.75.266-1.125.403-.754.285-1.504.59-2.25.894-.367.145-.734.285-1.094.438-.75.312-1.5.652-2.246.988-.36.16-.723.312-1.082.48-.75.348-1.504.723-2.254 1.094-.347.172-.703.336-1.05.516-.755.383-1.512.797-2.262 1.203-.348.191-.696.363-1.043.558-.758.422-1.52.875-2.282 1.325-.34.203-.683.39-1.023.597-.758.457-1.52.946-2.281 1.43-.344.223-.692.426-1.035.652-.758.496-1.524 1.02-2.286 1.543-.351.239-.703.47-1.054.711-.375.266-.754.551-1.13.82-.386.274-.769.555-1.155.837-.36.261-.72.507-1.079.777-.746.562-1.507 1.156-2.261 1.742-.38.297-.754.574-1.137.875-.758.602-1.52 1.234-2.285 1.863-.387.317-.77.621-1.16.946-.79.656-1.582 1.355-2.38 2.043-.374.324-.741.629-1.116.96-.801.708-1.614 1.45-2.426 2.188-.379.344-.75.672-1.133 1.02a258.49 258.49 0 00-2.902 2.738c-.242.23-.477.445-.723.68a265.689 265.689 0 00-3.703 3.636H142.047c-8.05 0-14.774 5.711-16.324 13.305a16.416 16.416 0 00-.34 3.36l-.035 133.324c0 1.027.105 2.027.28 2.996l.056.363c1.418 6.926 7.132 12.277 14.234 13.168l.39.059c.305.03.622.03.93.046.262.012.52.04.782.04l375.882-.118a16.76 16.76 0 004.297-.562c.469-.13.93-.274 1.387-.438L748.77 750.34c.89-.238 1.746-.547 2.582-.93 12.378-5.68 106.886-50.219 152.035-71.504 8.933-4.21 15.07-12.164 17.261-21.242.563-2.344.891-4.754.907-7.207a31.74 31.74 0 00-1.063-8.309zm0 0"/></svg>