<svg xmlns="http://www.w3.org/2000/svg" viewBox="0 0 480 480"><path d="M114.344 295h29.638c21.002-19.017 37.723-20.004 64.168-20.004h.313l12.364.004 48.867-37.969a30.876 30.876 0 0119.126-6.667h.001c8.226 0 15.958 3.204 21.771 9.02a30.728 30.728 0 012.598 40.561l-17.222 24.927c4.217.092 8.678.214 13.26.34 10.197.278 20.742.566 29.964.566 4.719 0 8.398-.08 11.297-.201 33.204-21.096 60.699-51.404 79.402-87.641a8.9 8.9 0 000-8.114C392.963 138.276 321.774 89.814 240 89.814S87.038 138.276 50.11 209.821a8.9 8.9 0 000 8.115c15.774 30.561 37.803 56.905 64.234 77.064zm32.474-142.487a290.715 290.715 0 0133.165-8.899l.004-13.616c.002-5.521 4.479-9.997 10-9.997h.003c5.523.002 9.999 4.48 9.997 10.003l-.003 10.196a297.302 297.302 0 0130.021-2.527l.005-17.675c.002-5.521 4.479-9.997 10-9.997h.003c5.522.002 9.999 4.48 9.997 10.003l-.005 17.67a297.628 297.628 0 0129.992 2.526v-10.202c0-5.522 4.478-10 10-10s10 4.478 10 10v13.616a290.699 290.699 0 0133.164 8.899c5.239 1.747 8.071 7.41 6.325 12.649-1.747 5.238-7.409 8.072-12.649 6.325a270.9 270.9 0 00-26.84-7.43V190c0 5.522-4.478 10-10 10s-10-4.478-10-10v-29.607a277.392 277.392 0 00-29.998-2.719l-.01 32.329c-.002 5.521-4.479 9.997-10 9.997h-.003c-5.522-.002-9.999-4.48-9.997-10.003l.01-32.324a277.305 277.305 0 00-30.022 2.72l-.01 29.61c-.002 5.521-4.479 9.997-10 9.997h-.003c-5.523-.002-9.999-4.48-9.997-10.003l.009-25.938a270.782 270.782 0 00-26.834 7.429 9.979 9.979 0 01-3.163.516 10.004 10.004 0 01-3.161-19.491zm295.018 155.239v-.002l-.002-.004a15.676 15.676 0 00-.45-1.406c-.05-.134-.107-.262-.16-.393a15.507 15.507 0 00-.41-.94 12.38 12.38 0 00-.226-.445 14.595 14.595 0 00-.468-.829c-.084-.14-.168-.28-.257-.417a15.904 15.904 0 00-.589-.837c-.076-.102-.147-.207-.227-.307a15.356 15.356 0 00-.904-1.047l-.189-.185a15.366 15.366 0 00-.807-.767c-.121-.105-.246-.205-.371-.308a15.89 15.89 0 00-.71-.554 15.312 15.312 0 00-1.176-.774c-.141-.084-.28-.17-.424-.25a15.002 15.002 0 00-.931-.469c-.098-.047-.193-.1-.293-.143a14.583 14.583 0 00-1.266-.49c-.121-.041-.244-.072-.365-.109a15.857 15.857 0 00-.96-.267c-.161-.038-.325-.07-.487-.103a14.112 14.112 0 00-.889-.154c-.17-.023-.34-.047-.51-.064a14.125 14.125 0 00-.946-.066c-.151-.007-.302-.018-.454-.02-.444-.005-.89.008-1.338.043l-.25.027a15.011 15.011 0 00-1.52.223c-.459.092-.918.198-1.376.335-19.527 5.839-43.95 18.681-59.609 22.27-.279.064-.575.125-.88.184-.096.02-.197.037-.295.055-.217.04-.438.079-.667.117-.117.02-.236.038-.356.057a37.793 37.793 0 01-1.054.152c-.357.048-.724.094-1.104.137l-.009.002c-.384.043-.782.084-1.188.123-.126.013-.256.024-.384.036-.286.026-.577.052-.873.077l-.461.037c-.296.022-.598.045-.903.066-.146.01-.29.021-.438.03-.421.027-.848.054-1.284.079l-.149.008a163.107 163.107 0 01-3.457.152l-.968.031-.608.019c-.419.012-.844.021-1.271.031l-.566.012c-.43.01-.861.018-1.3.024l-.745.011-.922.011a211.477 211.477 0 01-1.704.015l-.839.004c-.301.002-.605.002-.91.002l-.748.002-.188-.001a460.4 460.4 0 01-3.088-.011l-.502-.004a595.527 595.527 0 01-3.578-.036c-.947-.013-1.902-.026-2.864-.042l-.726-.013c-.943-.017-1.893-.034-2.846-.054l-.792-.016-2.132-.046.002-.001-.713-.016-.86-.02-2.821-.068-1.289-.033-2.262-.059c-7.632-.203-15.178-.428-21.926-.555l-.117-.002c-1.031-.02-2.043-.035-3.033-.05l-.229-.003c-.955-.014-1.888-.023-2.8-.031l-.274-.002c-.9-.007-1.777-.011-2.631-.012h-.304c-.338 0-.67.002-1 .003l-.396.001c-.453.003-.899.006-1.337.011l-.24.003-1.027.016c-.167.002-.328.006-.492.009l-.733.016-.534.015a116.287 116.287 0 00-1.165.038l-.608.023-.48.021-.632.032-.403.021c-.33.02-.653.04-.964.062l-.229.009-.121-.009-.192-.013-.231-.034-.184-.039-.218-.064-.171-.062-.202-.094-.157-.083-.187-.12-.141-.101-.169-.145-.125-.117-.148-.165-.108-.13-.127-.187-.089-.14-.104-.204-.069-.146-.078-.222-.049-.149-.051-.237-.027-.148-.019-.254-.008-.144.018-.271.011-.132c.014-.102.038-.202.063-.304l.021-.099c.036-.126.083-.251.138-.375l.009-.024c.06-.133.13-.265.212-.394l30.638-44.343c5.054-6.275 4.567-15.351-1.129-21.049a15.86 15.86 0 00-1.152-1.042c-.13-.107-.269-.2-.401-.303a15.5 15.5 0 00-.826-.608c-.164-.109-.333-.204-.5-.307-.262-.162-.524-.325-.794-.471-.181-.098-.367-.184-.551-.273-.265-.129-.529-.258-.8-.371-.191-.082-.388-.152-.582-.227a16.3 16.3 0 00-.812-.285 18.842 18.842 0 00-1.43-.375 16.464 16.464 0 00-2.082-.302 16.011 16.011 0 00-.85-.041c-.128-.004-.255-.019-.382-.019-.091 0-.182.01-.272.011a18.233 18.233 0 00-1.367.084 14.827 14.827 0 00-1.358.203c-.197.038-.395.078-.59.123-.254.06-.506.129-.758.201-.189.054-.379.107-.566.168-.256.084-.508.181-.761.277-.179.069-.358.135-.535.211-.263.112-.52.239-.776.367-.162.079-.325.153-.484.238-.285.154-.564.326-.843.5-.123.076-.25.145-.371.225-.398.264-.789.544-1.169.848l-50.743 39.427a8 8 0 01-4.999 1.753l-14.767-.004h-.31l-.949.001-1.37.002-1.231.005c-.393.002-.789.003-1.175.006-.439.003-.867.008-1.299.012l-1.024.01c-.433.006-.854.014-1.278.021-.329.005-.663.01-.987.017-.426.008-.842.02-1.26.03l-.916.023c-.433.013-.855.029-1.28.045-.278.01-.562.019-.837.03-.427.018-.844.039-1.263.06-.263.014-.53.024-.79.039-.418.023-.827.051-1.238.077-.252.017-.507.031-.756.049-.408.029-.808.064-1.209.098-.243.02-.49.037-.73.06-.402.036-.796.078-1.191.119-.231.024-.466.046-.695.071-.396.045-.787.095-1.178.145-.221.028-.443.053-.661.082-.388.053-.769.113-1.149.171-.216.033-.435.062-.648.098-.386.062-.765.133-1.145.201-.203.037-.409.07-.61.109-.385.073-.764.155-1.144.236-.192.041-.388.078-.579.121-.383.085-.761.18-1.139.273-.183.045-.368.087-.551.134-.376.097-.748.203-1.12.309-.182.051-.364.099-.545.151-.367.108-.73.228-1.094.344-.183.059-.366.112-.548.173-.362.122-.722.254-1.081.384-.18.065-.361.126-.54.192a43.38 43.38 0 00-1.081.43c-.175.07-.351.136-.525.209-.36.151-.719.314-1.078.476-.172.077-.346.149-.518.229-.361.168-.722.348-1.082.526-.168.083-.338.161-.506.247-.361.185-.724.382-1.085.578-.167.091-.334.175-.501.268-.364.203-.729.42-1.095.636-.163.097-.327.187-.491.286-.363.22-.729.454-1.094.687-.166.106-.332.205-.498.313-.364.238-.73.49-1.096.74-.169.115-.337.225-.506.342-.364.256-.73.525-1.098.794-.172.126-.344.245-.517.374-.359.27-.723.554-1.085.836-.183.142-.363.275-.547.421-.363.288-.729.592-1.096.893-.186.153-.37.298-.557.454-.378.316-.76.65-1.142.98-.179.156-.356.303-.536.462-.385.339-.775.696-1.165 1.051-.182.165-.36.321-.543.489-.46.425-.927.868-1.394 1.314-.116.111-.229.214-.346.326-.586.564-1.179 1.146-1.778 1.746H68.183a8.002 8.002 0 00-8 7.998l-.017 63.997c0 .492.051.972.136 1.438l.026.174a8.003 8.003 0 006.833 6.32l.188.028c.146.015.297.016.446.022.125.006.248.019.374.019l180.424-.055a8.007 8.007 0 002.728-.481l108.088-29.29a7.862 7.862 0 001.239-.448c5.942-2.726 51.307-24.104 72.977-34.321 4.289-2.021 7.235-5.838 8.286-10.196.271-1.125.427-2.282.435-3.459a15.229 15.229 0 00-.51-3.988z"/></svg>