<svg xmlns="http://www.w3.org/2000/svg" viewBox="0 0 480 480"><path d="M417.792 108.129c-9.05-6.337-21.519-4.136-27.855 4.911l-34.415 49.149-32.758-22.938-.008-.006-36.866-25.813-61.433-43.016a20.003 20.003 0 00-27.854 4.912l-45.886 65.532c-6.336 9.049-4.137 21.52 4.911 27.854 9.049 6.337 21.52 4.136 27.854-4.911l34.414-49.149 16.377 11.467-57.377 81.871a19.998 19.998 0 004.904 27.859l49.181 34.449a19.996 19.996 0 0014.946 3.315 19.999 19.999 0 0012.912-8.225l57.356-81.908 32.767 22.943a19.907 19.907 0 0011.454 3.619c6.305-.001 12.51-2.975 16.4-8.53l45.887-65.532c6.336-9.046 4.137-21.517-4.911-27.853zm-149.13 212.979l-98.299-68.829c-9.05-6.337-21.52-4.136-27.854 4.911-6.336 9.048-4.137 21.52 4.911 27.854l81.924 57.363-57.319 81.945c-6.331 9.052-4.126 21.521 4.925 27.853a19.91 19.91 0 0011.446 3.613c6.309 0 12.516-2.977 16.406-8.538l68.777-98.326c6.329-9.048 4.128-21.513-4.917-27.846zm-99.947 3.263c-9.05-6.336-21.519-4.136-27.854 4.911l-68.829 98.299c-6.336 9.048-4.137 21.52 4.911 27.854a19.907 19.907 0 0011.454 3.619c6.305 0 12.51-2.975 16.4-8.53l68.829-98.299c6.336-9.047 4.137-21.519-4.911-27.854zm132.944-224.355c18.902 13.235 42.276 8.983 55.512-9.919s9.081-42.471-9.821-55.706-42.476-9.082-55.711 9.82-8.882 42.569 10.02 55.805z"/></svg>