<svg xmlns="http://www.w3.org/2000/svg" width="1000pt" height="1000pt" viewBox="0 0 1000 1000"><path d="M870.398 225.27c-18.851-13.204-44.828-8.618-58.03 10.23l-71.696 102.395-68.246-47.79-.016-.011-76.805-53.778L467.617 146.7a41.662 41.662 0 00-58.027 10.234l-95.598 136.524c-13.199 18.852-8.617 44.836 10.235 58.031 18.851 13.203 44.832 8.617 58.027-10.23l71.695-102.395 34.121 23.89-119.535 170.563a41.678 41.678 0 00-6.918 31.137 41.673 41.673 0 0017.133 26.902l102.46 71.77a41.656 41.656 0 0031.138 6.906 41.646 41.646 0 0026.898-17.136l119.492-170.641 68.266 47.797a41.47 41.47 0 0023.863 7.539c13.137 0 26.063-6.195 34.168-17.77l95.598-136.523c13.199-18.848 8.617-44.828-10.235-58.027zM559.711 668.977L354.92 525.582c-18.85-13.203-44.831-8.617-58.026 10.23-13.2 18.852-8.622 44.833 10.23 58.028l170.676 119.508-119.414 170.718c-13.192 18.86-8.598 44.836 10.258 58.028a41.485 41.485 0 0023.847 7.527c13.145 0 26.074-6.203 34.18-17.789l143.285-204.844c13.184-18.851 8.598-44.82-10.246-58.011zm-208.223 6.796c-18.851-13.199-44.828-8.617-58.027 10.23l-143.395 204.79c-13.199 18.852-8.617 44.836 10.23 58.031a41.48 41.48 0 0023.864 7.54c13.137 0 26.063-6.2 34.168-17.774L361.723 733.8c13.199-18.847 8.617-44.827-10.235-58.027zm276.969-467.406c39.379 27.574 88.074 18.715 115.648-20.664 27.575-39.379 18.918-88.48-20.46-116.055-39.38-27.574-88.493-18.921-116.063 20.457-27.574 39.38-18.504 88.688 20.875 116.262zm0 0"/></svg>