<svg xmlns="http://www.w3.org/2000/svg" viewBox="0 0 480 480"><path d="M84.978 274.133c5.62 3.936 13.365 2.568 17.3-3.05l21.373-30.525 10.172 7.122-35.635 50.847a12.417 12.417 0 003.045 17.303l30.545 21.396a12.414 12.414 0 009.281 2.059 12.418 12.418 0 008.02-5.107l35.623-50.87 20.35 14.249a12.359 12.359 0 007.113 2.247 12.41 12.41 0 0010.187-5.298l28.499-40.699c3.935-5.62 2.568-13.365-3.051-17.3-5.62-3.936-13.364-2.568-17.3 3.05l-21.374 30.525-20.345-14.246-.005-.003-21.937-15.36-39.113-27.388a12.425 12.425 0 00-17.3 3.049l-28.498 40.7c-3.935 5.619-2.569 13.364 3.05 17.299zm70.202 94.646l-61.05-42.747c-5.621-3.936-13.365-2.568-17.3 3.05-3.935 5.619-2.569 13.365 3.051 17.3l50.88 35.626-35.6 50.894c-3.932 5.622-2.562 13.367 3.059 17.299a12.36 12.36 0 007.109 2.244c3.918 0 7.773-1.849 10.189-5.303l42.715-61.067c3.932-5.621 2.565-13.362-3.053-17.296zm-62.074 2.027c-5.621-3.935-13.365-2.568-17.3 3.051l-42.748 61.05c-3.935 5.619-2.568 13.365 3.051 17.3a12.359 12.359 0 007.113 2.247c3.916 0 7.77-1.847 10.186-5.298l42.748-61.05c3.935-5.62 2.569-13.366-3.05-17.3zm76.344-173.998c-8.22 11.739-5.517 26.438 6.224 34.658 11.739 8.221 26.256 5.579 34.477-6.16 8.22-11.739 5.64-26.377-6.101-34.598-11.74-8.22-26.379-5.641-34.6 6.1zm122.121 198.624l39.115-55.863c4.792-6.843 3.129-16.274-3.714-21.065l-29.132-20.398c-6.844-4.792-16.274-3.13-21.065 3.714-4.792 6.843-3.129 16.274 3.714 21.066l16.741 11.722-19.688 28.117-24.923-58.115c-1.525-3.558-4.262-6.215-7.515-7.731l-6.371 9.099a32.423 32.423 0 01-13.667 11.139l45.127 105.226c2.459 5.733 8.042 9.167 13.909 9.167 1.989 0 4.01-.394 5.954-1.228 7.678-3.293 11.232-12.186 7.939-19.863l-6.424-14.987zm97.834-192.426c-8.193 11.702-5.499 26.353 6.202 34.546 11.702 8.193 26.171 5.562 34.364-6.14 8.193-11.702 5.621-26.291-6.08-34.484s-26.293-5.623-34.486 6.078zM179.071 326.213l-10.576 15.103c1.58-.169 3.183-.26 4.807-.26 24.797 0 44.97 20.174 44.97 44.97 0 24.797-20.173 44.97-44.97 44.97a44.685 44.685 0 01-19.097-4.268l-8.759 12.522a59.708 59.708 0 0027.855 6.871c33.137 0 60.096-26.959 60.096-60.096 0-31.19-23.887-56.898-54.326-59.812zm210.834-.283c-2.914 0-5.777.22-8.582.622l-6.473-8.626v-82.984c0-8.354-6.771-15.126-15.126-15.126H258.796c.157.106.321.199.478.309 14.641 10.251 18.213 30.507 7.961 45.15l-10.558 15.077h87.922v42.618c0 3.274 1.062 6.46 3.027 9.079l5.109 6.808c-13.948 11.015-22.926 28.058-22.926 47.169 0 33.137 26.959 60.096 60.096 60.096 33.136 0 60.095-26.959 60.095-60.096s-26.959-60.096-60.095-60.096zm0 105.065c-24.797 0-44.971-20.173-44.971-44.97 0-14.173 6.598-26.827 16.875-35.076l15.016 20.011a15.106 15.106 0 0012.11 6.048 15.06 15.06 0 009.067-3.028c6.682-5.014 8.033-14.495 3.02-21.177l-8.77-11.686c23.709 1.226 42.621 20.899 42.621 44.908.001 24.797-20.172 44.97-44.968 44.97zM318.851 81.767c12.772-10.718 14.28-27.945 3.562-40.719s-27.948-14.283-40.721-3.565c-12.773 10.719-14.161 28.052-3.443 40.825s27.829 14.176 40.602 3.459zm-135.015 18.962l33.213-27.868 9.285 11.065-55.359 46.414a14.416 14.416 0 00-2.521 2.739c7.129 3.423 14.384 5.78 25.611 5.78a88.89 88.89 0 004.43-.114c17.984-.901 25.647-6.038 36.254-13.147 11.055-7.41 24.489-16.41 47.919-19.502L229.901 43.21c-5.131-6.114-14.248-6.911-20.361-1.781l-44.283 37.157c-6.114 5.131-6.912 14.247-1.781 20.361 5.129 6.115 14.247 6.912 20.36 1.782zm-81.225 42.875c21.979-1.103 33.119 4.845 44.913 11.14 12.398 6.619 26.452 14.121 52.416 12.819 25.965-1.302 39.198-10.172 50.873-17.997 11.105-7.444 21.595-14.476 43.576-15.577 21.981-1.103 33.122 4.845 44.916 11.141 12.399 6.618 26.453 14.12 52.418 12.818a7.201 7.201 0 00-.722-14.383c-21.98 1.102-33.12-4.845-44.915-11.141-12.399-6.619-26.453-14.121-52.418-12.819s-39.198 10.172-50.873 17.998c-11.105 7.443-21.596 14.475-43.577 15.576-21.979 1.103-33.118-4.845-44.912-11.14-12.399-6.619-26.453-14.121-52.417-12.819a7.202 7.202 0 00.722 14.384z"/></svg>