<svg xmlns="http://www.w3.org/2000/svg" width="1000pt" height="1000pt" viewBox="0 0 1000 1000"><path d="M177.04 571.11c11.706 8.199 27.843 5.35 36.038-6.352l44.527-63.594L278.797 516l-74.238 105.93a25.885 25.885 0 00-4.297 19.34 25.898 25.898 0 0010.64 16.71l63.637 44.575a25.858 25.858 0 0019.332 4.289 25.873 25.873 0 0016.711-10.64l74.215-105.977 42.394 29.683a25.756 25.756 0 0014.82 4.68c8.157 0 16.188-3.848 21.223-11.035l59.371-84.79c8.2-11.71 5.352-27.843-6.355-36.042-11.707-8.2-27.84-5.352-36.043 6.355l-44.527 63.594-42.387-29.68-.008-.008-45.703-32-81.484-57.058a25.883 25.883 0 00-36.043 6.351l-59.371 84.793c-8.2 11.707-5.352 27.844 6.355 36.04zm146.253 197.18l-127.188-89.056c-11.71-8.199-27.843-5.351-36.042 6.352-8.2 11.707-5.352 27.844 6.355 36.043l106 74.223-74.164 106.027c-8.195 11.71-5.34 27.848 6.371 36.039a25.754 25.754 0 0014.809 4.676c8.164 0 16.195-3.852 21.23-11.047l88.988-127.223c8.192-11.71 5.344-27.84-6.359-36.035zm-129.32 4.222c-11.711-8.196-27.844-5.348-36.043 6.355L68.87 906.055c-8.2 11.707-5.351 27.843 6.356 36.043a25.756 25.756 0 0014.82 4.68c8.156 0 16.187-3.848 21.219-11.036l89.058-127.187c8.2-11.707 5.352-27.848-6.351-36.043zM353.02 410.016c-17.125 24.457-11.493 55.082 12.968 72.207 24.457 17.125 54.7 11.62 71.828-12.836 17.125-24.457 11.75-54.953-12.71-72.078-24.461-17.125-54.958-11.754-72.086 12.707zm254.421 413.8l81.489-116.382c9.984-14.254 6.52-33.903-7.739-43.883L620.5 621.055c-14.258-9.985-33.902-6.52-43.887 7.738-9.98 14.254-6.515 33.902 7.739 43.887l34.878 24.422-41.02 58.574-51.92-121.07c-3.177-7.415-8.88-12.95-15.657-16.11l-13.274 18.957c-7.254 10.363-17.175 18.305-28.472 23.207l94.015 219.223c5.121 11.941 16.754 19.097 28.977 19.097 4.144 0 8.355-.82 12.406-2.558 15.992-6.863 23.399-25.387 16.54-41.383zm203.82-400.886c-17.07 24.379-11.456 54.902 12.919 71.968 24.379 17.07 54.523 11.59 71.593-12.789 17.067-24.379 11.711-54.773-12.668-71.843-24.375-17.067-54.777-11.715-71.843 12.664zM373.067 679.61l-22.035 31.464a94.293 94.293 0 0110.016-.539c51.66 0 93.687 42.028 93.687 93.688 0 51.66-42.027 93.687-93.687 93.687a93.067 93.067 0 01-39.785-8.894l-18.25 26.09a124.409 124.409 0 0058.031 14.312c69.035 0 125.2-56.164 125.2-125.2 0-64.98-49.763-118.538-113.177-124.609zm439.235-.59c-6.07 0-12.035.46-17.88 1.296l-13.484-17.968V489.46c0-17.402-14.105-31.512-31.511-31.512H539.16c.324.223.668.414.992.645 30.504 21.355 37.946 63.554 16.586 94.062l-21.996 31.41h183.172v88.79a31.52 31.52 0 006.309 18.914l10.64 14.183c-29.058 22.945-47.761 58.453-47.761 98.27 0 69.035 56.164 125.199 125.199 125.199S937.5 873.258 937.5 804.222c0-69.038-56.164-125.202-125.2-125.202zm0 218.886c-51.66 0-93.688-42.027-93.688-93.687 0-29.528 13.746-55.89 35.157-73.074l31.28 41.687c6.196 8.25 15.653 12.602 25.231 12.602a31.376 31.376 0 0018.89-6.309c13.919-10.445 16.735-30.2 6.29-44.117l-18.27-24.348c49.395 2.555 88.793 43.54 88.793 93.559.004 51.66-42.023 93.687-93.683 93.687zM664.273 170.348c26.61-22.328 29.75-58.22 7.422-84.832-22.332-26.614-58.226-29.754-84.836-7.426-26.613 22.332-29.504 58.441-7.175 85.05 22.332 26.614 57.98 29.536 84.59 7.208zm-281.28 39.504l69.19-58.059 19.344 23.055L356.2 271.543a29.912 29.912 0 00-5.254 5.703c14.852 7.133 29.97 12.043 53.356 12.043 2.969 0 6.074-.078 9.23-.238 37.465-1.875 53.43-12.578 75.528-27.387 23.03-15.437 51.02-34.187 99.832-40.629L478.96 90.02c-10.691-12.735-29.684-14.399-42.418-3.711l-92.258 77.414c-12.738 10.687-14.398 29.68-3.71 42.418 10.687 12.738 29.683 14.398 42.417 3.71zm-169.22 89.324c45.79-2.297 68.997 10.094 93.567 23.207 25.832 13.789 55.11 29.418 109.203 26.707 54.094-2.711 81.66-21.192 105.984-37.492 23.137-15.512 44.989-30.16 90.782-32.453 45.796-2.297 69.007 10.093 93.578 23.21 25.828 13.786 55.11 29.415 109.203 26.704 8.273-.414 14.644-7.457 14.23-15.735-.414-8.273-7.46-14.644-15.734-14.23-45.793 2.297-69-10.094-93.574-23.211-25.832-13.79-55.11-29.418-109.203-26.707-54.094 2.715-81.664 21.191-105.985 37.496-23.137 15.508-44.992 30.156-90.785 32.45-45.793 2.3-68.996-10.095-93.566-23.208-25.832-13.789-55.114-29.418-109.203-26.707-8.278.414-14.649 7.461-14.23 15.734.413 8.274 7.456 14.649 15.733 14.235zm0 0"/></svg>