<svg xmlns="http://www.w3.org/2000/svg" viewBox="0 0 480 480"><path d="M370.257 170h-38.448l-67.651-47.365-18.41-12.893-.042-.026-16.349-11.446a20.044 20.044 0 00-3.435-1.931l-93.387-40.975c-10.115-4.438-21.913.165-26.351 10.278-4.438 10.115.164 21.913 10.278 26.351l89.728 39.369-57.134 81.59a20.002 20.002 0 004.912 27.854l49.148 34.414a20.004 20.004 0 0027.856-4.913l57.355-81.922 25.705 17.997a19.997 19.997 0 0011.471 3.616h44.754c11.046 0 20-8.954 20-20s-8.954-19.998-20-19.998zM246.468 331.544a20.026 20.026 0 00-4.996-5.032l-99.001-69.321c-9.049-6.337-21.519-4.136-27.854 4.911-6.336 9.048-4.137 21.52 4.911 27.854l96.05 67.255 63.512 93.004c3.881 5.629 10.13 8.652 16.485 8.652a19.91 19.91 0 0011.333-3.535c9.095-6.268 11.386-18.723 5.117-27.818l-65.557-95.97zm-108.414-5.041c-10.104-4.47-21.913.097-26.382 10.198l-19.598 48.438-55.163 36.809c-9.188 6.131-11.667 18.55-5.536 27.737 3.855 5.777 10.194 8.901 16.655 8.901 3.814 0 7.672-1.09 11.082-3.365l60-40.036a19.998 19.998 0 007.189-8.545l21.95-53.755c4.47-10.102-.096-21.913-10.197-26.382zm135.717-221.608c18.902 13.235 42.276 8.983 55.513-9.919 13.235-18.902 9.08-42.47-9.822-55.706-18.902-13.235-42.475-9.082-55.71 9.82-13.237 18.902-8.884 42.569 10.019 55.805zM459.962 170h-35.226c-8.284 0-15 6.716-15 15v5h65.226v-5c0-8.284-6.716-15-15-15z"/></svg>