<svg xmlns="http://www.w3.org/2000/svg" viewBox="0 0 480 480"><path d="M240 40C129.54 40 40 129.54 40 240c0 110.44 89.54 200 200 200 110.44 0 200-89.56 200-200 0-110.46-89.56-200-200-200zm57.853 124.18c-7.38-4.24-15-7.72-22.7-10.82-.063.128-.121.256-.179.384-.087.192-.173.385-.281.576-7.68 14.801-13.08 30.62-16.399 46.92-.171.843-.345 1.684-.52 2.523v.001c-.646 3.109-1.291 6.212-1.701 9.376-.252 1.914-.381 3.846-.51 5.771-.064.972-.129 1.942-.21 2.908-.28 3.5-.439 7-.52 10.521 1.905 1.166 3.717 2.489 5.527 3.812l.001.001h.001v.001c1.077.786 2.154 1.573 3.25 2.326.696.481 1.424.924 2.152 1.366.906.551 1.814 1.103 2.668 1.734.399.283.776.605 1.154.929h.001c.342.292.685.585 1.045.851 5.08 3.8 9.88 7.88 14.58 12.12.189.16.381.318.572.478l.001.001c.573.476 1.146.952 1.687 1.462.129.119.254.248.38.38h.001c.128.134.259.27.399.399 14.74 13.841 27.68 29.5 37.84 47.08.11.173.198.359.287.548.056.118.111.237.173.353 2.56 4.5 4.82 9.1 7 13.7.122.255.226.511.328.762.082.202.163.402.252.598 1.92 4.141 3.62 8.301 5.26 12.521.219.559.46 1.109.7 1.66.311.71.621 1.419.88 2.14.061.16.125.315.19.471.064.154.13.31.189.47.235.663.431 1.339.626 2.013.17.586.339 1.171.534 1.747 1.14 3.399 2.24 6.82 3.22 10.3.132.508.295 1.003.457 1.496v.001c.183.557.365 1.111.503 1.683.181.601.36 1.221.521 1.82.403 1.576.714 3.16 1.025 4.747a144.163 144.163 0 001.002 4.781c.191.866.383 1.73.565 2.598a170.843 170.843 0 01-26.089 18.239 173.645 173.645 0 00-1.701-11.428c-.38-1.98-.82-3.94-1.261-5.9-.939-4.34-1.899-8.66-3.199-12.939-.41-1.416-.917-2.813-1.421-4.206-.258-.713-.516-1.424-.76-2.134l-.618-1.83c-1.141-3.383-2.274-6.745-3.682-10.051-6.38 4.721-13 9.24-20.06 13.32-48.211 27.83-104.279 34.413-156.074 20.812a171.285 171.285 0 01-42.031-48.397c55.746 34.532 126.305 36.028 183.808 2.838 7.4-4.28 14.2-9.14 20.72-14.24l-.066-.108-.09-.138-.123-.184c-.096-.14-.19-.28-.28-.43-8.98-14.061-20-26.641-32.46-37.7a307.102 307.102 0 01-2.499-2.202c-2.184-1.937-4.369-3.876-6.701-5.658-1.616-1.262-3.332-2.402-5.05-3.544l-.001-.001c-.705-.469-1.41-.938-2.109-1.415-2.88-2-5.82-3.9-8.84-5.72-1.992 1.091-4.065 2.006-6.143 2.922h-.001a137.877 137.877 0 00-3.576 1.618c-.787.375-1.553.796-2.318 1.217h-.001v.001c-.908.499-1.817.999-2.761 1.422-.459.203-.935.365-1.409.528h-.001c-.415.142-.829.284-1.23.452-5.84 2.52-11.779 4.64-17.819 6.6-.343.119-.687.244-1.03.369l-.002.001h-.001l-.001.001h-.001c-.577.21-1.157.421-1.745.609-.221.077-.457.121-.689.165l-.169.031-.201.043c-19.341 5.88-39.4 9.261-59.7 9.261-.162 0-.32-.011-.475-.021h-.001a6.043 6.043 0 00-.444-.02c-5.221-.061-10.34-.381-15.46-.78v-.021c-.25-.01-.495-.045-.74-.08-.245-.034-.49-.069-.74-.079-4.52-.421-9-1.021-13.46-1.721-.579-.085-1.162-.148-1.745-.212h-.001c-.783-.085-1.565-.17-2.334-.308l-.132-.022-.15-.024-.175-.027h-.001a16.644 16.644 0 01-.521-.086c-.806-.135-1.581-.328-2.359-.522h-.001c-.496-.124-.993-.249-1.5-.357-3.52-.7-7.02-1.46-10.5-2.36-.44-.105-.887-.198-1.335-.291v-.001h-.001a30.42 30.42 0 01-1.944-.448 28.702 28.702 0 00-.742-.183 18.672 18.672 0 01-1.077-.277c-1.526-.416-3.014-.928-4.5-1.439-.871-.3-1.741-.6-2.62-.88-.682-.222-1.364-.439-2.047-.656-.909-.29-1.818-.579-2.724-.879a170.31 170.31 0 01-2.684-31.676 181.793 181.793 0 0010.764 4.228c1.9.68 3.84 1.279 5.78 1.88 4.22 1.359 8.439 2.66 12.76 3.7 1.363.321 2.742.567 4.117.812.844.15 1.687.301 2.523.468.768.149 1.534.301 2.3.453 3.345.663 6.683 1.324 10.1 1.747-.899-7.9-1.5-15.88-1.5-24.02 0-55.733 22.379-107.627 60.13-145.704 19.447-7.789 40.657-12.085 62.85-12.106-57.818 30.997-94.407 91.393-94.407 157.794 0 8.54.8 16.86 1.979 25.08.181-.01.355-.025.53-.04s.35-.03.53-.04c16.64-.76 33.02-3.98 48.8-9.24.89-.301 1.78-.596 2.671-.891 2.952-.977 5.896-1.951 8.769-3.149 1.77-.726 3.495-1.574 5.223-2.424h.002a156.86 156.86 0 012.676-1.296c3.16-1.5 6.26-3.1 9.34-4.8.062-2.234.302-4.438.541-6.644v-.002c.146-1.349.293-2.697.399-4.055.062-.828.08-1.667.1-2.508v-.001c.023-1.068.048-2.14.16-3.191.055-.512.15-1.019.246-1.521v-.002c.08-.42.159-.838.214-1.257.76-6.319 1.88-12.54 3.2-18.739.062-.329.118-.66.176-.992v-.001c.109-.637.22-1.276.364-1.907.04-.17.095-.345.149-.52v-.001c.056-.175.11-.35.15-.52 4.6-19.7 11.68-38.76 21.84-56.34l.132-.198.082-.119c.114-.166.228-.331.326-.503 2.64-4.46 5.48-8.739 8.38-12.939.158-.237.329-.456.502-.677.134-.17.268-.341.398-.523 2.6-3.7 5.359-7.26 8.2-10.78.372-.467.726-.949 1.078-1.431v-.001c.462-.63.923-1.259 1.422-1.849.117-.139.229-.283.338-.424.096-.123.188-.244.281-.355.473-.561.975-1.084 1.474-1.604h.001c.41-.428.818-.854 1.206-1.296 2.38-2.72 4.8-5.34 7.3-7.92.341-.35.67-.715 1-1.08h.001c.424-.471.849-.941 1.299-1.38.42-.44.86-.9 1.3-1.34 1.109-1.085 2.264-2.093 3.418-3.101.718-.628 1.437-1.255 2.143-1.899a469.24 469.24 0 001.809-1.641l.005-.004c.635-.578 1.269-1.156 1.907-1.729a169.428 169.428 0 0128.753 13.535 190.463 190.463 0 00-9.01 7.171c-1.328 1.138-2.611 2.321-3.901 3.51l-.619.57c-3.26 2.96-6.54 5.96-9.6 9.2-.935.994-1.816 2.04-2.701 3.089-.574.681-1.148 1.361-1.739 2.031-.516.595-1.034 1.188-1.552 1.78-2.234 2.557-4.47 5.116-6.548 7.859 7.3 3.14 14.52 6.64 21.56 10.7 48.279 27.874 82.042 73.206 96.13 124.948a168.762 168.762 0 01-20.947 60.397c2.038-65.549-31.956-127.403-89.457-160.611z"/></svg>