<svg xmlns="http://www.w3.org/2000/svg" width="1000pt" height="1000pt" viewBox="0 0 1000 1000"><path d="M500 83.332C269.875 83.332 83.332 269.875 83.332 500c0 230.082 186.543 416.668 416.668 416.668 230.082 0 416.668-186.586 416.668-416.668 0-230.125-186.586-416.668-416.668-416.668zm120.527 258.711c-15.375-8.836-31.25-16.086-47.293-22.543-.129.266-.25.535-.37.8-.184.4-.36.802-.587 1.2-16 30.836-27.25 63.793-34.164 97.75a735.91 735.91 0 01-1.086 5.258c-1.343 6.476-2.687 12.941-3.543 19.535-.523 3.984-.793 8.012-1.062 12.023a342.08 342.08 0 01-.438 6.055c-.582 7.293-.914 14.586-1.082 21.922 3.97 2.43 7.743 5.184 11.516 7.941h.004v.004c2.242 1.637 4.488 3.278 6.77 4.844 1.449 1.004 2.968 1.926 4.484 2.848 1.886 1.148 3.777 2.297 5.558 3.613.832.59 1.618 1.258 2.403 1.934h.004c.71.609 1.425 1.218 2.175 1.773 10.582 7.918 20.582 16.418 30.375 25.25.395.332.793.664 1.192.996h.004c1.191.992 2.386 1.984 3.511 3.047.27.25.532.516.793.793h.004c.266.277.54.562.828.832 30.711 28.836 57.668 61.457 78.836 98.082.227.36.41.746.598 1.14.117.247.23.497.36.739 5.331 9.375 10.042 18.957 14.581 28.539.254.531.473 1.066.684 1.59.172.418.34.836.527 1.246 4 8.625 7.54 17.293 10.957 26.082.457 1.168.957 2.312 1.457 3.46.649 1.477 1.297 2.958 1.836 4.458.125.332.258.656.395.98.133.32.27.649.394.98.489 1.384.899 2.79 1.305 4.196a83.131 83.131 0 001.113 3.637c2.375 7.082 4.664 14.21 6.707 21.46.274 1.06.614 2.09.954 3.114v.004c.378 1.16.757 2.316 1.046 3.508.375 1.25.75 2.543 1.086 3.789.84 3.285 1.489 6.586 2.133 9.89.348 1.774.696 3.547 1.074 5.32.332 1.552.672 3.098 1.016 4.641.398 1.805.797 3.606 1.176 5.41a355.964 355.964 0 01-54.352 38 364.568 364.568 0 00-3.543-23.808c-.793-4.125-1.71-8.207-2.629-12.293-1.957-9.039-3.957-18.039-6.664-26.953-.855-2.953-1.91-5.863-2.96-8.766-.536-1.484-1.075-2.965-1.583-4.445l-1.289-3.813c-2.375-7.046-4.734-14.05-7.668-20.937-13.293 9.836-27.086 19.25-41.793 27.75-100.441 57.977-217.25 71.691-325.156 43.355-35.156-27.71-64.957-61.933-87.562-100.824 116.136 71.942 263.136 75.059 382.933 5.91 15.418-8.914 29.582-19.039 43.168-29.664l-.14-.226-.188-.29-.254-.382c-.2-.29-.398-.582-.586-.895-18.707-29.293-41.664-55.504-67.625-78.543a581.674 581.674 0 01-5.203-4.586c-4.55-4.035-9.105-8.074-13.96-11.789-3.368-2.629-6.942-5.004-10.524-7.382-1.47-.98-2.938-1.957-4.395-2.95a338.53 338.53 0 00-18.418-11.918c-4.148 2.274-8.469 4.18-12.797 6.09-2.492 1.098-4.988 2.2-7.453 3.371-1.637.782-3.234 1.657-4.828 2.535-1.894 1.04-3.785 2.082-5.754 2.965-.957.422-1.95.758-2.933 1.098h-.004c-.864.297-1.727.594-2.563.941-12.168 5.25-24.539 9.668-37.12 13.75-.716.25-1.435.508-2.15.77l-.003.004h-.004c-1.203.437-2.41.879-3.637 1.27-.46.16-.953.25-1.437.343l-.352.063-.418.09c-40.293 12.25-82.082 19.296-124.375 19.296-.336 0-.668-.023-.988-.047h-.004a14.67 14.67 0 00-.926-.039c-10.875-.129-21.539-.793-32.207-1.625v-.043a15.654 15.654 0 01-1.543-.168c-.508-.07-1.02-.144-1.539-.164-9.418-.879-18.75-2.129-28.043-3.586-1.207-.175-2.422-.308-3.637-.441-1.632-.18-3.261-.355-4.863-.64l-.273-.047-.313-.051-.367-.055c-.367-.059-.727-.113-1.086-.18-1.68-.28-3.293-.683-4.914-1.09h-.004a93.648 93.648 0 00-3.125-.742c-7.332-1.457-14.625-3.043-21.875-4.918-.914-.218-1.848-.41-2.781-.605-1.356-.281-2.719-.567-4.051-.934a49.669 49.669 0 00-1.547-.383 36.999 36.999 0 01-2.242-.578c-3.18-.867-6.281-1.933-9.375-2.996-1.816-.625-3.629-1.25-5.457-1.836a598.84 598.84 0 00-4.266-1.363c-1.894-.605-3.789-1.207-5.675-1.832a354.798 354.798 0 01-5.59-65.992 378.69 378.69 0 0022.422 8.808c3.96 1.418 8 2.664 12.042 3.918 8.793 2.829 17.583 5.54 26.583 7.707 2.84.668 5.714 1.18 8.578 1.692 1.757.312 3.515.625 5.257.976 1.598.309 3.196.625 4.79.942 6.968 1.383 13.925 2.758 21.042 3.64-1.87-16.457-3.125-33.082-3.125-50.043 0-116.109 46.622-224.222 125.27-303.55 40.516-16.227 84.703-25.176 130.938-25.22-120.454 64.58-196.68 190.403-196.68 328.74 0 17.788 1.668 35.124 4.12 52.25.38-.024.743-.055 1.106-.087.364-.031.73-.062 1.106-.082 34.664-1.582 68.789-8.293 101.664-19.25a774.17 774.17 0 015.566-1.855c6.149-2.035 12.282-4.067 18.27-6.563 3.687-1.511 7.281-3.277 10.879-5.047h.004a333.1 333.1 0 015.578-2.703 357.17 357.17 0 0019.457-10c.129-4.652.629-9.246 1.125-13.84v-.003c.305-2.813.613-5.622.832-8.45.129-1.722.168-3.472.21-5.222v-.004c.048-2.227.098-4.457.333-6.649.113-1.066.312-2.12.512-3.168v-.004a43.71 43.71 0 00.445-2.62c1.586-13.165 3.918-26.126 6.668-39.04.129-.683.246-1.375.367-2.066.227-1.328.457-2.66.758-3.973.082-.355.2-.719.308-1.086.118-.367.23-.73.313-1.086 9.586-41.039 24.336-80.75 45.5-117.375l.277-.41.172-.25c.235-.344.473-.687.676-1.047 5.5-9.293 11.418-18.207 17.46-26.957.329-.492.684-.949 1.044-1.41.281-.351.558-.71.832-1.09 5.414-7.707 11.164-15.125 17.082-22.457a92.855 92.855 0 002.246-2.98v-.004c.96-1.313 1.922-2.621 2.96-3.852.247-.289.481-.59.708-.882.2-.258.39-.508.586-.739.984-1.172 2.031-2.258 3.07-3.344a81.506 81.506 0 002.512-2.699c4.96-5.668 10-11.125 15.21-16.5.712-.73 1.395-1.488 2.083-2.25h.004c.883-.98 1.765-1.96 2.703-2.875.875-.918 1.793-1.875 2.71-2.793 2.31-2.258 4.716-4.36 7.122-6.46a283.209 283.209 0 004.465-3.954c1.258-1.137 2.512-2.277 3.765-3.422l.012-.007c1.324-1.204 2.645-2.407 3.973-3.602a353.152 353.152 0 0159.902 28.2c-6.402 4.769-12.637 9.765-18.77 14.937-2.769 2.37-5.44 4.836-8.128 7.312l-1.29 1.188c-6.792 6.168-13.624 12.418-20 19.168-1.949 2.07-3.78 4.25-5.624 6.437-1.2 1.418-2.395 2.832-3.625 4.23a954.187 954.187 0 01-3.235 3.708c-4.652 5.328-9.312 10.66-13.64 16.375 15.207 6.539 30.25 13.832 44.918 22.289 100.582 58.07 170.918 152.511 200.27 260.308-6.528 45.254-21.645 87.766-43.641 125.828 4.246-136.562-66.575-265.421-186.368-334.605zm0 0"/></svg>