<svg xmlns="http://www.w3.org/2000/svg" viewBox="0 0 480 480"><path d="M149.403 186.7c7.162-4.164 14.651-5.221 21.657-3.055.868.269 1.71.593 2.537.946 7.464-52.039 52.331-92.17 106.402-92.17 18.041 0 35.055 4.475 50 12.36V38a8 8 0 00-8-8H38a8 8 0 00-8 8v184a8 8 0 008 8h98.337c-1.03-15.085-1.758-34.682 13.066-43.3zM280 107.422c-49.672 0-90.317 39.355-92.409 88.522 3.529 4.445 6.323 9.376 8.421 13.775 2.993 6.279 4.849 13.329 6.645 20.146l.035.134c3.108 11.805 6.065 22.938 14.176 28.141 9.592 6.146 30.187-4.091 56.876-28.141a336.505 336.505 0 004.266-3.907c18.602-17.361 37.396-38.549 51.991-55.737 6.297-7.415 11.816-14.091 16.194-19.386 2.549-3.083 4.775-5.774 6.645-8a93.237 93.237 0 00-22.839-20.837c-14.428-9.304-31.594-14.71-50.001-14.71zm167.495 145.046c-2.191-2.957-4.225-3.562-5.562-3.759-7.558-1.121-19.393 7.711-27.232 13.55-2.418 1.801-4.703 3.502-6.753 4.867-7.088 4.719-14.236 9.664-21.148 14.446-8.439 5.838-17.165 11.873-25.942 17.612l-.094.062a7.502 7.502 0 01-8.207-12.557c14.771-9.654 28.131-22.871 41.052-35.653l1.47-1.453c15.523-15.345 33.117-32.735 39.246-52.326 1.651-5.277.955-13.713-5.763-15.943-10.738-3.57-19.599 5.606-30.941 18.955-2.318 2.728-4.508 5.304-6.702 7.61a464.503 464.503 0 01-13.181 13.268 513.352 513.352 0 01-10.668 10.011c-18.625 16.989-33.578 28.201-34.448 28.851a7.498 7.498 0 01-10.059-.992 7.499 7.499 0 01.064-10.107c15.36-16.628 37.537-41.796 49.627-55.741a947.69 947.69 0 006.67-7.759l.022-.026 1.525-1.795a387.988 387.988 0 004.762-5.673c8.335-10.161 19.948-25.909 18.436-36.084-.271-1.82-1.089-4.534-5.052-7.076-8.552-5.482-19.93 3.089-26.66 9.534a79.616 79.616 0 00-5.337 5.632c-1.354 1.564-3.111 3.664-5.185 6.163-1.137 1.37-2.358 2.848-3.678 4.443-6.904 8.352-16.595 20.073-27.756 32.797-10.522 11.996-22.351 24.881-34.385 36.676a415.802 415.802 0 01-7.371 7.059c-25.826 24.104-46.458 36.613-62.444 37.772-5.705.413-10.82-.611-15.365-3.08a27.373 27.373 0 01-1.667-.985c-8.384-5.378-13.032-13.59-16.229-22.338-1.783-4.88-3.12-9.925-4.389-14.742a668.269 668.269 0 00-.98-3.686c-1.363-5.053-2.774-9.788-4.699-13.826a70.64 70.64 0 00-1.621-3.188c-2.604-4.827-5.451-8.688-8.327-11.339-1.974-1.818-3.961-3.074-5.891-3.671-2.977-.919-6.148-.367-9.69 1.691-7.199 4.186-6.354 19.059-5.569 30.332l.062.901c.248 3.536.482 6.877.484 9.822.006 7.565-.274 15.76-.571 24.436-1.102 32.22-2.474 72.318 12.49 84.89a7.505 7.505 0 011.781 2.189c2.123 3.947.184 6.882-1.374 9.24l-19.004 28.765 79.53 61.047 28.202-29.793c2.121-2.238 4.759-5.021 9.294-3.513l.209.073c16.287 5.972 48.236-2.863 87.656-24.234 32.617-17.682 63.384-40.525 70.596-49.969.257-.336.541-.649.851-.938.084-.08 10.448-10.205 5.991-17.32-1.312-2.092-4.379-6.996-17.274-3.054-9.679 2.957-20.852 9.655-29.829 15.038-5.733 3.437-10.684 6.405-14.65 8.097a7.5 7.5 0 01-6.87-13.288c22.597-13.892 45.963-28.256 66.001-46.03 1.31-1.161 2.797-2.414 4.371-3.742 20.767-17.505 22.351-24.514 18.175-30.149z"/></svg>