<svg xmlns="http://www.w3.org/2000/svg" width="1000pt" height="1000pt" viewBox="0 0 1000 1000"><path d="M625 312.5c-172.656 0-312.5 139.844-312.5 312.5 0 172.5 139.844 312.5 312.5 312.5 172.5 0 312.5-140 312.5-312.5 0-172.656-140-312.5-312.5-312.5zm90 192.969c-11.563-6.563-23.438-12.031-35.469-16.875l-.308.625c-.157.308-.313.625-.473.937-12.027 23.125-20.465 47.809-25.625 73.281-.309 1.25-.469 2.653-.781 3.907-.938 4.843-2.032 9.683-2.653 14.687-.312 2.969-.629 6.094-.78 9.063-.157 1.562-.157 2.972-.313 4.535-.47 5.469-.625 10.937-.782 16.406 2.97 1.871 5.782 3.906 8.594 5.938 1.563 1.25 3.281 2.343 5 3.593a41.94 41.94 0 003.434 2.188c1.406.781 2.816 1.719 4.218 2.656l1.872 1.406c.472.47.937.938 1.562 1.407 7.969 5.937 15.473 12.343 22.813 18.906.312.312.625.469.937.781.938.781 1.875 1.563 2.656 2.344l1.25 1.25c22.97 21.719 43.125 46.094 59.063 73.594.156.156.312.468.472.78.157.313.157.47.31.626 4.062 7.031 7.503 14.219 10.937 21.406.156.469.312.781.472 1.25.157.313.309.625.469.938 3.125 6.406 5.781 12.968 8.285 19.53.309.938.781 1.72 1.09 2.657.473 1.094.938 2.188 1.406 3.281.157.313.157.47.313.782.156.312.156.468.312.78.309 1.095.625 2.032.934 3.126.156.781.472 1.719.781 2.656 1.719 5.313 3.438 10.625 5 16.094.313.781.469 1.562.781 2.344.313.937.625 1.718.782 2.656.312.933.468 1.871.78 2.812.626 2.344 1.095 4.844 1.563 7.344.313 1.406.47 2.653.782 4.059.312 1.093.468 2.343.78 3.437.313 1.407.626 2.657.938 4.063-12.656 10.625-26.25 20.156-40.78 28.433-.626-5.937-1.563-11.87-2.657-17.812-.625-3.125-1.406-6.094-2.031-9.219-1.407-6.719-2.97-13.437-5-20.156-.625-2.188-1.407-4.375-2.188-6.563-.469-1.09-.933-2.187-1.25-3.28-.312-.934-.625-1.872-.937-2.813-1.875-5.313-3.594-10.625-5.782-15.782-10 7.344-20.312 14.375-31.402 20.785-75.313 43.438-162.973 53.75-243.906 32.5-26.254-20.78-48.594-46.406-65.625-75.625 87.027 53.907 197.344 56.25 287.187 4.375 11.567-6.558 22.188-14.218 32.344-22.183l-.313-.313-.156-.312-.468-.625c-14.063-22.031-31.25-41.563-50.782-58.906-1.25-1.094-2.656-2.344-3.906-3.438-3.438-3.125-6.875-6.094-10.469-8.906a139.962 139.962 0 00-7.812-5.469c-1.09-.781-2.188-1.406-3.278-2.187-4.379-3.125-9.066-6.094-13.754-8.903-2.968 1.715-6.25 3.125-9.53 4.532-1.872.78-3.75 1.562-5.622 2.5-1.254.625-2.344 1.25-3.597 1.87a57.086 57.086 0 01-4.375 2.188c-.625.313-1.407.473-2.188.781-.629.313-1.254.473-1.875.782-9.063 3.906-18.438 7.187-27.813 10.312-.472.313-1.093.473-1.562.625-.781.313-1.719.63-2.656.938-.313.156-.782.312-1.094.312h-.625c-30.156 9.219-61.563 14.531-93.277 14.531h-1.41c-8.282-.156-16.25-.625-24.22-1.25-.308 0-.78-.156-1.09-.156-.312-.156-.78-.156-1.093-.156-7.187-.625-14.062-1.563-21.094-2.652-.78-.157-1.718-.157-2.656-.313-1.094-.156-2.344-.312-3.594-.469h-.78c-.313 0-.47-.156-.782-.156-1.25-.156-2.5-.473-3.75-.781-.781-.313-1.563-.473-2.344-.625a306.177 306.177 0 01-16.406-3.754c-.625-.152-1.406-.309-2.031-.469-.938-.156-2.036-.312-2.973-.625-.309-.156-.781-.156-1.09-.312-.625-.157-1.094-.309-1.719-.47-2.343-.624-4.687-1.405-7.03-2.187-1.407-.468-2.657-.937-4.063-1.406-.938-.469-2.032-.781-3.125-1.094l-4.22-1.406c-2.812-15.312-4.218-31.094-4.218-47.187v-2.348a373.57 373.57 0 0016.88 6.563c2.968 1.09 6.093 2.03 9.062 2.968 6.718 2.188 13.28 4.215 20 5.778 2.03.472 4.218.937 6.406 1.254 1.25.308 2.656.468 3.906.78 1.25.31 2.344.47 3.594.782 5.156.938 10.469 2.031 15.781 2.652-1.406-12.343-2.344-24.843-2.344-37.5 0-87.027 34.844-168.12 93.907-227.652 30.312-12.191 63.437-18.906 98.125-18.906-90.313 48.437-147.5 142.812-147.5 246.562 0 13.438 1.25 26.41 3.125 39.219h1.562c25.938-1.09 51.563-6.094 76.25-14.371 1.406-.473 2.813-.938 4.219-1.41 4.687-1.407 9.219-2.969 13.75-4.84 2.656-1.094 5.469-2.5 8.125-3.754 1.406-.625 2.812-1.406 4.219-2.031a321.024 321.024 0 0014.53-7.5c0-3.438.47-6.88.782-10.313.156-2.187.469-4.218.625-6.406.156-1.25.156-2.656.156-3.906.157-1.719.157-3.282.313-5 0-.782.156-1.563.312-2.344.153-.781.153-1.406.309-2.031 1.254-9.844 2.969-19.532 5-29.219.156-.469.156-1.09.312-1.563.157-.933.47-2.03.625-2.968 0-.157 0-.469.157-.782.156-.308.312-.468.312-.78 7.188-30.778 18.125-60.466 34.063-87.97l.156-.312.156-.156c.156-.309.313-.469.469-.781a448.28 448.28 0 0113.125-20.157c.312-.469.469-.781.781-1.09.156-.156.469-.472.625-.78 4.063-5.782 8.438-11.411 12.813-16.88.625-.625 1.093-1.406 1.718-2.187.625-.938 1.407-1.875 2.188-2.813l.469-.629c.156-.308.312-.468.468-.625.782-.937 1.563-1.718 2.344-2.5.625-.625 1.254-1.406 1.875-2.03 3.75-4.22 7.5-8.282 11.406-12.345.47-.625 1.094-1.093 1.563-1.718.625-.782 1.406-1.563 2.031-2.188.63-.625 1.41-1.406 2.035-2.031a77.171 77.171 0 015.313-4.844c1.094-.937 2.187-2.031 3.281-2.969.938-.78 1.871-1.718 2.813-2.5.937-.78 2.03-1.718 2.968-2.656 15.782 5.625 30.782 12.656 45 21.094-4.687 3.594-9.375 7.344-14.53 10.156-2.032 1.719-4.063 3.594-6.095 5.469l-.937.937c-5.156 4.688-10.156 9.375-15 14.375-1.406 1.563-2.813 3.282-4.219 4.844-.781.938-1.719 2.031-2.656 3.125-.934.938-1.715 1.875-2.496 2.813-3.438 4.062-6.88 8.125-10.157 12.343 11.407 4.844 22.81 10.313 33.747 16.72 75.312 43.437 128.125 114.374 150.156 195.155-4.844 33.907-16.094 65.782-32.656 94.375C857.969 654.062 804.844 557.344 715 505.47zM487.105 298.668c43.692-18.469 90.086-27.836 137.895-27.836 21.18 0 42.078 1.852 62.598 5.512V79.168c0-9.207-7.465-16.668-16.668-16.668H79.262c-9.203 0-16.664 7.46-16.664 16.668V462.5c0 9.203 7.46 16.668 16.664 16.668H302.14c17.617-39.008 41.945-74.172 72.402-104.629 32.508-32.504 70.379-58.031 112.562-75.871zm0 0"/></svg>