<svg xmlns="http://www.w3.org/2000/svg" width="1000pt" height="1000pt" viewBox="0 0 1000 1000"><path d="M319.664 789.793c8.473 1.305 17.766 2.027 28.277 2.027 4.106 0 8.407-.113 12.77-.332 51.855-2.597 73.945-17.406 104.523-37.906 1.938-1.293 3.903-2.61 5.895-3.937-45.031 7.437-91.149 5.25-135.281-6.34-26.368-20.785-48.72-46.45-65.672-75.621 87.097 53.957 197.347 56.293 287.195 4.433 11.563-6.687 22.184-14.281 32.375-22.25l-.105-.168-.137-.219-.195-.285a14.218 14.218 0 01-.438-.672c-14.031-21.968-31.25-41.625-50.723-58.906-1.308-1.137-2.605-2.289-3.902-3.437-3.41-3.028-6.824-6.059-10.469-8.844-2.523-1.973-5.207-3.754-7.886-5.54h-.004a269.318 269.318 0 01-3.297-2.21 254.236 254.236 0 00-13.813-8.938c-3.113 1.707-6.355 3.137-9.597 4.567-1.871.824-3.739 1.648-5.59 2.527-1.23.582-2.426 1.246-3.617 1.903h-.004c-1.422.78-2.84 1.562-4.317 2.222-.714.317-1.457.57-2.199.824v.004c-.652.22-1.297.442-1.926.703-9.125 3.938-18.406 7.25-27.843 10.313-.536.187-1.075.383-1.61.578h-.008c-.898.328-1.804.66-2.726.953-.344.121-.711.188-1.078.258l-.266.05-.312.063c-30.22 9.188-61.563 14.469-93.282 14.469-.254 0-.5-.016-.738-.031a10.582 10.582 0 00-.7-.031c-8.151-.098-16.155-.594-24.155-1.22v-.03c-.387-.016-.774-.075-1.157-.125-.382-.055-.765-.114-1.156-.13-7.062-.652-14.062-1.593-21.031-2.687a91.069 91.069 0 00-2.727-.332c-1.226-.129-2.445-.266-3.648-.476l-.207-.036-.235-.039-.277-.047c-.273-.043-.547-.082-.816-.132-1.258-.211-2.47-.512-3.684-.817h-.004c-.773-.195-1.55-.39-2.344-.558-5.5-1.094-10.968-2.282-16.406-3.688a59.62 59.62 0 00-2.082-.457h-.004v-.004c-1.02-.207-2.039-.418-3.039-.699-.383-.102-.77-.191-1.16-.285-.562-.133-1.129-.266-1.684-.434-2.386-.648-4.707-1.453-7.03-2.25-1.36-.469-2.723-.937-4.095-1.375a336.948 336.948 0 00-3.199-1.023c-1.422-.453-2.84-.906-4.254-1.371a266.036 266.036 0 01-4.203-47.207c0-.762 0-1.52.012-2.278a285.444 285.444 0 0016.816 6.602c2.97 1.066 6 2 9.032 2.937 6.593 2.13 13.187 4.157 19.937 5.782 2.129.504 4.281.886 6.43 1.27 1.32.234 2.636.468 3.945.73 1.2.23 2.395.472 3.594.707 5.226 1.035 10.441 2.07 15.781 2.734-1.406-12.348-2.344-24.812-2.344-37.535 0-87.086 34.965-168.164 93.953-227.66 30.387-12.172 63.528-18.883 98.204-18.914-90.34 48.43-147.516 142.8-147.516 246.55 0 13.344 1.254 26.344 3.098 39.188.277-.016.554-.04.824-.063.277-.02.55-.046.828-.058 26-1.188 51.594-6.219 76.25-14.442 1.39-.472 2.781-.925 4.176-1.39 4.61-1.524 9.21-3.047 13.699-4.918 2.766-1.137 5.46-2.461 8.16-3.79h.004c1.39-.683 2.777-1.366 4.18-2.023a267.95 267.95 0 0014.593-7.504c.098-3.488.473-6.93.844-10.375v-.007c.235-2.106.461-4.211.625-6.332.098-1.297.13-2.606.156-3.918v-.004c.043-1.672.079-3.34.25-4.989.086-.8.239-1.593.387-2.378h.004a31.7 31.7 0 00.328-1.965c1.188-9.875 2.938-19.594 5-29.282.098-.515.184-1.03.274-1.55h.004c.171-.996.34-1.996.566-2.98.062-.266.148-.54.234-.813.086-.278.172-.551.23-.817 7.192-30.777 18.255-60.558 34.13-88.027l.207-.313.125-.183h.004c.18-.262.355-.516.507-.79 4.125-6.964 8.563-13.652 13.094-20.214.25-.371.516-.715.785-1.059.207-.265.418-.53.621-.82 4.063-5.781 8.375-11.34 12.813-16.844.582-.73 1.137-1.48 1.687-2.234.72-.984 1.442-1.969 2.22-2.89.183-.216.359-.442.527-.66.148-.192.296-.384.44-.56.74-.874 1.52-1.69 2.302-2.503a57.38 57.38 0 001.886-2.028c3.72-4.25 7.5-8.343 11.407-12.37a58.86 58.86 0 001.562-1.692 46.135 46.135 0 012.031-2.156c.657-.688 1.344-1.407 2.032-2.094 1.734-1.692 3.539-3.266 5.34-4.844 1.12-.98 2.242-1.96 3.347-2.969a429.37 429.37 0 002.828-2.562l.004-.004a477.36 477.36 0 012.98-2.703 264.994 264.994 0 0144.93 21.148c-4.808 3.578-9.484 7.324-14.082 11.203-2.074 1.782-4.082 3.625-6.097 5.485l-.97.894c-5.089 4.621-10.214 9.309-14.995 14.371-1.461 1.555-2.836 3.188-4.219 4.825a190.97 190.97 0 01-2.719 3.175 771.05 771.05 0 01-2.425 2.782c-3.493 3.996-6.985 7.996-10.23 12.28 11.405 4.907 22.687 10.376 33.687 16.72 75.437 43.55 128.191 114.382 150.203 195.23-4.895 33.941-16.235 65.824-32.73 94.371 3.19-102.422-49.927-199.066-139.77-250.957-11.532-6.625-23.438-12.062-35.469-16.906-.102.203-.191.402-.281.601-.133.301-.27.602-.438.899-12 23.129-20.441 47.848-25.625 73.312-.265 1.317-.539 2.633-.816 3.946v.004c-1.004 4.855-2.016 9.699-2.653 14.644-.398 2.992-.597 6.012-.8 9.02-.102 1.52-.203 3.035-.325 4.546-.437 5.47-.687 10.938-.812 16.438 2.977 1.82 5.805 3.89 8.637 5.953v.004c1.683 1.23 3.367 2.461 5.082 3.633 1.086.754 2.222 1.445 3.36 2.137 1.421.859 2.835 1.722 4.171 2.707.621.445 1.21.949 1.8 1.453h.005c.53.453 1.066.914 1.632 1.328 7.938 5.941 15.438 12.312 22.782 18.937l.89.746h.008v.004c.895.743 1.79 1.485 2.633 2.282.203.187.398.39.594.593h.004c.195.211.402.422.62.625 23.032 21.625 43.25 46.094 59.126 73.567.172.27.312.558.449.855l.27.551c4 7.031 7.53 14.219 10.937 21.406.191.395.355.797.512 1.188.129.316.254.633.394.933 3 6.47 5.656 12.97 8.219 19.563.344.875.719 1.738 1.094 2.594.484 1.113.968 2.218 1.375 3.343.093.25.195.493.297.735.101.246.203.484.296.738.368 1.035.672 2.09.977 3.145.258.894.52 1.785.816 2.66 40.055.957 70.954 8.742 96.426 18.636 35.235-50.582 55.918-112.046 55.918-178.347 0-172.594-139.937-312.5-312.5-312.5-172.594 0-312.5 139.906-312.5 312.5.012 105.402 52.223 198.597 132.172 255.199zm596.066 15.59c-63.37 3.176-95.488-13.969-129.492-32.121-35.75-19.082-76.27-40.711-151.129-36.957-74.859 3.754-113.011 29.328-146.672 51.886-32.019 21.461-62.261 41.735-125.636 44.91-63.371 3.176-95.485-13.964-129.485-32.117-35.75-19.082-76.265-40.714-151.125-36.96-11.449.574-20.27 10.324-19.695 21.773.574 11.453 10.324 20.27 21.774 19.695 63.37-3.176 95.488 13.969 129.492 32.121 35.746 19.082 76.261 40.711 151.12 36.961 74.856-3.754 113.013-29.328 146.669-51.89 32.02-21.461 62.265-41.73 125.64-44.91 63.371-3.176 95.489 13.964 129.493 32.117 35.75 19.082 76.265 40.714 151.125 36.96 11.453-.574 20.27-10.324 19.699-21.773-.578-11.453-10.328-20.27-21.778-19.695zm0 0"/></svg>