<svg xmlns="http://www.w3.org/2000/svg" width="1000pt" height="1000pt" viewBox="0 0 1000 1000"><path d="M319.578 789.777c8.496 1.317 17.817 2.043 28.363 2.043 4.106 0 8.407-.113 12.77-.332 51.855-2.597 73.945-17.406 104.523-37.906 3.672-2.46 7.438-4.98 11.329-7.531V558.039h-71.625c-5.137 68.824-32.372 131.418-74.825 180.617a268.127 268.127 0 01-33.297-33.133c34.153-40.617 56.293-91.601 61.22-147.468H235.401a269.046 269.046 0 01-1.023-23.446c0-7.894.344-15.71 1.02-23.433h122.636c-4.922-55.867-27.07-106.856-61.226-147.477a268.222 268.222 0 0133.304-33.137c42.453 49.2 69.688 111.793 74.825 180.614h71.625V270.008A267.335 267.335 0 01500 268.98c7.898 0 15.715.348 23.441 1.028v241.168h71.625c5.137-68.824 32.371-131.414 74.82-180.617a268.316 268.316 0 0133.31 33.144c-34.145 40.617-56.286 91.602-61.212 147.473h122.618a268.625 268.625 0 011.02 23.43c0 7.902-.345 15.722-1.024 23.449H641.984c4.594 52.14 24.2 100.027 54.551 139.203 23.25 3.312 42.887 9.027 60.063 15.699 35.226-50.582 55.902-112.05 55.902-178.352 0-172.593-139.938-312.5-312.5-312.5-172.594 0-312.5 139.907-312.5 312.5 0 105.368 52.168 198.563 132.078 255.172zm203.863-231.742V719.66c27.793-12.574 62.57-22.613 109.582-24.972 1.688-.083 3.36-.13 5.04-.192-24.098-40.457-39.293-86.84-42.997-136.46zm392.29 247.348c-63.372 3.176-95.489-13.969-129.493-32.121-35.75-19.082-76.27-40.711-151.129-36.957-74.859 3.754-113.011 29.328-146.672 51.89-32.015 21.461-62.261 41.73-125.636 44.91-63.371 3.172-95.485-13.968-129.485-32.12-35.75-19.083-76.265-40.712-151.125-36.962-11.449.579-20.27 10.329-19.695 21.778.578 11.449 10.324 20.27 21.774 19.691 63.37-3.172 95.488 13.969 129.492 32.121 35.746 19.082 76.261 40.711 151.12 36.961 74.86-3.754 113.013-29.328 146.669-51.89 32.02-21.461 62.265-41.73 125.64-44.91 63.371-3.176 95.489 13.964 129.493 32.117 35.75 19.086 76.265 40.714 151.125 36.96 11.453-.574 20.27-10.324 19.699-21.773-.578-11.45-10.324-20.27-21.778-19.695zm0 0"/></svg>