<svg xmlns="http://www.w3.org/2000/svg" viewBox="0 0 480 480"><path d="M153.398 379.094c4.078.631 8.552.979 13.613.979 1.972 0 4.035-.054 6.131-.158 24.889-1.247 35.493-8.356 50.171-18.195a613.423 613.423 0 015.437-3.615v-90.246h-34.38c-2.466 33.035-15.539 63.08-35.915 86.696a128.605 128.605 0 01-15.983-15.903c16.393-19.497 27.021-43.97 29.385-70.785h-58.864a128.916 128.916 0 01-.001-22.502h58.865c-2.363-26.817-12.993-51.291-29.388-70.789a128.585 128.585 0 0115.986-15.906c20.376 23.616 33.449 53.66 35.915 86.695h34.38V129.603a128.41 128.41 0 0111.25-.492c3.791 0 7.543.166 11.251.492v115.761h34.38c2.466-33.035 15.539-63.079 35.915-86.695a128.609 128.609 0 0115.987 15.908c-16.388 19.497-27.017 43.97-29.38 70.787h58.855a128.734 128.734 0 01-.001 22.502h-58.854c2.205 25.028 11.615 48.013 26.184 66.818 11.159 1.589 20.585 4.333 28.83 7.536C380.076 317.94 390 288.435 390 256.61c0-82.845-67.17-150-150-150-82.845 0-150 67.155-150 150 0 50.577 25.04 95.311 63.398 122.484zm97.853-111.237v77.579c13.342-6.035 30.035-10.854 52.6-11.986.81-.04 1.612-.062 2.419-.091-11.567-19.421-18.861-41.684-20.639-65.502h-34.38zm188.3 118.726c-30.419 1.525-45.835-6.704-62.157-15.417-17.159-9.159-36.609-19.541-72.541-17.74-35.933 1.802-54.246 14.077-70.403 24.907-15.368 10.302-29.886 20.031-60.305 21.557-30.418 1.524-45.833-6.705-62.154-15.418-17.159-9.159-36.607-19.541-72.539-17.74-5.496.276-9.729 4.956-9.453 10.452s4.955 9.729 10.451 9.453c30.418-1.524 45.834 6.705 62.155 15.418 17.158 9.159 36.607 19.541 72.538 17.74 35.933-1.802 54.246-14.077 70.402-24.907 15.369-10.302 29.886-20.031 60.306-21.557 30.419-1.525 45.836 6.704 62.158 15.417 17.159 9.16 36.607 19.542 72.54 17.74 5.496-.275 9.729-4.955 9.454-10.451-.277-5.496-4.955-9.729-10.452-9.454z"/></svg>