<svg xmlns="http://www.w3.org/2000/svg" viewBox="0 0 480 480"><path d="M153.439 379.1c4.067.627 8.528.973 13.572.973 1.972 0 4.035-.054 6.131-.158 24.889-1.247 35.493-8.356 50.171-18.195.929-.622 1.872-1.254 2.828-1.891a155.776 155.776 0 01-64.935-3.042 128.448 128.448 0 01-31.522-36.298c41.808 25.898 94.728 27.02 137.854 2.128 5.55-3.21 10.649-6.855 15.54-10.68l-.051-.082-.066-.104-.093-.138c-.071-.105-.142-.21-.21-.322-6.734-10.545-15-19.979-24.346-28.274-.628-.546-1.251-1.1-1.874-1.651-1.636-1.453-3.276-2.907-5.025-4.244-1.212-.947-2.499-1.802-3.786-2.659h-.002c-.528-.351-1.058-.704-1.582-1.061a121.26 121.26 0 00-6.63-4.29c-1.495.818-3.05 1.504-4.606 2.191h-.001c-.897.396-1.794.792-2.683 1.214-.59.279-1.164.597-1.737.912h-.001v.001c-.683.374-1.364.749-2.072 1.066-.343.152-.7.274-1.056.396v.001c-.312.106-.622.213-.923.339-4.381 1.89-8.836 3.479-13.365 4.949-.258.09-.516.184-.773.277h-.003l-.001.001c-.432.158-.867.316-1.308.457-.165.059-.343.091-.519.124l-.126.024-.151.031c-14.504 4.409-29.55 6.945-44.775 6.945-.121 0-.239-.008-.355-.016-.112-.007-.224-.015-.334-.015-3.914-.046-7.755-.284-11.595-.585v-.015c-.187-.008-.372-.035-.555-.06-.185-.026-.368-.054-.556-.061-3.39-.314-6.75-.765-10.095-1.291-.434-.062-.872-.11-1.308-.159h-.001a25.931 25.931 0 01-1.751-.229l-.1-.017-.112-.019-.132-.021c-.133-.021-.263-.04-.392-.064a22.583 22.583 0 01-1.769-.392h-.001v-.001a32.96 32.96 0 00-1.125-.268c-2.641-.525-5.266-1.095-7.875-1.77-.33-.08-.665-.149-1.001-.219h-.001v-.002c-.489-.1-.979-.201-1.458-.336-.185-.048-.37-.092-.558-.136-.27-.064-.542-.128-.808-.208-1.146-.312-2.26-.697-3.375-1.08a96.394 96.394 0 00-1.965-.661c-.512-.166-1.024-.329-1.535-.491-.682-.218-1.364-.434-2.042-.658a127.654 127.654 0 01-2.017-22.66c0-.364 0-.729.004-1.093a136.78 136.78 0 008.072 3.17c1.426.511 2.881.96 4.335 1.41 3.165 1.021 6.33 1.995 9.57 2.775 1.022.241 2.056.425 3.087.609.633.112 1.266.225 1.893.351.576.111 1.151.226 1.726.339 2.509.497 5.012.994 7.575 1.312-.676-5.926-1.125-11.91-1.125-18.016 0-41.801 16.783-80.72 45.097-109.277 14.586-5.842 30.493-9.064 47.138-9.08-43.363 23.248-70.807 68.545-70.807 118.346 0 6.404.602 12.645 1.486 18.81.134-.009.266-.019.396-.03.132-.011.264-.023.398-.029 12.479-.57 24.765-2.985 36.6-6.931.667-.227 1.335-.446 2.003-.668 2.214-.732 4.422-1.463 6.577-2.361 1.326-.545 2.62-1.181 3.916-1.818h.002c.667-.328 1.334-.656 2.007-.972a128.968 128.968 0 007.005-3.601c.047-1.675.227-3.327.405-4.981v-.003c.111-1.011.22-2.022.3-3.04.046-.622.062-1.251.074-1.881v-.001c.02-.802.037-1.604.12-2.394.041-.385.114-.765.185-1.142h.002v-.001c.06-.314.118-.629.159-.942.569-4.74 1.41-9.405 2.4-14.055.046-.248.088-.496.131-.745v-.001h.001c.082-.477.164-.957.273-1.429.029-.128.07-.259.111-.391a4.96 4.96 0 00.112-.391c3.451-14.774 8.761-29.069 16.381-42.254l.099-.149.061-.089h.001c.086-.125.171-.248.245-.378 1.979-3.344 4.109-6.554 6.285-9.704.119-.178.246-.343.377-.508.099-.128.199-.255.298-.393 1.95-2.775 4.02-5.444 6.149-8.085.279-.352.545-.712.81-1.073.346-.473.692-.945 1.065-1.387.088-.104.172-.212.254-.318.071-.092.141-.183.212-.267.354-.42.729-.813 1.104-1.203.309-.321.614-.64.905-.972 1.785-2.04 3.6-4.005 5.475-5.939.255-.263.503-.536.75-.811.318-.353.638-.706.976-1.035.314-.33.645-.675.975-1.005.831-.813 1.698-1.569 2.562-2.325.539-.471 1.077-.941 1.607-1.425.454-.408.906-.819 1.357-1.23l.003-.003c.476-.434.952-.867 1.43-1.297a127.09 127.09 0 0121.566 10.151 140.925 140.925 0 00-6.759 5.378c-.996.854-1.959 1.74-2.926 2.633l-.465.428c-2.443 2.219-4.904 4.469-7.199 6.899-.701.746-1.361 1.529-2.025 2.316a85.85 85.85 0 01-1.305 1.523c-.387.446-.774.892-1.164 1.336-1.676 1.917-3.353 3.837-4.91 5.894 5.474 2.355 10.889 4.98 16.17 8.026 36.209 20.905 61.531 54.904 72.097 93.711a126.57 126.57 0 01-15.711 45.298 134.233 134.233 0 00-67.09-120.459c-5.535-3.18-11.25-5.79-17.025-8.116a9.168 9.168 0 00-.135.288 4.91 4.91 0 01-.21.433c-5.76 11.101-9.811 22.966-12.3 35.19-.127.631-.259 1.263-.391 1.893v.001c-.483 2.331-.968 4.657-1.274 7.03-.19 1.437-.287 2.886-.383 4.329-.049.729-.098 1.457-.157 2.183-.21 2.625-.33 5.25-.39 7.89 1.43.874 2.787 1.867 4.146 2.858v.001h.001v.001c.808.59 1.616 1.18 2.438 1.744.521.361 1.067.693 1.614 1.025.681.412 1.361.826 2.001 1.299.299.213.582.455.865.697v.001h.001c.256.218.513.438.785.637 3.809 2.852 7.409 5.911 10.934 9.091l.429.358h.002v.001c.43.356.859.713 1.265 1.095.097.091.19.188.285.285h.001c.095.102.193.203.299.301 11.055 10.38 20.76 22.125 28.38 35.311.083.129.149.269.215.41v.001l.13.264c1.92 3.375 3.615 6.825 5.25 10.275.092.19.17.383.246.57.062.152.122.303.189.449 1.439 3.105 2.715 6.225 3.945 9.39.164.42.345.833.524 1.244.233.534.466 1.065.66 1.606.045.12.094.236.143.352.048.117.098.233.143.354.176.497.323 1.004.469 1.51.124.429.249.856.392 1.277 19.225.459 34.056 4.195 46.284 8.945 16.913-24.279 26.841-53.782 26.841-85.607 0-82.845-67.171-150-150-150-82.846 0-150 67.155-150 150 .004 50.594 25.066 95.326 63.442 122.495zm286.112 7.483c-30.419 1.525-45.835-6.704-62.157-15.417-17.159-9.159-36.609-19.542-72.541-17.74-35.933 1.802-54.246 14.077-70.403 24.906-15.369 10.302-29.886 20.032-60.305 21.557-30.418 1.525-45.833-6.704-62.154-15.417-17.159-9.159-36.607-19.542-72.539-17.74-5.496.275-9.729 4.955-9.453 10.451.275 5.497 4.955 9.729 10.451 9.454 30.418-1.525 45.834 6.704 62.155 15.417 17.159 9.16 36.607 19.542 72.538 17.741 35.932-1.802 54.246-14.077 70.402-24.907 15.369-10.302 29.886-20.031 60.306-21.557 30.419-1.525 45.836 6.704 62.158 15.417 17.159 9.159 36.607 19.542 72.54 17.74 5.496-.275 9.729-4.955 9.454-10.451-.277-5.497-4.956-9.729-10.452-9.454z"/></svg>