<svg xmlns="http://www.w3.org/2000/svg" width="1000pt" height="1000pt" viewBox="0 0 1000 1000"><path d="M907.035 468.75h-52.867V270.832c0-46.023-37.309-83.332-83.332-83.332h-.004c-46.023 0-83.332 37.309-83.332 83.332V468.75h-375V270.832c0-46.023-37.309-83.332-83.332-83.332-46.023 0-83.336 37.309-83.336 83.332V468.75H93.75c-17.258 0-31.25 13.992-31.25 31.25s13.992 31.25 31.25 31.25h52.082v197.918c0 46.023 37.313 83.332 83.336 83.332 46.023 0 83.332-37.309 83.332-83.332V531.25h375v197.918c0 46.023 37.309 83.332 83.332 83.332h.004c46.02 0 83.332-37.309 83.332-83.332V531.25h52.867c17.258 0 31.25-13.992 31.25-31.25s-13.992-31.25-31.25-31.25zm0 0"/></svg>