<svg xmlns="http://www.w3.org/2000/svg" width="1000pt" height="1000pt" viewBox="0 0 1000 1000"><path d="M602.863 252.305c46.57 1.636 85.649-34.785 87.285-81.36 1.641-46.57-34.785-85.648-81.355-87.285-46.57-1.637-85.652 34.79-87.29 81.36-1.636 46.566 34.79 85.648 81.36 87.285zm165.504 372.687L667.247 344.13c-2.274-6.328-6.06-11.899-10.884-16.375-4.16-4.754-9.433-8.652-15.687-11.184l-119.04-48.125c-2.277-.922-4.585-1.582-6.906-2.082l-.37-.086c-.606-.129-1.215-.226-1.825-.328-.23-.039-.46-.09-.687-.125l-225.891-33.406a41.66 41.66 0 00-32.46 8.957 41.662 41.662 0 00-15.24 30.023l-9.03 167.942c-1.239 22.98 16.39 42.61 39.367 43.844 23.011 1.289 42.61-16.391 43.844-39.368l6.574-122.27 128.527 19.009-74.637 184.605c-8.625 21.332 1.68 45.621 23.012 54.246l64.89 26.239c29.688 13.53 52.91 37.324 65.731 67.55 13.582 32.012 13.883 67.395.848 99.633-13.035 32.242-37.844 57.473-69.856 71.05-32.011 13.583-67.394 13.884-99.632.849-66.547-26.907-98.805-102.942-71.899-169.489 8.02-19.836 20.297-36.84 36.484-50.531 17.57-14.863 19.762-41.152 4.903-58.723-14.86-17.57-41.149-19.761-58.723-4.902-26.242 22.2-46.965 50.871-59.922 82.918-44.129 109.152 8.774 233.855 117.922 277.984 25.867 10.461 52.969 15.68 80.055 15.68 28.277 0 56.543-5.691 83.36-17.066 52.503-22.274 93.19-63.664 114.566-116.535 19.629-48.555 20.804-101.45 3.625-150.43-21-3.059-40.2-13.063-54.88-28.813-.214-.23-.41-.468-.62-.699-16.66-18.226-25.364-41.8-24.493-66.516.102-2.898.344-5.773.707-8.62 2.684-21.15 12.415-40.641 27.934-55.594 17.563-16.926 40.652-26.243 65.012-26.243.347 0 .699.016 1.05.02.579.004 1.16.012 1.743.031l.543.008c25.027.879 48.21 11.453 65.285 29.77 17.07 18.32 25.992 42.191 25.113 67.218-.86 24.442-11.031 47.246-28.64 64.215a94.19 94.19 0 01-4.532 4.059l7.473 20.754c6.121 16.988 22.129 27.562 39.207 27.562 4.684 0 9.45-.797 14.11-2.476 21.656-7.79 32.89-31.664 25.09-53.317zM634.695 499.72a62.64 62.64 0 00-10.53-1.278 61.28 61.28 0 00-2.24-.043c-3.456 0-6.847.301-10.16.844-28.777 4.73-51.195 29.195-52.257 59.461a62.503 62.503 0 002.047 18.246 62.32 62.32 0 0010.23 21.184 62.719 62.719 0 0018.262 16.508 62.23 62.23 0 0029.726 8.722c.747.028 1.493.04 2.235.04 19.633 0 37.277-9.13 48.765-23.477a62.186 62.186 0 0013.657-36.828c1.086-30.895-20.446-57.325-49.735-63.38zm0 0"/></svg>