<svg xmlns="http://www.w3.org/2000/svg" viewBox="0 0 480 480"><path d="M243.954 103.011c21.019-7.65 31.855-30.891 24.206-51.909-7.65-21.019-30.892-31.855-51.91-24.206-21.019 7.65-31.855 30.891-24.205 51.909 7.649 21.019 30.891 31.856 51.909 24.206zm162.404 65.998l-57.126-40a20.001 20.001 0 00-11.472-3.617h-67.952c-.091-.001-.179-.014-.271-.014h-60c-.092 0-.18.013-.271.014H140.33l-25.211-37.815a44.705 44.705 0 01-9.818 1.091c-12.522 0-24.223-5.259-32.559-13.981-4.099 6.473-4.282 15.012.242 21.798l40.001 60.002a19.998 19.998 0 0016.641 8.906h59.912v99.986c0 11.046 8.954 20 20 20h30.727c34.457 0 62.489 28.032 62.489 62.488s-28.032 62.488-62.489 62.488c-34.456 0-62.488-28.032-62.488-62.488 0-10.269 2.403-20.043 7.145-29.05 5.145-9.774 1.392-21.869-8.383-27.014-9.776-5.145-21.87-1.391-27.014 8.383-7.686 14.603-11.748 31.09-11.748 47.681 0 56.513 45.976 102.488 102.488 102.488s102.489-45.976 102.489-102.488c0-38.664-21.523-72.392-53.216-89.843v-92.632h41.917l51.96 36.383a19.907 19.907 0 0011.454 3.619c6.305-.001 12.51-2.975 16.4-8.53 6.336-9.049 4.137-21.52-4.911-27.855zM77.922 55.909a29.645 29.645 0 001.136 2.294l.132.228c.312.552.641 1.09.983 1.616.074.114.146.23.223.343.379.565.775 1.116 1.188 1.649.076.099.155.193.233.291.384.482.78.953 1.191 1.408l.194.221c.456.495.93.972 1.415 1.434.102.096.206.191.309.286l.261.227c.402.363.805.726 1.225 1.065l.059.049c.526.424 1.07.823 1.623 1.209a30.549 30.549 0 002.049 1.32l.144.08c.544.313 1.099.606 1.66.886.123.062.246.124.37.184.594.285 1.197.553 1.809.799.105.042.212.08.316.12.556.217 1.117.416 1.684.598.11.036.22.074.331.109.628.193 1.264.366 1.905.52.139.033.278.062.417.094.603.135 1.209.254 1.82.352l.201.035a29.89 29.89 0 002.451.264 29.09 29.09 0 002.026.078l.021.001c.163 0 .327-.008.49-.011l-.001-.002c.287-.004.574-.006.862-.02.134-.006.269-.018.402-.025.328-.02.656-.041.985-.072.176-.016.351-.037.526-.057.289-.032.579-.066.868-.106.188-.026.376-.057.563-.087.279-.044.559-.093.838-.146.189-.036.38-.073.569-.112.282-.059.564-.124.846-.191.184-.044.367-.087.551-.135.305-.078.608-.166.913-.256.156-.046.313-.088.471-.137.459-.143.917-.295 1.374-.461a30.04 30.04 0 005.473-2.64c8.917-5.479 14.255-15.22 14.274-25.495a29.944 29.944 0 00-1.817-10.315 30.854 30.854 0 00-.813-1.988l-.199-.439a30.874 30.874 0 00-.936-1.853l-.142-.243a30.113 30.113 0 00-.97-1.596c-.078-.119-.153-.239-.232-.357a30.257 30.257 0 00-1.181-1.637c-.081-.105-.165-.206-.247-.309a29.028 29.028 0 00-1.173-1.388l-.207-.233a29.969 29.969 0 00-1.405-1.424c-.106-.102-.215-.201-.323-.301a29.885 29.885 0 00-1.464-1.272l-.075-.063a29.482 29.482 0 00-1.614-1.202 29.389 29.389 0 00-2.053-1.322l-.154-.087a29.914 29.914 0 00-1.648-.879c-.125-.062-.249-.126-.375-.187a30.952 30.952 0 00-1.807-.798c-.105-.042-.212-.08-.318-.121a30.747 30.747 0 00-1.681-.597c-.111-.036-.222-.075-.333-.109a31.173 31.173 0 00-1.906-.52c-.137-.032-.275-.062-.414-.093a30.32 30.32 0 00-1.826-.353l-.195-.034a29.36 29.36 0 00-1.991-.23c-.153-.013-.307-.023-.46-.034a29.753 29.753 0 00-2.028-.078c-.457-.001-.915.011-1.373.031-.131.006-.261.018-.392.025-.333.02-.666.042-1 .072-.169.016-.338.036-.507.055a23.962 23.962 0 00-1.43.192 28.82 28.82 0 00-2.294.457c-.172.041-.343.081-.515.125-.318.083-.637.175-.955.268-.145.043-.29.082-.435.127-.461.144-.921.296-1.38.463-15.565 5.666-23.593 22.881-17.927 38.45.247.68.525 1.34.815 1.99z"/></svg>