<svg xmlns="http://www.w3.org/2000/svg" viewBox="0 0 480 480"><path d="M289.375 121.107c22.354.785 41.111-16.698 41.897-39.053.786-22.354-16.698-41.111-39.052-41.897s-41.112 16.698-41.898 39.052c-.785 22.353 16.699 41.112 39.053 41.898zm79.442 178.89l-48.538-134.815c-1.093-3.037-2.909-5.711-5.225-7.861a19.894 19.894 0 00-7.53-5.367l-57.138-23.101a20.079 20.079 0 00-3.316-.999l-.178-.041c-.29-.062-.583-.109-.876-.158-.11-.019-.22-.043-.33-.06L137.26 111.561a19.997 19.997 0 00-22.896 18.711l-4.335 80.611c-.594 11.03 7.867 20.452 18.896 21.045 11.045.618 20.452-7.867 21.045-18.896l3.156-58.689 61.692 9.124-35.825 88.61c-4.14 10.24.806 21.898 11.046 26.038l31.148 12.594c14.25 6.496 25.396 17.916 31.55 32.424 6.519 15.366 6.663 32.351.406 47.825-6.256 15.475-18.164 27.586-33.529 34.104-15.367 6.52-32.351 6.663-47.825.406-31.943-12.915-47.425-49.411-34.511-81.354 3.85-9.521 9.742-17.682 17.513-24.255 8.433-7.134 9.486-19.753 2.353-28.187-7.133-8.433-19.752-9.486-28.187-2.353-12.597 10.656-22.543 24.419-28.763 39.801-21.181 52.393 4.211 112.25 56.602 133.432 12.418 5.021 25.426 7.527 38.428 7.527 13.573 0 27.14-2.733 40.011-8.193 25.202-10.691 44.732-30.557 54.993-55.936 9.422-23.306 9.985-48.696 1.739-72.206-10.079-1.469-19.296-6.271-26.341-13.83-.103-.11-.197-.226-.299-.336-7.996-8.748-12.173-20.064-11.756-31.927.049-1.392.166-2.772.339-4.139 1.288-10.151 5.959-19.507 13.408-26.685 8.431-8.123 19.514-12.596 31.206-12.596.167 0 .336.007.504.009.278.003.558.006.837.015l.26.004c12.013.423 23.142 5.497 31.337 14.29s12.477 20.251 12.054 32.264c-.412 11.732-5.294 22.679-13.747 30.823a45.297 45.297 0 01-2.174 1.949l3.587 9.962c2.937 8.155 10.622 13.23 18.818 13.23a20.006 20.006 0 006.774-1.188c10.394-3.74 15.786-15.199 12.043-25.592zm-64.163-60.132a29.991 29.991 0 00-6.129-.633c-1.66 0-3.288.143-4.878.404-13.813 2.271-24.573 14.014-25.084 28.542a29.897 29.897 0 005.893 18.925 30.125 30.125 0 008.767 7.925 29.868 29.868 0 0015.34 4.205c9.425 0 17.894-4.382 23.408-11.268a29.854 29.854 0 006.555-17.679c.522-14.829-9.814-27.514-23.872-30.421z"/></svg>