<svg xmlns="http://www.w3.org/2000/svg" width="1000pt" height="1000pt" viewBox="0 0 1000 1000"><path d="M508.238 214.605c43.79-15.937 66.364-64.355 50.43-108.144-15.938-43.79-64.36-66.363-108.148-50.426-43.79 15.938-66.364 64.356-50.426 108.14 15.933 43.79 64.355 66.368 108.144 50.43zm338.34 137.497L727.566 268.77a41.651 41.651 0 00-23.898-7.536H562.102c-.192-.004-.375-.03-.567-.03h-125c-.191 0-.375.026-.562.03H292.355l-52.523-78.78a93.2 93.2 0 01-20.453 2.273c-26.09 0-50.465-10.957-67.832-29.13-8.54 13.485-8.922 31.274.504 45.415l83.336 125.004a41.666 41.666 0 0034.668 18.554H394.87v208.301c0 23.016 18.652 41.668 41.668 41.668h64.012c71.785 0 130.187 58.402 130.187 130.184 0 71.785-58.402 130.183-130.187 130.183-71.781 0-130.184-58.398-130.184-130.183 0-21.395 5.008-41.758 14.887-60.52 10.719-20.363 2.898-45.562-17.465-56.281-20.367-10.719-45.562-2.899-56.277 17.465-16.016 30.422-24.477 64.773-24.477 99.336 0 117.734 95.785 213.515 213.516 213.515 117.734 0 213.52-95.781 213.52-213.515 0-80.551-44.84-150.817-110.868-187.172V344.566h87.328l108.25 75.797a41.47 41.47 0 0023.864 7.54c13.132 0 26.062-6.196 34.164-17.77 13.203-18.852 8.62-44.832-10.23-58.031zM162.336 116.477l.41.906a64.175 64.175 0 001.957 3.875l.277.472a61.748 61.748 0 002.047 3.368c.153.238.305.48.465.715a62.271 62.271 0 002.473 3.433c.16.207.324.402.488.61a63.846 63.846 0 002.48 2.933l.403.457a64.52 64.52 0 002.95 2.988c.21.2.429.399.644.598l.543.473c.836.754 1.675 1.511 2.55 2.218l.125.102a62.141 62.141 0 003.38 2.52 65.39 65.39 0 004.27 2.75l.3.164a65.19 65.19 0 003.457 1.847c.257.13.515.258.773.383a62.333 62.333 0 003.77 1.664c.218.09.441.168.656.25 1.16.453 2.328.867 3.508 1.246.23.074.46.156.691.227a65.38 65.38 0 003.969 1.086l.867.195a65.62 65.62 0 003.793.734l.418.07c1.371.212 2.754.36 4.14.477.32.032.645.055.965.075a60.83 60.83 0 004.223.164h.043c.34 0 .68-.016 1.02-.024v-.004c.597-.008 1.195-.012 1.793-.039.28-.015.562-.039.84-.055a60.29 60.29 0 002.05-.148c.367-.035.73-.078 1.098-.121a71.326 71.326 0 001.808-.219c.391-.054.782-.12 1.172-.183.582-.09 1.164-.192 1.746-.301.395-.078.793-.153 1.184-.235.59-.125 1.176-.257 1.766-.398.382-.09.761-.18 1.144-.281.637-.164 1.27-.348 1.903-.535.328-.094.652-.18.984-.286.953-.296 1.91-.613 2.86-.957a65.355 65.355 0 002.995-1.175 63.48 63.48 0 008.407-4.325c18.578-11.418 29.699-31.71 29.738-53.117a62.336 62.336 0 00-3.785-21.488 62.485 62.485 0 00-1.696-4.14c-.136-.305-.273-.614-.414-.919a66.035 66.035 0 00-1.949-3.859l-.297-.504a63.338 63.338 0 00-2.02-3.328c-.163-.246-.32-.496-.484-.742a63.006 63.006 0 00-2.46-3.41c-.169-.22-.344-.43-.512-.645a60.05 60.05 0 00-2.446-2.89l-.43-.485a61.815 61.815 0 00-2.929-2.969c-.219-.21-.445-.418-.672-.625a61.262 61.262 0 00-3.05-2.652l-.157-.129a58.165 58.165 0 00-3.363-2.504c-.25-.18-.504-.355-.762-.527a61.145 61.145 0 00-3.512-2.23l-.324-.18a60.213 60.213 0 00-3.433-1.832c-.258-.13-.516-.262-.782-.387a62.115 62.115 0 00-3.761-1.664c-.22-.086-.442-.168-.664-.254a67.578 67.578 0 00-3.5-1.242c-.235-.074-.465-.157-.696-.227a62.734 62.734 0 00-4.832-1.277 62.258 62.258 0 00-3.804-.735l-.407-.07a61.26 61.26 0 00-4.148-.48c-.32-.028-.64-.047-.957-.07a63.37 63.37 0 00-4.227-.165c-.953 0-1.906.024-2.86.067-.273.011-.542.035-.816.05-.695.043-1.39.086-2.085.149-.352.035-.704.078-1.055.117-.621.067-1.238.14-1.86.227-.375.054-.746.113-1.12.172-.606.097-1.212.199-1.813.316a51.674 51.674 0 00-2.965.637c-.36.086-.715.168-1.074.261-.66.172-1.328.364-1.988.555-.305.09-.606.172-.907.266-.96.3-1.918.617-2.875.965-32.43 11.804-49.152 47.668-37.347 80.105a63.468 63.468 0 001.695 4.145zm0 0"/></svg>