<svg xmlns="http://www.w3.org/2000/svg" viewBox="0 0 480 480"><path d="M214.525 102.761c21.019-7.65 31.856-30.891 24.206-51.909s-30.891-31.856-51.909-24.206-31.856 30.891-24.206 51.909 30.891 31.856 51.909 24.206zm60.406-37.339c-.176-.484-.33-.973-.491-1.459A19.903 19.903 0 00270 76.512l-.004 31.64-103.284 17.217-.253.056c-.466.084-.924.187-1.377.301-.19.049-.382.094-.57.147a19.92 19.92 0 00-1.338.438c-.186.066-.373.131-.556.203-.421.166-.829.354-1.233.546-.19.091-.383.178-.57.274-.385.199-.757.416-1.125.639-.188.113-.379.223-.562.342-.362.234-.71.486-1.055.744-.169.125-.34.246-.505.377-.353.28-.689.577-1.021.88-.136.124-.275.243-.408.371-.349.337-.681.688-1.004 1.048-.097.108-.198.213-.293.323-.341.396-.662.809-.97 1.229l-.193.258c-.317.449-.614.914-.895 1.388l-.13.214c-.277.483-.531.98-.768 1.486l-.11.229c-.224.493-.421.998-.604 1.51-.037.104-.078.206-.113.311-.163.48-.301.971-.428 1.465-.038.15-.08.299-.115.449a19.97 19.97 0 00-.26 1.384c-.031.2-.066.397-.092.6a18.78 18.78 0 00-.114 1.325c-.014.228-.029.454-.035.684-.004.17-.025.335-.025.506v120c0 11.046 8.954 20 20 20h30.686c34.456 0 62.488 28.032 62.488 62.488s-28.032 62.488-62.488 62.488-62.488-28.032-62.488-62.488c0-10.269 2.403-20.043 7.144-29.05 5.145-9.774 1.391-21.869-8.384-27.013-9.773-5.146-21.868-1.392-27.013 8.384-7.686 14.602-11.747 31.089-11.747 47.679 0 56.513 45.976 102.488 102.488 102.488s102.488-45.976 102.488-102.488c0-38.647-21.505-72.362-53.174-89.819V152.038l43.294-7.217c9.643-1.607 16.711-9.949 16.712-19.726L310 96.868c-15.927-3.938-29.3-15.596-35.069-31.446zm75.174-27.362a29.981 29.981 0 00-.823-2.01c-.06-.134-.119-.268-.181-.399a29.894 29.894 0 00-.951-1.884l-.113-.195a28.98 28.98 0 00-1.006-1.653c-.069-.107-.138-.216-.209-.322a30.085 30.085 0 00-1.198-1.662c-.072-.093-.147-.184-.22-.275-.39-.489-.792-.966-1.208-1.428l-.184-.207a29.727 29.727 0 00-1.722-1.718 29.891 29.891 0 00-1.501-1.305l-.045-.039a30.094 30.094 0 00-1.978-1.453 30.507 30.507 0 00-1.702-1.08l-.129-.071a30.952 30.952 0 00-1.677-.896c-.12-.06-.239-.12-.359-.178a30.277 30.277 0 00-1.817-.803c-.101-.04-.203-.076-.306-.116a29.716 29.716 0 00-1.697-.603c-.107-.034-.214-.072-.321-.105a30.686 30.686 0 00-1.913-.521c-.135-.032-.271-.061-.405-.091a29.082 29.082 0 00-1.834-.354l-.192-.033a29.447 29.447 0 00-1.994-.23c-.151-.013-.303-.023-.454-.034a29.29 29.29 0 00-2.033-.078c-.455-.001-.911.011-1.368.031-.137.006-.273.019-.41.026-.328.02-.656.041-.984.071-.17.016-.34.036-.51.056a27.06 27.06 0 00-.891.109c-.179.024-.357.053-.537.082a30.235 30.235 0 00-2.312.462c-.161.039-.323.076-.485.118-.34.088-.68.186-1.02.286-.122.036-.244.068-.366.106-.466.145-.932.299-1.395.468-10.704 3.896-17.843 13.25-19.418 23.775a29.82 29.82 0 00.903 12.879c.178.601.368 1.2.585 1.797.247.679.523 1.338.813 1.987.066.147.132.295.199.44.294.631.604 1.251.936 1.853l.142.242c.308.545.632 1.076.97 1.596.078.119.153.24.232.358.377.562.771 1.108 1.181 1.638.081.104.164.204.245.307.379.476.771.938 1.175 1.388l.208.235c.453.492.923.966 1.406 1.424.105.101.213.199.319.297.479.441.966.871 1.47 1.279l.07.059a29.629 29.629 0 001.978 1.453c.554.375 1.115.736 1.691 1.073l.145.081c.544.313 1.1.607 1.662.887.121.061.242.122.365.181.339.163.688.306 1.032.456.261.113.518.238.781.345.102.041.205.078.308.118.56.217 1.125.418 1.697.602.106.035.213.072.32.105a30.22 30.22 0 001.914.521c.134.032.269.061.403.091.608.136 1.222.257 1.84.355l.187.032c.661.102 1.328.174 1.997.23.15.013.301.023.452.034.675.047 1.354.078 2.034.078.455.001.911-.011 1.368-.031.136-.006.272-.019.408-.026.328-.02.656-.041.984-.071.171-.016.342-.036.513-.056.296-.032.591-.067.887-.108.181-.025.361-.054.542-.083a31.903 31.903 0 001.408-.257c.295-.062.589-.129.883-.2.171-.041.343-.081.514-.125.319-.083.638-.175.956-.269.145-.042.29-.081.435-.126.461-.144.921-.296 1.38-.463 15.57-5.669 23.597-22.884 17.93-38.453z"/></svg>