<svg xmlns="http://www.w3.org/2000/svg" viewBox="0 0 480 480"><path d="M417.855 183.816c-6.042-9.246-18.437-11.843-27.683-5.8l-41.264 26.968-35.895-70.201c-2.304-4.503-6.085-7.743-10.444-9.47-35.759-22.126-83.167-12.722-107.599 22.139l-34.425 49.122a20 20 0 004.904 27.859l49.18 34.449a19.998 19.998 0 0027.858-4.91l50.021-71.432L323.422 243a20.002 20.002 0 0028.749 7.636l59.885-39.137c9.246-6.042 11.842-18.437 5.799-27.683zM260.49 322.617a20.008 20.008 0 00-8.148-12.639l-98.299-69.098c-9.038-6.352-21.512-4.175-27.863 4.86-6.353 9.037-4.176 21.512 4.86 27.864l91.66 64.432 19.763 104.287c1.818 9.595 10.208 16.28 19.628 16.28 1.235 0 2.488-.115 3.746-.354 10.853-2.057 17.983-12.521 15.927-23.374L260.49 322.617zm-118.986-13.282c-11.046 0-20 8.954-20 20v39.617l-69.443 53.843c-8.729 6.769-10.319 19.331-3.551 28.061 3.942 5.084 9.849 7.746 15.82 7.746 4.281 0 8.595-1.369 12.241-4.195l77.188-59.848a20 20 0 007.745-15.806v-49.418c0-11.046-8.954-20-20-20zm176.537-197.559c18.902 13.236 42.276 8.983 55.512-9.919s9.081-42.47-9.821-55.706c-18.902-13.235-42.476-9.083-55.711 9.82s-8.882 42.57 10.02 55.805z"/></svg>