<svg xmlns="http://www.w3.org/2000/svg" width="1000pt" height="1000pt" viewBox="0 0 1000 1000"><path d="M895.352 368.145c-24.758 30.39-58.825 52.902-97.817 63.144a433.37 433.37 0 0152.996 119.535c-6.531 45.254-21.648 87.766-43.64 125.824 2.738-87.992-25.73-172.765-78.348-240.457-69.02-7.878-126.77-53.37-152.191-115.414-1.036-.425-2.075-.859-3.114-1.277-.133.266-.254.535-.375.8-.18.4-.36.802-.586 1.2-16 30.832-27.25 63.793-34.164 97.75a735.91 735.91 0 01-1.086 5.258c-1.343 6.476-2.687 12.941-3.539 19.535-.527 3.984-.793 8.012-1.062 12.023a383.695 383.695 0 01-.438 6.055c-.586 7.293-.918 14.586-1.086 21.922 3.97 2.43 7.746 5.184 11.516 7.941h.004v.004c2.246 1.637 4.488 3.278 6.773 4.844 1.446 1.004 2.965 1.926 4.48 2.848 1.891 1.148 3.782 2.297 5.56 3.613.831.59 1.617 1.258 2.406 1.934.71.609 1.425 1.218 2.18 1.773 10.581 7.918 20.581 16.418 30.374 25.25.39.332.793.664 1.192.996 1.195.992 2.386 1.984 3.515 3.047.27.25.528.516.793.793.266.277.54.562.828.832 30.711 28.836 57.672 61.457 78.836 98.082.23.36.414.746.598 1.14.117.247.234.497.363.739 5.332 9.375 10.04 18.957 14.582 28.539.254.531.47 1.066.68 1.59.172.418.34.836.527 1.246 4 8.625 7.54 17.293 10.961 26.082a86.446 86.446 0 001.457 3.46c.649 1.477 1.293 2.958 1.832 4.458.125.332.262.656.395.98.137.32.27.649.394.98.493 1.384.899 2.79 1.305 4.196.356 1.219.707 2.438 1.113 3.637 2.375 7.082 4.664 14.21 6.707 21.46.278 1.06.614 2.09.954 3.114v.004c.382 1.16.761 2.316 1.046 3.508.375 1.25.75 2.543 1.086 3.789.84 3.285 1.489 6.586 2.133 9.89.348 1.774.7 3.543 1.074 5.32.332 1.552.676 3.098 1.016 4.641.398 1.805.797 3.606 1.18 5.41a356.156 356.156 0 01-54.352 38 361.956 361.956 0 00-3.547-23.808c-.793-4.125-1.707-8.207-2.625-12.293-1.957-9.039-3.957-18.039-6.668-26.953-.855-2.953-1.906-5.863-2.957-8.766a303.803 303.803 0 01-1.586-4.445c-.43-1.27-.859-2.543-1.285-3.813-2.379-7.046-4.738-14.05-7.672-20.937-13.293 9.836-27.082 19.25-41.793 27.75-100.441 57.977-217.25 71.691-325.152 43.355-35.16-27.71-64.957-61.933-87.566-100.824 116.136 71.942 263.136 75.059 382.933 5.91 15.418-8.914 29.586-19.039 43.168-29.664l-.14-.226-.184-.29-.258-.382c-.2-.293-.394-.582-.582-.895-18.707-29.293-41.668-55.504-67.629-78.543a727.081 727.081 0 01-5.203-4.586c-4.55-4.035-9.101-8.074-13.96-11.789-3.368-2.629-6.942-5.004-10.52-7.382h-.004c-1.47-.98-2.938-1.957-4.39-2.95a338.53 338.53 0 00-18.419-11.918c-4.152 2.274-8.473 4.18-12.797 6.09h-.004c-2.492 1.098-4.988 2.2-7.453 3.371-1.637.782-3.23 1.657-4.824 2.535h-.004c-1.894 1.04-3.785 2.082-5.754 2.965-.953.422-1.945.758-2.933 1.098-.868.297-1.73.594-2.563.941-12.168 5.25-24.543 9.668-37.125 13.75-.715.25-1.43.508-2.144.77l-.004.004h-.008c-1.203.437-2.41.879-3.637 1.27-.457.16-.953.25-1.433.343h-.004l-.348.063-.422.09c-40.293 12.25-82.082 19.292-124.375 19.292-.336 0-.664-.02-.988-.043-.313-.02-.621-.039-.93-.039-10.875-.129-21.539-.793-32.207-1.625v-.043a15.448 15.448 0 01-1.539-.168c-.512-.07-1.02-.144-1.543-.164-9.418-.879-18.75-2.129-28.039-3.586-1.211-.175-2.426-.308-3.637-.441h-.004c-1.632-.18-3.257-.355-4.859-.64l-.277-.047-.313-.051-.363-.055h-.004c-.367-.059-.727-.113-1.086-.18-1.676-.28-3.293-.683-4.914-1.09-1.035-.257-2.07-.515-3.125-.742-7.336-1.457-14.629-3.043-21.875-4.918-.918-.218-1.852-.41-2.785-.605-1.356-.281-2.719-.567-4.047-.934a49.911 49.911 0 00-1.55-.383 36.999 36.999 0 01-2.243-.578c-3.18-.867-6.277-1.933-9.375-2.996a263.063 263.063 0 00-5.457-1.836 598.84 598.84 0 00-4.266-1.363c-1.894-.605-3.789-1.207-5.672-1.832a354.432 354.432 0 01-5.593-65.992 378.69 378.69 0 0022.422 8.808c3.96 1.418 8 2.664 12.042 3.918 8.793 2.829 17.583 5.54 26.583 7.704 2.84.671 5.714 1.183 8.578 1.69 1.757.313 3.511.63 5.254.977 1.601.31 3.199.63 4.793.946 6.968 1.379 13.925 2.758 21.042 3.637-1.875-16.457-3.125-33.082-3.125-50.04 0-116.113 46.622-224.222 125.27-303.55 40.516-16.227 84.703-25.176 130.938-25.223C379.19 210.41 302.96 336.234 302.96 474.57c0 17.793 1.668 35.125 4.125 52.25.375-.02.738-.05 1.105-.082.364-.035.73-.062 1.102-.086 34.668-1.582 68.793-8.289 101.668-19.25 1.855-.625 3.71-1.238 5.566-1.855 6.149-2.035 12.282-4.063 18.27-6.559 3.687-1.511 7.281-3.281 10.879-5.05h.004a305.015 305.015 0 015.578-2.7 361.423 361.423 0 0019.457-10c.129-4.656.625-9.246 1.125-13.843v-.004c.305-2.809.613-5.618.832-8.446.129-1.726.168-3.472.207-5.226v-.004c.05-2.223.101-4.457.336-6.645.113-1.066.312-2.125.512-3.172v-.003c.164-.875.332-1.747.445-2.618 1.586-13.164 3.918-26.125 6.664-39.039.129-.687.25-1.375.367-2.066v-.004h.004c.227-1.328.457-2.656.754-3.973.086-.355.203-.718.312-1.082v-.004c.118-.363.23-.726.313-1.082 9.586-41.043 24.336-80.75 45.5-117.375l.277-.414.168-.246h.004c.235-.347.473-.691.676-1.047 5.5-9.293 11.418-18.21 17.46-26.957.329-.496.684-.949 1.044-1.41.277-.355.558-.71.828-1.09 4.95-7.043 10.184-13.836 15.562-20.547 6.465-48.355 31.422-90.93 67.516-120.367C590.242 90.81 545.996 83.332 500 83.332 269.875 83.332 83.332 269.875 83.332 500c0 230.082 186.543 416.668 416.668 416.668 230.082 0 416.668-186.586 416.668-416.668 0-46.086-7.5-90.414-21.316-131.855zm-291.25-118.227c0 80.539 65.293 145.832 145.832 145.832 7.16 0 14.187-.54 21.066-1.535 45.383-6.567 83.977-34.035 105.754-72.328 12.082-21.239 19.016-45.79 19.016-71.969 0-80.543-65.293-145.836-145.836-145.836-26.211 0-50.79 6.953-72.043 19.059a146.454 146.454 0 00-49.793 46.656c-15.153 23-23.996 50.52-23.996 80.121zm142.789-85.555c.96-.035 1.925-.058 2.898-.058 33.121 0 61.117 20.59 61.035 56.398-.004.598-.039 1.192-.058 1.79-.602 16.917-7.508 33.03-21.344 53.628l-38.574 57.129h-35.399l40.364-59.41c-4.07 1.058-8.461 1.87-13.102 1.87-30.844 0-52.734-22.214-52.734-54.28 0-33.297 23.68-55.828 56.914-57.067zm3.062 84.25c15.461 0 26.367-11.718 26.367-28.238 0-16.684-10.906-28.566-26.367-28.566-15.383 0-26.125 11.882-26.125 28.402 0 16.684 10.742 28.402 26.125 28.402zm0 0"/></svg>