<svg xmlns="http://www.w3.org/2000/svg" width="1000pt" height="1000pt" viewBox="0 0 1000 1000"><path d="M368.082 816.168L231.555 720.57c-18.848-13.199-44.832-8.617-58.028 10.235-33 47.125-21.547 112.078 25.578 145.074l34.133 23.898c47.125 33 112.078 21.547 145.078-25.578 13.196-18.851 8.614-44.832-10.234-58.031zm49.746-422.734l-112.023-78.438-36.72 152.32 86.18 60.344zm190.54 82.554l114.491-114.457c18.32-18.316 15.66-48.738-5.562-63.597l-116.875-81.832c-21.223-14.864-50.719-6.957-61.664 16.527l-68.399 146.73zm-29.919 29.914l-125.96-88.199-62.567 134.223 83.8 58.676zM313.172 716.574a10.422 10.422 0 003.469 12.934l15.27 10.691a10.417 10.417 0 0013.339-1.164l98.547-98.523-71.75-50.239zM898.898 425.09l-77.625-54.352c-16.562-11.597-39.058-9.633-53.355 4.66l-124.89 124.856 119.413 83.613 135.586-89.922c24.477-16.23 24.926-52.011.871-68.855zM227.7 667.23l36.953 25.875c5.305 3.715 12.68 1.739 15.418-4.128l57.317-122.97-78.79-55.167-35.05 145.418a10.418 10.418 0 004.152 10.972zm280.68-32.363l86.176 60.34 130.578-86.598-112.028-78.437zM382.508 760.703c-4.582 4.578-3.918 12.184 1.39 15.899l36.957 25.878a10.42 10.42 0 0011.73.149l124.661-82.676-78.789-55.172zm127.808-565.676c8.543-18.328 2.696-40.14-13.867-51.734l-77.625-54.356c-24.054-16.843-57.523-4.183-64.402 24.368l-38.129 158.168 119.41 83.613zm0 0"/></svg>