<svg xmlns="http://www.w3.org/2000/svg" width="1000pt" height="1000pt" viewBox="0 0 1000 1000"><path d="M145.836 582.734c46.023 0 83.332-37.312 83.332-83.336 0-46.023-37.309-83.332-83.332-83.332-46.024 0-83.332 37.309-83.332 83.332 0 46.024 37.309 83.336 83.332 83.336zM920.984 346.72c6.328-7.164 5.356-18.168-2.136-24.102l-35.27-27.937c-7.52-5.953-18.5-4.352-24.004 3.504-52.922 75.582-104.582 152.078-158.91 226.664-60.441 82.976-124.773 168.8-214.559 222.03-102.453 60.74-187.566 78.419-299.402 44.438-17.101-5.199-72.285-27.824-88.84-34.566-17.703-7.215-31.558 16.18-16.804 28.34C172.71 860.625 292.5 914.875 412.508 917.19c107.89 2.082 231.379-44.59 316.765-109.796 36.407-27.797 75.211-69.008 81.012-117.454 6.133-51.214-43.765-75.937-40.113-123.418 3.812-49.566 114.144-178.277 150.812-219.804zM442.18 525.746l-41.54-29.086-62.55 83.363 47.023 32.926zm20.797-31.781c30.746-43.79 69.488-81.168 113.535-109.531l116.922-75.297-.024-.016c18.328-10.633 35.043-25.668 48.387-44.723 44.293-63.257 34.515-146.289-22.2-183.941-53.003-35.184-129.35-17.164-172.894 40.844-15.16 20.195-24.59 42.625-28.598 65.066l-.027-.015-30.469 135.25c-11.593 51.457-33.62 101.003-64.523 145.136l-9.938 13.242 40.442 28.32zM331.422 639.57c10.867 7.606 25.504 15.547 34.195 3.168l8.082-12.347-48.12-33.692-8.856 11.805c-8.684 12.402 3.824 23.45 14.699 31.066zm0 0"/></svg>