<svg xmlns="http://www.w3.org/2000/svg" width="1000pt" height="1000pt" viewBox="0 0 1000 1000"><path d="M791.879 286.953c38.508 3.035 70.406-28.86 67.371-67.367-2.387-30.297-26.93-54.84-57.227-57.23-38.511-3.04-70.41 28.859-67.375 67.37 2.391 30.297 26.938 54.84 57.23 57.227zm-352 119.945c39.508 28.215 88.648 19.497 116.398-20.132 26.465-37.793 17.63-89.082-20.023-115.75-39.453-27.942-88.824-19.375-116.496 20.152-26.485 37.809-17.45 88.902 20.12 115.73zM246.55 423.664l149.02 104.344-.094 222.398a41.669 41.669 0 0012.195 29.473 42.7 42.7 0 003.426 3.039c20.496-6.793 35.793-17.04 54.14-29.336 31.934-21.406 70.766-47.414 138.567-56.281l.004-159.074 100.328-9.88a41.664 41.664 0 0017.933-6.09l111.239-69.23c19.187-11.937 26.242-37.023 14.984-56.617-11.813-20.57-38.207-27.078-58.164-14.66l-103.836 64.621-126.184 12.422H442.008L312.5 368.109V246.117c0-22.594-17.57-41.836-40.148-42.64-23.704-.84-43.184 18.125-43.184 41.64v148.594c0 .906.05 1.816.203 2.71a41.664 41.664 0 0017.18 27.243zm690.828 399.938c-1.305-10.868-11.23-18.723-22.16-18.192-63.035 3.059-95.074-14.043-128.985-32.148-35.746-19.082-76.27-40.711-151.125-36.957-11.23.562-21.62 1.625-31.308 3.086-54.883 8.28-86.758 29.625-115.367 48.804-1.95 1.309-3.895 2.61-5.844 3.907-29.985 19.96-60.281 38.015-119.79 41.003-63.37 3.172-95.484-13.968-129.488-32.12-35.613-19.008-75.957-40.548-150.265-37-11.133.53-20.465 9.382-20.578 20.527-.121 12.07 9.922 21.578 21.8 20.98 63.372-3.172 95.489 13.969 129.489 32.121 35.746 19.082 76.265 40.711 151.12 36.961 74.86-3.754 113.013-29.328 146.673-51.89 16.98-11.383 33.465-22.43 54.656-30.77a185.9 185.9 0 0117.523-5.89c15.016-4.247 32.403-7.196 53.454-8.25 63.375-3.176 95.492 13.964 129.496 32.117 35.75 19.086 76.265 40.714 151.125 36.96 11.945-.597 21.023-11.175 19.574-23.25zm0 0"/></svg>