<svg xmlns="http://www.w3.org/2000/svg" width="1000pt" height="1000pt" viewBox="0 0 1000 1000"><path d="M782.988 128.816c-9.418-6.605-22.414-4.308-29.011 5.114l-233.93 334.11-146.93 69.312-.137.074c-.43.207-.843.437-1.257.672l-.461.242-175.809 105.793a20.835 20.835 0 00-9.574 13.25 20.807 20.807 0 002.937 16.086l98.797 149.52.047.066c.13.191.266.375.399.562l.363.516.16.187.27.352c.222.273.464.527.699.789l.312.351.192.215.125.121c.238.239.488.461.738.688.234.219.469.441.715.648l.164.145.164.125.496.367c.242.184.48.371.734.547l.418.277.547.332c.23.141.457.29.696.422.23.13.476.25.714.375l.54.262.5.234c.343.153.695.285 1.05.418l.473.184.336.113c.375.125.762.227 1.148.328l.535.157.13.03.019.005 174.101 41.633c1.602.382 3.227.57 4.844.57a20.834 20.834 0 0020.45-16.844l39.288-201.379c.036-.195.047-.387.079-.578.078-.441.148-.883.195-1.336l.023-.168 14.875-161.726 233.953-334.149c6.602-9.426 4.31-22.414-5.117-29.012zm-547.43 539.817l47.864-28.805.437 101.902zm236.325-131.801L407.52 628.75l-3.82-59.758zM324.98 614.82l38.418-23.117 5.868 91.684-43.723 62.445zm137.973 213.035L378.11 807.57l95.438-34.004zm19.867-101.832l-123.308 43.938 43.914-62.715 88.097-25.828zm16.258-90.238l-57.402 16.828 64.304-91.843zm360.793 108.133c-26.394-37.695-78.351-46.86-116.05-20.461-37.7 26.395-46.86 78.352-20.462 116.05 26.395 37.696 78.352 46.856 116.051 20.462 37.695-26.395 46.856-78.352 20.461-116.051zm0 0"/></svg>