<svg xmlns="http://www.w3.org/2000/svg" width="1000pt" height="1000pt" viewBox="0 0 1000 1000"><path d="M476.555 835.7L169.37 620.604c-9.422-6.597-22.414-4.308-29.012 5.118l-23.902 34.129c-13.2 18.851-8.617 44.832 10.234 58.03l273.051 191.192c18.852 13.2 44.832 8.617 58.028-10.23l23.902-34.137c6.598-9.418 4.308-22.41-5.117-29.008zm338.02-628.032l-99.966-70c-75.402-52.797-210.77-31.055-263.562 44.348L307.512 387.004c-6.5 9.285-19.297 11.539-28.582 5.039-9.254-6.477-11.532-19.223-5.09-28.508l83.52-120.125c13.105-18.847 8.495-44.746-10.313-57.914l-17.18-12.031c-34.129-23.899-75.094-1.719-98.992 32.414l-52.082 74.383c-76.828 109.722-50.164 260.949 59.559 337.777l143.296 100.34 33.48 23.441c113.099 79.196 268.985 51.707 348.18-61.394l107.547-153.594c72.594-103.672 47.399-246.57-56.28-319.164zM671.503 613.062l-61.555 10.852 10.856 61.55c1.996 11.333-5.567 22.138-16.899 24.138-1.222.214-2.441.32-3.64.32-9.922 0-18.711-7.113-20.493-17.223l-10.855-61.554-61.559 10.851c-1.222.215-2.441.32-3.64.32-9.922 0-18.711-7.113-20.492-17.222-1.997-11.332 5.57-22.137 16.902-24.137l61.555-10.852-10.852-61.543c-1.996-11.328 5.566-22.136 16.898-24.132 11.336-2 22.137 5.566 24.133 16.898l10.852 61.543 61.555-10.848c11.328-1.972 22.136 5.57 24.132 16.899 1.996 11.336-5.57 22.144-16.898 24.14zM791 442.403l-61.55 10.852 10.85 61.55c2 11.333-5.566 22.137-16.898 24.137-1.222.215-2.441.32-3.64.32-9.922 0-18.707-7.113-20.492-17.222l-10.852-61.55-61.563 10.85c-1.222.212-2.44.321-3.64.321-9.922 0-18.711-7.113-20.492-17.223-1.996-11.332 5.57-22.136 16.898-24.136l61.559-10.852-10.852-61.543c-2-11.328 5.567-22.136 16.895-24.133 11.328-1.996 22.136 5.567 24.132 16.899l10.856 61.547 61.555-10.852c11.332-1.972 22.136 5.574 24.132 16.903 1.997 11.332-5.57 22.14-16.898 24.132zm0 0"/></svg>