<svg xmlns="http://www.w3.org/2000/svg" width="1000pt" height="1000pt" viewBox="0 0 1000 1000"><path d="M354.926 312.5h145.117l-117.07 74.395a41.664 41.664 0 00-12.032 58.707l47.02 68.664c8.055 11.761 21.105 18.129 34.414 18.129 7.652 0 15.39-2.106 22.309-6.504l191.32-121.555 59.144 67.3-17.793 63.454c-6.214 22.16 6.711 45.156 28.868 51.37a41.698 41.698 0 0011.27 1.56c18.21 0 34.94-12.032 40.097-30.426l23.898-85.227a41.663 41.663 0 00-8.816-38.754L635.449 243.328a41.671 41.671 0 00-31.3-14.164H408.913l-58.101 83.125a40.84 40.84 0 004.113.211zM86.223 465.39l109.316 76.34c7.547 5.266 17.934 3.422 23.203-4.12l16.711-23.907c5.274-7.547 3.43-17.941-4.121-23.215l-37.57-26.234L384.64 191.16c6.593-9.43 4.293-22.418-5.141-29.012-9.43-6.593-22.422-4.289-29.012 5.145l-190.89 273.105-37.586-26.246c-7.543-5.265-17.93-3.422-23.203 4.121L82.102 442.18c-5.274 7.547-3.43 17.937 4.12 23.21zm633.84-192.003c34.082 23.828 76.23 16.172 100.093-17.86 23.864-34.027 16.371-76.453-17.71-100.285-34.083-23.824-76.587-16.347-100.45 17.68-23.867 34.027-16.016 76.633 18.067 100.465zM204.168 631.086c-89.606 0-162.5 72.898-162.5 162.5 0 89.605 72.894 162.5 162.5 162.5 89.602 0 162.5-72.895 162.5-162.5 0-89.602-72.898-162.5-162.5-162.5zm0 283.336c-66.629 0-120.836-54.211-120.836-120.836s54.207-120.832 120.836-120.832C270.793 672.754 325 726.96 325 793.586s-54.203 120.836-120.832 120.836zm591.664-283.336c-89.602 0-162.5 72.898-162.5 162.5 0 89.605 72.898 162.5 162.5 162.5 89.606 0 162.5-72.895 162.5-162.5 0-89.602-72.894-162.5-162.5-162.5zm0 283.336C729.207 914.422 675 860.21 675 793.586s54.207-120.832 120.832-120.832c66.629 0 120.836 54.207 120.836 120.832s-54.207 120.836-120.836 120.836zM629.645 617.27l-61.875-65.72c-15.774-16.75-42.141-17.55-58.899-1.773-16.754 15.774-17.547 42.145-1.773 58.899l38.359 40.746-59.695 83.23-94.317-188.777c-10.289-20.582-35.308-28.941-55.898-18.648-20.586 10.285-28.938 35.308-18.652 55.894L441.84 831.195l.09.18 41.632 83.328c7.301 14.606 22.016 23.05 37.305 23.05a41.55 41.55 0 0018.594-4.401c20.586-10.286 28.934-35.309 18.648-55.899l-30.242-60.527 105.301-146.813c11.61-16.187 10.137-38.336-3.523-52.843zm0 0"/></svg>