<svg xmlns="http://www.w3.org/2000/svg" width="1000pt" height="1000pt" viewBox="0 0 1000 1000"><path d="M202.016 707.848c.824.047 1.66.074 2.5.074h189.199c10.312 0 12.844-14.297 3.176-17.895l-.524-.195c-74.05-27.586-145.414-63.355-212.105-106.328a929.104 929.104 0 01-3.2-2.07c-6.207-4.036-14.394.425-14.394 7.824v79.957c0 20.086 15.293 37.441 35.348 38.633zm733.027-118.203c-12.25-35.243-47.598-60.516-86.922-60.516-187.68 0-343.883-133.574-379.398-310.817l-.075-.367c-3.714-17.867-19.828-30.445-38.078-30.445H207.941c-22.796 0-41.273 18.48-41.273 41.273v283.84a16.682 16.682 0 007.14 13.68c10.43 7.3 21.43 14.715 33.02 22.184 65.145 41.968 157.262 90.695 272.34 124.843v97.512H84.047c-11.094 0-20.785 8.375-21.5 19.45-.79 12.132 8.82 22.218 20.785 22.218h833.336c11.504 0 20.832-9.328 20.832-20.832v-187.14c0-5.063-.797-10.102-2.457-14.883zm-39.211 164.523c0 9.203-7.46 16.664-16.664 16.664H520.832V684.77a1041.628 1041.628 0 00104.953 20.843 222.991 222.991 0 0032.149 2.305h221.234c9.203 0 16.664 7.46 16.664 16.664zm0 0"/></svg>