<svg xmlns="http://www.w3.org/2000/svg" width="1000pt" height="1000pt" viewBox="0 0 1000 1000"><path d="M559.71 668.977L354.923 525.582c-18.852-13.203-44.832-8.617-58.027 10.23-13.2 18.852-8.622 44.833 10.23 58.028l170.676 119.508-119.414 170.718c-13.192 18.86-8.598 44.836 10.258 58.028a41.485 41.485 0 0023.847 7.527c13.145 0 26.074-6.203 34.18-17.789l143.285-204.844c13.184-18.851 8.598-44.82-10.246-58.011zm-208.222 6.796c-18.851-13.199-44.828-8.617-58.027 10.23l-143.395 204.79c-13.199 18.852-8.617 44.836 10.23 58.031a41.48 41.48 0 0023.864 7.54c13.137 0 26.063-6.2 34.168-17.774L361.723 733.8c13.199-18.847 8.617-44.827-10.235-58.027zm276.969-467.406c39.379 27.574 88.074 18.715 115.648-20.664 27.575-39.379 18.918-88.48-20.46-116.055-39.38-27.574-88.493-18.921-116.063 20.457-27.574 39.38-18.504 88.688 20.875 116.262zm241.941 16.903c-18.851-13.204-44.828-8.618-58.03 10.23l-71.696 102.395-67.508-47.27c-.262-.191-.496-.402-.762-.59l-102.39-71.695c-.254-.176-.52-.317-.778-.485l-101.613-71.152a41.677 41.677 0 00-31.133-6.902 41.677 41.677 0 00-26.894 17.137L276.898 346.448c-13.199 18.848-8.62 44.832 10.23 58.028 16.325 11.43 37.977 9.503 52.067-3.45a41.71 41.71 0 005.965-6.78l15.031-21.474c5.547 13.829 13.922 26.45 24.961 36.93 1.368 1.3 2.766 2.574 4.211 3.809a104.627 104.627 0 009.133 6.914 96.139 96.139 0 003.293 2.125c.344.215.695.41 1.04.62.765.466 1.53.93 2.308 1.372.414.234.832.453 1.25.684.715.39 1.43.789 2.152 1.164.441.23.895.445 1.34.671.7.352 1.398.704 2.101 1.04.473.222.946.425 1.422.644.688.313 1.375.633 2.067.926.484.21.976.402 1.465.601.683.282 1.37.567 2.062.832.496.192.996.368 1.492.551.692.254 1.383.508 2.078.746.5.172 1.008.332 1.512.496a80.33 80.33 0 003.625 1.11c.695.199 1.387.394 2.086.578.516.137 1.04.266 1.563.39.695.172 1.39.34 2.09.497.523.12 1.054.23 1.581.34a94.055 94.055 0 003.7.699c.691.12 1.386.234 2.082.34.543.078 1.082.156 1.62.226a95.376 95.376 0 003.723.434c.7.07 1.395.133 2.094.187.547.043 1.09.082 1.637.117.7.043 1.402.082 2.105.114a113.981 113.981 0 003.739.097c.32 0 .636.016.957.016l.394-.012c2.074-.008 4.153-.078 6.227-.203l.89-.058c2.067-.141 4.133-.34 6.2-.602.296-.035.593-.078.894-.117 2.063-.278 4.121-.606 6.172-.996.29-.055.574-.114.86-.172 2.062-.41 4.117-.871 6.16-1.399.265-.066.53-.14.796-.214 2.063-.543 4.118-1.141 6.153-1.805.23-.074.46-.156.687-.23 2.07-.688 4.13-1.43 6.172-2.239l.52-.21a117.55 117.55 0 006.215-2.7l.3-.145c2.121-1 4.22-2.062 6.293-3.199a4.503 4.503 0 002.285-3.39c.586-5.036.852-10.075.797-15.075-.39-35.015-16.453-68.375-46.343-88.515a107.125 107.125 0 00-3.293-2.13c-.364-.222-.735-.433-1.098-.652a82.65 82.65 0 00-2.246-1.332c-.442-.253-.887-.484-1.332-.73a87.772 87.772 0 00-2.063-1.117c-.48-.25-.965-.485-1.449-.727-.492-.246-.988-.496-1.484-.734l-.504-.25c-.504-.238-1.016-.461-1.524-.692-.652-.296-1.304-.597-1.96-.878-.52-.223-1.044-.434-1.567-.649-.652-.266-1.305-.535-1.953-.785-.54-.207-1.074-.399-1.61-.594-.648-.238-1.296-.476-1.953-.703-.543-.187-1.086-.36-1.632-.539-.653-.21-1.305-.422-1.957-.621a81.38 81.38 0 00-1.668-.48 79.893 79.893 0 00-1.954-.544 82.68 82.68 0 00-1.695-.425c-.648-.16-1.297-.317-1.95-.465-.57-.13-1.144-.25-1.718-.367a86.32 86.32 0 00-3.687-.7 169.2 169.2 0 00-1.953-.316c-.586-.086-1.172-.168-1.758-.246a106.188 106.188 0 00-7.45-.73c-.652-.043-1.296-.075-1.949-.106-.593-.027-1.191-.047-1.785-.066-.476-.012-.95-.016-1.426-.024l.008-.008 20.621-29.457 21.594-30.836 34.086 23.868-14.547 20.753a133.042 133.042 0 0112.313 7.36c42.71 28.777 65.367 79.793 59.125 133.14a35.782 35.782 0 01-18.301 27.16c-21.668 11.876-45.856 18.15-69.953 18.15-17.418 0-34.41-3.274-50.235-9.563a133.772 133.772 0 01-25.406-13.395 134.275 134.275 0 01-13.918-10.797c-.332-.297-.672-.582-1.004-.879-2.605-1.125-5.258-2.191-8.008-3.11-40.129-13.444-81.668 5.673-113.41 25.243-.363.145-.719.3-1.078.477-85.351 40.398-148.289 5.39-150.82 3.941a20.833 20.833 0 00-30.41 24.305l16.746 52.316a20.842 20.842 0 008.886 11.371c12.801 7.91 27.739 11.977 43.743 11.977 3.875 0 7.82-.242 11.808-.723 2.32-.277 4.668-.644 6.969-1.082 29.473-5.601 54.164-23.738 75.95-39.738 5.808-4.266 11.292-8.293 16.702-11.985 25.98-17.722 69.457-47.386 101.676-36.593 10.426 3.496 20.266 10.16 30.461 17.55a41.733 41.733 0 003.422 2.684l102.457 71.77a41.665 41.665 0 0031.14 6.906 41.665 41.665 0 0026.899-17.137l119.465-170.601 68.297 47.82a41.48 41.48 0 0023.863 7.539c13.137-.004 26.063-6.2 34.168-17.77l95.598-136.527c13.191-18.84 8.609-44.82-10.243-58.02zm0 0"/></svg>