<svg xmlns="http://www.w3.org/2000/svg" width="1000pt" height="1000pt" viewBox="0 0 1000 1000"><path d="M910.828 128.742c-9.437-6.578-22.426-4.258-29.004 5.18L531.977 635.887l-.27.43c-.195.292-.39.57-.57.874-8.102 6.66-52.102 16.692-121.778 10.899-44.277-3.68-129.261-16.465-200.91-60.742-39.55-24.446-70.12-18.508-88.8-9.227-30.442 15.133-52.684 51.899-56.657 93.68-4.496 47.289 22.375 95.777 71.89 129.707 13.102 8.976 59.423 30.219 117.235 47.3 40.27 11.899 95.184 24.337 148.781 24.337 14.403 0 28.72-.899 42.618-2.946 41.62-6.136 71.386-30.91 86.078-71.644.195-.543.367-1.094.52-1.653.628-2.316 32.198-118.422 38.109-140.152l347.785-499.004c6.578-9.441 4.262-22.426-5.18-29.004zM161.207 768.848a46.07 46.07 0 01-2.777-1.711c-27.297-18.707-55.196-51.016-54.215-86.887 22.418 15.191 45.754 28.348 69.457 39.664zm22.98-90.22c-22.78-11.288-45.714-24.753-67.87-40.765 5.882-10.218 13.468-18.25 21.874-22.43 4.895-2.43 10.168-3.644 15.805-3.644 9.8 0 20.688 3.672 32.547 11a342.456 342.456 0 0010.309 6.121zm77.375 129.61c-23.523-7.058-44.757-14.765-61.87-21.687l12.699-49.848c20.789 8.16 41.617 15.027 62.117 20.723zm23.266-91.324c-19.426-5.437-40.402-12.34-62.039-21.043l12.207-47.918c20.016 8.735 40.809 16.027 61.8 21.969zm82.926 113.05c-22.152-2.066-44.488-6.015-65.93-10.987l13.156-51.645c22.977 4.852 45.184 8.273 66.06 10.469zm23.695-93.023a586.859 586.859 0 01-33.965-4.25 610.712 610.712 0 01-32.18-5.882l11.989-47.067a590.73 590.73 0 0066.266 9.656zm99.031 47.504l-.085-.027c-9.418 26.117-26.743 40.691-52.954 44.555-8.793 1.297-17.84 2.07-27.05 2.39l12.91-50.676c4.972.149 9.851.243 14.566.243 18.48 0 34.903-1.114 48.613-3.102 2.051-.297 4.032-.617 5.965-.95-.86 3.25-1.496 5.704-1.965 7.567zm18.946-70.273c-1.606 5.922-3.086 11.355-4.45 16.375-8.663 4.16-33.343 8.976-71.113 8.668l12.16-47.735c27.45.23 51.887-1.843 71.157-5.828zm282.242-5.848c-46.027 0-83.34 37.313-83.34 83.344 0 46.027 37.313 83.34 83.34 83.34s83.34-37.313 83.34-83.34c0-46.031-37.313-83.344-83.34-83.344zm0 0"/></svg>