<svg xmlns="http://www.w3.org/2000/svg" width="1000pt" height="1000pt" viewBox="0 0 1000 1000"><path d="M340.496 324.996l105.899-91.426 41.675 29.184-119.535 170.562a41.658 41.658 0 00-6.914 31.137 41.658 41.658 0 0017.133 26.902l102.457 71.77a41.665 41.665 0 0031.14 6.906 41.665 41.665 0 0026.899-17.136l119.492-170.641 68.266 47.797a41.577 41.577 0 0018.554 7.191l92.165 11.918c1.812.23 3.609.348 5.394.348 20.633 0 38.555-15.324 41.27-36.332 2.949-22.82-13.157-43.715-35.98-46.664l-82-10.598-93.977-65.805-.02-.02-93.941-65.773L467.62 146.7c-15.625-10.945-36.687-9.875-51.129 2.59L286.043 261.918c-17.418 15.039-19.348 41.348-4.309 58.766 15.036 17.421 41.348 19.351 58.762 4.312zm-59.23 470.16c4.535-1.43 15.226-8.125 22.382-12.613 10.88-6.813 23.895-14.941 38.93-21.398l19.145-27.34c13.199-18.852 8.617-44.832-10.235-58.032-18.851-13.199-44.828-8.613-58.027 10.235l-65.996 94.246c8.101 2.18 15.844 4.672 23.215 7.047 10.207 3.281 24.148 7.773 30.586 7.855zm347.191-586.789c39.379 27.574 88.074 18.715 115.648-20.664 27.575-39.379 18.918-88.48-20.46-116.055-39.38-27.574-88.493-18.921-116.063 20.457-27.574 39.38-18.504 88.688 20.875 116.262zm265.125 472.59c0-34.516-27.984-62.5-62.5-62.5s-62.5 27.984-62.5 62.5c0 34.52 27.984 62.5 62.5 62.5s62.5-27.977 62.5-62.5zM500 824.836c-13.363 0-28.879-7.27-45.3-14.969-1.22-.57-2.442-1.144-3.665-1.715-.469-.218-.937-.433-1.406-.648-.79-.367-1.578-.738-2.371-1.102l-1.551-.703c-.738-.34-1.477-.68-2.219-1.011-.554-.247-1.101-.489-1.656-.735-.715-.316-1.43-.637-2.148-.945-.555-.246-1.118-.48-1.68-.723-.715-.305-1.434-.613-2.152-.914-.563-.23-1.125-.46-1.688-.687-.719-.293-1.437-.582-2.16-.868-.57-.222-1.14-.441-1.711-.656-.723-.277-1.441-.55-2.164-.812a90.882 90.882 0 00-1.727-.621 239.05 239.05 0 00-2.175-.75 74.714 74.714 0 00-1.735-.567 119.037 119.037 0 00-6.172-1.808c-.578-.153-1.156-.305-1.734-.45-.758-.183-1.516-.355-2.277-.523a67.869 67.869 0 00-1.723-.375c-.774-.156-1.547-.3-2.324-.438-.567-.101-1.137-.207-1.707-.296a82.545 82.545 0 00-2.403-.332c-.55-.075-1.105-.153-1.66-.215-.84-.09-1.687-.157-2.531-.22-.52-.042-1.043-.093-1.566-.124a72.384 72.384 0 00-2.766-.09c-.461-.012-.914-.035-1.371-.039a73.316 73.316 0 00-4.133.102c-24.578 1.328-45.703 14.566-64.348 26.25-12.687 7.945-24.746 15.492-35.511 18.003-1.336.31-2.657.56-3.95.704-.828.093-1.664.16-2.515.203-.309.015-.63.015-.942.027-.52.012-1.039.031-1.57.031a56.723 56.723 0 01-4.406-.203c-.25-.02-.5-.039-.75-.062a72.16 72.16 0 01-4.504-.551c-.262-.043-.524-.082-.785-.125-1.559-.25-3.137-.54-4.735-.871l-.504-.113c-1.609-.34-3.234-.72-4.87-1.13l-.344-.081a188.56 188.56 0 01-5.02-1.348c-.281-.074-.555-.152-.832-.23-1.621-.461-3.246-.942-4.879-1.438-.336-.102-.672-.207-1.008-.305-1.613-.496-3.238-1-4.859-1.52l-1.04-.327-4.85-1.559c-1.169-.375-2.337-.75-3.512-1.129-.461-.144-.926-.293-1.387-.441a437.26 437.26 0 00-2.418-.766c-.504-.16-1.012-.32-1.52-.476-.804-.25-1.605-.5-2.406-.747-.472-.14-.941-.289-1.414-.433-1.144-.344-2.289-.688-3.434-1.02-.23-.066-.46-.133-.695-.199-1.11-.32-2.222-.637-3.34-.941-.433-.121-.867-.235-1.304-.352-.836-.223-1.672-.441-2.512-.656-.477-.121-.953-.238-1.43-.356-.847-.21-1.691-.414-2.539-.609-.433-.098-.867-.203-1.3-.297-1.255-.281-2.508-.55-3.762-.797l-.36-.062c-.972-.192-1.949-.371-2.922-.535l-.007.007-.504-.09c-.422-.07-.844-.128-1.27-.199-.86-.129-1.719-.257-2.578-.37-.465-.06-.926-.122-1.39-.173a84.63 84.63 0 00-2.614-.273c-.414-.04-.824-.086-1.238-.117a88.03 88.03 0 00-3.781-.23l-.387-.012c-1.14-.04-2.277-.051-3.418-.043-.422 0-.844.02-1.266.027-.867.016-1.734.047-2.597.098a68.192 68.192 0 00-4.027.336c-.395.043-.786.078-1.18.128-1.274.16-2.551.348-3.82.582-39.008 7.208-68.27 33.34-94.083 56.399-2.664 2.383-5.3 4.738-7.918 7.043-8.632 7.605-9.465 20.77-1.863 29.402 4.121 4.676 9.867 7.063 15.645 7.063 4.89 0 9.8-1.711 13.761-5.2 2.684-2.37 5.395-4.785 8.13-7.23 20.788-18.566 42.234-37.672 66.718-44.754 2.367-.687 4.75-1.3 7.176-1.746a28.962 28.962 0 012.617-.348c.281-.023.574-.039.86-.054a34.466 34.466 0 012.8-.078c1.219.011 2.469.066 3.754.18.191.015.39.038.582.058 1.258.125 2.54.285 3.848.488l.441.067a92.53 92.53 0 015.094.984c1.418.309 2.851.648 4.316 1.02.258.066.524.132.785.203 1.45.379 2.914.773 4.403 1.199l.308.086c1.567.449 3.16.926 4.762 1.414.313.097.629.191.941.289 1.551.476 3.114.965 4.688 1.465.367.12.734.234 1.101.355 1.555.496 3.118.996 4.692 1.504 1.203.39 2.414.777 3.629 1.168l1.144.363 2.649.844 1.383.434c.796.246 1.593.496 2.386.742l1.535.469c.77.23 1.54.464 2.31.691.507.148 1.015.305 1.523.453.828.238 1.66.477 2.488.707a171.05 171.05 0 005.07 1.38l.387.097c1.16.3 2.32.586 3.484.863l1.328.305c.832.191 1.672.379 2.508.558a98 98 0 001.543.317c.774.156 1.55.308 2.324.453.297.055.594.12.895.176.238.043.476.074.719.117a190.756 190.756 0 003.906.625c.832.12 1.668.222 2.5.324.469.055.933.121 1.402.172 1.262.137 2.524.258 3.785.351.227.016.457.028.68.043 1.094.075 2.195.133 3.293.172.477.016.957.02 1.438.028.789.015 1.578.027 2.37.023a96.972 96.972 0 003.192-.086c.469-.02.934-.027 1.406-.05 1.535-.09 3.07-.212 4.61-.387 21.132-2.399 39.308-13.79 56.882-24.805 15.762-9.875 30.649-19.203 44.473-19.95.668-.038 1.344-.038 2.027-.027.36.004.723.02 1.086.04a29.698 29.698 0 012.438.187c.433.043.871.098 1.308.16.391.055.79.117 1.188.184a40.769 40.769 0 012.55.492c.446.094.895.195 1.348.3.414.106.832.212 1.258.317.453.121.91.246 1.367.375.426.121.856.246 1.29.375.46.14.921.29 1.39.434.434.14.871.28 1.313.43.472.156.945.32 1.421.488.446.156.887.312 1.336.476.477.172.961.356 1.446.54.449.171.898.34 1.351.515.489.191.98.39 1.469.586a158.835 158.835 0 012.887 1.191c.453.192.898.38 1.351.57.532.227 1.063.462 1.598.696.437.191.871.379 1.312.574.547.242 1.098.492 1.649.738.433.196.867.391 1.305.586.593.27 1.191.547 1.789.825.39.18.773.351 1.168.535.707.328 1.421.66 2.132.992.293.133.579.27.868.406 1 .465 2 .934 3.004 1.402 19.832 9.297 40.34 18.91 62.984 18.91 22.64 0 43.148-9.613 62.984-18.91 1.032-.484 2.059-.964 3.086-1.44a498.81 498.81 0 013-1.4l.418-.19c.856-.395 1.703-.786 2.551-1.173.242-.109.477-.218.715-.32.738-.336 1.48-.668 2.215-.996.3-.137.605-.266.91-.402.668-.293 1.34-.582 2-.868.332-.144.66-.28.996-.421.625-.266 1.254-.532 1.875-.79.355-.144.707-.285 1.062-.43.59-.234 1.18-.476 1.766-.702l.254-.102-39.863-27.871C528.043 817.953 513 824.836 500 824.836zm430.465 55.437a1275.188 1275.188 0 01-6.418-5.726c-23.77-21.305-56.317-50.477-95.617-57.738a71.054 71.054 0 00-3.82-.586c-.387-.047-.782-.086-1.173-.13a69.778 69.778 0 00-2.695-.25c-.437-.034-.87-.058-1.304-.085a89.27 89.27 0 00-2.704-.102c-.386-.008-.773-.02-1.164-.023a76.084 76.084 0 00-3.656.05h-.148c-.91.04-1.82.106-2.73.169.675 2.48 1.257 5 1.706 7.566 2.043 11.535 1.637 23.125-1.05 34.18l.542-.059c.196-.02.395-.043.59-.059a46.006 46.006 0 014.621-.18c.66.009 1.313.04 1.95.079.28.02.566.031.84.055.898.082 1.777.191 2.624.347 27.782 5.13 55.293 29.79 75.38 47.79 2.296 2.058 4.507 4.038 6.632 5.917.516.457 1.055.88 1.602 1.278.191.136.39.254.582.382.363.247.73.493 1.105.715.235.133.477.254.711.383.352.184.695.371 1.05.535.255.117.52.223.778.328.344.145.692.286 1.043.41.27.094.543.176.817.258.351.11.699.211 1.054.301.278.067.555.129.836.188.352.074.711.136 1.067.191.28.047.562.082.843.113.364.04.723.067 1.086.09.282.016.559.031.836.04.32.003.64-.005.957-.016.395-.012.782-.028 1.172-.059.305-.027.613-.063.918-.102a19.456 19.456 0 002.063-.37c.375-.087.746-.188 1.12-.298.298-.085.598-.175.895-.277.371-.125.735-.27 1.098-.414.289-.117.574-.23.86-.363.363-.164.718-.352 1.07-.543.273-.145.546-.281.812-.438.363-.215.711-.453 1.063-.687.242-.164.488-.317.73-.492.375-.282.734-.586 1.098-.895.191-.164.394-.316.586-.488a20.473 20.473 0 001.554-1.578c7.618-8.621 6.809-21.785-1.812-29.407zm-162.227-55.285c-2.707-8.289-7.98-15.808-15.676-21.187l-17.335-12.121-175.512-122.703-204.79-143.395a43.329 43.329 0 00-3.28-2.059c-.336-.191-.672-.363-1.008-.543a43.705 43.705 0 00-2.465-1.218c-.363-.164-.73-.332-1.098-.485a42.573 42.573 0 00-2.824-1.062c-.23-.074-.46-.168-.691-.242a42.875 42.875 0 00-3.567-.95c-.305-.066-.613-.113-.918-.171-.91-.18-1.82-.332-2.734-.45-.39-.047-.79-.093-1.18-.129-.894-.09-1.789-.144-2.683-.175-.332-.012-.668-.035-1.004-.04a41.849 41.849 0 00-3.43.11c-.234.016-.465.039-.695.059a42.91 42.91 0 00-3.477.445l-.098.012c-1.171.21-2.332.484-3.484.789l-.695.187c-1.117.32-2.227.68-3.32 1.094l-.536.219a40.447 40.447 0 00-3.047 1.336l-.386.183a41.62 41.62 0 00-3.102 1.738c-.215.13-.422.262-.629.395a42.061 42.061 0 00-2.953 2.059l-.297.242a39.95 39.95 0 00-2.601 2.226l-.473.43a42.364 42.364 0 00-2.516 2.637c-.164.191-.324.383-.488.574a43.015 43.015 0 00-2.351 3.023c-13.2 18.848-8.618 44.832 10.234 58.028L511.94 737.258l36.52 25.531 43.027 30.082h.004l113.324 79.227a41.454 41.454 0 0014.207 6.379l.059.015a41.655 41.655 0 009.57 1.125c7.11 0 14.153-1.828 20.41-5.332l.008-.004a41.48 41.48 0 0013.766-12.457c7.805-11.164 9.332-24.812 5.402-36.836zm0 0"/></svg>