<svg xmlns="http://www.w3.org/2000/svg" width="1000pt" height="1000pt" viewBox="0 0 1000 1000"><path d="M291.676 520.832c0-46.027-37.313-83.34-83.344-83.34-46.027 0-83.34 37.313-83.34 83.34 0 46.031 37.313 83.344 83.34 83.344 46.031 0 83.344-37.313 83.344-83.344zm552.75-421.594C726.796 16.871 543.168 76.172 434.277 231.68c-94.39 134.804-101.617 297.636-25.257 392.265 4.648 5.762 4.902 13.907.656 19.97l-167.39 239.062c-5.282 7.539-3.45 17.93 4.089 23.21l40.957 28.68c7.54 5.278 17.934 3.45 23.215-4.094L477.27 692.668c4.316-6.164 12.23-8.68 19.304-6.106 115.492 42.036 268.274-20.359 363.676-156.613 108.89-155.511 101.805-348.347-15.824-430.71zm0 0"/></svg>