<svg xmlns="http://www.w3.org/2000/svg" width="1000pt" height="1000pt" viewBox="0 0 1000 1000"><path d="M936.96 371.824c-4.433-69.304-34.89-127.09-85.765-162.71-50.867-35.626-115.59-44.481-182.23-24.942-64.969 19.047-124.207 63.043-166.809 123.883-42.601 60.84-63.68 131.554-59.36 199.117 1.372 21.426 5.24 41.746 11.415 60.652l-5.875 176.356c-11.746-2.285-24.27 2.3-31.574 12.73l-83.649 119.461c-9.898 14.137-6.465 33.625 7.676 43.524l17.066 11.949c14.137 9.898 33.622 6.465 43.524-7.676l83.644-119.461c7.305-10.434 7.329-23.77 1.168-34.027l163.735-65.848c19.87-.66 40.281-3.969 60.87-10.008 64.97-19.047 124.212-63.043 166.81-123.883 42.597-60.836 63.68-131.554 59.355-199.117zM490.7 723.957l2.85-85.684a191.382 191.382 0 0035.012 31.614c13.051 9.136 27.024 16.484 41.696 22.074zm352.773-176.91C792.395 619.984 716.44 661.832 646.414 663.21c-.355-.012-.71 0-1.066.012-33.48.46-65.575-8.34-92.891-27.47-27.293-19.112-46.531-46.226-57.555-77.812-.125-.375-.242-.746-.39-1.109-22.645-66.273-9.297-151.95 41.773-224.879 51.945-74.18 129.621-116.207 200.625-116.207 32.578 0 63.754 8.848 90.387 27.496 40.297 28.215 64.473 74.824 68.086 131.242 3.719 58.157-14.719 119.442-51.91 172.563zM400.77 479.168c2.234-67.297 25.593-135.516 67.253-195.008 48.008-68.562 115.207-118.273 189.22-139.973a301.334 301.334 0 0130.265-7.214V79.168c0-9.207-7.465-16.668-16.668-16.668H79.172c-9.207 0-16.664 7.46-16.664 16.668V462.5c0 9.203 7.457 16.668 16.664 16.668h5.926c9.949-59.047 61.41-104.176 123.234-104.176 61.828 0 113.285 45.13 123.238 104.176zm-144.797-47.434c-37.7-26.398-89.664-17.23-116.059 20.465a83.123 83.123 0 00-12.437 26.965c-8.43 32.684 3.625 68.598 32.902 89.098 37.7 26.398 89.66 17.234 116.059-20.465 14.542-20.77 18.273-45.863 12.402-68.629-4.785-18.559-15.938-35.578-32.867-47.434zm-59.344 47.434a94.142 94.142 0 01-5.516 8.883c-10.808 15.437-25.465 26.594-41.773 33.137a62.897 62.897 0 01-3.688-21.106 72.454 72.454 0 0026.094-20.914 72.084 72.084 0 002.3-3.066 72.396 72.396 0 0012.821-34.86 62.847 62.847 0 0121.094-3.738c-.469 14.258-4.168 28.535-11.332 41.664zm45.621 44.691a72.448 72.448 0 00-12.824 34.907 62.85 62.85 0 01-21.094 3.742c.57-17.567 6.04-35.16 16.852-50.598 10.609-15.152 24.941-26.156 40.886-32.742.29-.121.57-.266.864-.383l.12.383a62.881 62.881 0 013.587 20.715 72.434 72.434 0 00-28.391 23.976zm0 0"/></svg>