<svg xmlns="http://www.w3.org/2000/svg" width="1000pt" height="1000pt" viewBox="0 0 1000 1000"><path d="M366.117 331.867c-.281-.18-.539-.363-.797-.55l-.34-.247-.253-.175-.204-.133c-9.98 12.035-19.52 24.617-27.996 38.355-19.656 31.922-33.472 66.215-41.593 101.465 2.78 2.898 5.82 5.508 9.246 7.703 25.46 16.324 76.203-7.734 143.77-67.855-2.7-3.559-5.516-7.008-8.376-10.418a599.465 599.465 0 01-4.023-4.836c-20.211-24.121-43.371-45.602-69.434-63.309zM189.23 290.395c29.516 9.125 49.48 39.921 61.032 64.148 5.703 11.965 9.765 25.156 13.383 38.367a390.636 390.636 0 0126.925-52.113c8.082-13.113 16.973-25.367 26.227-37.16-6.164-2.832-12.453-5.157-18.781-7.492-1.137-.418-2.278-.84-3.418-1.262-1.332-.5-2.66-1.024-3.993-1.551-2.597-1.027-5.21-2.059-7.863-2.906-8.012-2.684-16.113-4.73-24.258-6.735-3.68-.937-7.355-1.87-11.07-2.699a328.88 328.88 0 00-21.484-3.824 322.61 322.61 0 0135.836-48.277c1.625.394 3.25.8 4.875 1.207 1.386.351 2.78.699 4.18 1.039a265 265 0 004.792 1.11c2.977.671 5.953 1.343 8.907 2.19 1.12.333 2.285.708 3.406 1.079 1.074.293 2.113.664 3.152 1.043.926.332 1.852.668 2.805.941 6.515 2.04 12.914 4.297 19.27 6.633 1.081.398 2.175.75 3.269 1.101 1.262.407 2.527.813 3.77 1.29.3.124.585.253.878.386.29.13.575.262.875.383 1.348.531 2.668 1.152 3.996 1.777 1.024.485 2.051.973 3.094 1.414 7.88 3.32 15.64 6.754 23.356 10.602.367.18.738.344 1.113.508.473.207.95.418 1.422.66 8.566 4.363 17.133 8.879 25.492 13.95.215.124.434.233.652.347.352.176.7.351 1.02.57 32.644 20.125 61.515 45.399 86.855 73.969.239.273.489.527.735.777.242.246.48.488.699.738.93 1.043 1.8 2.153 2.668 3.262.289.371.578.738.871 1.11 4.562 5.355 9 10.793 13.305 16.343 36.964-36.797 73.011-77.433 102.746-112.293-63.082-63.87-149.805-100.773-241.434-100.53 35.063-18.95 73.977-31.552 115.156-36.306 60.47 18.325 115.813 50.977 161.043 95.438 3.79-4.574 7.36-8.89 10.66-12.883 11.118-13.445 19.895-24.066 25.532-30.41 18.37-20.672 36.996-35.297 55.008-43.637-58.192-40.414-128.38-64.969-204.48-67.133-157.825-4.488-295.79 88.551-356.13 224.461 11.418-3.175 22.766-3.074 33.906.368zM891.508 459.16c-4.778-6.445-9.942-9.879-16.25-10.808-20.426-2.98-51.047 19.78-71.301 34.87-6.074 4.524-11.812 8.798-16.914 12.196-17.945 11.945-36.031 24.457-53.52 36.555-21.382 14.793-43.488 30.086-65.707 44.609-7.226 4.723-16.91 2.691-21.629-4.531-4.722-7.223-2.695-16.906 4.528-21.625l.031-.024c37.617-24.597 71.484-58.101 104.238-90.507l3.7-3.657c39.515-39.058 84.296-83.32 100.039-133.629 5.422-17.324.656-38.687-16.696-44.449-29.109-9.672-52.261 14.172-81.78 48.906-5.829 6.86-11.333 13.336-16.817 19.098-70.528 74.125-143.82 129.066-146.91 131.371-6.465 4.828-15.555 3.934-20.954-2.066-5.406-6-5.343-15.13.133-21.059 48.11-52.074 122.5-137.101 142.371-160.586l3.907-4.594c19.226-22.578 64.25-75.44 59.382-108.18-1.238-8.331-5.773-14.75-14.27-20.195-29.905-19.175-70.94 22.887-82.804 36.243-5.27 5.925-13.89 16.355-24.805 29.558-37.203 45.004-106.457 128.77-175.382 193.106-90.18 84.175-154.551 111.93-196.793 84.824-31.914-20.469-41.883-58.34-50.684-91.75-4.32-16.41-8.402-31.906-14.57-44.844-12.528-26.277-27.461-43.23-42.047-47.738-8.469-2.613-17.348-1.121-27.149 4.574-20.476 11.906-17.64 52.445-15.566 82.043.625 8.883 1.207 17.27 1.215 24.598.016 19.058-.695 39.738-1.441 61.633-2.81 82.152-6.305 184.39 32.753 217.203 6.079 5.105 7.36 13.957 2.989 20.578l-52.332 79.21 72.609 55.739c12.711-37.34 40.805-68.355 77.148-84.344a15.63 15.63 0 0115.547 1.715l136.215 100.184c42.574 14.101 123.367-8.403 222.367-62.07 66.453-36.024 156.504-97.122 179.473-127.192.531-.7 1.125-1.352 1.77-1.953.25-.238 28.601-27.367 15.691-47.977-17.086-27.293-58.25-9.965-123.566 29.2-14.387 8.62-26.809 16.07-36.625 20.257-7.528 3.211-16.254.07-20.012-7.195-3.758-7.266-1.27-16.2 5.7-20.484 57.237-35.196 116.433-71.586 167.265-116.68 3.28-2.906 7.027-6.066 10.992-9.41 34.473-29.063 63.965-57.098 46.46-80.723zm-671.63 426.117l-.23.942 106.66 81.87 64.895-68.558-116.324-85.554c-27.36 14.796-47.637 40.886-55 71.3zm0 0"/></svg>