<svg xmlns="http://www.w3.org/2000/svg" width="1000pt" height="1000pt" viewBox="0 0 1000 1000"><path d="M319.113 386.016c35.035 0 63.54-28.504 63.54-63.543 0-35.036-28.505-63.543-63.54-63.543-35.039 0-63.543 28.507-63.543 63.543 0 35.039 28.504 63.543 63.543 63.543zm100.64 264.91c-18.855-13.2-44.831-8.617-58.03 10.234L281.68 775.465 94.973 873.547c-22.434 5.14-36.446 27.492-31.305 49.922 4.422 19.297 21.586 32.367 40.578 32.367 3.082 0 6.211-.348 9.344-1.066l202.34-101.66c11.66-6.684 18.902-8.258 24.82-16.712l89.234-127.441c13.2-18.848 8.618-44.832-10.23-58.031zM791.817 62.539c-40.796 0-72.355 25.395-80.98 62.461h161.95c-8.622-37.066-40.173-62.46-80.97-62.46zM662.54 632.707l-222.578-97.414c-21.074-9.227-45.652.387-54.875 21.469-9.227 21.078.387 45.648 21.465 54.875l197.617 86.488.922 216.27c0 23.015 18.652 41.668 41.668 41.668 23.012 0 41.664-18.653 41.664-41.668l-.922-243.516a41.665 41.665 0 00-24.96-38.172zm48.313-466.039c8.699 37.086 40.59 62.46 81.41 62.46 40.82 0 72.062-25.374 80.566-62.46zm88.824 141.203c-.04-.351-.121-.683-.168-1.031-.047-.317-.067-.64-.121-.957a27.039 27.039 0 00-.149-.844c-2.398-12.957-11.707-24.89-23.71-30.367l-.216-.113-237.445-106.38a41.633 41.633 0 00-32.074-.827l-165.098 63.91c32.176 7.613 58.004 31.832 67.852 63.093l111.117-43.015 59.574 26.691L460.77 447.074a41.664 41.664 0 0017.867 62.281l117.691 49.848a41.596 41.596 0 0016.235 3.305c13.277 0 26.164-6.36 34.16-17.785l82.601-118.067 15.996 140.559c2.418 21.265 20.442 36.96 41.348 36.96 1.57 0 3.164-.09 4.762-.273 22.867-2.601 39.293-23.242 36.687-46.109zm0 0"/></svg>