<svg xmlns="http://www.w3.org/2000/svg" width="1000pt" height="1000pt" viewBox="0 0 1000 1000"><path d="M452.543 400.676c39.379 27.578 88.074 18.719 115.652-20.66 27.575-39.38 18.918-88.48-20.46-116.055-39.38-27.574-88.493-18.922-116.067 20.457-27.574 39.379-18.504 88.687 20.875 116.258zM500 83.332C269.883 83.332 83.332 269.882 83.332 500c0 230.117 186.55 416.668 416.668 416.668 230.117 0 416.668-186.55 416.668-416.668 0-230.117-186.55-416.668-416.668-416.668zm250.434 667.102C683.539 817.324 594.602 854.168 500 854.168s-183.543-36.844-250.434-103.734C182.676 683.543 145.832 594.602 145.832 500s36.844-183.543 103.734-250.434C316.457 182.676 405.398 145.832 500 145.832s183.543 36.844 250.434 103.734C817.328 316.457 854.168 405.398 854.168 500s-36.84 183.543-103.734 250.434zm38.12-347.836c-8.722-21.297-33.058-31.48-54.35-22.762L506.32 473.21a16.664 16.664 0 01-12.64 0l-227.883-93.375c-21.305-8.723-45.629 1.465-54.352 22.762-8.726 21.293 1.465 45.625 22.758 54.351l161.535 66.192v271.613C428.781 806.414 463.922 812.5 500 812.5s71.223-6.086 104.266-17.746V523.14l161.53-66.192c21.294-8.726 31.481-33.058 22.759-54.351zm0 0"/></svg>