<svg xmlns="http://www.w3.org/2000/svg" width="1000pt" height="1000pt" viewBox="0 0 1000 1000"><path d="M568.29 603.992c-22.802-3.168-43.84 12.742-47.005 35.535l-15.41 110.875-70.355 146.36c-9.97 20.742-1.239 45.636 19.5 55.605a41.473 41.473 0 0018.023 4.121c15.512 0 30.41-8.707 37.582-23.625l73.176-152.222a41.7 41.7 0 003.715-12.317l16.304-117.328c3.168-22.793-12.738-43.836-35.53-47.004zm300.07-228.785L697.702 255.711a41.585 41.585 0 00-11.918-5.777l-115.101-34.547-11.907-3.899c-1.894-.625-3.804-1.05-5.715-1.39l-105.91-31.79-30.558-52.027c-10.653 18.098-27.403 32.742-48.637 40.473a93.486 93.486 0 01-21.285 5.023l36.91 62.84a41.675 41.675 0 0023.95 18.805l85.261 25.59-64.496 196.59a41.699 41.699 0 002.414 31.804 41.656 41.656 0 0024.2 20.778l118.773 38.933a41.674 41.674 0 0031.8-2.418 41.67 41.67 0 0020.774-24.203L688.37 350.91 820.56 443.47a41.47 41.47 0 0023.863 7.539c13.133 0 26.062-6.2 34.164-17.77 13.207-18.851 8.625-44.832-10.227-58.031zM674.382 187.238c43.234-15.738 65.527-63.543 49.789-106.781-15.738-43.234-63.543-65.531-106.781-49.793-43.235 15.738-65.528 63.543-49.79 106.781 15.735 43.235 63.544 65.532 106.782 49.793zm-192.805 423.57c3.582-22.73-11.945-44.054-34.68-47.636l-127.863-20.133a41.66 41.66 0 00-40.613 17.258L151.996 740.855c-13.2 18.852-8.617 44.836 10.23 58.032a41.48 41.48 0 0023.864 7.539c13.137-.004 26.062-6.2 34.168-17.774l111.504-159.25 102.175 16.09c22.727 3.574 44.06-11.949 47.641-34.683zM357.273 137.388c32.426-11.805 49.149-47.66 37.344-80.086-11.8-32.43-47.66-49.149-80.082-37.344-32.43 11.8-49.148 47.656-37.348 80.086 11.801 32.43 47.66 49.144 80.086 37.344zm0 0"/></svg>