<svg xmlns="http://www.w3.org/2000/svg" width="1000pt" height="1000pt" viewBox="0 0 1000 1000"><path d="M899.23 128.879c-9.492-6.645-22.546-4.55-29.476 4.734l-463.61 627.864c-20.562 29.363-60.257 37.175-88.492 17.41-27.957-19.578-34.343-58.973-14.488-88.258 12.883-18.996 9.45-45.121-9.172-58.547-18.89-13.61-45.191-9.105-58.504 9.898-46.918 67.004-31.5 159.043 34.371 205.168 25.059 17.547 53.856 25.957 82.516 25.957 46.672 0 92.96-22.32 122.031-63.835L904.863 158.2c6.352-9.688 3.86-22.677-5.633-29.321zM145.832 416.668C99.809 416.668 62.5 453.977 62.5 500c0 46.023 37.309 83.332 83.332 83.332 46.023 0 83.336-37.309 83.336-83.332 0-46.023-37.313-83.332-83.336-83.332zm0 0"/></svg>