<svg xmlns="http://www.w3.org/2000/svg" width="1000pt" height="1000pt" viewBox="0 0 1000 1000"><path d="M815.664 85.238c-39.379-27.574-88.492-18.922-116.066 20.457-27.575 39.38-18.504 88.684 20.879 116.262 39.378 27.57 88.074 18.715 115.648-20.664 27.574-39.379 18.918-88.484-20.46-116.055zm-232.2 549.528l-136.523-95.598c-18.855-13.203-44.832-8.617-58.03 10.23-13.2 18.852-8.618 44.836 10.23 58.032l107.632 75.367-93.933 196.926c-9.906 20.77-1.098 45.636 19.672 55.543a41.494 41.494 0 0017.91 4.07c15.558-.004 30.492-8.758 37.633-23.738l109.117-228.766c8.77-18.371 2.969-40.387-13.707-52.066zm-232.116-.739c-23.016 0-41.668 18.657-41.668 41.668v49.688l-155.524 160.21c-16.027 16.512-15.636 42.891.875 58.919 8.098 7.86 18.559 11.77 29.02 11.77 10.87 0 21.73-4.227 29.902-12.645l167.293-172.34a41.665 41.665 0 0011.77-29.024v-66.578c-.004-23.011-18.66-41.668-41.668-41.668zm430.73-299.168c-.043-.57-.133-1.148-.2-1.722-.089-.782-.16-1.563-.296-2.344l-.027-.211c-.13-.742-.328-1.46-.496-2.191-.118-.508-.196-1.016-.332-1.524l-.047-.133c-.239-.875-.543-1.714-.836-2.562-.168-.477-.301-.973-.48-1.445-.173-.446-.391-.864-.579-1.301-2.558-5.985-6.375-11.156-11.101-15.211l-.047-.035c-1-.86-2.051-1.676-3.14-2.442l-.071-.054-102.39-71.696c-.395-.277-.81-.5-1.208-.758-.68-.44-1.351-.89-2.043-1.28-.531-.305-1.082-.571-1.625-.852-.672-.348-1.344-.7-2.027-1.004-.582-.262-1.18-.489-1.778-.723-.675-.266-1.347-.535-2.027-.762-.621-.207-1.254-.379-1.887-.558-.675-.192-1.351-.387-2.035-.543-.66-.149-1.332-.262-2.004-.383-.664-.117-1.332-.238-2-.324-.726-.094-1.465-.14-2.207-.196-.617-.046-1.23-.101-1.847-.12-.84-.024-1.696.003-2.551.035-.43.011-.856-.012-1.29.015l-266.105 16.79c-19.84 1.253-35.53 16.202-38.504 35.054 35.086.516 66.028 18.445 84.524 45.539l138.867-8.758-27.879 39.774-92.957 25.312c.02.75.059 1.5.059 2.258 0 29.691-12.508 56.5-32.504 75.488 7.234 5.68 16.262 8.942 25.715 8.942 3.625 0 7.308-.477 10.972-1.473l17.121-4.66c-1.863 6.18-2.32 12.762-1.175 19.238a41.67 41.67 0 0017.129 26.906l102.46 71.77a41.693 41.693 0 0031.137 6.906 41.664 41.664 0 0026.903-17.137l143.27-204.597.023-.035.101-.141c.25-.36.457-.746.7-1.113.484-.739.976-1.477 1.41-2.239.288-.507.53-1.043.796-1.562.352-.684.72-1.36 1.028-2.059.226-.511.41-1.043.617-1.566.297-.742.605-1.477.855-2.23.153-.47.266-.95.407-1.426.246-.832.496-1.664.687-2.508.094-.41.149-.832.23-1.25.18-.922.36-1.844.473-2.774.051-.39.063-.78.102-1.171.093-.958.18-1.918.207-2.887.015-.438-.016-.875-.016-1.313-.012-.914-.015-1.836-.082-2.754zM329.344 443.008c34.515 0 62.5-27.985 62.5-62.5 0-34.52-27.985-62.5-62.5-62.5-34.516 0-62.5 27.98-62.5 62.5 0 34.515 27.984 62.5 62.5 62.5zm0 0"/></svg>