<svg xmlns="http://www.w3.org/2000/svg" width="1000pt" height="1000pt" viewBox="0 0 1000 1000"><path d="M678.219 795.605c-6.989-2.218-11.805-8.597-11.805-15.93v-60.01c0-39.208-33.39-66.407-68.46-75.79-45.337-12.129-85.813-20.523-130.27-35.809-44.149-15.183-88.602-35.984-110.2-79.765-17.254-34.969-27.07-136.828-30.246-185.32l-.035-.399c.871-6.555-1.387-13.152-7.621-15.355-25.012-8.832-48.621 9.785-48.621 33.644v3.59c0 7.926-6.426 14.351-14.352 14.351l-101.851-.003c-36.828 0-67.68 27.882-71.395 64.527L83.183 715c-.175 40.543 27.137 58.48 58.704 58.48l9.586.372c-51.965 4.007-75.97 41.605-87.953 69.328-4.09 9.46 2.902 20.004 13.207 20.004h6.503c-.015.64-.046 1.277-.046 1.921 0 40.207 32.71 72.918 72.918 72.918 40.203 0 72.914-32.71 72.914-72.918 0-.644-.032-1.28-.047-1.921h20.93c-.016.64-.047 1.277-.047 1.921 0 40.207 32.71 72.918 72.918 72.918 40.207 0 72.914-32.71 72.914-72.918 0-.644-.032-1.28-.047-1.921h20.933c-.02.64-.05 1.277-.05 1.921 0 40.207 32.71 72.918 72.918 72.918 40.207 0 72.917-32.71 72.917-72.918 0-.644-.035-1.28-.05-1.921h2.375l18.648-.036c-.015.653-.047 1.301-.047 1.957 0 41.961 35.633 75.758 78.227 72.727 35.937-2.562 64.972-31.687 67.433-67.633 2.368-34.715-19.722-64.75-50.722-74.594zm-522.117 100.75c-17.235 0-31.25-14.02-31.25-31.25 0-.652.058-1.285.097-1.925h62.305c.039.64.098 1.273.098 1.925 0 17.23-14.02 31.25-31.25 31.25zm166.664 0c-17.23 0-31.25-14.02-31.25-31.25 0-.652.058-1.285.097-1.925h62.305c.039.64.098 1.273.098 1.925 0 17.23-14.016 31.25-31.25 31.25zm166.668 0c-17.23 0-31.25-14.02-31.25-31.25 0-.652.058-1.285.097-1.925h62.305c.039.64.098 1.273.098 1.925 0 17.23-14.016 31.25-31.25 31.25zM604.016 775.52c0 9.207-7.461 16.668-16.664 16.668h-362.5c-9.207 0-16.668-7.461-16.668-16.668v-8.332c0-9.208 7.46-16.668 16.668-16.668h362.5c9.203 0 16.664 7.46 16.664 16.668zm52.175 120.835c-17.23 0-31.25-14.02-31.25-31.25 0-.687.059-1.355.102-2.03l62.289-.118c.047.715.11 1.422.11 2.145 0 17.234-14.016 31.253-31.25 31.253zm278.72-417.066l-15.376-63.121a20.842 20.842 0 00-11.36-13.918 20.818 20.818 0 00-17.964.098L645.359 520.926 329.391 71.863c-6.621-9.406-19.618-11.668-29.032-5.047-9.41 6.621-11.668 19.614-5.05 29.028l348.332 495.05a20.843 20.843 0 0024.316 7.532l253.988-94.688c9.89-3.687 15.465-14.191 12.965-24.449zm0 0"/></svg>