<svg xmlns="http://www.w3.org/2000/svg" width="1000pt" height="1000pt" viewBox="0 0 1000 1000"><path d="M920.984 263.977c6.328-7.16 5.356-18.168-2.136-24.098l-35.27-27.941c-7.52-5.954-18.5-4.352-24.004 3.507-52.922 75.578-104.582 152.075-158.91 226.66-60.441 82.977-124.773 168.801-214.559 222.032-102.453 60.742-187.566 78.418-299.402 44.437-17.101-5.199-72.285-27.82-88.84-34.566-17.703-7.215-31.558 16.183-16.804 28.344C172.71 777.887 292.5 832.137 412.508 834.453c107.89 2.082 231.379-44.594 316.765-109.8 36.407-27.798 75.211-69.005 81.012-117.454 6.133-51.21-43.765-75.933-40.113-123.414 3.812-49.57 114.144-178.277 150.812-219.808zM208.34 583.34c46.027 0 83.34-37.313 83.34-83.34s-37.313-83.34-83.34-83.34c-46.028 0-83.34 37.313-83.34 83.34s37.313 83.34 83.34 83.34zm0 0"/></svg>