<svg xmlns="http://www.w3.org/2000/svg" width="1000pt" height="1000pt" viewBox="0 0 1000 1000"><path d="M836.242 201.371c-18.851-13.2-44.832-8.613-58.027 10.234L706.52 313.996l-136.657-95.683-.008-.008-33.996-23.801c-18.843-13.2-44.816-8.625-58.02 10.215L334.384 409.418a41.681 41.681 0 00-6.918 31.137 41.683 41.683 0 0017.133 26.902l102.46 71.773a41.684 41.684 0 0031.137 6.907A41.664 41.664 0 00505.098 529L624.59 358.355l68.265 47.797a41.67 41.67 0 0023.899 7.54c2.41 0 4.832-.212 7.234-.637a41.675 41.675 0 0026.899-17.133l95.593-136.527c13.196-18.844 8.614-44.825-10.238-58.024zM549.77 666.996a41.732 41.732 0 00-12.375-13.629L320.77 501.687c-18.852-13.203-44.832-8.617-58.028 10.231-13.199 18.852-8.62 44.836 10.23 58.031l208.895 146.266 123.801 219.05c7.66 13.555 21.777 21.173 36.312 21.173a41.488 41.488 0 0020.461-5.403c20.036-11.324 27.098-36.742 15.77-56.773zM317.332 651.88c-18.852-13.2-44.836-8.617-58.031 10.234L99.059 890.993c-13.2 18.855-8.618 44.835 10.234 58.03a41.492 41.492 0 0023.86 7.536c13.136 0 26.066-6.196 34.171-17.77L327.566 709.91c13.2-18.855 8.618-44.836-10.234-58.031zm276.969-467.406c39.379 27.574 88.074 18.714 115.648-20.664 27.574-39.38 18.918-88.48-20.46-116.055C650.108 20.18 601 28.832 573.425 68.21c-27.574 39.379-18.504 88.687 20.875 116.262zm0 0"/></svg>