<svg xmlns="http://www.w3.org/2000/svg" width="1000pt" height="1000pt" viewBox="0 0 1000 1000"><path d="M894.777 691.098c-42.773.422-114.23-9.875-179.816-70.727-6.715-6.223-17.121-5.969-23.465.633-26.285 27.348-57.539 49.133-92.223 63.582-11.011 4.586-13.914 18.797-5.472 27.215 11.785 11.765 28.672 26.644 51.207 42.008-42.664 23.863-92.082 37.757-145.004 37.757-52.926 0-102.344-13.894-145.012-37.761 22.535-15.367 39.422-30.25 51.211-42.012 8.442-8.418 5.535-22.621-5.469-27.203-34.699-14.445-65.953-36.227-92.218-63.574-6.344-6.606-16.762-6.868-23.477-.633-65.582 60.84-137.031 71.137-179.809 70.71-14.851-.136-23.164 16.372-14.273 27.77l76.754 98.434c4.3 5.492 11.746 8.133 18.719 6.637 34.484-7.38 64.824-17.282 91.304-28.395 53.055 61.254 132.907 100.293 222.274 100.293 89.37 0 169.226-39.043 222.238-100.305 26.488 11.121 56.84 21.028 91.332 28.41 6.977 1.497 14.418-1.148 18.684-6.64l76.758-98.43c8.921-11.402.613-27.91-14.243-27.77zm-644.03-295.266a291.99 291.99 0 006 41.668 285.835 285.835 0 0012.483 41.668c5.618 14.574 12.364 28.512 20.137 41.664A270.19 270.19 0 00319.68 562.5c45.492 51.36 109.46 83.332 180.32 83.332 53.266 0 102.637-18.074 143.191-48.863 13.485-10.157 26.004-21.707 37.375-34.469a269.816 269.816 0 0030.48-41.668 278.507 278.507 0 0020.259-41.664 284.444 284.444 0 0012.554-41.668 290.36 290.36 0 006.047-41.668H750v-1.371c.441-6.578.676-13.227.676-19.926 0-6.703-.235-13.351-.676-19.93v-.437h-.027a290.987 290.987 0 00-5.903-41.668 284.815 284.815 0 00-12.41-41.668c-5.59-14.57-12.308-28.508-20.062-41.664-8.805-14.953-18.922-28.906-30.184-41.668-45.586-51.652-109.86-83.828-181.074-83.828H500c-71.09 0-135.246 32.176-180.77 83.828-8.96 10.168-17.187 21.102-24.613 32.684a268.713 268.713 0 00-5.539 8.984 278.536 278.536 0 00-20.058 41.664 284.826 284.826 0 00-12.415 41.668 290.987 290.987 0 00-5.902 41.668 295.139 295.139 0 00-.703 20.363l.004.11-.004.113c0 7.094.254 14.121.746 21.078zM520.831 146.48c36.992 3.98 71.188 18.57 99.988 41.02h-99.988zm0 82.688h140.719c9.59 12.805 17.937 26.766 24.847 41.664H520.832zm0 83.332h180.406c3.442 13.43 5.785 27.363 6.938 41.668H520.832zm0 83.332h187.27c-1.207 14.309-3.602 28.242-7.098 41.668H520.832zm0 83.336h165.133c-6.996 14.91-15.442 28.871-25.125 41.664H520.832zm0 83.332h98.762c-28.543 21.914-62.293 36.16-98.762 40.086zm-41.664 40.016c-36.207-4.036-69.719-18.239-98.086-40.016h98.086zm0-81.684H339.836c-9.684-12.793-18.125-26.754-25.125-41.664h164.457zm0-83.332H299.676c-3.496-13.426-5.89-27.36-7.098-41.668h186.59zm0-290.95v40.95h-99.313c28.625-22.309 62.582-36.86 99.313-40.95zm-140.04 82.618h140.04v41.664h-164.89c6.913-14.898 15.261-28.86 24.85-41.664zm-39.69 83.332h179.73v41.668H292.5c1.152-14.305 3.496-28.238 6.938-41.668zm0 0"/></svg>