<svg xmlns="http://www.w3.org/2000/svg" width="1000pt" height="1000pt" viewBox="0 0 1000 1000"><path d="M491.61 274.73H383.425c-7.508 0-14.156 4.813-16.477 11.942l-33.406 102.887a17.323 17.323 0 006.266 19.347l87.515 63.559a17.239 17.239 0 0020.356 0l87.48-63.559a17.273 17.273 0 006.297-19.347l-33.406-102.887a17.294 17.294 0 00-16.442-11.942zM245.04 479.168l18.394-46.785a15.665 15.665 0 00-4.657-17.813l-85.168-69.754c5.512-48.086 23.914-92.308 51.653-129.117l73.015-.566c5.875-.031 11.25-3.406 13.875-8.719l40.977-83.047c26.52-8.902 54.89-13.734 84.371-13.734 29.48 0 57.852 4.828 84.367 13.734l41.004 83.047a15.527 15.527 0 0013.875 8.719l72.992.566c27.739 36.809 46.14 81.028 51.653 129.113l-85.176 69.758a15.664 15.664 0 00-4.656 17.813l18.398 46.785h102.32C743.742 446.656 750 411.688 750 375.258c0-172.594-139.938-312.5-312.5-312.5-172.594 0-312.5 139.906-312.5 312.5 0 36.43 6.258 71.398 17.719 103.91zm665.483 121.555l-93.535-76.149a16.682 16.682 0 00-10.523-3.738H100c-8.629 0-15.727 6.555-16.582 14.96a17.505 17.505 0 00-.086 1.704v236.738c0 .574.031 1.145.086 1.703.855 8.403 7.953 14.965 16.582 14.965l581.363.742c22.836.032 44.836 10.059 58.774 28.157 4.91 6.375 8.797 13.543 11.355 21.18 2.668 7.952 9.367 13.148 17.953 13.148h22.18v87.535c0 9.203 7.46 16.668 16.668 16.668h50c9.203 0 16.664-7.465 16.664-16.668v-87.535H900c9.203 0 16.668-7.461 16.668-16.668V613.648c0-5.015-2.258-9.761-6.145-12.925zm0 0"/></svg>