<svg xmlns="http://www.w3.org/2000/svg" width="1000pt" height="1000pt" viewBox="0 0 1000 1000"><path d="M493.75 752.059L346.227 648.613c-6.48-4.543-15.254.852-14.11 8.684 3.453 23.55 2.973 49-1.722 75.351-.907 5.086-4.282 9.352-8.942 11.582-7.883 3.774-15 9.04-20.324 16.633l-58.774 83.817c-18.164 25.906-11.214 62.437 15.5 81.168 26.68 18.707 63.422 12.816 81.59-13.09l58.77-83.813c5.375-7.664 7.898-16.234 8.723-25.023.468-5.02 3.292-9.52 7.66-12.04 25.312-14.624 51.32-24.175 76.675-28.546 5.48-.945 7.028-8.082 2.477-11.277zm331.023-634.73C675.941 12.964 462.13 61.183 347.253 225.011c-64.26 91.64-83.483 199.886-62.241 295.867 1.601 7.242 5.93 13.594 12.004 17.851l312.527 219.141c5.363 3.766 11.937 5.426 18.441 4.606 97.934-12.41 193.727-67.454 258.282-159.516 114.875-163.824 87.343-381.27-61.493-485.633zM145.84 416.66c-46.028 0-83.34 37.313-83.34 83.34s37.313 83.34 83.34 83.34 83.34-37.313 83.34-83.34-37.313-83.34-83.34-83.34zm0 0"/></svg>