<svg xmlns="http://www.w3.org/2000/svg" width="1000pt" height="1000pt" viewBox="0 0 1000 1000"><path d="M895.414 368.336c-25.848 31.71-61.851 54.812-103.062 64.324a188.089 188.089 0 01-42.344 4.8h-56.52a355.399 355.399 0 00-4.176 31.298h163.489a358.154 358.154 0 010 62.504H689.312c6.563 74.488 36.086 142.465 81.602 196.625a357.458 357.458 0 01-44.398 44.18c-56.602-65.606-92.914-149.063-99.766-240.825h-95.5v321.559a358.042 358.042 0 01-62.504 0V531.242h-95.5c-6.848 91.762-43.164 175.219-99.762 240.824a357.189 357.189 0 01-44.398-44.18c45.535-54.156 75.059-122.132 81.625-196.624H147.199a358.154 358.154 0 010-62.504h163.512c-6.566-74.492-36.094-142.477-81.637-196.637a358.12 358.12 0 0144.406-44.187c56.602 65.601 92.915 149.058 99.766 240.824h95.5V353.605c-18.898-28.437-30.254-62.32-31.18-98.804-.043-1.61-.058-3.223-.058-4.84 0-71.34 39.844-133.375 98.488-165.063-11.863-1.015-23.867-1.566-35.996-1.566C269.875 83.332 83.332 269.875 83.332 500c0 230.082 186.543 416.668 416.668 416.668 230.082 0 416.668-186.586 416.668-416.668 0-46.016-7.48-90.277-21.254-131.664zm-312.75 64.324a186.391 186.391 0 01-51.414-20.293v56.39h95.5c.79-10.546 1.98-20.98 3.535-31.296h-5.277c-14.563 0-28.735-1.66-42.344-4.8zm-103.488-182.7c0 44.735 20.265 84.81 52.074 111.583 25.371 21.352 58.082 34.25 93.758 34.25h125c54.254 0 101.644-29.8 126.765-73.871 12.11-21.25 19.067-45.8 19.067-71.961 0-80.414-65.418-145.832-145.832-145.832h-125c-40.024 0-76.324 16.21-102.703 42.406-26.617 26.438-43.13 63.04-43.13 103.426zm290.48-46.3l13.973-8.844 19.793-12.535h27.105v136.395h-28.836V209.652h-.8l-1.301.817-29.934 18.765zm-91.754 0l33.766-21.379h27.105v136.395h-28.836V209.652h-.8l-31.235 19.582zm-134.43-21.379h28.837v89.176c0 14.586 11.789 23.441 27.703 23.441 16.117 0 27.906-8.855 27.906-23.441v-89.176h28.637v90.172c0 30.902-23.575 48.152-56.543 48.152-33.098 0-56.54-17.25-56.54-48.152zm0 0"/></svg>