<svg xmlns="http://www.w3.org/2000/svg" width="1000pt" height="1000pt" viewBox="0 0 1000 1000"><path d="M437.477 813.188L225.863 665.015c-7.539-5.282-17.93-3.446-23.215 4.093l-33.457 47.782c-15.84 22.62-10.34 53.8 12.282 69.636l157.004 109.938c22.617 15.84 53.793 10.344 69.632-12.281l33.461-47.782c5.282-7.539 3.446-17.933-4.093-23.215zM774.23 311.906l-226.62-158.68c-.32-.222-.645-.453-.97-.675-50.913-35.403-115.44-38.133-158.949-7.485l-48.898 34.438c-28.68 20.203-66.863 26.973-105.672 18.746-44.156-9.363-86.168 5.184-108.387 37.54C45.656 350.913 91.246 520.366 226.84 615.308l8.68 6.078.242.168 41.21-44.055c1.704-1.82 3.083-3.973 3.727-6.379.567-2.121.672-4.355.285-6.558l-40.636-230.461c-1.457-8.25 4.054-16.122 12.308-17.579l138.227-24.37c8.254-1.454 16.12 4.054 17.578 12.304l8.195 46.477c2.07 11.738 16.242 16.617 25.102 8.636l34.418-31.007c17.3-15.586 43.07-17.168 62.144-3.81l185.535 129.911c21.477 15.04 27.692 44.11 14.239 66.613L638.23 688.336a15.176 15.176 0 01-8.96 6.832l-130.907 36.394a13.675 13.675 0 00-9.355 9.133l-14.403 46.73c66.036 37.977 153.93 55.63 222.786 41.59 58.277-11.882 109.722-42.695 143.89-91.495l33.192-47.395c79.922-114.156 35.047-283.488-100.243-378.219zM601.48 659.645a16.678 16.678 0 009.844-7.508l91.004-152.239c2.23-3.734 1.188-8.609-2.371-11.105l-185.535-129.91a8.292 8.292 0 00-4.774-1.508c-1.464 0-3.62.371-5.586 2.14l-34.417 31.008c-10.465 9.43-23.954 14.625-37.977 14.625h-.008c-27.672 0-51.242-19.757-56.039-46.984l-.7-3.969c-1.597-9.066-10.241-15.117-19.308-13.52l-53.218 9.384c-9.067 1.601-15.118 10.246-13.516 19.308l33.144 187.992a57.176 57.176 0 01-1.074 24.528c-2.383 8.902-6.933 16.996-13.55 24.078-5.2 5.558-4.274 14.437 1.964 18.805l126.785 88.777c7.254 5.078 17.141 3.539 22.664-3.379 7.114-8.91 16.942-15.527 28.387-18.754zm0 0"/></svg>