<svg xmlns="http://www.w3.org/2000/svg" width="1000pt" height="1000pt" viewBox="0 0 1000 1000"><path d="M276.598 547.797c26.394-37.7 17.234-89.66-20.465-116.063-37.703-26.398-89.664-17.23-116.063 20.465-26.398 37.703-17.234 89.664 20.465 116.063 37.7 26.402 89.664 17.234 116.063-20.465zM931.57 271.555c-13.91-55.668-52.894-106.25-115.863-150.344-62.973-44.09-123.836-63.422-180.902-57.453-66.91 7-127.453 48.57-179.961 123.558-53.184 75.957-82.02 162.5-81.192 243.68.364 35.305 6.297 67.848 17.325 96.715l-39.551 215.598c-12.09-2.856-25.227 1.675-32.785 12.468l-83.649 119.461c-9.898 14.137-6.465 33.625 7.676 43.524l17.066 11.949c14.137 9.898 33.625 6.465 43.524-7.676l83.644-119.46c7.54-10.77 7.325-24.626.555-35l191.402-109.22c30.938.504 63.59-5.046 96.938-16.796 76.57-26.989 148.031-83.68 201.219-159.637 52.504-74.988 70.855-146.102 54.554-211.367zm-436.097-9.477c13.199-18.851 39.18-23.433 58.03-10.23 18.852 13.195 23.43 39.175 10.231 58.027-13.199 18.852-39.18 23.43-58.027 10.23-18.852-13.199-23.434-39.18-10.234-58.027zm-67.028 132.043c13.2-18.848 39.184-23.43 58.032-10.23 18.847 13.199 23.43 39.183 10.23 58.03-13.2 18.849-39.18 23.43-58.031 10.231-18.848-13.199-23.43-39.175-10.23-58.03zm-29.265 319.79l23.75-129.473c11.777 14.87 25.535 27.925 41.191 38.89 15.41 10.79 32.102 19.152 49.79 25.117zm183.078-186.653c-13.2 18.847-39.18 23.43-58.031 10.23-18.848-13.199-23.43-39.183-10.23-58.031 13.198-18.848 39.179-23.43 58.026-10.23 18.852 13.195 23.434 39.18 10.235 58.03zm14.375-373.328c13.199-18.852 39.183-23.434 58.031-10.23 18.848 13.198 23.43 39.179 10.23 58.027-13.199 18.851-39.183 23.433-58.03 10.23-18.848-13.195-23.43-39.176-10.231-58.027zm13.406 188.367c13.195-18.852 39.18-23.434 58.027-10.23 18.852 13.195 23.43 39.175 10.23 58.027-13.194 18.851-39.179 23.43-58.026 10.23-18.848-13.199-23.434-39.18-10.23-58.027zm81.664 236.16c-13.2 18.852-39.18 23.434-58.027 10.234-18.852-13.199-23.434-39.183-10.235-58.03 13.2-18.852 39.18-23.43 58.032-10.231 18.847 13.199 23.43 39.18 10.23 58.027zm14.375-373.324c13.2-18.848 39.184-23.43 58.031-10.235 18.852 13.204 23.434 39.184 10.23 58.032-13.198 18.851-39.179 23.43-58.027 10.234-18.851-13.203-23.43-39.18-10.234-58.031zm86.785 265.176c-13.199 18.851-39.183 23.433-58.031 10.234-18.848-13.2-23.43-39.18-10.23-58.027 13.199-18.852 39.18-23.434 58.03-10.235 18.848 13.2 23.43 39.18 10.231 58.028zm67.028-132.043c-13.2 18.847-39.184 23.43-58.032 10.23-18.847-13.2-23.43-39.18-10.23-58.031 13.2-18.848 39.18-23.43 58.031-10.23 18.848 13.199 23.43 39.18 10.23 58.03zm0 0"/></svg>