<svg xmlns="http://www.w3.org/2000/svg" width="1000pt" height="1000pt" viewBox="0 0 1000 1000"><path d="M166.066 627.926C176.41 626.039 187.04 625 197.918 625c10.668 0 21.102 1 31.258 2.82a175.5 175.5 0 0139.797 12.11 177.508 177.508 0 0142.882 26.738h296.477c9.207 0 16.668-7.465 16.668-16.668v-50c0-9.203-7.46-16.668-16.668-16.668H257.328l-21.45-104.305H375a20.827 20.827 0 0017.32-9.257l41.668-62.36c6.39-9.57 3.817-22.508-5.75-28.898-9.562-6.387-22.5-3.817-28.894 5.75l-35.48 53.097H227.308L161.48 117.29c-1.593-7.75-6.894-13.121-12.94-13.121H75.917c-8.848 0-15.273 11.172-12.945 22.508zM824.934 834.05H937.5v-42.528H791.41c14.602 10.918 26.242 25.57 33.524 42.528zm95.898-125.727H348.043c8.152 13.008 14.68 27.13 19.254 42.106H937.5v-25.442c0-9.203-7.46-16.664-16.668-16.664zm-96.223 208.344h96.223c9.207 0 16.668-7.465 16.668-16.668v-24.86H833.328c-.02 14.758-3.14 28.801-8.719 41.528zM374.66 791.523c.203 3.497.34 7.012.34 10.559 0 10.918-1.047 21.59-2.945 31.969h261.343c7.278-16.957 18.926-31.61 33.528-42.528zm-15.5 83.618a177.43 177.43 0 01-26.387 41.527h300.95a103.476 103.476 0 01-8.72-41.527zm-26.277-83.618c-1.113-14.453-4.477-28.265-9.774-41.093-6.507-15.758-15.914-30.004-27.539-42.106a136.129 136.129 0 00-15.36-13.758c-22.812-17.484-51.331-27.898-82.292-27.898-8.004 0-15.836.734-23.457 2.066-46.18 8.067-84.309 39.5-101.734 81.696-5.301 12.824-8.66 26.64-9.778 41.093-.27 3.489-.449 7.004-.449 10.559 0 11.02 1.348 21.715 3.832 31.969a134.534 134.534 0 0017.594 41.094c24.082 37.492 66.117 62.355 113.992 62.355 26.523 0 51.246-7.652 72.133-20.832a136.135 136.135 0 0041.86-41.527 134.63 134.63 0 0017.593-41.094 135.709 135.709 0 003.828-31.965c0-3.555-.18-7.07-.45-10.559zM729.168 812.5c-18.848 0-35.734 8.355-47.191 21.55-9.532 10.97-15.309 25.282-15.309 40.95l.004.14c.035 15.958 6.05 30.5 15.926 41.528 11.441 12.781 28.062 20.832 46.57 20.832 18.504 0 35.129-8.05 46.57-20.832 9.871-11.027 15.89-25.57 15.926-41.527l.004-.141c0-15.668-5.781-29.98-15.309-40.95-11.46-13.195-28.343-21.55-47.191-21.55zM623.02 327.883l67.093 48.726a13.224 13.224 0 0015.61 0l67.062-48.726a13.253 13.253 0 004.832-14.836l-25.61-78.879a13.264 13.264 0 00-12.609-9.16h-82.937a13.264 13.264 0 00-12.633 9.16l-25.613 78.875a13.285 13.285 0 004.805 14.84zm74.898 213.785c132.297 0 239.582-107.285 239.582-239.586C937.5 169.762 830.215 62.5 697.918 62.5c-132.324 0-239.586 107.262-239.586 239.582 0 132.3 107.262 239.586 239.586 239.586zM535.199 179.754l55.98-.434c4.505-.027 8.626-2.613 10.637-6.687l31.414-63.672c20.332-6.824 42.086-10.527 64.684-10.527 22.602 0 44.356 3.703 64.688 10.527l31.433 63.672a11.91 11.91 0 0010.637 6.687l55.957.434c21.266 28.219 35.375 62.121 39.601 98.984l-65.3 53.485a12.002 12.002 0 00-3.57 13.656l30.324 77.125c-24.059 32.5-57.547 57.613-96.387 71.273l-61.3-36.105a11.925 11.925 0 00-12.173 0l-61.308 36.098c-38.836-13.657-72.32-38.774-96.375-71.274l30.32-77.117a12.003 12.003 0 00-3.57-13.656l-65.293-53.48c4.226-36.864 18.336-70.77 39.601-98.99zm0 0"/></svg>