<svg xmlns="http://www.w3.org/2000/svg" width="1000pt" height="1000pt" viewBox="0 0 1000 1000"><path d="M729.168 62.5c-115.063 0-208.336 93.27-208.336 208.332 0 115.043 93.273 208.336 208.336 208.336 115.043 0 208.332-93.293 208.332-208.336C937.5 155.77 844.207 62.5 729.168 62.5zm94.656 223.965c3.281 37.242 18.04 71.23 40.797 98.308a178.294 178.294 0 01-22.195 22.09c-28.301-32.797-46.461-74.527-49.883-120.41h-47.75v160.781c-5.148.45-10.363.684-15.625.684a179.71 179.71 0 01-15.625-.684v-160.78h-47.75c-3.426 45.882-21.582 87.612-49.883 120.41a178.83 178.83 0 01-22.2-22.087c22.77-27.078 37.532-61.07 40.813-98.312H552.77a178.354 178.354 0 01-.004-31.254h81.757c-3.285-37.246-18.046-71.234-40.816-98.316 6.738-8 14.172-15.395 22.203-22.09 28.297 32.8 46.457 74.527 49.88 120.41h47.75V94.434a178.336 178.336 0 0115.628-.684c5.262 0 10.477.23 15.625.684V255.21h47.75c3.426-45.879 21.582-87.61 49.879-120.41a178.69 178.69 0 0122.207 22.094c-22.762 27.082-37.524 61.07-40.805 98.316h81.742c.454 5.148.68 10.36.68 15.621 0 5.266-.226 10.477-.68 15.629h-81.742zm-25.308 479.18c-4.32-3.102-6.848-8.125-6.848-13.446v-85.531c0-45.531-38.773-77.117-79.504-88.016-52.648-14.082-106.504-23.832-158.133-41.586-51.27-17.632-102.89-41.789-127.976-92.632-20.035-40.606-31.438-158.895-35.121-215.211l-.043-.407c.324-8.363-3.485-16.433-11.524-18.746-28.031-8.062-53.785 13.07-53.785 39.93v4.168c0 9.203-7.465 16.664-16.668 16.664H187.29c-42.77 0-78.598 32.383-82.906 74.934l-.215 315.488c-.203 47.078 31.516 67.914 68.168 67.914l11.133.43c-60.297 4.644-84.828 48.238-98.758 80.425-4.766 11.024 3.3 23.309 15.305 23.309h4.152c0 45.953 37.383 83.336 83.332 83.336 45.95 0 83.332-37.383 83.332-83.336h20.836c0 45.953 37.383 83.336 83.332 83.336 45.95 0 83.332-37.383 83.332-83.336h20.836c0 45.953 37.383 83.336 83.332 83.336 45.95 0 83.332-37.383 83.332-83.336h20.836c0 47.969 40.746 86.606 89.441 83.117 41.336-2.965 74.598-36.656 77.07-78.023 1.794-29.93-12.324-56.727-34.663-72.781zM187.5 875c-22.977 0-41.668-18.691-41.668-41.668h83.336c0 22.977-18.691 41.668-41.668 41.668zm187.5 0c-22.977 0-41.668-18.691-41.668-41.668h83.336C416.668 856.309 397.977 875 375 875zm187.5 0c-22.977 0-41.668-18.691-41.668-41.668h83.336c0 22.977-18.691 41.668-41.668 41.668zM266.668 750c-9.207 0-16.668-7.46-16.668-16.668V725c0-9.203 7.46-16.668 16.668-16.668H712.5c9.207 0 16.668 7.465 16.668 16.668v8.332c0 9.207-7.461 16.668-16.668 16.668zM750 875c-22.977 0-41.668-18.691-41.668-41.668h83.336C791.668 856.309 772.977 875 750 875zm0 0"/></svg>