<svg xmlns="http://www.w3.org/2000/svg" width="1000pt" height="1000pt" viewBox="0 0 1000 1000"><path d="M390.957 226.95c39.379 27.573 88.078 18.714 115.652-20.665 27.575-39.379 18.918-88.48-20.46-116.055-39.38-27.57-88.489-18.921-116.063 20.461-27.574 39.38-18.508 88.684 20.871 116.258zm592.2 328.445H818.69a16.649 16.649 0 01-15.46-10.45c-10.04-24.988-30.81-71.015-63.458-117.273C673.703 334.05 590.793 284.57 500 284.57c-.488 0-.973.032-1.46.047l-352.692-.039c-23.524 0-42.493 19.485-41.653 43.192.801 22.582 20.047 40.156 42.645 40.156h31.086L644.05 694.313c2.773-.063 5.531-.11 8.242-.11 74.777 0 118.71 23.453 154.012 42.297 23.754 12.68 43.406 23.16 73.73 26.484-.91-3.84-3.156-7.379-6.644-9.82l-91.66-64.184a142.308 142.308 0 00-106.317-23.578l-424.84-297.468 215.887.011a16.66 16.66 0 0114.406 8.293l87.176 163.946 118.172 81.921c4.629-.351 9.265-.527 13.89-.527 37.946 0 74.434 11.504 105.52 33.274l37.922 26.55c54.531-27.41 107.613-60.68 150.379-96.332 12.066-10.054 4.949-29.675-10.77-29.675zm-66.981 249.988c-63.371 3.176-95.492-13.969-129.492-32.121-35.75-19.082-76.27-40.711-151.13-36.957-74.859 3.754-113.011 29.328-146.671 51.886-32.02 21.461-62.262 41.735-125.637 44.91-63.367 3.176-95.484-13.964-129.484-32.117-35.75-19.082-76.266-40.714-151.125-36.96-11.45.574-20.27 10.324-19.692 21.773.57 11.453 10.32 20.27 21.77 19.695 63.37-3.176 95.488 13.969 129.488 32.121 35.75 19.082 76.27 40.711 151.121 36.961 74.86-3.754 113.016-29.328 146.672-51.89 32.02-21.461 62.266-41.73 125.637-44.91 63.375-3.176 95.496 13.964 129.5 32.117 35.746 19.082 76.262 40.714 151.125 36.96 11.449-.574 20.265-10.324 19.691-21.773-.57-11.453-10.32-20.27-21.773-19.695zm-397.547-83.278c17.543-8.394 37.918-15.843 62.566-20.937l-208.23-145.8-356.121.027c-15.719 0-22.836 19.62-10.77 29.675C78.024 645.055 159.348 691.352 250 722.105zm0 0"/></svg>