<svg xmlns="http://www.w3.org/2000/svg" width="1000pt" height="1000pt" viewBox="0 0 1000 1000"><path d="M807.512 80.203c-3.617-6.898-10.489-11.707-18.211-12.75-218.602-29.555-439.23 54.055-567.742 237.582-128.508 183.527-131.61 419.45-29.075 614.762 3.621 6.898 10.493 11.707 18.215 12.75 218.598 29.555 439.23-54.055 567.742-237.582 128.504-183.528 131.61-419.45 29.07-614.762zM677.508 446.262c-6.082 8.68-15.774 13.328-25.625 13.328a31.11 31.11 0 01-17.899-5.656l-42.664-29.875-47.8 68.27 42.664 29.87c14.14 9.903 17.578 29.383 7.675 43.524-6.074 8.68-15.773 13.328-25.625 13.328a31.11 31.11 0 01-17.898-5.656l-42.664-29.875-47.797 68.265 42.664 29.875c14.137 9.899 17.574 29.383 7.676 43.52-6.078 8.683-15.774 13.328-25.625 13.328a31.097 31.097 0 01-17.899-5.653l-42.664-29.875-29.875 42.665c-6.078 8.68-15.773 13.328-25.625 13.328a31.106 31.106 0 01-17.898-5.653c-14.137-9.902-17.574-29.386-7.676-43.527l29.879-42.664-42.664-29.875c-14.14-9.899-17.574-29.383-7.676-43.524 9.903-14.14 29.39-17.57 43.524-7.671l42.664 29.87 47.797-68.261-42.664-29.875c-14.141-9.898-17.579-29.383-7.676-43.523 9.898-14.137 29.383-17.575 43.523-7.672l42.664 29.875 47.797-68.266-42.664-29.875c-14.137-9.898-17.574-29.383-7.676-43.523 9.899-14.137 29.383-17.575 43.524-7.672l42.668 29.875 29.87-42.668c9.9-14.14 29.384-17.57 43.524-7.676 14.137 9.902 17.578 29.383 7.676 43.523l-29.875 42.668 42.664 29.871c14.137 9.907 17.574 29.391 7.676 43.532zm0 0"/></svg>