<svg xmlns="http://www.w3.org/2000/svg" width="1000pt" height="1000pt" viewBox="0 0 1000 1000"><path d="M227.332 479.703c27.348-36.226 56.582-71.48 87.352-105.348a1242.69 1242.69 0 00-73.094-49.828c-29.55 43.438-47.7 93.668-52.684 145.926 12.785 3.29 25.61 6.379 38.426 9.25zm272.05-301.851c-15.327 0-30.612.414-45.839 1.242a4047.068 4047.068 0 0146.867 36.226 4118.065 4118.065 0 0146.79-36.117 846.563 846.563 0 00-47.817-1.351zm311.712 292.601c-4.977-52.098-23.024-102.172-52.399-145.508a1247.385 1247.385 0 00-72.722 49.528c30.672 33.8 59.812 68.984 87.082 105.144a1225.6 1225.6 0 0038.039-9.164zM662.797 766.672a1291.801 1291.801 0 00-8.555-14.953 1523.52 1523.52 0 01-154.238 7.84c-51.336 0-102.984-2.621-153.914-7.805-2.899 4.976-5.774 10-8.633 15.07 48.84 29.98 104.39 45.676 162.547 45.676 58.258 0 113.898-15.75 162.793-45.828zM500.004 613.73c36.879 0 73.531-1.492 109.922-4.406 24-1.922 47.89-4.472 71.652-7.66a1345.977 1345.977 0 0045.879-6.969 1329.724 1329.724 0 0066.523-13.027 1339.145 1339.145 0 0053.5-13.078 1334.324 1334.324 0 0066.297-19.485A421.902 421.902 0 00916.668 500c0-5.895-.152-11.754-.395-17.586-3.824-92.035-37.492-176.344-91.59-243.527-13.562-16.84-28.382-32.621-44.359-47.16a1338.506 1338.506 0 00-57.68 33.058c-49.812 30.219-97.624 63.613-143.222 100.16a1480.06 1480.06 0 00-30.938-28.586A1383.559 1383.559 0 01685.7 198.547c19.606-12.246 39.54-23.98 59.758-35.238a415.872 415.872 0 00-61.062-37.024C628.805 98.805 566.215 83.332 500 83.332c-65.992 0-128.387 15.367-183.84 42.68a415.946 415.946 0 00-61.152 36.96 1378.673 1378.673 0 0159.77 35.278 1383.45 1383.45 0 01137.437 98.082 1394.408 1394.408 0 0148.125 40.797 1405.343 1405.343 0 0130.918 28.308 1429.333 1429.333 0 0130.293 29.372c4.828 4.832 9.61 9.703 14.363 14.593 39.629 40.793 76.516 83.657 110.574 128.465a1291.442 1291.442 0 01-48.023 6.028 1362.2 1362.2 0 00-93.5-106.555c-4.262-4.375-8.55-8.735-12.88-13.063a1384.096 1384.096 0 00-31.765-30.738 1378.975 1378.975 0 00-30.918-28.121 1351.444 1351.444 0 00-48.132-40.516c-45.68-36.664-93.575-70.156-143.485-100.457a1343.661 1343.661 0 00-57.691-33.09 419.09 419.09 0 00-44.434 47.11c-54.297 67.25-88.101 151.722-91.93 243.95-.242 5.831-.398 11.69-.398 17.585 0 16.617 1.004 32.996 2.898 49.102a1334.224 1334.224 0 0066.293 19.488 1335.97 1335.97 0 0053.84 13.152c-8.09 12.317-15.968 24.778-23.68 37.34a1394.19 1394.19 0 01-17.738-4.281 1376.03 1376.03 0 01-70.648-19.504 413.626 413.626 0 0024.004 71.96 416.21 416.21 0 0017.222 34.747 417.511 417.511 0 0039.895 59.226c10.285-20.753 21.094-41.195 32.371-61.355 1.895-3.387 3.774-6.785 5.695-10.152a1378.528 1378.528 0 0134.41-57.067 1376.556 1376.556 0 0125.024-37.898 1386.162 1386.162 0 0141.008-56.836c34.125-44.848 71.082-87.75 110.797-128.567a1302.431 1302.431 0 0130.922 27.954A1362.424 1362.424 0 00361.98 543.94a1339.334 1339.334 0 00-43.164 57.774 1344.069 1344.069 0 00-26.14 38.398 1342.77 1342.77 0 00-35.68 57.602 1348.729 1348.729 0 00-21.289 37.765 1347.365 1347.365 0 00-30.258 59.22c15.281 15.273 31.758 29.34 49.25 42.1 68.817 50.212 153.59 79.868 245.301 79.868 91.805 0 176.656-29.715 245.512-80.016a419.218 419.218 0 0049.238-42.144 1344.172 1344.172 0 00-30.254-59.25 1351.25 1351.25 0 00-21.168-37.594 1445.383 1445.383 0 0043.496-7.996c1.883 3.297 3.719 6.629 5.574 9.945 11.278 20.172 22.09 40.625 32.372 61.395a417.353 417.353 0 0039.87-59.293 413.285 413.285 0 0017.063-34.453 413.407 413.407 0 0024.004-71.961 1373.155 1373.155 0 01-70.648 19.504 1394.304 1394.304 0 01-17.414 4.207 1367.617 1367.617 0 01-65.196 13.586 1366.998 1366.998 0 01-44.761 7.465 1391.612 1391.612 0 01-69.528 8.597 1415.354 1415.354 0 01-138.152 6.735c-46.297 0-92.242-2.247-137.774-6.704a1269.508 1269.508 0 0128.274-39.332 1375.129 1375.129 0 00109.496 4.371zm.363-358.785c-38.39-31.597-78.285-61.078-119.547-88.457 37.262-13.355 77.383-20.656 119.184-20.656 42.016 0 82.344 7.375 119.77 20.867-41.208 27.317-81.06 56.723-119.407 88.246zm123.7 114.356a1278.161 1278.161 0 01144.917-99.43C822.06 331.816 854.168 412.227 854.168 500c0 .645-.023 1.281-.023 1.926a1270.7 1270.7 0 01-98.641 24.027c-39.887-54.973-83.75-107.254-131.438-156.652zM244.874 526.023c-33.32-6.699-66.336-14.75-99.016-24.097-.004-.645-.023-1.281-.023-1.926 0-87.96 32.242-168.527 85.52-230.523a1278.287 1278.287 0 01145.238 99.746c-47.793 49.437-91.754 101.77-131.719 156.8zm255.414-44.976a1303.976 1303.976 0 0162.29 68.687A1317.032 1317.032 0 01500 551.23c-20.777 0-41.48-.5-62.098-1.472a1304.836 1304.836 0 0162.387-68.711zm-.285 236.848c59.348 0 118.156-3.543 176.289-10.547 14.422 23.578 28.039 47.664 40.934 72.18-60.024 46.75-135.426 74.64-217.223 74.64-81.703 0-157.016-27.82-217.004-74.469 12.93-24.562 26.59-48.691 41.055-72.312 58.02 6.976 116.71 10.508 175.949 10.508zm0 0"/></svg>