<svg xmlns="http://www.w3.org/2000/svg" width="1000pt" height="1000pt" viewBox="0 0 1000 1000"><path d="M934.8 284.656c-4.98-77.91-39.183-142.84-96.296-182.832-57.11-39.992-129.824-49.922-204.738-27.957C560.523 95.34 493.715 144.97 445.652 213.61c-48.062 68.641-71.847 148.395-66.972 224.563 2.074 32.406 9.215 62.555 20.945 89.613l-39.734 216.613c-12.09-2.855-25.227 1.676-32.786 12.47l-83.648 119.46c-9.898 14.137-6.465 33.621 7.676 43.524l17.066 11.949c14.137 9.898 33.625 6.46 43.524-7.68l83.644-119.457c7.54-10.77 7.324-24.629.555-35.004L588.27 659.902c4.847.297 9.722.477 14.64.477 24.957 0 50.754-3.781 76.809-11.422 73.238-21.473 140.047-71.098 188.11-139.742 48.058-68.637 71.847-148.39 66.972-224.559zm-527.155 430.34l24.515-133.64a214.399 214.399 0 0042.817 39.648 214.496 214.496 0 0051.152 26.387zm426.05-229.676c-59.61 85.125-148.804 133.32-230.46 133.313-37.594-.004-73.602-10.223-104.364-31.762-46.535-32.586-74.453-86.336-78.61-151.36-4.273-66.765 16.872-137.081 59.524-198.003C539.391 152.383 628.59 104.19 710.246 104.19c37.59 0 73.602 10.227 104.363 31.762 46.536 32.586 74.453 86.34 78.614 151.363 4.27 66.762-16.871 137.082-59.528 198.004zm-557.097 62.477c26.394-37.7 17.23-89.66-20.465-116.063-37.703-26.398-89.664-17.23-116.063 20.465-26.398 37.703-17.234 89.664 20.465 116.063 37.7 26.402 89.664 17.234 116.063-20.465zm0 0"/></svg>