<svg xmlns="http://www.w3.org/2000/svg" width="1000pt" height="1000pt" viewBox="0 0 1000 1000"><path d="M936.96 371.824c-4.433-69.304-34.89-127.09-85.765-162.71-50.867-35.626-115.59-44.481-182.23-24.942-64.969 19.047-124.207 63.043-166.809 123.883-42.601 60.84-63.68 131.554-59.36 199.117 1.372 21.426 5.24 41.746 11.415 60.652l-5.875 176.356c-11.746-2.285-24.27 2.3-31.574 12.73l-83.649 119.461c-9.898 14.137-6.465 33.625 7.676 43.524l17.066 11.949c14.137 9.898 33.622 6.465 43.524-7.676l83.644-119.461c7.305-10.434 7.329-23.77 1.168-34.027l163.735-65.848c19.87-.66 40.281-3.969 60.87-10.008 64.97-19.047 124.212-63.043 166.81-123.883 42.597-60.836 63.68-131.554 59.355-199.117zM490.7 723.957l2.85-85.684a191.382 191.382 0 0035.012 31.614c13.051 9.136 27.024 16.484 41.696 22.074zm352.773-176.91C792.395 619.984 716.44 661.832 646.414 663.21c-.355-.012-.71 0-1.066.012-33.48.46-65.575-8.34-92.891-27.47-27.293-19.112-46.531-46.226-57.555-77.812-.125-.375-.242-.746-.39-1.109-22.645-66.273-9.297-151.95 41.773-224.879 51.945-74.18 129.621-116.207 200.625-116.207 32.578 0 63.754 8.848 90.387 27.496 40.297 28.215 64.473 74.824 68.086 131.242 3.719 58.157-14.719 119.442-51.91 172.563zM400.77 479.168c2.234-67.297 25.593-135.516 67.253-195.008 48.008-68.562 115.207-118.273 189.22-139.973a300.283 300.283 0 0130.253-7.21V79.168c0-9.203-7.46-16.664-16.664-16.664H79.168c-9.207 0-16.668 7.46-16.668 16.664V462.5c0 9.203 7.46 16.668 16.668 16.668h5.937c3.141-18.652 10.426-35.906 20.875-50.8 22.633-32.243 60.067-53.376 102.36-53.376 46.172 0 86.543 25.18 108.195 62.508a124.094 124.094 0 0115.043 41.668zM104.168 120.836c0-9.203 7.46-16.668 16.664-16.668h41.594l-58.258 83.203zm0 245.055V293.25l132.394-189.082h50.864zM263.73 437.5a84.255 84.255 0 00-7.593-6.02c-32.282-22.605-75.008-19.117-103.196 6.02a83.38 83.38 0 00-12.863 14.445 83.047 83.047 0 00-12.496 27.223c-8.305 32.61 3.758 68.39 32.961 88.84 37.7 26.394 89.66 17.234 116.059-20.465 14.488-20.691 18.246-45.676 12.468-68.375-3.996-15.719-12.57-30.332-25.34-41.668zm-55.617 0c-.508 14.27-4.254 28.547-11.468 41.668a95.354 95.354 0 01-5.368 8.629c-10.808 15.433-25.468 26.594-41.773 33.133a62.76 62.76 0 01-3.688-21.102 72.533 72.533 0 0025.907-20.66 74.973 74.973 0 002.488-3.32 72.425 72.425 0 0012.82-34.86 62.764 62.764 0 0121.094-3.742zm34.301 86.102a72.448 72.448 0 00-12.824 34.906 62.829 62.829 0 01-21.09 3.742c.566-17.566 6.04-35.16 16.852-50.598 10.476-14.964 24.59-25.87 40.3-32.484.485-.207.961-.445 1.45-.645.074.215.125.43.199.645 2.285 6.574 3.488 13.492 3.504 20.453-11.032 5.234-20.903 13.281-28.39 23.98zm0 0"/></svg>