<svg xmlns="http://www.w3.org/2000/svg" width="1000pt" height="1000pt" viewBox="0 0 1000 1000"><path d="M936.96 371.824c-4.433-69.304-34.89-127.09-85.765-162.71-50.867-35.626-115.59-44.481-182.23-24.942-64.969 19.047-124.207 63.043-166.809 123.883-42.601 60.84-63.68 131.554-59.36 199.117 1.372 21.426 5.24 41.746 11.415 60.652l-5.875 176.356c-11.746-2.285-24.27 2.3-31.574 12.73l-83.649 119.461c-9.898 14.137-6.465 33.625 7.676 43.524l17.066 11.949c14.137 9.898 33.622 6.465 43.524-7.676l83.644-119.461c7.305-10.434 7.329-23.77 1.168-34.027l163.735-65.848c19.87-.66 40.281-3.969 60.87-10.008 64.97-19.047 124.212-63.043 166.81-123.883 42.597-60.836 63.68-131.554 59.355-199.117zM490.7 723.957l2.85-85.684a191.382 191.382 0 0035.012 31.614c13.051 9.136 27.024 16.484 41.696 22.074zm352.773-176.91C792.395 619.984 716.44 661.832 646.414 663.21c-.355-.012-.71 0-1.066.012-33.48.46-65.575-8.34-92.891-27.47-27.293-19.112-46.531-46.226-57.555-77.812-.125-.375-.242-.746-.39-1.109-22.645-66.273-9.297-151.95 41.773-224.879 51.945-74.18 129.621-116.207 200.625-116.207 32.578 0 63.754 8.848 90.387 27.496 40.297 28.215 64.473 74.824 68.086 131.242 3.719 58.157-14.719 119.442-51.91 172.563zM601.082 166.668c14.398-7.375 29.227-13.652 44.375-18.75l-91.844-81.234a16.66 16.66 0 00-11.039-4.184H70.844c-7.442 0-11.153 9.008-5.867 14.25l101.683 89.918zm-200.312 312.5c2.234-67.3 25.593-135.516 67.253-195.008 20.196-28.848 43.801-54.34 69.868-75.828H166.66v173.832a124.403 124.403 0 0141.679-7.172c61.832 0 113.289 45.13 123.238 104.176zM208.34 416.66a82.947 82.947 0 00-41.68 11.18C141.762 442.254 125 469.16 125 500c0 46.027 37.313 83.34 83.34 83.34s83.34-37.313 83.34-83.34c0-7.195-.91-14.176-2.625-20.832-9.25-35.945-41.883-62.508-80.715-62.508zm0 0"/></svg>