<svg xmlns="http://www.w3.org/2000/svg" width="1000pt" height="1000pt" viewBox="0 0 1000 1000"><path d="M559.71 668.977L354.923 525.582c-18.852-13.203-44.832-8.617-58.027 10.23-13.2 18.852-8.622 44.833 10.23 58.028l170.676 119.508-119.414 170.718c-13.192 18.86-8.598 44.836 10.258 58.028a41.485 41.485 0 0023.847 7.527c13.145 0 26.074-6.203 34.18-17.789l143.285-204.844c13.184-18.851 8.598-44.82-10.246-58.011zm-208.222 6.796c-18.851-13.199-44.828-8.617-58.027 10.23l-143.395 204.79c-13.199 18.852-8.617 44.836 10.23 58.031a41.48 41.48 0 0023.864 7.54c13.137 0 26.063-6.2 34.168-17.774L361.723 733.8c13.199-18.847 8.617-44.827-10.235-58.027zm276.969-467.406c39.379 27.574 88.074 18.715 115.648-20.664 27.575-39.379 18.918-88.48-20.46-116.055-39.38-27.574-88.493-18.921-116.063 20.457-27.574 39.38-18.504 88.688 20.875 116.262zm126.137 310.145l-58.621-17.438-5.82-178.207c-.008-.289-.055-.57-.071-.86-.016-.323-.004-.648-.031-.972-.035-.437-.11-.867-.156-1.3a40.727 40.727 0 00-.25-1.962c-.04-.242-.051-.484-.094-.73l-.008-.05c-.066-.384-.18-.755-.254-1.138-.152-.73-.305-1.46-.496-2.183-.055-.215-.094-.434-.152-.649-.09-.324-.22-.636-.313-.953l-.008-.02a42.331 42.331 0 00-.75-2.288c-.078-.207-.14-.41-.218-.617-.102-.262-.235-.516-.34-.778l-.012-.023c-.32-.774-.648-1.551-1.016-2.309-.097-.207-.191-.418-.297-.625l-.277-.492-.113-.203a41.418 41.418 0 00-1.25-2.223c-.129-.21-.25-.422-.383-.629l-.2-.285-.21-.305a41.08 41.08 0 00-1.508-2.16c-.144-.191-.285-.386-.433-.574l-.247-.293-.136-.156a41.028 41.028 0 00-1.867-2.18l-.403-.445-.336-.32a38.413 38.413 0 00-2.347-2.235l-.282-.258-.261-.207a42.75 42.75 0 00-2.774-2.156l-.14-.11-.11-.081-102.394-71.7a43.212 43.212 0 00-3.2-2.007c-.238-.133-.476-.278-.714-.407a39.752 39.752 0 00-3.09-1.527c-.328-.144-.66-.281-.992-.418-.336-.137-.66-.285-.997-.414L400.598 152.16c-17.852-6.84-38.07-.652-49.04 15.008l-95.593 136.527c-13.2 18.852-8.617 44.832 10.23 58.028a41.48 41.48 0 0023.864 7.539c13.136 0 26.062-6.196 34.168-17.77l76.937-109.879 80.191 30.727-112.82 160.98c-.43.614-.8 1.262-1.195 1.903-3-1.34-6.05-2.602-9.235-3.668-40.132-13.446-81.671 5.672-113.41 25.242-.363.148-.722.305-1.082.476-85.351 40.399-148.285 5.391-150.82 3.942a20.826 20.826 0 00-23.57 1.68 20.837 20.837 0 00-6.836 22.625l16.742 52.316a20.832 20.832 0 008.887 11.371c12.8 7.91 27.742 11.977 43.742 11.977 3.879 0 7.82-.239 11.808-.723 2.32-.277 4.668-.64 6.973-1.082 29.469-5.602 54.164-23.738 75.945-39.738 5.809-4.266 11.293-8.293 16.703-11.985 25.981-17.722 69.458-47.386 101.676-36.594 10.344 3.465 20.114 10.06 30.227 17.383a41.48 41.48 0 003.664 2.914l102.457 71.77a41.665 41.665 0 0031.14 6.906 41.68 41.68 0 0026.899-17.137l71.7-102.386 2.718 83.293c.586 17.925 12.574 33.465 29.762 38.582l126.297 37.562a41.622 41.622 0 0011.894 1.742c17.95 0 34.52-11.695 39.91-29.77a133.755 133.755 0 01-21.804-11.917c-19.52-13.149-34.836-30.953-45.133-51.492zm132.441-78.082a102.578 102.578 0 00-3.293-2.13c-.344-.214-.695-.41-1.039-.616-.765-.465-1.531-.93-2.308-1.372-.415-.234-.832-.453-1.25-.683-.715-.395-1.43-.793-2.153-1.168-.441-.23-.894-.445-1.34-.668-.699-.352-1.398-.707-2.101-1.04-.473-.222-.946-.429-1.422-.644-.688-.312-1.375-.632-2.067-.93-.484-.206-.976-.398-1.464-.6a94.576 94.576 0 00-2.063-.829c-.496-.191-.996-.367-1.492-.55-.691-.255-1.383-.509-2.078-.747-.5-.176-1.004-.332-1.508-.496-.695-.227-1.39-.453-2.09-.664-.512-.152-1.023-.3-1.535-.445-.695-.2-1.39-.395-2.09-.578a65.193 65.193 0 00-1.562-.391c-.696-.172-1.39-.34-2.09-.496-.524-.121-1.055-.23-1.582-.34a94.055 94.055 0 00-2.09-.414c-.535-.106-1.07-.2-1.61-.29-.69-.116-1.386-.23-2.081-.335-.543-.082-1.082-.156-1.622-.23-.695-.094-1.394-.18-2.09-.262-.542-.059-1.085-.117-1.632-.172-.7-.067-1.395-.13-2.094-.188a115.128 115.128 0 00-3.742-.226c-.543-.028-1.09-.043-1.633-.063-.703-.015-1.402-.031-2.105-.035-.45-.004-.903-.004-1.352-.004-2.074.008-4.152.074-6.227.203-.296.016-.59.04-.89.055-2.067.145-4.133.344-6.2.602l-.894.117c-2.062.277-4.121.61-6.172 1-.289.054-.574.113-.86.172-2.062.41-4.116.87-6.163 1.398-.262.067-.528.14-.79.211a114.248 114.248 0 00-6.156 1.809c-.23.074-.46.152-.687.23-2.07.688-4.129 1.43-6.172 2.234l-.52.215c-2.09.84-4.163 1.73-6.214 2.696l-.301.148a116.1 116.1 0 00-6.293 3.2 4.49 4.49 0 00-2.285 3.39c-4.711 40.285 11.387 80.57 45.55 103.594 1.087.73 2.184 1.437 3.29 2.125.382.238.773.457 1.164.691.722.438 1.445.879 2.18 1.293.456.266.921.504 1.382.758.668.367 1.336.738 2.008 1.09.5.258 1.004.5 1.508.75.644.324 1.281.648 1.93.957.527.246 1.058.476 1.585.718.633.286 1.258.575 1.899.848.539.23 1.082.45 1.625.668.633.262 1.262.524 1.894.766.555.215 1.106.41 1.66.613.633.23 1.262.465 1.899.684.563.195 1.121.37 1.688.554.632.207 1.265.41 1.906.606.566.172 1.14.332 1.71.496.634.18 1.266.36 1.907.527.574.153 1.156.297 1.734.438a87.78 87.78 0 003.668.832c.637.129 1.278.261 1.918.383.586.109 1.172.21 1.758.308a88.004 88.004 0 003.707.563c.645.09 1.285.168 1.934.242.593.07 1.187.129 1.781.191.648.063 1.293.121 1.937.172.598.047 1.192.09 1.79.125a108.125 108.125 0 003.734.172c.648.016 1.297.027 1.95.035a107.74 107.74 0 007.625-.195c.32-.024.644-.043.964-.063 2.043-.14 4.09-.34 6.133-.593l.957-.13c2.043-.273 4.082-.6 6.113-.988.305-.058.613-.125.922-.183 2.043-.406 4.078-.867 6.105-1.387l.844-.223a121.35 121.35 0 006.113-1.796c.243-.079.48-.165.723-.243a117.73 117.73 0 006.14-2.226l.54-.219c2.086-.84 4.156-1.73 6.203-2.691l.305-.149c2.12-1 4.218-2.062 6.289-3.199a4.476 4.476 0 002.28-3.39c4.712-40.294-11.386-80.579-45.55-103.598zm10.805 85.074a10.392 10.392 0 01-8.55 4.457c-2.06 0-4.138-.606-5.95-1.871l-72.867-50.797c-4.72-3.29-5.875-9.785-2.586-14.504 3.285-4.723 9.781-5.879 14.5-2.586l72.867 50.8c4.719 3.286 5.875 9.782 2.586 14.5zm0 0"/></svg>