<svg xmlns="http://www.w3.org/2000/svg" width="1000pt" height="1000pt" viewBox="0 0 1000 1000"><path d="M276.598 547.418c26.394-37.703 17.23-89.664-20.465-116.063-37.703-26.398-89.664-17.234-116.063 20.465-26.398 37.7-17.234 89.66 20.465 116.059 37.7 26.398 89.664 17.234 116.063-20.461zm-85.328-59.75c-10.81 15.437-25.465 26.594-41.774 33.137a62.999 62.999 0 01-3.691-21.106 72.434 72.434 0 0028.398-23.98 72.41 72.41 0 0012.82-34.86 62.868 62.868 0 0121.094-3.742c-.574 17.551-6.047 35.13-16.847 50.551zm51.136 35.809a72.448 72.448 0 00-12.824 34.906 62.846 62.846 0 01-21.09 3.742c.567-17.566 6.04-35.16 16.848-50.598 10.805-15.425 25.457-26.582 41.75-33.125a62.763 62.763 0 013.707 21.102 72.392 72.392 0 00-28.39 23.973zm694.48-238.868c-4.984-77.91-39.183-142.84-96.296-182.836-57.113-39.988-129.824-49.921-204.742-27.953-73.243 21.473-140.047 71.102-188.11 139.743-48.062 68.64-71.847 148.39-66.976 224.558 2.074 32.406 9.218 62.555 20.945 89.613l-39.668 216.254c-11.574-2.015-23.797 2.57-30.98 12.832l-83.645 119.457c-9.898 14.137-6.465 33.625 7.676 43.524l17.062 11.949c14.141 9.898 33.625 6.465 43.524-7.676l83.648-119.46c7.727-11.036 7.293-25.313.02-35.766l191.008-108.989c4.847.293 9.726.473 14.64.473 24.957 0 50.754-3.781 76.809-11.418 73.242-21.476 140.05-71.105 188.11-139.742 48.062-68.645 71.847-148.395 66.976-224.563zm-527.16 430.344l24.516-133.644a214.399 214.399 0 0042.817 39.648 214.558 214.558 0 0051.148 26.39zM835.778 485.27c-42.66 60.921-101.504 104.835-165.699 123.656-62.523 18.336-122.586 10.484-169.125-22.102-97.57-68.32-106.133-225.043-19.086-349.363 42.66-60.918 101.508-104.832 165.703-123.656 22.106-6.48 43.899-9.688 64.903-9.688 38.394 0 74.136 10.73 104.218 31.793 46.536 32.586 74.454 86.336 78.61 151.36 4.273 66.761-16.867 137.082-59.524 198zm0 0"/></svg>