<svg xmlns="http://www.w3.org/2000/svg" width="1000pt" height="1000pt" viewBox="0 0 1000 1000"><path d="M771.367 354.168H691.27l-140.942-98.68-38.351-26.86-.09-.054-34.059-23.844a41.54 41.54 0 00-7.156-4.023L276.113 115.34c-21.07-9.242-45.652.344-54.898 21.414-9.242 21.074.344 45.652 21.414 54.898l186.934 82.02-119.028 169.976a41.655 41.655 0 00-6.902 31.137 41.676 41.676 0 0017.133 26.895l102.394 71.695a41.665 41.665 0 0058.031-10.234L600.68 392.469l53.554 37.492a41.642 41.642 0 0023.899 7.535h93.234c23.016 0 41.668-18.656 41.668-41.668s-18.652-41.66-41.668-41.66zm-257.89 336.547a41.734 41.734 0 00-10.41-10.48l-206.25-144.419c-18.856-13.203-44.833-8.617-58.032 10.23-13.2 18.849-8.617 44.833 10.23 58.028l200.106 140.117L581.438 937.95c8.085 11.727 21.105 18.024 34.343 18.024 8.153 0 16.39-2.387 23.61-7.364 18.949-13.058 23.722-39.007 10.66-57.957zm-225.864-10.5c-21.05-9.313-45.652.203-54.965 21.246L191.82 802.37 76.898 879.06c-19.14 12.773-24.308 38.644-11.535 57.785 8.032 12.035 21.239 18.543 34.7 18.543 7.945 0 15.984-2.27 23.085-7.008l125-83.41a41.683 41.683 0 0014.98-17.801l45.727-111.992c9.313-21.043-.199-45.653-21.242-54.961zM570.355 218.53c39.38 27.574 88.075 18.715 115.653-20.664 27.574-39.379 18.918-88.48-20.461-116.054-39.379-27.575-88.492-18.922-116.063 20.457-27.578 39.378-18.507 88.687 20.871 116.261zm387.899 135.637h-73.387c-17.258 0-31.25 13.992-31.25 31.25v10.414h135.887v-10.414c0-17.258-13.992-31.25-31.25-31.25zm0 0"/></svg>