<svg xmlns="http://www.w3.org/2000/svg" width="1000pt" height="1000pt" viewBox="0 0 1000 1000"><path d="M311.258 388.957c14.918-8.672 30.52-10.875 45.117-6.363 1.809.558 3.563 1.234 5.285 1.972 15.55-108.418 109.024-192.023 221.672-192.023 37.586 0 73.031 9.324 104.164 25.75V79.168c0-9.207-7.457-16.668-16.664-16.668H79.168c-9.207 0-16.668 7.46-16.668 16.668V462.5c0 9.203 7.46 16.668 16.668 16.668h204.867c-2.144-31.43-3.664-72.254 27.223-90.211zm272.074-165.16c-103.48 0-188.16 81.988-192.516 184.418 7.352 9.262 13.172 19.535 17.543 28.7 6.235 13.081 10.102 27.769 13.844 41.972l.07.277c6.477 24.594 12.637 47.79 29.536 58.629 19.984 12.805 62.89-8.523 118.492-58.629 2.93-2.64 5.883-5.336 8.886-8.14 38.754-36.169 77.91-80.31 108.317-116.118 13.117-15.449 24.613-29.355 33.734-40.386 5.313-6.422 9.95-12.032 13.844-16.668a194.271 194.271 0 00-47.578-43.41c-30.059-19.383-65.824-30.645-104.172-30.645zm348.95 302.18c-4.567-6.16-8.802-7.422-11.587-7.832-15.746-2.336-40.402 16.062-56.734 28.226-5.04 3.754-9.797 7.297-14.07 10.14-14.766 9.833-29.657 20.134-44.059 30.098-17.578 12.16-35.758 24.735-54.043 36.692l-.2.129c-7.222 4.718-16.905 2.687-21.628-4.532-4.719-7.222-2.691-16.906 4.531-21.628 30.774-20.114 58.61-47.649 85.528-74.278l3.062-3.027c32.34-31.969 68.992-68.2 81.762-109.012 3.441-10.996 1.988-28.57-12.008-33.215-22.371-7.437-40.828 11.68-64.457 39.489-4.832 5.683-9.395 11.05-13.965 15.855-2.855 3-5.715 5.95-8.574 8.871a956.803 956.803 0 01-18.887 18.77 1063.669 1063.669 0 01-22.223 20.855c-38.804 35.395-69.957 58.754-71.77 60.106-6.464 4.828-15.554 3.937-20.952-2.067-5.406-6-5.344-15.129.133-21.054 32-34.641 78.199-87.075 103.386-116.13 5.965-6.874 10.758-12.453 13.899-16.163l.047-.055 3.175-3.738c2.762-3.243 6.188-7.266 9.922-11.817 17.364-21.172 41.559-53.98 38.407-75.176-.563-3.793-2.27-9.445-10.524-14.742-17.816-11.422-41.523 6.434-55.543 19.863a165.762 165.762 0 00-9.187 9.524c-.586.664-1.243 1.41-1.93 2.207-2.82 3.262-6.484 7.637-10.805 12.84-2.367 2.855-4.91 5.933-7.66 9.258-14.383 17.398-34.574 41.82-57.824 68.328-21.922 24.992-46.567 51.836-71.637 76.406a864.54 864.54 0 01-15.355 14.707c-53.805 50.215-96.79 76.277-130.094 78.691-11.883.86-22.54-1.273-32.008-6.418a55.09 55.09 0 01-3.476-2.05c-17.465-11.203-27.149-28.313-33.809-46.54-3.715-10.163-6.5-20.675-9.145-30.71-.683-2.594-1.359-5.149-2.039-7.68-2.84-10.527-5.78-20.39-9.793-28.805a148.071 148.071 0 00-3.375-6.64c-5.425-10.055-11.355-18.102-17.347-23.621-4.113-3.79-8.254-6.407-12.274-7.649-6.203-1.914-12.808-.765-20.187 3.524-15 8.718-13.238 39.703-11.602 63.191.043.629.086 1.258.13 1.875.515 7.367 1.003 14.328 1.007 20.465.012 15.758-.57 32.832-1.191 50.906-2.293 67.125-5.153 150.664 26.023 176.856a15.614 15.614 0 013.711 4.558c4.422 8.223.383 14.34-2.863 19.25l-39.594 59.93 165.687 127.18 58.754-62.07c4.422-4.661 9.918-10.458 19.364-7.317l.437.152c33.93 12.442 100.492-5.965 182.617-50.488 67.95-36.836 132.047-84.426 147.075-104.102.535-.699 1.125-1.351 1.773-1.953.172-.168 21.766-21.262 12.48-36.086-2.734-4.36-9.125-14.574-35.988-6.363-20.164 6.16-43.441 20.117-62.144 31.332-11.942 7.16-22.258 13.344-30.52 16.867-7.52 3.211-16.254.074-20.008-7.195-3.758-7.266-1.273-16.203 5.696-20.488 47.078-28.942 95.757-58.868 137.5-95.895 2.73-2.418 5.828-5.031 9.109-7.797 43.262-36.469 46.562-51.07 37.863-62.808zm0 0"/></svg>