<svg xmlns="http://www.w3.org/2000/svg" width="1000pt" height="1000pt" viewBox="0 0 1000 1000"><path d="M446.926 214.086c43.789-15.938 66.367-64.356 50.43-108.145C481.417 62.152 433 39.574 389.21 55.511c-43.785 15.938-66.363 64.356-50.426 108.145 15.938 43.79 64.356 66.367 108.14 50.43zm125.847-77.79c-.367-1.007-.687-2.026-1.023-3.038-5.773 7.148-9.25 16.234-9.25 26.14l-.008 65.918-215.176 35.868-.527.117c-.969.176-1.926.39-2.867.629-.399.101-.797.195-1.188.304-.949.27-1.87.582-2.789.914-.386.137-.777.274-1.156.422-.879.348-1.73.739-2.57 1.137-.395.191-.797.371-1.188.57-.8.418-1.578.868-2.344 1.332-.39.239-.789.465-1.171.715a38.937 38.937 0 00-2.196 1.547c-.355.262-.71.516-1.054.79a39.46 39.46 0 00-2.125 1.831c-.286.258-.575.504-.852.774-.726.699-1.418 1.433-2.09 2.183-.203.223-.414.442-.613.672a42.386 42.386 0 00-2.02 2.559l-.402.539a42.866 42.866 0 00-1.863 2.89l-.274.446a42.916 42.916 0 00-1.597 3.097l-.23.477a42.184 42.184 0 00-1.259 3.144c-.078.22-.164.43-.234.649-.34 1-.629 2.023-.89 3.055-.083.312-.169.62-.243.933-.219.95-.39 1.914-.539 2.883-.066.418-.14.828-.195 1.25a40.485 40.485 0 00-.235 2.762c-.03.472-.062.945-.074 1.425-.008.352-.05.696-.05 1.055v250c0 23.012 18.652 41.664 41.664 41.664h63.93c71.784 0 130.183 58.403 130.183 130.184 0 71.785-58.399 130.183-130.184 130.183-71.781 0-130.183-58.398-130.183-130.183 0-21.395 5.007-41.754 14.882-60.52 10.72-20.363 2.899-45.562-17.464-56.277-20.36-10.723-45.559-2.902-56.278 17.465-16.011 30.422-24.472 64.77-24.472 99.332 0 117.734 95.78 213.515 213.515 213.515 117.735 0 213.516-95.78 213.516-213.515 0-80.516-44.8-150.754-110.778-187.121V316.746l90.196-15.035c20.09-3.348 34.816-20.727 34.816-41.098l.008-58.804c-33.18-8.204-61.039-32.493-73.059-65.512zm156.614-57.003a63.036 63.036 0 00-1.715-4.188 62.498 62.498 0 00-2.36-4.758l-.234-.406a61.301 61.301 0 00-2.098-3.445c-.144-.223-.285-.45-.433-.668a63.424 63.424 0 00-2.496-3.465c-.153-.191-.309-.383-.461-.57a63.626 63.626 0 00-2.516-2.977l-.383-.43a61.314 61.314 0 00-2.96-3c-.208-.199-.418-.39-.626-.581a64.407 64.407 0 00-3.128-2.72l-.094-.077a61.31 61.31 0 00-3.399-2.531c-.238-.168-.476-.336-.722-.497a60.979 60.979 0 00-3.547-2.25l-.266-.148a65.125 65.125 0 00-3.496-1.867c-.25-.125-.496-.25-.746-.371a61.511 61.511 0 00-3.785-1.672c-.211-.086-.426-.16-.637-.242a62.371 62.371 0 00-3.539-1.258c-.223-.07-.445-.149-.668-.219a65.862 65.862 0 00-3.984-1.086c-.282-.066-.567-.125-.844-.187a60.45 60.45 0 00-3.82-.739l-.403-.07a63.978 63.978 0 00-4.152-.476c-.316-.028-.633-.047-.945-.07a61.262 61.262 0 00-4.235-.165c-.949 0-1.898.024-2.851.067-.285.011-.57.039-.856.05a71.04 71.04 0 00-2.047.149c-.355.035-.71.078-1.062.117-.621.066-1.238.14-1.86.227-.37.05-.742.113-1.117.171-.605.098-1.215.204-1.824.317a65.708 65.708 0 00-2.992.645c-.336.081-.672.16-1.012.245-.707.184-1.414.391-2.125.598-.254.074-.508.14-.761.219-.973.305-1.942.625-2.907.976-22.3 8.118-37.172 27.606-40.453 49.532-1.312 8.742-.762 17.879 1.879 26.832.371 1.25.77 2.5 1.219 3.742a62.484 62.484 0 001.695 4.14c.137.305.274.614.414.918a64.827 64.827 0 001.95 3.86l.296.504a61.657 61.657 0 002.02 3.324c.164.25.32.5.484.746a61.601 61.601 0 002.461 3.414c.168.215.34.426.512.637.789.992 1.605 1.957 2.445 2.894l.434.489a63.65 63.65 0 002.93 2.968c.218.207.445.414.663.618 1 .918 2.012 1.812 3.063 2.664l.148.125a61.658 61.658 0 003.368 2.507 65.288 65.288 0 004.273 2.754l.305.168a63.81 63.81 0 003.46 1.848c.255.129.505.254.762.379.707.336 1.434.637 2.149.95.543.233 1.078.495 1.629.718.21.086.426.16.64.246 1.168.45 2.344.871 3.535 1.254.223.07.446.148.668.219a64.58 64.58 0 003.985 1.086c.281.066.562.125.84.187 1.27.285 2.547.535 3.836.738l.386.07c1.38.212 2.77.36 4.164.477.313.028.625.047.942.07 1.406.098 2.82.165 4.234.165.95 0 1.899-.024 2.852-.067.285-.012.566-.039.851-.05a72.07 72.07 0 002.047-.149c.36-.035.715-.078 1.07-.117.618-.067 1.231-.14 1.848-.227.38-.05.754-.113 1.13-.172.6-.097 1.202-.199 1.8-.312.383-.074.758-.145 1.133-.223.613-.129 1.226-.27 1.84-.418.355-.086.714-.168 1.07-.258a75.993 75.993 0 001.992-.562c.3-.086.605-.168.906-.262.961-.3 1.918-.617 2.875-.965 32.438-11.812 49.16-47.675 37.356-80.109zm0 0"/></svg>