<svg xmlns="http://www.w3.org/2000/svg" width="1000pt" height="1000pt" viewBox="0 0 1000 1000"><path d="M870.531 382.95c-12.586-19.262-38.41-24.673-57.672-12.083l-85.968 56.184-74.782-146.254c-4.8-9.379-12.675-16.129-21.757-19.727-74.497-46.097-173.266-26.504-224.164 46.121l-71.72 102.336a41.689 41.689 0 00-6.913 31.137 41.686 41.686 0 0017.129 26.906l102.46 71.766a41.669 41.669 0 0023.907 7.543c2.406 0 4.828-.211 7.23-.637a41.65 41.65 0 0026.899-17.133l104.21-148.816 64.407 125.957a41.66 41.66 0 0026.402 21.3 41.659 41.659 0 0033.492-5.39l124.758-81.539c19.262-12.586 24.672-38.41 12.082-57.672zM542.688 672.116a41.68 41.68 0 00-16.977-26.328L320.92 501.832c-18.827-13.23-44.816-8.695-58.046 10.125-13.234 18.828-8.7 44.816 10.125 58.05l190.957 134.235 41.176 217.266c3.785 19.988 21.265 33.914 40.89 33.914 2.575 0 5.184-.238 7.805-.738 22.61-4.286 37.465-26.082 33.18-48.696zM294.8 644.45c-23.012 0-41.668 18.653-41.668 41.664v82.535L108.46 880.824c-18.188 14.102-21.5 40.274-7.398 58.461 8.21 10.59 20.519 16.137 32.957 16.137a41.483 41.483 0 0025.503-8.742l160.809-124.684a41.656 41.656 0 0016.133-32.926V686.113c0-23.011-18.652-41.664-41.664-41.664zm367.785-411.582c39.379 27.574 88.074 18.715 115.648-20.664 27.575-39.379 18.918-88.48-20.46-116.055-39.38-27.574-88.489-18.921-116.063 20.457-27.574 39.383-18.504 88.688 20.875 116.262zm0 0"/></svg>