<svg xmlns="http://www.w3.org/2000/svg" width="1000pt" height="1000pt" viewBox="0 0 1000 1000"><path d="M 880.167969 363.335938 C 880.132812 360.1875 880.074219 357.039062 879.992188 353.886719 C 879.980469 353.402344 879.976562 352.914062 879.960938 352.429688 C 878.703125 307.804688 872.414062 263.179688 861.304688 219.394531 L 861.246094 219.164062 C 860.285156 215.386719 859.289062 211.617188 858.257812 207.855469 C 858.171875 207.542969 858.085938 207.234375 858.003906 206.925781 C 856.953125 203.121094 855.875 199.328125 854.753906 195.542969 L 854.710938 195.402344 C 852.394531 187.582031 849.917969 179.792969 847.292969 172.039062 C 847.175781 171.703125 847.058594 171.367188 846.945312 171.03125 C 845.808594 167.703125 844.644531 164.386719 843.457031 161.078125 C 843.171875 160.289062 842.886719 159.503906 842.601562 158.714844 C 841.523438 155.761719 840.425781 152.816406 839.304688 149.875 C 838.996094 149.058594 838.691406 148.246094 838.378906 147.429688 C 837.113281 144.144531 835.816406 140.871094 834.496094 137.601562 C 834.351562 137.234375 834.207031 136.867188 834.058594 136.503906 C 832.554688 132.808594 831.015625 129.121094 829.4375 125.445312 C 829.207031 124.898438 828.960938 124.359375 828.726562 123.820312 C 827.4375 120.828125 826.125 117.851562 824.785156 114.875 C 824.289062 113.769531 823.777344 112.664062 823.269531 111.554688 C 822.152344 109.109375 821.023438 106.671875 819.875 104.242188 C 819.304688 103.035156 818.730469 101.824219 818.152344 100.621094 C 816.984375 98.179688 815.792969 95.746094 814.589844 93.320312 C 814.050781 92.234375 813.519531 91.144531 812.976562 90.0625 C 811.253906 86.621094 809.496094 83.195312 807.707031 79.777344 L 807.675781 79.714844 C 807.222656 78.851562 806.71875 78.023438 806.167969 77.230469 C 802.320312 71.675781 796.214844 67.878906 789.460938 66.960938 C 785.546875 66.433594 781.632812 65.953125 777.722656 65.496094 C 776.519531 65.355469 775.316406 65.230469 774.113281 65.097656 C 771.351562 64.789062 768.589844 64.496094 765.828125 64.226562 C 764.488281 64.097656 763.148438 63.96875 761.808594 63.847656 C 759.023438 63.589844 756.242188 63.359375 753.457031 63.136719 C 752.289062 63.042969 751.113281 62.945312 749.941406 62.859375 C 742.097656 62.289062 734.261719 61.859375 726.433594 61.574219 C 725.273438 61.53125 724.117188 61.503906 722.957031 61.46875 C 720.15625 61.382812 717.355469 61.308594 714.5625 61.261719 C 713.261719 61.238281 711.960938 61.214844 710.660156 61.203125 C 707.832031 61.171875 705.003906 61.160156 702.175781 61.164062 C 701.070312 61.167969 699.960938 61.160156 698.851562 61.167969 C 691.019531 61.222656 683.199219 61.421875 675.398438 61.765625 C 674.292969 61.8125 673.1875 61.875 672.082031 61.925781 C 669.25 62.066406 666.421875 62.226562 663.597656 62.402344 C 662.355469 62.480469 661.117188 62.558594 659.882812 62.644531 C 657.003906 62.84375 654.128906 63.0625 651.257812 63.296875 C 650.226562 63.382812 649.195312 63.460938 648.164062 63.550781 C 640.386719 64.230469 632.628906 65.058594 624.902344 66.027344 C 623.84375 66.160156 622.785156 66.304688 621.726562 66.445312 C 618.894531 66.816406 616.066406 67.199219 613.242188 67.609375 C 612.054688 67.78125 610.867188 67.953125 609.679688 68.132812 C 606.796875 68.570312 603.917969 69.023438 601.046875 69.5 C 600.074219 69.660156 599.097656 69.8125 598.128906 69.976562 C 569.71875 74.804688 541.777344 81.613281 514.527344 90.347656 L 514.519531 90.347656 C 489.242188 98.449219 464.5625 108.214844 440.652344 119.625 L 440.089844 119.894531 C 436.894531 121.421875 433.714844 122.980469 430.550781 124.570312 C 430.328125 124.679688 430.105469 124.789062 429.886719 124.902344 C 426.621094 126.542969 423.371094 128.214844 420.136719 129.917969 L 419.992188 129.992188 C 406.683594 137.011719 393.644531 144.554688 380.898438 152.621094 C 380.542969 152.84375 380.191406 153.074219 379.839844 153.296875 C 377.109375 155.03125 374.398438 156.789062 371.699219 158.570312 C 371.152344 158.933594 370.605469 159.300781 370.058594 159.664062 C 367.527344 161.347656 365.011719 163.050781 362.507812 164.773438 C 361.917969 165.179688 361.324219 165.589844 360.734375 166 C 358.207031 167.757812 355.695312 169.535156 353.191406 171.335938 C 352.691406 171.695312 352.1875 172.050781 351.683594 172.414062 C 348.855469 174.464844 346.039062 176.542969 343.246094 178.648438 L 342.847656 178.945312 C 336.839844 183.480469 330.914062 188.140625 325.074219 192.929688 C 324.699219 193.238281 324.328125 193.554688 323.953125 193.863281 C 321.527344 195.863281 319.113281 197.886719 316.714844 199.925781 C 315.988281 200.550781 315.269531 201.179688 314.542969 201.804688 C 312.503906 203.566406 310.472656 205.335938 308.453125 207.128906 C 307.609375 207.878906 306.765625 208.632812 305.925781 209.390625 C 304.023438 211.097656 302.136719 212.820312 300.257812 214.554688 C 299.386719 215.359375 298.515625 216.164062 297.652344 216.972656 C 295.777344 218.726562 293.917969 220.5 292.0625 222.285156 C 291.246094 223.070312 290.425781 223.851562 289.613281 224.640625 C 287.597656 226.605469 285.601562 228.589844 283.613281 230.585938 C 282.996094 231.203125 282.375 231.8125 281.765625 232.433594 C 276.558594 237.707031 271.453125 243.097656 266.4375 248.605469 C 265.726562 249.382812 265.03125 250.175781 264.328125 250.957031 C 262.566406 252.914062 260.808594 254.882812 259.070312 256.867188 C 258.183594 257.878906 257.308594 258.90625 256.425781 259.925781 C 254.886719 261.714844 253.351562 263.511719 251.828125 265.320312 C 250.894531 266.433594 249.964844 267.550781 249.039062 268.671875 C 247.578125 270.441406 246.128906 272.214844 244.683594 274.003906 C 243.761719 275.148438 242.835938 276.300781 241.917969 277.457031 C 240.472656 279.28125 239.035156 281.121094 237.609375 282.96875 C 236.738281 284.09375 235.863281 285.214844 235 286.347656 C 233.464844 288.363281 231.953125 290.394531 230.441406 292.433594 C 229.710938 293.417969 228.976562 294.390625 228.253906 295.378906 C 226.042969 298.410156 223.847656 301.464844 221.6875 304.550781 L 221.683594 304.550781 C 219.523438 307.640625 217.402344 310.746094 215.3125 313.863281 C 214.628906 314.882812 213.964844 315.910156 213.289062 316.929688 C 211.890625 319.042969 210.5 321.15625 209.136719 323.285156 C 208.363281 324.488281 207.605469 325.699219 206.839844 326.910156 C 205.59375 328.878906 204.359375 330.851562 203.140625 332.832031 C 202.367188 334.089844 201.605469 335.351562 200.84375 336.613281 C 199.65625 338.578125 198.480469 340.550781 197.320312 342.53125 C 196.585938 343.785156 195.855469 345.039062 195.128906 346.292969 C 193.945312 348.347656 192.78125 350.40625 191.628906 352.46875 C 190.972656 353.640625 190.308594 354.8125 189.664062 355.988281 C 188.386719 358.304688 187.136719 360.632812 185.898438 362.964844 C 185.40625 363.890625 184.902344 364.808594 184.417969 365.738281 C 180.957031 372.332031 177.636719 378.980469 174.460938 385.671875 C 174.085938 386.457031 173.730469 387.25 173.363281 388.035156 C 172.164062 390.589844 170.980469 393.152344 169.824219 395.71875 C 169.359375 396.75 168.910156 397.785156 168.449219 398.816406 C 167.410156 401.167969 166.378906 403.523438 165.367188 405.890625 C 164.902344 406.980469 164.445312 408.074219 163.984375 409.167969 C 162.996094 411.519531 162.027344 413.882812 161.074219 416.246094 C 160.648438 417.300781 160.226562 418.355469 159.808594 419.414062 C 158.816406 421.914062 157.851562 424.417969 156.898438 426.929688 C 156.554688 427.832031 156.207031 428.734375 155.871094 429.640625 C 154.773438 432.582031 153.703125 435.527344 152.660156 438.480469 C 152.492188 438.949219 152.320312 439.414062 152.152344 439.882812 C 149.652344 447.007812 147.296875 454.167969 145.089844 461.367188 L 144.949219 461.839844 C 143.925781 465.1875 142.9375 468.546875 141.980469 471.90625 C 141.808594 472.496094 141.648438 473.089844 141.484375 473.679688 C 140.648438 476.648438 139.835938 479.617188 139.050781 482.597656 C 138.863281 483.296875 138.683594 483.996094 138.5 484.695312 C 137.738281 487.628906 137 490.566406 136.289062 493.507812 C 136.128906 494.160156 135.972656 494.8125 135.8125 495.460938 C 135.0625 498.601562 134.339844 501.746094 133.644531 504.894531 C 133.554688 505.304688 133.457031 505.714844 133.367188 506.128906 C 130.148438 520.855469 127.515625 535.691406 125.476562 550.601562 L 125.453125 550.761719 C 124.957031 554.382812 124.5 558.007812 124.074219 561.632812 C 124.046875 561.886719 124.019531 562.132812 123.988281 562.382812 C 123.582031 565.894531 123.207031 569.402344 122.863281 572.917969 C 122.839844 573.136719 122.820312 573.359375 122.796875 573.578125 C 120.257812 599.9375 119.523438 626.464844 120.554688 652.980469 L 120.554688 652.992188 C 121.667969 681.585938 124.828125 710.160156 130.003906 738.5 C 130.183594 739.496094 130.378906 740.484375 130.566406 741.480469 C 131.097656 744.3125 131.644531 747.144531 132.214844 749.972656 C 132.460938 751.171875 132.707031 752.371094 132.957031 753.574219 C 133.53125 756.332031 134.128906 759.085938 134.738281 761.839844 C 134.980469 762.917969 135.214844 763.992188 135.457031 765.066406 C 137.1875 772.636719 139.058594 780.183594 141.070312 787.707031 C 141.351562 788.738281 141.636719 789.773438 141.921875 790.804688 C 142.667969 793.546875 143.433594 796.285156 144.222656 799.019531 C 144.574219 800.234375 144.925781 801.453125 145.285156 802.667969 C 146.078125 805.355469 146.890625 808.039062 147.71875 810.714844 C 148.050781 811.800781 148.382812 812.882812 148.722656 813.964844 C 151.0625 821.394531 153.542969 828.796875 156.164062 836.160156 C 156.546875 837.230469 156.9375 838.292969 157.324219 839.359375 C 158.277344 841.992188 159.246094 844.617188 160.234375 847.242188 C 160.703125 848.476562 161.171875 849.710938 161.644531 850.945312 C 162.640625 853.527344 163.648438 856.105469 164.675781 858.675781 C 165.117188 859.777344 165.550781 860.882812 165.996094 861.984375 C 167.457031 865.585938 168.945312 869.183594 170.476562 872.765625 L 170.496094 872.816406 C 172.039062 876.421875 173.621094 880.015625 175.230469 883.601562 C 175.714844 884.6875 176.21875 885.765625 176.710938 886.851562 C 177.863281 889.378906 179.027344 891.898438 180.210938 894.414062 C 180.789062 895.636719 181.371094 896.863281 181.957031 898.085938 C 183.152344 900.578125 184.367188 903.070312 185.597656 905.554688 C 186.136719 906.640625 186.671875 907.734375 187.214844 908.824219 C 188.980469 912.339844 190.773438 915.851562 192.605469 919.347656 C 193.058594 920.207031 193.5625 921.039062 194.113281 921.832031 C 197.410156 926.59375 202.367188 930.0625 207.96875 931.535156 C 208.902344 931.777344 209.855469 931.964844 210.820312 932.097656 C 214.671875 932.617188 218.519531 933.097656 222.371094 933.542969 C 223.558594 933.679688 224.746094 933.804688 225.933594 933.9375 C 228.640625 934.238281 231.351562 934.527344 234.054688 934.796875 C 235.386719 934.925781 236.710938 935.050781 238.039062 935.171875 C 240.714844 935.421875 243.394531 935.648438 246.070312 935.863281 C 247.28125 935.960938 248.496094 936.058594 249.707031 936.148438 C 252.960938 936.390625 256.210938 936.605469 259.464844 936.796875 C 260.054688 936.832031 260.644531 936.875 261.234375 936.910156 C 265.226562 937.132812 269.214844 937.316406 273.199219 937.464844 C 273.605469 937.480469 274.011719 937.488281 274.417969 937.507812 C 277.925781 937.628906 281.429688 937.722656 284.933594 937.789062 C 285.820312 937.804688 286.703125 937.816406 287.585938 937.828125 C 290.726562 937.875 293.863281 937.898438 297 937.898438 C 297.835938 937.898438 298.675781 937.898438 299.515625 937.898438 C 303.027344 937.882812 306.539062 937.839844 310.050781 937.769531 C 310.410156 937.761719 310.769531 937.761719 311.132812 937.753906 C 319.316406 937.570312 327.480469 937.226562 335.621094 936.730469 L 335.761719 936.722656 C 339.703125 936.480469 343.636719 936.199219 347.566406 935.882812 C 347.886719 935.855469 348.214844 935.832031 348.539062 935.804688 C 352.425781 935.488281 356.304688 935.136719 360.179688 934.746094 L 360.421875 934.722656 C 376.785156 933.070312 393.035156 930.773438 409.128906 927.847656 L 409.140625 927.847656 C 437.246094 922.734375 464.882812 915.703125 491.820312 906.75 C 492.273438 906.601562 492.726562 906.441406 493.179688 906.289062 C 496.171875 905.285156 499.15625 904.261719 502.132812 903.210938 C 503.078125 902.878906 504.019531 902.535156 504.964844 902.195312 C 507.457031 901.300781 509.949219 900.394531 512.425781 899.464844 C 513.507812 899.066406 514.582031 898.652344 515.660156 898.242188 C 518.035156 897.339844 520.398438 896.425781 522.761719 895.492188 C 523.835938 895.066406 524.914062 894.640625 525.992188 894.207031 C 528.421875 893.230469 530.847656 892.230469 533.265625 891.222656 C 534.222656 890.824219 535.175781 890.425781 536.128906 890.023438 C 538.960938 888.824219 541.78125 887.597656 544.589844 886.355469 C 545.101562 886.128906 545.613281 885.910156 546.125 885.683594 C 549.542969 884.160156 552.949219 882.601562 556.335938 881.011719 L 556.730469 880.820312 C 559.871094 879.34375 563.003906 877.832031 566.121094 876.296875 C 567.003906 875.863281 567.878906 875.417969 568.753906 874.980469 C 571.128906 873.792969 573.496094 872.597656 575.855469 871.382812 C 576.914062 870.832031 577.96875 870.28125 579.023438 869.726562 C 581.214844 868.578125 583.398438 867.417969 585.574219 866.238281 C 586.664062 865.652344 587.75 865.058594 588.832031 864.464844 C 591.015625 863.269531 593.183594 862.050781 595.351562 860.828125 C 596.371094 860.25 597.394531 859.671875 598.414062 859.085938 C 600.785156 857.726562 603.140625 856.34375 605.488281 854.949219 C 606.269531 854.484375 607.054688 854.03125 607.835938 853.566406 C 614.121094 849.789062 620.339844 845.894531 626.484375 841.875 C 627.285156 841.351562 628.074219 840.816406 628.871094 840.289062 C 631.105469 838.808594 633.335938 837.324219 635.546875 835.816406 C 636.574219 835.113281 637.59375 834.402344 638.617188 833.695312 C 640.605469 832.320312 642.589844 830.933594 644.5625 829.527344 C 645.640625 828.765625 646.710938 827.996094 647.78125 827.222656 C 649.714844 825.828125 651.636719 824.421875 653.550781 823.003906 C 654.597656 822.226562 655.648438 821.449219 656.691406 820.667969 C 658.699219 819.152344 660.695312 817.625 662.679688 816.085938 C 663.589844 815.386719 664.503906 814.691406 665.410156 813.980469 C 667.894531 812.035156 670.359375 810.066406 672.816406 808.074219 C 673.203125 807.761719 673.597656 807.453125 673.984375 807.140625 C 676.84375 804.808594 679.679688 802.441406 682.503906 800.046875 C 683.179688 799.476562 683.847656 798.882812 684.523438 798.304688 C 686.625 796.503906 688.722656 794.691406 690.800781 792.855469 C 691.765625 792.003906 692.722656 791.136719 693.679688 790.277344 C 695.464844 788.679688 697.242188 787.070312 699.011719 785.449219 C 700.042969 784.503906 701.066406 783.546875 702.089844 782.589844 C 703.785156 781.007812 705.472656 779.417969 707.148438 777.808594 C 708.167969 776.832031 709.1875 775.855469 710.199219 774.871094 C 711.910156 773.207031 713.613281 771.527344 715.304688 769.835938 C 716.238281 768.90625 717.175781 767.976562 718.109375 767.039062 C 720.023438 765.101562 721.921875 763.140625 723.808594 761.171875 C 724.488281 760.464844 725.171875 759.769531 725.847656 759.058594 C 728.402344 756.367188 730.941406 753.648438 733.449219 750.898438 C 733.917969 750.386719 734.371094 749.863281 734.835938 749.351562 C 736.867188 747.113281 738.882812 744.859375 740.878906 742.578125 C 741.734375 741.601562 742.578125 740.609375 743.429688 739.628906 C 745.027344 737.78125 746.613281 735.929688 748.191406 734.058594 C 749.121094 732.949219 750.050781 731.828125 750.976562 730.710938 C 752.457031 728.921875 753.933594 727.121094 755.394531 725.308594 C 756.328125 724.152344 757.257812 722.996094 758.183594 721.832031 C 759.644531 719.992188 761.089844 718.140625 762.535156 716.277344 C 763.417969 715.136719 764.300781 714.003906 765.171875 712.859375 C 766.714844 710.832031 768.242188 708.785156 769.761719 706.730469 C 770.5 705.738281 771.242188 704.753906 771.976562 703.753906 C 774.207031 700.699219 776.417969 697.621094 778.597656 694.507812 L 778.601562 694.507812 C 780.777344 691.394531 782.914062 688.265625 785.023438 685.121094 C 785.710938 684.089844 786.382812 683.054688 787.066406 682.023438 C 788.472656 679.894531 789.875 677.761719 791.25 675.617188 C 792.027344 674.402344 792.792969 673.1875 793.558594 671.96875 C 794.820312 669.976562 796.066406 667.984375 797.292969 665.980469 C 798.070312 664.714844 798.839844 663.445312 799.605469 662.171875 C 800.808594 660.175781 801.996094 658.171875 803.175781 656.164062 C 803.910156 654.914062 804.640625 653.667969 805.359375 652.414062 C 806.585938 650.285156 807.785156 648.152344 808.976562 646.015625 C 809.605469 644.886719 810.246094 643.761719 810.867188 642.628906 C 812.328125 639.964844 813.761719 637.289062 815.175781 634.609375 C 815.496094 634.003906 815.828125 633.402344 816.144531 632.796875 C 817.871094 629.496094 819.558594 626.183594 821.214844 622.859375 C 821.652344 621.984375 822.070312 621.101562 822.503906 620.226562 C 823.707031 617.773438 824.898438 615.320312 826.066406 612.859375 C 826.632812 611.660156 827.183594 610.457031 827.742188 609.257812 C 828.746094 607.09375 829.742188 604.929688 830.722656 602.757812 C 831.300781 601.460938 831.871094 600.167969 832.441406 598.871094 C 833.375 596.75 834.296875 594.621094 835.203125 592.492188 C 835.753906 591.203125 836.296875 589.914062 836.835938 588.621094 C 837.753906 586.410156 838.65625 584.1875 839.546875 581.964844 C 840.027344 580.769531 840.515625 579.574219 840.988281 578.367188 C 842 575.792969 842.984375 573.207031 843.957031 570.621094 C 844.273438 569.785156 844.601562 568.953125 844.910156 568.113281 C 846.195312 564.648438 847.445312 561.171875 848.660156 557.6875 C 848.824219 557.210938 848.980469 556.726562 849.144531 556.246094 C 850.175781 553.269531 851.179688 550.285156 852.15625 547.289062 C 852.515625 546.199219 852.855469 545.105469 853.203125 544.011719 C 853.96875 541.613281 854.722656 539.214844 855.457031 536.8125 C 855.835938 535.5625 856.207031 534.316406 856.578125 533.066406 C 857.257812 530.777344 857.925781 528.488281 858.574219 526.191406 C 858.933594 524.925781 859.289062 523.660156 859.640625 522.390625 C 860.285156 520.050781 860.910156 517.707031 861.523438 515.359375 C 861.835938 514.164062 862.15625 512.96875 862.460938 511.769531 C 863.121094 509.164062 863.761719 506.550781 864.390625 503.9375 C 864.609375 503.019531 864.839844 502.097656 865.054688 501.179688 C 866.734375 494.023438 868.269531 486.847656 869.664062 479.644531 C 869.835938 478.761719 869.992188 477.878906 870.15625 476.996094 C 870.667969 474.300781 871.164062 471.601562 871.632812 468.898438 C 871.832031 467.746094 872.023438 466.597656 872.214844 465.445312 C 872.628906 462.984375 873.027344 460.523438 873.40625 458.058594 C 873.597656 456.839844 873.777344 455.621094 873.957031 454.398438 C 874.324219 451.945312 874.667969 449.488281 874.996094 447.03125 C 875.152344 445.859375 875.3125 444.6875 875.464844 443.515625 C 875.804688 440.867188 876.117188 438.222656 876.421875 435.574219 C 876.53125 434.609375 876.648438 433.648438 876.753906 432.683594 C 877.136719 429.191406 877.488281 425.695312 877.804688 422.191406 L 877.835938 421.882812 C 878.171875 418.144531 878.472656 414.402344 878.738281 410.660156 C 878.777344 410.128906 878.800781 409.589844 878.839844 409.058594 C 879.050781 405.972656 879.238281 402.878906 879.398438 399.789062 C 879.453125 398.761719 879.492188 397.734375 879.542969 396.707031 C 879.664062 394.082031 879.773438 391.453125 879.859375 388.828125 C 879.898438 387.675781 879.929688 386.527344 879.960938 385.378906 C 880.03125 382.828125 880.085938 380.28125 880.121094 377.734375 C 880.136719 376.589844 880.15625 375.445312 880.164062 374.300781 C 880.1875 371.648438 880.191406 368.992188 880.175781 366.339844 C 880.175781 365.335938 880.175781 364.335938 880.167969 363.335938 Z M 397.96875 866.355469 L 397.742188 866.398438 C 383.378906 869.003906 368.714844 871.070312 354.152344 872.539062 L 353.941406 872.558594 C 350.546875 872.898438 347.019531 873.222656 343.449219 873.511719 L 343.054688 873.546875 L 342.582031 873.585938 C 339.738281 873.816406 337.085938 874.003906 334.492188 874.171875 C 302.875 830.246094 256.847656 798.019531 204.757812 783.328125 C 204.601562 782.792969 204.445312 782.257812 204.289062 781.726562 C 203.578125 779.265625 202.890625 776.804688 202.21875 774.34375 L 201.847656 772.988281 C 201.710938 772.5 201.574219 772.011719 201.449219 771.542969 C 199.652344 764.824219 197.949219 757.964844 196.402344 751.183594 C 196.265625 750.582031 196.132812 749.976562 195.996094 749.371094 L 195.753906 748.257812 C 195.199219 745.78125 194.667969 743.308594 194.148438 740.832031 C 193.921875 739.75 193.699219 738.671875 193.484375 737.59375 C 192.96875 735.046875 192.476562 732.503906 191.996094 729.957031 L 191.753906 728.667969 C 191.667969 728.207031 191.578125 727.753906 191.492188 727.277344 C 190.789062 723.429688 190.144531 719.574219 189.523438 715.707031 L 201.730469 718.261719 C 282.265625 735.085938 353.324219 784.839844 396.679688 854.765625 L 403.242188 865.351562 C 401.488281 865.683594 399.730469 866.035156 397.96875 866.355469 Z M 677.652344 445.792969 C 671.574219 454.472656 661.878906 459.117188 652.027344 459.117188 C 645.835938 459.117188 639.585938 457.285156 634.132812 453.464844 L 591.464844 423.589844 L 543.667969 491.855469 L 586.332031 521.730469 C 600.472656 531.628906 603.910156 551.113281 594.007812 565.253906 C 587.929688 573.933594 578.234375 578.578125 568.382812 578.578125 C 562.191406 578.578125 555.941406 576.746094 550.484375 572.925781 L 507.820312 543.050781 L 460.023438 611.316406 L 502.6875 641.191406 C 516.824219 651.089844 520.261719 670.574219 510.363281 684.710938 C 504.285156 693.394531 494.585938 698.039062 484.738281 698.039062 C 478.546875 698.039062 472.292969 696.207031 466.839844 692.386719 L 424.175781 662.511719 L 394.300781 705.175781 C 388.222656 713.855469 378.523438 718.503906 368.675781 718.503906 C 362.484375 718.503906 356.234375 716.667969 350.777344 712.847656 C 336.640625 702.949219 333.203125 683.464844 343.101562 669.324219 L 372.976562 626.660156 L 330.3125 596.785156 C 316.175781 586.886719 312.738281 567.402344 322.636719 553.261719 C 332.539062 539.121094 352.027344 535.6875 366.160156 545.585938 L 408.824219 575.460938 L 456.621094 507.199219 L 413.957031 477.324219 C 399.820312 467.425781 396.382812 447.941406 406.285156 433.800781 C 416.183594 419.664062 435.667969 416.226562 449.804688 426.128906 L 492.472656 456.003906 L 540.269531 387.738281 L 497.605469 357.863281 C 483.464844 347.964844 480.027344 328.480469 489.929688 314.339844 C 499.828125 300.199219 519.3125 296.765625 533.453125 306.664062 L 576.117188 336.539062 L 605.992188 293.875 C 615.890625 279.734375 635.375 276.300781 649.515625 286.199219 C 663.652344 296.101562 667.089844 315.582031 657.191406 329.722656 L 627.316406 372.386719 L 669.980469 402.261719 C 684.117188 412.167969 687.554688 431.652344 677.652344 445.792969 Z M 798.5625 280.804688 C 718.027344 263.980469 646.96875 214.226562 603.613281 144.300781 L 597.042969 133.703125 C 600.898438 132.960938 604.753906 132.246094 608.621094 131.589844 C 609.054688 131.515625 609.496094 131.445312 609.933594 131.375 L 611.230469 131.164062 C 613.816406 130.734375 616.40625 130.324219 619.003906 129.929688 C 620.066406 129.769531 621.128906 129.617188 622.203125 129.460938 C 624.742188 129.089844 627.28125 128.742188 629.820312 128.414062 L 631.078125 128.246094 C 631.617188 128.175781 632.152344 128.105469 632.683594 128.039062 C 639.628906 127.167969 646.667969 126.417969 653.613281 125.808594 C 654.09375 125.765625 654.582031 125.730469 655.066406 125.691406 L 656.394531 125.582031 C 658.980469 125.367188 661.570312 125.171875 664.164062 124.992188 C 664.710938 124.953125 665.253906 124.921875 665.796875 124.886719 C 697.421875 168.816406 743.449219 201.042969 795.546875 215.730469 C 796.269531 218.226562 797.003906 220.820312 797.777344 223.632812 L 797.886719 224.019531 L 797.980469 224.371094 C 798.921875 227.796875 799.828125 231.222656 800.671875 234.554688 L 800.726562 234.761719 C 804.808594 250.855469 808.121094 267.078125 810.742188 283.347656 Z M 798.5625 280.804688"/></svg>