<svg xmlns="http://www.w3.org/2000/svg" width="1000pt" height="1000pt" viewBox="0 0 1000 1000"><path d="M 368.082031 816.167969 L 231.554688 720.570312 C 212.707031 707.371094 186.722656 711.953125 173.527344 730.804688 C 140.527344 777.929688 151.980469 842.882812 199.105469 875.878906 L 233.238281 899.777344 C 280.363281 932.777344 345.316406 921.324219 378.316406 874.199219 C 391.511719 855.347656 386.929688 829.367188 368.082031 816.167969 Z M 417.828125 393.433594 L 305.804688 314.996094 L 269.085938 467.316406 L 355.265625 527.660156 Z M 608.367188 475.988281 L 722.859375 361.53125 C 741.179688 343.214844 738.519531 312.792969 717.296875 297.933594 L 600.421875 216.101562 C 579.199219 201.238281 549.703125 209.144531 538.757812 232.628906 L 470.359375 379.359375 Z M 578.449219 505.902344 L 452.488281 417.703125 L 389.921875 551.925781 L 473.722656 610.601562 Z M 313.171875 716.574219 C 311.039062 721.152344 312.5 726.605469 316.640625 729.507812 L 331.910156 740.199219 C 336.050781 743.101562 341.675781 742.605469 345.25 739.035156 L 443.796875 640.511719 L 372.046875 590.273438 Z M 898.898438 425.089844 L 821.273438 370.738281 C 804.710938 359.140625 782.214844 361.105469 767.917969 375.398438 L 643.027344 500.253906 L 762.441406 583.867188 L 898.027344 493.945312 C 922.503906 477.714844 922.953125 441.933594 898.898438 425.089844 Z M 227.699219 667.230469 L 264.652344 693.105469 C 269.957031 696.820312 277.332031 694.84375 280.070312 688.976562 L 337.386719 566.007812 L 258.597656 510.839844 L 223.546875 656.257812 C 222.542969 660.417969 224.191406 664.773438 227.699219 667.230469 Z M 508.378906 634.867188 L 594.554688 695.207031 L 725.132812 608.609375 L 613.105469 530.171875 Z M 382.507812 760.703125 C 377.925781 765.28125 378.589844 772.886719 383.898438 776.601562 L 420.855469 802.480469 C 424.363281 804.9375 429.015625 804.992188 432.585938 802.628906 L 557.246094 719.953125 L 478.457031 664.78125 Z M 510.316406 195.027344 C 518.859375 176.699219 513.011719 154.886719 496.449219 143.292969 L 418.824219 88.9375 C 394.769531 72.09375 361.300781 84.753906 354.421875 113.304688 L 316.292969 271.472656 L 435.703125 355.085938 Z M 510.316406 195.027344"/></svg>