<svg xmlns="http://www.w3.org/2000/svg" width="1000pt" height="1000pt" viewBox="0 0 1000 1000"><path d="M 500 750 C 672.5625 750 812.5 610.0625 812.5 437.5 C 812.5 264.90625 672.5625 125 500 125 C 327.40625 125 187.5 264.90625 187.5 437.5 C 187.5 610.0625 327.40625 750 500 750 Z M 234.375 437.5 C 234.375 429.605469 234.722656 421.789062 235.398438 414.070312 L 358.035156 414.070312 C 353.109375 358.199219 330.964844 307.210938 296.808594 266.589844 C 306.917969 254.59375 318.066406 243.5 330.113281 233.453125 C 372.5625 282.652344 399.796875 345.246094 404.933594 414.070312 L 476.558594 414.070312 L 476.558594 172.898438 C 484.285156 172.222656 492.101562 171.875 499.996094 171.875 C 507.894531 171.875 515.710938 172.222656 523.4375 172.898438 L 523.4375 414.070312 L 595.0625 414.070312 C 600.199219 345.246094 627.433594 282.652344 669.886719 233.453125 C 681.933594 243.503906 693.082031 254.597656 703.191406 266.59375 C 669.050781 307.210938 646.902344 358.199219 641.984375 414.070312 L 764.597656 414.070312 C 765.273438 421.789062 765.621094 429.605469 765.621094 437.5 C 765.621094 445.398438 765.273438 453.222656 764.597656 460.949219 L 641.984375 460.949219 C 646.902344 516.8125 669.046875 567.796875 703.183594 608.414062 C 693.078125 620.410156 681.929688 631.5 669.886719 641.546875 C 627.433594 592.347656 600.199219 529.753906 595.0625 460.929688 L 523.4375 460.929688 L 523.4375 702.101562 C 515.710938 702.777344 507.894531 703.125 499.996094 703.125 C 492.101562 703.125 484.285156 702.777344 476.558594 702.101562 L 476.558594 460.929688 L 404.933594 460.929688 C 399.796875 529.753906 372.5625 592.347656 330.113281 641.546875 C 318.066406 631.5 306.917969 620.410156 296.816406 608.414062 C 330.96875 567.796875 353.109375 516.8125 358.035156 460.949219 L 235.398438 460.949219 C 234.722656 453.222656 234.375 445.398438 234.375 437.5 Z M 930.464844 880.226562 C 928.410156 878.410156 926.269531 876.488281 924.050781 874.5 C 900.285156 853.195312 867.730469 824.023438 828.429688 816.761719 C 806.292969 812.671875 783.828125 819.914062 762.101562 826.90625 C 745.054688 832.394531 727.4375 838.066406 713.683594 836.511719 C 701.957031 835.179688 688.488281 826.738281 674.226562 817.804688 C 655.585938 806.121094 634.457031 792.882812 609.882812 791.554688 C 586.917969 790.304688 565.765625 800.230469 545.304688 809.820312 C 528.878906 817.519531 513.363281 824.792969 500.003906 824.792969 C 486.640625 824.792969 471.128906 817.519531 454.703125 809.820312 C 434.242188 800.230469 413.089844 790.304688 390.128906 791.554688 C 365.550781 792.882812 344.421875 806.121094 325.777344 817.804688 C 311.515625 826.738281 298.042969 835.179688 286.316406 836.511719 C 272.570312 838.058594 254.941406 832.394531 237.898438 826.90625 C 216.167969 819.914062 193.703125 812.675781 171.566406 816.761719 C 132.5625 823.964844 103.300781 850.101562 77.488281 873.15625 C 74.824219 875.539062 72.183594 877.894531 69.566406 880.199219 C 60.929688 887.804688 60.097656 900.972656 67.703125 909.605469 C 71.820312 914.277344 77.566406 916.667969 83.34375 916.667969 C 88.234375 916.667969 93.148438 914.953125 97.105469 911.464844 C 99.792969 909.097656 102.503906 906.679688 105.238281 904.234375 C 128.035156 883.871094 151.609375 862.820312 179.132812 857.738281 C 190.9375 855.550781 207.542969 860.90625 225.121094 866.570312 C 246.371094 873.410156 268.347656 880.484375 291.015625 877.914062 C 312.148438 875.511719 330.324219 864.125 347.898438 853.109375 C 363.660156 843.234375 378.546875 833.90625 392.378906 833.160156 C 404.851562 832.496094 420.492188 839.800781 437.019531 847.546875 C 456.851562 856.84375 477.359375 866.457031 500.003906 866.457031 C 522.644531 866.457031 543.152344 856.84375 562.988281 847.546875 C 579.511719 839.800781 595.105469 832.496094 607.632812 833.160156 C 621.457031 833.90625 636.339844 843.234375 652.101562 853.109375 C 669.679688 864.121094 687.855469 875.511719 708.988281 877.914062 C 731.65625 880.480469 753.628906 873.410156 774.875 866.566406 C 792.460938 860.902344 809.074219 855.546875 820.863281 857.734375 C 848.644531 862.867188 876.15625 887.523438 896.242188 905.527344 C 898.539062 907.582031 900.746094 909.566406 902.871094 911.441406 C 911.492188 919.058594 924.65625 918.25 932.277344 909.632812 C 939.894531 901.011719 939.082031 887.847656 930.464844 880.226562 Z M 930.464844 880.226562"/></svg>