<svg xmlns="http://www.w3.org/2000/svg" width="1000pt" height="1000pt" viewBox="0 0 1000 1000"><path d="M 915.730469 805.382812 C 852.359375 808.558594 820.242188 791.414062 786.238281 773.261719 C 750.488281 754.179688 709.96875 732.550781 635.109375 736.304688 C 560.25 740.058594 522.097656 765.632812 488.4375 788.191406 C 456.417969 809.652344 426.175781 829.925781 362.800781 833.101562 C 299.429688 836.277344 267.316406 819.136719 233.316406 800.984375 C 197.566406 781.902344 157.050781 760.269531 82.191406 764.023438 C 70.742188 764.597656 61.921875 774.347656 62.496094 785.796875 C 63.070312 797.25 72.820312 806.066406 84.269531 805.492188 C 147.640625 802.316406 179.757812 819.460938 213.761719 837.613281 C 249.507812 856.695312 290.023438 878.324219 364.882812 874.574219 C 439.738281 870.820312 477.894531 845.246094 511.550781 822.683594 C 543.570312 801.222656 573.816406 780.953125 637.191406 777.773438 C 700.5625 774.597656 732.679688 791.738281 766.683594 809.890625 C 802.433594 828.972656 842.949219 850.605469 917.808594 846.851562 C 929.261719 846.277344 938.078125 836.527344 937.507812 825.078125 C 936.929688 813.625 927.179688 804.808594 915.730469 805.382812 Z M 98.929688 721.929688 C 170.429688 721.929688 213.730469 743.375 248.253906 761.730469 L 248.539062 761.882812 C 250.019531 762.667969 251.484375 763.453125 252.933594 764.226562 C 253.128906 764.328125 253.320312 764.429688 253.515625 764.535156 C 254.867188 765.257812 256.210938 765.972656 257.546875 766.679688 L 258.316406 767.089844 C 259.957031 767.960938 261.582031 768.820312 263.203125 769.660156 L 263.402344 769.765625 C 265.085938 770.644531 266.761719 771.507812 268.429688 772.347656 L 268.472656 772.367188 C 275.238281 775.789062 281.933594 778.910156 288.953125 781.605469 L 288.96875 781.609375 C 290.703125 782.273438 292.453125 782.914062 294.230469 783.523438 L 294.296875 783.550781 L 294.367188 783.574219 C 295.203125 783.859375 296.046875 784.140625 296.894531 784.414062 L 297.191406 784.511719 C 298.03125 784.777344 298.882812 785.042969 299.734375 785.296875 L 300.058594 785.398438 C 300.902344 785.648438 301.757812 785.894531 302.613281 786.132812 L 302.984375 786.238281 C 303.816406 786.464844 304.65625 786.6875 305.503906 786.902344 L 305.980469 787.027344 C 306.804688 787.238281 307.644531 787.4375 308.488281 787.636719 L 309.015625 787.761719 C 309.84375 787.953125 310.683594 788.132812 311.527344 788.308594 C 311.730469 788.355469 311.925781 788.398438 312.128906 788.441406 C 312.953125 788.609375 313.792969 788.769531 314.636719 788.929688 C 314.859375 788.972656 315.082031 789.015625 315.308594 789.058594 C 316.125 789.207031 316.953125 789.351562 317.785156 789.488281 C 318.046875 789.53125 318.304688 789.578125 318.574219 789.621094 C 319.378906 789.75 320.199219 789.871094 321.019531 789.992188 C 321.320312 790.035156 321.609375 790.082031 321.914062 790.121094 C 322.71875 790.234375 323.539062 790.335938 324.363281 790.4375 C 324.6875 790.480469 325.011719 790.523438 325.335938 790.5625 C 326.148438 790.660156 326.972656 790.742188 327.796875 790.828125 C 328.148438 790.863281 328.496094 790.902344 328.851562 790.941406 C 329.675781 791.019531 330.511719 791.085938 331.351562 791.15625 C 331.722656 791.1875 332.085938 791.222656 332.457031 791.25 C 333.328125 791.316406 334.214844 791.371094 335.101562 791.425781 C 335.457031 791.449219 335.800781 791.476562 336.164062 791.492188 C 337.09375 791.546875 338.046875 791.585938 338.996094 791.628906 C 339.324219 791.640625 339.644531 791.660156 339.976562 791.671875 C 341.125 791.710938 342.292969 791.742188 343.476562 791.765625 L 343.890625 791.777344 C 345.226562 791.800781 346.578125 791.816406 347.953125 791.816406 C 352.058594 791.816406 356.355469 791.703125 360.722656 791.488281 C 362.933594 791.375 365.078125 791.234375 367.1875 791.078125 C 367.664062 791.042969 368.136719 791.011719 368.605469 790.972656 C 370.691406 790.804688 372.734375 790.628906 374.722656 790.417969 L 374.929688 790.394531 C 376.871094 790.191406 378.753906 789.960938 380.605469 789.714844 C 380.984375 789.667969 381.367188 789.617188 381.742188 789.566406 C 383.648438 789.300781 385.519531 789.023438 387.339844 788.722656 L 387.539062 788.683594 C 389.324219 788.382812 391.066406 788.058594 392.777344 787.714844 C 393.03125 787.667969 393.289062 787.617188 393.539062 787.566406 C 395.320312 787.203125 397.058594 786.824219 398.761719 786.417969 L 398.855469 786.394531 C 400.546875 785.988281 402.199219 785.5625 403.824219 785.117188 L 404.25 785 C 405.914062 784.539062 407.542969 784.054688 409.140625 783.554688 L 409.222656 783.527344 C 410.472656 783.132812 411.695312 782.722656 412.910156 782.304688 L 413.386719 782.136719 C 414.519531 781.738281 415.636719 781.332031 416.742188 780.914062 L 417.085938 780.785156 C 420.773438 779.375 424.304688 777.847656 427.734375 776.210938 L 428.089844 776.042969 C 429.117188 775.546875 430.136719 775.042969 431.152344 774.53125 L 431.503906 774.355469 C 434.863281 772.640625 438.144531 770.828125 441.398438 768.914062 L 441.742188 768.710938 C 442.699219 768.144531 443.65625 767.570312 444.609375 766.992188 L 445.066406 766.714844 C 446.070312 766.097656 447.078125 765.476562 448.085938 764.84375 L 448.214844 764.761719 C 450.390625 763.398438 452.566406 761.992188 454.769531 760.550781 L 455.199219 760.269531 C 456.144531 759.648438 457.089844 759.023438 458.046875 758.390625 L 458.605469 758.019531 C 459.609375 757.355469 460.617188 756.679688 461.636719 756 L 461.808594 755.882812 C 462.949219 755.121094 464.089844 754.355469 465.246094 753.582031 C 501.515625 729.273438 546.648438 699.019531 633.035156 694.6875 C 639.394531 694.367188 645.726562 694.207031 651.855469 694.207031 C 726.632812 694.207031 770.566406 717.660156 805.867188 736.503906 C 811.058594 739.273438 816.054688 741.9375 821.007812 744.445312 L 821.042969 744.464844 C 822.675781 745.289062 824.300781 746.101562 825.929688 746.890625 L 826.015625 746.933594 C 827.636719 747.71875 829.257812 748.484375 830.878906 749.230469 L 830.992188 749.28125 C 832.617188 750.023438 834.25 750.75 835.894531 751.449219 L 835.992188 751.492188 C 837.644531 752.199219 839.3125 752.878906 840.996094 753.539062 L 841.050781 753.558594 C 842.039062 753.945312 843.035156 754.320312 844.039062 754.691406 C 844.484375 754.855469 844.933594 755.007812 845.382812 755.167969 C 845.941406 755.367188 846.496094 755.570312 847.058594 755.761719 C 847.609375 755.953125 848.167969 756.136719 848.726562 756.320312 C 849.191406 756.472656 849.652344 756.632812 850.121094 756.78125 C 850.730469 756.980469 851.351562 757.167969 851.96875 757.355469 C 852.390625 757.484375 852.808594 757.613281 853.238281 757.742188 C 853.886719 757.933594 854.542969 758.121094 855.203125 758.304688 C 855.605469 758.421875 856.007812 758.535156 856.414062 758.644531 C 857.101562 758.832031 857.796875 759.011719 858.496094 759.191406 C 858.878906 759.289062 859.257812 759.386719 859.640625 759.480469 C 860.375 759.664062 861.109375 759.835938 861.855469 760.007812 C 862.214844 760.089844 862.578125 760.171875 862.941406 760.253906 C 863.714844 760.425781 864.5 760.59375 865.289062 760.753906 C 865.621094 760.820312 865.953125 760.886719 866.289062 760.957031 C 867.121094 761.117188 867.964844 761.28125 868.816406 761.433594 C 869.101562 761.484375 869.390625 761.535156 869.679688 761.582031 C 870.585938 761.738281 871.496094 761.894531 872.421875 762.039062 C 872.648438 762.074219 872.878906 762.105469 873.101562 762.140625 C 874.101562 762.289062 875.113281 762.4375 876.136719 762.570312 L 876.464844 762.613281 C 878.136719 762.828125 879.851562 763.015625 881.589844 763.1875 C 882.265625 763.253906 882.957031 763.308594 883.644531 763.367188 C 884.71875 763.460938 885.800781 763.546875 886.902344 763.621094 C 887.753906 763.679688 888.617188 763.734375 889.484375 763.777344 C 890.445312 763.832031 891.417969 763.875 892.398438 763.914062 C 893.371094 763.953125 894.347656 763.992188 895.339844 764.019531 L 895.78125 764.035156 L 896.386719 764.035156 C 897.871094 764.066406 899.351562 764.101562 900.890625 764.101562 C 902.523438 764.101562 904.207031 764.066406 905.890625 764.035156 L 937.53125 764.035156 L 937.519531 751.261719 C 937.539062 750.785156 937.539062 750.308594 937.519531 749.832031 L 937.519531 749.640625 L 937.507812 749.640625 C 937.199219 742.972656 933.613281 736.453125 926.054688 733.082031 C 708.171875 635.558594 445.222656 577.613281 161.511719 575.539062 L 161.511719 575.511719 L 158.878906 575.511719 C 157.859375 575.503906 156.839844 575.480469 155.816406 575.476562 L 155.496094 575.507812 L 79.1875 575.480469 C 69.980469 575.480469 62.515625 582.941406 62.515625 592.148438 L 62.515625 725.851562 C 68.113281 723.890625 74.027344 722.714844 80.117188 722.414062 C 86.464844 722.089844 92.796875 721.929688 98.929688 721.929688 Z M 360.886719 495.964844 C 361.285156 498.148438 362.859375 499.933594 364.980469 500.601562 L 617.691406 580.023438 C 620.742188 580.984375 624.011719 579.371094 625.105469 576.363281 L 652.617188 500.703125 C 652.902344 499.921875 653.019531 499.089844 652.964844 498.261719 L 645.085938 380.617188 C 645.054688 380.152344 644.976562 379.699219 644.839844 379.257812 C 625.332031 314.761719 565.449219 267.800781 494.585938 267.800781 L 488.605469 267.800781 C 408.273438 267.800781 351.191406 330.535156 347.113281 409.683594 C 346.824219 415.253906 347.246094 420.832031 348.246094 426.316406 Z M 473.660156 379.921875 L 624.230469 379.921875 C 627.371094 379.921875 629.980469 382.355469 630.195312 385.488281 L 637.238281 487.433594 C 637.519531 491.496094 633.742188 494.644531 629.796875 493.640625 L 485.097656 456.855469 C 480.316406 455.488281 476.527344 451.832031 474.988281 447.105469 L 459.066406 398.113281 C 456.992188 388.777344 464.097656 379.921875 473.660156 379.921875 Z M 473.660156 379.921875"/></svg>