<svg xmlns="http://www.w3.org/2000/svg" width="1000pt" height="1000pt" viewBox="0 0 1000 1000"><path d="M 691.417969 306.253906 C 735.207031 290.316406 757.78125 241.898438 741.847656 198.109375 C 725.910156 154.320312 677.488281 131.742188 633.699219 147.679688 C 589.914062 163.617188 567.335938 212.039062 583.273438 255.824219 C 599.207031 299.613281 647.628906 322.191406 691.417969 306.253906 Z M 918.519531 470.535156 C 906.714844 438.097656 870.847656 421.371094 838.414062 433.179688 C 805.976562 444.984375 789.253906 480.851562 801.058594 513.285156 C 812.863281 545.722656 848.730469 562.445312 881.164062 550.640625 C 913.601562 538.835938 930.324219 502.972656 918.519531 470.535156 Z M 772.914062 456.667969 L 655.972656 374.785156 L 655.796875 374.671875 L 555.945312 304.753906 C 537.09375 291.554688 511.113281 296.136719 497.917969 314.988281 L 353.328125 521.480469 C 340.128906 540.332031 344.707031 566.3125 363.558594 579.511719 C 374.453125 587.136719 385.347656 594.765625 396.242188 602.394531 C 415.277344 615.722656 434.148438 628.347656 447.765625 647.589844 C 459.285156 663.871094 466.941406 682.792969 470.066406 702.488281 C 473.203125 722.214844 471.773438 742.609375 465.832031 761.683594 C 461.851562 774.453125 455.871094 786.574219 448.199219 797.527344 C 428.253906 826.015625 398.410156 845.027344 364.164062 851.066406 C 329.917969 857.101562 295.371094 849.445312 266.890625 829.496094 C 238.402344 809.550781 219.390625 779.707031 213.355469 745.460938 C 207.316406 711.214844 214.976562 676.671875 234.921875 648.1875 C 247.195312 630.664062 262.972656 616.855469 281.828125 607.148438 C 302.285156 596.613281 310.332031 571.488281 299.796875 551.027344 C 289.265625 530.574219 264.140625 522.523438 243.679688 533.058594 C 213.113281 548.796875 186.484375 572.078125 166.660156 600.386719 C 133.945312 647.105469 121.382812 703.765625 131.285156 759.933594 C 141.191406 816.097656 172.371094 865.046875 219.089844 897.757812 C 255.390625 923.175781 297.695312 936.429688 341.105469 936.429688 C 353.558594 936.429688 366.113281 935.335938 378.636719 933.128906 C 434.800781 923.226562 483.746094 892.042969 516.460938 845.324219 C 561.910156 780.417969 566.109375 698.769531 534.605469 631.730469 L 647.460938 470.550781 L 748.703125 541.441406 C 759.453125 548.964844 772.515625 550.691406 784.207031 547.304688 C 779.027344 540.261719 774.777344 532.4375 771.691406 523.96875 C 763.675781 501.945312 764.140625 478.226562 772.914062 456.667969 Z M 772.914062 456.667969"/></svg>