<svg xmlns="http://www.w3.org/2000/svg" width="1000pt" height="1000pt" viewBox="0 0 1000 1000"><path d="M 936.886719 284.609375 C 931.902344 206.699219 897.703125 141.769531 840.589844 101.773438 C 783.476562 61.785156 710.765625 51.851562 635.847656 73.820312 C 562.605469 95.292969 495.800781 144.921875 447.738281 213.5625 C 399.675781 282.203125 375.890625 361.953125 380.761719 438.121094 C 382.835938 470.527344 389.980469 500.675781 401.707031 527.734375 L 361.972656 744.351562 C 349.886719 741.496094 336.746094 746.027344 329.1875 756.820312 L 245.542969 876.277344 C 235.640625 890.414062 239.078125 909.902344 253.214844 919.800781 L 270.28125 931.75 C 284.417969 941.648438 303.90625 938.214844 313.804688 924.074219 L 397.449219 804.613281 C 404.988281 793.847656 404.773438 779.988281 398.007812 769.613281 L 590.351562 659.855469 C 595.199219 660.148438 600.078125 660.332031 604.992188 660.332031 C 629.949219 660.332031 655.746094 656.550781 681.800781 648.910156 C 755.042969 627.433594 821.851562 577.808594 869.910156 509.167969 C 917.972656 440.527344 941.757812 360.777344 936.886719 284.609375 Z M 409.726562 714.953125 L 434.242188 581.308594 C 446.585938 596.335938 460.902344 609.648438 477.058594 620.957031 C 492.988281 632.109375 510.140625 640.910156 528.207031 647.347656 Z M 835.777344 485.269531 C 793.117188 546.191406 734.273438 590.105469 670.078125 608.925781 C 607.554688 627.261719 547.492188 619.410156 500.953125 586.824219 C 403.382812 518.503906 394.820312 361.78125 481.867188 237.460938 C 524.527344 176.542969 583.375 132.628906 647.570312 113.804688 C 669.675781 107.324219 691.46875 104.117188 712.472656 104.117188 C 750.867188 104.117188 786.609375 114.847656 816.691406 135.910156 C 863.226562 168.496094 891.144531 222.246094 895.300781 287.269531 C 899.574219 354.03125 878.433594 424.351562 835.777344 485.269531 Z M 276.382812 547.417969 C 302.777344 509.714844 293.617188 457.753906 255.917969 431.355469 C 241.371094 421.167969 224.699219 416.277344 208.191406 416.277344 C 181.921875 416.277344 156.070312 428.667969 139.855469 451.820312 C 113.457031 489.523438 122.621094 541.484375 160.320312 567.882812 C 174.867188 578.070312 191.539062 582.957031 208.046875 582.957031 C 234.320312 582.957031 260.171875 570.570312 276.382812 547.417969 Z M 242.25 523.515625 C 234.457031 534.644531 221.667969 541.289062 208.046875 541.289062 C 199.503906 541.289062 191.265625 538.679688 184.21875 533.746094 C 165.398438 520.570312 160.808594 494.539062 173.984375 475.71875 C 181.777344 464.585938 194.566406 457.945312 208.191406 457.945312 C 216.730469 457.945312 224.972656 460.550781 232.015625 465.484375 C 250.835938 478.664062 255.425781 504.695312 242.25 523.515625 Z M 242.25 523.515625"/></svg>