<svg xmlns="http://www.w3.org/2000/svg" width="1000pt" height="1000pt" viewBox="0 0 1000 1000"><path d="M 782.988281 128.816406 C 773.570312 122.210938 760.574219 124.507812 753.976562 133.929688 L 520.046875 468.039062 L 373.117188 537.351562 L 372.980469 537.425781 C 372.550781 537.632812 372.136719 537.863281 371.722656 538.097656 L 371.261719 538.339844 L 195.453125 644.132812 C 190.589844 647.058594 187.132812 651.847656 185.878906 657.382812 C 184.621094 662.921875 185.683594 668.730469 188.816406 673.46875 L 287.613281 822.988281 L 287.660156 823.054688 C 287.789062 823.246094 287.925781 823.429688 288.058594 823.617188 L 288.421875 824.132812 L 288.582031 824.320312 L 288.851562 824.671875 C 289.074219 824.945312 289.316406 825.199219 289.550781 825.460938 L 289.863281 825.8125 L 290.054688 826.027344 L 290.179688 826.148438 C 290.417969 826.386719 290.667969 826.609375 290.917969 826.835938 C 291.152344 827.054688 291.386719 827.277344 291.632812 827.484375 L 291.796875 827.628906 L 291.960938 827.753906 L 292.457031 828.121094 C 292.699219 828.304688 292.9375 828.492188 293.191406 828.667969 L 293.609375 828.945312 L 294.15625 829.277344 C 294.386719 829.417969 294.613281 829.566406 294.851562 829.699219 C 295.082031 829.828125 295.328125 829.949219 295.566406 830.074219 L 296.105469 830.335938 L 296.605469 830.570312 C 296.949219 830.722656 297.300781 830.855469 297.65625 830.988281 L 298.128906 831.171875 L 298.464844 831.285156 C 298.839844 831.410156 299.226562 831.511719 299.613281 831.613281 L 300.148438 831.769531 L 300.277344 831.800781 L 300.296875 831.804688 L 474.398438 873.4375 C 476 873.820312 477.625 874.007812 479.242188 874.007812 C 483.207031 874.007812 487.125 872.878906 490.515625 870.695312 C 495.289062 867.621094 498.605469 862.738281 499.691406 857.164062 L 538.980469 655.785156 C 539.015625 655.589844 539.027344 655.398438 539.058594 655.207031 C 539.136719 654.765625 539.207031 654.324219 539.253906 653.871094 L 539.277344 653.703125 L 554.152344 491.976562 L 788.105469 157.828125 C 794.707031 148.402344 792.414062 135.414062 782.988281 128.816406 Z M 235.558594 668.632812 L 283.421875 639.828125 L 283.859375 741.730469 Z M 471.882812 536.832031 L 407.519531 628.75 L 403.699219 568.992188 Z M 324.980469 614.820312 L 363.398438 591.703125 L 369.265625 683.386719 L 325.542969 745.832031 Z M 462.953125 827.855469 L 378.109375 807.570312 L 473.546875 773.566406 Z M 482.820312 726.023438 L 359.511719 769.960938 L 403.425781 707.246094 L 491.523438 681.417969 Z M 499.078125 635.785156 L 441.675781 652.613281 L 505.980469 560.769531 Z M 859.871094 743.917969 C 833.476562 706.222656 781.519531 697.058594 743.820312 723.457031 C 706.121094 749.851562 696.960938 801.808594 723.359375 839.507812 C 749.753906 877.203125 801.710938 886.363281 839.410156 859.96875 C 877.105469 833.574219 886.265625 781.617188 859.871094 743.917969 Z M 859.871094 743.917969"/></svg>