<svg xmlns="http://www.w3.org/2000/svg" width="1000pt" height="1000pt" viewBox="0 0 1000 1000"><path d="M 603.738281 802.820312 C 590.839844 797.414062 581.035156 786.660156 576.832031 773.324219 C 572.949219 761.011719 574.242188 747.765625 580.335938 736.5 L 574.425781 724.8125 C 566.925781 709.988281 567.640625 692.683594 576.34375 678.53125 C 585.046875 664.378906 600.160156 655.925781 616.765625 655.929688 C 617.171875 655.929688 617.585938 655.933594 618.027344 655.945312 L 632.546875 656.332031 L 634.773438 653.453125 C 640.550781 646 648.203125 640.574219 656.828125 637.621094 C 657.378906 627.738281 661.019531 618.199219 667.4375 610.324219 C 676.488281 599.21875 689.894531 592.847656 704.226562 592.847656 L 704.449219 592.847656 L 710.351562 583.871094 C 719.160156 570.488281 733.980469 562.5 750 562.5 C 766.019531 562.5 780.84375 570.492188 789.648438 583.875 L 795.550781 592.847656 L 795.773438 592.847656 C 808.339844 592.847656 820.199219 597.75 829.03125 606.445312 C 829.597656 605.214844 830.167969 603.984375 830.722656 602.753906 C 831.300781 601.460938 831.875 600.167969 832.445312 598.871094 C 833.378906 596.746094 834.300781 594.621094 835.203125 592.488281 C 835.753906 591.199219 836.296875 589.910156 836.835938 588.617188 C 837.757812 586.40625 838.660156 584.183594 839.550781 581.964844 C 840.027344 580.765625 840.519531 579.570312 840.988281 578.367188 C 842.003906 575.792969 842.988281 573.207031 843.960938 570.617188 C 844.273438 569.785156 844.605469 568.949219 844.914062 568.113281 C 846.199219 564.644531 847.449219 561.171875 848.664062 557.683594 C 848.828125 557.207031 848.984375 556.726562 849.148438 556.246094 C 850.175781 553.265625 851.183594 550.285156 852.160156 547.289062 C 852.515625 546.199219 852.855469 545.101562 853.203125 544.007812 C 853.972656 541.613281 854.726562 539.214844 855.457031 536.808594 C 855.839844 535.558594 856.207031 534.3125 856.582031 533.0625 C 857.261719 530.773438 857.925781 528.484375 858.578125 526.191406 C 858.933594 524.925781 859.292969 523.65625 859.640625 522.390625 C 860.289062 520.046875 860.910156 517.703125 861.527344 515.359375 C 861.835938 514.164062 862.160156 512.964844 862.460938 511.769531 C 863.125 509.160156 863.765625 506.550781 864.390625 503.933594 C 864.609375 503.015625 864.84375 502.097656 865.058594 501.175781 C 866.734375 494.023438 868.269531 486.84375 869.667969 479.640625 C 869.835938 478.761719 869.992188 477.878906 870.160156 476.992188 C 870.667969 474.296875 871.164062 471.601562 871.636719 468.898438 C 871.835938 467.746094 872.023438 466.59375 872.214844 465.441406 C 872.628906 462.980469 873.03125 460.523438 873.410156 458.058594 C 873.597656 456.839844 873.78125 455.617188 873.960938 454.394531 C 874.324219 451.941406 874.667969 449.488281 874.996094 447.027344 C 875.15625 445.859375 875.316406 444.683594 875.464844 443.511719 C 875.804688 440.863281 876.121094 438.21875 876.421875 435.570312 C 876.535156 434.609375 876.648438 433.644531 876.757812 432.683594 C 877.136719 429.1875 877.492188 425.691406 877.808594 422.1875 L 877.839844 421.882812 C 878.175781 418.144531 878.476562 414.402344 878.738281 410.660156 C 878.777344 410.125 878.804688 409.589844 878.839844 409.054688 C 879.050781 405.96875 879.238281 402.878906 879.402344 399.785156 C 879.453125 398.757812 879.496094 397.730469 879.542969 396.703125 C 879.667969 394.078125 879.773438 391.453125 879.863281 388.824219 C 879.902344 387.675781 879.929688 386.523438 879.964844 385.378906 C 880.035156 382.828125 880.085938 380.277344 880.121094 377.730469 C 880.140625 376.585938 880.160156 375.441406 880.167969 374.300781 C 880.191406 371.644531 880.191406 368.992188 880.175781 366.335938 C 880.171875 365.339844 880.175781 364.339844 880.164062 363.339844 C 880.132812 360.191406 880.074219 357.042969 879.992188 353.890625 C 879.980469 353.40625 879.976562 352.917969 879.960938 352.433594 C 878.699219 307.808594 872.414062 263.183594 861.300781 219.398438 L 861.242188 219.167969 C 860.285156 215.390625 859.289062 211.621094 858.253906 207.859375 C 858.167969 207.546875 858.085938 207.238281 858 206.929688 C 856.953125 203.128906 855.871094 199.332031 854.75 195.546875 L 854.707031 195.410156 C 852.390625 187.585938 849.917969 179.796875 847.289062 172.042969 C 847.175781 171.707031 847.054688 171.371094 846.941406 171.035156 C 845.808594 167.707031 844.644531 164.390625 843.453125 161.082031 C 843.171875 160.292969 842.886719 159.507812 842.597656 158.722656 C 841.523438 155.765625 840.425781 152.820312 839.304688 149.878906 C 838.996094 149.0625 838.6875 148.25 838.375 147.433594 C 837.109375 144.148438 835.816406 140.875 834.492188 137.605469 C 834.347656 137.238281 834.203125 136.871094 834.054688 136.507812 C 832.550781 132.8125 831.011719 129.125 829.433594 125.449219 C 829.203125 124.902344 828.960938 124.363281 828.726562 123.824219 C 827.433594 120.832031 826.121094 117.855469 824.785156 114.878906 C 824.285156 113.773438 823.773438 112.667969 823.269531 111.558594 C 822.152344 109.113281 821.019531 106.675781 819.871094 104.246094 C 819.300781 103.039062 818.730469 101.828125 818.152344 100.625 C 816.980469 98.183594 815.789062 95.75 814.585938 93.324219 C 814.050781 92.238281 813.519531 91.148438 812.976562 90.066406 C 811.25 86.628906 809.496094 83.199219 807.703125 79.78125 L 807.671875 79.71875 C 807.21875 78.855469 806.714844 78.027344 806.167969 77.234375 C 802.320312 71.679688 796.214844 67.882812 789.457031 66.964844 C 785.546875 66.4375 781.632812 65.957031 777.71875 65.5 C 776.515625 65.359375 775.316406 65.234375 774.109375 65.101562 C 771.351562 64.792969 768.589844 64.503906 765.828125 64.230469 C 764.484375 64.101562 763.144531 63.972656 761.804688 63.851562 C 759.023438 63.59375 756.238281 63.363281 753.457031 63.140625 C 752.285156 63.046875 751.109375 62.949219 749.9375 62.863281 C 742.097656 62.292969 734.261719 61.863281 726.433594 61.578125 C 725.273438 61.535156 724.113281 61.507812 722.953125 61.472656 C 720.152344 61.386719 717.355469 61.316406 714.558594 61.265625 C 713.257812 61.242188 711.957031 61.222656 710.660156 61.207031 C 707.828125 61.175781 705 61.164062 702.175781 61.167969 C 701.066406 61.171875 699.957031 61.164062 698.851562 61.171875 C 691.015625 61.226562 683.199219 61.425781 675.398438 61.769531 C 674.292969 61.816406 673.183594 61.878906 672.078125 61.929688 C 669.246094 62.070312 666.417969 62.230469 663.59375 62.40625 C 662.355469 62.484375 661.117188 62.566406 659.878906 62.648438 C 657 62.847656 654.128906 63.066406 651.253906 63.300781 C 650.222656 63.386719 649.191406 63.464844 648.160156 63.554688 C 640.382812 64.234375 632.628906 65.0625 624.902344 66.03125 C 623.839844 66.164062 622.785156 66.308594 621.726562 66.449219 C 618.894531 66.820312 616.066406 67.203125 613.242188 67.613281 C 612.054688 67.785156 610.863281 67.957031 609.675781 68.136719 C 606.792969 68.574219 603.917969 69.027344 601.042969 69.503906 C 600.070312 69.664062 599.097656 69.816406 598.125 69.980469 C 569.714844 74.808594 541.777344 81.617188 514.523438 90.351562 L 514.519531 90.351562 C 489.242188 98.453125 464.558594 108.21875 440.652344 119.628906 L 440.085938 119.898438 C 436.894531 121.425781 433.710938 122.984375 430.550781 124.574219 C 430.328125 124.683594 430.105469 124.792969 429.882812 124.90625 C 426.621094 126.546875 423.367188 128.21875 420.136719 129.921875 L 419.992188 129.996094 C 406.679688 137.015625 393.640625 144.558594 380.894531 152.625 C 380.542969 152.847656 380.191406 153.078125 379.835938 153.300781 C 377.109375 155.035156 374.398438 156.792969 371.699219 158.574219 C 371.148438 158.9375 370.605469 159.304688 370.054688 159.667969 C 367.527344 161.351562 365.011719 163.054688 362.507812 164.777344 C 361.914062 165.183594 361.324219 165.59375 360.734375 166.003906 C 358.203125 167.761719 355.691406 169.539062 353.191406 171.339844 C 352.691406 171.699219 352.183594 172.054688 351.683594 172.417969 C 348.855469 174.46875 346.039062 176.546875 343.242188 178.652344 L 342.847656 178.949219 C 336.835938 183.484375 330.910156 188.144531 325.074219 192.933594 C 324.695312 193.242188 324.324219 193.558594 323.949219 193.867188 C 321.523438 195.867188 319.113281 197.890625 316.714844 199.929688 C 315.988281 200.554688 315.265625 201.183594 314.539062 201.808594 C 312.5 203.570312 310.46875 205.339844 308.453125 207.132812 C 307.605469 207.882812 306.765625 208.636719 305.921875 209.394531 C 304.023438 211.101562 302.136719 212.824219 300.253906 214.558594 C 299.382812 215.363281 298.515625 216.167969 297.648438 216.976562 C 295.777344 218.730469 293.914062 220.503906 292.058594 222.289062 C 291.242188 223.074219 290.425781 223.855469 289.613281 224.644531 C 287.597656 226.609375 285.601562 228.597656 283.609375 230.589844 C 282.996094 231.207031 282.371094 231.816406 281.761719 232.4375 C 276.558594 237.710938 271.449219 243.101562 266.433594 248.609375 C 265.726562 249.386719 265.027344 250.179688 264.324219 250.960938 C 262.5625 252.917969 260.808594 254.886719 259.070312 256.871094 C 258.183594 257.882812 257.304688 258.910156 256.425781 259.929688 C 254.886719 261.71875 253.347656 263.515625 251.828125 265.324219 C 250.890625 266.4375 249.960938 267.554688 249.035156 268.675781 C 247.574219 270.445312 246.128906 272.21875 244.683594 274.007812 C 243.757812 275.152344 242.832031 276.304688 241.917969 277.460938 C 240.46875 279.285156 239.035156 281.128906 237.605469 282.972656 C 236.734375 284.097656 235.859375 285.21875 234.996094 286.351562 C 233.464844 288.367188 231.949219 290.398438 230.441406 292.441406 C 229.710938 293.421875 228.976562 294.394531 228.253906 295.382812 C 226.039062 298.414062 223.847656 301.46875 221.683594 304.554688 C 219.523438 307.644531 217.402344 310.753906 215.308594 313.867188 C 214.628906 314.886719 213.964844 315.914062 213.289062 316.933594 C 211.890625 319.046875 210.496094 321.160156 209.132812 323.289062 C 208.359375 324.492188 207.601562 325.703125 206.835938 326.914062 C 205.589844 328.882812 204.355469 330.855469 203.140625 332.835938 C 202.367188 334.097656 201.605469 335.355469 200.839844 336.617188 C 199.652344 338.582031 198.480469 340.554688 197.320312 342.535156 C 196.582031 343.789062 195.851562 345.042969 195.125 346.296875 C 193.945312 348.351562 192.777344 350.410156 191.625 352.472656 C 190.96875 353.644531 190.304688 354.816406 189.660156 355.992188 C 188.386719 358.308594 187.136719 360.636719 185.894531 362.972656 C 185.402344 363.894531 184.898438 364.816406 184.414062 365.742188 C 180.953125 372.335938 177.636719 378.984375 174.460938 385.675781 C 174.085938 386.460938 173.730469 387.253906 173.359375 388.039062 C 172.164062 390.597656 170.976562 393.15625 169.820312 395.722656 C 169.355469 396.753906 168.90625 397.789062 168.449219 398.820312 C 167.40625 401.171875 166.375 403.527344 165.367188 405.894531 C 164.898438 406.984375 164.441406 408.078125 163.984375 409.171875 C 162.996094 411.523438 162.027344 413.886719 161.074219 416.25 C 160.648438 417.304688 160.222656 418.359375 159.804688 419.417969 C 158.816406 421.917969 157.851562 424.421875 156.898438 426.933594 C 156.554688 427.835938 156.207031 428.738281 155.867188 429.644531 C 154.769531 432.585938 153.703125 435.53125 152.65625 438.484375 C 152.488281 438.953125 152.316406 439.417969 152.152344 439.886719 C 149.648438 447.011719 147.296875 454.171875 145.089844 461.371094 L 144.949219 461.84375 C 143.925781 465.191406 142.933594 468.550781 141.976562 471.910156 C 141.808594 472.5 141.648438 473.09375 141.480469 473.683594 C 140.644531 476.652344 139.832031 479.621094 139.046875 482.601562 C 138.863281 483.300781 138.679688 484 138.496094 484.699219 C 137.738281 487.632812 136.996094 490.570312 136.285156 493.511719 C 136.128906 494.164062 135.96875 494.816406 135.808594 495.464844 C 135.058594 498.605469 134.339844 501.75 133.640625 504.898438 C 133.550781 505.308594 133.457031 505.71875 133.367188 506.132812 C 130.144531 520.859375 127.515625 535.695312 125.472656 550.605469 L 125.453125 550.765625 C 124.957031 554.386719 124.496094 558.011719 124.074219 561.636719 C 124.042969 561.890625 124.015625 562.136719 123.988281 562.386719 C 123.582031 565.898438 123.203125 569.410156 122.859375 572.921875 C 122.839844 573.140625 122.816406 573.363281 122.796875 573.582031 C 120.257812 599.941406 119.519531 626.46875 120.550781 652.984375 L 120.550781 652.996094 C 121.664062 681.589844 124.824219 710.164062 130 738.503906 C 130.179688 739.5 130.375 740.488281 130.5625 741.484375 C 131.09375 744.316406 131.644531 747.148438 132.214844 749.976562 C 132.457031 751.175781 132.703125 752.378906 132.953125 753.578125 C 133.527344 756.335938 134.125 759.089844 134.738281 761.84375 C 134.976562 762.921875 135.210938 763.996094 135.457031 765.070312 C 137.183594 772.640625 139.054688 780.191406 141.070312 787.710938 C 141.347656 788.742188 141.636719 789.777344 141.917969 790.808594 C 142.667969 793.550781 143.433594 796.289062 144.222656 799.023438 C 144.570312 800.238281 144.925781 801.457031 145.285156 802.671875 C 146.074219 805.359375 146.890625 808.042969 147.714844 810.722656 C 148.050781 811.804688 148.378906 812.886719 148.71875 813.972656 C 151.058594 821.398438 153.539062 828.800781 156.164062 836.164062 C 156.542969 837.234375 156.933594 838.296875 157.324219 839.363281 C 158.277344 841.996094 159.246094 844.621094 160.230469 847.246094 C 160.699219 848.480469 161.167969 849.714844 161.644531 850.949219 C 162.636719 853.53125 163.648438 856.109375 164.675781 858.679688 C 165.113281 859.785156 165.550781 860.886719 165.996094 861.988281 C 167.457031 865.589844 168.945312 869.1875 170.472656 872.769531 L 170.496094 872.820312 C 172.035156 876.425781 173.617188 880.019531 175.230469 883.605469 C 175.714844 884.691406 176.214844 885.769531 176.710938 886.855469 C 177.859375 889.382812 179.023438 891.902344 180.210938 894.417969 C 180.789062 895.640625 181.371094 896.867188 181.957031 898.089844 C 183.152344 900.582031 184.367188 903.074219 185.597656 905.558594 C 186.136719 906.644531 186.667969 907.738281 187.210938 908.828125 C 188.980469 912.34375 190.769531 915.855469 192.605469 919.351562 C 193.058594 920.210938 193.558594 921.042969 194.109375 921.835938 C 197.410156 926.597656 202.363281 930.066406 207.964844 931.539062 C 208.898438 931.785156 209.851562 931.972656 210.816406 932.101562 C 214.667969 932.621094 218.515625 933.101562 222.367188 933.546875 C 223.554688 933.683594 224.746094 933.808594 225.929688 933.941406 C 228.640625 934.242188 231.347656 934.53125 234.054688 934.800781 C 235.382812 934.929688 236.710938 935.054688 238.039062 935.175781 C 240.714844 935.425781 243.390625 935.652344 246.066406 935.867188 C 247.277344 935.964844 248.492188 936.066406 249.707031 936.152344 C 252.960938 936.394531 256.210938 936.609375 259.460938 936.800781 C 260.050781 936.835938 260.640625 936.878906 261.234375 936.914062 C 265.222656 937.136719 269.210938 937.320312 273.199219 937.472656 C 273.605469 937.484375 274.011719 937.492188 274.417969 937.511719 C 277.921875 937.632812 281.425781 937.726562 284.929688 937.792969 C 285.816406 937.808594 286.703125 937.820312 287.585938 937.832031 C 290.726562 937.878906 293.863281 937.902344 296.996094 937.902344 C 297.835938 937.902344 298.675781 937.902344 299.511719 937.902344 C 303.027344 937.886719 306.539062 937.847656 310.046875 937.773438 C 310.410156 937.765625 310.769531 937.765625 311.128906 937.757812 C 319.3125 937.574219 327.476562 937.230469 335.617188 936.734375 L 335.757812 936.726562 C 339.699219 936.484375 343.632812 936.203125 347.5625 935.886719 C 347.886719 935.859375 348.210938 935.835938 348.539062 935.808594 C 352.421875 935.492188 356.304688 935.140625 360.175781 934.75 L 360.417969 934.726562 C 376.78125 933.074219 393.03125 930.777344 409.128906 927.851562 L 409.136719 927.851562 C 437.242188 922.738281 464.878906 915.707031 491.816406 906.753906 C 492.273438 906.605469 492.726562 906.445312 493.175781 906.292969 C 496.171875 905.289062 499.152344 904.265625 502.128906 903.214844 C 503.078125 902.882812 504.019531 902.539062 504.964844 902.199219 C 507.457031 901.304688 509.945312 900.398438 512.425781 899.472656 C 513.503906 899.070312 514.578125 898.660156 515.65625 898.246094 C 518.03125 897.34375 520.394531 896.429688 522.757812 895.496094 C 523.835938 895.070312 524.914062 894.644531 525.988281 894.210938 C 528.421875 893.234375 530.847656 892.234375 533.261719 891.226562 C 534.21875 890.828125 535.175781 890.429688 536.128906 890.027344 C 538.957031 888.828125 541.777344 887.601562 544.589844 886.359375 C 545.097656 886.132812 545.613281 885.914062 546.121094 885.6875 C 549.542969 884.164062 552.945312 882.605469 556.335938 881.015625 L 556.726562 880.824219 C 559.871094 879.347656 563.003906 877.835938 566.121094 876.300781 C 567 875.867188 567.875 875.421875 568.753906 874.984375 C 571.128906 873.796875 573.492188 872.601562 575.851562 871.386719 C 576.914062 870.835938 577.964844 870.285156 579.019531 869.730469 C 581.210938 868.582031 583.394531 867.421875 585.570312 866.242188 C 586.660156 865.65625 587.746094 865.066406 588.832031 864.46875 C 591.011719 863.273438 593.183594 862.054688 595.347656 860.832031 C 596.367188 860.253906 597.394531 859.675781 598.414062 859.089844 C 600.785156 857.730469 603.140625 856.347656 605.488281 854.953125 C 606.269531 854.488281 607.054688 854.035156 607.832031 853.570312 C 614.121094 849.792969 620.335938 845.898438 626.480469 841.878906 C 627.28125 841.355469 628.074219 840.820312 628.867188 840.292969 C 631.105469 838.816406 633.332031 837.328125 635.546875 835.820312 C 636.574219 835.117188 637.589844 834.410156 638.613281 833.699219 C 640.605469 832.324219 642.585938 830.9375 644.558594 829.535156 C 645.636719 828.769531 646.707031 828 647.777344 827.226562 C 648.71875 826.550781 649.648438 825.859375 650.582031 825.175781 C 650.542969 824.265625 650.492188 823.355469 650.507812 822.445312 Z M 608.617188 131.589844 C 609.054688 131.515625 609.492188 131.445312 609.929688 131.375 L 611.230469 131.164062 C 613.816406 130.734375 616.402344 130.324219 619.003906 129.929688 C 620.066406 129.769531 621.128906 129.617188 622.203125 129.460938 C 624.738281 129.089844 627.277344 128.742188 629.816406 128.414062 L 631.078125 128.246094 C 631.613281 128.175781 632.148438 128.105469 632.679688 128.039062 C 639.625 127.167969 646.667969 126.417969 653.609375 125.808594 C 654.089844 125.765625 654.578125 125.730469 655.0625 125.691406 L 656.390625 125.582031 C 658.980469 125.367188 661.570312 125.171875 664.160156 124.992188 C 664.707031 124.953125 665.25 124.921875 665.796875 124.886719 C 697.417969 168.816406 743.449219 201.042969 795.542969 215.730469 C 796.269531 218.226562 797.003906 220.820312 797.777344 223.632812 L 797.882812 224.019531 L 797.980469 224.371094 C 798.917969 227.796875 799.824219 231.222656 800.671875 234.554688 L 800.722656 234.761719 C 804.804688 250.855469 808.121094 267.078125 810.738281 283.347656 L 798.558594 280.800781 C 718.023438 263.976562 646.964844 214.222656 603.613281 144.296875 L 597.039062 133.699219 C 600.894531 132.960938 604.753906 132.246094 608.617188 131.589844 Z M 397.96875 866.355469 L 397.742188 866.398438 C 383.378906 869.003906 368.714844 871.070312 354.152344 872.539062 L 353.941406 872.558594 C 350.546875 872.898438 347.019531 873.222656 343.449219 873.511719 L 343.054688 873.546875 L 342.582031 873.585938 C 339.738281 873.816406 337.085938 874.003906 334.492188 874.171875 C 302.875 830.246094 256.847656 798.019531 204.757812 783.328125 C 204.601562 782.792969 204.445312 782.257812 204.289062 781.726562 C 203.578125 779.265625 202.890625 776.804688 202.21875 774.34375 L 201.847656 772.988281 C 201.710938 772.5 201.574219 772.011719 201.449219 771.542969 C 199.652344 764.824219 197.949219 757.964844 196.402344 751.183594 C 196.265625 750.582031 196.132812 749.976562 195.996094 749.371094 L 195.753906 748.257812 C 195.199219 745.78125 194.667969 743.308594 194.148438 740.832031 C 193.921875 739.75 193.699219 738.671875 193.484375 737.59375 C 192.96875 735.046875 192.476562 732.503906 191.996094 729.957031 L 191.753906 728.667969 C 191.667969 728.207031 191.578125 727.753906 191.492188 727.277344 C 190.789062 723.429688 190.144531 719.574219 189.523438 715.707031 L 201.730469 718.261719 C 282.265625 735.085938 353.324219 784.839844 396.679688 854.765625 L 403.242188 865.351562 C 401.488281 865.683594 399.730469 866.035156 397.96875 866.355469 Z M 568.382812 578.582031 C 562.191406 578.582031 555.941406 576.746094 550.484375 572.925781 L 507.820312 543.054688 L 460.023438 611.316406 L 502.6875 641.191406 C 516.824219 651.089844 520.261719 670.574219 510.363281 684.714844 C 504.285156 693.394531 494.585938 698.042969 484.738281 698.042969 C 478.546875 698.042969 472.292969 696.207031 466.839844 692.386719 L 424.175781 662.511719 L 394.300781 705.175781 C 388.222656 713.859375 378.523438 718.503906 368.675781 718.503906 C 362.484375 718.503906 356.234375 716.671875 350.777344 712.851562 C 336.640625 702.949219 333.203125 683.464844 343.101562 669.328125 L 372.976562 626.664062 L 330.3125 596.789062 C 316.175781 586.886719 312.738281 567.402344 322.636719 553.265625 C 332.539062 539.125 352.027344 535.691406 366.160156 545.589844 L 408.824219 575.464844 L 456.621094 507.203125 L 413.957031 477.328125 C 399.820312 467.425781 396.382812 447.945312 406.285156 433.804688 C 416.183594 419.664062 435.667969 416.230469 449.804688 426.128906 L 492.472656 456.003906 L 540.269531 387.738281 L 497.605469 357.863281 C 483.464844 347.964844 480.027344 328.480469 489.929688 314.339844 C 499.828125 300.203125 519.3125 296.769531 533.453125 306.667969 L 576.117188 336.542969 L 605.992188 293.878906 C 615.890625 279.738281 635.375 276.304688 649.515625 286.203125 C 663.652344 296.101562 667.089844 315.585938 657.191406 329.726562 L 627.316406 372.390625 L 669.980469 402.261719 C 684.117188 412.160156 687.554688 431.644531 677.652344 445.785156 C 671.574219 454.464844 661.878906 459.113281 652.027344 459.113281 C 645.835938 459.113281 639.585938 457.277344 634.132812 453.457031 L 591.464844 423.585938 L 543.667969 491.851562 L 586.332031 521.722656 C 600.472656 531.621094 603.910156 551.105469 594.007812 565.246094 C 587.929688 573.933594 578.234375 578.582031 568.382812 578.582031 Z M 883.238281 697.597656 L 883.078125 697.597656 L 847.457031 698.542969 L 832.292969 678.976562 C 831.136719 677.484375 829.425781 676.730469 827.714844 676.730469 C 826.074219 676.730469 824.433594 677.421875 823.273438 678.808594 L 784.113281 725.640625 L 801.449219 641.480469 C 802.191406 637.882812 799.445312 634.515625 795.777344 634.515625 L 773.085938 634.515625 L 754.835938 606.777344 C 753.695312 605.042969 751.847656 604.171875 750 604.171875 C 748.152344 604.171875 746.304688 605.042969 745.160156 606.777344 L 726.914062 634.515625 L 704.222656 634.515625 C 700.550781 634.515625 697.808594 637.882812 698.546875 641.480469 L 715.886719 725.640625 L 676.726562 678.808594 C 675.566406 677.421875 673.925781 676.730469 672.285156 676.730469 C 670.574219 676.730469 668.859375 677.480469 667.707031 678.976562 L 652.542969 698.542969 L 616.921875 697.597656 L 616.761719 697.597656 C 612.464844 697.597656 609.644531 702.136719 611.601562 706.003906 L 628.117188 738.648438 L 617.191406 755.964844 C 615.277344 758.992188 616.546875 763.015625 619.847656 764.398438 L 697.671875 797.035156 L 692.320312 821.859375 C 691.527344 825.527344 694.363281 828.871094 697.960938 828.871094 C 698.269531 828.871094 698.582031 828.847656 698.898438 828.796875 L 733.582031 823.238281 C 734.019531 823.167969 734.460938 823.132812 734.902344 823.132812 L 740.339844 823.132812 L 740.339844 886.183594 C 740.339844 891.515625 744.664062 895.835938 749.996094 895.835938 C 755.328125 895.835938 759.648438 891.515625 759.648438 886.183594 L 759.648438 823.132812 L 765.089844 823.132812 C 765.53125 823.132812 765.96875 823.167969 766.402344 823.238281 L 801.089844 828.796875 C 801.410156 828.847656 801.722656 828.871094 802.027344 828.871094 C 805.628906 828.871094 808.460938 825.527344 807.671875 821.859375 L 802.320312 797.035156 L 880.140625 764.398438 C 883.445312 763.015625 884.710938 758.992188 882.800781 755.964844 L 871.875 738.648438 L 888.390625 706.003906 C 890.355469 702.136719 887.53125 697.597656 883.238281 697.597656 Z M 883.238281 697.597656"/></svg>