<svg xmlns="http://www.w3.org/2000/svg" width="1000pt" height="1000pt" viewBox="0 0 1000 1000"><path d="M 298.636719 530.246094 C 321.515625 501.777344 315.269531 460.402344 285.84375 439.796875 C 267.613281 427.03125 244.945312 425.359375 225.828125 433.359375 L 182.425781 314.132812 C 181.367188 311.226562 178.160156 309.734375 175.257812 310.789062 L 160.800781 316.050781 C 149.914062 320.011719 144.300781 332.050781 148.261719 342.9375 L 173.203125 411.613281 L 113.957031 370.128906 C 104.804688 363.722656 91.976562 365.03125 84.992188 373.75 C 77.335938 383.304688 79.4375 397.171875 89.304688 404.082031 L 149.214844 446.035156 L 76.074219 446.035156 C 64.488281 446.035156 55.097656 455.425781 55.097656 467.011719 L 55.097656 482.394531 C 55.097656 485.484375 57.601562 487.988281 60.695312 487.988281 L 187.574219 487.988281 C 186.523438 510.148438 197.28125 532.347656 218.136719 544.769531 C 244.636719 560.550781 279.3125 554.289062 298.636719 530.246094 Z M 844.425781 99.617188 C 726.796875 17.253906 543.167969 76.550781 434.277344 232.0625 C 339.886719 366.863281 332.660156 529.695312 409.019531 624.324219 C 413.667969 630.085938 413.921875 638.230469 409.675781 644.296875 L 242.285156 883.355469 C 237.003906 890.894531 238.835938 901.289062 246.375 906.570312 L 287.332031 935.246094 C 294.871094 940.527344 305.265625 938.695312 310.546875 931.152344 L 477.269531 693.046875 C 481.585938 686.882812 489.496094 684.371094 496.570312 686.945312 C 612.066406 728.976562 764.84375 666.585938 860.246094 530.332031 C 969.140625 374.820312 962.054688 181.984375 844.425781 99.617188 Z M 844.425781 99.617188"/></svg>