<svg xmlns="http://www.w3.org/2000/svg" width="1000pt" height="1000pt" viewBox="0 0 1000 1000"><path d="M 584.839844 537.960938 L 531.636719 600.035156 L 527.441406 604.929688 L 665.050781 765.476562 C 685.085938 752.964844 703.851562 738.089844 720.972656 720.976562 C 726.574219 715.371094 731.9375 709.589844 737.054688 703.652344 L 589.554688 531.566406 C 588.128906 533.761719 586.589844 535.917969 584.839844 537.960938 Z M 665.046875 234.527344 L 527.441406 395.070312 L 531.636719 399.96875 L 584.839844 462.039062 C 586.59375 464.082031 588.128906 466.238281 589.554688 468.4375 L 737.054688 296.351562 C 731.933594 290.410156 726.578125 284.632812 720.972656 279.027344 C 703.851562 261.910156 685.085938 247.039062 665.046875 234.527344 Z M 553.203125 489.152344 L 334.953125 234.527344 C 314.914062 247.039062 296.148438 261.910156 279.027344 279.027344 C 273.425781 284.632812 268.066406 290.414062 262.945312 296.351562 L 428.203125 489.152344 C 433.554688 495.394531 433.554688 504.605469 428.203125 510.847656 L 262.945312 703.644531 C 268.066406 709.589844 273.425781 715.367188 279.027344 720.972656 C 296.148438 738.089844 314.914062 752.960938 334.953125 765.472656 L 553.203125 510.847656 C 558.550781 504.605469 558.550781 495.394531 553.203125 489.152344 Z M 500 83.332031 C 269.882812 83.332031 83.332031 269.882812 83.332031 500 C 83.332031 730.117188 269.882812 916.667969 500 916.667969 C 730.117188 916.667969 916.667969 730.117188 916.667969 500 C 916.667969 269.882812 730.117188 83.332031 500 83.332031 Z M 750.433594 750.433594 C 683.542969 817.324219 594.601562 854.167969 500 854.167969 C 405.398438 854.167969 316.457031 817.324219 249.566406 750.433594 C 182.671875 683.542969 145.832031 594.601562 145.832031 500 C 145.832031 405.398438 182.671875 316.457031 249.566406 249.566406 C 316.457031 182.671875 405.398438 145.832031 500 145.832031 C 594.601562 145.832031 683.542969 182.671875 750.433594 249.566406 C 817.324219 316.457031 854.167969 405.398438 854.167969 500 C 854.167969 594.601562 817.324219 683.542969 750.433594 750.433594 Z M 750.433594 750.433594"/></svg>