<svg xmlns="http://www.w3.org/2000/svg" width="1000pt" height="1000pt" viewBox="0 0 1000 1000"><path d="M 559.710938 668.976562 L 354.921875 525.582031 C 336.070312 512.378906 310.089844 516.964844 296.894531 535.8125 C 283.695312 554.664062 288.273438 580.644531 307.125 593.839844 L 477.800781 713.347656 L 358.386719 884.066406 C 345.195312 902.925781 349.789062 928.902344 368.644531 942.09375 C 375.917969 947.179688 384.246094 949.621094 392.492188 949.621094 C 405.636719 949.621094 418.566406 943.417969 426.671875 931.832031 L 569.957031 726.988281 C 583.140625 708.136719 578.554688 682.167969 559.710938 668.976562 Z M 351.488281 675.773438 C 332.636719 662.574219 306.660156 667.15625 293.460938 686.003906 L 150.066406 890.792969 C 136.867188 909.644531 141.449219 935.628906 160.296875 948.824219 C 167.574219 953.917969 175.90625 956.363281 184.160156 956.363281 C 197.296875 956.363281 210.222656 950.164062 218.328125 938.589844 L 361.722656 733.800781 C 374.921875 714.953125 370.339844 688.972656 351.488281 675.773438 Z M 628.457031 208.367188 C 667.835938 235.941406 716.53125 227.082031 744.105469 187.703125 C 771.679688 148.324219 763.023438 99.222656 723.644531 71.648438 C 684.265625 44.074219 635.152344 52.726562 607.582031 92.105469 C 580.007812 131.484375 589.078125 180.792969 628.457031 208.367188 Z M 870.398438 225.269531 C 851.546875 212.066406 825.570312 216.652344 812.367188 235.5 L 740.671875 337.894531 L 673.164062 290.625 C 672.902344 290.433594 672.667969 290.222656 672.402344 290.035156 L 570.011719 218.339844 C 569.757812 218.164062 569.492188 218.023438 569.234375 217.855469 L 467.621094 146.703125 C 458.570312 140.363281 447.371094 137.886719 436.488281 139.800781 C 425.605469 141.722656 415.929688 147.886719 409.59375 156.9375 L 276.898438 346.449219 C 263.699219 365.296875 268.277344 391.28125 287.128906 404.476562 C 303.453125 415.90625 325.105469 413.980469 339.195312 401.027344 C 341.375 399.023438 343.390625 396.773438 345.160156 394.246094 L 360.191406 372.773438 C 365.738281 386.601562 374.113281 399.222656 385.152344 409.703125 C 386.519531 411.003906 387.917969 412.277344 389.363281 413.511719 C 392.25 415.957031 395.292969 418.265625 398.496094 420.425781 C 399.582031 421.160156 400.683594 421.867188 401.789062 422.550781 C 402.132812 422.765625 402.484375 422.960938 402.828125 423.171875 C 403.59375 423.636719 404.359375 424.101562 405.136719 424.542969 C 405.550781 424.777344 405.96875 424.996094 406.386719 425.226562 C 407.101562 425.617188 407.816406 426.015625 408.539062 426.390625 C 408.980469 426.621094 409.433594 426.835938 409.878906 427.0625 C 410.578125 427.414062 411.277344 427.765625 411.980469 428.101562 C 412.453125 428.324219 412.925781 428.527344 413.402344 428.746094 C 414.089844 429.058594 414.777344 429.378906 415.46875 429.671875 C 415.953125 429.882812 416.445312 430.074219 416.933594 430.273438 C 417.617188 430.554688 418.304688 430.839844 418.996094 431.105469 C 419.492188 431.296875 419.992188 431.472656 420.488281 431.65625 C 421.179688 431.910156 421.871094 432.164062 422.566406 432.402344 C 423.066406 432.574219 423.574219 432.734375 424.078125 432.898438 C 424.769531 433.125 425.464844 433.351562 426.160156 433.558594 C 426.671875 433.714844 427.191406 433.863281 427.703125 434.007812 C 428.398438 434.207031 429.089844 434.402344 429.789062 434.585938 C 430.304688 434.722656 430.828125 434.851562 431.351562 434.976562 C 432.046875 435.148438 432.742188 435.316406 433.441406 435.472656 C 433.964844 435.59375 434.496094 435.703125 435.023438 435.8125 C 435.71875 435.957031 436.414062 436.097656 437.113281 436.226562 C 437.648438 436.328125 438.183594 436.421875 438.722656 436.511719 C 439.414062 436.632812 440.109375 436.746094 440.804688 436.851562 C 441.347656 436.929688 441.886719 437.007812 442.425781 437.078125 C 443.121094 437.171875 443.820312 437.261719 444.515625 437.339844 C 445.058594 437.402344 445.601562 437.460938 446.148438 437.511719 C 446.847656 437.582031 447.542969 437.644531 448.242188 437.699219 C 448.789062 437.742188 449.332031 437.78125 449.878906 437.816406 C 450.578125 437.859375 451.28125 437.898438 451.984375 437.929688 C 452.527344 437.953125 453.074219 437.972656 453.617188 437.988281 C 454.320312 438.007812 455.019531 438.019531 455.722656 438.027344 C 456.042969 438.027344 456.359375 438.042969 456.679688 438.042969 L 457.074219 438.03125 C 459.148438 438.023438 461.226562 437.953125 463.300781 437.828125 C 463.597656 437.808594 463.890625 437.789062 464.191406 437.769531 C 466.257812 437.628906 468.324219 437.429688 470.390625 437.167969 C 470.6875 437.132812 470.984375 437.089844 471.285156 437.050781 C 473.347656 436.773438 475.40625 436.445312 477.457031 436.054688 C 477.746094 436 478.03125 435.941406 478.316406 435.882812 C 480.378906 435.472656 482.433594 435.011719 484.476562 434.484375 C 484.742188 434.417969 485.007812 434.34375 485.273438 434.269531 C 487.335938 433.726562 489.390625 433.128906 491.425781 432.464844 C 491.65625 432.390625 491.886719 432.308594 492.113281 432.234375 C 494.183594 431.546875 496.242188 430.804688 498.285156 429.996094 L 498.804688 429.785156 C 500.894531 428.945312 502.96875 428.050781 505.019531 427.085938 L 505.320312 426.941406 C 507.441406 425.941406 509.539062 424.878906 511.613281 423.742188 C 512.867188 423.050781 513.730469 421.773438 513.898438 420.351562 C 514.484375 415.316406 514.75 410.277344 514.695312 405.277344 C 514.304688 370.261719 498.242188 336.902344 468.351562 316.761719 C 467.261719 316.027344 466.164062 315.320312 465.058594 314.632812 C 464.695312 314.410156 464.324219 314.199219 463.960938 313.980469 C 463.214844 313.527344 462.46875 313.074219 461.714844 312.648438 C 461.273438 312.394531 460.828125 312.164062 460.382812 311.917969 C 459.699219 311.539062 459.011719 311.160156 458.320312 310.800781 C 457.839844 310.550781 457.355469 310.316406 456.871094 310.074219 C 456.378906 309.828125 455.882812 309.578125 455.386719 309.339844 L 454.882812 309.089844 C 454.378906 308.851562 453.867188 308.628906 453.359375 308.398438 C 452.707031 308.101562 452.054688 307.800781 451.398438 307.519531 C 450.878906 307.296875 450.355469 307.085938 449.832031 306.871094 C 449.179688 306.605469 448.527344 306.335938 447.878906 306.085938 C 447.339844 305.878906 446.804688 305.6875 446.269531 305.492188 C 445.621094 305.253906 444.972656 305.015625 444.316406 304.789062 C 443.773438 304.601562 443.230469 304.429688 442.683594 304.25 C 442.03125 304.039062 441.378906 303.828125 440.726562 303.628906 C 440.171875 303.460938 439.617188 303.304688 439.058594 303.148438 C 438.410156 302.960938 437.761719 302.777344 437.105469 302.605469 C 436.542969 302.457031 435.976562 302.316406 435.410156 302.179688 C 434.761719 302.019531 434.113281 301.863281 433.460938 301.714844 C 432.890625 301.585938 432.316406 301.464844 431.742188 301.347656 C 431.089844 301.210938 430.441406 301.078125 429.789062 300.957031 C 429.210938 300.847656 428.632812 300.746094 428.054688 300.648438 C 427.402344 300.539062 426.753906 300.433594 426.101562 300.332031 C 425.515625 300.246094 424.929688 300.164062 424.34375 300.085938 C 423.695312 300 423.046875 299.917969 422.394531 299.84375 C 421.804688 299.773438 421.214844 299.714844 420.621094 299.65625 C 419.972656 299.589844 419.324219 299.535156 418.675781 299.480469 C 418.082031 299.433594 417.488281 299.390625 416.894531 299.355469 C 416.242188 299.3125 415.597656 299.28125 414.945312 299.25 C 414.351562 299.222656 413.753906 299.203125 413.160156 299.183594 C 412.683594 299.171875 412.210938 299.167969 411.734375 299.160156 L 411.742188 299.152344 L 432.363281 269.695312 L 453.957031 238.859375 L 488.042969 262.726562 L 473.496094 283.480469 C 477.710938 285.707031 481.828125 288.152344 485.808594 290.839844 C 528.519531 319.617188 551.175781 370.632812 544.933594 423.980469 C 543.589844 435.441406 536.75 445.589844 526.632812 451.140625 C 504.964844 463.015625 480.777344 469.289062 456.679688 469.289062 C 439.261719 469.289062 422.269531 466.015625 406.445312 459.726562 C 397.566406 456.199219 389.046875 451.730469 381.039062 446.332031 C 376.125 443.019531 371.492188 439.402344 367.121094 435.535156 C 366.789062 435.238281 366.449219 434.953125 366.117188 434.65625 C 363.511719 433.53125 360.859375 432.464844 358.109375 431.546875 C 317.980469 418.101562 276.441406 437.21875 244.699219 456.789062 C 244.335938 456.933594 243.980469 457.089844 243.621094 457.265625 C 158.269531 497.664062 95.332031 462.65625 92.800781 461.207031 C 85.355469 456.824219 75.976562 457.492188 69.226562 462.886719 C 62.476562 468.28125 59.757812 477.285156 62.390625 485.511719 L 79.136719 537.828125 C 80.648438 542.554688 83.800781 546.585938 88.023438 549.199219 C 100.824219 557.109375 115.761719 561.175781 131.765625 561.175781 C 135.640625 561.175781 139.585938 560.933594 143.574219 560.453125 C 145.894531 560.175781 148.242188 559.808594 150.542969 559.371094 C 180.015625 553.769531 204.707031 535.632812 226.492188 519.632812 C 232.300781 515.367188 237.785156 511.339844 243.195312 507.648438 C 269.175781 489.925781 312.652344 460.261719 344.871094 471.054688 C 355.296875 474.550781 365.136719 481.214844 375.332031 488.605469 C 376.421875 489.550781 377.558594 490.453125 378.753906 491.289062 L 481.210938 563.058594 C 488.265625 568 496.621094 570.597656 505.117188 570.597656 C 507.527344 570.597656 509.945312 570.386719 512.351562 569.964844 C 523.234375 568.046875 532.910156 561.882812 539.25 552.828125 L 658.714844 382.226562 L 727.011719 430.046875 C 734.289062 435.140625 742.621094 437.585938 750.875 437.585938 C 764.011719 437.582031 776.9375 431.386719 785.042969 419.816406 L 880.640625 283.289062 C 893.832031 264.449219 889.25 238.46875 870.398438 225.269531 Z M 870.398438 225.269531"/></svg>