<svg xmlns="http://www.w3.org/2000/svg" width="1000pt" height="1000pt" viewBox="0 0 1000 1000"><path d="M 916.667969 895.832031 L 83.332031 895.832031 C 71.828125 895.832031 62.5 905.164062 62.5 916.667969 C 62.5 928.171875 71.828125 937.5 83.332031 937.5 L 916.667969 937.5 C 928.171875 937.5 937.5 928.171875 937.5 916.667969 C 937.5 905.164062 928.171875 895.832031 916.667969 895.832031 Z M 77 727.75 L 412.300781 852.75 C 414.679688 853.636719 417.140625 854.066406 419.570312 854.066406 C 426.222656 854.066406 432.65625 850.871094 436.640625 845.175781 L 932.792969 136.949219 C 939.390625 127.523438 937.101562 114.535156 927.675781 107.933594 C 918.257812 101.335938 905.261719 103.625 898.660156 113.050781 L 467.617188 727.941406 C 462.925781 734.644531 454.0625 736.945312 446.699219 733.382812 L 131.273438 580.625 C 125.609375 577.878906 119.007812 577.847656 113.3125 580.527344 C 107.621094 583.210938 103.445312 588.328125 101.953125 594.445312 L 64.035156 703.300781 C 61.539062 713.558594 67.105469 724.0625 77 727.75 Z M 740.527344 791.667969 C 723.269531 791.667969 709.277344 805.660156 709.277344 822.917969 C 709.277344 840.175781 723.269531 854.167969 740.527344 854.167969 L 844.695312 854.167969 C 861.953125 854.167969 875.945312 840.175781 875.945312 822.917969 C 875.945312 805.660156 861.953125 791.667969 844.695312 791.667969 Z M 740.527344 791.667969"/></svg>