<svg xmlns="http://www.w3.org/2000/svg" width="1000pt" height="1000pt" viewBox="0 0 1000 1000"><path d="M 499.890625 83.332031 C 269.765625 83.332031 83.226562 269.875 83.226562 500 C 83.226562 730.082031 269.765625 916.667969 499.890625 916.667969 C 729.976562 916.667969 916.558594 730.082031 916.558594 500 C 916.558594 269.875 729.976562 83.332031 499.890625 83.332031 Z M 267.804688 576.164062 L 215.101562 710.410156 C 171.582031 651.574219 145.832031 578.796875 145.832031 500 C 145.832031 486.300781 146.640625 472.792969 148.152344 459.503906 L 261.597656 552.414062 C 268.597656 558.164062 271.097656 567.746094 267.804688 576.164062 Z M 314.265625 286.496094 L 216.890625 287.253906 C 259.527344 230.605469 318.757812 187.167969 387.375 164.164062 L 332.765625 274.871094 C 329.265625 281.953125 322.097656 286.453125 314.265625 286.496094 Z M 500 854.167969 C 458.851562 854.167969 419.355469 847.125 382.617188 834.222656 L 489.300781 771.453125 C 495.847656 767.578125 503.929688 767.578125 510.46875 771.453125 L 617.136719 834.308594 C 580.46875 847.15625 541.054688 854.167969 500 854.167969 Z M 630.097656 553.902344 L 513.460938 638.648438 C 505.382812 644.554688 494.398438 644.554688 486.320312 638.648438 L 369.636719 553.902344 C 361.558594 547.996094 358.191406 537.609375 361.28125 528.101562 L 405.824219 390.921875 C 408.914062 381.414062 417.777344 374.996094 427.792969 374.996094 L 572.035156 374.996094 C 582.003906 374.996094 590.863281 381.414062 593.957031 390.921875 L 638.496094 528.101562 C 641.589844 537.609375 638.222656 547.996094 630.097656 553.902344 Z M 667.054688 274.871094 L 612.332031 164.046875 C 681.085938 187.023438 740.429688 230.519531 783.132812 287.253906 L 685.554688 286.496094 C 677.679688 286.453125 670.511719 281.953125 667.054688 274.871094 Z M 784.824219 710.511719 L 731.972656 576.164062 C 728.679688 567.746094 731.179688 558.164062 738.179688 552.414062 L 851.835938 459.308594 C 853.363281 472.660156 854.167969 486.238281 854.167969 500 C 854.167969 578.84375 828.390625 651.660156 784.824219 710.511719 Z M 784.824219 710.511719"/></svg>