<svg xmlns="http://www.w3.org/2000/svg" width="1000pt" height="1000pt" viewBox="0 0 1000 1000"><path d="M 899.230469 128.878906 C 889.738281 122.234375 876.683594 124.328125 869.753906 133.613281 L 406.144531 761.476562 C 385.582031 790.839844 345.886719 798.652344 317.652344 778.886719 C 289.695312 759.308594 283.308594 719.914062 303.164062 690.628906 C 316.046875 671.632812 312.613281 645.507812 293.992188 632.082031 C 275.101562 618.472656 248.800781 622.976562 235.488281 641.980469 C 188.570312 708.984375 203.988281 801.023438 269.859375 847.148438 C 294.917969 864.695312 323.714844 873.105469 352.375 873.105469 C 399.046875 873.105469 445.335938 850.785156 474.40625 809.269531 L 904.863281 158.199219 C 911.214844 148.511719 908.722656 135.523438 899.230469 128.878906 Z M 145.832031 416.667969 C 99.808594 416.667969 62.5 453.976562 62.5 500 C 62.5 546.023438 99.808594 583.332031 145.832031 583.332031 C 191.855469 583.332031 229.167969 546.023438 229.167969 500 C 229.167969 453.976562 191.855469 416.667969 145.832031 416.667969 Z M 145.832031 416.667969"/></svg>