<svg xmlns="http://www.w3.org/2000/svg" width="1000pt" height="1000pt" viewBox="0 0 1000 1000"><path d="M 815.664062 85.238281 C 776.285156 57.664062 727.171875 66.316406 699.597656 105.695312 C 672.023438 145.074219 681.09375 194.378906 720.476562 221.957031 C 759.855469 249.527344 808.550781 240.671875 836.125 201.292969 C 863.699219 161.914062 855.042969 112.808594 815.664062 85.238281 Z M 583.464844 634.765625 L 446.941406 539.167969 C 428.085938 525.964844 402.109375 530.550781 388.910156 549.398438 C 375.710938 568.25 380.292969 594.234375 399.140625 607.429688 L 506.773438 682.796875 L 412.839844 879.722656 C 402.933594 900.492188 411.742188 925.359375 432.511719 935.265625 C 438.300781 938.027344 444.40625 939.335938 450.421875 939.335938 C 465.980469 939.332031 480.914062 930.578125 488.054688 915.597656 L 597.171875 686.832031 C 605.941406 668.460938 600.140625 646.445312 583.464844 634.765625 Z M 351.347656 634.027344 C 328.332031 634.027344 309.679688 652.683594 309.679688 675.695312 L 309.679688 725.382812 L 154.15625 885.59375 C 138.128906 902.105469 138.519531 928.484375 155.03125 944.511719 C 163.128906 952.371094 173.589844 956.28125 184.050781 956.28125 C 194.921875 956.28125 205.78125 952.054688 213.953125 943.636719 L 381.246094 771.296875 C 388.792969 763.523438 393.015625 753.113281 393.015625 742.273438 L 393.015625 675.695312 C 393.011719 652.683594 374.355469 634.027344 351.347656 634.027344 Z M 782.078125 334.859375 C 782.035156 334.289062 781.945312 333.710938 781.878906 333.136719 C 781.789062 332.355469 781.71875 331.574219 781.582031 330.792969 L 781.554688 330.582031 C 781.425781 329.839844 781.226562 329.121094 781.058594 328.390625 C 780.941406 327.882812 780.863281 327.375 780.726562 326.867188 L 780.679688 326.734375 C 780.441406 325.859375 780.136719 325.019531 779.84375 324.171875 C 779.675781 323.695312 779.542969 323.199219 779.363281 322.726562 C 779.191406 322.28125 778.972656 321.863281 778.785156 321.425781 C 776.226562 315.441406 772.410156 310.269531 767.683594 306.214844 L 767.636719 306.179688 C 766.636719 305.320312 765.585938 304.503906 764.496094 303.738281 L 764.425781 303.683594 L 662.035156 231.988281 C 661.640625 231.710938 661.226562 231.488281 660.828125 231.230469 C 660.148438 230.789062 659.476562 230.339844 658.785156 229.949219 C 658.253906 229.644531 657.703125 229.378906 657.160156 229.097656 C 656.488281 228.75 655.816406 228.398438 655.132812 228.09375 C 654.550781 227.832031 653.953125 227.605469 653.355469 227.371094 C 652.679688 227.105469 652.007812 226.835938 651.328125 226.609375 C 650.707031 226.402344 650.074219 226.230469 649.441406 226.050781 C 648.765625 225.859375 648.089844 225.664062 647.40625 225.507812 C 646.746094 225.359375 646.074219 225.246094 645.402344 225.125 C 644.738281 225.007812 644.070312 224.886719 643.402344 224.800781 C 642.675781 224.707031 641.9375 224.660156 641.195312 224.605469 C 640.578125 224.558594 639.964844 224.503906 639.347656 224.484375 C 638.507812 224.460938 637.652344 224.488281 636.796875 224.519531 C 636.367188 224.53125 635.941406 224.507812 635.507812 224.535156 L 369.402344 241.324219 C 349.5625 242.578125 333.871094 257.527344 330.898438 276.378906 C 365.984375 276.894531 396.925781 294.824219 415.421875 321.917969 L 554.289062 313.160156 L 526.410156 352.933594 L 433.453125 378.246094 C 433.472656 378.996094 433.511719 379.746094 433.511719 380.503906 C 433.511719 410.195312 421.003906 437.003906 401.007812 455.992188 C 408.242188 461.671875 417.269531 464.933594 426.722656 464.933594 C 430.347656 464.933594 434.03125 464.457031 437.695312 463.460938 L 454.816406 458.800781 C 452.953125 464.980469 452.496094 471.5625 453.640625 478.039062 C 455.554688 488.925781 461.71875 498.601562 470.769531 504.945312 L 573.230469 576.714844 C 580.285156 581.652344 588.640625 584.253906 597.136719 584.253906 C 599.546875 584.253906 601.964844 584.042969 604.367188 583.621094 C 615.253906 581.703125 624.929688 575.539062 631.269531 566.484375 L 774.539062 361.886719 L 774.5625 361.851562 L 774.664062 361.710938 C 774.914062 361.351562 775.121094 360.964844 775.363281 360.597656 C 775.847656 359.859375 776.339844 359.121094 776.773438 358.359375 C 777.0625 357.851562 777.304688 357.316406 777.570312 356.796875 C 777.921875 356.113281 778.289062 355.4375 778.597656 354.738281 C 778.824219 354.226562 779.007812 353.695312 779.214844 353.171875 C 779.511719 352.429688 779.820312 351.695312 780.070312 350.941406 C 780.222656 350.472656 780.335938 349.992188 780.476562 349.515625 C 780.722656 348.683594 780.972656 347.851562 781.164062 347.007812 C 781.257812 346.597656 781.3125 346.175781 781.394531 345.757812 C 781.574219 344.835938 781.753906 343.914062 781.867188 342.984375 C 781.917969 342.59375 781.929688 342.203125 781.96875 341.8125 C 782.0625 340.855469 782.148438 339.894531 782.175781 338.925781 C 782.191406 338.488281 782.160156 338.050781 782.160156 337.613281 C 782.148438 336.699219 782.144531 335.777344 782.078125 334.859375 Z M 329.34375 443.007812 C 363.859375 443.007812 391.84375 415.023438 391.84375 380.507812 C 391.84375 345.988281 363.859375 318.007812 329.34375 318.007812 C 294.828125 318.007812 266.84375 345.988281 266.84375 380.507812 C 266.84375 415.023438 294.828125 443.007812 329.34375 443.007812 Z M 329.34375 443.007812"/></svg>