<svg xmlns="http://www.w3.org/2000/svg" width="1000pt" height="1000pt" viewBox="0 0 1000 1000"><path d="M 613.699219 875 C 583.601562 875 558.246094 852.511719 554.652344 822.628906 L 535.160156 660.511719 C 534.152344 652.136719 527.042969 645.832031 518.609375 645.832031 L 481.390625 645.832031 C 472.957031 645.832031 465.851562 652.136719 464.847656 660.511719 L 445.351562 822.628906 C 441.753906 852.511719 416.398438 875 386.300781 875 C 370.226562 875 356.089844 886.773438 354.359375 902.757812 C 352.316406 921.578125 367.007812 937.5 385.417969 937.5 L 614.582031 937.5 C 632.992188 937.5 647.683594 921.578125 645.644531 902.757812 C 643.910156 886.773438 629.777344 875 613.699219 875 Z M 395.832031 448.738281 L 395.832031 288.921875 C 395.832031 285.503906 394.78125 282.164062 392.820312 279.363281 L 312.511719 164.671875 C 292.714844 136.398438 253.742188 129.523438 225.46875 149.324219 L 187.921875 175.613281 C 180.382812 180.890625 178.550781 191.285156 183.828125 198.824219 L 365.511719 458.296875 C 374.859375 471.644531 395.832031 465.03125 395.832031 448.738281 Z M 812.078125 175.613281 L 774.535156 149.324219 C 746.261719 129.523438 707.289062 136.398438 687.488281 164.671875 L 607.183594 279.363281 C 605.222656 282.167969 604.167969 285.503906 604.167969 288.925781 L 604.167969 448.738281 C 604.167969 465.035156 625.140625 471.644531 634.488281 458.300781 L 816.175781 198.824219 C 821.449219 191.285156 819.617188 180.890625 812.078125 175.613281 Z M 437.5625 543.878906 C 437.585938 544.476562 437.617188 545.074219 437.664062 545.671875 C 437.6875 546.039062 437.710938 546.402344 437.746094 546.769531 C 437.808594 547.5 437.882812 548.230469 437.972656 548.957031 C 437.996094 549.167969 438.023438 549.378906 438.050781 549.585938 C 438.164062 550.441406 438.289062 551.296875 438.441406 552.144531 L 438.480469 552.359375 C 439.355469 557.308594 440.808594 562.054688 442.773438 566.527344 L 442.867188 566.738281 C 443.230469 567.550781 443.605469 568.355469 444 569.152344 C 444.101562 569.359375 444.210938 569.558594 444.3125 569.761719 C 444.644531 570.414062 444.984375 571.066406 445.339844 571.710938 C 445.535156 572.054688 445.734375 572.394531 445.929688 572.734375 C 446.214844 573.226562 446.503906 573.726562 446.804688 574.210938 C 447.085938 574.664062 447.378906 575.109375 447.667969 575.554688 C 447.910156 575.925781 448.148438 576.296875 448.402344 576.664062 L 448.558594 576.902344 L 448.796875 577.238281 L 449.070312 577.609375 C 449.207031 577.800781 449.351562 578 449.488281 578.195312 C 449.703125 578.488281 449.914062 578.777344 450.132812 579.066406 L 450.363281 579.363281 C 450.652344 579.738281 450.941406 580.105469 451.234375 580.472656 L 451.367188 580.640625 C 451.582031 580.902344 451.792969 581.171875 452.011719 581.429688 C 452.222656 581.683594 452.425781 581.941406 452.644531 582.1875 C 452.878906 582.464844 453.125 582.726562 453.367188 582.992188 C 453.59375 583.246094 453.820312 583.503906 454.050781 583.753906 C 454.253906 583.96875 454.445312 584.191406 454.648438 584.40625 C 454.953125 584.726562 455.261719 585.03125 455.570312 585.339844 L 456.101562 585.875 L 456.261719 586.027344 L 456.726562 586.46875 C 457.089844 586.820312 457.457031 587.175781 457.828125 587.519531 L 458.203125 587.859375 C 458.605469 588.222656 459.019531 588.570312 459.429688 588.921875 L 459.507812 588.988281 C 459.71875 589.164062 459.921875 589.351562 460.132812 589.527344 L 460.449219 589.785156 C 460.710938 590 460.980469 590.203125 461.242188 590.410156 C 461.429688 590.554688 461.613281 590.707031 461.804688 590.851562 C 462.03125 591.027344 462.253906 591.210938 462.484375 591.386719 L 462.867188 591.667969 C 463.234375 591.941406 463.609375 592.199219 463.984375 592.460938 L 464.160156 592.589844 L 464.257812 592.65625 C 464.464844 592.800781 464.667969 592.953125 464.878906 593.097656 C 465.082031 593.234375 465.289062 593.371094 465.496094 593.507812 C 465.925781 593.789062 466.359375 594.0625 466.792969 594.335938 L 466.859375 594.378906 L 467.320312 594.671875 C 467.648438 594.875 467.984375 595.070312 468.316406 595.265625 C 468.8125 595.554688 469.308594 595.847656 469.816406 596.125 C 470.304688 596.394531 470.800781 596.652344 471.300781 596.910156 C 471.652344 597.09375 472.007812 597.277344 472.363281 597.453125 L 472.425781 597.488281 C 473.0625 597.800781 473.707031 598.097656 474.355469 598.390625 C 474.566406 598.484375 474.769531 598.582031 474.980469 598.671875 L 475.035156 598.695312 C 475.539062 598.917969 476.050781 599.117188 476.558594 599.324219 C 476.839844 599.4375 477.121094 599.558594 477.40625 599.671875 L 477.664062 599.773438 L 477.988281 599.902344 L 478.101562 599.945312 C 478.855469 600.230469 479.621094 600.488281 480.394531 600.746094 L 480.433594 600.757812 L 480.707031 600.851562 L 481.050781 600.96875 C 481.777344 601.199219 482.507812 601.402344 483.238281 601.609375 L 483.308594 601.632812 L 483.367188 601.648438 C 483.597656 601.710938 483.820312 601.78125 484.046875 601.839844 C 484.707031 602.015625 485.375 602.167969 486.039062 602.320312 L 486.140625 602.339844 L 486.25 602.367188 C 486.53125 602.429688 486.808594 602.503906 487.085938 602.558594 C 487.652344 602.679688 488.214844 602.777344 488.777344 602.878906 L 489.074219 602.933594 L 489.171875 602.953125 C 489.503906 603.011719 489.832031 603.074219 490.167969 603.128906 C 490.648438 603.203125 491.136719 603.261719 491.621094 603.328125 L 491.859375 603.363281 L 492.207031 603.410156 C 492.566406 603.453125 492.917969 603.5 493.277344 603.539062 C 493.710938 603.585938 494.148438 603.617188 494.582031 603.65625 L 494.589844 603.660156 L 494.609375 603.660156 C 494.839844 603.679688 495.074219 603.703125 495.300781 603.722656 C 495.667969 603.746094 496.03125 603.773438 496.394531 603.792969 C 496.761719 603.816406 497.132812 603.828125 497.503906 603.839844 C 497.8125 603.855469 498.121094 603.867188 498.433594 603.878906 C 498.785156 603.886719 499.136719 603.890625 499.488281 603.890625 L 500 603.894531 L 500.515625 603.882812 C 500.867188 603.878906 501.21875 603.875 501.574219 603.867188 C 501.882812 603.859375 502.191406 603.84375 502.503906 603.832031 C 502.871094 603.816406 503.242188 603.800781 503.609375 603.785156 C 503.976562 603.761719 504.339844 603.738281 504.703125 603.710938 C 504.933594 603.695312 505.164062 603.667969 505.394531 603.648438 L 505.410156 603.648438 L 505.421875 603.644531 C 505.855469 603.609375 506.292969 603.578125 506.730469 603.527344 C 507.085938 603.488281 507.441406 603.445312 507.796875 603.398438 L 508.144531 603.351562 L 508.382812 603.320312 C 508.867188 603.253906 509.355469 603.191406 509.839844 603.117188 C 510.171875 603.066406 510.5 603 510.832031 602.941406 L 511.226562 602.867188 C 511.789062 602.765625 512.355469 602.667969 512.917969 602.550781 C 513.199219 602.492188 513.476562 602.421875 513.753906 602.359375 L 513.867188 602.332031 L 513.964844 602.308594 C 514.628906 602.15625 515.296875 602.003906 515.957031 601.832031 C 516.183594 601.773438 516.410156 601.703125 516.636719 601.636719 L 516.695312 601.621094 L 516.722656 601.613281 C 517.46875 601.402344 518.214844 601.195312 518.953125 600.960938 L 519.300781 600.839844 L 519.570312 600.75 L 519.613281 600.734375 C 520.382812 600.480469 521.144531 600.222656 521.902344 599.9375 L 522.015625 599.894531 L 522.339844 599.765625 L 522.601562 599.664062 C 522.886719 599.550781 523.167969 599.425781 523.453125 599.3125 C 523.957031 599.105469 524.464844 598.910156 524.972656 598.6875 L 525.023438 598.664062 C 525.234375 598.574219 525.441406 598.476562 525.652344 598.382812 C 526.300781 598.089844 526.945312 597.792969 527.582031 597.480469 L 527.640625 597.449219 C 527.996094 597.269531 528.351562 597.085938 528.707031 596.898438 C 529.203125 596.644531 529.699219 596.386719 530.191406 596.117188 C 530.695312 595.835938 531.191406 595.546875 531.6875 595.257812 C 532.019531 595.058594 532.355469 594.863281 532.683594 594.664062 L 533.144531 594.367188 L 533.195312 594.335938 C 533.636719 594.058594 534.074219 593.78125 534.507812 593.496094 C 534.714844 593.359375 534.921875 593.226562 535.128906 593.085938 C 535.339844 592.945312 535.539062 592.789062 535.75 592.644531 L 535.847656 592.578125 L 536.019531 592.453125 C 536.394531 592.1875 536.769531 591.929688 537.136719 591.660156 L 537.519531 591.375 C 537.75 591.203125 537.972656 591.015625 538.199219 590.839844 C 538.390625 590.695312 538.574219 590.546875 538.761719 590.398438 C 539.027344 590.1875 539.296875 589.988281 539.558594 589.773438 L 539.871094 589.519531 C 540.082031 589.34375 540.285156 589.15625 540.496094 588.980469 C 540.785156 588.734375 541.0625 588.488281 541.34375 588.242188 L 541.800781 587.847656 L 542.179688 587.507812 C 542.550781 587.167969 542.914062 586.808594 543.277344 586.457031 L 543.742188 586.015625 L 543.902344 585.863281 L 544.4375 585.332031 C 544.742188 585.019531 545.054688 584.714844 545.355469 584.394531 C 545.558594 584.179688 545.753906 583.957031 545.953125 583.742188 C 546.183594 583.492188 546.414062 583.238281 546.636719 582.984375 C 546.878906 582.714844 547.125 582.453125 547.363281 582.175781 C 547.578125 581.929688 547.78125 581.671875 547.992188 581.421875 C 548.210938 581.160156 548.425781 580.894531 548.640625 580.628906 L 548.769531 580.460938 C 549.066406 580.097656 549.355469 579.726562 549.640625 579.355469 L 549.871094 579.054688 C 550.089844 578.769531 550.300781 578.476562 550.515625 578.183594 C 550.65625 577.988281 550.796875 577.792969 550.9375 577.597656 L 551.207031 577.230469 L 551.445312 576.894531 L 551.601562 576.652344 C 551.851562 576.289062 552.09375 575.917969 552.335938 575.546875 C 552.628906 575.101562 552.917969 574.652344 553.199219 574.203125 C 553.5 573.714844 553.789062 573.214844 554.074219 572.722656 C 554.273438 572.382812 554.472656 572.042969 554.664062 571.699219 C 555.019531 571.054688 555.359375 570.40625 555.691406 569.753906 C 555.796875 569.546875 555.902344 569.347656 556.003906 569.140625 C 556.398438 568.34375 556.777344 567.539062 557.136719 566.726562 L 557.230469 566.515625 C 559.195312 562.046875 560.648438 557.300781 561.527344 552.355469 L 561.570312 552.132812 C 561.714844 551.285156 561.839844 550.433594 561.957031 549.578125 C 561.984375 549.367188 562.011719 549.15625 562.039062 548.945312 C 562.125 548.21875 562.199219 547.488281 562.261719 546.757812 C 562.292969 546.390625 562.320312 546.023438 562.347656 545.660156 C 562.386719 545.066406 562.417969 544.464844 562.445312 543.867188 C 562.464844 543.355469 562.476562 542.835938 562.484375 542.320312 C 562.488281 542.007812 562.507812 541.699219 562.507812 541.386719 L 562.507812 126.570312 C 562.507812 92.515625 535.808594 63.730469 501.765625 62.796875 C 466.433594 61.828125 437.5 90.167969 437.5 125.269531 L 437.5 541.394531 C 437.5 541.707031 437.519531 542.015625 437.523438 542.328125 C 437.53125 542.847656 437.542969 543.363281 437.5625 543.878906 Z M 437.5625 543.878906"/></svg>