<svg xmlns="http://www.w3.org/2000/svg" width="1000pt" height="1000pt" viewBox="0 0 1000 1000"><path d="M 920.984375 263.976562 C 927.3125 256.816406 926.339844 245.808594 918.847656 239.878906 L 883.578125 211.9375 C 876.058594 205.984375 865.078125 207.585938 859.574219 215.445312 C 806.652344 291.023438 754.992188 367.519531 700.664062 442.105469 C 640.222656 525.082031 575.890625 610.90625 486.105469 664.136719 C 383.652344 724.878906 298.539062 742.554688 186.703125 708.574219 C 169.601562 703.375 114.417969 680.753906 97.863281 674.007812 C 80.160156 666.792969 66.304688 690.191406 81.058594 702.351562 C 172.710938 777.886719 292.5 832.136719 412.507812 834.453125 C 520.398438 836.535156 643.886719 789.859375 729.273438 724.652344 C 765.679688 696.855469 804.484375 655.648438 810.285156 607.199219 C 816.417969 555.988281 766.519531 531.265625 770.171875 483.785156 C 773.984375 434.214844 884.316406 305.507812 920.984375 263.976562 Z M 208.339844 583.339844 C 254.367188 583.339844 291.679688 546.027344 291.679688 500 C 291.679688 453.972656 254.367188 416.660156 208.339844 416.660156 C 162.3125 416.660156 125 453.972656 125 500 C 125 546.027344 162.3125 583.339844 208.339844 583.339844 Z M 208.339844 583.339844"/></svg>