<svg xmlns="http://www.w3.org/2000/svg" width="1000pt" height="1000pt" viewBox="0 0 1000 1000"><path d="M 895.414062 368.335938 C 869.566406 400.046875 833.5625 423.148438 792.351562 432.660156 C 778.746094 435.800781 764.570312 437.460938 750.007812 437.460938 L 693.488281 437.460938 C 691.652344 447.75 690.242188 458.1875 689.3125 468.757812 L 852.800781 468.757812 C 853.707031 479.050781 854.167969 489.472656 854.167969 500 C 854.167969 510.535156 853.703125 520.960938 852.800781 531.261719 L 689.3125 531.261719 C 695.875 605.75 725.398438 673.726562 770.914062 727.886719 C 757.441406 743.878906 742.578125 758.667969 726.515625 772.066406 C 669.914062 706.460938 633.601562 623.003906 626.75 531.242188 L 531.25 531.242188 L 531.25 852.800781 C 520.953125 853.707031 510.527344 854.167969 500 854.167969 C 489.46875 854.167969 479.046875 853.703125 468.746094 852.800781 L 468.746094 531.242188 L 373.246094 531.242188 C 366.398438 623.003906 330.082031 706.460938 273.484375 772.066406 C 257.421875 758.667969 242.558594 743.882812 229.085938 727.886719 C 274.621094 673.730469 304.144531 605.753906 310.710938 531.261719 L 147.199219 531.261719 C 146.296875 520.960938 145.832031 510.535156 145.832031 500 C 145.832031 489.472656 146.296875 479.050781 147.199219 468.757812 L 310.710938 468.757812 C 304.144531 394.265625 274.617188 326.28125 229.074219 272.121094 C 242.554688 256.125 257.417969 241.335938 273.480469 227.933594 C 330.082031 293.535156 366.394531 376.992188 373.246094 468.757812 L 468.746094 468.757812 L 468.746094 353.605469 C 449.847656 325.167969 438.492188 291.285156 437.566406 254.800781 C 437.523438 253.191406 437.507812 251.578125 437.507812 249.960938 C 437.507812 178.621094 477.351562 116.585938 535.996094 84.898438 C 524.132812 83.882812 512.128906 83.332031 500 83.332031 C 269.875 83.332031 83.332031 269.875 83.332031 500 C 83.332031 730.082031 269.875 916.667969 500 916.667969 C 730.082031 916.667969 916.667969 730.082031 916.667969 500 C 916.667969 453.984375 909.1875 409.722656 895.414062 368.335938 Z M 582.664062 432.660156 C 564.355469 428.433594 547.074219 421.519531 531.25 412.367188 L 531.25 468.757812 L 626.75 468.757812 C 627.539062 458.210938 628.730469 447.777344 630.285156 437.460938 L 625.007812 437.460938 C 610.445312 437.460938 596.273438 435.800781 582.664062 432.660156 Z M 479.175781 249.960938 C 479.175781 294.695312 499.441406 334.769531 531.25 361.542969 C 556.621094 382.894531 589.332031 395.792969 625.007812 395.792969 L 750.007812 395.792969 C 804.261719 395.792969 851.652344 365.992188 876.773438 321.921875 C 888.882812 300.671875 895.839844 276.121094 895.839844 249.960938 C 895.839844 169.546875 830.421875 104.128906 750.007812 104.128906 L 625.007812 104.128906 C 584.984375 104.128906 548.683594 120.339844 522.304688 146.535156 C 495.6875 172.972656 479.175781 209.574219 479.175781 249.960938 Z M 769.65625 203.660156 L 783.628906 194.816406 L 803.421875 182.28125 L 830.527344 182.28125 L 830.527344 318.675781 L 801.691406 318.675781 L 801.691406 209.652344 L 800.890625 209.652344 L 799.589844 210.46875 L 769.65625 229.234375 Z M 677.902344 203.660156 L 711.667969 182.28125 L 738.773438 182.28125 L 738.773438 318.675781 L 709.9375 318.675781 L 709.9375 209.652344 L 709.136719 209.652344 L 677.902344 229.234375 Z M 543.472656 182.28125 L 572.308594 182.28125 L 572.308594 271.457031 C 572.308594 286.042969 584.097656 294.898438 600.011719 294.898438 C 616.128906 294.898438 627.917969 286.042969 627.917969 271.457031 L 627.917969 182.28125 L 656.554688 182.28125 L 656.554688 272.453125 C 656.554688 303.355469 632.980469 320.605469 600.011719 320.605469 C 566.914062 320.605469 543.472656 303.355469 543.472656 272.453125 Z M 543.472656 182.28125"/></svg>