<svg xmlns="http://www.w3.org/2000/svg" width="1000pt" height="1000pt" viewBox="0 0 1000 1000"><path d="M 256.953125 297.796875 C 283.351562 260.097656 274.1875 208.136719 236.488281 181.738281 C 198.785156 155.335938 146.824219 164.503906 120.425781 202.199219 C 94.027344 239.902344 103.191406 291.863281 140.890625 318.261719 C 178.589844 344.664062 230.550781 335.496094 256.953125 297.796875 Z M 171.628906 238.054688 C 160.820312 253.488281 146.160156 264.644531 129.855469 271.1875 C 127.425781 264.417969 126.175781 257.273438 126.164062 250.082031 C 137.199219 244.851562 147.070312 236.800781 154.558594 226.101562 C 162.046875 215.414062 166.234375 203.394531 167.382812 191.242188 C 174.144531 188.796875 181.285156 187.535156 188.476562 187.503906 C 187.894531 205.050781 182.425781 222.628906 171.628906 238.054688 Z M 222.765625 273.859375 C 215.269531 284.5625 211.078125 296.601562 209.941406 308.765625 C 203.175781 311.210938 196.039062 312.476562 188.847656 312.507812 C 189.414062 294.941406 194.886719 277.347656 205.699219 261.910156 C 216.503906 246.480469 231.152344 235.328125 247.449219 228.785156 C 249.882812 235.550781 251.136719 242.695312 251.152344 249.882812 C 240.121094 255.113281 230.253906 263.164062 222.765625 273.859375 Z M 811.273438 919.683594 L 770.832031 333.332031 C 770.832031 184.074219 649.578125 63.078125 500 63.078125 C 411.785156 63.078125 333.429688 105.175781 283.980469 170.324219 C 301.914062 191.980469 312.707031 219.75 312.707031 250 C 312.707031 305.324219 276.597656 352.34375 226.722656 368.804688 L 188.730469 919.683594 C 188.0625 929.320312 195.699219 937.5 205.355469 937.5 L 794.644531 937.5 C 804.300781 937.5 811.933594 929.320312 811.273438 919.683594 Z M 270.832031 812.507812 C 247.816406 812.507812 229.160156 793.851562 229.160156 770.832031 C 229.160156 747.816406 247.816406 729.160156 270.832031 729.160156 C 293.851562 729.160156 312.511719 747.816406 312.511719 770.832031 C 312.511719 793.851562 293.851562 812.507812 270.832031 812.507812 Z M 291.675781 541.667969 C 269.382812 541.667969 251.230469 524.148438 250.109375 502.132812 C 250.035156 501.433594 250 500.722656 250 500 L 250 499.992188 C 250 476.972656 268.660156 458.316406 291.675781 458.316406 C 314.695312 458.316406 333.351562 476.972656 333.351562 499.992188 C 333.351562 523.007812 314.691406 541.667969 291.675781 541.667969 Z M 666.660156 499.992188 C 666.660156 476.972656 685.316406 458.316406 708.332031 458.316406 C 731.351562 458.316406 750.011719 476.972656 750.011719 499.992188 C 750.011719 523.007812 731.351562 541.667969 708.332031 541.667969 C 685.316406 541.667969 666.660156 523.007812 666.660156 499.992188 Z M 729.167969 812.507812 C 706.148438 812.507812 687.492188 793.851562 687.492188 770.832031 C 687.492188 747.816406 706.148438 729.160156 729.167969 729.160156 C 752.183594 729.160156 770.84375 747.816406 770.84375 770.832031 C 770.84375 793.851562 752.183594 812.507812 729.167969 812.507812 Z M 729.167969 812.507812"/></svg>