<svg xmlns="http://www.w3.org/2000/svg" width="1000pt" height="1000pt" viewBox="0 0 1000 1000"><path d="M 500 83.332031 C 269.882812 83.332031 83.332031 269.882812 83.332031 500 C 83.332031 730.117188 269.882812 916.667969 500 916.667969 C 730.117188 916.667969 916.667969 730.117188 916.667969 500 C 916.667969 269.882812 730.117188 83.332031 500 83.332031 Z M 495.652344 145.886719 C 497.101562 145.871094 498.546875 145.832031 500 145.832031 C 541.132812 145.832031 581.195312 152.804688 618.839844 166.179688 C 618.078125 166.867188 617.316406 167.558594 616.554688 168.25 L 616.546875 168.257812 C 615.285156 169.410156 614.023438 170.558594 612.753906 171.699219 C 611.269531 173.050781 609.765625 174.363281 608.261719 175.679688 C 605.839844 177.792969 603.421875 179.910156 601.09375 182.183594 C 600.171875 183.105469 599.246094 184.070312 598.367188 184.992188 C 597.421875 185.914062 596.535156 186.898438 595.640625 187.886719 L 595.640625 187.890625 C 594.949219 188.652344 594.257812 189.417969 593.542969 190.152344 C 588.300781 195.566406 583.226562 201.054688 578.234375 206.761719 C 577.417969 207.691406 576.566406 208.582031 575.703125 209.480469 C 574.65625 210.570312 573.601562 211.671875 572.613281 212.84375 C 572.417969 213.078125 572.222656 213.332031 572.023438 213.589844 C 571.796875 213.886719 571.558594 214.1875 571.316406 214.480469 C 570.265625 215.714844 569.300781 217.035156 568.332031 218.355469 C 567.597656 219.363281 566.851562 220.378906 566.074219 221.355469 C 560.117188 228.738281 554.328125 236.203125 548.878906 243.960938 C 548.601562 244.347656 548.320312 244.703125 548.042969 245.058594 C 547.679688 245.523438 547.320312 245.980469 546.988281 246.480469 C 540.910156 255.289062 534.953125 264.261719 529.414062 273.613281 C 529.207031 273.976562 528.972656 274.320312 528.730469 274.667969 L 528.730469 274.671875 L 528.558594 274.917969 L 528.285156 275.332031 C 506.976562 312.199219 492.128906 352.171875 482.484375 393.480469 C 482.398438 393.835938 482.285156 394.207031 482.171875 394.570312 L 482.171875 394.574219 C 482.054688 394.941406 481.941406 395.304688 481.855469 395.660156 C 481.550781 396.984375 481.324219 398.324219 481.09375 399.660156 L 481.09375 399.664062 C 480.972656 400.359375 480.855469 401.054688 480.726562 401.742188 C 477.957031 414.742188 475.609375 427.789062 474.011719 441.042969 C 473.898438 441.917969 473.730469 442.796875 473.566406 443.675781 L 473.566406 443.679688 C 473.363281 444.738281 473.164062 445.796875 473.046875 446.871094 C 472.816406 449.078125 472.761719 451.324219 472.710938 453.566406 C 472.671875 455.328125 472.632812 457.085938 472.503906 458.824219 C 472.28125 461.671875 471.972656 464.5 471.667969 467.324219 L 471.667969 467.332031 C 471.164062 471.957031 470.664062 476.578125 470.53125 481.261719 C 464.070312 484.828125 457.570312 488.183594 450.945312 491.328125 C 449.066406 492.210938 447.199219 493.128906 445.335938 494.046875 L 445.332031 494.046875 C 441.707031 495.828125 438.089844 497.609375 434.378906 499.128906 C 428.355469 501.644531 422.179688 503.6875 415.992188 505.734375 C 414.125 506.351562 412.257812 506.972656 410.390625 507.601562 C 377.296875 518.632812 342.949219 525.382812 308.054688 526.980469 C 307.675781 527 307.308594 527.027344 306.945312 527.0625 C 306.578125 527.09375 306.207031 527.125 305.832031 527.144531 C 303.355469 509.910156 301.679688 492.460938 301.679688 474.550781 C 301.675781 336.855469 376.738281 211.515625 495.652344 145.886719 Z M 249.566406 249.566406 C 283.015625 216.117188 321.972656 190.183594 364.394531 172.613281 C 287.335938 252.121094 241.757812 359.4375 241.757812 474.585938 C 241.757812 491.65625 243.015625 508.390625 244.90625 524.957031 C 237.738281 524.070312 230.738281 522.683594 223.726562 521.292969 C 222.121094 520.976562 220.511719 520.65625 218.902344 520.347656 C 217.148438 519.992188 215.382812 519.679688 213.613281 519.363281 C 210.726562 518.851562 207.835938 518.335938 204.976562 517.660156 C 195.917969 515.480469 187.070312 512.753906 178.21875 509.902344 C 174.148438 508.644531 170.082031 507.386719 166.097656 505.957031 C 159.25 503.515625 152.507812 500.859375 145.859375 498.050781 C 146.359375 404.179688 183.132812 316 249.566406 249.566406 Z M 195.476562 681.089844 C 174.007812 645.136719 159.199219 605.699219 151.648438 564.316406 C 152.722656 564.660156 153.789062 565.011719 154.859375 565.351562 C 156.292969 565.808594 157.726562 566.265625 159.152344 566.726562 C 160.996094 567.316406 162.824219 567.945312 164.648438 568.574219 C 167.769531 569.648438 170.886719 570.71875 174.085938 571.59375 C 174.828125 571.816406 175.589844 571.992188 176.347656 572.171875 C 176.867188 572.296875 177.390625 572.417969 177.902344 572.558594 C 179.242188 572.929688 180.613281 573.210938 181.980469 573.496094 C 182.921875 573.695312 183.855469 573.886719 184.78125 574.109375 C 192.078125 575.996094 199.417969 577.589844 206.800781 579.058594 C 207.863281 579.285156 208.902344 579.546875 209.945312 579.804688 L 209.949219 579.804688 L 209.949219 579.808594 C 211.578125 580.214844 213.203125 580.621094 214.894531 580.902344 C 215.257812 580.96875 215.621094 581.027344 215.988281 581.082031 L 215.992188 581.082031 L 216.359375 581.140625 L 216.671875 581.191406 L 216.949219 581.234375 C 218.558594 581.523438 220.203125 581.703125 221.84375 581.882812 L 221.847656 581.882812 C 223.070312 582.015625 224.292969 582.148438 225.507812 582.328125 C 234.859375 583.796875 244.253906 585.054688 253.734375 585.933594 C 254.257812 585.953125 254.769531 586.027344 255.285156 586.101562 C 255.796875 586.171875 256.3125 586.246094 256.835938 586.269531 L 256.835938 586.308594 C 267.574219 587.148438 278.308594 587.824219 289.257812 587.945312 C 289.566406 587.945312 289.875 587.964844 290.1875 587.988281 L 290.191406 587.988281 C 290.515625 588.011719 290.84375 588.035156 291.183594 588.035156 C 333.757812 588.035156 375.824219 580.945312 416.378906 568.613281 L 416.800781 568.523438 L 417.15625 568.457031 C 417.644531 568.367188 418.140625 568.273438 418.601562 568.113281 C 419.835938 567.71875 421.050781 567.277344 422.261719 566.835938 L 422.265625 566.835938 L 422.265625 566.832031 L 422.273438 566.832031 C 422.996094 566.570312 423.710938 566.304688 424.433594 566.054688 C 437.097656 561.945312 449.554688 557.503906 461.800781 552.214844 C 462.644531 551.863281 463.511719 551.566406 464.382812 551.269531 L 464.386719 551.265625 C 465.382812 550.925781 466.378906 550.585938 467.339844 550.160156 C 469.316406 549.273438 471.222656 548.226562 473.128906 547.175781 L 473.132812 547.175781 C 474.738281 546.292969 476.339844 545.410156 477.992188 544.621094 C 480.472656 543.445312 482.984375 542.335938 485.492188 541.230469 C 489.851562 539.308594 494.199219 537.390625 498.378906 535.105469 C 504.707031 538.921875 510.875 542.902344 516.914062 547.097656 C 518.378906 548.101562 519.859375 549.082031 521.335938 550.066406 L 521.335938 550.070312 L 521.339844 550.070312 C 524.941406 552.460938 528.539062 554.855469 531.929688 557.5 C 536.820312 561.238281 541.402344 565.304688 545.980469 569.363281 C 547.722656 570.910156 549.464844 572.457031 551.222656 573.984375 C 577.351562 597.175781 600.460938 623.554688 619.292969 653.042969 C 619.480469 653.355469 619.679688 653.648438 619.878906 653.945312 L 620.140625 654.332031 L 620.324219 654.617188 L 620.464844 654.847656 C 606.792969 665.542969 592.535156 675.730469 577.015625 684.707031 C 457.761719 753.539062 311.753906 751.1875 195.476562 681.089844 Z M 500 854.167969 C 421.332031 854.167969 346.589844 828.667969 285.175781 781.617188 C 392.257812 808.265625 507.589844 793.988281 606.996094 736.609375 C 621.800781 728.054688 635.683594 718.574219 649.0625 708.675781 C 652.011719 715.605469 654.390625 722.660156 656.785156 729.753906 C 657.214844 731.027344 657.644531 732.308594 658.082031 733.589844 C 658.589844 735.078125 659.132812 736.570312 659.671875 738.066406 C 660.730469 740.984375 661.792969 743.917969 662.652344 746.882812 C 665.382812 755.859375 667.390625 764.917969 669.363281 774.015625 C 670.289062 778.128906 671.210938 782.238281 672.007812 786.390625 C 673.320312 793.570312 674.386719 800.75 675.257812 807.929688 C 622.445312 838.097656 562.460938 854.167969 500 854.167969 Z M 808.988281 673.390625 C 793.285156 701.273438 773.679688 727.1875 750.433594 750.433594 C 743.75 757.117188 736.835938 763.488281 729.730469 769.566406 C 729.515625 768.597656 729.3125 767.628906 729.097656 766.660156 C 728.753906 765.105469 728.410156 763.550781 728.074219 761.988281 C 727.695312 760.203125 727.34375 758.417969 726.992188 756.636719 C 726.34375 753.304688 725.691406 749.984375 724.847656 746.679688 C 724.511719 745.421875 724.132812 744.121094 723.757812 742.863281 C 723.464844 741.667969 723.085938 740.503906 722.699219 739.335938 C 722.359375 738.300781 722.019531 737.261719 721.742188 736.199219 C 719.6875 728.898438 717.378906 721.730469 714.988281 714.597656 C 714.582031 713.390625 714.226562 712.164062 713.871094 710.933594 C 713.460938 709.519531 713.050781 708.105469 712.558594 706.710938 C 712.429688 706.378906 712.296875 706.054688 712.160156 705.726562 C 712.023438 705.398438 711.886719 705.078125 711.761719 704.742188 C 711.21875 703.226562 710.570312 701.742188 709.917969 700.253906 C 709.414062 699.101562 708.90625 697.945312 708.449219 696.773438 C 705.011719 687.921875 701.445312 679.199219 697.417969 670.515625 C 697.230469 670.105469 697.058594 669.6875 696.890625 669.261719 C 696.671875 668.734375 696.457031 668.199219 696.203125 667.664062 C 691.632812 658.015625 686.890625 648.367188 681.523438 638.933594 C 681.394531 638.691406 681.277344 638.445312 681.160156 638.195312 C 680.972656 637.800781 680.789062 637.40625 680.554688 637.046875 C 659.25 600.179688 632.113281 567.339844 601.203125 538.316406 C 600.910156 538.042969 600.636719 537.757812 600.367188 537.480469 L 600.367188 537.476562 C 600.101562 537.203125 599.839844 536.929688 599.570312 536.679688 C 598.4375 535.609375 597.234375 534.613281 596.035156 533.613281 L 596.03125 533.613281 C 595.628906 533.277344 595.226562 532.949219 594.832031 532.613281 C 584.976562 523.722656 574.910156 515.164062 564.253906 507.195312 C 563.5 506.636719 562.777344 506.023438 562.0625 505.414062 L 562.058594 505.414062 C 561.269531 504.734375 560.476562 504.058594 559.640625 503.464844 C 557.851562 502.140625 555.949219 500.984375 554.046875 499.828125 C 552.515625 498.898438 550.992188 497.972656 549.535156 496.960938 C 547.234375 495.382812 544.976562 493.734375 542.71875 492.082031 L 542.714844 492.082031 C 538.917969 489.304688 535.117188 486.53125 531.121094 484.085938 C 531.289062 476.703125 531.625 469.367188 532.210938 462.023438 C 532.382812 459.996094 532.515625 457.964844 532.652344 455.925781 C 532.921875 451.886719 533.191406 447.835938 533.722656 443.820312 C 534.582031 437.183594 535.933594 430.679688 537.289062 424.160156 L 537.289062 424.15625 C 537.652344 422.394531 538.023438 420.632812 538.378906 418.863281 C 545.339844 384.683594 556.664062 351.507812 572.769531 320.472656 C 572.996094 320.070312 573.175781 319.664062 573.359375 319.261719 C 573.480469 318.992188 573.597656 318.726562 573.734375 318.457031 C 589.882812 324.957031 605.859375 332.257812 621.335938 341.148438 C 740.574219 410.019531 811.5625 537.636719 808.988281 673.390625 Z M 651.261719 289.285156 C 636.496094 280.769531 621.359375 273.429688 606.050781 266.84375 C 610.410156 261.089844 615.097656 255.722656 619.78125 250.363281 C 620.867188 249.117188 621.953125 247.878906 623.035156 246.628906 C 624.273438 245.226562 625.480469 243.796875 626.679688 242.367188 C 628.539062 240.171875 630.386719 237.976562 632.347656 235.890625 C 638.761719 229.097656 645.640625 222.804688 652.476562 216.597656 L 653.777344 215.402344 C 656.480469 212.910156 659.171875 210.429688 661.957031 208.042969 C 667.574219 203.300781 673.296875 198.738281 679.132812 194.332031 C 704.832031 209.453125 728.792969 227.925781 750.433594 249.566406 C 817.328125 316.457031 854.167969 405.398438 854.167969 500 C 854.167969 515.402344 853.171875 530.652344 851.25 545.683594 C 820.8125 439.527344 750.75 346.726562 651.261719 289.285156 Z M 651.261719 289.285156"/></svg>