<svg xmlns="http://www.w3.org/2000/svg" width="1000pt" height="1000pt" viewBox="0 0 1000 1000"><path d="M 276.597656 547.796875 C 302.992188 510.097656 293.832031 458.136719 256.132812 431.734375 C 218.429688 405.335938 166.46875 414.503906 140.070312 452.199219 C 113.671875 489.902344 122.835938 541.863281 160.535156 568.261719 C 198.234375 594.664062 250.199219 585.496094 276.597656 547.796875 Z M 191.269531 488.050781 C 180.460938 503.488281 165.804688 514.644531 149.496094 521.1875 C 147.070312 514.417969 145.820312 507.273438 145.804688 500.082031 C 156.839844 494.851562 166.714844 486.800781 174.207031 476.101562 C 181.691406 465.414062 185.882812 453.390625 187.023438 441.242188 C 193.789062 438.796875 200.929688 437.535156 208.117188 437.503906 C 207.542969 455.050781 202.070312 472.628906 191.269531 488.050781 Z M 242.410156 523.859375 C 234.914062 534.5625 230.722656 546.601562 229.582031 558.765625 C 222.820312 561.210938 215.679688 562.476562 208.492188 562.507812 C 209.058594 544.941406 214.53125 527.347656 225.34375 511.910156 C 236.144531 496.480469 250.796875 485.328125 267.089844 478.785156 C 269.523438 485.550781 270.78125 492.691406 270.796875 499.882812 C 259.765625 505.113281 249.898438 513.164062 242.410156 523.859375 Z M 931.570312 272.023438 C 917.660156 216.355469 878.675781 165.773438 815.707031 121.679688 C 752.734375 77.585938 691.871094 58.257812 634.804688 64.226562 C 567.894531 71.226562 507.351562 112.796875 454.84375 187.78125 C 401.660156 263.738281 372.824219 350.28125 373.652344 431.464844 C 374.015625 466.769531 379.949219 499.308594 390.976562 528.179688 L 351.425781 743.773438 C 339.335938 740.921875 326.199219 745.453125 318.640625 756.242188 L 234.992188 875.703125 C 225.09375 889.839844 228.527344 909.328125 242.667969 919.230469 L 259.734375 931.175781 C 273.871094 941.078125 293.359375 937.640625 303.257812 923.503906 L 386.902344 804.042969 C 394.441406 793.273438 394.226562 779.414062 387.457031 769.039062 L 578.859375 659.820312 C 609.796875 660.324219 642.449219 654.773438 675.796875 643.023438 C 752.367188 616.039062 823.828125 559.347656 877.015625 483.386719 C 929.519531 408.402344 947.871094 337.289062 931.570312 272.023438 Z M 495.472656 262.542969 C 508.671875 243.695312 534.652344 239.113281 553.503906 252.3125 C 572.351562 265.511719 576.933594 291.492188 563.734375 310.339844 C 550.535156 329.191406 524.554688 333.773438 505.707031 320.574219 C 486.855469 307.378906 482.273438 281.394531 495.472656 262.542969 Z M 428.445312 394.589844 C 441.644531 375.738281 467.628906 371.160156 486.476562 384.359375 C 505.324219 397.558594 509.90625 423.539062 496.707031 442.386719 C 483.507812 461.238281 457.527344 465.820312 438.675781 452.621094 C 419.828125 439.421875 415.246094 413.441406 428.445312 394.589844 Z M 399.179688 714.378906 L 422.929688 584.902344 C 434.703125 599.773438 448.464844 612.832031 464.121094 623.796875 C 479.527344 634.585938 496.222656 642.949219 513.910156 648.914062 Z M 582.257812 527.726562 C 569.058594 546.574219 543.074219 551.15625 524.226562 537.957031 C 505.378906 524.757812 500.796875 498.773438 513.996094 479.925781 C 527.195312 461.078125 553.175781 456.496094 572.023438 469.695312 C 590.871094 482.894531 595.457031 508.875 582.257812 527.726562 Z M 596.632812 154.398438 C 609.832031 135.546875 635.816406 130.964844 654.664062 144.164062 C 673.511719 157.363281 678.09375 183.347656 664.894531 202.195312 C 651.695312 221.042969 625.710938 225.625 606.863281 212.425781 C 588.015625 199.230469 583.433594 173.246094 596.632812 154.398438 Z M 610.039062 342.761719 C 623.234375 323.914062 649.214844 319.332031 668.066406 332.53125 C 686.917969 345.730469 691.496094 371.710938 678.296875 390.558594 C 665.101562 409.410156 639.117188 413.992188 620.269531 400.792969 C 601.421875 387.589844 596.835938 361.613281 610.039062 342.761719 Z M 691.703125 578.925781 C 678.503906 597.777344 652.523438 602.359375 633.671875 589.160156 C 614.824219 575.960938 610.242188 549.980469 623.441406 531.128906 C 636.640625 512.277344 662.621094 507.699219 681.472656 520.898438 C 700.320312 534.09375 704.902344 560.078125 691.703125 578.925781 Z M 706.078125 205.601562 C 719.277344 186.75 745.261719 182.167969 764.109375 195.367188 C 782.960938 208.566406 787.542969 234.550781 774.339844 253.398438 C 761.140625 272.25 735.160156 276.832031 716.3125 263.632812 C 697.464844 250.429688 692.882812 224.449219 706.078125 205.601562 Z M 792.863281 470.78125 C 779.664062 489.628906 753.679688 494.210938 734.832031 481.011719 C 715.984375 467.8125 711.402344 441.832031 724.601562 422.984375 C 737.800781 404.132812 763.78125 399.550781 782.632812 412.75 C 801.480469 425.949219 806.058594 451.929688 792.863281 470.78125 Z M 859.890625 338.734375 C 846.691406 357.582031 820.707031 362.164062 801.859375 348.964844 C 783.011719 335.765625 778.429688 309.785156 791.628906 290.933594 C 804.828125 272.085938 830.808594 267.503906 849.660156 280.703125 C 868.507812 293.898438 873.089844 319.882812 859.890625 338.734375 Z M 859.890625 338.734375"/></svg>