<svg xmlns="http://www.w3.org/2000/svg" width="1000pt" height="1000pt" viewBox="0 0 1000 1000"><path d="M 291.679688 500 C 291.679688 453.972656 254.367188 416.660156 208.339844 416.660156 C 162.3125 416.660156 125 453.972656 125 500 C 125 546.027344 162.3125 583.339844 208.339844 583.339844 C 254.367188 583.339844 291.679688 546.027344 291.679688 500 Z M 207.40625 868.980469 C 194.671875 887.167969 215.808594 905.328125 234 918.066406 C 252.171875 930.789062 276.421875 944.386719 289.167969 926.234375 L 303.867188 903.554688 L 223.726562 847.441406 Z M 236.3125 830.824219 L 315.207031 886.066406 L 398.964844 756.84375 L 329.304688 708.070312 Z M 802.765625 97.863281 C 714.3125 38.757812 593.554688 59.015625 529.292969 143.800781 C 506.921875 173.316406 493.960938 206.8125 489.703125 240.855469 L 489.664062 240.828125 L 453.851562 445.371094 C 440.226562 523.195312 409.675781 597.074219 364.359375 661.792969 L 341.894531 691.449219 L 410.304688 739.347656 L 431.003906 707.417969 C 476.097656 643.214844 534.648438 589.613281 602.582031 550.359375 L 782.90625 446.160156 L 782.867188 446.128906 C 811.246094 431.585938 836.613281 410.140625 856.175781 382.195312 C 921.132812 289.433594 897.414062 161.109375 802.765625 97.863281 Z M 802.765625 97.863281"/></svg>