<svg xmlns="http://www.w3.org/2000/svg" width="1000pt" height="1000pt" viewBox="0 0 1000 1000"><path d="M 931.566406 272.023438 C 917.660156 216.355469 878.675781 165.773438 815.707031 121.679688 C 752.734375 77.585938 691.871094 58.257812 634.804688 64.226562 C 567.894531 71.226562 507.351562 112.796875 454.84375 187.78125 C 401.660156 263.738281 372.824219 350.28125 373.652344 431.464844 C 374.015625 466.769531 379.949219 499.308594 390.976562 528.179688 L 351.425781 743.773438 C 339.335938 740.921875 326.199219 745.453125 318.640625 756.242188 L 234.992188 875.703125 C 225.09375 889.839844 228.527344 909.328125 242.667969 919.230469 L 259.734375 931.175781 C 273.871094 941.078125 293.359375 937.640625 303.257812 923.503906 L 386.902344 804.042969 C 394.441406 793.273438 394.226562 779.414062 387.457031 769.039062 L 578.859375 659.820312 C 609.796875 660.324219 642.449219 654.773438 675.796875 643.023438 C 752.367188 616.039062 823.828125 559.347656 877.015625 483.386719 C 929.519531 408.402344 947.871094 337.289062 931.566406 272.023438 Z M 399.179688 714.378906 L 422.929688 584.902344 C 434.707031 599.773438 448.464844 612.832031 464.121094 623.792969 C 479.527344 634.585938 496.222656 642.949219 513.910156 648.914062 Z M 276.597656 547.328125 C 302.992188 509.628906 293.832031 457.667969 256.132812 431.269531 C 241.585938 421.082031 224.914062 416.191406 208.40625 416.191406 C 182.136719 416.191406 156.28125 428.582031 140.070312 451.734375 C 113.671875 489.433594 122.835938 541.398438 160.535156 567.796875 C 175.082031 577.984375 191.753906 582.871094 208.261719 582.871094 C 234.53125 582.871094 260.382812 570.484375 276.597656 547.328125 Z M 242.464844 523.429688 C 234.671875 534.558594 221.886719 541.203125 208.261719 541.203125 C 199.722656 541.203125 191.480469 538.597656 184.433594 533.664062 C 165.613281 520.484375 161.023438 494.453125 174.203125 475.632812 C 181.996094 464.503906 194.78125 457.859375 208.40625 457.859375 C 216.949219 457.859375 225.183594 460.464844 232.234375 465.398438 C 241.351562 471.785156 247.433594 481.335938 249.367188 492.296875 C 251.300781 503.257812 248.847656 514.3125 242.464844 523.429688 Z M 242.464844 523.429688"/></svg>