<svg xmlns="http://www.w3.org/2000/svg" width="1000pt" height="1000pt" viewBox="0 0 1000 1000"><path d="M 166.066406 627.925781 C 176.410156 626.039062 187.039062 625 197.917969 625 C 208.585938 625 219.019531 626 229.175781 627.820312 C 243.066406 630.304688 256.398438 634.398438 268.972656 639.929688 C 284.566406 646.792969 298.988281 655.824219 311.855469 666.667969 L 608.332031 666.667969 C 617.539062 666.667969 625 659.203125 625 650 L 625 600 C 625 590.796875 617.539062 583.332031 608.332031 583.332031 L 257.328125 583.332031 L 235.878906 479.027344 L 375 479.027344 C 381.957031 479.027344 388.457031 475.554688 392.320312 469.769531 L 433.988281 407.410156 C 440.378906 397.839844 437.804688 384.902344 428.238281 378.511719 C 418.675781 372.125 405.738281 374.695312 399.34375 384.261719 L 363.863281 437.359375 L 227.308594 437.359375 L 161.480469 117.289062 C 159.886719 109.539062 154.585938 104.167969 148.539062 104.167969 L 75.917969 104.167969 C 67.070312 104.167969 60.644531 115.339844 62.972656 126.675781 Z M 824.933594 834.050781 L 937.5 834.050781 L 937.5 791.523438 L 791.410156 791.523438 C 806.011719 802.441406 817.652344 817.09375 824.933594 834.050781 Z M 920.832031 708.324219 L 348.042969 708.324219 C 356.195312 721.332031 362.722656 735.453125 367.296875 750.429688 L 937.5 750.429688 L 937.5 724.988281 C 937.5 715.785156 930.039062 708.324219 920.832031 708.324219 Z M 824.609375 916.667969 L 920.832031 916.667969 C 930.039062 916.667969 937.5 909.203125 937.5 900 L 937.5 875.140625 L 833.328125 875.140625 C 833.308594 889.898438 830.1875 903.941406 824.609375 916.667969 Z M 374.660156 791.523438 C 374.863281 795.019531 375 798.535156 375 802.082031 C 375 813 373.953125 823.671875 372.054688 834.050781 L 633.398438 834.050781 C 640.675781 817.09375 652.324219 802.441406 666.925781 791.523438 Z M 359.160156 875.140625 C 352.296875 890.230469 343.390625 904.191406 332.773438 916.667969 L 633.722656 916.667969 C 628.144531 903.941406 625.019531 889.898438 625.003906 875.140625 Z M 332.882812 791.523438 C 331.769531 777.070312 328.40625 763.257812 323.109375 750.429688 C 316.601562 734.671875 307.195312 720.425781 295.570312 708.324219 C 290.804688 703.359375 285.675781 698.757812 280.210938 694.566406 C 257.398438 677.082031 228.878906 666.667969 197.917969 666.667969 C 189.914062 666.667969 182.082031 667.402344 174.460938 668.734375 C 128.28125 676.800781 90.152344 708.234375 72.726562 750.429688 C 67.425781 763.253906 64.066406 777.070312 62.949219 791.523438 C 62.679688 795.011719 62.5 798.527344 62.5 802.082031 C 62.5 813.101562 63.847656 823.796875 66.332031 834.050781 C 69.914062 848.851562 75.925781 862.691406 83.925781 875.144531 C 108.007812 912.636719 150.042969 937.5 197.917969 937.5 C 224.441406 937.5 249.164062 929.847656 270.050781 916.667969 C 286.863281 906.058594 301.167969 891.863281 311.910156 875.140625 C 319.90625 862.6875 325.921875 848.847656 329.503906 834.046875 C 331.984375 823.796875 333.332031 813.101562 333.332031 802.082031 C 333.332031 798.527344 333.152344 795.011719 332.882812 791.523438 Z M 729.167969 812.5 C 710.320312 812.5 693.433594 820.855469 681.976562 834.050781 C 672.445312 845.019531 666.667969 859.332031 666.667969 875 L 666.671875 875.140625 C 666.707031 891.097656 672.722656 905.640625 682.597656 916.667969 C 694.039062 929.449219 710.660156 937.5 729.167969 937.5 C 747.671875 937.5 764.296875 929.449219 775.738281 916.667969 C 785.609375 905.640625 791.628906 891.097656 791.664062 875.140625 L 791.667969 875 C 791.667969 859.332031 785.886719 845.019531 776.359375 834.050781 C 764.898438 820.855469 748.015625 812.5 729.167969 812.5 Z M 623.019531 327.882812 L 690.113281 376.609375 C 694.757812 380.007812 701.078125 380.007812 705.722656 376.609375 L 772.785156 327.882812 C 777.457031 324.484375 779.394531 318.511719 777.617188 313.046875 L 752.007812 234.167969 C 750.226562 228.699219 745.132812 225.007812 739.398438 225.007812 L 656.460938 225.007812 C 650.699219 225.007812 645.605469 228.699219 643.828125 234.167969 L 618.214844 313.042969 C 616.4375 318.511719 618.375 324.484375 623.019531 327.882812 Z M 697.917969 541.667969 C 830.214844 541.667969 937.5 434.382812 937.5 302.082031 C 937.5 169.761719 830.214844 62.5 697.917969 62.5 C 565.59375 62.5 458.332031 169.761719 458.332031 302.082031 C 458.332031 434.382812 565.59375 541.667969 697.917969 541.667969 Z M 535.199219 179.753906 L 591.179688 179.320312 C 595.683594 179.292969 599.804688 176.707031 601.816406 172.632812 L 633.230469 108.960938 C 653.5625 102.136719 675.316406 98.433594 697.914062 98.433594 C 720.515625 98.433594 742.269531 102.136719 762.601562 108.960938 L 794.035156 172.632812 C 796.023438 176.707031 800.144531 179.292969 804.671875 179.320312 L 860.628906 179.753906 C 881.894531 207.972656 896.003906 241.875 900.230469 278.738281 L 834.929688 332.222656 C 830.902344 335.527344 829.464844 341.035156 831.359375 345.878906 L 861.683594 423.003906 C 837.625 455.503906 804.136719 480.617188 765.296875 494.277344 L 703.996094 458.171875 C 700.234375 455.945312 695.585938 455.945312 691.824219 458.171875 L 630.515625 494.269531 C 591.679688 480.613281 558.195312 455.496094 534.140625 422.996094 L 564.460938 345.878906 C 566.355469 341.039062 564.917969 335.527344 560.890625 332.222656 L 495.597656 278.742188 C 499.824219 241.878906 513.933594 207.972656 535.199219 179.753906 Z M 535.199219 179.753906"/></svg>