<svg xmlns="http://www.w3.org/2000/svg" width="1000pt" height="1000pt" viewBox="0 0 1000 1000"><path d="M 916.667969 895.832031 L 83.332031 895.832031 C 71.828125 895.832031 62.5 905.164062 62.5 916.667969 C 62.5 928.171875 71.828125 937.5 83.332031 937.5 L 916.667969 937.5 C 928.171875 937.5 937.5 928.171875 937.5 916.667969 C 937.5 905.164062 928.171875 895.832031 916.667969 895.832031 Z M 502.15625 224.722656 C 459.554688 285.558594 438.476562 356.277344 442.796875 423.839844 C 444.167969 445.261719 448.035156 465.582031 454.210938 484.492188 L 448.335938 660.847656 C 436.589844 658.5625 424.066406 663.144531 416.761719 673.578125 L 333.113281 793.039062 C 323.214844 807.175781 326.648438 826.664062 340.789062 836.5625 L 357.855469 848.511719 C 371.992188 858.410156 391.476562 854.976562 401.378906 840.835938 L 485.023438 721.375 C 492.328125 710.941406 492.351562 697.605469 486.191406 687.347656 L 649.925781 621.5 C 669.796875 620.839844 690.207031 617.527344 710.796875 611.492188 C 775.765625 592.445312 835.007812 548.449219 877.605469 487.605469 C 920.207031 426.765625 941.289062 356.050781 936.964844 288.488281 C 932.535156 219.179688 902.074219 161.398438 851.199219 125.773438 C 800.332031 90.152344 735.609375 81.292969 668.96875 100.832031 C 603.996094 119.886719 544.757812 163.882812 502.15625 224.722656 Z M 490.699219 640.625 L 493.550781 554.941406 C 503.820312 566.8125 515.511719 577.417969 528.5625 586.550781 C 541.613281 595.691406 555.585938 603.039062 570.257812 608.628906 Z M 736.914062 132.414062 C 769.488281 132.414062 800.664062 141.261719 827.300781 159.910156 C 867.597656 188.125 891.773438 234.734375 895.382812 291.148438 C 899.101562 349.308594 880.667969 410.589844 843.472656 463.710938 C 792.398438 536.652344 716.441406 578.496094 646.417969 579.878906 C 646.058594 579.867188 645.707031 579.878906 645.351562 579.886719 C 611.867188 580.351562 579.777344 571.546875 552.460938 552.421875 C 525.164062 533.308594 505.925781 506.195312 494.90625 474.605469 C 494.78125 474.234375 494.660156 473.863281 494.515625 473.496094 C 471.871094 407.226562 485.21875 321.550781 536.289062 248.621094 C 588.230469 174.441406 665.90625 132.414062 736.914062 132.414062 Z M 331.625 479.167969 L 409.367188 479.167969 C 405.121094 462.238281 402.371094 444.605469 401.210938 426.503906 C 396.46875 352.324219 418.339844 275.199219 462.902344 208.332031 L 166.667969 208.332031 L 166.667969 381.898438 C 179.710938 377.273438 193.730469 374.730469 208.339844 374.730469 C 270.261719 374.730469 321.785156 419.996094 331.625 479.167969 Z M 166.667969 166.667969 L 494.898438 166.667969 C 520.953125 137.089844 550.90625 112.203125 583.421875 93.039062 L 553.621094 66.683594 C 550.574219 63.988281 546.648438 62.5 542.578125 62.5 L 70.851562 62.5 C 63.414062 62.5 59.699219 71.507812 64.980469 76.75 Z M 125 499.738281 C 125 545.769531 162.3125 583.082031 208.339844 583.082031 C 254.367188 583.082031 291.679688 545.769531 291.679688 499.738281 C 291.679688 453.710938 254.367188 416.398438 208.339844 416.398438 C 162.3125 416.398438 125 453.710938 125 499.738281 Z M 125 499.738281"/></svg>