<svg xmlns="http://www.w3.org/2000/svg" width="1000pt" height="1000pt" viewBox="0 0 1000 1000"><path d="M 935.863281 814.746094 C 935.667969 812.746094 935.445312 810.765625 935.1875 808.8125 C 935.097656 808.132812 934.992188 807.464844 934.898438 806.796875 C 934.867188 806.582031 934.839844 806.375 934.808594 806.164062 C 934.6875 805.332031 934.570312 804.503906 934.4375 803.679688 L 934.386719 803.371094 C 934.113281 801.679688 933.824219 800.015625 933.515625 798.371094 C 933.460938 798.058594 933.410156 797.738281 933.351562 797.433594 L 933.335938 797.355469 L 933.230469 796.847656 C 932.933594 795.316406 932.628906 793.804688 932.304688 792.324219 L 932.246094 792.039062 L 932.132812 791.542969 C 931.679688 789.492188 931.199219 787.421875 930.679688 785.328125 C 930.429688 784.332031 930.148438 783.304688 929.886719 782.296875 C 929.554688 781.027344 929.234375 779.765625 928.882812 778.484375 C 928.535156 777.230469 928.152344 775.957031 927.78125 774.691406 C 927.472656 773.632812 927.179688 772.582031 926.855469 771.515625 C 926.410156 770.054688 925.929688 768.566406 925.453125 767.085938 C 925.171875 766.203125 924.902344 765.328125 924.609375 764.441406 C 924.070312 762.804688 923.492188 761.144531 922.917969 759.488281 C 922.65625 758.734375 922.40625 757.988281 922.136719 757.234375 C 921.503906 755.449219 920.832031 753.644531 920.15625 751.835938 C 919.917969 751.191406 919.6875 750.554688 919.445312 749.910156 C 918.707031 747.972656 917.9375 746.015625 917.152344 744.050781 C 916.945312 743.527344 916.746094 743.011719 916.535156 742.484375 C 915.695312 740.398438 914.824219 738.296875 913.929688 736.183594 C 913.757812 735.769531 913.585938 735.355469 913.410156 734.933594 C 912.464844 732.722656 911.492188 730.488281 910.492188 728.242188 C 910.351562 727.917969 910.210938 727.59375 910.066406 727.269531 C 909.019531 724.929688 907.941406 722.574219 906.835938 720.199219 C 906.726562 719.960938 906.617188 719.722656 906.503906 719.484375 C 905.355469 717.027344 904.171875 714.554688 902.957031 712.066406 L 902.730469 711.589844 C 901.476562 709.019531 900.1875 706.429688 898.867188 703.824219 L 898.742188 703.578125 C 897.386719 700.910156 895.996094 698.222656 894.570312 695.511719 L 894.535156 695.445312 C 890.191406 687.195312 885.515625 678.769531 880.515625 670.164062 L 880.515625 670.167969 C 867.441406 699.34375 851.101562 726.734375 831.972656 751.894531 C 848.574219 786.921875 854.195312 810.765625 855.210938 825.671875 L 855.210938 825.699219 C 855.429688 828.960938 855.441406 831.800781 855.289062 834.230469 L 855.28125 834.359375 C 855.246094 834.855469 855.207031 835.332031 855.164062 835.796875 L 855.113281 836.304688 C 855.070312 836.710938 855.019531 837.109375 854.96875 837.488281 C 854.941406 837.683594 854.914062 837.878906 854.882812 838.066406 C 854.828125 838.40625 854.773438 838.746094 854.714844 839.066406 C 854.675781 839.28125 854.628906 839.476562 854.585938 839.683594 C 854.507812 840.054688 854.425781 840.417969 854.339844 840.753906 C 854.257812 841.078125 854.171875 841.398438 854.085938 841.6875 L 853.929688 842.15625 C 853.851562 842.386719 853.773438 842.617188 853.695312 842.824219 L 853.535156 843.214844 C 853.449219 843.421875 853.359375 843.613281 853.273438 843.792969 L 853.121094 844.09375 L 852.820312 844.609375 L 852.699219 844.796875 C 852.558594 845.003906 852.414062 845.1875 852.273438 845.335938 C 852.136719 845.480469 851.960938 845.632812 851.769531 845.785156 L 851.644531 845.878906 C 851.460938 846.015625 851.253906 846.152344 851.023438 846.292969 L 850.945312 846.339844 C 850.679688 846.496094 850.382812 846.648438 850.054688 846.804688 L 849.921875 846.867188 C 849.625 847.003906 849.304688 847.136719 848.960938 847.269531 L 848.777344 847.339844 C 847.984375 847.636719 847.0625 847.914062 846.015625 848.171875 L 845.730469 848.238281 C 844.664062 848.488281 843.464844 848.710938 842.132812 848.890625 L 841.792969 848.933594 C 841.195312 849.011719 840.570312 849.082031 839.917969 849.144531 L 839.628906 849.171875 C 838.878906 849.238281 838.097656 849.292969 837.277344 849.332031 L 836.988281 849.347656 C 836.261719 849.378906 835.511719 849.398438 834.730469 849.410156 L 834.210938 849.417969 C 833.59375 849.421875 832.941406 849.414062 832.289062 849.402344 C 831.898438 849.394531 831.511719 849.390625 831.109375 849.378906 C 830.46875 849.359375 829.800781 849.328125 829.132812 849.296875 C 828.707031 849.273438 828.296875 849.257812 827.863281 849.230469 C 827.175781 849.1875 826.453125 849.128906 825.734375 849.070312 C 825.277344 849.03125 824.832031 849 824.359375 848.957031 C 823.628906 848.886719 822.863281 848.796875 822.105469 848.710938 C 821.601562 848.65625 821.117188 848.609375 820.601562 848.542969 C 819.828125 848.449219 819.019531 848.328125 818.214844 848.214844 C 817.671875 848.140625 817.144531 848.074219 816.585938 847.984375 C 815.769531 847.859375 814.910156 847.710938 814.058594 847.566406 C 813.476562 847.464844 812.90625 847.378906 812.304688 847.269531 C 811.445312 847.113281 810.542969 846.929688 809.652344 846.753906 C 809.019531 846.628906 808.40625 846.515625 807.757812 846.382812 C 806.871094 846.195312 805.941406 845.984375 805.027344 845.777344 C 802.960938 845.316406 800.832031 844.816406 798.609375 844.246094 C 798.386719 844.191406 798.175781 844.144531 797.949219 844.085938 C 796.917969 843.820312 795.839844 843.519531 794.777344 843.226562 C 794.050781 843.027344 793.34375 842.847656 792.601562 842.636719 C 791.550781 842.335938 790.453125 842.007812 789.371094 841.6875 C 788.570312 841.449219 787.785156 841.226562 786.964844 840.972656 C 785.878906 840.640625 784.742188 840.273438 783.625 839.914062 C 782.761719 839.640625 781.917969 839.378906 781.039062 839.089844 C 779.910156 838.71875 778.738281 838.316406 777.582031 837.917969 C 776.660156 837.605469 775.753906 837.300781 774.808594 836.972656 C 773.644531 836.566406 772.441406 836.121094 771.246094 835.6875 C 770.261719 835.328125 769.289062 834.984375 768.277344 834.605469 C 767.078125 834.160156 765.835938 833.679688 764.605469 833.203125 C 763.554688 832.800781 762.515625 832.40625 761.441406 831.984375 C 760.203125 831.496094 758.929688 830.980469 757.664062 830.464844 C 756.828125 830.128906 755.992188 829.789062 755.144531 829.441406 L 755.117188 829.429688 C 754.761719 829.285156 754.417969 829.144531 754.058594 828.996094 C 753.421875 828.734375 752.773438 828.460938 752.128906 828.191406 C 750.285156 827.414062 748.410156 826.613281 746.507812 825.789062 C 746.113281 825.617188 745.734375 825.457031 745.339844 825.285156 C 743.101562 824.304688 740.808594 823.277344 738.492188 822.222656 C 737.882812 821.941406 737.265625 821.660156 736.648438 821.378906 C 734.351562 820.320312 732.023438 819.238281 729.648438 818.109375 L 729.269531 817.929688 C 726.734375 816.726562 724.140625 815.457031 721.511719 814.160156 C 720.964844 813.890625 720.414062 813.617188 719.863281 813.34375 C 717.195312 812.015625 714.492188 810.660156 711.726562 809.238281 C 711.511719 809.128906 711.296875 809.011719 711.082031 808.902344 C 708.011719 807.320312 704.925781 805.703125 701.820312 804.046875 C 701.472656 803.859375 701.117188 803.667969 700.765625 803.480469 C 697.632812 801.800781 694.484375 800.09375 691.324219 798.347656 L 691.183594 798.269531 L 690.933594 798.132812 C 688.351562 796.703125 685.761719 795.257812 683.160156 793.78125 L 683.136719 793.769531 C 679.210938 791.546875 675.257812 789.25 671.285156 786.917969 L 671.285156 786.921875 C 653.648438 776.570312 635.585938 765.195312 617.207031 752.855469 C 617.007812 752.722656 616.808594 752.589844 616.609375 752.457031 C 614.121094 750.785156 611.628906 749.09375 609.132812 747.386719 C 608.679688 747.078125 608.226562 746.769531 607.773438 746.460938 C 605.429688 744.855469 603.082031 743.234375 600.730469 741.597656 C 600.121094 741.171875 599.511719 740.75 598.898438 740.324219 C 596.644531 738.753906 594.390625 737.167969 592.128906 735.570312 C 591.417969 735.066406 590.703125 734.5625 589.992188 734.054688 C 587.796875 732.496094 585.605469 730.929688 583.402344 729.347656 C 582.625 728.785156 581.84375 728.222656 581.0625 727.65625 C 578.902344 726.097656 576.738281 724.527344 574.574219 722.945312 C 573.765625 722.351562 572.953125 721.753906 572.140625 721.15625 C 569.988281 719.574219 567.835938 717.988281 565.675781 716.382812 C 564.867188 715.785156 564.066406 715.179688 563.257812 714.578125 C 561.078125 712.953125 558.902344 711.324219 556.722656 709.675781 C 555.976562 709.109375 555.230469 708.539062 554.484375 707.976562 C 552.230469 706.269531 549.980469 704.554688 547.726562 702.828125 C 547.222656 702.441406 546.71875 702.046875 546.214844 701.660156 C 545.5 701.109375 544.777344 700.539062 544.0625 699.984375 C 537.367188 694.816406 530.660156 689.554688 523.933594 684.183594 C 522.960938 683.40625 521.988281 682.636719 521.011719 681.855469 C 519.296875 680.476562 517.582031 679.082031 515.863281 677.695312 C 514.507812 676.597656 513.152344 675.503906 511.796875 674.398438 C 510.199219 673.097656 508.605469 671.785156 507.007812 670.472656 C 505.515625 669.25 504.027344 668.03125 502.539062 666.796875 C 501.019531 665.542969 499.5 664.277344 497.980469 663.011719 C 496.410156 661.703125 494.835938 660.394531 493.265625 659.078125 C 491.800781 657.847656 490.335938 656.609375 488.871094 655.375 C 487.238281 653.992188 485.605469 652.613281 483.972656 651.222656 C 482.558594 650.019531 481.148438 648.816406 479.738281 647.605469 C 478.046875 646.160156 476.355469 644.699219 474.660156 643.238281 C 473.289062 642.054688 471.917969 640.867188 470.546875 639.675781 C 468.808594 638.167969 467.074219 636.65625 465.339844 635.136719 C 464.011719 633.972656 462.6875 632.8125 461.359375 631.644531 C 459.5625 630.058594 457.761719 628.464844 455.964844 626.867188 C 454.699219 625.742188 453.4375 624.621094 452.171875 623.496094 C 450.289062 621.808594 448.402344 620.117188 446.519531 618.417969 C 445.339844 617.355469 444.164062 616.300781 442.988281 615.238281 C 440.953125 613.394531 438.917969 611.539062 436.886719 609.679688 C 435.863281 608.746094 434.835938 607.816406 433.816406 606.878906 C 431.457031 604.710938 429.101562 602.535156 426.746094 600.351562 C 426.046875 599.699219 425.34375 599.054688 424.644531 598.402344 C 421.558594 595.53125 418.476562 592.644531 415.394531 589.742188 C 412.316406 586.835938 409.257812 583.929688 406.210938 581.015625 C 405.515625 580.351562 404.824219 579.679688 404.128906 579.015625 C 401.820312 576.800781 399.511719 574.582031 397.222656 572.359375 C 396.21875 571.386719 395.222656 570.414062 394.226562 569.441406 C 392.253906 567.523438 390.285156 565.605469 388.328125 563.683594 C 387.203125 562.578125 386.085938 561.472656 384.964844 560.363281 C 383.15625 558.578125 381.347656 556.789062 379.550781 554.996094 C 378.351562 553.800781 377.15625 552.605469 375.960938 551.410156 C 374.269531 549.710938 372.574219 548.011719 370.890625 546.316406 C 369.640625 545.054688 368.398438 543.789062 367.152344 542.527344 C 365.542969 540.890625 363.933594 539.253906 362.332031 537.613281 C 361.050781 536.304688 359.777344 534.992188 358.507812 533.683594 C 356.96875 532.101562 355.441406 530.519531 353.914062 528.9375 C 352.601562 527.574219 351.289062 526.210938 349.984375 524.847656 C 349.316406 524.148438 348.65625 523.453125 347.992188 522.757812 C 347.199219 521.925781 346.410156 521.097656 345.617188 520.269531 C 344.277344 518.859375 342.941406 517.449219 341.609375 516.042969 C 340.21875 514.566406 338.835938 513.089844 337.453125 511.617188 C 336.085938 510.160156 334.722656 508.703125 333.363281 507.242188 C 332.070312 505.851562 330.785156 504.457031 329.5 503.066406 C 328.074219 501.523438 326.644531 499.980469 325.230469 498.4375 C 324.089844 497.191406 322.960938 495.949219 321.828125 494.703125 C 320.296875 493.023438 318.765625 491.347656 317.246094 489.671875 C 316.476562 488.816406 315.714844 487.960938 314.945312 487.105469 C 310.898438 482.609375 306.917969 478.113281 302.96875 473.621094 C 300.589844 470.921875 298.214844 468.214844 295.875 465.515625 C 295.511719 465.097656 295.140625 464.675781 294.773438 464.257812 C 292.867188 462.046875 290.980469 459.847656 289.097656 457.640625 C 288.542969 456.992188 287.984375 456.347656 287.433594 455.695312 C 285.617188 453.566406 283.824219 451.441406 282.035156 449.3125 C 281.425781 448.589844 280.816406 447.871094 280.210938 447.152344 C 278.453125 445.054688 276.710938 442.957031 274.976562 440.863281 C 274.367188 440.128906 273.75 439.386719 273.140625 438.648438 C 271.402344 436.542969 269.683594 434.441406 267.96875 432.339844 C 267.394531 431.636719 266.824219 430.933594 266.253906 430.230469 C 264.507812 428.082031 262.777344 425.933594 261.054688 423.792969 C 260.550781 423.160156 260.046875 422.53125 259.542969 421.898438 C 257.777344 419.695312 256.03125 417.492188 254.296875 415.292969 C 253.867188 414.75 253.445312 414.207031 253.015625 413.664062 C 251.210938 411.367188 249.417969 409.074219 247.644531 406.785156 C 247.351562 406.402344 247.0625 406.027344 246.769531 405.648438 C 244.882812 403.203125 243.007812 400.765625 241.15625 398.328125 L 240.835938 397.90625 C 222.359375 373.597656 205.71875 349.765625 191.171875 326.726562 L 191.128906 326.660156 L 191.085938 326.589844 L 191.039062 326.519531 C 189.078125 323.410156 187.148438 320.3125 185.261719 317.230469 C 185.089844 316.949219 184.914062 316.667969 184.742188 316.386719 C 182.835938 313.269531 180.964844 310.164062 179.140625 307.074219 L 178.960938 306.769531 C 177.414062 304.144531 175.929688 301.582031 174.480469 299.042969 C 174.105469 298.394531 173.738281 297.746094 173.371094 297.101562 C 172.058594 294.789062 170.769531 292.496094 169.535156 290.257812 C 169.171875 289.597656 168.824219 288.949219 168.464844 288.296875 C 167.539062 286.605469 166.632812 284.929688 165.753906 283.273438 C 165.183594 282.210938 164.621094 281.152344 164.074219 280.105469 C 163.480469 278.980469 162.90625 277.871094 162.335938 276.765625 C 161.261719 274.691406 160.226562 272.648438 159.222656 270.644531 C 158.917969 270.03125 158.609375 269.417969 158.308594 268.8125 C 157.613281 267.402344 156.929688 266.007812 156.265625 264.632812 L 156.246094 264.589844 L 156.195312 264.476562 C 152.390625 256.578125 149.140625 249.238281 146.367188 242.425781 L 146.242188 242.121094 C 145.574219 240.476562 144.933594 238.859375 144.320312 237.273438 L 144.222656 237.019531 C 140.410156 227.140625 137.648438 218.457031 135.703125 210.886719 L 135.699219 210.871094 C 134.082031 204.5625 133.019531 199.019531 132.386719 194.210938 L 132.375 194.117188 C 132.257812 193.203125 132.152344 192.320312 132.0625 191.460938 L 132.035156 191.195312 C 131.949219 190.347656 131.871094 189.515625 131.816406 188.722656 L 131.808594 188.652344 C 131.574219 185.417969 131.550781 182.601562 131.679688 180.167969 L 131.707031 179.667969 C 131.734375 179.195312 131.769531 178.746094 131.808594 178.304688 C 131.828125 178.101562 131.851562 177.90625 131.867188 177.707031 C 131.914062 177.304688 131.957031 176.910156 132.007812 176.539062 C 132.035156 176.332031 132.066406 176.144531 132.09375 175.945312 C 132.148438 175.597656 132.199219 175.242188 132.261719 174.917969 L 132.367188 174.390625 C 132.476562 173.867188 132.589844 173.375 132.710938 172.917969 C 132.769531 172.699219 132.828125 172.476562 132.886719 172.269531 C 132.949219 172.074219 133.011719 171.894531 133.070312 171.710938 C 133.140625 171.511719 133.207031 171.3125 133.277344 171.128906 L 133.460938 170.671875 L 133.691406 170.164062 L 133.871094 169.800781 L 134.132812 169.355469 L 134.292969 169.101562 L 134.664062 168.628906 L 134.707031 168.574219 C 136.417969 166.761719 142.246094 164.480469 153.359375 164.480469 C 154.210938 164.480469 155.101562 164.5 156.011719 164.527344 L 156.546875 164.546875 C 157.460938 164.582031 158.398438 164.621094 159.378906 164.683594 L 159.394531 164.6875 C 160.410156 164.753906 161.46875 164.839844 162.554688 164.941406 L 163.023438 164.988281 C 164.078125 165.089844 165.160156 165.207031 166.277344 165.347656 L 166.367188 165.355469 C 167.570312 165.507812 168.816406 165.679688 170.09375 165.871094 L 170.320312 165.910156 C 171.582031 166.101562 172.878906 166.316406 174.210938 166.554688 L 174.265625 166.566406 C 188.242188 169.066406 206.320312 174.136719 229.167969 183.367188 L 229.203125 183.382812 C 217.480469 193.425781 206.324219 204.109375 195.785156 215.378906 L 195.738281 215.363281 C 192.128906 219.222656 188.570312 223.132812 185.101562 227.128906 L 185.121094 227.175781 C 191.292969 242.261719 200.644531 261.519531 214.851562 285.597656 C 215.308594 286.375 215.792969 287.164062 216.257812 287.945312 C 226.351562 274.496094 237.460938 261.664062 249.5625 249.558594 C 301.410156 197.714844 366.511719 163.984375 437.21875 151.414062 C 413.484375 155.671875 390.558594 162.296875 368.703125 171.046875 C 318.050781 222.136719 280.710938 285.175781 260.527344 354.589844 C 274.957031 374.417969 290.753906 394.660156 307.746094 415.132812 C 326.125 300.925781 396.707031 201.015625 499.632812 145.832031 C 497.882812 145.832031 496.140625 145.867188 494.394531 145.894531 C 496.140625 145.867188 497.886719 145.828125 499.640625 145.828125 L 499.632812 145.832031 L 500 145.832031 C 594.601562 145.832031 683.539062 182.675781 750.433594 249.566406 C 817.328125 316.457031 854.167969 405.398438 854.167969 500 C 854.167969 594.601562 817.328125 683.542969 750.433594 750.433594 C 743.273438 757.589844 735.851562 764.382812 728.210938 770.84375 L 728.238281 770.859375 C 729.082031 771.296875 729.929688 771.746094 730.765625 772.179688 C 755.570312 784.921875 775.355469 793.113281 790.777344 798.386719 C 799.179688 790.199219 807.253906 781.679688 814.941406 772.816406 L 815.113281 772.617188 C 817.066406 770.359375 818.992188 768.074219 820.898438 765.773438 C 821.277344 765.316406 821.660156 764.859375 822.035156 764.398438 C 823.796875 762.257812 825.539062 760.09375 827.257812 757.914062 C 827.703125 757.351562 828.144531 756.78125 828.585938 756.214844 C 883.773438 685.542969 916.667969 596.613281 916.667969 500 C 916.667969 269.882812 730.117188 83.332031 500 83.332031 C 430.546875 83.332031 365.078125 100.355469 307.496094 130.417969 L 307.96875 130.164062 C 296.117188 124.171875 284.605469 118.742188 273.457031 113.882812 L 273.425781 113.867188 C 272.941406 113.65625 272.46875 113.460938 271.984375 113.253906 C 269.722656 112.273438 267.460938 111.300781 265.226562 110.367188 L 264.980469 110.265625 C 262.339844 109.164062 259.71875 108.097656 257.121094 107.058594 L 256.65625 106.878906 C 254.132812 105.878906 251.628906 104.902344 249.148438 103.964844 C 248.90625 103.871094 248.667969 103.789062 248.425781 103.695312 C 246.035156 102.792969 243.660156 101.917969 241.304688 101.078125 C 240.96875 100.957031 240.636719 100.84375 240.296875 100.722656 C 238.042969 99.921875 235.800781 99.140625 233.582031 98.394531 C 233.160156 98.253906 232.738281 98.121094 232.316406 97.980469 C 230.195312 97.273438 228.082031 96.582031 225.996094 95.929688 C 225.460938 95.761719 224.9375 95.609375 224.40625 95.445312 C 222.441406 94.835938 220.476562 94.238281 218.542969 93.671875 C 217.894531 93.484375 217.261719 93.316406 216.621094 93.132812 C 214.804688 92.617188 212.992188 92.105469 211.203125 91.625 C 210.46875 91.429688 209.753906 91.257812 209.023438 91.066406 C 207.339844 90.632812 205.65625 90.195312 203.996094 89.796875 C 203.164062 89.59375 202.347656 89.417969 201.515625 89.226562 C 199.984375 88.871094 198.445312 88.507812 196.929688 88.183594 C 195.980469 87.980469 195.050781 87.804688 194.109375 87.613281 C 192.734375 87.335938 191.351562 87.042969 189.996094 86.789062 C 188.898438 86.582031 187.824219 86.414062 186.734375 86.226562 C 185.570312 86.023438 184.394531 85.804688 183.242188 85.621094 C 181.03125 85.273438 178.757812 84.957031 176.433594 84.667969 L 176.066406 84.625 C 173.859375 84.355469 171.613281 84.121094 169.328125 83.917969 C 169.128906 83.898438 168.925781 83.882812 168.722656 83.867188 C 166.464844 83.675781 164.171875 83.527344 161.855469 83.417969 C 161.667969 83.410156 161.476562 83.394531 161.285156 83.386719 C 158.871094 83.28125 156.429688 83.222656 153.96875 83.222656 L 153.710938 83.21875 C 152.179688 83.222656 150.636719 83.246094 149.089844 83.292969 C 148.773438 83.300781 148.457031 83.316406 148.136719 83.328125 C 146.8125 83.371094 145.484375 83.441406 144.152344 83.519531 C 143.882812 83.539062 143.609375 83.550781 143.335938 83.570312 C 141.785156 83.675781 140.230469 83.804688 138.675781 83.960938 C 138.402344 83.988281 138.128906 84.019531 137.855469 84.050781 C 136.527344 84.191406 135.203125 84.355469 133.875 84.539062 C 133.535156 84.582031 133.195312 84.628906 132.859375 84.675781 C 131.296875 84.902344 129.734375 85.152344 128.179688 85.441406 L 127.695312 85.539062 C 126.296875 85.800781 124.898438 86.097656 123.503906 86.410156 C 123.140625 86.492188 122.773438 86.574219 122.414062 86.660156 C 119.324219 87.390625 116.25 88.253906 113.210938 89.257812 C 112.847656 89.378906 112.484375 89.5 112.125 89.625 C 110.777344 90.089844 109.433594 90.578125 108.097656 91.101562 L 107.5625 91.304688 C 106.078125 91.894531 104.601562 92.535156 103.136719 93.203125 C 102.804688 93.355469 102.472656 93.515625 102.140625 93.675781 C 100.914062 94.253906 99.699219 94.859375 98.492188 95.492188 C 98.210938 95.640625 97.925781 95.785156 97.644531 95.9375 C 96.222656 96.707031 94.816406 97.515625 93.425781 98.367188 C 93.148438 98.539062 92.878906 98.71875 92.605469 98.890625 C 91.441406 99.621094 90.292969 100.382812 89.15625 101.171875 C 88.835938 101.394531 88.511719 101.617188 88.191406 101.847656 C 86.839844 102.816406 85.507812 103.816406 84.199219 104.878906 L 83.695312 105.300781 C 82.546875 106.242188 81.414062 107.230469 80.296875 108.25 C 79.972656 108.546875 79.648438 108.839844 79.328125 109.140625 C 78.070312 110.328125 76.824219 111.542969 75.609375 112.832031 C 55.941406 133.683594 50.074219 160.261719 50.351562 185.167969 C 50.496094 198.214844 52.328125 210.804688 54.742188 221.875 C 62.605469 257.925781 80.855469 300.382812 108.988281 348.0625 C 109.574219 349.054688 110.183594 350.054688 110.773438 351.050781 C 93.058594 397.300781 83.332031 447.511719 83.332031 500 C 83.332031 730.117188 269.882812 916.667969 500 916.667969 C 561.109375 916.667969 619.128906 903.488281 671.414062 879.847656 L 671.453125 879.871094 C 672.503906 880.414062 673.558594 880.976562 674.601562 881.511719 C 723.847656 906.808594 767.296875 922.542969 803.746094 928.285156 C 812.792969 929.710938 822.800781 930.695312 833.191406 930.695312 C 860.195312 930.695312 889.738281 924.027344 911.382812 901.078125 C 934.800781 876.257812 938.648438 843.324219 935.863281 814.746094 Z M 459.636719 148.132812 C 455.761719 148.574219 451.90625 149.082031 448.070312 149.648438 C 451.914062 149.085938 455.765625 148.570312 459.636719 148.132812 Z M 145.832031 500 C 145.832031 498.988281 145.835938 497.976562 145.847656 496.964844 L 145.871094 496.976562 C 146.089844 470.269531 149.261719 444.03125 155.207031 418.628906 L 155.304688 418.765625 C 158.535156 423.28125 161.832031 427.8125 165.183594 432.359375 C 165.453125 432.726562 165.726562 433.089844 165.996094 433.457031 C 169.296875 437.921875 172.648438 442.398438 176.066406 446.894531 L 176.117188 446.960938 C 179.574219 451.515625 183.101562 456.078125 186.671875 460.652344 C 187.027344 461.109375 187.386719 461.566406 187.746094 462.023438 C 191.246094 466.492188 194.792969 470.972656 198.398438 475.460938 L 198.472656 475.550781 C 202.117188 480.097656 205.832031 484.648438 209.585938 489.210938 C 210.058594 489.789062 210.539062 490.367188 211.015625 490.941406 C 214.648438 495.339844 218.324219 499.746094 222.050781 504.160156 L 222.289062 504.4375 C 226.085938 508.929688 229.945312 513.425781 233.835938 517.929688 C 234.457031 518.648438 235.082031 519.363281 235.703125 520.082031 C 236.683594 521.207031 237.6875 522.335938 238.671875 523.464844 C 234.265625 522.722656 229.894531 521.871094 225.519531 521.003906 C 223.925781 520.6875 222.328125 520.371094 220.730469 520.058594 C 218.984375 519.710938 217.230469 519.398438 215.472656 519.085938 C 212.609375 518.578125 209.738281 518.066406 206.894531 517.394531 C 197.894531 515.230469 189.105469 512.519531 180.3125 509.6875 C 176.269531 508.433594 172.230469 507.1875 168.269531 505.769531 C 160.683594 503.066406 153.207031 500.128906 145.871094 496.972656 C 145.863281 497.984375 145.832031 498.988281 145.832031 500 Z M 500 854.167969 C 405.398438 854.167969 316.457031 817.324219 249.566406 750.433594 C 197.761719 698.628906 164.035156 633.585938 151.4375 562.945312 C 153.324219 563.570312 155.214844 564.171875 157.109375 564.773438 C 158.53125 565.226562 159.953125 565.679688 161.371094 566.140625 C 163.203125 566.726562 165.019531 567.351562 166.832031 567.976562 C 169.929688 569.042969 173.027344 570.105469 176.207031 570.972656 C 176.945312 571.195312 177.699219 571.371094 178.449219 571.550781 C 178.96875 571.671875 179.488281 571.792969 179.996094 571.929688 C 181.332031 572.300781 182.691406 572.582031 184.046875 572.863281 L 184.050781 572.863281 L 184.050781 572.867188 C 184.984375 573.058594 185.914062 573.253906 186.832031 573.472656 C 194.082031 575.347656 201.371094 576.929688 208.707031 578.390625 C 209.761719 578.613281 210.796875 578.875 211.832031 579.132812 C 213.453125 579.539062 215.070312 579.941406 216.746094 580.222656 C 217.109375 580.289062 217.46875 580.34375 217.832031 580.398438 L 217.835938 580.398438 L 218.199219 580.457031 L 218.511719 580.507812 L 218.789062 580.550781 C 220.390625 580.839844 222.015625 581.015625 223.648438 581.195312 L 223.652344 581.195312 C 224.867188 581.324219 226.082031 581.457031 227.289062 581.636719 C 236.578125 583.09375 245.914062 584.34375 255.328125 585.222656 C 255.851562 585.242188 256.359375 585.316406 256.871094 585.386719 C 257.382812 585.457031 257.890625 585.53125 258.414062 585.550781 L 258.414062 585.597656 C 269.078125 586.425781 279.746094 587.097656 290.621094 587.222656 C 290.925781 587.222656 291.234375 587.238281 291.546875 587.261719 C 291.871094 587.285156 292.199219 587.304688 292.539062 587.304688 C 294.136719 587.304688 295.738281 587.285156 297.335938 587.261719 C 298.453125 588.421875 299.554688 589.582031 300.679688 590.742188 C 300.945312 591.015625 301.203125 591.289062 301.472656 591.5625 C 305.605469 595.816406 309.789062 600.066406 313.996094 604.304688 C 315.066406 605.386719 316.136719 606.460938 317.207031 607.539062 C 321.226562 611.570312 325.265625 615.597656 329.339844 619.617188 C 329.601562 619.875 329.859375 620.132812 330.121094 620.390625 C 334.378906 624.582031 338.675781 628.757812 342.992188 632.929688 C 344.152344 634.050781 345.316406 635.171875 346.484375 636.292969 C 350.703125 640.347656 354.945312 644.398438 359.222656 648.433594 L 359.660156 648.851562 L 360.109375 649.273438 C 364.386719 653.304688 368.671875 657.292969 372.960938 661.265625 C 374.160156 662.371094 375.351562 663.476562 376.550781 664.578125 C 380.957031 668.636719 385.367188 672.675781 389.789062 676.667969 C 390.089844 676.941406 390.394531 677.207031 390.695312 677.480469 C 394.917969 681.289062 399.144531 685.0625 403.378906 688.808594 C 404.523438 689.828125 405.675781 690.847656 406.824219 691.859375 C 411.292969 695.796875 415.765625 699.714844 420.242188 703.585938 C 420.570312 703.871094 420.902344 704.148438 421.234375 704.433594 C 425.484375 708.105469 429.738281 711.734375 433.992188 715.339844 C 435.058594 716.242188 436.121094 717.144531 437.1875 718.042969 C 441.351562 721.554688 445.515625 725.035156 449.679688 728.480469 C 362.054688 742.699219 270.957031 725.382812 193.558594 677.433594 C 216.167969 716.332031 245.96875 750.550781 281.125 778.261719 C 355.832031 797.882812 434.804688 797.316406 509.664062 775.878906 C 510.390625 776.429688 511.125 776.996094 511.855469 777.542969 L 512.300781 777.875 C 516.867188 781.300781 521.425781 784.671875 525.980469 788.003906 C 526.609375 788.460938 527.238281 788.921875 527.867188 789.382812 C 532.617188 792.847656 537.359375 796.269531 542.082031 799.632812 L 542.339844 799.816406 C 546.984375 803.113281 551.613281 806.359375 556.230469 809.554688 C 556.722656 809.898438 557.214844 810.238281 557.707031 810.578125 C 562.464844 813.867188 567.210938 817.105469 571.941406 820.28125 L 572.160156 820.425781 C 576.796875 823.539062 581.414062 826.589844 586.019531 829.589844 C 586.421875 829.855469 586.828125 830.121094 587.230469 830.382812 C 591.945312 833.449219 596.640625 836.460938 601.316406 839.410156 L 601.414062 839.472656 C 568.925781 849.144531 534.851562 854.167969 500 854.167969 Z M 113.210938 89.257812 C 116.253906 88.253906 119.324219 87.390625 122.414062 86.660156 C 119.324219 87.390625 116.253906 88.253906 113.210938 89.257812 Z M 636.394531 715.558594 C 640.332031 712.796875 644.230469 710.003906 648.074219 707.160156 C 651.007812 714.046875 653.367188 721.050781 655.742188 728.097656 L 655.863281 728.449219 C 680.746094 744.554688 704.933594 758.757812 728.054688 770.765625 C 728.289062 770.566406 728.527344 770.375 728.761719 770.179688 C 728.382812 768.371094 727.984375 766.574219 727.585938 764.765625 C 727.242188 763.226562 726.902344 761.679688 726.570312 760.125 C 726.191406 758.351562 725.847656 756.578125 725.496094 754.804688 C 724.847656 751.5 724.203125 748.199219 723.363281 744.917969 C 723.027344 743.667969 722.652344 742.375 722.277344 741.125 C 721.992188 739.933594 721.613281 738.777344 721.230469 737.617188 C 720.894531 736.589844 720.554688 735.558594 720.277344 734.5 C 718.238281 727.253906 715.945312 720.128906 713.570312 713.042969 C 713.164062 711.839844 712.8125 710.621094 712.457031 709.402344 C 712.050781 707.996094 711.644531 706.589844 711.152344 705.207031 C 711.027344 704.875 710.894531 704.550781 710.757812 704.226562 C 710.621094 703.90625 710.488281 703.582031 710.363281 703.246094 C 709.824219 701.746094 709.175781 700.269531 708.527344 698.789062 C 708.027344 697.640625 707.523438 696.492188 707.070312 695.332031 C 703.652344 686.539062 700.113281 677.871094 696.113281 669.246094 C 695.925781 668.839844 695.757812 668.421875 695.585938 668 C 695.375 667.476562 695.160156 666.945312 694.902344 666.414062 C 690.363281 656.828125 685.652344 647.246094 680.320312 637.871094 C 680.191406 637.632812 680.078125 637.382812 679.960938 637.136719 C 679.777344 636.742188 679.597656 636.355469 679.363281 635.992188 C 658.199219 599.367188 631.238281 566.746094 600.53125 537.910156 C 600.238281 537.640625 599.964844 537.355469 599.699219 537.078125 C 599.4375 536.804688 599.175781 536.535156 598.910156 536.289062 C 597.785156 535.226562 596.589844 534.234375 595.394531 533.242188 L 595.394531 533.238281 C 594.996094 532.910156 594.597656 532.578125 594.203125 532.242188 C 584.410156 523.410156 574.410156 514.914062 563.828125 506.992188 C 563.078125 506.441406 562.363281 505.828125 561.648438 505.222656 C 560.859375 504.546875 560.074219 503.875 559.242188 503.285156 C 557.464844 501.96875 555.574219 500.820312 553.683594 499.671875 C 552.167969 498.753906 550.648438 497.828125 549.203125 496.828125 C 546.917969 495.257812 544.675781 493.617188 542.429688 491.980469 L 542.429688 491.976562 C 538.65625 489.222656 534.882812 486.464844 530.914062 484.035156 C 531.078125 476.699219 531.414062 469.410156 531.996094 462.117188 C 532.164062 460.105469 532.296875 458.082031 532.433594 456.058594 C 532.699219 452.046875 532.96875 448.023438 533.496094 444.035156 C 534.351562 437.445312 535.691406 430.980469 537.039062 424.503906 L 537.039062 424.5 C 537.402344 422.75 537.765625 420.996094 538.121094 419.242188 C 545.039062 385.285156 556.289062 352.328125 572.289062 321.492188 C 572.515625 321.097656 572.695312 320.695312 572.875 320.292969 C 572.996094 320.027344 573.113281 319.761719 573.246094 319.492188 C 589.289062 325.953125 605.164062 333.203125 620.539062 342.035156 C 740.332031 411.21875 811.152344 540.082031 806.902344 676.644531 C 828.894531 638.582031 844.011719 596.070312 850.542969 550.816406 C 821.191406 443.019531 750.851562 348.578125 650.269531 290.507812 C 635.605469 282.046875 620.5625 274.757812 605.355469 268.214844 C 609.683594 262.5 614.339844 257.167969 618.996094 251.84375 C 620.074219 250.609375 621.152344 249.371094 622.230469 248.136719 C 623.457031 246.738281 624.65625 245.320312 625.851562 243.902344 C 627.695312 241.71875 629.535156 239.539062 631.480469 237.46875 C 637.855469 230.71875 644.6875 224.46875 651.480469 218.300781 L 652.769531 217.113281 C 655.457031 214.640625 658.128906 212.171875 660.894531 209.800781 C 667.027344 204.628906 673.265625 199.632812 679.667969 194.863281 C 660.753906 183.683594 640.710938 174.214844 619.765625 166.664062 C 618.433594 167.859375 617.113281 169.0625 615.792969 170.265625 L 615.785156 170.273438 C 614.527344 171.417969 613.273438 172.558594 612.015625 173.695312 C 610.542969 175.039062 609.046875 176.339844 607.550781 177.648438 C 605.144531 179.75 602.742188 181.851562 600.429688 184.109375 C 599.515625 185.023438 598.597656 185.984375 597.722656 186.902344 C 596.785156 187.816406 595.898438 188.796875 595.015625 189.777344 C 594.328125 190.539062 593.640625 191.296875 592.929688 192.027344 C 587.722656 197.402344 582.679688 202.859375 577.722656 208.527344 C 576.914062 209.449219 576.066406 210.335938 575.210938 211.226562 C 574.171875 212.3125 573.125 213.402344 572.140625 214.570312 C 571.945312 214.800781 571.753906 215.050781 571.554688 215.308594 C 571.328125 215.601562 571.09375 215.902344 570.851562 216.191406 C 569.808594 217.421875 568.851562 218.730469 567.886719 220.042969 L 567.886719 220.046875 C 567.152344 221.046875 566.417969 222.054688 565.640625 223.027344 C 559.726562 230.363281 553.976562 237.777344 548.558594 245.484375 C 548.289062 245.867188 548.007812 246.222656 547.730469 246.574219 C 547.367188 247.035156 547.011719 247.488281 546.683594 247.984375 C 540.640625 256.734375 534.726562 265.648438 529.226562 274.941406 C 529.019531 275.300781 528.785156 275.644531 528.546875 275.988281 L 528.375 276.238281 L 528.101562 276.648438 C 506.933594 313.273438 492.183594 352.984375 482.601562 394.023438 C 482.515625 394.378906 482.402344 394.742188 482.289062 395.109375 C 482.171875 395.476562 482.058594 395.839844 481.976562 396.195312 C 481.671875 397.507812 481.445312 398.839844 481.214844 400.164062 L 481.214844 400.167969 C 481.097656 400.859375 480.980469 401.550781 480.851562 402.234375 C 478.101562 415.148438 475.765625 428.109375 474.183594 441.273438 C 474.070312 442.148438 473.902344 443.019531 473.738281 443.894531 L 473.738281 443.898438 C 473.539062 444.945312 473.339844 446.003906 473.226562 447.066406 C 472.992188 449.257812 472.945312 451.488281 472.894531 453.714844 C 472.855469 455.46875 472.816406 457.214844 472.683594 458.941406 C 472.464844 461.769531 472.160156 464.578125 471.855469 467.390625 L 471.855469 467.394531 C 471.355469 471.988281 470.855469 476.578125 470.726562 481.234375 C 464.308594 484.773438 457.851562 488.109375 451.269531 491.234375 C 449.402344 492.113281 447.546875 493.023438 445.695312 493.933594 L 445.691406 493.933594 C 442.089844 495.707031 438.496094 497.472656 434.808594 498.984375 C 428.824219 501.480469 422.691406 503.511719 416.542969 505.546875 C 414.6875 506.160156 412.832031 506.773438 410.976562 507.402344 C 405.921875 509.085938 400.835938 510.660156 395.726562 512.136719 C 411.171875 527.847656 427.148438 543.511719 443.609375 559.050781 C 449.8125 556.773438 455.960938 554.351562 462.054688 551.722656 C 462.890625 551.371094 463.753906 551.074219 464.617188 550.78125 L 464.621094 550.78125 C 465.609375 550.441406 466.601562 550.105469 467.554688 549.679688 C 469.523438 548.800781 471.417969 547.757812 473.308594 546.71875 L 473.308594 546.714844 C 474.90625 545.839844 476.5 544.960938 478.140625 544.179688 C 480.605469 543.011719 483.097656 541.910156 485.589844 540.808594 C 489.917969 538.902344 494.238281 536.996094 498.390625 534.722656 C 504.683594 538.511719 510.804688 542.472656 516.804688 546.640625 C 518.261719 547.636719 519.730469 548.609375 521.199219 549.585938 L 521.199219 549.589844 C 524.777344 551.96875 528.355469 554.34375 531.71875 556.972656 C 536.578125 560.683594 541.132812 564.726562 545.679688 568.761719 C 547.410156 570.296875 549.140625 571.832031 550.886719 573.347656 C 576.84375 596.390625 599.800781 622.597656 618.511719 651.890625 C 618.699219 652.199219 618.894531 652.492188 619.09375 652.785156 L 619.351562 653.167969 L 619.539062 653.457031 L 619.675781 653.679688 C 608.496094 662.425781 596.878906 670.789062 584.535156 678.460938 C 602.019531 691.617188 619.347656 704.015625 636.394531 715.558594 Z M 636.394531 715.558594"/></svg>