<svg xmlns="http://www.w3.org/2000/svg" width="1000pt" height="1000pt" viewBox="0 0 1000 1000"><path d="M 227.332031 479.703125 C 254.679688 443.476562 283.914062 408.222656 314.683594 374.355469 C 290.941406 356.898438 266.515625 340.25 241.589844 324.527344 C 212.039062 367.964844 193.890625 418.195312 188.90625 470.453125 C 201.691406 473.742188 214.515625 476.832031 227.332031 479.703125 Z M 499.382812 177.851562 C 484.054688 177.851562 468.769531 178.265625 453.542969 179.09375 C 469.277344 191.074219 484.890625 203.140625 500.410156 215.320312 C 515.890625 203.191406 531.503906 191.140625 547.199219 179.203125 C 531.320312 178.304688 515.371094 177.851562 499.382812 177.851562 Z M 811.09375 470.453125 C 806.117188 418.355469 788.070312 368.28125 758.695312 324.945312 C 733.902344 340.578125 709.601562 357.128906 685.972656 374.472656 C 716.644531 408.273438 745.785156 443.457031 773.054688 479.617188 C 785.746094 476.773438 798.445312 473.714844 811.09375 470.453125 Z M 662.796875 766.671875 C 659.964844 761.644531 657.113281 756.660156 654.242188 751.71875 C 603.214844 756.925781 551.453125 759.558594 500.003906 759.558594 C 448.667969 759.558594 397.019531 756.9375 346.089844 751.753906 C 343.191406 756.730469 340.316406 761.753906 337.457031 766.824219 C 386.296875 796.804688 441.847656 812.5 500.003906 812.5 C 558.261719 812.5 613.902344 796.75 662.796875 766.671875 Z M 500.003906 613.730469 C 536.882812 613.730469 573.535156 612.238281 609.925781 609.324219 C 633.925781 607.402344 657.816406 604.851562 681.578125 601.664062 C 696.925781 599.605469 712.214844 597.277344 727.457031 594.695312 C 749.753906 590.914062 771.933594 586.574219 793.980469 581.667969 C 811.902344 577.683594 829.734375 573.308594 847.480469 568.589844 C 869.726562 562.671875 891.828125 556.179688 913.777344 549.105469 C 915.664062 532.996094 916.667969 516.617188 916.667969 500 C 916.667969 494.105469 916.515625 488.246094 916.273438 482.414062 C 912.449219 390.378906 878.78125 306.070312 824.683594 238.886719 C 811.121094 222.046875 796.300781 206.265625 780.324219 191.726562 C 760.808594 202.277344 741.582031 213.296875 722.644531 224.785156 C 672.832031 255.003906 625.019531 288.398438 579.421875 324.945312 C 569.234375 315.253906 558.914062 305.730469 548.484375 296.359375 C 592.292969 260.921875 638.078125 228.292969 685.699219 198.546875 C 705.304688 186.300781 725.238281 174.566406 745.457031 163.308594 C 726.28125 149.300781 705.863281 136.894531 684.394531 126.285156 C 628.804688 98.804688 566.214844 83.332031 500 83.332031 C 434.007812 83.332031 371.613281 98.699219 316.160156 126.011719 C 294.664062 136.597656 274.214844 148.980469 255.007812 162.972656 C 275.234375 174.242188 295.167969 185.992188 314.777344 198.25 C 362.480469 228.074219 408.339844 260.792969 452.214844 296.332031 C 468.527344 309.546875 484.582031 323.136719 500.339844 337.128906 C 510.773438 346.390625 521.070312 355.835938 531.257812 365.4375 C 541.476562 375.066406 551.582031 384.84375 561.550781 394.808594 C 566.378906 399.640625 571.160156 404.511719 575.914062 409.402344 C 615.542969 450.195312 652.429688 493.058594 686.488281 537.867188 C 670.542969 540.171875 654.535156 542.183594 638.464844 543.894531 C 609.304688 506.941406 578.125 471.390625 544.964844 437.339844 C 540.703125 432.964844 536.414062 428.605469 532.085938 424.277344 C 521.644531 413.835938 511.046875 403.601562 500.320312 393.539062 C 490.140625 383.996094 479.835938 374.621094 469.402344 365.417969 C 453.644531 351.519531 437.601562 338.007812 421.269531 324.902344 C 375.589844 288.238281 327.695312 254.746094 277.785156 224.445312 C 258.84375 212.949219 239.613281 201.917969 220.09375 191.355469 C 204.089844 205.878906 189.242188 221.640625 175.660156 238.464844 C 121.363281 305.714844 87.558594 390.1875 83.730469 482.414062 C 83.488281 488.246094 83.332031 494.105469 83.332031 500 C 83.332031 516.617188 84.335938 532.996094 86.230469 549.101562 C 108.175781 556.175781 130.28125 562.671875 152.523438 568.589844 C 170.382812 573.339844 188.328125 577.738281 206.363281 581.742188 C 198.273438 594.058594 190.394531 606.519531 182.683594 619.082031 C 176.761719 617.699219 170.851562 616.261719 164.945312 614.800781 C 141.238281 608.929688 117.683594 602.429688 94.296875 595.296875 C 100.132812 620.222656 108.214844 644.277344 118.300781 667.257812 C 123.515625 679.140625 129.265625 690.730469 135.523438 702.003906 C 147.140625 722.917969 160.503906 742.722656 175.417969 761.230469 C 185.703125 740.476562 196.511719 720.035156 207.789062 699.875 C 209.683594 696.488281 211.5625 693.089844 213.484375 689.722656 C 224.496094 670.414062 235.972656 651.394531 247.894531 632.65625 C 256.023438 619.886719 264.371094 607.253906 272.917969 594.757812 C 286.097656 575.484375 299.765625 556.535156 313.925781 537.921875 C 348.050781 493.074219 385.007812 450.171875 424.722656 409.355469 C 435.160156 418.496094 445.472656 427.808594 455.644531 437.308594 C 422.425781 471.382812 391.191406 506.957031 361.980469 543.941406 C 347.058594 562.832031 332.667969 582.09375 318.816406 601.714844 C 309.882812 614.367188 301.164062 627.164062 292.675781 640.113281 C 280.300781 659.003906 268.410156 678.210938 256.996094 697.714844 C 249.703125 710.179688 242.605469 722.769531 235.707031 735.480469 C 225.148438 754.9375 215.066406 774.679688 205.449219 794.699219 C 220.730469 809.972656 237.207031 824.039062 254.699219 836.800781 C 323.515625 887.011719 408.289062 916.667969 500 916.667969 C 591.804688 916.667969 676.65625 886.953125 745.511719 836.652344 C 763.003906 823.875 779.476562 809.789062 794.75 794.507812 C 785.136719 774.480469 775.054688 754.722656 764.496094 735.257812 C 757.636719 722.605469 750.578125 710.074219 743.328125 697.664062 C 757.871094 695.214844 772.375 692.558594 786.824219 689.667969 C 788.707031 692.964844 790.542969 696.296875 792.398438 699.613281 C 803.675781 719.785156 814.488281 740.238281 824.769531 761.007812 C 839.679688 742.476562 853.035156 722.652344 864.640625 701.714844 C 870.839844 690.539062 876.535156 679.042969 881.703125 667.261719 C 891.789062 644.285156 899.871094 620.230469 905.707031 595.300781 C 882.316406 602.433594 858.765625 608.9375 835.058594 614.804688 C 829.261719 616.238281 823.460938 617.652344 817.644531 619.011719 C 796.035156 624.066406 774.296875 628.597656 752.449219 632.597656 C 737.578125 635.324219 722.660156 637.828125 707.6875 640.0625 C 684.628906 643.507812 661.449219 646.371094 638.160156 648.660156 C 592.503906 653.136719 546.425781 655.394531 500.007812 655.394531 C 453.710938 655.394531 407.765625 653.148438 362.234375 648.691406 C 371.402344 635.410156 380.828125 622.296875 390.507812 609.359375 C 426.753906 612.253906 463.261719 613.730469 500.003906 613.730469 Z M 500.367188 254.945312 C 461.976562 223.347656 422.082031 193.867188 380.820312 166.488281 C 418.082031 153.132812 458.203125 145.832031 500.003906 145.832031 C 542.019531 145.832031 582.347656 153.207031 619.773438 166.699219 C 578.566406 194.015625 538.714844 223.421875 500.367188 254.945312 Z M 624.066406 369.300781 C 670.117188 332.804688 718.488281 299.636719 768.984375 269.871094 C 822.058594 331.816406 854.167969 412.226562 854.167969 500 C 854.167969 500.644531 854.144531 501.28125 854.144531 501.925781 C 821.585938 511.242188 788.699219 519.265625 755.503906 525.953125 C 715.617188 470.980469 671.753906 418.699219 624.066406 369.300781 Z M 244.875 526.023438 C 211.554688 519.324219 178.539062 511.273438 145.859375 501.925781 C 145.855469 501.28125 145.835938 500.644531 145.835938 500 C 145.835938 412.039062 178.078125 331.472656 231.355469 269.476562 C 281.96875 299.328125 330.445312 332.605469 376.59375 369.222656 C 328.800781 418.660156 284.839844 470.992188 244.875 526.023438 Z M 500.289062 481.046875 C 521.941406 503.285156 542.707031 526.1875 562.578125 549.734375 C 541.796875 550.722656 520.941406 551.230469 500 551.230469 C 479.222656 551.230469 458.519531 550.730469 437.902344 549.757812 C 457.804688 526.199219 478.605469 503.292969 500.289062 481.046875 Z M 500.003906 717.894531 C 559.351562 717.894531 618.160156 714.351562 676.292969 707.347656 C 690.714844 730.925781 704.332031 755.011719 717.226562 779.527344 C 657.203125 826.277344 581.800781 854.167969 500.003906 854.167969 C 418.300781 854.167969 342.988281 826.347656 283 779.699219 C 295.929688 755.136719 309.589844 731.007812 324.054688 707.386719 C 382.074219 714.363281 440.765625 717.894531 500.003906 717.894531 Z M 500.003906 717.894531"/></svg>