<svg xmlns="http://www.w3.org/2000/svg" width="1000pt" height="1000pt" viewBox="0 0 1000 1000"><path d="M 500 83.332031 C 269.882812 83.332031 83.332031 269.882812 83.332031 500 C 83.332031 730.117188 269.882812 916.667969 500 916.667969 C 730.117188 916.667969 916.667969 730.117188 916.667969 500 C 916.667969 269.882812 730.117188 83.332031 500 83.332031 Z M 273.535156 772.105469 C 257.464844 758.707031 242.597656 743.921875 229.121094 727.925781 C 281.109375 666.285156 312.503906 586.761719 312.503906 500.007812 C 312.503906 413.253906 281.109375 333.707031 229.121094 272.078125 C 242.601562 256.082031 257.464844 241.292969 273.535156 227.898438 C 336.703125 300.871094 375 395.902344 375 500.003906 C 375 604.101562 336.703125 699.128906 273.535156 772.105469 Z M 770.863281 727.949219 C 757.390625 743.933594 742.527344 758.714844 726.464844 772.105469 C 663.300781 699.128906 625.003906 604.097656 625.003906 500.003906 C 625.003906 395.902344 663.300781 300.871094 726.464844 227.898438 C 742.527344 241.289062 757.394531 256.074219 770.867188 272.0625 C 718.878906 333.703125 687.5 413.238281 687.5 500.003906 C 687.503906 586.761719 718.875 666.320312 770.863281 727.949219 Z M 770.863281 727.949219"/></svg>