<svg xmlns="http://www.w3.org/2000/svg" width="1000pt" height="1000pt" viewBox="0 0 1000 1000"><path d="M 583.320312 208.332031 L 416.679688 208.332031 C 402.835938 208.332031 392.847656 221.582031 396.648438 234.890625 L 426.410156 318.222656 C 428.964844 327.167969 437.140625 333.332031 446.441406 333.332031 L 553.558594 333.332031 C 562.859375 333.332031 571.035156 327.167969 573.589844 318.222656 L 603.351562 234.890625 C 607.15625 221.582031 597.164062 208.332031 583.320312 208.332031 Z M 543.664062 393.609375 C 542.527344 383.027344 533.597656 375 522.949219 375 L 477.054688 375 C 466.410156 375 457.476562 383.027344 456.339844 393.613281 L 396.847656 707.0625 C 396.175781 713.328125 398.371094 719.558594 402.828125 724.015625 L 485.210938 806.398438 C 485.804688 806.992188 486.425781 807.523438 487.070312 808.03125 C 490.835938 811.003906 495.386719 812.503906 499.945312 812.503906 C 505.277344 812.503906 510.609375 810.464844 514.679688 806.398438 L 597.171875 723.882812 C 601.628906 719.425781 603.824219 713.195312 603.152344 706.929688 Z M 500 83.332031 C 269.882812 83.332031 83.332031 269.882812 83.332031 500 C 83.332031 730.117188 269.882812 916.667969 500 916.667969 C 730.117188 916.667969 916.667969 730.117188 916.667969 500 C 916.667969 269.882812 730.117188 83.332031 500 83.332031 Z M 500 854.167969 L 499.960938 854.167969 L 499.886719 854.164062 C 304.335938 854.105469 145.832031 695.5625 145.832031 500 C 145.832031 304.398438 304.398438 145.832031 500 145.832031 C 695.601562 145.832031 854.167969 304.398438 854.167969 500 C 854.167969 695.601562 695.601562 854.167969 500 854.167969 Z M 500 854.167969"/></svg>