<svg xmlns="http://www.w3.org/2000/svg" width="1000pt" height="1000pt" viewBox="0 0 1000 1000"><path d="M 936.960938 371.824219 C 932.527344 302.519531 902.070312 244.734375 851.195312 209.113281 C 800.328125 173.488281 735.605469 164.632812 668.964844 184.171875 C 603.996094 203.21875 544.757812 247.214844 502.15625 308.054688 C 459.554688 368.894531 438.476562 439.609375 442.796875 507.171875 C 444.167969 528.597656 448.035156 548.917969 454.210938 567.824219 L 448.335938 744.179688 C 436.589844 741.894531 424.066406 746.480469 416.761719 756.910156 L 333.113281 876.371094 C 323.214844 890.507812 326.648438 909.996094 340.789062 919.894531 L 357.855469 931.84375 C 371.992188 941.742188 391.476562 938.308594 401.378906 924.167969 L 485.023438 804.707031 C 492.328125 794.273438 492.351562 780.9375 486.191406 770.679688 L 649.925781 704.832031 C 669.796875 704.171875 690.207031 700.863281 710.796875 694.824219 C 775.765625 675.777344 835.007812 631.78125 877.605469 570.941406 C 920.203125 510.105469 941.285156 439.386719 936.960938 371.824219 Z M 490.699219 723.957031 L 493.550781 638.273438 C 503.820312 650.144531 515.511719 660.746094 528.5625 669.886719 C 541.613281 679.023438 555.585938 686.371094 570.257812 691.960938 Z M 843.472656 547.046875 C 792.394531 619.984375 716.441406 661.832031 646.414062 663.210938 C 646.058594 663.199219 645.703125 663.210938 645.347656 663.222656 C 611.867188 663.683594 579.773438 654.882812 552.457031 635.753906 C 525.164062 616.640625 505.925781 589.527344 494.902344 557.941406 C 494.777344 557.566406 494.660156 557.195312 494.511719 556.832031 C 471.867188 490.558594 485.214844 404.882812 536.285156 331.953125 C 588.230469 257.773438 665.90625 215.746094 736.910156 215.746094 C 769.488281 215.746094 800.664062 224.59375 827.296875 243.242188 C 867.59375 271.457031 891.769531 318.066406 895.382812 374.484375 C 899.101562 432.640625 880.664062 493.925781 843.472656 547.046875 Z M 400.769531 479.167969 C 403.003906 411.871094 426.363281 343.652344 468.023438 284.160156 C 516.03125 215.597656 583.230469 165.886719 657.242188 144.1875 C 667.320312 141.230469 677.421875 138.828125 687.496094 136.976562 L 687.496094 79.167969 C 687.496094 69.964844 680.035156 62.503906 670.832031 62.503906 L 79.167969 62.503906 C 69.960938 62.503906 62.5 69.964844 62.5 79.167969 L 62.5 462.5 C 62.5 471.703125 69.960938 479.167969 79.167969 479.167969 L 85.105469 479.167969 C 88.246094 460.515625 95.53125 443.261719 105.980469 428.367188 C 128.613281 396.125 166.046875 374.992188 208.339844 374.992188 C 254.511719 374.992188 294.882812 400.171875 316.535156 437.5 C 323.875 450.160156 329.058594 464.210938 331.578125 479.167969 Z M 104.167969 120.835938 C 104.167969 111.632812 111.628906 104.167969 120.832031 104.167969 L 162.425781 104.167969 L 104.167969 187.371094 Z M 104.167969 365.890625 L 104.167969 293.25 L 236.5625 104.167969 L 287.425781 104.167969 Z M 263.441406 437.5 C 248.753906 424.539062 229.472656 416.660156 208.339844 416.660156 C 187.207031 416.660156 167.929688 424.539062 153.238281 437.5 C 140.933594 448.359375 131.839844 462.78125 127.625 479.167969 C 125.914062 485.824219 125 492.804688 125 500 C 125 546.027344 162.3125 583.339844 208.339844 583.339844 C 254.367188 583.339844 291.679688 546.027344 291.679688 500 C 291.679688 492.804688 290.769531 485.824219 289.054688 479.167969 C 284.835938 462.78125 275.75 448.359375 263.441406 437.5 Z M 263.441406 437.5"/></svg>