<svg xmlns="http://www.w3.org/2000/svg" width="1000pt" height="1000pt" viewBox="0 0 1000 1000"><path d="M 936.960938 371.824219 C 932.527344 302.519531 902.070312 244.734375 851.195312 209.113281 C 800.328125 173.488281 735.605469 164.632812 668.964844 184.171875 C 603.996094 203.21875 544.757812 247.214844 502.15625 308.054688 C 459.554688 368.894531 438.476562 439.609375 442.796875 507.171875 C 444.167969 528.597656 448.035156 548.917969 454.210938 567.824219 L 448.335938 744.179688 C 436.589844 741.894531 424.066406 746.480469 416.761719 756.910156 L 333.113281 876.371094 C 323.214844 890.507812 326.648438 909.996094 340.789062 919.894531 L 357.855469 931.84375 C 371.992188 941.742188 391.476562 938.308594 401.378906 924.167969 L 485.023438 804.707031 C 492.328125 794.273438 492.351562 780.9375 486.191406 770.679688 L 649.925781 704.832031 C 669.796875 704.171875 690.207031 700.863281 710.796875 694.824219 C 775.765625 675.777344 835.007812 631.78125 877.605469 570.941406 C 920.203125 510.105469 941.285156 439.386719 936.960938 371.824219 Z M 490.699219 723.957031 L 493.550781 638.273438 C 503.820312 650.144531 515.511719 660.746094 528.5625 669.886719 C 541.613281 679.023438 555.585938 686.371094 570.257812 691.960938 Z M 843.472656 547.046875 C 792.394531 619.984375 716.441406 661.832031 646.414062 663.210938 C 646.058594 663.199219 645.703125 663.210938 645.347656 663.222656 C 611.867188 663.683594 579.773438 654.882812 552.457031 635.753906 C 525.164062 616.640625 505.925781 589.527344 494.902344 557.941406 C 494.777344 557.566406 494.660156 557.195312 494.511719 556.832031 C 471.867188 490.558594 485.214844 404.882812 536.285156 331.953125 C 588.230469 257.773438 665.90625 215.746094 736.910156 215.746094 C 769.488281 215.746094 800.664062 224.59375 827.296875 243.242188 C 867.59375 271.457031 891.769531 318.066406 895.382812 374.484375 C 899.101562 432.640625 880.664062 493.925781 843.472656 547.046875 Z M 400.769531 479.167969 C 403.003906 411.871094 426.363281 343.652344 468.023438 284.160156 C 516.03125 215.597656 583.230469 165.886719 657.242188 144.1875 C 667.320312 141.230469 677.421875 138.828125 687.496094 136.976562 L 687.496094 79.167969 C 687.496094 69.964844 680.035156 62.503906 670.832031 62.503906 L 79.167969 62.503906 C 69.960938 62.503906 62.5 69.964844 62.5 79.167969 L 62.5 462.5 C 62.5 471.703125 69.960938 479.167969 79.167969 479.167969 L 85.105469 479.167969 C 88.246094 460.515625 95.53125 443.261719 105.980469 428.367188 C 128.613281 396.125 166.046875 374.992188 208.339844 374.992188 C 254.511719 374.992188 294.882812 400.171875 316.535156 437.5 C 323.875 450.160156 329.058594 464.210938 331.578125 479.167969 Z M 104.167969 120.835938 C 104.167969 111.632812 111.628906 104.167969 120.832031 104.167969 L 162.425781 104.167969 L 104.167969 187.371094 Z M 104.167969 365.890625 L 104.167969 293.25 L 236.5625 104.167969 L 287.425781 104.167969 Z M 263.730469 437.5 C 261.339844 435.378906 258.820312 433.359375 256.136719 431.480469 C 223.855469 408.875 181.128906 412.363281 152.941406 437.5 C 148.207031 441.71875 143.871094 446.527344 140.078125 451.945312 C 134.125 460.445312 129.996094 469.675781 127.582031 479.167969 C 119.277344 511.777344 131.339844 547.558594 160.542969 568.007812 C 198.242188 594.402344 250.203125 585.242188 276.601562 547.542969 C 291.089844 526.851562 294.847656 501.867188 289.070312 479.167969 C 285.074219 463.449219 276.5 448.835938 263.730469 437.5 Z M 208.113281 437.5 C 207.605469 451.769531 203.859375 466.046875 196.644531 479.167969 C 195.027344 482.105469 193.242188 484.984375 191.277344 487.796875 C 180.46875 503.230469 165.808594 514.390625 149.503906 520.929688 C 147.078125 514.164062 145.824219 507.019531 145.816406 499.828125 C 155.671875 495.152344 164.585938 488.214844 171.722656 479.167969 C 172.574219 478.082031 173.414062 476.988281 174.210938 475.847656 C 181.699219 465.152344 185.886719 453.136719 187.03125 440.988281 C 192.101562 439.152344 197.386719 437.984375 202.742188 437.5 C 204.527344 437.335938 206.324219 437.253906 208.125 437.246094 Z M 242.414062 523.601562 C 234.917969 534.304688 230.730469 546.34375 229.589844 558.507812 C 222.828125 560.953125 215.691406 562.21875 208.5 562.25 C 209.066406 544.683594 214.539062 527.089844 225.351562 511.652344 C 235.828125 496.6875 249.941406 485.78125 265.652344 479.167969 C 266.136719 478.960938 266.613281 478.722656 267.101562 478.523438 C 267.175781 478.738281 267.226562 478.953125 267.300781 479.167969 C 269.585938 485.742188 270.789062 492.660156 270.804688 499.621094 C 259.773438 504.855469 249.902344 512.902344 242.414062 523.601562 Z M 242.414062 523.601562"/></svg>