<svg xmlns="http://www.w3.org/2000/svg" width="1000pt" height="1000pt" viewBox="0 0 1000 1000"><path d="M 276.597656 547.417969 C 302.992188 509.714844 293.828125 457.753906 256.132812 431.355469 C 218.429688 404.957031 166.46875 414.121094 140.070312 451.820312 C 113.671875 489.519531 122.835938 541.480469 160.535156 567.878906 C 198.234375 594.277344 250.199219 585.113281 276.597656 547.417969 Z M 191.269531 487.667969 C 180.460938 503.105469 165.804688 514.261719 149.496094 520.804688 C 147.070312 514.035156 145.820312 506.890625 145.804688 499.699219 C 156.839844 494.46875 166.710938 486.417969 174.203125 475.71875 C 181.691406 465.027344 185.878906 453.007812 187.023438 440.859375 C 193.789062 438.414062 200.925781 437.148438 208.117188 437.117188 C 207.542969 454.667969 202.070312 472.246094 191.269531 487.667969 Z M 242.40625 523.476562 C 234.910156 534.179688 230.722656 546.21875 229.582031 558.382812 C 222.820312 560.828125 215.679688 562.09375 208.492188 562.125 C 209.058594 544.558594 214.53125 526.964844 225.339844 511.527344 C 236.144531 496.101562 250.796875 484.945312 267.089844 478.402344 C 269.523438 485.167969 270.78125 492.308594 270.796875 499.503906 C 259.765625 504.730469 249.894531 512.78125 242.40625 523.476562 Z M 936.886719 284.609375 C 931.902344 206.699219 897.703125 141.769531 840.589844 101.773438 C 783.476562 61.785156 710.765625 51.851562 635.847656 73.820312 C 562.605469 95.292969 495.800781 144.921875 447.738281 213.5625 C 399.675781 282.203125 375.890625 361.953125 380.761719 438.121094 C 382.835938 470.527344 389.980469 500.675781 401.707031 527.734375 L 362.039062 743.988281 C 350.464844 741.972656 338.242188 746.558594 331.058594 756.820312 L 247.414062 876.277344 C 237.515625 890.414062 240.949219 909.902344 255.089844 919.800781 L 272.152344 931.75 C 286.292969 941.648438 305.777344 938.214844 315.675781 924.074219 L 399.324219 804.613281 C 407.050781 793.578125 406.617188 779.300781 399.34375 768.847656 L 590.351562 659.859375 C 595.199219 660.152344 600.078125 660.332031 604.992188 660.332031 C 629.949219 660.332031 655.746094 656.550781 681.800781 648.914062 C 755.042969 627.4375 821.851562 577.808594 869.910156 509.171875 C 917.972656 440.527344 941.757812 360.777344 936.886719 284.609375 Z M 409.726562 714.953125 L 434.242188 581.308594 C 446.585938 596.335938 460.902344 609.648438 477.058594 620.957031 C 492.988281 632.109375 510.140625 640.910156 528.207031 647.347656 Z M 835.777344 485.269531 C 793.117188 546.191406 734.273438 590.105469 670.078125 608.925781 C 607.554688 627.261719 547.492188 619.410156 500.953125 586.824219 C 403.382812 518.503906 394.820312 361.78125 481.867188 237.460938 C 524.527344 176.542969 583.375 132.628906 647.570312 113.804688 C 669.675781 107.324219 691.46875 104.117188 712.472656 104.117188 C 750.867188 104.117188 786.609375 114.847656 816.691406 135.910156 C 863.226562 168.496094 891.144531 222.246094 895.300781 287.269531 C 899.574219 354.03125 878.433594 424.351562 835.777344 485.269531 Z M 835.777344 485.269531"/></svg>