<svg xmlns="http://www.w3.org/2000/svg" width="1000pt" height="1000pt" viewBox="0 0 1000 1000"><path d="M 311.257812 388.957031 C 326.175781 380.285156 341.777344 378.082031 356.375 382.59375 C 358.183594 383.152344 359.9375 383.828125 361.660156 384.566406 C 377.210938 276.148438 470.683594 192.542969 583.332031 192.542969 C 620.917969 192.542969 656.363281 201.867188 687.496094 218.292969 L 687.496094 79.167969 C 687.496094 69.960938 680.039062 62.5 670.832031 62.5 L 79.167969 62.5 C 69.960938 62.5 62.5 69.960938 62.5 79.167969 L 62.5 462.5 C 62.5 471.703125 69.960938 479.167969 79.167969 479.167969 L 284.035156 479.167969 C 281.890625 447.738281 280.371094 406.914062 311.257812 388.957031 Z M 583.332031 223.796875 C 479.851562 223.796875 395.171875 305.785156 390.816406 408.214844 C 398.167969 417.476562 403.988281 427.75 408.359375 436.914062 C 414.59375 449.996094 418.460938 464.683594 422.203125 478.886719 L 422.273438 479.164062 C 428.75 503.757812 434.910156 526.953125 451.808594 537.792969 C 471.792969 550.597656 514.699219 529.269531 570.300781 479.164062 C 573.230469 476.523438 576.183594 473.828125 579.1875 471.023438 C 617.941406 434.855469 657.097656 390.714844 687.503906 354.90625 C 700.621094 339.457031 712.117188 325.550781 721.238281 314.519531 C 726.550781 308.097656 731.1875 302.488281 735.082031 297.851562 C 721.777344 280.871094 705.683594 266.167969 687.503906 254.441406 C 657.445312 235.058594 621.679688 223.796875 583.332031 223.796875 Z M 932.28125 525.976562 C 927.714844 519.816406 923.480469 518.554688 920.695312 518.144531 C 904.949219 515.808594 880.292969 534.207031 863.960938 546.371094 C 858.921875 550.125 854.164062 553.667969 849.890625 556.511719 C 835.125 566.34375 820.234375 576.644531 805.832031 586.609375 C 788.253906 598.769531 770.074219 611.34375 751.789062 623.300781 L 751.589844 623.429688 C 744.367188 628.148438 734.683594 626.117188 729.960938 618.898438 C 725.242188 611.675781 727.269531 601.992188 734.492188 597.269531 C 765.265625 577.15625 793.101562 549.621094 820.019531 522.992188 L 823.082031 519.964844 C 855.421875 487.996094 892.074219 451.765625 904.84375 410.953125 C 908.285156 399.957031 906.832031 382.382812 892.835938 377.738281 C 870.464844 370.300781 852.007812 389.417969 828.378906 417.226562 C 823.546875 422.910156 818.984375 428.277344 814.414062 433.082031 C 811.558594 436.082031 808.699219 439.03125 805.839844 441.953125 C 799.511719 448.417969 793.191406 454.695312 786.953125 460.722656 C 779.371094 468.050781 771.921875 475.015625 764.730469 481.578125 C 725.925781 516.972656 694.773438 540.332031 692.960938 541.683594 C 686.496094 546.511719 677.40625 545.621094 672.007812 539.617188 C 666.601562 533.617188 666.664062 524.488281 672.140625 518.5625 C 704.140625 483.921875 750.339844 431.488281 775.527344 402.433594 C 781.492188 395.558594 786.285156 389.980469 789.425781 386.269531 L 789.472656 386.214844 L 792.648438 382.476562 C 795.410156 379.234375 798.835938 375.210938 802.570312 370.660156 C 819.933594 349.488281 844.128906 316.679688 840.976562 295.484375 C 840.414062 291.691406 838.707031 286.039062 830.453125 280.742188 C 812.636719 269.320312 788.929688 287.175781 774.910156 300.605469 C 770.964844 304.378906 767.789062 307.804688 765.722656 310.128906 C 765.136719 310.792969 764.480469 311.539062 763.792969 312.335938 C 760.972656 315.597656 757.308594 319.972656 752.988281 325.175781 C 750.621094 328.03125 748.078125 331.109375 745.328125 334.433594 C 730.945312 351.832031 710.753906 376.253906 687.503906 402.761719 C 665.582031 427.753906 640.9375 454.597656 615.867188 479.167969 C 610.761719 484.175781 605.636719 489.089844 600.511719 493.875 C 546.707031 544.089844 503.722656 570.152344 470.417969 572.566406 C 458.535156 573.425781 447.878906 571.292969 438.410156 566.148438 C 437.234375 565.511719 436.074219 564.828125 434.933594 564.097656 C 417.46875 552.894531 407.785156 535.785156 401.125 517.558594 C 397.410156 507.394531 394.625 496.882812 391.980469 486.847656 C 391.296875 484.253906 390.621094 481.699219 389.941406 479.167969 C 387.101562 468.640625 384.160156 458.777344 380.148438 450.363281 C 379.050781 448.058594 377.921875 445.851562 376.773438 443.722656 C 371.347656 433.667969 365.417969 425.621094 359.425781 420.101562 C 355.3125 416.3125 351.171875 413.695312 347.152344 412.453125 C 340.949219 410.539062 334.34375 411.6875 326.964844 415.976562 C 311.964844 424.695312 313.726562 455.679688 315.363281 479.167969 C 315.40625 479.796875 315.449219 480.425781 315.492188 481.042969 C 316.007812 488.410156 316.496094 495.371094 316.5 501.507812 C 316.511719 517.265625 315.929688 534.339844 315.308594 552.414062 C 313.015625 619.539062 310.15625 703.078125 341.332031 729.269531 C 342.847656 730.539062 344.105469 732.089844 345.042969 733.828125 C 349.464844 742.050781 345.425781 748.167969 342.179688 753.078125 L 302.585938 813.007812 L 468.273438 940.1875 L 527.027344 878.117188 C 531.449219 873.457031 536.945312 867.660156 546.390625 870.800781 L 546.828125 870.953125 C 580.757812 883.394531 647.320312 864.988281 729.445312 820.464844 C 797.394531 783.628906 861.492188 736.039062 876.519531 716.363281 C 877.054688 715.664062 877.644531 715.011719 878.292969 714.410156 C 878.464844 714.242188 900.058594 693.148438 890.773438 678.324219 C 888.039062 673.964844 881.648438 663.75 854.785156 671.960938 C 834.621094 678.121094 811.34375 692.078125 792.640625 703.292969 C 780.699219 710.453125 770.382812 716.636719 762.121094 720.160156 C 754.601562 723.371094 745.867188 720.234375 742.113281 712.964844 C 738.355469 705.699219 740.839844 696.761719 747.808594 692.476562 C 794.886719 663.535156 843.566406 633.609375 885.308594 596.582031 C 888.039062 594.164062 891.136719 591.550781 894.417969 588.785156 C 937.679688 552.316406 940.980469 537.714844 932.28125 525.976562 Z M 932.28125 525.976562"/></svg>