<svg xmlns="http://www.w3.org/2000/svg" width="1000pt" height="1000pt" viewBox="0 0 1000 1000"><path d="M 625 312.5 C 452.34375 312.5 312.5 452.34375 312.5 625 C 312.5 797.5 452.34375 937.5 625 937.5 C 797.5 937.5 937.5 797.5 937.5 625 C 937.5 452.34375 797.5 312.5 625 312.5 Z M 715 505.46875 C 703.4375 498.90625 691.5625 493.4375 679.53125 488.59375 L 679.222656 489.21875 C 679.066406 489.527344 678.910156 489.84375 678.75 490.15625 C 666.722656 513.28125 658.285156 537.964844 653.125 563.4375 C 652.816406 564.6875 652.65625 566.089844 652.34375 567.34375 C 651.40625 572.1875 650.3125 577.027344 649.691406 582.03125 C 649.378906 585 649.0625 588.125 648.910156 591.09375 C 648.753906 592.65625 648.753906 594.066406 648.597656 595.628906 C 648.128906 601.097656 647.972656 606.566406 647.816406 612.035156 C 650.785156 613.90625 653.597656 615.941406 656.410156 617.972656 C 657.972656 619.222656 659.691406 620.316406 661.410156 621.566406 C 662.5 622.347656 663.753906 623.128906 664.84375 623.753906 C 666.25 624.535156 667.660156 625.472656 669.0625 626.410156 C 669.6875 626.878906 670.3125 627.347656 670.933594 627.816406 C 671.40625 628.285156 671.871094 628.753906 672.496094 629.222656 C 680.464844 635.160156 687.96875 641.566406 695.308594 648.128906 C 695.621094 648.441406 695.933594 648.597656 696.246094 648.910156 C 697.183594 649.691406 698.121094 650.472656 698.902344 651.253906 L 700.152344 652.503906 C 723.121094 674.222656 743.277344 698.597656 759.214844 726.097656 C 759.371094 726.253906 759.527344 726.566406 759.6875 726.878906 C 759.84375 727.191406 759.84375 727.347656 759.996094 727.503906 C 764.058594 734.535156 767.5 741.722656 770.933594 748.910156 C 771.089844 749.378906 771.246094 749.691406 771.40625 750.160156 C 771.5625 750.472656 771.714844 750.785156 771.875 751.097656 C 775 757.503906 777.65625 764.066406 780.160156 770.628906 C 780.46875 771.566406 780.941406 772.347656 781.25 773.285156 C 781.722656 774.378906 782.1875 775.472656 782.65625 776.566406 C 782.8125 776.878906 782.8125 777.035156 782.96875 777.347656 C 783.125 777.660156 783.125 777.816406 783.28125 778.128906 C 783.589844 779.222656 783.90625 780.160156 784.214844 781.253906 C 784.371094 782.035156 784.6875 782.972656 784.996094 783.910156 C 786.714844 789.222656 788.433594 794.535156 789.996094 800.003906 C 790.308594 800.785156 790.464844 801.566406 790.777344 802.347656 C 791.089844 803.285156 791.402344 804.066406 791.558594 805.003906 C 791.871094 805.9375 792.027344 806.875 792.339844 807.816406 C 792.964844 810.160156 793.433594 812.660156 793.902344 815.160156 C 794.214844 816.566406 794.371094 817.8125 794.683594 819.21875 C 794.996094 820.3125 795.152344 821.5625 795.464844 822.65625 C 795.777344 824.0625 796.089844 825.3125 796.402344 826.71875 C 783.746094 837.34375 770.152344 846.875 755.621094 855.152344 C 754.996094 849.214844 754.058594 843.28125 752.964844 837.339844 C 752.339844 834.214844 751.558594 831.246094 750.933594 828.121094 C 749.527344 821.402344 747.964844 814.683594 745.933594 807.964844 C 745.308594 805.777344 744.527344 803.589844 743.746094 801.402344 C 743.277344 800.3125 742.8125 799.214844 742.496094 798.121094 C 742.183594 797.1875 741.871094 796.25 741.558594 795.308594 C 739.683594 789.996094 737.964844 784.683594 735.777344 779.527344 C 725.777344 786.871094 715.464844 793.902344 704.375 800.3125 C 629.0625 843.75 541.402344 854.0625 460.46875 832.8125 C 434.214844 812.03125 411.875 786.40625 394.84375 757.1875 C 481.871094 811.09375 592.1875 813.4375 682.03125 761.5625 C 693.597656 755.003906 704.21875 747.34375 714.375 739.378906 L 714.0625 739.066406 L 713.90625 738.753906 L 713.4375 738.128906 C 699.375 716.097656 682.1875 696.566406 662.65625 679.222656 C 661.40625 678.128906 660 676.878906 658.75 675.785156 C 655.3125 672.660156 651.875 669.691406 648.28125 666.878906 C 645.785156 665.007812 643.125 663.128906 640.46875 661.410156 C 639.378906 660.628906 638.28125 660.003906 637.191406 659.222656 C 632.8125 656.097656 628.125 653.128906 623.4375 650.320312 C 620.46875 652.035156 617.1875 653.445312 613.90625 654.851562 C 612.035156 655.632812 610.15625 656.414062 608.285156 657.351562 C 607.03125 657.976562 605.941406 658.601562 604.6875 659.222656 C 603.28125 660.003906 601.71875 660.785156 600.3125 661.410156 C 599.6875 661.722656 598.90625 661.882812 598.125 662.191406 C 597.496094 662.503906 596.871094 662.664062 596.25 662.972656 C 587.1875 666.878906 577.8125 670.160156 568.4375 673.285156 C 567.964844 673.597656 567.34375 673.757812 566.875 673.910156 C 566.09375 674.222656 565.15625 674.539062 564.21875 674.847656 C 563.90625 675.003906 563.4375 675.160156 563.125 675.160156 L 562.5 675.160156 C 532.34375 684.378906 500.9375 689.691406 469.222656 689.691406 L 467.8125 689.691406 C 459.53125 689.535156 451.5625 689.066406 443.59375 688.441406 C 443.285156 688.441406 442.8125 688.285156 442.503906 688.285156 C 442.191406 688.128906 441.722656 688.128906 441.410156 688.128906 C 434.222656 687.503906 427.347656 686.566406 420.316406 685.476562 C 419.535156 685.320312 418.597656 685.320312 417.660156 685.164062 C 416.566406 685.007812 415.316406 684.851562 414.066406 684.695312 L 413.285156 684.695312 C 412.972656 684.695312 412.816406 684.539062 412.503906 684.539062 C 411.253906 684.382812 410.003906 684.066406 408.753906 683.757812 C 407.972656 683.445312 407.191406 683.285156 406.410156 683.132812 C 400.941406 682.039062 395.472656 680.789062 390.003906 679.378906 C 389.378906 679.226562 388.597656 679.070312 387.972656 678.910156 C 387.035156 678.753906 385.9375 678.597656 385 678.285156 C 384.691406 678.128906 384.21875 678.128906 383.910156 677.972656 C 383.285156 677.816406 382.816406 677.664062 382.191406 677.503906 C 379.847656 676.878906 377.503906 676.097656 375.160156 675.316406 C 373.753906 674.847656 372.503906 674.378906 371.097656 673.910156 C 370.160156 673.441406 369.066406 673.128906 367.972656 672.816406 C 366.566406 672.347656 365.160156 671.878906 363.753906 671.410156 C 360.941406 656.097656 359.535156 640.316406 359.535156 624.222656 L 359.535156 621.875 C 365.160156 624.21875 370.785156 626.40625 376.414062 628.4375 C 379.382812 629.527344 382.507812 630.46875 385.476562 631.40625 C 392.195312 633.59375 398.757812 635.621094 405.476562 637.183594 C 407.507812 637.65625 409.695312 638.121094 411.882812 638.4375 C 413.132812 638.746094 414.539062 638.90625 415.789062 639.21875 C 417.039062 639.527344 418.132812 639.6875 419.382812 640 C 424.539062 640.9375 429.851562 642.03125 435.164062 642.652344 C 433.757812 630.308594 432.820312 617.808594 432.820312 605.152344 C 432.820312 518.125 467.664062 437.03125 526.726562 377.5 C 557.039062 365.308594 590.164062 358.59375 624.851562 358.59375 C 534.539062 407.03125 477.351562 501.40625 477.351562 605.15625 C 477.351562 618.59375 478.601562 631.566406 480.476562 644.375 L 482.039062 644.375 C 507.976562 643.285156 533.601562 638.28125 558.289062 630.003906 C 559.695312 629.53125 561.101562 629.066406 562.507812 628.59375 C 567.195312 627.1875 571.726562 625.625 576.257812 623.753906 C 578.914062 622.660156 581.726562 621.253906 584.382812 620 C 585.789062 619.375 587.195312 618.59375 588.601562 617.96875 C 593.445312 615.625 598.289062 613.125 603.132812 610.46875 C 603.132812 607.03125 603.601562 603.589844 603.914062 600.15625 C 604.070312 597.96875 604.382812 595.9375 604.539062 593.75 C 604.695312 592.5 604.695312 591.09375 604.695312 589.84375 C 604.851562 588.125 604.851562 586.5625 605.007812 584.84375 C 605.007812 584.0625 605.164062 583.28125 605.320312 582.5 C 605.472656 581.71875 605.472656 581.09375 605.628906 580.46875 C 606.882812 570.625 608.597656 560.9375 610.628906 551.25 C 610.785156 550.78125 610.785156 550.160156 610.941406 549.6875 C 611.097656 548.753906 611.410156 547.65625 611.566406 546.71875 C 611.566406 546.5625 611.566406 546.25 611.722656 545.9375 C 611.878906 545.628906 612.035156 545.46875 612.035156 545.15625 C 619.222656 514.378906 630.160156 484.691406 646.097656 457.1875 L 646.253906 456.875 L 646.410156 456.71875 C 646.566406 456.410156 646.722656 456.25 646.878906 455.9375 C 651.097656 449.0625 655.472656 442.347656 660.003906 435.78125 C 660.316406 435.3125 660.472656 435 660.785156 434.691406 C 660.941406 434.535156 661.253906 434.21875 661.410156 433.910156 C 665.472656 428.128906 669.847656 422.5 674.222656 417.03125 C 674.847656 416.40625 675.316406 415.625 675.941406 414.84375 C 676.566406 413.90625 677.347656 412.96875 678.128906 412.03125 L 678.597656 411.402344 C 678.753906 411.09375 678.910156 410.933594 679.066406 410.777344 C 679.847656 409.839844 680.628906 409.058594 681.410156 408.277344 C 682.035156 407.652344 682.664062 406.871094 683.285156 406.246094 C 687.035156 402.027344 690.785156 397.964844 694.691406 393.902344 C 695.160156 393.277344 695.785156 392.808594 696.253906 392.183594 C 696.878906 391.402344 697.660156 390.621094 698.285156 389.996094 C 698.914062 389.371094 699.695312 388.589844 700.320312 387.964844 C 702.039062 386.246094 703.753906 384.683594 705.632812 383.121094 C 706.726562 382.183594 707.820312 381.089844 708.914062 380.152344 C 709.851562 379.371094 710.785156 378.433594 711.726562 377.652344 C 712.664062 376.871094 713.757812 375.933594 714.695312 374.996094 C 730.476562 380.621094 745.476562 387.652344 759.695312 396.089844 C 755.007812 399.683594 750.320312 403.433594 745.164062 406.246094 C 743.132812 407.964844 741.101562 409.839844 739.070312 411.714844 L 738.132812 412.652344 C 732.976562 417.339844 727.976562 422.027344 723.132812 427.027344 C 721.726562 428.589844 720.320312 430.308594 718.914062 431.871094 C 718.132812 432.808594 717.195312 433.902344 716.257812 434.996094 C 715.324219 435.933594 714.542969 436.871094 713.761719 437.808594 C 710.324219 441.871094 706.882812 445.933594 703.605469 450.152344 C 715.011719 454.996094 726.414062 460.464844 737.351562 466.871094 C 812.664062 510.308594 865.476562 581.246094 887.507812 662.027344 C 882.664062 695.933594 871.414062 727.808594 854.851562 756.402344 C 857.96875 654.0625 804.84375 557.34375 715 505.46875 Z M 487.105469 298.667969 C 530.796875 280.199219 577.191406 270.832031 625 270.832031 C 646.179688 270.832031 667.078125 272.683594 687.597656 276.34375 L 687.597656 79.167969 C 687.597656 69.960938 680.132812 62.5 670.929688 62.5 L 79.261719 62.5 C 70.058594 62.5 62.597656 69.960938 62.597656 79.167969 L 62.597656 462.5 C 62.597656 471.703125 70.058594 479.167969 79.261719 479.167969 L 302.140625 479.167969 C 319.757812 440.160156 344.085938 404.996094 374.542969 374.539062 C 407.050781 342.035156 444.921875 316.507812 487.105469 298.667969 Z M 487.105469 298.667969"/></svg>