<svg xmlns="http://www.w3.org/2000/svg" width="1000pt" height="1000pt" viewBox="0 0 1000 1000"><path d="M 319.578125 789.777344 C 328.074219 791.09375 337.394531 791.820312 347.941406 791.820312 C 352.046875 791.820312 356.347656 791.707031 360.710938 791.488281 C 412.566406 788.890625 434.65625 774.082031 465.234375 753.582031 C 468.90625 751.121094 472.671875 748.601562 476.5625 746.050781 L 476.5625 558.039062 L 404.9375 558.039062 C 399.800781 626.863281 372.566406 689.457031 330.113281 738.65625 C 318.070312 728.609375 306.921875 717.519531 296.816406 705.523438 C 330.96875 664.90625 353.109375 613.921875 358.035156 558.054688 L 235.402344 558.054688 C 234.726562 550.328125 234.378906 542.507812 234.378906 534.609375 C 234.378906 526.714844 234.722656 518.898438 235.398438 511.175781 L 358.035156 511.175781 C 353.113281 455.308594 330.964844 404.320312 296.808594 363.699219 C 306.917969 351.703125 318.066406 340.609375 330.113281 330.5625 C 372.566406 379.761719 399.800781 442.355469 404.9375 511.175781 L 476.5625 511.175781 L 476.5625 270.007812 C 484.285156 269.328125 492.105469 268.980469 500 268.980469 C 507.898438 268.980469 515.714844 269.328125 523.441406 270.007812 L 523.441406 511.175781 L 595.066406 511.175781 C 600.203125 442.351562 627.4375 379.761719 669.886719 330.558594 C 681.933594 340.609375 693.085938 351.703125 703.195312 363.703125 C 669.050781 404.320312 646.910156 455.304688 641.984375 511.175781 L 764.601562 511.175781 C 765.277344 518.894531 765.621094 526.710938 765.621094 534.605469 C 765.621094 542.507812 765.277344 550.328125 764.597656 558.054688 L 641.984375 558.054688 C 646.578125 610.195312 666.183594 658.082031 696.535156 697.257812 C 719.785156 700.570312 739.421875 706.285156 756.597656 712.957031 C 791.824219 662.375 812.5 600.90625 812.5 534.605469 C 812.5 362.011719 672.5625 222.105469 500 222.105469 C 327.40625 222.105469 187.5 362.011719 187.5 534.605469 C 187.5 639.972656 239.667969 733.167969 319.578125 789.777344 Z M 523.441406 558.035156 L 523.441406 719.660156 C 551.234375 707.085938 586.011719 697.046875 633.023438 694.6875 C 634.710938 694.605469 636.382812 694.558594 638.0625 694.496094 C 613.964844 654.039062 598.769531 607.65625 595.066406 558.035156 Z M 915.730469 805.382812 C 852.359375 808.558594 820.242188 791.414062 786.238281 773.261719 C 750.488281 754.179688 709.96875 732.550781 635.109375 736.304688 C 560.25 740.058594 522.097656 765.632812 488.4375 788.195312 C 456.421875 809.65625 426.175781 829.925781 362.800781 833.105469 C 299.429688 836.277344 267.316406 819.136719 233.316406 800.984375 C 197.566406 781.902344 157.050781 760.273438 82.191406 764.023438 C 70.742188 764.601562 61.921875 774.351562 62.496094 785.800781 C 63.074219 797.25 72.820312 806.070312 84.269531 805.492188 C 147.640625 802.320312 179.757812 819.460938 213.761719 837.613281 C 249.507812 856.695312 290.023438 878.324219 364.882812 874.574219 C 439.742188 870.820312 477.894531 845.246094 511.550781 822.683594 C 543.570312 801.222656 573.816406 780.953125 637.191406 777.773438 C 700.5625 774.597656 732.679688 791.738281 766.683594 809.890625 C 802.433594 828.976562 842.949219 850.605469 917.808594 846.851562 C 929.261719 846.277344 938.078125 836.527344 937.507812 825.078125 C 936.929688 813.628906 927.183594 804.808594 915.730469 805.382812 Z M 915.730469 805.382812"/></svg>