<svg xmlns="http://www.w3.org/2000/svg" width="1000pt" height="1000pt" viewBox="0 0 1000 1000"><path d="M 446.925781 214.085938 C 490.714844 198.148438 513.292969 149.730469 497.355469 105.941406 C 481.417969 62.152344 433 39.574219 389.210938 55.511719 C 345.425781 71.449219 322.847656 119.867188 338.785156 163.65625 C 354.722656 207.445312 403.140625 230.023438 446.925781 214.085938 Z M 572.773438 136.296875 C 572.40625 135.289062 572.085938 134.269531 571.75 133.257812 C 565.976562 140.40625 562.5 149.492188 562.5 159.398438 L 562.492188 225.316406 L 347.316406 261.183594 L 346.789062 261.300781 C 345.820312 261.476562 344.863281 261.691406 343.921875 261.929688 C 343.523438 262.03125 343.125 262.125 342.734375 262.234375 C 341.785156 262.503906 340.863281 262.816406 339.945312 263.148438 C 339.558594 263.285156 339.167969 263.421875 338.789062 263.570312 C 337.910156 263.917969 337.058594 264.308594 336.21875 264.707031 C 335.824219 264.898438 335.421875 265.078125 335.03125 265.277344 C 334.230469 265.695312 333.453125 266.144531 332.6875 266.609375 C 332.296875 266.847656 331.898438 267.074219 331.515625 267.324219 C 330.761719 267.808594 330.039062 268.335938 329.320312 268.871094 C 328.964844 269.132812 328.609375 269.386719 328.265625 269.660156 C 327.53125 270.242188 326.832031 270.859375 326.140625 271.492188 C 325.855469 271.75 325.566406 271.996094 325.289062 272.265625 C 324.5625 272.964844 323.871094 273.699219 323.199219 274.449219 C 322.996094 274.671875 322.785156 274.890625 322.585938 275.121094 C 321.878906 275.945312 321.207031 276.804688 320.566406 277.679688 L 320.164062 278.21875 C 319.503906 279.152344 318.886719 280.121094 318.300781 281.109375 L 318.027344 281.554688 C 317.453125 282.5625 316.921875 283.597656 316.429688 284.652344 L 316.199219 285.128906 C 315.734375 286.15625 315.324219 287.207031 314.941406 288.273438 C 314.863281 288.492188 314.777344 288.703125 314.707031 288.921875 C 314.367188 289.921875 314.078125 290.945312 313.816406 291.976562 C 313.734375 292.289062 313.648438 292.597656 313.574219 292.910156 C 313.355469 293.859375 313.183594 294.824219 313.035156 295.792969 C 312.96875 296.210938 312.894531 296.621094 312.839844 297.042969 C 312.726562 297.957031 312.65625 298.878906 312.605469 299.804688 C 312.574219 300.277344 312.542969 300.75 312.53125 301.230469 C 312.523438 301.582031 312.480469 301.925781 312.480469 302.285156 L 312.480469 552.285156 C 312.480469 575.296875 331.132812 593.949219 354.144531 593.949219 L 418.074219 593.949219 C 489.859375 593.949219 548.257812 652.351562 548.257812 724.132812 C 548.257812 795.917969 489.859375 854.316406 418.074219 854.316406 C 346.292969 854.316406 287.890625 795.917969 287.890625 724.132812 C 287.890625 702.738281 292.898438 682.378906 302.773438 663.613281 C 313.492188 643.25 305.671875 618.050781 285.308594 607.335938 C 264.949219 596.613281 239.75 604.433594 229.03125 624.800781 C 213.019531 655.222656 204.558594 689.570312 204.558594 724.132812 C 204.558594 841.867188 300.339844 937.648438 418.074219 937.648438 C 535.808594 937.648438 631.589844 841.867188 631.589844 724.132812 C 631.589844 643.617188 586.789062 573.378906 520.8125 537.011719 L 520.8125 316.746094 L 611.007812 301.710938 C 631.097656 298.363281 645.824219 280.984375 645.824219 260.613281 L 645.832031 201.808594 C 612.652344 193.605469 584.792969 169.316406 572.773438 136.296875 Z M 729.386719 79.292969 C 728.863281 77.859375 728.285156 76.472656 727.671875 75.105469 C 727.546875 74.824219 727.421875 74.546875 727.292969 74.273438 C 726.671875 72.933594 726.015625 71.621094 725.3125 70.347656 L 725.078125 69.941406 C 724.414062 68.765625 723.714844 67.617188 722.980469 66.496094 C 722.835938 66.273438 722.695312 66.046875 722.546875 65.828125 C 721.75 64.640625 720.917969 63.484375 720.050781 62.363281 C 719.898438 62.171875 719.742188 61.980469 719.589844 61.792969 C 718.777344 60.773438 717.941406 59.777344 717.074219 58.816406 L 716.691406 58.386719 C 715.738281 57.347656 714.746094 56.351562 713.730469 55.386719 C 713.523438 55.1875 713.3125 54.996094 713.105469 54.804688 C 712.085938 53.867188 711.050781 52.953125 709.976562 52.085938 L 709.882812 52.007812 C 708.78125 51.121094 707.644531 50.285156 706.484375 49.476562 C 706.246094 49.308594 706.007812 49.140625 705.761719 48.980469 C 704.601562 48.191406 703.425781 47.4375 702.214844 46.730469 L 701.949219 46.582031 C 700.804688 45.921875 699.636719 45.304688 698.453125 44.714844 C 698.203125 44.589844 697.957031 44.464844 697.707031 44.34375 C 696.460938 43.746094 695.203125 43.183594 693.921875 42.671875 C 693.710938 42.585938 693.496094 42.511719 693.285156 42.429688 C 692.117188 41.976562 690.941406 41.554688 689.746094 41.171875 C 689.523438 41.101562 689.300781 41.023438 689.078125 40.953125 C 687.765625 40.546875 686.433594 40.191406 685.09375 39.867188 C 684.8125 39.800781 684.527344 39.742188 684.25 39.679688 C 682.984375 39.394531 681.710938 39.144531 680.429688 38.941406 L 680.027344 38.871094 C 678.652344 38.664062 677.265625 38.511719 675.875 38.394531 C 675.558594 38.367188 675.242188 38.347656 674.929688 38.324219 C 673.519531 38.226562 672.109375 38.160156 670.695312 38.160156 C 669.746094 38.160156 668.796875 38.183594 667.84375 38.226562 C 667.558594 38.238281 667.273438 38.265625 666.988281 38.277344 C 666.304688 38.320312 665.621094 38.363281 664.941406 38.425781 C 664.585938 38.460938 664.230469 38.503906 663.878906 38.542969 C 663.257812 38.609375 662.640625 38.683594 662.019531 38.769531 C 661.648438 38.820312 661.277344 38.882812 660.902344 38.941406 C 660.296875 39.039062 659.6875 39.144531 659.078125 39.257812 C 658.710938 39.328125 658.34375 39.398438 657.976562 39.476562 C 657.347656 39.605469 656.714844 39.753906 656.085938 39.902344 C 655.75 39.984375 655.414062 40.0625 655.074219 40.148438 C 654.367188 40.332031 653.660156 40.539062 652.949219 40.746094 C 652.695312 40.820312 652.441406 40.886719 652.1875 40.964844 C 651.214844 41.269531 650.246094 41.589844 649.28125 41.941406 C 626.980469 50.058594 612.109375 69.546875 608.828125 91.472656 C 607.515625 100.214844 608.066406 109.351562 610.707031 118.304688 C 611.078125 119.554688 611.476562 120.804688 611.925781 122.046875 C 612.441406 123.460938 613.015625 124.835938 613.621094 126.1875 C 613.757812 126.492188 613.894531 126.800781 614.035156 127.105469 C 614.648438 128.417969 615.292969 129.710938 615.984375 130.964844 L 616.28125 131.46875 C 616.921875 132.605469 617.597656 133.710938 618.300781 134.792969 C 618.464844 135.042969 618.621094 135.292969 618.785156 135.539062 C 619.570312 136.710938 620.390625 137.847656 621.246094 138.953125 C 621.414062 139.167969 621.585938 139.378906 621.757812 139.589844 C 622.546875 140.582031 623.363281 141.546875 624.203125 142.484375 L 624.636719 142.972656 C 625.582031 143.996094 626.558594 144.984375 627.566406 145.941406 C 627.785156 146.148438 628.011719 146.355469 628.230469 146.558594 C 629.230469 147.476562 630.242188 148.371094 631.292969 149.222656 L 631.441406 149.347656 C 632.53125 150.226562 633.664062 151.054688 634.808594 151.855469 C 635.058594 152.03125 635.308594 152.203125 635.558594 152.371094 C 636.714844 153.152344 637.882812 153.90625 639.082031 154.609375 L 639.386719 154.777344 C 640.519531 155.429688 641.675781 156.042969 642.847656 156.625 C 643.101562 156.753906 643.351562 156.878906 643.609375 157.003906 C 644.316406 157.339844 645.042969 157.640625 645.757812 157.953125 C 646.300781 158.1875 646.835938 158.449219 647.386719 158.671875 C 647.597656 158.757812 647.8125 158.832031 648.027344 158.917969 C 649.195312 159.367188 650.371094 159.789062 651.5625 160.171875 C 651.785156 160.242188 652.007812 160.320312 652.230469 160.390625 C 653.546875 160.796875 654.878906 161.15625 656.214844 161.476562 C 656.496094 161.542969 656.777344 161.601562 657.054688 161.664062 C 658.324219 161.949219 659.601562 162.199219 660.890625 162.402344 L 661.277344 162.472656 C 662.65625 162.683594 664.046875 162.832031 665.441406 162.949219 C 665.753906 162.976562 666.066406 162.996094 666.382812 163.019531 C 667.789062 163.117188 669.203125 163.183594 670.617188 163.183594 C 671.566406 163.183594 672.515625 163.160156 673.46875 163.117188 C 673.753906 163.105469 674.035156 163.078125 674.320312 163.066406 C 675.003906 163.023438 675.683594 162.980469 676.367188 162.917969 C 676.726562 162.882812 677.082031 162.839844 677.4375 162.800781 C 678.054688 162.734375 678.667969 162.660156 679.285156 162.574219 C 679.664062 162.523438 680.039062 162.460938 680.414062 162.402344 C 681.015625 162.304688 681.617188 162.203125 682.214844 162.089844 C 682.597656 162.015625 682.972656 161.945312 683.347656 161.867188 C 683.960938 161.738281 684.574219 161.597656 685.1875 161.449219 C 685.542969 161.363281 685.902344 161.28125 686.257812 161.191406 C 686.921875 161.015625 687.585938 160.824219 688.25 160.628906 C 688.550781 160.542969 688.855469 160.460938 689.15625 160.367188 C 690.117188 160.066406 691.074219 159.75 692.03125 159.402344 C 724.46875 147.589844 741.191406 111.726562 729.386719 79.292969 Z M 729.386719 79.292969"/></svg>